<svg width="727" height="1272" viewBox="0 0 727 1272" fill="none" xmlns="http://www.w3.org/2000/svg">
<g clip-path="url(#clip0_18961_16869)">
<rect width="728" height="1273" rx="20.1569" fill="#66805D"/>
<path d="M550 547.667H333V501.111C333 484.648 339.532 468.859 351.159 457.218C362.787 445.577 378.557 439.037 395 439.037C424.779 439.037 451.575 460.375 457.31 488.677C458.161 492.676 460.555 496.177 463.971 498.419C467.386 500.662 471.547 501.463 475.55 500.651C479.553 499.838 483.074 497.476 485.347 494.079C487.62 490.682 488.462 486.524 487.69 482.508C478.932 439.328 439.95 408 395 408C370.343 408.026 346.703 417.844 329.267 435.3C311.832 452.756 302.026 476.424 302 501.111V547.667H240C231.778 547.667 223.893 550.937 218.08 556.757C212.266 562.578 209 570.472 209 578.704V795.963C209 804.194 212.266 812.089 218.08 817.909C223.893 823.73 231.778 827 240 827H550C558.222 827 566.107 823.73 571.92 817.909C577.734 812.089 581 804.194 581 795.963V578.704C581 570.472 577.734 562.578 571.92 556.757C566.107 550.937 558.222 547.667 550 547.667ZM410.5 700.194V749.407C410.5 753.523 408.867 757.47 405.96 760.381C403.053 763.291 399.111 764.926 395 764.926C390.889 764.926 386.947 763.291 384.04 760.381C381.133 757.47 379.5 753.523 379.5 749.407V700.194C369.158 696.534 360.442 689.33 354.892 679.858C349.342 670.385 347.315 659.253 349.17 648.429C351.025 637.605 356.642 627.785 365.028 620.707C373.415 613.628 384.031 609.746 395 609.746C405.969 609.746 416.585 613.628 424.972 620.707C433.358 627.785 438.975 637.605 440.83 648.429C442.685 659.253 440.658 670.385 435.108 679.858C429.558 689.33 420.842 696.534 410.5 700.194Z" fill="#121D26"/>
<rect x="106.1" y="681.1" width="298.8" height="50.8" rx="4.9" fill="#121D26"/>
<rect x="106.1" y="681.1" width="298.8" height="50.8" rx="4.9" stroke="#66805D" stroke-width="0.2"/>
<circle cx="170.5" cy="706.5" r="13.5" fill="white"/>
<circle cx="170.5" cy="706.5" r="13.5" fill="white"/>
<circle cx="204.5" cy="706.5" r="13.5" fill="white"/>
<circle cx="204.5" cy="706.5" r="13.5" fill="white"/>
<circle cx="238.5" cy="706.5" r="13.5" fill="white"/>
<circle cx="238.5" cy="706.5" r="13.5" fill="white"/>
<circle cx="272.5" cy="706.5" r="13.5" fill="white"/>
<circle cx="272.5" cy="706.5" r="13.5" fill="white"/>
<circle cx="306.5" cy="706.5" r="13.5" fill="white"/>
<circle cx="306.5" cy="706.5" r="13.5" fill="white"/>
<circle cx="340.5" cy="706.5" r="13.5" fill="white"/>
<circle cx="340.5" cy="706.5" r="13.5" fill="white"/>
<rect x="528" y="774" width="93" height="91" rx="12" fill="#121D26"/>
<path d="M528 786C528 779.373 533.373 774 540 774H581V812C581 820.284 574.284 827 566 827H528V786Z" fill="white"/>
<path d="M554 787.764C553.192 787.914 552.242 788.239 550.784 788.739L550.02 789C546.011 790.372 544.007 791.059 543.503 791.776C543.011 792.477 543 794.532 543 798.612L554 794.945V787.764Z" fill="#66805D"/>
<path d="M554 797.053L543 800.72V800.988C543 808.505 548.652 812.153 552.198 813.702C552.879 814 553.319 814.192 554 814.279V797.053Z" fill="#66805D"/>
<path d="M556 814.279V797.053L567 800.72V800.988C567 808.505 561.348 812.153 557.802 813.702C557.121 814 556.681 814.192 556 814.279Z" fill="#66805D"/>
<path d="M556 794.945V787.764C556.808 787.914 557.758 788.239 559.216 788.739L559.98 789C563.989 790.372 565.993 791.059 566.497 791.776C566.989 792.477 567 794.532 567 798.612L556 794.945Z" fill="#66805D"/>
<path d="M178.03 107.4C175.444 107.4 173.204 106.84 171.31 105.72C169.444 104.573 168.004 102.973 166.99 100.92C166.004 98.84 165.51 96.4 165.51 93.6C165.51 90.8 166.004 88.3733 166.99 86.32C168.004 84.24 169.444 82.64 171.31 81.52C173.204 80.3733 175.444 79.8 178.03 79.8C180.457 79.8 182.524 80.2267 184.23 81.08C185.937 81.9333 187.257 83.1333 188.19 84.68C189.124 86.2267 189.59 88.08 189.59 90.24V90.48H185.03V90.24C185.03 88.0533 184.47 86.4667 183.35 85.48C182.257 84.4667 180.444 83.96 177.91 83.96C176.07 83.96 174.577 84.28 173.43 84.92C172.284 85.56 171.444 86.5867 170.91 88C170.377 89.4133 170.11 91.28 170.11 93.6C170.11 95.8933 170.377 97.76 170.91 99.2C171.444 100.613 172.284 101.64 173.43 102.28C174.577 102.893 176.07 103.2 177.91 103.2C180.444 103.2 182.257 102.707 183.35 101.72C184.47 100.733 185.03 99.1467 185.03 96.96V96.72H189.59V96.96C189.59 99.0933 189.124 100.947 188.19 102.52C187.257 104.067 185.937 105.267 184.23 106.12C182.524 106.973 180.457 107.4 178.03 107.4ZM197.463 107H193.143V87H197.103V92.56L197.463 92.76V107ZM197.463 94.04H196.463V90.16H197.303C197.703 89.2267 198.357 88.4267 199.263 87.76C200.197 87.0667 201.397 86.72 202.863 86.72C204.277 86.72 205.397 87.0267 206.223 87.64C207.077 88.2533 207.69 89.0667 208.063 90.08C208.437 91.0933 208.623 92.2267 208.623 93.48V94.8H204.303V94C204.303 92.6667 204.077 91.7333 203.623 91.2C203.17 90.6667 202.317 90.4 201.063 90.4C199.757 90.4 198.823 90.68 198.263 91.24C197.73 91.7733 197.463 92.7067 197.463 94.04ZM220.226 107.4C218.066 107.4 216.266 106.973 214.826 106.12C213.386 105.24 212.319 104.027 211.626 102.48C210.932 100.907 210.586 99.0933 210.586 97.04C210.586 94.9867 210.972 93.1867 211.746 91.64C212.546 90.0933 213.666 88.8933 215.106 88.04C216.546 87.16 218.252 86.72 220.226 86.72C222.012 86.72 223.586 87.0667 224.946 87.76C226.332 88.4267 227.399 89.4 228.146 90.68C228.919 91.96 229.306 93.5067 229.306 95.32C229.306 95.8533 229.279 96.3733 229.226 96.88C229.199 97.36 229.159 97.76 229.106 98.08H212.626V95.2H225.586L225.146 95.6C225.252 94.3733 225.119 93.3733 224.746 92.6C224.399 91.8267 223.826 91.2533 223.026 90.88C222.252 90.5067 221.279 90.32 220.106 90.32C217.999 90.32 216.559 90.8533 215.786 91.92C215.012 92.96 214.626 94.4 214.626 96.24V97.44C214.626 98.7733 214.786 99.9067 215.106 100.84C215.452 101.747 216.039 102.427 216.866 102.88C217.692 103.333 218.826 103.56 220.266 103.56C221.946 103.56 223.132 103.293 223.826 102.76C224.519 102.227 224.866 101.52 224.866 100.64V100.32H229.146V100.68C229.146 102.04 228.772 103.227 228.026 104.24C227.279 105.227 226.239 106 224.906 106.56C223.599 107.12 222.039 107.4 220.226 107.4ZM249.749 107H245.749V103.08L245.629 102V94.36C245.629 92.8667 245.269 91.8533 244.549 91.32C243.856 90.7867 242.722 90.52 241.149 90.52C239.576 90.52 238.442 90.8 237.749 91.36C237.082 91.92 236.749 92.8533 236.749 94.16V94.76H232.589V94.36C232.589 92.8667 232.949 91.5467 233.669 90.4C234.416 89.2533 235.442 88.36 236.749 87.72C238.082 87.0533 239.629 86.72 241.389 86.72C243.256 86.72 244.802 87.0667 246.029 87.76C247.256 88.4533 248.176 89.4133 248.789 90.64C249.429 91.84 249.749 93.2667 249.749 94.92V107ZM238.349 107.4C236.562 107.4 235.056 106.947 233.829 106.04C232.629 105.107 232.029 103.787 232.029 102.08C232.029 100.96 232.282 100.027 232.789 99.28C233.322 98.5333 234.082 97.92 235.069 97.44C236.056 96.96 237.256 96.6267 238.669 96.44L246.029 95.4V98.44L239.309 99.44C238.162 99.6 237.362 99.84 236.909 100.16C236.456 100.48 236.229 101.013 236.229 101.76C236.229 102.533 236.496 103.093 237.029 103.44C237.589 103.787 238.496 103.96 239.749 103.96C240.709 103.96 241.629 103.813 242.509 103.52C243.416 103.2 244.162 102.68 244.749 101.96C245.336 101.213 245.629 100.173 245.629 98.84L246.189 103.92L245.549 103.88C245.176 104.493 244.656 105.067 243.989 105.6C243.349 106.133 242.562 106.573 241.629 106.92C240.696 107.24 239.602 107.4 238.349 107.4ZM261.971 107C259.785 107 258.105 106.533 256.931 105.6C255.785 104.667 255.211 103.093 255.211 100.88V87.56L256.211 82.2H259.531V100.68C259.531 101.72 259.785 102.387 260.291 102.68C260.825 102.947 261.771 103.08 263.131 103.08H265.531V106.64C265.131 106.747 264.611 106.84 263.971 106.92C263.331 106.973 262.665 107 261.971 107ZM265.531 90.72H251.891V87.12H265.531V90.72ZM276.593 107.4C274.433 107.4 272.633 106.973 271.193 106.12C269.753 105.24 268.686 104.027 267.993 102.48C267.299 100.907 266.953 99.0933 266.953 97.04C266.953 94.9867 267.339 93.1867 268.113 91.64C268.913 90.0933 270.033 88.8933 271.473 88.04C272.913 87.16 274.619 86.72 276.593 86.72C278.379 86.72 279.953 87.0667 281.313 87.76C282.699 88.4267 283.766 89.4 284.513 90.68C285.286 91.96 285.673 93.5067 285.673 95.32C285.673 95.8533 285.646 96.3733 285.593 96.88C285.566 97.36 285.526 97.76 285.473 98.08H268.993V95.2H281.953L281.513 95.6C281.619 94.3733 281.486 93.3733 281.113 92.6C280.766 91.8267 280.193 91.2533 279.393 90.88C278.619 90.5067 277.646 90.32 276.473 90.32C274.366 90.32 272.926 90.8533 272.153 91.92C271.379 92.96 270.993 94.4 270.993 96.24V97.44C270.993 98.7733 271.153 99.9067 271.473 100.84C271.819 101.747 272.406 102.427 273.233 102.88C274.059 103.333 275.193 103.56 276.633 103.56C278.313 103.56 279.499 103.293 280.193 102.76C280.886 102.227 281.233 101.52 281.233 100.64V100.32H285.513V100.68C285.513 102.04 285.139 103.227 284.393 104.24C283.646 105.227 282.606 106 281.273 106.56C279.966 107.12 278.406 107.4 276.593 107.4ZM313.694 107H309.694V103.08L309.574 102V94.36C309.574 92.8667 309.214 91.8533 308.494 91.32C307.801 90.7867 306.668 90.52 305.094 90.52C303.521 90.52 302.388 90.8 301.694 91.36C301.028 91.92 300.694 92.8533 300.694 94.16V94.76H296.534V94.36C296.534 92.8667 296.894 91.5467 297.614 90.4C298.361 89.2533 299.388 88.36 300.694 87.72C302.028 87.0533 303.574 86.72 305.334 86.72C307.201 86.72 308.748 87.0667 309.974 87.76C311.201 88.4533 312.121 89.4133 312.734 90.64C313.374 91.84 313.694 93.2667 313.694 94.92V107ZM302.294 107.4C300.508 107.4 299.001 106.947 297.774 106.04C296.574 105.107 295.974 103.787 295.974 102.08C295.974 100.96 296.228 100.027 296.734 99.28C297.268 98.5333 298.028 97.92 299.014 97.44C300.001 96.96 301.201 96.6267 302.614 96.44L309.974 95.4V98.44L303.254 99.44C302.108 99.6 301.308 99.84 300.854 100.16C300.401 100.48 300.174 101.013 300.174 101.76C300.174 102.533 300.441 103.093 300.974 103.44C301.534 103.787 302.441 103.96 303.694 103.96C304.654 103.96 305.574 103.813 306.454 103.52C307.361 103.2 308.108 102.68 308.694 101.96C309.281 101.213 309.574 100.173 309.574 98.84L310.134 103.92L309.494 103.88C309.121 104.493 308.601 105.067 307.934 105.6C307.294 106.133 306.508 106.573 305.574 106.92C304.641 107.24 303.548 107.4 302.294 107.4ZM333.73 107.4C330.823 107.4 328.623 106.827 327.13 105.68C325.637 104.507 324.89 102.707 324.89 100.28V100.2H329.05V100.92C329.05 101.613 329.183 102.187 329.45 102.64C329.743 103.067 330.223 103.387 330.89 103.6C331.583 103.787 332.557 103.88 333.81 103.88C334.877 103.88 335.677 103.8 336.21 103.64C336.77 103.453 337.143 103.2 337.33 102.88C337.517 102.56 337.61 102.16 337.61 101.68C337.61 100.88 337.33 100.32 336.77 100C336.21 99.6533 335.21 99.3467 333.77 99.08L330.65 98.56C329.477 98.32 328.45 97.9867 327.57 97.56C326.717 97.1067 326.05 96.4933 325.57 95.72C325.117 94.92 324.89 93.92 324.89 92.72C324.89 90.9333 325.597 89.4933 327.01 88.4C328.423 87.28 330.423 86.72 333.01 86.72C334.583 86.72 335.983 86.9733 337.21 87.48C338.437 87.9867 339.41 88.7467 340.13 89.76C340.85 90.7733 341.21 92.04 341.21 93.56V93.92H337.09V93.44C337.09 92.8 336.983 92.2533 336.77 91.8C336.557 91.32 336.157 90.9467 335.57 90.68C334.983 90.4133 334.09 90.28 332.89 90.28C331.317 90.28 330.277 90.48 329.77 90.88C329.263 91.28 329.01 91.8667 329.01 92.64C329.01 93.4133 329.237 93.96 329.69 94.28C330.17 94.5733 331.103 94.8667 332.49 95.16L335.89 95.8C337.17 96.04 338.237 96.4 339.09 96.88C339.943 97.36 340.583 97.9867 341.01 98.76C341.463 99.5333 341.69 100.453 341.69 101.52C341.69 103.387 340.983 104.84 339.57 105.88C338.183 106.893 336.237 107.4 333.73 107.4ZM353.26 107C351.074 107 349.394 106.533 348.22 105.6C347.074 104.667 346.5 103.093 346.5 100.88V87.56L347.5 82.2H350.82V100.68C350.82 101.72 351.074 102.387 351.58 102.68C352.114 102.947 353.06 103.08 354.42 103.08H356.82V106.64C356.42 106.747 355.9 106.84 355.26 106.92C354.62 106.973 353.954 107 353.26 107ZM356.82 90.72H343.18V87.12H356.82V90.72ZM364.104 107H359.784V87H363.744V92.56L364.104 92.76V107ZM364.104 94.04H363.104V90.16H363.944C364.344 89.2267 364.997 88.4267 365.904 87.76C366.837 87.0667 368.037 86.72 369.504 86.72C370.917 86.72 372.037 87.0267 372.864 87.64C373.717 88.2533 374.331 89.0667 374.704 90.08C375.077 91.0933 375.264 92.2267 375.264 93.48V94.8H370.944V94C370.944 92.6667 370.717 91.7333 370.264 91.2C369.811 90.6667 368.957 90.4 367.704 90.4C366.397 90.4 365.464 90.68 364.904 91.24C364.371 91.7733 364.104 92.7067 364.104 94.04ZM387.146 107.4C385.12 107.4 383.36 106.973 381.866 106.12C380.373 105.24 379.226 104.027 378.426 102.48C377.626 100.907 377.226 99.0933 377.226 97.04C377.226 94.9867 377.626 93.1867 378.426 91.64C379.226 90.0933 380.373 88.8933 381.866 88.04C383.36 87.16 385.12 86.72 387.146 86.72C389.173 86.72 390.906 87.16 392.346 88.04C393.813 88.8933 394.933 90.0933 395.706 91.64C396.506 93.1867 396.906 94.9867 396.906 97.04C396.906 99.0933 396.506 100.907 395.706 102.48C394.933 104.027 393.813 105.24 392.346 106.12C390.906 106.973 389.173 107.4 387.146 107.4ZM387.146 103.56C389.226 103.56 390.68 103.04 391.506 102C392.333 100.933 392.746 99.28 392.746 97.04C392.746 94.8 392.333 93.16 391.506 92.12C390.68 91.08 389.226 90.56 387.146 90.56C385.04 90.56 383.573 91.08 382.746 92.12C381.92 93.16 381.506 94.8 381.506 97.04C381.506 99.28 381.92 100.933 382.746 102C383.573 103.04 385.04 103.56 387.146 103.56ZM418.656 107H414.336V95.44C414.336 93.68 414.002 92.4133 413.336 91.64C412.669 90.84 411.416 90.44 409.576 90.44C408.402 90.44 407.442 90.6133 406.696 90.96C405.949 91.28 405.389 91.8133 405.016 92.56C404.642 93.28 404.456 94.2667 404.456 95.52H403.696L403.336 90.84H404.296C404.589 90.12 405.029 89.4533 405.616 88.84C406.202 88.2267 406.949 87.72 407.856 87.32C408.789 86.92 409.896 86.72 411.176 86.72C412.909 86.72 414.322 87.0533 415.416 87.72C416.509 88.3867 417.322 89.3067 417.856 90.48C418.389 91.6533 418.656 93 418.656 94.52V107ZM404.456 107H400.136V87.12H404.096V93.08L404.456 93.28V107ZM432.114 114.2C430.247 114.2 428.62 113.907 427.234 113.32C425.874 112.733 424.82 111.88 424.074 110.76C423.327 109.667 422.954 108.32 422.954 106.72H427.274C427.274 107.627 427.407 108.347 427.674 108.88C427.94 109.413 428.434 109.787 429.154 110C429.874 110.24 430.9 110.36 432.234 110.36C433.54 110.36 434.54 110.213 435.234 109.92C435.927 109.627 436.407 109.133 436.674 108.44C436.94 107.747 437.074 106.787 437.074 105.56V92.36L437.394 91.84V87.12H441.394V105.56C441.394 107.507 441.02 109.107 440.274 110.36C439.527 111.64 438.46 112.6 437.074 113.24C435.714 113.88 434.06 114.2 432.114 114.2ZM430.434 105.12C427.687 105.12 425.58 104.293 424.114 102.64C422.647 100.96 421.914 98.72 421.914 95.92C421.914 93.12 422.66 90.8933 424.154 89.24C425.647 87.56 427.794 86.72 430.594 86.72C432.22 86.72 433.62 87.0533 434.794 87.72C435.967 88.36 436.78 89.2533 437.234 90.4H438.034L437.834 95.28H437.074C437.074 94.16 436.847 93.24 436.394 92.52C435.94 91.8 435.3 91.2667 434.474 90.92C433.647 90.5733 432.687 90.4 431.594 90.4C430.34 90.4 429.314 90.5733 428.514 90.92C427.74 91.2667 427.167 91.8533 426.794 92.68C426.42 93.48 426.234 94.56 426.234 95.92C426.234 96.9333 426.34 97.8 426.554 98.52C426.767 99.2133 427.1 99.7733 427.554 100.2C428.007 100.627 428.58 100.947 429.274 101.16C429.967 101.347 430.767 101.44 431.674 101.44C432.767 101.44 433.714 101.267 434.514 100.92C435.314 100.547 435.94 100 436.394 99.28C436.847 98.56 437.074 97.64 437.074 96.52H437.954V101.6H436.914C436.46 102.56 435.674 103.387 434.554 104.08C433.434 104.773 432.06 105.12 430.434 105.12ZM464.063 107.4C462.276 107.4 460.823 107.053 459.703 106.36C458.609 105.64 457.849 104.827 457.423 103.92H456.342L456.543 98.84H457.303C457.303 99.9333 457.503 100.84 457.903 101.56C458.329 102.28 458.956 102.827 459.783 103.2C460.609 103.547 461.596 103.72 462.743 103.72C463.676 103.72 464.489 103.6 465.183 103.36C465.876 103.12 466.436 102.747 466.863 102.24C467.316 101.733 467.636 101.053 467.823 100.2C468.036 99.32 468.143 98.2667 468.143 97.04C468.143 95.8133 468.036 94.7867 467.823 93.96C467.636 93.1067 467.316 92.4133 466.863 91.88C466.436 91.3467 465.876 90.9733 465.183 90.76C464.516 90.52 463.703 90.4 462.743 90.4C461.596 90.4 460.609 90.5867 459.783 90.96C458.956 91.3067 458.329 91.84 457.903 92.56C457.503 93.2533 457.303 94.16 457.303 95.28H456.543L456.342 90.4H457.143C457.623 89.2533 458.409 88.36 459.503 87.72C460.623 87.0533 462.049 86.72 463.783 86.72C466.583 86.72 468.729 87.6533 470.223 89.52C471.716 91.3867 472.463 93.8933 472.463 97.04C472.463 100.187 471.743 102.707 470.303 104.6C468.863 106.467 466.783 107.4 464.063 107.4ZM457.303 113.92H453.023V87.12H456.942V91.84L457.303 92.36V113.92ZM492.913 107H488.913V103.08L488.793 102V94.36C488.793 92.8667 488.433 91.8533 487.713 91.32C487.02 90.7867 485.886 90.52 484.313 90.52C482.74 90.52 481.606 90.8 480.913 91.36C480.246 91.92 479.913 92.8533 479.913 94.16V94.76H475.753V94.36C475.753 92.8667 476.113 91.5467 476.833 90.4C477.58 89.2533 478.606 88.36 479.913 87.72C481.246 87.0533 482.793 86.72 484.553 86.72C486.42 86.72 487.966 87.0667 489.193 87.76C490.42 88.4533 491.34 89.4133 491.953 90.64C492.593 91.84 492.913 93.2667 492.913 94.92V107ZM481.513 107.4C479.726 107.4 478.22 106.947 476.993 106.04C475.793 105.107 475.193 103.787 475.193 102.08C475.193 100.96 475.446 100.027 475.953 99.28C476.486 98.5333 477.246 97.92 478.233 97.44C479.22 96.96 480.42 96.6267 481.833 96.44L489.193 95.4V98.44L482.473 99.44C481.326 99.6 480.526 99.84 480.073 100.16C479.62 100.48 479.393 101.013 479.393 101.76C479.393 102.533 479.66 103.093 480.193 103.44C480.753 103.787 481.66 103.96 482.913 103.96C483.873 103.96 484.793 103.813 485.673 103.52C486.58 103.2 487.326 102.68 487.913 101.96C488.5 101.213 488.793 100.173 488.793 98.84L489.353 103.92L488.713 103.88C488.34 104.493 487.82 105.067 487.153 105.6C486.513 106.133 485.726 106.573 484.793 106.92C483.86 107.24 482.766 107.4 481.513 107.4ZM505.293 107.4C502.386 107.4 500.186 106.827 498.693 105.68C497.199 104.507 496.453 102.707 496.453 100.28V100.2H500.613V100.92C500.613 101.613 500.746 102.187 501.013 102.64C501.306 103.067 501.786 103.387 502.453 103.6C503.146 103.787 504.119 103.88 505.372 103.88C506.439 103.88 507.239 103.8 507.773 103.64C508.333 103.453 508.706 103.2 508.893 102.88C509.079 102.56 509.173 102.16 509.173 101.68C509.173 100.88 508.893 100.32 508.333 100C507.773 99.6533 506.773 99.3467 505.333 99.08L502.213 98.56C501.039 98.32 500.013 97.9867 499.133 97.56C498.279 97.1067 497.613 96.4933 497.133 95.72C496.679 94.92 496.453 93.92 496.453 92.72C496.453 90.9333 497.159 89.4933 498.573 88.4C499.986 87.28 501.986 86.72 504.573 86.72C506.146 86.72 507.546 86.9733 508.773 87.48C509.999 87.9867 510.973 88.7467 511.693 89.76C512.413 90.7733 512.773 92.04 512.773 93.56V93.92H508.653V93.44C508.653 92.8 508.546 92.2533 508.333 91.8C508.119 91.32 507.719 90.9467 507.133 90.68C506.546 90.4133 505.653 90.28 504.453 90.28C502.879 90.28 501.839 90.48 501.333 90.88C500.826 91.28 500.573 91.8667 500.573 92.64C500.573 93.4133 500.799 93.96 501.253 94.28C501.733 94.5733 502.666 94.8667 504.053 95.16L507.453 95.8C508.733 96.04 509.799 96.4 510.653 96.88C511.506 97.36 512.146 97.9867 512.573 98.76C513.026 99.5333 513.253 100.453 513.253 101.52C513.253 103.387 512.546 104.84 511.133 105.88C509.746 106.893 507.799 107.4 505.293 107.4ZM524.98 107.4C522.073 107.4 519.873 106.827 518.38 105.68C516.887 104.507 516.14 102.707 516.14 100.28V100.2H520.3V100.92C520.3 101.613 520.433 102.187 520.7 102.64C520.993 103.067 521.473 103.387 522.14 103.6C522.833 103.787 523.807 103.88 525.06 103.88C526.127 103.88 526.927 103.8 527.46 103.64C528.02 103.453 528.393 103.2 528.58 102.88C528.767 102.56 528.86 102.16 528.86 101.68C528.86 100.88 528.58 100.32 528.02 100C527.46 99.6533 526.46 99.3467 525.02 99.08L521.9 98.56C520.727 98.32 519.7 97.9867 518.82 97.56C517.967 97.1067 517.3 96.4933 516.82 95.72C516.367 94.92 516.14 93.92 516.14 92.72C516.14 90.9333 516.847 89.4933 518.26 88.4C519.673 87.28 521.673 86.72 524.26 86.72C525.833 86.72 527.233 86.9733 528.46 87.48C529.687 87.9867 530.66 88.7467 531.38 89.76C532.1 90.7733 532.46 92.04 532.46 93.56V93.92H528.34V93.44C528.34 92.8 528.233 92.2533 528.02 91.8C527.807 91.32 527.407 90.9467 526.82 90.68C526.233 90.4133 525.34 90.28 524.14 90.28C522.567 90.28 521.527 90.48 521.02 90.88C520.513 91.28 520.26 91.8667 520.26 92.64C520.26 93.4133 520.487 93.96 520.94 94.28C521.42 94.5733 522.353 94.8667 523.74 95.16L527.14 95.8C528.42 96.04 529.487 96.4 530.34 96.88C531.193 97.36 531.833 97.9867 532.26 98.76C532.713 99.5333 532.94 100.453 532.94 101.52C532.94 103.387 532.233 104.84 530.82 105.88C529.433 106.893 527.487 107.4 524.98 107.4ZM544.797 107H539.157L534.237 87.12H538.917L541.197 98.16L542.037 103.4H542.357L543.637 98.16L547.117 87.12H552.717L556.237 98.2L557.517 103.36H557.797L558.637 98.2L560.917 87.12H565.437L560.517 107H554.877L551.317 95.92L549.997 90.92H549.717L548.397 95.92L544.797 107ZM576.013 107.4C573.987 107.4 572.227 106.973 570.733 106.12C569.24 105.24 568.093 104.027 567.293 102.48C566.493 100.907 566.093 99.0933 566.093 97.04C566.093 94.9867 566.493 93.1867 567.293 91.64C568.093 90.0933 569.24 88.8933 570.733 88.04C572.227 87.16 573.987 86.72 576.013 86.72C578.04 86.72 579.773 87.16 581.213 88.04C582.68 88.8933 583.8 90.0933 584.573 91.64C585.373 93.1867 585.773 94.9867 585.773 97.04C585.773 99.0933 585.373 100.907 584.573 102.48C583.8 104.027 582.68 105.24 581.213 106.12C579.773 106.973 578.04 107.4 576.013 107.4ZM576.013 103.56C578.093 103.56 579.547 103.04 580.373 102C581.2 100.933 581.613 99.28 581.613 97.04C581.613 94.8 581.2 93.16 580.373 92.12C579.547 91.08 578.093 90.56 576.013 90.56C573.907 90.56 572.44 91.08 571.613 92.12C570.787 93.16 570.373 94.8 570.373 97.04C570.373 99.28 570.787 100.933 571.613 102C572.44 103.04 573.907 103.56 576.013 103.56ZM593.323 107H589.003V87H592.963V92.56L593.323 92.76V107ZM593.323 94.04H592.323V90.16H593.163C593.563 89.2267 594.216 88.4267 595.123 87.76C596.056 87.0667 597.256 86.72 598.723 86.72C600.136 86.72 601.256 87.0267 602.083 87.64C602.936 88.2533 603.549 89.0667 603.923 90.08C604.296 91.0933 604.483 92.2267 604.483 93.48V94.8H600.163V94C600.163 92.6667 599.936 91.7333 599.483 91.2C599.029 90.6667 598.176 90.4 596.923 90.4C595.616 90.4 594.683 90.68 594.123 91.24C593.589 91.7733 593.323 92.7067 593.323 94.04ZM615.205 107.4C612.378 107.4 610.205 106.467 608.685 104.6C607.192 102.707 606.445 100.187 606.445 97.04C606.445 93.8933 607.178 91.3867 608.645 89.52C610.138 87.6533 612.245 86.72 614.965 86.72C616.725 86.72 618.138 87.08 619.205 87.8C620.298 88.4933 621.058 89.2933 621.485 90.2H622.565L622.365 95.28H621.605C621.605 94.16 621.392 93.24 620.965 92.52C620.538 91.8 619.925 91.2667 619.125 90.92C618.325 90.5733 617.338 90.4 616.165 90.4C615.205 90.4 614.378 90.52 613.685 90.76C613.018 91 612.458 91.3733 612.005 91.88C611.578 92.3867 611.258 93.0667 611.045 93.92C610.858 94.7733 610.765 95.8133 610.765 97.04C610.765 98.24 610.858 99.28 611.045 100.16C611.258 101.013 611.578 101.707 612.005 102.24C612.458 102.747 613.032 103.12 613.725 103.36C614.418 103.6 615.232 103.72 616.165 103.72C617.338 103.72 618.325 103.547 619.125 103.2C619.925 102.827 620.538 102.28 620.965 101.56C621.392 100.84 621.605 99.9333 621.605 98.84H622.365L622.565 103.72H621.765C621.312 104.867 620.525 105.773 619.405 106.44C618.312 107.08 616.912 107.4 615.205 107.4ZM625.925 107H621.925V102.28L621.605 101.76V80.2H625.925V107ZM646.034 107C643.847 107 642.167 106.533 640.994 105.6C639.847 104.667 639.274 103.093 639.274 100.88V87.56L640.274 82.2H643.594V100.68C643.594 101.72 643.847 102.387 644.354 102.68C644.887 102.947 645.834 103.08 647.194 103.08H649.594V106.64C649.194 106.747 648.674 106.84 648.034 106.92C647.394 106.973 646.727 107 646.034 107ZM649.594 90.72H635.954V87.12H649.594V90.72ZM660.935 107.4C658.909 107.4 657.149 106.973 655.655 106.12C654.162 105.24 653.015 104.027 652.215 102.48C651.415 100.907 651.015 99.0933 651.015 97.04C651.015 94.9867 651.415 93.1867 652.215 91.64C653.015 90.0933 654.162 88.8933 655.655 88.04C657.149 87.16 658.909 86.72 660.935 86.72C662.962 86.72 664.695 87.16 666.135 88.04C667.602 88.8933 668.722 90.0933 669.495 91.64C670.295 93.1867 670.695 94.9867 670.695 97.04C670.695 99.0933 670.295 100.907 669.495 102.48C668.722 104.027 667.602 105.24 666.135 106.12C664.695 106.973 662.962 107.4 660.935 107.4ZM660.935 103.56C663.015 103.56 664.469 103.04 665.295 102C666.122 100.933 666.535 99.28 666.535 97.04C666.535 94.8 666.122 93.16 665.295 92.12C664.469 91.08 663.015 90.56 660.935 90.56C658.829 90.56 657.362 91.08 656.535 92.12C655.709 93.16 655.295 94.8 655.295 97.04C655.295 99.28 655.709 100.933 656.535 102C657.362 103.04 658.829 103.56 660.935 103.56ZM229.438 156H224.358L219.158 147.84H212.798V144H219.118L224.478 136.12H229.518L222.598 145.52L229.438 156ZM215.198 156H210.878V129.2H215.198V156ZM239.562 156.4C237.402 156.4 235.602 155.973 234.162 155.12C232.722 154.24 231.655 153.027 230.962 151.48C230.268 149.907 229.922 148.093 229.922 146.04C229.922 143.987 230.308 142.187 231.082 140.64C231.882 139.093 233.002 137.893 234.442 137.04C235.882 136.16 237.588 135.72 239.562 135.72C241.348 135.72 242.922 136.067 244.282 136.76C245.668 137.427 246.735 138.4 247.482 139.68C248.255 140.96 248.642 142.507 248.642 144.32C248.642 144.853 248.615 145.373 248.562 145.88C248.535 146.36 248.495 146.76 248.442 147.08H231.962V144.2H244.922L244.482 144.6C244.588 143.373 244.455 142.373 244.082 141.6C243.735 140.827 243.162 140.253 242.362 139.88C241.588 139.507 240.615 139.32 239.442 139.32C237.335 139.32 235.895 139.853 235.122 140.92C234.348 141.96 233.962 143.4 233.962 145.24V146.44C233.962 147.773 234.122 148.907 234.442 149.84C234.788 150.747 235.375 151.427 236.202 151.88C237.028 152.333 238.162 152.56 239.602 152.56C241.282 152.56 242.468 152.293 243.162 151.76C243.855 151.227 244.202 150.52 244.202 149.64V149.32H248.482V149.68C248.482 151.04 248.108 152.227 247.362 153.24C246.615 154.227 245.575 155 244.242 155.56C242.935 156.12 241.375 156.4 239.562 156.4ZM261.124 156.4C258.964 156.4 257.164 155.973 255.724 155.12C254.284 154.24 253.217 153.027 252.524 151.48C251.831 149.907 251.484 148.093 251.484 146.04C251.484 143.987 251.871 142.187 252.644 140.64C253.444 139.093 254.564 137.893 256.004 137.04C257.444 136.16 259.151 135.72 261.124 135.72C262.911 135.72 264.484 136.067 265.844 136.76C267.231 137.427 268.297 138.4 269.044 139.68C269.817 140.96 270.204 142.507 270.204 144.32C270.204 144.853 270.177 145.373 270.124 145.88C270.097 146.36 270.057 146.76 270.004 147.08H253.524V144.2H266.484L266.044 144.6C266.151 143.373 266.017 142.373 265.644 141.6C265.297 140.827 264.724 140.253 263.924 139.88C263.151 139.507 262.177 139.32 261.004 139.32C258.897 139.32 257.457 139.853 256.684 140.92C255.911 141.96 255.524 143.4 255.524 145.24V146.44C255.524 147.773 255.684 148.907 256.004 149.84C256.351 150.747 256.937 151.427 257.764 151.88C258.591 152.333 259.724 152.56 261.164 152.56C262.844 152.56 264.031 152.293 264.724 151.76C265.417 151.227 265.764 150.52 265.764 149.64V149.32H270.044V149.68C270.044 151.04 269.671 152.227 268.924 153.24C268.177 154.227 267.137 155 265.804 155.56C264.497 156.12 262.937 156.4 261.124 156.4ZM284.531 156.4C282.745 156.4 281.291 156.053 280.171 155.36C279.078 154.64 278.318 153.827 277.891 152.92H276.811L277.011 147.84H277.771C277.771 148.933 277.971 149.84 278.371 150.56C278.798 151.28 279.425 151.827 280.251 152.2C281.078 152.547 282.065 152.72 283.211 152.72C284.145 152.72 284.958 152.6 285.651 152.36C286.345 152.12 286.905 151.747 287.331 151.24C287.785 150.733 288.105 150.053 288.291 149.2C288.505 148.32 288.611 147.267 288.611 146.04C288.611 144.813 288.505 143.787 288.291 142.96C288.105 142.107 287.785 141.413 287.331 140.88C286.905 140.347 286.345 139.973 285.651 139.76C284.985 139.52 284.171 139.4 283.211 139.4C282.065 139.4 281.078 139.587 280.251 139.96C279.425 140.307 278.798 140.84 278.371 141.56C277.971 142.253 277.771 143.16 277.771 144.28H277.011L276.811 139.4H277.611C278.091 138.253 278.878 137.36 279.971 136.72C281.091 136.053 282.518 135.72 284.251 135.72C287.051 135.72 289.198 136.653 290.691 138.52C292.185 140.387 292.931 142.893 292.931 146.04C292.931 149.187 292.211 151.707 290.771 153.6C289.331 155.467 287.251 156.4 284.531 156.4ZM277.771 162.92H273.491V136.12H277.411V140.84L277.771 141.36V162.92ZM307.52 162.8C306.987 162.8 306.44 162.76 305.88 162.68C305.32 162.627 304.867 162.547 304.52 162.44V158.92H307.28C308.107 158.92 308.72 158.8 309.12 158.56C309.52 158.347 309.893 157.88 310.24 157.16L311.48 154.36L311.12 155.76L302.52 136.12H307.28L311.28 145.76L313.08 150.08H313.44L315.04 145.76L318.68 136.12H323.48L314.04 158.32C313.56 159.52 313.013 160.44 312.4 161.08C311.787 161.72 311.08 162.16 310.28 162.4C309.507 162.667 308.587 162.8 307.52 162.8ZM333.865 156.4C331.838 156.4 330.078 155.973 328.585 155.12C327.092 154.24 325.945 153.027 325.145 151.48C324.345 149.907 323.945 148.093 323.945 146.04C323.945 143.987 324.345 142.187 325.145 140.64C325.945 139.093 327.092 137.893 328.585 137.04C330.078 136.16 331.838 135.72 333.865 135.72C335.892 135.72 337.625 136.16 339.065 137.04C340.532 137.893 341.652 139.093 342.425 140.64C343.225 142.187 343.625 143.987 343.625 146.04C343.625 148.093 343.225 149.907 342.425 151.48C341.652 153.027 340.532 154.24 339.065 155.12C337.625 155.973 335.892 156.4 333.865 156.4ZM333.865 152.56C335.945 152.56 337.398 152.04 338.225 151C339.052 149.933 339.465 148.28 339.465 146.04C339.465 143.8 339.052 142.16 338.225 141.12C337.398 140.08 335.945 139.56 333.865 139.56C331.758 139.56 330.292 140.08 329.465 141.12C328.638 142.16 328.225 143.8 328.225 146.04C328.225 148.28 328.638 149.933 329.465 151C330.292 152.04 331.758 152.56 333.865 152.56ZM354.254 156.4C352.548 156.4 351.134 156.053 350.014 155.36C348.894 154.64 348.068 153.68 347.534 152.48C347.001 151.253 346.734 149.893 346.734 148.4V136.12H351.054V147.6C351.054 149.387 351.428 150.68 352.174 151.48C352.921 152.28 354.148 152.68 355.854 152.68C356.974 152.68 357.921 152.507 358.694 152.16C359.468 151.787 360.054 151.213 360.454 150.44C360.854 149.64 361.054 148.6 361.054 147.32H362.174V152.04H361.214C360.921 152.787 360.468 153.493 359.854 154.16C359.268 154.827 358.508 155.373 357.574 155.8C356.668 156.2 355.561 156.4 354.254 156.4ZM365.374 156H361.374V150.04L361.054 149.84V136.12H365.374V156ZM373.948 156H369.628V136H373.588V141.56L373.948 141.76V156ZM373.948 143.04H372.948V139.16H373.788C374.188 138.227 374.841 137.427 375.748 136.76C376.681 136.067 377.881 135.72 379.348 135.72C380.761 135.72 381.881 136.027 382.708 136.64C383.561 137.253 384.174 138.067 384.548 139.08C384.921 140.093 385.108 141.227 385.108 142.48V143.8H380.788V143C380.788 141.667 380.561 140.733 380.108 140.2C379.654 139.667 378.801 139.4 377.548 139.4C376.241 139.4 375.308 139.68 374.748 140.24C374.214 140.773 373.948 141.707 373.948 143.04ZM412.523 156H408.523V152.08L408.403 151V143.36C408.403 141.867 408.043 140.853 407.323 140.32C406.629 139.787 405.496 139.52 403.923 139.52C402.349 139.52 401.216 139.8 400.523 140.36C399.856 140.92 399.523 141.853 399.523 143.16V143.76H395.363V143.36C395.363 141.867 395.723 140.547 396.443 139.4C397.189 138.253 398.216 137.36 399.523 136.72C400.856 136.053 402.403 135.72 404.163 135.72C406.029 135.72 407.576 136.067 408.803 136.76C410.029 137.453 410.949 138.413 411.563 139.64C412.203 140.84 412.523 142.267 412.523 143.92V156ZM401.123 156.4C399.336 156.4 397.829 155.947 396.603 155.04C395.403 154.107 394.803 152.787 394.803 151.08C394.803 149.96 395.056 149.027 395.563 148.28C396.096 147.533 396.856 146.92 397.843 146.44C398.829 145.96 400.029 145.627 401.443 145.44L408.803 144.4V147.44L402.083 148.44C400.936 148.6 400.136 148.84 399.683 149.16C399.229 149.48 399.003 150.013 399.003 150.76C399.003 151.533 399.269 152.093 399.803 152.44C400.363 152.787 401.269 152.96 402.523 152.96C403.483 152.96 404.403 152.813 405.283 152.52C406.189 152.2 406.936 151.68 407.523 150.96C408.109 150.213 408.403 149.173 408.403 147.84L408.963 152.92L408.323 152.88C407.949 153.493 407.429 154.067 406.763 154.6C406.123 155.133 405.336 155.573 404.403 155.92C403.469 156.24 402.376 156.4 401.123 156.4ZM425.501 156.44C423.421 156.44 421.661 156 420.221 155.12C418.781 154.24 417.674 153.027 416.901 151.48C416.154 149.933 415.781 148.133 415.781 146.08C415.781 144.027 416.168 142.227 416.941 140.68C417.741 139.107 418.874 137.893 420.341 137.04C421.808 136.16 423.581 135.72 425.661 135.72C427.421 135.72 428.968 136.053 430.301 136.72C431.634 137.387 432.661 138.32 433.381 139.52C434.128 140.72 434.501 142.12 434.501 143.72V144.08H430.221V143.84C430.221 142.373 429.821 141.307 429.021 140.64C428.248 139.947 427.034 139.6 425.381 139.6C423.461 139.6 422.088 140.147 421.261 141.24C420.461 142.307 420.061 143.907 420.061 146.04C420.061 148.2 420.461 149.827 421.261 150.92C422.088 151.987 423.461 152.52 425.381 152.52C427.034 152.52 428.248 152.187 429.021 151.52C429.821 150.827 430.221 149.76 430.221 148.32V148.08H434.501V148.44C434.501 149.987 434.128 151.373 433.381 152.6C432.634 153.8 431.581 154.747 430.221 155.44C428.888 156.107 427.314 156.44 425.501 156.44ZM446.868 156.44C444.788 156.44 443.028 156 441.588 155.12C440.148 154.24 439.041 153.027 438.268 151.48C437.521 149.933 437.148 148.133 437.148 146.08C437.148 144.027 437.535 142.227 438.308 140.68C439.108 139.107 440.241 137.893 441.708 137.04C443.175 136.16 444.948 135.72 447.028 135.72C448.788 135.72 450.335 136.053 451.668 136.72C453.001 137.387 454.028 138.32 454.748 139.52C455.495 140.72 455.868 142.12 455.868 143.72V144.08H451.588V143.84C451.588 142.373 451.188 141.307 450.388 140.64C449.615 139.947 448.401 139.6 446.748 139.6C444.828 139.6 443.455 140.147 442.628 141.24C441.828 142.307 441.428 143.907 441.428 146.04C441.428 148.2 441.828 149.827 442.628 150.92C443.455 151.987 444.828 152.52 446.748 152.52C448.401 152.52 449.615 152.187 450.388 151.52C451.188 150.827 451.588 149.76 451.588 148.32V148.08H455.868V148.44C455.868 149.987 455.495 151.373 454.748 152.6C454.001 153.8 452.948 154.747 451.588 155.44C450.255 156.107 448.681 156.44 446.868 156.44ZM468.435 156.4C466.409 156.4 464.649 155.973 463.155 155.12C461.662 154.24 460.515 153.027 459.715 151.48C458.915 149.907 458.515 148.093 458.515 146.04C458.515 143.987 458.915 142.187 459.715 140.64C460.515 139.093 461.662 137.893 463.155 137.04C464.649 136.16 466.409 135.72 468.435 135.72C470.462 135.72 472.195 136.16 473.635 137.04C475.102 137.893 476.222 139.093 476.995 140.64C477.795 142.187 478.195 143.987 478.195 146.04C478.195 148.093 477.795 149.907 476.995 151.48C476.222 153.027 475.102 154.24 473.635 155.12C472.195 155.973 470.462 156.4 468.435 156.4ZM468.435 152.56C470.515 152.56 471.969 152.04 472.795 151C473.622 149.933 474.035 148.28 474.035 146.04C474.035 143.8 473.622 142.16 472.795 141.12C471.969 140.08 470.515 139.56 468.435 139.56C466.329 139.56 464.862 140.08 464.035 141.12C463.209 142.16 462.795 143.8 462.795 146.04C462.795 148.28 463.209 149.933 464.035 151C464.862 152.04 466.329 152.56 468.435 152.56ZM488.825 156.4C487.118 156.4 485.705 156.053 484.585 155.36C483.465 154.64 482.638 153.68 482.105 152.48C481.571 151.253 481.305 149.893 481.305 148.4V136.12H485.625V147.6C485.625 149.387 485.998 150.68 486.745 151.48C487.491 152.28 488.718 152.68 490.425 152.68C491.545 152.68 492.491 152.507 493.265 152.16C494.038 151.787 494.625 151.213 495.025 150.44C495.425 149.64 495.625 148.6 495.625 147.32H496.745V152.04H495.785C495.491 152.787 495.038 153.493 494.425 154.16C493.838 154.827 493.078 155.373 492.145 155.8C491.238 156.2 490.131 156.4 488.825 156.4ZM499.945 156H495.945V150.04L495.625 149.84V136.12H499.945V156ZM522.718 156H518.398V144.44C518.398 142.68 518.065 141.413 517.398 140.64C516.731 139.84 515.478 139.44 513.638 139.44C512.465 139.44 511.505 139.613 510.758 139.96C510.011 140.28 509.451 140.813 509.078 141.56C508.705 142.28 508.518 143.267 508.518 144.52H507.758L507.398 139.84H508.358C508.651 139.12 509.091 138.453 509.678 137.84C510.265 137.227 511.011 136.72 511.918 136.32C512.851 135.92 513.958 135.72 515.238 135.72C516.971 135.72 518.385 136.053 519.478 136.72C520.571 137.387 521.385 138.307 521.918 139.48C522.451 140.653 522.718 142 522.718 143.52V156ZM508.518 156H504.198V136.12H508.158V142.08L508.518 142.28V156ZM534.94 156C532.753 156 531.073 155.533 529.9 154.6C528.753 153.667 528.18 152.093 528.18 149.88V136.56L529.18 131.2H532.5V149.68C532.5 150.72 532.753 151.387 533.26 151.68C533.793 151.947 534.74 152.08 536.1 152.08H538.5V155.64C538.1 155.747 537.58 155.84 536.94 155.92C536.3 155.973 535.633 156 534.94 156ZM538.5 139.72H524.86V136.12H538.5V139.72ZM557.363 156.4C554.456 156.4 552.256 155.827 550.763 154.68C549.269 153.507 548.523 151.707 548.523 149.28V149.2H552.683V149.92C552.683 150.613 552.816 151.187 553.083 151.64C553.376 152.067 553.856 152.387 554.523 152.6C555.216 152.787 556.189 152.88 557.443 152.88C558.509 152.88 559.309 152.8 559.843 152.64C560.403 152.453 560.776 152.2 560.963 151.88C561.149 151.56 561.243 151.16 561.243 150.68C561.243 149.88 560.963 149.32 560.403 149C559.843 148.653 558.843 148.347 557.403 148.08L554.283 147.56C553.109 147.32 552.083 146.987 551.203 146.56C550.349 146.107 549.683 145.493 549.203 144.72C548.749 143.92 548.523 142.92 548.523 141.72C548.523 139.933 549.229 138.493 550.643 137.4C552.056 136.28 554.056 135.72 556.643 135.72C558.216 135.72 559.616 135.973 560.843 136.48C562.069 136.987 563.043 137.747 563.763 138.76C564.483 139.773 564.843 141.04 564.843 142.56V142.92H560.723V142.44C560.723 141.8 560.616 141.253 560.403 140.8C560.189 140.32 559.789 139.947 559.203 139.68C558.616 139.413 557.723 139.28 556.523 139.28C554.949 139.28 553.909 139.48 553.403 139.88C552.896 140.28 552.643 140.867 552.643 141.64C552.643 142.413 552.869 142.96 553.323 143.28C553.803 143.573 554.736 143.867 556.123 144.16L559.523 144.8C560.803 145.04 561.869 145.4 562.723 145.88C563.576 146.36 564.216 146.987 564.643 147.76C565.096 148.533 565.323 149.453 565.323 150.52C565.323 152.387 564.616 153.84 563.203 154.88C561.816 155.893 559.869 156.4 557.363 156.4ZM577.648 156.4C575.488 156.4 573.688 155.973 572.248 155.12C570.808 154.24 569.741 153.027 569.048 151.48C568.354 149.907 568.007 148.093 568.007 146.04C568.007 143.987 568.394 142.187 569.168 140.64C569.968 139.093 571.088 137.893 572.528 137.04C573.968 136.16 575.674 135.72 577.648 135.72C579.434 135.72 581.008 136.067 582.368 136.76C583.754 137.427 584.821 138.4 585.568 139.68C586.341 140.96 586.728 142.507 586.728 144.32C586.728 144.853 586.701 145.373 586.648 145.88C586.621 146.36 586.581 146.76 586.528 147.08H570.048V144.2H583.008L582.568 144.6C582.674 143.373 582.541 142.373 582.168 141.6C581.821 140.827 581.248 140.253 580.448 139.88C579.674 139.507 578.701 139.32 577.528 139.32C575.421 139.32 573.981 139.853 573.208 140.92C572.434 141.96 572.048 143.4 572.048 145.24V146.44C572.048 147.773 572.208 148.907 572.528 149.84C572.874 150.747 573.461 151.427 574.288 151.88C575.114 152.333 576.248 152.56 577.688 152.56C579.368 152.56 580.554 152.293 581.248 151.76C581.941 151.227 582.288 150.52 582.288 149.64V149.32H586.568V149.68C586.568 151.04 586.194 152.227 585.448 153.24C584.701 154.227 583.661 155 582.328 155.56C581.021 156.12 579.461 156.4 577.648 156.4ZM599.29 156.44C597.21 156.44 595.45 156 594.01 155.12C592.57 154.24 591.463 153.027 590.69 151.48C589.943 149.933 589.57 148.133 589.57 146.08C589.57 144.027 589.957 142.227 590.73 140.68C591.53 139.107 592.663 137.893 594.13 137.04C595.597 136.16 597.37 135.72 599.45 135.72C601.21 135.72 602.757 136.053 604.09 136.72C605.423 137.387 606.45 138.32 607.17 139.52C607.917 140.72 608.29 142.12 608.29 143.72V144.08H604.01V143.84C604.01 142.373 603.61 141.307 602.81 140.64C602.037 139.947 600.823 139.6 599.17 139.6C597.25 139.6 595.877 140.147 595.05 141.24C594.25 142.307 593.85 143.907 593.85 146.04C593.85 148.2 594.25 149.827 595.05 150.92C595.877 151.987 597.25 152.52 599.17 152.52C600.823 152.52 602.037 152.187 602.81 151.52C603.61 150.827 604.01 149.76 604.01 148.32V148.08H608.29V148.44C608.29 149.987 607.917 151.373 607.17 152.6C606.423 153.8 605.37 154.747 604.01 155.44C602.677 156.107 601.103 156.44 599.29 156.44ZM618.942 156.4C617.235 156.4 615.822 156.053 614.702 155.36C613.582 154.64 612.755 153.68 612.222 152.48C611.689 151.253 611.422 149.893 611.422 148.4V136.12H615.742V147.6C615.742 149.387 616.115 150.68 616.862 151.48C617.609 152.28 618.835 152.68 620.542 152.68C621.662 152.68 622.609 152.507 623.382 152.16C624.155 151.787 624.742 151.213 625.142 150.44C625.542 149.64 625.742 148.6 625.742 147.32H626.862V152.04H625.902C625.609 152.787 625.155 153.493 624.542 154.16C623.955 154.827 623.195 155.373 622.262 155.8C621.355 156.2 620.249 156.4 618.942 156.4ZM630.062 156H626.062V150.04L625.742 149.84V136.12H630.062V156ZM638.635 156H634.315V136H638.275V141.56L638.635 141.76V156ZM638.635 143.04H637.635V139.16H638.475C638.875 138.227 639.529 137.427 640.435 136.76C641.369 136.067 642.569 135.72 644.035 135.72C645.449 135.72 646.569 136.027 647.395 136.64C648.249 137.253 648.862 138.067 649.235 139.08C649.609 140.093 649.795 141.227 649.795 142.48V143.8H645.475V143C645.475 141.667 645.249 140.733 644.795 140.2C644.342 139.667 643.489 139.4 642.235 139.4C640.929 139.4 639.995 139.68 639.435 140.24C638.902 140.773 638.635 141.707 638.635 143.04ZM661.398 156.4C659.238 156.4 657.438 155.973 655.998 155.12C654.558 154.24 653.491 153.027 652.798 151.48C652.104 149.907 651.757 148.093 651.757 146.04C651.757 143.987 652.144 142.187 652.918 140.64C653.718 139.093 654.838 137.893 656.278 137.04C657.718 136.16 659.424 135.72 661.398 135.72C663.184 135.72 664.758 136.067 666.118 136.76C667.504 137.427 668.571 138.4 669.318 139.68C670.091 140.96 670.478 142.507 670.478 144.32C670.478 144.853 670.451 145.373 670.398 145.88C670.371 146.36 670.331 146.76 670.278 147.08H653.798V144.2H666.758L666.318 144.6C666.424 143.373 666.291 142.373 665.918 141.6C665.571 140.827 664.998 140.253 664.198 139.88C663.424 139.507 662.451 139.32 661.278 139.32C659.171 139.32 657.731 139.853 656.958 140.92C656.184 141.96 655.798 143.4 655.798 145.24V146.44C655.798 147.773 655.958 148.907 656.278 149.84C656.624 150.747 657.211 151.427 658.038 151.88C658.864 152.333 659.998 152.56 661.438 152.56C663.118 152.56 664.304 152.293 664.998 151.76C665.691 151.227 666.038 150.52 666.038 149.64V149.32H670.318V149.68C670.318 151.04 669.944 152.227 669.198 153.24C668.451 154.227 667.411 155 666.078 155.56C664.771 156.12 663.211 156.4 661.398 156.4ZM298.226 205H294.226V201.08L294.106 200V192.36C294.106 190.867 293.746 189.853 293.026 189.32C292.332 188.787 291.199 188.52 289.626 188.52C288.052 188.52 286.919 188.8 286.226 189.36C285.559 189.92 285.226 190.853 285.226 192.16V192.76H281.066V192.36C281.066 190.867 281.426 189.547 282.146 188.4C282.892 187.253 283.919 186.36 285.226 185.72C286.559 185.053 288.106 184.72 289.866 184.72C291.732 184.72 293.279 185.067 294.506 185.76C295.732 186.453 296.652 187.413 297.266 188.64C297.906 189.84 298.226 191.267 298.226 192.92V205ZM286.826 205.4C285.039 205.4 283.532 204.947 282.306 204.04C281.106 203.107 280.506 201.787 280.506 200.08C280.506 198.96 280.759 198.027 281.266 197.28C281.799 196.533 282.559 195.92 283.546 195.44C284.532 194.96 285.732 194.627 287.146 194.44L294.506 193.4V196.44L287.786 197.44C286.639 197.6 285.839 197.84 285.386 198.16C284.932 198.48 284.706 199.013 284.706 199.76C284.706 200.533 284.972 201.093 285.506 201.44C286.066 201.787 286.972 201.96 288.226 201.96C289.186 201.96 290.106 201.813 290.986 201.52C291.892 201.2 292.639 200.68 293.226 199.96C293.812 199.213 294.106 198.173 294.106 196.84L294.666 201.92L294.026 201.88C293.652 202.493 293.132 203.067 292.466 203.6C291.826 204.133 291.039 204.573 290.106 204.92C289.172 205.24 288.079 205.4 286.826 205.4ZM320.882 205H316.562V193.44C316.562 191.68 316.229 190.413 315.562 189.64C314.896 188.84 313.642 188.44 311.802 188.44C310.629 188.44 309.669 188.613 308.922 188.96C308.176 189.28 307.616 189.813 307.242 190.56C306.869 191.28 306.682 192.267 306.682 193.52H305.922L305.562 188.84H306.522C306.816 188.12 307.256 187.453 307.842 186.84C308.429 186.227 309.176 185.72 310.082 185.32C311.016 184.92 312.122 184.72 313.402 184.72C315.136 184.72 316.549 185.053 317.642 185.72C318.736 186.387 319.549 187.307 320.082 188.48C320.616 189.653 320.882 191 320.882 192.52V205ZM306.682 205H302.362V185.12H306.322V191.08L306.682 191.28V205ZM332.9 205.4C330.074 205.4 327.9 204.467 326.38 202.6C324.887 200.707 324.14 198.187 324.14 195.04C324.14 191.893 324.874 189.387 326.34 187.52C327.834 185.653 329.94 184.72 332.66 184.72C334.42 184.72 335.834 185.08 336.9 185.8C337.994 186.493 338.754 187.293 339.18 188.2H340.26L340.06 193.28H339.3C339.3 192.16 339.087 191.24 338.66 190.52C338.234 189.8 337.62 189.267 336.82 188.92C336.02 188.573 335.034 188.4 333.86 188.4C332.9 188.4 332.074 188.52 331.38 188.76C330.714 189 330.154 189.373 329.7 189.88C329.274 190.387 328.954 191.067 328.74 191.92C328.554 192.773 328.46 193.813 328.46 195.04C328.46 196.24 328.554 197.28 328.74 198.16C328.954 199.013 329.274 199.707 329.7 200.24C330.154 200.747 330.727 201.12 331.42 201.36C332.114 201.6 332.927 201.72 333.86 201.72C335.034 201.72 336.02 201.547 336.82 201.2C337.62 200.827 338.234 200.28 338.66 199.56C339.087 198.84 339.3 197.933 339.3 196.84H340.06L340.26 201.72H339.46C339.007 202.867 338.22 203.773 337.1 204.44C336.007 205.08 334.607 205.4 332.9 205.4ZM343.62 205H339.62V200.28L339.3 199.76V178.2H343.62V205ZM358.809 211.8C358.276 211.8 357.729 211.76 357.169 211.68C356.609 211.627 356.156 211.547 355.809 211.44V207.92H358.569C359.396 207.92 360.009 207.8 360.409 207.56C360.809 207.347 361.182 206.88 361.529 206.16L362.769 203.36L362.409 204.76L353.809 185.12H358.569L362.569 194.76L364.369 199.08H364.729L366.329 194.76L369.969 185.12H374.769L365.329 207.32C364.849 208.52 364.302 209.44 363.689 210.08C363.076 210.72 362.369 211.16 361.569 211.4C360.796 211.667 359.876 211.8 358.809 211.8ZM385.154 205.4C383.127 205.4 381.367 204.973 379.874 204.12C378.381 203.24 377.234 202.027 376.434 200.48C375.634 198.907 375.234 197.093 375.234 195.04C375.234 192.987 375.634 191.187 376.434 189.64C377.234 188.093 378.381 186.893 379.874 186.04C381.367 185.16 383.127 184.72 385.154 184.72C387.181 184.72 388.914 185.16 390.354 186.04C391.821 186.893 392.941 188.093 393.714 189.64C394.514 191.187 394.914 192.987 394.914 195.04C394.914 197.093 394.514 198.907 393.714 200.48C392.941 202.027 391.821 203.24 390.354 204.12C388.914 204.973 387.181 205.4 385.154 205.4ZM385.154 201.56C387.234 201.56 388.687 201.04 389.514 200C390.341 198.933 390.754 197.28 390.754 195.04C390.754 192.8 390.341 191.16 389.514 190.12C388.687 189.08 387.234 188.56 385.154 188.56C383.047 188.56 381.581 189.08 380.754 190.12C379.927 191.16 379.514 192.8 379.514 195.04C379.514 197.28 379.927 198.933 380.754 200C381.581 201.04 383.047 201.56 385.154 201.56ZM405.543 205.4C403.837 205.4 402.423 205.053 401.303 204.36C400.183 203.64 399.357 202.68 398.823 201.48C398.29 200.253 398.023 198.893 398.023 197.4V185.12H402.343V196.6C402.343 198.387 402.717 199.68 403.463 200.48C404.21 201.28 405.437 201.68 407.143 201.68C408.263 201.68 409.21 201.507 409.983 201.16C410.757 200.787 411.343 200.213 411.743 199.44C412.143 198.64 412.343 197.6 412.343 196.32H413.463V201.04H412.503C412.21 201.787 411.757 202.493 411.143 203.16C410.557 203.827 409.797 204.373 408.863 204.8C407.957 205.2 406.85 205.4 405.543 205.4ZM416.663 205H412.663V199.04L412.343 198.84V185.12H416.663V205ZM425.237 205H420.917V185H424.877V190.56L425.237 190.76V205ZM425.237 192.04H424.237V188.16H425.077C425.477 187.227 426.13 186.427 427.037 185.76C427.97 185.067 429.17 184.72 430.637 184.72C432.05 184.72 433.17 185.027 433.997 185.64C434.85 186.253 435.464 187.067 435.837 188.08C436.21 189.093 436.397 190.227 436.397 191.48V192.8H432.077V192C432.077 190.667 431.85 189.733 431.397 189.2C430.944 188.667 430.09 188.4 428.837 188.4C427.53 188.4 426.597 188.68 426.037 189.24C425.504 189.773 425.237 190.707 425.237 192.04ZM451.372 182.6H447.092V178.2H451.372V182.6ZM443.052 211.8V207.88H444.612C445.652 207.88 446.318 207.747 446.612 207.48C446.932 207.24 447.092 206.72 447.092 205.92V185.12H451.372V205C451.372 206.76 451.078 208.133 450.492 209.12C449.905 210.107 449.092 210.8 448.052 211.2C447.012 211.6 445.758 211.8 444.292 211.8C444.105 211.8 443.918 211.8 443.732 211.8C443.518 211.8 443.292 211.8 443.052 211.8ZM464.529 205.4C462.502 205.4 460.742 204.973 459.249 204.12C457.756 203.24 456.609 202.027 455.809 200.48C455.009 198.907 454.609 197.093 454.609 195.04C454.609 192.987 455.009 191.187 455.809 189.64C456.609 188.093 457.756 186.893 459.249 186.04C460.742 185.16 462.502 184.72 464.529 184.72C466.556 184.72 468.289 185.16 469.729 186.04C471.196 186.893 472.316 188.093 473.089 189.64C473.889 191.187 474.289 192.987 474.289 195.04C474.289 197.093 473.889 198.907 473.089 200.48C472.316 202.027 471.196 203.24 469.729 204.12C468.289 204.973 466.556 205.4 464.529 205.4ZM464.529 201.56C466.609 201.56 468.062 201.04 468.889 200C469.716 198.933 470.129 197.28 470.129 195.04C470.129 192.8 469.716 191.16 468.889 190.12C468.062 189.08 466.609 188.56 464.529 188.56C462.422 188.56 460.956 189.08 460.129 190.12C459.302 191.16 458.889 192.8 458.889 195.04C458.889 197.28 459.302 198.933 460.129 200C460.956 201.04 462.422 201.56 464.529 201.56ZM484.918 205.4C483.212 205.4 481.798 205.053 480.678 204.36C479.558 203.64 478.732 202.68 478.198 201.48C477.665 200.253 477.398 198.893 477.398 197.4V185.12H481.718V196.6C481.718 198.387 482.092 199.68 482.838 200.48C483.585 201.28 484.812 201.68 486.518 201.68C487.638 201.68 488.585 201.507 489.358 201.16C490.132 200.787 490.718 200.213 491.118 199.44C491.518 198.64 491.718 197.6 491.718 196.32H492.838V201.04H491.878C491.585 201.787 491.132 202.493 490.518 203.16C489.932 203.827 489.172 204.373 488.238 204.8C487.332 205.2 486.225 205.4 484.918 205.4ZM496.038 205H492.038V199.04L491.718 198.84V185.12H496.038V205ZM504.612 205H500.292V185H504.252V190.56L504.612 190.76V205ZM504.612 192.04H503.612V188.16H504.452C504.852 187.227 505.505 186.427 506.412 185.76C507.345 185.067 508.545 184.72 510.012 184.72C511.425 184.72 512.545 185.027 513.372 185.64C514.225 186.253 514.839 187.067 515.212 188.08C515.585 189.093 515.772 190.227 515.772 191.48V192.8H511.452V192C511.452 190.667 511.225 189.733 510.772 189.2C510.319 188.667 509.465 188.4 508.212 188.4C506.905 188.4 505.972 188.68 505.412 189.24C504.879 189.773 504.612 190.707 504.612 192.04ZM536.976 205H532.656V193.44C532.656 191.68 532.323 190.413 531.656 189.64C530.989 188.84 529.736 188.44 527.896 188.44C526.723 188.44 525.763 188.613 525.016 188.96C524.269 189.28 523.709 189.813 523.336 190.56C522.963 191.28 522.776 192.267 522.776 193.52H522.016L521.656 188.84H522.616C522.909 188.12 523.349 187.453 523.936 186.84C524.523 186.227 525.269 185.72 526.176 185.32C527.109 184.92 528.216 184.72 529.496 184.72C531.229 184.72 532.643 185.053 533.736 185.72C534.829 186.387 535.643 187.307 536.176 188.48C536.709 189.653 536.976 191 536.976 192.52V205ZM522.776 205H518.456V185.12H522.416V191.08L522.776 191.28V205ZM549.874 205.4C547.714 205.4 545.914 204.973 544.474 204.12C543.034 203.24 541.967 202.027 541.274 200.48C540.581 198.907 540.234 197.093 540.234 195.04C540.234 192.987 540.621 191.187 541.394 189.64C542.194 188.093 543.314 186.893 544.754 186.04C546.194 185.16 547.901 184.72 549.874 184.72C551.661 184.72 553.234 185.067 554.594 185.76C555.981 186.427 557.047 187.4 557.794 188.68C558.567 189.96 558.954 191.507 558.954 193.32C558.954 193.853 558.927 194.373 558.874 194.88C558.847 195.36 558.807 195.76 558.754 196.08H542.274V193.2H555.234L554.794 193.6C554.901 192.373 554.767 191.373 554.394 190.6C554.047 189.827 553.474 189.253 552.674 188.88C551.901 188.507 550.927 188.32 549.754 188.32C547.647 188.32 546.207 188.853 545.434 189.92C544.661 190.96 544.274 192.4 544.274 194.24V195.44C544.274 196.773 544.434 197.907 544.754 198.84C545.101 199.747 545.687 200.427 546.514 200.88C547.341 201.333 548.474 201.56 549.914 201.56C551.594 201.56 552.781 201.293 553.474 200.76C554.167 200.227 554.514 199.52 554.514 198.64V198.32H558.794V198.68C558.794 200.04 558.421 201.227 557.674 202.24C556.927 203.227 555.887 204 554.554 204.56C553.247 205.12 551.687 205.4 549.874 205.4ZM564.747 211.8C564.213 211.8 563.667 211.76 563.107 211.68C562.547 211.627 562.093 211.547 561.747 211.44V207.92H564.507C565.333 207.92 565.947 207.8 566.347 207.56C566.747 207.347 567.12 206.88 567.467 206.16L568.707 203.36L568.347 204.76L559.747 185.12H564.507L568.507 194.76L570.307 199.08H570.667L572.267 194.76L575.907 185.12H580.707L571.267 207.32C570.787 208.52 570.24 209.44 569.627 210.08C569.013 210.72 568.307 211.16 567.507 211.4C566.733 211.667 565.813 211.8 564.747 211.8ZM599.121 205.4C596.214 205.4 594.014 204.827 592.521 203.68C591.027 202.507 590.281 200.707 590.281 198.28V198.2H594.441V198.92C594.441 199.613 594.574 200.187 594.841 200.64C595.134 201.067 595.614 201.387 596.281 201.6C596.974 201.787 597.947 201.88 599.201 201.88C600.267 201.88 601.067 201.8 601.601 201.64C602.161 201.453 602.534 201.2 602.721 200.88C602.907 200.56 603.001 200.16 603.001 199.68C603.001 198.88 602.721 198.32 602.161 198C601.601 197.653 600.601 197.347 599.161 197.08L596.041 196.56C594.867 196.32 593.841 195.987 592.961 195.56C592.107 195.107 591.441 194.493 590.961 193.72C590.507 192.92 590.281 191.92 590.281 190.72C590.281 188.933 590.987 187.493 592.401 186.4C593.814 185.28 595.814 184.72 598.401 184.72C599.974 184.72 601.374 184.973 602.601 185.48C603.827 185.987 604.801 186.747 605.521 187.76C606.241 188.773 606.601 190.04 606.601 191.56V191.92H602.481V191.44C602.481 190.8 602.374 190.253 602.161 189.8C601.947 189.32 601.547 188.947 600.961 188.68C600.374 188.413 599.481 188.28 598.281 188.28C596.707 188.28 595.667 188.48 595.161 188.88C594.654 189.28 594.401 189.867 594.401 190.64C594.401 191.413 594.627 191.96 595.081 192.28C595.561 192.573 596.494 192.867 597.881 193.16L601.281 193.8C602.561 194.04 603.627 194.4 604.481 194.88C605.334 195.36 605.974 195.987 606.401 196.76C606.854 197.533 607.081 198.453 607.081 199.52C607.081 201.387 606.374 202.84 604.961 203.88C603.574 204.893 601.627 205.4 599.121 205.4ZM627.444 205H623.444V201.08L623.324 200V192.36C623.324 190.867 622.964 189.853 622.244 189.32C621.551 188.787 620.418 188.52 618.844 188.52C617.271 188.52 616.138 188.8 615.444 189.36C614.778 189.92 614.444 190.853 614.444 192.16V192.76H610.284V192.36C610.284 190.867 610.644 189.547 611.364 188.4C612.111 187.253 613.138 186.36 614.444 185.72C615.778 185.053 617.324 184.72 619.084 184.72C620.951 184.72 622.498 185.067 623.724 185.76C624.951 186.453 625.871 187.413 626.484 188.64C627.124 189.84 627.444 191.267 627.444 192.92V205ZM616.044 205.4C614.258 205.4 612.751 204.947 611.524 204.04C610.324 203.107 609.724 201.787 609.724 200.08C609.724 198.96 609.978 198.027 610.484 197.28C611.018 196.533 611.778 195.92 612.764 195.44C613.751 194.96 614.951 194.627 616.364 194.44L623.724 193.4V196.44L617.004 197.44C615.858 197.6 615.058 197.84 614.604 198.16C614.151 198.48 613.924 199.013 613.924 199.76C613.924 200.533 614.191 201.093 614.724 201.44C615.284 201.787 616.191 201.96 617.444 201.96C618.404 201.96 619.324 201.813 620.204 201.52C621.111 201.2 621.858 200.68 622.444 199.96C623.031 199.213 623.324 198.173 623.324 196.84L623.884 201.92L623.244 201.88C622.871 202.493 622.351 203.067 621.684 203.6C621.044 204.133 620.258 204.573 619.324 204.92C618.391 205.24 617.298 205.4 616.044 205.4ZM636.707 205H632.387V185.28C632.387 183.733 632.68 182.44 633.267 181.4C633.853 180.36 634.72 179.573 635.867 179.04C637.04 178.48 638.48 178.2 640.187 178.2C640.453 178.2 640.72 178.2 640.987 178.2C641.253 178.2 641.52 178.2 641.787 178.2V181.64H639.387C638.427 181.64 637.72 181.827 637.267 182.2C636.813 182.573 636.587 183.187 636.587 184.04V185.8L636.707 186.84V205ZM641.787 188.72H629.467V185.12H641.787V188.72ZM652.14 205.4C649.98 205.4 648.18 204.973 646.74 204.12C645.3 203.24 644.233 202.027 643.54 200.48C642.846 198.907 642.5 197.093 642.5 195.04C642.5 192.987 642.886 191.187 643.66 189.64C644.46 188.093 645.58 186.893 647.02 186.04C648.46 185.16 650.166 184.72 652.14 184.72C653.926 184.72 655.5 185.067 656.86 185.76C658.246 186.427 659.313 187.4 660.06 188.68C660.833 189.96 661.22 191.507 661.22 193.32C661.22 193.853 661.193 194.373 661.14 194.88C661.113 195.36 661.073 195.76 661.02 196.08H644.54V193.2H657.5L657.06 193.6C657.166 192.373 657.033 191.373 656.66 190.6C656.313 189.827 655.74 189.253 654.94 188.88C654.166 188.507 653.193 188.32 652.02 188.32C649.913 188.32 648.473 188.853 647.7 189.92C646.926 190.96 646.54 192.4 646.54 194.24V195.44C646.54 196.773 646.7 197.907 647.02 198.84C647.366 199.747 647.953 200.427 648.78 200.88C649.606 201.333 650.74 201.56 652.18 201.56C653.86 201.56 655.046 201.293 655.74 200.76C656.433 200.227 656.78 199.52 656.78 198.64V198.32H661.06V198.68C661.06 200.04 660.686 201.227 659.94 202.24C659.193 203.227 658.153 204 656.82 204.56C655.513 205.12 653.953 205.4 652.14 205.4ZM669.462 196.2H665.262C665.262 195.4 665.236 194.48 665.182 193.44C665.156 192.373 665.102 191.253 665.022 190.08C664.969 188.88 664.916 187.707 664.862 186.56C664.809 185.387 664.756 184.32 664.702 183.36C664.649 182.4 664.622 181.613 664.622 181V178.2H670.102V181C670.102 181.613 670.076 182.4 670.022 183.36C669.996 184.32 669.942 185.387 669.862 186.56C669.809 187.707 669.756 188.88 669.702 190.08C669.649 191.28 669.596 192.413 669.542 193.48C669.489 194.52 669.462 195.427 669.462 196.2ZM669.822 205H664.942V199.08H669.822V205Z" fill="white"/>
</g>
<path d="M662.58 1234.75C662.839 1234.9 663.161 1234.9 663.42 1234.75L672.825 1229.16C673.208 1228.93 673.34 1228.44 673.122 1228.05L663 1210H676.536C676.834 1210 677.108 1210.16 677.253 1210.42L682.461 1219.75C682.874 1220.48 684 1220.19 684 1219.34V1197.97C684 1197.68 683.848 1197.41 683.599 1197.26L663.42 1185.25C663.161 1185.1 662.839 1185.1 662.58 1185.25L642.401 1197.26C642.152 1197.41 642 1197.68 642 1197.97V1219.34C642 1220.19 643.126 1220.48 643.539 1219.75L648.747 1210.42C648.892 1210.16 649.166 1210 649.464 1210H663L652.878 1228.05C652.66 1228.44 652.792 1228.93 653.175 1229.16L662.58 1234.75Z" fill="white"/>
<defs>
<clipPath id="clip0_18961_16869">
<rect width="727" height="1272" rx="20.1569" fill="white"/>
</clipPath>
</defs>
</svg>
