<svg width="727" height="1272" viewBox="0 0 727 1272" fill="none" xmlns="http://www.w3.org/2000/svg">
<g clip-path="url(#clip0_18934_20444)">
<rect width="728" height="1273" rx="20.1569" fill="#66805D"/>
<line x1="217.338" y1="817.436" x2="296.774" y2="747.251" stroke="white" stroke-width="2" stroke-dasharray="4 4"/>
<ellipse cx="365.606" cy="738.126" rx="120.786" ry="31.2673" transform="rotate(6.69033 365.606 738.126)" fill="white"/>
<line x1="365" y1="584" x2="365" y2="478" stroke="white" stroke-width="2" stroke-dasharray="4 4"/>
<path fill-rule="evenodd" clip-rule="evenodd" d="M398.26 423.105C398.26 418.131 398.26 415.644 397.067 413.857C396.55 413.084 395.886 412.42 395.112 411.903C393.55 410.859 391.451 410.728 387.621 410.711C387.636 411.743 387.636 412.822 387.636 413.934L387.635 414.251V418.678H391.177C392.644 418.678 393.833 419.867 393.833 421.334C393.833 422.801 392.644 423.99 391.177 423.99H387.635V429.303H391.177C392.644 429.303 393.833 430.492 393.833 431.959C393.833 433.426 392.644 434.615 391.177 434.615H387.635V439.928H391.177C392.644 439.928 393.833 441.117 393.833 442.584C393.833 444.051 392.644 445.24 391.177 445.24H387.635V468.261H382.323V414.251C382.323 407.572 382.323 404.233 380.248 402.159C378.174 400.084 374.835 400.084 368.156 400.084H361.073C354.395 400.084 351.056 400.084 348.981 402.159C346.906 404.233 346.906 407.572 346.906 414.251V468.261H341.594V445.24H338.052C336.585 445.24 335.396 444.051 335.396 442.584C335.396 441.117 336.585 439.928 338.052 439.928H341.594V434.615H338.052C336.585 434.615 335.396 433.426 335.396 431.959C335.396 430.492 336.585 429.303 338.052 429.303H341.594V423.99H338.052C336.585 423.99 335.396 422.801 335.396 421.334C335.396 419.867 336.585 418.678 338.052 418.678H341.594V414.251L341.594 413.934C341.594 412.822 341.594 411.743 341.608 410.711C337.778 410.728 335.68 410.859 334.117 411.903C333.343 412.42 332.679 413.084 332.163 413.857C330.969 415.644 330.969 418.131 330.969 423.105V468.261H329.198C327.731 468.261 326.542 469.45 326.542 470.917C326.542 472.384 327.731 473.574 329.198 473.574H400.031C401.498 473.574 402.688 472.384 402.688 470.917C402.688 469.45 401.498 468.261 400.031 468.261H398.26V423.105ZM354.875 434.615C354.875 433.148 356.064 431.959 357.531 431.959H371.698C373.165 431.959 374.354 433.148 374.354 434.615C374.354 436.082 373.165 437.271 371.698 437.271H357.531C356.064 437.271 354.875 436.082 354.875 434.615ZM354.875 445.24C354.875 443.773 356.064 442.584 357.531 442.584H371.698C373.165 442.584 374.354 443.773 374.354 445.24C374.354 446.707 373.165 447.896 371.698 447.896H357.531C356.064 447.896 354.875 446.707 354.875 445.24ZM364.615 457.636C366.082 457.636 367.271 458.825 367.271 460.292V468.261H361.958V460.292C361.958 458.825 363.148 457.636 364.615 457.636ZM354.875 415.136C354.875 413.669 356.064 412.48 357.531 412.48H371.698C373.165 412.48 374.354 413.669 374.354 415.136C374.354 416.603 373.165 417.792 371.698 417.792H357.531C356.064 417.792 354.875 416.603 354.875 415.136ZM354.875 425.761C354.875 424.294 356.064 423.105 357.531 423.105H371.698C373.165 423.105 374.354 424.294 374.354 425.761C374.354 427.228 373.165 428.417 371.698 428.417H357.531C356.064 428.417 354.875 427.228 354.875 425.761Z" fill="#121D26"/>
<path d="M460.272 729.5H447V635C447 631.419 445.578 627.986 443.046 625.454C440.514 622.922 437.08 621.5 433.5 621.5H396.375C395.48 621.5 394.621 621.855 393.988 622.488C393.356 623.121 393 623.98 393 624.875V729.5H379.5V581.346C379.522 579.243 379.066 577.163 378.165 575.262C377.265 573.362 375.944 571.691 374.302 570.377C372.065 568.632 369.334 567.637 366.499 567.533C363.664 567.428 360.867 568.22 358.507 569.795L291.007 614.75C289.156 615.985 287.638 617.659 286.59 619.623C285.542 621.587 284.996 623.779 285 626.005V729.5H271.728C269.983 729.474 268.294 730.11 266.999 731.279C265.705 732.448 264.901 734.065 264.75 735.803C264.689 736.726 264.818 737.652 265.129 738.523C265.441 739.394 265.929 740.192 266.562 740.867C267.195 741.542 267.96 742.08 268.809 742.447C269.659 742.813 270.575 743.002 271.5 743H460.5C461.425 743.002 462.341 742.813 463.191 742.447C464.04 742.08 464.805 741.542 465.438 740.867C466.071 740.192 466.559 739.394 466.87 738.523C467.182 737.652 467.311 736.726 467.25 735.803C467.099 734.065 466.295 732.448 465 731.279C463.706 730.11 462.016 729.474 460.272 729.5ZM322.125 709.25C322.127 710.175 321.939 711.091 321.572 711.94C321.205 712.79 320.667 713.555 319.993 714.188C319.318 714.821 318.52 715.308 317.648 715.62C316.777 715.932 315.851 716.061 314.928 716C313.188 715.848 311.571 715.043 310.401 713.747C309.232 712.451 308.597 710.759 308.625 709.013V695.978C308.601 694.234 309.238 692.545 310.407 691.251C311.576 689.957 313.191 689.153 314.928 689C315.851 688.938 316.777 689.068 317.648 689.379C318.52 689.691 319.318 690.178 319.993 690.811C320.667 691.444 321.205 692.209 321.572 693.059C321.939 693.908 322.127 694.824 322.125 695.75V709.25ZM322.125 662C322.127 662.925 321.939 663.841 321.572 664.69C321.205 665.54 320.667 666.305 319.993 666.938C319.318 667.571 318.52 668.058 317.648 668.37C316.777 668.682 315.851 668.811 314.928 668.75C313.189 668.596 311.573 667.791 310.404 666.495C309.234 665.199 308.599 663.509 308.625 661.763V648.728C308.601 646.984 309.238 645.295 310.407 644.001C311.576 642.707 313.191 641.903 314.928 641.75C315.851 641.688 316.777 641.818 317.648 642.129C318.52 642.441 319.318 642.928 319.993 643.561C320.667 644.194 321.205 644.959 321.572 645.809C321.939 646.658 322.127 647.574 322.125 648.5V662ZM355.875 709.25C355.877 710.175 355.689 711.091 355.322 711.94C354.955 712.79 354.417 713.555 353.743 714.188C353.068 714.821 352.27 715.308 351.398 715.62C350.527 715.932 349.601 716.061 348.678 716C346.941 715.849 345.326 715.046 344.157 713.753C342.988 712.46 342.351 710.773 342.375 709.03V695.978C342.353 694.235 342.991 692.549 344.159 691.257C345.328 689.964 346.942 689.161 348.678 689.008C349.601 688.947 350.527 689.076 351.398 689.388C352.27 689.699 353.068 690.187 353.743 690.82C354.417 691.453 354.955 692.218 355.322 693.067C355.689 693.917 355.877 694.833 355.875 695.758V709.25ZM355.875 662C355.877 662.925 355.689 663.841 355.322 664.69C354.955 665.54 354.417 666.305 353.743 666.938C353.068 667.571 352.27 668.058 351.398 668.37C350.527 668.682 349.601 668.811 348.678 668.75C346.942 668.597 345.328 667.794 344.159 666.501C342.991 665.209 342.353 663.523 342.375 661.78V648.728C342.353 646.985 342.991 645.299 344.159 644.007C345.328 642.714 346.942 641.911 348.678 641.758C349.601 641.697 350.527 641.826 351.398 642.138C352.27 642.449 353.068 642.937 353.743 643.57C354.417 644.203 354.955 644.968 355.322 645.817C355.689 646.667 355.877 647.583 355.875 648.508V662Z" fill="#121D26"/>
<path fill-rule="evenodd" clip-rule="evenodd" d="M162.191 815.246L183.441 796.358C187.467 792.779 193.533 792.779 197.559 796.358L218.809 815.246C221.077 817.263 222.375 820.153 222.375 823.188V858.26H225.917C227.384 858.26 228.573 859.449 228.573 860.916C228.573 862.383 227.384 863.573 225.917 863.573H155.083C153.616 863.573 152.427 862.383 152.427 860.916C152.427 859.449 153.616 858.26 155.083 858.26H158.625V823.188C158.625 820.153 159.923 817.263 162.191 815.246ZM180.76 814.875C180.76 813.408 181.95 812.218 183.417 812.218H197.583C199.05 812.218 200.239 813.408 200.239 814.875C200.239 816.342 199.05 817.531 197.583 817.531H183.417C181.95 817.531 180.76 816.342 180.76 814.875ZM197.767 822.843C200.95 822.843 203.603 822.843 205.71 823.126C207.933 823.425 209.94 824.083 211.554 825.696C213.167 827.309 213.824 829.317 214.123 831.54C214.406 833.647 214.406 836.3 214.406 839.482L214.406 858.26H209.094V839.666C209.094 836.252 209.088 833.959 208.858 832.248C208.638 830.614 208.259 829.914 207.797 829.453C207.335 828.991 206.636 828.611 205.002 828.392C203.291 828.162 200.997 828.156 197.583 828.156H183.417C180.002 828.156 177.709 828.162 175.998 828.392C174.364 828.611 173.664 828.991 173.203 829.453C172.741 829.914 172.362 830.614 172.142 832.248C171.912 833.959 171.906 836.252 171.906 839.666V858.26H166.594L166.594 839.482C166.594 836.3 166.593 833.647 166.877 831.54C167.176 829.317 167.833 827.309 169.446 825.696C171.059 824.083 173.067 823.425 175.29 823.126C177.397 822.843 180.05 822.843 183.232 822.843H197.767ZM177.219 837.896C177.219 836.429 178.408 835.239 179.875 835.239H201.125C202.592 835.239 203.781 836.429 203.781 837.896C203.781 839.363 202.592 840.552 201.125 840.552H179.875C178.408 840.552 177.219 839.363 177.219 837.896ZM177.219 848.521C177.219 847.054 178.408 845.864 179.875 845.864H201.125C202.592 845.864 203.781 847.054 203.781 848.521C203.781 849.988 202.592 851.177 201.125 851.177H179.875C178.408 851.177 177.219 849.988 177.219 848.521Z" fill="#121D26"/>
<line x1="432.616" y1="769.212" x2="502.335" y2="823.694" stroke="white" stroke-width="2" stroke-dasharray="4 4"/>
<path fill-rule="evenodd" clip-rule="evenodd" d="M568.067 814.857C569.26 816.644 569.26 819.131 569.26 824.105V869.261H571.031C572.498 869.261 573.688 870.45 573.688 871.917C573.688 873.384 572.498 874.574 571.031 874.574H500.198C498.731 874.574 497.542 873.384 497.542 871.917C497.542 870.45 498.731 869.261 500.198 869.261H501.969V824.105C501.969 819.131 501.969 816.644 503.163 814.857C503.679 814.084 504.343 813.42 505.117 812.903C506.68 811.859 508.778 811.728 512.608 811.711C512.594 812.743 512.594 813.822 512.594 814.934L512.594 815.251V819.678H509.052C507.585 819.678 506.396 820.867 506.396 822.334C506.396 823.801 507.585 824.99 509.052 824.99H512.594V830.303H509.052C507.585 830.303 506.396 831.492 506.396 832.959C506.396 834.426 507.585 835.615 509.052 835.615H512.594V840.928H509.052C507.585 840.928 506.396 842.117 506.396 843.584C506.396 845.051 507.585 846.24 509.052 846.24H512.594V869.261H517.906V815.251C517.906 808.572 517.906 805.233 519.981 803.159C522.056 801.084 525.395 801.084 532.073 801.084H539.156C545.835 801.084 549.174 801.084 551.248 803.159C553.323 805.233 553.323 808.572 553.323 815.251V869.261H558.635V846.24H562.177C563.644 846.24 564.833 845.051 564.833 843.584C564.833 842.117 563.644 840.928 562.177 840.928H558.635V835.615H562.177C563.644 835.615 564.833 834.426 564.833 832.959C564.833 831.492 563.644 830.303 562.177 830.303H558.635V824.99H562.177C563.644 824.99 564.833 823.801 564.833 822.334C564.833 820.867 563.644 819.678 562.177 819.678H558.635V815.251L558.636 814.934C558.636 813.822 558.636 812.743 558.621 811.711C562.451 811.728 564.55 811.859 566.112 812.903C566.886 813.42 567.55 814.084 568.067 814.857ZM538.271 861.292C538.271 859.825 537.082 858.636 535.615 858.636C534.148 858.636 532.958 859.825 532.958 861.292V869.261H538.271V861.292ZM525.875 847.126C525.875 845.659 527.064 844.469 528.531 844.469H542.698C544.165 844.469 545.354 845.659 545.354 847.126C545.354 848.593 544.165 849.782 542.698 849.782H528.531C527.064 849.782 525.875 848.593 525.875 847.126ZM528.531 833.844C527.064 833.844 525.875 835.034 525.875 836.501C525.875 837.968 527.064 839.157 528.531 839.157H542.698C544.165 839.157 545.354 837.968 545.354 836.501C545.354 835.034 544.165 833.844 542.698 833.844H528.531ZM526.76 818.792C526.76 813.413 531.121 809.053 536.5 809.053C541.879 809.053 546.24 813.413 546.24 818.792C546.24 824.171 541.879 828.532 536.5 828.532C531.121 828.532 526.76 824.171 526.76 818.792ZM532.073 818.792C532.073 816.347 534.055 814.365 536.5 814.365C538.945 814.365 540.927 816.347 540.927 818.792C540.927 821.237 538.945 823.219 536.5 823.219C534.055 823.219 532.073 821.237 532.073 818.792Z" fill="#121D26"/>
<path d="M179.049 125.4C176.489 125.4 174.395 125.04 172.769 124.32C171.142 123.573 169.929 122.547 169.129 121.24C168.355 119.907 167.969 118.387 167.969 116.68V116H172.209V116.44C172.209 117.533 172.395 118.453 172.769 119.2C173.169 119.947 173.875 120.507 174.889 120.88C175.902 121.253 177.355 121.44 179.249 121.44C181.222 121.44 182.609 121.16 183.409 120.6C184.209 120.013 184.609 119.107 184.609 117.88C184.609 117.053 184.489 116.387 184.249 115.88C184.009 115.373 183.529 114.96 182.809 114.64C182.115 114.293 181.075 113.987 179.689 113.72L175.129 112.8C173.582 112.507 172.289 112.053 171.249 111.44C170.209 110.8 169.409 109.987 168.849 109C168.315 108.013 168.049 106.827 168.049 105.44C168.049 104.107 168.395 102.867 169.089 101.72C169.809 100.547 170.902 99.6 172.369 98.88C173.862 98.16 175.755 97.8 178.049 97.8C180.502 97.8 182.489 98.2133 184.009 99.04C185.555 99.8667 186.675 100.96 187.369 102.32C188.089 103.653 188.449 105.12 188.449 106.72V107.2H184.169V106.76C184.169 105.64 183.982 104.72 183.609 104C183.262 103.253 182.622 102.693 181.689 102.32C180.782 101.92 179.542 101.72 177.969 101.72C175.995 101.72 174.569 102.013 173.689 102.6C172.809 103.187 172.369 104.067 172.369 105.24C172.369 106.04 172.502 106.68 172.769 107.16C173.062 107.64 173.555 108.027 174.249 108.32C174.969 108.587 175.929 108.867 177.129 109.16L181.689 110.12C183.395 110.44 184.769 110.947 185.809 111.64C186.875 112.333 187.662 113.187 188.169 114.2C188.675 115.187 188.929 116.36 188.929 117.72C188.929 119.107 188.582 120.387 187.889 121.56C187.195 122.733 186.115 123.667 184.649 124.36C183.209 125.053 181.342 125.4 179.049 125.4ZM210.749 125H206.429V113.44C206.429 111.68 206.083 110.413 205.389 109.64C204.723 108.84 203.483 108.44 201.669 108.44C199.936 108.44 198.643 108.827 197.789 109.6C196.963 110.347 196.549 111.667 196.549 113.56H195.789L195.749 108.44H196.709C197.029 107.827 197.469 107.24 198.029 106.68C198.616 106.093 199.349 105.627 200.229 105.28C201.136 104.907 202.176 104.72 203.349 104.72C205.109 104.72 206.523 105.067 207.589 105.76C208.683 106.427 209.483 107.347 209.989 108.52C210.496 109.693 210.749 111.013 210.749 112.48V125ZM196.549 125H192.229V98.2H196.549V125ZM231.765 125H227.765V121.08L227.645 120V112.36C227.645 110.867 227.285 109.853 226.565 109.32C225.871 108.787 224.738 108.52 223.165 108.52C221.591 108.52 220.458 108.8 219.765 109.36C219.098 109.92 218.765 110.853 218.765 112.16V112.76H214.605V112.36C214.605 110.867 214.965 109.547 215.685 108.4C216.431 107.253 217.458 106.36 218.765 105.72C220.098 105.053 221.645 104.72 223.405 104.72C225.271 104.72 226.818 105.067 228.045 105.76C229.271 106.453 230.191 107.413 230.805 108.64C231.445 109.84 231.765 111.267 231.765 112.92V125ZM220.365 125.4C218.578 125.4 217.071 124.947 215.845 124.04C214.645 123.107 214.045 121.787 214.045 120.08C214.045 118.96 214.298 118.027 214.805 117.28C215.338 116.533 216.098 115.92 217.085 115.44C218.071 114.96 219.271 114.627 220.685 114.44L228.045 113.4V116.44L221.325 117.44C220.178 117.6 219.378 117.84 218.925 118.16C218.471 118.48 218.245 119.013 218.245 119.76C218.245 120.533 218.511 121.093 219.045 121.44C219.605 121.787 220.511 121.96 221.765 121.96C222.725 121.96 223.645 121.813 224.525 121.52C225.431 121.2 226.178 120.68 226.765 119.96C227.351 119.213 227.645 118.173 227.645 116.84L228.205 121.92L227.565 121.88C227.191 122.493 226.671 123.067 226.005 123.6C225.365 124.133 224.578 124.573 223.645 124.92C222.711 125.24 221.618 125.4 220.365 125.4ZM240.221 125H235.901V105H239.861V110.56L240.221 110.76V125ZM240.221 112.04H239.221V108.16H240.061C240.461 107.227 241.115 106.427 242.021 105.76C242.955 105.067 244.155 104.72 245.621 104.72C247.035 104.72 248.155 105.027 248.981 105.64C249.835 106.253 250.448 107.067 250.821 108.08C251.195 109.093 251.381 110.227 251.381 111.48V112.8H247.061V112C247.061 110.667 246.835 109.733 246.381 109.2C245.928 108.667 245.075 108.4 243.821 108.4C242.515 108.4 241.581 108.68 241.021 109.24C240.488 109.773 240.221 110.707 240.221 112.04ZM262.983 125.4C260.823 125.4 259.023 124.973 257.583 124.12C256.143 123.24 255.077 122.027 254.383 120.48C253.69 118.907 253.343 117.093 253.343 115.04C253.343 112.987 253.73 111.187 254.503 109.64C255.303 108.093 256.423 106.893 257.863 106.04C259.303 105.16 261.01 104.72 262.983 104.72C264.77 104.72 266.343 105.067 267.703 105.76C269.09 106.427 270.157 107.4 270.903 108.68C271.677 109.96 272.063 111.507 272.063 113.32C272.063 113.853 272.037 114.373 271.983 114.88C271.957 115.36 271.917 115.76 271.863 116.08H255.383V113.2H268.343L267.903 113.6C268.01 112.373 267.877 111.373 267.503 110.6C267.157 109.827 266.583 109.253 265.783 108.88C265.01 108.507 264.037 108.32 262.863 108.32C260.757 108.32 259.317 108.853 258.543 109.92C257.77 110.96 257.383 112.4 257.383 114.24V115.44C257.383 116.773 257.543 117.907 257.863 118.84C258.21 119.747 258.797 120.427 259.623 120.88C260.45 121.333 261.583 121.56 263.023 121.56C264.703 121.56 265.89 121.293 266.583 120.76C267.277 120.227 267.623 119.52 267.623 118.64V118.32H271.903V118.68C271.903 120.04 271.53 121.227 270.783 122.24C270.037 123.227 268.997 124 267.663 124.56C266.357 125.12 264.797 125.4 262.983 125.4ZM286.645 131.8C286.112 131.8 285.565 131.76 285.005 131.68C284.445 131.627 283.992 131.547 283.645 131.44V127.92H286.405C287.232 127.92 287.845 127.8 288.245 127.56C288.645 127.347 289.018 126.88 289.365 126.16L290.605 123.36L290.245 124.76L281.645 105.12H286.405L290.405 114.76L292.205 119.08H292.565L294.165 114.76L297.805 105.12H302.605L293.165 127.32C292.685 128.52 292.138 129.44 291.525 130.08C290.912 130.72 290.205 131.16 289.405 131.4C288.632 131.667 287.712 131.8 286.645 131.8ZM312.99 125.4C310.963 125.4 309.203 124.973 307.71 124.12C306.217 123.24 305.07 122.027 304.27 120.48C303.47 118.907 303.07 117.093 303.07 115.04C303.07 112.987 303.47 111.187 304.27 109.64C305.07 108.093 306.217 106.893 307.71 106.04C309.203 105.16 310.963 104.72 312.99 104.72C315.017 104.72 316.75 105.16 318.19 106.04C319.657 106.893 320.777 108.093 321.55 109.64C322.35 111.187 322.75 112.987 322.75 115.04C322.75 117.093 322.35 118.907 321.55 120.48C320.777 122.027 319.657 123.24 318.19 124.12C316.75 124.973 315.017 125.4 312.99 125.4ZM312.99 121.56C315.07 121.56 316.523 121.04 317.35 120C318.177 118.933 318.59 117.28 318.59 115.04C318.59 112.8 318.177 111.16 317.35 110.12C316.523 109.08 315.07 108.56 312.99 108.56C310.883 108.56 309.417 109.08 308.59 110.12C307.763 111.16 307.35 112.8 307.35 115.04C307.35 117.28 307.763 118.933 308.59 120C309.417 121.04 310.883 121.56 312.99 121.56ZM333.379 125.4C331.673 125.4 330.259 125.053 329.139 124.36C328.019 123.64 327.193 122.68 326.659 121.48C326.126 120.253 325.859 118.893 325.859 117.4V105.12H330.179V116.6C330.179 118.387 330.553 119.68 331.299 120.48C332.046 121.28 333.273 121.68 334.979 121.68C336.099 121.68 337.046 121.507 337.819 121.16C338.593 120.787 339.179 120.213 339.579 119.44C339.979 118.64 340.179 117.6 340.179 116.32H341.299V121.04H340.339C340.046 121.787 339.593 122.493 338.979 123.16C338.393 123.827 337.633 124.373 336.699 124.8C335.793 125.2 334.686 125.4 333.379 125.4ZM344.499 125H340.499V119.04L340.179 118.84V105.12H344.499V125ZM353.073 125H348.753V105H352.713V110.56L353.073 110.76V125ZM353.073 112.04H352.073V108.16H352.913C353.313 107.227 353.966 106.427 354.873 105.76C355.806 105.067 357.006 104.72 358.473 104.72C359.886 104.72 361.006 105.027 361.833 105.64C362.686 106.253 363.299 107.067 363.673 108.08C364.046 109.093 364.233 110.227 364.233 111.48V112.8H359.913V112C359.913 110.667 359.686 109.733 359.233 109.2C358.779 108.667 357.926 108.4 356.673 108.4C355.366 108.4 354.433 108.68 353.873 109.24C353.339 109.773 353.073 110.707 353.073 112.04ZM383.728 125.44C381.648 125.44 379.888 125 378.448 124.12C377.008 123.24 375.901 122.027 375.128 120.48C374.381 118.933 374.007 117.133 374.007 115.08C374.007 113.027 374.394 111.227 375.168 109.68C375.968 108.107 377.101 106.893 378.567 106.04C380.034 105.16 381.808 104.72 383.888 104.72C385.648 104.72 387.194 105.053 388.528 105.72C389.861 106.387 390.888 107.32 391.608 108.52C392.354 109.72 392.728 111.12 392.728 112.72V113.08H388.448V112.84C388.448 111.373 388.048 110.307 387.248 109.64C386.474 108.947 385.261 108.6 383.608 108.6C381.688 108.6 380.314 109.147 379.488 110.24C378.688 111.307 378.288 112.907 378.288 115.04C378.288 117.2 378.688 118.827 379.488 119.92C380.314 120.987 381.688 121.52 383.608 121.52C385.261 121.52 386.474 121.187 387.248 120.52C388.048 119.827 388.448 118.76 388.448 117.32V117.08H392.728V117.44C392.728 118.987 392.354 120.373 391.608 121.6C390.861 122.8 389.808 123.747 388.448 124.44C387.114 125.107 385.541 125.44 383.728 125.44ZM405.295 125.4C403.268 125.4 401.508 124.973 400.015 124.12C398.521 123.24 397.375 122.027 396.575 120.48C395.775 118.907 395.375 117.093 395.375 115.04C395.375 112.987 395.775 111.187 396.575 109.64C397.375 108.093 398.521 106.893 400.015 106.04C401.508 105.16 403.268 104.72 405.295 104.72C407.321 104.72 409.055 105.16 410.495 106.04C411.961 106.893 413.081 108.093 413.855 109.64C414.655 111.187 415.055 112.987 415.055 115.04C415.055 117.093 414.655 118.907 413.855 120.48C413.081 122.027 411.961 123.24 410.495 124.12C409.055 124.973 407.321 125.4 405.295 125.4ZM405.295 121.56C407.375 121.56 408.828 121.04 409.655 120C410.481 118.933 410.895 117.28 410.895 115.04C410.895 112.8 410.481 111.16 409.655 110.12C408.828 109.08 407.375 108.56 405.295 108.56C403.188 108.56 401.721 109.08 400.895 110.12C400.068 111.16 399.655 112.8 399.655 115.04C399.655 117.28 400.068 118.933 400.895 120C401.721 121.04 403.188 121.56 405.295 121.56ZM450.204 125H445.884V113.44C445.884 111.68 445.551 110.413 444.884 109.64C444.244 108.84 443.017 108.44 441.204 108.44C439.577 108.44 438.364 108.827 437.564 109.6C436.791 110.347 436.404 111.627 436.404 113.44L435.644 113.52L435.284 108.84H435.924C436.244 108.147 436.684 107.493 437.244 106.88C437.831 106.24 438.577 105.72 439.484 105.32C440.391 104.92 441.497 104.72 442.804 104.72C444.537 104.72 445.937 105.053 447.004 105.72C448.097 106.387 448.897 107.307 449.404 108.48C449.937 109.653 450.204 111 450.204 112.52V125ZM422.604 125H418.284V105.12H422.244V111.08L422.604 111.28V125ZM436.404 125H432.084V113.44C432.084 111.68 431.751 110.413 431.084 109.64C430.444 108.84 429.217 108.44 427.404 108.44C425.777 108.44 424.564 108.813 423.764 109.56C422.991 110.307 422.604 111.587 422.604 113.4L421.844 113.52L421.484 108.84H422.444C422.737 108.12 423.164 107.453 423.724 106.84C424.311 106.227 425.057 105.72 425.964 105.32C426.871 104.92 427.951 104.72 429.204 104.72C430.884 104.72 432.244 105.053 433.284 105.72C434.351 106.387 435.137 107.307 435.644 108.48C436.151 109.653 436.404 111 436.404 112.52V125ZM465.219 125.4C463.432 125.4 461.979 125.053 460.859 124.36C459.765 123.64 459.005 122.827 458.579 121.92H457.499L457.699 116.84H458.459C458.459 117.933 458.659 118.84 459.059 119.56C459.485 120.28 460.112 120.827 460.939 121.2C461.765 121.547 462.752 121.72 463.899 121.72C464.832 121.72 465.645 121.6 466.339 121.36C467.032 121.12 467.592 120.747 468.019 120.24C468.472 119.733 468.792 119.053 468.979 118.2C469.192 117.32 469.299 116.267 469.299 115.04C469.299 113.813 469.192 112.787 468.979 111.96C468.792 111.107 468.472 110.413 468.019 109.88C467.592 109.347 467.032 108.973 466.339 108.76C465.672 108.52 464.859 108.4 463.899 108.4C462.752 108.4 461.765 108.587 460.939 108.96C460.112 109.307 459.485 109.84 459.059 110.56C458.659 111.253 458.459 112.16 458.459 113.28H457.699L457.499 108.4H458.299C458.779 107.253 459.565 106.36 460.659 105.72C461.779 105.053 463.205 104.72 464.939 104.72C467.739 104.72 469.885 105.653 471.379 107.52C472.872 109.387 473.619 111.893 473.619 115.04C473.619 118.187 472.899 120.707 471.459 122.6C470.019 124.467 467.939 125.4 465.219 125.4ZM458.459 131.92H454.179V105.12H458.099V109.84L458.459 110.36V131.92ZM494.069 125H490.069V121.08L489.949 120V112.36C489.949 110.867 489.589 109.853 488.869 109.32C488.176 108.787 487.043 108.52 485.469 108.52C483.896 108.52 482.763 108.8 482.069 109.36C481.403 109.92 481.069 110.853 481.069 112.16V112.76H476.909V112.36C476.909 110.867 477.269 109.547 477.989 108.4C478.736 107.253 479.763 106.36 481.069 105.72C482.403 105.053 483.949 104.72 485.709 104.72C487.576 104.72 489.123 105.067 490.349 105.76C491.576 106.453 492.496 107.413 493.109 108.64C493.749 109.84 494.069 111.267 494.069 112.92V125ZM482.669 125.4C480.883 125.4 479.376 124.947 478.149 124.04C476.949 123.107 476.349 121.787 476.349 120.08C476.349 118.96 476.603 118.027 477.109 117.28C477.643 116.533 478.403 115.92 479.389 115.44C480.376 114.96 481.576 114.627 482.989 114.44L490.349 113.4V116.44L483.629 117.44C482.483 117.6 481.683 117.84 481.229 118.16C480.776 118.48 480.549 119.013 480.549 119.76C480.549 120.533 480.816 121.093 481.349 121.44C481.909 121.787 482.816 121.96 484.069 121.96C485.029 121.96 485.949 121.813 486.829 121.52C487.736 121.2 488.483 120.68 489.069 119.96C489.656 119.213 489.949 118.173 489.949 116.84L490.509 121.92L489.869 121.88C489.496 122.493 488.976 123.067 488.309 123.6C487.669 124.133 486.883 124.573 485.949 124.92C485.016 125.24 483.923 125.4 482.669 125.4ZM516.726 125H512.406V113.44C512.406 111.68 512.073 110.413 511.406 109.64C510.739 108.84 509.486 108.44 507.646 108.44C506.473 108.44 505.513 108.613 504.766 108.96C504.019 109.28 503.459 109.813 503.086 110.56C502.713 111.28 502.526 112.267 502.526 113.52H501.766L501.406 108.84H502.366C502.659 108.12 503.099 107.453 503.686 106.84C504.273 106.227 505.019 105.72 505.926 105.32C506.859 104.92 507.966 104.72 509.246 104.72C510.979 104.72 512.393 105.053 513.486 105.72C514.579 106.387 515.393 107.307 515.926 108.48C516.459 109.653 516.726 111 516.726 112.52V125ZM502.526 125H498.206V105.12H502.166V111.08L502.526 111.28V125ZM523.168 131.8C522.635 131.8 522.088 131.76 521.528 131.68C520.968 131.627 520.515 131.547 520.168 131.44V127.92H522.928C523.755 127.92 524.368 127.8 524.768 127.56C525.168 127.347 525.542 126.88 525.888 126.16L527.128 123.36L526.768 124.76L518.168 105.12H522.928L526.928 114.76L528.728 119.08H529.088L530.688 114.76L534.328 105.12H539.128L529.688 127.32C529.208 128.52 528.662 129.44 528.048 130.08C527.435 130.72 526.728 131.16 525.928 131.4C525.155 131.667 524.235 131.8 523.168 131.8ZM557.143 125.4C554.316 125.4 552.143 124.467 550.623 122.6C549.129 120.707 548.382 118.187 548.382 115.04C548.382 111.893 549.116 109.387 550.583 107.52C552.076 105.653 554.183 104.72 556.903 104.72C558.663 104.72 560.076 105.08 561.143 105.8C562.236 106.493 562.996 107.293 563.423 108.2H564.503L564.303 113.28H563.543C563.543 112.16 563.329 111.24 562.903 110.52C562.476 109.8 561.863 109.267 561.063 108.92C560.263 108.573 559.276 108.4 558.103 108.4C557.143 108.4 556.316 108.52 555.623 108.76C554.956 109 554.396 109.373 553.943 109.88C553.516 110.387 553.196 111.067 552.983 111.92C552.796 112.773 552.703 113.813 552.703 115.04C552.703 116.24 552.796 117.28 552.983 118.16C553.196 119.013 553.516 119.707 553.943 120.24C554.396 120.747 554.969 121.12 555.663 121.36C556.356 121.6 557.169 121.72 558.103 121.72C559.276 121.72 560.263 121.547 561.063 121.2C561.863 120.827 562.476 120.28 562.903 119.56C563.329 118.84 563.543 117.933 563.543 116.84H564.303L564.503 121.72H563.703C563.249 122.867 562.463 123.773 561.343 124.44C560.249 125.08 558.849 125.4 557.143 125.4ZM567.863 125H563.863V120.28L563.543 119.76V98.2H567.863V125ZM580.796 125.4C578.636 125.4 576.836 124.973 575.396 124.12C573.956 123.24 572.889 122.027 572.196 120.48C571.503 118.907 571.156 117.093 571.156 115.04C571.156 112.987 571.543 111.187 572.316 109.64C573.116 108.093 574.236 106.893 575.676 106.04C577.116 105.16 578.823 104.72 580.796 104.72C582.583 104.72 584.156 105.067 585.516 105.76C586.903 106.427 587.969 107.4 588.716 108.68C589.489 109.96 589.876 111.507 589.876 113.32C589.876 113.853 589.849 114.373 589.796 114.88C589.769 115.36 589.729 115.76 589.676 116.08H573.196V113.2H586.156L585.716 113.6C585.823 112.373 585.689 111.373 585.316 110.6C584.969 109.827 584.396 109.253 583.596 108.88C582.823 108.507 581.849 108.32 580.676 108.32C578.569 108.32 577.129 108.853 576.356 109.92C575.583 110.96 575.196 112.4 575.196 114.24V115.44C575.196 116.773 575.356 117.907 575.676 118.84C576.023 119.747 576.609 120.427 577.436 120.88C578.263 121.333 579.396 121.56 580.836 121.56C582.516 121.56 583.703 121.293 584.396 120.76C585.089 120.227 585.436 119.52 585.436 118.64V118.32H589.716V118.68C589.716 120.04 589.343 121.227 588.596 122.24C587.849 123.227 586.809 124 585.476 124.56C584.169 125.12 582.609 125.4 580.796 125.4ZM601.448 125C599.261 125 597.581 124.533 596.408 123.6C595.261 122.667 594.688 121.093 594.688 118.88V105.56L595.688 100.2H599.008V118.68C599.008 119.72 599.261 120.387 599.768 120.68C600.301 120.947 601.248 121.08 602.608 121.08H605.008V124.64C604.608 124.747 604.088 124.84 603.448 124.92C602.808 124.973 602.141 125 601.448 125ZM605.008 108.72H591.368V105.12H605.008V108.72ZM624.694 125H620.694V121.08L620.574 120V112.36C620.574 110.867 620.214 109.853 619.494 109.32C618.801 108.787 617.668 108.52 616.094 108.52C614.521 108.52 613.388 108.8 612.694 109.36C612.028 109.92 611.694 110.853 611.694 112.16V112.76H607.534V112.36C607.534 110.867 607.894 109.547 608.614 108.4C609.361 107.253 610.388 106.36 611.694 105.72C613.028 105.053 614.574 104.72 616.334 104.72C618.201 104.72 619.748 105.067 620.974 105.76C622.201 106.453 623.121 107.413 623.734 108.64C624.374 109.84 624.694 111.267 624.694 112.92V125ZM613.294 125.4C611.508 125.4 610.001 124.947 608.774 124.04C607.574 123.107 606.974 121.787 606.974 120.08C606.974 118.96 607.228 118.027 607.734 117.28C608.268 116.533 609.028 115.92 610.014 115.44C611.001 114.96 612.201 114.627 613.614 114.44L620.974 113.4V116.44L614.254 117.44C613.108 117.6 612.308 117.84 611.854 118.16C611.401 118.48 611.174 119.013 611.174 119.76C611.174 120.533 611.441 121.093 611.974 121.44C612.534 121.787 613.441 121.96 614.694 121.96C615.654 121.96 616.574 121.813 617.454 121.52C618.361 121.2 619.108 120.68 619.694 119.96C620.281 119.213 620.574 118.173 620.574 116.84L621.134 121.92L620.494 121.88C620.121 122.493 619.601 123.067 618.934 123.6C618.294 124.133 617.508 124.573 616.574 124.92C615.641 125.24 614.548 125.4 613.294 125.4ZM632.871 102.6H628.591L628.551 98.2H632.871V102.6ZM632.911 125H628.591V105H632.911V125ZM641.198 125H636.878V98.2H641.198V125ZM653.675 125.4C650.769 125.4 648.569 124.827 647.075 123.68C645.582 122.507 644.835 120.707 644.835 118.28V118.2H648.995V118.92C648.995 119.613 649.129 120.187 649.395 120.64C649.689 121.067 650.169 121.387 650.835 121.6C651.529 121.787 652.502 121.88 653.755 121.88C654.822 121.88 655.622 121.8 656.155 121.64C656.715 121.453 657.089 121.2 657.275 120.88C657.462 120.56 657.555 120.16 657.555 119.68C657.555 118.88 657.275 118.32 656.715 118C656.155 117.653 655.155 117.347 653.715 117.08L650.595 116.56C649.422 116.32 648.395 115.987 647.515 115.56C646.662 115.107 645.995 114.493 645.515 113.72C645.062 112.92 644.835 111.92 644.835 110.72C644.835 108.933 645.542 107.493 646.955 106.4C648.369 105.28 650.369 104.72 652.955 104.72C654.529 104.72 655.929 104.973 657.155 105.48C658.382 105.987 659.355 106.747 660.075 107.76C660.795 108.773 661.155 110.04 661.155 111.56V111.92H657.035V111.44C657.035 110.8 656.929 110.253 656.715 109.8C656.502 109.32 656.102 108.947 655.515 108.68C654.929 108.413 654.035 108.28 652.835 108.28C651.262 108.28 650.222 108.48 649.715 108.88C649.209 109.28 648.955 109.867 648.955 110.64C648.955 111.413 649.182 111.96 649.635 112.28C650.115 112.573 651.049 112.867 652.435 113.16L655.835 113.8C657.115 114.04 658.182 114.4 659.035 114.88C659.889 115.36 660.529 115.987 660.955 116.76C661.409 117.533 661.635 118.453 661.635 119.52C661.635 121.387 660.929 122.84 659.515 123.88C658.129 124.893 656.182 125.4 653.675 125.4ZM212.385 174C210.199 174 208.519 173.533 207.345 172.6C206.199 171.667 205.625 170.093 205.625 167.88V154.56L206.625 149.2H209.945V167.68C209.945 168.72 210.199 169.387 210.705 169.68C211.239 169.947 212.185 170.08 213.545 170.08H215.945V173.64C215.545 173.747 215.025 173.84 214.385 173.92C213.745 173.973 213.079 174 212.385 174ZM215.945 157.72H202.305V154.12H215.945V157.72ZM227.287 174.4C225.26 174.4 223.5 173.973 222.007 173.12C220.514 172.24 219.367 171.027 218.567 169.48C217.767 167.907 217.367 166.093 217.367 164.04C217.367 161.987 217.767 160.187 218.567 158.64C219.367 157.093 220.514 155.893 222.007 155.04C223.5 154.16 225.26 153.72 227.287 153.72C229.314 153.72 231.047 154.16 232.487 155.04C233.954 155.893 235.074 157.093 235.847 158.64C236.647 160.187 237.047 161.987 237.047 164.04C237.047 166.093 236.647 167.907 235.847 169.48C235.074 171.027 233.954 172.24 232.487 173.12C231.047 173.973 229.314 174.4 227.287 174.4ZM227.287 170.56C229.367 170.56 230.82 170.04 231.647 169C232.474 167.933 232.887 166.28 232.887 164.04C232.887 161.8 232.474 160.16 231.647 159.12C230.82 158.08 229.367 157.56 227.287 157.56C225.18 157.56 223.714 158.08 222.887 159.12C222.06 160.16 221.647 161.8 221.647 164.04C221.647 166.28 222.06 167.933 222.887 169C223.714 170.04 225.18 170.56 227.287 170.56ZM256.931 174.44C254.851 174.44 253.091 174 251.651 173.12C250.211 172.24 249.104 171.027 248.331 169.48C247.584 167.933 247.211 166.133 247.211 164.08C247.211 162.027 247.597 160.227 248.371 158.68C249.171 157.107 250.304 155.893 251.771 155.04C253.237 154.16 255.011 153.72 257.091 153.72C258.851 153.72 260.397 154.053 261.731 154.72C263.064 155.387 264.091 156.32 264.811 157.52C265.557 158.72 265.931 160.12 265.931 161.72V162.08H261.651V161.84C261.651 160.373 261.251 159.307 260.451 158.64C259.677 157.947 258.464 157.6 256.811 157.6C254.891 157.6 253.517 158.147 252.691 159.24C251.891 160.307 251.491 161.907 251.491 164.04C251.491 166.2 251.891 167.827 252.691 168.92C253.517 169.987 254.891 170.52 256.811 170.52C258.464 170.52 259.677 170.187 260.451 169.52C261.251 168.827 261.651 167.76 261.651 166.32V166.08H265.931V166.44C265.931 167.987 265.557 169.373 264.811 170.6C264.064 171.8 263.011 172.747 261.651 173.44C260.317 174.107 258.744 174.44 256.931 174.44ZM278.498 174.4C276.471 174.4 274.711 173.973 273.218 173.12C271.724 172.24 270.578 171.027 269.778 169.48C268.978 167.907 268.578 166.093 268.578 164.04C268.578 161.987 268.978 160.187 269.778 158.64C270.578 157.093 271.724 155.893 273.218 155.04C274.711 154.16 276.471 153.72 278.498 153.72C280.524 153.72 282.258 154.16 283.698 155.04C285.164 155.893 286.284 157.093 287.058 158.64C287.858 160.187 288.258 161.987 288.258 164.04C288.258 166.093 287.858 167.907 287.058 169.48C286.284 171.027 285.164 172.24 283.698 173.12C282.258 173.973 280.524 174.4 278.498 174.4ZM278.498 170.56C280.578 170.56 282.031 170.04 282.858 169C283.684 167.933 284.098 166.28 284.098 164.04C284.098 161.8 283.684 160.16 282.858 159.12C282.031 158.08 280.578 157.56 278.498 157.56C276.391 157.56 274.924 158.08 274.098 159.12C273.271 160.16 272.858 161.8 272.858 164.04C272.858 166.28 273.271 167.933 274.098 169C274.924 170.04 276.391 170.56 278.498 170.56ZM310.007 174H305.687V162.44C305.687 160.68 305.354 159.413 304.687 158.64C304.021 157.84 302.767 157.44 300.927 157.44C299.754 157.44 298.794 157.613 298.047 157.96C297.301 158.28 296.741 158.813 296.367 159.56C295.994 160.28 295.807 161.267 295.807 162.52H295.047L294.687 157.84H295.647C295.941 157.12 296.381 156.453 296.967 155.84C297.554 155.227 298.301 154.72 299.207 154.32C300.141 153.92 301.247 153.72 302.527 153.72C304.261 153.72 305.674 154.053 306.767 154.72C307.861 155.387 308.674 156.307 309.207 157.48C309.741 158.653 310.007 160 310.007 161.52V174ZM295.807 174H291.487V154.12H295.447V160.08L295.807 160.28V174ZM332.663 174H328.343V162.44C328.343 160.68 328.01 159.413 327.343 158.64C326.677 157.84 325.423 157.44 323.583 157.44C322.41 157.44 321.45 157.613 320.703 157.96C319.957 158.28 319.397 158.813 319.023 159.56C318.65 160.28 318.463 161.267 318.463 162.52H317.703L317.343 157.84H318.303C318.597 157.12 319.037 156.453 319.623 155.84C320.21 155.227 320.957 154.72 321.863 154.32C322.797 153.92 323.903 153.72 325.183 153.72C326.917 153.72 328.33 154.053 329.423 154.72C330.517 155.387 331.33 156.307 331.863 157.48C332.397 158.653 332.663 160 332.663 161.52V174ZM318.463 174H314.143V154.12H318.103V160.08L318.463 160.28V174ZM345.562 174.4C343.402 174.4 341.602 173.973 340.162 173.12C338.722 172.24 337.655 171.027 336.962 169.48C336.268 167.907 335.922 166.093 335.922 164.04C335.922 161.987 336.308 160.187 337.082 158.64C337.882 157.093 339.002 155.893 340.442 155.04C341.882 154.16 343.588 153.72 345.562 153.72C347.348 153.72 348.922 154.067 350.282 154.76C351.668 155.427 352.735 156.4 353.482 157.68C354.255 158.96 354.642 160.507 354.642 162.32C354.642 162.853 354.615 163.373 354.562 163.88C354.535 164.36 354.495 164.76 354.442 165.08H337.962V162.2H350.922L350.482 162.6C350.588 161.373 350.455 160.373 350.082 159.6C349.735 158.827 349.162 158.253 348.362 157.88C347.588 157.507 346.615 157.32 345.442 157.32C343.335 157.32 341.895 157.853 341.122 158.92C340.348 159.96 339.962 161.4 339.962 163.24V164.44C339.962 165.773 340.122 166.907 340.442 167.84C340.788 168.747 341.375 169.427 342.202 169.88C343.028 170.333 344.162 170.56 345.602 170.56C347.282 170.56 348.468 170.293 349.162 169.76C349.855 169.227 350.202 168.52 350.202 167.64V167.32H354.482V167.68C354.482 169.04 354.108 170.227 353.362 171.24C352.615 172.227 351.575 173 350.242 173.56C348.935 174.12 347.375 174.4 345.562 174.4ZM367.204 174.44C365.124 174.44 363.364 174 361.924 173.12C360.484 172.24 359.377 171.027 358.604 169.48C357.857 167.933 357.484 166.133 357.484 164.08C357.484 162.027 357.871 160.227 358.644 158.68C359.444 157.107 360.577 155.893 362.044 155.04C363.511 154.16 365.284 153.72 367.364 153.72C369.124 153.72 370.671 154.053 372.004 154.72C373.337 155.387 374.364 156.32 375.084 157.52C375.831 158.72 376.204 160.12 376.204 161.72V162.08H371.924V161.84C371.924 160.373 371.524 159.307 370.724 158.64C369.951 157.947 368.737 157.6 367.084 157.6C365.164 157.6 363.791 158.147 362.964 159.24C362.164 160.307 361.764 161.907 361.764 164.04C361.764 166.2 362.164 167.827 362.964 168.92C363.791 169.987 365.164 170.52 367.084 170.52C368.737 170.52 369.951 170.187 370.724 169.52C371.524 168.827 371.924 167.76 371.924 166.32V166.08H376.204V166.44C376.204 167.987 375.831 169.373 375.084 170.6C374.337 171.8 373.284 172.747 371.924 173.44C370.591 174.107 369.017 174.44 367.204 174.44ZM387.581 174C385.394 174 383.714 173.533 382.541 172.6C381.394 171.667 380.821 170.093 380.821 167.88V154.56L381.821 149.2H385.141V167.68C385.141 168.72 385.394 169.387 385.901 169.68C386.434 169.947 387.381 170.08 388.741 170.08H391.141V173.64C390.741 173.747 390.221 173.84 389.581 173.92C388.941 173.973 388.274 174 387.581 174ZM391.141 157.72H377.501V154.12H391.141V157.72ZM410.523 174H404.883L399.963 154.12H404.643L406.923 165.16L407.763 170.4H408.083L409.363 165.16L412.843 154.12H418.443L421.963 165.2L423.243 170.36H423.523L424.363 165.2L426.643 154.12H431.163L426.243 174H420.603L417.043 162.92L415.723 157.92H415.443L414.123 162.92L410.523 174ZM437.285 151.6H433.005L432.965 147.2H437.285V151.6ZM437.325 174H433.005V154H437.325V174ZM449.456 174C447.269 174 445.589 173.533 444.416 172.6C443.269 171.667 442.696 170.093 442.696 167.88V154.56L443.696 149.2H447.016V167.68C447.016 168.72 447.269 169.387 447.776 169.68C448.309 169.947 449.256 170.08 450.616 170.08H453.016V173.64C452.616 173.747 452.096 173.84 451.456 173.92C450.816 173.973 450.149 174 449.456 174ZM453.016 157.72H439.376V154.12H453.016V157.72ZM474.617 174H470.297V162.44C470.297 160.68 469.95 159.413 469.257 158.64C468.59 157.84 467.35 157.44 465.537 157.44C463.803 157.44 462.51 157.827 461.657 158.6C460.83 159.347 460.417 160.667 460.417 162.56H459.657L459.617 157.44H460.577C460.897 156.827 461.337 156.24 461.897 155.68C462.483 155.093 463.217 154.627 464.097 154.28C465.003 153.907 466.043 153.72 467.217 153.72C468.977 153.72 470.39 154.067 471.457 154.76C472.55 155.427 473.35 156.347 473.857 157.52C474.363 158.693 474.617 160.013 474.617 161.48V174ZM460.417 174H456.097V147.2H460.417V174ZM494.729 174C492.542 174 490.862 173.533 489.689 172.6C488.542 171.667 487.969 170.093 487.969 167.88V154.56L488.969 149.2H492.289V167.68C492.289 168.72 492.542 169.387 493.049 169.68C493.582 169.947 494.529 170.08 495.889 170.08H498.289V173.64C497.889 173.747 497.369 173.84 496.729 173.92C496.089 173.973 495.422 174 494.729 174ZM498.289 157.72H484.649V154.12H498.289V157.72ZM509.631 174.4C507.604 174.4 505.844 173.973 504.351 173.12C502.857 172.24 501.711 171.027 500.911 169.48C500.111 167.907 499.711 166.093 499.711 164.04C499.711 161.987 500.111 160.187 500.911 158.64C501.711 157.093 502.857 155.893 504.351 155.04C505.844 154.16 507.604 153.72 509.631 153.72C511.657 153.72 513.391 154.16 514.831 155.04C516.297 155.893 517.417 157.093 518.191 158.64C518.991 160.187 519.391 161.987 519.391 164.04C519.391 166.093 518.991 167.907 518.191 169.48C517.417 171.027 516.297 172.24 514.831 173.12C513.391 173.973 511.657 174.4 509.631 174.4ZM509.631 170.56C511.711 170.56 513.164 170.04 513.991 169C514.817 167.933 515.231 166.28 515.231 164.04C515.231 161.8 514.817 160.16 513.991 159.12C513.164 158.08 511.711 157.56 509.631 157.56C507.524 157.56 506.057 158.08 505.231 159.12C504.404 160.16 503.991 161.8 503.991 164.04C503.991 166.28 504.404 167.933 505.231 169C506.057 170.04 507.524 170.56 509.631 170.56ZM533.5 174.4C531.713 174.4 530.26 174.053 529.14 173.36C528.047 172.64 527.287 171.827 526.86 170.92H525.78L525.98 165.84H526.74C526.74 166.933 526.94 167.84 527.34 168.56C527.767 169.28 528.393 169.827 529.22 170.2C530.047 170.547 531.033 170.72 532.18 170.72C533.113 170.72 533.927 170.6 534.62 170.36C535.313 170.12 535.873 169.747 536.3 169.24C536.753 168.733 537.073 168.053 537.26 167.2C537.473 166.32 537.58 165.267 537.58 164.04C537.58 162.813 537.473 161.787 537.26 160.96C537.073 160.107 536.753 159.413 536.3 158.88C535.873 158.347 535.313 157.973 534.62 157.76C533.953 157.52 533.14 157.4 532.18 157.4C531.033 157.4 530.047 157.587 529.22 157.96C528.393 158.307 527.767 158.84 527.34 159.56C526.94 160.253 526.74 161.16 526.74 162.28H525.98L525.78 157.4H526.58C527.06 156.253 527.847 155.36 528.94 154.72C530.06 154.053 531.487 153.72 533.22 153.72C536.02 153.72 538.167 154.653 539.66 156.52C541.153 158.387 541.9 160.893 541.9 164.04C541.9 167.187 541.18 169.707 539.74 171.6C538.3 173.467 536.22 174.4 533.5 174.4ZM526.74 180.92H522.46V154.12H526.38V158.84L526.74 159.36V180.92ZM561.409 174C559.222 174 557.542 173.533 556.369 172.6C555.222 171.667 554.649 170.093 554.649 167.88V154.56L555.649 149.2H558.969V167.68C558.969 168.72 559.222 169.387 559.729 169.68C560.262 169.947 561.209 170.08 562.569 170.08H564.969V173.64C564.569 173.747 564.049 173.84 563.409 173.92C562.769 173.973 562.102 174 561.409 174ZM564.969 157.72H551.329V154.12H564.969V157.72ZM584.655 174H580.655V170.08L580.535 169V161.36C580.535 159.867 580.175 158.853 579.455 158.32C578.762 157.787 577.629 157.52 576.055 157.52C574.482 157.52 573.349 157.8 572.655 158.36C571.989 158.92 571.655 159.853 571.655 161.16V161.76H567.495V161.36C567.495 159.867 567.855 158.547 568.575 157.4C569.322 156.253 570.349 155.36 571.655 154.72C572.989 154.053 574.535 153.72 576.295 153.72C578.162 153.72 579.709 154.067 580.935 154.76C582.162 155.453 583.082 156.413 583.695 157.64C584.335 158.84 584.655 160.267 584.655 161.92V174ZM573.255 174.4C571.469 174.4 569.962 173.947 568.735 173.04C567.535 172.107 566.935 170.787 566.935 169.08C566.935 167.96 567.189 167.027 567.695 166.28C568.229 165.533 568.989 164.92 569.975 164.44C570.962 163.96 572.162 163.627 573.575 163.44L580.935 162.4V165.44L574.215 166.44C573.069 166.6 572.269 166.84 571.815 167.16C571.362 167.48 571.135 168.013 571.135 168.76C571.135 169.533 571.402 170.093 571.935 170.44C572.495 170.787 573.402 170.96 574.655 170.96C575.615 170.96 576.535 170.813 577.415 170.52C578.322 170.2 579.069 169.68 579.655 168.96C580.242 168.213 580.535 167.173 580.535 165.84L581.095 170.92L580.455 170.88C580.082 171.493 579.562 172.067 578.895 172.6C578.255 173.133 577.469 173.573 576.535 173.92C575.602 174.24 574.509 174.4 573.255 174.4ZM593.112 174H588.792V147.2H593.112V174ZM606.03 174.4C603.87 174.4 602.07 173.973 600.63 173.12C599.19 172.24 598.124 171.027 597.43 169.48C596.737 167.907 596.39 166.093 596.39 164.04C596.39 161.987 596.777 160.187 597.55 158.64C598.35 157.093 599.47 155.893 600.91 155.04C602.35 154.16 604.057 153.72 606.03 153.72C607.817 153.72 609.39 154.067 610.75 154.76C612.137 155.427 613.204 156.4 613.95 157.68C614.724 158.96 615.11 160.507 615.11 162.32C615.11 162.853 615.084 163.373 615.03 163.88C615.004 164.36 614.964 164.76 614.91 165.08H598.43V162.2H611.39L610.95 162.6C611.057 161.373 610.924 160.373 610.55 159.6C610.204 158.827 609.63 158.253 608.83 157.88C608.057 157.507 607.084 157.32 605.91 157.32C603.804 157.32 602.364 157.853 601.59 158.92C600.817 159.96 600.43 161.4 600.43 163.24V164.44C600.43 165.773 600.59 166.907 600.91 167.84C601.257 168.747 601.844 169.427 602.67 169.88C603.497 170.333 604.63 170.56 606.07 170.56C607.75 170.56 608.937 170.293 609.63 169.76C610.324 169.227 610.67 168.52 610.67 167.64V167.32H614.95V167.68C614.95 169.04 614.577 170.227 613.83 171.24C613.084 172.227 612.044 173 610.71 173.56C609.404 174.12 607.844 174.4 606.03 174.4ZM637.078 174H632.758V162.44C632.758 160.68 632.424 159.413 631.758 158.64C631.091 157.84 629.838 157.44 627.998 157.44C626.824 157.44 625.864 157.613 625.118 157.96C624.371 158.28 623.811 158.813 623.438 159.56C623.064 160.28 622.878 161.267 622.878 162.52H622.118L621.758 157.84H622.718C623.011 157.12 623.451 156.453 624.038 155.84C624.624 155.227 625.371 154.72 626.278 154.32C627.211 153.92 628.318 153.72 629.598 153.72C631.331 153.72 632.744 154.053 633.838 154.72C634.931 155.387 635.744 156.307 636.278 157.48C636.811 158.653 637.078 160 637.078 161.52V174ZM622.878 174H618.558V154.12H622.518V160.08L622.878 160.28V174ZM649.299 174C647.113 174 645.433 173.533 644.259 172.6C643.113 171.667 642.539 170.093 642.539 167.88V154.56L643.539 149.2H646.859V167.68C646.859 168.72 647.113 169.387 647.619 169.68C648.153 169.947 649.099 170.08 650.459 170.08H652.859V173.64C652.459 173.747 651.939 173.84 651.299 173.92C650.659 173.973 649.993 174 649.299 174ZM652.859 157.72H639.219V154.12H652.859V157.72ZM660.462 165.2H656.262C656.262 164.4 656.236 163.48 656.182 162.44C656.156 161.373 656.102 160.253 656.022 159.08C655.969 157.88 655.916 156.707 655.862 155.56C655.809 154.387 655.756 153.32 655.702 152.36C655.649 151.4 655.622 150.613 655.622 150V147.2H661.102V150C661.102 150.613 661.076 151.4 661.022 152.36C660.996 153.32 660.942 154.387 660.862 155.56C660.809 156.707 660.756 157.88 660.702 159.08C660.649 160.28 660.596 161.413 660.542 162.48C660.489 163.52 660.462 164.427 660.462 165.2ZM660.822 174H655.942V168.08H660.822V174Z" fill="white"/>
</g>
<path d="M662.58 1234.75C662.839 1234.9 663.161 1234.9 663.42 1234.75L672.825 1229.16C673.208 1228.93 673.34 1228.44 673.122 1228.05L663 1210H676.536C676.834 1210 677.108 1210.16 677.253 1210.42L682.461 1219.75C682.874 1220.48 684 1220.19 684 1219.34V1197.97C684 1197.68 683.848 1197.41 683.599 1197.26L663.42 1185.25C663.161 1185.1 662.839 1185.1 662.58 1185.25L642.401 1197.26C642.152 1197.41 642 1197.68 642 1197.97V1219.34C642 1220.19 643.126 1220.48 643.539 1219.75L648.747 1210.42C648.892 1210.16 649.166 1210 649.464 1210H663L652.878 1228.05C652.66 1228.44 652.792 1228.93 653.175 1229.16L662.58 1234.75Z" fill="white"/>
<defs>
<clipPath id="clip0_18934_20444">
<rect width="727" height="1272" rx="20.1569" fill="white"/>
</clipPath>
</defs>
</svg>
