<svg width="727" height="1272" viewBox="0 0 727 1272" fill="none" xmlns="http://www.w3.org/2000/svg">
<g clip-path="url(#clip0_18934_20404)">
<rect width="728" height="1273" rx="20.1569" fill="#66805D"/>
<rect x="-122" y="743" width="632" height="632" rx="316" fill="#121D26"/>
<path d="M187.077 101.4C184.65 101.4 182.703 100.973 181.237 100.12C179.77 99.2667 178.69 98.08 177.997 96.56C177.33 95.0133 176.997 93.24 176.997 91.24V90.12H181.557V91.56C181.557 92.8933 181.677 93.9867 181.917 94.84C182.183 95.6667 182.703 96.2667 183.477 96.64C184.277 97.0133 185.437 97.2 186.957 97.2C188.477 97.2 189.623 97.0133 190.397 96.64C191.17 96.2667 191.677 95.6667 191.917 94.84C192.183 93.9867 192.317 92.8933 192.317 91.56V74.2H196.917V91.2C196.917 93.2267 196.57 95.0133 195.877 96.56C195.21 98.08 194.157 99.2667 192.717 100.12C191.277 100.973 189.397 101.4 187.077 101.4ZM209.826 101.4C207.799 101.4 206.039 100.973 204.546 100.12C203.053 99.24 201.906 98.0267 201.106 96.48C200.306 94.9067 199.906 93.0933 199.906 91.04C199.906 88.9867 200.306 87.1867 201.106 85.64C201.906 84.0933 203.053 82.8933 204.546 82.04C206.039 81.16 207.799 80.72 209.826 80.72C211.853 80.72 213.586 81.16 215.026 82.04C216.493 82.8933 217.613 84.0933 218.386 85.64C219.186 87.1867 219.586 88.9867 219.586 91.04C219.586 93.0933 219.186 94.9067 218.386 96.48C217.613 98.0267 216.493 99.24 215.026 100.12C213.586 100.973 211.853 101.4 209.826 101.4ZM209.826 97.56C211.906 97.56 213.359 97.04 214.186 96C215.013 94.9333 215.426 93.28 215.426 91.04C215.426 88.8 215.013 87.16 214.186 86.12C213.359 85.08 211.906 84.56 209.826 84.56C207.719 84.56 206.253 85.08 205.426 86.12C204.599 87.16 204.186 88.8 204.186 91.04C204.186 93.28 204.599 94.9333 205.426 96C206.253 97.04 207.719 97.56 209.826 97.56ZM226.855 78.6H222.575L222.535 74.2H226.855V78.6ZM226.895 101H222.575V81H226.895V101ZM249.382 101H245.062V89.44C245.062 87.68 244.729 86.4133 244.062 85.64C243.396 84.84 242.142 84.44 240.302 84.44C239.129 84.44 238.169 84.6133 237.422 84.96C236.676 85.28 236.116 85.8133 235.742 86.56C235.369 87.28 235.182 88.2667 235.182 89.52H234.422L234.062 84.84H235.022C235.316 84.12 235.756 83.4533 236.342 82.84C236.929 82.2267 237.676 81.72 238.582 81.32C239.516 80.92 240.622 80.72 241.902 80.72C243.636 80.72 245.049 81.0533 246.142 81.72C247.236 82.3867 248.049 83.3067 248.582 84.48C249.116 85.6533 249.382 87 249.382 88.52V101ZM235.182 101H230.862V81.12H234.822V87.08L235.182 87.28V101ZM265.498 101H261.178V74.2H265.818L275.978 89.56L278.818 93.84H279.137V89.56V74.2H283.458V101H278.818L268.698 85.88L265.778 81.52H265.498V85.88V101ZM296.545 101.4C294.518 101.4 292.758 100.973 291.265 100.12C289.771 99.24 288.625 98.0267 287.825 96.48C287.025 94.9067 286.625 93.0933 286.625 91.04C286.625 88.9867 287.025 87.1867 287.825 85.64C288.625 84.0933 289.771 82.8933 291.265 82.04C292.758 81.16 294.518 80.72 296.545 80.72C298.571 80.72 300.305 81.16 301.745 82.04C303.211 82.8933 304.331 84.0933 305.105 85.64C305.905 87.1867 306.305 88.9867 306.305 91.04C306.305 93.0933 305.905 94.9067 305.105 96.48C304.331 98.0267 303.211 99.24 301.745 100.12C300.305 100.973 298.571 101.4 296.545 101.4ZM296.545 97.56C298.625 97.56 300.078 97.04 300.905 96C301.731 94.9333 302.145 93.28 302.145 91.04C302.145 88.8 301.731 87.16 300.905 86.12C300.078 85.08 298.625 84.56 296.545 84.56C294.438 84.56 292.971 85.08 292.145 86.12C291.318 87.16 290.905 88.8 290.905 91.04C290.905 93.28 291.318 94.9333 292.145 96C292.971 97.04 294.438 97.56 296.545 97.56ZM317.594 101H311.954L307.034 81.12H311.714L313.994 92.16L314.834 97.4H315.154L316.434 92.16L319.914 81.12H325.514L329.034 92.2L330.314 97.36H330.594L331.434 92.2L333.714 81.12H338.234L333.314 101H327.674L324.114 89.92L322.794 84.92H322.514L321.194 89.92L317.594 101ZM356.643 101C354.456 101 352.776 100.533 351.603 99.6C350.456 98.6667 349.883 97.0933 349.883 94.88V81.56L350.883 76.2H354.203V94.68C354.203 95.72 354.456 96.3867 354.963 96.68C355.496 96.9467 356.443 97.08 357.803 97.08H360.203V100.64C359.803 100.747 359.283 100.84 358.643 100.92C358.003 100.973 357.336 101 356.643 101ZM360.203 84.72H346.563V81.12H360.203V84.72ZM371.545 101.4C369.518 101.4 367.758 100.973 366.265 100.12C364.771 99.24 363.625 98.0267 362.825 96.48C362.025 94.9067 361.625 93.0933 361.625 91.04C361.625 88.9867 362.025 87.1867 362.825 85.64C363.625 84.0933 364.771 82.8933 366.265 82.04C367.758 81.16 369.518 80.72 371.545 80.72C373.571 80.72 375.305 81.16 376.745 82.04C378.211 82.8933 379.331 84.0933 380.105 85.64C380.905 87.1867 381.305 88.9867 381.305 91.04C381.305 93.0933 380.905 94.9067 380.105 96.48C379.331 98.0267 378.211 99.24 376.745 100.12C375.305 100.973 373.571 101.4 371.545 101.4ZM371.545 97.56C373.625 97.56 375.078 97.04 375.905 96C376.731 94.9333 377.145 93.28 377.145 91.04C377.145 88.8 376.731 87.16 375.905 86.12C375.078 85.08 373.625 84.56 371.545 84.56C369.438 84.56 367.971 85.08 367.145 86.12C366.318 87.16 365.905 88.8 365.905 91.04C365.905 93.28 366.318 94.9333 367.145 96C367.971 97.04 369.438 97.56 371.545 97.56ZM400.228 101.4C397.402 101.4 395.228 100.467 393.708 98.6C392.215 96.7067 391.468 94.1867 391.468 91.04C391.468 87.8933 392.202 85.3867 393.668 83.52C395.162 81.6533 397.268 80.72 399.988 80.72C401.748 80.72 403.162 81.08 404.228 81.8C405.322 82.4933 406.082 83.2933 406.508 84.2H407.588L407.388 89.28H406.628C406.628 88.16 406.415 87.24 405.988 86.52C405.562 85.8 404.948 85.2667 404.148 84.92C403.348 84.5733 402.362 84.4 401.188 84.4C400.228 84.4 399.402 84.52 398.708 84.76C398.042 85 397.482 85.3733 397.028 85.88C396.602 86.3867 396.282 87.0667 396.068 87.92C395.882 88.7733 395.788 89.8133 395.788 91.04C395.788 92.24 395.882 93.28 396.068 94.16C396.282 95.0133 396.602 95.7067 397.028 96.24C397.482 96.7467 398.055 97.12 398.748 97.36C399.442 97.6 400.255 97.72 401.188 97.72C402.362 97.72 403.348 97.5467 404.148 97.2C404.948 96.8267 405.562 96.28 405.988 95.56C406.415 94.84 406.628 93.9333 406.628 92.84H407.388L407.588 97.72H406.788C406.335 98.8667 405.548 99.7733 404.428 100.44C403.335 101.08 401.935 101.4 400.228 101.4ZM410.948 101H406.948V96.28L406.628 95.76V74.2H410.948V101ZM419.238 78.6H414.958L414.918 74.2H419.238V78.6ZM419.278 101H414.958V81H419.278V101ZM431.488 101.4C428.581 101.4 426.381 100.827 424.888 99.68C423.394 98.5067 422.648 96.7067 422.648 94.28V94.2H426.808V94.92C426.808 95.6133 426.941 96.1867 427.208 96.64C427.501 97.0667 427.981 97.3867 428.648 97.6C429.341 97.7867 430.314 97.88 431.568 97.88C432.634 97.88 433.434 97.8 433.968 97.64C434.528 97.4533 434.901 97.2 435.088 96.88C435.274 96.56 435.368 96.16 435.368 95.68C435.368 94.88 435.088 94.32 434.528 94C433.968 93.6533 432.968 93.3467 431.528 93.08L428.408 92.56C427.234 92.32 426.208 91.9867 425.328 91.56C424.474 91.1067 423.808 90.4933 423.328 89.72C422.874 88.92 422.648 87.92 422.648 86.72C422.648 84.9333 423.354 83.4933 424.768 82.4C426.181 81.28 428.181 80.72 430.768 80.72C432.341 80.72 433.741 80.9733 434.968 81.48C436.194 81.9867 437.168 82.7467 437.888 83.76C438.608 84.7733 438.968 86.04 438.968 87.56V87.92H434.848V87.44C434.848 86.8 434.741 86.2533 434.528 85.8C434.314 85.32 433.914 84.9467 433.328 84.68C432.741 84.4133 431.848 84.28 430.648 84.28C429.074 84.28 428.034 84.48 427.528 84.88C427.021 85.28 426.768 85.8667 426.768 86.64C426.768 87.4133 426.994 87.96 427.448 88.28C427.928 88.5733 428.861 88.8667 430.248 89.16L433.648 89.8C434.928 90.04 435.994 90.4 436.848 90.88C437.701 91.36 438.341 91.9867 438.768 92.76C439.221 93.5333 439.448 94.4533 439.448 95.52C439.448 97.3867 438.741 98.84 437.328 99.88C435.941 100.893 433.994 101.4 431.488 101.4ZM451.853 101.44C449.773 101.44 448.013 101 446.573 100.12C445.133 99.24 444.026 98.0267 443.253 96.48C442.506 94.9333 442.132 93.1333 442.132 91.08C442.132 89.0267 442.519 87.2267 443.293 85.68C444.093 84.1067 445.226 82.8933 446.692 82.04C448.159 81.16 449.933 80.72 452.013 80.72C453.773 80.72 455.319 81.0533 456.653 81.72C457.986 82.3867 459.013 83.32 459.733 84.52C460.479 85.72 460.853 87.12 460.853 88.72V89.08H456.573V88.84C456.573 87.3733 456.173 86.3067 455.373 85.64C454.599 84.9467 453.386 84.6 451.733 84.6C449.813 84.6 448.439 85.1467 447.613 86.24C446.813 87.3067 446.413 88.9067 446.413 91.04C446.413 93.2 446.813 94.8267 447.613 95.92C448.439 96.9867 449.813 97.52 451.733 97.52C453.386 97.52 454.599 97.1867 455.373 96.52C456.173 95.8267 456.573 94.76 456.573 93.32V93.08H460.853V93.44C460.853 94.9867 460.479 96.3733 459.733 97.6C458.986 98.8 457.933 99.7467 456.573 100.44C455.239 101.107 453.666 101.44 451.853 101.44ZM473.42 101.4C471.393 101.4 469.633 100.973 468.14 100.12C466.646 99.24 465.5 98.0267 464.7 96.48C463.9 94.9067 463.5 93.0933 463.5 91.04C463.5 88.9867 463.9 87.1867 464.7 85.64C465.5 84.0933 466.646 82.8933 468.14 82.04C469.633 81.16 471.393 80.72 473.42 80.72C475.446 80.72 477.18 81.16 478.62 82.04C480.086 82.8933 481.206 84.0933 481.98 85.64C482.78 87.1867 483.18 88.9867 483.18 91.04C483.18 93.0933 482.78 94.9067 481.98 96.48C481.206 98.0267 480.086 99.24 478.62 100.12C477.18 100.973 475.446 101.4 473.42 101.4ZM473.42 97.56C475.5 97.56 476.953 97.04 477.78 96C478.606 94.9333 479.02 93.28 479.02 91.04C479.02 88.8 478.606 87.16 477.78 86.12C476.953 85.08 475.5 84.56 473.42 84.56C471.313 84.56 469.846 85.08 469.02 86.12C468.193 87.16 467.78 88.8 467.78 91.04C467.78 93.28 468.193 94.9333 469.02 96C469.846 97.04 471.313 97.56 473.42 97.56ZM497.149 101H491.669L483.709 81.12H488.509L494.309 96.88H494.589L500.429 81.12H505.109L497.149 101ZM515.21 101.4C513.05 101.4 511.25 100.973 509.81 100.12C508.37 99.24 507.303 98.0267 506.61 96.48C505.917 94.9067 505.57 93.0933 505.57 91.04C505.57 88.9867 505.957 87.1867 506.73 85.64C507.53 84.0933 508.65 82.8933 510.09 82.04C511.53 81.16 513.237 80.72 515.21 80.72C516.997 80.72 518.57 81.0667 519.93 81.76C521.317 82.4267 522.383 83.4 523.13 84.68C523.903 85.96 524.29 87.5067 524.29 89.32C524.29 89.8533 524.263 90.3733 524.21 90.88C524.183 91.36 524.143 91.76 524.09 92.08H507.61V89.2H520.57L520.13 89.6C520.237 88.3733 520.103 87.3733 519.73 86.6C519.383 85.8267 518.81 85.2533 518.01 84.88C517.237 84.5067 516.263 84.32 515.09 84.32C512.983 84.32 511.543 84.8533 510.77 85.92C509.997 86.96 509.61 88.4 509.61 90.24V91.44C509.61 92.7733 509.77 93.9067 510.09 94.84C510.437 95.7467 511.023 96.4267 511.85 96.88C512.677 97.3333 513.81 97.56 515.25 97.56C516.93 97.56 518.117 97.2933 518.81 96.76C519.503 96.2267 519.85 95.52 519.85 94.64V94.32H524.13V94.68C524.13 96.04 523.757 97.2267 523.01 98.24C522.263 99.2267 521.223 100 519.89 100.56C518.583 101.12 517.023 101.4 515.21 101.4ZM532.057 101H527.737V81H531.697V86.56L532.057 86.76V101ZM532.057 88.04H531.057V84.16H531.897C532.297 83.2267 532.951 82.4267 533.857 81.76C534.791 81.0667 535.991 80.72 537.457 80.72C538.871 80.72 539.991 81.0267 540.817 81.64C541.671 82.2533 542.284 83.0667 542.657 84.08C543.031 85.0933 543.217 86.2267 543.217 87.48V88.8H538.897V88C538.897 86.6667 538.671 85.7333 538.217 85.2C537.764 84.6667 536.911 84.4 535.657 84.4C534.351 84.4 533.417 84.68 532.857 85.24C532.324 85.7733 532.057 86.7067 532.057 88.04ZM562.112 101C559.925 101 558.245 100.533 557.072 99.6C555.925 98.6667 555.352 97.0933 555.352 94.88V81.56L556.352 76.2H559.672V94.68C559.672 95.72 559.925 96.3867 560.432 96.68C560.965 96.9467 561.912 97.08 563.272 97.08H565.672V100.64C565.272 100.747 564.752 100.84 564.112 100.92C563.472 100.973 562.805 101 562.112 101ZM565.672 84.72H552.032V81.12H565.672V84.72ZM585.358 101H581.358V97.08L581.238 96V88.36C581.238 86.8667 580.878 85.8533 580.158 85.32C579.465 84.7867 578.332 84.52 576.758 84.52C575.185 84.52 574.052 84.8 573.358 85.36C572.692 85.92 572.358 86.8533 572.358 88.16V88.76H568.198V88.36C568.198 86.8667 568.558 85.5467 569.278 84.4C570.025 83.2533 571.052 82.36 572.358 81.72C573.692 81.0533 575.238 80.72 576.998 80.72C578.865 80.72 580.412 81.0667 581.638 81.76C582.865 82.4533 583.785 83.4133 584.398 84.64C585.038 85.84 585.358 87.2667 585.358 88.92V101ZM573.958 101.4C572.172 101.4 570.665 100.947 569.438 100.04C568.238 99.1067 567.638 97.7867 567.638 96.08C567.638 94.96 567.892 94.0267 568.398 93.28C568.932 92.5333 569.692 91.92 570.678 91.44C571.665 90.96 572.865 90.6267 574.278 90.44L581.638 89.4V92.44L574.918 93.44C573.772 93.6 572.972 93.84 572.518 94.16C572.065 94.48 571.838 95.0133 571.838 95.76C571.838 96.5333 572.105 97.0933 572.638 97.44C573.198 97.7867 574.105 97.96 575.358 97.96C576.318 97.96 577.238 97.8133 578.118 97.52C579.025 97.2 579.772 96.68 580.358 95.96C580.945 95.2133 581.238 94.1733 581.238 92.84L581.798 97.92L581.158 97.88C580.785 98.4933 580.265 99.0667 579.598 99.6C578.958 100.133 578.172 100.573 577.238 100.92C576.305 101.24 575.212 101.4 573.958 101.4ZM593.815 101H589.495V74.2H593.815V101ZM606.733 101.4C604.573 101.4 602.773 100.973 601.333 100.12C599.893 99.24 598.827 98.0267 598.133 96.48C597.44 94.9067 597.093 93.0933 597.093 91.04C597.093 88.9867 597.48 87.1867 598.253 85.64C599.053 84.0933 600.173 82.8933 601.613 82.04C603.053 81.16 604.76 80.72 606.733 80.72C608.52 80.72 610.093 81.0667 611.453 81.76C612.84 82.4267 613.907 83.4 614.653 84.68C615.427 85.96 615.813 87.5067 615.813 89.32C615.813 89.8533 615.787 90.3733 615.733 90.88C615.707 91.36 615.667 91.76 615.613 92.08H599.133V89.2H612.093L611.653 89.6C611.76 88.3733 611.627 87.3733 611.253 86.6C610.907 85.8267 610.333 85.2533 609.533 84.88C608.76 84.5067 607.787 84.32 606.613 84.32C604.507 84.32 603.067 84.8533 602.293 85.92C601.52 86.96 601.133 88.4 601.133 90.24V91.44C601.133 92.7733 601.293 93.9067 601.613 94.84C601.96 95.7467 602.547 96.4267 603.373 96.88C604.2 97.3333 605.333 97.56 606.773 97.56C608.453 97.56 609.64 97.2933 610.333 96.76C611.027 96.2267 611.373 95.52 611.373 94.64V94.32H615.653V94.68C615.653 96.04 615.28 97.2267 614.533 98.24C613.787 99.2267 612.747 100 611.413 100.56C610.107 101.12 608.547 101.4 606.733 101.4ZM637.781 101H633.461V89.44C633.461 87.68 633.127 86.4133 632.461 85.64C631.794 84.84 630.541 84.44 628.701 84.44C627.527 84.44 626.567 84.6133 625.821 84.96C625.074 85.28 624.514 85.8133 624.141 86.56C623.767 87.28 623.581 88.2667 623.581 89.52H622.821L622.461 84.84H623.421C623.714 84.12 624.154 83.4533 624.741 82.84C625.327 82.2267 626.074 81.72 626.981 81.32C627.914 80.92 629.021 80.72 630.301 80.72C632.034 80.72 633.447 81.0533 634.541 81.72C635.634 82.3867 636.447 83.3067 636.981 84.48C637.514 85.6533 637.781 87 637.781 88.52V101ZM623.581 101H619.261V81.12H623.221V87.08L623.581 87.28V101ZM650.003 101C647.816 101 646.136 100.533 644.963 99.6C643.816 98.6667 643.243 97.0933 643.243 94.88V81.56L644.243 76.2H647.563V94.68C647.563 95.72 647.816 96.3867 648.323 96.68C648.856 96.9467 649.803 97.08 651.163 97.08H653.563V100.64C653.163 100.747 652.643 100.84 652.003 100.92C651.363 100.973 650.696 101 650.003 101ZM653.563 84.72H639.923V81.12H653.563V84.72ZM661.712 101H656.232V94.8H661.712V101ZM657.752 105.68H656.352V102.88H657.632C657.979 102.88 658.232 102.813 658.392 102.68C658.579 102.573 658.672 102.293 658.672 101.84V100.08H661.712V101.76C661.712 103.093 661.366 104.08 660.672 104.72C659.979 105.36 659.006 105.68 657.752 105.68ZM215.609 150.4C213.823 150.4 212.369 150.053 211.249 149.36C210.156 148.64 209.396 147.827 208.969 146.92H207.889L208.089 141.84H208.849C208.849 142.933 209.049 143.84 209.449 144.56C209.876 145.28 210.503 145.827 211.329 146.2C212.156 146.547 213.143 146.72 214.289 146.72C215.223 146.72 216.036 146.6 216.729 146.36C217.423 146.12 217.983 145.747 218.409 145.24C218.863 144.733 219.183 144.053 219.369 143.2C219.583 142.32 219.689 141.267 219.689 140.04C219.689 138.813 219.583 137.787 219.369 136.96C219.183 136.107 218.863 135.413 218.409 134.88C217.983 134.347 217.423 133.973 216.729 133.76C216.063 133.52 215.249 133.4 214.289 133.4C213.143 133.4 212.156 133.587 211.329 133.96C210.503 134.307 209.876 134.84 209.449 135.56C209.049 136.253 208.849 137.16 208.849 138.28H208.089L207.889 133.4H208.689C209.169 132.253 209.956 131.36 211.049 130.72C212.169 130.053 213.596 129.72 215.329 129.72C218.129 129.72 220.276 130.653 221.769 132.52C223.263 134.387 224.009 136.893 224.009 140.04C224.009 143.187 223.289 145.707 221.849 147.6C220.409 149.467 218.329 150.4 215.609 150.4ZM208.849 156.92H204.569V130.12H208.489V134.84L208.849 135.36V156.92ZM244.46 150H240.46V146.08L240.34 145V137.36C240.34 135.867 239.98 134.853 239.26 134.32C238.567 133.787 237.433 133.52 235.86 133.52C234.287 133.52 233.153 133.8 232.46 134.36C231.793 134.92 231.46 135.853 231.46 137.16V137.76H227.3V137.36C227.3 135.867 227.66 134.547 228.38 133.4C229.127 132.253 230.153 131.36 231.46 130.72C232.793 130.053 234.34 129.72 236.1 129.72C237.967 129.72 239.513 130.067 240.74 130.76C241.967 131.453 242.887 132.413 243.5 133.64C244.14 134.84 244.46 136.267 244.46 137.92V150ZM233.06 150.4C231.273 150.4 229.767 149.947 228.54 149.04C227.34 148.107 226.74 146.787 226.74 145.08C226.74 143.96 226.993 143.027 227.5 142.28C228.033 141.533 228.793 140.92 229.78 140.44C230.767 139.96 231.967 139.627 233.38 139.44L240.74 138.4V141.44L234.02 142.44C232.873 142.6 232.073 142.84 231.62 143.16C231.167 143.48 230.94 144.013 230.94 144.76C230.94 145.533 231.207 146.093 231.74 146.44C232.3 146.787 233.207 146.96 234.46 146.96C235.42 146.96 236.34 146.813 237.22 146.52C238.127 146.2 238.873 145.68 239.46 144.96C240.047 144.213 240.34 143.173 240.34 141.84L240.9 146.92L240.26 146.88C239.887 147.493 239.367 148.067 238.7 148.6C238.06 149.133 237.273 149.573 236.34 149.92C235.407 150.24 234.313 150.4 233.06 150.4ZM252.917 150H248.597V130H252.557V135.56L252.917 135.76V150ZM252.917 137.04H251.917V133.16H252.757C253.157 132.227 253.81 131.427 254.717 130.76C255.65 130.067 256.85 129.72 258.317 129.72C259.73 129.72 260.85 130.027 261.677 130.64C262.53 131.253 263.143 132.067 263.517 133.08C263.89 134.093 264.077 135.227 264.077 136.48V137.8H259.757V137C259.757 135.667 259.53 134.733 259.077 134.2C258.623 133.667 257.77 133.4 256.517 133.4C255.21 133.4 254.277 133.68 253.717 134.24C253.183 134.773 252.917 135.707 252.917 137.04ZM275.471 150C273.285 150 271.605 149.533 270.431 148.6C269.285 147.667 268.711 146.093 268.711 143.88V130.56L269.711 125.2H273.031V143.68C273.031 144.72 273.285 145.387 273.791 145.68C274.325 145.947 275.271 146.08 276.631 146.08H279.031V149.64C278.631 149.747 278.111 149.84 277.471 149.92C276.831 149.973 276.165 150 275.471 150ZM279.031 133.72H265.391V130.12H279.031V133.72ZM300.515 150H296.195V138.44C296.195 136.68 295.862 135.413 295.195 134.64C294.528 133.84 293.275 133.44 291.435 133.44C290.262 133.44 289.302 133.613 288.555 133.96C287.808 134.28 287.248 134.813 286.875 135.56C286.502 136.28 286.315 137.267 286.315 138.52H285.555L285.195 133.84H286.155C286.448 133.12 286.888 132.453 287.475 131.84C288.062 131.227 288.808 130.72 289.715 130.32C290.648 129.92 291.755 129.72 293.035 129.72C294.768 129.72 296.182 130.053 297.275 130.72C298.368 131.387 299.182 132.307 299.715 133.48C300.248 134.653 300.515 136 300.515 137.52V150ZM286.315 150H281.995V130.12H285.955V136.08L286.315 136.28V150ZM313.413 150.4C311.253 150.4 309.453 149.973 308.013 149.12C306.573 148.24 305.506 147.027 304.813 145.48C304.12 143.907 303.773 142.093 303.773 140.04C303.773 137.987 304.16 136.187 304.933 134.64C305.733 133.093 306.853 131.893 308.293 131.04C309.733 130.16 311.44 129.72 313.413 129.72C315.2 129.72 316.773 130.067 318.133 130.76C319.52 131.427 320.586 132.4 321.333 133.68C322.106 134.96 322.493 136.507 322.493 138.32C322.493 138.853 322.466 139.373 322.413 139.88C322.386 140.36 322.346 140.76 322.293 141.08H305.813V138.2H318.773L318.333 138.6C318.44 137.373 318.306 136.373 317.933 135.6C317.586 134.827 317.013 134.253 316.213 133.88C315.44 133.507 314.466 133.32 313.293 133.32C311.186 133.32 309.746 133.853 308.973 134.92C308.2 135.96 307.813 137.4 307.813 139.24V140.44C307.813 141.773 307.973 142.907 308.293 143.84C308.64 144.747 309.226 145.427 310.053 145.88C310.88 146.333 312.013 146.56 313.453 146.56C315.133 146.56 316.32 146.293 317.013 145.76C317.706 145.227 318.053 144.52 318.053 143.64V143.32H322.333V143.68C322.333 145.04 321.96 146.227 321.213 147.24C320.466 148.227 319.426 149 318.093 149.56C316.786 150.12 315.226 150.4 313.413 150.4ZM330.26 150H325.94V130H329.9V135.56L330.26 135.76V150ZM330.26 137.04H329.26V133.16H330.1C330.5 132.227 331.154 131.427 332.06 130.76C332.994 130.067 334.194 129.72 335.66 129.72C337.074 129.72 338.194 130.027 339.02 130.64C339.874 131.253 340.487 132.067 340.86 133.08C341.234 134.093 341.42 135.227 341.42 136.48V137.8H337.1V137C337.1 135.667 336.874 134.733 336.42 134.2C335.967 133.667 335.114 133.4 333.86 133.4C332.554 133.4 331.62 133.68 331.06 134.24C330.527 134.773 330.26 135.707 330.26 137.04ZM360.875 150H355.235L350.315 130.12H354.995L357.275 141.16L358.115 146.4H358.435L359.715 141.16L363.195 130.12H368.795L372.315 141.2L373.595 146.36H373.875L374.715 141.2L376.995 130.12H381.515L376.595 150H370.955L367.395 138.92L366.075 133.92H365.795L364.475 138.92L360.875 150ZM387.637 127.6H383.357L383.317 123.2H387.637V127.6ZM387.677 150H383.357V130H387.677V150ZM399.807 150C397.621 150 395.941 149.533 394.767 148.6C393.621 147.667 393.047 146.093 393.047 143.88V130.56L394.047 125.2H397.367V143.68C397.367 144.72 397.621 145.387 398.127 145.68C398.661 145.947 399.607 146.08 400.967 146.08H403.367V149.64C402.967 149.747 402.447 149.84 401.807 149.92C401.167 149.973 400.501 150 399.807 150ZM403.367 133.72H389.727V130.12H403.367V133.72ZM424.968 150H420.648V138.44C420.648 136.68 420.301 135.413 419.608 134.64C418.941 133.84 417.701 133.44 415.888 133.44C414.155 133.44 412.861 133.827 412.008 134.6C411.181 135.347 410.768 136.667 410.768 138.56H410.008L409.968 133.44H410.928C411.248 132.827 411.688 132.24 412.248 131.68C412.835 131.093 413.568 130.627 414.448 130.28C415.355 129.907 416.395 129.72 417.568 129.72C419.328 129.72 420.741 130.067 421.808 130.76C422.901 131.427 423.701 132.347 424.208 133.52C424.715 134.693 424.968 136.013 424.968 137.48V150ZM410.768 150H406.448V123.2H410.768V150ZM445.681 150.44C443.601 150.44 441.841 150 440.401 149.12C438.961 148.24 437.854 147.027 437.081 145.48C436.334 143.933 435.961 142.133 435.961 140.08C435.961 138.027 436.347 136.227 437.121 134.68C437.921 133.107 439.054 131.893 440.521 131.04C441.987 130.16 443.761 129.72 445.841 129.72C447.601 129.72 449.147 130.053 450.481 130.72C451.814 131.387 452.841 132.32 453.561 133.52C454.307 134.72 454.681 136.12 454.681 137.72V138.08H450.401V137.84C450.401 136.373 450.001 135.307 449.201 134.64C448.427 133.947 447.214 133.6 445.561 133.6C443.641 133.6 442.267 134.147 441.441 135.24C440.641 136.307 440.241 137.907 440.241 140.04C440.241 142.2 440.641 143.827 441.441 144.92C442.267 145.987 443.641 146.52 445.561 146.52C447.214 146.52 448.427 146.187 449.201 145.52C450.001 144.827 450.401 143.76 450.401 142.32V142.08H454.681V142.44C454.681 143.987 454.307 145.373 453.561 146.6C452.814 147.8 451.761 148.747 450.401 149.44C449.067 150.107 447.494 150.44 445.681 150.44ZM467.248 150.4C465.221 150.4 463.461 149.973 461.968 149.12C460.474 148.24 459.328 147.027 458.528 145.48C457.728 143.907 457.328 142.093 457.328 140.04C457.328 137.987 457.728 136.187 458.528 134.64C459.328 133.093 460.474 131.893 461.968 131.04C463.461 130.16 465.221 129.72 467.248 129.72C469.274 129.72 471.008 130.16 472.448 131.04C473.914 131.893 475.034 133.093 475.808 134.64C476.608 136.187 477.008 137.987 477.008 140.04C477.008 142.093 476.608 143.907 475.808 145.48C475.034 147.027 473.914 148.24 472.448 149.12C471.008 149.973 469.274 150.4 467.248 150.4ZM467.248 146.56C469.328 146.56 470.781 146.04 471.608 145C472.434 143.933 472.848 142.28 472.848 140.04C472.848 137.8 472.434 136.16 471.608 135.12C470.781 134.08 469.328 133.56 467.248 133.56C465.141 133.56 463.674 134.08 462.848 135.12C462.021 136.16 461.608 137.8 461.608 140.04C461.608 142.28 462.021 143.933 462.848 145C463.674 146.04 465.141 146.56 467.248 146.56ZM484.596 150H480.276V123.2H484.596V150ZM493.346 150H489.026V123.2H493.346V150ZM506.265 150.4C504.105 150.4 502.305 149.973 500.865 149.12C499.425 148.24 498.358 147.027 497.665 145.48C496.971 143.907 496.625 142.093 496.625 140.04C496.625 137.987 497.011 136.187 497.785 134.64C498.585 133.093 499.705 131.893 501.145 131.04C502.585 130.16 504.291 129.72 506.265 129.72C508.051 129.72 509.625 130.067 510.985 130.76C512.371 131.427 513.438 132.4 514.185 133.68C514.958 134.96 515.345 136.507 515.345 138.32C515.345 138.853 515.318 139.373 515.265 139.88C515.238 140.36 515.198 140.76 515.145 141.08H498.665V138.2H511.625L511.185 138.6C511.291 137.373 511.158 136.373 510.785 135.6C510.438 134.827 509.865 134.253 509.065 133.88C508.291 133.507 507.318 133.32 506.145 133.32C504.038 133.32 502.598 133.853 501.825 134.92C501.051 135.96 500.665 137.4 500.665 139.24V140.44C500.665 141.773 500.825 142.907 501.145 143.84C501.491 144.747 502.078 145.427 502.905 145.88C503.731 146.333 504.865 146.56 506.305 146.56C507.985 146.56 509.171 146.293 509.865 145.76C510.558 145.227 510.905 144.52 510.905 143.64V143.32H515.185V143.68C515.185 145.04 514.811 146.227 514.065 147.24C513.318 148.227 512.278 149 510.945 149.56C509.638 150.12 508.078 150.4 506.265 150.4ZM528.387 157.2C526.521 157.2 524.894 156.907 523.507 156.32C522.147 155.733 521.094 154.88 520.347 153.76C519.601 152.667 519.227 151.32 519.227 149.72H523.547C523.547 150.627 523.681 151.347 523.947 151.88C524.214 152.413 524.707 152.787 525.427 153C526.147 153.24 527.174 153.36 528.507 153.36C529.814 153.36 530.814 153.213 531.507 152.92C532.201 152.627 532.681 152.133 532.947 151.44C533.214 150.747 533.347 149.787 533.347 148.56V135.36L533.667 134.84V130.12H537.667V148.56C537.667 150.507 537.294 152.107 536.547 153.36C535.801 154.64 534.734 155.6 533.347 156.24C531.987 156.88 530.334 157.2 528.387 157.2ZM526.707 148.12C523.961 148.12 521.854 147.293 520.387 145.64C518.921 143.96 518.187 141.72 518.187 138.92C518.187 136.12 518.934 133.893 520.427 132.24C521.921 130.56 524.067 129.72 526.867 129.72C528.494 129.72 529.894 130.053 531.067 130.72C532.241 131.36 533.054 132.253 533.507 133.4H534.307L534.107 138.28H533.347C533.347 137.16 533.121 136.24 532.667 135.52C532.214 134.8 531.574 134.267 530.747 133.92C529.921 133.573 528.961 133.4 527.867 133.4C526.614 133.4 525.587 133.573 524.787 133.92C524.014 134.267 523.441 134.853 523.067 135.68C522.694 136.48 522.507 137.56 522.507 138.92C522.507 139.933 522.614 140.8 522.827 141.52C523.041 142.213 523.374 142.773 523.827 143.2C524.281 143.627 524.854 143.947 525.547 144.16C526.241 144.347 527.041 144.44 527.947 144.44C529.041 144.44 529.987 144.267 530.787 143.92C531.587 143.547 532.214 143 532.667 142.28C533.121 141.56 533.347 140.64 533.347 139.52H534.227V144.6H533.187C532.734 145.56 531.947 146.387 530.827 147.08C529.707 147.773 528.334 148.12 526.707 148.12ZM550.562 150.4C548.402 150.4 546.602 149.973 545.162 149.12C543.722 148.24 542.655 147.027 541.962 145.48C541.268 143.907 540.922 142.093 540.922 140.04C540.922 137.987 541.308 136.187 542.082 134.64C542.882 133.093 544.002 131.893 545.442 131.04C546.882 130.16 548.588 129.72 550.562 129.72C552.348 129.72 553.922 130.067 555.282 130.76C556.668 131.427 557.735 132.4 558.482 133.68C559.255 134.96 559.642 136.507 559.642 138.32C559.642 138.853 559.615 139.373 559.562 139.88C559.535 140.36 559.495 140.76 559.442 141.08H542.962V138.2H555.922L555.482 138.6C555.588 137.373 555.455 136.373 555.082 135.6C554.735 134.827 554.162 134.253 553.362 133.88C552.588 133.507 551.615 133.32 550.442 133.32C548.335 133.32 546.895 133.853 546.122 134.92C545.348 135.96 544.962 137.4 544.962 139.24V140.44C544.962 141.773 545.122 142.907 545.442 143.84C545.788 144.747 546.375 145.427 547.202 145.88C548.028 146.333 549.162 146.56 550.602 146.56C552.282 146.56 553.468 146.293 554.162 145.76C554.855 145.227 555.202 144.52 555.202 143.64V143.32H559.482V143.68C559.482 145.04 559.108 146.227 558.362 147.24C557.615 148.227 556.575 149 555.242 149.56C553.935 150.12 552.375 150.4 550.562 150.4ZM571.644 150.4C568.737 150.4 566.537 149.827 565.044 148.68C563.551 147.507 562.804 145.707 562.804 143.28V143.2H566.964V143.92C566.964 144.613 567.097 145.187 567.364 145.64C567.657 146.067 568.137 146.387 568.804 146.6C569.497 146.787 570.471 146.88 571.724 146.88C572.791 146.88 573.591 146.8 574.124 146.64C574.684 146.453 575.057 146.2 575.244 145.88C575.431 145.56 575.524 145.16 575.524 144.68C575.524 143.88 575.244 143.32 574.684 143C574.124 142.653 573.124 142.347 571.684 142.08L568.564 141.56C567.391 141.32 566.364 140.987 565.484 140.56C564.631 140.107 563.964 139.493 563.484 138.72C563.031 137.92 562.804 136.92 562.804 135.72C562.804 133.933 563.511 132.493 564.924 131.4C566.337 130.28 568.337 129.72 570.924 129.72C572.497 129.72 573.897 129.973 575.124 130.48C576.351 130.987 577.324 131.747 578.044 132.76C578.764 133.773 579.124 135.04 579.124 136.56V136.92H575.004V136.44C575.004 135.8 574.897 135.253 574.684 134.8C574.471 134.32 574.071 133.947 573.484 133.68C572.897 133.413 572.004 133.28 570.804 133.28C569.231 133.28 568.191 133.48 567.684 133.88C567.177 134.28 566.924 134.867 566.924 135.64C566.924 136.413 567.151 136.96 567.604 137.28C568.084 137.573 569.017 137.867 570.404 138.16L573.804 138.8C575.084 139.04 576.151 139.4 577.004 139.88C577.857 140.36 578.497 140.987 578.924 141.76C579.377 142.533 579.604 143.453 579.604 144.52C579.604 146.387 578.897 147.84 577.484 148.88C576.097 149.893 574.151 150.4 571.644 150.4ZM587.689 150H582.209V143.8H587.689V150ZM583.729 154.68H582.329V151.88H583.609C583.955 151.88 584.209 151.813 584.369 151.68C584.555 151.573 584.649 151.293 584.649 150.84V149.08H587.689V150.76C587.689 152.093 587.342 153.08 586.649 153.72C585.955 154.36 584.982 154.68 583.729 154.68ZM615.476 150H611.476V146.08L611.356 145V137.36C611.356 135.867 610.996 134.853 610.276 134.32C609.582 133.787 608.449 133.52 606.876 133.52C605.302 133.52 604.169 133.8 603.476 134.36C602.809 134.92 602.476 135.853 602.476 137.16V137.76H598.316V137.36C598.316 135.867 598.676 134.547 599.396 133.4C600.142 132.253 601.169 131.36 602.476 130.72C603.809 130.053 605.356 129.72 607.116 129.72C608.982 129.72 610.529 130.067 611.756 130.76C612.982 131.453 613.902 132.413 614.516 133.64C615.156 134.84 615.476 136.267 615.476 137.92V150ZM604.076 150.4C602.289 150.4 600.782 149.947 599.556 149.04C598.356 148.107 597.756 146.787 597.756 145.08C597.756 143.96 598.009 143.027 598.516 142.28C599.049 141.533 599.809 140.92 600.796 140.44C601.782 139.96 602.982 139.627 604.396 139.44L611.756 138.4V141.44L605.036 142.44C603.889 142.6 603.089 142.84 602.636 143.16C602.182 143.48 601.956 144.013 601.956 144.76C601.956 145.533 602.222 146.093 602.756 146.44C603.316 146.787 604.222 146.96 605.476 146.96C606.436 146.96 607.356 146.813 608.236 146.52C609.142 146.2 609.889 145.68 610.476 144.96C611.062 144.213 611.356 143.173 611.356 141.84L611.916 146.92L611.276 146.88C610.902 147.493 610.382 148.067 609.716 148.6C609.076 149.133 608.289 149.573 607.356 149.92C606.422 150.24 605.329 150.4 604.076 150.4ZM638.132 150H633.812V138.44C633.812 136.68 633.479 135.413 632.812 134.64C632.146 133.84 630.892 133.44 629.052 133.44C627.879 133.44 626.919 133.613 626.172 133.96C625.426 134.28 624.866 134.813 624.492 135.56C624.119 136.28 623.932 137.267 623.932 138.52H623.172L622.812 133.84H623.772C624.066 133.12 624.506 132.453 625.092 131.84C625.679 131.227 626.426 130.72 627.332 130.32C628.266 129.92 629.372 129.72 630.652 129.72C632.386 129.72 633.799 130.053 634.892 130.72C635.986 131.387 636.799 132.307 637.332 133.48C637.866 134.653 638.132 136 638.132 137.52V150ZM623.932 150H619.612V130.12H623.572V136.08L623.932 136.28V150ZM650.15 150.4C647.324 150.4 645.15 149.467 643.63 147.6C642.137 145.707 641.39 143.187 641.39 140.04C641.39 136.893 642.124 134.387 643.59 132.52C645.084 130.653 647.19 129.72 649.91 129.72C651.67 129.72 653.084 130.08 654.15 130.8C655.244 131.493 656.004 132.293 656.43 133.2H657.51L657.31 138.28H656.55C656.55 137.16 656.337 136.24 655.91 135.52C655.484 134.8 654.87 134.267 654.07 133.92C653.27 133.573 652.284 133.4 651.11 133.4C650.15 133.4 649.324 133.52 648.63 133.76C647.964 134 647.404 134.373 646.95 134.88C646.524 135.387 646.204 136.067 645.99 136.92C645.804 137.773 645.71 138.813 645.71 140.04C645.71 141.24 645.804 142.28 645.99 143.16C646.204 144.013 646.524 144.707 646.95 145.24C647.404 145.747 647.977 146.12 648.67 146.36C649.364 146.6 650.177 146.72 651.11 146.72C652.284 146.72 653.27 146.547 654.07 146.2C654.87 145.827 655.484 145.28 655.91 144.56C656.337 143.84 656.55 142.933 656.55 141.84H657.31L657.51 146.72H656.71C656.257 147.867 655.47 148.773 654.35 149.44C653.257 150.08 651.857 150.4 650.15 150.4ZM660.87 150H656.87V145.28L656.55 144.76V123.2H660.87V150ZM336.179 199H331.859V187.44C331.859 185.68 331.512 184.413 330.819 183.64C330.152 182.84 328.912 182.44 327.099 182.44C325.366 182.44 324.072 182.827 323.219 183.6C322.392 184.347 321.979 185.667 321.979 187.56H321.219L321.179 182.44H322.139C322.459 181.827 322.899 181.24 323.459 180.68C324.046 180.093 324.779 179.627 325.659 179.28C326.566 178.907 327.606 178.72 328.779 178.72C330.539 178.72 331.952 179.067 333.019 179.76C334.112 180.427 334.912 181.347 335.419 182.52C335.926 183.693 336.179 185.013 336.179 186.48V199ZM321.979 199H317.659V172.2H321.979V199ZM344.473 176.6H340.193L340.153 172.2H344.473V176.6ZM344.513 199H340.193V179H344.513V199ZM352.799 199H348.479V179H352.439V184.56L352.799 184.76V199ZM352.799 186.04H351.799V182.16H352.639C353.039 181.227 353.693 180.427 354.599 179.76C355.533 179.067 356.733 178.72 358.199 178.72C359.613 178.72 360.733 179.027 361.559 179.64C362.413 180.253 363.026 181.067 363.399 182.08C363.773 183.093 363.959 184.227 363.959 185.48V186.8H359.639V186C359.639 184.667 359.413 183.733 358.959 183.2C358.506 182.667 357.653 182.4 356.399 182.4C355.093 182.4 354.159 182.68 353.599 183.24C353.066 183.773 352.799 184.707 352.799 186.04ZM375.562 199.4C373.402 199.4 371.602 198.973 370.162 198.12C368.722 197.24 367.655 196.027 366.962 194.48C366.268 192.907 365.922 191.093 365.922 189.04C365.922 186.987 366.308 185.187 367.082 183.64C367.882 182.093 369.002 180.893 370.442 180.04C371.882 179.16 373.588 178.72 375.562 178.72C377.348 178.72 378.922 179.067 380.282 179.76C381.668 180.427 382.735 181.4 383.482 182.68C384.255 183.96 384.642 185.507 384.642 187.32C384.642 187.853 384.615 188.373 384.562 188.88C384.535 189.36 384.495 189.76 384.442 190.08H367.962V187.2H380.922L380.482 187.6C380.588 186.373 380.455 185.373 380.082 184.6C379.735 183.827 379.162 183.253 378.362 182.88C377.588 182.507 376.615 182.32 375.442 182.32C373.335 182.32 371.895 182.853 371.122 183.92C370.348 184.96 369.962 186.4 369.962 188.24V189.44C369.962 190.773 370.122 191.907 370.442 192.84C370.788 193.747 371.375 194.427 372.202 194.88C373.028 195.333 374.162 195.56 375.602 195.56C377.282 195.56 378.468 195.293 379.162 194.76C379.855 194.227 380.202 193.52 380.202 192.64V192.32H384.482V192.68C384.482 194.04 384.108 195.227 383.362 196.24C382.615 197.227 381.575 198 380.242 198.56C378.935 199.12 377.375 199.4 375.562 199.4ZM404.143 199C401.956 199 400.276 198.533 399.103 197.6C397.956 196.667 397.383 195.093 397.383 192.88V179.56L398.383 174.2H401.703V192.68C401.703 193.72 401.956 194.387 402.463 194.68C402.996 194.947 403.943 195.08 405.303 195.08H407.703V198.64C407.303 198.747 406.783 198.84 406.143 198.92C405.503 198.973 404.836 199 404.143 199ZM407.703 182.72H394.063V179.12H407.703V182.72ZM419.045 199.4C417.018 199.4 415.258 198.973 413.765 198.12C412.271 197.24 411.125 196.027 410.325 194.48C409.525 192.907 409.125 191.093 409.125 189.04C409.125 186.987 409.525 185.187 410.325 183.64C411.125 182.093 412.271 180.893 413.765 180.04C415.258 179.16 417.018 178.72 419.045 178.72C421.071 178.72 422.805 179.16 424.245 180.04C425.711 180.893 426.831 182.093 427.605 183.64C428.405 185.187 428.805 186.987 428.805 189.04C428.805 191.093 428.405 192.907 427.605 194.48C426.831 196.027 425.711 197.24 424.245 198.12C422.805 198.973 421.071 199.4 419.045 199.4ZM419.045 195.56C421.125 195.56 422.578 195.04 423.405 194C424.231 192.933 424.645 191.28 424.645 189.04C424.645 186.8 424.231 185.16 423.405 184.12C422.578 183.08 421.125 182.56 419.045 182.56C416.938 182.56 415.471 183.08 414.645 184.12C413.818 185.16 413.405 186.8 413.405 189.04C413.405 191.28 413.818 192.933 414.645 194C415.471 195.04 416.938 195.56 419.045 195.56ZM442.914 199.4C441.127 199.4 439.674 199.053 438.554 198.36C437.461 197.64 436.701 196.827 436.274 195.92H435.194L435.394 190.84H436.154C436.154 191.933 436.354 192.84 436.754 193.56C437.181 194.28 437.807 194.827 438.634 195.2C439.461 195.547 440.447 195.72 441.594 195.72C442.527 195.72 443.341 195.6 444.034 195.36C444.727 195.12 445.287 194.747 445.714 194.24C446.167 193.733 446.487 193.053 446.674 192.2C446.887 191.32 446.994 190.267 446.994 189.04C446.994 187.813 446.887 186.787 446.674 185.96C446.487 185.107 446.167 184.413 445.714 183.88C445.287 183.347 444.727 182.973 444.034 182.76C443.367 182.52 442.554 182.4 441.594 182.4C440.447 182.4 439.461 182.587 438.634 182.96C437.807 183.307 437.181 183.84 436.754 184.56C436.354 185.253 436.154 186.16 436.154 187.28H435.394L435.194 182.4H435.994C436.474 181.253 437.261 180.36 438.354 179.72C439.474 179.053 440.901 178.72 442.634 178.72C445.434 178.72 447.581 179.653 449.074 181.52C450.567 183.387 451.314 185.893 451.314 189.04C451.314 192.187 450.594 194.707 449.154 196.6C447.714 198.467 445.634 199.4 442.914 199.4ZM436.154 205.92H431.874V179.12H435.794V183.84L436.154 184.36V205.92ZM471.423 199.44C469.343 199.44 467.583 199 466.143 198.12C464.703 197.24 463.596 196.027 462.823 194.48C462.076 192.933 461.703 191.133 461.703 189.08C461.703 187.027 462.089 185.227 462.863 183.68C463.663 182.107 464.796 180.893 466.263 180.04C467.729 179.16 469.503 178.72 471.583 178.72C473.343 178.72 474.889 179.053 476.223 179.72C477.556 180.387 478.583 181.32 479.303 182.52C480.049 183.72 480.423 185.12 480.423 186.72V187.08H476.143V186.84C476.143 185.373 475.743 184.307 474.943 183.64C474.169 182.947 472.956 182.6 471.303 182.6C469.383 182.6 468.009 183.147 467.183 184.24C466.383 185.307 465.983 186.907 465.983 189.04C465.983 191.2 466.383 192.827 467.183 193.92C468.009 194.987 469.383 195.52 471.303 195.52C472.956 195.52 474.169 195.187 474.943 194.52C475.743 193.827 476.143 192.76 476.143 191.32V191.08H480.423V191.44C480.423 192.987 480.049 194.373 479.303 195.6C478.556 196.8 477.503 197.747 476.143 198.44C474.809 199.107 473.236 199.44 471.423 199.44ZM500.671 199H496.671V195.08L496.551 194V186.36C496.551 184.867 496.191 183.853 495.471 183.32C494.778 182.787 493.644 182.52 492.071 182.52C490.498 182.52 489.364 182.8 488.671 183.36C488.004 183.92 487.671 184.853 487.671 186.16V186.76H483.511V186.36C483.511 184.867 483.871 183.547 484.591 182.4C485.338 181.253 486.364 180.36 487.671 179.72C489.004 179.053 490.551 178.72 492.311 178.72C494.178 178.72 495.724 179.067 496.951 179.76C498.178 180.453 499.098 181.413 499.711 182.64C500.351 183.84 500.671 185.267 500.671 186.92V199ZM489.271 199.4C487.484 199.4 485.978 198.947 484.751 198.04C483.551 197.107 482.951 195.787 482.951 194.08C482.951 192.96 483.204 192.027 483.711 191.28C484.244 190.533 485.004 189.92 485.991 189.44C486.978 188.96 488.178 188.627 489.591 188.44L496.951 187.4V190.44L490.231 191.44C489.084 191.6 488.284 191.84 487.831 192.16C487.378 192.48 487.151 193.013 487.151 193.76C487.151 194.533 487.418 195.093 487.951 195.44C488.511 195.787 489.418 195.96 490.671 195.96C491.631 195.96 492.551 195.813 493.431 195.52C494.338 195.2 495.084 194.68 495.671 193.96C496.258 193.213 496.551 192.173 496.551 190.84L497.111 195.92L496.471 195.88C496.098 196.493 495.578 197.067 494.911 197.6C494.271 198.133 493.484 198.573 492.551 198.92C491.618 199.24 490.524 199.4 489.271 199.4ZM523.328 199H519.008V187.44C519.008 185.68 518.674 184.413 518.008 183.64C517.341 182.84 516.088 182.44 514.248 182.44C513.074 182.44 512.114 182.613 511.368 182.96C510.621 183.28 510.061 183.813 509.688 184.56C509.314 185.28 509.128 186.267 509.128 187.52H508.368L508.008 182.84H508.968C509.261 182.12 509.701 181.453 510.288 180.84C510.874 180.227 511.621 179.72 512.528 179.32C513.461 178.92 514.568 178.72 515.848 178.72C517.581 178.72 518.994 179.053 520.088 179.72C521.181 180.387 521.994 181.307 522.528 182.48C523.061 183.653 523.328 185 523.328 186.52V199ZM509.128 199H504.808V179.12H508.768V185.08L509.128 185.28V199ZM535.346 199.4C532.519 199.4 530.346 198.467 528.826 196.6C527.332 194.707 526.586 192.187 526.586 189.04C526.586 185.893 527.319 183.387 528.786 181.52C530.279 179.653 532.386 178.72 535.106 178.72C536.866 178.72 538.279 179.08 539.346 179.8C540.439 180.493 541.199 181.293 541.626 182.2H542.706L542.506 187.28H541.746C541.746 186.16 541.532 185.24 541.106 184.52C540.679 183.8 540.066 183.267 539.266 182.92C538.466 182.573 537.479 182.4 536.306 182.4C535.346 182.4 534.519 182.52 533.826 182.76C533.159 183 532.599 183.373 532.146 183.88C531.719 184.387 531.399 185.067 531.186 185.92C530.999 186.773 530.906 187.813 530.906 189.04C530.906 190.24 530.999 191.28 531.186 192.16C531.399 193.013 531.719 193.707 532.146 194.24C532.599 194.747 533.172 195.12 533.866 195.36C534.559 195.6 535.372 195.72 536.306 195.72C537.479 195.72 538.466 195.547 539.266 195.2C540.066 194.827 540.679 194.28 541.106 193.56C541.532 192.84 541.746 191.933 541.746 190.84H542.506L542.706 195.72H541.906C541.452 196.867 540.666 197.773 539.546 198.44C538.452 199.08 537.052 199.4 535.346 199.4ZM546.066 199H542.066V194.28L541.746 193.76V172.2H546.066V199ZM554.355 176.6H550.075L550.035 172.2H554.355V176.6ZM554.395 199H550.075V179H554.395V199ZM566.127 199.4C563.3 199.4 561.127 198.467 559.607 196.6C558.114 194.707 557.367 192.187 557.367 189.04C557.367 185.893 558.1 183.387 559.567 181.52C561.06 179.653 563.167 178.72 565.887 178.72C567.647 178.72 569.06 179.08 570.127 179.8C571.22 180.493 571.98 181.293 572.407 182.2H573.487L573.287 187.28H572.527C572.527 186.16 572.314 185.24 571.887 184.52C571.46 183.8 570.847 183.267 570.047 182.92C569.247 182.573 568.26 182.4 567.087 182.4C566.127 182.4 565.3 182.52 564.607 182.76C563.94 183 563.38 183.373 562.927 183.88C562.5 184.387 562.18 185.067 561.967 185.92C561.78 186.773 561.687 187.813 561.687 189.04C561.687 190.24 561.78 191.28 561.967 192.16C562.18 193.013 562.5 193.707 562.927 194.24C563.38 194.747 563.954 195.12 564.647 195.36C565.34 195.6 566.154 195.72 567.087 195.72C568.26 195.72 569.247 195.547 570.047 195.2C570.847 194.827 571.46 194.28 571.887 193.56C572.314 192.84 572.527 191.933 572.527 190.84H573.287L573.487 195.72H572.687C572.234 196.867 571.447 197.773 570.327 198.44C569.234 199.08 567.834 199.4 566.127 199.4ZM576.847 199H572.847V194.28L572.527 193.76V172.2H576.847V199ZM597.741 199H593.741V195.08L593.621 194V186.36C593.621 184.867 593.261 183.853 592.541 183.32C591.848 182.787 590.715 182.52 589.141 182.52C587.568 182.52 586.435 182.8 585.741 183.36C585.075 183.92 584.741 184.853 584.741 186.16V186.76H580.581V186.36C580.581 184.867 580.941 183.547 581.661 182.4C582.408 181.253 583.435 180.36 584.741 179.72C586.075 179.053 587.621 178.72 589.381 178.72C591.248 178.72 592.795 179.067 594.021 179.76C595.248 180.453 596.168 181.413 596.781 182.64C597.421 183.84 597.741 185.267 597.741 186.92V199ZM586.341 199.4C584.555 199.4 583.048 198.947 581.821 198.04C580.621 197.107 580.021 195.787 580.021 194.08C580.021 192.96 580.275 192.027 580.781 191.28C581.315 190.533 582.075 189.92 583.061 189.44C584.048 188.96 585.248 188.627 586.661 188.44L594.021 187.4V190.44L587.301 191.44C586.155 191.6 585.355 191.84 584.901 192.16C584.448 192.48 584.221 193.013 584.221 193.76C584.221 194.533 584.488 195.093 585.021 195.44C585.581 195.787 586.488 195.96 587.741 195.96C588.701 195.96 589.621 195.813 590.501 195.52C591.408 195.2 592.155 194.68 592.741 193.96C593.328 193.213 593.621 192.173 593.621 190.84L594.181 195.92L593.541 195.88C593.168 196.493 592.648 197.067 591.981 197.6C591.341 198.133 590.555 198.573 589.621 198.92C588.688 199.24 587.595 199.4 586.341 199.4ZM609.963 199C607.777 199 606.097 198.533 604.923 197.6C603.777 196.667 603.203 195.093 603.203 192.88V179.56L604.203 174.2H607.523V192.68C607.523 193.72 607.777 194.387 608.283 194.68C608.817 194.947 609.763 195.08 611.123 195.08H613.523V198.64C613.123 198.747 612.603 198.84 611.963 198.92C611.323 198.973 610.657 199 609.963 199ZM613.523 182.72H599.883V179.12H613.523V182.72ZM624.585 199.4C622.425 199.4 620.625 198.973 619.185 198.12C617.745 197.24 616.678 196.027 615.985 194.48C615.292 192.907 614.945 191.093 614.945 189.04C614.945 186.987 615.332 185.187 616.105 183.64C616.905 182.093 618.025 180.893 619.465 180.04C620.905 179.16 622.612 178.72 624.585 178.72C626.372 178.72 627.945 179.067 629.305 179.76C630.692 180.427 631.758 181.4 632.505 182.68C633.278 183.96 633.665 185.507 633.665 187.32C633.665 187.853 633.638 188.373 633.585 188.88C633.558 189.36 633.518 189.76 633.465 190.08H616.985V187.2H629.945L629.505 187.6C629.612 186.373 629.478 185.373 629.105 184.6C628.758 183.827 628.185 183.253 627.385 182.88C626.612 182.507 625.638 182.32 624.465 182.32C622.358 182.32 620.918 182.853 620.145 183.92C619.372 184.96 618.985 186.4 618.985 188.24V189.44C618.985 190.773 619.145 191.907 619.465 192.84C619.812 193.747 620.398 194.427 621.225 194.88C622.052 195.333 623.185 195.56 624.625 195.56C626.305 195.56 627.492 195.293 628.185 194.76C628.878 194.227 629.225 193.52 629.225 192.64V192.32H633.505V192.68C633.505 194.04 633.132 195.227 632.385 196.24C631.638 197.227 630.598 198 629.265 198.56C627.958 199.12 626.398 199.4 624.585 199.4ZM645.668 199.4C642.761 199.4 640.561 198.827 639.068 197.68C637.574 196.507 636.828 194.707 636.828 192.28V192.2H640.988V192.92C640.988 193.613 641.121 194.187 641.388 194.64C641.681 195.067 642.161 195.387 642.828 195.6C643.521 195.787 644.494 195.88 645.747 195.88C646.814 195.88 647.614 195.8 648.148 195.64C648.708 195.453 649.081 195.2 649.268 194.88C649.454 194.56 649.548 194.16 649.548 193.68C649.548 192.88 649.268 192.32 648.708 192C648.148 191.653 647.148 191.347 645.708 191.08L642.588 190.56C641.414 190.32 640.388 189.987 639.508 189.56C638.654 189.107 637.988 188.493 637.508 187.72C637.054 186.92 636.828 185.92 636.828 184.72C636.828 182.933 637.534 181.493 638.948 180.4C640.361 179.28 642.361 178.72 644.948 178.72C646.521 178.72 647.921 178.973 649.148 179.48C650.374 179.987 651.348 180.747 652.068 181.76C652.788 182.773 653.148 184.04 653.148 185.56V185.92H649.028V185.44C649.028 184.8 648.921 184.253 648.708 183.8C648.494 183.32 648.094 182.947 647.508 182.68C646.921 182.413 646.028 182.28 644.828 182.28C643.254 182.28 642.214 182.48 641.708 182.88C641.201 183.28 640.948 183.867 640.948 184.64C640.948 185.413 641.174 185.96 641.628 186.28C642.108 186.573 643.041 186.867 644.428 187.16L647.828 187.8C649.108 188.04 650.174 188.4 651.028 188.88C651.881 189.36 652.521 189.987 652.948 190.76C653.401 191.533 653.628 192.453 653.628 193.52C653.628 195.387 652.921 196.84 651.508 197.88C650.121 198.893 648.174 199.4 645.668 199.4ZM661.712 199H656.232V192.8H661.712V199Z" fill="white"/>
<rect x="51" y="432" width="293" height="293" rx="146.5" fill="#121D26"/>
<path d="M176.487 675.596C173.542 681.309 175.77 688.415 181.844 690.518C193.302 694.483 205.549 695.859 217.694 694.48C233.71 692.661 248.827 686.135 261.134 675.724C273.441 665.314 282.385 651.489 286.834 635.996C290.207 624.248 290.882 611.942 288.872 599.985C287.806 593.647 281.167 590.271 275.045 592.228C268.923 594.185 265.673 600.748 266.375 607.137C267.199 614.632 266.564 622.253 264.462 629.571C261.284 640.639 254.894 650.517 246.102 657.954C237.31 665.391 226.51 670.053 215.068 671.352C207.503 672.211 199.881 671.574 192.627 669.519C186.443 667.766 179.432 669.883 176.487 675.596Z" fill="white"/>
</g>
<path d="M671.58 1237.75C671.839 1237.9 672.161 1237.9 672.42 1237.75L681.825 1232.16C682.208 1231.93 682.34 1231.44 682.122 1231.05L672 1213H685.536C685.834 1213 686.108 1213.16 686.253 1213.42L691.461 1222.75C691.874 1223.48 693 1223.19 693 1222.34V1200.97C693 1200.68 692.848 1200.41 692.599 1200.26L672.42 1188.25C672.161 1188.1 671.839 1188.1 671.58 1188.25L651.401 1200.26C651.152 1200.41 651 1200.68 651 1200.97V1222.34C651 1223.19 652.126 1223.48 652.539 1222.75L657.747 1213.42C657.892 1213.16 658.166 1213 658.464 1213H672L661.878 1231.05C661.66 1231.44 661.792 1231.93 662.175 1232.16L671.58 1237.75Z" fill="white"/>
<defs>
<clipPath id="clip0_18934_20404">
<rect width="727" height="1272" rx="20.1569" fill="white"/>
</clipPath>
</defs>
</svg>
