<svg width="727" height="1272" viewBox="0 0 727 1272" fill="none" xmlns="http://www.w3.org/2000/svg">
<g clip-path="url(#clip0_18940_20609)">
<rect width="728" height="1273" rx="20.1569" fill="#66805D"/>
<path d="M152 653.715L193.567 600.72L360.169 521.229L427.856 521.229L477.925 490L575.23 712.387L490.206 743.616L355.113 736.045L238.913 825L152 653.715Z" fill="#121D26" stroke="#121D26" stroke-width="8"/>
<path d="M188 651.985L205.683 629.926L258.588 595.735L299.622 552.721H340.513C343.829 552.721 372.121 548.971 432.242 564.853L488.606 545L552.706 693.897L495.237 714.853L340.513 693.897L238.838 770L188 651.985Z" fill="#66805D"/>
<path d="M340.513 693.897L238.838 770L188 651.985L205.683 629.926L258.588 595.735L299.622 552.721M340.513 693.897L495.237 714.853M340.513 693.897L299.622 552.721M495.237 714.853L432.242 564.853M495.237 714.853L552.706 693.897L488.606 545L432.242 564.853M432.242 564.853C372.121 548.971 343.829 552.721 340.513 552.721H299.622" stroke="#121D26" stroke-width="4"/>
<path d="M359.991 540.702C350.082 580.495 313.491 629.702 313.491 629.702C313.491 629.702 258.581 579.995 238.991 537.702C229.6 517.429 231.375 495.926 243.43 477.114C251.261 464.894 261.342 458.942 274.582 452.995C294.759 443.932 313.763 445.239 332.931 456.279C347.448 464.641 353.834 475.534 359.992 491.114C366.882 508.547 364.521 522.512 359.991 540.702Z" fill="#121D26" stroke="#121D26" stroke-width="4"/>
<circle cx="298.431" cy="503.367" r="36" fill="#66805D"/>
<path d="M199.443 101H195.123V74.2H199.443V101ZM214.283 101H196.443V97.08H214.283V101ZM213.683 89.48H196.443V85.56H213.683V89.48ZM214.283 78.08H196.443V74.2H214.283V78.08ZM236.531 101H232.211V89.44C232.211 87.68 231.877 86.4133 231.211 85.64C230.544 84.84 229.291 84.44 227.451 84.44C226.277 84.44 225.317 84.6133 224.571 84.96C223.824 85.28 223.264 85.8133 222.891 86.56C222.517 87.28 222.331 88.2667 222.331 89.52H221.571L221.211 84.84H222.171C222.464 84.12 222.904 83.4533 223.491 82.84C224.077 82.2267 224.824 81.72 225.731 81.32C226.664 80.92 227.771 80.72 229.051 80.72C230.784 80.72 232.197 81.0533 233.291 81.72C234.384 82.3867 235.197 83.3067 235.731 84.48C236.264 85.6533 236.531 87 236.531 88.52V101ZM222.331 101H218.011V81.12H221.971V87.08L222.331 87.28V101ZM248.91 101.4C246.003 101.4 243.803 100.827 242.31 99.68C240.816 98.5067 240.07 96.7067 240.07 94.28V94.2H244.23V94.92C244.23 95.6133 244.363 96.1867 244.63 96.64C244.923 97.0667 245.403 97.3867 246.07 97.6C246.763 97.7867 247.736 97.88 248.99 97.88C250.056 97.88 250.856 97.8 251.39 97.64C251.95 97.4533 252.323 97.2 252.51 96.88C252.696 96.56 252.79 96.16 252.79 95.68C252.79 94.88 252.51 94.32 251.95 94C251.39 93.6533 250.39 93.3467 248.95 93.08L245.83 92.56C244.656 92.32 243.63 91.9867 242.75 91.56C241.896 91.1067 241.23 90.4933 240.75 89.72C240.296 88.92 240.07 87.92 240.07 86.72C240.07 84.9333 240.776 83.4933 242.19 82.4C243.603 81.28 245.603 80.72 248.19 80.72C249.763 80.72 251.163 80.9733 252.39 81.48C253.616 81.9867 254.59 82.7467 255.31 83.76C256.03 84.7733 256.39 86.04 256.39 87.56V87.92H252.27V87.44C252.27 86.8 252.163 86.2533 251.95 85.8C251.736 85.32 251.336 84.9467 250.75 84.68C250.163 84.4133 249.27 84.28 248.07 84.28C246.496 84.28 245.456 84.48 244.95 84.88C244.443 85.28 244.19 85.8667 244.19 86.64C244.19 87.4133 244.416 87.96 244.87 88.28C245.35 88.5733 246.283 88.8667 247.67 89.16L251.07 89.8C252.35 90.04 253.416 90.4 254.27 90.88C255.123 91.36 255.763 91.9867 256.19 92.76C256.643 93.5333 256.87 94.4533 256.87 95.52C256.87 97.3867 256.163 98.84 254.75 99.88C253.363 100.893 251.416 101.4 248.91 101.4ZM267.637 101.4C265.931 101.4 264.517 101.053 263.397 100.36C262.277 99.64 261.451 98.68 260.917 97.48C260.384 96.2533 260.117 94.8933 260.117 93.4V81.12H264.437V92.6C264.437 94.3867 264.811 95.68 265.557 96.48C266.304 97.28 267.531 97.68 269.237 97.68C270.357 97.68 271.304 97.5067 272.077 97.16C272.851 96.7867 273.437 96.2133 273.837 95.44C274.237 94.64 274.437 93.6 274.437 92.32H275.557V97.04H274.597C274.304 97.7867 273.851 98.4933 273.237 99.16C272.651 99.8267 271.891 100.373 270.957 100.8C270.051 101.2 268.944 101.4 267.637 101.4ZM278.757 101H274.757V95.04L274.437 94.84V81.12H278.757V101ZM287.331 101H283.011V81H286.971V86.56L287.331 86.76V101ZM287.331 88.04H286.331V84.16H287.171C287.571 83.2267 288.224 82.4267 289.131 81.76C290.064 81.0667 291.264 80.72 292.731 80.72C294.144 80.72 295.264 81.0267 296.091 81.64C296.944 82.2533 297.557 83.0667 297.931 84.08C298.304 85.0933 298.491 86.2267 298.491 87.48V88.8H294.171V88C294.171 86.6667 293.944 85.7333 293.491 85.2C293.037 84.6667 292.184 84.4 290.931 84.4C289.624 84.4 288.691 84.68 288.131 85.24C287.597 85.7733 287.331 86.7067 287.331 88.04ZM310.093 101.4C307.933 101.4 306.133 100.973 304.693 100.12C303.253 99.24 302.186 98.0267 301.493 96.48C300.799 94.9067 300.453 93.0933 300.453 91.04C300.453 88.9867 300.839 87.1867 301.613 85.64C302.413 84.0933 303.533 82.8933 304.973 82.04C306.413 81.16 308.119 80.72 310.093 80.72C311.879 80.72 313.453 81.0667 314.813 81.76C316.199 82.4267 317.266 83.4 318.013 84.68C318.786 85.96 319.173 87.5067 319.173 89.32C319.173 89.8533 319.146 90.3733 319.093 90.88C319.066 91.36 319.026 91.76 318.973 92.08H302.493V89.2H315.453L315.013 89.6C315.119 88.3733 314.986 87.3733 314.613 86.6C314.266 85.8267 313.693 85.2533 312.893 84.88C312.119 84.5067 311.146 84.32 309.973 84.32C307.866 84.32 306.426 84.8533 305.653 85.92C304.879 86.96 304.493 88.4 304.493 90.24V91.44C304.493 92.7733 304.653 93.9067 304.973 94.84C305.319 95.7467 305.906 96.4267 306.733 96.88C307.559 97.3333 308.693 97.56 310.133 97.56C311.813 97.56 312.999 97.2933 313.693 96.76C314.386 96.2267 314.733 95.52 314.733 94.64V94.32H319.013V94.68C319.013 96.04 318.639 97.2267 317.893 98.24C317.146 99.2267 316.106 100 314.773 100.56C313.466 101.12 311.906 101.4 310.093 101.4ZM347.194 101H343.194V97.08L343.074 96V88.36C343.074 86.8667 342.714 85.8533 341.994 85.32C341.301 84.7867 340.168 84.52 338.594 84.52C337.021 84.52 335.888 84.8 335.194 85.36C334.528 85.92 334.194 86.8533 334.194 88.16V88.76H330.034V88.36C330.034 86.8667 330.394 85.5467 331.114 84.4C331.861 83.2533 332.888 82.36 334.194 81.72C335.528 81.0533 337.074 80.72 338.834 80.72C340.701 80.72 342.248 81.0667 343.474 81.76C344.701 82.4533 345.621 83.4133 346.234 84.64C346.874 85.84 347.194 87.2667 347.194 88.92V101ZM335.794 101.4C334.008 101.4 332.501 100.947 331.274 100.04C330.074 99.1067 329.474 97.7867 329.474 96.08C329.474 94.96 329.728 94.0267 330.234 93.28C330.768 92.5333 331.528 91.92 332.514 91.44C333.501 90.96 334.701 90.6267 336.114 90.44L343.474 89.4V92.44L336.754 93.44C335.608 93.6 334.808 93.84 334.354 94.16C333.901 94.48 333.674 95.0133 333.674 95.76C333.674 96.5333 333.941 97.0933 334.474 97.44C335.034 97.7867 335.941 97.96 337.194 97.96C338.154 97.96 339.074 97.8133 339.954 97.52C340.861 97.2 341.608 96.68 342.194 95.96C342.781 95.2133 343.074 94.1733 343.074 92.84L343.634 97.92L342.994 97.88C342.621 98.4933 342.101 99.0667 341.434 99.6C340.794 100.133 340.008 100.573 339.074 100.92C338.141 101.24 337.048 101.4 335.794 101.4ZM360.173 101.44C358.093 101.44 356.333 101 354.893 100.12C353.453 99.24 352.346 98.0267 351.573 96.48C350.826 94.9333 350.453 93.1333 350.453 91.08C350.453 89.0267 350.839 87.2267 351.613 85.68C352.413 84.1067 353.546 82.8933 355.013 82.04C356.479 81.16 358.253 80.72 360.333 80.72C362.093 80.72 363.639 81.0533 364.973 81.72C366.306 82.3867 367.333 83.32 368.053 84.52C368.799 85.72 369.173 87.12 369.173 88.72V89.08H364.893V88.84C364.893 87.3733 364.493 86.3067 363.693 85.64C362.919 84.9467 361.706 84.6 360.053 84.6C358.133 84.6 356.759 85.1467 355.933 86.24C355.133 87.3067 354.733 88.9067 354.733 91.04C354.733 93.2 355.133 94.8267 355.933 95.92C356.759 96.9867 358.133 97.52 360.053 97.52C361.706 97.52 362.919 97.1867 363.693 96.52C364.493 95.8267 364.893 94.76 364.893 93.32V93.08H369.173V93.44C369.173 94.9867 368.799 96.3733 368.053 97.6C367.306 98.8 366.253 99.7467 364.893 100.44C363.559 101.107 361.986 101.44 360.173 101.44ZM381.54 101.44C379.46 101.44 377.7 101 376.26 100.12C374.82 99.24 373.713 98.0267 372.94 96.48C372.193 94.9333 371.82 93.1333 371.82 91.08C371.82 89.0267 372.207 87.2267 372.98 85.68C373.78 84.1067 374.913 82.8933 376.38 82.04C377.847 81.16 379.62 80.72 381.7 80.72C383.46 80.72 385.007 81.0533 386.34 81.72C387.673 82.3867 388.7 83.32 389.42 84.52C390.167 85.72 390.54 87.12 390.54 88.72V89.08H386.26V88.84C386.26 87.3733 385.86 86.3067 385.06 85.64C384.287 84.9467 383.073 84.6 381.42 84.6C379.5 84.6 378.127 85.1467 377.3 86.24C376.5 87.3067 376.1 88.9067 376.1 91.04C376.1 93.2 376.5 94.8267 377.3 95.92C378.127 96.9867 379.5 97.52 381.42 97.52C383.073 97.52 384.287 97.1867 385.06 96.52C385.86 95.8267 386.26 94.76 386.26 93.32V93.08H390.54V93.44C390.54 94.9867 390.167 96.3733 389.42 97.6C388.673 98.8 387.62 99.7467 386.26 100.44C384.927 101.107 383.353 101.44 381.54 101.44ZM401.192 101.4C399.485 101.4 398.072 101.053 396.952 100.36C395.832 99.64 395.005 98.68 394.472 97.48C393.939 96.2533 393.672 94.8933 393.672 93.4V81.12H397.992V92.6C397.992 94.3867 398.365 95.68 399.112 96.48C399.859 97.28 401.085 97.68 402.792 97.68C403.912 97.68 404.859 97.5067 405.632 97.16C406.405 96.7867 406.992 96.2133 407.392 95.44C407.792 94.64 407.992 93.6 407.992 92.32H409.112V97.04H408.152C407.859 97.7867 407.405 98.4933 406.792 99.16C406.205 99.8267 405.445 100.373 404.512 100.8C403.605 101.2 402.499 101.4 401.192 101.4ZM412.312 101H408.312V95.04L407.992 94.84V81.12H412.312V101ZM420.885 101H416.565V81H420.525V86.56L420.885 86.76V101ZM420.885 88.04H419.885V84.16H420.725C421.125 83.2267 421.779 82.4267 422.685 81.76C423.619 81.0667 424.819 80.72 426.285 80.72C427.699 80.72 428.819 81.0267 429.645 81.64C430.499 82.2533 431.112 83.0667 431.485 84.08C431.859 85.0933 432.045 86.2267 432.045 87.48V88.8H427.725V88C427.725 86.6667 427.499 85.7333 427.045 85.2C426.592 84.6667 425.739 84.4 424.485 84.4C423.179 84.4 422.245 84.68 421.685 85.24C421.152 85.7733 420.885 86.7067 420.885 88.04ZM451.179 101H447.179V97.08L447.059 96V88.36C447.059 86.8667 446.699 85.8533 445.979 85.32C445.285 84.7867 444.152 84.52 442.579 84.52C441.005 84.52 439.872 84.8 439.179 85.36C438.512 85.92 438.179 86.8533 438.179 88.16V88.76H434.019V88.36C434.019 86.8667 434.379 85.5467 435.099 84.4C435.845 83.2533 436.872 82.36 438.179 81.72C439.512 81.0533 441.059 80.72 442.819 80.72C444.685 80.72 446.232 81.0667 447.459 81.76C448.685 82.4533 449.605 83.4133 450.219 84.64C450.859 85.84 451.179 87.2667 451.179 88.92V101ZM439.779 101.4C437.992 101.4 436.485 100.947 435.259 100.04C434.059 99.1067 433.459 97.7867 433.459 96.08C433.459 94.96 433.712 94.0267 434.219 93.28C434.752 92.5333 435.512 91.92 436.499 91.44C437.485 90.96 438.685 90.6267 440.099 90.44L447.459 89.4V92.44L440.739 93.44C439.592 93.6 438.792 93.84 438.339 94.16C437.885 94.48 437.659 95.0133 437.659 95.76C437.659 96.5333 437.925 97.0933 438.459 97.44C439.019 97.7867 439.925 97.96 441.179 97.96C442.139 97.96 443.059 97.8133 443.939 97.52C444.845 97.2 445.592 96.68 446.179 95.96C446.765 95.2133 447.059 94.1733 447.059 92.84L447.619 97.92L446.979 97.88C446.605 98.4933 446.085 99.0667 445.419 99.6C444.779 100.133 443.992 100.573 443.059 100.92C442.125 101.24 441.032 101.4 439.779 101.4ZM463.401 101C461.214 101 459.534 100.533 458.361 99.6C457.214 98.6667 456.641 97.0933 456.641 94.88V81.56L457.641 76.2H460.961V94.68C460.961 95.72 461.214 96.3867 461.721 96.68C462.254 96.9467 463.201 97.08 464.561 97.08H466.961V100.64C466.561 100.747 466.041 100.84 465.401 100.92C464.761 100.973 464.094 101 463.401 101ZM466.961 84.72H453.321V81.12H466.961V84.72ZM478.023 101.4C475.863 101.4 474.063 100.973 472.623 100.12C471.183 99.24 470.116 98.0267 469.423 96.48C468.729 94.9067 468.382 93.0933 468.382 91.04C468.382 88.9867 468.769 87.1867 469.543 85.64C470.343 84.0933 471.463 82.8933 472.903 82.04C474.343 81.16 476.049 80.72 478.023 80.72C479.809 80.72 481.383 81.0667 482.743 81.76C484.129 82.4267 485.196 83.4 485.943 84.68C486.716 85.96 487.103 87.5067 487.103 89.32C487.103 89.8533 487.076 90.3733 487.023 90.88C486.996 91.36 486.956 91.76 486.903 92.08H470.423V89.2H483.383L482.943 89.6C483.049 88.3733 482.916 87.3733 482.543 86.6C482.196 85.8267 481.623 85.2533 480.823 84.88C480.049 84.5067 479.076 84.32 477.903 84.32C475.796 84.32 474.356 84.8533 473.583 85.92C472.809 86.96 472.423 88.4 472.423 90.24V91.44C472.423 92.7733 472.583 93.9067 472.903 94.84C473.249 95.7467 473.836 96.4267 474.663 96.88C475.489 97.3333 476.623 97.56 478.063 97.56C479.743 97.56 480.929 97.2933 481.623 96.76C482.316 96.2267 482.663 95.52 482.663 94.64V94.32H486.943V94.68C486.943 96.04 486.569 97.2267 485.823 98.24C485.076 99.2267 484.036 100 482.703 100.56C481.396 101.12 479.836 101.4 478.023 101.4ZM507.204 101.44C505.124 101.44 503.364 101 501.924 100.12C500.484 99.24 499.377 98.0267 498.604 96.48C497.857 94.9333 497.484 93.1333 497.484 91.08C497.484 89.0267 497.871 87.2267 498.644 85.68C499.444 84.1067 500.577 82.8933 502.044 82.04C503.511 81.16 505.284 80.72 507.364 80.72C509.124 80.72 510.671 81.0533 512.004 81.72C513.337 82.3867 514.364 83.32 515.084 84.52C515.831 85.72 516.204 87.12 516.204 88.72V89.08H511.924V88.84C511.924 87.3733 511.524 86.3067 510.724 85.64C509.951 84.9467 508.737 84.6 507.084 84.6C505.164 84.6 503.791 85.1467 502.964 86.24C502.164 87.3067 501.764 88.9067 501.764 91.04C501.764 93.2 502.164 94.8267 502.964 95.92C503.791 96.9867 505.164 97.52 507.084 97.52C508.737 97.52 509.951 97.1867 510.724 96.52C511.524 95.8267 511.924 94.76 511.924 93.32V93.08H516.204V93.44C516.204 94.9867 515.831 96.3733 515.084 97.6C514.337 98.8 513.284 99.7467 511.924 100.44C510.591 101.107 509.017 101.44 507.204 101.44ZM528.771 101.4C526.745 101.4 524.985 100.973 523.491 100.12C521.998 99.24 520.851 98.0267 520.051 96.48C519.251 94.9067 518.851 93.0933 518.851 91.04C518.851 88.9867 519.251 87.1867 520.051 85.64C520.851 84.0933 521.998 82.8933 523.491 82.04C524.985 81.16 526.745 80.72 528.771 80.72C530.798 80.72 532.531 81.16 533.971 82.04C535.438 82.8933 536.558 84.0933 537.331 85.64C538.131 87.1867 538.531 88.9867 538.531 91.04C538.531 93.0933 538.131 94.9067 537.331 96.48C536.558 98.0267 535.438 99.24 533.971 100.12C532.531 100.973 530.798 101.4 528.771 101.4ZM528.771 97.56C530.851 97.56 532.305 97.04 533.131 96C533.958 94.9333 534.371 93.28 534.371 91.04C534.371 88.8 533.958 87.16 533.131 86.12C532.305 85.08 530.851 84.56 528.771 84.56C526.665 84.56 525.198 85.08 524.371 86.12C523.545 87.16 523.131 88.8 523.131 91.04C523.131 93.28 523.545 94.9333 524.371 96C525.198 97.04 526.665 97.56 528.771 97.56ZM573.681 101H569.361V89.44C569.361 87.68 569.027 86.4133 568.361 85.64C567.721 84.84 566.494 84.44 564.681 84.44C563.054 84.44 561.841 84.8267 561.041 85.6C560.267 86.3467 559.881 87.6267 559.881 89.44L559.121 89.52L558.761 84.84H559.401C559.721 84.1467 560.161 83.4933 560.721 82.88C561.307 82.24 562.054 81.72 562.961 81.32C563.867 80.92 564.974 80.72 566.281 80.72C568.014 80.72 569.414 81.0533 570.481 81.72C571.574 82.3867 572.374 83.3067 572.881 84.48C573.414 85.6533 573.681 87 573.681 88.52V101ZM546.081 101H541.761V81.12H545.721V87.08L546.081 87.28V101ZM559.881 101H555.561V89.44C555.561 87.68 555.227 86.4133 554.561 85.64C553.921 84.84 552.694 84.44 550.881 84.44C549.254 84.44 548.041 84.8133 547.241 85.56C546.467 86.3067 546.081 87.5867 546.081 89.4L545.321 89.52L544.961 84.84H545.921C546.214 84.12 546.641 83.4533 547.201 82.84C547.787 82.2267 548.534 81.72 549.441 81.32C550.347 80.92 551.427 80.72 552.681 80.72C554.361 80.72 555.721 81.0533 556.761 81.72C557.827 82.3867 558.614 83.3067 559.121 84.48C559.627 85.6533 559.881 87 559.881 88.52V101ZM588.695 101.4C586.909 101.4 585.455 101.053 584.335 100.36C583.242 99.64 582.482 98.8267 582.055 97.92H580.975L581.175 92.84H581.935C581.935 93.9333 582.135 94.84 582.535 95.56C582.962 96.28 583.589 96.8267 584.415 97.2C585.242 97.5467 586.229 97.72 587.375 97.72C588.309 97.72 589.122 97.6 589.815 97.36C590.509 97.12 591.069 96.7467 591.495 96.24C591.949 95.7333 592.269 95.0533 592.455 94.2C592.669 93.32 592.775 92.2667 592.775 91.04C592.775 89.8133 592.669 88.7867 592.455 87.96C592.269 87.1067 591.949 86.4133 591.495 85.88C591.069 85.3467 590.509 84.9733 589.815 84.76C589.149 84.52 588.335 84.4 587.375 84.4C586.229 84.4 585.242 84.5867 584.415 84.96C583.589 85.3067 582.962 85.84 582.535 86.56C582.135 87.2533 581.935 88.16 581.935 89.28H581.175L580.975 84.4H581.775C582.255 83.2533 583.042 82.36 584.135 81.72C585.255 81.0533 586.682 80.72 588.415 80.72C591.215 80.72 593.362 81.6533 594.855 83.52C596.349 85.3867 597.095 87.8933 597.095 91.04C597.095 94.1867 596.375 96.7067 594.935 98.6C593.495 100.467 591.415 101.4 588.695 101.4ZM581.935 107.92H577.655V81.12H581.575V85.84L581.935 86.36V107.92ZM617.546 101H613.546V97.08L613.426 96V88.36C613.426 86.8667 613.066 85.8533 612.346 85.32C611.653 84.7867 610.519 84.52 608.946 84.52C607.373 84.52 606.239 84.8 605.546 85.36C604.879 85.92 604.546 86.8533 604.546 88.16V88.76H600.386V88.36C600.386 86.8667 600.746 85.5467 601.466 84.4C602.213 83.2533 603.239 82.36 604.546 81.72C605.879 81.0533 607.426 80.72 609.186 80.72C611.053 80.72 612.599 81.0667 613.826 81.76C615.053 82.4533 615.973 83.4133 616.586 84.64C617.226 85.84 617.546 87.2667 617.546 88.92V101ZM606.146 101.4C604.359 101.4 602.853 100.947 601.626 100.04C600.426 99.1067 599.826 97.7867 599.826 96.08C599.826 94.96 600.079 94.0267 600.586 93.28C601.119 92.5333 601.879 91.92 602.866 91.44C603.853 90.96 605.053 90.6267 606.466 90.44L613.826 89.4V92.44L607.106 93.44C605.959 93.6 605.159 93.84 604.706 94.16C604.253 94.48 604.026 95.0133 604.026 95.76C604.026 96.5333 604.293 97.0933 604.826 97.44C605.386 97.7867 606.293 97.96 607.546 97.96C608.506 97.96 609.426 97.8133 610.306 97.52C611.213 97.2 611.959 96.68 612.546 95.96C613.133 95.2133 613.426 94.1733 613.426 92.84L613.986 97.92L613.346 97.88C612.973 98.4933 612.453 99.0667 611.786 99.6C611.146 100.133 610.359 100.573 609.426 100.92C608.493 101.24 607.399 101.4 606.146 101.4ZM640.203 101H635.883V89.44C635.883 87.68 635.549 86.4133 634.883 85.64C634.216 84.84 632.963 84.44 631.123 84.44C629.949 84.44 628.989 84.6133 628.243 84.96C627.496 85.28 626.936 85.8133 626.563 86.56C626.189 87.28 626.003 88.2667 626.003 89.52H625.243L624.883 84.84H625.843C626.136 84.12 626.576 83.4533 627.163 82.84C627.749 82.2267 628.496 81.72 629.403 81.32C630.336 80.92 631.443 80.72 632.723 80.72C634.456 80.72 635.869 81.0533 636.963 81.72C638.056 82.3867 638.869 83.3067 639.403 84.48C639.936 85.6533 640.203 87 640.203 88.52V101ZM626.003 101H621.683V81.12H625.643V87.08L626.003 87.28V101ZM646.645 107.8C646.112 107.8 645.565 107.76 645.005 107.68C644.445 107.627 643.992 107.547 643.645 107.44V103.92H646.405C647.232 103.92 647.845 103.8 648.245 103.56C648.645 103.347 649.018 102.88 649.365 102.16L650.605 99.36L650.245 100.76L641.645 81.12H646.405L650.405 90.76L652.205 95.08H652.565L654.165 90.76L657.805 81.12H662.605L653.165 103.32C652.685 104.52 652.138 105.44 651.525 106.08C650.912 106.72 650.205 107.16 649.405 107.4C648.632 107.667 647.712 107.8 646.645 107.8ZM261.947 150.4C259.121 150.4 256.947 149.467 255.427 147.6C253.934 145.707 253.187 143.187 253.187 140.04C253.187 136.893 253.921 134.387 255.387 132.52C256.881 130.653 258.987 129.72 261.707 129.72C263.467 129.72 264.881 130.08 265.947 130.8C267.041 131.493 267.801 132.293 268.227 133.2H269.307L269.107 138.28H268.347C268.347 137.16 268.134 136.24 267.707 135.52C267.281 134.8 266.667 134.267 265.867 133.92C265.067 133.573 264.081 133.4 262.907 133.4C261.947 133.4 261.121 133.52 260.427 133.76C259.761 134 259.201 134.373 258.747 134.88C258.321 135.387 258.001 136.067 257.787 136.92C257.601 137.773 257.507 138.813 257.507 140.04C257.507 141.24 257.601 142.28 257.787 143.16C258.001 144.013 258.321 144.707 258.747 145.24C259.201 145.747 259.774 146.12 260.467 146.36C261.161 146.6 261.974 146.72 262.907 146.72C264.081 146.72 265.067 146.547 265.867 146.2C266.667 145.827 267.281 145.28 267.707 144.56C268.134 143.84 268.347 142.933 268.347 141.84H269.107L269.307 146.72H268.507C268.054 147.867 267.267 148.773 266.147 149.44C265.054 150.08 263.654 150.4 261.947 150.4ZM272.667 150H268.667V145.28L268.347 144.76V123.2H272.667V150ZM285.601 150.4C283.441 150.4 281.641 149.973 280.201 149.12C278.761 148.24 277.694 147.027 277.001 145.48C276.307 143.907 275.961 142.093 275.961 140.04C275.961 137.987 276.347 136.187 277.121 134.64C277.921 133.093 279.041 131.893 280.481 131.04C281.921 130.16 283.627 129.72 285.601 129.72C287.387 129.72 288.961 130.067 290.321 130.76C291.707 131.427 292.774 132.4 293.521 133.68C294.294 134.96 294.681 136.507 294.681 138.32C294.681 138.853 294.654 139.373 294.601 139.88C294.574 140.36 294.534 140.76 294.481 141.08H278.001V138.2H290.961L290.521 138.6C290.627 137.373 290.494 136.373 290.121 135.6C289.774 134.827 289.201 134.253 288.401 133.88C287.627 133.507 286.654 133.32 285.481 133.32C283.374 133.32 281.934 133.853 281.161 134.92C280.387 135.96 280.001 137.4 280.001 139.24V140.44C280.001 141.773 280.161 142.907 280.481 143.84C280.827 144.747 281.414 145.427 282.241 145.88C283.067 146.333 284.201 146.56 285.641 146.56C287.321 146.56 288.507 146.293 289.201 145.76C289.894 145.227 290.241 144.52 290.241 143.64V143.32H294.521V143.68C294.521 145.04 294.147 146.227 293.401 147.24C292.654 148.227 291.614 149 290.281 149.56C288.974 150.12 287.414 150.4 285.601 150.4ZM306.253 150C304.066 150 302.386 149.533 301.213 148.6C300.066 147.667 299.493 146.093 299.493 143.88V130.56L300.493 125.2H303.813V143.68C303.813 144.72 304.066 145.387 304.573 145.68C305.106 145.947 306.053 146.08 307.413 146.08H309.813V149.64C309.413 149.747 308.893 149.84 308.253 149.92C307.613 149.973 306.946 150 306.253 150ZM309.813 133.72H296.173V130.12H309.813V133.72ZM329.499 150H325.499V146.08L325.379 145V137.36C325.379 135.867 325.019 134.853 324.299 134.32C323.606 133.787 322.472 133.52 320.899 133.52C319.326 133.52 318.192 133.8 317.499 134.36C316.832 134.92 316.499 135.853 316.499 137.16V137.76H312.339V137.36C312.339 135.867 312.699 134.547 313.419 133.4C314.166 132.253 315.192 131.36 316.499 130.72C317.832 130.053 319.379 129.72 321.139 129.72C323.006 129.72 324.552 130.067 325.779 130.76C327.006 131.453 327.926 132.413 328.539 133.64C329.179 134.84 329.499 136.267 329.499 137.92V150ZM318.099 150.4C316.312 150.4 314.806 149.947 313.579 149.04C312.379 148.107 311.779 146.787 311.779 145.08C311.779 143.96 312.032 143.027 312.539 142.28C313.072 141.533 313.832 140.92 314.819 140.44C315.806 139.96 317.006 139.627 318.419 139.44L325.779 138.4V141.44L319.059 142.44C317.912 142.6 317.112 142.84 316.659 143.16C316.206 143.48 315.979 144.013 315.979 144.76C315.979 145.533 316.246 146.093 316.779 146.44C317.339 146.787 318.246 146.96 319.499 146.96C320.459 146.96 321.379 146.813 322.259 146.52C323.166 146.2 323.912 145.68 324.499 144.96C325.086 144.213 325.379 143.173 325.379 141.84L325.939 146.92L325.299 146.88C324.926 147.493 324.406 148.067 323.739 148.6C323.099 149.133 322.312 149.573 321.379 149.92C320.446 150.24 319.352 150.4 318.099 150.4ZM337.676 127.6H333.396L333.356 123.2H337.676V127.6ZM337.716 150H333.396V130H337.716V150ZM346.003 150H341.683V123.2H346.003V150ZM358.48 150.4C355.573 150.4 353.373 149.827 351.88 148.68C350.387 147.507 349.64 145.707 349.64 143.28V143.2H353.8V143.92C353.8 144.613 353.933 145.187 354.2 145.64C354.493 146.067 354.973 146.387 355.64 146.6C356.333 146.787 357.307 146.88 358.56 146.88C359.627 146.88 360.427 146.8 360.96 146.64C361.52 146.453 361.893 146.2 362.08 145.88C362.267 145.56 362.36 145.16 362.36 144.68C362.36 143.88 362.08 143.32 361.52 143C360.96 142.653 359.96 142.347 358.52 142.08L355.4 141.56C354.227 141.32 353.2 140.987 352.32 140.56C351.467 140.107 350.8 139.493 350.32 138.72C349.867 137.92 349.64 136.92 349.64 135.72C349.64 133.933 350.347 132.493 351.76 131.4C353.173 130.28 355.173 129.72 357.76 129.72C359.333 129.72 360.733 129.973 361.96 130.48C363.187 130.987 364.16 131.747 364.88 132.76C365.6 133.773 365.96 135.04 365.96 136.56V136.92H361.84V136.44C361.84 135.8 361.733 135.253 361.52 134.8C361.307 134.32 360.907 133.947 360.32 133.68C359.733 133.413 358.84 133.28 357.64 133.28C356.067 133.28 355.027 133.48 354.52 133.88C354.013 134.28 353.76 134.867 353.76 135.64C353.76 136.413 353.987 136.96 354.44 137.28C354.92 137.573 355.853 137.867 357.24 138.16L360.64 138.8C361.92 139.04 362.987 139.4 363.84 139.88C364.693 140.36 365.333 140.987 365.76 141.76C366.213 142.533 366.44 143.453 366.44 144.52C366.44 146.387 365.733 147.84 364.32 148.88C362.933 149.893 360.987 150.4 358.48 150.4ZM382.824 150H378.504V130.28C378.504 128.733 378.797 127.44 379.384 126.4C379.97 125.36 380.837 124.573 381.984 124.04C383.157 123.48 384.597 123.2 386.304 123.2C386.57 123.2 386.837 123.2 387.104 123.2C387.37 123.2 387.637 123.2 387.904 123.2V126.64H385.504C384.544 126.64 383.837 126.827 383.384 127.2C382.93 127.573 382.704 128.187 382.704 129.04V130.8L382.824 131.84V150ZM387.904 133.72H375.584V130.12H387.904V133.72ZM398.537 150.4C396.51 150.4 394.75 149.973 393.257 149.12C391.764 148.24 390.617 147.027 389.817 145.48C389.017 143.907 388.617 142.093 388.617 140.04C388.617 137.987 389.017 136.187 389.817 134.64C390.617 133.093 391.764 131.893 393.257 131.04C394.75 130.16 396.51 129.72 398.537 129.72C400.564 129.72 402.297 130.16 403.737 131.04C405.204 131.893 406.324 133.093 407.097 134.64C407.897 136.187 408.297 137.987 408.297 140.04C408.297 142.093 407.897 143.907 407.097 145.48C406.324 147.027 405.204 148.24 403.737 149.12C402.297 149.973 400.564 150.4 398.537 150.4ZM398.537 146.56C400.617 146.56 402.07 146.04 402.897 145C403.724 143.933 404.137 142.28 404.137 140.04C404.137 137.8 403.724 136.16 402.897 135.12C402.07 134.08 400.617 133.56 398.537 133.56C396.43 133.56 394.964 134.08 394.137 135.12C393.31 136.16 392.897 137.8 392.897 140.04C392.897 142.28 393.31 143.933 394.137 145C394.964 146.04 396.43 146.56 398.537 146.56ZM415.846 150H411.526V130H415.486V135.56L415.846 135.76V150ZM415.846 137.04H414.846V133.16H415.686C416.086 132.227 416.74 131.427 417.646 130.76C418.58 130.067 419.78 129.72 421.246 129.72C422.66 129.72 423.78 130.027 424.606 130.64C425.46 131.253 426.073 132.067 426.446 133.08C426.82 134.093 427.006 135.227 427.006 136.48V137.8H422.686V137C422.686 135.667 422.46 134.733 422.006 134.2C421.553 133.667 420.7 133.4 419.446 133.4C418.14 133.4 417.206 133.68 416.646 134.24C416.113 134.773 415.846 135.707 415.846 137.04ZM445.941 150.4C443.034 150.4 440.834 149.827 439.341 148.68C437.848 147.507 437.101 145.707 437.101 143.28V143.2H441.261V143.92C441.261 144.613 441.394 145.187 441.661 145.64C441.954 146.067 442.434 146.387 443.101 146.6C443.794 146.787 444.768 146.88 446.021 146.88C447.088 146.88 447.888 146.8 448.421 146.64C448.981 146.453 449.354 146.2 449.541 145.88C449.728 145.56 449.821 145.16 449.821 144.68C449.821 143.88 449.541 143.32 448.981 143C448.421 142.653 447.421 142.347 445.981 142.08L442.861 141.56C441.688 141.32 440.661 140.987 439.781 140.56C438.928 140.107 438.261 139.493 437.781 138.72C437.328 137.92 437.101 136.92 437.101 135.72C437.101 133.933 437.808 132.493 439.221 131.4C440.634 130.28 442.634 129.72 445.221 129.72C446.794 129.72 448.194 129.973 449.421 130.48C450.648 130.987 451.621 131.747 452.341 132.76C453.061 133.773 453.421 135.04 453.421 136.56V136.92H449.301V136.44C449.301 135.8 449.194 135.253 448.981 134.8C448.768 134.32 448.368 133.947 447.781 133.68C447.194 133.413 446.301 133.28 445.101 133.28C443.528 133.28 442.488 133.48 441.981 133.88C441.474 134.28 441.221 134.867 441.221 135.64C441.221 136.413 441.448 136.96 441.901 137.28C442.381 137.573 443.314 137.867 444.701 138.16L448.101 138.8C449.381 139.04 450.448 139.4 451.301 139.88C452.154 140.36 452.794 140.987 453.221 141.76C453.674 142.533 453.901 143.453 453.901 144.52C453.901 146.387 453.194 147.84 451.781 148.88C450.394 149.893 448.448 150.4 445.941 150.4ZM466.226 150.4C464.066 150.4 462.266 149.973 460.826 149.12C459.386 148.24 458.319 147.027 457.626 145.48C456.932 143.907 456.586 142.093 456.586 140.04C456.586 137.987 456.972 136.187 457.746 134.64C458.546 133.093 459.666 131.893 461.106 131.04C462.546 130.16 464.252 129.72 466.226 129.72C468.012 129.72 469.586 130.067 470.946 130.76C472.332 131.427 473.399 132.4 474.146 133.68C474.919 134.96 475.306 136.507 475.306 138.32C475.306 138.853 475.279 139.373 475.226 139.88C475.199 140.36 475.159 140.76 475.106 141.08H458.626V138.2H471.586L471.146 138.6C471.252 137.373 471.119 136.373 470.746 135.6C470.399 134.827 469.826 134.253 469.026 133.88C468.252 133.507 467.279 133.32 466.106 133.32C463.999 133.32 462.559 133.853 461.786 134.92C461.012 135.96 460.626 137.4 460.626 139.24V140.44C460.626 141.773 460.786 142.907 461.106 143.84C461.452 144.747 462.039 145.427 462.866 145.88C463.692 146.333 464.826 146.56 466.266 146.56C467.946 146.56 469.132 146.293 469.826 145.76C470.519 145.227 470.866 144.52 470.866 143.64V143.32H475.146V143.68C475.146 145.04 474.772 146.227 474.026 147.24C473.279 148.227 472.239 149 470.906 149.56C469.599 150.12 468.039 150.4 466.226 150.4ZM495.749 150H491.749V146.08L491.629 145V137.36C491.629 135.867 491.269 134.853 490.549 134.32C489.856 133.787 488.722 133.52 487.149 133.52C485.576 133.52 484.442 133.8 483.749 134.36C483.082 134.92 482.749 135.853 482.749 137.16V137.76H478.589V137.36C478.589 135.867 478.949 134.547 479.669 133.4C480.416 132.253 481.442 131.36 482.749 130.72C484.082 130.053 485.629 129.72 487.389 129.72C489.256 129.72 490.802 130.067 492.029 130.76C493.256 131.453 494.176 132.413 494.789 133.64C495.429 134.84 495.749 136.267 495.749 137.92V150ZM484.349 150.4C482.562 150.4 481.056 149.947 479.829 149.04C478.629 148.107 478.029 146.787 478.029 145.08C478.029 143.96 478.282 143.027 478.789 142.28C479.322 141.533 480.082 140.92 481.069 140.44C482.056 139.96 483.256 139.627 484.669 139.44L492.029 138.4V141.44L485.309 142.44C484.162 142.6 483.362 142.84 482.909 143.16C482.456 143.48 482.229 144.013 482.229 144.76C482.229 145.533 482.496 146.093 483.029 146.44C483.589 146.787 484.496 146.96 485.749 146.96C486.709 146.96 487.629 146.813 488.509 146.52C489.416 146.2 490.162 145.68 490.749 144.96C491.336 144.213 491.629 143.173 491.629 141.84L492.189 146.92L491.549 146.88C491.176 147.493 490.656 148.067 489.989 148.6C489.349 149.133 488.562 149.573 487.629 149.92C486.696 150.24 485.602 150.4 484.349 150.4ZM531.806 150H527.486V138.44C527.486 136.68 527.152 135.413 526.486 134.64C525.846 133.84 524.619 133.44 522.806 133.44C521.179 133.44 519.966 133.827 519.166 134.6C518.392 135.347 518.006 136.627 518.006 138.44L517.246 138.52L516.886 133.84H517.526C517.846 133.147 518.286 132.493 518.846 131.88C519.432 131.24 520.179 130.72 521.086 130.32C521.992 129.92 523.099 129.72 524.406 129.72C526.139 129.72 527.539 130.053 528.606 130.72C529.699 131.387 530.499 132.307 531.006 133.48C531.539 134.653 531.806 136 531.806 137.52V150ZM504.206 150H499.886V130.12H503.846V136.08L504.206 136.28V150ZM518.006 150H513.686V138.44C513.686 136.68 513.352 135.413 512.686 134.64C512.046 133.84 510.819 133.44 509.006 133.44C507.379 133.44 506.166 133.813 505.366 134.56C504.592 135.307 504.206 136.587 504.206 138.4L503.446 138.52L503.086 133.84H504.046C504.339 133.12 504.766 132.453 505.326 131.84C505.912 131.227 506.659 130.72 507.566 130.32C508.472 129.92 509.552 129.72 510.806 129.72C512.486 129.72 513.846 130.053 514.886 130.72C515.952 131.387 516.739 132.307 517.246 133.48C517.752 134.653 518.006 136 518.006 137.52V150ZM540.26 150H535.94V123.2H540.26V150ZM553.179 150.4C551.019 150.4 549.219 149.973 547.779 149.12C546.339 148.24 545.272 147.027 544.579 145.48C543.885 143.907 543.539 142.093 543.539 140.04C543.539 137.987 543.925 136.187 544.699 134.64C545.499 133.093 546.619 131.893 548.059 131.04C549.499 130.16 551.205 129.72 553.179 129.72C554.965 129.72 556.539 130.067 557.899 130.76C559.285 131.427 560.352 132.4 561.099 133.68C561.872 134.96 562.259 136.507 562.259 138.32C562.259 138.853 562.232 139.373 562.179 139.88C562.152 140.36 562.112 140.76 562.059 141.08H545.579V138.2H558.539L558.099 138.6C558.205 137.373 558.072 136.373 557.699 135.6C557.352 134.827 556.779 134.253 555.979 133.88C555.205 133.507 554.232 133.32 553.059 133.32C550.952 133.32 549.512 133.853 548.739 134.92C547.965 135.96 547.579 137.4 547.579 139.24V140.44C547.579 141.773 547.739 142.907 548.059 143.84C548.405 144.747 548.992 145.427 549.819 145.88C550.645 146.333 551.779 146.56 553.219 146.56C554.899 146.56 556.085 146.293 556.779 145.76C557.472 145.227 557.819 144.52 557.819 143.64V143.32H562.099V143.68C562.099 145.04 561.725 146.227 560.979 147.24C560.232 148.227 559.192 149 557.859 149.56C556.552 150.12 554.992 150.4 553.179 150.4ZM574.261 150.4C571.355 150.4 569.155 149.827 567.661 148.68C566.168 147.507 565.421 145.707 565.421 143.28V143.2H569.581V143.92C569.581 144.613 569.715 145.187 569.981 145.64C570.275 146.067 570.755 146.387 571.421 146.6C572.115 146.787 573.088 146.88 574.341 146.88C575.408 146.88 576.208 146.8 576.741 146.64C577.301 146.453 577.675 146.2 577.861 145.88C578.048 145.56 578.141 145.16 578.141 144.68C578.141 143.88 577.861 143.32 577.301 143C576.741 142.653 575.741 142.347 574.301 142.08L571.181 141.56C570.008 141.32 568.981 140.987 568.101 140.56C567.248 140.107 566.581 139.493 566.101 138.72C565.648 137.92 565.421 136.92 565.421 135.72C565.421 133.933 566.128 132.493 567.541 131.4C568.955 130.28 570.955 129.72 573.541 129.72C575.115 129.72 576.515 129.973 577.741 130.48C578.968 130.987 579.941 131.747 580.661 132.76C581.381 133.773 581.741 135.04 581.741 136.56V136.92H577.621V136.44C577.621 135.8 577.515 135.253 577.301 134.8C577.088 134.32 576.688 133.947 576.101 133.68C575.515 133.413 574.621 133.28 573.421 133.28C571.848 133.28 570.808 133.48 570.301 133.88C569.795 134.28 569.541 134.867 569.541 135.64C569.541 136.413 569.768 136.96 570.221 137.28C570.701 137.573 571.635 137.867 573.021 138.16L576.421 138.8C577.701 139.04 578.768 139.4 579.621 139.88C580.475 140.36 581.115 140.987 581.541 141.76C581.995 142.533 582.221 143.453 582.221 144.52C582.221 146.387 581.515 147.84 580.101 148.88C578.715 149.893 576.768 150.4 574.261 150.4ZM593.949 150.4C591.042 150.4 588.842 149.827 587.349 148.68C585.855 147.507 585.109 145.707 585.109 143.28V143.2H589.269V143.92C589.269 144.613 589.402 145.187 589.669 145.64C589.962 146.067 590.442 146.387 591.109 146.6C591.802 146.787 592.775 146.88 594.029 146.88C595.095 146.88 595.895 146.8 596.429 146.64C596.989 146.453 597.362 146.2 597.549 145.88C597.735 145.56 597.829 145.16 597.829 144.68C597.829 143.88 597.549 143.32 596.989 143C596.429 142.653 595.429 142.347 593.989 142.08L590.869 141.56C589.695 141.32 588.669 140.987 587.789 140.56C586.935 140.107 586.269 139.493 585.789 138.72C585.335 137.92 585.109 136.92 585.109 135.72C585.109 133.933 585.815 132.493 587.229 131.4C588.642 130.28 590.642 129.72 593.229 129.72C594.802 129.72 596.202 129.973 597.429 130.48C598.655 130.987 599.629 131.747 600.349 132.76C601.069 133.773 601.429 135.04 601.429 136.56V136.92H597.309V136.44C597.309 135.8 597.202 135.253 596.989 134.8C596.775 134.32 596.375 133.947 595.789 133.68C595.202 133.413 594.309 133.28 593.109 133.28C591.535 133.28 590.495 133.48 589.989 133.88C589.482 134.28 589.229 134.867 589.229 135.64C589.229 136.413 589.455 136.96 589.909 137.28C590.389 137.573 591.322 137.867 592.709 138.16L596.109 138.8C597.389 139.04 598.455 139.4 599.309 139.88C600.162 140.36 600.802 140.987 601.229 141.76C601.682 142.533 601.909 143.453 601.909 144.52C601.909 146.387 601.202 147.84 599.789 148.88C598.402 149.893 596.455 150.4 593.949 150.4ZM624.453 141.36H614.693V137.48H624.973C626.733 137.48 627.986 137.093 628.733 136.32C629.506 135.547 629.893 134.2 629.893 132.28C629.893 130.36 629.506 129.013 628.733 128.24C627.986 127.467 626.733 127.08 624.973 127.08H614.693V123.2H624.453C626.319 123.2 627.986 123.56 629.453 124.28C630.919 125 632.066 126.04 632.893 127.4C633.746 128.733 634.173 130.36 634.173 132.28C634.173 134.2 633.746 135.84 632.893 137.2C632.066 138.56 630.919 139.6 629.453 140.32C627.986 141.013 626.319 141.36 624.453 141.36ZM617.373 150H613.053V123.2H617.373V150ZM649.069 150.4C646.536 150.4 644.323 149.84 642.429 148.72C640.563 147.573 639.109 145.973 638.069 143.92C637.056 141.84 636.549 139.4 636.549 136.6C636.549 133.8 637.056 131.373 638.069 129.32C639.109 127.24 640.563 125.64 642.429 124.52C644.323 123.373 646.536 122.8 649.069 122.8C651.629 122.8 653.843 123.373 655.709 124.52C657.576 125.64 659.016 127.24 660.029 129.32C661.043 131.373 661.549 133.8 661.549 136.6C661.549 139.4 661.043 141.84 660.029 143.92C659.016 145.973 657.576 147.573 655.709 148.72C653.843 149.84 651.629 150.4 649.069 150.4ZM649.069 146.2C650.936 146.2 652.443 145.893 653.589 145.28C654.736 144.64 655.576 143.613 656.109 142.2C656.669 140.787 656.949 138.92 656.949 136.6C656.949 134.253 656.669 132.387 656.109 131C655.576 129.587 654.736 128.56 653.589 127.92C652.443 127.28 650.936 126.96 649.069 126.96C647.229 126.96 645.723 127.28 644.549 127.92C643.376 128.56 642.509 129.587 641.949 131C641.416 132.387 641.149 134.253 641.149 136.6C641.149 138.92 641.416 140.787 641.949 142.2C642.509 143.613 643.376 144.64 644.549 145.28C645.723 145.893 647.229 146.2 649.069 146.2ZM433.571 199.44C431.491 199.44 429.731 199 428.291 198.12C426.851 197.24 425.745 196.027 424.971 194.48C424.225 192.933 423.851 191.133 423.851 189.08C423.851 187.027 424.238 185.227 425.011 183.68C425.811 182.107 426.945 180.893 428.411 180.04C429.878 179.16 431.651 178.72 433.731 178.72C435.491 178.72 437.038 179.053 438.371 179.72C439.705 180.387 440.731 181.32 441.451 182.52C442.198 183.72 442.571 185.12 442.571 186.72V187.08H438.291V186.84C438.291 185.373 437.891 184.307 437.091 183.64C436.318 182.947 435.105 182.6 433.451 182.6C431.531 182.6 430.158 183.147 429.331 184.24C428.531 185.307 428.131 186.907 428.131 189.04C428.131 191.2 428.531 192.827 429.331 193.92C430.158 194.987 431.531 195.52 433.451 195.52C435.105 195.52 436.318 195.187 437.091 194.52C437.891 193.827 438.291 192.76 438.291 191.32V191.08H442.571V191.44C442.571 192.987 442.198 194.373 441.451 195.6C440.705 196.8 439.651 197.747 438.291 198.44C436.958 199.107 435.385 199.44 433.571 199.44ZM455.138 199.4C453.112 199.4 451.352 198.973 449.858 198.12C448.365 197.24 447.218 196.027 446.418 194.48C445.618 192.907 445.218 191.093 445.218 189.04C445.218 186.987 445.618 185.187 446.418 183.64C447.218 182.093 448.365 180.893 449.858 180.04C451.352 179.16 453.112 178.72 455.138 178.72C457.165 178.72 458.898 179.16 460.338 180.04C461.805 180.893 462.925 182.093 463.698 183.64C464.498 185.187 464.898 186.987 464.898 189.04C464.898 191.093 464.498 192.907 463.698 194.48C462.925 196.027 461.805 197.24 460.338 198.12C458.898 198.973 457.165 199.4 455.138 199.4ZM455.138 195.56C457.218 195.56 458.672 195.04 459.498 194C460.325 192.933 460.738 191.28 460.738 189.04C460.738 186.8 460.325 185.16 459.498 184.12C458.672 183.08 457.218 182.56 455.138 182.56C453.032 182.56 451.565 183.08 450.738 184.12C449.912 185.16 449.498 186.8 449.498 189.04C449.498 191.28 449.912 192.933 450.738 194C451.565 195.04 453.032 195.56 455.138 195.56ZM472.487 199H468.167V172.2H472.487V199ZM481.237 199H476.917V172.2H481.237V199ZM502.116 199H498.116V195.08L497.996 194V186.36C497.996 184.867 497.636 183.853 496.916 183.32C496.223 182.787 495.09 182.52 493.516 182.52C491.943 182.52 490.81 182.8 490.116 183.36C489.45 183.92 489.116 184.853 489.116 186.16V186.76H484.956V186.36C484.956 184.867 485.316 183.547 486.036 182.4C486.783 181.253 487.81 180.36 489.116 179.72C490.45 179.053 491.996 178.72 493.756 178.72C495.623 178.72 497.17 179.067 498.396 179.76C499.623 180.453 500.543 181.413 501.156 182.64C501.796 183.84 502.116 185.267 502.116 186.92V199ZM490.716 199.4C488.93 199.4 487.423 198.947 486.196 198.04C484.996 197.107 484.396 195.787 484.396 194.08C484.396 192.96 484.65 192.027 485.156 191.28C485.69 190.533 486.45 189.92 487.436 189.44C488.423 188.96 489.623 188.627 491.036 188.44L498.396 187.4V190.44L491.676 191.44C490.53 191.6 489.73 191.84 489.276 192.16C488.823 192.48 488.596 193.013 488.596 193.76C488.596 194.533 488.863 195.093 489.396 195.44C489.956 195.787 490.863 195.96 492.116 195.96C493.076 195.96 493.996 195.813 494.876 195.52C495.783 195.2 496.53 194.68 497.116 193.96C497.703 193.213 497.996 192.173 497.996 190.84L498.556 195.92L497.916 195.88C497.543 196.493 497.023 197.067 496.356 197.6C495.716 198.133 494.93 198.573 493.996 198.92C493.063 199.24 491.97 199.4 490.716 199.4ZM517.093 199.4C515.359 199.4 513.933 199.08 512.813 198.44C511.693 197.773 510.879 196.867 510.373 195.72H509.573L509.813 190.84H510.573C510.573 191.933 510.773 192.84 511.173 193.56C511.599 194.28 512.213 194.827 513.013 195.2C513.839 195.547 514.826 195.72 515.973 195.72C516.933 195.72 517.746 195.6 518.413 195.36C519.106 195.12 519.679 194.747 520.133 194.24C520.586 193.707 520.906 193.013 521.093 192.16C521.306 191.28 521.413 190.24 521.413 189.04C521.413 187.813 521.306 186.773 521.093 185.92C520.906 185.067 520.586 184.387 520.133 183.88C519.706 183.373 519.146 183 518.453 182.76C517.759 182.52 516.933 182.4 515.973 182.4C514.826 182.4 513.839 182.573 513.013 182.92C512.213 183.267 511.599 183.8 511.173 184.52C510.773 185.24 510.573 186.16 510.573 187.28H509.813L509.573 182.28H510.693C511.119 181.373 511.893 180.56 513.013 179.84C514.159 179.093 515.599 178.72 517.333 178.72C520.079 178.72 522.159 179.653 523.573 181.52C525.013 183.387 525.733 185.893 525.733 189.04C525.733 192.187 524.986 194.707 523.493 196.6C522.026 198.467 519.893 199.4 517.093 199.4ZM510.213 199H506.253V172.2H510.573V193.76L510.213 194.28V199ZM538.303 199.4C536.276 199.4 534.516 198.973 533.023 198.12C531.529 197.24 530.383 196.027 529.583 194.48C528.783 192.907 528.382 191.093 528.382 189.04C528.382 186.987 528.783 185.187 529.583 183.64C530.383 182.093 531.529 180.893 533.023 180.04C534.516 179.16 536.276 178.72 538.303 178.72C540.329 178.72 542.063 179.16 543.503 180.04C544.969 180.893 546.089 182.093 546.863 183.64C547.663 185.187 548.063 186.987 548.063 189.04C548.063 191.093 547.663 192.907 546.863 194.48C546.089 196.027 544.969 197.24 543.503 198.12C542.063 198.973 540.329 199.4 538.303 199.4ZM538.303 195.56C540.383 195.56 541.836 195.04 542.663 194C543.489 192.933 543.903 191.28 543.903 189.04C543.903 186.8 543.489 185.16 542.663 184.12C541.836 183.08 540.383 182.56 538.303 182.56C536.196 182.56 534.729 183.08 533.903 184.12C533.076 185.16 532.663 186.8 532.663 189.04C532.663 191.28 533.076 192.933 533.903 194C534.729 195.04 536.196 195.56 538.303 195.56ZM555.612 199H551.292V179H555.252V184.56L555.612 184.76V199ZM555.612 186.04H554.612V182.16H555.452C555.852 181.227 556.505 180.427 557.412 179.76C558.345 179.067 559.545 178.72 561.012 178.72C562.425 178.72 563.545 179.027 564.372 179.64C565.225 180.253 565.839 181.067 566.212 182.08C566.585 183.093 566.772 184.227 566.772 185.48V186.8H562.452V186C562.452 184.667 562.225 183.733 561.772 183.2C561.319 182.667 560.465 182.4 559.212 182.4C557.905 182.4 556.972 182.68 556.412 183.24C555.879 183.773 555.612 184.707 555.612 186.04ZM585.905 199H581.905V195.08L581.785 194V186.36C581.785 184.867 581.425 183.853 580.705 183.32C580.012 182.787 578.879 182.52 577.305 182.52C575.732 182.52 574.599 182.8 573.905 183.36C573.239 183.92 572.905 184.853 572.905 186.16V186.76H568.745V186.36C568.745 184.867 569.105 183.547 569.825 182.4C570.572 181.253 571.599 180.36 572.905 179.72C574.239 179.053 575.785 178.72 577.545 178.72C579.412 178.72 580.959 179.067 582.185 179.76C583.412 180.453 584.332 181.413 584.945 182.64C585.585 183.84 585.905 185.267 585.905 186.92V199ZM574.505 199.4C572.719 199.4 571.212 198.947 569.985 198.04C568.785 197.107 568.185 195.787 568.185 194.08C568.185 192.96 568.439 192.027 568.945 191.28C569.479 190.533 570.239 189.92 571.225 189.44C572.212 188.96 573.412 188.627 574.825 188.44L582.185 187.4V190.44L575.465 191.44C574.319 191.6 573.519 191.84 573.065 192.16C572.612 192.48 572.385 193.013 572.385 193.76C572.385 194.533 572.652 195.093 573.185 195.44C573.745 195.787 574.652 195.96 575.905 195.96C576.865 195.96 577.785 195.813 578.665 195.52C579.572 195.2 580.319 194.68 580.905 193.96C581.492 193.213 581.785 192.173 581.785 190.84L582.345 195.92L581.705 195.88C581.332 196.493 580.812 197.067 580.145 197.6C579.505 198.133 578.719 198.573 577.785 198.92C576.852 199.24 575.759 199.4 574.505 199.4ZM598.128 199C595.941 199 594.261 198.533 593.088 197.6C591.941 196.667 591.368 195.093 591.368 192.88V179.56L592.368 174.2H595.688V192.68C595.688 193.72 595.941 194.387 596.448 194.68C596.981 194.947 597.928 195.08 599.288 195.08H601.688V198.64C601.288 198.747 600.768 198.84 600.128 198.92C599.488 198.973 598.821 199 598.128 199ZM601.688 182.72H588.048V179.12H601.688V182.72ZM608.535 176.6H604.255L604.215 172.2H608.535V176.6ZM608.575 199H604.255V179H608.575V199ZM621.467 199.4C619.44 199.4 617.68 198.973 616.187 198.12C614.693 197.24 613.547 196.027 612.747 194.48C611.947 192.907 611.547 191.093 611.547 189.04C611.547 186.987 611.947 185.187 612.747 183.64C613.547 182.093 614.693 180.893 616.187 180.04C617.68 179.16 619.44 178.72 621.467 178.72C623.493 178.72 625.227 179.16 626.667 180.04C628.133 180.893 629.253 182.093 630.027 183.64C630.827 185.187 631.227 186.987 631.227 189.04C631.227 191.093 630.827 192.907 630.027 194.48C629.253 196.027 628.133 197.24 626.667 198.12C625.227 198.973 623.493 199.4 621.467 199.4ZM621.467 195.56C623.547 195.56 625 195.04 625.827 194C626.653 192.933 627.067 191.28 627.067 189.04C627.067 186.8 626.653 185.16 625.827 184.12C625 183.08 623.547 182.56 621.467 182.56C619.36 182.56 617.893 183.08 617.067 184.12C616.24 185.16 615.827 186.8 615.827 189.04C615.827 191.28 616.24 192.933 617.067 194C617.893 195.04 619.36 195.56 621.467 195.56ZM652.976 199H648.656V187.44C648.656 185.68 648.323 184.413 647.656 183.64C646.989 182.84 645.736 182.44 643.896 182.44C642.723 182.44 641.763 182.613 641.016 182.96C640.269 183.28 639.709 183.813 639.336 184.56C638.963 185.28 638.776 186.267 638.776 187.52H638.016L637.656 182.84H638.616C638.909 182.12 639.349 181.453 639.936 180.84C640.523 180.227 641.269 179.72 642.176 179.32C643.109 178.92 644.216 178.72 645.496 178.72C647.229 178.72 648.643 179.053 649.736 179.72C650.829 180.387 651.643 181.307 652.176 182.48C652.709 183.653 652.976 185 652.976 186.52V199ZM638.776 199H634.456V179.12H638.416V185.08L638.776 185.28V199ZM661.712 199H656.232V192.8H661.712V199Z" fill="white"/>
<path d="M662.58 1234.75C662.839 1234.9 663.161 1234.9 663.42 1234.75L672.825 1229.16C673.208 1228.93 673.34 1228.44 673.122 1228.05L663 1210H676.536C676.834 1210 677.108 1210.16 677.253 1210.42L682.461 1219.75C682.874 1220.48 684 1220.19 684 1219.34V1197.97C684 1197.68 683.848 1197.41 683.599 1197.26L663.42 1185.25C663.161 1185.1 662.839 1185.1 662.58 1185.25L642.401 1197.26C642.152 1197.41 642 1197.68 642 1197.97V1219.34C642 1220.19 643.126 1220.48 643.539 1219.75L648.747 1210.42C648.892 1210.16 649.166 1210 649.464 1210H663L652.878 1228.05C652.66 1228.44 652.792 1228.93 653.175 1229.16L662.58 1234.75Z" fill="white"/>
</g>
<defs>
<clipPath id="clip0_18940_20609">
<rect width="727" height="1272" rx="20.1569" fill="white"/>
</clipPath>
</defs>
</svg>
