<svg width="727" height="1272" viewBox="0 0 727 1272" fill="none" xmlns="http://www.w3.org/2000/svg">
<g clip-path="url(#clip0_18940_20491)">
<rect width="728" height="1273" rx="20.1569" fill="#66805D"/>
<rect x="-122" y="743" width="632" height="632" rx="316" fill="#121D26"/>
<path d="M237.883 101H231.603L225.403 74.2H230.363L233.723 89.28L234.843 96.68H235.163L236.883 89.28L241.323 74.2H247.363L251.803 89.28L253.563 96.68H253.843L255.003 89.28L258.363 74.2H263.243L257.003 101H250.723L246.683 87.36L244.483 79.04H244.123L241.963 87.36L237.883 101ZM272.788 101.4C270.628 101.4 268.828 100.973 267.388 100.12C265.948 99.24 264.881 98.0267 264.188 96.48C263.495 94.9067 263.148 93.0933 263.148 91.04C263.148 88.9867 263.535 87.1867 264.308 85.64C265.108 84.0933 266.228 82.8933 267.668 82.04C269.108 81.16 270.815 80.72 272.788 80.72C274.575 80.72 276.148 81.0667 277.508 81.76C278.895 82.4267 279.961 83.4 280.708 84.68C281.481 85.96 281.868 87.5067 281.868 89.32C281.868 89.8533 281.841 90.3733 281.788 90.88C281.761 91.36 281.721 91.76 281.668 92.08H265.188V89.2H278.148L277.708 89.6C277.815 88.3733 277.681 87.3733 277.308 86.6C276.961 85.8267 276.388 85.2533 275.588 84.88C274.815 84.5067 273.841 84.32 272.668 84.32C270.561 84.32 269.121 84.8533 268.348 85.92C267.575 86.96 267.188 88.4 267.188 90.24V91.44C267.188 92.7733 267.348 93.9067 267.668 94.84C268.015 95.7467 268.601 96.4267 269.428 96.88C270.255 97.3333 271.388 97.56 272.828 97.56C274.508 97.56 275.695 97.2933 276.388 96.76C277.081 96.2267 277.428 95.52 277.428 94.64V94.32H281.708V94.68C281.708 96.04 281.335 97.2267 280.588 98.24C279.841 99.2267 278.801 100 277.468 100.56C276.161 101.12 274.601 101.4 272.788 101.4ZM289.674 101H285.354V74.2H289.674V101ZM302.673 101.44C300.593 101.44 298.833 101 297.393 100.12C295.953 99.24 294.846 98.0267 294.073 96.48C293.326 94.9333 292.953 93.1333 292.953 91.08C292.953 89.0267 293.339 87.2267 294.113 85.68C294.913 84.1067 296.046 82.8933 297.513 82.04C298.979 81.16 300.753 80.72 302.833 80.72C304.593 80.72 306.139 81.0533 307.473 81.72C308.806 82.3867 309.833 83.32 310.553 84.52C311.299 85.72 311.673 87.12 311.673 88.72V89.08H307.393V88.84C307.393 87.3733 306.993 86.3067 306.193 85.64C305.419 84.9467 304.206 84.6 302.553 84.6C300.633 84.6 299.259 85.1467 298.433 86.24C297.633 87.3067 297.233 88.9067 297.233 91.04C297.233 93.2 297.633 94.8267 298.433 95.92C299.259 96.9867 300.633 97.52 302.553 97.52C304.206 97.52 305.419 97.1867 306.193 96.52C306.993 95.8267 307.393 94.76 307.393 93.32V93.08H311.673V93.44C311.673 94.9867 311.299 96.3733 310.553 97.6C309.806 98.8 308.753 99.7467 307.393 100.44C306.059 101.107 304.486 101.44 302.673 101.44ZM324.24 101.4C322.213 101.4 320.453 100.973 318.96 100.12C317.467 99.24 316.32 98.0267 315.52 96.48C314.72 94.9067 314.32 93.0933 314.32 91.04C314.32 88.9867 314.72 87.1867 315.52 85.64C316.32 84.0933 317.467 82.8933 318.96 82.04C320.453 81.16 322.213 80.72 324.24 80.72C326.267 80.72 328 81.16 329.44 82.04C330.907 82.8933 332.027 84.0933 332.8 85.64C333.6 87.1867 334 88.9867 334 91.04C334 93.0933 333.6 94.9067 332.8 96.48C332.027 98.0267 330.907 99.24 329.44 100.12C328 100.973 326.267 101.4 324.24 101.4ZM324.24 97.56C326.32 97.56 327.773 97.04 328.6 96C329.427 94.9333 329.84 93.28 329.84 91.04C329.84 88.8 329.427 87.16 328.6 86.12C327.773 85.08 326.32 84.56 324.24 84.56C322.133 84.56 320.667 85.08 319.84 86.12C319.013 87.16 318.6 88.8 318.6 91.04C318.6 93.28 319.013 94.9333 319.84 96C320.667 97.04 322.133 97.56 324.24 97.56ZM369.149 101H364.829V89.44C364.829 87.68 364.496 86.4133 363.829 85.64C363.189 84.84 361.963 84.44 360.149 84.44C358.523 84.44 357.309 84.8267 356.509 85.6C355.736 86.3467 355.349 87.6267 355.349 89.44L354.589 89.52L354.229 84.84H354.869C355.189 84.1467 355.629 83.4933 356.189 82.88C356.776 82.24 357.523 81.72 358.429 81.32C359.336 80.92 360.443 80.72 361.749 80.72C363.483 80.72 364.883 81.0533 365.949 81.72C367.043 82.3867 367.843 83.3067 368.349 84.48C368.883 85.6533 369.149 87 369.149 88.52V101ZM341.549 101H337.229V81.12H341.189V87.08L341.549 87.28V101ZM355.349 101H351.029V89.44C351.029 87.68 350.696 86.4133 350.029 85.64C349.389 84.84 348.163 84.44 346.349 84.44C344.723 84.44 343.509 84.8133 342.709 85.56C341.936 86.3067 341.549 87.5867 341.549 89.4L340.789 89.52L340.429 84.84H341.389C341.683 84.12 342.109 83.4533 342.669 82.84C343.256 82.2267 344.003 81.72 344.909 81.32C345.816 80.92 346.896 80.72 348.149 80.72C349.829 80.72 351.189 81.0533 352.229 81.72C353.296 82.3867 354.083 83.3067 354.589 84.48C355.096 85.6533 355.349 87 355.349 88.52V101ZM382.046 101.4C379.886 101.4 378.086 100.973 376.646 100.12C375.206 99.24 374.139 98.0267 373.446 96.48C372.753 94.9067 372.406 93.0933 372.406 91.04C372.406 88.9867 372.793 87.1867 373.566 85.64C374.366 84.0933 375.486 82.8933 376.926 82.04C378.366 81.16 380.073 80.72 382.046 80.72C383.833 80.72 385.406 81.0667 386.766 81.76C388.153 82.4267 389.219 83.4 389.966 84.68C390.739 85.96 391.126 87.5067 391.126 89.32C391.126 89.8533 391.099 90.3733 391.046 90.88C391.019 91.36 390.979 91.76 390.926 92.08H374.446V89.2H387.406L386.966 89.6C387.073 88.3733 386.939 87.3733 386.566 86.6C386.219 85.8267 385.646 85.2533 384.846 84.88C384.073 84.5067 383.099 84.32 381.926 84.32C379.819 84.32 378.379 84.8533 377.606 85.92C376.833 86.96 376.446 88.4 376.446 90.24V91.44C376.446 92.7733 376.606 93.9067 376.926 94.84C377.273 95.7467 377.859 96.4267 378.686 96.88C379.513 97.3333 380.646 97.56 382.086 97.56C383.766 97.56 384.953 97.2933 385.646 96.76C386.339 96.2267 386.686 95.52 386.686 94.64V94.32H390.966V94.68C390.966 96.04 390.593 97.2267 389.846 98.24C389.099 99.2267 388.059 100 386.726 100.56C385.419 101.12 383.859 101.4 382.046 101.4ZM413.148 101.4C411.414 101.4 409.988 101.08 408.868 100.44C407.748 99.7733 406.934 98.8667 406.428 97.72H405.628L405.868 92.84H406.628C406.628 93.9333 406.828 94.84 407.228 95.56C407.654 96.28 408.268 96.8267 409.068 97.2C409.894 97.5467 410.881 97.72 412.028 97.72C412.988 97.72 413.801 97.6 414.468 97.36C415.161 97.12 415.734 96.7467 416.188 96.24C416.641 95.7067 416.961 95.0133 417.148 94.16C417.361 93.28 417.468 92.24 417.468 91.04C417.468 89.8133 417.361 88.7733 417.148 87.92C416.961 87.0667 416.641 86.3867 416.188 85.88C415.761 85.3733 415.201 85 414.508 84.76C413.814 84.52 412.988 84.4 412.028 84.4C410.881 84.4 409.894 84.5733 409.068 84.92C408.268 85.2667 407.654 85.8 407.228 86.52C406.828 87.24 406.628 88.16 406.628 89.28H405.868L405.628 84.28H406.748C407.174 83.3733 407.948 82.56 409.068 81.84C410.214 81.0933 411.654 80.72 413.388 80.72C416.134 80.72 418.214 81.6533 419.628 83.52C421.068 85.3867 421.788 87.8933 421.788 91.04C421.788 94.1867 421.041 96.7067 419.548 98.6C418.081 100.467 415.948 101.4 413.148 101.4ZM406.268 101H402.308V74.2H406.628V95.76L406.268 96.28V101ZM442.038 101H438.038V97.08L437.918 96V88.36C437.918 86.8667 437.558 85.8533 436.838 85.32C436.145 84.7867 435.011 84.52 433.438 84.52C431.865 84.52 430.731 84.8 430.038 85.36C429.371 85.92 429.038 86.8533 429.038 88.16V88.76H424.878V88.36C424.878 86.8667 425.238 85.5467 425.958 84.4C426.705 83.2533 427.731 82.36 429.038 81.72C430.371 81.0533 431.918 80.72 433.678 80.72C435.545 80.72 437.091 81.0667 438.318 81.76C439.545 82.4533 440.465 83.4133 441.078 84.64C441.718 85.84 442.038 87.2667 442.038 88.92V101ZM430.638 101.4C428.851 101.4 427.345 100.947 426.118 100.04C424.918 99.1067 424.318 97.7867 424.318 96.08C424.318 94.96 424.571 94.0267 425.078 93.28C425.611 92.5333 426.371 91.92 427.358 91.44C428.345 90.96 429.545 90.6267 430.958 90.44L438.318 89.4V92.44L431.598 93.44C430.451 93.6 429.651 93.84 429.198 94.16C428.745 94.48 428.518 95.0133 428.518 95.76C428.518 96.5333 428.785 97.0933 429.318 97.44C429.878 97.7867 430.785 97.96 432.038 97.96C432.998 97.96 433.918 97.8133 434.798 97.52C435.705 97.2 436.451 96.68 437.038 95.96C437.625 95.2133 437.918 94.1733 437.918 92.84L438.478 97.92L437.838 97.88C437.465 98.4933 436.945 99.0667 436.278 99.6C435.638 100.133 434.851 100.573 433.918 100.92C432.985 101.24 431.891 101.4 430.638 101.4ZM455.017 101.44C452.937 101.44 451.177 101 449.737 100.12C448.297 99.24 447.19 98.0267 446.417 96.48C445.67 94.9333 445.297 93.1333 445.297 91.08C445.297 89.0267 445.683 87.2267 446.457 85.68C447.257 84.1067 448.39 82.8933 449.857 82.04C451.323 81.16 453.097 80.72 455.177 80.72C456.937 80.72 458.483 81.0533 459.817 81.72C461.15 82.3867 462.177 83.32 462.897 84.52C463.643 85.72 464.017 87.12 464.017 88.72V89.08H459.737V88.84C459.737 87.3733 459.337 86.3067 458.537 85.64C457.763 84.9467 456.55 84.6 454.897 84.6C452.977 84.6 451.603 85.1467 450.777 86.24C449.977 87.3067 449.577 88.9067 449.577 91.04C449.577 93.2 449.977 94.8267 450.777 95.92C451.603 96.9867 452.977 97.52 454.897 97.52C456.55 97.52 457.763 97.1867 458.537 96.52C459.337 95.8267 459.737 94.76 459.737 93.32V93.08H464.017V93.44C464.017 94.9867 463.643 96.3733 462.897 97.6C462.15 98.8 461.097 99.7467 459.737 100.44C458.403 101.107 456.83 101.44 455.017 101.44ZM485.868 101H480.788L475.588 92.84H469.228V89H475.548L480.908 81.12H485.948L479.028 90.52L485.868 101ZM471.628 101H467.308V74.2H471.628V101ZM493.158 92.2H488.958C488.958 91.4 488.931 90.48 488.878 89.44C488.851 88.3733 488.798 87.2533 488.718 86.08C488.664 84.88 488.611 83.7067 488.558 82.56C488.504 81.3867 488.451 80.32 488.398 79.36C488.344 78.4 488.318 77.6133 488.318 77V74.2H493.798V77C493.798 77.6133 493.771 78.4 493.718 79.36C493.691 80.32 493.638 81.3867 493.558 82.56C493.504 83.7067 493.451 84.88 493.398 86.08C493.344 87.28 493.291 88.4133 493.238 89.48C493.184 90.52 493.158 91.4267 493.158 92.2ZM493.518 101H488.638V95.08H493.518V101ZM516.314 101.4C513.754 101.4 511.661 101.04 510.034 100.32C508.408 99.5733 507.194 98.5467 506.394 97.24C505.621 95.9067 505.234 94.3867 505.234 92.68V92H509.474V92.44C509.474 93.5333 509.661 94.4533 510.034 95.2C510.434 95.9467 511.141 96.5067 512.154 96.88C513.168 97.2533 514.621 97.44 516.514 97.44C518.488 97.44 519.874 97.16 520.674 96.6C521.474 96.0133 521.874 95.1067 521.874 93.88C521.874 93.0533 521.754 92.3867 521.514 91.88C521.274 91.3733 520.794 90.96 520.074 90.64C519.381 90.2933 518.341 89.9867 516.954 89.72L512.394 88.8C510.848 88.5067 509.554 88.0533 508.514 87.44C507.474 86.8 506.674 85.9867 506.114 85C505.581 84.0133 505.314 82.8267 505.314 81.44C505.314 80.1067 505.661 78.8667 506.354 77.72C507.074 76.5467 508.168 75.6 509.634 74.88C511.128 74.16 513.021 73.8 515.314 73.8C517.768 73.8 519.754 74.2133 521.274 75.04C522.821 75.8667 523.941 76.96 524.634 78.32C525.354 79.6533 525.714 81.12 525.714 82.72V83.2H521.434V82.76C521.434 81.64 521.248 80.72 520.874 80C520.528 79.2533 519.888 78.6933 518.954 78.32C518.048 77.92 516.808 77.72 515.234 77.72C513.261 77.72 511.834 78.0133 510.954 78.6C510.074 79.1867 509.634 80.0667 509.634 81.24C509.634 82.04 509.768 82.68 510.034 83.16C510.328 83.64 510.821 84.0267 511.514 84.32C512.234 84.5867 513.194 84.8667 514.394 85.16L518.954 86.12C520.661 86.44 522.034 86.9467 523.074 87.64C524.141 88.3333 524.928 89.1867 525.434 90.2C525.941 91.1867 526.194 92.36 526.194 93.72C526.194 95.1067 525.848 96.3867 525.154 97.56C524.461 98.7333 523.381 99.6667 521.914 100.36C520.474 101.053 518.608 101.4 516.314 101.4ZM533.535 78.6H529.255L529.215 74.2H533.535V78.6ZM533.575 101H529.255V81H533.575V101ZM546.747 108.2C544.88 108.2 543.253 107.907 541.867 107.32C540.507 106.733 539.453 105.88 538.707 104.76C537.96 103.667 537.587 102.32 537.587 100.72H541.907C541.907 101.627 542.04 102.347 542.307 102.88C542.573 103.413 543.067 103.787 543.787 104C544.507 104.24 545.533 104.36 546.867 104.36C548.173 104.36 549.173 104.213 549.867 103.92C550.56 103.627 551.04 103.133 551.307 102.44C551.573 101.747 551.707 100.787 551.707 99.56V86.36L552.027 85.84V81.12H556.027V99.56C556.027 101.507 555.653 103.107 554.907 104.36C554.16 105.64 553.093 106.6 551.707 107.24C550.347 107.88 548.693 108.2 546.747 108.2ZM545.067 99.12C542.32 99.12 540.213 98.2933 538.747 96.64C537.28 94.96 536.547 92.72 536.547 89.92C536.547 87.12 537.293 84.8933 538.787 83.24C540.28 81.56 542.427 80.72 545.227 80.72C546.853 80.72 548.253 81.0533 549.427 81.72C550.6 82.36 551.413 83.2533 551.867 84.4H552.667L552.467 89.28H551.707C551.707 88.16 551.48 87.24 551.027 86.52C550.573 85.8 549.933 85.2667 549.107 84.92C548.28 84.5733 547.32 84.4 546.227 84.4C544.973 84.4 543.947 84.5733 543.147 84.92C542.373 85.2667 541.8 85.8533 541.427 86.68C541.053 87.48 540.867 88.56 540.867 89.92C540.867 90.9333 540.973 91.8 541.187 92.52C541.4 93.2133 541.733 93.7733 542.187 94.2C542.64 94.6267 543.213 94.9467 543.907 95.16C544.6 95.3467 545.4 95.44 546.307 95.44C547.4 95.44 548.347 95.2667 549.147 94.92C549.947 94.5467 550.573 94 551.027 93.28C551.48 92.56 551.707 91.64 551.707 90.52H552.587V95.6H551.547C551.093 96.56 550.307 97.3867 549.187 98.08C548.067 98.7733 546.693 99.12 545.067 99.12ZM578.796 101H574.476V89.44C574.476 87.68 574.143 86.4133 573.476 85.64C572.81 84.84 571.556 84.44 569.716 84.44C568.543 84.44 567.583 84.6133 566.836 84.96C566.09 85.28 565.53 85.8133 565.156 86.56C564.783 87.28 564.596 88.2667 564.596 89.52H563.836L563.476 84.84H564.436C564.73 84.12 565.17 83.4533 565.756 82.84C566.343 82.2267 567.09 81.72 567.996 81.32C568.93 80.92 570.036 80.72 571.316 80.72C573.05 80.72 574.463 81.0533 575.556 81.72C576.65 82.3867 577.463 83.3067 577.996 84.48C578.53 85.6533 578.796 87 578.796 88.52V101ZM564.596 101H560.276V81.12H564.236V87.08L564.596 87.28V101ZM594.512 78.6H590.232L590.192 74.2H594.512V78.6ZM594.552 101H590.232V81H594.552V101ZM617.038 101H612.718V89.44C612.718 87.68 612.385 86.4133 611.718 85.64C611.052 84.84 609.798 84.44 607.958 84.44C606.785 84.44 605.825 84.6133 605.078 84.96C604.332 85.28 603.772 85.8133 603.398 86.56C603.025 87.28 602.838 88.2667 602.838 89.52H602.078L601.718 84.84H602.678C602.972 84.12 603.412 83.4533 603.998 82.84C604.585 82.2267 605.332 81.72 606.238 81.32C607.172 80.92 608.278 80.72 609.558 80.72C611.292 80.72 612.705 81.0533 613.798 81.72C614.892 82.3867 615.705 83.3067 616.238 84.48C616.772 85.6533 617.038 87 617.038 88.52V101ZM602.838 101H598.518V81.12H602.478V87.08L602.838 87.28V101ZM637.034 101C634.847 101 633.167 100.533 631.994 99.6C630.847 98.6667 630.274 97.0933 630.274 94.88V81.56L631.274 76.2H634.594V94.68C634.594 95.72 634.847 96.3867 635.354 96.68C635.887 96.9467 636.834 97.08 638.194 97.08H640.594V100.64C640.194 100.747 639.674 100.84 639.034 100.92C638.394 100.973 637.727 101 637.034 101ZM640.594 84.72H626.954V81.12H640.594V84.72ZM651.935 101.4C649.909 101.4 648.149 100.973 646.655 100.12C645.162 99.24 644.015 98.0267 643.215 96.48C642.415 94.9067 642.015 93.0933 642.015 91.04C642.015 88.9867 642.415 87.1867 643.215 85.64C644.015 84.0933 645.162 82.8933 646.655 82.04C648.149 81.16 649.909 80.72 651.935 80.72C653.962 80.72 655.695 81.16 657.135 82.04C658.602 82.8933 659.722 84.0933 660.495 85.64C661.295 87.1867 661.695 88.9867 661.695 91.04C661.695 93.0933 661.295 94.9067 660.495 96.48C659.722 98.0267 658.602 99.24 657.135 100.12C655.695 100.973 653.962 101.4 651.935 101.4ZM651.935 97.56C654.015 97.56 655.469 97.04 656.295 96C657.122 94.9333 657.535 93.28 657.535 91.04C657.535 88.8 657.122 87.16 656.295 86.12C655.469 85.08 654.015 84.56 651.935 84.56C649.829 84.56 648.362 85.08 647.535 86.12C646.709 87.16 646.295 88.8 646.295 91.04C646.295 93.28 646.709 94.9333 647.535 96C648.362 97.04 649.829 97.56 651.935 97.56ZM215.29 150.44C213.21 150.44 211.45 150 210.01 149.12C208.57 148.24 207.463 147.027 206.69 145.48C205.943 143.933 205.57 142.133 205.57 140.08C205.57 138.027 205.957 136.227 206.73 134.68C207.53 133.107 208.663 131.893 210.13 131.04C211.597 130.16 213.37 129.72 215.45 129.72C217.21 129.72 218.757 130.053 220.09 130.72C221.423 131.387 222.45 132.32 223.17 133.52C223.917 134.72 224.29 136.12 224.29 137.72V138.08H220.01V137.84C220.01 136.373 219.61 135.307 218.81 134.64C218.037 133.947 216.823 133.6 215.17 133.6C213.25 133.6 211.877 134.147 211.05 135.24C210.25 136.307 209.85 137.907 209.85 140.04C209.85 142.2 210.25 143.827 211.05 144.92C211.877 145.987 213.25 146.52 215.17 146.52C216.823 146.52 218.037 146.187 218.81 145.52C219.61 144.827 220.01 143.76 220.01 142.32V142.08H224.29V142.44C224.29 143.987 223.917 145.373 223.17 146.6C222.423 147.8 221.37 148.747 220.01 149.44C218.677 150.107 217.103 150.44 215.29 150.44ZM236.857 150.4C234.831 150.4 233.071 149.973 231.577 149.12C230.084 148.24 228.937 147.027 228.137 145.48C227.337 143.907 226.937 142.093 226.937 140.04C226.937 137.987 227.337 136.187 228.137 134.64C228.937 133.093 230.084 131.893 231.577 131.04C233.071 130.16 234.831 129.72 236.857 129.72C238.884 129.72 240.617 130.16 242.057 131.04C243.524 131.893 244.644 133.093 245.417 134.64C246.217 136.187 246.617 137.987 246.617 140.04C246.617 142.093 246.217 143.907 245.417 145.48C244.644 147.027 243.524 148.24 242.057 149.12C240.617 149.973 238.884 150.4 236.857 150.4ZM236.857 146.56C238.937 146.56 240.391 146.04 241.217 145C242.044 143.933 242.457 142.28 242.457 140.04C242.457 137.8 242.044 136.16 241.217 135.12C240.391 134.08 238.937 133.56 236.857 133.56C234.751 133.56 233.284 134.08 232.457 135.12C231.631 136.16 231.217 137.8 231.217 140.04C231.217 142.28 231.631 143.933 232.457 145C233.284 146.04 234.751 146.56 236.857 146.56ZM268.367 150H264.047V138.44C264.047 136.68 263.713 135.413 263.047 134.64C262.38 133.84 261.127 133.44 259.287 133.44C258.113 133.44 257.153 133.613 256.407 133.96C255.66 134.28 255.1 134.813 254.727 135.56C254.353 136.28 254.167 137.267 254.167 138.52H253.407L253.047 133.84H254.007C254.3 133.12 254.74 132.453 255.327 131.84C255.913 131.227 256.66 130.72 257.567 130.32C258.5 129.92 259.607 129.72 260.887 129.72C262.62 129.72 264.033 130.053 265.127 130.72C266.22 131.387 267.033 132.307 267.567 133.48C268.1 134.653 268.367 136 268.367 137.52V150ZM254.167 150H249.847V130.12H253.807V136.08L254.167 136.28V150ZM291.023 150H286.703V138.44C286.703 136.68 286.369 135.413 285.703 134.64C285.036 133.84 283.783 133.44 281.943 133.44C280.769 133.44 279.809 133.613 279.063 133.96C278.316 134.28 277.756 134.813 277.383 135.56C277.009 136.28 276.823 137.267 276.823 138.52H276.063L275.703 133.84H276.663C276.956 133.12 277.396 132.453 277.983 131.84C278.569 131.227 279.316 130.72 280.223 130.32C281.156 129.92 282.263 129.72 283.543 129.72C285.276 129.72 286.689 130.053 287.783 130.72C288.876 131.387 289.689 132.307 290.223 133.48C290.756 134.653 291.023 136 291.023 137.52V150ZM276.823 150H272.503V130.12H276.463V136.08L276.823 136.28V150ZM303.921 150.4C301.761 150.4 299.961 149.973 298.521 149.12C297.081 148.24 296.014 147.027 295.321 145.48C294.628 143.907 294.281 142.093 294.281 140.04C294.281 137.987 294.668 136.187 295.441 134.64C296.241 133.093 297.361 131.893 298.801 131.04C300.241 130.16 301.948 129.72 303.921 129.72C305.708 129.72 307.281 130.067 308.641 130.76C310.028 131.427 311.094 132.4 311.841 133.68C312.614 134.96 313.001 136.507 313.001 138.32C313.001 138.853 312.974 139.373 312.921 139.88C312.894 140.36 312.854 140.76 312.801 141.08H296.321V138.2H309.281L308.841 138.6C308.948 137.373 308.814 136.373 308.441 135.6C308.094 134.827 307.521 134.253 306.721 133.88C305.948 133.507 304.974 133.32 303.801 133.32C301.694 133.32 300.254 133.853 299.481 134.92C298.708 135.96 298.321 137.4 298.321 139.24V140.44C298.321 141.773 298.481 142.907 298.801 143.84C299.148 144.747 299.734 145.427 300.561 145.88C301.388 146.333 302.521 146.56 303.961 146.56C305.641 146.56 306.828 146.293 307.521 145.76C308.214 145.227 308.561 144.52 308.561 143.64V143.32H312.841V143.68C312.841 145.04 312.468 146.227 311.721 147.24C310.974 148.227 309.934 149 308.601 149.56C307.294 150.12 305.734 150.4 303.921 150.4ZM325.563 150.44C323.483 150.44 321.723 150 320.283 149.12C318.843 148.24 317.737 147.027 316.963 145.48C316.217 143.933 315.843 142.133 315.843 140.08C315.843 138.027 316.23 136.227 317.003 134.68C317.803 133.107 318.937 131.893 320.403 131.04C321.87 130.16 323.643 129.72 325.723 129.72C327.483 129.72 329.03 130.053 330.363 130.72C331.697 131.387 332.723 132.32 333.443 133.52C334.19 134.72 334.563 136.12 334.563 137.72V138.08H330.283V137.84C330.283 136.373 329.883 135.307 329.083 134.64C328.31 133.947 327.097 133.6 325.443 133.6C323.523 133.6 322.15 134.147 321.323 135.24C320.523 136.307 320.123 137.907 320.123 140.04C320.123 142.2 320.523 143.827 321.323 144.92C322.15 145.987 323.523 146.52 325.443 146.52C327.097 146.52 328.31 146.187 329.083 145.52C329.883 144.827 330.283 143.76 330.283 142.32V142.08H334.563V142.44C334.563 143.987 334.19 145.373 333.443 146.6C332.697 147.8 331.643 148.747 330.283 149.44C328.95 150.107 327.377 150.44 325.563 150.44ZM345.94 150C343.753 150 342.073 149.533 340.9 148.6C339.753 147.667 339.18 146.093 339.18 143.88V130.56L340.18 125.2H343.5V143.68C343.5 144.72 343.753 145.387 344.26 145.68C344.793 145.947 345.74 146.08 347.1 146.08H349.5V149.64C349.1 149.747 348.58 149.84 347.94 149.92C347.3 149.973 346.633 150 345.94 150ZM349.5 133.72H335.86V130.12H349.5V133.72ZM368.883 150H363.243L358.323 130.12H363.003L365.283 141.16L366.123 146.4H366.443L367.723 141.16L371.203 130.12H376.803L380.323 141.2L381.603 146.36H381.883L382.723 141.2L385.003 130.12H389.523L384.603 150H378.963L375.403 138.92L374.083 133.92H373.803L372.483 138.92L368.883 150ZM395.644 127.6H391.364L391.324 123.2H395.644V127.6ZM395.684 150H391.364V130H395.684V150ZM407.815 150C405.628 150 403.948 149.533 402.775 148.6C401.628 147.667 401.055 146.093 401.055 143.88V130.56L402.055 125.2H405.375V143.68C405.375 144.72 405.628 145.387 406.135 145.68C406.668 145.947 407.615 146.08 408.975 146.08H411.375V149.64C410.975 149.747 410.455 149.84 409.815 149.92C409.175 149.973 408.508 150 407.815 150ZM411.375 133.72H397.735V130.12H411.375V133.72ZM432.976 150H428.656V138.44C428.656 136.68 428.309 135.413 427.616 134.64C426.949 133.84 425.709 133.44 423.896 133.44C422.163 133.44 420.869 133.827 420.016 134.6C419.189 135.347 418.776 136.667 418.776 138.56H418.016L417.976 133.44H418.936C419.256 132.827 419.696 132.24 420.256 131.68C420.843 131.093 421.576 130.627 422.456 130.28C423.363 129.907 424.403 129.72 425.576 129.72C427.336 129.72 428.749 130.067 429.816 130.76C430.909 131.427 431.709 132.347 432.216 133.52C432.723 134.693 432.976 136.013 432.976 137.48V150ZM418.776 150H414.456V123.2H418.776V150ZM453.688 150.44C451.608 150.44 449.848 150 448.408 149.12C446.968 148.24 445.862 147.027 445.088 145.48C444.342 143.933 443.968 142.133 443.968 140.08C443.968 138.027 444.355 136.227 445.128 134.68C445.928 133.107 447.062 131.893 448.528 131.04C449.995 130.16 451.768 129.72 453.848 129.72C455.608 129.72 457.155 130.053 458.488 130.72C459.822 131.387 460.848 132.32 461.568 133.52C462.315 134.72 462.688 136.12 462.688 137.72V138.08H458.408V137.84C458.408 136.373 458.008 135.307 457.208 134.64C456.435 133.947 455.222 133.6 453.568 133.6C451.648 133.6 450.275 134.147 449.448 135.24C448.648 136.307 448.248 137.907 448.248 140.04C448.248 142.2 448.648 143.827 449.448 144.92C450.275 145.987 451.648 146.52 453.568 146.52C455.222 146.52 456.435 146.187 457.208 145.52C458.008 144.827 458.408 143.76 458.408 142.32V142.08H462.688V142.44C462.688 143.987 462.315 145.373 461.568 146.6C460.822 147.8 459.768 148.747 458.408 149.44C457.075 150.107 455.502 150.44 453.688 150.44ZM475.256 150.4C473.229 150.4 471.469 149.973 469.976 149.12C468.482 148.24 467.336 147.027 466.536 145.48C465.736 143.907 465.336 142.093 465.336 140.04C465.336 137.987 465.736 136.187 466.536 134.64C467.336 133.093 468.482 131.893 469.976 131.04C471.469 130.16 473.229 129.72 475.256 129.72C477.282 129.72 479.016 130.16 480.456 131.04C481.922 131.893 483.042 133.093 483.816 134.64C484.616 136.187 485.016 137.987 485.016 140.04C485.016 142.093 484.616 143.907 483.816 145.48C483.042 147.027 481.922 148.24 480.456 149.12C479.016 149.973 477.282 150.4 475.256 150.4ZM475.256 146.56C477.336 146.56 478.789 146.04 479.616 145C480.442 143.933 480.856 142.28 480.856 140.04C480.856 137.8 480.442 136.16 479.616 135.12C478.789 134.08 477.336 133.56 475.256 133.56C473.149 133.56 471.682 134.08 470.856 135.12C470.029 136.16 469.616 137.8 469.616 140.04C469.616 142.28 470.029 143.933 470.856 145C471.682 146.04 473.149 146.56 475.256 146.56ZM492.604 150H488.284V123.2H492.604V150ZM501.354 150H497.034V123.2H501.354V150ZM514.273 150.4C512.113 150.4 510.313 149.973 508.873 149.12C507.433 148.24 506.366 147.027 505.673 145.48C504.979 143.907 504.632 142.093 504.632 140.04C504.632 137.987 505.019 136.187 505.793 134.64C506.593 133.093 507.713 131.893 509.153 131.04C510.593 130.16 512.299 129.72 514.273 129.72C516.059 129.72 517.633 130.067 518.993 130.76C520.379 131.427 521.446 132.4 522.193 133.68C522.966 134.96 523.353 136.507 523.353 138.32C523.353 138.853 523.326 139.373 523.273 139.88C523.246 140.36 523.206 140.76 523.153 141.08H506.673V138.2H519.633L519.193 138.6C519.299 137.373 519.166 136.373 518.793 135.6C518.446 134.827 517.873 134.253 517.073 133.88C516.299 133.507 515.326 133.32 514.153 133.32C512.046 133.32 510.606 133.853 509.833 134.92C509.059 135.96 508.673 137.4 508.673 139.24V140.44C508.673 141.773 508.833 142.907 509.153 143.84C509.499 144.747 510.086 145.427 510.913 145.88C511.739 146.333 512.873 146.56 514.313 146.56C515.993 146.56 517.179 146.293 517.873 145.76C518.566 145.227 518.913 144.52 518.913 143.64V143.32H523.193V143.68C523.193 145.04 522.819 146.227 522.073 147.24C521.326 148.227 520.286 149 518.953 149.56C517.646 150.12 516.086 150.4 514.273 150.4ZM536.395 157.2C534.528 157.2 532.902 156.907 531.515 156.32C530.155 155.733 529.102 154.88 528.355 153.76C527.608 152.667 527.235 151.32 527.235 149.72H531.555C531.555 150.627 531.688 151.347 531.955 151.88C532.222 152.413 532.715 152.787 533.435 153C534.155 153.24 535.182 153.36 536.515 153.36C537.822 153.36 538.822 153.213 539.515 152.92C540.208 152.627 540.688 152.133 540.955 151.44C541.222 150.747 541.355 149.787 541.355 148.56V135.36L541.675 134.84V130.12H545.675V148.56C545.675 150.507 545.302 152.107 544.555 153.36C543.808 154.64 542.742 155.6 541.355 156.24C539.995 156.88 538.342 157.2 536.395 157.2ZM534.715 148.12C531.968 148.12 529.862 147.293 528.395 145.64C526.928 143.96 526.195 141.72 526.195 138.92C526.195 136.12 526.942 133.893 528.435 132.24C529.928 130.56 532.075 129.72 534.875 129.72C536.502 129.72 537.902 130.053 539.075 130.72C540.248 131.36 541.062 132.253 541.515 133.4H542.315L542.115 138.28H541.355C541.355 137.16 541.128 136.24 540.675 135.52C540.222 134.8 539.582 134.267 538.755 133.92C537.928 133.573 536.968 133.4 535.875 133.4C534.622 133.4 533.595 133.573 532.795 133.92C532.022 134.267 531.448 134.853 531.075 135.68C530.702 136.48 530.515 137.56 530.515 138.92C530.515 139.933 530.622 140.8 530.835 141.52C531.048 142.213 531.382 142.773 531.835 143.2C532.288 143.627 532.862 143.947 533.555 144.16C534.248 144.347 535.048 144.44 535.955 144.44C537.048 144.44 537.995 144.267 538.795 143.92C539.595 143.547 540.222 143 540.675 142.28C541.128 141.56 541.355 140.64 541.355 139.52H542.235V144.6H541.195C540.742 145.56 539.955 146.387 538.835 147.08C537.715 147.773 536.342 148.12 534.715 148.12ZM558.569 150.4C556.409 150.4 554.609 149.973 553.169 149.12C551.729 148.24 550.663 147.027 549.969 145.48C549.276 143.907 548.929 142.093 548.929 140.04C548.929 137.987 549.316 136.187 550.089 134.64C550.889 133.093 552.009 131.893 553.449 131.04C554.889 130.16 556.596 129.72 558.569 129.72C560.356 129.72 561.929 130.067 563.289 130.76C564.676 131.427 565.743 132.4 566.489 133.68C567.263 134.96 567.649 136.507 567.649 138.32C567.649 138.853 567.623 139.373 567.569 139.88C567.543 140.36 567.503 140.76 567.449 141.08H550.969V138.2H563.929L563.489 138.6C563.596 137.373 563.463 136.373 563.089 135.6C562.743 134.827 562.169 134.253 561.369 133.88C560.596 133.507 559.623 133.32 558.449 133.32C556.343 133.32 554.903 133.853 554.129 134.92C553.356 135.96 552.969 137.4 552.969 139.24V140.44C552.969 141.773 553.129 142.907 553.449 143.84C553.796 144.747 554.383 145.427 555.209 145.88C556.036 146.333 557.169 146.56 558.609 146.56C560.289 146.56 561.476 146.293 562.169 145.76C562.863 145.227 563.209 144.52 563.209 143.64V143.32H567.489V143.68C567.489 145.04 567.116 146.227 566.369 147.24C565.623 148.227 564.583 149 563.249 149.56C561.943 150.12 560.383 150.4 558.569 150.4ZM579.652 150.4C576.745 150.4 574.545 149.827 573.052 148.68C571.559 147.507 570.812 145.707 570.812 143.28V143.2H574.972V143.92C574.972 144.613 575.105 145.187 575.372 145.64C575.665 146.067 576.145 146.387 576.812 146.6C577.505 146.787 578.479 146.88 579.732 146.88C580.799 146.88 581.599 146.8 582.132 146.64C582.692 146.453 583.065 146.2 583.252 145.88C583.439 145.56 583.532 145.16 583.532 144.68C583.532 143.88 583.252 143.32 582.692 143C582.132 142.653 581.132 142.347 579.692 142.08L576.572 141.56C575.399 141.32 574.372 140.987 573.492 140.56C572.639 140.107 571.972 139.493 571.492 138.72C571.039 137.92 570.812 136.92 570.812 135.72C570.812 133.933 571.519 132.493 572.932 131.4C574.345 130.28 576.345 129.72 578.932 129.72C580.505 129.72 581.905 129.973 583.132 130.48C584.359 130.987 585.332 131.747 586.052 132.76C586.772 133.773 587.132 135.04 587.132 136.56V136.92H583.012V136.44C583.012 135.8 582.905 135.253 582.692 134.8C582.479 134.32 582.079 133.947 581.492 133.68C580.905 133.413 580.012 133.28 578.812 133.28C577.239 133.28 576.199 133.48 575.692 133.88C575.185 134.28 574.932 134.867 574.932 135.64C574.932 136.413 575.159 136.96 575.612 137.28C576.092 137.573 577.025 137.867 578.412 138.16L581.812 138.8C583.092 139.04 584.159 139.4 585.012 139.88C585.865 140.36 586.505 140.987 586.932 141.76C587.385 142.533 587.612 143.453 587.612 144.52C587.612 146.387 586.905 147.84 585.492 148.88C584.105 149.893 582.159 150.4 579.652 150.4ZM615.476 150H611.476V146.08L611.356 145V137.36C611.356 135.867 610.996 134.853 610.276 134.32C609.582 133.787 608.449 133.52 606.876 133.52C605.302 133.52 604.169 133.8 603.476 134.36C602.809 134.92 602.476 135.853 602.476 137.16V137.76H598.316V137.36C598.316 135.867 598.676 134.547 599.396 133.4C600.142 132.253 601.169 131.36 602.476 130.72C603.809 130.053 605.356 129.72 607.116 129.72C608.982 129.72 610.529 130.067 611.756 130.76C612.982 131.453 613.902 132.413 614.516 133.64C615.156 134.84 615.476 136.267 615.476 137.92V150ZM604.076 150.4C602.289 150.4 600.782 149.947 599.556 149.04C598.356 148.107 597.756 146.787 597.756 145.08C597.756 143.96 598.009 143.027 598.516 142.28C599.049 141.533 599.809 140.92 600.796 140.44C601.782 139.96 602.982 139.627 604.396 139.44L611.756 138.4V141.44L605.036 142.44C603.889 142.6 603.089 142.84 602.636 143.16C602.182 143.48 601.956 144.013 601.956 144.76C601.956 145.533 602.222 146.093 602.756 146.44C603.316 146.787 604.222 146.96 605.476 146.96C606.436 146.96 607.356 146.813 608.236 146.52C609.142 146.2 609.889 145.68 610.476 144.96C611.062 144.213 611.356 143.173 611.356 141.84L611.916 146.92L611.276 146.88C610.902 147.493 610.382 148.067 609.716 148.6C609.076 149.133 608.289 149.573 607.356 149.92C606.422 150.24 605.329 150.4 604.076 150.4ZM638.132 150H633.812V138.44C633.812 136.68 633.479 135.413 632.812 134.64C632.146 133.84 630.892 133.44 629.052 133.44C627.879 133.44 626.919 133.613 626.172 133.96C625.426 134.28 624.866 134.813 624.492 135.56C624.119 136.28 623.932 137.267 623.932 138.52H623.172L622.812 133.84H623.772C624.066 133.12 624.506 132.453 625.092 131.84C625.679 131.227 626.426 130.72 627.332 130.32C628.266 129.92 629.372 129.72 630.652 129.72C632.386 129.72 633.799 130.053 634.892 130.72C635.986 131.387 636.799 132.307 637.332 133.48C637.866 134.653 638.132 136 638.132 137.52V150ZM623.932 150H619.612V130.12H623.572V136.08L623.932 136.28V150ZM650.15 150.4C647.324 150.4 645.15 149.467 643.63 147.6C642.137 145.707 641.39 143.187 641.39 140.04C641.39 136.893 642.124 134.387 643.59 132.52C645.084 130.653 647.19 129.72 649.91 129.72C651.67 129.72 653.084 130.08 654.15 130.8C655.244 131.493 656.004 132.293 656.43 133.2H657.51L657.31 138.28H656.55C656.55 137.16 656.337 136.24 655.91 135.52C655.484 134.8 654.87 134.267 654.07 133.92C653.27 133.573 652.284 133.4 651.11 133.4C650.15 133.4 649.324 133.52 648.63 133.76C647.964 134 647.404 134.373 646.95 134.88C646.524 135.387 646.204 136.067 645.99 136.92C645.804 137.773 645.71 138.813 645.71 140.04C645.71 141.24 645.804 142.28 645.99 143.16C646.204 144.013 646.524 144.707 646.95 145.24C647.404 145.747 647.977 146.12 648.67 146.36C649.364 146.6 650.177 146.72 651.11 146.72C652.284 146.72 653.27 146.547 654.07 146.2C654.87 145.827 655.484 145.28 655.91 144.56C656.337 143.84 656.55 142.933 656.55 141.84H657.31L657.51 146.72H656.71C656.257 147.867 655.47 148.773 654.35 149.44C653.257 150.08 651.857 150.4 650.15 150.4ZM660.87 150H656.87V145.28L656.55 144.76V123.2H660.87V150ZM427.468 199H423.148V187.44C423.148 185.68 422.801 184.413 422.108 183.64C421.441 182.84 420.201 182.44 418.388 182.44C416.655 182.44 415.361 182.827 414.508 183.6C413.681 184.347 413.268 185.667 413.268 187.56H412.508L412.468 182.44H413.428C413.748 181.827 414.188 181.24 414.748 180.68C415.335 180.093 416.068 179.627 416.948 179.28C417.855 178.907 418.895 178.72 420.068 178.72C421.828 178.72 423.241 179.067 424.308 179.76C425.401 180.427 426.201 181.347 426.708 182.52C427.215 183.693 427.468 185.013 427.468 186.48V199ZM413.268 199H408.948V172.2H413.268V199ZM435.762 176.6H431.482L431.442 172.2H435.762V176.6ZM435.802 199H431.482V179H435.802V199ZM444.088 199H439.768V179H443.728V184.56L444.088 184.76V199ZM444.088 186.04H443.088V182.16H443.928C444.328 181.227 444.982 180.427 445.888 179.76C446.822 179.067 448.022 178.72 449.488 178.72C450.902 178.72 452.022 179.027 452.848 179.64C453.702 180.253 454.315 181.067 454.688 182.08C455.062 183.093 455.248 184.227 455.248 185.48V186.8H450.928V186C450.928 184.667 450.702 183.733 450.248 183.2C449.795 182.667 448.942 182.4 447.688 182.4C446.382 182.4 445.448 182.68 444.888 183.24C444.355 183.773 444.088 184.707 444.088 186.04ZM466.851 199.4C464.691 199.4 462.891 198.973 461.451 198.12C460.011 197.24 458.944 196.027 458.251 194.48C457.557 192.907 457.211 191.093 457.211 189.04C457.211 186.987 457.597 185.187 458.371 183.64C459.171 182.093 460.291 180.893 461.731 180.04C463.171 179.16 464.877 178.72 466.851 178.72C468.637 178.72 470.211 179.067 471.571 179.76C472.957 180.427 474.024 181.4 474.771 182.68C475.544 183.96 475.931 185.507 475.931 187.32C475.931 187.853 475.904 188.373 475.851 188.88C475.824 189.36 475.784 189.76 475.731 190.08H459.251V187.2H472.211L471.771 187.6C471.877 186.373 471.744 185.373 471.371 184.6C471.024 183.827 470.451 183.253 469.651 182.88C468.877 182.507 467.904 182.32 466.731 182.32C464.624 182.32 463.184 182.853 462.411 183.92C461.637 184.96 461.251 186.4 461.251 188.24V189.44C461.251 190.773 461.411 191.907 461.731 192.84C462.077 193.747 462.664 194.427 463.491 194.88C464.317 195.333 465.451 195.56 466.891 195.56C468.571 195.56 469.757 195.293 470.451 194.76C471.144 194.227 471.491 193.52 471.491 192.64V192.32H475.771V192.68C475.771 194.04 475.397 195.227 474.651 196.24C473.904 197.227 472.864 198 471.531 198.56C470.224 199.12 468.664 199.4 466.851 199.4ZM495.432 199C493.246 199 491.566 198.533 490.392 197.6C489.246 196.667 488.672 195.093 488.672 192.88V179.56L489.672 174.2H492.992V192.68C492.992 193.72 493.246 194.387 493.752 194.68C494.286 194.947 495.232 195.08 496.592 195.08H498.992V198.64C498.592 198.747 498.072 198.84 497.432 198.92C496.792 198.973 496.126 199 495.432 199ZM498.992 182.72H485.352V179.12H498.992V182.72ZM510.334 199.4C508.307 199.4 506.547 198.973 505.054 198.12C503.56 197.24 502.414 196.027 501.614 194.48C500.814 192.907 500.414 191.093 500.414 189.04C500.414 186.987 500.814 185.187 501.614 183.64C502.414 182.093 503.56 180.893 505.054 180.04C506.547 179.16 508.307 178.72 510.334 178.72C512.36 178.72 514.094 179.16 515.534 180.04C517 180.893 518.12 182.093 518.894 183.64C519.694 185.187 520.094 186.987 520.094 189.04C520.094 191.093 519.694 192.907 518.894 194.48C518.12 196.027 517 197.24 515.534 198.12C514.094 198.973 512.36 199.4 510.334 199.4ZM510.334 195.56C512.414 195.56 513.867 195.04 514.694 194C515.52 192.933 515.934 191.28 515.934 189.04C515.934 186.8 515.52 185.16 514.694 184.12C513.867 183.08 512.414 182.56 510.334 182.56C508.227 182.56 506.76 183.08 505.934 184.12C505.107 185.16 504.694 186.8 504.694 189.04C504.694 191.28 505.107 192.933 505.934 194C506.76 195.04 508.227 195.56 510.334 195.56ZM534.203 199.4C532.416 199.4 530.963 199.053 529.843 198.36C528.75 197.64 527.99 196.827 527.563 195.92H526.483L526.683 190.84H527.443C527.443 191.933 527.643 192.84 528.043 193.56C528.47 194.28 529.096 194.827 529.923 195.2C530.75 195.547 531.736 195.72 532.883 195.72C533.816 195.72 534.63 195.6 535.323 195.36C536.016 195.12 536.576 194.747 537.003 194.24C537.456 193.733 537.776 193.053 537.963 192.2C538.176 191.32 538.283 190.267 538.283 189.04C538.283 187.813 538.176 186.787 537.963 185.96C537.776 185.107 537.456 184.413 537.003 183.88C536.576 183.347 536.016 182.973 535.323 182.76C534.656 182.52 533.843 182.4 532.883 182.4C531.736 182.4 530.75 182.587 529.923 182.96C529.096 183.307 528.47 183.84 528.043 184.56C527.643 185.253 527.443 186.16 527.443 187.28H526.683L526.483 182.4H527.283C527.763 181.253 528.55 180.36 529.643 179.72C530.763 179.053 532.19 178.72 533.923 178.72C536.723 178.72 538.87 179.653 540.363 181.52C541.856 183.387 542.603 185.893 542.603 189.04C542.603 192.187 541.883 194.707 540.443 196.6C539.003 198.467 536.923 199.4 534.203 199.4ZM527.443 205.92H523.163V179.12H527.083V183.84L527.443 184.36V205.92ZM562.112 199C559.925 199 558.245 198.533 557.072 197.6C555.925 196.667 555.352 195.093 555.352 192.88V179.56L556.352 174.2H559.672V192.68C559.672 193.72 559.925 194.387 560.432 194.68C560.965 194.947 561.912 195.08 563.272 195.08H565.672V198.64C565.272 198.747 564.752 198.84 564.112 198.92C563.472 198.973 562.805 199 562.112 199ZM565.672 182.72H552.032V179.12H565.672V182.72ZM585.358 199H581.358V195.08L581.238 194V186.36C581.238 184.867 580.878 183.853 580.158 183.32C579.465 182.787 578.332 182.52 576.758 182.52C575.185 182.52 574.052 182.8 573.358 183.36C572.692 183.92 572.358 184.853 572.358 186.16V186.76H568.198V186.36C568.198 184.867 568.558 183.547 569.278 182.4C570.025 181.253 571.052 180.36 572.358 179.72C573.692 179.053 575.238 178.72 576.998 178.72C578.865 178.72 580.412 179.067 581.638 179.76C582.865 180.453 583.785 181.413 584.398 182.64C585.038 183.84 585.358 185.267 585.358 186.92V199ZM573.958 199.4C572.172 199.4 570.665 198.947 569.438 198.04C568.238 197.107 567.638 195.787 567.638 194.08C567.638 192.96 567.892 192.027 568.398 191.28C568.932 190.533 569.692 189.92 570.678 189.44C571.665 188.96 572.865 188.627 574.278 188.44L581.638 187.4V190.44L574.918 191.44C573.772 191.6 572.972 191.84 572.518 192.16C572.065 192.48 571.838 193.013 571.838 193.76C571.838 194.533 572.105 195.093 572.638 195.44C573.198 195.787 574.105 195.96 575.358 195.96C576.318 195.96 577.238 195.813 578.118 195.52C579.025 195.2 579.772 194.68 580.358 193.96C580.945 193.213 581.238 192.173 581.238 190.84L581.798 195.92L581.158 195.88C580.785 196.493 580.265 197.067 579.598 197.6C578.958 198.133 578.172 198.573 577.238 198.92C576.305 199.24 575.212 199.4 573.958 199.4ZM593.815 199H589.495V172.2H593.815V199ZM606.733 199.4C604.573 199.4 602.773 198.973 601.333 198.12C599.893 197.24 598.827 196.027 598.133 194.48C597.44 192.907 597.093 191.093 597.093 189.04C597.093 186.987 597.48 185.187 598.253 183.64C599.053 182.093 600.173 180.893 601.613 180.04C603.053 179.16 604.76 178.72 606.733 178.72C608.52 178.72 610.093 179.067 611.453 179.76C612.84 180.427 613.907 181.4 614.653 182.68C615.427 183.96 615.813 185.507 615.813 187.32C615.813 187.853 615.787 188.373 615.733 188.88C615.707 189.36 615.667 189.76 615.613 190.08H599.133V187.2H612.093L611.653 187.6C611.76 186.373 611.627 185.373 611.253 184.6C610.907 183.827 610.333 183.253 609.533 182.88C608.76 182.507 607.787 182.32 606.613 182.32C604.507 182.32 603.067 182.853 602.293 183.92C601.52 184.96 601.133 186.4 601.133 188.24V189.44C601.133 190.773 601.293 191.907 601.613 192.84C601.96 193.747 602.547 194.427 603.373 194.88C604.2 195.333 605.333 195.56 606.773 195.56C608.453 195.56 609.64 195.293 610.333 194.76C611.027 194.227 611.373 193.52 611.373 192.64V192.32H615.653V192.68C615.653 194.04 615.28 195.227 614.533 196.24C613.787 197.227 612.747 198 611.413 198.56C610.107 199.12 608.547 199.4 606.733 199.4ZM637.781 199H633.461V187.44C633.461 185.68 633.127 184.413 632.461 183.64C631.794 182.84 630.541 182.44 628.701 182.44C627.527 182.44 626.567 182.613 625.821 182.96C625.074 183.28 624.514 183.813 624.141 184.56C623.767 185.28 623.581 186.267 623.581 187.52H622.821L622.461 182.84H623.421C623.714 182.12 624.154 181.453 624.741 180.84C625.327 180.227 626.074 179.72 626.981 179.32C627.914 178.92 629.021 178.72 630.301 178.72C632.034 178.72 633.447 179.053 634.541 179.72C635.634 180.387 636.447 181.307 636.981 182.48C637.514 183.653 637.781 185 637.781 186.52V199ZM623.581 199H619.261V179.12H623.221V185.08L623.581 185.28V199ZM650.003 199C647.816 199 646.136 198.533 644.963 197.6C643.816 196.667 643.243 195.093 643.243 192.88V179.56L644.243 174.2H647.563V192.68C647.563 193.72 647.816 194.387 648.323 194.68C648.856 194.947 649.803 195.08 651.163 195.08H653.563V198.64C653.163 198.747 652.643 198.84 652.003 198.92C651.363 198.973 650.696 199 650.003 199ZM653.563 182.72H639.923V179.12H653.563V182.72ZM661.712 199H656.232V192.8H661.712V199Z" fill="white"/>
<rect x="51" y="432" width="293" height="293" rx="146.5" fill="#121D26"/>
<path d="M176.487 675.596C173.542 681.309 175.77 688.415 181.844 690.518C193.302 694.483 205.549 695.859 217.694 694.48C233.71 692.661 248.827 686.135 261.134 675.724C273.441 665.314 282.385 651.489 286.834 635.996C290.207 624.248 290.882 611.942 288.872 599.985C287.806 593.647 281.167 590.271 275.045 592.228C268.923 594.185 265.673 600.748 266.375 607.137C267.199 614.632 266.564 622.253 264.462 629.571C261.284 640.639 254.894 650.517 246.102 657.954C237.31 665.391 226.51 670.053 215.068 671.352C207.503 672.211 199.881 671.574 192.627 669.519C186.443 667.766 179.432 669.883 176.487 675.596Z" fill="white"/>
</g>
<path d="M671.58 1237.75C671.839 1237.9 672.161 1237.9 672.42 1237.75L681.825 1232.16C682.208 1231.93 682.34 1231.44 682.122 1231.05L672 1213H685.536C685.834 1213 686.108 1213.16 686.253 1213.42L691.461 1222.75C691.874 1223.48 693 1223.19 693 1222.34V1200.97C693 1200.68 692.848 1200.41 692.599 1200.26L672.42 1188.25C672.161 1188.1 671.839 1188.1 671.58 1188.25L651.401 1200.26C651.152 1200.41 651 1200.68 651 1200.97V1222.34C651 1223.19 652.126 1223.48 652.539 1222.75L657.747 1213.42C657.892 1213.16 658.166 1213 658.464 1213H672L661.878 1231.05C661.66 1231.44 661.792 1231.93 662.175 1232.16L671.58 1237.75Z" fill="white"/>
<defs>
<clipPath id="clip0_18940_20491">
<rect width="727" height="1272" rx="20.1569" fill="white"/>
</clipPath>
</defs>
</svg>
