<svg width="124" height="124" viewBox="0 0 124 124" fill="none" xmlns="http://www.w3.org/2000/svg">
<path d="M62.0003 110.586C86.342 110.586 106.075 107.106 106.075 102.814C106.075 98.5217 86.342 95.042 62.0003 95.042C37.6586 95.042 17.9258 98.5217 17.9258 102.814C17.9258 107.106 37.6586 110.586 62.0003 110.586Z" fill="#E0E0E0"/>
<path d="M62.0003 108.27C79.0901 108.27 92.9441 105.827 92.9441 102.814C92.9441 99.8004 79.0901 97.3574 62.0003 97.3574C44.9106 97.3574 31.0566 99.8004 31.0566 102.814C31.0566 105.827 44.9106 108.27 62.0003 108.27Z" fill="#FAFAFA"/>
<path d="M42.8548 42.0576C42.9245 43.0117 41.7716 43.8735 41.7716 43.8735C41.7716 43.8735 40.5058 43.1882 40.4363 42.2342C40.3667 41.2801 40.8518 40.4672 41.5196 40.4183C42.1872 40.3695 42.7852 41.1033 42.8548 42.0576Z" stroke="#E0E0E0" stroke-miterlimit="10"/>
<path d="M38.8785 44.9202C39.7202 45.3746 39.8268 46.81 39.8268 46.81C39.8268 46.81 38.5685 47.5086 37.7267 47.0543C36.885 46.5999 36.4605 45.754 36.7784 45.1645C37.0963 44.575 38.0367 44.4656 38.8785 44.9202Z" stroke="#E0E0E0" stroke-miterlimit="10"/>
<mask id="path-5-inside-1_21233_117652" fill="white">
<path d="M44.9859 61.4569C44.97 61.2833 43.3109 44.053 36.7939 40.2323L36.9194 40.0186C39.706 41.6521 41.9526 45.756 43.5963 52.2164C44.8167 57.0133 45.2289 61.3905 45.2331 61.4341L44.9859 61.4569Z"/>
</mask>
<path d="M44.9859 61.4569C44.97 61.2833 43.3109 44.053 36.7939 40.2323L36.9194 40.0186C39.706 41.6521 41.9526 45.756 43.5963 52.2164C44.8167 57.0133 45.2289 61.3905 45.2331 61.4341L44.9859 61.4569Z" fill="#B6DCFD"/>
<path d="M44.9859 61.4569L43.99 61.548L44.0812 62.5447L45.0778 62.4527L44.9859 61.4569ZM36.7939 40.2323L35.9316 39.7261L35.425 40.589L36.2882 41.095L36.7939 40.2323ZM36.9194 40.0186L37.4252 39.1559L36.563 38.6504L36.057 39.5123L36.9194 40.0186ZM43.5963 52.2164L44.5655 51.9699L44.5655 51.9699L43.5963 52.2164ZM45.2331 61.4341L45.325 62.4299L46.3251 62.3376L46.2285 61.338L45.2331 61.4341ZM44.9859 61.4569L45.9817 61.3659C45.9716 61.255 45.5468 56.8446 44.2965 51.9641C43.6717 49.5249 42.832 46.9332 41.7164 44.6907C40.6112 42.4693 39.1768 40.4701 37.2997 39.3697L36.7939 40.2323L36.2882 41.095C37.6696 41.9049 38.8864 43.4923 39.9257 45.5815C40.9546 47.6497 41.7526 50.0928 42.3591 52.4604C42.9642 54.8226 43.3708 57.0778 43.6271 58.7556C43.7551 59.5936 43.8453 60.2852 43.9038 60.7713C43.933 61.0143 43.9544 61.2058 43.9685 61.3383C43.9756 61.4045 43.9809 61.456 43.9845 61.4917C43.9863 61.5096 43.9877 61.5234 43.9886 61.5332C43.9896 61.5436 43.9901 61.5482 43.99 61.548L44.9859 61.4569ZM36.7939 40.2323L37.6563 40.7386L37.7818 40.5248L36.9194 40.0186L36.057 39.5123L35.9316 39.7261L36.7939 40.2323ZM36.9194 40.0186L36.4137 40.8812C37.5964 41.5746 38.7444 42.8423 39.8093 44.7876C40.8712 46.7276 41.818 49.2825 42.6272 52.463L43.5963 52.2164L44.5655 51.9699C43.7309 48.6899 42.7325 45.9627 41.5636 43.8273C40.3976 41.6971 39.029 40.0961 37.4252 39.1559L36.9194 40.0186ZM43.5963 52.2164L42.6272 52.463C43.8286 57.185 44.235 61.5019 44.2378 61.5302L45.2331 61.4341L46.2285 61.338C46.2289 61.3416 46.2276 61.3282 46.2269 61.321C46.2259 61.3104 46.2244 61.2957 46.2225 61.277C46.2188 61.2395 46.2134 61.1859 46.2061 61.1173C46.1917 60.9801 46.17 60.7824 46.1403 60.5322C46.0809 60.0317 45.9895 59.3201 45.8596 58.4587C45.6003 56.7379 45.1863 54.4099 44.5655 51.9699L43.5963 52.2164ZM45.2331 61.4341L45.1412 60.4383L44.894 60.4611L44.9859 61.4569L45.0778 62.4527L45.325 62.4299L45.2331 61.4341Z" fill="#E0E0E0" mask="url(#path-5-inside-1_21233_117652)"/>
<path d="M38.8734 39.9622C39.6149 40.7353 39.236 42.3019 39.236 42.3019C39.236 42.3019 37.655 42.6148 36.9137 41.8418C36.1722 41.0688 36.01 40.0213 36.5511 39.5022C37.0923 38.9831 38.1321 39.1892 38.8734 39.9622Z" stroke="#E0E0E0" stroke-miterlimit="10"/>
<mask id="path-8-inside-2_21233_117652" fill="white">
<path d="M41.7907 46.4761L41.5447 46.4449C41.7533 44.8019 41.5462 41.3294 41.5439 41.2944L41.7914 41.2793C41.8001 41.4229 42.0022 44.8101 41.7907 46.4761Z"/>
</mask>
<path d="M41.7907 46.4761L41.5447 46.4449C41.7533 44.8019 41.5462 41.3294 41.5439 41.2944L41.7914 41.2793C41.8001 41.4229 42.0022 44.8101 41.7907 46.4761Z" fill="#B6DCFD"/>
<path d="M41.7907 46.4761L41.6647 47.4682L42.6568 47.5942L42.7827 46.6021L41.7907 46.4761ZM41.5447 46.4449L40.5526 46.319L40.4267 47.3109L41.4187 47.4369L41.5447 46.4449ZM41.5439 41.2944L41.4829 40.2963L40.4821 40.3575L40.546 41.3581L41.5439 41.2944ZM41.7914 41.2793L42.7896 41.219L42.7292 40.2201L41.7304 40.2812L41.7914 41.2793ZM41.7907 46.4761L41.9167 45.4841L41.6707 45.4529L41.5447 46.4449L41.4187 47.4369L41.6647 47.4682L41.7907 46.4761ZM41.5447 46.4449L42.5367 46.5708C42.7599 44.8128 42.5421 41.2335 42.5419 41.2307L41.5439 41.2944L40.546 41.3581C40.5459 41.3574 40.5492 41.4115 40.5546 41.5122C40.56 41.6114 40.5673 41.7538 40.5754 41.9291C40.5916 42.2799 40.6109 42.761 40.6237 43.2907C40.6497 44.3729 40.6462 45.5816 40.5526 46.319L41.5447 46.4449ZM41.5439 41.2944L41.605 42.2926L41.8525 42.2774L41.7914 41.2793L41.7304 40.2812L41.4829 40.2963L41.5439 41.2944ZM41.7914 41.2793L40.7933 41.3396C40.8041 41.5192 40.9957 44.7982 40.7987 46.3502L41.7907 46.4761L42.7827 46.6021C43.0088 44.8219 42.7961 41.3266 42.7896 41.219L41.7914 41.2793Z" fill="#E0E0E0" mask="url(#path-8-inside-2_21233_117652)"/>
<mask id="path-10-inside-3_21233_117652" fill="white">
<path d="M41.7387 47.3587C40.3258 47.3587 37.5475 45.8154 37.4297 45.7497L37.5507 45.5332C37.5787 45.5488 40.3901 47.1107 41.7387 47.1107V47.3587Z"/>
</mask>
<path d="M41.7387 47.3587C40.3258 47.3587 37.5475 45.8154 37.4297 45.7497L37.5507 45.5332C37.5787 45.5488 40.3901 47.1107 41.7387 47.1107V47.3587Z" fill="#B6DCFD"/>
<path d="M41.7387 47.3587V48.3587H42.7387V47.3587H41.7387ZM37.4297 45.7497L36.5568 45.2618L36.0685 46.1354L36.9425 46.623L37.4297 45.7497ZM37.5507 45.5332L38.0377 44.6598L37.1652 44.1734L36.6778 45.0453L37.5507 45.5332ZM41.7387 47.1107H42.7387V46.1107H41.7387V47.1107ZM41.7387 47.3587V46.3587C41.5391 46.3587 41.2163 46.2987 40.7873 46.1631C40.3746 46.0326 39.9283 45.8535 39.5049 45.6652C38.6589 45.2888 37.9647 44.9031 37.9169 44.8764L37.4297 45.7497L36.9425 46.623C37.0125 46.662 37.7664 47.0808 38.6921 47.4926C39.1547 47.6983 39.6752 47.9091 40.1845 48.0701C40.6775 48.2259 41.2318 48.3587 41.7387 48.3587V47.3587ZM37.4297 45.7497L38.3026 46.2376L38.4236 46.0211L37.5507 45.5332L36.6778 45.0453L36.5568 45.2618L37.4297 45.7497ZM37.5507 45.5332L37.0638 46.4066C37.0894 46.4209 37.8276 46.8309 38.7402 47.2402C39.1961 47.4447 39.7109 47.656 40.2117 47.8179C40.6933 47.9737 41.242 48.1107 41.7387 48.1107V47.1107V46.1107C41.5611 46.1107 41.2526 46.0526 40.8269 45.9149C40.4204 45.7835 39.9777 45.6034 39.5587 45.4154C39.1421 45.2285 38.7627 45.0402 38.4851 44.8973C38.2079 44.7545 38.0367 44.6592 38.0377 44.6598L37.5507 45.5332ZM41.7387 47.1107H40.7387V47.3587H41.7387H42.7387V47.1107H41.7387Z" fill="#E0E0E0" mask="url(#path-10-inside-3_21233_117652)"/>
<path d="M80.2514 36.7966C79.9099 37.6902 80.7655 38.8473 80.7655 38.8473C80.7655 38.8473 82.1749 38.5559 82.5164 37.6624C82.8579 36.7688 82.6277 35.8507 82.0023 35.6114C81.3768 35.3726 80.5929 35.9031 80.2514 36.7966Z" stroke="#E0E0E0" stroke-miterlimit="10"/>
<path d="M83.2348 40.6838C82.2978 40.8762 81.7822 42.2202 81.7822 42.2202C81.7822 42.2202 82.7859 43.2516 83.7228 43.0591C84.6598 42.8667 85.3103 42.1787 85.1754 41.5228C85.0407 40.8668 84.172 40.4911 83.2348 40.6838Z" stroke="#E0E0E0" stroke-miterlimit="10"/>
<mask id="path-14-inside-4_21233_117652" fill="white">
<path d="M72.6217 54.7599C72.687 54.5982 79.2399 38.5764 86.5812 36.7955L86.5226 36.5547C83.3835 37.316 80.0498 40.5988 76.6145 46.3118C74.0639 50.5535 72.408 54.6264 72.3916 54.6671L72.6217 54.7599Z"/>
</mask>
<path d="M72.6217 54.7599C72.687 54.5982 79.2399 38.5764 86.5812 36.7955L86.5226 36.5547C83.3835 37.316 80.0498 40.5988 76.6145 46.3118C74.0639 50.5535 72.408 54.6264 72.3916 54.6671L72.6217 54.7599Z" fill="#B6DCFD"/>
<path d="M72.6217 54.7599L72.2479 55.6874L73.1752 56.0611L73.5491 55.134L72.6217 54.7599ZM86.5812 36.7955L86.8169 37.7673L87.7892 37.5315L87.5529 36.5593L86.5812 36.7955ZM86.5226 36.5547L87.4944 36.3185L87.2583 35.3473L86.2869 35.5829L86.5226 36.5547ZM76.6145 46.3118L77.4715 46.8271L77.4715 46.8271L76.6145 46.3118ZM72.3916 54.6671L71.4639 54.2938L71.0908 55.221L72.0178 55.5946L72.3916 54.6671ZM72.6217 54.7599L73.5491 55.134C73.5491 55.1342 73.5508 55.1299 73.5547 55.1202C73.5585 55.1112 73.5638 55.0983 73.5706 55.0817C73.5844 55.0485 73.6043 55.0007 73.6302 54.9393C73.6819 54.8165 73.7575 54.6393 73.8555 54.4151C74.0516 53.9665 74.3372 53.3301 74.7012 52.5646C75.43 51.0317 76.4691 48.9892 77.7291 46.9016C78.992 44.8091 80.46 42.6995 82.0411 41.0155C83.6383 39.3143 85.2608 38.1448 86.8169 37.7673L86.5812 36.7955L86.3454 35.8237C84.2309 36.3366 82.2813 37.8377 80.583 39.6465C78.8687 41.4725 77.3179 43.7124 76.0168 45.8682C73.4135 50.1815 71.736 54.2825 71.6944 54.3858L72.6217 54.7599ZM86.5812 36.7955L87.5529 36.5593L87.4944 36.3185L86.5226 36.5547L85.5509 36.7909L85.6095 37.0317L86.5812 36.7955ZM86.5226 36.5547L86.2869 35.5829C84.4801 36.0211 82.7083 37.1599 80.978 38.8639C79.2434 40.572 77.5016 42.896 75.7576 45.7964L76.6145 46.3118L77.4715 46.8271C79.1628 44.0146 80.8055 41.8407 82.3813 40.2889C83.9614 38.7329 85.426 37.8497 86.7583 37.5265L86.5226 36.5547ZM76.6145 46.3118L75.7576 45.7964C73.1674 50.1038 71.4887 54.2322 71.4639 54.2938L72.3916 54.6671L73.3193 55.0405C73.319 55.0413 73.3447 54.9779 73.3953 54.8572C73.4455 54.7375 73.5198 54.5625 73.6167 54.3398C73.8104 53.8943 74.0943 53.2585 74.4567 52.4925C75.1823 50.9585 76.2184 48.9111 77.4715 46.8271L76.6145 46.3118ZM72.3916 54.6671L72.0178 55.5946L72.2479 55.6874L72.6217 54.7599L72.9956 53.8324L72.7654 53.7396L72.3916 54.6671Z" fill="#E0E0E0" mask="url(#path-14-inside-4_21233_117652)"/>
<path d="M84.6677 35.9374C83.735 36.4642 83.6465 38.0735 83.6465 38.0735C83.6465 38.0735 85.0702 38.8286 86.003 38.3019C86.9357 37.7751 87.3928 36.8188 87.0242 36.1658C86.6555 35.5129 85.6005 35.4107 84.6677 35.9374Z" stroke="#E0E0E0" stroke-miterlimit="10"/>
<mask id="path-17-inside-5_21233_117652" fill="white">
<path d="M79.998 41.3345L80.2426 41.3754C80.5164 39.7421 81.7149 36.4765 81.7271 36.4437L81.4945 36.3579C81.4449 36.4928 80.2756 39.6781 79.998 41.3345Z"/>
</mask>
<path d="M79.998 41.3345L80.2426 41.3754C80.5164 39.7421 81.7149 36.4765 81.7271 36.4437L81.4945 36.3579C81.4449 36.4928 80.2756 39.6781 79.998 41.3345Z" fill="#B6DCFD"/>
<path d="M79.998 41.3345L79.0118 41.1693L78.8465 42.1557L79.833 42.3208L79.998 41.3345ZM80.2426 41.3754L80.0775 42.3617L81.0635 42.5267L81.2288 41.5408L80.2426 41.3754ZM81.7271 36.4437L82.6646 36.7917L83.0133 35.8523L82.0732 35.5055L81.7271 36.4437ZM81.4945 36.3579L81.8406 35.4197L80.9013 35.0732L80.5559 36.0128L81.4945 36.3579ZM79.998 41.3345L79.833 42.3208L80.0775 42.3617L80.2426 41.3754L80.4076 40.3892L80.1631 40.3482L79.998 41.3345ZM80.2426 41.3754L81.2288 41.5408C81.3517 40.8077 81.6966 39.6492 82.0333 38.6204C82.1982 38.1168 82.3552 37.6617 82.4718 37.3304C82.5301 37.1649 82.5781 37.0307 82.6118 36.9372C82.6459 36.8425 82.6647 36.7914 82.6646 36.7917L81.7271 36.4437L80.7896 36.0957C80.7889 36.0975 79.5493 39.4626 79.2563 41.2101L80.2426 41.3754ZM81.7271 36.4437L82.0732 35.5055L81.8406 35.4197L81.4945 36.3579L81.1484 37.2961L81.381 37.3819L81.7271 36.4437ZM81.4945 36.3579L80.5559 36.0128C80.5189 36.1136 79.3083 39.3996 79.0118 41.1693L79.998 41.3345L80.9843 41.4998C81.2428 39.9567 82.3709 36.8721 82.4331 36.703L81.4945 36.3579Z" fill="#E0E0E0" mask="url(#path-17-inside-5_21233_117652)"/>
<mask id="path-19-inside-6_21233_117652" fill="white">
<path d="M79.793 42.195C81.1461 42.6019 84.2513 41.9246 84.383 41.8956L84.3294 41.6533C84.2979 41.6603 81.156 42.346 79.8646 41.9574L79.793 42.195Z"/>
</mask>
<path d="M79.793 42.195C81.1461 42.6019 84.2513 41.9246 84.383 41.8956L84.3294 41.6533C84.2979 41.6603 81.156 42.346 79.8646 41.9574L79.793 42.195Z" fill="#B6DCFD"/>
<path d="M79.793 42.195L78.8356 41.9061L78.5465 42.8643L79.5049 43.1526L79.793 42.195ZM84.383 41.8956L84.5981 42.8722L85.5754 42.6569L85.3594 41.6797L84.383 41.8956ZM84.3294 41.6533L85.3058 41.4374L85.0901 40.4616L84.1141 40.6768L84.3294 41.6533ZM79.8646 41.9574L80.1528 40.9998L79.1959 40.7118L78.9073 41.6686L79.8646 41.9574ZM79.793 42.195L79.5049 43.1526C79.9903 43.2986 80.5594 43.331 81.0764 43.3239C81.6105 43.3164 82.1697 43.2646 82.6719 43.2008C83.677 43.0733 84.5196 42.8895 84.5981 42.8722L84.383 41.8956L84.1678 40.919C84.1146 40.9308 83.3388 41.1001 82.4201 41.2167C81.9604 41.2751 81.4814 41.318 81.0486 41.324C80.5986 41.3303 80.2722 41.2948 80.081 41.2373L79.793 42.195ZM84.383 41.8956L85.3594 41.6797L85.3058 41.4374L84.3294 41.6533L83.353 41.8692L83.4065 42.1115L84.383 41.8956ZM84.3294 41.6533L84.1141 40.6768C84.1157 40.6764 83.9245 40.7183 83.6177 40.7752C83.3107 40.8321 82.8932 40.9031 82.4404 40.962C81.9851 41.0213 81.5093 41.0663 81.0822 41.075C80.635 41.0841 80.3228 41.051 80.1528 40.9998L79.8646 41.9574L79.5765 42.9149C80.0521 43.0581 80.617 43.0849 81.1231 43.0746C81.6492 43.0638 82.203 43.0098 82.6985 42.9453C83.6902 42.8163 84.5152 42.6364 84.5447 42.6299L84.3294 41.6533ZM79.8646 41.9574L78.9073 41.6686L78.8356 41.9061L79.793 42.195L80.7504 42.4838L80.822 42.2462L79.8646 41.9574Z" fill="#E0E0E0" mask="url(#path-19-inside-6_21233_117652)"/>
<path d="M105.752 66.2361C104.796 66.2041 104.062 64.9666 104.062 64.9666C104.062 64.9666 104.877 63.7807 105.833 63.8126C106.789 63.8446 107.546 64.4131 107.524 65.0822C107.502 65.7513 106.708 66.2678 105.752 66.2361Z" stroke="#E0E0E0" stroke-miterlimit="10"/>
<path d="M104.548 63.3793C104.052 63.9668 102.905 63.8145 102.905 63.8145C102.905 63.8145 102.563 62.7097 103.059 62.1219C103.555 61.5344 104.29 61.3395 104.701 61.6867C105.113 62.0341 105.044 62.7918 104.548 63.3793Z" stroke="#E0E0E0" stroke-miterlimit="10"/>
<path d="M98.0939 65.5177C97.3822 65.8086 96.4365 65.1422 96.4365 65.1422C96.4365 65.1422 96.6448 64.0044 97.3566 63.7135C98.0684 63.4226 98.8104 63.5907 99.014 64.0889C99.2176 64.5872 98.8057 65.227 98.0939 65.5177Z" stroke="#E0E0E0" stroke-miterlimit="10"/>
<path d="M100.982 68.7767C100.312 68.3997 100.246 67.2448 100.246 67.2448C100.246 67.2448 101.267 66.7009 101.937 67.0779C102.607 67.4548 102.937 68.1405 102.673 68.6098C102.409 69.0787 101.652 69.1534 100.982 68.7767Z" stroke="#E0E0E0" stroke-miterlimit="10"/>
<mask id="path-25-inside-7_21233_117652" fill="white">
<path d="M85.2456 76.1207L85.0098 76.0441C85.0189 76.0158 85.9613 73.197 89.0152 70.4351C94.1104 65.8267 101.074 64.8908 106.021 64.9181L106.019 65.1661C101.117 65.1393 94.2178 66.0636 89.1816 70.6188C86.1764 73.3372 85.2545 76.0934 85.2456 76.1207Z"/>
</mask>
<path d="M85.2456 76.1207L85.0098 76.0441C85.0189 76.0158 85.9613 73.197 89.0152 70.4351C94.1104 65.8267 101.074 64.8908 106.021 64.9181L106.019 65.1661C101.117 65.1393 94.2178 66.0636 89.1816 70.6188C86.1764 73.3372 85.2545 76.0934 85.2456 76.1207Z" fill="#B6DCFD"/>
<path d="M85.2456 76.1207L84.9366 77.0718L85.8856 77.3801L86.196 76.4317L85.2456 76.1207ZM85.0098 76.0441L84.0586 75.7354L83.75 76.6862L84.7008 76.9951L85.0098 76.0441ZM89.0152 70.4351L89.686 71.1767L89.686 71.1767L89.0152 70.4351ZM106.021 64.9181L107.021 64.924L107.027 63.9236L106.026 63.9181L106.021 64.9181ZM106.019 65.1661L106.014 66.166L107.013 66.1715L107.019 65.172L106.019 65.1661ZM89.1816 70.6188L88.5108 69.8772L88.5108 69.8772L89.1816 70.6188ZM85.2456 76.1207L85.5546 75.1697L85.3188 75.093L85.0098 76.0441L84.7008 76.9951L84.9366 77.0718L85.2456 76.1207ZM85.0098 76.0441L85.9609 76.3528C85.9363 76.4286 86.803 73.7842 89.686 71.1767L89.0152 70.4351L88.3444 69.6934C85.1197 72.6099 84.1016 75.603 84.0586 75.7354L85.0098 76.0441ZM89.0152 70.4351L89.686 71.1767C94.5022 66.8207 101.154 65.8912 106.015 65.918L106.021 64.9181L106.026 63.9181C100.995 63.8903 93.7186 64.8327 88.3444 69.6934L89.0152 70.4351ZM106.021 64.9181L105.021 64.9121L105.019 65.1601L106.019 65.1661L107.019 65.172L107.021 64.924L106.021 64.9181ZM106.019 65.1661L106.025 64.1661C101.039 64.1388 93.8264 65.0692 88.5108 69.8772L89.1816 70.6188L89.8524 71.3605C94.6091 67.0579 101.196 66.1397 106.014 66.166L106.019 65.1661ZM89.1816 70.6188L88.5108 69.8772C85.3351 72.7497 84.3378 75.6797 84.2952 75.8097L85.2456 76.1207L86.196 76.4317C86.1713 76.5072 87.0177 73.9246 89.8524 71.3605L89.1816 70.6188Z" fill="#E0E0E0" mask="url(#path-25-inside-7_21233_117652)"/>
<mask id="path-27-inside-8_21233_117652" fill="white">
<path d="M94.3378 67.2188L94.1553 67.0511C94.2475 66.9507 96.4398 64.583 98.3304 64.0947L98.3924 64.3348C96.5733 64.8045 94.3601 67.1947 94.3378 67.2188Z"/>
</mask>
<path d="M94.3378 67.2188L94.1553 67.0511C94.2475 66.9507 96.4398 64.583 98.3304 64.0947L98.3924 64.3348C96.5733 64.8045 94.3601 67.1947 94.3378 67.2188Z" fill="#B6DCFD"/>
<path d="M94.3378 67.2188L93.6613 67.9553L94.3941 68.6283L95.0709 67.8989L94.3378 67.2188ZM94.1553 67.0511L93.4188 66.3747L92.7423 67.1112L93.4788 67.7876L94.1553 67.0511ZM98.3304 64.0947L99.2986 63.8447L99.0485 62.8764L98.0803 63.1265L98.3304 64.0947ZM98.3924 64.3348L98.6424 65.303L99.6106 65.053L99.3606 64.0847L98.3924 64.3348ZM94.3378 67.2188L95.0142 66.4823L94.8317 66.3147L94.1553 67.0511L93.4788 67.7876L93.6613 67.9553L94.3378 67.2188ZM94.1553 67.0511L94.8917 67.7276C94.9228 67.6938 95.4608 67.1119 96.2099 66.4855C96.9891 65.834 97.8651 65.2477 98.5804 65.0629L98.3304 64.0947L98.0803 63.1265C96.9051 63.43 95.7396 64.2717 94.927 64.9512C94.0842 65.6559 93.48 66.308 93.4188 66.3747L94.1553 67.0511ZM98.3304 64.0947L97.3621 64.3448L97.4241 64.5849L98.3924 64.3348L99.3606 64.0847L99.2986 63.8447L98.3304 64.0947ZM98.3924 64.3348L98.1423 63.3666C96.9978 63.6621 95.8419 64.5103 95.0474 65.1788C94.6313 65.5289 94.2765 65.8628 94.0242 66.1107C93.8977 66.2349 93.796 66.3384 93.7244 66.4127C93.6885 66.4498 93.6601 66.4797 93.6398 66.5012C93.6297 66.5119 93.6215 66.5206 93.6155 66.5271C93.6125 66.5303 93.61 66.5329 93.6081 66.535C93.6072 66.536 93.6064 66.5369 93.6057 66.5375C93.6055 66.5378 93.6043 66.5391 93.6047 66.5386L94.3378 67.2188L95.0709 67.8989C95.0712 67.8986 95.079 67.8901 95.0942 67.874C95.1097 67.8576 95.1329 67.8332 95.1633 67.8018C95.224 67.7388 95.3132 67.648 95.4257 67.5375C95.6515 67.3157 95.9678 67.0182 96.3352 66.7091C97.1077 66.059 97.9679 65.4772 98.6424 65.303L98.3924 64.3348Z" fill="#E0E0E0" mask="url(#path-27-inside-8_21233_117652)"/>
<mask id="path-29-inside-9_21233_117652" fill="white">
<path d="M102.217 68.1582C100.706 68.1825 97.9423 66.3557 97.8252 66.2779L97.9626 66.0713C97.9906 66.0899 100.779 67.9335 102.213 67.91L102.217 68.1582Z"/>
</mask>
<path d="M102.217 68.1582C100.706 68.1825 97.9423 66.3557 97.8252 66.2779L97.9626 66.0713C97.9906 66.0899 100.779 67.9335 102.213 67.91L102.217 68.1582Z" fill="#B6DCFD"/>
<path d="M102.217 68.1582L102.233 69.1581L103.233 69.142L103.217 68.1422L102.217 68.1582ZM97.8252 66.2779L96.9925 65.7241L96.4388 66.5567L97.2713 67.1105L97.8252 66.2779ZM97.9626 66.0713L98.5156 65.2381L97.6832 64.6856L97.1299 65.5175L97.9626 66.0713ZM102.213 67.91L103.213 67.894L103.197 66.8937L102.197 66.9101L102.213 67.91ZM102.217 68.1582L102.201 67.1583C102.002 67.1615 101.679 67.0985 101.246 66.9438C100.83 66.7953 100.383 66.5883 99.9583 66.3684C99.1103 65.9291 98.4244 65.4754 98.3791 65.4453L97.8252 66.2779L97.2713 67.1105C97.3431 67.1582 98.0974 67.6568 99.0383 68.1443C99.5084 68.3878 100.043 68.6378 100.574 68.8274C101.087 69.0109 101.677 69.167 102.233 69.1581L102.217 68.1582ZM97.8252 66.2779L98.6579 66.8316L98.7953 66.6251L97.9626 66.0713L97.1299 65.5175L96.9925 65.7241L97.8252 66.2779ZM97.9626 66.0713L97.4096 66.9045C97.4367 66.9224 98.1732 67.4093 99.0969 67.8925C99.5583 68.1339 100.084 68.3839 100.604 68.5742C101.103 68.7571 101.685 68.9188 102.23 68.9098L102.213 67.91L102.197 66.9101C102.024 66.9129 101.72 66.853 101.292 66.6962C100.884 66.5469 100.442 66.3393 100.024 66.1204C99.6084 65.9029 99.2318 65.6829 98.9567 65.5155C98.6819 65.3483 98.5136 65.2368 98.5156 65.2381L97.9626 66.0713ZM102.213 67.91L101.213 67.9259L101.217 68.1742L102.217 68.1582L103.217 68.1422L103.213 67.894L102.213 67.91Z" fill="#E0E0E0" mask="url(#path-29-inside-9_21233_117652)"/>
<mask id="path-31-inside-10_21233_117652" fill="white">
<path d="M102.072 65.2392L101.857 65.1152C101.911 65.0217 103.192 62.8183 104.179 62.6201L104.228 62.8634C103.499 63.0095 102.425 64.6279 102.072 65.2392Z"/>
</mask>
<path d="M102.072 65.2392L101.857 65.1152C101.911 65.0217 103.192 62.8183 104.179 62.6201L104.228 62.8634C103.499 63.0095 102.425 64.6279 102.072 65.2392Z" fill="#B6DCFD"/>
<path d="M102.072 65.2392L101.571 66.105L102.438 66.6059L102.938 65.7389L102.072 65.2392ZM101.857 65.1152L100.992 64.6147L100.491 65.4805L101.357 65.981L101.857 65.1152ZM104.179 62.6201L105.159 62.4223L104.961 61.443L103.982 61.6397L104.179 62.6201ZM104.228 62.8634L104.424 63.8439L105.406 63.6471L105.208 62.6656L104.228 62.8634ZM102.072 65.2392L102.572 64.3735L102.358 64.2495L101.857 65.1152L101.357 65.981L101.571 66.105L102.072 65.2392ZM101.857 65.1152L102.723 65.6158C102.742 65.5823 103.051 65.0516 103.462 64.5153C103.669 64.2459 103.882 64.0005 104.08 63.8206C104.302 63.6188 104.401 63.5955 104.376 63.6005L104.179 62.6201L103.982 61.6397C103.463 61.7439 103.032 62.0703 102.735 62.3403C102.414 62.6322 102.118 62.9806 101.875 63.2985C101.385 63.9369 101.026 64.5546 100.992 64.6147L101.857 65.1152ZM104.179 62.6201L103.198 62.818L103.248 63.0612L104.228 62.8634L105.208 62.6656L105.159 62.4223L104.179 62.6201ZM104.228 62.8634L104.031 61.8829C103.587 61.972 103.221 62.2433 102.976 62.4563C102.707 62.6907 102.453 62.9743 102.231 63.248C101.788 63.7965 101.402 64.3992 101.206 64.7396L102.072 65.2392L102.938 65.7389C103.094 65.4679 103.422 64.9558 103.786 64.5057C103.969 64.2801 104.142 64.0936 104.29 63.9643C104.463 63.8137 104.504 63.8279 104.424 63.8439L104.228 62.8634Z" fill="#E0E0E0" mask="url(#path-31-inside-10_21233_117652)"/>
<path d="M16.232 66.1424C17.0221 66.0226 17.5107 64.9243 17.5107 64.9243C17.5107 64.9243 16.7186 64.0201 15.9284 64.1398C15.1383 64.2596 14.5659 64.805 14.6498 65.358C14.7336 65.911 15.4419 66.2622 16.232 66.1424Z" stroke="#E0E0E0" stroke-miterlimit="10"/>
<path d="M16.9516 63.6554C17.4203 64.0943 18.3568 63.8563 18.3568 63.8563C18.3568 63.8563 18.5333 62.9062 18.0646 62.4672C17.5959 62.0283 16.9667 61.9382 16.6594 62.2663C16.3522 62.5944 16.4829 63.2164 16.9516 63.6554Z" stroke="#E0E0E0" stroke-miterlimit="10"/>
<path d="M22.5147 64.7999C23.1334 64.9718 23.8529 64.3268 23.8529 64.3268C23.8529 64.3268 23.5691 63.403 22.9501 63.2311C22.3314 63.0592 21.7322 63.271 21.6119 63.7043C21.4919 64.1375 21.8959 64.6281 22.5147 64.7999Z" stroke="#E0E0E0" stroke-miterlimit="10"/>
<path d="M20.4369 67.7848C20.9562 67.4069 20.898 66.4422 20.898 66.4422C20.898 66.4422 19.998 66.0905 19.4787 66.4687C18.9594 66.8467 18.753 67.4478 19.0176 67.8114C19.2825 68.1747 19.9179 68.1628 20.4369 67.7848Z" stroke="#E0E0E0" stroke-miterlimit="10"/>
<mask id="path-37-inside-11_21233_117652" fill="white">
<path d="M34.2076 72.3421L34.3956 72.2555C34.3851 72.233 33.3284 69.9863 30.5255 67.9929C25.849 64.667 19.9808 64.5698 15.8799 65.075L15.9054 65.2805C19.9694 64.7801 25.7833 64.8738 30.4055 68.1616C33.164 70.1237 34.1974 72.3203 34.2076 72.3421Z"/>
</mask>
<path d="M34.2076 72.3421L34.3956 72.2555C34.3851 72.233 33.3284 69.9863 30.5255 67.9929C25.849 64.667 19.9808 64.5698 15.8799 65.075L15.9054 65.2805C19.9694 64.7801 25.7833 64.8738 30.4055 68.1616C33.164 70.1237 34.1974 72.3203 34.2076 72.3421Z" fill="#B6DCFD"/>
<path d="M34.2076 72.3421L33.3011 72.7644L33.7216 73.6668L34.6258 73.2504L34.2076 72.3421ZM34.3956 72.2555L34.8138 73.1639L35.723 72.7453L35.3035 71.8365L34.3956 72.2555ZM30.5255 67.9929L31.1051 67.178L31.1051 67.178L30.5255 67.9929ZM15.8799 65.075L15.7576 64.0825L14.7641 64.2048L14.8875 65.1983L15.8799 65.075ZM15.9054 65.2805L14.9131 65.4039L15.0362 66.3951L16.0277 66.2731L15.9054 65.2805ZM30.4055 68.1616L30.9851 67.3467L30.9851 67.3467L30.4055 68.1616ZM34.2076 72.3421L34.6258 73.2504L34.8138 73.1639L34.3956 72.2555L33.9773 71.3472L33.7894 71.4338L34.2076 72.3421ZM34.3956 72.2555L35.3035 71.8365C35.248 71.7161 34.096 69.3052 31.1051 67.178L30.5255 67.9929L29.9459 68.8078C32.5608 70.6675 33.5223 72.7498 33.4876 72.6746L34.3956 72.2555ZM30.5255 67.9929L31.1051 67.178C26.122 63.6341 19.9431 63.5669 15.7576 64.0825L15.8799 65.075L16.0021 66.0675C20.0185 65.5727 25.576 65.6999 29.946 68.8078L30.5255 67.9929ZM15.8799 65.075L14.8875 65.1983L14.9131 65.4039L15.9054 65.2805L16.8978 65.1572L16.8723 64.9517L15.8799 65.075ZM15.9054 65.2805L16.0277 66.2731C20.0081 65.7829 25.5107 65.9071 29.8259 68.9764L30.4055 68.1616L30.9851 67.3467C26.0559 63.8406 19.9307 63.7773 15.7832 64.288L15.9054 65.2805ZM30.4055 68.1616L29.8259 68.9764C32.3966 70.805 33.3353 72.8378 33.3011 72.7644L34.2076 72.3421L35.114 71.9198C35.0595 71.8028 33.9314 69.4424 30.9851 67.3467L30.4055 68.1616Z" fill="#E0E0E0" mask="url(#path-37-inside-11_21233_117652)"/>
<mask id="path-39-inside-12_21233_117652" fill="white">
<path d="M25.7965 65.8443L25.9314 65.6873C25.8451 65.6129 23.7954 63.8626 22.1794 63.6421L22.1514 63.8474C23.7066 64.0597 25.7756 65.8265 25.7965 65.8443Z"/>
</mask>
<path d="M25.7965 65.8443L25.9314 65.6873C25.8451 65.6129 23.7954 63.8626 22.1794 63.6421L22.1514 63.8474C23.7066 64.0597 25.7756 65.8265 25.7965 65.8443Z" fill="#B6DCFD"/>
<path d="M25.7965 65.8443L25.1457 66.6036L25.9039 67.2535L26.5549 66.4961L25.7965 65.8443ZM25.9314 65.6873L26.6898 66.3391L27.3406 65.5819L26.5843 64.9299L25.9314 65.6873ZM22.1794 63.6421L22.3146 62.6513L21.3238 62.5161L21.1886 63.5069L22.1794 63.6421ZM22.1514 63.8474L21.1606 63.7122L21.0253 64.703L22.0161 64.8382L22.1514 63.8474ZM25.7965 65.8443L26.5549 66.4961L26.6898 66.3391L25.9314 65.6873L25.173 65.0356L25.0381 65.1926L25.7965 65.8443ZM25.9314 65.6873L26.5843 64.9299C26.5237 64.8777 25.9527 64.3905 25.1765 63.8827C24.433 63.3963 23.3579 62.7936 22.3146 62.6513L22.1794 63.6421L22.0442 64.6329C22.6169 64.711 23.3746 65.0938 24.0815 65.5563C24.7557 65.9974 25.2527 66.4226 25.2784 66.4448L25.9314 65.6873ZM22.1794 63.6421L21.1886 63.5069L21.1606 63.7122L22.1514 63.8474L23.1422 63.9827L23.1702 63.7773L22.1794 63.6421ZM22.1514 63.8474L22.0161 64.8382C22.5533 64.9116 23.297 65.2914 23.9993 65.7539C24.6646 66.1922 25.1516 66.6087 25.1457 66.6036L25.7965 65.8443L26.4473 65.0851C26.4205 65.0621 25.8625 64.5863 25.0994 64.0837C24.3731 63.6053 23.3047 62.9956 22.2866 62.8566L22.1514 63.8474Z" fill="#E0E0E0" mask="url(#path-39-inside-12_21233_117652)"/>
<mask id="path-41-inside-13_21233_117652" fill="white">
<path d="M19.3512 67.3923C20.6075 67.2651 22.722 65.48 22.8113 65.4041L22.6771 65.2461C22.6558 65.2642 20.5227 67.0657 19.3301 67.1862L19.3512 67.3923Z"/>
</mask>
<path d="M19.3512 67.3923C20.6075 67.2651 22.722 65.48 22.8113 65.4041L22.6771 65.2461C22.6558 65.2642 20.5227 67.0657 19.3301 67.1862L19.3512 67.3923Z" fill="#B6DCFD"/>
<path d="M19.3512 67.3923L18.3563 67.494L18.458 68.4878L19.4519 68.3872L19.3512 67.3923ZM22.8113 65.4041L23.4589 66.166L24.2205 65.5186L23.5735 64.7567L22.8113 65.4041ZM22.6771 65.2461L23.4393 64.5988L22.7921 63.8368L22.03 64.4837L22.6771 65.2461ZM19.3301 67.1862L19.2295 66.1913L18.2334 66.2919L18.3353 67.288L19.3301 67.1862ZM19.3512 67.3923L19.4519 68.3872C19.9435 68.3374 20.4384 68.1402 20.8532 67.9347C21.2841 67.7212 21.7096 67.4573 22.0794 67.207C22.8195 66.7061 23.4018 66.2145 23.4589 66.166L22.8113 65.4041L22.1636 64.6421C22.1314 64.6695 21.6119 65.1084 20.9583 65.5508C20.6313 65.7722 20.2871 65.9832 19.9653 66.1426C19.6275 66.3099 19.387 66.3835 19.2504 66.3974L19.3512 67.3923ZM22.8113 65.4041L23.5735 64.7567L23.4393 64.5988L22.6771 65.2461L21.9149 65.8934L22.0491 66.0514L22.8113 65.4041ZM22.6771 65.2461L22.03 64.4837C22.0319 64.482 21.5232 64.912 20.879 65.3519C20.5565 65.572 20.2168 65.7831 19.9019 65.9424C19.5678 66.1113 19.3427 66.1798 19.2295 66.1913L19.3301 67.1862L19.4306 68.1811C19.9138 68.1323 20.4025 67.9304 20.8045 67.7271C21.2256 67.5142 21.6442 67.2511 22.0067 67.0036C22.7325 66.508 23.3009 66.0283 23.3242 66.0085L22.6771 65.2461ZM19.3301 67.1862L18.3353 67.288L18.3563 67.494L19.3512 67.3923L20.346 67.2905L20.3249 67.0844L19.3301 67.1862Z" fill="#E0E0E0" mask="url(#path-41-inside-13_21233_117652)"/>
<mask id="path-43-inside-14_21233_117652" fill="white">
<path d="M19.1872 64.9571L19.3531 64.8334C19.2993 64.761 18.0218 63.0579 17.1841 62.9897L17.167 63.1963C17.786 63.2467 18.8353 64.4844 19.1872 64.9571Z"/>
</mask>
<path d="M19.1872 64.9571L19.3531 64.8334C19.2993 64.761 18.0218 63.0579 17.1841 62.9897L17.167 63.1963C17.786 63.2467 18.8353 64.4844 19.1872 64.9571Z" fill="#B6DCFD"/>
<path d="M19.1872 64.9571L18.3851 65.5543L18.9828 66.3572L19.7851 65.7587L19.1872 64.9571ZM19.3531 64.8334L19.951 65.6349L20.7512 65.0381L20.1557 64.2369L19.3531 64.8334ZM17.1841 62.9897L17.2652 61.993L16.27 61.912L16.1875 62.9072L17.1841 62.9897ZM17.167 63.1963L16.1704 63.1138L16.0877 64.1119L17.0859 64.193L17.167 63.1963ZM19.1872 64.9571L19.7851 65.7587L19.951 65.6349L19.3531 64.8334L18.7552 64.0318L18.5893 64.1556L19.1872 64.9571ZM19.3531 64.8334L20.1557 64.2369C20.1182 64.1864 19.7552 63.7024 19.2797 63.2131C19.043 62.9695 18.7564 62.7016 18.4503 62.4828C18.1706 62.2829 17.7511 62.0326 17.2652 61.993L17.1841 62.9897L17.103 63.9864C17.036 63.981 17.0903 63.9691 17.2874 64.11C17.4581 64.232 17.6513 64.4072 17.8454 64.6069C18.2316 65.0042 18.5342 65.408 18.5505 65.4299L19.3531 64.8334ZM17.1841 62.9897L16.1875 62.9072L16.1704 63.1138L17.167 63.1963L18.1636 63.2789L18.1807 63.0723L17.1841 62.9897ZM17.167 63.1963L17.0859 64.193C16.9744 64.184 16.9782 64.148 17.13 64.2518C17.2548 64.3371 17.4088 64.4679 17.5785 64.6337C17.9169 64.9643 18.2332 65.3503 18.3851 65.5543L19.1872 64.9571L19.9893 64.36C19.7893 64.0913 19.405 63.6221 18.9761 63.203C18.7621 62.994 18.5156 62.7763 18.2586 62.6007C18.0286 62.4434 17.6691 62.2339 17.2481 62.1996L17.167 63.1963Z" fill="#E0E0E0" mask="url(#path-43-inside-14_21233_117652)"/>
<path d="M91.3693 88.8301H30.9741C30.3707 88.8301 29.877 89.3432 29.877 89.9701V90.2901C29.877 90.5249 29.9461 90.7434 30.0644 90.9254L31.0349 99.319C31.0349 99.319 32.1075 100.019 32.5365 98.794C32.8492 97.9012 33.617 93.6641 34.0109 91.4304H43.5028L44.3341 98.6189C44.3341 98.6189 45.4067 99.319 45.8355 98.0939C46.1177 97.2876 46.7717 93.7534 47.1859 91.4304H74.6781L75.6511 99.844C75.6511 99.844 76.7236 100.544 77.1524 99.319C77.492 98.3498 78.3676 93.4404 78.7191 91.4304H88.058L88.9498 99.1441C88.9498 99.1441 90.0224 99.8443 90.4514 98.6191C90.7634 97.7281 91.529 93.5051 91.9236 91.2682C92.2465 91.0693 92.4664 90.7069 92.4664 90.2906V89.9706C92.4662 89.3432 91.9724 88.8301 91.3693 88.8301Z" fill="#DADAD5"/>
<path d="M48.0939 64.0718C47.9062 64.0629 47.7207 64.0666 47.5374 64.079L32.4655 64.2717C29.6484 64.1383 27.2399 66.4568 27.1131 69.4241L26.4222 85.6091C26.2955 88.5764 28.4967 91.1132 31.3138 91.2467C31.5015 91.2556 31.687 91.2519 31.8705 91.2395L46.9425 91.0468C49.7595 91.1802 52.1681 88.8616 52.2948 85.8943L52.9857 69.7093C53.1125 66.7423 50.9112 64.2052 48.0939 64.0718Z" fill="#DADAD5"/>
<path opacity="0.24" d="M36.2306 85.8439L36.9215 69.6589C36.9996 67.8267 37.9495 66.244 39.3266 65.3311C39.7024 64.9819 40.1088 64.6709 40.5411 64.4033L32.4655 64.5065C29.6484 64.3731 27.2399 66.6916 27.1131 69.6589L26.4222 85.8439C26.2955 88.811 28.4967 91.348 31.3138 91.4814C31.5015 91.4904 31.687 91.4867 31.8705 91.4743L40.306 91.3664C37.8934 90.8342 36.1165 88.5169 36.2306 85.8439Z" fill="white"/>
<path d="M83.91 78.8661H45.3026C42.1044 78.8661 39.9884 76.3583 40.5978 73.3055L45.3656 49.4206C45.9518 46.484 48.9812 44.0908 52.0998 44.0908H89.7481C92.8667 44.0908 95.0266 46.484 94.5457 49.4206L90.635 73.3055C90.1353 76.3583 87.1082 78.8661 83.91 78.8661Z" fill="#DADAD5"/>
<path d="M80.2859 77.5173H47.0703C45.6515 77.5173 44.4251 76.9439 43.6169 75.9023C42.8359 74.8957 42.5505 73.5773 42.8126 72.1895L46.9145 50.4689C47.4381 47.6953 50.1316 45.4395 52.9186 45.4395H85.3089C86.6962 45.4395 87.9575 46.0185 88.769 47.0281C89.5393 47.9864 89.8513 49.2373 89.6479 50.55L86.2833 72.2706C85.8352 75.1637 83.1446 77.5173 80.2859 77.5173ZM52.9184 45.893C50.3255 45.893 47.821 47.9857 47.3351 50.5574L43.2332 72.278C42.9969 73.5302 43.2508 74.7149 43.9487 75.6146C44.6739 76.5491 45.7822 77.0634 47.07 77.0634H80.2857C82.9435 77.0634 85.4438 74.8805 85.8597 72.1969L89.2243 50.4763C89.4071 49.2973 89.1291 48.1769 88.4419 47.3218C87.7014 46.4002 86.5883 45.893 85.3087 45.893H52.9184Z" fill="#F5F5F5"/>
<path d="M84.789 89.933H43.5788C40.1376 89.933 37.3223 87.1175 37.3223 83.6765V81.5563C37.3223 78.1151 40.1378 75.2998 43.5788 75.2998H84.789C88.23 75.2998 91.0455 78.1153 91.0455 81.5563V83.6765C91.0455 87.1175 88.2302 89.933 84.789 89.933Z" fill="#DADAD5"/>
<g opacity="0.67">
<path d="M91.0458 81.314H37.3223V81.7676H91.0458V81.314Z" fill="#F5F5F5"/>
</g>
<g opacity="0.67">
<path d="M37.0997 81.6008C37.0771 81.4897 36.5677 78.8508 38.1802 76.9387C39.2856 75.6278 41.1049 75.0075 43.5854 75.0725L43.572 75.5261C41.242 75.4547 39.5415 76.0298 38.5292 77.2284C37.0573 78.9708 37.5394 81.486 37.5444 81.5113L37.0997 81.6008Z" fill="#F5F5F5"/>
</g>
<path d="M34.377 71.1383C34.2882 73.2497 33.0068 74.9051 31.5151 74.8357C30.0231 74.7663 28.8858 72.998 28.9746 70.8866C29.0634 68.7751 30.3445 67.1197 31.8365 67.1891C33.3285 67.2586 34.4658 69.0268 34.377 71.1383Z" fill="#DADAD5"/>
<path d="M78.4029 32.3498C78.4029 31.5545 78.1402 30.8236 77.703 30.2354C77.9064 29.2104 77.6051 28.0966 76.7998 27.2914C76.3988 26.8904 75.9211 26.6148 75.4162 26.4633C75.0102 25.2332 73.9547 24.3112 72.6651 24.1175C72.5087 23.7958 72.2996 23.4923 72.0318 23.2244C70.7617 21.9544 68.7229 21.9338 67.4785 23.1785C67.3805 23.2765 67.2932 23.3809 67.2111 23.4878C66.6955 23.0335 66.0254 22.7567 65.2906 22.7567C64.183 22.7567 63.2196 23.3819 62.7176 24.3047C61.6812 24.0701 60.5613 24.3461 59.7654 25.142C58.7072 26.2002 58.5671 27.8305 59.3282 29.0765C58.5594 29.7195 58.0684 30.6957 58.0684 31.7891C58.0684 33.7255 59.6067 35.2951 61.5042 35.2951C63.4016 35.2951 64.9399 33.7255 64.9399 31.7891C64.9399 31.0421 64.7093 30.3512 64.3192 29.7825C64.3341 29.7682 64.3502 29.756 64.3648 29.7414C64.6585 29.4477 64.8792 29.109 65.0322 28.7474C65.1175 28.7551 65.2033 28.7608 65.2906 28.7608C66.1797 28.7608 66.9748 28.3565 67.5142 27.7207C67.5179 27.7244 67.5209 27.7284 67.5246 27.7321C67.913 28.1204 68.3735 28.3905 68.8608 28.5448C69.2336 29.8773 70.3575 30.8839 71.7366 31.0582C71.7441 31.0719 71.753 31.0848 71.7607 31.0984C71.6146 31.4875 71.5313 31.9084 71.5313 32.3501C71.5313 33.0338 71.7262 33.6699 72.058 34.2093C72.0513 34.2292 72.0439 34.249 72.0377 34.2691C71.096 34.3128 70.1727 34.6853 69.4605 35.3978C67.9221 36.9361 67.9477 39.4558 69.5173 41.0256C71.0871 42.5955 73.6068 42.6208 75.1451 41.0824C75.9058 40.3218 76.2825 39.3214 76.281 38.3145C76.6924 38.162 77.0781 37.9239 77.4074 37.5948C78.3796 36.6226 78.5762 35.1676 78.0123 33.9713C78.2603 33.4859 78.4029 32.9351 78.4029 32.3498Z" fill="#101A46"/>
<path d="M65.5722 76.4786C66.2458 72.1602 56.9374 67.6714 56.9374 67.6714C51.5669 66.8237 47.0278 68.2755 45.3726 68.4965C43.6639 68.5151 42.1067 69.6581 41.6434 71.3897C41.0859 73.4736 42.3232 75.6148 44.4071 76.1726C44.86 76.2939 45.3148 76.3256 45.7563 76.2869C45.7687 76.3025 45.7759 76.3115 45.7759 76.3115C56.9924 77.6256 65.5722 76.4786 65.5722 76.4786Z" fill="#101A46"/>
<path d="M46.6328 95.3908C46.6328 95.3908 47.9388 100.661 46.8791 102.559L35.7248 103.202C35.7248 103.202 34.7196 100.254 38.6673 99.1909C42.615 98.1283 42.4324 94.965 42.4324 94.965L46.9083 94.373L46.6328 95.3908Z" fill="#EBE30D"/>
<path d="M38.4711 99.2485C39.3796 100.241 39.5239 101.584 39.4793 102.986L35.7248 103.202C35.7248 103.202 34.7576 100.355 38.4711 99.2485Z" fill="white"/>
<path d="M36.1362 103.847L46.8163 103.231C47.0214 103.219 47.1794 103.042 47.1677 102.837L47.1638 102.767C47.1519 102.562 46.9745 102.404 46.7694 102.416L36.0893 103.031C35.8842 103.043 35.7263 103.221 35.7379 103.426L35.7419 103.495C35.7538 103.7 35.9313 103.858 36.1362 103.847Z" fill="white"/>
<path d="M41.6904 97.2998C42.1807 97.306 42.6098 97.6393 42.737 98.1127C42.7586 98.1909 42.825 98.2534 42.8977 98.2462C42.9701 98.2392 43.02 98.145 42.9927 98.0438C42.8347 97.4565 42.3023 97.0429 41.6942 97.0352C41.5893 97.0337 41.5104 97.1054 41.5216 97.1773C41.5322 97.249 41.6094 97.2983 41.6904 97.2998Z" fill="white"/>
<path d="M40.6524 98.1142C41.1427 98.1204 41.5717 98.4538 41.6989 98.9272C41.7205 99.0053 41.787 99.0678 41.8596 99.0606C41.932 99.0537 41.9819 98.9594 41.9546 98.8582C41.7966 98.271 41.2642 97.8573 40.6561 97.8496C40.5512 97.8481 40.4723 97.9198 40.4835 97.9917C40.4944 98.0637 40.5713 98.1128 40.6524 98.1142Z" fill="white"/>
<path d="M39.3311 98.9849C39.8214 98.9911 40.2504 99.3244 40.3776 99.7978C40.3992 99.8759 40.4657 99.9384 40.5383 99.9312C40.6108 99.9243 40.6606 99.83 40.6333 99.7289C40.4753 99.1416 39.9429 98.7279 39.3348 98.7202C39.2299 98.7187 39.151 98.7904 39.1622 98.8623C39.1731 98.9343 39.25 98.9834 39.3311 98.9849Z" fill="white"/>
<path d="M44.4487 97.7811C44.4752 98.2428 44.871 98.5955 45.3328 98.5687C45.7943 98.5422 46.1472 98.1464 46.1204 97.6846C46.0939 97.2228 45.6981 96.8702 45.2363 96.8969C44.7748 96.9237 44.4221 97.3195 44.4487 97.7811Z" fill="white"/>
<path d="M68.3629 66.5808C68.3629 66.5808 73.03 72.4148 69.9186 77.0816L53.5838 76.1092C53.5838 76.1092 51.8337 70.47 57.473 66.5806H68.3629V66.5808Z" fill="#101A46"/>
<path d="M75.3542 78.5807C77.7043 77.8727 79.0353 75.3939 78.3275 73.0439C78.0128 71.9988 77.3466 71.1571 76.4985 70.6048L76.4995 70.5976C73.2656 67.5147 55.5264 73.9119 55.5264 73.9119L56.7631 77.6001C74.0269 80.4219 75.3542 78.5807 75.3542 78.5807Z" fill="#101A46"/>
<path d="M64.8871 42.5232C64.8871 42.5232 64.5888 45.5652 63.9923 46.917C63.3959 48.2689 69.958 49.621 71.3004 48.1L72.4484 40.0628C72.4484 40.0628 65.7819 39.1432 64.8871 42.5232Z" fill="#7D7908"/>
<path opacity="0.25" d="M71.1146 41.8745C70.3972 42.3901 69.5356 42.7252 68.7269 42.9999C67.4951 43.4183 66.0646 43.9639 64.7867 43.7601C64.7621 43.9222 64.7343 44.0916 64.7051 44.2625C67.0623 44.7528 69.5292 43.7139 71.1146 41.8745Z" fill="#7D7908"/>
<path d="M59.2765 47.2578C59.2765 47.2578 55.5706 46.9607 53.5812 56.9734C53.5812 56.9734 53.0887 61.0029 55.1101 61.1649C57.1316 61.3271 62.1935 51.0519 59.2765 47.2578Z" fill="#EBE30D"/>
<path d="M49.8233 72.5195C49.4302 70.0968 47.1479 68.4516 44.7252 68.8447C43.6478 69.0195 42.726 69.5691 42.0668 70.3374L42.0599 70.3354C38.5787 73.1363 42.5306 95.8405 42.5306 95.8405L47.0546 95.5875C52.12 78.8445 49.8233 72.5195 49.8233 72.5195Z" fill="#101A46"/>
<path d="M56.8373 77.5855C56.8373 77.5855 53.4357 78.1894 52.0786 78.8193C50.7216 79.4492 47.2977 81.1703 46.2633 78.2593C45.2286 75.3483 45.6011 73.5917 46.8962 73.2547C48.1912 72.9176 55.7962 74.0267 55.7962 74.0267L56.8373 77.5855Z" fill="#EBE30D"/>
<path d="M48.6371 73.2852C48.6371 73.2852 52.825 75.8974 49.8203 79.7005C49.8203 79.7005 46.9717 80.8708 46.1695 78.2832C45.3672 75.6955 45.2489 73.9779 46.8024 73.2783C48.3556 72.5789 48.6371 73.2852 48.6371 73.2852Z" fill="white"/>
<path d="M51.9318 77.025C52.2887 76.3592 52.159 75.5318 51.6153 75.0073C51.5258 74.92 51.4913 74.7836 51.5553 74.6911C51.6188 74.5988 51.783 74.6016 51.8991 74.7139C52.5736 75.3647 52.7346 76.3914 52.2916 77.2175C52.2155 77.3601 52.06 77.4132 51.9712 77.3445C51.8822 77.276 51.8733 77.1354 51.9318 77.025Z" fill="white"/>
<path d="M53.3722 76.942C53.7293 76.2761 53.5994 75.4488 53.0558 74.9243C52.9662 74.837 52.9318 74.7006 52.9958 74.6081C53.0592 74.5158 53.2234 74.5186 53.3395 74.6309C54.014 75.2819 54.175 76.3084 53.7321 77.1345C53.6559 77.2771 53.5004 77.3299 53.4116 77.2614C53.3229 77.193 53.3139 77.0524 53.3722 76.942Z" fill="white"/>
<g opacity="0.33">
<path d="M46.6953 76.8496C46.0971 74.5521 46.7469 73.269 46.7851 73.1963L47.0045 73.3121C46.9924 73.3352 45.8196 75.6793 48.1907 79.6996L47.9772 79.8258C47.3133 78.7002 46.918 77.7044 46.6953 76.8496Z" fill="#DADAD5"/>
</g>
<path d="M73.3778 32.6435C72.9396 29.1345 69.794 26.6387 66.3525 27.0687C61.15 27.7165 60.8318 33.3312 60.8318 33.3312C60.8318 33.3312 58.9118 43.6215 66.4552 43.9739C66.4552 43.9739 72.8201 44.6407 73.3776 34.2729C73.4443 33.7441 73.447 33.1978 73.3778 32.6435Z" fill="#7D7908"/>
<path d="M74.4266 38.1357C74.0633 39.3782 73.1435 40.2025 72.3724 39.9768C71.6012 39.7514 71.2706 38.5613 71.6339 37.3188C71.9972 36.0763 72.9171 35.252 73.6881 35.4776C74.4594 35.7033 74.7899 36.8932 74.4266 38.1357Z" fill="#7D7908"/>
<path opacity="0.25" d="M73.8472 37.9666C73.6344 38.6942 73.0958 39.1771 72.6439 39.0451C72.1923 38.913 71.9986 38.2161 72.2114 37.4885C72.4242 36.7608 72.9629 36.278 73.4147 36.4099C73.8666 36.5418 74.06 37.239 73.8472 37.9666Z" fill="#7D7908"/>
<path d="M62.239 34.9345C62.239 35.2795 62.0667 35.559 61.8539 35.559C61.6411 35.559 61.4688 35.2795 61.4688 34.9345C61.4688 34.5896 61.6411 34.3101 61.8539 34.3101C62.0664 34.3101 62.239 34.5896 62.239 34.9345Z" fill="#101A46"/>
<path d="M66.5457 35.1137C66.5457 35.4587 66.3733 35.7382 66.1605 35.7382C65.9478 35.7382 65.7754 35.4587 65.7754 35.1137C65.7754 34.7688 65.9478 34.4893 66.1605 34.4893C66.3731 34.4893 66.5457 34.7688 66.5457 35.1137Z" fill="#101A46"/>
<path d="M62.8782 34.7949C62.7887 35.3033 62.6714 35.8033 62.5372 36.2983C62.4048 36.7938 62.257 37.2846 62.0953 37.7712L62.067 37.6633C62.1469 37.7397 62.2525 37.8133 62.3562 37.8733C62.4623 37.9334 62.5764 37.978 62.6947 38.0095C62.813 38.0405 62.9372 38.0544 63.0625 38.0477C63.1892 38.0455 63.3122 38.0097 63.4384 37.9745C63.22 38.1127 62.9417 38.19 62.6689 38.1506C62.5325 38.1355 62.3991 38.0956 62.2733 38.0398C62.1461 37.983 62.0323 37.9143 61.9189 37.8178L61.8721 37.7779L61.8904 37.7097C62.0238 37.2144 62.1712 36.7236 62.3338 36.237C62.4948 35.7502 62.6726 35.2684 62.8782 34.7949Z" fill="#101A46"/>
<path d="M64.7136 39.2967H62.4844C62.5112 39.9023 63.0067 40.3862 63.6187 40.3862C64.2323 40.3862 64.729 39.9001 64.7536 39.2925C64.7402 39.2937 64.7278 39.2967 64.7136 39.2967Z" fill="#101A46"/>
<path d="M64.6593 39.6997C64.7136 39.574 64.7479 39.4373 64.7536 39.293C64.7399 39.294 64.7278 39.2969 64.7136 39.2969H62.4844C62.4906 39.4398 62.525 39.5749 62.5789 39.6997H64.6593Z" fill="white"/>
<path d="M61.1383 31.6281C61.1383 31.6281 62.7022 28.5894 63.462 31.4939C63.462 31.4939 67.1709 27.3829 69.45 32.5217C69.45 32.5217 70.6119 34.309 71.3269 34.7113C71.3269 34.7113 70.7907 37.2136 71.5949 38.4201C71.5949 38.4201 72.5634 35.0379 73.6878 35.4778C74.8123 35.9178 73.7399 35.3367 73.7399 35.3367C73.7399 35.3367 73.9187 31.7171 73.4272 30.3767C72.9356 29.0363 68.9587 25.8187 68.9587 25.8187C68.9587 25.8187 61.1388 24.6568 60.96 31.6279" fill="#101A46"/>
<path d="M65.191 32.5262C65.191 32.5262 64.9527 32.9766 65.1513 33.1128C65.3497 33.2489 67.3466 33.3298 67.8548 33.7184L68.0254 33.1614C68.0252 33.1609 66.65 32.3492 65.191 32.5262Z" fill="#101A46"/>
<path d="M62.575 32.4703C62.575 32.4703 62.7801 32.9328 62.599 33.056C62.418 33.1793 60.623 33.1389 60.1587 33.4947L60.0166 32.93C60.0166 32.93 61.2678 32.2056 62.575 32.4703Z" fill="#101A46"/>
<path d="M48.4676 57.9776C48.2434 55.3848 50.0935 53.1072 52.5998 52.8907C55.1061 52.6739 57.3197 54.6001 57.5439 57.193C57.7681 59.7858 55.918 62.0634 53.4117 62.2799C50.9052 62.4964 48.6918 60.5702 48.4676 57.9776Z" fill="#EBE30D"/>
<path d="M71.9276 48.3916C71.9276 48.3916 75.5903 46.0966 77.5617 49.092C79.533 52.0873 86.0217 61.9756 84.9354 63.2875C83.8495 64.5994 79.6268 66.725 75.2771 58.7464C75.2771 58.7464 70.7476 51.4673 71.9276 48.3916Z" fill="#EBE30D"/>
<path d="M59.0533 47.2549C59.0533 47.2549 74.6555 47.4171 75.4459 47.5929C76.2363 47.7685 72.1363 69.6027 71.559 72.097C71.559 72.097 57.5324 72.4351 53.4766 67.5341C53.4766 67.5341 56.1689 51.1681 59.0533 47.2549Z" fill="#EBE30D"/>
<path opacity="0.1" d="M73.2042 55.7793C72.2601 60.5476 70.565 65.4496 66.0578 67.8237C61.9202 70.0033 57.2534 69.1103 53.6596 66.4721C53.5408 67.1441 53.4766 67.534 53.4766 67.534C57.5324 72.4347 71.559 72.0969 71.559 72.0969C71.8682 70.7605 73.1886 63.8733 74.2265 57.7392C73.7984 57.1475 73.4656 56.4819 73.2042 55.7793Z" fill="#101A46"/>
<path d="M63.9928 46.9169C63.9928 46.9169 62.9405 45.0579 63.7854 45.0579C64.6304 45.0579 72.9111 44.8887 72.9111 45.5648C72.9111 46.2408 72.5731 48.0996 72.5731 48.0996C72.5731 48.0996 64.031 49.4519 63.9928 46.9169Z" fill="#EBE30D"/>
<g opacity="0.44">
<path d="M71.7637 46.8668L71.6925 46.6292C70.0513 47.1215 64.5424 45.9623 64.4869 45.9507L64.4355 46.1935C64.6225 46.2332 68.2619 46.9985 70.5145 46.9985C71.0182 46.9982 71.4527 46.96 71.7637 46.8668Z" fill="#101A46"/>
<path d="M66.4122 48.0526L66.4181 48.0184C66.4122 48.0174 66.3348 48.0045 66.2214 48.0266C65.4107 47.9147 64.8393 47.8123 64.822 47.8091L64.7773 48.0529C64.8366 48.0638 65.2423 48.1364 65.8348 48.2237C65.8264 48.2309 65.8179 48.2361 65.8095 48.2438C65.4234 48.6012 65.0139 49.5337 65.2545 51.9487L65.6572 55.9988L65.9038 55.9742L65.501 51.9244C65.2604 49.5054 65.6912 48.6994 65.9692 48.4343C66.0647 48.3433 66.1557 48.3006 66.2279 48.2798C66.8375 48.3636 67.5763 48.4509 68.3225 48.5055C68.2739 49.1327 67.9485 53.2058 67.486 55.6742L67.7295 55.72C68.1953 53.2366 68.5219 49.1453 68.57 48.5223C68.9435 48.5456 69.315 48.5598 69.6694 48.5598C70.5786 48.5598 71.3741 48.4675 71.794 48.2051L71.6628 47.9948C70.8114 48.5265 68.1536 48.2845 66.4122 48.0526Z" fill="#101A46"/>
<path d="M72.9561 51.9868C72.9561 52.1264 72.9697 55.4243 74.1586 57.2923L74.3679 57.1591C73.2182 55.3527 73.2043 52.0203 73.2043 51.9871H72.9561V51.9868Z" fill="#101A46"/>
<path d="M58.3257 51.6898L58.0918 51.6079C56.9091 54.9879 54.374 62.2546 54.374 62.2546L54.6079 62.3364C54.6079 62.3364 57.1429 55.0697 58.3257 51.6898Z" fill="#101A46"/>
<path d="M69.1468 66.0321L69.1651 65.9118L58.142 64.0171L58.0996 64.095C57.119 65.8927 53.802 67.2366 53.7686 67.2503L53.8606 67.4804C53.9985 67.4254 57.2031 66.1268 58.2735 64.2916L68.8849 66.1154C68.7897 66.8517 68.4189 70.5864 70.4862 71.6996L70.604 71.4811C68.5097 70.353 69.1403 66.075 69.1468 66.0321Z" fill="#101A46"/>
<path d="M50.3892 60.2914C49.2943 59.3376 49.2075 57.7429 49.2065 57.7271L48.959 57.7385C48.9622 57.8079 49.0498 59.4521 50.2243 60.4769C50.8197 60.9964 51.5851 61.2583 52.5041 61.2583C52.6586 61.2583 52.8176 61.2509 52.9806 61.236L52.9582 60.989C51.8946 61.0855 51.0315 60.8509 50.3892 60.2914Z" fill="#101A46"/>
<path d="M56.3941 54.8594H56.6421C56.6421 52.5991 55.5884 52.2219 55.5435 52.207L55.4639 52.4419C55.4733 52.4451 56.3941 52.796 56.3941 54.8594Z" fill="#101A46"/>
</g>
<g opacity="0.39">
<path d="M56.1976 74.0789L56.1631 73.8334C56.606 73.7709 67.0292 72.3131 68.0653 72.8315L67.9545 73.0534C67.152 72.6517 59.1954 73.6573 56.1976 74.0789Z" fill="#F5F5F5"/>
</g>
<g opacity="0.39">
<path d="M46.9765 71.1686L46.793 71.3354L48.483 73.1943L48.6664 73.0274L46.9765 71.1686Z" fill="#F5F5F5"/>
</g>
<path d="M50.4111 59.0081C51.549 60.1059 53.3613 60.0735 54.4592 58.9356C55.2429 58.1234 55.4475 56.9685 55.0884 55.974C55.1189 55.6281 55.1474 53.4821 52.264 47.1916C52.5291 46.892 53.064 46.1716 53.092 45.2078C53.1292 43.9237 53.4422 42.5061 52.6325 42.5473C52.6325 42.5473 52.4604 42.5676 52.3567 43.4237C52.3034 43.8654 52.1633 44.0579 51.9996 44.1176L50.8848 42.3397C50.8848 42.3397 50.0181 38.8826 49.4454 39.1467C49.4454 39.1467 49.2036 39.2675 49.2418 39.5569C49.2706 39.7749 49.8474 41.716 50.1299 42.6586C50.0448 42.6966 49.9553 42.7373 49.8623 42.7804C49.8551 42.7551 49.8499 42.7316 49.8407 42.7048C49.8407 42.7048 48.4584 38.9508 47.9125 39.2668C47.9125 39.2668 47.6834 39.4101 47.764 39.7261C47.8257 39.9679 48.7213 42.1366 49.1369 43.1378C49.0553 43.1807 48.9742 43.2243 48.8939 43.2687C48.6935 42.8251 47.4379 40.1008 46.9605 40.4294C46.9605 40.4294 46.7427 40.5896 46.8295 40.8681C46.8933 41.0724 47.7461 42.797 48.196 43.701C48.1514 43.7327 48.1085 43.7645 48.067 43.7962C47.9336 43.5222 46.9466 41.5345 46.5418 41.8509C46.5418 41.8509 46.3593 42.001 46.424 42.2038C46.4764 42.368 47.2752 43.8332 47.5763 44.3827L48.9817 47.7355C48.9817 47.7355 49.1005 54.4692 49.5538 57.2582C49.5669 57.3802 49.59 57.5007 49.6188 57.6205C49.6753 57.9002 49.7363 58.1224 49.8025 58.2645C49.8779 58.4262 49.9771 58.5475 50.0925 58.6388C50.1872 58.7682 50.2916 58.893 50.4111 59.0081Z" fill="#7D7908"/>
<g opacity="0.54">
<path d="M51.1007 47.0041C51.061 47.0041 51.0221 46.985 50.998 46.9495C49.823 45.2096 50.759 43.7421 50.7686 43.7275C50.8061 43.6707 50.8827 43.6549 50.94 43.6918C50.997 43.729 51.0134 43.8061 50.9762 43.8632C50.9407 43.9175 50.1233 45.2113 51.2034 46.8104C51.2418 46.8672 51.2269 46.9443 51.1701 46.9825C51.1491 46.9974 51.1248 47.0041 51.1007 47.0041Z" fill="#101A46"/>
</g>
<path d="M92.6877 63.9024C92.4999 63.8935 92.3147 63.8972 92.1312 63.9096L77.0592 64.1035C74.2422 63.9693 71.8336 66.302 71.7069 69.2877L71.016 85.5724C70.8892 88.5578 73.0905 91.1105 75.9075 91.2446C76.0952 91.2536 76.2807 91.2498 76.4643 91.2374L91.5362 91.0435C94.3532 91.1777 96.7618 88.845 96.8885 85.8593L97.5795 69.5746C97.706 66.5892 95.5047 64.0365 92.6877 63.9024Z" fill="#DADAD5"/>
<path opacity="0.24" d="M80.8234 85.8086L81.5143 69.5239C81.5927 67.6806 82.5423 66.0882 83.9194 65.1693C84.2951 64.8179 84.7016 64.5049 85.1339 64.2358L77.0582 64.3398C74.2412 64.2056 71.8326 66.5383 71.7059 69.5239L71.015 85.8086C70.8882 88.794 73.0895 91.3467 75.9065 91.4809C76.0943 91.4898 76.2798 91.4861 76.4633 91.4737L84.8988 91.3651C82.4865 90.8296 80.7093 88.4979 80.8234 85.8086Z" fill="white"/>
<path d="M76.0486 75.3334C74.3255 75.3334 72.9238 73.583 72.9238 71.4311C72.9238 69.2792 74.3255 67.5288 76.0486 67.5288C77.7717 67.5288 79.1734 69.2792 79.1734 71.4311C79.1734 73.583 77.7717 75.3334 76.0486 75.3334Z" fill="#DADAD5"/>
<path d="M81.4777 66.5215C84.335 66.3917 86.5495 64.0473 86.424 61.2853C86.2985 58.5232 83.8804 56.3894 81.0232 56.5193C78.1659 56.6491 75.9514 58.9935 76.0769 61.7555C76.2024 64.5176 78.6205 66.6514 81.4777 66.5215Z" fill="#EBE30D"/>
<path d="M84.6666 62.0992C84.6666 60.518 83.3849 59.2363 81.8037 59.2363C80.675 59.2363 79.7019 59.891 79.2356 60.8399C78.9655 61.0581 77.4014 62.5278 74.8768 68.9706C74.477 68.9877 73.5872 69.103 72.8742 69.752C71.9241 70.6168 70.6868 71.3759 71.2785 71.93C71.2785 71.93 71.4127 72.0398 72.1007 71.5198C72.4555 71.2517 72.6914 71.2187 72.8479 71.2951L72.3425 73.3319C72.3425 73.3319 70.4564 76.356 71.0442 76.5847C71.0442 76.5847 71.2989 76.6747 71.4807 76.4465C71.6176 76.2744 72.6138 74.5116 73.0961 73.6538C73.1827 73.6888 73.2739 73.725 73.3694 73.7619C73.3563 73.7848 73.3429 73.8048 73.33 73.8301C73.33 73.8301 71.5883 77.4316 72.1947 77.6052C72.1947 77.6052 72.457 77.6704 72.6282 77.3934C72.7593 77.1811 73.698 75.0307 74.13 74.0362C74.2173 74.0652 74.3051 74.0933 74.3929 74.12C74.2129 74.5724 73.1242 77.3676 73.6923 77.4829C73.6923 77.4829 73.9587 77.5283 74.099 77.2724C74.202 77.0846 74.8507 75.2735 75.189 74.3219C75.2428 74.3321 75.2954 74.341 75.347 74.3487C75.2423 74.6349 74.4973 76.7255 75.0062 76.7972C75.0062 76.7972 75.2408 76.8242 75.342 76.637C75.4239 76.4852 75.9236 74.8931 76.1098 74.2949L77.5467 70.9556C77.5467 70.9556 82.3101 66.1945 84.0024 63.9317C84.081 63.8375 84.1517 63.7373 84.2179 63.6334C84.3801 63.3985 84.4977 63.2004 84.554 63.0538C84.618 62.8874 84.6363 62.7316 84.6219 62.5853C84.6495 62.4268 84.6666 62.2651 84.6666 62.0992Z" fill="#7D7908"/>
<path opacity="0.36" d="M82.1728 57.0072L82.2392 56.7682C80.9546 56.4115 79.5281 56.8361 78.1137 57.996C77.0563 58.863 76.3862 59.8186 76.3584 59.859L76.5618 60.0003C76.5883 59.9622 79.2513 56.195 82.1728 57.0072Z" fill="#101A46"/>
<path opacity="0.36" d="M81.2043 57.9938C79.975 58.3324 78.9718 58.9528 78.9297 58.9794L79.0609 59.1897C79.1006 59.1654 83.0438 56.7444 84.6401 58.9878L84.8423 58.844C84.1216 57.8306 82.8635 57.5365 81.2043 57.9938Z" fill="#101A46"/>
<path d="M88.6587 80.3311C88.8142 80.4569 88.9064 80.6302 88.9372 80.8132L110.449 80.6119L110.451 80.8599L88.9394 81.0612C88.9193 81.1957 88.8675 81.3269 88.776 81.4402C88.5022 81.779 88.0057 81.8315 87.6669 81.5575C87.3282 81.2837 87.2756 80.7872 87.5494 80.4484C87.8237 80.1099 88.3202 80.0573 88.6587 80.3311Z" fill="#101A46"/>
<path opacity="0.19" d="M105.324 91.358C111.077 89.9726 114.619 84.1852 113.233 78.4315C111.848 72.6779 106.06 69.1367 100.307 70.5222C94.5529 71.9076 91.0118 77.695 92.3972 83.4487C93.7827 89.2024 99.5701 92.7435 105.324 91.358Z" fill="#6CADE3"/>
<path d="M105.264 90.5564C110.577 89.2027 113.786 83.7984 112.433 78.4856C111.079 73.1728 105.675 69.9633 100.362 71.317C95.0491 72.6707 91.8396 78.0749 93.1933 83.3878C94.547 88.7006 99.9512 91.9101 105.264 90.5564Z" fill="white"/>
<path d="M98.6131 79.2744C97.0686 79.2744 95.8164 80.5266 95.8164 82.0711C95.8164 83.6157 97.0686 84.8678 98.6131 84.8678C100.158 84.8678 101.41 83.6157 101.41 82.0711C101.41 80.5266 100.158 79.2744 98.6131 79.2744ZM98.6131 84.4737C97.2861 84.4737 96.2105 83.3979 96.2105 82.0711C96.2105 80.7443 97.2863 79.6685 98.6131 79.6685C99.9399 79.6685 101.016 80.7443 101.016 82.0711C101.016 83.3979 99.9402 84.4737 98.6131 84.4737Z" fill="#101A46"/>
<path d="M107.67 79.2744C106.125 79.2744 104.873 80.5266 104.873 82.0711C104.873 83.6157 106.125 84.8678 107.67 84.8678C109.214 84.8678 110.466 83.6157 110.466 82.0711C110.466 80.5266 109.214 79.2744 107.67 79.2744ZM107.67 84.4737C106.343 84.4737 105.267 83.3979 105.267 82.0711C105.267 80.7443 106.343 79.6685 107.67 79.6685C108.997 79.6685 110.072 80.7443 110.072 82.0711C110.072 83.3979 108.997 84.4737 107.67 84.4737Z" fill="#101A46"/>
<path d="M106.655 77.9334L106.421 77.7155L106.049 76.5938L105.72 76.6932L105.737 76.7929L101.339 78.4307L101.236 78.2172L101.398 78.1591L101.364 78.0865L101.17 78.1229L100.96 77.2103C100.876 77.2185 100.792 77.2252 100.707 77.2299L100.959 78.1862L100.824 78.2586L100.866 78.3488L100.996 78.3025L101.069 78.6202L98.5615 81.2534L98.722 81.4975L101.119 78.8285L101.937 81.9473L98.7894 81.6606L98.8063 81.9138L102.41 82.2757L105.922 77.7792L106.048 77.6976L106.157 77.8675L106.146 78.1197C106.146 78.1197 106.469 78.1197 106.543 78.4116C106.617 78.7035 107.732 81.8109 107.732 81.8109C107.732 81.8109 107.893 81.9168 107.955 81.7177L108.005 81.6911L106.655 77.9334ZM105.829 77.3355C105.576 77.3809 104.901 78.177 104.901 78.177L102.245 81.8409L101.464 78.9542L101.466 78.955L105.779 77.2088C105.897 77.2182 105.829 77.3355 105.829 77.3355Z" fill="#EBE30D"/>
<path d="M106.049 76.5938L106.048 76.5943C106.053 76.6194 106.049 76.5938 106.049 76.5938Z" fill="#101A46"/>
<path d="M106.253 75.7526L106.305 75.6953L105.08 74.583L104.709 74.9917L105.902 76.0745C105.863 76.0725 105.814 76.0631 105.751 76.0479C105.528 75.9949 105.54 76.1938 105.54 76.1938L105.72 76.6927L106.048 76.5938C106.044 76.5749 106.034 76.5231 106.011 76.3932C105.961 76.1144 106.259 76.0879 106.259 76.0879L106.519 76.1409L106.605 76.0482C106.605 76.0482 106.446 75.9011 106.253 75.7526ZM105.967 76.0678L106.048 75.979C106.028 76.0281 106.004 76.0559 105.967 76.0678Z" fill="#101A46"/>
<path d="M99.545 81.8711C99.545 82.3493 99.1574 82.7369 98.6793 82.7369C98.2011 82.7369 97.8135 82.3493 97.8135 81.8711C97.8135 81.393 98.2011 81.0054 98.6793 81.0054C99.1576 81.0056 99.545 81.3932 99.545 81.8711Z" fill="#101A46"/>
<g opacity="0.6">
<path d="M98.6801 82.5153C98.5152 82.5153 98.35 82.4526 98.2246 82.3269C97.9733 82.0756 97.9733 81.6667 98.2246 81.4155C98.476 81.1642 98.8847 81.1642 99.136 81.4155C99.3872 81.6667 99.3872 82.0756 99.136 82.3269C99.0102 82.4526 98.845 82.5153 98.6801 82.5153ZM98.6801 81.2917C98.5316 81.2917 98.383 81.3483 98.2702 81.4613C98.0443 81.6873 98.0443 82.0553 98.2702 82.2812C98.4961 82.5072 98.8641 82.5074 99.0901 82.2812C99.316 82.0553 99.316 81.6873 99.0901 81.4613C98.977 81.3483 98.8287 81.2917 98.6801 81.2917Z" fill="white"/>
</g>
<path d="M107.792 82.7369C108.27 82.7369 108.657 82.3493 108.657 81.8711C108.657 81.393 108.27 81.0054 107.792 81.0054C107.313 81.0054 106.926 81.393 106.926 81.8711C106.926 82.3493 107.313 82.7369 107.792 82.7369Z" fill="#101A46"/>
<path d="M100.411 76.6776C100.411 76.6776 99.7448 76.6109 99.8113 77.2103C99.8778 77.8097 101.876 77.0771 101.876 77.0771C101.876 77.0771 101.543 76.1449 100.411 76.6776Z" fill="#101A46"/>
<path d="M103.308 82.6705H102.376C102.211 82.6705 102.076 82.5355 102.076 82.3709C102.076 82.2059 102.211 82.0713 102.376 82.0713H103.308C103.473 82.0713 103.608 82.2062 103.608 82.3709C103.608 82.5355 103.473 82.6705 103.308 82.6705Z" fill="#101A46"/>
<g opacity="0.6">
<path d="M107.769 82.4821C107.604 82.4821 107.439 82.4194 107.314 82.2937C107.192 82.1719 107.125 82.0102 107.125 81.8378C107.125 81.6657 107.192 81.5038 107.314 81.3823C107.565 81.131 107.974 81.131 108.225 81.3823C108.347 81.504 108.414 81.6657 108.414 81.8378C108.414 82.01 108.347 82.1719 108.225 82.2937C108.099 82.4192 107.934 82.4821 107.769 82.4821ZM107.769 81.2585C107.621 81.2585 107.472 81.3151 107.359 81.4281C107.25 81.5375 107.189 81.6833 107.189 81.8381C107.189 81.9931 107.25 82.1387 107.359 82.248C107.585 82.474 107.953 82.474 108.179 82.248C108.289 82.1384 108.349 81.9928 108.349 81.8381C108.349 81.6833 108.289 81.5375 108.179 81.4281C108.066 81.3148 107.918 81.2585 107.769 81.2585Z" fill="white"/>
</g>
<path d="M82.5141 25.8826C82.6696 26.0083 82.7619 26.1817 82.7927 26.3647L104.304 26.1633L104.307 26.4113L82.7949 26.6127C82.7748 26.7471 82.723 26.8783 82.6314 26.9916C82.3577 27.3304 81.8612 27.383 81.5224 27.1089C81.1836 26.8352 81.1311 26.3387 81.4048 25.9999C81.6791 25.6611 82.1756 25.6085 82.5141 25.8826Z" fill="#101A46"/>
<path opacity="0.19" d="M99.1773 36.9108C104.931 35.5253 108.472 29.7379 107.087 23.9843C105.701 18.2306 99.9138 14.6895 94.1601 16.0749C88.4065 17.4604 84.8653 23.2478 86.2508 29.0014C87.6362 34.7551 93.4236 38.2962 99.1773 36.9108Z" fill="#6CADE3"/>
<path d="M98.9928 36.1435C104.324 34.8617 107.606 29.5009 106.324 24.17C105.042 18.8391 99.6816 15.5568 94.3507 16.8386C89.0198 18.1205 85.7374 23.4812 87.0193 28.8121C88.3011 34.143 93.6619 37.4254 98.9928 36.1435Z" fill="white"/>
<path d="M104.273 30.4022H94.059L91.7891 22.584H101.877L104.273 30.4022Z" fill="#EBE30D"/>
<path d="M91.7885 22.584L90.0508 30.1877L94.0585 30.4022L91.7885 22.584Z" fill="#101A46"/>
<path d="M91.7886 22.584C91.7886 22.584 91.6497 29.6034 94.0583 30.4019C94.0583 30.4019 92.3783 23.0175 91.7886 22.584Z" fill="#EBE30D"/>
<path d="M92.0019 20.8677H91.8818V22.5843H92.0019V20.8677Z" fill="#101A46"/>
<path d="M95.9031 30.9185C94.8503 30.4632 93.899 28.9283 93.0756 26.3566C92.4651 24.4497 92.1565 22.6517 92.1533 22.6339L92.2714 22.6138C92.2835 22.6852 93.5104 29.7532 95.9507 30.8087L95.9031 30.9185Z" fill="#101A46"/>
<path d="M105.022 30.1755C103.86 29.6971 101.902 22.89 101.819 22.6004L101.935 22.5674C101.955 22.6378 103.959 29.6081 105.068 30.0647L105.022 30.1755Z" fill="#101A46"/>
<path d="M88.8513 30.1108L88.8203 29.995C89.6241 29.7807 91.1942 24.5615 91.7313 22.5688L91.8472 22.6001C91.7673 22.8952 89.886 29.835 88.8513 30.1108Z" fill="#101A46"/>
<path d="M88.8354 30.5256C88.761 30.5256 88.7002 30.4648 88.7002 30.3904V29.3773C88.7002 29.3029 88.761 29.2422 88.8354 29.2422C88.9095 29.2422 88.9705 29.3029 88.9705 29.3773V30.3904C88.9705 30.4648 88.9098 30.5256 88.8354 30.5256Z" fill="#101A46"/>
<path d="M95.9945 31.1335C95.9201 31.1335 95.8594 31.0727 95.8594 30.9983V29.9853C95.8594 29.9109 95.9201 29.8501 95.9945 29.8501C96.0689 29.8501 96.1297 29.9109 96.1297 29.9853V30.9983C96.1297 31.0727 96.0689 31.1335 95.9945 31.1335Z" fill="#101A46"/>
<path d="M105.044 30.5256C104.97 30.5256 104.909 30.4648 104.909 30.3904V29.3773C104.909 29.3029 104.97 29.2422 105.044 29.2422C105.118 29.2422 105.179 29.3029 105.179 29.3773V30.3904C105.179 30.4648 105.118 30.5256 105.044 30.5256Z" fill="#101A46"/>
<path d="M91.7885 22.584C91.7885 22.584 91.4691 29.5124 90.0508 30.1877C90.0508 30.1877 91.2977 23.0849 91.7885 22.584Z" fill="#EBE30D"/>
<path d="M91.882 20.8677L93.3601 21.2052L91.9417 21.7456C91.9417 21.7456 91.8222 20.8677 91.882 20.8677Z" fill="#EBE30D"/>
<g opacity="0.41">
<path d="M96.5465 27.1402L96.5234 27.0224C96.551 27.0172 99.271 26.4691 99.9925 24.895L100.102 24.9449C99.3546 26.5752 96.6608 27.1176 96.5465 27.1402Z" fill="#101A46"/>
</g>
<g opacity="0.41">
<path d="M98.7889 27.2702L98.7373 27.1618C98.75 27.1558 100.003 26.5537 100.328 25.7085L100.44 25.7516C100.098 26.642 98.842 27.2449 98.7889 27.2702Z" fill="#101A46"/>
</g>
<path d="M49.8103 25.8826C49.6548 26.0083 49.5626 26.1817 49.5318 26.3647L28.0198 26.1633L28.0176 26.4113L49.5293 26.6127C49.5494 26.7471 49.6013 26.8783 49.6928 26.9916C49.9666 27.3304 50.4631 27.383 50.8018 27.1089C51.1406 26.8352 51.1932 26.3387 50.9191 25.9999C50.6456 25.6611 50.1491 25.6085 49.8103 25.8826Z" fill="#101A46"/>
<path opacity="0.19" d="M46.3704 26.5634C46.4082 20.6452 41.6413 15.8169 35.7231 15.779C29.8049 15.7411 24.9766 20.5081 24.9387 26.4263C24.9008 32.3444 29.6678 37.1728 35.5859 37.2107C41.5041 37.2485 46.3325 32.4816 46.3704 26.5634Z" fill="#6CADE3"/>
<path d="M35.654 36.4232C41.1368 36.4232 45.5814 31.9786 45.5814 26.4958C45.5814 21.013 41.1368 16.5684 35.654 16.5684C30.1712 16.5684 25.7266 21.013 25.7266 26.4958C25.7266 31.9786 30.1712 36.4232 35.654 36.4232Z" fill="white"/>
<path d="M32.5088 31.6882L32.4111 34.3271L33.0954 33.8386L33.6819 34.8159L33.8773 31.395L32.5088 31.6882Z" fill="#6CADE3"/>
<path d="M40.7447 19.8857H30.7129V32.373H40.7447V19.8857Z" fill="#EBE30D"/>
<path opacity="0.1" d="M35.8254 30.1462C33.6641 30.1827 31.9035 28.719 30.7129 26.7608V32.373H40.7447V26.0674C39.9876 28.1766 38.1849 30.1066 35.8254 30.1462Z" fill="#101A46"/>
<g opacity="0.41">
<path d="M40.2816 31.7811H31.1758V20.4771H40.2816V31.7811ZM31.2998 31.6571H40.1576V20.6011H31.2998V31.6571Z" fill="#101A46"/>
</g>
<path opacity="0.38" d="M38.4718 21.8164H32.8027V23.478H38.4718V21.8164Z" fill="white"/>
<path d="M86.4789 49.544C86.6344 49.6697 86.7267 49.8431 86.7574 50.0261L108.269 49.8247L108.271 50.0727L86.7597 50.2741C86.7396 50.4085 86.6878 50.5397 86.5963 50.6531C86.3225 50.9918 85.826 51.0444 85.4872 50.7706C85.1484 50.4968 85.0958 50.0003 85.3699 49.6616C85.6437 49.3228 86.1402 49.2702 86.4789 49.544Z" fill="#101A46"/>
<path opacity="0.19" d="M103.052 60.5926C108.817 59.2574 112.409 53.5012 111.074 47.7357C109.738 41.9702 103.982 38.3787 98.2167 39.7139C92.4512 41.049 88.8597 46.8052 90.1948 52.5707C91.53 58.3362 97.2862 61.9277 103.052 60.5926Z" fill="#6CADE3"/>
<path d="M102.884 59.8285C108.225 58.59 111.551 53.2559 110.313 47.9146C109.074 42.5733 103.74 39.2473 98.3989 40.4859C93.0575 41.7245 89.7316 47.0585 90.9701 52.3998C92.2087 57.7411 97.5427 61.0671 102.884 59.8285Z" fill="white"/>
<path d="M105.322 55.4995H95.7584C94.6935 55.4995 93.8223 54.6283 93.8223 53.5634V46.9083C93.8223 45.8434 94.6935 44.9722 95.7584 44.9722H105.322C106.387 44.9722 107.258 45.8434 107.258 46.9083V53.5634C107.258 54.6283 106.387 55.4995 105.322 55.4995Z" fill="#EBE30D"/>
<g opacity="0.25">
<path d="M105.073 53.352H96.0078C95.1339 53.352 94.4229 52.572 94.4229 51.6138V47.1557C94.4229 46.1972 95.1339 45.4175 96.0078 45.4175H105.073C105.947 45.4175 106.658 46.1974 106.658 47.1557V51.6138C106.658 52.572 105.947 53.352 105.073 53.352ZM96.0078 45.5936C95.2224 45.5936 94.5836 46.2944 94.5836 47.1557V51.6138C94.5836 52.4751 95.2224 53.1759 96.0078 53.1759H105.073C105.859 53.1759 106.497 52.4751 106.497 51.6138V47.1557C106.497 46.2944 105.859 45.5936 105.073 45.5936H96.0078Z" fill="#101A46"/>
</g>
<path opacity="0.1" d="M93.8223 53.3066V53.6506C93.8223 54.6674 94.6541 55.4995 95.6711 55.4995H105.41C106.427 55.4995 107.259 54.6674 107.259 53.6506V53.3066H93.8223Z" fill="#101A46"/>
<g opacity="0.28">
<path d="M106.945 53.834H94.0547V53.9947H106.945V53.834Z" fill="#101A46"/>
</g>
<path d="M96.2613 54.7273C96.2613 54.9198 96.1053 55.0758 95.9129 55.0758C95.7204 55.0758 95.5645 54.9198 95.5645 54.7273C95.5645 54.5349 95.7204 54.3789 95.9129 54.3789C96.1053 54.3789 96.2613 54.5351 96.2613 54.7273Z" fill="#101A46"/>
<path d="M97.8873 54.7273C97.8873 54.9198 97.7313 55.0758 97.5389 55.0758C97.3464 55.0758 97.1904 54.9198 97.1904 54.7273C97.1904 54.5349 97.3464 54.3789 97.5389 54.3789C97.7313 54.3792 97.8873 54.5351 97.8873 54.7273Z" fill="#101A46"/>
<path d="M99.5133 54.7273C99.5133 54.9198 99.3573 55.0758 99.1648 55.0758C98.9724 55.0758 98.8164 54.9198 98.8164 54.7273C98.8164 54.5349 98.9724 54.3789 99.1648 54.3789C99.3573 54.3792 99.5133 54.5351 99.5133 54.7273Z" fill="#101A46"/>
<path d="M101.138 54.7273C101.138 54.9198 100.982 55.0758 100.79 55.0758C100.597 55.0758 100.441 54.9198 100.441 54.7273C100.441 54.5349 100.597 54.3789 100.79 54.3789C100.982 54.3792 101.138 54.5351 101.138 54.7273Z" fill="#101A46"/>
<path d="M102.764 54.7273C102.764 54.9198 102.608 55.0758 102.416 55.0758C102.223 55.0758 102.067 54.9198 102.067 54.7273C102.067 54.5349 102.223 54.3789 102.416 54.3789C102.608 54.3792 102.764 54.5351 102.764 54.7273Z" fill="#101A46"/>
<path d="M104.39 54.7273C104.39 54.9198 104.234 55.0758 104.042 55.0758C103.849 55.0758 103.693 54.9198 103.693 54.7273C103.693 54.5349 103.849 54.3789 104.042 54.3789C104.234 54.3792 104.39 54.5351 104.39 54.7273Z" fill="#101A46"/>
<path d="M106.016 54.7273C106.016 54.9198 105.86 55.0758 105.668 55.0758C105.475 55.0758 105.319 54.9198 105.319 54.7273C105.319 54.5349 105.475 54.3789 105.668 54.3789C105.86 54.3789 106.016 54.5351 106.016 54.7273Z" fill="#101A46"/>
<path d="M99.1293 45.4365C96.9487 45.4365 95.1807 47.2043 95.1807 49.3852C95.1807 51.5658 96.9484 53.3336 99.1293 53.3336C101.31 53.3336 103.078 51.5658 103.078 49.3852C103.078 47.2043 101.31 45.4365 99.1293 45.4365ZM99.1293 50.279C98.6356 50.279 98.2355 49.8787 98.2355 49.3852C98.2355 48.8914 98.6356 48.4914 99.1293 48.4914C99.6228 48.4914 100.023 48.8917 100.023 49.3852C100.023 49.8787 99.6228 50.279 99.1293 50.279Z" fill="#101A46"/>
<g opacity="0.14">
<path d="M99.1296 52.8626C97.2123 52.8626 95.6523 51.3027 95.6523 49.3854C95.6523 47.4681 97.2123 45.9082 99.1296 45.9082C101.047 45.9082 102.607 47.4681 102.607 49.3854C102.607 51.3027 101.047 52.8626 99.1296 52.8626ZM99.1296 45.9781C97.2507 45.9781 95.7223 47.5066 95.7223 49.3854C95.7223 51.2643 97.2507 52.7927 99.1296 52.7927C101.008 52.7927 102.537 51.2643 102.537 49.3854C102.537 47.5066 101.008 45.9781 99.1296 45.9781Z" fill="white"/>
</g>
<g opacity="0.14">
<path d="M99.1294 52.3214C97.5105 52.3214 96.1934 51.0042 96.1934 49.3853C96.1934 47.7663 97.5105 46.4492 99.1294 46.4492C100.748 46.4492 102.066 47.7663 102.066 49.3853C102.066 51.0042 100.748 52.3214 99.1294 52.3214ZM99.1294 46.5082C97.543 46.5082 96.2524 47.7988 96.2524 49.3853C96.2524 50.9717 97.543 52.2623 99.1294 52.2623C100.716 52.2623 102.006 50.9717 102.006 49.3853C102.006 47.7988 100.716 46.5082 99.1294 46.5082Z" fill="white"/>
</g>
<g opacity="0.14">
<path d="M99.1295 51.7136C97.8456 51.7136 96.8008 50.669 96.8008 49.3849C96.8008 48.101 97.8454 47.0562 99.1295 47.0562C100.413 47.0562 101.458 48.1007 101.458 49.3849C101.458 50.669 100.413 51.7136 99.1295 51.7136ZM99.1295 47.1033C97.8714 47.1033 96.8477 48.1268 96.8477 49.3851C96.8477 50.6435 97.8712 51.667 99.1295 51.667C100.388 51.667 101.411 50.6435 101.411 49.3851C101.411 48.1268 100.388 47.1033 99.1295 47.1033Z" fill="white"/>
</g>
<g opacity="0.14">
<path d="M99.1289 51.2076C98.124 51.2076 97.3066 50.3899 97.3066 49.3853C97.3066 48.3804 98.1243 47.563 99.1289 47.563C100.134 47.563 100.951 48.3804 100.951 49.3853C100.951 50.3899 100.134 51.2076 99.1289 51.2076ZM99.1289 47.5994C98.1444 47.5994 97.3433 48.4005 97.3433 49.385C97.3433 50.3696 98.1444 51.1706 99.1289 51.1706C100.114 51.1706 100.915 50.3696 100.915 49.385C100.915 48.4005 100.114 47.5994 99.1289 47.5994Z" fill="white"/>
</g>
<path opacity="0.25" d="M105.551 46.7144H103.577V49.2692H105.551V46.7144Z" fill="#101A46"/>
<path d="M101.155 51.9027L101.123 51.7452C102.507 51.4682 103.488 50.9057 104.038 50.0729C104.699 49.072 104.488 48.0187 104.486 48.0083L104.643 47.9751C104.653 48.0205 104.871 49.1008 104.174 50.159C103.6 51.03 102.584 51.6167 101.155 51.9027Z" fill="white"/>
<path d="M100.965 52.2441H100.384C100.161 52.2441 99.9775 52.0611 99.9775 51.8376C99.9775 51.6142 100.161 51.4312 100.384 51.4312H100.965C101.188 51.4312 101.371 51.6142 101.371 51.8376C101.371 52.0611 101.188 52.2441 100.965 52.2441Z" fill="white"/>
<path d="M105.087 47.6431H104.158V48.456H105.087V47.6431Z" fill="#101A46"/>
<path d="M99.0998 50.2793C98.6063 50.2793 98.2061 49.879 98.2061 49.3855C98.2061 48.8917 98.6063 48.4917 99.0998 48.4917C99.5936 48.4917 99.9936 48.892 99.9936 49.3855C99.9936 49.879 99.5934 50.2793 99.0998 50.2793Z" fill="white"/>
<path d="M98.3906 49.928C98.5541 50.1413 98.8105 50.2794 99.0999 50.2794C99.5937 50.2794 99.9937 49.8791 99.9937 49.3856C99.9937 49.2358 99.9565 49.0947 99.8913 48.9707C99.394 49.2946 98.8936 49.6133 98.3906 49.928Z" fill="#B6DCFD"/>
<path d="M38.9097 49.5435C38.7542 49.6693 38.6619 49.8426 38.6312 50.0256L17.1194 49.8243L17.1172 50.0723L38.629 50.2736C38.649 50.408 38.7009 50.5392 38.7924 50.6526C39.0662 50.9913 39.5627 51.0439 39.9014 50.7701C40.2402 50.4963 40.2928 49.9998 40.0187 49.6611C39.7447 49.3223 39.2482 49.2697 38.9097 49.5435Z" fill="#101A46"/>
<path opacity="0.19" d="M24.7529 60.8726C30.6711 60.8726 35.4688 56.0749 35.4688 50.1567C35.4688 44.2386 30.6711 39.4409 24.7529 39.4409C18.8348 39.4409 14.0371 44.2386 14.0371 50.1567C14.0371 56.0749 18.8348 60.8726 24.7529 60.8726Z" fill="#6CADE3"/>
<path d="M24.7526 60.0844C30.2354 60.0844 34.6801 55.6397 34.6801 50.1569C34.6801 44.6742 30.2354 40.2295 24.7526 40.2295C19.2699 40.2295 14.8252 44.6742 14.8252 50.1569C14.8252 55.6397 19.2699 60.0844 24.7526 60.0844Z" fill="white"/>
<path d="M21.8108 46.9249L20.0361 47.253C19.6411 47.3259 19.2579 47.0625 19.185 46.6674C19.1121 46.2724 19.3754 45.8895 19.7705 45.8163L21.5452 45.4882C21.9403 45.4153 22.3234 45.6787 22.3963 46.0737C22.4692 46.4688 22.2059 46.8517 21.8108 46.9249Z" fill="#101A46"/>
<path d="M27.5325 46.8429L29.3072 47.171C29.7022 47.2439 30.0854 46.9805 30.1583 46.5855C30.2315 46.1904 29.9678 45.8073 29.5728 45.7343L27.7978 45.4062C27.4028 45.3331 27.0199 45.5967 26.9467 45.9918C26.8738 46.3868 27.1374 46.77 27.5325 46.8429Z" fill="#101A46"/>
<path d="M28.9667 46.6238C28.9634 46.6238 28.9602 46.6241 28.9572 46.6241C23.3609 45.7122 20.7524 46.3158 19.6947 46.7565C18.4693 47.1769 17.5703 48.5547 17.5703 50.1906C17.5703 52.1604 18.8733 53.7573 20.4808 53.7573C21.0651 53.7573 21.609 53.5455 22.0648 53.1822C24.3963 51.8628 26.0802 52.3124 27.0087 52.8295C27.5258 53.4059 28.2127 53.7575 28.9669 53.7575C30.5744 53.7575 31.8774 52.1607 31.8774 50.1908C31.8772 48.2207 30.5739 46.6238 28.9667 46.6238Z" fill="#EBE30D"/>
<path d="M28.9666 53.2843C28.3769 53.2843 27.8065 53.0105 27.3608 52.5136L27.3078 52.4545L27.2386 52.4161C26.5563 52.0361 25.8021 51.8437 24.9974 51.8437C23.9833 51.8437 22.9184 52.1554 21.8314 52.7705L21.7697 52.8121C21.382 53.1209 20.9361 53.2843 20.4803 53.2843C19.1364 53.2843 18.043 51.8965 18.043 50.1908C18.043 48.797 18.785 47.5689 19.8479 47.2044L19.8764 47.1937C20.5021 46.9331 21.6868 46.6226 23.778 46.6226C25.2541 46.6226 26.971 46.7803 28.8811 47.0915L28.9299 47.0995L28.9751 47.0975C30.3152 47.1044 31.4042 48.4922 31.4042 50.191C31.404 51.8965 30.3105 53.2843 28.9666 53.2843ZM24.9974 51.7085C25.8255 51.7085 26.6014 51.9069 27.3043 52.298L27.4008 52.3561L27.4613 52.4235C27.8811 52.8915 28.4158 53.1494 28.9666 53.1494C30.2361 53.1494 31.2691 51.8224 31.2691 50.191C31.2691 48.5664 30.2406 47.2391 28.976 47.2326L28.9202 47.2339L28.8592 47.225C26.9566 46.915 25.2469 46.7577 23.778 46.7577C21.7092 46.7577 20.5426 47.0628 19.9285 47.3184L19.8921 47.3323C18.8829 47.6785 18.1784 48.8541 18.1784 50.191C18.1784 51.8224 19.211 53.1494 20.4806 53.1494C20.9054 53.1494 21.3223 52.9964 21.6856 52.7067L21.7191 52.6802L21.7652 52.6532C22.8725 52.0262 23.96 51.7085 24.9974 51.7085Z" fill="white"/>
<path d="M22.0795 49.5075H21.177V48.605C21.177 48.4396 21.0416 48.3042 20.8762 48.3042C20.7108 48.3042 20.5754 48.4396 20.5754 48.605V49.5075H19.6729C19.5075 49.5075 19.3721 49.6429 19.3721 49.8083C19.3721 49.9737 19.5075 50.1091 19.6729 50.1091H20.5754V51.0116C20.5754 51.177 20.7108 51.3124 20.8762 51.3124C21.0416 51.3124 21.177 51.177 21.177 51.0116V50.1091H22.0795C22.2449 50.1091 22.3803 49.9737 22.3803 49.8083C22.3803 49.6427 22.2452 49.5075 22.0795 49.5075Z" fill="#101A46"/>
<path d="M23.7981 51.9572C23.7981 52.4556 23.3941 52.8596 22.8956 52.8596C22.3972 52.8596 21.9932 52.4556 21.9932 51.9572C21.9932 51.4587 22.3972 51.0547 22.8956 51.0547C23.3939 51.0547 23.7981 51.4587 23.7981 51.9572Z" fill="#101A46"/>
<path d="M26.6769 52.8596C27.1753 52.8596 27.5794 52.4556 27.5794 51.9572C27.5794 51.4587 27.1753 51.0547 26.6769 51.0547C26.1785 51.0547 25.7744 51.4587 25.7744 51.9572C25.7744 52.4556 26.1785 52.8596 26.6769 52.8596Z" fill="#101A46"/>
<path d="M29.9014 49.9362C29.6646 49.9362 29.4727 49.7442 29.4727 49.5074C29.4727 49.2706 29.6646 49.0786 29.9014 49.0786C30.1383 49.0786 30.3302 49.2706 30.3302 49.5074C30.3302 49.7445 30.1383 49.9362 29.9014 49.9362Z" fill="#101A46"/>
<path d="M28.3546 49.9362C28.1177 49.9362 27.9258 49.7442 27.9258 49.5074C27.9258 49.2706 28.1177 49.0786 28.3546 49.0786C28.5914 49.0786 28.7834 49.2706 28.7834 49.5074C28.7834 49.7445 28.5914 49.9362 28.3546 49.9362Z" fill="#101A46"/>
<path d="M24.0136 48.0462H23.498C23.3797 48.0462 23.2832 47.9495 23.2832 47.8315C23.2832 47.7132 23.3799 47.6167 23.498 47.6167H24.0136C24.1319 47.6167 24.2283 47.7134 24.2283 47.8315C24.2283 47.9495 24.1316 48.0462 24.0136 48.0462Z" fill="#101A46"/>
<path d="M26.2479 48.0462H25.7323C25.614 48.0462 25.5176 47.9495 25.5176 47.8315C25.5176 47.7132 25.6143 47.6167 25.7323 47.6167H26.2479C26.3662 47.6167 26.4627 47.7134 26.4627 47.8315C26.463 47.9495 26.3662 48.0462 26.2479 48.0462Z" fill="#101A46"/>
<path opacity="0.06" d="M23.6398 50.5944C23.9796 49.1385 23.0748 47.6827 21.6189 47.3429C20.1629 47.003 18.7071 47.9078 18.3673 49.3638C18.0274 50.8197 18.9322 52.2755 20.3882 52.6153C21.8441 52.9552 23.2999 52.0504 23.6398 50.5944Z" fill="#101A46"/>
<path opacity="0.06" d="M28.4826 52.6013C29.9777 52.6013 31.1897 51.3893 31.1897 49.8942C31.1897 48.3991 29.9777 47.187 28.4826 47.187C26.9874 47.187 25.7754 48.3991 25.7754 49.8942C25.7754 51.3893 26.9874 52.6013 28.4826 52.6013Z" fill="#101A46"/>
<path d="M35.3413 80.3311C35.1858 80.4569 35.0936 80.6302 35.0628 80.8132L13.5511 80.6119L13.5488 80.8599L35.0606 81.0612C35.0807 81.1957 35.1325 81.3269 35.224 81.4402C35.4978 81.779 35.9943 81.8315 36.3331 81.5575C36.6719 81.2837 36.7244 80.7872 36.4504 80.4484C36.1763 80.1099 35.6799 80.0573 35.3413 80.3311Z" fill="#101A46"/>
<path opacity="0.19" d="M31.59 83.5287C33.0157 77.7845 29.5149 71.9722 23.7707 70.5465C18.0265 69.1208 12.2142 72.6216 10.7885 78.3658C9.36278 84.11 12.8636 89.9224 18.6078 91.348C24.352 92.7737 30.1644 89.2729 31.59 83.5287Z" fill="#6CADE3"/>
<path d="M30.8273 83.2854C32.1212 77.9577 28.8513 72.5899 23.5237 71.296C18.196 70.002 12.8282 73.272 11.5343 78.5996C10.2403 83.9272 13.5103 89.295 18.8379 90.589C24.1655 91.8829 29.5333 88.613 30.8273 83.2854Z" fill="white"/>
<path d="M22.9327 78.3314C23.2301 77.0661 22.4455 75.7994 21.1803 75.502C19.915 75.2047 18.6483 75.9893 18.3509 77.2545C18.0536 78.5197 18.8382 79.7865 20.1034 80.0838C21.3686 80.3812 22.6354 79.5966 22.9327 78.3314Z" fill="#101A46"/>
<path d="M23.157 77.8506H18.1221V87.4827H23.157V77.8506Z" fill="#EBE30D"/>
<path d="M21.5006 81.6611H18.1357V84.5717H21.5006V81.6611Z" fill="white"/>
<path d="M23.2669 88.1394H18.013C17.8022 88.1394 17.6299 87.967 17.6299 87.7562C17.6299 87.5454 17.8022 87.373 18.013 87.373H23.2669C23.4777 87.373 23.6501 87.5454 23.6501 87.7562C23.6501 87.967 23.4777 88.1394 23.2669 88.1394Z" fill="#101A46"/>
<path d="M23.2669 78.2883H18.013C17.8022 78.2883 17.6299 78.1159 17.6299 77.9051C17.6299 77.6943 17.8022 77.522 18.013 77.522H23.2669C23.4777 77.522 23.6501 77.6943 23.6501 77.9051C23.6501 78.1159 23.4777 78.2883 23.2669 78.2883Z" fill="#101A46"/>
<path d="M21.2011 74.3477H20.1064V75.9894H21.2011V74.3477Z" fill="#101A46"/>
<path d="M21.1164 74.9504C21.1164 75.1317 21.043 75.2788 20.9523 75.2788C20.8615 75.2788 20.7881 75.1317 20.7881 74.9504C20.7881 74.7691 20.8615 74.6221 20.9523 74.6221C21.043 74.6221 21.1164 74.7691 21.1164 74.9504Z" fill="white"/>
<path d="M23.1493 78.894H18.1201V79.0662H23.1493V78.894Z" fill="white"/>
<path d="M23.1493 79.3516H18.1201V79.5237H23.1493V79.3516Z" fill="white"/>
<path d="M23.1493 85.833H18.1201V86.0051H23.1493V85.833Z" fill="white"/>
<path d="M23.1493 86.29H18.1201V86.4622H23.1493V86.29Z" fill="white"/>
<g opacity="0.69">
<path d="M22.9616 77.4424H18.3359V77.6145H22.9616V77.4424Z" fill="white"/>
</g>
<g opacity="0.4">
<path d="M22.4471 77.0883C22.2462 76.1084 21.3693 75.947 21.3604 75.9455L21.3896 75.7759C21.3995 75.7776 22.3913 75.9599 22.6157 77.0536L22.4471 77.0883Z" fill="white"/>
</g>
<path d="M21.5471 74.629C21.5139 74.629 21.4821 74.6095 21.468 74.577C21.4492 74.5333 21.4693 74.4827 21.5131 74.4639L21.7502 74.3619C21.7936 74.3433 21.8445 74.3632 21.8631 74.4071C21.8819 74.4507 21.8618 74.5013 21.8179 74.5202L21.5809 74.6221C21.5699 74.6268 21.5585 74.629 21.5471 74.629Z" fill="#EBE30D"/>
<path d="M22.3027 74.3041C22.2695 74.3041 22.2378 74.2845 22.2239 74.252C22.205 74.2084 22.2251 74.1578 22.269 74.1389L22.7873 73.9162C22.831 73.8979 22.8816 73.9177 22.9004 73.9614C22.9193 74.005 22.8989 74.0556 22.8553 74.0745L22.337 74.2972C22.3258 74.3019 22.3144 74.3041 22.3027 74.3041ZM23.3394 73.8587C23.3061 73.8587 23.2744 73.8391 23.2603 73.8066C23.2414 73.763 23.2615 73.7124 23.3054 73.6935L23.8237 73.4708C23.8671 73.4522 23.918 73.4721 23.9366 73.516C23.9554 73.5596 23.9353 73.6102 23.8914 73.6291L23.3731 73.8518C23.3622 73.8562 23.3508 73.8587 23.3394 73.8587Z" fill="#EBE30D"/>
<path d="M24.3762 73.4131C24.343 73.4131 24.3112 73.3935 24.2971 73.361C24.2783 73.3174 24.2984 73.2668 24.3422 73.248L24.5793 73.146C24.623 73.1277 24.6736 73.1473 24.6922 73.1912C24.711 73.2348 24.6909 73.2854 24.647 73.3042L24.4097 73.4062C24.3993 73.4109 24.3879 73.4131 24.3762 73.4131Z" fill="#EBE30D"/>
<path d="M21.832 75.4441C21.8208 75.4441 21.8096 75.4422 21.7987 75.4375L21.5606 75.338C21.5168 75.3197 21.4962 75.2693 21.5145 75.2254C21.5329 75.1815 21.5835 75.1607 21.6269 75.179L21.8652 75.2785C21.9091 75.2968 21.9297 75.3472 21.9113 75.3911C21.8974 75.4243 21.8654 75.4441 21.832 75.4441Z" fill="#EBE30D"/>
<path d="M23.9144 76.3133C23.9033 76.3133 23.8921 76.3114 23.8814 76.3066L23.3609 76.0894C23.317 76.071 23.2964 76.0207 23.3145 75.9768C23.3331 75.9329 23.3837 75.9121 23.4271 75.9304L23.9477 76.1477C23.9916 76.166 24.0121 76.2164 23.994 76.2603C23.9799 76.2935 23.9482 76.3133 23.9144 76.3133ZM22.8731 75.8788C22.8619 75.8788 22.8508 75.8769 22.8401 75.8721L22.3195 75.6549C22.2756 75.6365 22.2551 75.5862 22.2732 75.5423C22.2915 75.4984 22.3424 75.4776 22.3858 75.4959L22.9063 75.7132C22.9502 75.7315 22.9708 75.7819 22.9527 75.8258C22.939 75.859 22.9068 75.8788 22.8731 75.8788Z" fill="#EBE30D"/>
<path d="M24.6739 76.6301C24.6627 76.6301 24.6515 76.6278 24.6409 76.6234L24.4026 76.5239C24.3587 76.5056 24.3381 76.4552 24.3562 76.4113C24.3745 76.3674 24.4254 76.3469 24.4688 76.365L24.7071 76.4644C24.751 76.4828 24.7716 76.5331 24.7535 76.577C24.7396 76.61 24.7073 76.6301 24.6739 76.6301Z" fill="#EBE30D"/>
<path d="M21.6281 74.9942C21.582 74.9942 21.5438 74.9575 21.542 74.9111C21.5405 74.8635 21.5777 74.8238 21.6254 74.8221L21.8835 74.8134C21.9284 74.8084 21.9706 74.8489 21.9723 74.8965C21.9738 74.9441 21.9366 74.9838 21.8892 74.9855L21.6311 74.9942C21.6298 74.9942 21.6291 74.9942 21.6281 74.9942Z" fill="#EBE30D"/>
<path d="M22.4504 74.9665C22.4042 74.9665 22.366 74.9298 22.3643 74.8831C22.3628 74.8358 22.4 74.7958 22.4476 74.7943L23.0113 74.7752C23.0545 74.769 23.0984 74.8107 23.1004 74.8583C23.1019 74.9057 23.0647 74.9456 23.017 74.9471L22.4531 74.9662C22.4521 74.9665 22.4513 74.9665 22.4504 74.9665ZM23.578 74.9285C23.5319 74.9285 23.4937 74.8918 23.492 74.8454C23.4905 74.7981 23.5277 74.7581 23.575 74.7566L24.139 74.7375C24.1881 74.7338 24.2263 74.773 24.228 74.8206C24.2295 74.868 24.1923 74.9079 24.1447 74.9094L23.581 74.9285C23.5798 74.9285 23.579 74.9285 23.578 74.9285Z" fill="#EBE30D"/>
<path d="M24.7052 74.8905C24.6591 74.8905 24.6209 74.8538 24.6192 74.8074C24.6177 74.7601 24.6549 74.7201 24.7025 74.7186L24.9607 74.71C24.9617 74.71 24.9627 74.71 24.9634 74.71C25.0095 74.71 25.0477 74.7467 25.0495 74.793C25.051 74.8404 25.0138 74.8803 24.9661 74.8818L24.708 74.8905C24.7072 74.8905 24.7062 74.8905 24.7052 74.8905Z" fill="#EBE30D"/>
</svg>
