<svg width="176" height="181" viewBox="0 0 176 181" fill="none" xmlns="http://www.w3.org/2000/svg">
<path d="M116.928 33.3327H140.072C140.072 33.3327 138.026 29.5024 132.068 30.0599C126.378 30.5924 126.089 28.1756 123.196 27.8781C120.303 27.5805 117.892 29.8615 116.928 33.3327Z" fill="#E0E0E0"/>
<path d="M56.4333 96.2552C56.4333 96.2552 54.1147 97.545 57.4903 102.525C60.866 107.505 63.0625 109.896 63.0625 109.896C63.0625 109.896 63.7007 111.073 62.7087 111.411C61.7168 111.748 59.426 111.698 59.1444 113.044C58.8522 114.439 59.9586 115.559 62.0083 116.389C64.0583 117.219 68.4847 119.206 68.8842 119.387C69.2767 119.565 69.7167 120.093 69.0768 120.434C68.4368 120.775 63.468 122.031 64.1882 124.42C64.9087 126.809 70.9888 128.156 71.6509 128.316C72.3127 128.476 72.5 128.729 72.4961 129.091C72.4926 129.453 70.7836 129.713 69.3844 130.13C67.9852 130.547 66.434 131.282 66.9623 132.625C67.4903 133.968 71.3116 136.404 79.7515 136.063L83.6524 135.642L85.3135 131.968C88.4026 123.883 87.422 119.371 86.3628 118.416C85.3036 117.462 84.1181 118.727 83.2754 119.948C82.4327 121.17 81.6316 122.744 81.2979 122.629C80.9642 122.513 80.7938 122.249 80.8642 121.553C80.9346 120.857 81.6977 114.509 79.741 113.024C77.7838 111.538 74.9967 115.951 74.4726 116.46C73.9488 116.97 73.6091 116.369 73.575 115.929C73.5398 115.481 73.1709 110.529 73.0829 108.265C72.9952 106.001 72.3303 104.558 70.9529 104.384C69.6248 104.215 68.9173 106.456 68.2813 107.309C67.6452 108.161 66.7743 107.154 66.7743 107.154C66.7743 107.154 65.3012 104.235 61.8379 99.3185C58.3749 94.4021 56.3879 96.2856 56.3879 96.2856" fill="#EBEBEB"/>
<path d="M83.9795 136.552C81.45 132.931 77.0595 126.418 73.2614 120.846C69.4648 115.277 66.0232 110.237 63.5117 106.603C62.2565 104.791 61.2396 103.323 60.5331 102.303C60.1839 101.799 59.9122 101.405 59.7239 101.133C59.6348 101.002 59.5655 100.9 59.5158 100.827C59.4697 100.758 59.4482 100.72 59.4482 100.72C59.4482 100.72 59.4761 100.753 59.5257 100.819C59.5778 100.891 59.6499 100.99 59.7436 101.118C59.9358 101.387 60.2142 101.775 60.5711 102.274C61.2889 103.279 62.317 104.741 63.5814 106.551C66.1109 110.172 69.5644 115.204 73.3607 120.774C77.1584 126.346 81.5376 132.867 84.0488 136.5" fill="#E0E0E0"/>
<path d="M62.3457 113.246C62.3475 113.238 62.4475 113.252 62.627 113.285C62.8065 113.318 63.0649 113.372 63.3834 113.443C64.0202 113.586 64.8949 113.806 65.8555 114.067C66.802 114.328 67.6581 114.564 68.3128 114.744C68.6085 114.824 68.8577 114.891 69.0584 114.944C69.2347 114.991 69.3315 115.021 69.3298 115.029C69.328 115.037 69.228 115.024 69.0482 114.992C68.8686 114.959 68.6099 114.904 68.2921 114.83C67.6564 114.681 66.7848 114.449 65.8242 114.188C64.8763 113.934 64.0188 113.705 63.363 113.529C63.067 113.451 62.8171 113.385 62.6161 113.332C62.4408 113.285 62.344 113.254 62.3457 113.246Z" fill="#E0E0E0"/>
<path d="M69.5617 114.736C69.5286 114.729 69.8908 112.855 70.3702 110.55C70.8496 108.245 71.265 106.383 71.2981 106.39C71.3308 106.397 70.969 108.271 70.4895 110.577C70.0101 112.881 69.5948 114.744 69.5617 114.736Z" fill="#E0E0E0"/>
<path d="M75.0174 123.562C75.01 123.557 75.055 123.462 75.142 123.293C75.242 123.101 75.3669 122.863 75.5155 122.58C75.8298 121.978 76.2603 121.144 76.7028 120.207C77.1473 119.271 77.5212 118.409 77.7866 117.783C77.9119 117.488 78.0175 117.24 78.102 117.041C78.1773 116.866 78.2227 116.771 78.2308 116.774C78.2385 116.777 78.2083 116.878 78.1463 117.059C78.0844 117.24 77.99 117.499 77.8665 117.817C77.6208 118.453 77.2586 119.323 76.8126 120.262C76.3691 121.202 75.9252 122.031 75.5908 122.623C75.4225 122.919 75.2838 123.156 75.1832 123.317C75.0832 123.479 75.0248 123.566 75.0174 123.562Z" fill="#E0E0E0"/>
<path d="M68.2026 123.691C68.2023 123.682 68.297 123.671 68.4684 123.658C68.6659 123.646 68.9087 123.632 69.1949 123.615C69.8085 123.584 70.6564 123.55 71.5935 123.519C72.5305 123.489 73.3792 123.469 73.9934 123.461C74.2803 123.459 74.5232 123.458 74.721 123.457C74.8928 123.459 74.9881 123.464 74.9885 123.473C74.9888 123.482 74.8942 123.493 74.7227 123.506C74.5253 123.517 74.2824 123.532 73.9962 123.549C73.3823 123.58 72.5343 123.614 71.5973 123.645C70.6607 123.675 69.812 123.695 69.1977 123.703C68.9112 123.705 68.668 123.706 68.4702 123.706C68.298 123.705 68.203 123.7 68.2026 123.691Z" fill="#E0E0E0"/>
<path d="M72.0566 132.111C72.0563 132.103 72.1777 132.089 72.3974 132.073C72.6399 132.057 72.9528 132.038 73.3284 132.014C74.1148 131.969 75.2011 131.917 76.4017 131.866C77.6024 131.816 78.6897 131.777 79.4768 131.756C79.8531 131.748 80.1664 131.741 80.4093 131.736C80.6296 131.735 80.7514 131.738 80.7517 131.746C80.7521 131.755 80.6307 131.769 80.411 131.785C80.1685 131.8 79.8556 131.82 79.48 131.844C78.6936 131.888 77.607 131.941 76.4063 131.992C75.206 132.042 74.119 132.081 73.3316 132.102C72.9553 132.11 72.642 132.116 72.3991 132.121C72.1788 132.123 72.0566 132.12 72.0566 132.111Z" fill="#E0E0E0"/>
<path d="M80.5412 131.695C80.5338 131.691 80.5873 131.568 80.6908 131.35C80.8049 131.113 80.9534 130.803 81.1326 130.429C81.5046 129.651 82.0143 128.575 82.5444 127.37C83.0767 126.166 83.53 125.063 83.8532 124.262C84.0088 123.877 84.1376 123.558 84.2365 123.314C84.328 123.09 84.3822 122.968 84.39 122.971C84.3977 122.974 84.3586 123.102 84.2809 123.331C84.2031 123.56 84.0855 123.89 83.9334 124.295C83.6307 125.105 83.1886 126.215 82.6557 127.422C82.1245 128.629 81.6018 129.701 81.2097 130.47C81.0125 130.853 80.8503 131.162 80.733 131.373C80.6162 131.584 80.5486 131.699 80.5412 131.695Z" fill="#E0E0E0"/>
<path d="M113.275 78.2719C109.084 73.4402 109.488 66.4652 111.073 60.4933C111.337 59.4964 111.474 58.4107 112.142 57.6422C112.81 56.874 114.033 56.5356 114.811 57.172C115.456 57.7001 115.572 58.6453 115.813 59.462C116.133 60.5487 116.755 61.5351 117.586 62.2715C118.132 62.7551 118.855 63.1457 119.549 62.9469C120.502 62.674 120.878 61.5008 121.102 60.4995C121.519 58.6337 121.937 56.768 122.355 54.9029C122.579 53.902 122.811 52.8808 123.332 52.0059C123.853 51.1309 124.724 50.4123 125.709 50.3711C126.695 50.3302 127.712 51.1566 127.682 52.1825C127.67 52.6093 127.492 53.0126 127.423 53.4336C127.355 53.8553 127.437 54.3599 127.794 54.5688C128.154 54.7806 128.609 54.592 128.966 54.3701C130.202 53.6052 131.182 52.471 132.116 51.3333C133.05 50.1955 133.972 49.0223 135.136 48.1433C136.3 47.2644 137.76 46.6989 139.171 46.9567C140.581 47.2148 141.861 48.4593 141.889 49.9504C141.917 51.4455 140.788 52.6803 139.656 53.6092C137.976 54.9873 136.104 56.1117 134.119 56.9367C133.761 57.0858 133.374 57.2462 133.171 57.5879C132.806 58.2029 133.268 59.0142 133.857 59.3892C134.525 59.8138 135.329 59.9279 136.065 60.2044C136.802 60.4806 137.543 61.0247 137.661 61.8309C137.823 62.9495 136.746 63.8179 135.767 64.32C133.806 65.3256 131.682 65.9798 129.515 66.2455C128.738 66.3403 127.931 66.3932 127.235 66.7693C126.54 67.1458 125.985 67.9592 126.171 68.748C126.357 69.5379 127.199 69.981 127.981 70.0201C128.763 70.0599 129.529 69.805 130.307 69.7019C131.762 69.5089 133.465 70.0237 134.047 71.4192C134.43 72.3365 134.229 73.4352 133.73 74.296C133.232 75.1568 132.47 75.8175 131.688 76.4072C128.952 78.4684 125.733 79.8802 122.38 80.2303C119.027 80.5803 116.088 80.18 113.275 78.2719Z" fill="#F5F5F5"/>
<path d="M114.124 78.8526C114.885 76.5191 114.089 77.6906 115.656 74.8659C117.217 72.0376 119.178 69.0833 121.333 66.0657C121.875 65.3134 122.41 64.5702 122.937 63.8376C123.465 63.1078 123.988 62.3834 124.543 61.7079C125.646 60.3515 126.808 59.1337 127.946 58.0133C129.084 56.8919 130.203 55.8707 131.256 54.9237C132.312 53.9785 133.312 53.1166 134.257 52.3709C136.142 50.8722 137.798 49.8502 138.963 49.1968C139.545 48.8681 140.004 48.6281 140.318 48.4699C140.468 48.3954 140.587 48.3364 140.675 48.2922C140.756 48.2535 140.799 48.235 140.8 48.2375C140.802 48.2404 140.762 48.265 140.684 48.3096C140.597 48.3581 140.481 48.4222 140.334 48.504C140.026 48.673 139.573 48.9232 138.996 49.2613C137.844 49.9342 136.204 50.9695 134.335 52.4776C133.398 53.2281 132.405 54.0936 131.356 55.0428C130.308 55.9945 129.193 57.0186 128.062 58.1404C126.93 59.2615 125.776 60.4775 124.68 61.8281C124.13 62.5007 123.611 63.2189 123.083 63.9512C122.556 64.6836 122.022 65.4267 121.481 66.1786C119.328 69.1937 117.367 72.1379 115.802 74.9531C114.232 77.7644 115.021 76.5763 114.247 78.896" fill="#E0E0E0"/>
<path d="M124.596 61.7129C124.583 61.7118 124.585 61.5522 124.599 61.2633C124.612 60.9744 124.643 60.5578 124.689 60.0434C124.781 59.0146 124.955 57.5988 125.153 56.0382C125.351 54.4769 125.504 53.0622 125.58 52.0352C125.62 51.5219 125.648 51.1056 125.663 50.8182C125.681 50.5304 125.697 50.3711 125.709 50.3711C125.722 50.3711 125.73 50.5307 125.735 50.8196C125.741 51.1085 125.733 51.527 125.71 52.0432C125.666 53.0763 125.532 54.499 125.334 56.0617C125.136 57.601 124.956 58.9936 124.818 60.0579C124.759 60.5389 124.71 60.9444 124.67 61.2698C124.634 61.5558 124.608 61.714 124.596 61.7129Z" fill="#E0E0E0"/>
<path d="M137.644 62.3551C137.641 62.3681 137.459 62.346 137.131 62.295C136.804 62.2461 136.331 62.173 135.743 62.1021C134.569 61.95 132.941 61.7991 131.137 61.7129C129.333 61.6304 127.697 61.6267 126.513 61.6597C125.921 61.6716 125.442 61.6948 125.111 61.7086C124.78 61.7238 124.597 61.7259 124.595 61.7129C124.594 61.6995 124.776 61.6727 125.107 61.6343C125.437 61.5981 125.916 61.5543 126.509 61.5247C127.695 61.4573 129.337 61.4392 131.147 61.5221C132.956 61.6086 134.589 61.7817 135.761 61.9685C136.349 62.0568 136.82 62.1506 137.144 62.2222C137.469 62.2957 137.646 62.3421 137.644 62.3551Z" fill="#E0E0E0"/>
<path d="M115.864 74.6665C115.857 74.6676 115.84 74.6068 115.814 74.4891C115.785 74.3494 115.75 74.1785 115.707 73.9722C115.617 73.523 115.502 72.8692 115.371 72.0598C115.107 70.4409 114.811 68.1925 114.517 65.7074C114.223 63.2212 113.948 60.9731 113.717 59.351C113.603 58.5619 113.509 57.9128 113.439 57.4302C113.41 57.221 113.386 57.0487 113.366 56.9072C113.351 56.7873 113.347 56.7236 113.353 56.7222C113.359 56.7215 113.376 56.7823 113.403 56.9003C113.431 57.04 113.467 57.2102 113.509 57.4169C113.6 57.8661 113.714 58.5199 113.846 59.3293C114.109 60.9482 114.405 63.1965 114.699 65.6828C114.994 68.1683 115.269 70.4159 115.499 72.0384C115.614 72.8272 115.707 73.4766 115.777 73.9588C115.807 74.168 115.831 74.3407 115.85 74.4823C115.865 74.6017 115.87 74.6654 115.864 74.6665Z" fill="#E0E0E0"/>
<path d="M133.736 73.2084C133.736 73.2149 133.673 73.225 133.555 73.2381C133.414 73.2511 133.242 73.2674 133.034 73.287C132.554 73.3271 131.907 73.3811 131.119 73.4462C129.503 73.5813 127.272 73.7941 124.808 74.0327C122.342 74.2716 120.107 74.4635 118.488 74.5641C117.678 74.6148 117.022 74.6488 116.569 74.6629C116.359 74.668 116.187 74.6723 116.046 74.6759C115.927 74.677 115.864 74.6738 115.864 74.6673C115.863 74.6607 115.926 74.6506 116.045 74.6372C116.184 74.6242 116.357 74.6083 116.565 74.5887C117.045 74.5485 117.692 74.4949 118.479 74.4294C120.096 74.2948 122.327 74.0815 124.792 73.843C127.257 73.6041 129.491 73.4122 131.111 73.3119C131.921 73.2613 132.577 73.2272 133.031 73.2131C133.24 73.208 133.413 73.2033 133.553 73.2001C133.673 73.1986 133.735 73.2015 133.736 73.2084Z" fill="#E0E0E0"/>
<path d="M147.599 110.049C147.603 110.051 147.583 110.108 147.54 110.218C147.492 110.338 147.428 110.498 147.347 110.7C147.169 111.134 146.916 111.747 146.596 112.52C145.935 114.094 145 116.318 143.884 118.973L143.868 119.012L143.826 119.019C141.324 119.444 138.406 119.94 135.301 120.468C134.328 120.631 133.373 120.792 132.443 120.948L132.313 120.97L132.346 120.839C133.04 118.019 133.68 115.423 134.223 113.217L134.264 113.301C132.182 112.345 130.464 111.555 129.254 110.999C128.666 110.723 128.202 110.506 127.872 110.351C127.722 110.278 127.603 110.221 127.512 110.176C127.431 110.136 127.39 110.113 127.391 110.11C127.393 110.106 127.437 110.122 127.52 110.156C127.614 110.195 127.735 110.247 127.889 110.311C128.222 110.457 128.692 110.662 129.286 110.923C130.503 111.465 132.229 112.235 134.321 113.168L134.376 113.192L134.361 113.253C133.826 115.46 133.197 118.059 132.513 120.882L132.416 120.773C133.346 120.616 134.301 120.454 135.273 120.29C138.379 119.77 141.299 119.282 143.802 118.864L143.744 118.91C144.884 116.265 145.838 114.05 146.514 112.483C146.85 111.717 147.116 111.11 147.304 110.681C147.394 110.483 147.465 110.325 147.518 110.208C147.567 110.101 147.595 110.047 147.599 110.049Z" fill="#E0E0E0"/>
<path d="M133.442 119.914L133.209 120.545L133.582 121.1L132.927 121.067L132.529 121.603L132.357 120.952L131.738 120.728L132.287 120.359L132.302 119.684L132.814 120.107L133.442 119.914Z" fill="#E0E0E0"/>
<path d="M127.588 109.686L127.472 110L127.658 110.276L127.332 110.259L127.134 110.526L127.048 110.202L126.74 110.091L127.013 109.907L127.021 109.572L127.276 109.782L127.588 109.686Z" fill="#E0E0E0"/>
<path d="M144.122 118.579L144.006 118.893L144.192 119.169L143.865 119.153L143.667 119.419L143.582 119.095L143.274 118.984L143.547 118.8L143.554 118.465L143.809 118.675L144.122 118.579Z" fill="#E0E0E0"/>
<path d="M134.581 112.932L134.465 113.246L134.651 113.522L134.325 113.506L134.126 113.773L134.041 113.449L133.733 113.338L134.006 113.154L134.014 112.818L134.268 113.029L134.581 112.932Z" fill="#E0E0E0"/>
<path d="M147.995 109.735L147.879 110.049L148.065 110.325L147.739 110.309L147.541 110.576L147.455 110.252L147.147 110.141L147.421 109.957L147.428 109.621L147.682 109.831L147.995 109.735Z" fill="#E0E0E0"/>
<path d="M41.3057 136.078H59.7329C59.7329 136.078 58.1035 133.028 53.3599 133.472C48.8297 133.896 48.5995 131.972 46.296 131.735C43.9928 131.498 42.0734 133.314 41.3057 136.078Z" fill="#E0E0E0"/>
<path d="M44.9644 61.4652H63.3916C63.3916 61.4652 61.7621 58.4157 57.0189 58.8596C52.4887 59.2835 52.2585 57.3594 49.955 57.1223C47.6515 56.8852 45.7321 58.7014 44.9644 61.4652Z" fill="#F5F5F5"/>
<path d="M138.554 74.6439H153.694C153.694 74.6439 152.356 72.1381 148.458 72.503C144.736 72.8512 144.547 71.2704 142.655 71.0756C140.762 70.8809 139.185 72.373 138.554 74.6439Z" fill="#F5F5F5"/>
<path d="M108.322 105.376C109.073 99.5417 105.085 94.7282 100.1 91.8354C95.1159 88.9427 89.334 87.9747 83.8291 86.366C78.6371 84.8488 73.4732 82.6355 69.6276 78.7404C65.782 74.8453 63.475 68.99 64.8577 63.6244C65.2047 62.277 65.825 60.9239 66.95 60.1467C68.0749 59.3694 69.7924 59.3894 70.6315 60.4837C72.4186 62.8146 68.9363 66.9892 71.1169 68.9335C71.6175 69.3798 72.306 69.5442 72.8241 69.9688C74.2029 71.0997 73.7566 73.2981 73.9512 75.1009C74.3363 78.6662 77.587 81.1419 80.7797 82.5863C85.0558 84.5212 89.6884 85.4306 94.225 86.5774C98.7616 87.7242 103.336 89.1689 107.115 91.9929C110.895 94.8168 114.174 99.2376 114.148 104.042C114.14 105.384 113.974 107.035 113.155 108.08C112.336 109.125 111.292 109.342 110.111 108.771C108.929 108.199 108.103 107.315 108.322 105.376Z" fill="#F2E635"/>
<g opacity="0.8">
<path d="M108.322 105.376C109.073 99.5417 105.085 94.7282 100.1 91.8354C95.1159 88.9427 89.334 87.9747 83.8291 86.366C78.6371 84.8488 73.4732 82.6355 69.6276 78.7404C65.782 74.8453 63.475 68.99 64.8577 63.6244C65.2047 62.277 65.825 60.9239 66.95 60.1467C68.0749 59.3694 69.7924 59.3894 70.6315 60.4837C72.4186 62.8146 68.9363 66.9892 71.1169 68.9335C71.6175 69.3798 72.306 69.5442 72.8241 69.9688C74.2029 71.0997 73.7566 73.2981 73.9512 75.1009C74.3363 78.6662 77.587 81.1419 80.7797 82.5863C85.0558 84.5212 89.6884 85.4306 94.225 86.5774C98.7616 87.7242 103.336 89.1689 107.115 91.9929C110.895 94.8168 114.174 99.2376 114.148 104.042C114.14 105.384 113.974 107.035 113.155 108.08C112.336 109.125 111.292 109.342 110.111 108.771C108.929 108.199 108.103 107.315 108.322 105.376Z" fill="white"/>
</g>
<path d="M84.2084 58.9959C84.0289 56.8348 85.5942 54.9531 87.3746 53.9442C89.1551 52.9353 91.1942 52.5255 93.0299 51.6307C97.5872 49.4087 100.485 44.1796 100.699 38.8159C100.913 33.4521 98.6527 28.0916 95.1155 24.152C93.6783 22.5512 91.9102 20.874 91.889 18.6901C91.8669 16.4113 94.0162 14.6154 96.163 14.6444C98.3099 14.6733 100.288 16.151 101.573 18.0103C102.858 19.8695 103.569 22.0849 104.261 24.2602C103.768 23.3509 104.781 22.2243 105.757 22.3213C106.733 22.4183 107.503 23.2553 108.105 24.089C110.691 27.6699 111.971 32.2702 111.614 36.7021C111.257 41.1341 109.268 45.3518 106.159 48.2662C102.686 51.5213 98.0906 53.0486 93.6367 54.4941C90.5374 55.4997 87.438 56.5057 84.3383 57.5113" fill="#F2E635"/>
<g opacity="0.8">
<path d="M84.2084 58.9959C84.0289 56.8348 85.5942 54.9531 87.3746 53.9442C89.1551 52.9353 91.1942 52.5255 93.0299 51.6307C97.5872 49.4087 100.485 44.1796 100.699 38.8159C100.913 33.4521 98.6527 28.0916 95.1155 24.152C93.6783 22.5512 91.9102 20.874 91.889 18.6901C91.8669 16.4113 94.0162 14.6154 96.163 14.6444C98.3099 14.6733 100.288 16.151 101.573 18.0103C102.858 19.8695 103.569 22.0849 104.261 24.2602C103.768 23.3509 104.781 22.2243 105.757 22.3213C106.733 22.4183 107.503 23.2553 108.105 24.089C110.691 27.6699 111.971 32.2702 111.614 36.7021C111.257 41.1341 109.268 45.3518 106.159 48.2662C102.686 51.5213 98.0906 53.0486 93.6367 54.4941C90.5374 55.4997 87.438 56.5057 84.3383 57.5113" fill="white"/>
</g>
<path d="M81.6219 13.5834C80.6983 13.983 80.1914 15.1863 80.5395 16.1528C80.888 17.1194 82.0348 17.6921 82.9887 17.376C83.9427 17.06 84.5488 15.9063 84.2834 14.9126C84.0176 13.9186 82.9233 13.246 81.9461 13.4759" fill="#F2E635"/>
<g opacity="0.8">
<path d="M81.6219 13.5834C80.6983 13.983 80.1914 15.1863 80.5395 16.1528C80.888 17.1194 82.0348 17.6921 82.9887 17.376C83.9427 17.06 84.5488 15.9063 84.2834 14.9126C84.0176 13.9186 82.9233 13.246 81.9461 13.4759" fill="white"/>
</g>
<path d="M93.0874 153.069C91.9476 150.638 92.9413 147.609 94.7569 145.662C96.5725 143.714 99.0527 142.603 101.454 141.515C106.753 139.115 112.363 136.254 115.058 130.983C115.967 129.206 116.484 127.249 116.996 125.311C117.985 121.559 118.912 117.299 116.923 113.994C116.351 113.043 115.49 112.197 114.42 112.002C113.201 111.779 111.948 112.47 111.197 113.481C110.446 114.493 110.123 115.775 109.968 117.038C109.673 119.44 109.918 121.884 109.672 124.292C109.426 126.701 108.569 129.219 106.638 130.604C104.292 132.286 100.944 131.909 98.6655 133.686C96.8256 135.121 96.1258 137.609 94.6869 139.467C93.4774 141.028 91.7853 142.095 90.2351 143.295C88.6849 144.495 87.1857 145.96 86.6588 147.881C86.1118 149.876 86.7957 152.171 88.3364 153.508C89.8771 154.845 92.1915 155.152 94.0121 154.262" fill="#F2E635"/>
<g opacity="0.8">
<path d="M93.0874 153.069C91.9476 150.638 92.9413 147.609 94.7569 145.662C96.5725 143.714 99.0527 142.603 101.454 141.515C106.753 139.115 112.363 136.254 115.058 130.983C115.967 129.206 116.484 127.249 116.996 125.311C117.985 121.559 118.912 117.299 116.923 113.994C116.351 113.043 115.49 112.197 114.42 112.002C113.201 111.779 111.948 112.47 111.197 113.481C110.446 114.493 110.123 115.775 109.968 117.038C109.673 119.44 109.918 121.884 109.672 124.292C109.426 126.701 108.569 129.219 106.638 130.604C104.292 132.286 100.944 131.909 98.6655 133.686C96.8256 135.121 96.1258 137.609 94.6869 139.467C93.4774 141.028 91.7853 142.095 90.2351 143.295C88.6849 144.495 87.1857 145.96 86.6588 147.881C86.1118 149.876 86.7957 152.171 88.3364 153.508C89.8771 154.845 92.1915 155.152 94.0121 154.262" fill="white"/>
</g>
<path d="M57.8428 30.3561C55.9765 28.9323 54.8378 26.5526 54.879 24.1634C54.9205 21.7742 56.1413 19.4374 58.0558 18.0832C59.1382 17.3176 60.4216 16.8491 61.384 15.9293C62.2397 15.1115 62.7962 13.977 63.7536 13.2892C64.9434 12.4349 66.6692 12.4726 67.8228 13.3779C68.9759 14.2837 69.4662 15.9861 68.978 17.3914C68.5366 18.662 67.4278 19.5902 66.9642 20.8521C66.4654 22.2107 66.7868 23.7326 66.6013 25.1722C66.3736 26.9413 65.3288 28.5805 63.842 29.5007C62.3551 30.4209 60.4575 30.603 58.8309 29.9814" fill="#F2E635"/>
<g opacity="0.8">
<path d="M57.8428 30.3561C55.9765 28.9323 54.8378 26.5526 54.879 24.1634C54.9205 21.7742 56.1413 19.4374 58.0558 18.0832C59.1382 17.3176 60.4216 16.8491 61.384 15.9293C62.2397 15.1115 62.7962 13.977 63.7536 13.2892C64.9434 12.4349 66.6692 12.4726 67.8228 13.3779C68.9759 14.2837 69.4662 15.9861 68.978 17.3914C68.5366 18.662 67.4278 19.5902 66.9642 20.8521C66.4654 22.2107 66.7868 23.7326 66.6013 25.1722C66.3736 26.9413 65.3288 28.5805 63.842 29.5007C62.3551 30.4209 60.4575 30.603 58.8309 29.9814" fill="white"/>
</g>
<path d="M60.3987 33.726H59.8834C58.8309 33.726 57.978 32.8485 57.978 31.7665V22.5952H62.3041V31.7665C62.3041 32.8485 61.4512 33.726 60.3987 33.726Z" fill="#F2E635"/>
<path d="M57.978 22.5952L60.1411 18.5151L62.3041 22.5952H57.978Z" fill="#FFFEED"/>
<path d="M59.2842 20.1311C59.2842 20.1311 59.941 21.1469 60.9977 20.1311L60.1409 18.5151L59.2842 20.1311Z" fill="#F2E635"/>
<path d="M62.3637 31.3198C62.3637 31.3694 61.3792 31.4095 60.1648 31.4095C58.95 31.4095 57.9658 31.3694 57.9658 31.3198C57.9658 31.2702 58.9504 31.23 60.1648 31.23C61.3792 31.23 62.3637 31.2702 62.3637 31.3198Z" fill="#263238"/>
<path d="M62.3198 30.6376C62.3198 30.6872 61.355 30.7274 60.1652 30.7274C58.9747 30.7274 58.0103 30.6872 58.0103 30.6376C58.0103 30.588 58.9747 30.5479 60.1652 30.5479C61.3553 30.5479 62.3198 30.588 62.3198 30.6376Z" fill="#263238"/>
<path d="M59.2475 22.6602C59.2957 22.6602 59.3347 24.4361 59.3347 26.6259C59.3347 28.8167 59.2957 30.5919 59.2475 30.5919C59.1992 30.5919 59.1602 28.8167 59.1602 26.6259C59.1602 24.4358 59.1992 22.6602 59.2475 22.6602Z" fill="#FAFAFA"/>
<path d="M60.9979 22.6602C61.0462 22.6602 61.0852 24.4361 61.0852 26.6259C61.0852 28.8167 61.0462 30.5919 60.9979 30.5919C60.9497 30.5919 60.9106 28.8167 60.9106 26.6259C60.9106 24.4358 60.9497 22.6602 60.9979 22.6602Z" fill="#FAFAFA"/>
<path d="M95.5631 147.956L115.217 148.821L115.692 149.998L102.81 171.501L79.5566 170.803L95.5631 147.956Z" fill="#263238"/>
<path d="M78.6743 168.707L102.068 170.081L114.287 150.581L105.707 151.298L83.9909 159.162L78.6743 168.707Z" fill="#E0E0E0"/>
<path d="M75.3887 167.261L96.8709 167.609C95.9785 164.783 98.0832 160.802 100.971 159.463C102.885 158.576 106.487 157.426 108.346 156.446C111.877 154.582 115.069 151.054 114.789 148.027L105.967 147.738L94.7057 147.291C93.7641 150.163 91.75 152.045 88.6879 153.177C85.9476 154.191 82.8289 154.188 80.1561 155.339C75.854 157.192 73.7867 163.196 75.3887 167.261Z" fill="#EBEBEB"/>
<path d="M75.3888 167.26C75.3888 167.26 75.3683 167.213 75.3349 167.118C75.3001 167.017 75.2515 166.876 75.1878 166.692C75.1128 166.506 75.0691 166.262 75.0047 165.976C74.9276 165.692 74.902 165.352 74.8565 164.971C74.802 164.206 74.8097 163.251 75.0269 162.162C75.2455 161.078 75.6609 159.856 76.4046 158.656C76.5975 158.361 76.783 158.049 77.0231 157.767C77.1396 157.624 77.2487 157.471 77.3747 157.33C77.5057 157.194 77.6377 157.056 77.7715 156.917C77.9003 156.772 78.0485 156.645 78.2009 156.52C78.353 156.395 78.5001 156.26 78.661 156.14C78.9978 155.922 79.3241 155.668 79.7067 155.498C81.1954 154.727 82.9737 154.401 84.8255 154.056C85.7541 153.883 86.7101 153.701 87.67 153.429C88.6257 153.15 89.5884 152.778 90.5019 152.257C90.9609 152.002 91.4044 151.704 91.8236 151.365C92.246 151.031 92.642 150.651 92.9965 150.226C93.7188 149.387 94.2623 148.366 94.6287 147.263L94.6484 147.205L94.7086 147.207C97.6992 147.324 100.838 147.447 104.092 147.575C107.345 147.707 110.714 147.798 114.163 147.916C114.375 147.923 114.586 147.93 114.792 147.937L114.87 147.939L114.876 148.018C114.936 148.718 114.812 149.414 114.592 150.06C114.492 150.389 114.339 150.693 114.199 151.002C114.033 151.296 113.878 151.596 113.685 151.87C112.953 152.995 112.014 153.937 111.024 154.764C110.025 155.585 108.941 156.267 107.812 156.804C106.679 157.328 105.532 157.755 104.408 158.183C103.284 158.61 102.173 159.016 101.118 159.488C100.601 159.736 100.104 160.018 99.6732 160.39C99.4448 160.557 99.2544 160.769 99.0456 160.957C98.8619 161.171 98.6574 161.364 98.494 161.592C97.8003 162.467 97.2789 163.459 96.9917 164.496C96.6876 165.525 96.6538 166.614 96.9386 167.587L96.9674 167.685L96.8696 167.683C90.3628 167.564 84.9945 167.466 81.2464 167.398C79.3787 167.359 77.9158 167.329 76.914 167.308C76.4194 167.295 76.0396 167.285 75.7774 167.278C75.5208 167.27 75.3888 167.26 75.3888 167.26C75.3888 167.26 75.5211 167.255 75.7781 167.255C76.0403 167.257 76.4201 167.26 76.9147 167.263C77.9168 167.275 79.3797 167.292 81.2478 167.313C84.9959 167.367 90.3646 167.443 96.872 167.536L96.803 167.632C96.5045 166.624 96.5401 165.504 96.8481 164.453C97.1395 163.394 97.6682 162.384 98.3733 161.491C98.5394 161.259 98.7471 161.06 98.9347 160.843C99.147 160.651 99.3413 160.434 99.5747 160.262C100.013 159.883 100.526 159.589 101.053 159.336C102.117 158.858 103.227 158.452 104.35 158.023C105.473 157.595 106.619 157.166 107.742 156.646C108.856 156.114 109.929 155.438 110.916 154.626C111.895 153.807 112.822 152.876 113.541 151.771C113.731 151.502 113.882 151.207 114.044 150.919C114.181 150.618 114.331 150.321 114.428 150.002C114.64 149.374 114.759 148.704 114.703 148.036L114.787 148.118C114.581 148.111 114.369 148.104 114.157 148.097C110.708 147.978 107.339 147.886 104.085 147.752C100.832 147.621 97.6929 147.495 94.7023 147.374L94.7818 147.318C94.408 148.438 93.8519 149.478 93.1144 150.333C92.7522 150.764 92.3481 151.151 91.918 151.49C91.4907 151.833 91.0401 152.135 90.574 152.393C89.6469 152.919 88.6743 153.292 87.7081 153.571C86.7394 153.843 85.7787 154.023 84.8495 154.194C82.9965 154.533 81.2281 154.853 79.7596 155.608C79.3826 155.773 79.0605 156.023 78.7271 156.235C78.568 156.353 78.4227 156.486 78.272 156.609C78.121 156.731 77.9742 156.855 77.8468 156.998C77.7141 157.135 77.5828 157.271 77.4529 157.405C77.3276 157.543 77.2192 157.694 77.1034 157.835C76.8647 158.112 76.6799 158.42 76.4874 158.71C75.745 159.895 75.3258 161.104 75.1012 162.179C74.8784 163.258 74.8625 164.206 74.9083 164.967C74.9495 165.347 74.9706 165.685 75.0431 165.969C75.1029 166.254 75.142 166.498 75.2128 166.685C75.2708 166.87 75.3152 167.013 75.3472 167.114C75.3768 167.21 75.3888 167.26 75.3888 167.26Z" fill="#263238"/>
<path d="M100.74 147.648C100.725 147.644 100.768 147.507 100.789 147.254C100.808 147.003 100.791 146.626 100.62 146.21C100.455 145.799 100.125 145.344 99.6047 145.091C99.0919 144.837 98.4139 144.784 97.7944 145.024C97.1703 145.26 96.7208 145.783 96.4867 146.319C96.2431 146.859 96.2101 147.416 96.2801 147.858C96.3505 148.304 96.5149 148.639 96.6472 148.852C96.7803 149.067 96.8796 149.169 96.8687 149.179C96.863 149.186 96.7465 149.101 96.5916 148.892C96.4378 148.685 96.2484 148.346 96.1587 147.881C96.0693 147.42 96.09 146.828 96.3399 146.252C96.5793 145.68 97.0577 145.112 97.7332 144.856C98.4002 144.598 99.126 144.66 99.6759 144.943C100.236 145.225 100.576 145.724 100.735 146.163C100.901 146.608 100.897 147.004 100.857 147.262C100.836 147.391 100.81 147.49 100.785 147.554C100.761 147.618 100.746 147.651 100.74 147.648Z" fill="#263238"/>
<path d="M104.107 147.648C104.092 147.644 104.135 147.507 104.156 147.254C104.174 147.003 104.158 146.626 103.987 146.21C103.822 145.799 103.492 145.344 102.971 145.091C102.459 144.837 101.781 144.784 101.161 145.024C100.537 145.26 100.088 145.783 99.8534 146.319C99.6095 146.859 99.5768 147.416 99.6468 147.858C99.7172 148.304 99.8816 148.639 100.014 148.852C100.147 149.067 100.246 149.169 100.235 149.179C100.23 149.186 100.113 149.101 99.9583 148.892C99.8045 148.685 99.6151 148.346 99.5254 147.881C99.436 147.42 99.4567 146.828 99.7066 146.252C99.946 145.68 100.424 145.112 101.1 144.856C101.767 144.598 102.493 144.66 103.043 144.943C103.603 145.225 103.943 145.724 104.102 146.163C104.268 146.608 104.264 147.004 104.224 147.262C104.202 147.391 104.177 147.49 104.152 147.554C104.128 147.618 104.113 147.651 104.107 147.648Z" fill="#263238"/>
<path d="M106.664 147.828C106.648 147.824 106.685 147.685 106.691 147.431C106.696 147.18 106.659 146.805 106.465 146.4C106.277 145.999 105.923 145.563 105.39 145.341C104.863 145.118 104.184 145.104 103.579 145.38C102.969 145.652 102.548 146.2 102.344 146.748C102.131 147.302 102.128 147.859 102.222 148.297C102.317 148.738 102.5 149.063 102.644 149.268C102.788 149.475 102.893 149.571 102.883 149.582C102.878 149.589 102.756 149.511 102.59 149.311C102.426 149.114 102.218 148.786 102.102 148.326C101.988 147.872 101.976 147.28 102.194 146.689C102.401 146.104 102.848 145.51 103.508 145.216C104.159 144.919 104.888 144.938 105.452 145.189C106.027 145.438 106.394 145.917 106.577 146.346C106.767 146.781 106.785 147.176 106.759 147.436C106.745 147.566 106.725 147.666 106.703 147.731C106.683 147.797 106.67 147.83 106.664 147.828Z" fill="#263238"/>
<path d="M109.406 147.989C109.39 147.986 109.419 147.845 109.412 147.59C109.404 147.339 109.348 146.966 109.133 146.572C108.925 146.183 108.549 145.767 108.005 145.574C107.468 145.379 106.788 145.403 106.198 145.711C105.603 146.015 105.211 146.586 105.036 147.145C104.851 147.71 104.877 148.266 104.994 148.698C105.111 149.134 105.31 149.448 105.465 149.645C105.62 149.843 105.729 149.933 105.719 149.945C105.714 149.953 105.589 149.881 105.413 149.691C105.239 149.503 105.014 149.186 104.876 148.734C104.738 148.286 104.695 147.695 104.883 147.094C105.06 146.499 105.475 145.88 106.119 145.551C106.754 145.219 107.483 145.199 108.059 145.418C108.646 145.636 109.037 146.094 109.242 146.512C109.454 146.936 109.492 147.331 109.479 147.591C109.472 147.722 109.458 147.823 109.439 147.889C109.423 147.956 109.412 147.99 109.406 147.989Z" fill="#263238"/>
<path d="M112.153 147.922C112.137 147.92 112.162 147.778 112.148 147.524C112.133 147.273 112.067 146.902 111.842 146.515C111.623 146.131 111.236 145.726 110.687 145.55C110.145 145.37 109.466 145.413 108.885 145.739C108.298 146.06 107.922 146.641 107.762 147.206C107.593 147.775 107.634 148.331 107.763 148.759C107.892 149.191 108.1 149.5 108.259 149.692C108.42 149.886 108.532 149.973 108.522 149.985C108.518 149.993 108.391 149.925 108.209 149.74C108.029 149.557 107.796 149.247 107.645 148.799C107.495 148.355 107.437 147.766 107.608 147.159C107.768 146.559 108.167 145.929 108.801 145.581C109.428 145.231 110.155 145.19 110.737 145.392C111.329 145.593 111.734 146.04 111.95 146.452C112.173 146.869 112.222 147.262 112.217 147.522C112.213 147.654 112.201 147.755 112.185 147.822C112.169 147.889 112.159 147.924 112.153 147.922Z" fill="#263238"/>
<path d="M114.467 148.24C114.451 148.237 114.482 148.096 114.478 147.842C114.473 147.591 114.421 147.218 114.211 146.821C114.007 146.429 113.636 146.008 113.094 145.809C112.559 145.608 111.88 145.623 111.286 145.924C110.687 146.221 110.29 146.787 110.108 147.344C109.916 147.906 109.937 148.464 110.048 148.896C110.16 149.334 110.356 149.651 110.508 149.849C110.661 150.05 110.769 150.141 110.759 150.153C110.754 150.16 110.63 150.087 110.456 149.894C110.284 149.704 110.063 149.385 109.929 148.931C109.796 148.481 109.761 147.89 109.955 147.291C110.139 146.698 110.561 146.085 111.209 145.763C111.848 145.439 112.577 145.428 113.151 145.654C113.735 145.879 114.121 146.341 114.321 146.762C114.528 147.189 114.562 147.583 114.546 147.843C114.538 147.974 114.522 148.075 114.503 148.141C114.485 148.208 114.473 148.241 114.467 148.24Z" fill="#263238"/>
<path d="M124.591 74.0842C123.667 74.0574 122.686 74.0914 121.681 74.2196C115.616 74.9925 111.096 80.3504 111.108 86.6358C111.111 88.4661 111.302 90.5143 111.861 92.5538C113.553 98.7277 114.075 104.171 113.88 106.821L119.546 109.954C119.546 109.954 122.169 106.078 124.703 104.406C127.236 102.734 135.672 98.2654 139.011 93.6709C141.164 90.7087 141.578 84.63 136.446 79.3137C133.31 76.0654 129.04 74.2131 124.591 74.0842Z" fill="#F2E635"/>
<path d="M111.197 113.564L116.316 116.409L112.984 120.761L109.572 119.166L111.197 113.564Z" fill="#455A64"/>
<path d="M111.446 113.74C111.4 113.723 111.908 112.16 112.58 110.25C113.252 108.34 113.834 106.805 113.879 106.822C113.924 106.839 113.417 108.401 112.745 110.312C112.073 112.222 111.491 113.756 111.446 113.74Z" fill="#263238"/>
<path d="M115.993 116.195C115.952 116.17 116.754 114.694 117.785 112.899C118.816 111.103 119.685 109.668 119.727 109.694C119.768 109.719 118.966 111.195 117.935 112.99C116.904 114.785 116.035 116.22 115.993 116.195Z" fill="#263238"/>
<g opacity="0.4">
<path d="M126.298 74.2498C126.068 74.2628 123.252 77.6533 122.006 79.948C117.814 87.668 117.626 95.1817 116.462 103.942C116.296 105.194 115.691 107.892 115.703 107.83C116.323 108.33 118.408 109.325 118.408 109.325C118.408 109.325 120.373 106.885 121.154 105.658C124.282 100.743 127.678 96.9128 130.356 91.725C133.034 86.5368 135.611 81.9365 133.132 76.6444C133.132 76.6444 128.84 74.1032 126.298 74.2498Z" fill="black"/>
</g>
<path d="M139.033 94.4473C139.029 94.4487 139.004 94.3915 138.96 94.2804C138.912 94.1703 138.858 94.0009 138.764 93.7909C138.579 93.3699 138.277 92.7636 137.775 92.0798C137.271 91.4021 136.568 90.6365 135.6 89.9936C134.649 89.3358 133.423 88.8149 132.034 88.6357L132 88.6314L131.98 88.6035C131.328 87.7003 130.582 86.7685 129.693 85.9037C128.805 85.0414 127.766 84.2479 126.571 83.693C125.378 83.1456 124.093 82.9031 122.881 82.9697C121.669 83.0327 120.532 83.4291 119.652 84.0763L119.601 84.114L119.554 84.0712C118.502 83.1195 117.241 82.6276 116.105 82.4951C114.962 82.3593 113.947 82.5758 113.173 82.8795C112.393 83.1847 111.844 83.5728 111.489 83.8544C111.312 83.9967 111.18 84.1125 111.094 84.1936C111.007 84.274 110.96 84.3138 110.957 84.3109C110.954 84.3076 110.995 84.2617 111.077 84.1748C111.157 84.0872 111.284 83.9645 111.458 83.8146C111.806 83.5181 112.353 83.1123 113.14 82.7894C113.919 82.4683 114.951 82.2341 116.12 82.3615C117.281 82.4857 118.574 82.9784 119.658 83.9496L119.56 83.9445C120.463 83.273 121.632 82.8614 122.872 82.7945C124.113 82.7232 125.424 82.9697 126.643 83.5286C127.861 84.0937 128.915 84.9017 129.81 85.7759C130.708 86.6527 131.456 87.5953 132.107 88.5068L132.053 88.4746C133.47 88.6647 134.713 89.2044 135.673 89.881C136.648 90.5427 137.351 91.3279 137.85 92.0211C138.347 92.7209 138.638 93.3399 138.81 93.7699C138.898 93.9843 138.944 94.1576 138.984 94.2706C139.02 94.3861 139.037 94.4458 139.033 94.4473Z" fill="#263238"/>
<path d="M128.5 102.14C128.466 102.153 128.472 101.614 128.011 100.874C127.779 100.515 127.431 100.107 126.923 99.8C126.428 99.4839 125.764 99.2718 125.048 99.3431L124.977 99.35L124.966 99.2776C124.853 98.529 124.551 97.7326 124.037 97.0267C123.525 96.3244 122.808 95.6978 121.934 95.3484C121.217 95.0545 120.454 94.9517 119.737 95.002C119.018 95.0549 118.348 95.2645 117.779 95.5707L117.725 95.5997L117.684 95.5541C117.117 94.93 116.386 94.5799 115.716 94.4579C115.043 94.3182 114.43 94.3884 113.952 94.5148C112.983 94.7863 112.571 95.2674 112.551 95.2297C112.549 95.2265 112.574 95.1997 112.626 95.1512C112.681 95.1048 112.755 95.027 112.867 94.9466C113.087 94.7823 113.437 94.5694 113.927 94.4214C114.413 94.278 115.043 94.1926 115.74 94.3254C116.434 94.4405 117.2 94.7935 117.8 95.4444L117.705 95.4277C118.29 95.1059 118.982 94.8847 119.725 94.8272C120.465 94.7718 121.255 94.8764 122 95.1812C122.907 95.5443 123.647 96.1955 124.172 96.9235C124.7 97.6555 125.005 98.4801 125.114 99.2544L125.032 99.1893C125.789 99.1219 126.479 99.3561 126.987 99.6921C127.507 100.02 127.856 100.449 128.085 100.825C128.311 101.207 128.412 101.547 128.46 101.778C128.484 101.894 128.488 101.986 128.496 102.047C128.503 102.108 128.504 102.14 128.5 102.14Z" fill="#263238"/>
<path d="M115.326 117.779C115.313 117.789 115.271 117.707 115.139 117.651C115.007 117.594 114.794 117.587 114.54 117.67C114.41 117.705 114.263 117.755 114.087 117.755C113.911 117.758 113.716 117.671 113.581 117.525C113.31 117.235 113.206 116.814 112.95 116.523C112.822 116.381 112.656 116.308 112.478 116.319C112.301 116.326 112.122 116.387 111.944 116.429C111.768 116.472 111.58 116.5 111.408 116.458C111.237 116.421 111.097 116.333 110.989 116.237C110.772 116.041 110.677 115.811 110.652 115.652C110.626 115.491 110.651 115.403 110.659 115.404C110.674 115.404 110.674 115.492 110.718 115.635C110.76 115.777 110.865 115.977 111.067 116.139C111.168 116.218 111.293 116.287 111.437 116.312C111.578 116.34 111.737 116.314 111.906 116.268C112.076 116.224 112.257 116.155 112.471 116.143C112.686 116.123 112.926 116.225 113.077 116.4C113.374 116.748 113.468 117.162 113.697 117.41C113.808 117.532 113.947 117.601 114.091 117.606C114.235 117.612 114.378 117.575 114.511 117.546C114.778 117.474 115.029 117.501 115.168 117.588C115.312 117.676 115.334 117.779 115.326 117.779Z" fill="#263238"/>
<path d="M115.913 116.934C115.891 116.978 114.773 116.41 113.416 115.666C112.06 114.922 110.978 114.283 111.001 114.239C111.024 114.195 112.142 114.763 113.499 115.507C114.855 116.252 115.936 116.89 115.913 116.934Z" fill="#263238"/>
<path d="M114.897 118.262C114.899 118.276 114.825 118.298 114.702 118.357C114.639 118.386 114.568 118.429 114.47 118.47C114.373 118.512 114.246 118.527 114.118 118.517C113.862 118.499 113.547 118.416 113.274 118.183C113.139 118.069 113.024 117.903 112.953 117.728C112.877 117.556 112.818 117.38 112.705 117.254C112.471 116.997 112.092 116.969 111.778 116.981C111.454 116.993 111.136 117.003 110.887 116.893C110.642 116.788 110.493 116.609 110.437 116.469C110.38 116.327 110.401 116.24 110.409 116.241C110.424 116.239 110.429 116.321 110.498 116.437C110.565 116.551 110.709 116.695 110.932 116.774C111.152 116.856 111.442 116.838 111.772 116.815C112.093 116.798 112.527 116.803 112.834 117.133C112.98 117.298 113.039 117.495 113.109 117.656C113.175 117.821 113.264 117.953 113.38 118.058C113.61 118.267 113.895 118.359 114.129 118.391C114.366 118.435 114.537 118.333 114.678 118.292C114.815 118.251 114.895 118.252 114.897 118.262Z" fill="#263238"/>
<path d="M76.2502 84.453L85.1016 83.1031L80.8695 76.9375L78.6002 77.0751C77.0729 77.1677 75.7265 78.1383 75.121 79.5834C74.7993 80.3508 74.7099 81.2 74.8641 82.0207L76.2502 84.453Z" fill="#F2E635"/>
<path opacity="0.4" d="M76.2502 84.453L85.1016 83.1031L80.8695 76.9375L78.6002 77.0751C77.0729 77.1677 75.7265 78.1383 75.121 79.5834C74.7993 80.3508 74.7099 81.2 74.8641 82.0207L76.2502 84.453Z" fill="black"/>
<path d="M114.272 94.5401C114.363 94.8008 114.463 95.1095 114.564 95.4784C114.65 95.7952 114.681 96.1253 114.659 96.4537C114.633 96.8515 114.577 97.3793 114.459 97.658C114.314 98.0034 114.652 98.3509 114.939 98.1782C115.226 98.0056 115.65 97.0643 115.623 95.8527C115.597 94.6411 116.799 96.0935 117.246 96.6144C117.693 97.1353 119.15 98.681 119.415 98.6666C119.803 98.6452 119.852 98.2137 119.394 97.704C118.93 97.1882 117.666 95.566 117.945 95.3365C118.22 95.1103 120.461 97.7952 120.461 97.7952C120.461 97.7952 120.85 98.449 121.181 98.1945C121.778 97.7359 119.191 95.0621 118.939 94.8142C118.763 94.6415 119.058 94.3812 119.236 94.5767C119.421 94.778 121.411 97.3083 122.024 96.8471C122.493 96.4935 119.915 94.6277 119.786 93.8668C119.656 93.1059 121.601 95.486 122.036 95.1295C122.198 94.9966 122.301 94.8742 120.993 93.6731C120.358 93.0899 117.943 91.3524 117.943 91.3524L110.678 69.96L105.067 73.2643L114.272 94.5401Z" fill="#FFFEED"/>
<path d="M71.0243 54.0834L62.9057 44.1193L62.905 44.1197C62.7998 43.7773 62.6734 43.4431 62.508 43.1264C62.1021 42.3492 61.4309 41.6719 60.5927 41.4833C60.0778 41.3674 59.4885 41.4232 59.0844 41.0749C58.9039 40.9193 58.7835 40.6977 58.5941 40.5533C58.4051 40.4088 58.0897 40.381 57.9686 40.5891C57.8823 40.7372 57.9373 40.9269 58.0024 41.0858C58.3037 41.8214 58.7961 42.4712 59.4118 42.9566C58.6504 43.1944 57.5634 43.5543 57.5634 43.5543C57.5634 43.5543 55.8471 41.6393 54.9681 41.6454C54.0892 41.6516 55.6785 43.3552 55.6785 43.3552C55.6785 43.3552 54.2708 42.0176 53.8343 42.3944C53.3979 42.7716 54.5165 43.7646 54.5165 43.7646C54.161 43.5691 53.772 43.3678 53.3746 43.4355C52.9772 43.5036 52.6351 43.9861 52.8491 44.3369C52.9311 44.4716 53.0716 44.5541 53.2067 44.6316C53.9269 45.0443 54.6471 45.4573 55.3677 45.8703C55.7292 46.0778 56.109 46.2903 56.5229 46.3033C57.6191 46.338 58.4526 45.6401 59.5487 45.6702C59.5487 45.6702 65.6707 58.9233 66.2899 59.6068C66.909 60.2902 80.3582 61.2209 80.3582 61.2209L88.1424 54.3238L71.0243 54.0834Z" fill="#FFFEED"/>
<path d="M95.4082 126.275L103.699 129.989L99.2591 140.62C98.2975 140.122 98.6118 133.746 98.6118 133.746L93.2051 131.591L95.4082 126.275Z" fill="#F2E635"/>
<g opacity="0.6">
<path d="M99.5364 130.26C99.6772 130.079 99.9613 130.036 100.144 130.173C100.326 130.31 100.371 130.607 100.233 130.791C100.095 130.975 99.7557 131.037 99.5896 130.88C99.4234 130.723 99.3893 130.371 99.5656 130.226" fill="white"/>
</g>
<path opacity="0.6" d="M103.699 129.989L102.849 129.648L98.9102 139.969C98.9102 139.969 98.9126 140.53 99.2593 140.62L103.699 129.989Z" fill="white"/>
<path d="M98.4872 133.895C98.5386 133.916 98.6695 133.666 98.9388 133.483C99.2031 133.291 99.4766 133.257 99.4766 133.2C99.4869 133.148 99.1528 133.092 98.8307 133.32C98.5069 133.546 98.4361 133.886 98.4872 133.895Z" fill="#263238"/>
<path d="M98.4701 135.208C98.5141 135.242 98.6937 135.055 98.9809 134.973C99.2657 134.882 99.5152 134.94 99.5346 134.887C99.5631 134.842 99.2822 134.675 98.927 134.784C98.5712 134.89 98.4223 135.186 98.4701 135.208Z" fill="#263238"/>
<path d="M99.5032 136.415C99.5338 136.372 99.3117 136.188 98.9794 136.2C98.6471 136.208 98.4359 136.405 98.4687 136.446C98.4979 136.493 98.7119 136.401 98.9847 136.396C99.2579 136.385 99.4768 136.464 99.5032 136.415Z" fill="#263238"/>
<path d="M97.3079 133.263C97.3628 133.262 97.3927 132.993 97.5346 132.708C97.6708 132.42 97.8619 132.234 97.8299 132.188C97.8059 132.142 97.5261 132.282 97.3635 132.621C97.1984 132.957 97.2575 133.271 97.3079 133.263Z" fill="#263238"/>
<path d="M96.1869 132.468C96.2077 132.478 96.3245 132.287 96.4066 131.935C96.447 131.76 96.4756 131.545 96.4727 131.304C96.471 131.184 96.4618 131.058 96.4425 130.929C96.4323 130.866 96.4256 130.794 96.3879 130.714C96.3594 130.633 96.239 130.541 96.1292 130.572C96.0271 130.591 95.9525 130.672 95.9187 130.748C95.8835 130.826 95.8722 130.896 95.862 130.96C95.8405 131.09 95.8325 131.218 95.8342 131.339C95.8391 131.582 95.8838 131.797 95.9426 131.968C96.0616 132.313 96.2151 132.481 96.2323 132.467C96.2587 132.451 96.1507 132.261 96.0725 131.929C96.0335 131.764 96.006 131.562 96.0106 131.34C96.0134 131.229 96.0246 131.112 96.0465 130.994C96.0648 130.868 96.1038 130.772 96.1647 130.765C96.1876 130.763 96.1957 130.764 96.2179 130.802C96.2373 130.839 96.2471 130.898 96.2573 130.96C96.2777 131.08 96.2901 131.197 96.296 131.31C96.308 131.535 96.295 131.739 96.2728 131.909C96.2292 132.25 96.1595 132.457 96.1869 132.468Z" fill="#263238"/>
<path d="M96.2878 132.433C96.3033 132.418 96.1653 132.235 95.8464 132.071C95.688 131.991 95.4842 131.921 95.249 131.894C95.1318 131.881 95.0068 131.878 94.878 131.89C94.7499 131.907 94.5813 131.923 94.4746 132.114C94.4268 132.218 94.4704 132.341 94.526 132.401C94.5813 132.467 94.6383 132.5 94.6929 132.539C94.8055 132.612 94.9248 132.662 95.0413 132.693C95.2754 132.757 95.4972 132.745 95.6711 132.702C96.0259 132.613 96.1765 132.422 96.1614 132.411C96.1435 132.382 95.9703 132.52 95.6464 132.565C95.487 132.588 95.2902 132.583 95.0896 132.519C94.9896 132.487 94.8886 132.441 94.7946 132.377C94.6915 132.312 94.6207 132.23 94.6496 132.193C94.6707 132.14 94.7911 132.087 94.897 132.081C95.0125 132.068 95.1255 132.066 95.2328 132.073C95.4475 132.089 95.6383 132.139 95.7925 132.198C96.1026 132.319 96.2684 132.458 96.2878 132.433Z" fill="#263238"/>
<path d="M89.0229 140.88L92.4518 148.268L93.5257 154.916C93.6032 155.395 94.0587 155.707 94.5184 155.595C94.7757 155.532 94.9865 155.348 95.0854 155.096C95.7159 153.491 98.006 147.575 97.7254 147.048C97.4009 146.439 94.6113 139.008 94.6113 139.008L89.0229 140.88Z" fill="#F2E635"/>
<path opacity="0.6" d="M94.5186 155.595L97.5056 146.544L97.644 146.861C97.7636 147.134 97.7862 147.442 97.7049 147.73C97.4873 148.501 96.8414 150.614 95.1078 155.086C95.0071 155.346 94.785 155.538 94.5186 155.595Z" fill="white"/>
<g opacity="0.6">
<path d="M94.9626 144.824C94.8373 145.038 94.9014 145.348 95.1038 145.486C95.3062 145.623 95.6135 145.559 95.7426 145.348C95.8715 145.137 95.8057 144.761 95.5895 144.648C95.3738 144.535 95.0165 144.631 94.9404 144.867" fill="white"/>
</g>
<path d="M94.752 151.566C94.7199 151.605 94.3852 151.29 93.8614 151.279C93.338 151.253 92.9828 151.543 92.9536 151.501C92.9391 151.486 93.0057 151.385 93.1651 151.282C93.3225 151.179 93.5787 151.09 93.8677 151.1C94.1567 151.111 94.4063 151.218 94.5562 151.332C94.708 151.446 94.7674 151.551 94.752 151.566Z" fill="#263238"/>
<path d="M94.6718 152.805C94.6514 152.853 94.3121 152.718 93.8883 152.781C93.463 152.834 93.1702 153.055 93.1381 153.015C93.1005 152.986 93.3807 152.666 93.865 152.603C94.3487 152.533 94.7007 152.767 94.6718 152.805Z" fill="#263238"/>
<path d="M95.1545 149.839C95.1358 149.89 94.6152 149.68 93.9478 149.718C93.2797 149.746 92.7813 150.007 92.7581 149.958C92.7288 149.923 93.2231 149.571 93.9394 149.539C94.6553 149.499 95.1802 149.802 95.1545 149.839Z" fill="#263238"/>
<path d="M94.2944 147.504C94.2944 147.557 93.8182 147.57 93.2877 147.792C92.7541 148.006 92.3999 148.334 92.364 148.295C92.3281 148.268 92.6502 147.857 93.2229 147.625C93.7935 147.388 94.3021 147.458 94.2944 147.504Z" fill="#263238"/>
<path d="M93.3413 145.308C93.3378 145.362 92.8256 145.299 92.2857 145.58C91.7397 145.849 91.475 146.304 91.4317 146.274C91.413 146.264 91.4514 146.134 91.5753 145.957C91.6978 145.78 91.9168 145.567 92.2086 145.419C92.5011 145.271 92.7989 145.223 93.0094 145.231C93.2209 145.239 93.3448 145.287 93.3413 145.308Z" fill="#263238"/>
<path d="M92.1159 145.157C92.1067 145.162 92.0465 145.069 91.9825 144.879C91.9195 144.691 91.8543 144.401 91.8776 144.039C91.8955 143.864 91.8991 143.647 92.0589 143.456C92.1381 143.359 92.2965 143.309 92.426 143.368C92.5534 143.425 92.634 143.535 92.6882 143.652C92.8878 144.13 92.6925 144.771 92.2039 145.079C91.709 145.378 91.1039 145.291 90.7191 144.977C90.6276 144.892 90.5396 144.776 90.541 144.624C90.5407 144.471 90.666 144.352 90.7783 144.322C91.0085 144.256 91.2003 144.32 91.3682 144.357C91.709 144.448 91.9589 144.594 92.1173 144.708C92.2767 144.823 92.3482 144.906 92.3415 144.914C92.3246 144.946 91.9976 144.632 91.3397 144.481C91.1775 144.451 90.9863 144.407 90.8247 144.463C90.7459 144.491 90.6942 144.552 90.6945 144.627C90.6931 144.7 90.7494 144.787 90.8247 144.852C91.1454 145.106 91.6988 145.185 92.1131 144.925C92.5274 144.67 92.6981 144.106 92.5411 143.721C92.502 143.628 92.4376 143.547 92.3662 143.514C92.2958 143.482 92.2176 143.5 92.163 143.559C92.0472 143.683 92.0212 143.884 92.0008 144.05C91.9342 144.74 92.1514 145.15 92.1159 145.157Z" fill="#263238"/>
<path d="M100.577 127.178L91.1763 120.67L94.2873 89.251L85.3828 83.9032L77.2399 81.9629C77.2399 81.9629 73.8389 89.2387 72.3267 93.8966C69.1102 103.803 66.8524 107.353 67.3685 114.533C67.5318 116.806 75.6922 122.491 80.8458 125.649C80.9166 126.374 81.0067 127.008 81.1193 127.531C82.8804 135.718 88.2558 146.606 88.2558 146.606L96.4254 142.7L93.7892 133.416L96.5348 135.063L100.577 127.178ZM80.3699 106.918L81.4668 101.882C81.2348 105.084 81.0229 108.425 80.8712 111.628C80.3432 110.148 80.1633 108.503 80.3699 106.918Z" fill="#263238"/>
<path d="M88.2556 146.606C88.2528 146.607 88.2313 146.562 88.1922 146.473C88.1507 146.376 88.0947 146.245 88.0229 146.077C87.8751 145.718 87.6628 145.203 87.3914 144.545C86.8487 143.211 86.0718 141.279 85.1369 138.88C84.2073 136.479 83.0999 133.62 81.9847 130.399C81.707 129.594 81.4345 128.763 81.1786 127.906C81.0653 127.472 80.9231 127.044 80.8488 126.585C80.8273 126.471 80.8024 126.357 80.7844 126.244L80.7453 125.901C80.7203 125.672 80.6957 125.441 80.6704 125.21C80.5746 124.285 80.4954 123.341 80.4366 122.382C80.4071 121.902 80.3817 121.419 80.3634 120.932C80.3465 120.447 80.325 119.951 80.3525 119.458C80.4905 115.51 80.8133 111.768 81.0787 108.361C81.3553 104.958 81.6046 101.893 81.814 99.3155C82.0168 96.7403 82.1586 94.6548 82.2389 93.2126C82.2825 92.4915 82.3068 91.9315 82.3233 91.5514C82.3332 91.3682 82.3406 91.2248 82.3462 91.1191C82.3522 91.0218 82.3571 90.9722 82.36 90.9722C82.3628 90.9722 82.3642 91.0221 82.3642 91.1199C82.3628 91.2256 82.361 91.3689 82.3589 91.5525C82.3536 91.9329 82.3406 92.494 82.3072 93.2158C82.2477 94.6599 82.1248 96.7479 81.9376 99.325C81.7387 101.903 81.5021 104.97 81.2395 108.374C80.9833 111.78 80.6651 115.526 80.5278 119.461C80.5007 119.953 80.5218 120.437 80.5384 120.924C80.5567 121.41 80.5813 121.892 80.6105 122.37C80.6686 123.327 80.7467 124.268 80.8411 125.191C80.8657 125.422 80.8904 125.651 80.915 125.88L80.9534 126.222C80.9713 126.334 80.9956 126.443 81.016 126.554C81.0864 126.996 81.2279 127.427 81.3392 127.856C81.5919 128.709 81.8619 129.539 82.1371 130.344C83.2421 133.563 84.3375 136.427 85.252 138.833C86.1795 141.226 86.931 143.166 87.4545 144.517C87.7128 145.182 87.9149 145.7 88.0557 146.062C88.1208 146.233 88.1715 146.367 88.2088 146.466C88.2426 146.557 88.2584 146.605 88.2556 146.606Z" fill="#455A64"/>
<path d="M81.9721 89.9106C81.9644 89.92 81.8897 89.8577 81.7577 89.7321C81.6352 89.5996 81.4867 89.3766 81.3603 89.0751C81.1072 88.4702 80.9788 87.5674 80.9598 86.5824C80.9422 85.5948 81.0133 84.7054 81.0763 84.065C81.141 83.4246 81.1942 83.0304 81.2174 83.0322C81.2421 83.034 81.2326 83.433 81.1995 84.0748C81.1681 84.7166 81.1171 85.6024 81.1343 86.5787C81.1534 87.5525 81.2607 88.4358 81.4754 89.0288C81.5828 89.3245 81.7081 89.5461 81.8098 89.6872C81.9204 89.8205 81.9795 89.9012 81.9721 89.9106Z" fill="#455A64"/>
<path d="M78.4562 82.4327C78.4738 82.4287 78.5587 82.7621 78.5263 83.3116C78.4971 83.856 78.3165 84.6228 77.8526 85.3236C77.3879 86.0244 76.7603 86.4776 76.2781 86.705C75.7923 86.937 75.46 86.9779 75.4572 86.9595C75.4487 86.9298 75.7663 86.8451 76.2224 86.5913C76.6765 86.3419 77.2644 85.8919 77.7082 85.2222C78.1518 84.5525 78.3439 83.8256 78.4034 83.2996C78.4657 82.7704 78.4263 82.4355 78.4562 82.4327Z" fill="#455A64"/>
<path d="M93.0643 100.7C93.0674 100.7 93.0667 100.732 93.0625 100.796C93.0565 100.869 93.0491 100.961 93.0396 101.075C93.0143 101.334 92.9794 101.692 92.9351 102.148C92.8351 103.093 92.6926 104.436 92.5176 106.09C92.1501 109.428 91.6447 114.018 91.0867 119.087C90.871 121.625 91.0864 124.068 91.5496 126.22C91.7784 127.298 92.0818 128.3 92.4008 129.227C92.7168 130.155 93.0115 131.02 93.2811 131.811C93.8109 133.383 94.2414 134.66 94.5441 135.557C94.6863 135.991 94.7982 136.333 94.8792 136.579C94.913 136.688 94.9404 136.776 94.9623 136.846C94.9802 136.907 94.9876 136.938 94.9848 136.939C94.982 136.94 94.9686 136.911 94.9454 136.852C94.9193 136.784 94.8866 136.698 94.8461 136.591C94.7577 136.347 94.6356 136.01 94.48 135.581C94.165 134.688 93.7165 133.417 93.1649 131.853C92.8893 131.064 92.588 130.201 92.2645 129.276C91.9386 128.349 91.6274 127.34 91.393 126.256C90.9178 124.091 90.6953 121.629 90.9128 119.072C91.4627 113.988 92.009 109.403 92.3951 106.076C92.5936 104.425 92.7545 103.084 92.8679 102.141C92.9263 101.687 92.972 101.329 93.0051 101.071C93.0217 100.958 93.0347 100.867 93.0453 100.794C93.0548 100.731 93.0614 100.699 93.0643 100.7Z" fill="#455A64"/>
<path d="M77.2397 81.9023L78.6815 78.1133L81.972 83.1592L77.5851 82.0312" fill="#FFFEED"/>
<path d="M111.673 70.5113L107.768 61.508C107.301 60.0604 106.425 59.8356 105.692 58.9957L95.9086 53.3214C88.7788 50.3182 84.897 60.3902 84.897 60.3902L78.4167 75.5913C70.7962 78.1893 76.192 84.2083 76.192 84.2083C76.192 84.2083 74.1191 80.5029 76.1575 79.166C78.292 77.7662 80.6585 81.4542 82.9321 84.9573C85.6165 89.0928 94.339 91.7792 94.339 91.7792C95.3595 90.6707 95.074 86.8013 95.8727 84.7245C96.1261 84.066 102.166 69.6776 102.166 69.6776L104.508 75.5116C104.508 75.5116 107.509 71.8927 108.964 71.3175C110.419 70.7415 111.673 70.5113 111.673 70.5113Z" fill="#F2E635"/>
<path d="M94.3389 76.9094C94.3445 76.9189 94.2421 76.9989 94.0429 77.1219C93.844 77.2454 93.543 77.4039 93.1527 77.5556C92.379 77.8622 91.2079 78.1001 89.9379 77.8984C88.6675 77.6968 87.6206 77.1067 86.9726 76.5746C86.6452 76.3089 86.4048 76.0645 86.2514 75.885C86.0975 75.7058 86.0233 75.5976 86.0314 75.5903C86.0556 75.5668 86.3844 75.9759 87.0472 76.4729C87.7023 76.9695 88.7298 77.5245 89.9646 77.7207C91.1991 77.9165 92.3413 77.7062 93.1115 77.4358C93.8891 77.1676 94.3227 76.8794 94.3389 76.9094Z" fill="#263238"/>
<path d="M78.1268 62.6327L84.1643 63.2184L93.8225 52.7201L88.1423 52.5195L78.0269 53.5462C78.0269 53.5462 78.9227 57.8822 78.1268 62.6327Z" fill="#F2E635"/>
<path d="M86.5121 57.1012C86.5174 57.104 86.4917 57.1703 86.4382 57.2937C86.3749 57.4338 86.2946 57.6112 86.196 57.8295C85.9746 58.3157 85.6709 58.9825 85.3002 59.7966C84.5494 61.4604 83.5532 63.7779 82.4736 66.3477C81.3941 68.9186 80.4116 71.2445 79.6692 72.9137C79.2986 73.7488 78.9927 74.4214 78.7727 74.8822C78.6685 75.098 78.5837 75.2732 78.5168 75.4115C78.4566 75.5317 78.4225 75.5936 78.4168 75.5907C78.4112 75.5881 78.4348 75.5212 78.4848 75.3959C78.5439 75.2536 78.6189 75.0737 78.7108 74.8525C78.9198 74.3606 79.206 73.6858 79.5559 72.8615C80.2698 71.1565 81.2402 68.8379 82.3128 66.2757C83.3927 63.7051 84.4079 61.3934 85.1879 59.7419C85.5769 58.9155 85.9004 58.2512 86.1348 57.7976C86.2453 57.5855 86.3354 57.4128 86.4065 57.2767C86.4706 57.1591 86.5065 57.0986 86.5121 57.1012Z" fill="#263238"/>
<path d="M104.939 60.1545C104.955 60.1849 104.581 60.3859 104.07 60.8329C103.813 61.0537 103.534 61.3488 103.254 61.7006C102.982 62.059 102.714 62.4775 102.489 62.9481C102.269 63.4219 102.116 63.898 102.011 64.3393C101.916 64.7831 101.863 65.191 101.854 65.5353C101.829 66.2246 101.907 66.651 101.874 66.6564C101.862 66.6586 101.836 66.554 101.8 66.361C101.78 66.2647 101.761 66.1464 101.753 66.0066C101.743 65.8676 101.723 65.7087 101.73 65.5328C101.723 65.1805 101.764 64.7606 101.853 64.3031C101.952 63.848 102.105 63.3564 102.331 62.8695C102.563 62.3859 102.843 61.9577 103.129 61.596C103.423 61.2405 103.718 60.9477 103.991 60.7348C104.121 60.6197 104.255 60.5379 104.367 60.4597C104.478 60.3797 104.581 60.3218 104.667 60.2783C104.837 60.1878 104.933 60.1433 104.939 60.1545Z" fill="#263238"/>
<path d="M106.626 45.7357L100.962 56.6236C100.037 58.4014 97.9329 59.1409 96.1437 58.3174C94.1735 57.4109 93.3583 54.9794 94.3675 53.0173C94.9015 51.9787 95.3446 51.1306 95.3446 51.1306C95.3446 51.1306 92.8821 49.4893 94.0338 46.7529C95.0613 44.3116 98.8333 37.4209 99.6345 35.9639L104.408 38.1608C107.089 39.5933 108.092 43.0192 106.626 45.7357Z" fill="#FFFEED"/>
<path d="M95.3574 51.0898C95.3574 51.0898 96.9688 51.9992 99.2459 51.669C99.2459 51.669 97.5781 53.2524 95.0444 51.7921L95.3574 51.0898Z" fill="#EBE30D"/>
<path d="M97.1766 42.3846C97.0801 42.5866 97.1671 42.8371 97.3702 42.9446C97.5729 43.0518 97.8158 42.9754 97.9122 42.7734C98.0087 42.5714 97.9217 42.3209 97.719 42.2137C97.5159 42.1062 97.2727 42.1826 97.1766 42.3846Z" fill="#263238"/>
<path d="M97.1982 42.038C97.2232 42.1101 97.604 42.0243 98.0102 42.2125C98.4186 42.3946 98.6234 42.7472 98.6896 42.7161C98.7213 42.7034 98.7132 42.5901 98.6255 42.433C98.54 42.2773 98.3626 42.0826 98.1088 41.9671C97.855 41.852 97.6002 41.8498 97.4351 41.8914C97.2672 41.9323 97.1848 42.0047 97.1982 42.038Z" fill="#263238"/>
<path d="M100.981 44.3088C100.884 44.5108 100.971 44.7613 101.175 44.8685C101.377 44.9756 101.62 44.8993 101.717 44.6973C101.813 44.4953 101.726 44.2444 101.524 44.1373C101.32 44.0301 101.077 44.1068 100.981 44.3088Z" fill="#263238"/>
<path d="M101.161 43.9554C101.186 44.0278 101.567 43.9416 101.973 44.1299C102.381 44.312 102.586 44.6645 102.653 44.6334C102.684 44.6207 102.677 44.5074 102.589 44.35C102.503 44.1943 102.326 43.9995 102.072 43.8841C101.818 43.769 101.563 43.7668 101.398 43.8084C101.23 43.85 101.148 43.9221 101.161 43.9554Z" fill="#263238"/>
<path d="M98.3361 46.3777C98.3484 46.3549 98.115 46.1935 97.7289 45.9513C97.6299 45.8927 97.5409 45.8261 97.555 45.745C97.5641 45.6566 97.6578 45.5614 97.7619 45.4604C97.9721 45.2469 98.1921 45.0231 98.423 44.7886C99.3533 43.8271 100.076 43.0173 100.038 42.9789C100 42.9409 99.2157 43.6892 98.2854 44.6506C98.0583 44.8888 97.8419 45.1158 97.6352 45.3334C97.543 45.4365 97.4156 45.5433 97.399 45.7276C97.3923 45.8203 97.4434 45.9133 97.5018 45.9622C97.5592 46.0136 97.6173 46.0418 97.6673 46.0686C98.0692 46.2811 98.3241 46.4009 98.3361 46.3777Z" fill="#263238"/>
<path d="M99.4069 47.2177C99.3425 47.1833 99.1443 47.6369 98.6262 47.7853C98.1084 47.9348 97.6599 47.6673 97.629 47.7292C97.6103 47.7549 97.6955 47.8657 97.8916 47.9627C98.0834 48.0593 98.396 48.1259 98.7128 48.0351C99.0292 47.9435 99.2429 47.7256 99.3393 47.546C99.4386 47.3639 99.4383 47.2289 99.4069 47.2177Z" fill="#263238"/>
<path d="M101.77 42.2682C101.76 42.4003 102.19 42.5332 102.641 42.8119C103.098 43.0813 103.42 43.402 103.528 43.3292C103.578 43.2934 103.557 43.1555 103.449 42.9737C103.343 42.7928 103.142 42.5752 102.87 42.4105C102.598 42.2465 102.315 42.1726 102.11 42.1654C101.903 42.1574 101.776 42.2063 101.77 42.2682Z" fill="#263238"/>
<path d="M97.8741 40.8961C97.9043 41.0239 98.2271 41.0543 98.5661 41.2049C98.91 41.3432 99.1603 41.5549 99.2694 41.4858C99.319 41.4507 99.3155 41.3349 99.23 41.1879C99.1462 41.0416 98.9727 40.874 98.7379 40.7745C98.5031 40.6757 98.2652 40.6691 98.1057 40.7126C97.9445 40.7557 97.8628 40.8353 97.8741 40.8961Z" fill="#263238"/>
<path d="M104.844 47.3677C104.898 47.3684 106.903 47.6515 106.036 49.4854C105.168 51.3193 103.557 50.0454 103.579 49.9915C103.601 49.9372 104.844 47.3677 104.844 47.3677Z" fill="#FFFEED"/>
<path d="M104.452 49.5688C104.463 49.567 104.472 49.6068 104.513 49.6579C104.553 49.7075 104.633 49.7683 104.743 49.7788C104.965 49.802 105.269 49.5735 105.434 49.2474C105.517 49.0827 105.559 48.9067 105.564 48.7464C105.573 48.5849 105.533 48.4492 105.446 48.3844C105.362 48.3145 105.268 48.3395 105.221 48.38C105.173 48.4195 105.167 48.4615 105.156 48.46C105.149 48.4622 105.132 48.4101 105.182 48.3416C105.207 48.3091 105.248 48.2761 105.307 48.262C105.367 48.2475 105.438 48.2609 105.501 48.3011C105.634 48.3797 105.696 48.5715 105.691 48.7478C105.693 48.9284 105.65 49.1279 105.557 49.3129C105.371 49.6767 105.023 49.9305 104.729 49.8783C104.588 49.8494 104.501 49.7582 104.468 49.6876C104.434 49.6148 104.444 49.5692 104.452 49.5688Z" fill="#EBE30D"/>
<path d="M105.879 47.7678C105.633 47.5724 105.041 47.6143 104.808 47.8261C104.575 48.0375 104.418 48.3268 104.185 48.5385C103.952 48.7503 103.582 48.8687 103.335 48.6746C103.165 48.5407 103.109 48.2942 103.143 48.0766C103.178 47.8587 103.288 47.6625 103.399 47.4739C103.884 46.654 104.436 45.8742 104.851 45.0148C105.266 44.1554 105.54 43.1903 105.418 42.2394C105.295 41.288 104.713 40.3624 103.834 40.042C103.251 39.8299 102.604 39.894 102.011 39.7173C101.307 39.5081 100.712 38.9452 100.449 38.2418C100.415 38.1517 100.216 37.8302 100.216 37.8302C100.236 37.7853 100.447 37.4157 100.657 37.3426C102.224 36.7985 104.349 37.4233 105.648 38.476C106.947 39.5287 107.856 41.2229 107.872 42.9232C107.887 44.6239 106.847 46.4997 105.879 47.7678Z" fill="#263238"/>
<path d="M105.896 47.5838C106.391 46.7176 107.195 46.0891 107.809 45.3072C108.423 44.5249 108.844 43.4226 108.408 42.5238C108.258 42.2165 108.019 41.9591 107.895 41.6405C107.769 41.3202 107.769 40.9654 107.721 40.6237C107.572 39.5677 106.923 38.5983 106.016 38.0788C105.39 37.7193 104.667 37.572 104.032 37.2288C103.026 36.6851 102.29 35.6773 101.233 35.2476C100.883 35.105 100.472 35.0358 100.137 35.2136C99.8019 35.3913 99.622 35.8912 99.8663 36.187C99.823 35.8402 99.3858 35.6498 99.0757 35.7939C98.766 35.9379 98.6072 36.3173 98.6283 36.6663C98.6495 37.0153 98.8177 37.3371 99.0124 37.6238C99.6541 38.569 100.635 39.264 101.723 39.5435L104.153 39.3487L106.145 40.8669L107.619 43.28L104.946 46.8519L105.896 47.5838Z" fill="#263238"/>
<path d="M90.6934 33.3394C90.3879 28.4755 86.3061 24.7875 81.5766 25.1017C76.8471 25.4159 73.261 29.6136 73.5665 34.4775C73.7879 37.999 75.989 40.9026 78.9817 42.1186C79.0471 43.1622 79.1211 44.3402 79.1211 44.3402L86.6268 43.8413C86.6268 43.8413 86.5937 42.5914 86.5405 41.4771C89.2066 39.8315 90.9078 36.7505 90.6934 33.3394Z" fill="#F2E635"/>
<path d="M83.9103 43.9854C83.9103 43.9854 83.9088 43.9482 83.912 43.8761C83.9155 43.7997 83.9205 43.6933 83.9271 43.5561C83.9426 43.2748 83.9652 42.8603 84.0074 42.3271C84.0504 41.7939 84.1109 41.1416 84.2278 40.3901C84.3481 39.6404 84.5227 38.7868 84.8508 37.8876C85.0152 37.4383 85.2091 36.9764 85.4724 36.5228C85.6083 36.3005 85.7822 36.0808 86.024 35.9432C86.2655 35.8042 86.577 35.7832 86.8389 35.9165C86.9684 35.9823 87.0821 36.1004 87.1318 36.247C87.1863 36.3907 87.1824 36.559 87.1244 36.7013C87.0096 36.9887 86.7692 37.1994 86.4996 37.3315C85.9469 37.5726 85.2919 37.5646 84.7111 37.3203C84.1285 37.0763 83.6431 36.5641 83.4097 35.9313C83.2971 35.6167 83.2246 35.2685 83.2953 34.9188C83.3544 34.572 83.6582 34.2447 84.0349 34.2552C84.2214 34.2571 84.3978 34.3761 84.4903 34.5369C84.5864 34.6965 84.6206 34.8906 84.5931 35.0752C84.5336 35.448 84.2932 35.7402 84.0461 35.9903C83.5354 36.4848 82.8162 36.7885 82.0876 36.7187C81.3639 36.6484 80.6898 36.2043 80.3519 35.5592C80.1762 35.2428 80.1139 34.8486 80.2269 34.4963C80.2839 34.3226 80.4047 34.1557 80.5779 34.0818C80.7479 34.0011 80.9475 34.0207 81.1083 34.0967C81.271 34.1716 81.4075 34.3038 81.4941 34.459C81.5835 34.6136 81.6314 34.7867 81.6567 34.9575C81.7025 35.3011 81.6765 35.6471 81.5899 35.9726C81.4213 36.6249 81.0115 37.1932 80.4754 37.5295C79.9418 37.8694 79.305 37.9925 78.7193 37.8977C78.43 37.8517 78.1308 37.754 77.922 37.5284C77.7179 37.3083 77.6415 36.9435 77.8214 36.6832C77.9111 36.5579 78.053 36.4848 78.1941 36.4642C78.336 36.4443 78.4792 36.4645 78.6077 36.5188C78.87 36.631 79.0407 36.8631 79.1699 37.0883C79.4152 37.5516 79.6169 38.0041 79.8197 38.4356C80.6159 40.1653 81.1939 41.5955 81.5828 42.587C81.7771 43.083 81.9222 43.4707 82.0197 43.7338C82.0661 43.8627 82.102 43.9623 82.1281 44.0339C82.152 44.102 82.1615 44.1375 82.1615 44.1375C82.1615 44.1375 82.145 44.1045 82.1179 44.0379C82.0897 43.967 82.0503 43.8685 82 43.7415C81.8944 43.4768 81.7412 43.0938 81.5448 42.6026C81.1442 41.6161 80.5564 40.1913 79.7524 38.4682C79.549 38.0403 79.3416 37.5824 79.0998 37.1302C78.9745 36.912 78.8091 36.6962 78.576 36.5988C78.3501 36.5025 78.0431 36.5235 77.8918 36.7357C77.7432 36.9464 77.8055 37.2718 77.9875 37.464C78.1737 37.6653 78.4539 37.7598 78.7337 37.8028C79.2976 37.8923 79.9122 37.7721 80.4244 37.4437C80.9383 37.1197 81.3312 36.5728 81.4927 35.9447C81.5758 35.6319 81.5997 35.2978 81.5557 34.972C81.5128 34.6516 81.3604 34.3237 81.0661 34.1919C80.9249 34.126 80.7591 34.1112 80.6198 34.1781C80.4775 34.239 80.3769 34.3754 80.3255 34.53C80.2252 34.846 80.278 35.2091 80.4445 35.5067C80.7634 36.1166 81.4093 36.5434 82.0975 36.6093C82.7909 36.6767 83.4833 36.386 83.9743 35.9107C84.2137 35.6703 84.4397 35.3876 84.4903 35.0582C84.5146 34.8974 84.484 34.728 84.4023 34.5919C84.3224 34.4554 84.1831 34.3624 84.0313 34.3602C83.88 34.3548 83.7276 34.4232 83.6146 34.53C83.4995 34.6353 83.4284 34.7838 83.3953 34.9405C83.3298 35.2569 83.396 35.5925 83.504 35.8937C83.7265 36.5004 84.1919 36.993 84.7487 37.2273C85.3028 37.464 85.9402 37.4705 86.4608 37.2443C86.7136 37.1226 86.9396 36.921 87.0406 36.6669C87.149 36.4142 87.0336 36.1076 86.7991 35.9957C86.5696 35.877 86.282 35.8929 86.0648 36.0185C85.8413 36.1445 85.6745 36.3509 85.5414 36.567C85.2824 37.0086 85.0856 37.4702 84.9208 37.914C84.5907 38.8049 84.4115 39.653 84.2862 40.3995C84.164 41.1474 84.0979 41.7982 84.0486 42.33C84.0053 42.8593 83.9719 43.2719 83.9486 43.5568C83.9377 43.6937 83.9293 43.7997 83.9233 43.8761C83.9162 43.9489 83.9103 43.9854 83.9103 43.9854Z" fill="#263238"/>
<path d="M86.1388 45.3093L79.6947 45.7376C79.4275 45.7553 79.197 45.5471 79.1797 45.2724C79.1625 44.9976 79.3649 44.7605 79.6321 44.7428L86.0761 44.3145C86.3433 44.2968 86.5739 44.5049 86.5911 44.7797C86.6083 45.0545 86.4059 45.2916 86.1388 45.3093Z" fill="#263238"/>
<path d="M86.1665 45.7437L79.7224 46.172C79.4552 46.1897 79.2528 46.4268 79.2701 46.7016C79.2873 46.9763 79.5179 47.1845 79.785 47.1668L80.4922 47.1197L81.5461 48.8942C81.6668 49.0973 81.8868 49.2146 82.1174 49.1994L84.4202 49.0463C84.6532 49.0307 84.8584 48.8823 84.9513 48.6618L85.7483 46.7704L86.2291 46.7385C86.4963 46.7208 86.6987 46.4837 86.6814 46.2089C86.6638 45.9341 86.4336 45.726 86.1665 45.7437Z" fill="#263238"/>
<g opacity="0.2">
<path d="M76.2758 28.6627C76.8171 28.0778 77.3965 27.6539 77.9171 27.3766C78.4378 27.0978 78.8904 26.9494 79.2122 26.8944C79.5342 26.8383 79.7204 26.8582 79.7405 26.9273C79.7877 27.0848 79.1534 27.365 78.3167 28.0238C77.4824 28.6696 76.4553 29.7708 75.8879 31.2684C75.3247 32.7678 75.3609 34.2937 75.5535 35.3492C75.7393 36.4164 76.0241 37.0626 75.8858 37.1462C75.8256 37.1831 75.6749 37.0687 75.4739 36.8041C75.2726 36.5402 75.0353 36.1171 74.834 35.5502C74.6316 34.9844 74.4816 34.2698 74.4654 33.4621C74.4478 32.6563 74.5774 31.7575 74.9047 30.8764" fill="white"/>
</g>
<g opacity="0.2">
<path d="M81.8238 27.1702C81.2806 27.201 80.7921 27.0804 80.7181 26.7883C80.685 26.6435 80.7755 26.4806 80.9638 26.3456C81.1511 26.2109 81.4366 26.1077 81.7611 26.0878C82.0857 26.0683 82.381 26.1356 82.5823 26.2464C82.7851 26.3575 82.8938 26.5081 82.8777 26.6562" fill="white"/>
</g>
<path d="M84.8408 48.8267C84.8341 48.8437 84.6673 48.7782 84.3892 48.7159C84.1118 48.6529 83.7186 48.6062 83.2871 48.6468C82.8559 48.6891 82.4778 48.8104 82.2167 48.9252C81.9548 49.0396 81.8027 49.1355 81.7932 49.1203C81.7865 49.1109 81.9252 48.9907 82.1857 48.8553C82.4447 48.7195 82.8323 48.5823 83.2776 48.5385C83.7229 48.4966 84.1284 48.5574 84.4075 48.641C84.6877 48.7246 84.8457 48.8162 84.8408 48.8267Z" fill="#455A64"/>
<path d="M85.7631 46.7921C85.7648 46.8218 84.6015 46.9235 83.1646 47.0191C81.7274 47.1146 80.5608 47.1678 80.5591 47.1378C80.5573 47.1081 81.7203 47.0064 83.1579 46.9108C84.5948 46.8153 85.7613 46.762 85.7631 46.7921Z" fill="#455A64"/>
<path d="M85.4093 47.6045C85.4111 47.619 85.1703 47.6617 84.7789 47.7131C84.3875 47.7645 83.8457 47.8239 83.2456 47.8727C82.6454 47.9213 82.1009 47.9502 81.7066 47.9622C81.3124 47.9745 81.0681 47.9712 81.0674 47.9564C81.0667 47.9412 81.3096 47.9173 81.7024 47.8854C82.1269 47.8521 82.6538 47.8105 83.2371 47.7645C83.8197 47.716 84.3466 47.6722 84.7708 47.6367C85.164 47.6049 85.4075 47.5893 85.4093 47.6045Z" fill="#455A64"/>
<path d="M39.001 91.9394L40.4002 94.245C40.4002 94.245 46.3704 88.5949 52.2932 90.192C52.2932 90.192 46.9706 85.5505 39.001 91.9394Z" fill="#F2E635"/>
<path d="M52.2935 90.192C52.2935 90.192 56.6759 85.2981 63.1016 86.4145L64.8539 86.686L64.2942 85.6449C64.2942 85.6449 53.1185 81.7085 52.2935 90.192Z" fill="#F2E635"/>
<path d="M43.0437 73.6903C43.0437 73.6903 34.2655 72.1373 28.5078 75.3407L37.65 93.0425C37.65 93.0425 45.1331 85.6244 52.2939 90.1924L43.0437 73.6903Z" fill="#F5F5F5"/>
<path d="M43.0434 73.6902C43.0445 73.6884 43.0603 73.7127 43.0902 73.7623C43.123 73.818 43.1663 73.8911 43.2219 73.9853C43.3401 74.1909 43.5091 74.4848 43.7277 74.8649C44.1712 75.6461 44.815 76.7795 45.6306 78.216C47.266 81.1163 49.5899 85.2384 52.3609 90.1525C52.3823 90.1905 52.3696 90.2394 52.3327 90.2611C52.3073 90.2763 52.2764 90.2745 52.2528 90.2597C51.2598 89.6327 50.119 89.157 48.8873 88.9312C48.2703 88.8269 47.6345 88.7827 46.99 88.7958C46.3459 88.8226 45.695 88.9062 45.0463 89.0474C42.4535 89.6389 39.9345 91.0869 37.7852 93.0348L37.7099 93.1068C37.6751 93.1412 37.6198 93.1401 37.5864 93.1047C37.5811 93.0989 37.5754 93.0909 37.5719 93.0844C34.1758 86.496 31.0282 80.3894 28.4435 75.3753C28.4245 75.3402 28.4368 75.2961 28.471 75.2765L28.4727 75.2754C30.4858 74.205 32.5285 73.7409 34.324 73.4944C36.1277 73.2551 37.7117 73.2471 39.0063 73.2852C40.302 73.3293 41.313 73.4365 41.9983 73.5233C42.3412 73.5661 42.6027 73.6073 42.7784 73.6374C42.8618 73.6526 42.9269 73.6645 42.9776 73.6739C43.023 73.683 43.0445 73.6884 43.0434 73.6902C43.0424 73.6917 43.0184 73.6895 42.9744 73.6844C42.9237 73.6779 42.8586 73.67 42.7752 73.6595C42.5988 73.637 42.3366 73.603 41.9934 73.5671C41.3073 73.4944 40.2975 73.4014 39.0042 73.3699C37.7124 73.3449 36.1333 73.3644 34.3395 73.6131C32.5542 73.8683 30.527 74.3407 28.5417 75.4054L28.5709 75.3058C31.1631 80.3155 34.3205 86.4171 37.7268 93L37.5888 92.9776L37.667 92.9027C38.7504 91.9046 39.9353 91.068 41.1669 90.3773C42.401 89.6928 43.6946 89.169 45.0104 88.8772C45.6686 88.7349 46.3297 88.651 46.9848 88.6249C47.6402 88.6126 48.2868 88.6586 48.9148 88.7661C50.1682 88.9985 51.3281 89.4857 52.3337 90.1247L52.2257 90.2322C49.485 85.314 47.1861 81.1891 45.5687 78.2862C44.7668 76.8371 44.1339 75.6932 43.6978 74.9047C43.4855 74.5167 43.3215 74.2162 43.2067 74.0059C43.1543 73.9074 43.1135 73.8307 43.0825 73.7724C43.0554 73.7196 43.042 73.692 43.0434 73.6902Z" fill="#263238"/>
<path d="M56.8417 70.058C56.8417 70.058 50.2015 65.7057 43.1562 73.6903L52.4065 90.1921C52.4065 90.1921 54.2942 83.4944 65.3375 85.8238L56.8417 70.058Z" fill="#F5F5F5"/>
<path d="M56.8417 70.058C56.8431 70.0566 56.8579 70.0797 56.8857 70.1272C56.9163 70.1807 56.9561 70.2506 57.0075 70.3407C57.1166 70.5377 57.2722 70.8182 57.4732 71.1809C57.8811 71.9274 58.4725 73.0094 59.2219 74.3807C60.7228 77.1496 62.857 81.086 65.4048 85.7855C65.4256 85.8235 65.4122 85.8716 65.3752 85.893C65.3594 85.902 65.3418 85.9049 65.3252 85.902L65.3221 85.9013C64.7842 85.8105 64.2361 85.7178 63.6779 85.6233C63.3998 85.5657 63.115 85.5498 62.8285 85.5263C62.542 85.5028 62.253 85.4792 61.9619 85.4553C61.6708 85.4202 61.3765 85.4275 61.0801 85.4333C60.7837 85.4372 60.4852 85.4409 60.1843 85.4448C59.8837 85.4521 59.5845 85.5078 59.2814 85.5368C58.9794 85.5762 58.6714 85.5929 58.3736 85.6776C58.073 85.7475 57.7706 85.8177 57.4661 85.8886C57.1719 85.9944 56.8762 86.1008 56.5787 86.2079C56.2809 86.314 56.0071 86.4827 55.7174 86.6177C55.5706 86.6829 55.4361 86.7708 55.3031 86.8621L54.8983 87.1289C54.6315 87.312 54.3925 87.5376 54.1404 87.7461C53.9187 87.9882 53.6688 88.2069 53.4748 88.4788C53.0598 88.9928 52.7053 89.5854 52.4906 90.2164L52.4889 90.2211C52.473 90.2678 52.423 90.2924 52.3776 90.2761C52.3572 90.2688 52.341 90.254 52.3308 90.2363C52.2129 90.0263 52.0855 89.799 51.958 89.5709C48.6873 83.7257 45.6396 78.2787 43.0929 73.7273C43.0764 73.6983 43.0813 73.6621 43.1021 73.6386C44.6664 71.8843 46.3926 70.5456 48.1131 69.7641C49.8298 68.963 51.5047 68.7635 52.8398 68.8518C54.1837 68.9373 55.2021 69.2739 55.8635 69.5487C56.1961 69.6866 56.4404 69.8162 56.603 69.9063C56.6787 69.952 56.7382 69.9874 56.7843 70.0149C56.8241 70.0428 56.8431 70.0566 56.8417 70.058C56.8403 70.0595 56.8185 70.0482 56.778 70.0258C56.7308 70.0008 56.6703 69.969 56.5925 69.9281C56.427 69.8448 56.1803 69.7228 55.8469 69.5925C55.1834 69.3326 54.1679 69.0126 52.8349 68.9405C51.5103 68.866 49.8559 69.0752 48.1614 69.8777C46.463 70.6608 44.7582 71.994 43.2105 73.7414L43.2196 73.6527C45.7734 78.2001 48.8291 83.6421 52.1087 89.4822C52.2365 89.7099 52.3639 89.9373 52.4815 90.1476L52.322 90.1675C52.5519 89.492 52.9123 88.898 53.3393 88.3665C53.5389 88.0878 53.7941 87.8637 54.0222 87.6157C54.2798 87.4022 54.5255 87.1716 54.7983 86.9844L55.2123 86.7122C55.3489 86.6192 55.4865 86.5298 55.6357 86.4631C55.9311 86.3252 56.2113 86.1536 56.5147 86.0461C56.8177 85.9375 57.1191 85.8296 57.4186 85.7225C57.7277 85.6508 58.035 85.5799 58.3401 85.5093C58.6432 85.4235 58.9547 85.4072 59.2606 85.3677C59.5676 85.3384 59.871 85.283 60.1748 85.2761C60.4785 85.2729 60.7802 85.2693 61.0798 85.266C61.3793 85.2606 61.6764 85.2541 61.9696 85.2899C62.2632 85.3145 62.5543 85.3391 62.8433 85.3634C63.1319 85.3876 63.4195 85.405 63.6986 85.4633C64.2601 85.5596 64.8117 85.6544 65.3523 85.7475L65.2696 85.8633C62.7486 81.1566 60.6366 77.214 59.1512 74.4408C58.4165 73.0583 57.8371 71.9672 57.4373 71.215C57.244 70.8457 57.0941 70.5594 56.9892 70.3588C56.9417 70.2654 56.9047 70.1927 56.8762 70.1369C56.8522 70.0859 56.8403 70.0595 56.8417 70.058Z" fill="#263238"/>
<path d="M30.9805 66.8315L40.8801 86.4342C40.8801 86.4342 48.9258 86.0722 52.331 90.1045L43.1565 73.69C43.1565 73.69 37.7765 66.8315 30.9805 66.8315Z" fill="#F5F5F5"/>
<path d="M30.9802 66.8316C30.9802 66.8316 31.0619 66.833 31.2312 66.8399C31.411 66.8475 31.6655 66.858 31.9943 66.8721C32.0784 66.8772 32.1689 66.8783 32.2618 66.8884C32.3537 66.904 32.4501 66.9203 32.5508 66.9373C32.7536 66.972 32.9743 67.0097 33.2126 67.0506C33.454 67.0803 33.7022 67.1635 33.9708 67.2366C34.2365 67.3199 34.5294 67.376 34.8198 67.4951C37.1856 68.3049 40.3585 70.2673 43.2115 73.644L43.2168 73.6513L43.2178 73.6535C45.83 78.3175 48.992 83.9639 52.4061 90.0597C52.43 90.1027 52.4159 90.1574 52.374 90.1824C52.3392 90.203 52.2963 90.1961 52.2691 90.1683L52.2646 90.1636C52.1421 90.0383 52.0094 89.9026 51.8763 89.7664C51.1399 89.0323 50.2684 88.4531 49.3423 88.044C48.4211 87.6256 47.4696 87.3019 46.5104 87.0898C44.597 86.6478 42.6874 86.4813 40.8834 86.5182H40.8812C40.8492 86.5189 40.8211 86.5005 40.8073 86.473C37.9213 80.7175 35.4559 75.8008 33.7082 72.3151C32.8461 70.588 32.1611 69.2157 31.6881 68.2676C31.4582 67.805 31.2801 67.4459 31.1558 67.1957C31.0988 67.0795 31.0548 66.9894 31.0217 66.9217C30.9922 66.8609 30.9781 66.8305 30.9802 66.8316C30.9823 66.8327 31.0003 66.866 31.0337 66.9293C31.0699 66.9988 31.1178 67.0911 31.1798 67.2102C31.3097 67.4633 31.4959 67.8256 31.7356 68.2933C32.2203 69.2418 32.9218 70.6148 33.805 72.3434C35.5646 75.803 38.0469 80.6831 40.9527 86.3955L40.8767 86.3502C42.7014 86.3093 44.616 86.4737 46.5491 86.9175C47.5171 87.1304 48.4795 87.4565 49.4144 87.8808C50.3536 88.2953 51.2438 88.8846 51.9992 89.6379C52.1354 89.7777 52.2716 89.917 52.3973 90.0455L52.2554 90.1491C48.8516 84.0472 45.6987 78.3953 43.0943 73.7269L43.1006 73.7364C41.707 72.0516 40.1878 70.7321 38.7675 69.704C37.3338 68.6908 35.9701 67.9864 34.7938 67.5744C34.5058 67.4531 34.2158 67.3945 33.9525 67.3083C33.6864 67.2323 33.44 67.1461 33.2006 67.1136C32.9641 67.0694 32.7448 67.0285 32.5438 66.9909C32.4435 66.972 32.3477 66.9539 32.2565 66.9369C32.1657 66.9253 32.0795 66.9228 31.9982 66.9156C31.3934 66.866 31.1125 66.8424 30.9802 66.8316Z" fill="#263238"/>
<path d="M61.8811 122.428L62.0937 122.791C62.3324 123.199 62.6794 123.528 63.0941 123.739L63.4637 123.927L63.1103 124.145C62.7139 124.391 62.394 124.748 62.1891 125.174L62.0064 125.554L61.7938 125.191C61.5552 124.783 61.2081 124.454 60.7934 124.244L60.4238 124.056L60.7769 123.837C61.1732 123.592 61.4932 123.235 61.6981 122.808L61.8811 122.428Z" fill="#F2E635"/>
<path d="M42.365 47.7603L42.5776 48.1233C42.8163 48.5309 43.1633 48.86 43.578 49.0707L43.9476 49.2586L43.5945 49.4772C43.1982 49.7227 42.8782 50.0796 42.673 50.506L42.4903 50.8861L42.2777 50.523C42.039 50.1154 41.692 49.7864 41.2773 49.5757L40.9077 49.3878L41.2611 49.1692C41.6575 48.9237 41.9774 48.5668 42.1823 48.1403L42.365 47.7603Z" fill="#F2E635"/>
<path d="M132.683 60.6426L132.896 61.006C133.135 61.4136 133.482 61.7427 133.896 61.9534L134.266 62.1413L133.913 62.3599C133.517 62.6053 133.197 62.9623 132.991 63.3887L132.809 63.7688L132.596 63.4057C132.357 62.9981 132.01 62.6691 131.596 62.4584L131.226 62.2705L131.579 62.0518C131.975 61.8064 132.295 61.4495 132.5 61.023L132.683 60.6426Z" fill="#F2E635"/>
<path d="M122.017 127.118L122.23 127.481C122.469 127.889 122.816 128.218 123.23 128.428L123.6 128.616L123.247 128.835C122.851 129.08 122.531 129.437 122.326 129.864L122.143 130.244L121.931 129.881C121.692 129.473 121.345 129.144 120.93 128.933L120.561 128.745L120.914 128.527C121.31 128.281 121.63 127.924 121.835 127.498L122.017 127.118Z" fill="#F2E635"/>
<path d="M124.048 141.087L124.15 141.129C124.264 141.176 124.389 141.189 124.51 141.165L124.617 141.144L124.577 141.249C124.531 141.366 124.518 141.495 124.541 141.619L124.562 141.73L124.46 141.688C124.346 141.641 124.221 141.628 124.1 141.652L123.992 141.673L124.033 141.568C124.079 141.451 124.091 141.322 124.068 141.198L124.048 141.087Z" fill="#F2E635"/>
<path d="M130.189 46.6299L130.291 46.6719C130.405 46.7193 130.53 46.7316 130.651 46.7081L130.758 46.6871L130.718 46.7917C130.672 46.909 130.66 47.0379 130.682 47.162L130.703 47.2728L130.601 47.2308C130.487 47.1834 130.362 47.1711 130.241 47.1946L130.133 47.2156L130.174 47.111C130.22 46.9933 130.232 46.8652 130.209 46.7407L130.189 46.6299Z" fill="#F2E635"/>
<path d="M46.3339 38.0054L46.4357 38.0474C46.5497 38.0944 46.6747 38.1071 46.7958 38.0836L46.9035 38.0626L46.8626 38.1672C46.8169 38.2845 46.8046 38.4133 46.8274 38.5375L46.8479 38.6483L46.7461 38.6063C46.6317 38.5589 46.5068 38.5466 46.386 38.5701L46.2783 38.5911L46.3192 38.4865C46.3653 38.3692 46.3772 38.2407 46.3544 38.1161L46.3339 38.0054Z" fill="#F2E635"/>
<path d="M56.6831 111.553L56.7848 111.595C56.8988 111.642 57.0241 111.655 57.1449 111.631L57.2526 111.61L57.2118 111.715C57.1657 111.832 57.1537 111.961 57.1766 112.085L57.197 112.196L57.0952 112.154C56.9812 112.107 56.8559 112.094 56.7352 112.118L56.6274 112.139L56.6683 112.034C56.714 111.917 56.7264 111.789 56.7035 111.664L56.6831 111.553Z" fill="#F2E635"/>
<path d="M67.903 139.982C67.903 139.982 67.8724 140.02 67.8069 140.088C67.7362 140.16 67.6394 140.259 67.5144 140.386C67.2493 140.652 66.8674 141.034 66.3771 141.526C65.3785 142.516 63.9398 143.943 62.1577 145.711L62.1742 145.668C62.3748 150.211 62.6473 156.384 62.9507 163.25L62.9578 163.405L62.8317 163.319C62.3477 162.986 61.83 162.63 61.3083 162.271C57.8326 159.879 54.5429 157.614 51.6477 155.62L51.6279 155.607L51.6205 155.584C50.1791 151.157 48.9633 147.423 48.1051 144.788C47.6838 143.477 47.3501 142.441 47.1195 141.724C47.0093 141.374 46.9238 141.102 46.864 140.911C46.8376 140.823 46.8168 140.754 46.801 140.701C46.7872 140.653 46.7813 140.629 46.783 140.628C46.7848 140.628 46.7943 140.651 46.8115 140.697C46.8302 140.749 46.8541 140.816 46.8851 140.903C46.9499 141.093 47.0421 141.362 47.1611 141.709C47.4001 142.423 47.7461 143.456 48.1833 144.761C49.0541 147.391 50.2882 151.119 51.7511 155.539L51.724 155.502C54.6217 157.492 57.9147 159.753 61.3931 162.141C61.9148 162.499 62.4326 162.856 62.9166 163.188L62.7976 163.257C62.5118 156.391 62.2545 150.216 62.0654 145.673L62.0644 145.648L62.0823 145.631C63.8789 143.878 65.3288 142.463 66.3356 141.482C66.8343 141 67.2233 140.624 67.4929 140.364C67.6225 140.241 67.7228 140.146 67.796 140.076C67.865 140.012 67.903 139.982 67.903 139.982Z" fill="#F2E635"/>
<path d="M63.4063 161.182L63.3756 162.207L64.1793 162.814L63.2218 163.101L62.9085 164.075L62.3478 163.226L61.3506 163.221L61.9613 162.41L61.6582 161.433L62.5967 161.781L63.4063 161.182Z" fill="#F2E635"/>
<path d="M51.7695 154.226L51.7888 154.889L52.3313 155.249L51.7237 155.473L51.5586 156.115L51.1637 155.59L50.5195 155.627L50.8828 155.078L50.6498 154.459L51.2693 154.645L51.7695 154.226Z" fill="#F2E635"/>
<path d="M46.7564 139.411L47.2432 140.054L48.0338 140.005L47.59 140.68L47.8786 141.439L47.1176 141.213L46.5055 141.73L46.4791 140.915L45.812 140.476L46.5565 140.199L46.7564 139.411Z" fill="#F2E635"/>
<path d="M67.4169 138.768L67.9034 139.411L68.694 139.363L68.2501 140.037L68.5388 140.796L67.7777 140.57L67.1656 141.087L67.1392 140.273L66.4722 139.833L67.2166 139.556L67.4169 138.768Z" fill="#F2E635"/>
<path d="M61.9928 144.975L62.3036 145.385L62.808 145.354L62.5246 145.785L62.7091 146.269L62.2233 146.125L61.8326 146.455L61.8157 145.935L61.3901 145.655L61.8653 145.478L61.9928 144.975Z" fill="#F2E635"/>
<path d="M43.3634 117.597C47.2408 117.597 50.3841 114.364 50.3841 110.377C50.3841 106.389 47.2408 103.157 43.3634 103.157C39.486 103.157 36.3428 106.389 36.3428 110.377C36.3428 114.364 39.486 117.597 43.3634 117.597Z" fill="#F2E635"/>
<g opacity="0.3">
<path d="M42.4512 112.631C42.4512 113.281 41.9387 113.808 41.3062 113.808C40.6736 113.808 40.1611 113.281 40.1611 112.631C40.1611 111.981 40.6736 111.453 41.3062 111.453C41.9387 111.453 42.4512 111.98 42.4512 112.631Z" fill="white"/>
</g>
<g opacity="0.3">
<path d="M40.8271 109.233C40.8271 109.611 40.5289 109.918 40.1611 109.918C39.7933 109.918 39.4951 109.611 39.4951 109.233C39.4951 108.854 39.7933 108.548 40.1611 108.548C40.5289 108.548 40.8271 108.854 40.8271 109.233Z" fill="white"/>
</g>
<path d="M36.553 112.133C36.5843 112.258 30.5444 118.218 32.1012 119.488C33.6581 120.758 40.2078 117.5 45.7909 112.863C51.374 108.225 56.4741 102.594 55.0784 101.103C53.6827 99.6122 46.705 104.026 46.705 104.026L47.5389 104.572C47.5389 104.572 51.7576 101.789 53.0921 102.869C54.4265 103.95 50.6224 108.169 45.2541 112.2C39.8857 116.23 34.6983 119.059 33.8933 117.955C33.0879 116.851 36.8877 113.168 36.8877 113.168L36.553 112.133Z" fill="#F2E635"/>
<g opacity="0.3">
<path d="M36.553 112.133C36.5843 112.258 30.5444 118.218 32.1012 119.488C33.6581 120.758 40.2078 117.5 45.7909 112.863C51.374 108.225 56.4741 102.594 55.0784 101.103C53.6827 99.6122 46.705 104.026 46.705 104.026L47.5389 104.572C47.5389 104.572 51.7576 101.789 53.0921 102.869C54.4265 103.95 50.6224 108.169 45.2541 112.2C39.8857 116.23 34.6983 119.059 33.8933 117.955C33.0879 116.851 36.8877 113.168 36.8877 113.168L36.553 112.133Z" fill="black"/>
</g>
<g opacity="0.3">
<path d="M39.4948 105.291C39.5515 105.361 39.0756 105.776 38.537 106.61C37.9981 107.431 37.4345 108.731 37.4036 110.239C37.3761 111.747 37.889 113.069 38.3955 113.912C38.9013 114.767 39.3607 115.201 39.3012 115.269C39.2656 115.319 38.7014 114.984 38.0769 114.133C37.7661 113.71 37.4564 113.155 37.2244 112.489C36.9917 111.826 36.8481 111.049 36.8601 110.227C36.8801 109.407 37.0537 108.636 37.3117 107.983C37.5693 107.327 37.9002 106.785 38.2272 106.376C38.8841 105.551 39.461 105.239 39.4948 105.291Z" fill="white"/>
</g>
<path d="M124.73 47.0481C127.039 44.7723 127.117 41.0022 124.904 38.6274C122.691 36.2526 119.026 36.1724 116.716 38.4482C114.407 40.724 114.329 44.494 116.542 46.8688C118.755 49.2436 122.421 49.3239 124.73 47.0481Z" fill="#F2E635"/>
<g opacity="0.4">
<path d="M122.611 40.4708C122.623 39.9343 123.056 39.5101 123.578 39.5227C124.099 39.5354 124.512 39.9807 124.5 40.5168C124.487 41.0529 124.054 41.4775 123.533 41.4649C123.011 41.4522 122.599 41.0069 122.611 40.4708Z" fill="black"/>
</g>
<g opacity="0.4">
<path d="M124.5 42.7384C124.507 42.4263 124.759 42.1794 125.063 42.1867C125.366 42.1939 125.606 42.4531 125.599 42.7652C125.592 43.0772 125.34 43.3241 125.037 43.3165C124.733 43.3092 124.493 43.0504 124.5 42.7384Z" fill="black"/>
</g>
<g opacity="0.4">
<path d="M123.763 44.4732C123.875 44.4761 123.963 44.5713 123.961 44.6864C123.958 44.8015 123.865 44.8924 123.754 44.8899C123.642 44.887 123.553 44.7918 123.556 44.6766C123.558 44.5615 123.651 44.4707 123.763 44.4732Z" fill="black"/>
</g>
</svg>
