<svg width="138" height="137" viewBox="0 0 138 137" fill="none" xmlns="http://www.w3.org/2000/svg">
<path d="M124.37 12.4937V34.6772H92.5081L91.3604 12.6487L124.37 12.4937Z" fill="#E0E0E0"/>
<path d="M91.3604 12.6482V34.6299H123.222V12.6482L91.3604 12.6482Z" fill="white"/>
<path d="M123.373 34.7812H91.209V12.4971H123.373V34.7812ZM91.5112 34.4787H123.071V12.7996H91.5112V34.4787Z" fill="#E0E0E0"/>
<path d="M119.77 15.3799H94.8105V31.8996H119.77V15.3799Z" fill="white"/>
<path d="M119.771 15.3797C119.771 15.3797 119.728 15.3824 119.648 15.3841C119.563 15.3852 119.446 15.3865 119.293 15.3882C118.977 15.3901 118.518 15.3931 117.922 15.3969C116.723 15.4016 114.98 15.4082 112.779 15.4164C108.377 15.4252 102.147 15.4375 94.8111 15.452L94.8831 15.38C94.885 20.4273 94.8872 26.0196 94.8897 31.8975V31.8994L94.8111 31.8208C104.227 31.8268 112.907 31.8323 119.771 31.8367L119.708 31.8994C119.722 26.8721 119.733 22.7503 119.741 19.8801C119.748 18.4455 119.753 17.3248 119.757 16.5565C119.76 16.177 119.762 15.8855 119.764 15.683C119.766 15.4849 119.771 15.3797 119.771 15.3797C119.771 15.3797 119.775 15.4759 119.778 15.6696C119.779 15.8693 119.781 16.1567 119.785 16.5313C119.788 17.2963 119.794 18.4123 119.801 19.8409C119.809 22.7207 119.82 26.8559 119.834 31.8994L119.834 31.9622H119.771C112.907 31.9665 104.227 31.972 94.8111 31.9781H94.7324V31.8994V31.8975C94.7346 26.0196 94.7368 20.4273 94.739 15.38V15.3076H94.8111C102.166 15.3221 108.413 15.3345 112.826 15.3432C115.02 15.3515 116.758 15.358 117.953 15.3627C118.542 15.3665 118.996 15.3695 119.309 15.3715C119.459 15.3734 119.574 15.3747 119.656 15.3756C119.734 15.3769 119.771 15.3797 119.771 15.3797Z" fill="#E0E0E0"/>
<path d="M91.3601 12.5869C91.3735 12.5696 91.5818 12.7064 91.9078 12.9417C92.2336 13.1771 92.6778 13.5108 93.157 13.8944C93.6362 14.2783 94.0579 14.6411 94.3547 14.9126C94.6514 15.1844 94.8248 15.3636 94.8109 15.3795C94.7813 15.4129 94.0152 14.7811 93.0584 14.0172C92.101 13.2541 91.3322 12.6228 91.3601 12.5869Z" fill="#E0E0E0"/>
<path d="M123.222 12.6489C123.249 12.6828 122.498 13.3221 121.546 14.0761C120.593 14.8305 119.798 15.4141 119.771 15.3801C119.744 15.3461 120.495 14.7072 121.448 13.9528C122.401 13.1985 123.195 12.6149 123.222 12.6489Z" fill="#E0E0E0"/>
<path d="M123.197 34.6336C122.013 33.6738 120.829 32.7142 119.645 31.7544L123.197 34.6336Z" fill="white"/>
<path d="M119.644 31.7542C119.672 31.7205 120.489 32.3376 121.47 33.1327C122.451 33.9279 123.224 34.5997 123.197 34.6334C123.169 34.6671 122.352 34.0501 121.371 33.2549C120.39 32.4598 119.617 31.7879 119.644 31.7542Z" fill="#E0E0E0"/>
<path d="M91.3601 34.6305C91.333 34.5966 92.0758 33.9639 93.0189 33.2181C93.9623 32.472 94.7487 31.8949 94.7755 31.9292C94.8024 31.9632 94.0598 32.5956 93.1164 33.3417C92.1736 34.0875 91.3869 34.6645 91.3601 34.6305Z" fill="#E0E0E0"/>
<path d="M99.8789 20.5271V26.0586H115.584V20.5271H99.8789Z" fill="#E0E0E0"/>
<path d="M101.246 131.381H129.494V49.3872H101.246L101.246 131.381Z" fill="#E0E0E0"/>
<path d="M86.0831 131.381H117.012L117.012 49.3872H86.0831L86.0831 131.381Z" fill="#F5F5F5"/>
<path d="M96.8081 112.248H105.071C105.396 112.248 105.66 111.984 105.66 111.658V111.167H96.2188V111.658C96.2188 111.984 96.4826 112.248 96.8081 112.248Z" fill="#E0E0E0"/>
<path d="M87.4486 111.168C87.4486 111.168 87.4443 111.266 87.4421 111.464C87.4404 111.667 87.4382 111.96 87.4352 112.343C87.4317 113.124 87.4264 114.264 87.4196 115.726C87.4119 118.672 87.4007 122.909 87.387 128.097L87.3867 128.158H87.4486C94.9225 128.163 104.545 128.169 115.011 128.176H115.026H115.105V128.097C115.103 122.106 115.101 116.392 115.099 111.193V111.12H115.026C106.923 111.127 100.021 111.133 95.1409 111.138C92.7125 111.144 90.7879 111.149 89.4647 111.152C88.8112 111.155 88.3074 111.158 87.961 111.16C87.7947 111.161 87.667 111.163 87.5761 111.163C87.49 111.165 87.4486 111.168 87.4486 111.168C87.4486 111.168 87.496 111.171 87.5848 111.172C87.6777 111.173 87.8081 111.175 87.978 111.177C88.3276 111.179 88.8365 111.183 89.4965 111.187C90.8235 111.193 92.7538 111.201 95.1894 111.212C100.058 111.225 106.943 111.244 115.026 111.266L114.953 111.193C114.951 116.392 114.949 122.106 114.947 128.096L115.026 128.017H115.011C104.545 128.024 94.9228 128.03 87.4489 128.035L87.5106 128.096C87.4969 122.925 87.4856 118.701 87.478 115.764C87.4711 114.296 87.4659 113.151 87.4623 112.367C87.4593 111.98 87.4571 111.682 87.4555 111.477C87.453 111.275 87.4486 111.168 87.4486 111.168Z" fill="#E0E0E0"/>
<path d="M96.5898 117.52H104.797V115.303H96.5898V117.52Z" fill="#E0E0E0"/>
<path d="M97.1821 92.5176H105.445C105.77 92.5176 106.034 92.2537 106.034 91.928V91.4375H96.5928V91.928C96.5928 92.2537 96.8566 92.5176 97.1821 92.5176Z" fill="#E0E0E0"/>
<path d="M87.5248 91.4376C87.5248 91.4376 87.5204 91.5357 87.5182 91.7332C87.5166 91.9366 87.5144 92.23 87.5114 92.6128C87.5078 93.3934 87.5026 94.5338 87.4958 95.9956C87.4881 98.9414 87.4769 103.178 87.4632 108.366L87.4629 108.428H87.5248C94.9987 108.432 104.621 108.438 115.087 108.445H115.102H115.181V108.366C115.179 102.375 115.177 96.662 115.175 91.4628V91.3896H115.102C106.999 91.3968 100.098 91.4028 95.2171 91.4072C92.7886 91.4135 90.8641 91.4184 89.5409 91.4217C88.8874 91.425 88.3835 91.4275 88.0372 91.4291C87.8709 91.4308 87.7432 91.4321 87.6522 91.4332C87.5665 91.4346 87.5248 91.4376 87.5248 91.4376C87.5248 91.4376 87.5722 91.4406 87.661 91.442C87.7539 91.4431 87.884 91.4447 88.0542 91.4466C88.4038 91.4491 88.9126 91.4524 89.5727 91.4571C90.8999 91.4628 92.83 91.4713 95.2656 91.482C100.134 91.4951 107.019 91.5138 115.102 91.5357L115.029 91.4628C115.028 96.662 115.026 102.375 115.023 108.366L115.102 108.287H115.088C104.621 108.294 94.999 108.3 87.5251 108.304L87.5867 108.366C87.573 103.194 87.5618 98.9704 87.5541 96.034C87.5473 94.5661 87.5421 93.4211 87.5385 92.6372C87.5355 92.2495 87.5333 91.9522 87.5317 91.7464C87.5292 91.5445 87.5248 91.4376 87.5248 91.4376Z" fill="#E0E0E0"/>
<path d="M97.2099 97.6592H105.417V95.442H97.2099V97.6592Z" fill="#E0E0E0"/>
<path d="M96.8221 52.7029H105.085C105.41 52.7029 105.674 52.439 105.674 52.1135V51.623H96.2324V52.1135C96.2324 52.439 96.4966 52.7029 96.8221 52.7029Z" fill="#E0E0E0"/>
<path d="M87.4623 51.6229C87.4623 51.6229 87.4579 51.721 87.4557 51.9186C87.4541 52.1219 87.4519 52.4153 87.4489 52.7981C87.4453 53.5787 87.4401 54.7191 87.4333 56.1809C87.4256 59.1267 87.4144 63.3636 87.4007 68.5515L87.4004 68.6131H87.4623C94.9362 68.6178 104.559 68.6238 115.025 68.6301H115.04H115.119V68.5512C115.116 62.5605 115.114 56.847 115.113 51.6479V51.5747H115.04C106.937 51.5818 100.035 51.5879 95.1549 51.5922C92.7264 51.5985 90.8018 51.6035 89.4787 51.6068C88.8252 51.6101 88.321 51.6125 87.975 51.6144C87.8086 51.6161 87.681 51.6175 87.59 51.6183C87.504 51.6202 87.4623 51.6229 87.4623 51.6229C87.4623 51.6229 87.5097 51.6259 87.5985 51.6273C87.6914 51.6284 87.8218 51.6301 87.9917 51.632C88.3413 51.6344 88.8501 51.6377 89.5102 51.6421C90.8374 51.6479 92.7675 51.6564 95.2031 51.667C100.072 51.6802 106.956 51.6988 115.04 51.7208L114.967 51.6479C114.965 56.847 114.963 62.5605 114.961 68.5512L115.04 68.4723H115.025C104.559 68.4789 94.9368 68.4849 87.4626 68.4895L87.5242 68.5512C87.5105 63.3792 87.4993 59.1555 87.4916 56.219C87.4848 54.7512 87.4796 53.6061 87.476 52.8222C87.473 52.4345 87.4708 52.1372 87.4692 51.9315C87.4667 51.7301 87.4623 51.6229 87.4623 51.6229Z" fill="#E0E0E0"/>
<path d="M96.997 57.4458H105.204V55.2286H96.997V57.4458Z" fill="#E0E0E0"/>
<path d="M96.8221 72.5999H105.085C105.41 72.5999 105.674 72.336 105.674 72.0105V71.52H96.2324V72.0105C96.2324 72.336 96.4966 72.5999 96.8221 72.5999Z" fill="#E0E0E0"/>
<path d="M87.4623 71.5199C87.4623 71.5199 87.4579 71.618 87.4557 71.8156C87.4541 72.0189 87.4519 72.3123 87.4489 72.6951C87.4453 73.4757 87.4401 74.6161 87.4333 76.0779C87.4256 79.0237 87.4144 83.2605 87.4007 88.4484L87.4004 88.5101H87.4623C94.9362 88.5147 104.559 88.5208 115.025 88.5271H115.04H115.119V88.4482C115.116 82.4574 115.114 76.744 115.113 71.5448V71.4717H115.04C106.937 71.4788 100.035 71.4848 95.1549 71.4892C92.7264 71.4955 90.8018 71.5005 89.4787 71.5037C88.8252 71.507 88.321 71.5095 87.975 71.5114C87.8086 71.5131 87.681 71.5144 87.59 71.5152C87.504 71.5169 87.4623 71.5199 87.4623 71.5199C87.4623 71.5199 87.5097 71.5229 87.5985 71.5243C87.6914 71.5254 87.8218 71.527 87.9917 71.5289C88.3413 71.5314 88.8501 71.5347 89.5102 71.5394C90.8374 71.5451 92.7675 71.5536 95.2031 71.5643C100.072 71.5774 106.956 71.5961 115.04 71.618L114.967 71.5451C114.965 76.7443 114.963 82.4577 114.961 88.4484L115.04 88.3695H115.025C104.559 88.3761 94.9368 88.3821 87.4626 88.3865L87.5242 88.4482C87.5105 83.2764 87.4993 79.0524 87.4916 76.116C87.4848 74.6482 87.4796 73.5031 87.476 72.7192C87.473 72.3315 87.4708 72.0342 87.4692 71.8284C87.4667 71.6268 87.4623 71.5199 87.4623 71.5199Z" fill="#E0E0E0"/>
<path d="M96.997 77.3428H105.204V75.1256H96.997V77.3428Z" fill="#E0E0E0"/>
<path d="M42.5956 11.9404H12.9795V38.4368H42.5956V11.9404Z" fill="#FAFAFA"/>
<path d="M42.596 38.4366C42.596 38.4366 42.591 38.2668 42.5886 37.9448C42.5869 37.6196 42.5842 37.1445 42.5809 36.5252C42.5768 35.2813 42.571 33.4627 42.5636 31.1469C42.5554 26.5174 42.5434 19.9022 42.5291 11.9406L42.5962 12.0077C34.0669 12.0113 23.8881 12.0154 12.9829 12.0198H12.9801L13.0593 11.9406C13.0557 21.5802 13.0527 30.6512 13.0497 38.4369L12.9801 38.3673C21.8153 38.3818 29.21 38.3939 34.4006 38.4024C36.9976 38.4103 39.0422 38.4164 40.4423 38.4208C41.1397 38.4243 41.6756 38.4271 42.0417 38.429C42.2209 38.4306 42.3579 38.432 42.454 38.4328C42.5466 38.4339 42.596 38.4366 42.596 38.4366C42.596 38.4366 42.5521 38.4394 42.4617 38.4408C42.3672 38.4416 42.2326 38.4429 42.0567 38.4446C41.6937 38.4465 41.1624 38.4492 40.4708 38.4528C39.0745 38.4572 37.0351 38.4632 34.445 38.4712C29.2434 38.4797 21.8333 38.4917 12.9796 38.5062H12.91V38.4364C12.9072 30.6507 12.904 21.5799 12.9004 11.94V11.8608H12.9796H12.9823C23.8875 11.8652 34.0666 11.8693 42.5957 11.8729H42.6631V11.94C42.6488 19.9192 42.6368 26.5492 42.6286 31.1888C42.6212 33.4983 42.6151 35.3117 42.6113 36.5521C42.608 37.1658 42.6053 37.6368 42.6036 37.9588C42.6009 38.2766 42.596 38.4366 42.596 38.4366Z" fill="#E0E0E0"/>
<path d="M24.3362 16.648C24.3362 16.6919 22.7774 16.7272 20.8548 16.7272C18.9316 16.7272 17.373 16.6916 17.373 16.648C17.373 16.6045 18.9316 16.5688 20.8548 16.5688C22.7771 16.5688 24.3362 16.6042 24.3362 16.648Z" fill="#E0E0E0"/>
<path d="M36.8842 18.6378C36.8842 18.6816 32.6016 18.717 27.3199 18.717C22.0364 18.717 17.7549 18.6816 17.7549 18.6378C17.7549 18.5942 22.0364 18.5586 27.3199 18.5586C32.6016 18.5586 36.8842 18.5939 36.8842 18.6378Z" fill="#E0E0E0"/>
<path d="M18.6716 22.0078H17.4238V23.2556H18.6716V22.0078Z" fill="#E0E0E0"/>
<path d="M21.7429 22.0078H20.4951V23.2556H21.7429V22.0078Z" fill="#E0E0E0"/>
<path d="M24.8708 21.9507H23.623V23.1985H24.8708V21.9507Z" fill="#E0E0E0"/>
<path d="M27.8855 22.0078H26.6377V23.2556H27.8855V22.0078Z" fill="#E0E0E0"/>
<path d="M30.9568 22.0078H29.709V23.2556H30.9568V22.0078Z" fill="#E0E0E0"/>
<path d="M34.0281 22.0078H32.7803V23.2556H34.0281V22.0078Z" fill="#E0E0E0"/>
<path d="M37.0994 22.0078H35.8516V23.2556H37.0994V22.0078Z" fill="#EBEBEB"/>
<path d="M18.6716 24.6602H17.4238V25.908H18.6716V24.6602Z" fill="#EBEBEB"/>
<path d="M21.7429 24.6602H20.4951V25.908H21.7429V24.6602Z" fill="#E0E0E0"/>
<path d="M24.8142 24.6602H23.5664V25.908H24.8142V24.6602Z" fill="#EBEBEB"/>
<path d="M27.8855 24.6602H26.6377V25.908H27.8855V24.6602Z" fill="#E0E0E0"/>
<path d="M30.9568 24.6602H29.709V25.908H30.9568V24.6602Z" fill="#E0E0E0"/>
<path d="M34.0847 24.6035H32.8369V25.8513H34.0847V24.6035Z" fill="#E0E0E0"/>
<path d="M37.0994 24.6602H35.8516V25.908H37.0994V24.6602Z" fill="#E0E0E0"/>
<path d="M18.6716 27.313H17.4238V28.5608H18.6716V27.313Z" fill="#E0E0E0"/>
<path d="M21.7996 27.2559H20.5518V28.5037H21.7996V27.2559Z" fill="#E0E0E0"/>
<path d="M24.8142 27.313H23.5664V28.5608H24.8142V27.313Z" fill="#E0E0E0"/>
<path d="M27.8855 27.313H26.6377V28.5608H27.8855V27.313Z" fill="#EBEBEB"/>
<path d="M30.9568 27.313H29.709V28.5608H30.9568V27.313Z" fill="#E0E0E0"/>
<path d="M34.0281 27.313H32.7803V28.5608H34.0281V27.313Z" fill="#E0E0E0"/>
<path d="M37.0994 27.313H35.8516V28.5608H37.0994V27.313Z" fill="#E0E0E0"/>
<path d="M18.6716 29.9653H17.4238V31.2131H18.6716V29.9653Z" fill="#E0E0E0"/>
<path d="M21.7429 29.9653H20.4951V31.2131H21.7429V29.9653Z" fill="#E0E0E0"/>
<path d="M24.8142 29.9653H23.5664V31.2131H24.8142V29.9653Z" fill="#E0E0E0"/>
<path d="M27.9421 29.9087H26.6943V31.1565H27.9421V29.9087Z" fill="#E0E0E0"/>
<path d="M30.9568 29.9653H29.709V31.2131H30.9568V29.9653Z" fill="#E0E0E0"/>
<path d="M34.0281 29.9653H32.7803V31.2131H34.0281V29.9653Z" fill="#EBEBEB"/>
<path d="M37.0994 29.9653H35.8516V31.2131H37.0994V29.9653Z" fill="#E0E0E0"/>
<path d="M18.6716 32.6182H17.4238V33.866H18.6716V32.6182Z" fill="#E0E0E0"/>
<path d="M21.7429 32.6182H20.4951V33.866H21.7429V32.6182Z" fill="#EBEBEB"/>
<path d="M24.8142 32.6182H23.5664V33.866H24.8142V32.6182Z" fill="#E0E0E0"/>
<path d="M27.8855 32.6182H26.6377V33.866H27.8855V32.6182Z" fill="#E0E0E0"/>
<path d="M30.9568 32.6182H29.709V33.866H30.9568V32.6182Z" fill="#E0E0E0"/>
<path d="M34.0847 32.561H32.8369V33.8088H34.0847V32.561Z" fill="#E0E0E0"/>
<path d="M37.0994 32.6182H35.8516V33.866H37.0994V32.6182Z" fill="#E0E0E0"/>
<path d="M67.4927 51.3957L57.2783 55.2407L59.87 62.1255L70.0843 58.2805L67.4927 51.3957Z" fill="#EBEBEB"/>
<path d="M67.5543 51.4688C67.5573 51.4704 67.5362 51.5143 67.4938 51.5962C67.4458 51.6861 67.3822 51.8044 67.3031 51.9524C67.1285 52.2692 66.8847 52.7117 66.5854 53.2547C65.9662 54.3587 65.1187 55.8698 64.18 57.5434L64.1603 57.5787L64.1216 57.5661C64.0923 57.5565 64.0603 57.5461 64.0282 57.5357C62.1831 56.931 60.5133 56.3838 59.2924 55.9835C58.6956 55.7829 58.209 55.6193 57.8607 55.5023C57.6996 55.4459 57.5708 55.401 57.473 55.3667C57.3848 55.3347 57.3388 55.3163 57.3399 55.313C57.341 55.3097 57.3889 55.3218 57.4791 55.3478C57.5782 55.3774 57.7089 55.4166 57.8725 55.4656C58.2232 55.5755 58.7129 55.7287 59.3138 55.9169C60.5369 56.3098 62.2099 56.8474 64.0586 57.4415C64.0907 57.4519 64.1225 57.4623 64.1521 57.4719L64.0937 57.4946C65.0426 55.8265 65.8991 54.3206 66.5249 53.2205C66.8356 52.6837 67.0885 52.2467 67.2699 51.9335C67.3557 51.7894 67.4244 51.6738 67.4765 51.5863C67.5247 51.5077 67.5513 51.4672 67.5543 51.4688Z" fill="#E0E0E0"/>
<path d="M59.9318 62.1981C59.9061 62.1891 60.319 60.9561 60.8538 59.4447C61.3889 57.9328 61.8438 56.7151 61.8695 56.7242C61.8953 56.7332 61.4824 57.9659 60.9473 59.4779C60.4121 60.9893 59.9576 62.2075 59.9318 62.1981Z" fill="#E0E0E0"/>
<path d="M65.2326 55.3605C65.2468 55.3372 66.3584 55.9882 67.715 56.8149C69.0721 57.6415 70.1604 58.3306 70.1462 58.3539C70.132 58.3772 69.0206 57.7262 67.6635 56.8995C66.3069 56.0729 65.2183 55.3838 65.2326 55.3605Z" fill="#E0E0E0"/>
<path d="M80.7169 29.6602C80.9811 29.5005 81.2625 29.3794 81.5526 29.2969L81.7247 28.4697L83.1224 28.4453L83.3235 29.2659C83.6164 29.338 83.9019 29.4492 84.1715 29.5997L84.8779 29.1366L85.8837 30.1077L85.4459 30.8297C85.6056 31.0941 85.7267 31.3755 85.8092 31.6656L86.6364 31.8377L86.6611 33.2354L85.8405 33.4365C85.7684 33.7294 85.6571 34.0146 85.5067 34.2845L85.9698 34.9909L84.9987 35.9968L84.2765 35.5589C84.0121 35.7186 83.7307 35.8398 83.4405 35.9222L83.2681 36.7494L81.8705 36.7738L81.6693 35.9532C81.3764 35.8811 81.0909 35.7699 80.8213 35.6195L80.1149 36.0825L79.1091 35.1115L79.5469 34.3892C79.3872 34.1248 79.2661 33.8434 79.1836 33.5532L78.3564 33.3811L78.332 31.9835L79.1527 31.7824C79.2247 31.4895 79.336 31.2039 79.4864 30.9343L79.0233 30.228L79.9944 29.2221L80.7169 29.6602ZM81.4619 31.5221C80.8865 32.118 80.9032 33.0674 81.4992 33.6425C82.0951 34.2179 83.0446 34.2012 83.6197 33.6053C84.1948 33.0093 84.1784 32.0599 83.5824 31.4848C82.9867 30.9097 82.0373 30.9264 81.4619 31.5221Z" fill="#E0E0E0"/>
<path d="M81.4618 31.522C81.4618 31.522 81.5402 31.4116 81.7411 31.277C81.9381 31.1458 82.2827 30.9997 82.7195 31.0458C82.9346 31.0699 83.17 31.14 83.3845 31.282C83.5966 31.4239 83.7971 31.6258 83.9221 31.8878C83.9881 32.0166 84.0336 32.1593 84.0585 32.3086C84.0854 32.4577 84.0892 32.6144 84.067 32.7703C84.029 33.0835 83.881 33.3923 83.6508 33.6348C83.4166 33.8735 83.113 34.0324 82.8012 34.0814C82.6461 34.1094 82.4893 34.111 82.3395 34.0894C82.1893 34.0699 82.0449 34.0291 81.9139 33.9677C81.6476 33.8518 81.4388 33.6586 81.2895 33.4515C81.1402 33.2422 81.0618 33.0093 81.03 32.7953C80.9686 32.3604 81.1026 32.0111 81.2268 31.8094C81.3542 31.6045 81.4618 31.522 81.4618 31.522C81.4698 31.5288 81.3714 31.6204 81.2558 31.8264C81.1429 32.0286 81.0234 32.37 81.09 32.7865C81.1243 32.9915 81.2026 33.2128 81.3476 33.4107C81.4925 33.6063 81.6928 33.7882 81.9463 33.8959C82.0709 33.9532 82.2079 33.9907 82.3502 34.0085C82.4921 34.0283 82.6406 34.0261 82.7872 33.999C83.082 33.9515 83.3675 33.8008 83.5892 33.5756C83.8065 33.3463 83.947 33.0558 83.9837 32.7594C84.0057 32.612 84.0026 32.4637 83.9777 32.3223C83.9552 32.181 83.9128 32.0451 83.8511 31.9229C83.7347 31.6735 83.5459 31.4795 83.3453 31.3417C83.1426 31.2039 82.9187 31.1335 82.7127 31.1063C82.2943 31.0543 81.9572 31.1855 81.7589 31.3058C81.5572 31.4283 81.469 31.5299 81.4618 31.522Z" fill="#E0E0E0"/>
<path d="M80.7172 29.6602C80.7172 29.6613 80.7016 29.653 80.6706 29.6355C80.6366 29.6158 80.5911 29.5895 80.5322 29.5555C80.4059 29.481 80.224 29.3736 79.9878 29.2341L80.0048 29.2319C79.7576 29.4908 79.4327 29.8314 79.0398 30.2432L79.0422 30.2161C79.1833 30.4296 79.3403 30.6668 79.508 30.9206L79.5165 30.9332L79.5091 30.9466C79.3718 31.1951 79.2565 31.4784 79.1809 31.7891L79.1768 31.8056L79.16 31.8097C78.9044 31.8733 78.6277 31.9418 78.34 32.0133L78.3633 31.9831C78.372 32.4232 78.3813 32.8904 78.3909 33.3808L78.3641 33.3485C78.6203 33.4014 78.9025 33.4594 79.1916 33.5189L79.2127 33.5233L79.2187 33.5441C79.2954 33.814 79.4154 34.1009 79.5795 34.3705L79.5913 34.3897L79.5798 34.4091C79.4445 34.6333 79.2951 34.8801 79.1431 35.1319L79.137 35.0845C79.4532 35.3892 79.7944 35.7178 80.144 36.0542L80.0941 36.0496C80.3141 35.9052 80.5555 35.7465 80.8002 35.5857L80.821 35.5723L80.8427 35.5843C81.0893 35.7219 81.3773 35.8391 81.6808 35.9134L81.7052 35.9194L81.7113 35.9438C81.7743 36.2008 81.8433 36.4811 81.9129 36.7644L81.8713 36.7324C82.3138 36.7244 82.7881 36.7159 83.2689 36.7072L83.2278 36.7411C83.2821 36.4798 83.3407 36.1978 83.3999 35.9139L83.4051 35.8885L83.4301 35.8813C83.7054 35.8035 83.9904 35.6832 84.2548 35.5229L84.2556 35.5224L84.2781 35.509L84.3 35.5224C84.5425 35.6695 84.7833 35.8156 85.0223 35.9602L84.9691 35.9671C85.2974 35.6273 85.6212 35.292 85.9402 34.9615L85.9352 35.0144C85.7796 34.7766 85.6253 34.5409 85.4725 34.3078L85.4585 34.2864L85.4711 34.2642C85.6196 33.9981 85.7297 33.7154 85.8013 33.4268L85.8073 33.4022L85.8317 33.3962C86.1092 33.3282 86.3827 33.2616 86.6526 33.1956L86.6213 33.2361C86.6134 32.7591 86.6057 32.293 86.598 31.8385L86.6296 31.8766C86.349 31.8179 86.0733 31.7601 85.8026 31.7034L85.7796 31.6984L85.7733 31.676C85.6895 31.3795 85.5673 31.1014 85.4155 30.8488L85.4037 30.8293L85.4155 30.8101C85.5659 30.5627 85.7119 30.323 85.8544 30.0887L85.8602 30.1328C85.5073 29.7906 85.1738 29.4673 84.8565 29.1598L84.8973 29.1637C84.6485 29.3259 84.4151 29.4782 84.1899 29.6248L84.1742 29.635L84.1581 29.6259C83.8767 29.4684 83.5945 29.3621 83.3183 29.2927L83.3016 29.2886L83.2974 29.2722C83.2254 28.9738 83.1604 28.7047 83.0991 28.451L83.1243 28.4705C82.5829 28.4776 82.1214 28.4836 81.7263 28.4888L81.745 28.4735C81.674 28.8034 81.6159 29.0741 81.5674 29.2996L81.5655 29.3078L81.5575 29.31C81.2616 29.3925 81.0537 29.4892 80.9183 29.5558C80.8536 29.5895 80.8043 29.6155 80.7679 29.6344C80.7334 29.6533 80.7172 29.6613 80.7172 29.6602C80.7172 29.6591 80.7331 29.6481 80.7638 29.6284C80.7958 29.6087 80.844 29.5793 80.9112 29.5434C81.0449 29.4722 81.2523 29.3711 81.5493 29.2834L81.5397 29.2938C81.5852 29.0678 81.6397 28.7962 81.7066 28.4655L81.7096 28.4505L81.7252 28.4502C82.1201 28.4414 82.5815 28.4315 83.1229 28.4195L83.1432 28.4189L83.1481 28.4387C83.2111 28.6921 83.278 28.9606 83.352 29.2588L83.3314 29.2379C83.6125 29.3064 83.9002 29.4133 84.1877 29.5719L84.1556 29.573C84.38 29.4251 84.6129 29.2716 84.8609 29.1083L84.8828 29.0938L84.9017 29.1122C85.2204 29.4185 85.5549 29.7402 85.9095 30.081L85.93 30.1008L85.9152 30.1251C85.7736 30.3597 85.6284 30.6 85.4785 30.848V30.8096C85.6347 31.0672 85.7604 31.3513 85.8467 31.6543L85.8177 31.6272C86.0887 31.6834 86.3643 31.7404 86.6452 31.7985L86.6761 31.8048L86.6767 31.8365C86.6852 32.2911 86.6937 32.7572 86.7027 33.2342L86.7033 33.2668L86.6715 33.2745C86.4016 33.3408 86.1284 33.4082 85.8508 33.4764L85.8813 33.446C85.8087 33.7419 85.696 34.0318 85.544 34.3047L85.5423 34.2612C85.6952 34.4943 85.8498 34.7297 86.0057 34.9673L86.0243 34.9958L86.0007 35.0204C85.6818 35.3509 85.3579 35.6865 85.0299 36.0266L85.0061 36.0512L84.9768 36.0334C84.7381 35.8887 84.497 35.7427 84.2545 35.5956H84.2989L84.2981 35.5958C84.0271 35.76 83.7348 35.8833 83.4525 35.963L83.4827 35.9304C83.4235 36.2142 83.3648 36.4965 83.3103 36.7576L83.3035 36.791L83.2692 36.7916C82.7884 36.7998 82.3141 36.808 81.8715 36.8154L81.8378 36.8159L81.8299 36.7833C81.7606 36.5 81.6921 36.2197 81.6293 35.9624L81.6597 35.9929C81.349 35.9164 81.0539 35.7958 80.8019 35.6545L80.844 35.6528C80.5991 35.8131 80.3574 35.9712 80.1371 36.1153L80.1103 36.1329L80.0873 36.1107C79.7385 35.7731 79.3982 35.4438 79.0828 35.1385L79.0606 35.1171L79.0765 35.0911C79.2294 34.8399 79.3792 34.5933 79.5154 34.3697V34.408C79.3486 34.1318 79.2272 33.8384 79.1496 33.5627L79.1765 33.5877C78.8874 33.5271 78.6055 33.4677 78.3495 33.414L78.323 33.4085L78.3224 33.3816C78.315 32.8912 78.3079 32.424 78.3011 31.984L78.3008 31.9593L78.3246 31.9535C78.6129 31.8837 78.8899 31.8165 79.1458 31.7546L79.1252 31.7754C79.2042 31.4601 79.3231 31.1732 79.4642 30.9219L79.465 30.948C79.2992 30.6929 79.1442 30.4542 79.0047 30.2397L78.9951 30.2249L79.0072 30.2125C79.405 29.8051 79.7338 29.4686 79.984 29.2124L79.9916 29.2045L80.0009 29.2103C80.2317 29.3538 80.4095 29.4645 80.5331 29.5412C80.5914 29.5782 80.6364 29.6067 80.6698 29.6281C80.7016 29.6481 80.7172 29.6588 80.7172 29.6602Z" fill="#E0E0E0"/>
<path d="M12.9672 128.594C12.4669 128.165 11.3509 126.806 12.2115 125.224C12.5272 124.645 13.1971 124.358 13.8038 124.103C14.4104 123.847 15.0477 123.625 15.5497 123.198C16.4961 122.393 16.7575 121.055 17.3858 119.981C18.1069 118.747 19.4534 117.823 20.8757 117.888C22.5046 117.962 23.8631 119.292 24.4788 120.809C25.0945 122.326 25.1161 124.01 25.1287 125.649C25.1358 126.555 25.0956 127.576 24.4306 128.187C23.8174 128.752 22.8943 128.758 22.0635 128.733C19.0963 128.642 16.1292 128.551 13.162 128.459" fill="#F5F5F5"/>
<path d="M29.992 104.116H6.58203L10.7989 129.261C10.9833 130.359 11.7779 131.205 12.7974 131.499C12.8243 131.508 12.8522 131.514 12.8794 131.522C12.949 131.54 13.0164 131.563 13.0879 131.576C13.2421 131.607 13.4019 131.624 13.5638 131.63C13.5652 131.638 13.5663 131.647 13.5677 131.655L13.6819 131.636H13.6827H24.1164C24.3126 131.636 24.5041 131.616 24.6896 131.58C25.9218 131.389 26.9079 130.4 27.0581 129.122L29.0909 111.797L29.1826 111.108H29.1717L29.9767 104.247L29.992 104.116ZM25.5757 120.155H23.1733L23.4158 112.858H26.1991L25.5757 120.155ZM26.4325 112.858H28.7325L27.8762 120.155H25.8089L26.4325 112.858ZM19.5691 128.245L19.423 121.905H22.8826L22.6719 128.245H19.5691ZM15.8287 121.905H19.1904L19.3365 128.245H16.3214L15.8287 121.905ZM16.0887 128.245H13.2704C13.0024 126.533 12.6541 124.309 12.2768 121.905H15.5961L16.0887 128.245ZM15.6928 120.155L15.1256 112.858H18.9819L19.1499 120.155H15.6928ZM19.3825 120.155L19.2145 112.858H23.1831L22.9407 120.155H19.3825V120.155ZM19.1743 111.108L19.0186 104.349H23.4656L23.2412 111.108H19.1743ZM18.9419 111.108H14.9897L14.4645 104.349H18.786L18.9419 111.108ZM14.7568 111.108H10.5753C10.4273 110.174 10.2868 109.291 10.1599 108.496C9.72372 105.764 9.55959 104.736 9.4689 104.349H14.2316L14.7568 111.108ZM14.8927 112.858L15.4599 120.155H12.0018C11.8853 119.415 11.7678 118.666 11.6497 117.916C11.3787 116.193 11.1071 114.471 10.852 112.857H14.8927V112.858ZM11.7667 120.155H9.50753L8.28357 112.858H10.617C10.9734 115.113 11.3688 117.623 11.7667 120.155ZM12.0415 121.905C12.3859 124.099 12.7248 126.262 13.035 128.245H10.8644L9.80098 121.905H12.0415ZM22.9045 128.245L23.1152 121.905H25.4261L24.8844 128.245H22.9045ZM23.4739 111.108L23.6983 104.349H26.926L26.3487 111.108H23.4739ZM9.2475 104.349C9.34039 104.838 9.76756 107.497 10.3399 111.108H7.99039L6.85685 104.349H9.2475ZM26.9271 128.245H25.1179L25.6596 121.905H27.671L26.9271 128.245ZM28.9377 111.108H26.5818L27.1592 104.349H29.7304L28.9377 111.108Z" fill="#E0E0E0"/>
<path d="M125.308 131.381C125.308 131.42 100.219 131.452 69.2765 131.452C38.3238 131.452 13.2402 131.42 13.2402 131.381C13.2402 131.341 38.3241 131.31 69.2765 131.31C100.218 131.309 125.308 131.341 125.308 131.381Z" fill="#263238"/>
<path d="M101.44 69.0013C101.44 69.0013 104.676 65.2763 105.898 61.5513C107.119 57.8262 106.539 58.2537 106.539 58.2537C106.539 58.2537 104.89 61.8721 103.638 63.62C102.386 65.3678 100.157 67.9324 100.157 67.9324L101.44 69.0013Z" fill="#455A64"/>
<path d="M100.794 58.834C100.899 58.6521 101.177 58.7466 101.145 58.954C100.948 60.2624 100.522 63.3331 100.538 65.3245C100.56 67.9116 100.537 68.9117 100.537 68.9117H99.1904C99.1904 68.9117 99.4296 63.5638 99.734 61.9332C99.9475 60.7895 100.4 59.5204 100.794 58.834Z" fill="#455A64"/>
<path d="M100.06 68.4769C100.06 68.4769 99.2125 66.6943 98.9516 64.4552C98.8407 63.5027 99.0385 62.216 99.3331 60.4983C99.4758 59.6665 99.5079 59.0335 99.5035 58.5946C99.4999 58.2628 99.0623 58.1545 98.9001 58.4439C98.7376 58.734 98.2669 59.7251 98.1475 60.3463C97.8214 62.0421 97.4518 62.8898 97.7343 64.4987C98.0168 66.1074 99.0604 68.586 99.0604 68.586L100.06 68.4769Z" fill="#455A64"/>
<path d="M98.8469 68.5857C98.8469 68.5857 95.2934 60.9491 95.0471 59.8163C94.8007 58.6836 93.9634 56.0727 93.8647 56.2204C93.7661 56.3681 93.6184 57.7474 94.2588 59.3237C94.8991 60.9 97.6333 68.8183 97.6333 68.8183H98.8466" fill="#455A64"/>
<path d="M100.449 68.2441C100.451 68.2463 100.485 68.2224 100.549 68.1756C100.612 68.1279 100.708 68.0605 100.824 67.9654C101.061 67.7796 101.393 67.4969 101.78 67.1223C102.555 66.3773 103.521 65.2287 104.358 63.8135C105.196 62.3986 105.76 61.0146 106.117 60.0016C106.296 59.4944 106.427 59.0793 106.511 58.7908C106.555 58.6469 106.585 58.5341 106.605 58.4579C106.626 58.3814 106.636 58.3409 106.633 58.3403C106.63 58.3395 106.616 58.3787 106.591 58.4535C106.564 58.5352 106.528 58.6448 106.483 58.782C106.39 59.0675 106.251 59.4796 106.067 59.9835C105.697 60.9899 105.128 62.3657 104.292 63.7749C103.459 65.1843 102.505 66.3321 101.742 67.0842C101.362 67.4623 101.036 67.7503 100.806 67.9427C100.693 68.041 100.6 68.112 100.54 68.1635C100.479 68.2142 100.448 68.2419 100.449 68.2441Z" fill="#263238"/>
<path d="M100.061 64.5803C100.066 64.5806 100.077 64.5008 100.093 64.3562C100.11 64.1981 100.132 63.992 100.158 63.7441C100.215 63.2276 100.302 62.5149 100.428 61.7323C100.554 60.9495 100.694 60.2454 100.802 59.7371C100.855 59.4932 100.899 59.2907 100.932 59.1354C100.962 58.9932 100.977 58.914 100.972 58.9126C100.967 58.9112 100.943 58.9882 100.903 59.1283C100.864 59.2683 100.811 59.4721 100.75 59.7253C100.628 60.2314 100.479 60.9356 100.353 61.7203C100.227 62.5048 100.147 63.2202 100.105 63.7389C100.083 63.9983 100.069 64.2085 100.063 64.354C100.057 64.4995 100.056 64.58 100.061 64.5803Z" fill="#263238"/>
<path d="M99.2283 58.3838C99.2258 58.383 99.2115 58.4164 99.1863 58.4808C99.1592 58.5526 99.1239 58.6468 99.0798 58.7644C99.0326 58.8874 98.9786 59.0392 98.9274 59.219C98.8745 59.3982 98.806 59.6004 98.7548 59.8305C98.7266 59.9451 98.6972 60.0651 98.6668 60.1897C98.637 60.3147 98.6159 60.447 98.5887 60.5829C98.5307 60.8542 98.4948 61.1482 98.4517 61.4567C98.3824 62.0757 98.3443 62.7612 98.3668 63.4805C98.3958 64.1997 98.4827 64.8809 98.5964 65.4936C98.6616 65.7982 98.7183 66.089 98.7956 66.3553C98.8326 66.4887 98.863 66.6191 98.9019 66.7416C98.9414 66.8638 98.9792 66.9811 99.0154 67.0934C99.083 67.3192 99.1658 67.516 99.2316 67.691C99.2957 67.8667 99.3606 68.0144 99.4162 68.1335C99.4686 68.2475 99.5108 68.339 99.5428 68.4089C99.5724 68.4714 99.5891 68.5037 99.5916 68.5026C99.5941 68.5015 99.582 68.467 99.5568 68.4026C99.528 68.3316 99.4905 68.2385 99.4436 68.122C99.3921 68.0012 99.3316 67.8524 99.2716 67.676C99.2099 67.5001 99.131 67.3028 99.0669 67.077C99.0323 66.9647 98.9962 66.8474 98.9586 66.7252C98.9217 66.6027 98.8926 66.4726 98.8573 66.3394C98.783 66.0736 98.7288 65.784 98.6657 65.4804C98.5564 64.8702 98.472 64.1929 98.4432 63.4777C98.4208 62.7626 98.4564 62.0809 98.5216 61.4647C98.5627 61.1575 98.5959 60.8646 98.6509 60.5944C98.6767 60.4591 98.6962 60.3273 98.7244 60.2023C98.7531 60.0779 98.7808 59.9582 98.8071 59.8437C98.8551 59.6138 98.9195 59.4116 98.9685 59.2316C99.0159 59.051 99.0658 58.8984 99.1082 58.7743C99.1469 58.6548 99.1776 58.5592 99.2011 58.4863C99.2211 58.42 99.2307 58.3846 99.2283 58.3838Z" fill="#263238"/>
<path d="M93.9059 56.3735C93.9045 56.3738 93.9056 56.3853 93.9086 56.4078C93.913 56.4346 93.9179 56.4672 93.9242 56.507C93.9398 56.5938 93.9596 56.7229 93.9944 56.887C94.0629 57.2155 94.1771 57.6885 94.3549 58.2619C94.5319 58.8357 94.7747 59.5084 95.0624 60.2474C95.349 60.9866 95.6822 61.7922 95.9978 62.6495C96.3182 63.5055 96.565 64.3412 96.7968 65.0993C97.0267 65.858 97.2445 66.5392 97.4553 67.1015C97.6638 67.6645 97.8646 68.1079 98.0164 68.4073C98.089 68.5586 98.1548 68.6715 98.197 68.749C98.217 68.7841 98.2331 68.8126 98.2466 68.8364C98.2581 68.8559 98.2647 68.8655 98.2657 68.8649C98.2668 68.8644 98.2627 68.8534 98.2534 68.8326C98.2416 68.8082 98.2277 68.7783 98.2104 68.7419C98.1726 68.6622 98.1115 68.5474 98.043 68.3945C97.9 68.0917 97.7073 67.6467 97.5057 67.0828C97.3021 66.5198 97.0897 65.8389 96.8637 65.0791C96.6357 64.3204 96.3902 63.4819 96.0691 62.6235C95.7529 61.7639 95.4175 60.9592 95.1276 60.2219C94.8364 59.4851 94.5892 58.816 94.4062 58.2461C94.2223 57.6761 94.1004 57.207 94.0231 56.881C93.9839 56.7182 93.9598 56.5903 93.9393 56.5045C93.93 56.4653 93.9223 56.4333 93.9163 56.4067C93.9108 56.3842 93.9072 56.3733 93.9059 56.3735Z" fill="#263238"/>
<path d="M104.862 54.687C105.086 54.4645 105.459 54.6971 105.366 54.999C105.272 55.3051 105.13 55.7008 104.919 56.1474C104.431 57.1856 102.996 60.9106 102.324 62.9563C101.652 65.002 100.706 68.8185 100.706 68.8185L99.2715 68.5859C99.2715 68.5859 100.584 62.3151 101.866 60.0557C102.897 58.2399 103.927 55.6161 104.862 54.687Z" fill="#455A64"/>
<path d="M101.932 64.2354C101.927 64.2337 101.901 64.2948 101.858 64.4072C101.816 64.5198 101.758 64.6839 101.693 64.8889C101.561 65.298 101.399 65.8695 101.236 66.5044C101.074 67.1398 100.938 67.7174 100.844 68.1363C100.801 68.3344 100.765 68.501 100.736 68.6334C100.712 68.7512 100.701 68.8167 100.706 68.818C100.711 68.8194 100.732 68.7558 100.765 68.6402C100.8 68.5092 100.844 68.3448 100.896 68.1489C101.006 67.7174 101.15 67.1505 101.309 66.523C101.472 65.8887 101.625 65.3163 101.744 64.9042C101.801 64.7097 101.848 64.5464 101.886 64.4165C101.921 64.3017 101.937 64.237 101.932 64.2354Z" fill="#263238"/>
<path d="M99.9863 68.7018C99.9876 68.7021 99.9904 68.689 99.9945 68.6635C99.9989 68.6336 100.004 68.5966 100.011 68.5506C100.026 68.4514 100.039 68.3043 100.069 68.1163C100.122 67.7395 100.216 67.1965 100.37 66.5339C100.523 65.8714 100.746 65.0919 101.041 64.2422C101.336 63.3923 101.705 62.4741 102.123 61.5238C102.967 59.6256 103.81 57.9416 104.364 56.6965C104.644 56.0754 104.86 55.5682 105.003 55.215C105.076 55.0388 105.128 54.9005 105.165 54.807C105.181 54.7635 105.194 54.7284 105.204 54.7002C105.213 54.6758 105.217 54.6632 105.216 54.6626C105.214 54.6621 105.208 54.6739 105.197 54.6971C105.185 54.7245 105.17 54.7588 105.15 54.8013C105.108 54.8985 105.05 55.0331 104.976 55.2035C104.825 55.5528 104.601 56.0562 104.315 56.6741C103.749 57.9125 102.899 59.5919 102.053 61.4929C101.635 62.4448 101.267 63.3657 100.975 64.2192C100.683 65.0722 100.464 65.8555 100.318 66.5216C100.17 67.1874 100.084 67.7332 100.04 68.1119C100.014 68.3007 100.005 68.4489 99.995 68.5487C99.9915 68.595 99.9885 68.6325 99.9863 68.6624C99.9852 68.6884 99.9849 68.7016 99.9863 68.7018Z" fill="#263238"/>
<path d="M99.2722 68.5856C99.2774 68.5864 99.2944 68.5004 99.3207 68.3445C99.3492 68.176 99.3867 67.9537 99.4325 67.685C99.5314 67.1293 99.6824 66.3637 99.8991 65.5305C100.114 64.6964 100.356 63.9547 100.542 63.4218C100.634 63.165 100.709 62.9527 100.767 62.7919C100.82 62.6434 100.848 62.5601 100.843 62.5581C100.838 62.5562 100.801 62.6357 100.739 62.7809C100.678 62.9264 100.591 63.1385 100.492 63.4034C100.293 63.9325 100.042 64.6745 99.8259 65.5113C99.6081 66.3473 99.4653 67.1169 99.3796 67.6759C99.3388 67.9559 99.3075 68.1825 99.2916 68.3401C99.2741 68.4976 99.267 68.5848 99.2722 68.5856Z" fill="#263238"/>
<path d="M96.3278 75.2012H101.927V68.3794H96.3278V75.2012Z" fill="#EBE30D"/>
<g opacity="0.3">
<path d="M96.3278 75.2012H101.927V68.3794H96.3278V75.2012Z" fill="black"/>
</g>
<path d="M98.1147 75.2012H103.082V68.3794H98.1147V75.2012Z" fill="#EBE30D"/>
<path d="M51.6181 12.187L41.2236 15.5146L43.4666 22.5208L53.861 19.1932L51.6181 12.187Z" fill="#EBE30D"/>
<path d="M51.6777 12.2593C51.6804 12.2612 51.6574 12.304 51.6108 12.3837C51.5582 12.4711 51.4892 12.5862 51.4026 12.7301C51.2124 13.0378 50.9467 13.4674 50.6206 13.9948C49.9468 15.0665 49.0246 16.5332 48.0031 18.1577L47.9814 18.192L47.9434 18.1775C47.9143 18.1665 47.8831 18.1544 47.8516 18.1424C46.0391 17.4459 44.3986 16.8157 43.1993 16.3548C42.6132 16.1246 42.1356 15.937 41.7937 15.8024C41.6356 15.738 41.509 15.6865 41.4134 15.6476C41.3268 15.6112 41.2819 15.5906 41.2832 15.5873C41.2843 15.584 41.3317 15.5986 41.4205 15.629C41.5181 15.6635 41.6468 15.7093 41.8077 15.7665C42.1524 15.8937 42.6338 16.0715 43.2245 16.2893C44.4266 16.7431 46.0703 17.3639 47.8869 18.0498C47.9184 18.0618 47.9497 18.0736 47.9787 18.0846L47.9192 18.1043C48.9503 16.4858 49.8814 15.0248 50.5617 13.9573C50.8987 13.4367 51.1735 13.0128 51.3703 12.7092C51.4632 12.5695 51.5377 12.4577 51.5941 12.3728C51.6462 12.2969 51.675 12.2577 51.6777 12.2593Z" fill="#263238"/>
<path d="M43.5264 22.5938C43.5011 22.5834 43.9752 21.3726 44.5854 19.89C45.1956 18.4068 45.7107 17.2133 45.7362 17.2237C45.7614 17.2341 45.2873 18.4444 44.6772 19.9275C44.067 21.4104 43.5518 22.604 43.5264 22.5938Z" fill="#263238"/>
<path d="M49.1633 16.0298C49.1786 16.0071 50.2562 16.7132 51.5698 17.6067C52.8839 18.5005 53.9363 19.243 53.9207 19.2658C53.9054 19.2882 52.828 18.5824 51.5139 17.6886C50.2006 16.7954 49.1479 16.0526 49.1633 16.0298Z" fill="#263238"/>
<path d="M97.5412 27.3795L89.8046 24.1019C89.27 23.8753 89.0201 23.2585 89.2467 22.724L93.783 12.0155C94.0096 11.4809 94.6264 11.231 95.1613 11.4576L100.068 13.5362L102.207 19.0598L98.9194 26.8216C98.6928 27.3562 98.0758 27.6061 97.5412 27.3795Z" fill="#EBE30D"/>
<path d="M100.067 13.5366L98.7906 16.5503C98.5799 17.0477 98.8123 17.6214 99.3093 17.8321L102.207 19.0602L100.067 13.5366Z" fill="#EBE30D"/>
<g opacity="0.2">
<path d="M98.7185 16.8315C98.7185 16.8315 98.3708 17.5464 99.101 18.1391C99.1284 18.1613 99.1577 18.1815 99.1873 18.201C99.5369 18.429 101.84 19.9272 101.864 19.8699C101.891 19.808 102.207 19.06 102.207 19.06L99.3095 17.8325C99.3095 17.8325 98.5965 17.5012 98.7185 16.8315Z" fill="black"/>
</g>
<g opacity="0.3">
<path d="M100.067 13.5366L98.7906 16.5503C98.5799 17.0477 98.8123 17.6214 99.3093 17.8321L102.207 19.0602L100.067 13.5366Z" fill="white"/>
</g>
<path d="M98.1948 16.1524C98.1783 16.191 97.3637 15.8831 96.3754 15.4644C95.3868 15.0457 94.599 14.6747 94.6155 14.6361C94.6319 14.5975 95.4463 14.9054 96.4349 15.3241C97.4232 15.7428 98.2112 16.1135 98.1948 16.1524Z" fill="#FAFAFA"/>
<path d="M99.7837 18.8355C99.7673 18.8741 98.4351 18.3469 96.8086 17.6578C95.1816 16.9684 93.8763 16.3785 93.8927 16.3399C93.9092 16.3013 95.2411 16.8284 96.8681 17.5175C98.4946 18.2066 99.8002 18.7966 99.7837 18.8355Z" fill="#FAFAFA"/>
<path d="M99.7116 20.4833C99.6952 20.522 98.2444 19.9444 96.4713 19.1933C94.6977 18.442 93.2737 17.8017 93.2902 17.7631C93.3066 17.7244 94.7572 18.3017 96.5308 19.0533C98.3038 19.8041 99.7281 20.4447 99.7116 20.4833Z" fill="#FAFAFA"/>
<path d="M99.1433 21.8256C99.1268 21.8645 97.676 21.2867 95.903 20.5356C94.1294 19.7843 92.7054 19.144 92.7218 19.1053C92.7383 19.0667 94.1888 19.644 95.9624 20.3953C97.7352 21.1466 99.1594 21.787 99.1433 21.8256Z" fill="#FAFAFA"/>
<path d="M98.5749 23.1679C98.5585 23.2065 97.1077 22.6289 95.3346 21.8779C93.561 21.1266 92.137 20.4863 92.1535 20.4476C92.1699 20.409 93.6205 20.9863 95.3941 21.7376C97.1671 22.4887 98.5914 23.1293 98.5749 23.1679Z" fill="#FAFAFA"/>
<path d="M98.0056 24.5107C97.9892 24.5493 96.5383 23.9717 94.7653 23.2207C92.9917 22.4694 91.5677 21.829 91.5841 21.7904C91.6006 21.7518 93.0511 22.3291 94.8247 23.0804C96.5978 23.8317 98.022 24.472 98.0056 24.5107Z" fill="#FAFAFA"/>
<path d="M71.5268 29.6516C77.1782 29.6516 81.7596 25.0703 81.7596 19.4188C81.7596 13.7674 77.1782 9.18604 71.5268 9.18604C65.8753 9.18604 61.2939 13.7674 61.2939 19.4188C61.2939 25.0703 65.8753 29.6516 71.5268 29.6516Z" fill="white"/>
<path d="M81.7595 19.4187C81.7595 19.4187 81.7518 19.3625 81.7439 19.2532C81.7365 19.1384 81.7258 18.9773 81.7121 18.7676C81.7058 18.6605 81.6984 18.5413 81.6907 18.4101C81.6768 18.2791 81.6488 18.1372 81.6258 17.9826C81.577 17.6741 81.5307 17.3163 81.4126 16.9272C81.2323 16.137 80.8622 15.2035 80.2788 14.2138C79.6908 13.2285 78.8425 12.1988 77.6873 11.3253C76.536 10.4597 75.0824 9.72318 73.4044 9.42562C72.9838 9.36616 72.5589 9.2793 72.1183 9.27711C71.8991 9.26944 71.678 9.24807 71.4552 9.25163C71.2324 9.26314 71.008 9.27464 70.7822 9.28643C70.6694 9.29437 70.5554 9.29355 70.4425 9.30862L70.1033 9.36095C69.8769 9.39849 69.6468 9.42507 69.4191 9.4722C68.9703 9.5944 68.5053 9.68537 68.0633 9.87032C67.6071 10.0164 67.1783 10.2416 66.7375 10.4531C66.5229 10.5696 66.3171 10.7052 66.1045 10.8312C66.0004 10.8978 65.8894 10.9545 65.7905 11.0299L65.4913 11.254C65.0781 11.5376 64.7167 11.8924 64.3383 12.2341C63.9964 12.6125 63.6371 12.9827 63.3423 13.412L63.1086 13.7247L62.9039 14.059L62.6995 14.3954C62.6283 14.5064 62.5633 14.6207 62.5102 14.742C62.3957 14.9799 62.2806 15.2191 62.1652 15.4588C62.0737 15.7087 61.9816 15.9597 61.8896 16.2115C61.5583 17.2316 61.3797 18.315 61.3651 19.4176C61.3797 20.5204 61.5575 21.6044 61.8888 22.6247C61.9811 22.8766 62.0729 23.1275 62.1644 23.3777C62.28 23.6177 62.3948 23.8567 62.5096 24.0948C62.5628 24.2159 62.6277 24.3307 62.699 24.4414L62.9034 24.7781L63.108 25.1127L63.3418 25.4256C63.6366 25.8552 63.9958 26.2257 64.3378 26.604C64.7162 26.9457 65.0776 27.3008 65.4908 27.5844L65.79 27.8086C65.8889 27.8839 66.0001 27.9406 66.1042 28.0072C66.3169 28.1332 66.5226 28.2689 66.7372 28.3853C67.178 28.5969 67.6071 28.8224 68.0631 28.9684C68.505 29.1531 68.97 29.2443 69.4188 29.3665C69.6465 29.4136 69.8767 29.4402 70.103 29.4778L70.4422 29.5301C70.5551 29.5449 70.6691 29.5443 70.782 29.552C71.008 29.5638 71.2324 29.5753 71.4552 29.5868C71.678 29.5904 71.8991 29.569 72.1183 29.5613C72.5589 29.5591 72.9841 29.4723 73.4047 29.4125C75.0829 29.1147 76.5362 28.3782 77.6879 27.5126C78.843 26.6388 79.6911 25.6094 80.2791 24.6238C80.8624 23.6342 81.2323 22.7006 81.4126 21.9107C81.5307 21.5216 81.577 21.1638 81.6258 20.8553C81.6488 20.701 81.677 20.5591 81.6907 20.4281C81.6987 20.2968 81.7058 20.1777 81.7121 20.0705C81.7258 19.8609 81.7362 19.6995 81.7436 19.585C81.7518 19.4748 81.7595 19.4187 81.7595 19.4187C81.7595 19.4187 81.7617 19.4748 81.7584 19.5844C81.7543 19.6995 81.7485 19.8612 81.7409 20.0716C81.7365 20.1793 81.7316 20.299 81.7261 20.4308C81.7146 20.5623 81.6885 20.7051 81.6677 20.8605C81.623 21.1709 81.5809 21.5312 81.4663 21.9236C81.2932 22.7201 80.9287 23.6629 80.3476 24.6641C79.7615 25.6612 78.9115 26.7046 77.749 27.5921C76.5902 28.4714 75.1235 29.2216 73.4266 29.5282C73.0014 29.5898 72.5712 29.6786 72.1257 29.6824C71.9037 29.6907 71.6801 29.7129 71.4546 29.7098C71.2291 29.6986 71.002 29.6876 70.7732 29.6764C70.6589 29.6687 70.5436 29.6696 70.4293 29.6548L70.0857 29.6027C69.8564 29.5652 69.6232 29.5389 69.3928 29.4915C68.938 29.369 68.4667 29.2772 68.0187 29.0911C67.5564 28.9437 67.1213 28.7166 66.6742 28.5029C66.4563 28.3853 66.2475 28.2483 66.0322 28.1206C65.9267 28.0532 65.8141 27.9957 65.7135 27.9198L65.4099 27.6932C64.991 27.406 64.6238 27.0474 64.2402 26.701C63.8928 26.3183 63.5286 25.9426 63.2294 25.5078L62.9922 25.1908L62.7845 24.8518L62.577 24.5107C62.5047 24.3983 62.4392 24.2822 62.385 24.1594C62.2688 23.918 62.1518 23.6758 62.0345 23.4325C61.9416 23.179 61.8482 22.9245 61.7545 22.6691C61.418 21.6345 61.2372 20.5352 61.2227 19.417C61.2372 18.2994 61.4186 17.2004 61.755 16.1663C61.8487 15.9109 61.9422 15.6567 62.0351 15.4032C62.1523 15.1602 62.2691 14.9179 62.3852 14.6766C62.4395 14.5538 62.5055 14.4376 62.5776 14.3253L62.785 13.9842L62.9927 13.6455L63.2297 13.3285C63.5289 12.8936 63.8933 12.5183 64.2405 12.1355C64.6241 11.7894 64.991 11.4307 65.4102 11.1436L65.7138 10.917C65.8143 10.8411 65.927 10.7836 66.0325 10.7162C66.2478 10.5887 66.4569 10.4517 66.6744 10.3342C67.1213 10.1205 67.5564 9.89334 68.0187 9.74592C68.4669 9.55988 68.938 9.46809 69.3928 9.34561C69.6232 9.29821 69.8564 9.2719 70.0857 9.23437L70.4291 9.18231C70.5433 9.16751 70.6589 9.16833 70.7729 9.16066C71.0017 9.14943 71.2289 9.13819 71.4541 9.12723C71.6793 9.12422 71.9032 9.14641 72.1248 9.15463C72.5704 9.15847 73.0005 9.24697 73.4258 9.30862C75.1227 9.61495 76.5894 10.3652 77.7481 11.2444C78.9107 12.1319 79.761 13.1756 80.347 14.1724C80.9285 15.1736 81.2929 16.1167 81.466 16.9129C81.5803 17.3053 81.6228 17.6656 81.6674 17.9761C81.6883 18.1314 81.7143 18.2742 81.7261 18.4057C81.7316 18.5375 81.7365 18.6572 81.7409 18.7649C81.7485 18.9753 81.7543 19.137 81.7584 19.2521C81.7614 19.3625 81.7595 19.4187 81.7595 19.4187Z" fill="#263238"/>
<path d="M76.3797 19.1296C76.3816 19.139 76.235 19.1803 75.9667 19.2477C75.6741 19.3176 75.2902 19.4094 74.8253 19.5204C73.858 19.7453 72.5149 20.0478 71.0153 20.3772L70.9287 20.3961V20.3073C70.9287 20.2128 70.9287 20.1114 70.9287 20.0092C70.9287 18.4057 70.9367 16.9541 70.9495 15.9036C70.9588 15.3969 70.9665 14.9777 70.9723 14.6593C70.9808 14.3656 70.9901 14.2031 71 14.2031C71.0098 14.2031 71.0191 14.3656 71.0276 14.6593C71.0334 14.9774 71.0411 15.3967 71.0504 15.9036C71.0632 16.9541 71.0712 18.4057 71.0712 20.0092C71.0712 20.1111 71.0712 20.2128 71.0712 20.3073L70.9846 20.2377C72.4848 19.9103 73.8315 19.6239 74.8042 19.4239C75.273 19.3305 75.6601 19.2535 75.9552 19.1946C76.2268 19.1442 76.3775 19.1206 76.3797 19.1296Z" fill="#263238"/>
<path d="M82.4934 23.6374C82.4887 23.6354 82.5046 23.5785 82.5386 23.4713C82.5701 23.3634 82.6309 23.2091 82.6877 23.0039C82.8142 22.5975 82.9701 21.9999 83.0874 21.2489C83.3291 19.7573 83.3285 17.5938 82.5465 15.4026C81.764 13.2108 80.394 11.5362 79.2624 10.5347C78.696 10.0278 78.1971 9.66392 77.8417 9.42965C77.6677 9.30689 77.523 9.22606 77.4301 9.1625C77.3359 9.10112 77.2877 9.06687 77.2901 9.06249C77.2926 9.0581 77.3455 9.08413 77.4447 9.13756C77.5422 9.19346 77.6921 9.26662 77.8716 9.38307C78.2379 9.60391 78.7492 9.95764 79.329 10.4591C80.4872 11.449 81.8881 13.1347 82.6808 15.3546C83.4727 17.574 83.4562 19.7652 83.1866 21.2651C83.0556 22.0205 82.8836 22.6181 82.7403 23.0211C82.6748 23.2247 82.6055 23.3765 82.5652 23.4815C82.5227 23.5856 82.498 23.6393 82.4934 23.6374Z" fill="#263238"/>
<path d="M84.4552 18.6009C84.4322 18.6014 84.4188 18.1932 84.3352 17.5416C84.2525 16.8908 84.0856 15.9954 83.7604 15.049C83.4381 14.101 83.0197 13.2918 82.6866 12.7269C82.3523 12.1613 82.1123 11.8309 82.1309 11.8172C82.1383 11.8117 82.2076 11.8873 82.3216 12.0331C82.4361 12.1786 82.5931 12.3956 82.7726 12.674C83.1307 13.2302 83.5691 14.0426 83.8954 15.003C84.2251 15.9617 84.378 16.8719 84.4358 17.5309C84.4651 17.8608 84.4741 18.1288 84.4736 18.3137C84.4725 18.4984 84.4648 18.6006 84.4552 18.6009Z" fill="#263238"/>
<path d="M61.3103 13.4913C61.3147 13.4938 61.2901 13.5477 61.2394 13.648C61.1912 13.7497 61.1068 13.8922 61.0177 14.0859C60.8281 14.4667 60.5793 15.0323 60.3442 15.7548C59.8686 17.1892 59.5252 19.3253 59.9488 21.6127C60.3733 23.9008 61.4594 25.7723 62.4176 26.9409C62.8963 27.5313 63.3308 27.97 63.6446 28.2577C63.7969 28.4068 63.927 28.5092 64.0082 28.5871C64.0912 28.6627 64.1336 28.7041 64.1306 28.7079C64.1276 28.7117 64.0794 28.6777 63.9901 28.6093C63.9027 28.5386 63.7665 28.4424 63.6076 28.2991C63.2812 28.0229 62.8324 27.5922 62.3398 27.005C61.3536 25.8435 60.2385 23.9567 59.8088 21.639C59.3797 19.322 59.7444 17.1613 60.2489 15.7233C60.4982 14.9986 60.7629 14.4355 60.9689 14.0607C61.0659 13.87 61.1586 13.7313 61.215 13.6341C61.2734 13.5379 61.3062 13.4888 61.3103 13.4913Z" fill="#263238"/>
<path d="M58.573 18.1524C58.5958 18.1554 58.5443 18.5606 58.5232 19.2171C58.5015 19.8728 58.5237 20.7833 58.6947 21.7694C58.8621 22.7567 59.1465 23.6219 59.3854 24.233C59.6255 24.8445 59.8099 25.209 59.7893 25.2194C59.7811 25.2237 59.7249 25.138 59.6353 24.9761C59.5455 24.8144 59.4249 24.5749 59.292 24.2716C59.0271 23.6655 58.7232 22.7936 58.5536 21.7938C58.3804 20.7948 58.3744 19.872 58.4221 19.2122C58.4454 18.8817 58.4793 18.616 58.5092 18.4332C58.5399 18.2507 58.5637 18.151 58.573 18.1524Z" fill="#263238"/>
<path d="M79.9974 21.1083C79.6113 21.0294 79.299 20.962 79.2998 20.9582C79.3006 20.9543 79.6141 21.0152 80.0004 21.0941C80.3862 21.173 80.6986 21.2404 80.6978 21.2442C80.6969 21.2481 80.3835 21.1872 79.9974 21.1083Z" fill="#263238"/>
<path d="M79.0058 23.6876C78.6663 23.4876 78.3926 23.3227 78.3945 23.3194C78.3965 23.3161 78.6732 23.4756 79.0127 23.6756C79.3519 23.8756 79.6256 24.0406 79.6237 24.0438C79.6218 24.0471 79.345 23.8874 79.0058 23.6876Z" fill="#263238"/>
<path d="M77.227 25.8018C76.9711 25.5021 76.7658 25.2574 76.7686 25.2549C76.7713 25.2524 76.9812 25.4933 77.2371 25.793C77.493 26.0925 77.698 26.3375 77.6953 26.3399C77.6928 26.3421 77.4829 26.1013 77.227 25.8018Z" fill="#263238"/>
<path d="M74.8616 27.2261C74.7161 26.8598 74.601 26.5619 74.6046 26.5606C74.6081 26.5592 74.7287 26.8548 74.8742 27.2212C75.0197 27.5872 75.1348 27.8853 75.1312 27.8867C75.1276 27.8881 75.0071 27.5922 74.8616 27.2261Z" fill="#263238"/>
<path d="M72.1605 27.806C72.1424 27.4123 72.1309 27.093 72.1344 27.0928C72.1383 27.0925 72.1558 27.4114 72.1739 27.8052C72.192 28.1986 72.2035 28.5178 72.1999 28.5181C72.1961 28.5184 72.1785 28.1995 72.1605 27.806Z" fill="#263238"/>
<path d="M69.4161 27.4746C69.5263 27.0962 69.6186 26.7904 69.6222 26.7915C69.626 26.7926 69.54 27.1003 69.4298 27.4787C69.3199 27.8568 69.2276 28.1629 69.2238 28.1618C69.2199 28.1604 69.3062 27.8527 69.4161 27.4746Z" fill="#263238"/>
<path d="M66.9266 26.273C67.1543 25.9514 67.3412 25.6922 67.3442 25.6943C67.3472 25.6965 67.1655 25.959 66.9378 26.281C66.7104 26.6027 66.5236 26.8616 66.5205 26.8594C66.5175 26.8572 66.6992 26.5947 66.9266 26.273Z" fill="#263238"/>
<path d="M64.9662 24.3272C65.2857 24.0965 65.5465 23.9121 65.5487 23.9151C65.5509 23.9181 65.2936 24.1074 64.9741 24.3381C64.6547 24.5686 64.3938 24.7532 64.3916 24.75C64.3894 24.7469 64.6467 24.5576 64.9662 24.3272Z" fill="#263238"/>
<path d="M63.7402 21.8509C64.1172 21.7361 64.4235 21.646 64.4246 21.6495C64.4257 21.6531 64.121 21.749 63.744 21.8638C63.3673 21.9786 63.0607 22.0687 63.0596 22.0652C63.0585 22.0616 63.3634 21.9657 63.7402 21.8509Z" fill="#263238"/>
<path d="M63.3858 19.1105C63.7798 19.125 64.0987 19.14 64.0987 19.1436C64.0985 19.1474 63.7793 19.1384 63.3855 19.1239C62.9918 19.1094 62.6729 19.0943 62.6729 19.0907C62.6729 19.0869 62.9923 19.0959 63.3858 19.1105Z" fill="#263238"/>
<path d="M63.941 16.4019C64.3093 16.5427 64.6063 16.66 64.6049 16.6636C64.6036 16.6671 64.3041 16.5559 63.9361 16.4151C63.5681 16.2742 63.2711 16.1572 63.2725 16.1534C63.2738 16.1501 63.5733 16.2611 63.941 16.4019Z" fill="#263238"/>
<path d="M65.3437 14.0219C65.6457 14.2753 65.8884 14.483 65.886 14.4857C65.8835 14.4888 65.6369 14.2857 65.335 14.0323C65.0333 13.7791 64.7905 13.5714 64.793 13.5684C64.7955 13.5656 65.0421 13.7687 65.3437 14.0219Z" fill="#263238"/>
<path d="M67.4446 12.2281C67.6482 12.5654 67.811 12.8405 67.8077 12.8424C67.8044 12.8443 67.6367 12.5725 67.4331 12.2349C67.2296 11.8976 67.0671 11.6225 67.0704 11.6206C67.0734 11.619 67.2411 11.8908 67.4446 12.2281Z" fill="#263238"/>
<path d="M70.0119 11.2098C70.0952 11.5951 70.1599 11.908 70.156 11.9088C70.1525 11.9096 70.0821 11.5981 69.9988 11.2129C69.9155 10.8279 69.8511 10.515 69.8546 10.5142C69.8582 10.5131 69.9286 10.8249 70.0119 11.2098Z" fill="#263238"/>
<path d="M72.7718 11.0831C72.7249 11.4744 72.6838 11.7912 72.68 11.7909C72.6761 11.7903 72.7112 11.473 72.7581 11.0815C72.8049 10.6905 72.846 10.3735 72.8499 10.374C72.8537 10.3746 72.8186 10.6921 72.7718 11.0831Z" fill="#263238"/>
<path d="M75.4261 11.8573C75.2551 12.2124 75.114 12.499 75.1104 12.4973C75.1069 12.4957 75.2425 12.2063 75.4135 11.8512C75.5842 11.4964 75.7255 11.2098 75.7288 11.2114C75.7324 11.2131 75.5968 11.5021 75.4261 11.8573Z" fill="#263238"/>
<path d="M77.6817 13.4525C77.4044 13.7325 77.1773 13.9572 77.1748 13.9547C77.1721 13.952 77.3948 13.7229 77.6721 13.4429C77.9494 13.1632 78.1763 12.9382 78.179 12.9409C78.1815 12.9437 77.959 13.1727 77.6817 13.4525Z" fill="#263238"/>
<path d="M79.2982 15.6923C78.9453 15.8677 78.6579 16.0071 78.6563 16.0038C78.6546 16.0006 78.9393 15.8556 79.2922 15.6802C79.6448 15.5049 79.9323 15.3654 79.9339 15.3687C79.9356 15.3723 79.6509 15.5169 79.2982 15.6923Z" fill="#263238"/>
<path d="M80.1018 18.3343C79.7111 18.3856 79.3938 18.4239 79.3936 18.4201C79.393 18.4165 79.7095 18.3719 80.1002 18.3209C80.4907 18.2697 80.8079 18.2313 80.8085 18.2351C80.8088 18.239 80.4923 18.2834 80.1018 18.3343Z" fill="#263238"/>
<path d="M85.1774 17.39C85.2127 17.4076 84.9502 18.0049 84.5915 18.7241C84.5861 18.7351 84.5806 18.7461 84.5754 18.7562L84.52 18.8672L84.4521 18.7636C84.02 18.1049 83.6994 17.5597 83.7317 17.5383C83.7641 17.5169 84.1375 18.0274 84.5713 18.6852L84.448 18.6926C84.4529 18.6825 84.4584 18.6715 84.4639 18.6606C84.8225 17.9413 85.1423 17.3725 85.1774 17.39Z" fill="#263238"/>
<path d="M89.8231 40.5303H57.6202C56.0447 40.5303 54.7676 41.8074 54.7676 43.3829C54.7676 44.9584 56.0447 46.2355 57.6202 46.2355H72.6812L76.0541 49.4495V46.2355H89.8231C91.3986 46.2355 92.6758 44.9584 92.6758 43.3829C92.676 41.8074 91.3986 40.5303 89.8231 40.5303Z" fill="#FAFAFA"/>
<path d="M89.8229 40.5304C89.8229 40.5304 89.8586 40.5288 89.9287 40.5307C89.9988 40.5343 90.1043 40.5301 90.2411 40.5543C90.5134 40.5891 90.9255 40.686 91.3823 40.9732C91.8294 41.2598 92.3287 41.7604 92.5692 42.5123C92.8125 43.2469 92.7597 44.245 92.164 45.0722C91.8724 45.4835 91.4488 45.8342 90.9356 46.0543C90.6773 46.1603 90.3986 46.2299 90.109 46.2641C89.8158 46.2863 89.5245 46.2778 89.2242 46.2803C88.0252 46.2825 86.7289 46.2847 85.3449 46.2872C82.5759 46.2904 79.4548 46.2943 76.0539 46.2981L76.1164 46.2356C76.1172 47.2418 76.118 48.3331 76.1191 49.4497V49.602L76.0087 49.4971C74.9406 48.4805 73.8019 47.3969 72.6335 46.2852L72.6804 46.3041C68.6923 46.3052 64.3615 46.3063 59.8714 46.3074C59.122 46.3074 58.377 46.3074 57.637 46.3074C56.878 46.3126 56.1278 46.0096 55.5918 45.4871C55.0507 44.9698 54.7274 44.2417 54.7022 43.5058C54.6685 42.7698 54.9266 42.0328 55.4003 41.4848C55.8691 40.9326 56.5445 40.569 57.2514 40.4874C57.6082 40.4477 57.9507 40.4666 58.2943 40.4622C58.6376 40.4625 58.9793 40.4625 59.3193 40.4627C60.6789 40.4636 62.0097 40.4644 63.3082 40.4652C68.5016 40.471 73.1788 40.4762 77.108 40.4805C81.0336 40.4901 84.2106 40.4978 86.4114 40.5033C87.5068 40.509 88.3584 40.5137 88.9406 40.5167C89.227 40.5197 89.4462 40.5222 89.5985 40.5238C89.747 40.5255 89.8229 40.5304 89.8229 40.5304C89.8229 40.5304 89.747 40.5353 89.5988 40.5378C89.4465 40.5395 89.2273 40.5419 88.9409 40.5449C88.3584 40.548 87.5071 40.5526 86.4116 40.5584C84.2109 40.5638 81.0338 40.5715 77.1082 40.5811C73.1791 40.5855 68.5019 40.5907 63.3085 40.5964C62.01 40.5973 60.6789 40.5981 59.3196 40.5989C58.9798 40.5992 58.6382 40.5992 58.2946 40.5995C57.9521 40.6038 57.6019 40.5863 57.269 40.6244C56.596 40.7028 55.953 41.0494 55.5069 41.5754C55.0562 42.098 54.8112 42.7989 54.8435 43.4998C54.8679 44.2004 55.1754 44.8922 55.6907 45.3849C56.2018 45.8822 56.9133 46.1696 57.6375 46.1649C58.3776 46.1649 59.1226 46.1649 59.872 46.1649C64.3617 46.166 68.6926 46.1671 72.6809 46.1682H72.7083L72.7281 46.1871C73.8948 47.3004 75.0324 48.3854 76.0991 49.4031L75.9889 49.4502C75.9898 48.3337 75.9909 47.2423 75.9917 46.2362V46.1734H76.0541C79.455 46.1776 82.5762 46.1811 85.3452 46.1844C86.7292 46.1869 88.0255 46.1893 89.2245 46.1913C89.5237 46.1899 89.8199 46.1992 90.1008 46.1792C90.3822 46.1471 90.6529 46.0808 90.9044 45.9789C91.4039 45.7674 91.8185 45.4284 92.1045 45.0289C92.6892 44.2261 92.7484 43.2512 92.5153 42.5295C92.2851 41.7908 91.799 41.2941 91.3614 41.0061C90.914 40.7176 90.5079 40.6151 90.2383 40.5743C89.9668 40.5315 89.8224 40.5395 89.8229 40.5304Z" fill="#263238"/>
<path d="M71.706 45.3988H57.6008C56.4875 45.3988 55.585 44.4963 55.585 43.383C55.585 42.2697 56.4875 41.3672 57.6008 41.3672H71.706C72.8193 41.3672 73.7218 42.2697 73.7218 43.383C73.7218 44.4963 72.8193 45.3988 71.706 45.3988Z" fill="#EBE30D"/>
<path d="M72.8862 37.5898L72.4097 39.0472H72.0475L71.7266 38.0603L71.3956 39.0472H71.0356L70.5566 37.5898H70.9063L71.2353 38.6143L71.5789 37.5898H71.8913L72.2245 38.6225L72.5637 37.5898H72.8862Z" fill="#263238"/>
<path d="M72.9648 38.3184C72.9648 37.8852 73.3021 37.5649 73.7625 37.5649C74.2206 37.5649 74.5598 37.8836 74.5598 38.3184C74.5598 38.7536 74.2206 39.0722 73.7625 39.0722C73.3024 39.0722 72.9648 38.7516 72.9648 38.3184ZM74.2187 38.3184C74.2187 38.0414 74.0228 37.8521 73.7627 37.8521C73.5024 37.8521 73.3068 38.0414 73.3068 38.3184C73.3068 38.5955 73.5024 38.7848 73.7627 38.7848C74.0228 38.7848 74.2187 38.5955 74.2187 38.3184Z" fill="#263238"/>
<path d="M75.7425 39.0472L75.4616 38.6412H75.4452H75.1515V39.0472H74.8145V37.5898H75.4455C75.8348 37.5898 76.0784 37.7918 76.0784 38.1187C76.0784 38.3373 75.9683 38.4976 75.7787 38.5787L76.1053 39.0472H75.7425ZM75.4263 37.8644H75.1512V38.3727H75.4263C75.6323 38.3727 75.7365 38.2768 75.7365 38.1187C75.7365 37.9584 75.6323 37.8644 75.4263 37.8644Z" fill="#263238"/>
<path d="M76.8748 38.4746L76.6791 38.6787V39.0472H76.3438V37.5898H76.6791V38.2707L77.3244 37.5898H77.699L77.0953 38.2395L77.7346 39.0472H77.3411L76.8748 38.4746Z" fill="#263238"/>
<path d="M86.1311 43.9176H85.7231L85.6198 44.4412H85.3244L85.431 43.9176H84.2471L84.2868 43.7047L85.6412 42.3105H85.9853L84.6888 43.6559H85.4924L85.5869 43.1934H85.8697L85.7785 43.6559H86.1834L86.1311 43.9176Z" fill="#263238"/>
<path d="M87.0078 42.5754L86.8311 43.1599H87.0382C87.5829 43.1599 87.8295 43.3851 87.8295 43.7293C87.8295 44.1704 87.4676 44.4658 86.9226 44.4658C86.6001 44.4658 86.3261 44.3652 86.1768 44.1981L86.3381 43.9638C86.454 44.0978 86.6732 44.1951 86.944 44.1951C87.3122 44.1951 87.5254 44.0337 87.5254 43.763C87.5254 43.5528 87.373 43.4251 86.9834 43.4251H86.4658L86.7976 42.311H88L87.9482 42.5757L87.0078 42.5754Z" fill="#263238"/>
<path d="M88.1865 42.9895C88.1865 42.6182 88.409 42.2954 88.768 42.2954C89.0296 42.2954 89.197 42.4658 89.197 42.7579C89.197 43.1292 88.9778 43.452 88.6156 43.452C88.3539 43.452 88.1865 43.2815 88.1865 42.9895ZM90.0766 42.3108H90.3202L88.4575 44.4414H88.2079L90.0766 42.3108ZM88.9995 42.7733C88.9995 42.5724 88.905 42.4658 88.7529 42.4658C88.5066 42.4658 88.3846 42.7429 88.3846 42.9741C88.3846 43.175 88.4789 43.2815 88.631 43.2815C88.8776 43.2815 88.9995 43.0045 88.9995 42.7733ZM89.3371 43.997C89.3371 43.6257 89.5563 43.3029 89.9185 43.3029C90.1771 43.3029 90.3445 43.4733 90.3445 43.7654C90.3445 44.1367 90.1286 44.4595 89.7634 44.4595C89.5015 44.4595 89.3371 44.289 89.3371 43.997ZM90.1467 43.7808C90.1467 43.5799 90.0522 43.4733 89.9001 43.4733C89.6565 43.4733 89.5316 43.7504 89.5316 43.9816C89.5316 44.1824 89.6289 44.289 89.7782 44.289C90.0251 44.289 90.1467 44.012 90.1467 43.7808Z" fill="#263238"/>
<g opacity="0.3">
<path d="M58.1473 41.3677L56.8408 45.399H58.1473L59.3756 41.3677H58.1473Z" fill="white"/>
</g>
<g opacity="0.3">
<path d="M61.3738 41.3677L60.0674 45.399H61.3738L62.6024 41.3677H61.3738Z" fill="white"/>
</g>
<g opacity="0.3">
<path d="M64.6014 41.3677L63.2949 45.399H64.6014L65.83 41.3677H64.6014Z" fill="white"/>
</g>
<g opacity="0.3">
<path d="M67.8289 41.3677L66.5225 45.399H67.8289L69.0572 41.3677H67.8289Z" fill="white"/>
</g>
<g opacity="0.3">
<path d="M71.0564 41.3677L69.75 45.399H71.0564L72.285 41.3677H71.0564Z" fill="white"/>
</g>
<path d="M22.1445 98.4164C22.1445 98.4164 29.0836 101.543 36.3109 101.543C43.0041 101.543 50.0862 98.1733 50.0862 98.1733L22.1445 98.4164Z" fill="#E0E0E0"/>
<path d="M37.0675 98.4746H34.2012V128.497H37.0675V98.4746Z" fill="#E0E0E0"/>
<path d="M48.3546 126.737H22.915V128.497H48.3546V126.737Z" fill="#E0E0E0"/>
<path d="M26.0277 129.073C26.0277 130.146 25.1585 131.015 24.0861 131.015C23.0137 131.015 22.1445 130.146 22.1445 129.073C22.1445 128.001 23.0137 127.132 24.0861 127.132C25.1585 127.132 26.0277 128.001 26.0277 129.073Z" fill="#263238"/>
<path d="M37.3314 129.073C37.3314 130.146 36.4622 131.015 35.3898 131.015C34.3174 131.015 33.4482 130.146 33.4482 129.073C33.4482 128.001 34.3174 127.132 35.3898 127.132C36.4622 127.132 37.3314 128.001 37.3314 129.073Z" fill="#263238"/>
<path d="M50.4261 129.073C50.4261 130.146 49.557 131.015 48.4845 131.015C47.4121 131.015 46.543 130.146 46.543 129.073C46.543 128.001 47.4121 127.132 48.4845 127.132C49.557 127.132 50.4261 128.001 50.4261 129.073Z" fill="#263238"/>
<path d="M36.3106 109.28H32.4121V110.894H36.3106V109.28Z" fill="#E0E0E0"/>
<path d="M33.122 108.151H31.7021V112.023H33.122V108.151Z" fill="#E0E0E0"/>
<path d="M33.0979 94.5966H18.2871V55.8996C18.2871 54.1432 19.7111 52.7192 21.4674 52.7192H33.0979V94.5966Z" fill="#777776"/>
<path d="M21.5664 93.9605C21.5269 93.9605 21.4951 84.8738 21.4951 73.6675C21.4951 62.4573 21.5272 53.3726 21.5664 53.3726C21.6058 53.3726 21.6376 62.4573 21.6376 73.6675C21.6376 84.8738 21.6058 93.9605 21.5664 93.9605Z" fill="#F2E635"/>
<path d="M54.9516 99.0646H20.4671C19.2631 99.0646 18.2871 98.0886 18.2871 96.8847V94.5107H54.9513V99.0646H54.9516Z" fill="#455A64"/>
<path d="M39.0412 36.1595L37.4534 51.3101C37.1835 53.8865 37.3131 57.7263 41.4061 57.9674C44.973 57.9088 46.2184 54.6523 46.468 52.2477C46.5864 51.107 46.6875 50.1563 46.7072 50.0398C46.7072 50.0398 50.6021 50.0812 51.2805 46.2931C51.6085 44.4625 51.9768 40.6369 52.2699 37.1722C52.5848 33.4513 49.9848 30.1134 46.3011 29.5005L45.9348 29.4397C41.947 29.013 39.3571 32.1616 39.0412 36.1595Z" fill="#FFFEE8"/>
<path d="M46.7072 50.0404C46.7072 50.0404 44.2911 49.7825 42.0078 47.7568C42.0078 47.7568 42.752 50.73 46.5968 51.0185L46.7072 50.0404Z" fill="#F2E635"/>
<path d="M45.5981 38.1349C45.5151 38.2053 45.1071 37.8094 44.4687 37.7335C43.8325 37.6477 43.3239 37.9269 43.2642 37.8384C43.2346 37.7987 43.3264 37.665 43.5486 37.5376C43.7675 37.4105 44.1273 37.3052 44.5246 37.3557C44.9216 37.4066 45.2378 37.5973 45.4115 37.7743C45.5891 37.9524 45.6384 38.104 45.5981 38.1349Z" fill="#263238"/>
<path d="M45.5342 39.6017C45.4986 39.8741 45.2388 40.0686 44.9536 40.0368C44.6692 40.005 44.4667 39.759 44.5021 39.4866C44.5374 39.2143 44.7974 39.0195 45.0821 39.0512C45.3673 39.0828 45.5696 39.3294 45.5342 39.6017Z" fill="#263238"/>
<path d="M46.7891 42.7328C46.7918 42.6991 47.1647 42.6969 47.7651 42.7197C47.9166 42.729 48.0624 42.723 48.1046 42.6254C48.1577 42.5238 48.1221 42.3528 48.0785 42.1673C47.9985 41.7834 47.9147 41.3812 47.8267 40.9598C47.4837 39.2432 47.262 37.8414 47.3311 37.8282C47.4004 37.8151 47.7347 39.1958 48.0777 40.9126C48.1588 41.3354 48.2364 41.7385 48.3098 42.124C48.338 42.3026 48.4029 42.5109 48.2898 42.7216C48.2311 42.8263 48.1084 42.8887 48.0087 42.8986C47.9081 42.912 47.8243 42.8994 47.7497 42.8917C47.153 42.8249 46.7858 42.7665 46.7891 42.7328Z" fill="#263238"/>
<path d="M45.5474 35.7046C45.4726 35.8408 44.9704 35.6868 44.3541 35.6616C43.7385 35.6235 43.2214 35.7252 43.1628 35.5821C43.1376 35.5139 43.245 35.392 43.465 35.2849C43.6834 35.1777 44.0169 35.0963 44.3862 35.115C44.7553 35.1342 45.0772 35.249 45.2816 35.378C45.488 35.5073 45.5806 35.6397 45.5474 35.7046Z" fill="#263238"/>
<path d="M51.5134 37.4503C51.4356 37.5599 50.9481 37.3853 50.345 37.3108C49.7428 37.2253 49.2326 37.2675 49.1797 37.1407C49.157 37.0804 49.2663 36.9858 49.4858 36.9135C49.7033 36.8409 50.0327 36.8006 50.3944 36.8483C50.7555 36.8965 51.0673 37.022 51.2638 37.1494C51.4616 37.2774 51.5479 37.3977 51.5134 37.4503Z" fill="#263238"/>
<path d="M38.8834 39.0221C38.8234 38.9835 36.4034 37.8168 36.0546 40.4255C35.7058 43.0346 38.3971 42.8466 38.4116 42.7723C38.4261 42.6984 38.8834 39.0221 38.8834 39.0221Z" fill="#FFFEE8"/>
<path d="M37.7466 41.6773C37.7362 41.6674 37.6967 41.703 37.6153 41.728C37.5359 41.7521 37.4038 41.7586 37.2748 41.6896C37.0128 41.5515 36.8391 41.083 36.8892 40.6111C36.9145 40.3728 36.9945 40.1533 37.1035 39.9774C37.2087 39.7971 37.3501 39.6804 37.492 39.6743C37.6343 39.6609 37.7214 39.7571 37.7436 39.8346C37.7688 39.9122 37.7452 39.962 37.7586 39.9683C37.765 39.9757 37.8206 39.9322 37.8137 39.8215C37.8099 39.7683 37.7877 39.7025 37.7329 39.6442C37.677 39.585 37.5885 39.5466 37.4904 39.5442C37.2874 39.5313 37.0816 39.6921 36.9616 39.8853C36.8303 40.0779 36.735 40.3237 36.7068 40.5914C36.6531 41.1194 36.8566 41.6474 37.2191 41.8069C37.3964 41.8792 37.5567 41.8444 37.6441 41.7934C37.7334 41.7397 37.7548 41.6833 37.7466 41.6773Z" fill="#F2E635"/>
<path d="M46.0042 44.4892C46.0389 44.4257 45.54 44.2248 45.2238 43.71C45.0654 43.4565 44.9851 43.1885 44.9246 42.9926C44.8657 42.7956 44.8188 42.6707 44.7898 42.677C44.7624 42.6827 44.7572 42.8121 44.7799 43.0228C44.8049 43.2313 44.867 43.5321 45.0462 43.8198C45.2222 44.1103 45.477 44.2974 45.668 44.3939C45.8603 44.4933 45.9951 44.5109 46.0042 44.4892Z" fill="#263238"/>
<path d="M35.7923 34.4609C36.4233 33.5876 36.6521 32.4971 37.0453 31.4943C37.4385 30.4912 38.1112 29.4765 39.1551 29.2094L39.177 29.2215C40.1182 28.9403 41.2372 29.0381 41.9241 29.7368C42.2343 28.3929 43.5268 27.4251 44.8877 27.1991C46.2484 26.973 48.3601 27.3777 49.5871 28.0082C50.5354 28.4956 51.413 29.3957 52.4603 30.6958C52.9014 31.2436 53.3009 31.8261 53.6472 32.4385L54.4733 36.1126L53.311 37.8919C53.2401 38.0138 53.1672 38.1352 53.0814 38.2544V38.2456L51.8254 42.1058C51.8681 41.0254 52.2915 37.2929 52.3342 36.2126C50.6817 35.9882 49.2427 35.1799 48.2434 33.8447C47.7162 33.1402 47.3299 32.2826 46.5802 31.8214C45.6138 31.2271 44.3732 31.4803 43.2719 31.7524L43.321 31.7159C42.742 31.9214 42.2031 32.2393 41.7433 32.647C41.7882 34.7856 41.3676 36.9329 40.5161 38.8956C40.3878 39.1912 40.0566 39.794 39.7467 39.8822C39.1376 40.0554 39.0345 39.4419 38.7098 39.0909C38.4709 38.8328 38.087 38.7668 37.6645 38.729C37.4766 38.053 37.3223 36.9288 37.1965 35.9451C36.8316 36.0202 36.4502 36.0145 36.0904 35.9172C36.228 35.6577 36.3655 35.3982 36.5033 35.1388C36.3482 35.2179 36.1871 35.2988 36.0131 35.3081C35.8391 35.3174 35.6476 35.2352 35.5849 35.0727C35.5035 34.8626 35.6605 34.6436 35.7923 34.4609Z" fill="#263238"/>
<path d="M43.0855 30.2866C43.0921 30.297 42.9162 30.3729 42.6701 30.6017C42.4263 30.8297 42.1383 31.2388 41.9668 31.8158C41.8796 32.1024 41.812 32.426 41.7796 32.7776C41.7456 33.1291 41.7391 33.5083 41.7295 33.9078C41.7185 34.3073 41.7084 34.7293 41.6426 35.163C41.6097 35.3795 41.5632 35.5987 41.4955 35.8159C41.4273 36.0291 41.3483 36.2601 41.1667 36.4319C41.0217 36.5722 40.7968 36.6199 40.611 36.5634C40.4233 36.5119 40.2628 36.3946 40.1512 36.2448C39.9318 35.9351 39.9041 35.5658 39.8729 35.2394L39.952 35.2564C39.7945 35.5326 39.6339 35.8047 39.4136 36.0138C39.1966 36.2245 38.9114 36.3505 38.6333 36.35C38.4949 36.3497 38.3585 36.3149 38.2458 36.2448C38.131 36.1752 38.0527 36.0672 38.0025 35.9565C37.9554 35.8439 37.9362 35.7233 37.9527 35.6104C37.9697 35.4976 38.0239 35.3943 38.1028 35.3247L38.1401 35.3647C37.8146 35.6729 37.4869 35.8244 37.2627 35.9044C37.1496 35.9444 37.06 35.9664 36.9994 35.9798C36.9386 35.9918 36.9068 35.9965 36.9063 35.994C36.9057 35.9913 36.9364 35.982 36.9959 35.9653C37.0548 35.9472 37.1424 35.9209 37.2526 35.877C37.4712 35.7896 37.7891 35.6324 38.1023 35.3255L38.1395 35.3655C37.9984 35.4899 37.9691 35.7283 38.062 35.9307C38.1088 36.0305 38.1809 36.1269 38.2823 36.1864C38.3828 36.2478 38.5072 36.2785 38.6338 36.2774C38.8895 36.2754 39.1555 36.1571 39.3591 35.9565C39.5671 35.7568 39.7227 35.4915 39.8789 35.2148L39.9452 35.0975L39.9583 35.232C39.9899 35.5578 40.023 35.9132 40.2233 36.1924C40.3233 36.3267 40.4704 36.433 40.6349 36.4774C40.7993 36.5251 40.9809 36.4861 41.1072 36.3661C41.2656 36.2174 41.3451 35.9992 41.4114 35.7894C41.4777 35.5778 41.5237 35.363 41.5569 35.1501C41.6226 34.7235 41.6349 34.3046 41.6481 33.9059C41.6602 33.5069 41.6692 33.1261 41.707 32.7702C41.7429 32.4142 41.8152 32.0871 41.9076 31.7969C42.0895 31.213 42.392 30.7998 42.6477 30.5762C42.9044 30.351 43.0855 30.2866 43.0855 30.2866Z" fill="#455A64"/>
<path d="M54.5593 35.0929C54.5601 35.0943 54.5489 35.102 54.5261 35.1162C54.4985 35.1326 54.465 35.1526 54.4242 35.177C54.3796 35.2044 54.3231 35.2359 54.253 35.2658C54.1834 35.2976 54.1042 35.3365 54.0094 35.3666C53.6392 35.5025 53.0548 35.6174 52.3473 35.5099C51.6464 35.4053 50.8239 35.0778 50.1205 34.446C49.4081 33.8268 48.813 32.9568 48.3507 31.9808C48.1156 31.4926 47.9329 30.9977 47.7238 30.5366C47.5164 30.0757 47.2799 29.6452 46.9777 29.2951C46.6796 28.9435 46.3209 28.6706 45.9387 28.5254C45.7486 28.4492 45.5529 28.418 45.3644 28.4051C45.1751 28.3977 44.9931 28.4194 44.8235 28.4583C44.484 28.5383 44.2018 28.6958 43.9829 28.8643C43.7632 29.0345 43.6092 29.2214 43.5004 29.3839C43.2943 29.719 43.2639 29.9434 43.2505 29.9384C43.2489 29.9382 43.2513 29.9247 43.2573 29.8987C43.2653 29.8675 43.2746 29.8296 43.2861 29.7833C43.3141 29.6828 43.3719 29.5387 43.4708 29.3655C43.5768 29.1973 43.7303 29.003 43.9519 28.8252C44.1728 28.649 44.4599 28.4835 44.8087 28.3969C44.983 28.355 45.1707 28.3303 45.3671 28.3364C45.5622 28.3476 45.768 28.3791 45.965 28.4564C46.3623 28.6038 46.7336 28.8833 47.0405 29.2416C47.3517 29.5989 47.5939 30.0368 47.8038 30.5007C48.0159 30.9651 48.1987 31.4589 48.4318 31.9425C48.8905 32.9113 49.4769 33.7714 50.1753 34.3844C50.865 35.0099 51.6678 35.336 52.3574 35.4477C53.0523 35.5615 53.6288 35.4582 53.9981 35.334C54.3705 35.2072 54.5533 35.0814 54.5593 35.0929Z" fill="#455A64"/>
<path d="M51.4074 38.9141C51.3244 38.9843 50.9164 38.5886 50.278 38.5124C49.6418 38.4267 49.1332 38.7059 49.0738 38.6174C49.0442 38.5777 49.136 38.4437 49.3582 38.3165C49.5771 38.1897 49.9371 38.0842 50.3342 38.1343C50.7312 38.1853 51.0474 38.376 51.2211 38.553C51.3986 38.7316 51.448 38.8832 51.4074 38.9141Z" fill="#263238"/>
<path d="M50.8653 40.0978C50.8296 40.3702 50.5699 40.5647 50.2847 40.5329C50.0002 40.5011 49.7978 40.2551 49.8331 39.9827C49.8685 39.7104 50.1285 39.5156 50.4132 39.5473C50.6984 39.5789 50.9009 39.8255 50.8653 40.0978Z" fill="#263238"/>
<path d="M53.368 31.9692C53.6477 32.432 54.1061 32.8751 54.6467 32.874C54.8065 32.8737 55.2333 32.7666 55.2333 32.7666C55.4082 32.8992 55.2972 33.5343 55.15 33.6971C55.0029 33.8598 54.7056 34.0697 54.7056 34.0697C55.2975 34.4725 55.886 34.3665 56.5803 34.1922C56.343 35.3181 55.458 36.2831 54.3571 36.6171C54.005 36.724 53.588 36.7579 53.3016 36.527C53.0498 36.3236 52.9739 35.977 52.9249 35.6573C52.7449 34.4818 52.7109 33.2844 52.8243 32.1008L53.368 31.9692Z" fill="#263238"/>
<path d="M46.3043 53.5938C46.3043 53.5938 48.7149 54.5741 50.0893 57.9114C51.0546 60.2561 56.4181 67.6595 56.4181 67.6595L70.6831 70.827L71.1706 75.3768L48.3546 75.1888L45.1836 65.0922L46.3043 53.5938Z" fill="#EBE30D"/>
<path d="M36.6985 49.3874L34.1656 50.4508C31.8235 51.4342 28.8251 53.6944 27.8212 56.0278C25.4064 61.6407 23.2218 68.8749 22.3823 75.2692C21.5359 81.7159 23.2215 91.256 23.2215 91.256L44.6302 79.0224L43.3792 78.1467L47.4363 56.0741L46.6798 53.4023L47.185 51.1429C47.185 51.1429 41.505 48.8613 37.3668 47.228L36.6985 49.3874Z" fill="#EBE30D"/>
<g opacity="0.3">
<path d="M34.6532 84.8773C34.7326 83.775 34.8118 82.6727 34.8913 81.5707C34.643 81.808 34.3074 81.9518 33.9643 81.968C34.4989 81.4567 34.9746 80.8843 35.3793 80.2651C35.0543 80.4046 34.7293 80.5443 34.4046 80.6838C34.751 80.4232 35.037 80.0829 35.2346 79.6971C34.7118 79.2875 33.9742 79.3554 33.3133 79.4223C29.9278 79.7648 26.5132 79.5379 23.1178 79.3105C22.852 79.2927 22.3593 79.1814 22.1448 79.0233C22.1448 79.0233 22.0755 78.0914 22.2264 77.7451C22.3774 77.3988 22.6117 77.4974 22.9679 77.3706C23.3241 77.244 23.7069 77.2182 24.0844 77.1985C28.2194 76.9807 32.3614 77.3215 36.4881 77.6618C36.743 77.6829 37.0148 77.7106 37.2131 77.872C37.5502 78.1465 37.5219 78.6603 37.4636 79.091C37.2537 80.635 37.0438 82.179 36.8339 83.723" fill="black"/>
</g>
<path d="M47.1853 55.187C47.1902 55.1878 47.1828 55.2591 47.1648 55.3942C47.1428 55.5424 47.1141 55.7386 47.0782 55.9835C46.9998 56.4948 46.8776 57.2333 46.7154 58.1438C46.394 59.9653 45.9079 62.4738 45.3311 65.2357C44.7538 67.9987 44.2023 70.4932 43.7935 72.2964C43.588 73.1861 43.4205 73.9111 43.3008 74.43C43.2419 74.6706 43.195 74.863 43.1594 75.0085C43.1254 75.1403 43.1054 75.209 43.1008 75.2082C43.0959 75.2071 43.1065 75.1364 43.1315 75.0024C43.1605 74.8556 43.1989 74.661 43.2466 74.4183C43.3556 73.8971 43.5079 73.1685 43.6948 72.275C44.0806 70.4529 44.6083 67.9609 45.1914 65.2067C45.7679 62.4456 46.2696 59.9415 46.6162 58.1257C46.7861 57.2289 46.9245 56.4976 47.0234 55.9745C47.0705 55.7315 47.108 55.5369 47.1365 55.3898C47.1637 55.2561 47.1804 55.1862 47.1853 55.187Z" fill="#263238"/>
<path d="M27.8215 86.5244C27.8182 86.5208 27.862 86.4761 27.9489 86.3942C28.0475 86.3035 28.1749 86.1865 28.3327 86.0413C28.4993 85.8879 28.7062 85.7035 28.9547 85.4993C29.2021 85.2938 29.4786 85.053 29.8011 84.808C30.4343 84.3028 31.215 83.7348 32.1057 83.1396C33.0017 82.5525 34.0103 81.942 35.1027 81.3619C36.1985 80.7876 37.272 80.2994 38.2628 79.8914C39.2571 79.4921 40.1665 79.1683 40.9411 78.931C41.3256 78.8033 41.6804 78.711 41.9897 78.6227C42.2985 78.5329 42.5676 78.4663 42.7882 78.4153C42.997 78.3668 43.1655 78.3279 43.2959 78.2978C43.4123 78.2726 43.474 78.2613 43.4751 78.2663C43.4762 78.2712 43.4167 78.2915 43.3027 78.3257C43.1742 78.3625 43.0079 78.4101 42.8021 78.469C42.584 78.5282 42.3177 78.6025 42.0116 78.6995C41.7053 78.7948 41.3532 78.8935 40.9721 79.0272C40.2038 79.276 39.3007 79.6089 38.3129 80.0133C37.3284 80.4265 36.2612 80.9164 35.1696 81.4885C34.0815 82.0664 33.0749 82.6708 32.1783 83.2498C31.287 83.837 30.5026 84.3943 29.8633 84.888C29.5378 85.1275 29.2575 85.362 29.006 85.5612C28.7531 85.7591 28.5415 85.9369 28.3695 86.0838C28.2045 86.2205 28.0714 86.3306 27.9683 86.4161C27.8752 86.4904 27.8247 86.5279 27.8215 86.5244Z" fill="#263238"/>
<path d="M38.8114 78.4446C38.8303 78.4792 36.7479 79.6494 34.1613 81.0581C31.5737 82.4672 29.4614 83.581 29.4425 83.5465C29.4236 83.512 31.5055 82.342 34.0931 80.9328C36.6799 79.5242 38.7928 78.4098 38.8114 78.4446Z" fill="#263238"/>
<g opacity="0.3">
<path d="M31.2881 61.5317C32.6173 67.2751 36.679 72.4221 42.0889 74.7646C38.4915 70.9623 34.5818 66.1637 31.2881 61.5317Z" fill="black"/>
</g>
<g opacity="0.3">
<path d="M46.8445 57.1597C47.3687 59.5914 46.9793 62.6284 45.7592 64.7963L45.4551 64.1656C45.8855 62.3394 46.5029 59.096 46.8445 57.1597Z" fill="black"/>
</g>
<path d="M58.2255 115.219L55.6595 122.942C55.6595 122.942 62.6478 128.144 62.3127 129.617L47.1592 125.18L50.6636 112.982L58.2255 115.219Z" fill="#455A64"/>
<g opacity="0.3">
<path d="M58.2255 115.219L55.6595 122.942C55.6595 122.942 62.6478 128.144 62.3127 129.617L47.1592 125.18L50.6636 112.982L58.2255 115.219Z" fill="black"/>
</g>
<path d="M51.1658 120.913C50.849 120.907 50.5498 121.178 50.5312 121.494C50.5125 121.81 50.7846 122.117 51.1014 122.128C51.4178 122.139 51.7872 121.826 51.7702 121.509C51.7535 121.193 51.414 120.85 51.1038 120.915" fill="#E0E0E0"/>
<g opacity="0.6">
<path d="M47.1592 125.18L47.5606 123.964L61.9393 128.673C61.9393 128.673 62.5278 129.164 62.3125 129.617L47.1592 125.18Z" fill="white"/>
</g>
<path d="M55.9277 122.937C55.9036 123.01 55.5238 122.935 55.0901 123.067C54.6528 123.187 54.3714 123.452 54.3119 123.403C54.2478 123.369 54.4878 122.958 55.0158 122.808C55.5422 122.654 55.9639 122.873 55.9277 122.937Z" fill="#263238"/>
<path d="M57.3248 124.059C57.3207 124.136 56.9634 124.168 56.6204 124.407C56.2705 124.637 56.1077 124.957 56.0351 124.932C55.9622 124.923 56.0378 124.475 56.4699 124.185C56.8993 123.892 57.3437 123.988 57.3248 124.059Z" fill="#263238"/>
<path d="M57.6697 126.226C57.5979 126.222 57.6031 125.822 57.9119 125.473C58.2182 125.121 58.6139 125.063 58.627 125.134C58.6511 125.207 58.3626 125.359 58.1136 125.65C57.8579 125.934 57.7453 126.24 57.6697 126.226Z" fill="#263238"/>
<path d="M56.3171 121.111C56.2664 121.17 55.9567 120.968 55.5301 120.874C55.1054 120.771 54.7388 120.817 54.7191 120.742C54.692 120.676 55.0898 120.495 55.5907 120.613C56.0924 120.727 56.3705 121.064 56.3171 121.111Z" fill="#263238"/>
<path d="M62.6452 118.666L62.3257 126.798C62.3257 126.798 70.4841 129.854 70.5715 131.363L54.7817 131.309L54.7598 118.618L62.6452 118.666Z" fill="#455A64"/>
<path d="M57.446 126.098C57.1402 126.18 56.9279 126.523 56.9977 126.832C57.0676 127.141 57.4145 127.36 57.7216 127.283C58.0288 127.206 58.2965 126.802 58.1924 126.503C58.0883 126.203 57.6671 125.969 57.3874 126.117" fill="#E0E0E0"/>
<g opacity="0.6">
<path d="M54.7812 131.309L54.8289 130.03L69.9502 130.559C69.9502 130.559 70.6522 130.868 70.571 131.363L54.7812 131.309Z" fill="white"/>
</g>
<path d="M62.5817 126.719C62.579 126.796 62.1932 126.829 61.8131 127.076C61.4265 127.313 61.2298 127.646 61.1588 127.615C61.0879 127.6 61.2043 127.14 61.6698 126.849C62.1326 126.554 62.5984 126.648 62.5817 126.719Z" fill="#263238"/>
<path d="M64.2358 127.409C64.2534 127.484 63.9188 127.614 63.6558 127.939C63.3832 128.257 63.316 128.609 63.2393 128.606C63.1667 128.617 63.1149 128.166 63.4497 127.768C63.7807 127.367 64.2345 127.336 64.2358 127.409Z" fill="#263238"/>
<path d="M65.1698 129.395C65.0997 129.411 64.9936 129.025 65.1931 128.604C65.3896 128.18 65.7537 128.015 65.7861 128.079C65.8293 128.143 65.5945 128.369 65.4362 128.717C65.2696 129.062 65.2466 129.387 65.1698 129.395Z" fill="#263238"/>
<path d="M62.4493 124.857C62.4167 124.928 62.0632 124.82 61.6276 124.848C61.1911 124.867 60.8513 125.012 60.8116 124.946C60.7672 124.89 61.0993 124.606 61.613 124.58C62.1265 124.55 62.4874 124.797 62.4493 124.857Z" fill="#263238"/>
<path d="M43.7326 78.8447C43.7326 78.8447 62.658 83.7644 65.007 87.0398C66.9927 89.8088 56.573 118.105 56.573 118.105L48.3525 117.396L51.8959 93.7268L30.6924 86.9866L33.896 78.8447H43.7326Z" fill="#7C781C"/>
<path d="M45.088 83.2758C45.088 83.2758 64.4343 87.9771 66.3904 91.3172C67.3033 92.8762 66.7047 97.9937 66.3638 100.41C66.1342 102.037 62.7133 124.811 62.7133 124.811H54.3503L54.533 99.0884L34.4316 95.0359C34.4316 95.0359 23.6412 95.8576 23.2217 91.2558L27.7246 85.1524L38.3552 79.8979L45.088 83.2758Z" fill="#7C781C"/>
<path d="M43.6148 82.6851C43.6148 82.6851 43.7107 82.7075 43.8959 82.7582C44.0839 82.8106 44.3582 82.887 44.7165 82.987C45.441 83.1895 46.5036 83.4868 47.8714 83.8693C49.2411 84.2532 50.9177 84.7209 52.8549 85.2974C54.7896 85.8804 56.9885 86.5676 59.369 87.4696C60.5609 87.9152 61.7944 88.4248 63.0622 88.9914C63.379 89.135 63.6987 89.28 64.0218 89.4263C64.3426 89.5811 64.6574 89.7556 64.9643 89.9499C65.2715 90.1433 65.5688 90.3614 65.8433 90.6122C66.1159 90.8634 66.3724 91.1478 66.5475 91.4917C67.2004 94.4564 66.8048 97.6967 66.3214 101.009C66.1096 102.678 65.8384 104.38 65.5822 106.121C65.3219 107.862 65.0561 109.64 64.7857 111.45C64.244 115.069 63.6831 118.816 63.1085 122.654C62.9997 123.38 62.8912 124.103 62.7836 124.822L62.7745 124.883H62.7131C59.8627 124.883 57.0687 124.882 54.3501 124.882H54.2794L54.28 124.811C54.3553 115.061 54.4233 106.233 54.4786 99.0883L54.5222 99.142C48.5128 97.9203 43.6282 96.9273 40.2419 96.2387C38.5532 95.8919 37.2388 95.622 36.3428 95.4378C35.899 95.345 35.5597 95.2737 35.3277 95.2252C35.0989 95.1764 34.9824 95.1474 34.9824 95.1474C34.9824 95.1474 35.1011 95.1658 35.3307 95.2093C35.5633 95.2545 35.9039 95.3203 36.3489 95.4066C37.2459 95.5842 38.5622 95.8445 40.2536 96.179C43.6422 96.8563 48.5301 97.8334 54.5433 99.0355L54.5871 99.0442L54.5868 99.0892C54.5405 106.234 54.4833 115.062 54.4197 124.812L54.3496 124.742C57.0682 124.741 59.8622 124.741 62.7126 124.74L62.6422 124.801C62.7499 124.083 62.8581 123.36 62.9669 122.633C63.5423 118.796 64.104 115.049 64.6468 111.43C64.9186 109.621 65.1852 107.843 65.4466 106.102C65.7041 104.361 65.977 102.659 66.1905 100.992C66.3031 100.159 66.4141 99.3366 66.5239 98.5247C66.6456 97.714 66.7045 96.9122 66.7352 96.1171C66.7637 95.3228 66.7626 94.5386 66.7327 93.7681C66.7171 93.3828 66.6946 93.0012 66.6618 92.6236C66.6215 92.2455 66.6165 91.8643 66.4409 91.5448C66.2765 91.2202 66.0296 90.9437 65.7641 90.6985C65.4967 90.4532 65.2046 90.2381 64.9021 90.0466C64.5999 89.8545 64.2886 89.6814 63.9724 89.5277C63.6508 89.3811 63.3324 89.2361 63.0173 89.0923C61.7517 88.5232 60.5222 88.0119 59.3328 87.5639C56.958 86.6572 54.763 85.9637 52.8316 85.3738C50.8974 84.7902 49.2233 84.3148 47.856 83.9227C46.4912 83.529 45.4311 83.2232 44.7083 83.0144C44.3513 82.9086 44.0787 82.8275 43.8915 82.7722C43.708 82.7171 43.6148 82.6851 43.6148 82.6851Z" fill="#455A64"/>
<path d="M70.4081 71.05C70.5312 70.8656 72.1294 69.021 72.5598 69.021C72.9903 69.021 73.4821 69.5128 73.4821 69.5128C73.4821 69.5128 74.0353 69.2668 74.4044 69.3898C74.7732 69.5128 76.4948 70.9883 76.4948 71.5415C76.4948 72.0947 76.4948 72.4638 76.4948 72.4638C76.4948 72.4638 76.5561 72.7712 76.4948 73.2017C76.4334 73.6321 75.3881 74.3697 75.3881 74.3697H69.4889C69.4889 74.3697 68.3613 73.6097 68.5025 72.8943C68.6433 72.1788 70.4081 71.05 70.4081 71.05Z" fill="#FFFEE8"/>
<path d="M73.4819 69.5133C73.4874 69.5051 73.6181 69.5799 73.8504 69.7226C74.1025 69.8816 74.4308 70.0884 74.8259 70.3378C74.927 70.4071 75.0379 70.4622 75.1481 70.5583C75.2539 70.6531 75.3391 70.7803 75.3865 70.9266C75.438 71.0773 75.4281 71.2329 75.4399 71.3809C75.4479 71.5335 75.4561 71.6902 75.4643 71.8505C75.4955 72.4961 75.5298 73.2016 75.5654 73.942C75.5706 74.0546 75.5755 74.1667 75.5807 74.2773L75.5835 74.3357L75.5268 74.3497C75.4048 74.3798 75.2843 74.4097 75.1656 74.439L75.1566 74.4412L75.1473 74.4409C74.9755 74.4382 74.8103 74.3689 74.6848 74.2672C74.5576 74.1656 74.4634 74.0387 74.3869 73.9096C74.2357 73.6491 74.1458 73.3764 74.0776 73.1159C73.945 72.5922 73.8937 72.1108 73.8743 71.6979L73.9066 71.742C73.4882 71.5768 73.1419 71.4401 72.8753 71.3351C72.6336 71.2365 72.5026 71.1779 72.5059 71.1688C72.5092 71.1598 72.6468 71.2011 72.8942 71.2842C73.1646 71.3784 73.5162 71.5012 73.9411 71.6491L73.9707 71.6595L73.9732 71.6935C74.0033 72.0966 74.0639 72.5747 74.2003 73.0827C74.2699 73.3356 74.3609 73.5984 74.5036 73.8395C74.6423 74.077 74.8648 74.2968 75.1495 74.2993L75.1314 74.3015C75.25 74.2719 75.3706 74.2417 75.4925 74.2113L75.4385 74.2836C75.4333 74.1729 75.4284 74.0612 75.4232 73.9483C75.3914 73.2076 75.361 72.5021 75.3331 71.8566C75.3267 71.696 75.3204 71.5393 75.3144 71.3866C75.3051 71.2321 75.3152 71.0852 75.2733 70.9622C75.2347 70.8354 75.1632 70.7236 75.073 70.6392C74.9848 70.5575 74.8678 70.4923 74.77 70.4222C74.385 70.1578 74.0652 69.938 73.8195 69.7692C73.5973 69.6122 73.4767 69.5215 73.4819 69.5133Z" fill="#F2E635"/>
<path d="M69.4883 74.1598C69.4877 74.1491 69.6286 74.1305 69.8831 74.1067C70.1686 74.0836 70.5295 74.0549 70.9583 74.0203L70.9654 74.0198L70.975 74.022C71.3244 74.1031 71.7365 74.1834 72.1896 74.2417C72.4162 74.27 72.6538 74.2924 72.8982 74.2979C73.1355 74.3037 73.4043 74.29 73.5468 74.1132C73.6251 74.019 73.6484 73.8855 73.6492 73.7524C73.652 73.6176 73.6295 73.4844 73.626 73.337C73.6216 73.2337 73.5498 73.1216 73.4648 73.035C73.3799 72.9457 73.2774 72.875 73.1728 72.8158C72.744 72.5747 72.2872 72.5692 71.908 72.5923C71.5167 72.6021 71.1953 72.4459 71.0715 72.2572C70.9427 72.0733 70.9545 71.939 70.9613 71.9415C70.9734 71.9374 70.983 72.064 71.115 72.2226C71.2424 72.3846 71.5342 72.5114 71.9063 72.4912C72.2743 72.4558 72.773 72.4465 73.2366 72.7008C73.3511 72.7635 73.4643 72.8391 73.5627 72.94C73.658 73.0397 73.7547 73.1624 73.766 73.3364C73.7695 73.4625 73.7936 73.6055 73.7915 73.7537C73.7906 73.8998 73.7673 74.0677 73.6588 74.2017C73.5635 74.3231 73.4205 74.3842 73.2878 74.413C73.1533 74.4429 73.0193 74.4404 72.8949 74.4379C72.6434 74.4308 72.402 74.4056 72.1721 74.3738C71.7126 74.3089 71.3005 74.2195 70.9479 74.1267L70.9646 74.1283C70.5347 74.1436 70.173 74.1568 69.8867 74.1669C69.631 74.1727 69.4888 74.1705 69.4883 74.1598Z" fill="#F2E635"/>
<path d="M75.5028 74.1331C75.4713 74.1123 75.7143 73.6522 75.9776 73.0631C76.2428 72.4746 76.4834 72.0044 76.5218 72.0225C76.5549 72.0384 76.3744 72.5299 76.1072 73.1226C75.8417 73.7169 75.537 74.1561 75.5028 74.1331Z" fill="#F2E635"/>
<path d="M62.7022 75.3799L83.9879 75.6621L90.8418 56.4441C90.9936 56.0443 90.8064 55.5955 90.4157 55.4218C89.9907 55.233 89.4948 55.4418 89.3331 55.8777L82.5804 74.0754L62.6984 74.2727C62.3948 74.2757 62.1504 74.5226 62.1504 74.8262C62.1504 75.1317 62.3973 75.3791 62.7022 75.3799Z" fill="#263238"/>
<path d="M30.9787 61.113C30.9787 61.113 41.3781 75.2689 43.0046 75.2689C44.631 75.2689 58.1979 75.2689 58.1979 75.2689V69.513L46.7074 66.8028C46.7074 66.8028 41.049 55.0945 39.798 53.5933C38.5469 52.0921 35.1989 50.0751 32.6967 52.3271C30.1945 54.5792 30.9787 61.113 30.9787 61.113Z" fill="#EBE30D"/>
<path d="M58.1865 70.0697L60.6753 69.87C60.6753 69.87 60.7295 68.9463 61.2731 68.6202C61.8165 68.2942 61.7622 67.5878 62.0883 67.6421C62.4143 67.6963 62.6316 67.639 62.6316 67.639L64.6965 65.9033L66.4353 64.762L67.7938 64.4902C67.7938 64.4902 68.6089 64.7075 67.7938 65.4684L66.9244 65.9575L66.1635 66.7184L67.902 65.8649C68.0637 65.7854 68.2525 65.7838 68.4152 65.8608C68.8144 66.0496 69.5542 66.4143 69.7499 66.6096C70.0217 66.8814 69.7499 67.153 69.7499 67.153L70.5108 67.8051C70.5108 67.8051 70.6738 68.6745 69.8044 68.4572L69.098 68.2942L68.1741 69.2181C68.1741 69.2181 71.3259 68.566 71.5432 68.6748C71.7605 68.7835 72.0323 69.2726 71.5432 69.7072C71.0541 70.142 69.1523 70.0333 68.7174 70.4678C68.2826 70.9027 65.4086 73.527 64.7022 73.6901C63.9959 73.8531 58.1975 75.2691 58.1975 75.2691L58.1865 70.0697Z" fill="#FFFEE8"/>
<path d="M70.5103 67.8056C70.4975 67.8168 70.3448 67.6921 70.0826 67.5025C69.9525 67.4074 69.7971 67.2946 69.6215 67.1748C69.5341 67.1145 69.4406 67.054 69.3434 66.9948C69.2467 66.9403 69.1384 66.8682 69.0521 66.8753C68.8398 66.8885 68.6326 67.0356 68.4449 67.1274C68.2578 67.2288 68.092 67.3247 67.9528 67.4064C67.6753 67.5702 67.5048 67.676 67.4928 67.6593C67.4815 67.6442 67.6317 67.5091 67.8983 67.3214C68.0317 67.228 68.1942 67.1217 68.3803 67.0126C68.4737 66.9581 68.5712 66.903 68.6765 66.8477C68.7822 66.794 68.9042 66.7381 69.0472 66.7323C69.0809 66.7293 69.119 66.7342 69.1606 66.7457C69.1962 66.7572 69.2253 66.7707 69.2557 66.7844C69.3127 66.8131 69.3658 66.8438 69.4163 66.8751C69.5168 66.9386 69.6105 67.003 69.6974 67.0671C69.8716 67.1948 70.0221 67.317 70.1454 67.4233C70.3931 67.6343 70.5273 67.7905 70.5103 67.8056Z" fill="#F2E635"/>
<path d="M62.8781 67.4321C62.9024 67.4655 62.643 67.6886 62.3427 67.9793C62.0435 68.2719 61.7938 68.5114 61.7631 68.4826C61.7363 68.4577 61.9366 68.1768 62.2435 67.8765C62.5534 67.5773 62.8567 67.4017 62.8781 67.4321Z" fill="#F2E635"/>
<path d="M39.7975 53.5938C39.7975 53.5938 40.0405 53.8746 40.3992 54.4703C40.7589 55.0643 41.2648 55.9504 41.8744 57.1001C43.0989 59.3971 44.7848 62.7243 46.7604 66.7778L46.7206 66.7458C50.1092 67.5417 54.0142 68.4591 58.2136 69.4457L58.2675 69.4584V69.5137C58.2681 71.3654 58.2684 73.2963 58.2689 75.2696V75.3409H58.1977C57.9798 75.3409 57.7442 75.3409 57.508 75.3409C52.9276 75.3389 48.5641 75.337 44.5949 75.3354C44.0987 75.3348 43.6088 75.3343 43.1255 75.334C43.0638 75.3326 43.0093 75.3378 42.9345 75.3255C42.8668 75.3129 42.8046 75.291 42.7482 75.263C42.632 75.2104 42.5312 75.1414 42.4306 75.0726C42.2331 74.9312 42.0522 74.7753 41.8771 74.6164C41.1812 73.9763 40.5688 73.2965 39.9827 72.6359C38.8168 71.3087 37.7825 70.0296 36.8462 68.8564C34.9789 66.5055 33.5185 64.5642 32.5143 63.2194C32.0186 62.547 31.6328 62.0234 31.3676 61.6636C31.2407 61.4871 31.1432 61.3515 31.0741 61.2553C31.0089 61.1627 30.9785 61.1131 30.9785 61.1131C30.9785 61.1131 31.0169 61.157 31.0859 61.2466C31.1577 61.3406 31.2588 61.4734 31.3906 61.6463C31.6608 62.0025 32.054 62.5207 32.5587 63.1859C33.5763 64.5203 35.0488 66.452 36.9249 68.7934C37.8655 69.9617 38.904 71.2363 40.0712 72.5576C40.6576 73.2146 41.2711 73.8919 41.9613 74.5232C42.1344 74.6797 42.3133 74.8329 42.5041 74.9688C42.6002 75.0343 42.698 75.1003 42.8013 75.1466C42.9082 75.1995 42.9956 75.211 43.1252 75.2052C43.6085 75.2047 44.0985 75.2044 44.5947 75.2039C48.5638 75.2022 52.9273 75.2003 57.5077 75.1984C57.7439 75.1984 57.9796 75.1984 58.1974 75.1984L58.1262 75.2696C58.1267 73.2963 58.127 71.3654 58.1275 69.5137L58.1815 69.5817C53.9841 68.5879 50.0804 67.6634 46.6935 66.8614L46.6658 66.8548L46.6535 66.8293C44.69 62.7717 43.02 59.4371 41.8141 57.1319C41.2138 55.9778 40.7178 55.0876 40.3685 54.4886C40.1882 54.1927 40.0559 53.962 39.9482 53.8195C39.8465 53.6724 39.7975 53.5938 39.7975 53.5938Z" fill="#263238"/>
<path d="M38.2865 52.6679C38.2769 52.6926 37.9308 52.552 37.3483 52.42C37.0576 52.352 36.7057 52.2978 36.3134 52.2633C35.9205 52.2359 35.4867 52.232 35.0338 52.2723C34.5814 52.3175 34.1556 52.4022 33.7748 52.5027C33.3958 52.6099 33.0602 52.7291 32.7875 52.8502C32.2401 53.0888 31.9264 53.2916 31.9124 53.2694C31.9069 53.2612 31.9814 53.2053 32.1217 53.1105C32.2604 53.0135 32.4735 52.8913 32.7456 52.7586C33.0172 52.6238 33.3547 52.4926 33.7391 52.3764C34.1252 52.2668 34.559 52.1764 35.0204 52.1304C35.4823 52.0893 35.9251 52.0969 36.3249 52.1323C36.7241 52.1745 37.0803 52.2402 37.3721 52.3219C37.6642 52.4013 37.8966 52.4814 38.0508 52.5509C38.2064 52.6178 38.29 52.6589 38.2865 52.6679Z" fill="#263238"/>
<path d="M44.617 69.4208C44.5838 69.4076 44.8521 68.7555 45.3916 68.0828C45.9275 67.4069 46.5032 67 46.5232 67.0293C46.5509 67.0625 46.0267 67.5105 45.5031 68.1719C44.9754 68.8295 44.6556 69.4405 44.617 69.4208Z" fill="#263238"/>
<path d="M44.2676 67.656C44.244 67.6286 44.6468 67.2861 45.2532 67.0713C45.8584 66.8523 46.3872 66.8617 46.3861 66.8978C46.3897 66.9406 45.8836 66.9945 45.3014 67.2058C44.7175 67.4119 44.292 67.6913 44.2676 67.656Z" fill="#263238"/>
<path d="M54.0304 97.2056C53.8092 96.748 53.2777 96.5464 52.7941 96.3905C43.2235 93.3044 32.954 91.8259 23.0599 93.6225C21.8699 93.8387 20.6415 94.1228 19.6968 94.8783C18.752 95.6334 18.1832 96.9913 18.6887 98.0901L20.7199 98.7406C30.839 97.613 41.0915 97.6857 51.1936 98.9565C51.8742 99.0422 52.593 99.1283 53.2237 98.8592C53.855 98.5899 54.3285 97.8235 54.0304 97.2056Z" fill="#777776"/>
<path d="M42.9232 94.0408C42.9226 94.0433 42.901 94.0419 42.8591 94.0375C42.8089 94.031 42.7481 94.023 42.6738 94.0134C42.4996 93.9874 42.2631 93.9521 41.9647 93.9074C41.3502 93.8093 40.4605 93.6671 39.3549 93.5411C37.1464 93.2777 34.0744 93.0459 30.68 93.1273C29.8315 93.1437 29.0037 93.1846 28.2058 93.2501C27.4066 93.3109 26.6396 93.3547 25.902 93.4216C25.8078 93.4273 25.7119 93.4276 25.6163 93.4156C25.5278 93.4038 25.4436 93.3997 25.3568 93.4038C25.1842 93.4112 25.0132 93.446 24.843 93.4816C24.5019 93.5526 24.1709 93.6216 23.8503 93.6885C23.213 93.8309 22.625 93.9882 22.0981 94.1619C21.0426 94.5066 20.2415 94.9269 19.7236 95.2672C19.463 95.4355 19.2682 95.5785 19.1403 95.6804C19.0811 95.7256 19.0323 95.7629 18.9923 95.7936C18.9583 95.8185 18.9402 95.8303 18.9386 95.8287C18.937 95.8268 18.952 95.8111 18.9827 95.7826C19.0205 95.7489 19.0663 95.7081 19.1222 95.6582C19.2447 95.5486 19.4351 95.3977 19.6926 95.2212C20.2045 94.8642 21.0068 94.4258 22.066 94.0663C22.5946 93.8852 23.1851 93.7213 23.8243 93.5731C24.1446 93.5041 24.4759 93.4325 24.817 93.3591C24.9874 93.3221 25.1647 93.2846 25.351 93.2753C25.4434 93.2703 25.5401 93.2745 25.6319 93.2862C25.7171 93.2964 25.8048 93.2958 25.8938 93.2901C26.6221 93.2202 27.3983 93.1728 28.1968 93.11C28.9963 93.0426 29.826 93.0007 30.6768 92.984C34.0793 92.9024 37.1585 93.1509 39.3672 93.4402C40.4731 93.5791 41.3614 93.7367 41.9738 93.8518C42.2705 93.9077 42.5056 93.9518 42.6788 93.9844C42.7519 93.9994 42.8119 94.0121 42.8615 94.0225C42.9026 94.0323 42.9235 94.0384 42.9232 94.0408Z" fill="#F2E635"/>
<path d="M18.9389 78.4447L35.251 79.0138C35.4921 79.0223 35.6727 79.2379 35.6384 79.4768L33.2905 99.041H36.9665L38.8642 77.5049C38.9544 76.7697 38.3957 76.1151 37.6553 76.0886L18.5 75.4014L18.9389 78.4447Z" fill="#777776"/>
<path d="M105.638 77.0186H103.082V77.5852L108.711 131.381H111.337L105.638 77.0186Z" fill="#777776"/>
<path d="M48.5654 77.0186H51.1221V77.5972L45.8745 131.363H43.249L48.5654 77.0186Z" fill="#777776"/>
<path d="M48.5655 77.018C48.5655 77.018 48.5595 77.1156 48.5431 77.3011C48.5258 77.4891 48.5009 77.7633 48.468 78.122C48.3998 78.8445 48.2995 79.9052 48.1704 81.2719C47.9079 84.0072 47.5282 87.9652 47.0577 92.8687C46.1064 102.668 44.7882 116.245 43.3201 131.369L43.2491 131.291C44.0684 131.291 44.9496 131.291 45.8354 131.291C45.8488 131.291 45.862 131.291 45.8746 131.291L45.8036 131.356C48.2921 106.097 50.4 84.7013 51.1 77.5948V77.597C51.1009 77.329 51.1014 77.1698 51.1019 77.0183L51.1219 77.0383C50.2509 77.0331 49.6147 77.0293 49.1924 77.0268C48.9837 77.0246 48.8283 77.0232 48.722 77.0222C48.6181 77.0208 48.5655 77.018 48.5655 77.018C48.5655 77.018 48.6135 77.0156 48.7154 77.0142C48.8209 77.0131 48.9746 77.0115 49.1815 77.0096C49.6059 77.0071 50.246 77.0033 51.1219 76.998H51.142V77.0183C51.1425 77.1698 51.143 77.329 51.1439 77.597V77.5981V77.5992C50.4567 84.707 48.3877 106.106 45.9453 131.37L45.939 131.434H45.874C45.8614 131.434 45.8483 131.434 45.8348 131.434C44.949 131.434 44.0678 131.434 43.2486 131.434H43.1699L43.1776 131.356C44.6701 116.215 46.0099 102.622 46.9771 92.8111C47.4651 87.9158 47.8592 83.965 48.1315 81.2341C48.2691 79.875 48.3756 78.8201 48.4485 78.1017C48.4855 77.7474 48.5137 77.4764 48.5332 77.2907C48.5532 77.1087 48.5655 77.018 48.5655 77.018Z" fill="#F2E635"/>
<path d="M115.576 75.269H42.4141V77.5852H115.576V75.269Z" fill="#777776"/>
<path d="M107.789 77.5854C107.789 77.6249 93.2073 77.6566 75.2233 77.6566C57.2333 77.6566 42.6543 77.6246 42.6543 77.5854C42.6543 77.5462 57.2333 77.5142 75.2233 77.5142C93.207 77.5142 107.789 77.5459 107.789 77.5854Z" fill="#F2E635"/>
</svg>
