<svg xmlns="http://www.w3.org/2000/svg" width="130" height="111" viewBox="0 0 130 111" fill="none">
  <path d="M88.0653 4.62901C88.0653 4.62901 70.2587 27.0766 41.7681 13.6868C13.2776 0.296953 -15.213 36.5283 9.32053 58.582C33.8541 80.6358 9.84618 92.7543 26.5133 106.27C45.4566 121.632 61.9489 90.4813 76.9856 97.5701C110.172 113.215 134.758 107.022 129.218 88.9061C119.494 57.1064 107.059 55.0377 116.556 38.4973C126.053 21.957 105.093 -12.4345 88.0653 4.62901Z" fill="#EBEBEB"/>
  <path d="M78.3715 66.7096L76.9648 74.2262L70.2643 109.958L58.1943 107.715L65.9335 66.4386L66.3015 64.4717L78.3715 66.7096Z" fill="#9C9C1E"/>
  <path d="M108.097 48.7393L103.935 70.9459C103.923 71.011 103.898 71.073 103.861 71.1285C103.825 71.184 103.778 71.2318 103.723 71.2693C103.668 71.3067 103.607 71.333 103.541 71.3467C103.476 71.3603 103.409 71.3611 103.344 71.3489L44.8721 60.4953L51.7542 23.7715L96.1554 32.0134C104.203 33.5069 109.548 40.9938 108.097 48.7393Z" fill="#EEE83C"/>
  <path d="M64.2424 41.2818L60.113 63.3161L29.4209 57.6189L33.5502 35.5847C35.0705 27.472 43.1739 22.1705 51.6492 23.7437C60.1244 25.3169 65.7627 33.1689 64.2424 41.2818Z" fill="#9C9C1E"/>
  <path d="M78.5306 51.585C76.2688 51.1652 74.7765 48.9775 75.2025 46.7056C75.6284 44.4338 77.8125 42.9281 80.0742 43.3481C80.7952 43.4829 81.4675 43.8054 82.0226 44.2826C82.5778 44.7599 82.996 45.375 83.2348 46.0654L111.805 51.3686L111.033 55.4871L82.463 50.1839C81.9903 50.7423 81.3774 51.1661 80.6866 51.4122C79.9959 51.6583 79.252 51.7179 78.5306 51.585Z" fill="#9C9C1E"/>
  <path d="M63.2254 41.6889L59.2021 63.1569L30.2891 57.79L34.3126 36.3219C35.7938 28.4178 43.4673 23.2114 51.4513 24.6934C59.4353 26.1755 64.7066 33.7847 63.2254 41.6889Z" fill="#9C9C1E"/>
  <path d="M79.3421 49.5041C80.5046 49.5041 81.447 48.5662 81.447 47.4093C81.447 46.2523 80.5046 45.3145 79.3421 45.3145C78.1797 45.3145 77.2373 46.2523 77.2373 47.4093C77.2373 48.5662 78.1797 49.5041 79.3421 49.5041Z" fill="white"/>
  <path d="M112.135 51.3596L109.612 64.8262C109.601 64.8842 109.567 64.9355 109.518 64.9689C109.47 65.0022 109.409 65.0149 109.351 65.0041L102.717 63.7726C102.705 63.7705 102.695 63.7639 102.689 63.7543C102.682 63.7447 102.68 63.7329 102.682 63.7214L105.238 50.0793C105.24 50.0679 105.247 50.0577 105.257 50.0511C105.266 50.0446 105.278 50.042 105.29 50.0442L112.1 51.3084C112.112 51.3105 112.122 51.3171 112.128 51.3267C112.135 51.3363 112.138 51.3481 112.135 51.3596Z" fill="#9C9C1E"/>
  <path d="M39.8561 50.0909C40.1355 52.1362 42.3906 54.5672 42.3906 54.5672C38.9543 54.8096 37.0934 52.8756 36.2926 51.7004C35.3026 51.9851 34.2851 52.1648 33.2571 52.2365C26.2026 52.7342 20.1297 48.1505 19.6911 41.9933C19.2525 35.8362 24.6152 30.4456 31.6697 29.9481C38.7242 29.4505 44.7967 34.034 45.2352 40.1912C45.5204 44.1962 43.349 47.8775 39.8561 50.0909Z" fill="#263238"/>
  <path d="M60.144 63.3304C59.8245 64.1351 53.9825 88.1092 35.0776 84.6C14.3471 81.1071 29.3419 57.6128 29.3419 57.6128L60.144 63.3304Z" fill="#EEE83C"/>
  <path d="M32.463 43.1964C33.4317 43.1964 34.217 42.4148 34.217 41.4507C34.217 40.4866 33.4317 39.7051 32.463 39.7051C31.4943 39.7051 30.709 40.4866 30.709 41.4507C30.709 42.4148 31.4943 43.1964 32.463 43.1964Z" fill="#9C9C1E"/>
  <path d="M24.6113 42.444C25.5858 42.444 26.3758 41.6577 26.3758 40.6878C26.3758 39.7179 25.5858 38.9316 24.6113 38.9316C23.6367 38.9316 22.8467 39.7179 22.8467 40.6878C22.8467 41.6577 23.6367 42.444 24.6113 42.444Z" fill="#9C9C1E"/>
  <path d="M40.2402 43.9449C41.2147 43.9449 42.0047 43.1587 42.0047 42.1888C42.0047 41.2189 41.2147 40.4326 40.2402 40.4326C39.2656 40.4326 38.4756 41.2189 38.4756 42.1888C38.4756 43.1587 39.2656 43.9449 40.2402 43.9449Z" fill="#9C9C1E"/>
  <path d="M78.3707 66.7096L76.9639 74.2262L65.9326 66.4386L66.3006 64.4717L78.3707 66.7096Z" fill="#9C9C1E"/>
</svg>