<svg width="186" height="184" viewBox="0 0 186 184" fill="none" xmlns="http://www.w3.org/2000/svg">
<path d="M186 140.722H0V140.814H186V140.722Z" fill="#EBEBEB"/>
<path d="M48.4964 144.227H19.5146V144.319H48.4964V144.227Z" fill="#EBEBEB"/>
<path d="M167.363 147.026H153.264V147.118H167.363V147.026Z" fill="#EBEBEB"/>
<path d="M56.0081 147.645H48.8687V147.737H56.0081V147.645Z" fill="#EBEBEB"/>
<path d="M91.2738 143.229H75.2061V143.321H91.2738V143.229Z" fill="#EBEBEB"/>
<path d="M96.9418 143.229H94.5859V143.321H96.9418V143.229Z" fill="#EBEBEB"/>
<path d="M137.971 145.473H121.892V145.565H137.971V145.473Z" fill="#EBEBEB"/>
<path d="M88.1691 124.31H16.3363C15.1656 124.31 14.2129 123.368 14.2129 122.21V22.3227C14.2129 21.1646 15.1656 20.2222 16.3363 20.2222H88.1691C89.3394 20.2222 90.2921 21.1646 90.2921 22.3227V122.21C90.2921 123.368 89.3394 124.31 88.1691 124.31ZM16.3363 20.3145C15.2165 20.3145 14.3059 21.2154 14.3059 22.3231V122.21C14.3059 123.318 15.2165 124.219 16.3363 124.219H88.1691C89.2884 124.219 90.1991 123.318 90.1991 122.21V22.3227C90.1991 21.2154 89.2884 20.3142 88.1691 20.3142L16.3363 20.3145Z" fill="#EBEBEB"/>
<path d="M168.631 124.31H96.7988C95.6281 124.31 94.6758 123.368 94.6758 122.21V22.3227C94.6758 21.1646 95.6285 20.2222 96.7988 20.2222H168.631C169.802 20.2222 170.755 21.1646 170.755 22.3227V122.21C170.755 123.368 169.802 124.31 168.631 124.31ZM96.7988 20.3145C95.6794 20.3145 94.7688 21.2154 94.7688 22.3231V122.21C94.7688 123.318 95.6794 124.219 96.7988 124.219H168.631C169.751 124.219 170.662 123.318 170.662 122.21V22.3227C170.662 21.2154 169.751 20.3142 168.631 20.3142L96.7988 20.3145Z" fill="#EBEBEB"/>
<path d="M49.4267 132.31H31.1496C30.3349 132.31 29.6433 131.719 29.5254 130.921L24.9502 99.9823C24.8055 99.0023 25.5733 98.1235 26.5743 98.1235H44.8514C45.6661 98.1235 46.3577 98.7149 46.4756 99.5124L51.0504 130.451C51.1955 131.431 50.4277 132.31 49.4267 132.31Z" fill="#F0F0F0"/>
<path d="M33.3235 132.31H24.7053C23.8907 132.31 23.1991 131.719 23.0812 130.921L18.5063 99.9828C18.3616 99.0028 19.1294 98.124 20.1305 98.124H28.7482C29.5629 98.124 30.2545 98.7154 30.3724 99.5129L34.9472 130.452C35.0923 131.431 34.3245 132.31 33.3235 132.31Z" fill="#FAFAFA"/>
<path d="M142.411 90.2827H53.5751C51.3189 90.2827 49.3332 91.9564 49.1401 94.0209L46.9044 117.908C46.7109 119.973 48.3835 121.646 50.6396 121.646H139.475C141.731 121.646 143.717 119.973 143.91 117.908L146.146 94.0209C146.339 91.9564 144.667 90.2827 142.411 90.2827Z" fill="#E0E0E0"/>
<path d="M136.38 90.2827H47.5448C45.2886 90.2827 43.3029 91.9564 43.1098 94.0209L40.8741 117.908C40.6807 119.973 42.3532 121.646 44.6094 121.646H133.445C135.701 121.646 137.687 119.973 137.88 117.908L140.116 94.0209C140.309 91.9564 138.636 90.2827 136.38 90.2827Z" fill="#E6E6E6"/>
<path d="M36.3301 129.662V121.158C36.3301 119.695 37.5283 118.51 39.0066 118.51H72.4658C73.9437 118.51 75.1423 119.695 75.1423 121.158V129.662C75.1423 131.125 73.9441 132.31 72.4658 132.31H39.0066C37.5283 132.31 36.3301 131.125 36.3301 129.662Z" fill="#EBEBEB"/>
<path d="M84.7109 129.887V120.933C84.7109 119.595 85.8076 118.51 87.1602 118.51H126.21C127.563 118.51 128.659 119.595 128.659 120.933V129.887C128.659 131.225 127.563 132.31 126.21 132.31H87.1602C85.8076 132.31 84.7109 131.225 84.7109 129.887Z" fill="#E0E0E0"/>
<path d="M75.1416 129.887V120.933C75.1416 119.595 76.2383 118.51 77.5908 118.51H116.641C117.993 118.51 119.09 119.595 119.09 120.933V129.887C119.09 131.225 117.993 132.31 116.641 132.31H77.5908C76.2383 132.31 75.1416 131.225 75.1416 129.887Z" fill="#EBEBEB"/>
<path d="M142.166 132.31H128.569C127.568 132.31 126.913 131.431 127.185 130.451L135.748 99.5124C135.968 98.7149 136.736 98.1235 137.551 98.1235H151.147C152.148 98.1235 152.803 99.0023 152.532 99.9823L143.969 130.921C143.748 131.719 142.98 132.31 142.166 132.31Z" fill="#F0F0F0"/>
<path d="M130.743 132.31H122.125C121.124 132.31 120.47 131.431 120.741 130.451L129.304 99.5124C129.524 98.7149 130.292 98.1235 131.107 98.1235H139.725C140.726 98.1235 141.38 99.0023 141.109 99.9823L132.546 130.921C132.326 131.719 131.558 132.31 130.743 132.31Z" fill="#FAFAFA"/>
<path d="M123.533 140.723H122.225L119.09 132.31H122.33L123.533 140.723Z" fill="#E0E0E0"/>
<path d="M140.131 140.723H138.823L135.688 132.31H138.929L140.131 140.723Z" fill="#E0E0E0"/>
<path d="M45.7827 140.723H47.0907L50.2248 132.31H46.985L45.7827 140.723Z" fill="#E0E0E0"/>
<path d="M29.1846 140.723H30.4925L33.627 132.31H30.3869L29.1846 140.723Z" fill="#E0E0E0"/>
<path d="M142.599 35.9414H43.4009V70.9423H142.599V35.9414Z" fill="#E0E0E0"/>
<path d="M141.69 35.9414H42.4917V70.9423H141.69V35.9414Z" fill="#F0F0F0"/>
<path d="M138.714 67.9981V38.8853L45.4676 38.8853V67.9981L138.714 67.9981Z" fill="#FAFAFA"/>
<path d="M92.0907 62.1713C96.9644 62.1713 100.915 58.2629 100.915 53.4416C100.915 48.6203 96.9644 44.7119 92.0907 44.7119C87.217 44.7119 83.2661 48.6203 83.2661 53.4416C83.2661 58.2629 87.217 62.1713 92.0907 62.1713Z" fill="#F0F0F0"/>
<path d="M60.6045 67.9981L66.7849 38.8853H80.4247L74.2446 67.9981H60.6045Z" fill="white"/>
<path d="M79.9995 67.9981L86.1799 38.8853H92.9998L86.8198 67.9981H79.9995Z" fill="white"/>
<path d="M121.642 67.9981L127.822 38.8853H134.642L128.462 67.9981H121.642Z" fill="white"/>
<path d="M164.528 92.6479C162.213 102.57 167.875 112.819 165.56 122.742C164.796 122.71 164.033 122.679 163.268 122.647C162.504 122.616 161.74 122.584 160.977 122.553C164.819 112.694 160.685 102.507 164.528 92.6479Z" fill="#F0F0F0"/>
<path d="M158.596 96.9512C160.493 106.437 154.406 115.923 156.302 125.41C157.067 125.41 157.831 125.41 158.596 125.41C159.361 125.41 160.125 125.41 160.89 125.41C157.465 115.923 162.022 106.437 158.596 96.9512Z" fill="#F0F0F0"/>
<path d="M162.83 89.0635C159.796 99.1802 165.436 110.098 162.402 120.214C161.572 120.137 160.741 120.061 159.91 119.984C159.079 119.907 158.248 119.83 157.417 119.754C162.113 109.791 158.135 99.0267 162.83 89.0635Z" fill="#E6E6E6"/>
<path d="M167.3 103.631C168.278 109.102 162.821 113.403 163.8 118.874C164.417 118.985 165.033 119.097 165.649 119.21C166.266 119.321 166.882 119.433 167.499 119.546C165.287 113.851 169.511 109.326 167.3 103.631Z" fill="#E6E6E6"/>
<path d="M169.322 118.51C164.327 118.51 159.331 118.51 154.336 118.51C150.866 125.516 150.866 133.716 154.336 140.722C159.331 140.722 164.327 140.722 169.322 140.722C172.792 133.716 172.792 125.516 169.322 118.51Z" fill="#E0E0E0"/>
<path d="M93.0002 157.343C132.835 157.343 165.127 155.477 165.127 153.176C165.127 150.874 132.835 149.009 93.0002 149.009C53.1658 149.009 20.8735 150.874 20.8735 153.176C20.8735 155.477 53.1658 157.343 93.0002 157.343Z" fill="#F5F5F5"/>
<path d="M142.772 101.05H62.3841C61.5173 101.05 60.8474 100.349 60.895 99.4916L63.6024 50.7371C63.65 49.8796 64.3981 49.1782 65.2648 49.1782H145.653C146.52 49.1782 147.19 49.8796 147.142 50.7371L144.435 99.4916C144.387 100.349 143.639 101.05 142.772 101.05Z" fill="#263238"/>
<path d="M108.957 57.4697H101.186C98.595 57.4697 96.5911 55.3757 96.7332 52.8163L96.8121 51.394C96.9497 48.914 99.1166 46.8853 101.627 46.8853H109.393C111.987 46.8853 113.993 48.9814 113.85 51.5438L113.772 52.9613C113.634 55.4409 111.467 57.4697 108.957 57.4697Z" fill="#263238"/>
<path d="M116.03 151.639H113.541L106.687 47.9712H109.176L116.03 151.639Z" fill="#263238"/>
<path d="M97.3428 151.639H99.8326L106.687 47.9712H104.197L97.3428 151.639Z" fill="#263238"/>
<path d="M142.344 101.05H61.9563C61.0896 101.05 60.4196 100.349 60.4672 99.4916L63.1746 50.7371C63.2223 49.8796 63.9704 49.1782 64.8367 49.1782H145.225C146.092 49.1782 146.762 49.8796 146.714 50.7371L144.007 99.4916C143.959 100.349 143.211 101.05 142.344 101.05Z" fill="#EBE30D"/>
<path opacity="0.4" d="M63.2317 99.5567C62.538 99.5567 62.0042 98.9985 62.0425 98.3118L64.6186 51.9173C64.6565 51.231 65.2521 50.6724 65.9462 50.6724H143.949C144.643 50.6724 145.176 51.231 145.138 51.9173L142.562 98.3118C142.524 98.9981 141.929 99.5567 141.235 99.5567H63.2317Z" fill="#263238"/>
<path opacity="0.1" d="M141.718 74.9652H118.239C117.648 74.9652 117.196 74.4916 117.228 73.9076L118.401 52.7895C118.405 52.7071 118.342 52.6401 118.258 52.6401C118.174 52.6401 118.103 52.7071 118.099 52.7895L116.926 73.9076C116.894 74.4916 116.389 74.9652 115.798 74.9652H91.3986C90.8083 74.9652 90.3559 74.4916 90.3883 73.9076L91.5608 52.7895C91.5653 52.7071 91.5017 52.6401 91.418 52.6401C91.3343 52.6401 91.2632 52.7071 91.2587 52.7895L90.0862 73.9076C90.0538 74.4916 89.549 74.9652 88.9583 74.9652H65.4788C65.3954 74.9652 65.324 75.0322 65.3196 75.1146C65.3151 75.1971 65.3787 75.264 65.4624 75.264H88.9419C89.5323 75.264 89.9846 75.7377 89.9523 76.3217L88.7797 97.4397C88.7753 97.5222 88.8389 97.5891 88.9226 97.5891C89.0059 97.5891 89.0773 97.5222 89.0818 97.4397L90.2543 76.3217C90.2867 75.7377 90.7919 75.264 91.3823 75.264H115.782C116.372 75.264 116.825 75.7377 116.792 76.3217L115.62 97.4397C115.615 97.5222 115.679 97.5891 115.763 97.5891C115.846 97.5891 115.918 97.5222 115.922 97.4397L117.095 76.3217C117.127 75.7377 117.632 75.264 118.222 75.264H141.702C141.785 75.264 141.857 75.1971 141.861 75.1146C141.866 75.0322 141.802 74.9652 141.718 74.9652Z" fill="white"/>
<path opacity="0.4" d="M103.436 56.4678H94.0051L93.478 65.9563L102.896 66.2054L103.436 56.4678Z" fill="#263238"/>
<path d="M102.414 65.7976C99.2587 65.6456 96.1034 65.4932 92.9478 65.3413C93.4715 62.1161 93.8 58.8832 93.9324 55.6592C97.1067 55.8112 100.281 55.9631 103.454 56.1155C103.303 59.3395 102.956 62.5732 102.414 65.7976Z" fill="white"/>
<path opacity="0.4" d="M114.806 62.8066L105.362 63.5191L105.57 72.98L115.018 72.516L114.806 62.8066Z" fill="#263238"/>
<path d="M114.504 72.1471C111.333 72.2343 108.162 72.3215 104.991 72.4087C105.266 69.167 105.344 65.9323 105.227 62.7211C108.417 62.6325 111.607 62.5434 114.796 62.4551C114.894 65.6681 114.797 68.905 114.504 72.1471Z" fill="#EBE30D"/>
<path opacity="0.4" d="M87.2257 80.0629L69.8153 79.4053L68.2529 94.727L85.6224 95.7868L87.2257 80.0629Z" fill="#263238"/>
<path d="M84.7581 95.0932C78.9433 94.6269 73.1279 94.1603 67.312 93.694C68.4797 88.5104 69.287 83.3002 69.7315 78.0908C75.5819 78.5582 81.4313 79.0255 87.2799 79.4933C86.8011 84.7023 85.9593 89.9121 84.7581 95.0932Z" fill="white"/>
<g opacity="0.3">
<path d="M69.3062 58.6117C68.7664 58.6117 68.349 58.1749 68.3784 57.6406C68.4082 57.1066 68.8739 56.6694 69.4141 56.6694C69.9538 56.6694 70.3712 57.1063 70.3418 57.6406C70.3121 58.1749 69.846 58.6117 69.3062 58.6117Z" fill="#263238"/>
<path opacity="0.8" d="M84.6907 58.6117H72.6104C72.0706 58.6117 71.6532 58.1749 71.6826 57.6406C71.7124 57.1066 72.1781 56.6694 72.7183 56.6694H84.7986C85.3384 56.6694 85.7557 57.1063 85.7264 57.6406C85.6966 58.1749 85.2305 58.6117 84.6907 58.6117Z" fill="#263238"/>
<path d="M69.0713 62.8457C68.5315 62.8457 68.1142 62.4089 68.1436 61.875C68.1733 61.341 68.6391 60.9038 69.1788 60.9038C69.7186 60.9038 70.136 61.3406 70.1066 61.875C70.0772 62.4089 69.6111 62.8457 69.0713 62.8457Z" fill="#263238"/>
<path opacity="0.8" d="M86.5949 62.8457H72.3752C71.8354 62.8457 71.418 62.4089 71.4478 61.875C71.4775 61.341 71.9433 60.9038 72.4831 60.9038H86.7028C87.2425 60.9038 87.6599 61.3406 87.6305 61.875C87.6004 62.4089 87.1347 62.8457 86.5949 62.8457Z" fill="#263238"/>
<path d="M68.836 67.0805C68.2962 67.0805 67.8788 66.6437 67.9082 66.1093C67.938 65.5754 68.4037 65.1382 68.9438 65.1382C69.4836 65.1382 69.901 65.575 69.8716 66.1093C69.8419 66.6437 69.3757 67.0805 68.836 67.0805Z" fill="#263238"/>
<path opacity="0.8" d="M79.0612 67.0805H72.1402C71.6004 67.0805 71.183 66.6437 71.2124 66.1093C71.2422 65.5754 71.7079 65.1382 72.2477 65.1382H79.1687C79.7085 65.1382 80.1259 65.575 80.0965 66.1093C80.0667 66.6437 79.601 67.0805 79.0612 67.0805Z" fill="#263238"/>
<path opacity="0.8" d="M85.4704 71.3149H78.5493C78.0096 71.3149 77.5922 70.878 77.6216 70.3437C77.6513 69.8097 78.1171 69.3726 78.6572 69.3726H85.5783C86.1181 69.3726 86.5354 69.8094 86.5061 70.3437C86.4763 70.878 86.0106 71.3149 85.4704 71.3149Z" fill="#263238"/>
<path d="M68.6011 71.3149C68.0613 71.3149 67.6439 70.878 67.6733 70.3437C67.7031 69.8097 68.1688 69.3726 68.7086 69.3726C69.2484 69.3726 69.6658 69.8094 69.6364 70.3437C69.607 70.878 69.1409 71.3149 68.6011 71.3149Z" fill="#263238"/>
<path opacity="0.8" d="M75.1015 71.3149H71.9053C71.3655 71.3149 70.9481 70.878 70.9775 70.3437C71.0073 69.8097 71.473 69.3726 72.0128 69.3726H75.209C75.7488 69.3726 76.1662 69.8094 76.1368 70.3437C76.107 70.878 75.6413 71.3149 75.1015 71.3149Z" fill="#263238"/>
</g>
<path d="M98.6342 83.9155H93.9496L93.3057 95.5105H97.9903L98.6342 83.9155Z" fill="#EBE30D"/>
<path d="M105.739 86.3057H101.055L100.544 95.5104H105.228L105.739 86.3057Z" fill="#EBE30D"/>
<path d="M113.321 80.1309H108.636L107.782 95.5103H112.466L113.321 80.1309Z" fill="#EBE30D"/>
<path d="M94.9923 90.458C94.5285 90.458 94.0609 90.4459 93.5877 90.4219C92.7696 90.3804 91.7083 90.278 90.7538 89.8534C90.6016 89.7857 90.5339 89.6087 90.6024 89.4581C90.6708 89.3076 90.8494 89.2407 91.0015 89.308C91.8642 89.6918 92.8534 89.7857 93.6186 89.8247C99.2391 90.1106 104.161 88.6625 109.115 85.2677C110.296 84.4585 112.059 82.9611 113.143 81.4052C113.237 81.269 113.425 81.2352 113.563 81.3287C113.7 81.4221 113.734 81.6083 113.64 81.7441C112.512 83.3652 110.74 84.881 109.459 85.759C104.806 88.9477 100.175 90.458 94.9923 90.458Z" fill="white"/>
<path d="M114.338 83.695C114.299 83.695 114.26 83.6876 114.222 83.6721C114.068 83.6092 113.995 83.4344 114.059 83.2821C114.486 82.2576 114.577 81.1057 114.319 80.0635C113.141 80.8466 111.884 81.5072 110.576 82.029C110.421 82.0905 110.246 82.0169 110.183 81.8638C110.121 81.7107 110.195 81.5366 110.35 81.4748C111.744 80.9184 113.08 80.1997 114.318 79.3389C114.396 79.2848 114.495 79.2701 114.585 79.2996C114.676 79.329 114.747 79.3986 114.778 79.488C115.212 80.7602 115.153 82.2263 114.617 83.5106C114.569 83.6254 114.456 83.695 114.338 83.695Z" fill="white"/>
<path d="M139.005 72.2636H121.579C121.283 72.2636 121.011 72.1491 120.813 71.9416C120.614 71.7337 120.513 71.4577 120.529 71.1647L121.338 56.5916C121.371 55.9947 121.889 55.5093 122.493 55.5093H139.919C140.215 55.5093 140.487 55.6237 140.686 55.8313C140.885 56.0392 140.985 56.3152 140.969 56.6081L140.16 71.1809C140.127 71.7778 139.609 72.2636 139.005 72.2636ZM122.493 55.8081C122.048 55.8081 121.665 56.1669 121.64 56.6081L120.831 71.1809C120.82 71.3911 120.891 71.5883 121.032 71.7362C121.173 71.8834 121.367 71.9648 121.579 71.9648H139.005C139.451 71.9648 139.834 71.606 139.858 71.1647L140.667 56.5916C140.679 56.3814 140.607 56.1842 140.466 56.0366C140.325 55.8894 140.131 55.8081 139.919 55.8081H122.493Z" fill="#EBE30D"/>
<path d="M140.655 59.6904H121.326C121.243 59.6904 121.175 59.6234 121.175 59.541C121.175 59.4586 121.243 59.3916 121.326 59.3916H140.655C140.738 59.3916 140.806 59.4586 140.806 59.541C140.806 59.6234 140.738 59.6904 140.655 59.6904Z" fill="#EBE30D"/>
<path d="M125.192 72.2635C125.189 72.2635 125.186 72.2635 125.183 72.2631C125.1 72.2587 125.036 72.1881 125.041 72.1056L125.739 59.5329C125.743 59.4505 125.814 59.3861 125.898 59.392C125.982 59.3964 126.045 59.4671 126.041 59.5495L125.342 72.1226C125.338 72.2017 125.271 72.2635 125.192 72.2635Z" fill="#EBE30D"/>
<path d="M138.441 61.1841H127.947C127.864 61.1841 127.796 61.1171 127.796 61.0347C127.796 60.9522 127.864 60.8853 127.947 60.8853H138.441C138.524 60.8853 138.592 60.9522 138.592 61.0347C138.592 61.1171 138.524 61.1841 138.441 61.1841Z" fill="#EBE30D"/>
<path d="M136.86 63.0176H127.845C127.762 63.0176 127.694 62.9506 127.694 62.8682C127.694 62.7857 127.762 62.7188 127.845 62.7188H136.86C136.943 62.7188 137.011 62.7857 137.011 62.8682C137.011 62.9506 136.943 63.0176 136.86 63.0176Z" fill="#EBE30D"/>
<path d="M132.987 64.9092H127.74C127.657 64.9092 127.589 64.8422 127.589 64.7598C127.589 64.6773 127.657 64.6104 127.74 64.6104H132.987C133.07 64.6104 133.138 64.6773 133.138 64.7598C133.138 64.8422 133.07 64.9092 132.987 64.9092Z" fill="#EBE30D"/>
<path d="M133.94 68.6011H127.535C127.452 68.6011 127.384 68.5341 127.384 68.4517C127.384 68.3692 127.452 68.3022 127.535 68.3022H133.94C134.024 68.3022 134.091 68.3692 134.091 68.4517C134.091 68.5345 134.024 68.6011 133.94 68.6011Z" fill="#EBE30D"/>
<path d="M132.677 70.4932H127.43C127.347 70.4932 127.279 70.4262 127.279 70.3437C127.279 70.2613 127.347 70.1943 127.43 70.1943H132.677C132.76 70.1943 132.828 70.2613 132.828 70.3437C132.828 70.4262 132.76 70.4932 132.677 70.4932Z" fill="#EBE30D"/>
<path d="M135.748 70.4932H134.067C133.984 70.4932 133.916 70.4262 133.916 70.3437C133.916 70.2613 133.984 70.1943 134.067 70.1943H135.748C135.832 70.1943 135.9 70.2613 135.9 70.3437C135.9 70.4262 135.832 70.4932 135.748 70.4932Z" fill="#EBE30D"/>
<path d="M137.464 66.7422H127.638C127.555 66.7422 127.487 66.6752 127.487 66.5928C127.487 66.5103 127.555 66.4434 127.638 66.4434H137.464C137.548 66.4434 137.615 66.5103 137.615 66.5928C137.615 66.6752 137.548 66.7422 137.464 66.7422Z" fill="#EBE30D"/>
<path d="M128.304 93.4649C126.028 93.4649 124.163 92.7992 123.004 91.5612C121.767 90.2397 121.254 88.1613 121.596 85.8591C121.805 84.4489 122.271 83.2658 122.98 82.3421C123.692 81.4155 124.722 80.6515 126.041 80.0712C128.952 78.7905 132.321 78.8354 135.053 80.1915C136.278 80.7991 137.045 81.5678 137.334 82.4761C137.384 82.6332 137.296 82.801 137.136 82.8507C136.977 82.9004 136.808 82.8128 136.758 82.6553C136.52 81.9071 135.855 81.2576 134.782 80.7255C132.21 79.4489 129.034 79.4088 126.286 80.6173C125.061 81.1564 124.111 81.8582 123.461 82.7038C122.814 83.5458 122.387 84.6369 122.193 85.9459C121.877 88.0685 122.334 89.9674 123.446 91.1553C124.992 92.8069 127.551 92.925 128.939 92.8496C131.519 92.7083 133.739 91.8166 135.189 90.3391C136.886 88.6113 137.362 86.0265 136.296 84.3267C136.089 83.9974 135.645 83.4354 134.993 83.371C134.827 83.3548 134.705 83.2084 134.722 83.0442C134.739 82.8801 134.888 82.7613 135.053 82.7767C135.728 82.8433 136.351 83.282 136.809 84.0121C138.017 85.9378 137.507 88.8369 135.623 90.7561C134.066 92.3414 131.705 93.2967 128.973 93.4469C128.747 93.4586 128.524 93.4649 128.304 93.4649Z" fill="white"/>
<path d="M51.0822 62.3153L50.0094 64.1649L48.9581 66.0534C48.2658 67.3153 47.6044 68.5875 47.0007 69.8659C46.7001 70.507 46.414 71.1451 46.1529 71.7865L46.1045 71.9024C46.1004 71.9116 46.0952 71.9208 46.0889 71.93C46.0722 71.9488 46.0666 71.965 46.0569 71.9808C46.0368 72.0132 46.0238 72.0445 46.0063 72.0864C45.9784 72.1692 45.9892 72.3109 46.0509 72.499C46.1692 72.8809 46.5186 73.3792 46.9471 73.8425C47.3671 74.3091 47.9106 74.7861 48.3998 75.2045L47.5278 77.0419C47.0847 76.9168 46.7161 76.7906 46.3255 76.6217C45.9393 76.4605 45.564 76.2654 45.1898 76.0454C44.4506 75.5938 43.7081 75.0356 43.0932 74.1218C42.7941 73.6644 42.5378 73.0984 42.4373 72.4434C42.3916 72.1173 42.3752 71.7758 42.4176 71.4432C42.4366 71.2761 42.4611 71.1101 42.5032 70.9526L42.5638 70.7134L42.6096 70.5681C42.8488 69.8155 43.0962 69.071 43.3867 68.3531C43.9521 66.9087 44.589 65.5128 45.2839 64.1542C45.631 63.4745 45.9911 62.8029 46.3701 62.1416C46.7514 61.4748 47.1227 60.8311 47.559 60.1592L51.0822 62.3153Z" fill="#FFFEE8"/>
<path d="M47.4668 74.9968L49.4216 74.4941L49.5336 77.6159C49.5336 77.6159 48.0047 77.8407 47.0684 76.9152L47.4668 74.9968Z" fill="#FFFEE8"/>
<path d="M52.1908 73.9678L51.75 76.7086L49.5329 77.6158L49.4209 74.494L52.1908 73.9678Z" fill="#FFFEE8"/>
<path d="M60.2763 47.6033C60.3202 47.8171 60.4701 47.9673 60.6115 47.939C60.7528 47.9106 60.8313 47.7145 60.7874 47.5007C60.7435 47.2869 60.5936 47.1367 60.4523 47.1651C60.3113 47.1938 60.2324 47.3899 60.2763 47.6033Z" fill="#263238"/>
<path d="M60.4502 47.9712C60.4502 47.9712 61.1946 49.1054 61.8575 49.5911C61.548 50.021 60.865 49.9904 60.865 49.9904L60.4502 47.9712Z" fill="#F2E635"/>
<path d="M59.2417 46.5757C59.2104 46.5757 59.1788 46.5643 59.1539 46.5419C59.1014 46.4937 59.0981 46.4127 59.1468 46.3608C59.633 45.8405 60.2226 45.9328 60.2479 45.9372C60.3182 45.949 60.3659 46.0153 60.354 46.0848C60.3417 46.1544 60.2743 46.2007 60.2052 46.1897C60.1858 46.1868 59.7245 46.1198 59.3365 46.5345C59.3112 46.5621 59.2766 46.5757 59.2417 46.5757Z" fill="#263238"/>
<path d="M54.123 50.6094C54.5151 52.587 54.906 56.2111 53.5073 57.5307C53.5073 57.5307 54.0538 59.5371 57.7686 59.5371C61.8535 59.5371 59.7208 57.5311 59.7208 57.5311C57.4914 57.0045 57.5491 55.368 57.9375 53.8316L54.123 50.6094Z" fill="#FFFEE8"/>
<path d="M52.7012 57.8976C52.4025 57.3482 52.0737 56.7193 52.7541 56.5224C53.5025 56.3056 58.3103 55.9038 59.7227 56.3104C59.2886 57.074 60.0233 58.0124 60.0233 58.0124L52.7012 57.8976Z" fill="#263238"/>
<path d="M40.5993 150.101C40.8735 150.159 41.1476 150.175 41.2797 150.064C41.3351 150.017 41.3909 149.928 41.3426 149.767C41.3173 149.682 41.2611 149.618 41.1759 149.578C40.8069 149.404 39.9591 149.746 39.9226 149.76C39.8992 149.77 39.8836 149.792 39.8828 149.818C39.8821 149.843 39.8962 149.866 39.9193 149.877C40.0488 149.939 40.324 150.042 40.5993 150.101ZM41.0439 149.668C41.0718 149.674 41.0974 149.683 41.1197 149.693C41.1711 149.718 41.2034 149.753 41.2183 149.803C41.2529 149.918 41.2098 149.954 41.1956 149.966C41.0487 150.09 40.503 149.976 40.1187 149.824C40.3795 149.733 40.8013 149.616 41.0439 149.668Z" fill="#EBE30D"/>
<path d="M39.9335 149.882C39.9439 149.884 39.9547 149.884 39.9655 149.881C40.2742 149.791 40.9353 149.327 40.9435 149.02C40.945 148.965 40.9252 148.864 40.7779 148.813C40.6823 148.78 40.586 148.788 40.4911 148.836C40.1258 149.02 39.8952 149.769 39.8855 149.801C39.8788 149.823 39.8848 149.847 39.9015 149.864C39.9101 149.873 39.9212 149.879 39.9335 149.882ZM40.7069 148.926C40.7162 148.928 40.7259 148.931 40.7352 148.934C40.8151 148.962 40.814 149 40.8136 149.017C40.8092 149.198 40.3728 149.563 40.0529 149.71C40.1329 149.494 40.3155 149.068 40.5495 148.95C40.6031 148.923 40.6548 148.915 40.7069 148.926Z" fill="#EBE30D"/>
<path d="M60.7761 150.554C61.1269 150.554 61.4658 150.506 61.5792 150.35C61.619 150.296 61.6503 150.203 61.5737 150.071C61.5309 149.996 61.4617 149.946 61.3687 149.921C60.9137 149.799 59.9588 150.337 59.9183 150.36C59.8948 150.373 59.8822 150.399 59.8866 150.426C59.8911 150.452 59.9116 150.473 59.938 150.478C60.1121 150.512 60.4491 150.554 60.7761 150.554ZM61.2095 150.029C61.2552 150.029 61.2973 150.034 61.3345 150.044C61.3944 150.06 61.4356 150.089 61.4613 150.134C61.5071 150.213 61.4903 150.252 61.474 150.275C61.3467 150.45 60.6559 150.454 60.1481 150.383C60.4011 150.254 60.8899 150.029 61.2095 150.029Z" fill="#EBE30D"/>
<path d="M59.9508 150.479C59.9597 150.479 59.9686 150.477 59.9772 150.474C60.3072 150.327 60.9604 149.742 60.9105 149.437C60.8986 149.365 60.8473 149.276 60.6695 149.258C60.5367 149.245 60.4165 149.282 60.3105 149.368C59.9627 149.65 59.8894 150.378 59.886 150.409C59.8838 150.432 59.8939 150.454 59.9128 150.467C59.924 150.475 59.9374 150.479 59.9508 150.479ZM60.6174 149.383C60.6301 149.383 60.6431 149.384 60.6565 149.385C60.7729 149.397 60.7803 149.442 60.7826 149.457C60.8127 149.64 60.3685 150.1 60.0319 150.3C60.0668 150.087 60.1643 149.652 60.3927 149.467C60.4615 149.41 60.5352 149.383 60.6174 149.383Z" fill="#EBE30D"/>
<path d="M56.9453 150.415H59.6784L59.9503 144.154H57.2176L56.9453 150.415Z" fill="#FFFEE8"/>
<path d="M36.8872 149.164L39.5582 149.736L42.2395 143.905L39.5686 143.333L36.8872 149.164Z" fill="#FFFEE8"/>
<path d="M39.815 149.471L36.8144 148.828C36.705 148.805 36.5942 148.859 36.5477 148.96L35.5061 151.196C35.3982 151.427 35.541 151.699 35.7944 151.749C36.8457 151.955 37.3679 152.004 38.6878 152.286C39.4995 152.46 41.3323 152.902 42.4536 153.142C43.5502 153.377 43.9609 152.317 43.5238 152.119C41.5634 151.233 40.7442 150.453 40.2137 149.726C40.1174 149.595 39.9745 149.505 39.815 149.471Z" fill="#263238"/>
<path d="M59.66 150.102H56.6754C56.5638 150.102 56.4671 150.179 56.4426 150.287L55.9028 152.69C55.847 152.939 56.0382 153.175 56.296 153.171C57.3726 153.153 58.9283 153.09 60.2812 153.09C61.8634 153.09 63.2297 153.176 65.0852 153.176C66.2072 153.176 66.5186 152.054 66.0487 151.952C63.9108 151.489 62.1654 151.44 60.3177 150.313C60.1176 150.19 59.8958 150.102 59.66 150.102Z" fill="#263238"/>
<path d="M48.6145 58.1417C46.0533 58.7227 43.9414 65.1911 43.9414 65.1911L49.0851 69.0694C49.0851 69.0694 50.9729 67.3085 51.8129 64.0731C52.6931 60.6827 51.2334 57.5477 48.6145 58.1417Z" fill="#EBE30D"/>
<path opacity="0.2" d="M48.6145 58.1417C46.0533 58.7227 43.9414 65.1911 43.9414 65.1911L49.0851 69.0694C49.0851 69.0694 50.9729 67.3085 51.8129 64.0731C52.6931 60.6827 51.2334 57.5477 48.6145 58.1417Z" fill="#FAFAFA"/>
<path opacity="0.2" d="M50.8094 62.8984C49.4182 64.26 48.9643 66.7404 48.8564 68.8968L49.0834 69.0698C49.0834 69.0698 50.9731 67.3071 51.8138 64.0724C51.8659 63.87 51.9106 63.6676 51.9478 63.4688L50.8094 62.8984Z" fill="black"/>
<path d="M63.9243 58.2808C63.9243 58.2808 66.833 61.531 64.0861 81.6477C59.682 81.6477 51.6122 81.6477 49.4691 81.6477C49.3683 79.4279 50.7782 68.5999 48.6143 58.1413C48.6143 58.1413 51.1197 57.6438 53.5075 57.5301C55.3754 57.441 58.0791 57.3821 59.7211 57.5304C61.8854 57.7259 63.9243 58.2808 63.9243 58.2808Z" fill="#EBE30D"/>
<path opacity="0.2" d="M63.9243 58.2808C63.9243 58.2808 66.833 61.531 64.0861 81.6477C59.682 81.6477 51.6122 81.6477 49.4691 81.6477C49.3683 79.4279 50.7782 68.5999 48.6143 58.1413C48.6143 58.1413 51.1197 57.6438 53.5075 57.5301C55.3754 57.441 58.0791 57.3821 59.7211 57.5304C61.8854 57.7259 63.9243 58.2808 63.9243 58.2808Z" fill="#FAFAFA"/>
<path opacity="0.2" d="M65.2022 64.4297L65.1464 64.3818L61.8245 65.1694C61.6348 67.3921 63.9449 70.049 65.1353 71.2634C65.299 68.4262 65.2952 66.1887 65.2022 64.4297Z" fill="black"/>
<path opacity="0.2" d="M59.9498 144.156L59.8099 147.383H57.0757L57.2156 144.156H59.9498Z" fill="black"/>
<path opacity="0.2" d="M39.5675 143.334L42.2396 143.906L40.8558 146.912L38.1841 146.339L39.5675 143.334Z" fill="black"/>
<path d="M52.9782 48.599C53.6802 51.1905 53.9581 52.7427 55.5748 53.8202C58.0066 55.4412 61.0343 53.581 61.1291 50.8339C61.2143 48.3613 60.0518 44.5385 57.2406 44.0163C54.4707 43.5022 52.2763 46.0076 52.9782 48.599Z" fill="#FFFEE8"/>
<path d="M54.181 52.8254C55.2948 53.4561 59.3559 51.3486 58.5219 48.1544C58.5219 48.1544 60.069 46.314 59.8942 44.283C59.7194 42.252 58.3102 41.4781 56.8111 41.9138C55.4897 42.298 55.528 43.0138 55.528 43.0138C55.528 43.0138 49.2829 43.7409 50.6158 46.2522C48.0739 48.9938 52.7909 52.0382 54.181 52.8254Z" fill="#263238"/>
<path d="M50.791 46.461C50.791 46.461 50.047 45.1873 48.9619 45.9005C49.4738 45.9079 50.3108 45.9944 50.791 46.461Z" fill="#263238"/>
<path d="M59.6953 45.6213C59.6953 45.6213 61.0565 42.582 58.9346 41.6035C59.6499 42.5883 60.039 44.178 59.6953 45.6213Z" fill="#263238"/>
<path d="M57.4358 48.7076C57.614 49.3877 58.0659 49.9728 58.5388 50.3206C59.25 50.8439 59.7812 50.3287 59.7306 49.5327C59.6853 48.8162 59.2604 47.6802 58.4759 47.4678C57.7025 47.2588 57.2319 47.93 57.4358 48.7076Z" fill="#FFFEE8"/>
<path d="M58.9008 81.6479C58.9008 81.6479 55.7994 102.308 54.0968 110.048C52.2323 118.524 42.2345 146.567 42.2345 146.567L37.3423 145.519C37.3423 145.519 44.3333 122.666 45.8983 110.817C47.1002 101.715 49.4691 81.6479 49.4691 81.6479H58.9008Z" fill="#7B783D"/>
<path d="M43.4056 144.952C43.4265 144.956 42.4939 146.702 42.4939 146.702L36.9897 145.524L37.4536 143.887L43.4056 144.952Z" fill="#EBE30D"/>
<path opacity="0.3" d="M56.9407 89.0091C53.3546 89.7046 53.734 102.934 54.1655 109.739C55.1997 104.929 56.7137 95.6735 57.7479 89.1047C57.5098 88.987 57.242 88.9502 56.9407 89.0091Z" fill="black"/>
<path d="M64.086 81.6479C64.086 81.6479 64.4625 101.861 64.1653 110.105C63.8561 118.681 60.8284 146.759 60.8284 146.759H56.1989C56.1989 146.759 56.0289 119.182 55.8232 110.76C55.5985 101.579 54.478 81.6483 54.478 81.6483H64.086V81.6479Z" fill="#7B783D"/>
<path opacity="0.4" d="M89.7868 67.3979H80.3559L79.8291 76.8865L89.2463 77.1356L89.7868 67.3979Z" fill="#263238"/>
<path d="M84.8297 73.5026C81.6815 73.1184 78.5333 72.7338 75.3843 72.3496C76.1476 69.1852 76.7157 65.9987 77.0869 62.8066C80.2541 63.1923 83.4213 63.5776 86.5878 63.9633C86.1983 67.1549 85.6117 70.3407 84.8297 73.5026Z" fill="#EBE30D"/>
<path d="M61.7188 144.934C61.74 144.934 61.4577 146.836 61.4577 146.836H55.826L55.6738 145.139L61.7188 144.934Z" fill="#EBE30D"/>
<path d="M65.2723 60.7471C65.6922 61.3944 66.1714 62.1215 66.6494 62.7931C67.1371 63.4706 67.624 64.1481 68.137 64.7991C69.1537 66.1026 70.2318 67.3549 71.3928 68.3941C71.6803 68.6572 71.9746 68.9008 72.2718 69.1257L72.495 69.292C72.4749 69.2803 72.4039 69.2567 72.3641 69.2475C72.267 69.2291 72.2197 69.2457 72.2458 69.2589C72.3023 69.288 72.5742 69.2416 72.8581 69.1198C73.1464 68.9987 73.4741 68.8346 73.7989 68.6366C75.1072 67.8344 76.4583 66.7135 77.7283 65.6242L79.3246 66.8997C78.3343 68.478 77.2443 69.9055 75.747 71.2174C75.3665 71.5409 74.9591 71.8621 74.4685 72.1481C73.9752 72.4296 73.4146 72.7177 72.5917 72.8377C72.1807 72.8907 71.6829 72.8804 71.1692 72.7185C70.9185 72.6449 70.6536 72.5139 70.4464 72.388L70.1239 72.186C69.6979 71.9133 69.2928 71.6259 68.9082 71.326C67.37 70.1204 66.0858 68.761 64.9014 67.3471C64.3184 66.634 63.7534 65.9123 63.2296 65.1627C62.6995 64.4054 62.2018 63.6811 61.7085 62.8377L65.2723 60.7471Z" fill="#FFFEE8"/>
<path d="M59.9041 62.3703C59.0299 65.9947 65.6594 69.5441 65.6594 69.5441L69.9653 64.5533C69.9653 64.5533 68.0048 61.6144 65.566 59.299C62.5535 56.4389 60.5693 59.6114 59.9041 62.3703Z" fill="#EBE30D"/>
<path opacity="0.2" d="M59.9041 62.3703C59.0299 65.9947 65.6594 69.5441 65.6594 69.5441L69.9653 64.5533C69.9653 64.5533 68.0048 61.6144 65.566 59.299C62.5535 56.4389 60.5693 59.6114 59.9041 62.3703Z" fill="#FAFAFA"/>
<path d="M77.2954 66.3784L78.3117 63.1499L80.9864 64.4684C80.9864 64.4684 80.5965 66.824 78.6499 67.2325L77.2954 66.3784Z" fill="#FFFEE8"/>
<path d="M79.3844 62.2549L81.7964 62.9114L80.9862 64.468L78.3115 63.1499L79.3844 62.2549Z" fill="#FFFEE8"/>
</svg>
