<svg width="260" height="230" viewBox="0 0 260 230" fill="none" xmlns="http://www.w3.org/2000/svg">
<path d="M176.242 139.778L151.989 115.556C159.018 107.126 162.524 96.313 161.775 85.3669C161.027 74.4208 156.083 64.1841 147.972 56.7865C139.861 49.3888 129.207 45.3997 118.227 45.649C107.246 45.8983 96.7845 50.3668 89.0181 58.1249C81.2518 65.883 76.7785 76.3334 76.529 87.3022C76.2794 98.271 80.2728 108.914 87.6783 117.016C95.0838 125.119 105.331 130.057 116.289 130.805C127.247 131.552 138.071 128.051 146.511 121.029L170.758 145.255C171.118 145.615 171.546 145.9 172.016 146.095C172.487 146.29 172.991 146.39 173.5 146.39C174.009 146.39 174.513 146.29 174.984 146.095C175.454 145.9 175.882 145.615 176.242 145.255C176.602 144.896 176.887 144.469 177.082 143.999C177.277 143.529 177.377 143.025 177.377 142.517C177.377 142.008 177.277 141.505 177.082 141.035C176.887 140.565 176.602 140.138 176.242 139.778ZM84.375 88.3246C84.375 81.4343 86.4204 74.6987 90.2525 68.9697C94.0846 63.2406 99.5313 58.7754 105.904 56.1386C112.276 53.5018 119.289 52.8119 126.054 54.1561C132.819 55.5003 139.033 58.8183 143.91 63.6905C148.788 68.5626 152.109 74.7701 153.455 81.528C154.801 88.2859 154.11 95.2906 151.47 101.656C148.831 108.022 144.361 113.463 138.626 117.291C132.89 121.119 126.148 123.162 119.25 123.162C110.004 123.152 101.139 119.478 94.601 112.947C88.0629 106.416 84.3853 97.561 84.375 88.3246Z" fill="#D3D5D7"/>
<path d="M161.836 39.5498C159.363 36.6967 156.58 34.1276 153.538 31.89C153.268 31.7015 152.947 31.6004 152.619 31.6004C152.29 31.6004 151.969 31.7015 151.7 31.89C148.663 34.1285 145.885 36.6976 143.417 39.5498C137.913 45.8636 135.008 52.5195 135.008 58.7993C135.008 63.467 136.865 67.9435 140.169 71.2441C143.473 74.5446 147.954 76.3989 152.627 76.3989C157.299 76.3989 161.781 74.5446 165.085 71.2441C168.389 67.9435 170.245 63.467 170.245 58.7993C170.245 52.5195 167.34 45.8636 161.836 39.5498ZM163.808 60.6673C163.393 62.9846 162.277 65.1192 160.61 66.7837C158.944 68.4482 156.807 69.5627 154.487 69.977C154.401 69.9907 154.315 69.9981 154.228 69.999C153.827 69.9989 153.44 69.848 153.144 69.5762C152.848 69.3043 152.666 68.9315 152.633 68.5315C152.599 68.1316 152.718 67.7337 152.964 67.4169C153.211 67.1001 153.568 66.8874 153.964 66.8211C157.282 66.2631 160.096 63.4512 160.659 60.1313C160.73 59.7128 160.965 59.3396 161.311 59.094C161.658 58.8483 162.088 58.7502 162.507 58.8213C162.926 58.8924 163.299 59.1268 163.545 59.473C163.791 59.8192 163.889 60.2488 163.818 60.6673H163.808Z" fill="#D3D5D7"/>
<path d="M114.699 86.9295L101.355 92.0175V88.7215L111.531 85.0415V84.7535L101.355 81.0735V77.8095L114.699 82.8975V86.9295Z" fill="#D3D5D7"/>
<path d="M123.323 82.8975L136.667 77.8095V81.1055L126.491 84.7855V85.0735L136.667 88.7535V92.0175L123.323 86.9295V82.8975Z" fill="#D3D5D7"/>
<path d="M107.791 162.2C106.524 162.2 105.417 161.92 104.471 161.36C103.537 160.787 102.811 159.987 102.291 158.96C101.784 157.92 101.531 156.7 101.531 155.3C101.531 153.9 101.784 152.687 102.291 151.66C102.811 150.62 103.537 149.82 104.471 149.26C105.417 148.687 106.524 148.4 107.791 148.4C109.071 148.4 110.177 148.687 111.111 149.26C112.044 149.82 112.764 150.62 113.271 151.66C113.777 152.687 114.031 153.9 114.031 155.3C114.031 156.7 113.777 157.92 113.271 158.96C112.764 159.987 112.044 160.787 111.111 161.36C110.177 161.92 109.071 162.2 107.791 162.2ZM107.791 160.1C108.724 160.1 109.477 159.947 110.051 159.64C110.624 159.32 111.044 158.807 111.311 158.1C111.591 157.393 111.731 156.46 111.731 155.3C111.731 154.127 111.591 153.193 111.311 152.5C111.044 151.793 110.624 151.28 110.051 150.96C109.477 150.64 108.724 150.48 107.791 150.48C106.871 150.48 106.117 150.64 105.531 150.96C104.944 151.28 104.511 151.793 104.231 152.5C103.964 153.193 103.831 154.127 103.831 155.3C103.831 156.46 103.964 157.393 104.231 158.1C104.511 158.807 104.944 159.32 105.531 159.64C106.117 159.947 106.871 160.1 107.791 160.1ZM120.376 162.2C119.363 162.2 118.483 161.987 117.736 161.56C116.989 161.12 116.416 160.513 116.016 159.74C115.616 158.953 115.416 158.047 115.416 157.02C115.416 155.993 115.616 155.093 116.016 154.32C116.416 153.547 116.989 152.947 117.736 152.52C118.483 152.08 119.363 151.86 120.376 151.86C121.389 151.86 122.256 152.08 122.976 152.52C123.709 152.947 124.269 153.547 124.656 154.32C125.056 155.093 125.256 155.993 125.256 157.02C125.256 158.047 125.056 158.953 124.656 159.74C124.269 160.513 123.709 161.12 122.976 161.56C122.256 161.987 121.389 162.2 120.376 162.2ZM120.376 160.28C121.416 160.28 122.143 160.02 122.556 159.5C122.969 158.967 123.176 158.14 123.176 157.02C123.176 155.9 122.969 155.08 122.556 154.56C122.143 154.04 121.416 153.78 120.376 153.78C119.323 153.78 118.589 154.04 118.176 154.56C117.763 155.08 117.556 155.9 117.556 157.02C117.556 158.14 117.763 158.967 118.176 159.5C118.589 160.02 119.323 160.28 120.376 160.28ZM132.311 162.2C131.417 162.2 130.691 162.027 130.131 161.68C129.584 161.32 129.204 160.913 128.991 160.46H128.451L128.551 157.92H128.931C128.931 158.467 129.031 158.92 129.231 159.28C129.444 159.64 129.757 159.913 130.171 160.1C130.584 160.273 131.077 160.36 131.651 160.36C132.117 160.36 132.524 160.3 132.871 160.18C133.217 160.06 133.497 159.873 133.711 159.62C133.937 159.367 134.097 159.027 134.191 158.6C134.297 158.16 134.351 157.633 134.351 157.02C134.351 156.407 134.297 155.893 134.191 155.48C134.097 155.053 133.937 154.707 133.711 154.44C133.497 154.173 133.217 153.987 132.871 153.88C132.537 153.76 132.131 153.7 131.651 153.7C131.077 153.7 130.584 153.793 130.171 153.98C129.757 154.153 129.444 154.42 129.231 154.78C129.031 155.127 128.931 155.58 128.931 156.14H128.551L128.451 153.7H128.851C129.091 153.127 129.484 152.68 130.031 152.36C130.591 152.027 131.304 151.86 132.171 151.86C133.571 151.86 134.644 152.327 135.391 153.26C136.137 154.193 136.511 155.447 136.511 157.02C136.511 158.593 136.151 159.853 135.431 160.8C134.711 161.733 133.671 162.2 132.311 162.2ZM128.931 165.46H126.791V152.06H128.751V154.42L128.931 154.68V165.46ZM142.515 162.2C141.062 162.2 139.962 161.913 139.215 161.34C138.469 160.753 138.095 159.853 138.095 158.64V158.6H140.175V158.96C140.175 159.307 140.242 159.593 140.375 159.82C140.522 160.033 140.762 160.193 141.095 160.3C141.442 160.393 141.929 160.44 142.555 160.44C143.089 160.44 143.489 160.4 143.755 160.32C144.035 160.227 144.222 160.1 144.315 159.94C144.409 159.78 144.455 159.58 144.455 159.34C144.455 158.94 144.315 158.66 144.035 158.5C143.755 158.327 143.255 158.173 142.535 158.04L140.975 157.78C140.389 157.66 139.875 157.493 139.435 157.28C139.009 157.053 138.675 156.747 138.435 156.36C138.209 155.96 138.095 155.46 138.095 154.86C138.095 153.967 138.449 153.247 139.155 152.7C139.862 152.14 140.862 151.86 142.155 151.86C142.942 151.86 143.642 151.987 144.255 152.24C144.869 152.493 145.355 152.873 145.715 153.38C146.075 153.887 146.255 154.52 146.255 155.28V155.46H144.195V155.22C144.195 154.9 144.142 154.627 144.035 154.4C143.929 154.16 143.729 153.973 143.435 153.84C143.142 153.707 142.695 153.64 142.095 153.64C141.309 153.64 140.789 153.74 140.535 153.94C140.282 154.14 140.155 154.433 140.155 154.82C140.155 155.207 140.269 155.48 140.495 155.64C140.735 155.787 141.202 155.933 141.895 156.08L143.595 156.4C144.235 156.52 144.769 156.7 145.195 156.94C145.622 157.18 145.942 157.493 146.155 157.88C146.382 158.267 146.495 158.727 146.495 159.26C146.495 160.193 146.142 160.92 145.435 161.44C144.742 161.947 143.769 162.2 142.515 162.2ZM150.538 162H147.798V158.9H150.538V162ZM154.542 162H151.802V158.9H154.542V162ZM158.546 162H155.806V158.9H158.546V162Z" fill="#D3D5D7"/>
<path d="M28.82 186H26.68V172.6H28.82V186ZM33.38 174.54H22.12V172.6H33.38V174.54ZM43.6872 186H41.5272V180.22C41.5272 179.34 41.3539 178.707 41.0072 178.32C40.6739 177.92 40.0539 177.72 39.1472 177.72C38.2805 177.72 37.6339 177.913 37.2072 178.3C36.7939 178.673 36.5872 179.333 36.5872 180.28H36.2072L36.1872 177.72H36.6672C36.8272 177.413 37.0472 177.12 37.3272 176.84C37.6205 176.547 37.9872 176.313 38.4272 176.14C38.8805 175.953 39.4005 175.86 39.9872 175.86C40.8672 175.86 41.5739 176.033 42.1072 176.38C42.6539 176.713 43.0539 177.173 43.3072 177.76C43.5605 178.347 43.6872 179.007 43.6872 179.74V186ZM36.5872 186H34.4272V172.6H36.5872V186ZM50.1948 186.2C49.1148 186.2 48.2148 185.987 47.4948 185.56C46.7748 185.12 46.2415 184.513 45.8948 183.74C45.5482 182.953 45.3748 182.047 45.3748 181.02C45.3748 179.993 45.5682 179.093 45.9548 178.32C46.3548 177.547 46.9148 176.947 47.6348 176.52C48.3548 176.08 49.2082 175.86 50.1948 175.86C51.0882 175.86 51.8748 176.033 52.5548 176.38C53.2482 176.713 53.7815 177.2 54.1548 177.84C54.5415 178.48 54.7348 179.253 54.7348 180.16C54.7348 180.427 54.7215 180.687 54.6948 180.94C54.6815 181.18 54.6615 181.38 54.6348 181.54H46.3948V180.1H52.8748L52.6548 180.3C52.7082 179.687 52.6415 179.187 52.4548 178.8C52.2815 178.413 51.9948 178.127 51.5948 177.94C51.2082 177.753 50.7215 177.66 50.1348 177.66C49.0815 177.66 48.3615 177.927 47.9748 178.46C47.5882 178.98 47.3948 179.7 47.3948 180.62V181.22C47.3948 181.887 47.4748 182.453 47.6348 182.92C47.8082 183.373 48.1015 183.713 48.5148 183.94C48.9282 184.167 49.4948 184.28 50.2148 184.28C51.0548 184.28 51.6482 184.147 51.9948 183.88C52.3415 183.613 52.5148 183.26 52.5148 182.82V182.66H54.6548V182.84C54.6548 183.52 54.4682 184.113 54.0948 184.62C53.7215 185.113 53.2015 185.5 52.5348 185.78C51.8815 186.06 51.1015 186.2 50.1948 186.2ZM58.6184 186H56.4584V176H58.4384V178.78L58.6184 178.88V186ZM58.6184 179.52H58.1184V177.58H58.5384C58.7384 177.113 59.0651 176.713 59.5184 176.38C59.9851 176.033 60.5851 175.86 61.3184 175.86C62.0251 175.86 62.5851 176.013 62.9984 176.32C63.4251 176.627 63.7318 177.033 63.9184 177.54C64.1051 178.047 64.1984 178.613 64.1984 179.24V179.9H62.0384V179.5C62.0384 178.833 61.9251 178.367 61.6984 178.1C61.4718 177.833 61.0451 177.7 60.4184 177.7C59.7651 177.7 59.2984 177.84 59.0184 178.12C58.7518 178.387 58.6184 178.853 58.6184 179.52ZM69.9995 186.2C68.9195 186.2 68.0195 185.987 67.2995 185.56C66.5795 185.12 66.0462 184.513 65.6995 183.74C65.3529 182.953 65.1795 182.047 65.1795 181.02C65.1795 179.993 65.3729 179.093 65.7595 178.32C66.1595 177.547 66.7195 176.947 67.4395 176.52C68.1595 176.08 69.0129 175.86 69.9995 175.86C70.8929 175.86 71.6795 176.033 72.3595 176.38C73.0529 176.713 73.5862 177.2 73.9595 177.84C74.3462 178.48 74.5395 179.253 74.5395 180.16C74.5395 180.427 74.5262 180.687 74.4995 180.94C74.4862 181.18 74.4662 181.38 74.4395 181.54H66.1995V180.1H72.6795L72.4595 180.3C72.5129 179.687 72.4462 179.187 72.2595 178.8C72.0862 178.413 71.7995 178.127 71.3995 177.94C71.0129 177.753 70.5262 177.66 69.9395 177.66C68.8862 177.66 68.1662 177.927 67.7795 178.46C67.3929 178.98 67.1995 179.7 67.1995 180.62V181.22C67.1995 181.887 67.2795 182.453 67.4395 182.92C67.6129 183.373 67.9062 183.713 68.3195 183.94C68.7329 184.167 69.2995 184.28 70.0195 184.28C70.8595 184.28 71.4529 184.147 71.7995 183.88C72.1462 183.613 72.3195 183.26 72.3195 182.82V182.66H74.4595V182.84C74.4595 183.52 74.2729 184.113 73.8995 184.62C73.5262 185.113 73.0062 185.5 72.3395 185.78C71.6862 186.06 70.9062 186.2 69.9995 186.2ZM82.1503 174.8H80.0103L79.9903 172.6H82.1503V174.8ZM82.1703 186H80.0103V176H82.1703V186ZM88.2752 186.2C86.8218 186.2 85.7218 185.913 84.9752 185.34C84.2285 184.753 83.8552 183.853 83.8552 182.64V182.6H85.9352V182.96C85.9352 183.307 86.0018 183.593 86.1352 183.82C86.2818 184.033 86.5218 184.193 86.8552 184.3C87.2018 184.393 87.6885 184.44 88.3152 184.44C88.8485 184.44 89.2485 184.4 89.5152 184.32C89.7952 184.227 89.9818 184.1 90.0752 183.94C90.1685 183.78 90.2152 183.58 90.2152 183.34C90.2152 182.94 90.0752 182.66 89.7952 182.5C89.5152 182.327 89.0152 182.173 88.2952 182.04L86.7352 181.78C86.1485 181.66 85.6352 181.493 85.1952 181.28C84.7685 181.053 84.4352 180.747 84.1952 180.36C83.9685 179.96 83.8552 179.46 83.8552 178.86C83.8552 177.967 84.2085 177.247 84.9152 176.7C85.6218 176.14 86.6218 175.86 87.9152 175.86C88.7018 175.86 89.4018 175.987 90.0152 176.24C90.6285 176.493 91.1152 176.873 91.4752 177.38C91.8352 177.887 92.0152 178.52 92.0152 179.28V179.46H89.9552V179.22C89.9552 178.9 89.9018 178.627 89.7952 178.4C89.6885 178.16 89.4885 177.973 89.1952 177.84C88.9018 177.707 88.4552 177.64 87.8552 177.64C87.0685 177.64 86.5485 177.74 86.2952 177.94C86.0418 178.14 85.9152 178.433 85.9152 178.82C85.9152 179.207 86.0285 179.48 86.2552 179.64C86.4952 179.787 86.9618 179.933 87.6552 180.08L89.3552 180.4C89.9952 180.52 90.5285 180.7 90.9552 180.94C91.3818 181.18 91.7018 181.493 91.9152 181.88C92.1418 182.267 92.2552 182.727 92.2552 183.26C92.2552 184.193 91.9018 184.92 91.1952 185.44C90.5018 185.947 89.5285 186.2 88.2752 186.2ZM107.027 186H104.867V180.22C104.867 179.34 104.7 178.707 104.367 178.32C104.034 177.92 103.407 177.72 102.487 177.72C101.9 177.72 101.42 177.807 101.047 177.98C100.674 178.14 100.394 178.407 100.207 178.78C100.02 179.14 99.927 179.633 99.927 180.26H99.547L99.367 177.92H99.847C99.9937 177.56 100.214 177.227 100.507 176.92C100.8 176.613 101.174 176.36 101.627 176.16C102.094 175.96 102.647 175.86 103.287 175.86C104.154 175.86 104.86 176.027 105.407 176.36C105.954 176.693 106.36 177.153 106.627 177.74C106.894 178.327 107.027 179 107.027 179.76V186ZM99.927 186H97.767V176.06H99.747V179.04L99.927 179.14V186ZM113.616 186.2C112.603 186.2 111.723 185.987 110.976 185.56C110.229 185.12 109.656 184.513 109.256 183.74C108.856 182.953 108.656 182.047 108.656 181.02C108.656 179.993 108.856 179.093 109.256 178.32C109.656 177.547 110.229 176.947 110.976 176.52C111.723 176.08 112.603 175.86 113.616 175.86C114.629 175.86 115.496 176.08 116.216 176.52C116.949 176.947 117.509 177.547 117.896 178.32C118.296 179.093 118.496 179.993 118.496 181.02C118.496 182.047 118.296 182.953 117.896 183.74C117.509 184.513 116.949 185.12 116.216 185.56C115.496 185.987 114.629 186.2 113.616 186.2ZM113.616 184.28C114.656 184.28 115.383 184.02 115.796 183.5C116.209 182.967 116.416 182.14 116.416 181.02C116.416 179.9 116.209 179.08 115.796 178.56C115.383 178.04 114.656 177.78 113.616 177.78C112.563 177.78 111.829 178.04 111.416 178.56C111.003 179.08 110.796 179.9 110.796 181.02C110.796 182.14 111.003 182.967 111.416 183.5C111.829 184.02 112.563 184.28 113.616 184.28ZM124.173 186C123.08 186 122.24 185.767 121.653 185.3C121.08 184.833 120.793 184.047 120.793 182.94V176.28L121.293 173.6H122.953V182.84C122.953 183.36 123.08 183.693 123.333 183.84C123.6 183.973 124.073 184.04 124.753 184.04H125.953V185.82C125.753 185.873 125.493 185.92 125.173 185.96C124.853 185.987 124.52 186 124.173 186ZM125.953 177.86H119.133V176.06H125.953V177.86ZM136.754 186H134.594V180.22C134.594 179.34 134.42 178.707 134.074 178.32C133.74 177.92 133.12 177.72 132.214 177.72C131.347 177.72 130.7 177.913 130.274 178.3C129.86 178.673 129.654 179.333 129.654 180.28H129.274L129.254 177.72H129.734C129.894 177.413 130.114 177.12 130.394 176.84C130.687 176.547 131.054 176.313 131.494 176.14C131.947 175.953 132.467 175.86 133.054 175.86C133.934 175.86 134.64 176.033 135.174 176.38C135.72 176.713 136.12 177.173 136.374 177.76C136.627 178.347 136.754 179.007 136.754 179.74V186ZM129.654 186H127.494V172.6H129.654V186ZM140.9 174.8H138.76L138.74 172.6H140.9V174.8ZM140.92 186H138.76V176H140.92V186ZM152.164 186H150.004V180.22C150.004 179.34 149.837 178.707 149.504 178.32C149.17 177.92 148.544 177.72 147.624 177.72C147.037 177.72 146.557 177.807 146.184 177.98C145.81 178.14 145.53 178.407 145.344 178.78C145.157 179.14 145.064 179.633 145.064 180.26H144.684L144.504 177.92H144.984C145.13 177.56 145.35 177.227 145.644 176.92C145.937 176.613 146.31 176.36 146.764 176.16C147.23 175.96 147.784 175.86 148.424 175.86C149.29 175.86 149.997 176.027 150.544 176.36C151.09 176.693 151.497 177.153 151.764 177.74C152.03 178.327 152.164 179 152.164 179.76V186ZM145.064 186H142.904V176.06H144.884V179.04L145.064 179.14V186ZM158.893 189.6C157.959 189.6 157.146 189.453 156.453 189.16C155.773 188.867 155.246 188.44 154.873 187.88C154.499 187.333 154.313 186.66 154.313 185.86H156.473C156.473 186.313 156.539 186.673 156.673 186.94C156.806 187.207 157.053 187.393 157.413 187.5C157.773 187.62 158.286 187.68 158.953 187.68C159.606 187.68 160.106 187.607 160.453 187.46C160.799 187.313 161.039 187.067 161.173 186.72C161.306 186.373 161.373 185.893 161.373 185.28V178.68L161.533 178.42V176.06H163.533V185.28C163.533 186.253 163.346 187.053 162.973 187.68C162.599 188.32 162.066 188.8 161.373 189.12C160.693 189.44 159.866 189.6 158.893 189.6ZM158.053 185.06C156.679 185.06 155.626 184.647 154.893 183.82C154.159 182.98 153.793 181.86 153.793 180.46C153.793 179.06 154.166 177.947 154.913 177.12C155.659 176.28 156.733 175.86 158.133 175.86C158.946 175.86 159.646 176.027 160.233 176.36C160.819 176.68 161.226 177.127 161.453 177.7H161.853L161.753 180.14H161.373C161.373 179.58 161.259 179.12 161.033 178.76C160.806 178.4 160.486 178.133 160.073 177.96C159.659 177.787 159.179 177.7 158.633 177.7C158.006 177.7 157.493 177.787 157.093 177.96C156.706 178.133 156.419 178.427 156.233 178.84C156.046 179.24 155.953 179.78 155.953 180.46C155.953 180.967 156.006 181.4 156.113 181.76C156.219 182.107 156.386 182.387 156.613 182.6C156.839 182.813 157.126 182.973 157.473 183.08C157.819 183.173 158.219 183.22 158.673 183.22C159.219 183.22 159.693 183.133 160.093 182.96C160.493 182.773 160.806 182.5 161.033 182.14C161.259 181.78 161.373 181.32 161.373 180.76H161.813V183.3H161.293C161.066 183.78 160.673 184.193 160.113 184.54C159.553 184.887 158.866 185.06 158.053 185.06ZM173.587 186C172.494 186 171.654 185.767 171.067 185.3C170.494 184.833 170.207 184.047 170.207 182.94V176.28L170.707 173.6H172.367V182.84C172.367 183.36 172.494 183.693 172.747 183.84C173.014 183.973 173.487 184.04 174.167 184.04H175.367V185.82C175.167 185.873 174.907 185.92 174.587 185.96C174.267 185.987 173.934 186 173.587 186ZM175.367 177.86H168.547V176.06H175.367V177.86ZM181.038 186.2C180.025 186.2 179.145 185.987 178.398 185.56C177.651 185.12 177.078 184.513 176.678 183.74C176.278 182.953 176.078 182.047 176.078 181.02C176.078 179.993 176.278 179.093 176.678 178.32C177.078 177.547 177.651 176.947 178.398 176.52C179.145 176.08 180.025 175.86 181.038 175.86C182.051 175.86 182.918 176.08 183.638 176.52C184.371 176.947 184.931 177.547 185.318 178.32C185.718 179.093 185.918 179.993 185.918 181.02C185.918 182.047 185.718 182.953 185.318 183.74C184.931 184.513 184.371 185.12 183.638 185.56C182.918 185.987 182.051 186.2 181.038 186.2ZM181.038 184.28C182.078 184.28 182.805 184.02 183.218 183.5C183.631 182.967 183.838 182.14 183.838 181.02C183.838 179.9 183.631 179.08 183.218 178.56C182.805 178.04 182.078 177.78 181.038 177.78C179.985 177.78 179.251 178.04 178.838 178.56C178.425 179.08 178.218 179.9 178.218 181.02C178.218 182.14 178.425 182.967 178.838 183.5C179.251 184.02 179.985 184.28 181.038 184.28ZM195.58 186.2C194.127 186.2 193.027 185.913 192.28 185.34C191.533 184.753 191.16 183.853 191.16 182.64V182.6H193.24V182.96C193.24 183.307 193.307 183.593 193.44 183.82C193.587 184.033 193.827 184.193 194.16 184.3C194.507 184.393 194.993 184.44 195.62 184.44C196.153 184.44 196.553 184.4 196.82 184.32C197.1 184.227 197.287 184.1 197.38 183.94C197.473 183.78 197.52 183.58 197.52 183.34C197.52 182.94 197.38 182.66 197.1 182.5C196.82 182.327 196.32 182.173 195.6 182.04L194.04 181.78C193.453 181.66 192.94 181.493 192.5 181.28C192.073 181.053 191.74 180.747 191.5 180.36C191.273 179.96 191.16 179.46 191.16 178.86C191.16 177.967 191.513 177.247 192.22 176.7C192.927 176.14 193.927 175.86 195.22 175.86C196.007 175.86 196.707 175.987 197.32 176.24C197.933 176.493 198.42 176.873 198.78 177.38C199.14 177.887 199.32 178.52 199.32 179.28V179.46H197.26V179.22C197.26 178.9 197.207 178.627 197.1 178.4C196.993 178.16 196.793 177.973 196.5 177.84C196.207 177.707 195.76 177.64 195.16 177.64C194.373 177.64 193.853 177.74 193.6 177.94C193.347 178.14 193.22 178.433 193.22 178.82C193.22 179.207 193.333 179.48 193.56 179.64C193.8 179.787 194.267 179.933 194.96 180.08L196.66 180.4C197.3 180.52 197.833 180.7 198.26 180.94C198.687 181.18 199.007 181.493 199.22 181.88C199.447 182.267 199.56 182.727 199.56 183.26C199.56 184.193 199.207 184.92 198.5 185.44C197.807 185.947 196.833 186.2 195.58 186.2ZM210.504 186H208.344V180.22C208.344 179.34 208.17 178.707 207.824 178.32C207.49 177.92 206.87 177.72 205.964 177.72C205.097 177.72 204.45 177.913 204.024 178.3C203.61 178.673 203.404 179.333 203.404 180.28H203.024L203.004 177.72H203.484C203.644 177.413 203.864 177.12 204.144 176.84C204.437 176.547 204.804 176.313 205.244 176.14C205.697 175.953 206.217 175.86 206.804 175.86C207.684 175.86 208.39 176.033 208.924 176.38C209.47 176.713 209.87 177.173 210.124 177.76C210.377 178.347 210.504 179.007 210.504 179.74V186ZM203.404 186H201.244V172.6H203.404V186ZM217.151 186.2C216.138 186.2 215.258 185.987 214.511 185.56C213.765 185.12 213.191 184.513 212.791 183.74C212.391 182.953 212.191 182.047 212.191 181.02C212.191 179.993 212.391 179.093 212.791 178.32C213.191 177.547 213.765 176.947 214.511 176.52C215.258 176.08 216.138 175.86 217.151 175.86C218.165 175.86 219.031 176.08 219.751 176.52C220.485 176.947 221.045 177.547 221.431 178.32C221.831 179.093 222.031 179.993 222.031 181.02C222.031 182.047 221.831 182.953 221.431 183.74C221.045 184.513 220.485 185.12 219.751 185.56C219.031 185.987 218.165 186.2 217.151 186.2ZM217.151 184.28C218.191 184.28 218.918 184.02 219.331 183.5C219.745 182.967 219.951 182.14 219.951 181.02C219.951 179.9 219.745 179.08 219.331 178.56C218.918 178.04 218.191 177.78 217.151 177.78C216.098 177.78 215.365 178.04 214.951 178.56C214.538 179.08 214.331 179.9 214.331 181.02C214.331 182.14 214.538 182.967 214.951 183.5C215.365 184.02 216.098 184.28 217.151 184.28ZM227.676 186H224.856L222.396 176.06H224.736L225.876 181.58L226.296 184.2H226.456L227.096 181.58L228.836 176.06H231.636L233.396 181.6L234.036 184.18H234.176L234.596 181.6L235.736 176.06H237.996L235.536 186H232.716L230.936 180.46L230.276 177.96H230.136L229.476 180.46L227.676 186Z" fill="#D3D5D7"/>
</svg>
