<svg xmlns="http://www.w3.org/2000/svg" width="198" height="198" viewBox="0 0 198 198" fill="none">
  <path d="M198 151.43H0V151.529H198V151.43Z" fill="#E0E0E0"/>
  <path d="M149.556 155.624H135.932V155.723H149.556V155.624Z" fill="#E0E0E0"/>
  <path d="M43.9718 155.673H36.3057V155.772H43.9718V155.673Z" fill="#E0E0E0"/>
  <path d="M99.3961 155.441H83.8574V155.54H99.3961V155.441Z" fill="#E0E0E0"/>
  <path d="M83.4614 154.033H76.5151V154.132H83.4614V154.033Z" fill="#E0E0E0"/>
  <path d="M168.124 154.083H147.142V154.182H168.124V154.083Z" fill="#E0E0E0"/>
  <path d="M93.8575 133.769H17.3903C16.144 133.769 15.1299 132.755 15.1299 131.508V24.0214C15.1299 22.7751 16.144 21.761 17.3903 21.761H93.8575C95.1033 21.761 96.1174 22.7751 96.1174 24.0214V131.508C96.1174 132.755 95.1033 133.769 93.8575 133.769ZM17.3903 21.8604C16.1983 21.8604 15.2289 22.8298 15.2289 24.0217V131.509C15.2289 132.701 16.1983 133.67 17.3903 133.67H93.8575C95.049 133.67 96.0184 132.701 96.0184 131.509V24.0214C96.0184 22.8298 95.049 21.86 93.8575 21.86L17.3903 21.8604Z" fill="#E0E0E0"/>
  <path d="M179.511 133.769H103.044C101.798 133.769 100.784 132.755 100.784 131.508V24.0214C100.784 22.7751 101.798 21.761 103.044 21.761H179.511C180.757 21.761 181.771 22.7751 181.771 24.0214V131.508C181.771 132.755 180.757 133.769 179.511 133.769ZM103.044 21.8604C101.852 21.8604 100.883 22.8298 100.883 24.0217V131.509C100.883 132.701 101.852 133.67 103.044 133.67H179.511C180.703 133.67 181.672 132.701 181.672 131.509V24.0214C181.672 22.8298 180.703 21.86 179.511 21.86L103.044 21.8604Z" fill="#E0E0E0"/>
  <path d="M173.968 101.573C169.095 94.1571 173.544 86.1832 172.802 77.9337C172.061 69.6843 164.221 67.8833 165.704 60.8911C167.424 52.7838 162.844 45 157.653 45C152.462 45 147.882 52.7838 149.602 60.8911C151.085 67.8833 143.245 69.6843 142.503 77.9337C141.761 86.1832 146.211 94.1567 141.338 101.573C136.465 108.989 137.743 118.812 140.49 123.687C141.247 125.03 142.138 126.219 143.109 127.271C150.903 135.711 164.404 135.711 172.197 127.271C173.168 126.219 174.059 125.03 174.816 123.687C177.562 118.812 178.841 108.989 173.968 101.573Z" fill="#F5F5F5"/>
  <path d="M160.116 151.14H155.189V109.666C155.189 108.311 156.298 107.202 157.653 107.202C159.007 107.202 160.116 108.311 160.116 109.666V151.14Z" fill="#F0F0F0"/>
  <path d="M126.684 151.43H119.977V109.958C119.977 108.113 121.486 106.605 123.33 106.605C125.175 106.605 126.684 108.114 126.684 109.958V151.43Z" fill="#E0E0E0"/>
  <path d="M123.33 140.242C134.74 140.242 143.989 130.993 143.989 119.584C143.989 108.174 134.74 98.925 123.33 98.925C111.921 98.925 102.672 108.174 102.672 119.584C102.672 130.993 111.921 140.242 123.33 140.242Z" fill="#F0F0F0"/>
  <path d="M147.607 113.39C148.691 109.026 146.032 104.61 141.669 103.526C137.305 102.442 132.889 105.1 131.805 109.464C130.721 113.827 133.38 118.244 137.743 119.328C142.107 120.412 146.523 117.753 147.607 113.39Z" fill="#F0F0F0"/>
  <path d="M111.384 107.379C111.812 104.752 110.029 102.275 107.401 101.847C104.774 101.419 102.297 103.202 101.869 105.829C101.441 108.457 103.224 110.934 105.851 111.362C108.479 111.79 110.956 110.007 111.384 107.379Z" fill="#F0F0F0"/>
  <path d="M111.863 107.492C113.732 107.492 115.247 105.977 115.247 104.109C115.247 102.24 113.732 100.726 111.863 100.726C109.995 100.726 108.48 102.24 108.48 104.109C108.48 105.977 109.995 107.492 111.863 107.492Z" fill="#F0F0F0"/>
  <path d="M80.772 126.677C77.3324 127.189 74.3509 128.435 71.7765 130.11C71.7519 126.976 71.1781 123.998 69.705 121.594C67.4624 123.78 65.646 126.606 64.1788 129.646C63.6292 123.931 62.1287 118.393 58.8059 114.894C53.8274 118.025 51.2613 123.245 50.0408 128.773C48.0573 125.23 45.3205 121.961 41.5415 119.584C38.4954 122.792 37.5229 127.228 37.6036 131.771C34.1434 127.743 30.3002 124.598 26.5545 124.228C25.6322 130.61 27.5963 136.626 30.0923 141.37C33.3664 147.592 39.8799 151.43 46.9112 151.43H63.1809C70.1153 151.43 76.6164 147.73 79.8699 141.607C81.9303 137.728 82.9104 132.734 80.772 126.677Z" fill="#F5F5F5"/>
  <path d="M76.1333 44.4071C78.1438 38.5181 76.5479 34.3257 71.6331 34.3257C68.5511 34.3257 64.7293 35.9758 61.0077 38.6627C60.5871 37.1309 59.4031 36.213 57.4979 36.213C54.1454 36.213 49.5241 39.0492 45.8987 43.0507C45.0215 42.1586 43.752 41.6121 42.1208 41.5242C38.9124 41.3436 35.0261 42.9731 31.6474 45.624C31.3548 45.1804 30.8531 44.9021 30.1605 44.8609C28.3115 44.7579 25.8088 46.4029 24.5654 48.5326C24.4878 48.6668 24.4192 48.7955 24.3503 48.9246H28.1908H31.2463H41.8603H47.0835H51.1449H57.4005H58.5358H74.0535H77.109C77.267 47.0678 76.9387 45.5155 76.1333 44.4071Z" fill="#F0F0F0"/>
  <path d="M76.2965 80.1632C77.2786 77.2866 76.4989 75.2385 74.0983 75.2385C72.5928 75.2385 70.726 76.0448 68.9084 77.3571C68.7032 76.6091 68.1247 76.1608 67.1941 76.1608C65.5562 76.1608 63.299 77.546 61.5281 79.5011C61.0996 79.0655 60.4795 78.7982 59.6828 78.7554C58.1154 78.6671 56.2174 79.4635 54.5668 80.758C54.4239 80.5414 54.1788 80.4051 53.8406 80.3853C52.9373 80.335 51.7148 81.1385 51.1074 82.1788C51.0694 82.2442 51.0361 82.3071 51.0024 82.3705H52.8783H54.3708H59.5556H62.1071H64.091H67.147H67.7014H75.2812H76.7737C76.8502 81.4629 76.6898 80.7045 76.2965 80.1632Z" fill="#F0F0F0"/>
  <path d="M135.736 58.4071C135.535 58.3778 135.331 58.3628 135.124 58.3628C135.314 55.4894 134.215 53.6547 131.869 53.6547C130.176 53.6547 128.099 54.6127 125.982 56.2335C126.588 50.6562 124.648 47.0312 120.255 47.0312C116.711 47.0312 112.225 49.389 107.794 53.235C107.406 51.0467 106.1 49.7351 103.906 49.7351C100.053 49.7351 94.5767 53.7874 90.1858 59.5049C90.1858 59.5049 90.1842 59.5124 90.1803 59.5049C89.2318 58.2301 87.8062 57.4417 85.9328 57.3166C82.2634 57.0588 77.7071 59.3868 73.6675 63.1813C73.3602 62.5402 72.8006 62.1426 72.0003 62.0907C69.9938 61.9506 67.2285 64.043 65.6223 66.8431H70.3034H73.477H85.6809H91.3964H96.4858H103.714H117.372H122.695H124.589H132.167H138.965C140.687 62.5996 139.316 58.8863 135.736 58.4071Z" fill="#F0F0F0"/>
  <path d="M99 169.314C141.404 169.314 175.78 167.307 175.78 164.83C175.78 162.354 141.404 160.346 99 160.346C56.5956 160.346 22.22 162.354 22.22 164.83C22.22 167.307 56.5956 169.314 99 169.314Z" fill="#F5F5F5"/>
  <path d="M19.3469 59.6226L109.623 72.6173L121.739 84.8438L19.3469 59.6226Z" fill="#F2935C"/>
  <path opacity="0.6" d="M19.3469 59.6226L109.623 72.6173L121.739 84.8438L19.3469 59.6226Z" fill="white"/>
  <path d="M19.3469 59.6226L109.623 72.6173L105.434 90.2967L19.3469 59.6226Z" fill="#F2935C"/>
  <path opacity="0.2" d="M19.3469 59.6226L109.623 72.6173L105.434 90.2967L19.3469 59.6226Z" fill="black"/>
  <path d="M103.58 39.155L108.822 63.7177C109.106 65.0479 108.25 66.3685 106.919 66.6524L60.1602 76.6313C58.83 76.9152 57.5094 76.059 57.2254 74.7289L51.9836 50.1662C51.8351 49.4708 51.9986 48.7762 52.378 48.2317C52.7257 47.7383 53.2512 47.3669 53.886 47.2314L100.645 37.2526C101.28 37.1172 101.912 37.2415 102.43 37.55C102.999 37.8922 103.432 38.4596 103.58 39.155Z" fill="#F2935C"/>
  <path opacity="0.4" d="M103.58 39.155L108.822 63.7177C109.106 65.0479 108.25 66.3685 106.919 66.6524L60.1602 76.6313C58.83 76.9152 57.5094 76.059 57.2254 74.7289L51.9836 50.1662C51.8351 49.4708 51.9986 48.7762 52.378 48.2317C52.7257 47.7383 53.2512 47.3669 53.886 47.2314L100.645 37.2526C101.28 37.1172 101.912 37.2415 102.43 37.55C102.999 37.8922 103.432 38.4596 103.58 39.155Z" fill="black"/>
  <path d="M102.431 37.5499L86.8055 56.7289C83.8217 60.3919 78.6899 61.4869 74.4705 59.3611L52.3777 48.2312C52.7254 47.7377 53.2509 47.3663 53.8857 47.2309L100.645 37.2521C101.281 37.1166 101.912 37.2414 102.431 37.5499Z" fill="#F2935C"/>
  <path d="M19.3469 59.6226L93.808 77.3178L105.434 90.2967L19.3469 59.6226Z" fill="#F2935C"/>
  <path opacity="0.6" d="M19.3469 59.6226L93.808 77.3178L105.434 90.2967L19.3469 59.6226Z" fill="white"/>
  <path d="M46.5073 76.6863L46.3069 77.0283L54.5913 81.882L54.7917 81.54L46.5073 76.6863Z" fill="#F2935C"/>
  <path d="M58.4518 83.6822L58.2515 84.0242L61.2318 85.7703L61.4322 85.4283L58.4518 83.6822Z" fill="#F2935C"/>
  <path d="M19.3469 59.6226L93.808 77.3178L79.3346 94.764L19.3469 59.6226Z" fill="#F2935C"/>
  <path d="M118.942 101.084C118.845 101.084 118.747 101.065 118.651 101.027L106.52 96.2247C106.113 96.0639 105.914 95.6038 106.075 95.1967C106.236 94.7904 106.694 94.59 107.103 94.752L119.234 99.5547C119.641 99.7155 119.84 100.176 119.679 100.583C119.556 100.894 119.258 101.084 118.942 101.084Z" fill="#F2935C"/>
  <path opacity="0.3" d="M118.942 101.084C118.845 101.084 118.747 101.065 118.651 101.027L106.52 96.2247C106.113 96.0639 105.914 95.6038 106.075 95.1967C106.236 94.7904 106.694 94.59 107.103 94.752L119.234 99.5547C119.641 99.7155 119.84 100.176 119.679 100.583C119.556 100.894 119.258 101.084 118.942 101.084Z" fill="black"/>
  <path d="M118.228 94.1272C118.131 94.1272 118.032 94.1094 117.937 94.0713L111.422 91.4918C111.015 91.331 110.816 90.8709 110.977 90.4638C111.137 90.0575 111.596 89.8571 112.005 90.0191L118.52 92.5986C118.927 92.7594 119.126 93.2195 118.965 93.6266C118.841 93.9375 118.543 94.1272 118.228 94.1272Z" fill="#F2935C"/>
  <path opacity="0.5" d="M118.228 94.1272C118.131 94.1272 118.032 94.1094 117.937 94.0713L111.422 91.4918C111.015 91.331 110.816 90.8709 110.977 90.4638C111.137 90.0575 111.596 89.8571 112.005 90.0191L118.52 92.5986C118.927 92.7594 119.126 93.2195 118.965 93.6266C118.841 93.9375 118.543 94.1272 118.228 94.1272Z" fill="white"/>
  <path d="M104.608 100.964C104.511 100.964 104.412 100.946 104.317 100.908L92.4884 96.2244C92.0817 96.0637 91.8825 95.6031 92.0437 95.1964C92.2045 94.7897 92.6642 94.5905 93.0717 94.7517L104.9 99.4348C105.307 99.5956 105.506 100.056 105.345 100.463C105.221 100.774 104.923 100.964 104.608 100.964Z" fill="#F2935C"/>
  <path opacity="0.3" d="M104.608 100.964C104.511 100.964 104.412 100.946 104.317 100.908L92.4884 96.2244C92.0817 96.0637 91.8825 95.6031 92.0437 95.1964C92.2045 94.7897 92.6642 94.5905 93.0717 94.7517L104.9 99.4348C105.307 99.5956 105.506 100.056 105.345 100.463C105.221 100.774 104.923 100.964 104.608 100.964Z" fill="black"/>
  <path d="M147.431 65.269C148.48 67.3179 149.442 69.3672 150.356 71.468C151.264 73.5688 152.125 75.6914 152.867 77.9193L153.137 78.7639C153.183 78.914 153.253 79.1607 153.29 79.3361C153.328 79.5191 153.367 79.708 153.389 79.8755C153.493 80.5653 153.512 81.1886 153.524 81.8017C153.543 83.0229 153.461 84.1875 153.359 85.3458C153.137 87.6589 152.776 89.9093 152.281 92.1662L150.11 91.9254C150.082 89.6947 150.061 87.4423 149.983 85.2449C149.944 84.1483 149.882 83.0542 149.77 82.0226C149.714 81.5102 149.631 81.0077 149.535 80.5871C149.512 80.4758 149.483 80.3911 149.457 80.2992C149.427 80.201 149.413 80.178 149.37 80.0604L149.071 79.3116C148.244 77.3078 147.313 75.2863 146.363 73.275L143.489 67.2427L147.431 65.269Z" fill="#E4897B"/>
  <path d="M150.141 91.2461L149.127 93.1421L152.365 94.0454C152.365 94.0454 152.981 92.52 152.247 91.3174L150.141 91.2461Z" fill="#E4897B"/>
  <path d="M147.885 95.8759L150.863 96.1111L152.365 94.046L149.127 93.1423L147.885 95.8759Z" fill="#E4897B"/>
  <path d="M133.798 51.5845C133.751 51.8145 133.591 51.9761 133.441 51.9456C133.29 51.9151 133.206 51.7041 133.253 51.474C133.3 51.2439 133.459 51.0823 133.61 51.1128C133.76 51.1437 133.844 51.3548 133.798 51.5845Z" fill="#263238"/>
  <path d="M133.612 51.9805C133.612 51.9805 132.82 53.2009 132.114 53.7237C132.444 54.1862 133.171 54.1533 133.171 54.1533L133.612 51.9805Z" fill="#DE5753"/>
  <path d="M134.899 50.4788C134.862 50.4788 134.825 50.4638 134.798 50.4345C134.385 49.9878 133.896 50.0606 133.874 50.063C133.801 50.0761 133.728 50.0246 133.716 49.9494C133.703 49.8745 133.754 49.8036 133.828 49.791C133.854 49.7862 134.482 49.6868 135 50.2468C135.052 50.3026 135.048 50.3897 134.992 50.4416C134.966 50.4665 134.933 50.4788 134.899 50.4788Z" fill="#263238"/>
  <path d="M140.348 54.8188C139.931 56.947 139.514 60.8468 141.003 62.2668C141.003 62.2668 140.422 64.4258 136.467 64.4258C132.119 64.4258 134.389 62.2672 134.389 62.2672C136.762 61.7005 136.701 59.9395 136.287 58.2862L140.348 54.8188Z" fill="#E4897B"/>
  <path d="M141.601 63.6109C141.915 62.5678 142.26 61.3743 141.545 61.0004C140.758 60.589 136.452 60.1696 134.967 60.9418C133.482 61.714 133.903 63.8295 133.903 63.8295L141.601 63.6109Z" fill="#263238"/>
  <path d="M150.735 162.368C150.436 162.368 150.148 162.323 150.036 162.176C149.989 162.115 149.951 162.008 150.038 161.849C150.084 161.766 150.157 161.712 150.255 161.689C150.682 161.591 151.483 162.139 151.517 162.162C151.54 162.178 151.551 162.205 151.546 162.232C151.54 162.259 151.521 162.28 151.494 162.286C151.345 162.322 151.035 162.368 150.735 162.368ZM150.371 161.813C150.341 161.813 150.312 161.816 150.286 161.823C150.228 161.836 150.186 161.867 150.159 161.915C150.097 162.029 150.134 162.076 150.146 162.092C150.27 162.255 150.865 162.258 151.299 162.185C151.048 162.031 150.636 161.813 150.371 161.813Z" fill="#F2935C"/>
  <path d="M151.478 162.287C151.467 162.287 151.455 162.285 151.445 162.279C151.144 162.116 150.562 161.479 150.623 161.154C150.634 161.095 150.678 160.994 150.843 160.973C150.947 160.961 151.048 160.99 151.136 161.062C151.474 161.338 151.544 162.177 151.547 162.213C151.549 162.238 151.537 162.262 151.516 162.276C151.504 162.284 151.491 162.287 151.478 162.287ZM150.89 161.109C150.88 161.109 150.87 161.109 150.859 161.11C150.77 161.121 150.762 161.163 150.758 161.18C150.722 161.372 151.093 161.854 151.392 162.08C151.358 161.835 151.266 161.346 151.049 161.169C150.999 161.128 150.947 161.109 150.89 161.109Z" fill="#F2935C"/>
  <path d="M133.265 162.369C132.892 162.369 132.532 162.317 132.411 162.149C132.368 162.091 132.335 161.99 132.416 161.848C132.462 161.768 132.536 161.714 132.635 161.687C133.117 161.558 134.136 162.135 134.179 162.159C134.204 162.173 134.217 162.201 134.213 162.23C134.208 162.258 134.186 162.281 134.158 162.287C133.972 162.323 133.613 162.369 133.265 162.369ZM132.804 161.804C132.756 161.804 132.711 161.809 132.671 161.82C132.607 161.837 132.563 161.868 132.536 161.916C132.487 162.002 132.505 162.044 132.523 162.068C132.654 162.25 133.388 162.26 133.934 162.184C133.664 162.046 133.144 161.804 132.804 161.804Z" fill="#F2935C"/>
  <path d="M134.145 162.287C134.135 162.287 134.125 162.285 134.117 162.282C133.766 162.124 133.07 161.495 133.123 161.166C133.136 161.089 133.19 160.993 133.38 160.974C133.52 160.96 133.649 160.999 133.762 161.092C134.132 161.396 134.21 162.179 134.213 162.212C134.216 162.236 134.205 162.261 134.185 162.275C134.173 162.284 134.159 162.287 134.145 162.287ZM133.435 161.109C133.422 161.109 133.408 161.109 133.393 161.111C133.269 161.123 133.262 161.172 133.259 161.188C133.227 161.386 133.7 161.88 134.058 162.095C134.021 161.867 133.917 161.397 133.674 161.198C133.601 161.138 133.523 161.109 133.435 161.109Z" fill="#F2935C"/>
  <path d="M137.343 162.219H134.434L134.145 155.482H137.054L137.343 162.219Z" fill="#E4897B"/>
  <path d="M154.811 162.219H151.901L150.439 155.482H153.348L154.811 162.219Z" fill="#E4897B"/>
  <path d="M151.694 161.882H154.963C155.081 161.882 155.184 161.965 155.211 162.081L155.785 164.667C155.845 164.935 155.634 165.188 155.359 165.184C154.218 165.164 153.664 165.097 152.226 165.097C151.342 165.097 149.52 165.189 148.299 165.189C147.105 165.189 146.919 163.981 147.418 163.872C149.66 163.382 150.504 162.706 151.222 162.06C151.351 161.944 151.521 161.882 151.694 161.882Z" fill="#263238"/>
  <path d="M134.453 161.882H137.631C137.749 161.882 137.852 161.965 137.878 162.081L138.453 164.667C138.512 164.935 138.309 165.188 138.034 165.184C136.888 165.165 135.232 165.097 133.792 165.097C132.108 165.097 130.653 165.189 128.678 165.189C127.484 165.189 127.152 163.982 127.652 163.873C129.928 163.375 131.786 163.321 133.753 162.109C133.966 161.977 134.202 161.882 134.453 161.882Z" fill="#263238"/>
  <path d="M133.049 67.377C130.582 67.1842 128.211 66.865 125.799 66.4132C124.599 66.1827 123.396 65.9249 122.195 65.6014C120.991 65.2786 119.785 64.9127 118.566 64.4039C118.261 64.2787 117.954 64.1381 117.646 63.992C117.261 63.8015 116.941 63.6035 116.659 63.4158C116.087 63.0381 115.597 62.6484 115.11 62.2599C114.141 61.4842 113.239 60.6779 112.35 59.8629C110.579 58.2251 108.899 56.5298 107.281 54.7462L108.738 53.1187L114.483 57.2477C115.432 57.9316 116.389 58.5993 117.33 59.2293C117.8 59.541 118.279 59.8368 118.716 60.0831C118.937 60.2086 119.134 60.3025 119.286 60.3627C119.522 60.4549 119.76 60.546 120.01 60.6296C122.021 61.3004 124.296 61.7313 126.554 62.0952C128.816 62.4532 131.152 62.7478 133.409 62.9818L133.049 67.377Z" fill="#E4897B"/>
  <path d="M146.212 62.9247C148.939 63.5499 151.696 71.5218 151.696 71.5218L146.083 75.5475C146.083 75.5475 144.515 71.8347 142.973 68.5875C141.357 65.185 143.424 62.2855 146.212 62.9247Z" fill="#F2935C"/>
  <path opacity="0.4" d="M146.212 62.9247C148.939 63.5499 151.696 71.5218 151.696 71.5218L146.083 75.5475C146.083 75.5475 144.515 71.8347 142.973 68.5875C141.357 65.185 143.424 62.2855 146.212 62.9247Z" fill="black"/>
  <path d="M144.639 67.2803L143.526 69.7711C144.678 72.258 145.732 74.7211 146.013 75.3785C145.973 72.4362 145.415 68.7851 144.639 67.2803Z" fill="#F2935C"/>
  <path opacity="0.6" d="M144.639 67.2803L143.526 69.7711C144.678 72.258 145.732 74.7211 146.013 75.3785C145.973 72.4362 145.415 68.7851 144.639 67.2803Z" fill="black"/>
  <path d="M129.914 63.0743C129.914 63.0743 126.818 66.5717 129.742 88.2191C134.43 88.2191 143.021 88.2191 145.302 88.2191C145.409 85.8304 143.908 74.1785 146.212 62.9242C146.212 62.9242 143.545 62.3888 141.003 62.2664C139.015 62.1706 136.137 62.1072 134.389 62.2668C132.085 62.4771 129.914 63.0743 129.914 63.0743Z" fill="#F2935C"/>
  <path opacity="0.4" d="M129.914 63.0743C129.914 63.0743 126.818 66.5717 129.742 88.2191C134.43 88.2191 143.021 88.2191 145.302 88.2191C145.409 85.8304 143.908 74.1785 146.212 62.9242C146.212 62.9242 143.545 62.3888 141.003 62.2664C139.015 62.1706 136.137 62.1072 134.389 62.2668C132.085 62.4771 129.914 63.0743 129.914 63.0743Z" fill="black"/>
  <path d="M128.763 67.2803C128.66 68.1 128.581 69.0702 128.53 70.2146C129.817 69.8147 131.417 69.1732 132.862 68.1792L128.763 67.2803Z" fill="#F2935C"/>
  <path opacity="0.6" d="M128.763 67.2803C128.66 68.1 128.581 69.0702 128.53 70.2146C129.817 69.8147 131.417 69.1732 132.862 68.1792L128.763 67.2803Z" fill="black"/>
  <path d="M135.419 67.7049C133.338 69.5495 125.385 69.3649 125.385 69.3649L125.123 61.677C125.123 61.677 129.632 62.3379 133.229 62.2647C137.673 62.1748 137.704 65.6806 135.419 67.7049Z" fill="#F2935C"/>
  <path opacity="0.4" d="M135.419 67.7049C133.338 69.5495 125.385 69.3649 125.385 69.3649L125.123 61.677C125.123 61.677 129.632 62.3379 133.229 62.2647C137.673 62.1748 137.704 65.6806 135.419 67.7049Z" fill="black"/>
  <path d="M108.809 53.1582L106.812 50.8269L104.68 53.1879C104.68 53.1879 105.992 55.3956 108.082 55.0471L108.809 53.1582Z" fill="#E4897B"/>
  <path d="M103.992 48.1079L103.224 51.15L104.68 53.1882L106.811 50.8268L103.992 48.1079Z" fill="#E4897B"/>
  <path d="M134.146 155.484L134.294 158.956H137.205L137.056 155.484H134.146Z" fill="#CE6F64"/>
  <path d="M153.35 155.484H150.439L151.194 158.956H154.105L153.35 155.484Z" fill="#CE6F64"/>
  <path d="M135.896 48.6928C133.287 47.487 132.462 42.2234 139.969 43.527C139.969 43.527 138.838 44.7811 141.136 45.5731C143.434 46.3648 141.511 51.2874 135.896 48.6928Z" fill="#263238"/>
  <path d="M141.566 52.6559C140.819 55.4445 140.523 57.1149 138.802 58.2748C136.214 60.0191 132.991 58.0174 132.89 55.0612C132.799 52.4005 134.036 48.2868 137.029 47.7249C139.978 47.1713 142.314 49.8673 141.566 52.6559Z" fill="#E4897B"/>
  <path d="M139.867 44.944C141.644 45.9375 144.052 46.53 143.81 47.9385C143.514 49.6603 145.266 48.5832 144.858 51.1485C144.592 52.8236 141.502 57.8995 139.328 57.6516C136.058 57.279 136.472 52.285 136.462 49.6607C136.455 48.114 136.383 42.9953 139.867 44.944Z" fill="#263238"/>
  <path d="M136.07 47.1677C135.278 47.3546 134.228 51.9197 137.296 52.3379C140.827 52.819 136.07 47.1677 136.07 47.1677Z" fill="#263238"/>
  <path d="M136.15 48.7882C135.179 48.8737 132.99 47.7055 133.252 45.9485C133.252 45.9485 134.646 48.0045 136.15 48.7882Z" fill="#263238"/>
  <path d="M137.589 52.7028C137.285 53.3954 136.71 53.9403 136.153 54.2302C135.316 54.6658 134.846 54.0287 135.036 53.1915C135.206 52.4379 135.847 51.303 136.707 51.2099C137.556 51.118 137.936 51.9108 137.589 52.7028Z" fill="#E4897B"/>
  <path d="M141.945 49.4796C142.532 49.1807 143.871 48.5027 144.235 46.5793C144.235 46.5793 145.543 50.2285 141.945 49.4796Z" fill="#263238"/>
  <path d="M145.25 49.4413C144.957 49.2694 144.29 48.8778 143.355 49.2544C143.355 49.2544 144.574 47.6723 145.25 49.4413Z" fill="#263238"/>
  <path d="M135.262 88.2195C135.262 88.2195 138.563 110.452 140.376 118.781C142.36 127.902 149.838 158.284 149.838 158.284H155.166C155.166 158.284 150.236 128.638 149.103 119.608C147.874 109.807 145.302 88.2195 145.302 88.2195H135.262Z" fill="#F2935C"/>
  <path opacity="0.5" d="M135.262 88.2195C135.262 88.2195 138.563 110.452 140.376 118.781C142.36 127.902 149.838 158.284 149.838 158.284H155.166C155.166 158.284 150.236 128.638 149.103 119.608C147.874 109.807 145.302 88.2195 145.302 88.2195H135.262Z" fill="white"/>
  <path d="M148.987 156.321C148.964 156.321 149.537 158.367 149.537 158.367H155.532L155.422 156.541L148.987 156.321Z" fill="#F2935C"/>
  <path opacity="0.1" d="M148.987 156.321C148.964 156.321 149.537 158.367 149.537 158.367H155.532L155.422 156.541L148.987 156.321Z" fill="black"/>
  <path d="M137.348 96.1408C141.166 96.8892 140.762 111.125 140.302 118.447C139.202 113.272 137.59 103.312 136.489 96.2438C136.742 96.117 137.028 96.0774 137.348 96.1408Z" fill="#F2935C"/>
  <path opacity="0.4" d="M137.348 96.1408C141.166 96.8892 140.762 111.125 140.302 118.447C139.202 113.272 137.59 103.312 136.489 96.2438C136.742 96.117 137.028 96.0774 137.348 96.1408Z" fill="white"/>
  <path d="M129.742 88.2195C129.742 88.2195 129.342 109.971 129.658 118.842C129.987 128.07 133.21 158.284 133.21 158.284H138.138C138.138 158.284 138.319 128.609 138.538 119.547C138.778 109.667 139.97 88.2199 139.97 88.2199H129.742V88.2195Z" fill="#F2935C"/>
  <path opacity="0.5" d="M129.742 88.2195C129.742 88.2195 129.342 109.971 129.658 118.842C129.987 128.07 133.21 158.284 133.21 158.284H138.138C138.138 158.284 138.319 128.609 138.538 119.547C138.778 109.667 139.97 88.2199 139.97 88.2199H129.742V88.2195Z" fill="white"/>
  <path d="M134.236 154.744C134.212 154.744 134.19 154.725 134.187 154.7C133.319 146.337 131.27 126.103 131.011 118.844C130.747 111.435 130.987 94.8109 131.067 89.8922C131.067 89.8653 131.089 89.8435 131.116 89.8435H131.117C131.145 89.8439 131.166 89.8665 131.166 89.8938C131.086 94.8117 130.846 111.433 131.11 118.84C131.369 126.097 133.417 146.328 134.286 154.689C134.289 154.716 134.269 154.741 134.242 154.744C134.24 154.744 134.238 154.744 134.236 154.744Z" fill="#F2935C"/>
  <path opacity="0.4" d="M134.236 154.744C134.212 154.744 134.19 154.725 134.187 154.7C133.319 146.337 131.27 126.103 131.011 118.844C130.747 111.435 130.987 94.8109 131.067 89.8922C131.067 89.8653 131.089 89.8435 131.116 89.8435H131.117C131.145 89.8439 131.166 89.8665 131.166 89.8938C131.086 94.8117 130.846 111.433 131.11 118.84C131.369 126.097 133.417 146.328 134.286 154.689C134.289 154.716 134.269 154.741 134.242 154.744C134.24 154.744 134.238 154.744 134.236 154.744Z" fill="white"/>
  <path d="M132.262 156.321C132.239 156.321 132.54 158.367 132.54 158.367H138.535L138.697 156.541L132.262 156.321Z" fill="#F2935C"/>
  <path opacity="0.1" d="M132.262 156.321C132.239 156.321 132.54 158.367 132.54 158.367H138.535L138.697 156.541L132.262 156.321Z" fill="black"/>
</svg>