<svg width="22" height="22" viewBox="0 0 22 22" fill="none" xmlns="http://www.w3.org/2000/svg">
<g opacity="0.6">
<path d="M20.6018 17.875H19.25V8.25002C19.25 7.88535 19.1052 7.53561 18.8473 7.27775C18.5895 7.01989 18.2397 6.87502 17.875 6.87502H14.0938C14.0026 6.87502 13.9152 6.91124 13.8507 6.97571C13.7863 7.04017 13.75 7.1276 13.75 7.21877V17.875H12.375V2.78526C12.3773 2.57109 12.3308 2.3592 12.2391 2.16565C12.1474 1.97209 12.0129 1.80194 11.8457 1.66807C11.6178 1.49038 11.3397 1.38902 11.0509 1.37837C10.7621 1.36773 10.4773 1.44835 10.2369 1.60877L3.36192 6.18752C3.17332 6.31335 3.01876 6.48387 2.91201 6.68388C2.80525 6.8839 2.74962 7.10721 2.75005 7.33393V17.875H1.39825C1.22059 17.8724 1.04852 17.9372 0.916667 18.0563C0.784811 18.1754 0.702949 18.34 0.687546 18.517C0.681302 18.611 0.69446 18.7053 0.726203 18.7941C0.757946 18.8828 0.807597 18.9641 0.87207 19.0328C0.936543 19.1016 1.01446 19.1563 1.10099 19.1937C1.18751 19.2311 1.2808 19.2502 1.37505 19.25H20.625C20.7193 19.2502 20.8126 19.2311 20.8991 19.1937C20.9856 19.1563 21.0635 19.1016 21.128 19.0328C21.1925 18.9641 21.2421 18.8828 21.2739 18.7941C21.3056 18.7053 21.3188 18.611 21.3125 18.517C21.2971 18.34 21.2153 18.1754 21.0834 18.0563C20.9516 17.9372 20.7795 17.8724 20.6018 17.875ZM6.5313 15.8125C6.5315 15.9068 6.51233 16.0001 6.47497 16.0866C6.4376 16.1731 6.38285 16.251 6.31411 16.3155C6.24536 16.38 6.16409 16.4296 6.07535 16.4614C5.98661 16.4931 5.89229 16.5063 5.79825 16.5C5.62109 16.4846 5.45635 16.4026 5.33723 16.2706C5.2181 16.1385 5.15345 15.9663 5.1563 15.7885V14.4607C5.15387 14.2831 5.2187 14.1112 5.33776 13.9794C5.45682 13.8475 5.62131 13.7656 5.79825 13.75C5.89229 13.7438 5.98661 13.7569 6.07535 13.7887C6.16409 13.8204 6.24536 13.8701 6.31411 13.9345C6.38285 13.999 6.4376 14.0769 6.47497 14.1635C6.51233 14.25 6.5315 14.3433 6.5313 14.4375V15.8125ZM6.5313 11C6.5315 11.0943 6.51233 11.1876 6.47497 11.2741C6.4376 11.3606 6.38285 11.4385 6.31411 11.503C6.24536 11.5675 6.16409 11.6171 6.07535 11.6489C5.98661 11.6806 5.89229 11.6938 5.79825 11.6875C5.62116 11.6719 5.45654 11.5899 5.33746 11.4579C5.21838 11.3259 5.15366 11.1537 5.1563 10.976V9.64823C5.15387 9.47062 5.2187 9.29867 5.33776 9.16685C5.45682 9.03504 5.62131 8.95312 5.79825 8.93752C5.89229 8.93128 5.98661 8.94444 6.07535 8.97618C6.16409 9.00792 6.24536 9.05757 6.31411 9.12205C6.38285 9.18652 6.4376 9.26444 6.47497 9.35097C6.51233 9.43749 6.5315 9.53078 6.5313 9.62502V11ZM9.9688 15.8125C9.969 15.9068 9.94983 16.0001 9.91247 16.0866C9.8751 16.1731 9.82035 16.251 9.75161 16.3155C9.68286 16.38 9.60159 16.4296 9.51285 16.4614C9.42411 16.4931 9.32979 16.5063 9.23575 16.5C9.05889 16.4846 8.8944 16.4029 8.77532 16.2712C8.65624 16.1395 8.59139 15.9677 8.5938 15.7902V14.4607C8.59159 14.2833 8.65651 14.1115 8.77555 13.9799C8.89459 13.8483 9.05896 13.7665 9.23575 13.7509C9.32979 13.7446 9.42411 13.7578 9.51285 13.7895C9.60159 13.8213 9.68286 13.8709 9.75161 13.9354C9.82035 13.9999 9.8751 14.0778 9.91247 14.1643C9.94983 14.2509 9.969 14.3441 9.9688 14.4384V15.8125ZM9.9688 11C9.969 11.0943 9.94983 11.1876 9.91247 11.2741C9.8751 11.3606 9.82035 11.4385 9.75161 11.503C9.68286 11.5675 9.60159 11.6171 9.51285 11.6489C9.42411 11.6806 9.32979 11.6938 9.23575 11.6875C9.05896 11.6719 8.89459 11.5901 8.77555 11.4585C8.65651 11.3269 8.59159 11.1551 8.5938 10.9777V9.64823C8.59159 9.47077 8.65651 9.29903 8.77555 9.1674C8.89459 9.03577 9.05896 8.95397 9.23575 8.93838C9.32979 8.93214 9.42411 8.9453 9.51285 8.97704C9.60159 9.00878 9.68286 9.05843 9.75161 9.12291C9.82035 9.18738 9.8751 9.2653 9.91247 9.35183C9.94983 9.43835 9.969 9.53164 9.9688 9.62588V11Z" fill="#2D3B40"/>
</g>
</svg>
