<svg width="268" height="145" viewBox="0 0 268 145" fill="none" xmlns="http://www.w3.org/2000/svg">
<rect x="66" y="55" width="241" height="207" rx="103.5" fill="#2D3B40"/>
<rect x="31" y="13" width="255" height="260" rx="127.5" stroke="#121D26" stroke-width="2" stroke-dasharray="12 12"/>
<rect x="21" y="62" width="207" height="202" rx="101" stroke="white" stroke-width="2" stroke-dasharray="12 12"/>
<rect x="179.858" y="23.4121" width="11" height="11" rx="5.5" transform="rotate(-19.8577 179.858 23.4121)" fill="#14171C"/>
<rect x="176.854" y="29.8125" width="7" height="7" rx="3.5" transform="rotate(-19.8577 176.854 29.8125)" fill="#14171C"/>
<rect x="170.949" y="34.0713" width="9" height="9" rx="4.5" transform="rotate(-19.8577 170.949 34.0713)" fill="#14171C"/>
<path d="M179.231 23.5957C180.111 24.8591 179.294 26.6013 177.76 26.7316L167.405 27.6117C165.871 27.7421 164.771 26.1629 165.425 24.7691L169.84 15.3614C170.494 13.9677 172.412 13.8047 173.292 15.0681L179.231 23.5957Z" fill="white"/>
<path d="M170.62 31.3733C172.117 31.7303 172.667 33.5747 171.609 34.6932L167.876 38.639C166.818 39.7575 164.946 39.3112 164.507 37.8357L162.956 32.6305C162.516 31.155 163.839 29.7569 165.336 30.1139L170.62 31.3733Z" fill="white"/>
<path d="M176.014 43.6193C174.731 44.4696 174.849 46.3905 176.227 47.0768L181.089 49.4983C182.467 50.1847 184.072 49.1218 183.977 47.5851L183.643 42.164C183.549 40.6273 181.826 39.7693 180.542 40.6196L176.014 43.6193Z" fill="white"/>
<path d="M187.213 46.6574C187.343 48.1914 189.085 49.0091 190.349 48.1292L198.876 42.1895C200.14 41.3096 199.977 39.392 198.583 38.7379L189.175 34.3225C187.782 33.6684 186.202 34.7683 186.333 36.3024L187.213 46.6574Z" fill="white"/>
<rect x="17.6479" y="53.8408" width="5.79125" height="5.79125" rx="2.89562" transform="rotate(17.549 17.6479 53.8408)" fill="#14171C"/>
<rect x="14.3442" y="55.5576" width="3.68534" height="3.68534" rx="1.84267" transform="rotate(17.549 14.3442 55.5576)" fill="#14171C"/>
<rect x="10.5127" y="55.4502" width="4.7383" height="4.7383" rx="2.36915" transform="rotate(17.549 10.5127 55.4502)" fill="#14171C"/>
<path d="M15.5758 52.5552C15.5074 54.0933 13.7995 54.9804 12.5018 54.1521L10.6552 52.9735C9.35742 52.1452 9.44301 50.2226 10.8093 49.5128L12.7533 48.503C14.1195 47.7932 15.7417 48.8286 15.6733 50.3667L15.5758 52.5552Z" fill="white"/>
<path d="M12.5583 64.3008C11.73 65.5986 12.6172 67.3064 14.1553 67.3749L16.3437 67.4723C17.8818 67.5408 18.9172 65.9186 18.2075 64.5523L17.1976 62.6083C16.4879 61.2421 14.5653 61.1565 13.737 62.4543L12.5583 64.3008Z" fill="white"/>
</svg>
