<svg width="240" height="240" viewBox="0 0 240 240" fill="none" xmlns="http://www.w3.org/2000/svg">
<path d="M114.793 2.50737C118.084 0.92287 121.916 0.922871 125.207 2.50737L208.613 42.6739C211.903 44.2584 214.293 47.2549 215.106 50.8152L235.705 141.069C236.518 144.629 235.665 148.365 233.388 151.221L175.669 223.598C173.392 226.453 169.939 228.116 166.287 228.116H73.7128C70.0609 228.116 66.6078 226.453 64.3309 223.598L6.61173 151.221C4.33481 148.365 3.48195 144.629 4.29458 141.069L24.8943 50.8152C25.7069 47.2549 28.0966 44.2584 31.3868 42.6739L114.793 2.50737Z" fill="#CAD3C7"/>
<path d="M114.793 26.5074C118.084 24.9229 121.916 24.9229 125.207 26.5074L189.849 57.6376C193.139 59.2221 195.529 62.2186 196.342 65.779L212.307 135.728C213.12 139.288 212.267 143.025 209.99 145.88L165.256 201.975C162.979 204.83 159.526 206.493 155.874 206.493H84.1261C80.4742 206.493 77.021 204.83 74.7441 201.975L30.01 145.88C27.7331 143.025 26.8802 139.288 27.6928 135.728L43.6583 65.779C44.4709 62.2186 46.8605 59.2221 50.1508 57.6376L114.793 26.5074Z" fill="#66805D" fill-opacity="0.4"/>
<path d="M114.793 50.5074C118.084 48.9229 121.916 48.9229 125.207 50.5074L171.085 72.6014C174.376 74.1859 176.765 77.1824 177.578 80.7427L188.909 130.387C189.722 133.948 188.869 137.684 186.592 140.54L154.843 180.352C152.566 183.207 149.113 184.87 145.461 184.87H94.5393C90.8874 184.87 87.4342 183.207 85.1573 180.352L53.4083 140.54C51.1314 137.684 50.2785 133.948 51.0911 130.388L62.4222 80.7427C63.2348 77.1824 65.6245 74.1859 68.9147 72.6014L114.793 50.5074Z" fill="#66805D" fill-opacity="0.6"/>
<path d="M114.793 74.5074C118.084 72.9229 121.916 72.9229 125.207 74.5074L152.321 87.5651C155.612 89.1496 158.001 92.1462 158.814 95.7065L165.511 125.047C166.323 128.607 165.47 132.344 163.193 135.199L144.43 158.728C142.153 161.584 138.699 163.247 135.048 163.247H104.952C101.301 163.247 97.8474 161.584 95.5705 158.728L76.8065 135.199C74.5296 132.344 73.6768 128.607 74.4894 125.047L81.1862 95.7065C81.9988 92.1462 84.3884 89.1496 87.6787 87.5651L114.793 74.5074Z" fill="#66805D" fill-opacity="0.6"/>
<path d="M114.793 98.5074C118.084 96.9229 121.916 96.9229 125.207 98.5074L133.557 102.529C136.848 104.113 139.237 107.11 140.05 110.67L142.112 119.706C142.925 123.267 142.072 127.003 139.795 129.859L134.016 137.105C131.739 139.96 128.286 141.623 124.634 141.623H115.366C111.714 141.623 108.261 139.96 105.984 137.105L100.205 129.859C97.9279 127.003 97.075 123.267 97.8877 119.706L99.9501 110.67C100.763 107.11 103.152 104.113 106.443 102.529L114.793 98.5074Z" fill="#66805D"/>
<path d="M123.361 85H117.757V84.448C117.757 83.952 117.845 83.532 118.021 83.188C118.205 82.844 118.453 82.548 118.765 82.3C119.085 82.044 119.429 81.812 119.797 81.604L121.057 80.908C121.377 80.732 121.637 80.56 121.837 80.392C122.037 80.224 122.185 80.044 122.281 79.852C122.385 79.652 122.437 79.416 122.437 79.144C122.437 78.848 122.385 78.588 122.281 78.364C122.177 78.132 121.993 77.952 121.729 77.824C121.465 77.696 121.081 77.632 120.577 77.632C120.025 77.632 119.597 77.704 119.293 77.848C118.997 77.984 118.789 78.196 118.669 78.484C118.557 78.764 118.501 79.12 118.501 79.552V79.696H117.637V79.504C117.637 79.016 117.737 78.572 117.937 78.172C118.145 77.764 118.469 77.44 118.909 77.2C119.357 76.96 119.929 76.84 120.625 76.84C121.249 76.84 121.757 76.944 122.149 77.152C122.549 77.352 122.841 77.624 123.025 77.968C123.209 78.304 123.301 78.676 123.301 79.084C123.301 79.5 123.213 79.864 123.037 80.176C122.869 80.48 122.645 80.744 122.365 80.968C122.085 81.184 121.773 81.392 121.429 81.592L120.217 82.264C119.745 82.52 119.361 82.792 119.065 83.08C118.777 83.368 118.637 83.744 118.645 84.208H120.229H123.361V85Z" fill="black"/>
<path d="M120.571 62.12C119.843 62.12 119.251 62.008 118.795 61.784C118.347 61.552 118.023 61.244 117.823 60.86C117.623 60.468 117.523 60.028 117.523 59.54V59.348H118.375V59.504C118.375 59.912 118.435 60.252 118.555 60.524C118.683 60.796 118.907 60.996 119.227 61.124C119.547 61.252 119.995 61.316 120.571 61.316C121.323 61.316 121.851 61.196 122.155 60.956C122.459 60.716 122.611 60.316 122.611 59.756C122.611 59.188 122.455 58.784 122.143 58.544C121.839 58.296 121.355 58.172 120.691 58.172H119.251V57.44H120.511C121.167 57.44 121.639 57.332 121.927 57.116C122.223 56.9 122.371 56.544 122.371 56.048C122.371 55.56 122.231 55.204 121.951 54.98C121.671 54.748 121.187 54.632 120.499 54.632C119.955 54.632 119.527 54.7 119.215 54.836C118.911 54.964 118.695 55.164 118.567 55.436C118.439 55.7 118.375 56.036 118.375 56.444V56.564H117.523V56.42C117.523 55.932 117.631 55.496 117.847 55.112C118.063 54.72 118.391 54.412 118.831 54.188C119.279 53.956 119.835 53.84 120.499 53.84C121.067 53.84 121.555 53.924 121.963 54.092C122.371 54.252 122.683 54.488 122.899 54.8C123.123 55.104 123.235 55.484 123.235 55.94C123.235 56.396 123.111 56.788 122.863 57.116C122.615 57.436 122.239 57.64 121.735 57.728V57.776C122.295 57.88 122.723 58.108 123.019 58.46C123.323 58.812 123.475 59.272 123.475 59.84C123.475 60.336 123.355 60.752 123.115 61.088C122.875 61.424 122.535 61.68 122.095 61.856C121.663 62.032 121.155 62.12 120.571 62.12Z" fill="black"/>
<path d="M123.399 37.212H116.547V36.588L121.083 30.96H121.779L121.359 32.04H121.155L117.651 36.36V36.432H123.399V37.212ZM122.079 39H121.227V30.96H122.079V39Z" fill="black"/>
<path d="M120.027 16.12C119.035 16.12 118.275 15.904 117.747 15.472C117.219 15.04 116.955 14.456 116.955 13.72V13.648H117.819V13.72C117.819 14.112 117.903 14.428 118.071 14.668C118.239 14.9 118.487 15.068 118.815 15.172C119.151 15.268 119.567 15.316 120.063 15.316C120.839 15.316 121.391 15.18 121.719 14.908C122.047 14.636 122.211 14.156 122.211 13.468C122.211 12.812 122.043 12.348 121.707 12.076C121.371 11.796 120.831 11.656 120.087 11.656C119.559 11.656 119.127 11.716 118.791 11.836C118.463 11.948 118.167 12.08 117.903 12.232L117.651 12.052L117.675 11.512L117.987 11.572C118.259 11.38 118.587 11.224 118.971 11.104C119.363 10.976 119.811 10.912 120.315 10.912C120.859 10.912 121.339 11.012 121.755 11.212C122.171 11.404 122.491 11.688 122.715 12.064C122.947 12.44 123.063 12.904 123.063 13.456C123.063 14 122.947 14.472 122.715 14.872C122.491 15.272 122.155 15.58 121.707 15.796C121.267 16.012 120.707 16.12 120.027 16.12ZM118.227 8.74L117.903 12.232L117.159 12.076L117.471 7.96H122.631V8.74H118.227Z" fill="black"/>
<circle cx="120.002" cy="120" r="2.4" fill="#121D26"/>
<path d="M120.996 108H120.144V101.604H118.56V100.956H118.836C119.212 100.956 119.512 100.88 119.736 100.728C119.968 100.576 120.156 100.32 120.3 99.96H120.996V108Z" fill="black"/>
</svg>
