<svg width="31" height="36" viewBox="0 0 31 36" fill="none" xmlns="http://www.w3.org/2000/svg">
<path fill-rule="evenodd" clip-rule="evenodd" d="M26.0762 18.4036C25.9341 18.1538 25.6711 17.9999 25.3864 17.9999H15.5H5.61363C5.3289 17.9999 5.06586 18.1538 4.92383 18.4036L1.48569 24.4496C1.07922 25.1643 0 24.8724 0 24.0477V9.4025C0 9.11478 0.151626 8.8489 0.397784 8.70498L15.1019 0.108016C15.3482 -0.0360053 15.6518 -0.0360055 15.8981 0.108016L30.6022 8.70498C30.8484 8.8489 31 9.11478 31 9.4025V24.0477C31 24.8724 29.9208 25.1643 29.5143 24.4496L26.0762 18.4036Z" fill="#2D3B40"/>
<path d="M8.79183 32.174L14.9199 35.7721C15.2908 35.99 15.7488 35.9896 16.1194 35.7713L22.2239 32.1755C22.7935 31.84 22.9867 31.1008 22.6557 30.5241L16.5289 19.8513C16.0683 19.0489 14.9231 19.0497 14.4636 19.8527L8.35781 30.5233C8.02755 31.1005 8.22181 31.8393 8.79183 32.174Z" fill="#2D3B40"/>
</svg>
