<svg width="727" height="1272" viewBox="0 0 727 1272" fill="none" xmlns="http://www.w3.org/2000/svg">
<g clip-path="url(#clip0_18934_19783)">
<rect width="728" height="1273" rx="20.1569" fill="#F2E635"/>
<rect x="-122" y="743" width="632" height="632" rx="316" fill="#121D26"/>
<path d="M274.518 101.4C271.958 101.4 269.864 101.04 268.238 100.32C266.611 99.5733 265.398 98.5467 264.598 97.24C263.824 95.9067 263.438 94.3867 263.438 92.68V92H267.678V92.44C267.678 93.5333 267.864 94.4533 268.238 95.2C268.638 95.9467 269.344 96.5067 270.358 96.88C271.371 97.2533 272.824 97.44 274.718 97.44C276.691 97.44 278.078 97.16 278.878 96.6C279.678 96.0133 280.078 95.1067 280.078 93.88C280.078 93.0533 279.958 92.3867 279.718 91.88C279.478 91.3733 278.998 90.96 278.278 90.64C277.584 90.2933 276.544 89.9867 275.158 89.72L270.598 88.8C269.051 88.5067 267.758 88.0533 266.717 87.44C265.678 86.8 264.878 85.9867 264.318 85C263.784 84.0133 263.518 82.8267 263.518 81.44C263.518 80.1067 263.864 78.8667 264.558 77.72C265.278 76.5467 266.371 75.6 267.838 74.88C269.331 74.16 271.224 73.8 273.518 73.8C275.971 73.8 277.958 74.2133 279.478 75.04C281.024 75.8667 282.144 76.96 282.838 78.32C283.558 79.6533 283.918 81.12 283.918 82.72V83.2H279.638V82.76C279.638 81.64 279.451 80.72 279.078 80C278.731 79.2533 278.091 78.6933 277.158 78.32C276.251 77.92 275.011 77.72 273.438 77.72C271.464 77.72 270.038 78.0133 269.158 78.6C268.278 79.1867 267.838 80.0667 267.838 81.24C267.838 82.04 267.971 82.68 268.238 83.16C268.531 83.64 269.024 84.0267 269.718 84.32C270.438 84.5867 271.398 84.8667 272.598 85.16L277.158 86.12C278.864 86.44 280.238 86.9467 281.278 87.64C282.344 88.3333 283.131 89.1867 283.638 90.2C284.144 91.1867 284.398 92.36 284.398 93.72C284.398 95.1067 284.051 96.3867 283.358 97.56C282.664 98.7333 281.584 99.6667 280.118 100.36C278.678 101.053 276.811 101.4 274.518 101.4ZM306.218 101H301.898V89.44C301.898 87.68 301.551 86.4133 300.858 85.64C300.191 84.84 298.951 84.44 297.138 84.44C295.405 84.44 294.111 84.8267 293.258 85.6C292.431 86.3467 292.018 87.6667 292.018 89.56H291.258L291.218 84.44H292.178C292.498 83.8267 292.938 83.24 293.498 82.68C294.085 82.0933 294.818 81.6267 295.698 81.28C296.605 80.9067 297.645 80.72 298.818 80.72C300.578 80.72 301.991 81.0667 303.058 81.76C304.151 82.4267 304.951 83.3467 305.458 84.52C305.965 85.6933 306.218 87.0133 306.218 88.48V101ZM292.018 101H287.698V74.2H292.018V101ZM319.513 101.4C317.487 101.4 315.727 100.973 314.233 100.12C312.74 99.24 311.593 98.0267 310.793 96.48C309.993 94.9067 309.593 93.0933 309.593 91.04C309.593 88.9867 309.993 87.1867 310.793 85.64C311.593 84.0933 312.74 82.8933 314.233 82.04C315.727 81.16 317.487 80.72 319.513 80.72C321.54 80.72 323.273 81.16 324.713 82.04C326.18 82.8933 327.3 84.0933 328.073 85.64C328.873 87.1867 329.273 88.9867 329.273 91.04C329.273 93.0933 328.873 94.9067 328.073 96.48C327.3 98.0267 326.18 99.24 324.713 100.12C323.273 100.973 321.54 101.4 319.513 101.4ZM319.513 97.56C321.593 97.56 323.047 97.04 323.873 96C324.7 94.9333 325.113 93.28 325.113 91.04C325.113 88.8 324.7 87.16 323.873 86.12C323.047 85.08 321.593 84.56 319.513 84.56C317.407 84.56 315.94 85.08 315.113 86.12C314.287 87.16 313.873 88.8 313.873 91.04C313.873 93.28 314.287 94.9333 315.113 96C315.94 97.04 317.407 97.56 319.513 97.56ZM340.563 101H334.923L330.003 81.12H334.683L336.963 92.16L337.803 97.4H338.123L339.403 92.16L342.883 81.12H348.483L352.003 92.2L353.283 97.36H353.563L354.403 92.2L356.683 81.12H361.203L356.283 101H350.643L347.083 89.92L345.763 84.92H345.483L344.163 89.92L340.563 101ZM371.579 101.44C369.499 101.44 367.739 101 366.299 100.12C364.859 99.24 363.752 98.0267 362.979 96.48C362.232 94.9333 361.859 93.1333 361.859 91.08C361.859 89.0267 362.246 87.2267 363.019 85.68C363.819 84.1067 364.952 82.8933 366.419 82.04C367.886 81.16 369.659 80.72 371.739 80.72C373.499 80.72 375.046 81.0533 376.379 81.72C377.712 82.3867 378.739 83.32 379.459 84.52C380.206 85.72 380.579 87.12 380.579 88.72V89.08H376.299V88.84C376.299 87.3733 375.899 86.3067 375.099 85.64C374.326 84.9467 373.112 84.6 371.459 84.6C369.539 84.6 368.166 85.1467 367.339 86.24C366.539 87.3067 366.139 88.9067 366.139 91.04C366.139 93.2 366.539 94.8267 367.339 95.92C368.166 96.9867 369.539 97.52 371.459 97.52C373.112 97.52 374.326 97.1867 375.099 96.52C375.899 95.8267 376.299 94.76 376.299 93.32V93.08H380.579V93.44C380.579 94.9867 380.206 96.3733 379.459 97.6C378.712 98.8 377.659 99.7467 376.299 100.44C374.966 101.107 373.392 101.44 371.579 101.44ZM400.827 101H396.827V97.08L396.707 96V88.36C396.707 86.8667 396.347 85.8533 395.627 85.32C394.934 84.7867 393.801 84.52 392.227 84.52C390.654 84.52 389.521 84.8 388.827 85.36C388.161 85.92 387.827 86.8533 387.827 88.16V88.76H383.667V88.36C383.667 86.8667 384.027 85.5467 384.747 84.4C385.494 83.2533 386.521 82.36 387.827 81.72C389.161 81.0533 390.707 80.72 392.467 80.72C394.334 80.72 395.881 81.0667 397.107 81.76C398.334 82.4533 399.254 83.4133 399.867 84.64C400.507 85.84 400.827 87.2667 400.827 88.92V101ZM389.427 101.4C387.641 101.4 386.134 100.947 384.907 100.04C383.707 99.1067 383.107 97.7867 383.107 96.08C383.107 94.96 383.361 94.0267 383.867 93.28C384.401 92.5333 385.161 91.92 386.147 91.44C387.134 90.96 388.334 90.6267 389.747 90.44L397.107 89.4V92.44L390.387 93.44C389.241 93.6 388.441 93.84 387.987 94.16C387.534 94.48 387.307 95.0133 387.307 95.76C387.307 96.5333 387.574 97.0933 388.107 97.44C388.667 97.7867 389.574 97.96 390.827 97.96C391.787 97.96 392.707 97.8133 393.587 97.52C394.494 97.2 395.241 96.68 395.827 95.96C396.414 95.2133 396.707 94.1733 396.707 92.84L397.267 97.92L396.627 97.88C396.254 98.4933 395.734 99.0667 395.067 99.6C394.427 100.133 393.641 100.573 392.707 100.92C391.774 101.24 390.681 101.4 389.427 101.4ZM413.207 101.4C410.3 101.4 408.1 100.827 406.607 99.68C405.113 98.5067 404.367 96.7067 404.367 94.28V94.2H408.527V94.92C408.527 95.6133 408.66 96.1867 408.927 96.64C409.22 97.0667 409.7 97.3867 410.367 97.6C411.06 97.7867 412.033 97.88 413.287 97.88C414.353 97.88 415.153 97.8 415.687 97.64C416.247 97.4533 416.62 97.2 416.807 96.88C416.993 96.56 417.087 96.16 417.087 95.68C417.087 94.88 416.807 94.32 416.247 94C415.687 93.6533 414.687 93.3467 413.247 93.08L410.127 92.56C408.953 92.32 407.927 91.9867 407.047 91.56C406.193 91.1067 405.527 90.4933 405.047 89.72C404.593 88.92 404.367 87.92 404.367 86.72C404.367 84.9333 405.073 83.4933 406.487 82.4C407.9 81.28 409.9 80.72 412.487 80.72C414.06 80.72 415.46 80.9733 416.687 81.48C417.913 81.9867 418.887 82.7467 419.607 83.76C420.327 84.7733 420.687 86.04 420.687 87.56V87.92H416.567V87.44C416.567 86.8 416.46 86.2533 416.247 85.8C416.033 85.32 415.633 84.9467 415.047 84.68C414.46 84.4133 413.567 84.28 412.367 84.28C410.793 84.28 409.753 84.48 409.247 84.88C408.74 85.28 408.487 85.8667 408.487 86.64C408.487 87.4133 408.713 87.96 409.167 88.28C409.647 88.5733 410.58 88.8667 411.967 89.16L415.367 89.8C416.647 90.04 417.713 90.4 418.567 90.88C419.42 91.36 420.06 91.9867 420.487 92.76C420.94 93.5333 421.167 94.4533 421.167 95.52C421.167 97.3867 420.46 98.84 419.047 99.88C417.66 100.893 415.713 101.4 413.207 101.4ZM433.491 101.4C431.331 101.4 429.531 100.973 428.091 100.12C426.651 99.24 425.585 98.0267 424.891 96.48C424.198 94.9067 423.851 93.0933 423.851 91.04C423.851 88.9867 424.238 87.1867 425.011 85.64C425.811 84.0933 426.931 82.8933 428.371 82.04C429.811 81.16 431.518 80.72 433.491 80.72C435.278 80.72 436.851 81.0667 438.211 81.76C439.598 82.4267 440.665 83.4 441.411 84.68C442.185 85.96 442.571 87.5067 442.571 89.32C442.571 89.8533 442.545 90.3733 442.491 90.88C442.465 91.36 442.425 91.76 442.371 92.08H425.891V89.2H438.851L438.411 89.6C438.518 88.3733 438.385 87.3733 438.011 86.6C437.665 85.8267 437.091 85.2533 436.291 84.88C435.518 84.5067 434.545 84.32 433.371 84.32C431.265 84.32 429.825 84.8533 429.051 85.92C428.278 86.96 427.891 88.4 427.891 90.24V91.44C427.891 92.7733 428.051 93.9067 428.371 94.84C428.718 95.7467 429.305 96.4267 430.131 96.88C430.958 97.3333 432.091 97.56 433.531 97.56C435.211 97.56 436.398 97.2933 437.091 96.76C437.785 96.2267 438.131 95.52 438.131 94.64V94.32H442.411V94.68C442.411 96.04 442.038 97.2267 441.291 98.24C440.545 99.2267 439.505 100 438.171 100.56C436.865 101.12 435.305 101.4 433.491 101.4ZM457.153 107.8C456.619 107.8 456.073 107.76 455.513 107.68C454.953 107.627 454.499 107.547 454.153 107.44V103.92H456.913C457.739 103.92 458.353 103.8 458.753 103.56C459.153 103.347 459.526 102.88 459.873 102.16L461.113 99.36L460.753 100.76L452.153 81.12H456.913L460.913 90.76L462.713 95.08H463.073L464.673 90.76L468.313 81.12H473.113L463.673 103.32C463.193 104.52 462.646 105.44 462.033 106.08C461.419 106.72 460.713 107.16 459.913 107.4C459.139 107.667 458.219 107.8 457.153 107.8ZM483.498 101.4C481.471 101.4 479.711 100.973 478.218 100.12C476.724 99.24 475.578 98.0267 474.778 96.48C473.978 94.9067 473.578 93.0933 473.578 91.04C473.578 88.9867 473.978 87.1867 474.778 85.64C475.578 84.0933 476.724 82.8933 478.218 82.04C479.711 81.16 481.471 80.72 483.498 80.72C485.524 80.72 487.258 81.16 488.698 82.04C490.164 82.8933 491.284 84.0933 492.058 85.64C492.858 87.1867 493.258 88.9867 493.258 91.04C493.258 93.0933 492.858 94.9067 492.058 96.48C491.284 98.0267 490.164 99.24 488.698 100.12C487.258 100.973 485.524 101.4 483.498 101.4ZM483.498 97.56C485.578 97.56 487.031 97.04 487.858 96C488.684 94.9333 489.098 93.28 489.098 91.04C489.098 88.8 488.684 87.16 487.858 86.12C487.031 85.08 485.578 84.56 483.498 84.56C481.391 84.56 479.924 85.08 479.098 86.12C478.271 87.16 477.858 88.8 477.858 91.04C477.858 93.28 478.271 94.9333 479.098 96C479.924 97.04 481.391 97.56 483.498 97.56ZM503.887 101.4C502.181 101.4 500.767 101.053 499.647 100.36C498.527 99.64 497.701 98.68 497.167 97.48C496.634 96.2533 496.367 94.8933 496.367 93.4V81.12H500.687V92.6C500.687 94.3867 501.061 95.68 501.807 96.48C502.554 97.28 503.781 97.68 505.487 97.68C506.607 97.68 507.554 97.5067 508.327 97.16C509.101 96.7867 509.687 96.2133 510.087 95.44C510.487 94.64 510.687 93.6 510.687 92.32H511.807V97.04H510.847C510.554 97.7867 510.101 98.4933 509.487 99.16C508.901 99.8267 508.141 100.373 507.207 100.8C506.301 101.2 505.194 101.4 503.887 101.4ZM515.007 101H511.007V95.04L510.687 94.84V81.12H515.007V101ZM523.581 101H519.261V81H523.221V86.56L523.581 86.76V101ZM523.581 88.04H522.581V84.16H523.421C523.821 83.2267 524.474 82.4267 525.381 81.76C526.314 81.0667 527.514 80.72 528.981 80.72C530.394 80.72 531.514 81.0267 532.341 81.64C533.194 82.2533 533.807 83.0667 534.181 84.08C534.554 85.0933 534.741 86.2267 534.741 87.48V88.8H530.421V88C530.421 86.6667 530.194 85.7333 529.741 85.2C529.287 84.6667 528.434 84.4 527.181 84.4C525.874 84.4 524.941 84.68 524.381 85.24C523.847 85.7733 523.581 86.7067 523.581 88.04ZM549.635 101H545.315V81H549.275V86.56L549.635 86.76V101ZM549.635 88.04H548.635V84.16H549.475C549.875 83.2267 550.529 82.4267 551.435 81.76C552.369 81.0667 553.569 80.72 555.035 80.72C556.449 80.72 557.569 81.0267 558.395 81.64C559.249 82.2533 559.862 83.0667 560.235 84.08C560.609 85.0933 560.795 86.2267 560.795 87.48V88.8H556.475V88C556.475 86.6667 556.249 85.7333 555.795 85.2C555.342 84.6667 554.489 84.4 553.235 84.4C551.929 84.4 550.995 84.68 550.435 85.24C549.902 85.7733 549.635 86.7067 549.635 88.04ZM572.398 101.4C570.238 101.4 568.438 100.973 566.998 100.12C565.558 99.24 564.491 98.0267 563.798 96.48C563.104 94.9067 562.757 93.0933 562.757 91.04C562.757 88.9867 563.144 87.1867 563.918 85.64C564.718 84.0933 565.838 82.8933 567.278 82.04C568.718 81.16 570.424 80.72 572.398 80.72C574.184 80.72 575.758 81.0667 577.118 81.76C578.504 82.4267 579.571 83.4 580.318 84.68C581.091 85.96 581.478 87.5067 581.478 89.32C581.478 89.8533 581.451 90.3733 581.398 90.88C581.371 91.36 581.331 91.76 581.278 92.08H564.798V89.2H577.758L577.318 89.6C577.424 88.3733 577.291 87.3733 576.918 86.6C576.571 85.8267 575.998 85.2533 575.198 84.88C574.424 84.5067 573.451 84.32 572.278 84.32C570.171 84.32 568.731 84.8533 567.958 85.92C567.184 86.96 566.798 88.4 566.798 90.24V91.44C566.798 92.7733 566.958 93.9067 567.278 94.84C567.624 95.7467 568.211 96.4267 569.038 96.88C569.864 97.3333 570.998 97.56 572.438 97.56C574.118 97.56 575.304 97.2933 575.998 96.76C576.691 96.2267 577.038 95.52 577.038 94.64V94.32H581.318V94.68C581.318 96.04 580.944 97.2267 580.198 98.24C579.451 99.2267 578.411 100 577.078 100.56C575.771 101.12 574.211 101.4 572.398 101.4ZM594.04 101.44C591.96 101.44 590.2 101 588.76 100.12C587.32 99.24 586.213 98.0267 585.44 96.48C584.693 94.9333 584.32 93.1333 584.32 91.08C584.32 89.0267 584.707 87.2267 585.48 85.68C586.28 84.1067 587.413 82.8933 588.88 82.04C590.347 81.16 592.12 80.72 594.2 80.72C595.96 80.72 597.507 81.0533 598.84 81.72C600.173 82.3867 601.2 83.32 601.92 84.52C602.667 85.72 603.04 87.12 603.04 88.72V89.08H598.76V88.84C598.76 87.3733 598.36 86.3067 597.56 85.64C596.787 84.9467 595.573 84.6 593.92 84.6C592 84.6 590.627 85.1467 589.8 86.24C589 87.3067 588.6 88.9067 588.6 91.04C588.6 93.2 589 94.8267 589.8 95.92C590.627 96.9867 592 97.52 593.92 97.52C595.573 97.52 596.787 97.1867 597.56 96.52C598.36 95.8267 598.76 94.76 598.76 93.32V93.08H603.04V93.44C603.04 94.9867 602.667 96.3733 601.92 97.6C601.173 98.8 600.12 99.7467 598.76 100.44C597.427 101.107 595.853 101.44 594.04 101.44ZM615.327 101.4C613.167 101.4 611.367 100.973 609.927 100.12C608.487 99.24 607.421 98.0267 606.727 96.48C606.034 94.9067 605.687 93.0933 605.687 91.04C605.687 88.9867 606.074 87.1867 606.847 85.64C607.647 84.0933 608.767 82.8933 610.207 82.04C611.647 81.16 613.354 80.72 615.327 80.72C617.114 80.72 618.687 81.0667 620.047 81.76C621.434 82.4267 622.501 83.4 623.247 84.68C624.021 85.96 624.407 87.5067 624.407 89.32C624.407 89.8533 624.381 90.3733 624.327 90.88C624.301 91.36 624.261 91.76 624.207 92.08H607.727V89.2H620.687L620.247 89.6C620.354 88.3733 620.221 87.3733 619.847 86.6C619.501 85.8267 618.927 85.2533 618.127 84.88C617.354 84.5067 616.381 84.32 615.207 84.32C613.101 84.32 611.661 84.8533 610.887 85.92C610.114 86.96 609.727 88.4 609.727 90.24V91.44C609.727 92.7733 609.887 93.9067 610.207 94.84C610.554 95.7467 611.141 96.4267 611.967 96.88C612.794 97.3333 613.927 97.56 615.367 97.56C617.047 97.56 618.234 97.2933 618.927 96.76C619.621 96.2267 619.967 95.52 619.967 94.64V94.32H624.247V94.68C624.247 96.04 623.874 97.2267 623.127 98.24C622.381 99.2267 621.341 100 620.007 100.56C618.701 101.12 617.141 101.4 615.327 101.4ZM646.374 101H642.054V89.44C642.054 87.68 641.721 86.4133 641.054 85.64C640.388 84.84 639.134 84.44 637.294 84.44C636.121 84.44 635.161 84.6133 634.414 84.96C633.668 85.28 633.108 85.8133 632.734 86.56C632.361 87.28 632.174 88.2667 632.174 89.52H631.414L631.054 84.84H632.014C632.308 84.12 632.748 83.4533 633.334 82.84C633.921 82.2267 634.668 81.72 635.574 81.32C636.508 80.92 637.614 80.72 638.894 80.72C640.628 80.72 642.041 81.0533 643.134 81.72C644.228 82.3867 645.041 83.3067 645.574 84.48C646.108 85.6533 646.374 87 646.374 88.52V101ZM632.174 101H627.854V81.12H631.814V87.08L632.174 87.28V101ZM658.596 101C656.41 101 654.73 100.533 653.556 99.6C652.41 98.6667 651.836 97.0933 651.836 94.88V81.56L652.836 76.2H656.156V94.68C656.156 95.72 656.41 96.3867 656.916 96.68C657.45 96.9467 658.396 97.08 659.756 97.08H662.156V100.64C661.756 100.747 661.236 100.84 660.596 100.92C659.956 100.973 659.29 101 658.596 101ZM662.156 84.72H648.516V81.12H662.156V84.72ZM263.405 150H259.405V146.08L259.285 145V137.36C259.285 135.867 258.925 134.853 258.205 134.32C257.512 133.787 256.379 133.52 254.805 133.52C253.232 133.52 252.099 133.8 251.405 134.36C250.739 134.92 250.405 135.853 250.405 137.16V137.76H246.245V137.36C246.245 135.867 246.605 134.547 247.325 133.4C248.072 132.253 249.099 131.36 250.405 130.72C251.739 130.053 253.285 129.72 255.045 129.72C256.912 129.72 258.459 130.067 259.685 130.76C260.912 131.453 261.832 132.413 262.445 133.64C263.085 134.84 263.405 136.267 263.405 137.92V150ZM252.005 150.4C250.219 150.4 248.712 149.947 247.485 149.04C246.285 148.107 245.685 146.787 245.685 145.08C245.685 143.96 245.939 143.027 246.445 142.28C246.979 141.533 247.739 140.92 248.725 140.44C249.712 139.96 250.912 139.627 252.325 139.44L259.685 138.4V141.44L252.965 142.44C251.819 142.6 251.019 142.84 250.565 143.16C250.112 143.48 249.885 144.013 249.885 144.76C249.885 145.533 250.152 146.093 250.685 146.44C251.245 146.787 252.152 146.96 253.405 146.96C254.365 146.96 255.285 146.813 256.165 146.52C257.072 146.2 257.819 145.68 258.405 144.96C258.992 144.213 259.285 143.173 259.285 141.84L259.845 146.92L259.205 146.88C258.832 147.493 258.312 148.067 257.645 148.6C257.005 149.133 256.219 149.573 255.285 149.92C254.352 150.24 253.259 150.4 252.005 150.4ZM276.384 150.44C274.304 150.44 272.544 150 271.104 149.12C269.664 148.24 268.557 147.027 267.784 145.48C267.037 143.933 266.664 142.133 266.664 140.08C266.664 138.027 267.05 136.227 267.824 134.68C268.624 133.107 269.757 131.893 271.224 131.04C272.69 130.16 274.464 129.72 276.544 129.72C278.304 129.72 279.85 130.053 281.184 130.72C282.517 131.387 283.544 132.32 284.264 133.52C285.01 134.72 285.384 136.12 285.384 137.72V138.08H281.104V137.84C281.104 136.373 280.704 135.307 279.904 134.64C279.13 133.947 277.917 133.6 276.264 133.6C274.344 133.6 272.97 134.147 272.144 135.24C271.344 136.307 270.944 137.907 270.944 140.04C270.944 142.2 271.344 143.827 272.144 144.92C272.97 145.987 274.344 146.52 276.264 146.52C277.917 146.52 279.13 146.187 279.904 145.52C280.704 144.827 281.104 143.76 281.104 142.32V142.08H285.384V142.44C285.384 143.987 285.01 145.373 284.264 146.6C283.517 147.8 282.464 148.747 281.104 149.44C279.77 150.107 278.197 150.44 276.384 150.44ZM305.632 150H301.632V146.08L301.512 145V137.36C301.512 135.867 301.152 134.853 300.432 134.32C299.739 133.787 298.605 133.52 297.032 133.52C295.459 133.52 294.325 133.8 293.632 134.36C292.965 134.92 292.632 135.853 292.632 137.16V137.76H288.472V137.36C288.472 135.867 288.832 134.547 289.552 133.4C290.299 132.253 291.325 131.36 292.632 130.72C293.965 130.053 295.512 129.72 297.272 129.72C299.139 129.72 300.685 130.067 301.912 130.76C303.139 131.453 304.059 132.413 304.672 133.64C305.312 134.84 305.632 136.267 305.632 137.92V150ZM294.232 150.4C292.445 150.4 290.939 149.947 289.712 149.04C288.512 148.107 287.912 146.787 287.912 145.08C287.912 143.96 288.165 143.027 288.672 142.28C289.205 141.533 289.965 140.92 290.952 140.44C291.939 139.96 293.139 139.627 294.552 139.44L301.912 138.4V141.44L295.192 142.44C294.045 142.6 293.245 142.84 292.792 143.16C292.339 143.48 292.112 144.013 292.112 144.76C292.112 145.533 292.379 146.093 292.912 146.44C293.472 146.787 294.379 146.96 295.632 146.96C296.592 146.96 297.512 146.813 298.392 146.52C299.299 146.2 300.045 145.68 300.632 144.96C301.219 144.213 301.512 143.173 301.512 141.84L302.072 146.92L301.432 146.88C301.059 147.493 300.539 148.067 299.872 148.6C299.232 149.133 298.445 149.573 297.512 149.92C296.579 150.24 295.485 150.4 294.232 150.4ZM317.65 150.4C314.824 150.4 312.65 149.467 311.13 147.6C309.637 145.707 308.89 143.187 308.89 140.04C308.89 136.893 309.624 134.387 311.09 132.52C312.584 130.653 314.69 129.72 317.41 129.72C319.17 129.72 320.584 130.08 321.65 130.8C322.744 131.493 323.504 132.293 323.93 133.2H325.01L324.81 138.28H324.05C324.05 137.16 323.837 136.24 323.41 135.52C322.984 134.8 322.37 134.267 321.57 133.92C320.77 133.573 319.784 133.4 318.61 133.4C317.65 133.4 316.824 133.52 316.13 133.76C315.464 134 314.904 134.373 314.45 134.88C314.024 135.387 313.704 136.067 313.49 136.92C313.304 137.773 313.21 138.813 313.21 140.04C313.21 141.24 313.304 142.28 313.49 143.16C313.704 144.013 314.024 144.707 314.45 145.24C314.904 145.747 315.477 146.12 316.17 146.36C316.864 146.6 317.677 146.72 318.61 146.72C319.784 146.72 320.77 146.547 321.57 146.2C322.37 145.827 322.984 145.28 323.41 144.56C323.837 143.84 324.05 142.933 324.05 141.84H324.81L325.01 146.72H324.21C323.757 147.867 322.97 148.773 321.85 149.44C320.757 150.08 319.357 150.4 317.65 150.4ZM328.37 150H324.37V145.28L324.05 144.76V123.2H328.37V150ZM341.304 150.4C339.144 150.4 337.344 149.973 335.904 149.12C334.464 148.24 333.397 147.027 332.704 145.48C332.01 143.907 331.664 142.093 331.664 140.04C331.664 137.987 332.05 136.187 332.824 134.64C333.624 133.093 334.744 131.893 336.184 131.04C337.624 130.16 339.33 129.72 341.304 129.72C343.09 129.72 344.664 130.067 346.024 130.76C347.41 131.427 348.477 132.4 349.224 133.68C349.997 134.96 350.384 136.507 350.384 138.32C350.384 138.853 350.357 139.373 350.304 139.88C350.277 140.36 350.237 140.76 350.184 141.08H333.704V138.2H346.664L346.224 138.6C346.33 137.373 346.197 136.373 345.824 135.6C345.477 134.827 344.904 134.253 344.104 133.88C343.33 133.507 342.357 133.32 341.184 133.32C339.077 133.32 337.637 133.853 336.864 134.92C336.09 135.96 335.704 137.4 335.704 139.24V140.44C335.704 141.773 335.864 142.907 336.184 143.84C336.53 144.747 337.117 145.427 337.944 145.88C338.77 146.333 339.904 146.56 341.344 146.56C343.024 146.56 344.21 146.293 344.904 145.76C345.597 145.227 345.944 144.52 345.944 143.64V143.32H350.224V143.68C350.224 145.04 349.85 146.227 349.104 147.24C348.357 148.227 347.317 149 345.984 149.56C344.677 150.12 343.117 150.4 341.304 150.4ZM385.751 150H381.431V138.44C381.431 136.68 381.098 135.413 380.431 134.64C379.791 133.84 378.564 133.44 376.751 133.44C375.124 133.44 373.911 133.827 373.111 134.6C372.338 135.347 371.951 136.627 371.951 138.44L371.191 138.52L370.831 133.84H371.471C371.791 133.147 372.231 132.493 372.791 131.88C373.378 131.24 374.124 130.72 375.031 130.32C375.938 129.92 377.044 129.72 378.351 129.72C380.084 129.72 381.484 130.053 382.551 130.72C383.644 131.387 384.444 132.307 384.951 133.48C385.484 134.653 385.751 136 385.751 137.52V150ZM358.151 150H353.831V130.12H357.791V136.08L358.151 136.28V150ZM371.951 150H367.631V138.44C367.631 136.68 367.298 135.413 366.631 134.64C365.991 133.84 364.764 133.44 362.951 133.44C361.324 133.44 360.111 133.813 359.311 134.56C358.538 135.307 358.151 136.587 358.151 138.4L357.391 138.52L357.031 133.84H357.991C358.284 133.12 358.711 132.453 359.271 131.84C359.858 131.227 360.604 130.72 361.511 130.32C362.418 129.92 363.498 129.72 364.751 129.72C366.431 129.72 367.791 130.053 368.831 130.72C369.898 131.387 370.684 132.307 371.191 133.48C371.698 134.653 371.951 136 371.951 137.52V150ZM393.926 127.6H389.646L389.606 123.2H393.926V127.6ZM393.966 150H389.646V130H393.966V150ZM406.657 150.44C404.577 150.44 402.817 150 401.377 149.12C399.937 148.24 398.831 147.027 398.057 145.48C397.311 143.933 396.937 142.133 396.937 140.08C396.937 138.027 397.324 136.227 398.097 134.68C398.897 133.107 400.031 131.893 401.497 131.04C402.964 130.16 404.737 129.72 406.817 129.72C408.577 129.72 410.124 130.053 411.457 130.72C412.791 131.387 413.817 132.32 414.537 133.52C415.284 134.72 415.657 136.12 415.657 137.72V138.08H411.377V137.84C411.377 136.373 410.977 135.307 410.177 134.64C409.404 133.947 408.191 133.6 406.537 133.6C404.617 133.6 403.244 134.147 402.417 135.24C401.617 136.307 401.217 137.907 401.217 140.04C401.217 142.2 401.617 143.827 402.417 144.92C403.244 145.987 404.617 146.52 406.537 146.52C408.191 146.52 409.404 146.187 410.177 145.52C410.977 144.827 411.377 143.76 411.377 142.32V142.08H415.657V142.44C415.657 143.987 415.284 145.373 414.537 146.6C413.791 147.8 412.737 148.747 411.377 149.44C410.044 150.107 408.471 150.44 406.657 150.44ZM431.043 127.6H426.763V123.2H431.043V127.6ZM422.723 156.8V152.88H424.283C425.323 152.88 425.99 152.747 426.283 152.48C426.603 152.24 426.763 151.72 426.763 150.92V130.12H431.043V150C431.043 151.76 430.75 153.133 430.163 154.12C429.577 155.107 428.763 155.8 427.723 156.2C426.683 156.6 425.43 156.8 423.963 156.8C423.777 156.8 423.59 156.8 423.403 156.8C423.19 156.8 422.963 156.8 422.723 156.8ZM444.201 150.4C442.174 150.4 440.414 149.973 438.921 149.12C437.428 148.24 436.281 147.027 435.481 145.48C434.681 143.907 434.281 142.093 434.281 140.04C434.281 137.987 434.681 136.187 435.481 134.64C436.281 133.093 437.428 131.893 438.921 131.04C440.414 130.16 442.174 129.72 444.201 129.72C446.228 129.72 447.961 130.16 449.401 131.04C450.868 131.893 451.988 133.093 452.761 134.64C453.561 136.187 453.961 137.987 453.961 140.04C453.961 142.093 453.561 143.907 452.761 145.48C451.988 147.027 450.868 148.24 449.401 149.12C447.961 149.973 446.228 150.4 444.201 150.4ZM444.201 146.56C446.281 146.56 447.734 146.04 448.561 145C449.388 143.933 449.801 142.28 449.801 140.04C449.801 137.8 449.388 136.16 448.561 135.12C447.734 134.08 446.281 133.56 444.201 133.56C442.094 133.56 440.628 134.08 439.801 135.12C438.974 136.16 438.561 137.8 438.561 140.04C438.561 142.28 438.974 143.933 439.801 145C440.628 146.04 442.094 146.56 444.201 146.56ZM464.59 150.4C462.884 150.4 461.47 150.053 460.35 149.36C459.23 148.64 458.404 147.68 457.87 146.48C457.337 145.253 457.07 143.893 457.07 142.4V130.12H461.39V141.6C461.39 143.387 461.764 144.68 462.51 145.48C463.257 146.28 464.484 146.68 466.19 146.68C467.31 146.68 468.257 146.507 469.03 146.16C469.804 145.787 470.39 145.213 470.79 144.44C471.19 143.64 471.39 142.6 471.39 141.32H472.51V146.04H471.55C471.257 146.787 470.804 147.493 470.19 148.16C469.604 148.827 468.844 149.373 467.91 149.8C467.004 150.2 465.897 150.4 464.59 150.4ZM475.71 150H471.71V144.04L471.39 143.84V130.12H475.71V150ZM484.284 150H479.964V130H483.924V135.56L484.284 135.76V150ZM484.284 137.04H483.284V133.16H484.124C484.524 132.227 485.177 131.427 486.084 130.76C487.017 130.067 488.217 129.72 489.684 129.72C491.097 129.72 492.217 130.027 493.044 130.64C493.897 131.253 494.51 132.067 494.884 133.08C495.257 134.093 495.444 135.227 495.444 136.48V137.8H491.124V137C491.124 135.667 490.897 134.733 490.444 134.2C489.99 133.667 489.137 133.4 487.884 133.4C486.577 133.4 485.644 133.68 485.084 134.24C484.55 134.773 484.284 135.707 484.284 137.04ZM516.648 150H512.328V138.44C512.328 136.68 511.994 135.413 511.328 134.64C510.661 133.84 509.408 133.44 507.568 133.44C506.394 133.44 505.434 133.613 504.688 133.96C503.941 134.28 503.381 134.813 503.008 135.56C502.634 136.28 502.448 137.267 502.448 138.52H501.688L501.328 133.84H502.288C502.581 133.12 503.021 132.453 503.608 131.84C504.194 131.227 504.941 130.72 505.848 130.32C506.781 129.92 507.888 129.72 509.168 129.72C510.901 129.72 512.314 130.053 513.408 130.72C514.501 131.387 515.314 132.307 515.848 133.48C516.381 134.653 516.648 136 516.648 137.52V150ZM502.448 150H498.128V130.12H502.088V136.08L502.448 136.28V150ZM529.546 150.4C527.386 150.4 525.586 149.973 524.146 149.12C522.706 148.24 521.639 147.027 520.946 145.48C520.253 143.907 519.906 142.093 519.906 140.04C519.906 137.987 520.293 136.187 521.066 134.64C521.866 133.093 522.986 131.893 524.426 131.04C525.866 130.16 527.573 129.72 529.546 129.72C531.333 129.72 532.906 130.067 534.266 130.76C535.653 131.427 536.719 132.4 537.466 133.68C538.239 134.96 538.626 136.507 538.626 138.32C538.626 138.853 538.599 139.373 538.546 139.88C538.519 140.36 538.479 140.76 538.426 141.08H521.946V138.2H534.906L534.466 138.6C534.573 137.373 534.439 136.373 534.066 135.6C533.719 134.827 533.146 134.253 532.346 133.88C531.573 133.507 530.599 133.32 529.426 133.32C527.319 133.32 525.879 133.853 525.106 134.92C524.333 135.96 523.946 137.4 523.946 139.24V140.44C523.946 141.773 524.106 142.907 524.426 143.84C524.773 144.747 525.359 145.427 526.186 145.88C527.013 146.333 528.146 146.56 529.586 146.56C531.266 146.56 532.453 146.293 533.146 145.76C533.839 145.227 534.186 144.52 534.186 143.64V143.32H538.466V143.68C538.466 145.04 538.093 146.227 537.346 147.24C536.599 148.227 535.559 149 534.226 149.56C532.919 150.12 531.359 150.4 529.546 150.4ZM544.418 156.8C543.885 156.8 543.338 156.76 542.778 156.68C542.218 156.627 541.765 156.547 541.418 156.44V152.92H544.178C545.005 152.92 545.618 152.8 546.018 152.56C546.418 152.347 546.792 151.88 547.138 151.16L548.378 148.36L548.018 149.76L539.418 130.12H544.178L548.178 139.76L549.978 144.08H550.338L551.938 139.76L555.578 130.12H560.378L550.938 152.32C550.458 153.52 549.912 154.44 549.298 155.08C548.685 155.72 547.978 156.16 547.178 156.4C546.405 156.667 545.485 156.8 544.418 156.8ZM567.533 141.2H563.333C563.333 140.4 563.306 139.48 563.253 138.44C563.226 137.373 563.173 136.253 563.093 135.08C563.039 133.88 562.986 132.707 562.933 131.56C562.879 130.387 562.826 129.32 562.773 128.36C562.719 127.4 562.693 126.613 562.693 126V123.2H568.173V126C568.173 126.613 568.146 127.4 568.093 128.36C568.066 129.32 568.013 130.387 567.933 131.56C567.879 132.707 567.826 133.88 567.773 135.08C567.719 136.28 567.666 137.413 567.613 138.48C567.559 139.52 567.533 140.427 567.533 141.2ZM567.893 150H563.013V144.08H567.893V150ZM592.129 140.56H588.449L577.729 123.2H582.649L587.729 131.48L590.209 135.68H590.529L592.929 131.48L597.969 123.2H602.849L592.129 140.56ZM592.449 150H588.129V137.48H592.449V150ZM610.842 150.4C608.815 150.4 607.055 149.973 605.562 149.12C604.068 148.24 602.922 147.027 602.122 145.48C601.322 143.907 600.922 142.093 600.922 140.04C600.922 137.987 601.322 136.187 602.122 134.64C602.922 133.093 604.068 131.893 605.562 131.04C607.055 130.16 608.815 129.72 610.842 129.72C612.868 129.72 614.602 130.16 616.042 131.04C617.508 131.893 618.628 133.093 619.402 134.64C620.202 136.187 620.602 137.987 620.602 140.04C620.602 142.093 620.202 143.907 619.402 145.48C618.628 147.027 617.508 148.24 616.042 149.12C614.602 149.973 612.868 150.4 610.842 150.4ZM610.842 146.56C612.922 146.56 614.375 146.04 615.202 145C616.028 143.933 616.442 142.28 616.442 140.04C616.442 137.8 616.028 136.16 615.202 135.12C614.375 134.08 612.922 133.56 610.842 133.56C608.735 133.56 607.268 134.08 606.442 135.12C605.615 136.16 605.202 137.8 605.202 140.04C605.202 142.28 605.615 143.933 606.442 145C607.268 146.04 608.735 146.56 610.842 146.56ZM631.231 150.4C629.524 150.4 628.111 150.053 626.991 149.36C625.871 148.64 625.044 147.68 624.511 146.48C623.978 145.253 623.711 143.893 623.711 142.4V130.12H628.031V141.6C628.031 143.387 628.404 144.68 629.151 145.48C629.898 146.28 631.124 146.68 632.831 146.68C633.951 146.68 634.898 146.507 635.671 146.16C636.444 145.787 637.031 145.213 637.431 144.44C637.831 143.64 638.031 142.6 638.031 141.32H639.151V146.04H638.191C637.898 146.787 637.444 147.493 636.831 148.16C636.244 148.827 635.484 149.373 634.551 149.8C633.644 150.2 632.538 150.4 631.231 150.4ZM642.351 150H638.351V144.04L638.031 143.84V130.12H642.351V150ZM650.924 150H646.604V130H650.564V135.56L650.924 135.76V150ZM650.924 137.04H649.924V133.16H650.764C651.164 132.227 651.818 131.427 652.724 130.76C653.658 130.067 654.858 129.72 656.324 129.72C657.738 129.72 658.858 130.027 659.684 130.64C660.538 131.253 661.151 132.067 661.524 133.08C661.898 134.093 662.084 135.227 662.084 136.48V137.8H657.764V137C657.764 135.667 657.538 134.733 657.084 134.2C656.631 133.667 655.778 133.4 654.524 133.4C653.218 133.4 652.284 133.68 651.724 134.24C651.191 134.773 650.924 135.707 650.924 137.04ZM201.547 199.4C199.76 199.4 198.307 199.053 197.187 198.36C196.094 197.64 195.334 196.827 194.907 195.92H193.827L194.027 190.84H194.787C194.787 191.933 194.987 192.84 195.387 193.56C195.814 194.28 196.44 194.827 197.267 195.2C198.094 195.547 199.08 195.72 200.227 195.72C201.16 195.72 201.974 195.6 202.667 195.36C203.36 195.12 203.92 194.747 204.347 194.24C204.8 193.733 205.12 193.053 205.307 192.2C205.52 191.32 205.627 190.267 205.627 189.04C205.627 187.813 205.52 186.787 205.307 185.96C205.12 185.107 204.8 184.413 204.347 183.88C203.92 183.347 203.36 182.973 202.667 182.76C202 182.52 201.187 182.4 200.227 182.4C199.08 182.4 198.094 182.587 197.267 182.96C196.44 183.307 195.814 183.84 195.387 184.56C194.987 185.253 194.787 186.16 194.787 187.28H194.027L193.827 182.4H194.627C195.107 181.253 195.894 180.36 196.987 179.72C198.107 179.053 199.534 178.72 201.267 178.72C204.067 178.72 206.214 179.653 207.707 181.52C209.2 183.387 209.947 185.893 209.947 189.04C209.947 192.187 209.227 194.707 207.787 196.6C206.347 198.467 204.267 199.4 201.547 199.4ZM194.787 205.92H190.507V179.12H194.427V183.84L194.787 184.36V205.92ZM217.76 199H213.44V172.2H217.76V199ZM238.64 199H234.64V195.08L234.52 194V186.36C234.52 184.867 234.16 183.853 233.44 183.32C232.746 182.787 231.613 182.52 230.04 182.52C228.466 182.52 227.333 182.8 226.64 183.36C225.973 183.92 225.64 184.853 225.64 186.16V186.76H221.48V186.36C221.48 184.867 221.84 183.547 222.56 182.4C223.306 181.253 224.333 180.36 225.64 179.72C226.973 179.053 228.52 178.72 230.28 178.72C232.146 178.72 233.693 179.067 234.92 179.76C236.146 180.453 237.066 181.413 237.68 182.64C238.32 183.84 238.64 185.267 238.64 186.92V199ZM227.24 199.4C225.453 199.4 223.946 198.947 222.72 198.04C221.52 197.107 220.92 195.787 220.92 194.08C220.92 192.96 221.173 192.027 221.68 191.28C222.213 190.533 222.973 189.92 223.96 189.44C224.946 188.96 226.146 188.627 227.56 188.44L234.92 187.4V190.44L228.2 191.44C227.053 191.6 226.253 191.84 225.8 192.16C225.346 192.48 225.12 193.013 225.12 193.76C225.12 194.533 225.386 195.093 225.92 195.44C226.48 195.787 227.386 195.96 228.64 195.96C229.6 195.96 230.52 195.813 231.4 195.52C232.306 195.2 233.053 194.68 233.64 193.96C234.226 193.213 234.52 192.173 234.52 190.84L235.08 195.92L234.44 195.88C234.066 196.493 233.546 197.067 232.88 197.6C232.24 198.133 231.453 198.573 230.52 198.92C229.586 199.24 228.493 199.4 227.24 199.4ZM251.618 199.44C249.538 199.44 247.778 199 246.338 198.12C244.898 197.24 243.791 196.027 243.018 194.48C242.271 192.933 241.898 191.133 241.898 189.08C241.898 187.027 242.285 185.227 243.058 183.68C243.858 182.107 244.991 180.893 246.458 180.04C247.925 179.16 249.698 178.72 251.778 178.72C253.538 178.72 255.085 179.053 256.418 179.72C257.751 180.387 258.778 181.32 259.498 182.52C260.245 183.72 260.618 185.12 260.618 186.72V187.08H256.338V186.84C256.338 185.373 255.938 184.307 255.138 183.64C254.365 182.947 253.151 182.6 251.498 182.6C249.578 182.6 248.205 183.147 247.378 184.24C246.578 185.307 246.178 186.907 246.178 189.04C246.178 191.2 246.578 192.827 247.378 193.92C248.205 194.987 249.578 195.52 251.498 195.52C253.151 195.52 254.365 195.187 255.138 194.52C255.938 193.827 256.338 192.76 256.338 191.32V191.08H260.618V191.44C260.618 192.987 260.245 194.373 259.498 195.6C258.751 196.8 257.698 197.747 256.338 198.44C255.005 199.107 253.431 199.44 251.618 199.44ZM272.905 199.4C270.745 199.4 268.945 198.973 267.505 198.12C266.065 197.24 264.999 196.027 264.305 194.48C263.612 192.907 263.265 191.093 263.265 189.04C263.265 186.987 263.652 185.187 264.425 183.64C265.225 182.093 266.345 180.893 267.785 180.04C269.225 179.16 270.932 178.72 272.905 178.72C274.692 178.72 276.265 179.067 277.625 179.76C279.012 180.427 280.079 181.4 280.825 182.68C281.599 183.96 281.985 185.507 281.985 187.32C281.985 187.853 281.959 188.373 281.905 188.88C281.879 189.36 281.839 189.76 281.785 190.08H265.305V187.2H278.265L277.825 187.6C277.932 186.373 277.799 185.373 277.425 184.6C277.079 183.827 276.505 183.253 275.705 182.88C274.932 182.507 273.959 182.32 272.785 182.32C270.679 182.32 269.239 182.853 268.465 183.92C267.692 184.96 267.305 186.4 267.305 188.24V189.44C267.305 190.773 267.465 191.907 267.785 192.84C268.132 193.747 268.719 194.427 269.545 194.88C270.372 195.333 271.505 195.56 272.945 195.56C274.625 195.56 275.812 195.293 276.505 194.76C277.199 194.227 277.545 193.52 277.545 192.64V192.32H281.825V192.68C281.825 194.04 281.452 195.227 280.705 196.24C279.959 197.227 278.919 198 277.585 198.56C276.279 199.12 274.719 199.4 272.905 199.4ZM317.353 199H313.033V187.44C313.033 185.68 312.699 184.413 312.033 183.64C311.393 182.84 310.166 182.44 308.353 182.44C306.726 182.44 305.513 182.827 304.713 183.6C303.939 184.347 303.553 185.627 303.553 187.44L302.793 187.52L302.433 182.84H303.073C303.393 182.147 303.833 181.493 304.393 180.88C304.979 180.24 305.726 179.72 306.633 179.32C307.539 178.92 308.646 178.72 309.953 178.72C311.686 178.72 313.086 179.053 314.153 179.72C315.246 180.387 316.046 181.307 316.553 182.48C317.086 183.653 317.353 185 317.353 186.52V199ZM289.753 199H285.433V179.12H289.393V185.08L289.753 185.28V199ZM303.553 199H299.233V187.44C299.233 185.68 298.899 184.413 298.233 183.64C297.593 182.84 296.366 182.44 294.553 182.44C292.926 182.44 291.713 182.813 290.913 183.56C290.139 184.307 289.753 185.587 289.753 187.4L288.993 187.52L288.633 182.84H289.593C289.886 182.12 290.313 181.453 290.873 180.84C291.459 180.227 292.206 179.72 293.113 179.32C294.019 178.92 295.099 178.72 296.353 178.72C298.033 178.72 299.393 179.053 300.433 179.72C301.499 180.387 302.286 181.307 302.793 182.48C303.299 183.653 303.553 185 303.553 186.52V199ZM330.249 199.4C328.089 199.4 326.289 198.973 324.849 198.12C323.409 197.24 322.342 196.027 321.649 194.48C320.956 192.907 320.609 191.093 320.609 189.04C320.609 186.987 320.996 185.187 321.769 183.64C322.569 182.093 323.689 180.893 325.129 180.04C326.569 179.16 328.276 178.72 330.249 178.72C332.036 178.72 333.609 179.067 334.969 179.76C336.356 180.427 337.422 181.4 338.169 182.68C338.942 183.96 339.329 185.507 339.329 187.32C339.329 187.853 339.302 188.373 339.249 188.88C339.222 189.36 339.182 189.76 339.129 190.08H322.649V187.2H335.609L335.169 187.6C335.276 186.373 335.142 185.373 334.769 184.6C334.422 183.827 333.849 183.253 333.049 182.88C332.276 182.507 331.302 182.32 330.129 182.32C328.022 182.32 326.582 182.853 325.809 183.92C325.036 184.96 324.649 186.4 324.649 188.24V189.44C324.649 190.773 324.809 191.907 325.129 192.84C325.476 193.747 326.062 194.427 326.889 194.88C327.716 195.333 328.849 195.56 330.289 195.56C331.969 195.56 333.156 195.293 333.849 194.76C334.542 194.227 334.889 193.52 334.889 192.64V192.32H339.169V192.68C339.169 194.04 338.796 195.227 338.049 196.24C337.302 197.227 336.262 198 334.929 198.56C333.622 199.12 332.062 199.4 330.249 199.4ZM361.296 199H356.976V187.44C356.976 185.68 356.643 184.413 355.976 183.64C355.31 182.84 354.056 182.44 352.216 182.44C351.043 182.44 350.083 182.613 349.336 182.96C348.59 183.28 348.03 183.813 347.656 184.56C347.283 185.28 347.096 186.267 347.096 187.52H346.336L345.976 182.84H346.936C347.23 182.12 347.67 181.453 348.256 180.84C348.843 180.227 349.59 179.72 350.496 179.32C351.43 178.92 352.536 178.72 353.816 178.72C355.55 178.72 356.963 179.053 358.056 179.72C359.15 180.387 359.963 181.307 360.496 182.48C361.03 183.653 361.296 185 361.296 186.52V199ZM347.096 199H342.776V179.12H346.736V185.08L347.096 185.28V199ZM373.518 199C371.331 199 369.651 198.533 368.478 197.6C367.331 196.667 366.758 195.093 366.758 192.88V179.56L367.758 174.2H371.078V192.68C371.078 193.72 371.331 194.387 371.838 194.68C372.371 194.947 373.318 195.08 374.678 195.08H377.078V198.64C376.678 198.747 376.158 198.84 375.518 198.92C374.878 198.973 374.211 199 373.518 199ZM377.078 182.72H363.438V179.12H377.078V182.72ZM396.501 199.44C394.421 199.44 392.661 199 391.221 198.12C389.781 197.24 388.674 196.027 387.901 194.48C387.154 192.933 386.781 191.133 386.781 189.08C386.781 187.027 387.168 185.227 387.941 183.68C388.741 182.107 389.874 180.893 391.341 180.04C392.808 179.16 394.581 178.72 396.661 178.72C398.421 178.72 399.968 179.053 401.301 179.72C402.634 180.387 403.661 181.32 404.381 182.52C405.128 183.72 405.501 185.12 405.501 186.72V187.08H401.221V186.84C401.221 185.373 400.821 184.307 400.021 183.64C399.248 182.947 398.034 182.6 396.381 182.6C394.461 182.6 393.088 183.147 392.261 184.24C391.461 185.307 391.061 186.907 391.061 189.04C391.061 191.2 391.461 192.827 392.261 193.92C393.088 194.987 394.461 195.52 396.381 195.52C398.034 195.52 399.248 195.187 400.021 194.52C400.821 193.827 401.221 192.76 401.221 191.32V191.08H405.501V191.44C405.501 192.987 405.128 194.373 404.381 195.6C403.634 196.8 402.581 197.747 401.221 198.44C399.888 199.107 398.314 199.44 396.501 199.44ZM418.068 199.4C416.041 199.4 414.281 198.973 412.788 198.12C411.295 197.24 410.148 196.027 409.348 194.48C408.548 192.907 408.148 191.093 408.148 189.04C408.148 186.987 408.548 185.187 409.348 183.64C410.148 182.093 411.295 180.893 412.788 180.04C414.281 179.16 416.041 178.72 418.068 178.72C420.095 178.72 421.828 179.16 423.268 180.04C424.735 180.893 425.855 182.093 426.628 183.64C427.428 185.187 427.828 186.987 427.828 189.04C427.828 191.093 427.428 192.907 426.628 194.48C425.855 196.027 424.735 197.24 423.268 198.12C421.828 198.973 420.095 199.4 418.068 199.4ZM418.068 195.56C420.148 195.56 421.601 195.04 422.428 194C423.255 192.933 423.668 191.28 423.668 189.04C423.668 186.8 423.255 185.16 422.428 184.12C421.601 183.08 420.148 182.56 418.068 182.56C415.961 182.56 414.495 183.08 413.668 184.12C412.841 185.16 412.428 186.8 412.428 189.04C412.428 191.28 412.841 192.933 413.668 194C414.495 195.04 415.961 195.56 418.068 195.56ZM440.373 199.4C438.346 199.4 436.586 198.973 435.093 198.12C433.599 197.24 432.453 196.027 431.653 194.48C430.853 192.907 430.453 191.093 430.453 189.04C430.453 186.987 430.853 185.187 431.653 183.64C432.453 182.093 433.599 180.893 435.093 180.04C436.586 179.16 438.346 178.72 440.373 178.72C442.399 178.72 444.133 179.16 445.573 180.04C447.039 180.893 448.159 182.093 448.933 183.64C449.733 185.187 450.133 186.987 450.133 189.04C450.133 191.093 449.733 192.907 448.933 194.48C448.159 196.027 447.039 197.24 445.573 198.12C444.133 198.973 442.399 199.4 440.373 199.4ZM440.373 195.56C442.453 195.56 443.906 195.04 444.733 194C445.559 192.933 445.973 191.28 445.973 189.04C445.973 186.8 445.559 185.16 444.733 184.12C443.906 183.08 442.453 182.56 440.373 182.56C438.266 182.56 436.799 183.08 435.973 184.12C435.146 185.16 434.733 186.8 434.733 189.04C434.733 191.28 435.146 192.933 435.973 194C436.799 195.04 438.266 195.56 440.373 195.56ZM457.682 199H453.362V179H457.322V184.56L457.682 184.76V199ZM457.682 186.04H456.682V182.16H457.522C457.922 181.227 458.576 180.427 459.482 179.76C460.416 179.067 461.616 178.72 463.082 178.72C464.496 178.72 465.616 179.027 466.442 179.64C467.296 180.253 467.909 181.067 468.282 182.08C468.656 183.093 468.842 184.227 468.842 185.48V186.8H464.522V186C464.522 184.667 464.296 183.733 463.842 183.2C463.389 182.667 462.536 182.4 461.282 182.4C459.976 182.4 459.042 182.68 458.482 183.24C457.949 183.773 457.682 184.707 457.682 186.04ZM479.564 199.4C476.738 199.4 474.564 198.467 473.044 196.6C471.551 194.707 470.804 192.187 470.804 189.04C470.804 185.893 471.538 183.387 473.004 181.52C474.498 179.653 476.604 178.72 479.324 178.72C481.084 178.72 482.498 179.08 483.564 179.8C484.658 180.493 485.418 181.293 485.844 182.2H486.924L486.724 187.28H485.964C485.964 186.16 485.751 185.24 485.324 184.52C484.898 183.8 484.284 183.267 483.484 182.92C482.684 182.573 481.698 182.4 480.524 182.4C479.564 182.4 478.738 182.52 478.044 182.76C477.378 183 476.818 183.373 476.364 183.88C475.938 184.387 475.618 185.067 475.404 185.92C475.218 186.773 475.124 187.813 475.124 189.04C475.124 190.24 475.218 191.28 475.404 192.16C475.618 193.013 475.938 193.707 476.364 194.24C476.818 194.747 477.391 195.12 478.084 195.36C478.778 195.6 479.591 195.72 480.524 195.72C481.698 195.72 482.684 195.547 483.484 195.2C484.284 194.827 484.898 194.28 485.324 193.56C485.751 192.84 485.964 191.933 485.964 190.84H486.724L486.924 195.72H486.124C485.671 196.867 484.884 197.773 483.764 198.44C482.671 199.08 481.271 199.4 479.564 199.4ZM490.284 199H486.284V194.28L485.964 193.76V172.2H490.284V199ZM498.574 176.6H494.294L494.254 172.2H498.574V176.6ZM498.614 199H494.294V179H498.614V199ZM521.101 199H516.781V187.44C516.781 185.68 516.448 184.413 515.781 183.64C515.114 182.84 513.861 182.44 512.021 182.44C510.848 182.44 509.888 182.613 509.141 182.96C508.394 183.28 507.834 183.813 507.461 184.56C507.088 185.28 506.901 186.267 506.901 187.52H506.141L505.781 182.84H506.741C507.034 182.12 507.474 181.453 508.061 180.84C508.648 180.227 509.394 179.72 510.301 179.32C511.234 178.92 512.341 178.72 513.621 178.72C515.354 178.72 516.768 179.053 517.861 179.72C518.954 180.387 519.768 181.307 520.301 182.48C520.834 183.653 521.101 185 521.101 186.52V199ZM506.901 199H502.581V179.12H506.541V185.08L506.901 185.28V199ZM541.999 199H537.999V195.08L537.879 194V186.36C537.879 184.867 537.519 183.853 536.799 183.32C536.106 182.787 534.972 182.52 533.399 182.52C531.826 182.52 530.692 182.8 529.999 183.36C529.332 183.92 528.999 184.853 528.999 186.16V186.76H524.839V186.36C524.839 184.867 525.199 183.547 525.919 182.4C526.666 181.253 527.692 180.36 528.999 179.72C530.332 179.053 531.879 178.72 533.639 178.72C535.506 178.72 537.052 179.067 538.279 179.76C539.506 180.453 540.426 181.413 541.039 182.64C541.679 183.84 541.999 185.267 541.999 186.92V199ZM530.599 199.4C528.812 199.4 527.306 198.947 526.079 198.04C524.879 197.107 524.279 195.787 524.279 194.08C524.279 192.96 524.532 192.027 525.039 191.28C525.572 190.533 526.332 189.92 527.319 189.44C528.306 188.96 529.506 188.627 530.919 188.44L538.279 187.4V190.44L531.559 191.44C530.412 191.6 529.612 191.84 529.159 192.16C528.706 192.48 528.479 193.013 528.479 193.76C528.479 194.533 528.746 195.093 529.279 195.44C529.839 195.787 530.746 195.96 531.999 195.96C532.959 195.96 533.879 195.813 534.759 195.52C535.666 195.2 536.412 194.68 536.999 193.96C537.586 193.213 537.879 192.173 537.879 190.84L538.439 195.92L537.799 195.88C537.426 196.493 536.906 197.067 536.239 197.6C535.599 198.133 534.812 198.573 533.879 198.92C532.946 199.24 531.852 199.4 530.599 199.4ZM554.221 199C552.035 199 550.355 198.533 549.181 197.6C548.035 196.667 547.461 195.093 547.461 192.88V179.56L548.461 174.2H551.781V192.68C551.781 193.72 552.035 194.387 552.541 194.68C553.075 194.947 554.021 195.08 555.381 195.08H557.781V198.64C557.381 198.747 556.861 198.84 556.221 198.92C555.581 198.973 554.915 199 554.221 199ZM557.781 182.72H544.141V179.12H557.781V182.72ZM569.123 199.4C567.096 199.4 565.336 198.973 563.843 198.12C562.349 197.24 561.203 196.027 560.403 194.48C559.603 192.907 559.203 191.093 559.203 189.04C559.203 186.987 559.603 185.187 560.403 183.64C561.203 182.093 562.349 180.893 563.843 180.04C565.336 179.16 567.096 178.72 569.123 178.72C571.149 178.72 572.883 179.16 574.323 180.04C575.789 180.893 576.909 182.093 577.683 183.64C578.483 185.187 578.883 186.987 578.883 189.04C578.883 191.093 578.483 192.907 577.683 194.48C576.909 196.027 575.789 197.24 574.323 198.12C572.883 198.973 571.149 199.4 569.123 199.4ZM569.123 195.56C571.203 195.56 572.656 195.04 573.483 194C574.309 192.933 574.723 191.28 574.723 189.04C574.723 186.8 574.309 185.16 573.483 184.12C572.656 183.08 571.203 182.56 569.123 182.56C567.016 182.56 565.549 183.08 564.723 184.12C563.896 185.16 563.483 186.8 563.483 189.04C563.483 191.28 563.896 192.933 564.723 194C565.549 195.04 567.016 195.56 569.123 195.56ZM586.432 199H582.112V179H586.072V184.56L586.432 184.76V199ZM586.432 186.04H585.432V182.16H586.272C586.672 181.227 587.326 180.427 588.232 179.76C589.166 179.067 590.366 178.72 591.832 178.72C593.246 178.72 594.366 179.027 595.192 179.64C596.046 180.253 596.659 181.067 597.032 182.08C597.406 183.093 597.592 184.227 597.592 185.48V186.8H593.272V186C593.272 184.667 593.046 183.733 592.592 183.2C592.139 182.667 591.286 182.4 590.032 182.4C588.726 182.4 587.792 182.68 587.232 183.24C586.699 183.773 586.432 184.707 586.432 186.04ZM617.047 199H611.407L606.487 179.12H611.167L613.447 190.16L614.287 195.4H614.607L615.887 190.16L619.367 179.12H624.967L628.487 190.2L629.767 195.36H630.047L630.887 190.2L633.167 179.12H637.687L632.767 199H627.127L623.567 187.92L622.247 182.92H621.967L620.647 187.92L617.047 199ZM643.808 176.6H639.528L639.488 172.2H643.808V176.6ZM643.848 199H639.528V179H643.848V199ZM652.135 199H647.815V172.2H652.135V199ZM660.885 199H656.565V172.2H660.885V199ZM325.729 248H321.409V228H325.369V233.56L325.729 233.76V248ZM325.729 235.04H324.729V231.16H325.569C325.969 230.227 326.622 229.427 327.529 228.76C328.462 228.067 329.662 227.72 331.129 227.72C332.542 227.72 333.662 228.027 334.489 228.64C335.342 229.253 335.956 230.067 336.329 231.08C336.702 232.093 336.889 233.227 336.889 234.48V235.8H332.569V235C332.569 233.667 332.342 232.733 331.889 232.2C331.436 231.667 330.582 231.4 329.329 231.4C328.022 231.4 327.089 231.68 326.529 232.24C325.996 232.773 325.729 233.707 325.729 235.04ZM348.491 248.4C346.331 248.4 344.531 247.973 343.091 247.12C341.651 246.24 340.585 245.027 339.891 243.48C339.198 241.907 338.851 240.093 338.851 238.04C338.851 235.987 339.238 234.187 340.011 232.64C340.811 231.093 341.931 229.893 343.371 229.04C344.811 228.16 346.518 227.72 348.491 227.72C350.278 227.72 351.851 228.067 353.211 228.76C354.598 229.427 355.665 230.4 356.411 231.68C357.185 232.96 357.571 234.507 357.571 236.32C357.571 236.853 357.545 237.373 357.491 237.88C357.465 238.36 357.425 238.76 357.371 239.08H340.891V236.2H353.851L353.411 236.6C353.518 235.373 353.385 234.373 353.011 233.6C352.665 232.827 352.091 232.253 351.291 231.88C350.518 231.507 349.545 231.32 348.371 231.32C346.265 231.32 344.825 231.853 344.051 232.92C343.278 233.96 342.891 235.4 342.891 237.24V238.44C342.891 239.773 343.051 240.907 343.371 241.84C343.718 242.747 344.305 243.427 345.131 243.88C345.958 244.333 347.091 244.56 348.531 244.56C350.211 244.56 351.398 244.293 352.091 243.76C352.785 243.227 353.131 242.52 353.131 241.64V241.32H357.411V241.68C357.411 243.04 357.038 244.227 356.291 245.24C355.545 246.227 354.505 247 353.171 247.56C351.865 248.12 350.305 248.4 348.491 248.4ZM371.758 248H366.278L358.318 228.12H363.118L368.918 243.88H369.198L375.038 228.12H379.718L371.758 248ZM385.644 225.6H381.364L381.324 221.2H385.644V225.6ZM385.684 248H381.364V228H385.684V248ZM398.296 248.4C396.136 248.4 394.336 247.973 392.896 247.12C391.456 246.24 390.389 245.027 389.696 243.48C389.003 241.907 388.656 240.093 388.656 238.04C388.656 235.987 389.043 234.187 389.816 232.64C390.616 231.093 391.736 229.893 393.176 229.04C394.616 228.16 396.323 227.72 398.296 227.72C400.083 227.72 401.656 228.067 403.016 228.76C404.403 229.427 405.469 230.4 406.216 231.68C406.989 232.96 407.376 234.507 407.376 236.32C407.376 236.853 407.349 237.373 407.296 237.88C407.269 238.36 407.229 238.76 407.176 239.08H390.696V236.2H403.656L403.216 236.6C403.323 235.373 403.189 234.373 402.816 233.6C402.469 232.827 401.896 232.253 401.096 231.88C400.323 231.507 399.349 231.32 398.176 231.32C396.069 231.32 394.629 231.853 393.856 232.92C393.083 233.96 392.696 235.4 392.696 237.24V238.44C392.696 239.773 392.856 240.907 393.176 241.84C393.523 242.747 394.109 243.427 394.936 243.88C395.763 244.333 396.896 244.56 398.336 244.56C400.016 244.56 401.203 244.293 401.896 243.76C402.589 243.227 402.936 242.52 402.936 241.64V241.32H407.216V241.68C407.216 243.04 406.843 244.227 406.096 245.24C405.349 246.227 404.309 247 402.976 247.56C401.669 248.12 400.109 248.4 398.296 248.4ZM418.883 248H413.243L408.323 228.12H413.003L415.283 239.16L416.123 244.4H416.443L417.723 239.16L421.203 228.12H426.803L430.323 239.2L431.603 244.36H431.883L432.723 239.2L435.003 228.12H439.523L434.603 248H428.963L425.403 236.92L424.083 231.92H423.803L422.483 236.92L418.883 248ZM453.012 254.8C452.479 254.8 451.932 254.76 451.372 254.68C450.812 254.627 450.359 254.547 450.012 254.44V250.92H452.772C453.599 250.92 454.212 250.8 454.612 250.56C455.012 250.347 455.386 249.88 455.732 249.16L456.972 246.36L456.612 247.76L448.012 228.12H452.772L456.772 237.76L458.572 242.08H458.932L460.532 237.76L464.172 228.12H468.972L459.532 250.32C459.052 251.52 458.506 252.44 457.892 253.08C457.279 253.72 456.572 254.16 455.772 254.4C454.999 254.667 454.079 254.8 453.012 254.8ZM479.357 248.4C477.331 248.4 475.571 247.973 474.077 247.12C472.584 246.24 471.437 245.027 470.637 243.48C469.837 241.907 469.437 240.093 469.437 238.04C469.437 235.987 469.837 234.187 470.637 232.64C471.437 231.093 472.584 229.893 474.077 229.04C475.571 228.16 477.331 227.72 479.357 227.72C481.384 227.72 483.117 228.16 484.557 229.04C486.024 229.893 487.144 231.093 487.917 232.64C488.717 234.187 489.117 235.987 489.117 238.04C489.117 240.093 488.717 241.907 487.917 243.48C487.144 245.027 486.024 246.24 484.557 247.12C483.117 247.973 481.384 248.4 479.357 248.4ZM479.357 244.56C481.437 244.56 482.891 244.04 483.717 243C484.544 241.933 484.957 240.28 484.957 238.04C484.957 235.8 484.544 234.16 483.717 233.12C482.891 232.08 481.437 231.56 479.357 231.56C477.251 231.56 475.784 232.08 474.957 233.12C474.131 234.16 473.717 235.8 473.717 238.04C473.717 240.28 474.131 241.933 474.957 243C475.784 244.04 477.251 244.56 479.357 244.56ZM499.747 248.4C498.04 248.4 496.627 248.053 495.507 247.36C494.387 246.64 493.56 245.68 493.027 244.48C492.493 243.253 492.227 241.893 492.227 240.4V228.12H496.547V239.6C496.547 241.387 496.92 242.68 497.667 243.48C498.413 244.28 499.64 244.68 501.347 244.68C502.467 244.68 503.413 244.507 504.187 244.16C504.96 243.787 505.547 243.213 505.947 242.44C506.347 241.64 506.547 240.6 506.547 239.32H507.667V244.04H506.707C506.413 244.787 505.96 245.493 505.347 246.16C504.76 246.827 504 247.373 503.067 247.8C502.16 248.2 501.053 248.4 499.747 248.4ZM510.867 248H506.867V242.04L506.547 241.84V228.12H510.867V248ZM519.44 248H515.12V228H519.08V233.56L519.44 233.76V248ZM519.44 235.04H518.44V231.16H519.28C519.68 230.227 520.333 229.427 521.24 228.76C522.173 228.067 523.373 227.72 524.84 227.72C526.253 227.72 527.373 228.027 528.2 228.64C529.053 229.253 529.667 230.067 530.04 231.08C530.413 232.093 530.6 233.227 530.6 234.48V235.8H526.28V235C526.28 233.667 526.053 232.733 525.6 232.2C525.147 231.667 524.293 231.4 523.04 231.4C521.733 231.4 520.8 231.68 520.24 232.24C519.707 232.773 519.44 233.707 519.44 235.04ZM549.135 248.4C546.308 248.4 544.135 247.467 542.615 245.6C541.121 243.707 540.375 241.187 540.375 238.04C540.375 234.893 541.108 232.387 542.575 230.52C544.068 228.653 546.175 227.72 548.895 227.72C550.655 227.72 552.068 228.08 553.135 228.8C554.228 229.493 554.988 230.293 555.415 231.2H556.495L556.295 236.28H555.535C555.535 235.16 555.321 234.24 554.895 233.52C554.468 232.8 553.855 232.267 553.055 231.92C552.255 231.573 551.268 231.4 550.095 231.4C549.135 231.4 548.308 231.52 547.615 231.76C546.948 232 546.388 232.373 545.935 232.88C545.508 233.387 545.188 234.067 544.975 234.92C544.788 235.773 544.695 236.813 544.695 238.04C544.695 239.24 544.788 240.28 544.975 241.16C545.188 242.013 545.508 242.707 545.935 243.24C546.388 243.747 546.961 244.12 547.655 244.36C548.348 244.6 549.161 244.72 550.095 244.72C551.268 244.72 552.255 244.547 553.055 244.2C553.855 243.827 554.468 243.28 554.895 242.56C555.321 241.84 555.535 240.933 555.535 239.84H556.295L556.495 244.72H555.695C555.241 245.867 554.455 246.773 553.335 247.44C552.241 248.08 550.841 248.4 549.135 248.4ZM559.855 248H555.855V243.28L555.535 242.76V221.2H559.855V248ZM572.788 248.4C570.628 248.4 568.828 247.973 567.388 247.12C565.948 246.24 564.881 245.027 564.188 243.48C563.495 241.907 563.148 240.093 563.148 238.04C563.148 235.987 563.535 234.187 564.308 232.64C565.108 231.093 566.228 229.893 567.668 229.04C569.108 228.16 570.815 227.72 572.788 227.72C574.575 227.72 576.148 228.067 577.508 228.76C578.895 229.427 579.961 230.4 580.708 231.68C581.481 232.96 581.868 234.507 581.868 236.32C581.868 236.853 581.841 237.373 581.788 237.88C581.761 238.36 581.721 238.76 581.668 239.08H565.188V236.2H578.148L577.708 236.6C577.815 235.373 577.681 234.373 577.308 233.6C576.961 232.827 576.388 232.253 575.588 231.88C574.815 231.507 573.841 231.32 572.668 231.32C570.561 231.32 569.121 231.853 568.348 232.92C567.575 233.96 567.188 235.4 567.188 237.24V238.44C567.188 239.773 567.348 240.907 567.668 241.84C568.015 242.747 568.601 243.427 569.428 243.88C570.255 244.333 571.388 244.56 572.828 244.56C574.508 244.56 575.695 244.293 576.388 243.76C577.081 243.227 577.428 242.52 577.428 241.64V241.32H581.708V241.68C581.708 243.04 581.335 244.227 580.588 245.24C579.841 246.227 578.801 247 577.468 247.56C576.161 248.12 574.601 248.4 572.788 248.4ZM593.44 248C591.253 248 589.573 247.533 588.4 246.6C587.253 245.667 586.68 244.093 586.68 241.88V228.56L587.68 223.2H591V241.68C591 242.72 591.253 243.387 591.76 243.68C592.293 243.947 593.24 244.08 594.6 244.08H597V247.64C596.6 247.747 596.08 247.84 595.44 247.92C594.8 247.973 594.133 248 593.44 248ZM597 231.72H583.36V228.12H597V231.72ZM616.687 248H612.687V244.08L612.567 243V235.36C612.567 233.867 612.207 232.853 611.487 232.32C610.793 231.787 609.66 231.52 608.087 231.52C606.513 231.52 605.38 231.8 604.687 232.36C604.02 232.92 603.687 233.853 603.687 235.16V235.76H599.527V235.36C599.527 233.867 599.887 232.547 600.607 231.4C601.353 230.253 602.38 229.36 603.687 228.72C605.02 228.053 606.567 227.72 608.327 227.72C610.193 227.72 611.74 228.067 612.967 228.76C614.193 229.453 615.113 230.413 615.727 231.64C616.367 232.84 616.687 234.267 616.687 235.92V248ZM605.287 248.4C603.5 248.4 601.993 247.947 600.767 247.04C599.567 246.107 598.967 244.787 598.967 243.08C598.967 241.96 599.22 241.027 599.727 240.28C600.26 239.533 601.02 238.92 602.007 238.44C602.993 237.96 604.193 237.627 605.607 237.44L612.967 236.4V239.44L606.247 240.44C605.1 240.6 604.3 240.84 603.847 241.16C603.393 241.48 603.167 242.013 603.167 242.76C603.167 243.533 603.433 244.093 603.967 244.44C604.527 244.787 605.433 244.96 606.687 244.96C607.647 244.96 608.567 244.813 609.447 244.52C610.353 244.2 611.1 243.68 611.687 242.96C612.273 242.213 612.567 241.173 612.567 239.84L613.127 244.92L612.487 244.88C612.113 245.493 611.593 246.067 610.927 246.6C610.287 247.133 609.5 247.573 608.567 247.92C607.633 248.24 606.54 248.4 605.287 248.4ZM624.863 225.6H620.583L620.543 221.2H624.863V225.6ZM624.903 248H620.583V228H624.903V248ZM633.19 248H628.87V221.2H633.19V248ZM645.668 248.4C642.761 248.4 640.561 247.827 639.068 246.68C637.574 245.507 636.828 243.707 636.828 241.28V241.2H640.988V241.92C640.988 242.613 641.121 243.187 641.388 243.64C641.681 244.067 642.161 244.387 642.828 244.6C643.521 244.787 644.494 244.88 645.747 244.88C646.814 244.88 647.614 244.8 648.148 244.64C648.708 244.453 649.081 244.2 649.268 243.88C649.454 243.56 649.548 243.16 649.548 242.68C649.548 241.88 649.268 241.32 648.708 241C648.148 240.653 647.148 240.347 645.708 240.08L642.588 239.56C641.414 239.32 640.388 238.987 639.508 238.56C638.654 238.107 637.988 237.493 637.508 236.72C637.054 235.92 636.828 234.92 636.828 233.72C636.828 231.933 637.534 230.493 638.948 229.4C640.361 228.28 642.361 227.72 644.948 227.72C646.521 227.72 647.921 227.973 649.148 228.48C650.374 228.987 651.348 229.747 652.068 230.76C652.788 231.773 653.148 233.04 653.148 234.56V234.92H649.028V234.44C649.028 233.8 648.921 233.253 648.708 232.8C648.494 232.32 648.094 231.947 647.508 231.68C646.921 231.413 646.028 231.28 644.828 231.28C643.254 231.28 642.214 231.48 641.708 231.88C641.201 232.28 640.948 232.867 640.948 233.64C640.948 234.413 641.174 234.96 641.628 235.28C642.108 235.573 643.041 235.867 644.428 236.16L647.828 236.8C649.108 237.04 650.174 237.4 651.028 237.88C651.881 238.36 652.521 238.987 652.948 239.76C653.401 240.533 653.628 241.453 653.628 242.52C653.628 244.387 652.921 245.84 651.508 246.88C650.121 247.893 648.174 248.4 645.668 248.4ZM661.712 248H656.232V241.8H661.712V248Z" fill="black"/>
<rect x="51" y="432" width="293" height="293" rx="146.5" fill="#121D26"/>
<path d="M176.487 675.596C173.542 681.309 175.77 688.415 181.844 690.518C193.302 694.483 205.549 695.859 217.694 694.48C233.71 692.661 248.827 686.135 261.134 675.724C273.441 665.314 282.385 651.489 286.834 635.996C290.207 624.248 290.882 611.942 288.872 599.985C287.806 593.647 281.167 590.271 275.045 592.228C268.923 594.185 265.673 600.748 266.375 607.137C267.199 614.632 266.564 622.253 264.462 629.571C261.284 640.639 254.894 650.517 246.102 657.954C237.31 665.391 226.51 670.053 215.068 671.352C207.503 672.211 199.881 671.574 192.627 669.519C186.443 667.766 179.432 669.883 176.487 675.596Z" fill="white"/>
<path fill-rule="evenodd" clip-rule="evenodd" d="M183.988 355.809L335.734 405.169L335.735 405.248C338.254 406.067 340.451 407.657 342.015 409.794C343.579 411.931 344.431 414.506 344.45 417.154C344.47 419.802 343.655 422.389 342.122 424.548C340.589 426.708 338.415 428.33 335.909 429.185L266.506 452.87C266.526 452.902 266.546 452.933 266.565 452.965L241.815 461.402C241.782 461.357 241.748 461.312 241.714 461.266L184.895 480.603C182.312 481.485 179.512 481.505 176.916 480.661L156.551 474.059L156.543 474.056L156.225 473.953L119.822 462.152C119.805 462.176 119.788 462.2 119.771 462.223L94.8163 454.194C94.8477 454.142 94.8792 454.09 94.9107 454.039L41.8155 436.778L42.605 545.425C42.6293 548.77 41.3236 551.989 38.975 554.371C36.6264 556.754 33.4274 558.107 30.0817 558.131C26.7361 558.155 23.5177 556.85 21.1348 554.501C18.7518 552.153 17.3994 548.954 17.3751 545.608L16.4584 419.458C16.4389 416.811 17.2531 414.224 18.7856 412.065C20.318 409.905 22.4911 408.283 24.9969 407.427L176.009 355.867C178.593 354.985 181.393 354.965 183.988 355.809Z" fill="#121D26"/>
</g>
<path d="M680.088 1187.46C678.824 1186.75 677.242 1187.63 677.242 1189.04V1201.24C677.242 1201.89 677.603 1202.49 678.189 1202.82L689.151 1208.92C690.415 1209.62 691.997 1208.74 691.997 1207.34V1195.14C691.997 1194.48 691.636 1193.88 691.05 1193.56L680.088 1187.46Z" fill="black"/>
<path d="M678.194 1218.18C677.607 1218.51 676.884 1218.51 676.297 1218.18L665.298 1212.08C664.033 1211.38 662.454 1212.25 662.454 1213.66V1240.17C662.454 1241.58 664.034 1242.46 665.299 1241.75L691.052 1227.44C691.639 1227.12 692 1226.52 692 1225.86V1213.66C692 1212.26 690.418 1211.38 689.154 1212.08L678.194 1218.18Z" fill="black"/>
<path d="M644.912 1233.54C646.176 1234.25 647.758 1233.37 647.758 1231.96V1219.76C647.758 1219.11 647.397 1218.51 646.811 1218.18L635.849 1212.08C634.585 1211.38 633.003 1212.26 633.003 1213.66V1225.86C633.003 1226.52 633.364 1227.12 633.95 1227.44L644.912 1233.54Z" fill="black"/>
<path d="M646.806 1202.82C647.393 1202.49 648.116 1202.49 648.703 1202.82L659.702 1208.92C660.967 1209.62 662.546 1208.75 662.546 1207.34V1180.83C662.546 1179.42 660.966 1178.54 659.701 1179.25L633.948 1193.56C633.361 1193.88 633 1194.48 633 1195.14V1207.34C633 1208.74 634.582 1209.62 635.846 1208.92L646.806 1202.82Z" fill="black"/>
<defs>
<clipPath id="clip0_18934_19783">
<rect width="727" height="1272" rx="20.1569" fill="white"/>
</clipPath>
</defs>
</svg>
