<svg width="727" height="1272" viewBox="0 0 727 1272" fill="none" xmlns="http://www.w3.org/2000/svg">
<g clip-path="url(#clip0_18934_19760)">
<rect width="728" height="1273" rx="20.1569" fill="#F2E635"/>
<path d="M314.208 101H309.888V74.2H314.208V101ZM329.048 101H311.208V97.08H329.048V101ZM328.448 89.48H311.208V85.56H328.448V89.48ZM329.048 78.08H311.208V74.2H329.048V78.08ZM351.296 101H346.976V89.44C346.976 87.68 346.643 86.4133 345.976 85.64C345.31 84.84 344.056 84.44 342.216 84.44C341.043 84.44 340.083 84.6133 339.336 84.96C338.59 85.28 338.03 85.8133 337.656 86.56C337.283 87.28 337.096 88.2667 337.096 89.52H336.336L335.976 84.84H336.936C337.23 84.12 337.67 83.4533 338.256 82.84C338.843 82.2267 339.59 81.72 340.496 81.32C341.43 80.92 342.536 80.72 343.816 80.72C345.55 80.72 346.963 81.0533 348.056 81.72C349.15 82.3867 349.963 83.3067 350.496 84.48C351.03 85.6533 351.296 87 351.296 88.52V101ZM337.096 101H332.776V81.12H336.736V87.08L337.096 87.28V101ZM363.518 101C361.331 101 359.651 100.533 358.478 99.6C357.331 98.6667 356.758 97.0933 356.758 94.88V81.56L357.758 76.2H361.078V94.68C361.078 95.72 361.331 96.3867 361.838 96.68C362.371 96.9467 363.318 97.08 364.678 97.08H367.078V100.64C366.678 100.747 366.158 100.84 365.518 100.92C364.878 100.973 364.211 101 363.518 101ZM367.078 84.72H353.438V81.12H367.078V84.72ZM378.14 101.4C375.98 101.4 374.18 100.973 372.74 100.12C371.3 99.24 370.233 98.0267 369.54 96.48C368.846 94.9067 368.5 93.0933 368.5 91.04C368.5 88.9867 368.886 87.1867 369.66 85.64C370.46 84.0933 371.58 82.8933 373.02 82.04C374.46 81.16 376.166 80.72 378.14 80.72C379.926 80.72 381.5 81.0667 382.86 81.76C384.246 82.4267 385.313 83.4 386.06 84.68C386.833 85.96 387.22 87.5067 387.22 89.32C387.22 89.8533 387.193 90.3733 387.14 90.88C387.113 91.36 387.073 91.76 387.02 92.08H370.54V89.2H383.5L383.06 89.6C383.166 88.3733 383.033 87.3733 382.66 86.6C382.313 85.8267 381.74 85.2533 380.94 84.88C380.166 84.5067 379.193 84.32 378.02 84.32C375.913 84.32 374.473 84.8533 373.7 85.92C372.926 86.96 372.54 88.4 372.54 90.24V91.44C372.54 92.7733 372.7 93.9067 373.02 94.84C373.366 95.7467 373.953 96.4267 374.78 96.88C375.606 97.3333 376.74 97.56 378.18 97.56C379.86 97.56 381.046 97.2933 381.74 96.76C382.433 96.2267 382.78 95.52 382.78 94.64V94.32H387.06V94.68C387.06 96.04 386.686 97.2267 385.94 98.24C385.193 99.2267 384.153 100 382.82 100.56C381.513 101.12 379.953 101.4 378.14 101.4ZM394.987 101H390.667V81H394.627V86.56L394.987 86.76V101ZM394.987 88.04H393.987V84.16H394.827C395.227 83.2267 395.88 82.4267 396.787 81.76C397.72 81.0667 398.92 80.72 400.387 80.72C401.8 80.72 402.92 81.0267 403.747 81.64C404.6 82.2533 405.214 83.0667 405.587 84.08C405.96 85.0933 406.147 86.2267 406.147 87.48V88.8H401.827V88C401.827 86.6667 401.6 85.7333 401.147 85.2C400.694 84.6667 399.84 84.4 398.587 84.4C397.28 84.4 396.347 84.68 395.787 85.24C395.254 85.7733 394.987 86.7067 394.987 88.04ZM420.122 107.8C419.588 107.8 419.042 107.76 418.482 107.68C417.922 107.627 417.468 107.547 417.122 107.44V103.92H419.882C420.708 103.92 421.322 103.8 421.722 103.56C422.122 103.347 422.495 102.88 422.842 102.16L424.082 99.36L423.722 100.76L415.122 81.12H419.882L423.882 90.76L425.682 95.08H426.042L427.642 90.76L431.282 81.12H436.082L426.642 103.32C426.162 104.52 425.615 105.44 425.002 106.08C424.388 106.72 423.682 107.16 422.882 107.4C422.108 107.667 421.188 107.8 420.122 107.8ZM446.467 101.4C444.44 101.4 442.68 100.973 441.187 100.12C439.693 99.24 438.547 98.0267 437.747 96.48C436.947 94.9067 436.547 93.0933 436.547 91.04C436.547 88.9867 436.947 87.1867 437.747 85.64C438.547 84.0933 439.693 82.8933 441.187 82.04C442.68 81.16 444.44 80.72 446.467 80.72C448.493 80.72 450.227 81.16 451.667 82.04C453.133 82.8933 454.253 84.0933 455.027 85.64C455.827 87.1867 456.227 88.9867 456.227 91.04C456.227 93.0933 455.827 94.9067 455.027 96.48C454.253 98.0267 453.133 99.24 451.667 100.12C450.227 100.973 448.493 101.4 446.467 101.4ZM446.467 97.56C448.547 97.56 450 97.04 450.827 96C451.653 94.9333 452.067 93.28 452.067 91.04C452.067 88.8 451.653 87.16 450.827 86.12C450 85.08 448.547 84.56 446.467 84.56C444.36 84.56 442.893 85.08 442.067 86.12C441.24 87.16 440.827 88.8 440.827 91.04C440.827 93.28 441.24 94.9333 442.067 96C442.893 97.04 444.36 97.56 446.467 97.56ZM466.856 101.4C465.149 101.4 463.736 101.053 462.616 100.36C461.496 99.64 460.669 98.68 460.136 97.48C459.603 96.2533 459.336 94.8933 459.336 93.4V81.12H463.656V92.6C463.656 94.3867 464.029 95.68 464.776 96.48C465.523 97.28 466.749 97.68 468.456 97.68C469.576 97.68 470.523 97.5067 471.296 97.16C472.069 96.7867 472.656 96.2133 473.056 95.44C473.456 94.64 473.656 93.6 473.656 92.32H474.776V97.04H473.816C473.523 97.7867 473.069 98.4933 472.456 99.16C471.869 99.8267 471.109 100.373 470.176 100.8C469.269 101.2 468.163 101.4 466.856 101.4ZM477.976 101H473.976V95.04L473.656 94.84V81.12H477.976V101ZM486.549 101H482.229V81H486.189V86.56L486.549 86.76V101ZM486.549 88.04H485.549V84.16H486.389C486.789 83.2267 487.443 82.4267 488.349 81.76C489.283 81.0667 490.483 80.72 491.949 80.72C493.363 80.72 494.483 81.0267 495.309 81.64C496.163 82.2533 496.776 83.0667 497.149 84.08C497.523 85.0933 497.709 86.2267 497.709 87.48V88.8H493.389V88C493.389 86.6667 493.163 85.7333 492.709 85.2C492.256 84.6667 491.403 84.4 490.149 84.4C488.843 84.4 487.909 84.68 487.349 85.24C486.816 85.7733 486.549 86.7067 486.549 88.04ZM519.164 101.4C517.377 101.4 515.924 101.053 514.804 100.36C513.711 99.64 512.951 98.8267 512.524 97.92H511.444L511.644 92.84H512.404C512.404 93.9333 512.604 94.84 513.004 95.56C513.431 96.28 514.057 96.8267 514.884 97.2C515.711 97.5467 516.697 97.72 517.844 97.72C518.777 97.72 519.591 97.6 520.284 97.36C520.977 97.12 521.537 96.7467 521.964 96.24C522.417 95.7333 522.737 95.0533 522.924 94.2C523.137 93.32 523.244 92.2667 523.244 91.04C523.244 89.8133 523.137 88.7867 522.924 87.96C522.737 87.1067 522.417 86.4133 521.964 85.88C521.537 85.3467 520.977 84.9733 520.284 84.76C519.617 84.52 518.804 84.4 517.844 84.4C516.697 84.4 515.711 84.5867 514.884 84.96C514.057 85.3067 513.431 85.84 513.004 86.56C512.604 87.2533 512.404 88.16 512.404 89.28H511.644L511.444 84.4H512.244C512.724 83.2533 513.511 82.36 514.604 81.72C515.724 81.0533 517.151 80.72 518.884 80.72C521.684 80.72 523.831 81.6533 525.324 83.52C526.817 85.3867 527.564 87.8933 527.564 91.04C527.564 94.1867 526.844 96.7067 525.404 98.6C523.964 100.467 521.884 101.4 519.164 101.4ZM512.404 107.92H508.124V81.12H512.044V85.84L512.404 86.36V107.92ZM540.054 101.4C537.894 101.4 536.094 100.973 534.654 100.12C533.214 99.24 532.147 98.0267 531.454 96.48C530.76 94.9067 530.414 93.0933 530.414 91.04C530.414 88.9867 530.8 87.1867 531.574 85.64C532.374 84.0933 533.494 82.8933 534.934 82.04C536.374 81.16 538.08 80.72 540.054 80.72C541.84 80.72 543.414 81.0667 544.774 81.76C546.16 82.4267 547.227 83.4 547.974 84.68C548.747 85.96 549.134 87.5067 549.134 89.32C549.134 89.8533 549.107 90.3733 549.054 90.88C549.027 91.36 548.987 91.76 548.934 92.08H532.454V89.2H545.414L544.974 89.6C545.08 88.3733 544.947 87.3733 544.574 86.6C544.227 85.8267 543.654 85.2533 542.854 84.88C542.08 84.5067 541.107 84.32 539.934 84.32C537.827 84.32 536.387 84.8533 535.614 85.92C534.84 86.96 534.454 88.4 534.454 90.24V91.44C534.454 92.7733 534.614 93.9067 534.934 94.84C535.28 95.7467 535.867 96.4267 536.694 96.88C537.52 97.3333 538.654 97.56 540.094 97.56C541.774 97.56 542.96 97.2933 543.654 96.76C544.347 96.2267 544.694 95.52 544.694 94.64V94.32H548.974V94.68C548.974 96.04 548.6 97.2267 547.854 98.24C547.107 99.2267 546.067 100 544.734 100.56C543.427 101.12 541.867 101.4 540.054 101.4ZM556.901 101H552.581V81H556.541V86.56L556.901 86.76V101ZM556.901 88.04H555.901V84.16H556.741C557.141 83.2267 557.794 82.4267 558.701 81.76C559.634 81.0667 560.834 80.72 562.301 80.72C563.714 80.72 564.834 81.0267 565.661 81.64C566.514 82.2533 567.128 83.0667 567.501 84.08C567.874 85.0933 568.061 86.2267 568.061 87.48V88.8H563.741V88C563.741 86.6667 563.514 85.7333 563.061 85.2C562.608 84.6667 561.754 84.4 560.501 84.4C559.194 84.4 558.261 84.68 557.701 85.24C557.168 85.7733 556.901 86.7067 556.901 88.04ZM579.457 101.4C576.55 101.4 574.35 100.827 572.857 99.68C571.363 98.5067 570.617 96.7067 570.617 94.28V94.2H574.777V94.92C574.777 95.6133 574.91 96.1867 575.177 96.64C575.47 97.0667 575.95 97.3867 576.617 97.6C577.31 97.7867 578.283 97.88 579.537 97.88C580.603 97.88 581.403 97.8 581.937 97.64C582.497 97.4533 582.87 97.2 583.057 96.88C583.243 96.56 583.337 96.16 583.337 95.68C583.337 94.88 583.057 94.32 582.497 94C581.937 93.6533 580.937 93.3467 579.497 93.08L576.377 92.56C575.203 92.32 574.177 91.9867 573.297 91.56C572.443 91.1067 571.777 90.4933 571.297 89.72C570.843 88.92 570.617 87.92 570.617 86.72C570.617 84.9333 571.323 83.4933 572.737 82.4C574.15 81.28 576.15 80.72 578.737 80.72C580.31 80.72 581.71 80.9733 582.937 81.48C584.163 81.9867 585.137 82.7467 585.857 83.76C586.577 84.7733 586.937 86.04 586.937 87.56V87.92H582.817V87.44C582.817 86.8 582.71 86.2533 582.497 85.8C582.283 85.32 581.883 84.9467 581.297 84.68C580.71 84.4133 579.817 84.28 578.617 84.28C577.043 84.28 576.003 84.48 575.497 84.88C574.99 85.28 574.737 85.8667 574.737 86.64C574.737 87.4133 574.963 87.96 575.417 88.28C575.897 88.5733 576.83 88.8667 578.217 89.16L581.617 89.8C582.897 90.04 583.963 90.4 584.817 90.88C585.67 91.36 586.31 91.9867 586.737 92.76C587.19 93.5333 587.417 94.4533 587.417 95.52C587.417 97.3867 586.71 98.84 585.297 99.88C583.91 100.893 581.963 101.4 579.457 101.4ZM600.021 101.4C597.995 101.4 596.235 100.973 594.741 100.12C593.248 99.24 592.101 98.0267 591.301 96.48C590.501 94.9067 590.101 93.0933 590.101 91.04C590.101 88.9867 590.501 87.1867 591.301 85.64C592.101 84.0933 593.248 82.8933 594.741 82.04C596.235 81.16 597.995 80.72 600.021 80.72C602.048 80.72 603.781 81.16 605.221 82.04C606.688 82.8933 607.808 84.0933 608.581 85.64C609.381 87.1867 609.781 88.9867 609.781 91.04C609.781 93.0933 609.381 94.9067 608.581 96.48C607.808 98.0267 606.688 99.24 605.221 100.12C603.781 100.973 602.048 101.4 600.021 101.4ZM600.021 97.56C602.101 97.56 603.555 97.04 604.381 96C605.208 94.9333 605.621 93.28 605.621 91.04C605.621 88.8 605.208 87.16 604.381 86.12C603.555 85.08 602.101 84.56 600.021 84.56C597.915 84.56 596.448 85.08 595.621 86.12C594.795 87.16 594.381 88.8 594.381 91.04C594.381 93.28 594.795 94.9333 595.621 96C596.448 97.04 597.915 97.56 600.021 97.56ZM631.531 101H627.211V89.44C627.211 87.68 626.877 86.4133 626.211 85.64C625.544 84.84 624.291 84.44 622.451 84.44C621.277 84.44 620.317 84.6133 619.571 84.96C618.824 85.28 618.264 85.8133 617.891 86.56C617.517 87.28 617.331 88.2667 617.331 89.52H616.571L616.211 84.84H617.171C617.464 84.12 617.904 83.4533 618.491 82.84C619.077 82.2267 619.824 81.72 620.731 81.32C621.664 80.92 622.771 80.72 624.051 80.72C625.784 80.72 627.197 81.0533 628.291 81.72C629.384 82.3867 630.197 83.3067 630.731 84.48C631.264 85.6533 631.531 87 631.531 88.52V101ZM617.331 101H613.011V81.12H616.971V87.08L617.331 87.28V101ZM652.429 101H648.429V97.08L648.309 96V88.36C648.309 86.8667 647.949 85.8533 647.229 85.32C646.535 84.7867 645.402 84.52 643.829 84.52C642.255 84.52 641.122 84.8 640.429 85.36C639.762 85.92 639.429 86.8533 639.429 88.16V88.76H635.269V88.36C635.269 86.8667 635.629 85.5467 636.349 84.4C637.095 83.2533 638.122 82.36 639.429 81.72C640.762 81.0533 642.309 80.72 644.069 80.72C645.935 80.72 647.482 81.0667 648.709 81.76C649.935 82.4533 650.855 83.4133 651.469 84.64C652.109 85.84 652.429 87.2667 652.429 88.92V101ZM641.029 101.4C639.242 101.4 637.735 100.947 636.509 100.04C635.309 99.1067 634.709 97.7867 634.709 96.08C634.709 94.96 634.962 94.0267 635.469 93.28C636.002 92.5333 636.762 91.92 637.749 91.44C638.735 90.96 639.935 90.6267 641.349 90.44L648.709 89.4V92.44L641.989 93.44C640.842 93.6 640.042 93.84 639.589 94.16C639.135 94.48 638.909 95.0133 638.909 95.76C638.909 96.5333 639.175 97.0933 639.709 97.44C640.269 97.7867 641.175 97.96 642.429 97.96C643.389 97.96 644.309 97.8133 645.189 97.52C646.095 97.2 646.842 96.68 647.429 95.96C648.015 95.2133 648.309 94.1733 648.309 92.84L648.869 97.92L648.229 97.88C647.855 98.4933 647.335 99.0667 646.669 99.6C646.029 100.133 645.242 100.573 644.309 100.92C643.375 101.24 642.282 101.4 641.029 101.4ZM660.885 101H656.565V74.2H660.885V101ZM201.387 127.6H197.107L197.067 123.2H201.387V127.6ZM201.427 150H197.107V130H201.427V150ZM223.913 150H219.593V138.44C219.593 136.68 219.26 135.413 218.593 134.64C217.927 133.84 216.673 133.44 214.833 133.44C213.66 133.44 212.7 133.613 211.953 133.96C211.207 134.28 210.647 134.813 210.273 135.56C209.9 136.28 209.713 137.267 209.713 138.52H208.953L208.593 133.84H209.553C209.847 133.12 210.287 132.453 210.873 131.84C211.46 131.227 212.207 130.72 213.113 130.32C214.047 129.92 215.153 129.72 216.433 129.72C218.167 129.72 219.58 130.053 220.673 130.72C221.767 131.387 222.58 132.307 223.113 133.48C223.647 134.653 223.913 136 223.913 137.52V150ZM209.713 150H205.393V130.12H209.353V136.08L209.713 136.28V150ZM233.175 150H228.855V130.28C228.855 128.733 229.149 127.44 229.735 126.4C230.322 125.36 231.189 124.573 232.335 124.04C233.509 123.48 234.949 123.2 236.655 123.2C236.922 123.2 237.189 123.2 237.455 123.2C237.722 123.2 237.989 123.2 238.255 123.2V126.64H235.855C234.895 126.64 234.189 126.827 233.735 127.2C233.282 127.573 233.055 128.187 233.055 129.04V130.8L233.175 131.84V150ZM238.255 133.72H225.935V130.12H238.255V133.72ZM248.888 150.4C246.862 150.4 245.102 149.973 243.608 149.12C242.115 148.24 240.968 147.027 240.168 145.48C239.368 143.907 238.968 142.093 238.968 140.04C238.968 137.987 239.368 136.187 240.168 134.64C240.968 133.093 242.115 131.893 243.608 131.04C245.102 130.16 246.862 129.72 248.888 129.72C250.915 129.72 252.648 130.16 254.088 131.04C255.555 131.893 256.675 133.093 257.448 134.64C258.248 136.187 258.648 137.987 258.648 140.04C258.648 142.093 258.248 143.907 257.448 145.48C256.675 147.027 255.555 148.24 254.088 149.12C252.648 149.973 250.915 150.4 248.888 150.4ZM248.888 146.56C250.968 146.56 252.422 146.04 253.248 145C254.075 143.933 254.488 142.28 254.488 140.04C254.488 137.8 254.075 136.16 253.248 135.12C252.422 134.08 250.968 133.56 248.888 133.56C246.782 133.56 245.315 134.08 244.488 135.12C243.662 136.16 243.248 137.8 243.248 140.04C243.248 142.28 243.662 143.933 244.488 145C245.315 146.04 246.782 146.56 248.888 146.56ZM266.198 150H261.878V130H265.838V135.56L266.198 135.76V150ZM266.198 137.04H265.198V133.16H266.038C266.438 132.227 267.091 131.427 267.998 130.76C268.931 130.067 270.131 129.72 271.598 129.72C273.011 129.72 274.131 130.027 274.958 130.64C275.811 131.253 276.424 132.067 276.798 133.08C277.171 134.093 277.358 135.227 277.358 136.48V137.8H273.038V137C273.038 135.667 272.811 134.733 272.358 134.2C271.904 133.667 271.051 133.4 269.798 133.4C268.491 133.4 267.558 133.68 266.998 134.24C266.464 134.773 266.198 135.707 266.198 137.04ZM311.962 150H307.642V138.44C307.642 136.68 307.309 135.413 306.642 134.64C306.002 133.84 304.775 133.44 302.962 133.44C301.335 133.44 300.122 133.827 299.322 134.6C298.549 135.347 298.162 136.627 298.162 138.44L297.402 138.52L297.042 133.84H297.682C298.002 133.147 298.442 132.493 299.002 131.88C299.589 131.24 300.335 130.72 301.242 130.32C302.149 129.92 303.255 129.72 304.562 129.72C306.295 129.72 307.695 130.053 308.762 130.72C309.855 131.387 310.655 132.307 311.162 133.48C311.695 134.653 311.962 136 311.962 137.52V150ZM284.362 150H280.042V130.12H284.002V136.08L284.362 136.28V150ZM298.162 150H293.842V138.44C293.842 136.68 293.509 135.413 292.842 134.64C292.202 133.84 290.975 133.44 289.162 133.44C287.535 133.44 286.322 133.813 285.522 134.56C284.749 135.307 284.362 136.587 284.362 138.4L283.602 138.52L283.242 133.84H284.202C284.495 133.12 284.922 132.453 285.482 131.84C286.069 131.227 286.815 130.72 287.722 130.32C288.629 129.92 289.709 129.72 290.962 129.72C292.642 129.72 294.002 130.053 295.042 130.72C296.109 131.387 296.895 132.307 297.402 133.48C297.909 134.653 298.162 136 298.162 137.52V150ZM332.858 150H328.858V146.08L328.738 145V137.36C328.738 135.867 328.378 134.853 327.658 134.32C326.965 133.787 325.832 133.52 324.258 133.52C322.685 133.52 321.552 133.8 320.858 134.36C320.192 134.92 319.858 135.853 319.858 137.16V137.76H315.698V137.36C315.698 135.867 316.058 134.547 316.778 133.4C317.525 132.253 318.552 131.36 319.858 130.72C321.192 130.053 322.738 129.72 324.498 129.72C326.365 129.72 327.912 130.067 329.138 130.76C330.365 131.453 331.285 132.413 331.898 133.64C332.538 134.84 332.858 136.267 332.858 137.92V150ZM321.458 150.4C319.672 150.4 318.165 149.947 316.938 149.04C315.738 148.107 315.138 146.787 315.138 145.08C315.138 143.96 315.392 143.027 315.898 142.28C316.432 141.533 317.192 140.92 318.178 140.44C319.165 139.96 320.365 139.627 321.778 139.44L329.138 138.4V141.44L322.418 142.44C321.272 142.6 320.472 142.84 320.018 143.16C319.565 143.48 319.338 144.013 319.338 144.76C319.338 145.533 319.605 146.093 320.138 146.44C320.698 146.787 321.605 146.96 322.858 146.96C323.818 146.96 324.738 146.813 325.618 146.52C326.525 146.2 327.272 145.68 327.858 144.96C328.445 144.213 328.738 143.173 328.738 141.84L329.298 146.92L328.658 146.88C328.285 147.493 327.765 148.067 327.098 148.6C326.458 149.133 325.672 149.573 324.738 149.92C323.805 150.24 322.712 150.4 321.458 150.4ZM345.081 150C342.894 150 341.214 149.533 340.041 148.6C338.894 147.667 338.321 146.093 338.321 143.88V130.56L339.321 125.2H342.641V143.68C342.641 144.72 342.894 145.387 343.401 145.68C343.934 145.947 344.881 146.08 346.241 146.08H348.641V149.64C348.241 149.747 347.721 149.84 347.081 149.92C346.441 149.973 345.774 150 345.081 150ZM348.641 133.72H335.001V130.12H348.641V133.72ZM355.488 127.6H351.208L351.168 123.2H355.488V127.6ZM355.528 150H351.208V130H355.528V150ZM368.42 150.4C366.393 150.4 364.633 149.973 363.14 149.12C361.646 148.24 360.5 147.027 359.7 145.48C358.9 143.907 358.5 142.093 358.5 140.04C358.5 137.987 358.9 136.187 359.7 134.64C360.5 133.093 361.646 131.893 363.14 131.04C364.633 130.16 366.393 129.72 368.42 129.72C370.446 129.72 372.18 130.16 373.62 131.04C375.086 131.893 376.206 133.093 376.98 134.64C377.78 136.187 378.18 137.987 378.18 140.04C378.18 142.093 377.78 143.907 376.98 145.48C376.206 147.027 375.086 148.24 373.62 149.12C372.18 149.973 370.446 150.4 368.42 150.4ZM368.42 146.56C370.5 146.56 371.953 146.04 372.78 145C373.606 143.933 374.02 142.28 374.02 140.04C374.02 137.8 373.606 136.16 372.78 135.12C371.953 134.08 370.5 133.56 368.42 133.56C366.313 133.56 364.846 134.08 364.02 135.12C363.193 136.16 362.78 137.8 362.78 140.04C362.78 142.28 363.193 143.933 364.02 145C364.846 146.04 366.313 146.56 368.42 146.56ZM399.929 150H395.609V138.44C395.609 136.68 395.276 135.413 394.609 134.64C393.942 133.84 392.689 133.44 390.849 133.44C389.676 133.44 388.716 133.613 387.969 133.96C387.222 134.28 386.662 134.813 386.289 135.56C385.916 136.28 385.729 137.267 385.729 138.52H384.969L384.609 133.84H385.569C385.862 133.12 386.302 132.453 386.889 131.84C387.476 131.227 388.222 130.72 389.129 130.32C390.062 129.92 391.169 129.72 392.449 129.72C394.182 129.72 395.596 130.053 396.689 130.72C397.782 131.387 398.596 132.307 399.129 133.48C399.662 134.653 399.929 136 399.929 137.52V150ZM385.729 150H381.409V130.12H385.369V136.08L385.729 136.28V150ZM420.524 150.44C418.444 150.44 416.684 150 415.244 149.12C413.804 148.24 412.698 147.027 411.924 145.48C411.178 143.933 410.804 142.133 410.804 140.08C410.804 138.027 411.191 136.227 411.964 134.68C412.764 133.107 413.898 131.893 415.364 131.04C416.831 130.16 418.604 129.72 420.684 129.72C422.444 129.72 423.991 130.053 425.324 130.72C426.658 131.387 427.684 132.32 428.404 133.52C429.151 134.72 429.524 136.12 429.524 137.72V138.08H425.244V137.84C425.244 136.373 424.844 135.307 424.044 134.64C423.271 133.947 422.058 133.6 420.404 133.6C418.484 133.6 417.111 134.147 416.284 135.24C415.484 136.307 415.084 137.907 415.084 140.04C415.084 142.2 415.484 143.827 416.284 144.92C417.111 145.987 418.484 146.52 420.404 146.52C422.058 146.52 423.271 146.187 424.044 145.52C424.844 144.827 425.244 143.76 425.244 142.32V142.08H429.524V142.44C429.524 143.987 429.151 145.373 428.404 146.6C427.658 147.8 426.604 148.747 425.244 149.44C423.911 150.107 422.338 150.44 420.524 150.44ZM442.092 150.4C440.065 150.4 438.305 149.973 436.812 149.12C435.318 148.24 434.172 147.027 433.372 145.48C432.572 143.907 432.172 142.093 432.172 140.04C432.172 137.987 432.572 136.187 433.372 134.64C434.172 133.093 435.318 131.893 436.812 131.04C438.305 130.16 440.065 129.72 442.092 129.72C444.118 129.72 445.852 130.16 447.292 131.04C448.758 131.893 449.878 133.093 450.652 134.64C451.452 136.187 451.852 137.987 451.852 140.04C451.852 142.093 451.452 143.907 450.652 145.48C449.878 147.027 448.758 148.24 447.292 149.12C445.852 149.973 444.118 150.4 442.092 150.4ZM442.092 146.56C444.172 146.56 445.625 146.04 446.452 145C447.278 143.933 447.692 142.28 447.692 140.04C447.692 137.8 447.278 136.16 446.452 135.12C445.625 134.08 444.172 133.56 442.092 133.56C439.985 133.56 438.518 134.08 437.692 135.12C436.865 136.16 436.452 137.8 436.452 140.04C436.452 142.28 436.865 143.933 437.692 145C438.518 146.04 439.985 146.56 442.092 146.56ZM459.401 150H455.081V130H459.041V135.56L459.401 135.76V150ZM459.401 137.04H458.401V133.16H459.241C459.641 132.227 460.294 131.427 461.201 130.76C462.134 130.067 463.334 129.72 464.801 129.72C466.214 129.72 467.334 130.027 468.161 130.64C469.014 131.253 469.628 132.067 470.001 133.08C470.374 134.093 470.561 135.227 470.561 136.48V137.8H466.241V137C466.241 135.667 466.014 134.733 465.561 134.2C465.108 133.667 464.254 133.4 463.001 133.4C461.694 133.4 460.761 133.68 460.201 134.24C459.668 134.773 459.401 135.707 459.401 137.04ZM477.565 150H473.245V130H477.205V135.56L477.565 135.76V150ZM477.565 137.04H476.565V133.16H477.405C477.805 132.227 478.458 131.427 479.365 130.76C480.298 130.067 481.498 129.72 482.965 129.72C484.378 129.72 485.498 130.027 486.325 130.64C487.178 131.253 487.792 132.067 488.165 133.08C488.538 134.093 488.725 135.227 488.725 136.48V137.8H484.405V137C484.405 135.667 484.178 134.733 483.725 134.2C483.272 133.667 482.418 133.4 481.165 133.4C479.858 133.4 478.925 133.68 478.365 134.24C477.832 134.773 477.565 135.707 477.565 137.04ZM500.327 150.4C498.167 150.4 496.367 149.973 494.927 149.12C493.487 148.24 492.421 147.027 491.727 145.48C491.034 143.907 490.687 142.093 490.687 140.04C490.687 137.987 491.074 136.187 491.847 134.64C492.647 133.093 493.767 131.893 495.207 131.04C496.647 130.16 498.354 129.72 500.327 129.72C502.114 129.72 503.687 130.067 505.047 130.76C506.434 131.427 507.501 132.4 508.247 133.68C509.021 134.96 509.407 136.507 509.407 138.32C509.407 138.853 509.381 139.373 509.327 139.88C509.301 140.36 509.261 140.76 509.207 141.08H492.727V138.2H505.687L505.247 138.6C505.354 137.373 505.221 136.373 504.847 135.6C504.501 134.827 503.927 134.253 503.127 133.88C502.354 133.507 501.381 133.32 500.207 133.32C498.101 133.32 496.661 133.853 495.887 134.92C495.114 135.96 494.727 137.4 494.727 139.24V140.44C494.727 141.773 494.887 142.907 495.207 143.84C495.554 144.747 496.141 145.427 496.967 145.88C497.794 146.333 498.927 146.56 500.367 146.56C502.047 146.56 503.234 146.293 503.927 145.76C504.621 145.227 504.967 144.52 504.967 143.64V143.32H509.247V143.68C509.247 145.04 508.874 146.227 508.127 147.24C507.381 148.227 506.341 149 505.007 149.56C503.701 150.12 502.141 150.4 500.327 150.4ZM521.97 150.44C519.89 150.44 518.13 150 516.69 149.12C515.25 148.24 514.143 147.027 513.37 145.48C512.623 143.933 512.25 142.133 512.25 140.08C512.25 138.027 512.636 136.227 513.41 134.68C514.21 133.107 515.343 131.893 516.81 131.04C518.276 130.16 520.05 129.72 522.13 129.72C523.89 129.72 525.436 130.053 526.77 130.72C528.103 131.387 529.13 132.32 529.85 133.52C530.596 134.72 530.97 136.12 530.97 137.72V138.08H526.69V137.84C526.69 136.373 526.29 135.307 525.49 134.64C524.716 133.947 523.503 133.6 521.85 133.6C519.93 133.6 518.556 134.147 517.73 135.24C516.93 136.307 516.53 137.907 516.53 140.04C516.53 142.2 516.93 143.827 517.73 144.92C518.556 145.987 519.93 146.52 521.85 146.52C523.503 146.52 524.716 146.187 525.49 145.52C526.29 144.827 526.69 143.76 526.69 142.32V142.08H530.97V142.44C530.97 143.987 530.596 145.373 529.85 146.6C529.103 147.8 528.05 148.747 526.69 149.44C525.356 150.107 523.783 150.44 521.97 150.44ZM542.346 150C540.16 150 538.48 149.533 537.306 148.6C536.16 147.667 535.586 146.093 535.586 143.88V130.56L536.586 125.2H539.906V143.68C539.906 144.72 540.16 145.387 540.666 145.68C541.2 145.947 542.146 146.08 543.506 146.08H545.906V149.64C545.506 149.747 544.986 149.84 544.346 149.92C543.706 149.973 543.04 150 542.346 150ZM545.906 133.72H532.266V130.12H545.906V133.72ZM553.307 150H548.987V123.2H553.307V150ZM560.59 156.8C560.057 156.8 559.51 156.76 558.95 156.68C558.39 156.627 557.937 156.547 557.59 156.44V152.92H560.35C561.177 152.92 561.79 152.8 562.19 152.56C562.59 152.347 562.964 151.88 563.31 151.16L564.55 148.36L564.19 149.76L555.59 130.12H560.35L564.35 139.76L566.15 144.08H566.51L568.11 139.76L571.75 130.12H576.55L567.11 152.32C566.63 153.52 566.084 154.44 565.47 155.08C564.857 155.72 564.15 156.16 563.35 156.4C562.577 156.667 561.657 156.8 560.59 156.8ZM580.931 150H575.451V143.8H580.931V150ZM603.398 150H599.118V123.2H603.398V150ZM612.518 127.08H589.998V123.2H612.518V127.08ZM633.132 150H628.812V138.44C628.812 136.68 628.466 135.413 627.772 134.64C627.106 133.84 625.866 133.44 624.052 133.44C622.319 133.44 621.026 133.827 620.172 134.6C619.346 135.347 618.932 136.667 618.932 138.56H618.172L618.132 133.44H619.092C619.412 132.827 619.852 132.24 620.412 131.68C620.999 131.093 621.732 130.627 622.612 130.28C623.519 129.907 624.559 129.72 625.732 129.72C627.492 129.72 628.906 130.067 629.972 130.76C631.066 131.427 631.866 132.347 632.372 133.52C632.879 134.693 633.132 136.013 633.132 137.48V150ZM618.932 150H614.612V123.2H618.932V150ZM641.426 127.6H637.146L637.106 123.2H641.426V127.6ZM641.466 150H637.146V130H641.466V150ZM653.675 150.4C650.769 150.4 648.569 149.827 647.075 148.68C645.582 147.507 644.835 145.707 644.835 143.28V143.2H648.995V143.92C648.995 144.613 649.129 145.187 649.395 145.64C649.689 146.067 650.169 146.387 650.835 146.6C651.529 146.787 652.502 146.88 653.755 146.88C654.822 146.88 655.622 146.8 656.155 146.64C656.715 146.453 657.089 146.2 657.275 145.88C657.462 145.56 657.555 145.16 657.555 144.68C657.555 143.88 657.275 143.32 656.715 143C656.155 142.653 655.155 142.347 653.715 142.08L650.595 141.56C649.422 141.32 648.395 140.987 647.515 140.56C646.662 140.107 645.995 139.493 645.515 138.72C645.062 137.92 644.835 136.92 644.835 135.72C644.835 133.933 645.542 132.493 646.955 131.4C648.369 130.28 650.369 129.72 652.955 129.72C654.529 129.72 655.929 129.973 657.155 130.48C658.382 130.987 659.355 131.747 660.075 132.76C660.795 133.773 661.155 135.04 661.155 136.56V136.92H657.035V136.44C657.035 135.8 656.929 135.253 656.715 134.8C656.502 134.32 656.102 133.947 655.515 133.68C654.929 133.413 654.035 133.28 652.835 133.28C651.262 133.28 650.222 133.48 649.715 133.88C649.209 134.28 648.955 134.867 648.955 135.64C648.955 136.413 649.182 136.96 649.635 137.28C650.115 137.573 651.049 137.867 652.435 138.16L655.835 138.8C657.115 139.04 658.182 139.4 659.035 139.88C659.889 140.36 660.529 140.987 660.955 141.76C661.409 142.533 661.635 143.453 661.635 144.52C661.635 146.387 660.929 147.84 659.515 148.88C658.129 149.893 656.182 150.4 653.675 150.4ZM164.248 199H159.928V172.2H164.248V199ZM187.234 199H182.914V187.44C182.914 185.68 182.58 184.413 181.914 183.64C181.247 182.84 179.994 182.44 178.154 182.44C176.98 182.44 176.02 182.613 175.274 182.96C174.527 183.28 173.967 183.813 173.594 184.56C173.22 185.28 173.034 186.267 173.034 187.52H172.274L171.914 182.84H172.874C173.167 182.12 173.607 181.453 174.194 180.84C174.78 180.227 175.527 179.72 176.434 179.32C177.367 178.92 178.474 178.72 179.754 178.72C181.487 178.72 182.9 179.053 183.994 179.72C185.087 180.387 185.9 181.307 186.434 182.48C186.967 183.653 187.234 185 187.234 186.52V199ZM173.034 199H168.714V179.12H172.674V185.08L173.034 185.28V199ZM196.496 199H192.176V179.28C192.176 177.733 192.469 176.44 193.056 175.4C193.642 174.36 194.509 173.573 195.656 173.04C196.829 172.48 198.269 172.2 199.976 172.2C200.242 172.2 200.509 172.2 200.776 172.2C201.042 172.2 201.309 172.2 201.576 172.2V175.64H199.176C198.216 175.64 197.509 175.827 197.056 176.2C196.602 176.573 196.376 177.187 196.376 178.04V179.8L196.496 180.84V199ZM201.576 182.72H189.256V179.12H201.576V182.72ZM212.209 199.4C210.182 199.4 208.422 198.973 206.929 198.12C205.435 197.24 204.289 196.027 203.489 194.48C202.689 192.907 202.289 191.093 202.289 189.04C202.289 186.987 202.689 185.187 203.489 183.64C204.289 182.093 205.435 180.893 206.929 180.04C208.422 179.16 210.182 178.72 212.209 178.72C214.235 178.72 215.969 179.16 217.409 180.04C218.875 180.893 219.995 182.093 220.769 183.64C221.569 185.187 221.969 186.987 221.969 189.04C221.969 191.093 221.569 192.907 220.769 194.48C219.995 196.027 218.875 197.24 217.409 198.12C215.969 198.973 214.235 199.4 212.209 199.4ZM212.209 195.56C214.289 195.56 215.742 195.04 216.569 194C217.395 192.933 217.809 191.28 217.809 189.04C217.809 186.8 217.395 185.16 216.569 184.12C215.742 183.08 214.289 182.56 212.209 182.56C210.102 182.56 208.635 183.08 207.809 184.12C206.982 185.16 206.569 186.8 206.569 189.04C206.569 191.28 206.982 192.933 207.809 194C208.635 195.04 210.102 195.56 212.209 195.56ZM241.813 199H236.173L231.253 179.12H235.933L238.213 190.16L239.053 195.4H239.373L240.653 190.16L244.133 179.12H249.733L253.253 190.2L254.533 195.36H254.813L255.653 190.2L257.933 179.12H262.453L257.533 199H251.893L248.333 187.92L247.013 182.92H246.733L245.413 187.92L241.813 199ZM268.574 176.6H264.294L264.254 172.2H268.574V176.6ZM268.614 199H264.294V179H268.614V199ZM276.901 199H272.581V172.2H276.901V199ZM285.651 199H281.331V172.2H285.651V199ZM308.265 199.4C306.531 199.4 305.105 199.08 303.985 198.44C302.865 197.773 302.051 196.867 301.545 195.72H300.745L300.985 190.84H301.745C301.745 191.933 301.945 192.84 302.345 193.56C302.771 194.28 303.385 194.827 304.185 195.2C305.011 195.547 305.998 195.72 307.145 195.72C308.105 195.72 308.918 195.6 309.585 195.36C310.278 195.12 310.851 194.747 311.305 194.24C311.758 193.707 312.078 193.013 312.265 192.16C312.478 191.28 312.585 190.24 312.585 189.04C312.585 187.813 312.478 186.773 312.265 185.92C312.078 185.067 311.758 184.387 311.305 183.88C310.878 183.373 310.318 183 309.625 182.76C308.931 182.52 308.105 182.4 307.145 182.4C305.998 182.4 305.011 182.573 304.185 182.92C303.385 183.267 302.771 183.8 302.345 184.52C301.945 185.24 301.745 186.16 301.745 187.28H300.985L300.745 182.28H301.865C302.291 181.373 303.065 180.56 304.185 179.84C305.331 179.093 306.771 178.72 308.505 178.72C311.251 178.72 313.331 179.653 314.745 181.52C316.185 183.387 316.905 185.893 316.905 189.04C316.905 192.187 316.158 194.707 314.665 196.6C313.198 198.467 311.065 199.4 308.265 199.4ZM301.385 199H297.425V172.2H301.745V193.76L301.385 194.28V199ZM329.194 199.4C327.034 199.4 325.234 198.973 323.794 198.12C322.354 197.24 321.288 196.027 320.594 194.48C319.901 192.907 319.554 191.093 319.554 189.04C319.554 186.987 319.941 185.187 320.714 183.64C321.514 182.093 322.634 180.893 324.074 180.04C325.514 179.16 327.221 178.72 329.194 178.72C330.981 178.72 332.554 179.067 333.914 179.76C335.301 180.427 336.368 181.4 337.114 182.68C337.888 183.96 338.274 185.507 338.274 187.32C338.274 187.853 338.248 188.373 338.194 188.88C338.168 189.36 338.128 189.76 338.074 190.08H321.594V187.2H334.554L334.114 187.6C334.221 186.373 334.088 185.373 333.714 184.6C333.368 183.827 332.794 183.253 331.994 182.88C331.221 182.507 330.248 182.32 329.074 182.32C326.968 182.32 325.528 182.853 324.754 183.92C323.981 184.96 323.594 186.4 323.594 188.24V189.44C323.594 190.773 323.754 191.907 324.074 192.84C324.421 193.747 325.008 194.427 325.834 194.88C326.661 195.333 327.794 195.56 329.234 195.56C330.914 195.56 332.101 195.293 332.794 194.76C333.488 194.227 333.834 193.52 333.834 192.64V192.32H338.114V192.68C338.114 194.04 337.741 195.227 336.994 196.24C336.248 197.227 335.208 198 333.874 198.56C332.568 199.12 331.008 199.4 329.194 199.4ZM358.296 199.4C356.136 199.4 354.336 198.973 352.896 198.12C351.456 197.24 350.389 196.027 349.696 194.48C349.003 192.907 348.656 191.093 348.656 189.04C348.656 186.987 349.043 185.187 349.816 183.64C350.616 182.093 351.736 180.893 353.176 180.04C354.616 179.16 356.323 178.72 358.296 178.72C360.083 178.72 361.656 179.067 363.016 179.76C364.403 180.427 365.469 181.4 366.216 182.68C366.989 183.96 367.376 185.507 367.376 187.32C367.376 187.853 367.349 188.373 367.296 188.88C367.269 189.36 367.229 189.76 367.176 190.08H350.696V187.2H363.656L363.216 187.6C363.323 186.373 363.189 185.373 362.816 184.6C362.469 183.827 361.896 183.253 361.096 182.88C360.323 182.507 359.349 182.32 358.176 182.32C356.069 182.32 354.629 182.853 353.856 183.92C353.083 184.96 352.696 186.4 352.696 188.24V189.44C352.696 190.773 352.856 191.907 353.176 192.84C353.523 193.747 354.109 194.427 354.936 194.88C355.763 195.333 356.896 195.56 358.336 195.56C360.016 195.56 361.203 195.293 361.896 194.76C362.589 194.227 362.936 193.52 362.936 192.64V192.32H367.216V192.68C367.216 194.04 366.843 195.227 366.096 196.24C365.349 197.227 364.309 198 362.976 198.56C361.669 199.12 360.109 199.4 358.296 199.4ZM381.563 199H376.083L368.123 179.12H372.923L378.723 194.88H379.003L384.843 179.12H389.523L381.563 199ZM407.741 199H403.741V195.08L403.621 194V186.36C403.621 184.867 403.261 183.853 402.541 183.32C401.848 182.787 400.715 182.52 399.141 182.52C397.568 182.52 396.435 182.8 395.741 183.36C395.075 183.92 394.741 184.853 394.741 186.16V186.76H390.581V186.36C390.581 184.867 390.941 183.547 391.661 182.4C392.408 181.253 393.435 180.36 394.741 179.72C396.075 179.053 397.621 178.72 399.381 178.72C401.248 178.72 402.795 179.067 404.021 179.76C405.248 180.453 406.168 181.413 406.781 182.64C407.421 183.84 407.741 185.267 407.741 186.92V199ZM396.341 199.4C394.555 199.4 393.048 198.947 391.821 198.04C390.621 197.107 390.021 195.787 390.021 194.08C390.021 192.96 390.275 192.027 390.781 191.28C391.315 190.533 392.075 189.92 393.061 189.44C394.048 188.96 395.248 188.627 396.661 188.44L404.021 187.4V190.44L397.301 191.44C396.155 191.6 395.355 191.84 394.901 192.16C394.448 192.48 394.221 193.013 394.221 193.76C394.221 194.533 394.488 195.093 395.021 195.44C395.581 195.787 396.488 195.96 397.741 195.96C398.701 195.96 399.621 195.813 400.501 195.52C401.408 195.2 402.155 194.68 402.741 193.96C403.328 193.213 403.621 192.173 403.621 190.84L404.181 195.92L403.541 195.88C403.168 196.493 402.648 197.067 401.981 197.6C401.341 198.133 400.555 198.573 399.621 198.92C398.688 199.24 397.595 199.4 396.341 199.4ZM416.198 199H411.878V172.2H416.198V199ZM427.833 199.4C426.126 199.4 424.713 199.053 423.592 198.36C422.473 197.64 421.646 196.68 421.113 195.48C420.579 194.253 420.313 192.893 420.313 191.4V179.12H424.633V190.6C424.633 192.387 425.006 193.68 425.753 194.48C426.499 195.28 427.726 195.68 429.433 195.68C430.553 195.68 431.499 195.507 432.273 195.16C433.046 194.787 433.633 194.213 434.033 193.44C434.433 192.64 434.633 191.6 434.633 190.32H435.753V195.04H434.793C434.499 195.787 434.046 196.493 433.433 197.16C432.846 197.827 432.086 198.373 431.153 198.8C430.246 199.2 429.139 199.4 427.833 199.4ZM438.953 199H434.953V193.04L434.633 192.84V179.12H438.953V199ZM459.968 199H455.968V195.08L455.848 194V186.36C455.848 184.867 455.488 183.853 454.768 183.32C454.074 182.787 452.941 182.52 451.368 182.52C449.794 182.52 448.661 182.8 447.968 183.36C447.301 183.92 446.968 184.853 446.968 186.16V186.76H442.808V186.36C442.808 184.867 443.168 183.547 443.888 182.4C444.634 181.253 445.661 180.36 446.968 179.72C448.301 179.053 449.848 178.72 451.608 178.72C453.474 178.72 455.021 179.067 456.248 179.76C457.474 180.453 458.394 181.413 459.008 182.64C459.648 183.84 459.968 185.267 459.968 186.92V199ZM448.568 199.4C446.781 199.4 445.274 198.947 444.048 198.04C442.848 197.107 442.248 195.787 442.248 194.08C442.248 192.96 442.501 192.027 443.008 191.28C443.541 190.533 444.301 189.92 445.288 189.44C446.274 188.96 447.474 188.627 448.888 188.44L456.248 187.4V190.44L449.528 191.44C448.381 191.6 447.581 191.84 447.128 192.16C446.674 192.48 446.448 193.013 446.448 193.76C446.448 194.533 446.714 195.093 447.248 195.44C447.808 195.787 448.714 195.96 449.968 195.96C450.928 195.96 451.848 195.813 452.728 195.52C453.634 195.2 454.381 194.68 454.968 193.96C455.554 193.213 455.848 192.173 455.848 190.84L456.408 195.92L455.768 195.88C455.394 196.493 454.874 197.067 454.208 197.6C453.568 198.133 452.781 198.573 451.848 198.92C450.914 199.24 449.821 199.4 448.568 199.4ZM472.19 199C470.003 199 468.323 198.533 467.15 197.6C466.003 196.667 465.43 195.093 465.43 192.88V179.56L466.43 174.2H469.75V192.68C469.75 193.72 470.003 194.387 470.51 194.68C471.043 194.947 471.99 195.08 473.35 195.08H475.75V198.64C475.35 198.747 474.83 198.84 474.19 198.92C473.55 198.973 472.883 199 472.19 199ZM475.75 182.72H462.11V179.12H475.75V182.72ZM486.812 199.4C484.652 199.4 482.852 198.973 481.412 198.12C479.972 197.24 478.905 196.027 478.212 194.48C477.518 192.907 477.172 191.093 477.172 189.04C477.172 186.987 477.558 185.187 478.332 183.64C479.132 182.093 480.252 180.893 481.692 180.04C483.132 179.16 484.838 178.72 486.812 178.72C488.598 178.72 490.172 179.067 491.532 179.76C492.918 180.427 493.985 181.4 494.732 182.68C495.505 183.96 495.892 185.507 495.892 187.32C495.892 187.853 495.865 188.373 495.812 188.88C495.785 189.36 495.745 189.76 495.692 190.08H479.212V187.2H492.172L491.732 187.6C491.838 186.373 491.705 185.373 491.332 184.6C490.985 183.827 490.412 183.253 489.612 182.88C488.838 182.507 487.865 182.32 486.692 182.32C484.585 182.32 483.145 182.853 482.372 183.92C481.598 184.96 481.212 186.4 481.212 188.24V189.44C481.212 190.773 481.372 191.907 481.692 192.84C482.038 193.747 482.625 194.427 483.452 194.88C484.278 195.333 485.412 195.56 486.852 195.56C488.532 195.56 489.718 195.293 490.412 194.76C491.105 194.227 491.452 193.52 491.452 192.64V192.32H495.732V192.68C495.732 194.04 495.358 195.227 494.612 196.24C493.865 197.227 492.825 198 491.492 198.56C490.185 199.12 488.625 199.4 486.812 199.4ZM507.494 199.4C504.667 199.4 502.494 198.467 500.974 196.6C499.481 194.707 498.734 192.187 498.734 189.04C498.734 185.893 499.467 183.387 500.934 181.52C502.427 179.653 504.534 178.72 507.254 178.72C509.014 178.72 510.427 179.08 511.494 179.8C512.587 180.493 513.347 181.293 513.774 182.2H514.854L514.654 187.28H513.894C513.894 186.16 513.681 185.24 513.254 184.52C512.827 183.8 512.214 183.267 511.414 182.92C510.614 182.573 509.627 182.4 508.454 182.4C507.494 182.4 506.667 182.52 505.974 182.76C505.307 183 504.747 183.373 504.294 183.88C503.867 184.387 503.547 185.067 503.334 185.92C503.147 186.773 503.054 187.813 503.054 189.04C503.054 190.24 503.147 191.28 503.334 192.16C503.547 193.013 503.867 193.707 504.294 194.24C504.747 194.747 505.321 195.12 506.014 195.36C506.707 195.6 507.521 195.72 508.454 195.72C509.627 195.72 510.614 195.547 511.414 195.2C512.214 194.827 512.827 194.28 513.254 193.56C513.681 192.84 513.894 191.933 513.894 190.84H514.654L514.854 195.72H514.054C513.601 196.867 512.814 197.773 511.694 198.44C510.601 199.08 509.201 199.4 507.494 199.4ZM518.214 199H514.214V194.28L513.894 193.76V172.2H518.214V199ZM540.843 199.4C539.109 199.4 537.683 199.08 536.563 198.44C535.443 197.773 534.629 196.867 534.123 195.72H533.323L533.563 190.84H534.323C534.323 191.933 534.523 192.84 534.923 193.56C535.349 194.28 535.963 194.827 536.763 195.2C537.589 195.547 538.576 195.72 539.723 195.72C540.683 195.72 541.496 195.6 542.163 195.36C542.856 195.12 543.429 194.747 543.883 194.24C544.336 193.707 544.656 193.013 544.843 192.16C545.056 191.28 545.163 190.24 545.163 189.04C545.163 187.813 545.056 186.773 544.843 185.92C544.656 185.067 544.336 184.387 543.883 183.88C543.456 183.373 542.896 183 542.203 182.76C541.509 182.52 540.683 182.4 539.723 182.4C538.576 182.4 537.589 182.573 536.763 182.92C535.963 183.267 535.349 183.8 534.923 184.52C534.523 185.24 534.323 186.16 534.323 187.28H533.563L533.323 182.28H534.443C534.869 181.373 535.643 180.56 536.763 179.84C537.909 179.093 539.349 178.72 541.083 178.72C543.829 178.72 545.909 179.653 547.323 181.52C548.763 183.387 549.483 185.893 549.483 189.04C549.483 192.187 548.736 194.707 547.243 196.6C545.776 198.467 543.643 199.4 540.843 199.4ZM533.963 199H530.003V172.2H534.323V193.76L533.963 194.28V199ZM555.083 205.8C554.549 205.8 554.003 205.76 553.443 205.68C552.883 205.627 552.429 205.547 552.083 205.44V201.92H554.842C555.669 201.92 556.283 201.8 556.683 201.56C557.083 201.347 557.456 200.88 557.803 200.16L559.043 197.36L558.683 198.76L550.083 179.12H554.842L558.843 188.76L560.643 193.08H561.003L562.603 188.76L566.243 179.12H571.043L561.603 201.32C561.123 202.52 560.576 203.44 559.963 204.08C559.349 204.72 558.643 205.16 557.843 205.4C557.069 205.667 556.149 205.8 555.083 205.8ZM584.497 205.8C583.963 205.8 583.417 205.76 582.857 205.68C582.297 205.627 581.843 205.547 581.497 205.44V201.92H584.257C585.083 201.92 585.697 201.8 586.097 201.56C586.497 201.347 586.87 200.88 587.217 200.16L588.457 197.36L588.097 198.76L579.497 179.12H584.257L588.257 188.76L590.057 193.08H590.417L592.017 188.76L595.657 179.12H600.457L591.017 201.32C590.537 202.52 589.99 203.44 589.377 204.08C588.763 204.72 588.057 205.16 587.257 205.4C586.483 205.667 585.563 205.8 584.497 205.8ZM610.842 199.4C608.815 199.4 607.055 198.973 605.562 198.12C604.068 197.24 602.922 196.027 602.122 194.48C601.322 192.907 600.922 191.093 600.922 189.04C600.922 186.987 601.322 185.187 602.122 183.64C602.922 182.093 604.068 180.893 605.562 180.04C607.055 179.16 608.815 178.72 610.842 178.72C612.868 178.72 614.602 179.16 616.042 180.04C617.508 180.893 618.628 182.093 619.402 183.64C620.202 185.187 620.602 186.987 620.602 189.04C620.602 191.093 620.202 192.907 619.402 194.48C618.628 196.027 617.508 197.24 616.042 198.12C614.602 198.973 612.868 199.4 610.842 199.4ZM610.842 195.56C612.922 195.56 614.375 195.04 615.202 194C616.028 192.933 616.442 191.28 616.442 189.04C616.442 186.8 616.028 185.16 615.202 184.12C614.375 183.08 612.922 182.56 610.842 182.56C608.735 182.56 607.268 183.08 606.442 184.12C605.615 185.16 605.202 186.8 605.202 189.04C605.202 191.28 605.615 192.933 606.442 194C607.268 195.04 608.735 195.56 610.842 195.56ZM631.231 199.4C629.524 199.4 628.111 199.053 626.991 198.36C625.871 197.64 625.044 196.68 624.511 195.48C623.978 194.253 623.711 192.893 623.711 191.4V179.12H628.031V190.6C628.031 192.387 628.404 193.68 629.151 194.48C629.898 195.28 631.124 195.68 632.831 195.68C633.951 195.68 634.898 195.507 635.671 195.16C636.444 194.787 637.031 194.213 637.431 193.44C637.831 192.64 638.031 191.6 638.031 190.32H639.151V195.04H638.191C637.898 195.787 637.444 196.493 636.831 197.16C636.244 197.827 635.484 198.373 634.551 198.8C633.644 199.2 632.538 199.4 631.231 199.4ZM642.351 199H638.351V193.04L638.031 192.84V179.12H642.351V199ZM650.924 199H646.604V179H650.564V184.56L650.924 184.76V199ZM650.924 186.04H649.924V182.16H650.764C651.164 181.227 651.818 180.427 652.724 179.76C653.658 179.067 654.858 178.72 656.324 178.72C657.738 178.72 658.858 179.027 659.684 179.64C660.538 180.253 661.151 181.067 661.524 182.08C661.898 183.093 662.084 184.227 662.084 185.48V186.8H657.764V186C657.764 184.667 657.538 183.733 657.084 183.2C656.631 182.667 655.778 182.4 654.524 182.4C653.218 182.4 652.284 182.68 651.724 183.24C651.191 183.773 650.924 184.707 650.924 186.04ZM266.039 248.4C264.252 248.4 262.799 248.053 261.679 247.36C260.586 246.64 259.826 245.827 259.399 244.92H258.319L258.519 239.84H259.279C259.279 240.933 259.479 241.84 259.879 242.56C260.306 243.28 260.932 243.827 261.759 244.2C262.586 244.547 263.572 244.72 264.719 244.72C265.652 244.72 266.466 244.6 267.159 244.36C267.852 244.12 268.412 243.747 268.839 243.24C269.292 242.733 269.612 242.053 269.799 241.2C270.012 240.32 270.119 239.267 270.119 238.04C270.119 236.813 270.012 235.787 269.799 234.96C269.612 234.107 269.292 233.413 268.839 232.88C268.412 232.347 267.852 231.973 267.159 231.76C266.492 231.52 265.679 231.4 264.719 231.4C263.572 231.4 262.586 231.587 261.759 231.96C260.932 232.307 260.306 232.84 259.879 233.56C259.479 234.253 259.279 235.16 259.279 236.28H258.519L258.319 231.4H259.119C259.599 230.253 260.386 229.36 261.479 228.72C262.599 228.053 264.026 227.72 265.759 227.72C268.559 227.72 270.706 228.653 272.199 230.52C273.692 232.387 274.439 234.893 274.439 238.04C274.439 241.187 273.719 243.707 272.279 245.6C270.839 247.467 268.759 248.4 266.039 248.4ZM259.279 254.92H254.999V228.12H258.919V232.84L259.279 233.36V254.92ZM282.253 248H277.933V221.2H282.253V248ZM303.132 248H299.132V244.08L299.012 243V235.36C299.012 233.867 298.652 232.853 297.932 232.32C297.239 231.787 296.105 231.52 294.532 231.52C292.959 231.52 291.825 231.8 291.132 232.36C290.465 232.92 290.132 233.853 290.132 235.16V235.76H285.972V235.36C285.972 233.867 286.332 232.547 287.052 231.4C287.799 230.253 288.825 229.36 290.132 228.72C291.465 228.053 293.012 227.72 294.772 227.72C296.639 227.72 298.185 228.067 299.412 228.76C300.639 229.453 301.559 230.413 302.172 231.64C302.812 232.84 303.132 234.267 303.132 235.92V248ZM291.732 248.4C289.945 248.4 288.439 247.947 287.212 247.04C286.012 246.107 285.412 244.787 285.412 243.08C285.412 241.96 285.665 241.027 286.172 240.28C286.705 239.533 287.465 238.92 288.452 238.44C289.439 237.96 290.639 237.627 292.052 237.44L299.412 236.4V239.44L292.692 240.44C291.545 240.6 290.745 240.84 290.292 241.16C289.839 241.48 289.612 242.013 289.612 242.76C289.612 243.533 289.879 244.093 290.412 244.44C290.972 244.787 291.879 244.96 293.132 244.96C294.092 244.96 295.012 244.813 295.892 244.52C296.799 244.2 297.545 243.68 298.132 242.96C298.719 242.213 299.012 241.173 299.012 239.84L299.572 244.92L298.932 244.88C298.559 245.493 298.039 246.067 297.372 246.6C296.732 247.133 295.945 247.573 295.012 247.92C294.079 248.24 292.985 248.4 291.732 248.4ZM316.11 248.44C314.03 248.44 312.27 248 310.83 247.12C309.39 246.24 308.284 245.027 307.51 243.48C306.764 241.933 306.39 240.133 306.39 238.08C306.39 236.027 306.777 234.227 307.55 232.68C308.35 231.107 309.484 229.893 310.95 229.04C312.417 228.16 314.19 227.72 316.27 227.72C318.03 227.72 319.577 228.053 320.91 228.72C322.244 229.387 323.27 230.32 323.99 231.52C324.737 232.72 325.11 234.12 325.11 235.72V236.08H320.83V235.84C320.83 234.373 320.43 233.307 319.63 232.64C318.857 231.947 317.644 231.6 315.99 231.6C314.07 231.6 312.697 232.147 311.87 233.24C311.07 234.307 310.67 235.907 310.67 238.04C310.67 240.2 311.07 241.827 311.87 242.92C312.697 243.987 314.07 244.52 315.99 244.52C317.644 244.52 318.857 244.187 319.63 243.52C320.43 242.827 320.83 241.76 320.83 240.32V240.08H325.11V240.44C325.11 241.987 324.737 243.373 323.99 244.6C323.244 245.8 322.19 246.747 320.83 247.44C319.497 248.107 317.924 248.44 316.11 248.44ZM337.398 248.4C335.238 248.4 333.438 247.973 331.998 247.12C330.558 246.24 329.491 245.027 328.798 243.48C328.104 241.907 327.757 240.093 327.757 238.04C327.757 235.987 328.144 234.187 328.918 232.64C329.718 231.093 330.838 229.893 332.278 229.04C333.718 228.16 335.424 227.72 337.398 227.72C339.184 227.72 340.758 228.067 342.118 228.76C343.504 229.427 344.571 230.4 345.318 231.68C346.091 232.96 346.478 234.507 346.478 236.32C346.478 236.853 346.451 237.373 346.398 237.88C346.371 238.36 346.331 238.76 346.278 239.08H329.798V236.2H342.758L342.318 236.6C342.424 235.373 342.291 234.373 341.918 233.6C341.571 232.827 340.998 232.253 340.198 231.88C339.424 231.507 338.451 231.32 337.278 231.32C335.171 231.32 333.731 231.853 332.958 232.92C332.184 233.96 331.798 235.4 331.798 237.24V238.44C331.798 239.773 331.958 240.907 332.278 241.84C332.624 242.747 333.211 243.427 334.038 243.88C334.864 244.333 335.998 244.56 337.438 244.56C339.118 244.56 340.304 244.293 340.998 243.76C341.691 243.227 342.038 242.52 342.038 241.64V241.32H346.318V241.68C346.318 243.04 345.944 244.227 345.198 245.24C344.451 246.227 343.411 247 342.078 247.56C340.771 248.12 339.211 248.4 337.398 248.4ZM381.845 248H377.525V236.44C377.525 234.68 377.191 233.413 376.525 232.64C375.885 231.84 374.658 231.44 372.845 231.44C371.218 231.44 370.005 231.827 369.205 232.6C368.431 233.347 368.045 234.627 368.045 236.44L367.285 236.52L366.925 231.84H367.565C367.885 231.147 368.325 230.493 368.885 229.88C369.471 229.24 370.218 228.72 371.125 228.32C372.031 227.92 373.138 227.72 374.445 227.72C376.178 227.72 377.578 228.053 378.645 228.72C379.738 229.387 380.538 230.307 381.045 231.48C381.578 232.653 381.845 234 381.845 235.52V248ZM354.245 248H349.925V228.12H353.885V234.08L354.245 234.28V248ZM368.045 248H363.725V236.44C363.725 234.68 363.391 233.413 362.725 232.64C362.085 231.84 360.858 231.44 359.045 231.44C357.418 231.44 356.205 231.813 355.405 232.56C354.631 233.307 354.245 234.587 354.245 236.4L353.485 236.52L353.125 231.84H354.085C354.378 231.12 354.805 230.453 355.365 229.84C355.951 229.227 356.698 228.72 357.605 228.32C358.511 227.92 359.591 227.72 360.845 227.72C362.525 227.72 363.885 228.053 364.925 228.72C365.991 229.387 366.778 230.307 367.285 231.48C367.791 232.653 368.045 234 368.045 235.52V248ZM394.741 248.4C392.581 248.4 390.781 247.973 389.341 247.12C387.901 246.24 386.835 245.027 386.141 243.48C385.448 241.907 385.101 240.093 385.101 238.04C385.101 235.987 385.488 234.187 386.261 232.64C387.061 231.093 388.181 229.893 389.621 229.04C391.061 228.16 392.768 227.72 394.741 227.72C396.528 227.72 398.101 228.067 399.461 228.76C400.848 229.427 401.915 230.4 402.661 231.68C403.435 232.96 403.821 234.507 403.821 236.32C403.821 236.853 403.795 237.373 403.741 237.88C403.715 238.36 403.675 238.76 403.621 239.08H387.141V236.2H400.101L399.661 236.6C399.768 235.373 399.635 234.373 399.261 233.6C398.915 232.827 398.341 232.253 397.541 231.88C396.768 231.507 395.795 231.32 394.621 231.32C392.515 231.32 391.075 231.853 390.301 232.92C389.528 233.96 389.141 235.4 389.141 237.24V238.44C389.141 239.773 389.301 240.907 389.621 241.84C389.968 242.747 390.555 243.427 391.381 243.88C392.208 244.333 393.341 244.56 394.781 244.56C396.461 244.56 397.648 244.293 398.341 243.76C399.035 243.227 399.381 242.52 399.381 241.64V241.32H403.661V241.68C403.661 243.04 403.288 244.227 402.541 245.24C401.795 246.227 400.755 247 399.421 247.56C398.115 248.12 396.555 248.4 394.741 248.4ZM425.788 248H421.468V236.44C421.468 234.68 421.135 233.413 420.468 232.64C419.802 231.84 418.548 231.44 416.708 231.44C415.535 231.44 414.575 231.613 413.828 231.96C413.082 232.28 412.522 232.813 412.148 233.56C411.775 234.28 411.588 235.267 411.588 236.52H410.828L410.468 231.84H411.428C411.722 231.12 412.162 230.453 412.748 229.84C413.335 229.227 414.082 228.72 414.988 228.32C415.922 227.92 417.028 227.72 418.308 227.72C420.042 227.72 421.455 228.053 422.548 228.72C423.642 229.387 424.455 230.307 424.988 231.48C425.522 232.653 425.788 234 425.788 235.52V248ZM411.588 248H407.268V228.12H411.228V234.08L411.588 234.28V248ZM438.01 248C435.824 248 434.144 247.533 432.97 246.6C431.824 245.667 431.25 244.093 431.25 241.88V228.56L432.25 223.2H435.57V241.68C435.57 242.72 435.824 243.387 436.33 243.68C436.864 243.947 437.81 244.08 439.17 244.08H441.57V247.64C441.17 247.747 440.65 247.84 440.01 247.92C439.37 247.973 438.704 248 438.01 248ZM441.57 231.72H427.93V228.12H441.57V231.72ZM460.993 248.44C458.913 248.44 457.153 248 455.713 247.12C454.273 246.24 453.166 245.027 452.393 243.48C451.646 241.933 451.273 240.133 451.273 238.08C451.273 236.027 451.66 234.227 452.433 232.68C453.233 231.107 454.366 229.893 455.833 229.04C457.3 228.16 459.073 227.72 461.153 227.72C462.913 227.72 464.46 228.053 465.793 228.72C467.126 229.387 468.153 230.32 468.873 231.52C469.62 232.72 469.993 234.12 469.993 235.72V236.08H465.713V235.84C465.713 234.373 465.313 233.307 464.513 232.64C463.74 231.947 462.526 231.6 460.873 231.6C458.953 231.6 457.58 232.147 456.753 233.24C455.953 234.307 455.553 235.907 455.553 238.04C455.553 240.2 455.953 241.827 456.753 242.92C457.58 243.987 458.953 244.52 460.873 244.52C462.526 244.52 463.74 244.187 464.513 243.52C465.313 242.827 465.713 241.76 465.713 240.32V240.08H469.993V240.44C469.993 241.987 469.62 243.373 468.873 244.6C468.126 245.8 467.073 246.747 465.713 247.44C464.38 248.107 462.806 248.44 460.993 248.44ZM482.56 248.4C480.534 248.4 478.774 247.973 477.28 247.12C475.787 246.24 474.64 245.027 473.84 243.48C473.04 241.907 472.64 240.093 472.64 238.04C472.64 235.987 473.04 234.187 473.84 232.64C474.64 231.093 475.787 229.893 477.28 229.04C478.774 228.16 480.534 227.72 482.56 227.72C484.587 227.72 486.32 228.16 487.76 229.04C489.227 229.893 490.347 231.093 491.12 232.64C491.92 234.187 492.32 235.987 492.32 238.04C492.32 240.093 491.92 241.907 491.12 243.48C490.347 245.027 489.227 246.24 487.76 247.12C486.32 247.973 484.587 248.4 482.56 248.4ZM482.56 244.56C484.64 244.56 486.094 244.04 486.92 243C487.747 241.933 488.16 240.28 488.16 238.04C488.16 235.8 487.747 234.16 486.92 233.12C486.094 232.08 484.64 231.56 482.56 231.56C480.454 231.56 478.987 232.08 478.16 233.12C477.334 234.16 476.92 235.8 476.92 238.04C476.92 240.28 477.334 241.933 478.16 243C478.987 244.04 480.454 244.56 482.56 244.56ZM504.865 248.4C502.838 248.4 501.078 247.973 499.585 247.12C498.092 246.24 496.945 245.027 496.145 243.48C495.345 241.907 494.945 240.093 494.945 238.04C494.945 235.987 495.345 234.187 496.145 232.64C496.945 231.093 498.092 229.893 499.585 229.04C501.078 228.16 502.838 227.72 504.865 227.72C506.892 227.72 508.625 228.16 510.065 229.04C511.532 229.893 512.652 231.093 513.425 232.64C514.225 234.187 514.625 235.987 514.625 238.04C514.625 240.093 514.225 241.907 513.425 243.48C512.652 245.027 511.532 246.24 510.065 247.12C508.625 247.973 506.892 248.4 504.865 248.4ZM504.865 244.56C506.945 244.56 508.398 244.04 509.225 243C510.052 241.933 510.465 240.28 510.465 238.04C510.465 235.8 510.052 234.16 509.225 233.12C508.398 232.08 506.945 231.56 504.865 231.56C502.758 231.56 501.292 232.08 500.465 233.12C499.638 234.16 499.225 235.8 499.225 238.04C499.225 240.28 499.638 241.933 500.465 243C501.292 244.04 502.758 244.56 504.865 244.56ZM522.174 248H517.854V228H521.814V233.56L522.174 233.76V248ZM522.174 235.04H521.174V231.16H522.014C522.414 230.227 523.068 229.427 523.974 228.76C524.908 228.067 526.108 227.72 527.574 227.72C528.988 227.72 530.108 228.027 530.934 228.64C531.788 229.253 532.401 230.067 532.774 231.08C533.148 232.093 533.334 233.227 533.334 234.48V235.8H529.014V235C529.014 233.667 528.788 232.733 528.334 232.2C527.881 231.667 527.028 231.4 525.774 231.4C524.468 231.4 523.534 231.68 522.974 232.24C522.441 232.773 522.174 233.707 522.174 235.04ZM544.057 248.4C541.23 248.4 539.057 247.467 537.537 245.6C536.043 243.707 535.297 241.187 535.297 238.04C535.297 234.893 536.03 232.387 537.497 230.52C538.99 228.653 541.097 227.72 543.817 227.72C545.577 227.72 546.99 228.08 548.057 228.8C549.15 229.493 549.91 230.293 550.337 231.2H551.417L551.217 236.28H550.457C550.457 235.16 550.243 234.24 549.817 233.52C549.39 232.8 548.777 232.267 547.977 231.92C547.177 231.573 546.19 231.4 545.017 231.4C544.057 231.4 543.23 231.52 542.537 231.76C541.87 232 541.31 232.373 540.857 232.88C540.43 233.387 540.11 234.067 539.897 234.92C539.71 235.773 539.617 236.813 539.617 238.04C539.617 239.24 539.71 240.28 539.897 241.16C540.11 242.013 540.43 242.707 540.857 243.24C541.31 243.747 541.883 244.12 542.577 244.36C543.27 244.6 544.083 244.72 545.017 244.72C546.19 244.72 547.177 244.547 547.977 244.2C548.777 243.827 549.39 243.28 549.817 242.56C550.243 241.84 550.457 240.933 550.457 239.84H551.217L551.417 244.72H550.617C550.163 245.867 549.377 246.773 548.257 247.44C547.163 248.08 545.763 248.4 544.057 248.4ZM554.777 248H550.777V243.28L550.457 242.76V221.2H554.777V248ZM563.066 225.6H558.786L558.746 221.2H563.066V225.6ZM563.106 248H558.786V228H563.106V248ZM585.593 248H581.273V236.44C581.273 234.68 580.94 233.413 580.273 232.64C579.606 231.84 578.353 231.44 576.513 231.44C575.34 231.44 574.38 231.613 573.633 231.96C572.886 232.28 572.326 232.813 571.953 233.56C571.58 234.28 571.393 235.267 571.393 236.52H570.633L570.273 231.84H571.233C571.526 231.12 571.966 230.453 572.553 229.84C573.14 229.227 573.886 228.72 574.793 228.32C575.726 227.92 576.833 227.72 578.113 227.72C579.846 227.72 581.26 228.053 582.353 228.72C583.446 229.387 584.26 230.307 584.793 231.48C585.326 232.653 585.593 234 585.593 235.52V248ZM571.393 248H567.073V228.12H571.033V234.08L571.393 234.28V248ZM606.491 248H602.491V244.08L602.371 243V235.36C602.371 233.867 602.011 232.853 601.291 232.32C600.598 231.787 599.465 231.52 597.891 231.52C596.318 231.52 595.185 231.8 594.491 232.36C593.825 232.92 593.491 233.853 593.491 235.16V235.76H589.331V235.36C589.331 233.867 589.691 232.547 590.411 231.4C591.158 230.253 592.185 229.36 593.491 228.72C594.825 228.053 596.371 227.72 598.131 227.72C599.998 227.72 601.545 228.067 602.771 228.76C603.998 229.453 604.918 230.413 605.531 231.64C606.171 232.84 606.491 234.267 606.491 235.92V248ZM595.091 248.4C593.305 248.4 591.798 247.947 590.571 247.04C589.371 246.107 588.771 244.787 588.771 243.08C588.771 241.96 589.025 241.027 589.531 240.28C590.065 239.533 590.825 238.92 591.811 238.44C592.798 237.96 593.998 237.627 595.411 237.44L602.771 236.4V239.44L596.051 240.44C594.905 240.6 594.105 240.84 593.651 241.16C593.198 241.48 592.971 242.013 592.971 242.76C592.971 243.533 593.238 244.093 593.771 244.44C594.331 244.787 595.238 244.96 596.491 244.96C597.451 244.96 598.371 244.813 599.251 244.52C600.158 244.2 600.905 243.68 601.491 242.96C602.078 242.213 602.371 241.173 602.371 239.84L602.931 244.92L602.291 244.88C601.918 245.493 601.398 246.067 600.731 246.6C600.091 247.133 599.305 247.573 598.371 247.92C597.438 248.24 596.345 248.4 595.091 248.4ZM618.713 248C616.527 248 614.847 247.533 613.673 246.6C612.527 245.667 611.953 244.093 611.953 241.88V228.56L612.953 223.2H616.273V241.68C616.273 242.72 616.527 243.387 617.033 243.68C617.567 243.947 618.513 244.08 619.873 244.08H622.273V247.64C621.873 247.747 621.353 247.84 620.713 247.92C620.073 247.973 619.407 248 618.713 248ZM622.273 231.72H608.633V228.12H622.273V231.72ZM633.615 248.4C631.588 248.4 629.828 247.973 628.335 247.12C626.842 246.24 625.695 245.027 624.895 243.48C624.095 241.907 623.695 240.093 623.695 238.04C623.695 235.987 624.095 234.187 624.895 232.64C625.695 231.093 626.842 229.893 628.335 229.04C629.828 228.16 631.588 227.72 633.615 227.72C635.642 227.72 637.375 228.16 638.815 229.04C640.282 229.893 641.402 231.093 642.175 232.64C642.975 234.187 643.375 235.987 643.375 238.04C643.375 240.093 642.975 241.907 642.175 243.48C641.402 245.027 640.282 246.24 638.815 247.12C637.375 247.973 635.642 248.4 633.615 248.4ZM633.615 244.56C635.695 244.56 637.148 244.04 637.975 243C638.802 241.933 639.215 240.28 639.215 238.04C639.215 235.8 638.802 234.16 637.975 233.12C637.148 232.08 635.695 231.56 633.615 231.56C631.508 231.56 630.042 232.08 629.215 233.12C628.388 234.16 627.975 235.8 627.975 238.04C627.975 240.28 628.388 241.933 629.215 243C630.042 244.04 631.508 244.56 633.615 244.56ZM650.924 248H646.604V228H650.564V233.56L650.924 233.76V248ZM650.924 235.04H649.924V231.16H650.764C651.164 230.227 651.818 229.427 652.724 228.76C653.658 228.067 654.858 227.72 656.324 227.72C657.738 227.72 658.858 228.027 659.684 228.64C660.538 229.253 661.151 230.067 661.524 231.08C661.898 232.093 662.084 233.227 662.084 234.48V235.8H657.764V235C657.764 233.667 657.538 232.733 657.084 232.2C656.631 231.667 655.778 231.4 654.524 231.4C653.218 231.4 652.284 231.68 651.724 232.24C651.191 232.773 650.924 233.707 650.924 235.04Z" fill="black"/>
<rect x="178" y="392" width="371" height="489" rx="14" fill="#121D26"/>
<path d="M284.753 504.594C284.55 504.945 284.258 505.237 283.907 505.44C283.555 505.643 283.156 505.75 282.75 505.75H227.25C226.844 505.75 226.446 505.642 226.095 505.439C225.743 505.236 225.452 504.944 225.249 504.593C225.046 504.241 224.94 503.843 224.94 503.437C224.94 503.031 225.047 502.633 225.25 502.281C229.652 494.67 236.436 489.213 244.354 486.626C240.438 484.294 237.395 480.742 235.693 476.514C233.991 472.286 233.724 467.616 234.933 463.221C236.142 458.827 238.76 454.951 242.385 452.188C246.011 449.426 250.442 447.93 255 447.93C259.558 447.93 263.99 449.426 267.615 452.188C271.24 454.951 273.858 458.827 275.067 463.221C276.276 467.616 276.009 472.286 274.307 476.514C272.605 480.742 269.563 484.294 265.646 486.626C273.564 489.213 280.348 494.67 284.75 502.281C284.954 502.633 285.061 503.031 285.062 503.437C285.062 503.843 284.956 504.242 284.753 504.594Z" fill="#F2E635"/>
<path d="M240.356 547.56H236.676L225.956 530.2H230.876L235.956 538.48L238.436 542.68H238.756L241.156 538.48L246.196 530.2H251.076L240.356 547.56ZM240.676 557H236.356V544.48H240.676V557ZM259.068 557.4C257.041 557.4 255.281 556.973 253.788 556.12C252.295 555.24 251.148 554.027 250.348 552.48C249.548 550.907 249.148 549.093 249.148 547.04C249.148 544.987 249.548 543.187 250.348 541.64C251.148 540.093 252.295 538.893 253.788 538.04C255.281 537.16 257.041 536.72 259.068 536.72C261.095 536.72 262.828 537.16 264.268 538.04C265.735 538.893 266.855 540.093 267.628 541.64C268.428 543.187 268.828 544.987 268.828 547.04C268.828 549.093 268.428 550.907 267.628 552.48C266.855 554.027 265.735 555.24 264.268 556.12C262.828 556.973 261.095 557.4 259.068 557.4ZM259.068 553.56C261.148 553.56 262.601 553.04 263.428 552C264.255 550.933 264.668 549.28 264.668 547.04C264.668 544.8 264.255 543.16 263.428 542.12C262.601 541.08 261.148 540.56 259.068 540.56C256.961 540.56 255.495 541.08 254.668 542.12C253.841 543.16 253.428 544.8 253.428 547.04C253.428 549.28 253.841 550.933 254.668 552C255.495 553.04 256.961 553.56 259.068 553.56ZM279.458 557.4C277.751 557.4 276.338 557.053 275.217 556.36C274.098 555.64 273.271 554.68 272.738 553.48C272.204 552.253 271.938 550.893 271.938 549.4V537.12H276.258V548.6C276.258 550.387 276.631 551.68 277.378 552.48C278.124 553.28 279.351 553.68 281.058 553.68C282.178 553.68 283.124 553.507 283.898 553.16C284.671 552.787 285.258 552.213 285.658 551.44C286.058 550.64 286.258 549.6 286.258 548.32H287.378V553.04H286.418C286.124 553.787 285.671 554.493 285.058 555.16C284.471 555.827 283.711 556.373 282.778 556.8C281.871 557.2 280.764 557.4 279.458 557.4ZM290.578 557H286.578V551.04L286.258 550.84V537.12H290.578V557ZM299.151 557H294.831V537H298.791V542.56L299.151 542.76V557ZM299.151 544.04H298.151V540.16H298.991C299.391 539.227 300.044 538.427 300.951 537.76C301.884 537.067 303.084 536.72 304.551 536.72C305.964 536.72 307.084 537.027 307.911 537.64C308.764 538.253 309.378 539.067 309.751 540.08C310.124 541.093 310.311 542.227 310.311 543.48V544.8H305.991V544C305.991 542.667 305.764 541.733 305.311 541.2C304.858 540.667 304.004 540.4 302.751 540.4C301.444 540.4 300.511 540.68 299.951 541.24C299.418 541.773 299.151 542.707 299.151 544.04ZM325.326 557H321.006V530.2H325.646L335.806 545.56L338.646 549.84H338.966V545.56V530.2H343.286V557H338.646L328.526 541.88L325.606 537.52H325.326V541.88V557ZM364.444 557H360.444V553.08L360.324 552V544.36C360.324 542.867 359.964 541.853 359.244 541.32C358.551 540.787 357.418 540.52 355.844 540.52C354.271 540.52 353.138 540.8 352.444 541.36C351.778 541.92 351.444 542.853 351.444 544.16V544.76H347.284V544.36C347.284 542.867 347.644 541.547 348.364 540.4C349.111 539.253 350.138 538.36 351.444 537.72C352.778 537.053 354.324 536.72 356.084 536.72C357.951 536.72 359.498 537.067 360.724 537.76C361.951 538.453 362.871 539.413 363.484 540.64C364.124 541.84 364.444 543.267 364.444 544.92V557ZM353.044 557.4C351.258 557.4 349.751 556.947 348.524 556.04C347.324 555.107 346.724 553.787 346.724 552.08C346.724 550.96 346.978 550.027 347.484 549.28C348.018 548.533 348.778 547.92 349.764 547.44C350.751 546.96 351.951 546.627 353.364 546.44L360.724 545.4V548.44L354.004 549.44C352.858 549.6 352.058 549.84 351.604 550.16C351.151 550.48 350.924 551.013 350.924 551.76C350.924 552.533 351.191 553.093 351.724 553.44C352.284 553.787 353.191 553.96 354.444 553.96C355.404 553.96 356.324 553.813 357.204 553.52C358.111 553.2 358.858 552.68 359.444 551.96C360.031 551.213 360.324 550.173 360.324 548.84L360.884 553.92L360.244 553.88C359.871 554.493 359.351 555.067 358.684 555.6C358.044 556.133 357.258 556.573 356.324 556.92C355.391 557.24 354.298 557.4 353.044 557.4ZM400.501 557H396.181V545.44C396.181 543.68 395.848 542.413 395.181 541.64C394.541 540.84 393.314 540.44 391.501 540.44C389.874 540.44 388.661 540.827 387.861 541.6C387.088 542.347 386.701 543.627 386.701 545.44L385.941 545.52L385.581 540.84H386.221C386.541 540.147 386.981 539.493 387.541 538.88C388.128 538.24 388.874 537.72 389.781 537.32C390.688 536.92 391.794 536.72 393.101 536.72C394.834 536.72 396.234 537.053 397.301 537.72C398.394 538.387 399.194 539.307 399.701 540.48C400.234 541.653 400.501 543 400.501 544.52V557ZM372.901 557H368.581V537.12H372.541V543.08L372.901 543.28V557ZM386.701 557H382.381V545.44C382.381 543.68 382.048 542.413 381.381 541.64C380.741 540.84 379.514 540.44 377.701 540.44C376.074 540.44 374.861 540.813 374.061 541.56C373.288 542.307 372.901 543.587 372.901 545.4L372.141 545.52L371.781 540.84H372.741C373.034 540.12 373.461 539.453 374.021 538.84C374.608 538.227 375.354 537.72 376.261 537.32C377.168 536.92 378.248 536.72 379.501 536.72C381.181 536.72 382.541 537.053 383.581 537.72C384.648 538.387 385.434 539.307 385.941 540.48C386.448 541.653 386.701 543 386.701 544.52V557ZM413.398 557.4C411.238 557.4 409.438 556.973 407.998 556.12C406.558 555.24 405.491 554.027 404.798 552.48C404.104 550.907 403.757 549.093 403.757 547.04C403.757 544.987 404.144 543.187 404.918 541.64C405.718 540.093 406.838 538.893 408.278 538.04C409.718 537.16 411.424 536.72 413.398 536.72C415.184 536.72 416.758 537.067 418.118 537.76C419.504 538.427 420.571 539.4 421.318 540.68C422.091 541.96 422.478 543.507 422.478 545.32C422.478 545.853 422.451 546.373 422.398 546.88C422.371 547.36 422.331 547.76 422.278 548.08H405.798V545.2H418.758L418.318 545.6C418.424 544.373 418.291 543.373 417.918 542.6C417.571 541.827 416.998 541.253 416.198 540.88C415.424 540.507 414.451 540.32 413.278 540.32C411.171 540.32 409.731 540.853 408.958 541.92C408.184 542.96 407.798 544.4 407.798 546.24V547.44C407.798 548.773 407.958 549.907 408.278 550.84C408.624 551.747 409.211 552.427 410.038 552.88C410.864 553.333 411.998 553.56 413.438 553.56C415.118 553.56 416.304 553.293 416.998 552.76C417.691 552.227 418.038 551.52 418.038 550.64V550.32H422.318V550.68C422.318 552.04 421.944 553.227 421.198 554.24C420.451 555.227 419.411 556 418.078 556.56C416.771 557.12 415.211 557.4 413.398 557.4Z" fill="white"/>
<path d="M313 580L313 592" stroke="white" stroke-opacity="0.5" stroke-linecap="round"/>
<path d="M233.485 592.24C231.981 592.24 230.701 591.904 229.645 591.232C228.589 590.56 227.773 589.6 227.197 588.352C226.621 587.104 226.333 585.64 226.333 583.96C226.333 582.28 226.637 580.824 227.245 579.592C227.853 578.344 228.709 577.384 229.813 576.712C230.933 576.024 232.277 575.68 233.845 575.68C235.141 575.68 236.277 575.92 237.253 576.4C238.229 576.864 238.997 577.536 239.557 578.416C240.117 579.28 240.397 580.312 240.397 581.512V581.728H238.573V581.512C238.573 580.136 238.181 579.096 237.397 578.392C236.613 577.688 235.373 577.336 233.677 577.336C232.413 577.336 231.365 577.584 230.533 578.08C229.717 578.56 229.117 579.288 228.733 580.264C228.349 581.24 228.157 582.472 228.157 583.96C228.157 585.432 228.349 586.656 228.733 587.632C229.133 588.608 229.749 589.344 230.581 589.84C231.429 590.32 232.501 590.56 233.797 590.56C234.917 590.56 235.837 590.416 236.557 590.128C237.293 589.824 237.845 589.36 238.213 588.736C238.581 588.096 238.765 587.296 238.765 586.336V585.856H240.421V586.24L239.077 589.336H238.789C238.533 589.944 238.149 590.464 237.637 590.896C237.125 591.328 236.517 591.664 235.813 591.904C235.109 592.128 234.333 592.24 233.485 592.24ZM240.421 592H238.885V588.136L238.765 587.92V584.44H240.421V592ZM240.421 585.544H233.197V584.032H240.421V585.544ZM248.166 592.24C246.95 592.24 245.926 591.976 245.094 591.448C244.278 590.904 243.654 590.168 243.222 589.24C242.806 588.312 242.598 587.256 242.598 586.072C242.598 584.872 242.822 583.808 243.27 582.88C243.734 581.952 244.374 581.224 245.19 580.696C246.022 580.168 246.998 579.904 248.118 579.904C249.078 579.904 249.95 580.096 250.734 580.48C251.534 580.864 252.166 581.44 252.63 582.208C253.094 582.976 253.326 583.944 253.326 585.112C253.326 585.4 253.31 585.672 253.278 585.928C253.262 586.184 253.238 586.392 253.206 586.552H243.51V585.28H251.958L251.67 585.592C251.75 584.568 251.654 583.752 251.382 583.144C251.11 582.536 250.694 582.088 250.134 581.8C249.574 581.512 248.894 581.368 248.094 581.368C246.686 581.368 245.686 581.768 245.094 582.568C244.518 583.352 244.23 584.416 244.23 585.76V586.216C244.23 587.16 244.35 587.968 244.59 588.64C244.846 589.296 245.262 589.808 245.838 590.176C246.414 590.528 247.198 590.704 248.19 590.704C249.374 590.704 250.222 590.464 250.734 589.984C251.262 589.488 251.526 588.888 251.526 588.184V588.04H253.23V588.208C253.23 588.976 253.014 589.664 252.582 590.272C252.166 590.88 251.574 591.36 250.806 591.712C250.054 592.064 249.174 592.24 248.166 592.24ZM265.891 592H264.163V585.088C264.163 583.824 263.923 582.896 263.443 582.304C262.963 581.712 262.115 581.416 260.899 581.416C260.131 581.416 259.475 581.544 258.931 581.8C258.387 582.056 257.971 582.456 257.683 583C257.411 583.544 257.275 584.264 257.275 585.16L256.819 585.184L256.771 582.592H257.203C257.347 582.176 257.595 581.768 257.947 581.368C258.299 580.952 258.763 580.608 259.339 580.336C259.915 580.048 260.611 579.904 261.427 579.904C262.451 579.904 263.283 580.104 263.923 580.504C264.579 580.904 265.067 581.472 265.387 582.208C265.723 582.928 265.891 583.768 265.891 584.728V592ZM257.275 592H255.547V580.144H257.107V583.912L257.275 584.032V592ZM273.166 592.24C271.502 592.24 270.214 591.68 269.302 590.56C268.406 589.44 267.958 587.936 267.958 586.048C267.958 584.192 268.39 582.704 269.254 581.584C270.118 580.464 271.358 579.904 272.974 579.904C274.11 579.904 275.038 580.16 275.758 580.672C276.478 581.168 276.966 581.744 277.222 582.4H277.774L277.678 585.064H277.222C277.222 584.232 277.07 583.552 276.766 583.024C276.478 582.48 276.046 582.072 275.47 581.8C274.91 581.528 274.246 581.392 273.478 581.392C272.886 581.392 272.358 581.472 271.894 581.632C271.43 581.776 271.03 582.024 270.694 582.376C270.358 582.728 270.102 583.208 269.926 583.816C269.766 584.408 269.686 585.152 269.686 586.048C269.686 586.96 269.766 587.72 269.926 588.328C270.102 588.936 270.358 589.416 270.694 589.768C271.03 590.12 271.43 590.368 271.894 590.512C272.358 590.656 272.878 590.728 273.454 590.728C274.238 590.728 274.91 590.6 275.47 590.344C276.046 590.072 276.478 589.664 276.766 589.12C277.07 588.576 277.222 587.896 277.222 587.08H277.678L277.774 589.696H277.318C277.062 590.448 276.582 591.064 275.878 591.544C275.19 592.008 274.286 592.24 273.166 592.24ZM278.95 592H277.414V588.928L277.222 588.616V575.92H278.95V592ZM286.651 592.24C285.435 592.24 284.411 591.976 283.579 591.448C282.763 590.904 282.139 590.168 281.707 589.24C281.291 588.312 281.083 587.256 281.083 586.072C281.083 584.872 281.307 583.808 281.755 582.88C282.219 581.952 282.859 581.224 283.675 580.696C284.507 580.168 285.483 579.904 286.603 579.904C287.563 579.904 288.435 580.096 289.219 580.48C290.019 580.864 290.651 581.44 291.115 582.208C291.579 582.976 291.811 583.944 291.811 585.112C291.811 585.4 291.795 585.672 291.763 585.928C291.747 586.184 291.723 586.392 291.691 586.552H281.995V585.28H290.443L290.155 585.592C290.235 584.568 290.139 583.752 289.867 583.144C289.595 582.536 289.179 582.088 288.619 581.8C288.059 581.512 287.379 581.368 286.579 581.368C285.171 581.368 284.171 581.768 283.579 582.568C283.003 583.352 282.715 584.416 282.715 585.76V586.216C282.715 587.16 282.835 587.968 283.075 588.64C283.331 589.296 283.747 589.808 284.323 590.176C284.899 590.528 285.683 590.704 286.675 590.704C287.859 590.704 288.707 590.464 289.219 589.984C289.747 589.488 290.011 588.888 290.011 588.184V588.04H291.715V588.208C291.715 588.976 291.499 589.664 291.067 590.272C290.651 590.88 290.059 591.36 289.291 591.712C288.539 592.064 287.659 592.24 286.651 592.24ZM295.76 592H294.032V580H295.592V583.264L295.76 583.384V592ZM295.76 584.152H295.184V581.968H295.712C295.92 581.424 296.296 580.944 296.84 580.528C297.4 580.112 298.12 579.904 299 579.904C299.816 579.904 300.472 580.08 300.968 580.432C301.464 580.768 301.824 581.224 302.048 581.8C302.272 582.376 302.384 583.008 302.384 583.696V584.344H300.656V583.96C300.656 583.032 300.488 582.376 300.152 581.992C299.816 581.592 299.224 581.392 298.376 581.392C297.464 581.392 296.8 581.608 296.384 582.04C295.968 582.472 295.76 583.176 295.76 584.152Z" fill="white"/>
<path d="M330.894 586.48H325.35V584.944H331.158C332.47 584.944 333.438 584.656 334.062 584.08C334.686 583.488 334.998 582.528 334.998 581.2C334.998 579.888 334.686 578.944 334.062 578.368C333.438 577.776 332.47 577.48 331.158 577.48H325.35V575.92H330.894C332.014 575.92 333.014 576.128 333.894 576.544C334.774 576.96 335.462 577.56 335.958 578.344C336.47 579.128 336.726 580.08 336.726 581.2C336.726 582.32 336.47 583.28 335.958 584.08C335.462 584.864 334.774 585.464 333.894 585.88C333.014 586.28 332.014 586.48 330.894 586.48ZM326.334 592H324.606V575.92H326.334V592ZM348.915 592H347.187V585.088C347.187 583.824 346.939 582.896 346.443 582.304C345.963 581.712 345.123 581.416 343.923 581.416C342.739 581.416 341.835 581.712 341.211 582.304C340.603 582.88 340.299 583.84 340.299 585.184L339.843 585.208L339.939 582.352H340.395C340.555 581.968 340.795 581.592 341.115 581.224C341.451 580.856 341.891 580.544 342.435 580.288C342.995 580.032 343.675 579.904 344.475 579.904C345.515 579.904 346.355 580.112 346.995 580.528C347.651 580.944 348.131 581.52 348.435 582.256C348.755 582.976 348.915 583.784 348.915 584.68V592ZM340.299 592H338.571V575.92H340.299V592ZM353.184 592H351.072V588.664H353.184V592ZM365.626 592H363.898V585.088C363.898 583.824 363.658 582.896 363.178 582.304C362.698 581.712 361.85 581.416 360.634 581.416C359.866 581.416 359.21 581.544 358.666 581.8C358.122 582.056 357.706 582.456 357.418 583C357.146 583.544 357.01 584.264 357.01 585.16L356.554 585.184L356.506 582.592H356.938C357.082 582.176 357.33 581.768 357.682 581.368C358.034 580.952 358.498 580.608 359.074 580.336C359.65 580.048 360.346 579.904 361.162 579.904C362.186 579.904 363.018 580.104 363.658 580.504C364.314 580.904 364.802 581.472 365.122 582.208C365.458 582.928 365.626 583.768 365.626 584.728V592ZM357.01 592H355.282V580.144H356.842V583.912L357.01 584.032V592ZM373.452 592.24C372.3 592.24 371.292 591.976 370.428 591.448C369.564 590.92 368.892 590.192 368.412 589.264C367.932 588.32 367.692 587.248 367.692 586.048C367.692 584.864 367.932 583.816 368.412 582.904C368.892 581.976 369.564 581.248 370.428 580.72C371.292 580.176 372.3 579.904 373.452 579.904C374.604 579.904 375.604 580.176 376.452 580.72C377.3 581.248 377.956 581.976 378.42 582.904C378.884 583.816 379.116 584.864 379.116 586.048C379.116 587.248 378.884 588.32 378.42 589.264C377.956 590.192 377.3 590.92 376.452 591.448C375.604 591.976 374.604 592.24 373.452 592.24ZM373.452 590.68C374.892 590.68 375.916 590.28 376.524 589.48C377.148 588.68 377.46 587.536 377.46 586.048C377.46 584.576 377.148 583.44 376.524 582.64C375.916 581.84 374.892 581.44 373.452 581.44C372.012 581.44 370.98 581.84 370.356 582.64C369.732 583.44 369.42 584.576 369.42 586.048C369.42 587.536 369.732 588.68 370.356 589.48C370.98 590.28 372.012 590.68 373.452 590.68Z" fill="white"/>
<path d="M380 771C380 738.415 406.415 712 439 712C471.585 712 498 738.415 498 771V780H380V771Z" fill="#F2E635"/>
<path d="M321 780H323C354.48 780 380 805.52 380 837H321V780Z" fill="white"/>
<path d="M380 837H382C413.48 837 439 811.48 439 780H380V837Z" fill="white"/>
<circle cx="466.5" cy="811.5" r="31.5" fill="#F2E635"/>
</g>
<path d="M680.088 1187.46C678.824 1186.75 677.242 1187.63 677.242 1189.04V1201.24C677.242 1201.89 677.603 1202.49 678.189 1202.82L689.151 1208.92C690.415 1209.62 691.997 1208.74 691.997 1207.34V1195.14C691.997 1194.48 691.636 1193.88 691.05 1193.56L680.088 1187.46Z" fill="black"/>
<path d="M678.194 1218.18C677.607 1218.51 676.884 1218.51 676.297 1218.18L665.298 1212.08C664.033 1211.38 662.454 1212.25 662.454 1213.66V1240.17C662.454 1241.58 664.034 1242.46 665.299 1241.75L691.052 1227.44C691.639 1227.12 692 1226.52 692 1225.86V1213.66C692 1212.26 690.418 1211.38 689.154 1212.08L678.194 1218.18Z" fill="black"/>
<path d="M644.912 1233.54C646.176 1234.25 647.758 1233.37 647.758 1231.96V1219.76C647.758 1219.11 647.397 1218.51 646.811 1218.18L635.849 1212.08C634.585 1211.38 633.003 1212.26 633.003 1213.66V1225.86C633.003 1226.52 633.364 1227.12 633.95 1227.44L644.912 1233.54Z" fill="black"/>
<path d="M646.806 1202.82C647.393 1202.49 648.116 1202.49 648.703 1202.82L659.702 1208.92C660.967 1209.62 662.546 1208.75 662.546 1207.34V1180.83C662.546 1179.42 660.966 1178.54 659.701 1179.25L633.948 1193.56C633.361 1193.88 633 1194.48 633 1195.14V1207.34C633 1208.74 634.582 1209.62 635.846 1208.92L646.806 1202.82Z" fill="black"/>
<defs>
<clipPath id="clip0_18934_19760">
<rect width="727" height="1272" rx="20.1569" fill="white"/>
</clipPath>
</defs>
</svg>
