<svg width="727" height="1272" viewBox="0 0 727 1272" fill="none" xmlns="http://www.w3.org/2000/svg">
<g clip-path="url(#clip0_18934_19714)">
<rect width="728" height="1273" rx="20.1569" fill="#F2E635"/>
<rect x="-122" y="743" width="632" height="632" rx="316" fill="#121D26"/>
<path d="M199.89 101.4C197.303 101.4 195.063 100.84 193.17 99.72C191.303 98.5733 189.863 96.9733 188.85 94.92C187.863 92.84 187.37 90.4 187.37 87.6C187.37 84.8 187.863 82.3733 188.85 80.32C189.863 78.24 191.303 76.64 193.17 75.52C195.063 74.3733 197.303 73.8 199.89 73.8C202.316 73.8 204.383 74.2267 206.09 75.08C207.796 75.9333 209.116 77.1333 210.05 78.68C210.983 80.2267 211.45 82.08 211.45 84.24V84.48H206.89V84.24C206.89 82.0533 206.33 80.4667 205.21 79.48C204.116 78.4667 202.303 77.96 199.77 77.96C197.93 77.96 196.436 78.28 195.29 78.92C194.143 79.56 193.303 80.5867 192.77 82C192.236 83.4133 191.97 85.28 191.97 87.6C191.97 89.8933 192.236 91.76 192.77 93.2C193.303 94.6133 194.143 95.64 195.29 96.28C196.436 96.8933 197.93 97.2 199.77 97.2C202.303 97.2 204.116 96.7067 205.21 95.72C206.33 94.7333 206.89 93.1467 206.89 90.96V90.72H211.45V90.96C211.45 93.0933 210.983 94.9467 210.05 96.52C209.116 98.0667 207.796 99.2667 206.09 100.12C204.383 100.973 202.316 101.4 199.89 101.4ZM219.323 101H215.003V81H218.963V86.56L219.323 86.76V101ZM219.323 88.04H218.323V84.16H219.163C219.563 83.2267 220.216 82.4267 221.123 81.76C222.056 81.0667 223.256 80.72 224.723 80.72C226.136 80.72 227.256 81.0267 228.083 81.64C228.936 82.2533 229.549 83.0667 229.923 84.08C230.296 85.0933 230.483 86.2267 230.483 87.48V88.8H226.163V88C226.163 86.6667 225.936 85.7333 225.483 85.2C225.029 84.6667 224.176 84.4 222.923 84.4C221.616 84.4 220.683 84.68 220.123 85.24C219.589 85.7733 219.323 86.7067 219.323 88.04ZM242.085 101.4C239.925 101.4 238.125 100.973 236.685 100.12C235.245 99.24 234.178 98.0267 233.485 96.48C232.792 94.9067 232.445 93.0933 232.445 91.04C232.445 88.9867 232.832 87.1867 233.605 85.64C234.405 84.0933 235.525 82.8933 236.965 82.04C238.405 81.16 240.112 80.72 242.085 80.72C243.872 80.72 245.445 81.0667 246.805 81.76C248.192 82.4267 249.258 83.4 250.005 84.68C250.778 85.96 251.165 87.5067 251.165 89.32C251.165 89.8533 251.138 90.3733 251.085 90.88C251.058 91.36 251.018 91.76 250.965 92.08H234.485V89.2H247.445L247.005 89.6C247.112 88.3733 246.978 87.3733 246.605 86.6C246.258 85.8267 245.685 85.2533 244.885 84.88C244.112 84.5067 243.138 84.32 241.965 84.32C239.858 84.32 238.418 84.8533 237.645 85.92C236.872 86.96 236.485 88.4 236.485 90.24V91.44C236.485 92.7733 236.645 93.9067 236.965 94.84C237.312 95.7467 237.898 96.4267 238.725 96.88C239.552 97.3333 240.685 97.56 242.125 97.56C243.805 97.56 244.992 97.2933 245.685 96.76C246.378 96.2267 246.725 95.52 246.725 94.64V94.32H251.005V94.68C251.005 96.04 250.632 97.2267 249.885 98.24C249.138 99.2267 248.098 100 246.765 100.56C245.458 101.12 243.898 101.4 242.085 101.4ZM271.608 101H267.608V97.08L267.488 96V88.36C267.488 86.8667 267.128 85.8533 266.408 85.32C265.715 84.7867 264.582 84.52 263.008 84.52C261.435 84.52 260.302 84.8 259.608 85.36C258.942 85.92 258.608 86.8533 258.608 88.16V88.76H254.448V88.36C254.448 86.8667 254.808 85.5467 255.528 84.4C256.275 83.2533 257.302 82.36 258.608 81.72C259.942 81.0533 261.488 80.72 263.248 80.72C265.115 80.72 266.662 81.0667 267.888 81.76C269.115 82.4533 270.035 83.4133 270.648 84.64C271.288 85.84 271.608 87.2667 271.608 88.92V101ZM260.208 101.4C258.422 101.4 256.915 100.947 255.688 100.04C254.488 99.1067 253.888 97.7867 253.888 96.08C253.888 94.96 254.142 94.0267 254.648 93.28C255.182 92.5333 255.942 91.92 256.928 91.44C257.915 90.96 259.115 90.6267 260.528 90.44L267.888 89.4V92.44L261.168 93.44C260.022 93.6 259.222 93.84 258.768 94.16C258.315 94.48 258.088 95.0133 258.088 95.76C258.088 96.5333 258.355 97.0933 258.888 97.44C259.448 97.7867 260.355 97.96 261.608 97.96C262.568 97.96 263.488 97.8133 264.368 97.52C265.275 97.2 266.022 96.68 266.608 95.96C267.195 95.2133 267.488 94.1733 267.488 92.84L268.048 97.92L267.408 97.88C267.035 98.4933 266.515 99.0667 265.848 99.6C265.208 100.133 264.422 100.573 263.488 100.92C262.555 101.24 261.462 101.4 260.208 101.4ZM283.831 101C281.644 101 279.964 100.533 278.791 99.6C277.644 98.6667 277.071 97.0933 277.071 94.88V81.56L278.071 76.2H281.391V94.68C281.391 95.72 281.644 96.3867 282.151 96.68C282.684 96.9467 283.631 97.08 284.991 97.08H287.391V100.64C286.991 100.747 286.471 100.84 285.831 100.92C285.191 100.973 284.524 101 283.831 101ZM287.391 84.72H273.751V81.12H287.391V84.72ZM298.452 101.4C296.292 101.4 294.492 100.973 293.052 100.12C291.612 99.24 290.546 98.0267 289.852 96.48C289.159 94.9067 288.812 93.0933 288.812 91.04C288.812 88.9867 289.199 87.1867 289.972 85.64C290.772 84.0933 291.892 82.8933 293.332 82.04C294.772 81.16 296.479 80.72 298.452 80.72C300.239 80.72 301.812 81.0667 303.172 81.76C304.559 82.4267 305.626 83.4 306.372 84.68C307.146 85.96 307.532 87.5067 307.532 89.32C307.532 89.8533 307.506 90.3733 307.452 90.88C307.426 91.36 307.386 91.76 307.332 92.08H290.852V89.2H303.812L303.372 89.6C303.479 88.3733 303.346 87.3733 302.972 86.6C302.626 85.8267 302.052 85.2533 301.252 84.88C300.479 84.5067 299.506 84.32 298.332 84.32C296.226 84.32 294.786 84.8533 294.012 85.92C293.239 86.96 292.852 88.4 292.852 90.24V91.44C292.852 92.7733 293.012 93.9067 293.332 94.84C293.679 95.7467 294.266 96.4267 295.092 96.88C295.919 97.3333 297.052 97.56 298.492 97.56C300.172 97.56 301.359 97.2933 302.052 96.76C302.746 96.2267 303.092 95.52 303.092 94.64V94.32H307.372V94.68C307.372 96.04 306.999 97.2267 306.252 98.24C305.506 99.2267 304.466 100 303.132 100.56C301.826 101.12 300.266 101.4 298.452 101.4ZM335.554 101H331.554V97.08L331.434 96V88.36C331.434 86.8667 331.074 85.8533 330.354 85.32C329.66 84.7867 328.527 84.52 326.954 84.52C325.38 84.52 324.247 84.8 323.554 85.36C322.887 85.92 322.554 86.8533 322.554 88.16V88.76H318.394V88.36C318.394 86.8667 318.754 85.5467 319.474 84.4C320.22 83.2533 321.247 82.36 322.554 81.72C323.887 81.0533 325.434 80.72 327.194 80.72C329.06 80.72 330.607 81.0667 331.834 81.76C333.06 82.4533 333.98 83.4133 334.594 84.64C335.234 85.84 335.554 87.2667 335.554 88.92V101ZM324.154 101.4C322.367 101.4 320.86 100.947 319.634 100.04C318.434 99.1067 317.834 97.7867 317.834 96.08C317.834 94.96 318.087 94.0267 318.594 93.28C319.127 92.5333 319.887 91.92 320.874 91.44C321.86 90.96 323.06 90.6267 324.474 90.44L331.834 89.4V92.44L325.114 93.44C323.967 93.6 323.167 93.84 322.714 94.16C322.26 94.48 322.034 95.0133 322.034 95.76C322.034 96.5333 322.3 97.0933 322.834 97.44C323.394 97.7867 324.3 97.96 325.554 97.96C326.514 97.96 327.434 97.8133 328.314 97.52C329.22 97.2 329.967 96.68 330.554 95.96C331.14 95.2133 331.434 94.1733 331.434 92.84L331.994 97.92L331.354 97.88C330.98 98.4933 330.46 99.0667 329.794 99.6C329.154 100.133 328.367 100.573 327.434 100.92C326.5 101.24 325.407 101.4 324.154 101.4ZM355.589 101.4C352.683 101.4 350.483 100.827 348.989 99.68C347.496 98.5067 346.749 96.7067 346.749 94.28V94.2H350.909V94.92C350.909 95.6133 351.043 96.1867 351.309 96.64C351.603 97.0667 352.083 97.3867 352.749 97.6C353.443 97.7867 354.416 97.88 355.669 97.88C356.736 97.88 357.536 97.8 358.069 97.64C358.629 97.4533 359.003 97.2 359.189 96.88C359.376 96.56 359.469 96.16 359.469 95.68C359.469 94.88 359.189 94.32 358.629 94C358.069 93.6533 357.069 93.3467 355.629 93.08L352.509 92.56C351.336 92.32 350.309 91.9867 349.429 91.56C348.576 91.1067 347.909 90.4933 347.429 89.72C346.976 88.92 346.749 87.92 346.749 86.72C346.749 84.9333 347.456 83.4933 348.869 82.4C350.283 81.28 352.283 80.72 354.869 80.72C356.443 80.72 357.843 80.9733 359.069 81.48C360.296 81.9867 361.269 82.7467 361.989 83.76C362.709 84.7733 363.069 86.04 363.069 87.56V87.92H358.949V87.44C358.949 86.8 358.843 86.2533 358.629 85.8C358.416 85.32 358.016 84.9467 357.429 84.68C356.843 84.4133 355.949 84.28 354.749 84.28C353.176 84.28 352.136 84.48 351.629 84.88C351.123 85.28 350.869 85.8667 350.869 86.64C350.869 87.4133 351.096 87.96 351.549 88.28C352.029 88.5733 352.963 88.8667 354.349 89.16L357.749 89.8C359.029 90.04 360.096 90.4 360.949 90.88C361.803 91.36 362.443 91.9867 362.869 92.76C363.323 93.5333 363.549 94.4533 363.549 95.52C363.549 97.3867 362.843 98.84 361.429 99.88C360.043 100.893 358.096 101.4 355.589 101.4ZM375.12 101C372.933 101 371.253 100.533 370.08 99.6C368.933 98.6667 368.36 97.0933 368.36 94.88V81.56L369.36 76.2H372.68V94.68C372.68 95.72 372.933 96.3867 373.44 96.68C373.973 96.9467 374.92 97.08 376.28 97.08H378.68V100.64C378.28 100.747 377.76 100.84 377.12 100.92C376.48 100.973 375.813 101 375.12 101ZM378.68 84.72H365.04V81.12H378.68V84.72ZM398.366 101H394.366V97.08L394.246 96V88.36C394.246 86.8667 393.886 85.8533 393.166 85.32C392.473 84.7867 391.34 84.52 389.766 84.52C388.193 84.52 387.06 84.8 386.366 85.36C385.7 85.92 385.366 86.8533 385.366 88.16V88.76H381.206V88.36C381.206 86.8667 381.566 85.5467 382.286 84.4C383.033 83.2533 384.06 82.36 385.366 81.72C386.7 81.0533 388.246 80.72 390.006 80.72C391.873 80.72 393.42 81.0667 394.646 81.76C395.873 82.4533 396.793 83.4133 397.406 84.64C398.046 85.84 398.366 87.2667 398.366 88.92V101ZM386.966 101.4C385.18 101.4 383.673 100.947 382.446 100.04C381.246 99.1067 380.646 97.7867 380.646 96.08C380.646 94.96 380.9 94.0267 381.406 93.28C381.94 92.5333 382.7 91.92 383.686 91.44C384.673 90.96 385.873 90.6267 387.286 90.44L394.646 89.4V92.44L387.926 93.44C386.78 93.6 385.98 93.84 385.526 94.16C385.073 94.48 384.846 95.0133 384.846 95.76C384.846 96.5333 385.113 97.0933 385.646 97.44C386.206 97.7867 387.113 97.96 388.366 97.96C389.326 97.96 390.246 97.8133 391.126 97.52C392.033 97.2 392.78 96.68 393.366 95.96C393.953 95.2133 394.246 94.1733 394.246 92.84L394.806 97.92L394.166 97.88C393.793 98.4933 393.273 99.0667 392.606 99.6C391.966 100.133 391.18 100.573 390.246 100.92C389.313 101.24 388.22 101.4 386.966 101.4ZM421.023 101H416.703V89.44C416.703 87.68 416.369 86.4133 415.703 85.64C415.036 84.84 413.783 84.44 411.943 84.44C410.769 84.44 409.809 84.6133 409.063 84.96C408.316 85.28 407.756 85.8133 407.383 86.56C407.009 87.28 406.823 88.2667 406.823 89.52H406.063L405.703 84.84H406.663C406.956 84.12 407.396 83.4533 407.983 82.84C408.569 82.2267 409.316 81.72 410.223 81.32C411.156 80.92 412.263 80.72 413.543 80.72C415.276 80.72 416.689 81.0533 417.783 81.72C418.876 82.3867 419.689 83.3067 420.223 84.48C420.756 85.6533 421.023 87 421.023 88.52V101ZM406.823 101H402.503V81.12H406.463V87.08L406.823 87.28V101ZM433.041 101.4C430.214 101.4 428.041 100.467 426.521 98.6C425.028 96.7067 424.281 94.1867 424.281 91.04C424.281 87.8933 425.014 85.3867 426.481 83.52C427.974 81.6533 430.081 80.72 432.801 80.72C434.561 80.72 435.974 81.08 437.041 81.8C438.134 82.4933 438.894 83.2933 439.321 84.2H440.401L440.201 89.28H439.441C439.441 88.16 439.228 87.24 438.801 86.52C438.374 85.8 437.761 85.2667 436.961 84.92C436.161 84.5733 435.174 84.4 434.001 84.4C433.041 84.4 432.214 84.52 431.521 84.76C430.854 85 430.294 85.3733 429.841 85.88C429.414 86.3867 429.094 87.0667 428.881 87.92C428.694 88.7733 428.601 89.8133 428.601 91.04C428.601 92.24 428.694 93.28 428.881 94.16C429.094 95.0133 429.414 95.7067 429.841 96.24C430.294 96.7467 430.868 97.12 431.561 97.36C432.254 97.6 433.068 97.72 434.001 97.72C435.174 97.72 436.161 97.5467 436.961 97.2C437.761 96.8267 438.374 96.28 438.801 95.56C439.228 94.84 439.441 93.9333 439.441 92.84H440.201L440.401 97.72H439.601C439.148 98.8667 438.361 99.7733 437.241 100.44C436.148 101.08 434.748 101.4 433.041 101.4ZM443.761 101H439.761V96.28L439.441 95.76V74.2H443.761V101ZM456.974 101.4C454.948 101.4 453.188 100.973 451.694 100.12C450.201 99.24 449.054 98.0267 448.254 96.48C447.454 94.9067 447.054 93.0933 447.054 91.04C447.054 88.9867 447.454 87.1867 448.254 85.64C449.054 84.0933 450.201 82.8933 451.694 82.04C453.188 81.16 454.948 80.72 456.974 80.72C459.001 80.72 460.734 81.16 462.174 82.04C463.641 82.8933 464.761 84.0933 465.534 85.64C466.334 87.1867 466.734 88.9867 466.734 91.04C466.734 93.0933 466.334 94.9067 465.534 96.48C464.761 98.0267 463.641 99.24 462.174 100.12C460.734 100.973 459.001 101.4 456.974 101.4ZM456.974 97.56C459.054 97.56 460.508 97.04 461.334 96C462.161 94.9333 462.574 93.28 462.574 91.04C462.574 88.8 462.161 87.16 461.334 86.12C460.508 85.08 459.054 84.56 456.974 84.56C454.868 84.56 453.401 85.08 452.574 86.12C451.748 87.16 451.334 88.8 451.334 91.04C451.334 93.28 451.748 94.9333 452.574 96C453.401 97.04 454.868 97.56 456.974 97.56ZM477.364 101.4C475.657 101.4 474.244 101.053 473.124 100.36C472.004 99.64 471.177 98.68 470.644 97.48C470.11 96.2533 469.844 94.8933 469.844 93.4V81.12H474.164V92.6C474.164 94.3867 474.537 95.68 475.284 96.48C476.03 97.28 477.257 97.68 478.964 97.68C480.084 97.68 481.03 97.5067 481.804 97.16C482.577 96.7867 483.164 96.2133 483.564 95.44C483.964 94.64 484.164 93.6 484.164 92.32H485.284V97.04H484.324C484.03 97.7867 483.577 98.4933 482.964 99.16C482.377 99.8267 481.617 100.373 480.684 100.8C479.777 101.2 478.67 101.4 477.364 101.4ZM488.484 101H484.484V95.04L484.164 94.84V81.12H488.484V101ZM500.823 101C498.636 101 496.956 100.533 495.783 99.6C494.636 98.6667 494.063 97.0933 494.063 94.88V81.56L495.063 76.2H498.383V94.68C498.383 95.72 498.636 96.3867 499.143 96.68C499.676 96.9467 500.623 97.08 501.983 97.08H504.383V100.64C503.983 100.747 503.463 100.84 502.823 100.92C502.183 100.973 501.516 101 500.823 101ZM504.383 84.72H490.743V81.12H504.383V84.72ZM525.766 101.4C523.979 101.4 522.526 101.053 521.406 100.36C520.312 99.64 519.552 98.8267 519.126 97.92H518.046L518.246 92.84H519.006C519.006 93.9333 519.206 94.84 519.606 95.56C520.032 96.28 520.659 96.8267 521.486 97.2C522.312 97.5467 523.299 97.72 524.446 97.72C525.379 97.72 526.192 97.6 526.886 97.36C527.579 97.12 528.139 96.7467 528.566 96.24C529.019 95.7333 529.339 95.0533 529.526 94.2C529.739 93.32 529.846 92.2667 529.846 91.04C529.846 89.8133 529.739 88.7867 529.526 87.96C529.339 87.1067 529.019 86.4133 528.566 85.88C528.139 85.3467 527.579 84.9733 526.886 84.76C526.219 84.52 525.406 84.4 524.446 84.4C523.299 84.4 522.312 84.5867 521.486 84.96C520.659 85.3067 520.032 85.84 519.606 86.56C519.206 87.2533 519.006 88.16 519.006 89.28H518.246L518.046 84.4H518.846C519.326 83.2533 520.112 82.36 521.206 81.72C522.326 81.0533 523.752 80.72 525.486 80.72C528.286 80.72 530.432 81.6533 531.926 83.52C533.419 85.3867 534.166 87.8933 534.166 91.04C534.166 94.1867 533.446 96.7067 532.006 98.6C530.566 100.467 528.486 101.4 525.766 101.4ZM519.006 107.92H514.726V81.12H518.646V85.84L519.006 86.36V107.92ZM546.935 101.4C544.909 101.4 543.149 100.973 541.655 100.12C540.162 99.24 539.015 98.0267 538.215 96.48C537.415 94.9067 537.015 93.0933 537.015 91.04C537.015 88.9867 537.415 87.1867 538.215 85.64C539.015 84.0933 540.162 82.8933 541.655 82.04C543.149 81.16 544.909 80.72 546.935 80.72C548.962 80.72 550.695 81.16 552.135 82.04C553.602 82.8933 554.722 84.0933 555.495 85.64C556.295 87.1867 556.695 88.9867 556.695 91.04C556.695 93.0933 556.295 94.9067 555.495 96.48C554.722 98.0267 553.602 99.24 552.135 100.12C550.695 100.973 548.962 101.4 546.935 101.4ZM546.935 97.56C549.015 97.56 550.469 97.04 551.295 96C552.122 94.9333 552.535 93.28 552.535 91.04C552.535 88.8 552.122 87.16 551.295 86.12C550.469 85.08 549.015 84.56 546.935 84.56C544.829 84.56 543.362 85.08 542.535 86.12C541.709 87.16 541.295 88.8 541.295 91.04C541.295 93.28 541.709 94.9333 542.535 96C543.362 97.04 544.829 97.56 546.935 97.56ZM564.245 101H559.925V81H563.885V86.56L564.245 86.76V101ZM564.245 88.04H563.245V84.16H564.085C564.485 83.2267 565.138 82.4267 566.045 81.76C566.978 81.0667 568.178 80.72 569.645 80.72C571.058 80.72 572.178 81.0267 573.005 81.64C573.858 82.2533 574.471 83.0667 574.845 84.08C575.218 85.0933 575.405 86.2267 575.405 87.48V88.8H571.085V88C571.085 86.6667 570.858 85.7333 570.405 85.2C569.951 84.6667 569.098 84.4 567.845 84.4C566.538 84.4 565.605 84.68 565.045 85.24C564.511 85.7733 564.245 86.7067 564.245 88.04ZM586.799 101C584.613 101 582.933 100.533 581.759 99.6C580.613 98.6667 580.039 97.0933 580.039 94.88V81.56L581.039 76.2H584.359V94.68C584.359 95.72 584.613 96.3867 585.119 96.68C585.653 96.9467 586.599 97.08 587.959 97.08H590.359V100.64C589.959 100.747 589.439 100.84 588.799 100.92C588.159 100.973 587.493 101 586.799 101ZM590.359 84.72H576.719V81.12H590.359V84.72ZM597.668 101H593.348V81.28C593.348 79.7333 593.641 78.44 594.228 77.4C594.814 76.36 595.681 75.5733 596.828 75.04C598.001 74.48 599.441 74.2 601.148 74.2C601.414 74.2 601.681 74.2 601.947 74.2C602.214 74.2 602.481 74.2 602.748 74.2V77.64H600.348C599.388 77.64 598.681 77.8267 598.228 78.2C597.774 78.5733 597.548 79.1867 597.548 80.04V81.8L597.668 82.84V101ZM602.748 84.72H590.428V81.12H602.748V84.72ZM613.381 101.4C611.354 101.4 609.594 100.973 608.101 100.12C606.607 99.24 605.461 98.0267 604.661 96.48C603.861 94.9067 603.461 93.0933 603.461 91.04C603.461 88.9867 603.861 87.1867 604.661 85.64C605.461 84.0933 606.607 82.8933 608.101 82.04C609.594 81.16 611.354 80.72 613.381 80.72C615.407 80.72 617.141 81.16 618.581 82.04C620.047 82.8933 621.167 84.0933 621.941 85.64C622.741 87.1867 623.141 88.9867 623.141 91.04C623.141 93.0933 622.741 94.9067 621.941 96.48C621.167 98.0267 620.047 99.24 618.581 100.12C617.141 100.973 615.407 101.4 613.381 101.4ZM613.381 97.56C615.461 97.56 616.914 97.04 617.741 96C618.567 94.9333 618.981 93.28 618.981 91.04C618.981 88.8 618.567 87.16 617.741 86.12C616.914 85.08 615.461 84.56 613.381 84.56C611.274 84.56 609.807 85.08 608.981 86.12C608.154 87.16 607.741 88.8 607.741 91.04C607.741 93.28 608.154 94.9333 608.981 96C609.807 97.04 611.274 97.56 613.381 97.56ZM630.729 101H626.409V74.2H630.729V101ZM639.004 78.6H634.724L634.684 74.2H639.004V78.6ZM639.044 101H634.724V81H639.044V101ZM651.935 101.4C649.909 101.4 648.149 100.973 646.655 100.12C645.162 99.24 644.015 98.0267 643.215 96.48C642.415 94.9067 642.015 93.0933 642.015 91.04C642.015 88.9867 642.415 87.1867 643.215 85.64C644.015 84.0933 645.162 82.8933 646.655 82.04C648.149 81.16 649.909 80.72 651.935 80.72C653.962 80.72 655.695 81.16 657.135 82.04C658.602 82.8933 659.722 84.0933 660.495 85.64C661.295 87.1867 661.695 88.9867 661.695 91.04C661.695 93.0933 661.295 94.9067 660.495 96.48C659.722 98.0267 658.602 99.24 657.135 100.12C655.695 100.973 653.962 101.4 651.935 101.4ZM651.935 97.56C654.015 97.56 655.469 97.04 656.295 96C657.122 94.9333 657.535 93.28 657.535 91.04C657.535 88.8 657.122 87.16 656.295 86.12C655.469 85.08 654.015 84.56 651.935 84.56C649.829 84.56 648.362 85.08 647.535 86.12C646.709 87.16 646.295 88.8 646.295 91.04C646.295 93.28 646.709 94.9333 647.535 96C648.362 97.04 649.829 97.56 651.935 97.56ZM184.108 150H180.108V146.08L179.988 145V137.36C179.988 135.867 179.628 134.853 178.908 134.32C178.215 133.787 177.082 133.52 175.508 133.52C173.935 133.52 172.802 133.8 172.108 134.36C171.442 134.92 171.108 135.853 171.108 137.16V137.76H166.948V137.36C166.948 135.867 167.308 134.547 168.028 133.4C168.775 132.253 169.802 131.36 171.108 130.72C172.442 130.053 173.988 129.72 175.748 129.72C177.615 129.72 179.162 130.067 180.388 130.76C181.615 131.453 182.535 132.413 183.148 133.64C183.788 134.84 184.108 136.267 184.108 137.92V150ZM172.708 150.4C170.922 150.4 169.415 149.947 168.188 149.04C166.988 148.107 166.388 146.787 166.388 145.08C166.388 143.96 166.642 143.027 167.148 142.28C167.682 141.533 168.442 140.92 169.428 140.44C170.415 139.96 171.615 139.627 173.028 139.44L180.388 138.4V141.44L173.668 142.44C172.522 142.6 171.722 142.84 171.268 143.16C170.815 143.48 170.588 144.013 170.588 144.76C170.588 145.533 170.855 146.093 171.388 146.44C171.948 146.787 172.855 146.96 174.108 146.96C175.068 146.96 175.988 146.813 176.868 146.52C177.775 146.2 178.522 145.68 179.108 144.96C179.695 144.213 179.988 143.173 179.988 141.84L180.548 146.92L179.908 146.88C179.535 147.493 179.015 148.067 178.348 148.6C177.708 149.133 176.922 149.573 175.988 149.92C175.055 150.24 173.962 150.4 172.708 150.4ZM206.765 150H202.445V138.44C202.445 136.68 202.112 135.413 201.445 134.64C200.778 133.84 199.525 133.44 197.685 133.44C196.512 133.44 195.552 133.613 194.805 133.96C194.058 134.28 193.498 134.813 193.125 135.56C192.752 136.28 192.565 137.267 192.565 138.52H191.805L191.445 133.84H192.405C192.698 133.12 193.138 132.453 193.725 131.84C194.312 131.227 195.058 130.72 195.965 130.32C196.898 129.92 198.005 129.72 199.285 129.72C201.018 129.72 202.432 130.053 203.525 130.72C204.618 131.387 205.432 132.307 205.965 133.48C206.498 134.653 206.765 136 206.765 137.52V150ZM192.565 150H188.245V130.12H192.205V136.08L192.565 136.28V150ZM218.783 150.4C215.956 150.4 213.783 149.467 212.263 147.6C210.77 145.707 210.023 143.187 210.023 140.04C210.023 136.893 210.756 134.387 212.223 132.52C213.716 130.653 215.823 129.72 218.543 129.72C220.303 129.72 221.716 130.08 222.783 130.8C223.876 131.493 224.636 132.293 225.063 133.2H226.143L225.943 138.28H225.183C225.183 137.16 224.97 136.24 224.543 135.52C224.116 134.8 223.503 134.267 222.703 133.92C221.903 133.573 220.916 133.4 219.743 133.4C218.783 133.4 217.956 133.52 217.263 133.76C216.596 134 216.036 134.373 215.583 134.88C215.156 135.387 214.836 136.067 214.623 136.92C214.436 137.773 214.343 138.813 214.343 140.04C214.343 141.24 214.436 142.28 214.623 143.16C214.836 144.013 215.156 144.707 215.583 145.24C216.036 145.747 216.61 146.12 217.303 146.36C217.996 146.6 218.81 146.72 219.743 146.72C220.916 146.72 221.903 146.547 222.703 146.2C223.503 145.827 224.116 145.28 224.543 144.56C224.97 143.84 225.183 142.933 225.183 141.84H225.943L226.143 146.72H225.343C224.89 147.867 224.103 148.773 222.983 149.44C221.89 150.08 220.49 150.4 218.783 150.4ZM229.503 150H225.503V145.28L225.183 144.76V123.2H229.503V150ZM245.612 150H241.292V123.2H245.612V150ZM258.53 150.4C256.37 150.4 254.57 149.973 253.13 149.12C251.69 148.24 250.624 147.027 249.93 145.48C249.237 143.907 248.89 142.093 248.89 140.04C248.89 137.987 249.277 136.187 250.05 134.64C250.85 133.093 251.97 131.893 253.41 131.04C254.85 130.16 256.557 129.72 258.53 129.72C260.317 129.72 261.89 130.067 263.25 130.76C264.637 131.427 265.704 132.4 266.45 133.68C267.224 134.96 267.61 136.507 267.61 138.32C267.61 138.853 267.584 139.373 267.53 139.88C267.504 140.36 267.464 140.76 267.41 141.08H250.93V138.2H263.89L263.45 138.6C263.557 137.373 263.424 136.373 263.05 135.6C262.704 134.827 262.13 134.253 261.33 133.88C260.557 133.507 259.584 133.32 258.41 133.32C256.304 133.32 254.864 133.853 254.09 134.92C253.317 135.96 252.93 137.4 252.93 139.24V140.44C252.93 141.773 253.09 142.907 253.41 143.84C253.757 144.747 254.344 145.427 255.17 145.88C255.997 146.333 257.13 146.56 258.57 146.56C260.25 146.56 261.437 146.293 262.13 145.76C262.824 145.227 263.17 144.52 263.17 143.64V143.32H267.45V143.68C267.45 145.04 267.077 146.227 266.33 147.24C265.584 148.227 264.544 149 263.21 149.56C261.904 150.12 260.344 150.4 258.53 150.4ZM279.182 150C276.996 150 275.316 149.533 274.142 148.6C272.996 147.667 272.422 146.093 272.422 143.88V130.56L273.422 125.2H276.742V143.68C276.742 144.72 276.996 145.387 277.502 145.68C278.036 145.947 278.982 146.08 280.342 146.08H282.742V149.64C282.342 149.747 281.822 149.84 281.182 149.92C280.542 149.973 279.876 150 279.182 150ZM282.742 133.72H269.102V130.12H282.742V133.72ZM296.645 156.8C296.112 156.8 295.565 156.76 295.005 156.68C294.445 156.627 293.992 156.547 293.645 156.44V152.92H296.405C297.232 152.92 297.845 152.8 298.245 152.56C298.645 152.347 299.018 151.88 299.365 151.16L300.605 148.36L300.245 149.76L291.645 130.12H296.405L300.405 139.76L302.205 144.08H302.565L304.165 139.76L307.805 130.12H312.605L303.165 152.32C302.685 153.52 302.138 154.44 301.525 155.08C300.912 155.72 300.205 156.16 299.405 156.4C298.632 156.667 297.712 156.8 296.645 156.8ZM322.99 150.4C320.963 150.4 319.203 149.973 317.71 149.12C316.217 148.24 315.07 147.027 314.27 145.48C313.47 143.907 313.07 142.093 313.07 140.04C313.07 137.987 313.47 136.187 314.27 134.64C315.07 133.093 316.217 131.893 317.71 131.04C319.203 130.16 320.963 129.72 322.99 129.72C325.017 129.72 326.75 130.16 328.19 131.04C329.657 131.893 330.777 133.093 331.55 134.64C332.35 136.187 332.75 137.987 332.75 140.04C332.75 142.093 332.35 143.907 331.55 145.48C330.777 147.027 329.657 148.24 328.19 149.12C326.75 149.973 325.017 150.4 322.99 150.4ZM322.99 146.56C325.07 146.56 326.523 146.04 327.35 145C328.177 143.933 328.59 142.28 328.59 140.04C328.59 137.8 328.177 136.16 327.35 135.12C326.523 134.08 325.07 133.56 322.99 133.56C320.883 133.56 319.417 134.08 318.59 135.12C317.763 136.16 317.35 137.8 317.35 140.04C317.35 142.28 317.763 143.933 318.59 145C319.417 146.04 320.883 146.56 322.99 146.56ZM343.379 150.4C341.673 150.4 340.259 150.053 339.139 149.36C338.019 148.64 337.193 147.68 336.659 146.48C336.126 145.253 335.859 143.893 335.859 142.4V130.12H340.179V141.6C340.179 143.387 340.553 144.68 341.299 145.48C342.046 146.28 343.273 146.68 344.979 146.68C346.099 146.68 347.046 146.507 347.819 146.16C348.593 145.787 349.179 145.213 349.579 144.44C349.979 143.64 350.179 142.6 350.179 141.32H351.299V146.04H350.339C350.046 146.787 349.593 147.493 348.979 148.16C348.393 148.827 347.633 149.373 346.699 149.8C345.793 150.2 344.686 150.4 343.379 150.4ZM354.499 150H350.499V144.04L350.179 143.84V130.12H354.499V150ZM363.073 150H358.753V130H362.713V135.56L363.073 135.76V150ZM363.073 137.04H362.073V133.16H362.913C363.313 132.227 363.966 131.427 364.873 130.76C365.806 130.067 367.006 129.72 368.473 129.72C369.886 129.72 371.006 130.027 371.833 130.64C372.686 131.253 373.299 132.067 373.673 133.08C374.046 134.093 374.233 135.227 374.233 136.48V137.8H369.913V137C369.913 135.667 369.686 134.733 369.233 134.2C368.779 133.667 367.926 133.4 366.673 133.4C365.366 133.4 364.433 133.68 363.873 134.24C363.339 134.773 363.073 135.707 363.073 137.04ZM393.168 150.4C390.261 150.4 388.061 149.827 386.568 148.68C385.074 147.507 384.328 145.707 384.328 143.28V143.2H388.488V143.92C388.488 144.613 388.621 145.187 388.888 145.64C389.181 146.067 389.661 146.387 390.328 146.6C391.021 146.787 391.994 146.88 393.247 146.88C394.314 146.88 395.114 146.8 395.648 146.64C396.208 146.453 396.581 146.2 396.768 145.88C396.954 145.56 397.048 145.16 397.048 144.68C397.048 143.88 396.768 143.32 396.208 143C395.648 142.653 394.648 142.347 393.208 142.08L390.088 141.56C388.914 141.32 387.888 140.987 387.008 140.56C386.154 140.107 385.488 139.493 385.008 138.72C384.554 137.92 384.328 136.92 384.328 135.72C384.328 133.933 385.034 132.493 386.448 131.4C387.861 130.28 389.861 129.72 392.448 129.72C394.021 129.72 395.421 129.973 396.648 130.48C397.874 130.987 398.848 131.747 399.568 132.76C400.288 133.773 400.648 135.04 400.648 136.56V136.92H396.528V136.44C396.528 135.8 396.421 135.253 396.208 134.8C395.994 134.32 395.594 133.947 395.008 133.68C394.421 133.413 393.528 133.28 392.328 133.28C390.754 133.28 389.714 133.48 389.208 133.88C388.701 134.28 388.448 134.867 388.448 135.64C388.448 136.413 388.674 136.96 389.128 137.28C389.608 137.573 390.541 137.867 391.928 138.16L395.328 138.8C396.608 139.04 397.674 139.4 398.528 139.88C399.381 140.36 400.021 140.987 400.448 141.76C400.901 142.533 401.128 143.453 401.128 144.52C401.128 146.387 400.421 147.84 399.008 148.88C397.621 149.893 395.674 150.4 393.168 150.4ZM423.055 150H417.975L412.775 141.84H406.415V138H412.735L418.095 130.12H423.135L416.215 139.52L423.055 150ZM408.815 150H404.495V123.2H408.815V150ZM429.199 127.6H424.919L424.879 123.2H429.199V127.6ZM429.239 150H424.919V130H429.239V150ZM437.526 150H433.206V123.2H437.526V150ZM446.276 150H441.956V123.2H446.276V150ZM458.753 150.4C455.847 150.4 453.647 149.827 452.153 148.68C450.66 147.507 449.913 145.707 449.913 143.28V143.2H454.073V143.92C454.073 144.613 454.207 145.187 454.473 145.64C454.767 146.067 455.247 146.387 455.913 146.6C456.607 146.787 457.58 146.88 458.833 146.88C459.9 146.88 460.7 146.8 461.233 146.64C461.793 146.453 462.167 146.2 462.353 145.88C462.54 145.56 462.633 145.16 462.633 144.68C462.633 143.88 462.353 143.32 461.793 143C461.233 142.653 460.233 142.347 458.793 142.08L455.673 141.56C454.5 141.32 453.473 140.987 452.593 140.56C451.74 140.107 451.073 139.493 450.593 138.72C450.14 137.92 449.913 136.92 449.913 135.72C449.913 133.933 450.62 132.493 452.033 131.4C453.447 130.28 455.447 129.72 458.033 129.72C459.607 129.72 461.007 129.973 462.233 130.48C463.46 130.987 464.433 131.747 465.153 132.76C465.873 133.773 466.233 135.04 466.233 136.56V136.92H462.113V136.44C462.113 135.8 462.007 135.253 461.793 134.8C461.58 134.32 461.18 133.947 460.593 133.68C460.007 133.413 459.113 133.28 457.913 133.28C456.34 133.28 455.3 133.48 454.793 133.88C454.287 134.28 454.033 134.867 454.033 135.64C454.033 136.413 454.26 136.96 454.713 137.28C455.193 137.573 456.127 137.867 457.513 138.16L460.913 138.8C462.193 139.04 463.26 139.4 464.113 139.88C464.967 140.36 465.607 140.987 466.033 141.76C466.487 142.533 466.713 143.453 466.713 144.52C466.713 146.387 466.007 147.84 464.593 148.88C463.207 149.893 461.26 150.4 458.753 150.4ZM486.097 150.4C483.191 150.4 480.991 149.827 479.497 148.68C478.004 147.507 477.257 145.707 477.257 143.28V143.2H481.417V143.92C481.417 144.613 481.551 145.187 481.817 145.64C482.111 146.067 482.591 146.387 483.257 146.6C483.951 146.787 484.924 146.88 486.177 146.88C487.244 146.88 488.044 146.8 488.577 146.64C489.137 146.453 489.511 146.2 489.697 145.88C489.884 145.56 489.977 145.16 489.977 144.68C489.977 143.88 489.697 143.32 489.137 143C488.577 142.653 487.577 142.347 486.137 142.08L483.017 141.56C481.844 141.32 480.817 140.987 479.937 140.56C479.084 140.107 478.417 139.493 477.937 138.72C477.484 137.92 477.257 136.92 477.257 135.72C477.257 133.933 477.964 132.493 479.377 131.4C480.791 130.28 482.791 129.72 485.377 129.72C486.951 129.72 488.351 129.973 489.577 130.48C490.804 130.987 491.777 131.747 492.497 132.76C493.217 133.773 493.577 135.04 493.577 136.56V136.92H489.457V136.44C489.457 135.8 489.351 135.253 489.137 134.8C488.924 134.32 488.524 133.947 487.937 133.68C487.351 133.413 486.457 133.28 485.257 133.28C483.684 133.28 482.644 133.48 482.137 133.88C481.631 134.28 481.377 134.867 481.377 135.64C481.377 136.413 481.604 136.96 482.057 137.28C482.537 137.573 483.471 137.867 484.857 138.16L488.257 138.8C489.537 139.04 490.604 139.4 491.457 139.88C492.311 140.36 492.951 140.987 493.377 141.76C493.831 142.533 494.057 143.453 494.057 144.52C494.057 146.387 493.351 147.84 491.937 148.88C490.551 149.893 488.604 150.4 486.097 150.4ZM515.945 150H511.625V138.44C511.625 136.68 511.278 135.413 510.585 134.64C509.918 133.84 508.678 133.44 506.865 133.44C505.131 133.44 503.838 133.827 502.985 134.6C502.158 135.347 501.745 136.667 501.745 138.56H500.985L500.945 133.44H501.905C502.225 132.827 502.665 132.24 503.225 131.68C503.811 131.093 504.545 130.627 505.425 130.28C506.331 129.907 507.371 129.72 508.545 129.72C510.305 129.72 511.718 130.067 512.785 130.76C513.878 131.427 514.678 132.347 515.185 133.52C515.691 134.693 515.945 136.013 515.945 137.48V150ZM501.745 150H497.425V123.2H501.745V150ZM524.238 127.6H519.958L519.918 123.2H524.238V127.6ZM524.278 150H519.958V130H524.278V150ZM546.765 150H542.445V138.44C542.445 136.68 542.112 135.413 541.445 134.64C540.778 133.84 539.525 133.44 537.685 133.44C536.512 133.44 535.552 133.613 534.805 133.96C534.058 134.28 533.498 134.813 533.125 135.56C532.752 136.28 532.565 137.267 532.565 138.52H531.805L531.445 133.84H532.405C532.698 133.12 533.138 132.453 533.725 131.84C534.312 131.227 535.058 130.72 535.965 130.32C536.898 129.92 538.005 129.72 539.285 129.72C541.018 129.72 542.432 130.053 543.525 130.72C544.618 131.387 545.432 132.307 545.965 133.48C546.498 134.653 546.765 136 546.765 137.52V150ZM532.565 150H528.245V130.12H532.205V136.08L532.565 136.28V150ZM559.663 150.4C557.503 150.4 555.703 149.973 554.263 149.12C552.823 148.24 551.756 147.027 551.063 145.48C550.37 143.907 550.023 142.093 550.023 140.04C550.023 137.987 550.41 136.187 551.183 134.64C551.983 133.093 553.103 131.893 554.543 131.04C555.983 130.16 557.69 129.72 559.663 129.72C561.45 129.72 563.023 130.067 564.383 130.76C565.77 131.427 566.836 132.4 567.583 133.68C568.356 134.96 568.743 136.507 568.743 138.32C568.743 138.853 568.716 139.373 568.663 139.88C568.636 140.36 568.596 140.76 568.543 141.08H552.063V138.2H565.023L564.583 138.6C564.69 137.373 564.556 136.373 564.183 135.6C563.836 134.827 563.263 134.253 562.463 133.88C561.69 133.507 560.716 133.32 559.543 133.32C557.436 133.32 555.996 133.853 555.223 134.92C554.45 135.96 554.063 137.4 554.063 139.24V140.44C554.063 141.773 554.223 142.907 554.543 143.84C554.89 144.747 555.476 145.427 556.303 145.88C557.13 146.333 558.263 146.56 559.703 146.56C561.383 146.56 562.57 146.293 563.263 145.76C563.956 145.227 564.303 144.52 564.303 143.64V143.32H568.583V143.68C568.583 145.04 568.21 146.227 567.463 147.24C566.716 148.227 565.676 149 564.343 149.56C563.036 150.12 561.476 150.4 559.663 150.4ZM576.595 150H571.115V143.8H576.595V150ZM598.502 150.4C595.942 150.4 593.849 150.04 592.222 149.32C590.595 148.573 589.382 147.547 588.582 146.24C587.809 144.907 587.422 143.387 587.422 141.68V141H591.662V141.44C591.662 142.533 591.849 143.453 592.222 144.2C592.622 144.947 593.329 145.507 594.342 145.88C595.355 146.253 596.809 146.44 598.702 146.44C600.675 146.44 602.062 146.16 602.862 145.6C603.662 145.013 604.062 144.107 604.062 142.88C604.062 142.053 603.942 141.387 603.702 140.88C603.462 140.373 602.982 139.96 602.262 139.64C601.569 139.293 600.529 138.987 599.142 138.72L594.582 137.8C593.035 137.507 591.742 137.053 590.702 136.44C589.662 135.8 588.862 134.987 588.302 134C587.769 133.013 587.502 131.827 587.502 130.44C587.502 129.107 587.849 127.867 588.542 126.72C589.262 125.547 590.355 124.6 591.822 123.88C593.315 123.16 595.209 122.8 597.502 122.8C599.955 122.8 601.942 123.213 603.462 124.04C605.009 124.867 606.129 125.96 606.822 127.32C607.542 128.653 607.902 130.12 607.902 131.72V132.2H603.622V131.76C603.622 130.64 603.435 129.72 603.062 129C602.715 128.253 602.075 127.693 601.142 127.32C600.235 126.92 598.995 126.72 597.422 126.72C595.449 126.72 594.022 127.013 593.142 127.6C592.262 128.187 591.822 129.067 591.822 130.24C591.822 131.04 591.955 131.68 592.222 132.16C592.515 132.64 593.009 133.027 593.702 133.32C594.422 133.587 595.382 133.867 596.582 134.16L601.142 135.12C602.849 135.44 604.222 135.947 605.262 136.64C606.329 137.333 607.115 138.187 607.622 139.2C608.129 140.187 608.382 141.36 608.382 142.72C608.382 144.107 608.035 145.387 607.342 146.56C606.649 147.733 605.569 148.667 604.102 149.36C602.662 150.053 600.795 150.4 598.502 150.4ZM615.723 127.6H611.443L611.403 123.2H615.723V127.6ZM615.763 150H611.443V130H615.763V150ZM628.934 157.2C627.067 157.2 625.441 156.907 624.054 156.32C622.694 155.733 621.641 154.88 620.894 153.76C620.147 152.667 619.774 151.32 619.774 149.72H624.094C624.094 150.627 624.227 151.347 624.494 151.88C624.761 152.413 625.254 152.787 625.974 153C626.694 153.24 627.721 153.36 629.054 153.36C630.361 153.36 631.361 153.213 632.054 152.92C632.747 152.627 633.227 152.133 633.494 151.44C633.761 150.747 633.894 149.787 633.894 148.56V135.36L634.214 134.84V130.12H638.214V148.56C638.214 150.507 637.841 152.107 637.094 153.36C636.347 154.64 635.281 155.6 633.894 156.24C632.534 156.88 630.881 157.2 628.934 157.2ZM627.254 148.12C624.507 148.12 622.401 147.293 620.934 145.64C619.467 143.96 618.734 141.72 618.734 138.92C618.734 136.12 619.481 133.893 620.974 132.24C622.467 130.56 624.614 129.72 627.414 129.72C629.041 129.72 630.441 130.053 631.614 130.72C632.787 131.36 633.601 132.253 634.054 133.4H634.854L634.654 138.28H633.894C633.894 137.16 633.667 136.24 633.214 135.52C632.761 134.8 632.121 134.267 631.294 133.92C630.467 133.573 629.507 133.4 628.414 133.4C627.161 133.4 626.134 133.573 625.334 133.92C624.561 134.267 623.987 134.853 623.614 135.68C623.241 136.48 623.054 137.56 623.054 138.92C623.054 139.933 623.161 140.8 623.374 141.52C623.587 142.213 623.921 142.773 624.374 143.2C624.827 143.627 625.401 143.947 626.094 144.16C626.787 144.347 627.587 144.44 628.494 144.44C629.587 144.44 630.534 144.267 631.334 143.92C632.134 143.547 632.761 143 633.214 142.28C633.667 141.56 633.894 140.64 633.894 139.52H634.774V144.6H633.734C633.281 145.56 632.494 146.387 631.374 147.08C630.254 147.773 628.881 148.12 627.254 148.12ZM660.984 150H656.664V138.44C656.664 136.68 656.33 135.413 655.664 134.64C654.997 133.84 653.744 133.44 651.904 133.44C650.73 133.44 649.77 133.613 649.024 133.96C648.277 134.28 647.717 134.813 647.344 135.56C646.97 136.28 646.784 137.267 646.784 138.52H646.024L645.664 133.84H646.624C646.917 133.12 647.357 132.453 647.944 131.84C648.53 131.227 649.277 130.72 650.184 130.32C651.117 129.92 652.224 129.72 653.504 129.72C655.237 129.72 656.65 130.053 657.744 130.72C658.837 131.387 659.65 132.307 660.184 133.48C660.717 134.653 660.984 136 660.984 137.52V150ZM646.784 150H642.464V130.12H646.424V136.08L646.784 136.28V150ZM533.848 199.4C532.141 199.4 530.728 199.053 529.608 198.36C528.488 197.64 527.661 196.68 527.128 195.48C526.595 194.253 526.328 192.893 526.328 191.4V179.12H530.648V190.6C530.648 192.387 531.021 193.68 531.768 194.48C532.515 195.28 533.741 195.68 535.448 195.68C536.568 195.68 537.515 195.507 538.288 195.16C539.061 194.787 539.648 194.213 540.048 193.44C540.448 192.64 540.648 191.6 540.648 190.32H541.768V195.04H540.808C540.515 195.787 540.061 196.493 539.448 197.16C538.861 197.827 538.101 198.373 537.168 198.8C536.261 199.2 535.155 199.4 533.848 199.4ZM544.968 199H540.968V193.04L540.648 192.84V179.12H544.968V199ZM560.102 199.4C558.315 199.4 556.862 199.053 555.742 198.36C554.648 197.64 553.888 196.827 553.462 195.92H552.382L552.582 190.84H553.342C553.342 191.933 553.542 192.84 553.942 193.56C554.368 194.28 554.995 194.827 555.822 195.2C556.648 195.547 557.635 195.72 558.782 195.72C559.715 195.72 560.528 195.6 561.222 195.36C561.915 195.12 562.475 194.747 562.902 194.24C563.355 193.733 563.675 193.053 563.862 192.2C564.075 191.32 564.182 190.267 564.182 189.04C564.182 187.813 564.075 186.787 563.862 185.96C563.675 185.107 563.355 184.413 562.902 183.88C562.475 183.347 561.915 182.973 561.222 182.76C560.555 182.52 559.742 182.4 558.782 182.4C557.635 182.4 556.648 182.587 555.822 182.96C554.995 183.307 554.368 183.84 553.942 184.56C553.542 185.253 553.342 186.16 553.342 187.28H552.582L552.382 182.4H553.182C553.662 181.253 554.448 180.36 555.542 179.72C556.662 179.053 558.088 178.72 559.822 178.72C562.622 178.72 564.768 179.653 566.262 181.52C567.755 183.387 568.502 185.893 568.502 189.04C568.502 192.187 567.782 194.707 566.342 196.6C564.902 198.467 562.822 199.4 560.102 199.4ZM553.342 205.92H549.062V179.12H552.982V183.84L553.342 184.36V205.92ZM598.21 199H593.89V187.44C593.89 185.68 593.557 184.413 592.89 183.64C592.224 182.84 590.97 182.44 589.13 182.44C587.957 182.44 586.997 182.613 586.25 182.96C585.504 183.28 584.944 183.813 584.57 184.56C584.197 185.28 584.01 186.267 584.01 187.52H583.25L582.89 182.84H583.85C584.144 182.12 584.584 181.453 585.17 180.84C585.757 180.227 586.504 179.72 587.41 179.32C588.344 178.92 589.45 178.72 590.73 178.72C592.464 178.72 593.877 179.053 594.97 179.72C596.064 180.387 596.877 181.307 597.41 182.48C597.944 183.653 598.21 185 598.21 186.52V199ZM584.01 199H579.69V179.12H583.65V185.08L584.01 185.28V199ZM611.388 199.4C609.362 199.4 607.602 198.973 606.108 198.12C604.615 197.24 603.468 196.027 602.668 194.48C601.868 192.907 601.468 191.093 601.468 189.04C601.468 186.987 601.868 185.187 602.668 183.64C603.468 182.093 604.615 180.893 606.108 180.04C607.602 179.16 609.362 178.72 611.388 178.72C613.415 178.72 615.148 179.16 616.588 180.04C618.055 180.893 619.175 182.093 619.948 183.64C620.748 185.187 621.148 186.987 621.148 189.04C621.148 191.093 620.748 192.907 619.948 194.48C619.175 196.027 618.055 197.24 616.588 198.12C615.148 198.973 613.415 199.4 611.388 199.4ZM611.388 195.56C613.468 195.56 614.922 195.04 615.748 194C616.575 192.933 616.988 191.28 616.988 189.04C616.988 186.8 616.575 185.16 615.748 184.12C614.922 183.08 613.468 182.56 611.388 182.56C609.282 182.56 607.815 183.08 606.988 184.12C606.162 185.16 605.748 186.8 605.748 189.04C605.748 191.28 606.162 192.933 606.988 194C607.815 195.04 609.282 195.56 611.388 195.56ZM632.438 199H626.798L621.878 179.12H626.558L628.838 190.16L629.678 195.4H629.998L631.278 190.16L634.758 179.12H640.358L643.878 190.2L645.158 195.36H645.438L646.278 190.2L648.558 179.12H653.078L648.158 199H642.518L638.958 187.92L637.638 182.92H637.358L636.038 187.92L632.438 199ZM660.462 190.2H656.262C656.262 189.4 656.236 188.48 656.182 187.44C656.156 186.373 656.102 185.253 656.022 184.08C655.969 182.88 655.916 181.707 655.862 180.56C655.809 179.387 655.756 178.32 655.702 177.36C655.649 176.4 655.622 175.613 655.622 175V172.2H661.102V175C661.102 175.613 661.076 176.4 661.022 177.36C660.996 178.32 660.942 179.387 660.862 180.56C660.809 181.707 660.756 182.88 660.702 184.08C660.649 185.28 660.596 186.413 660.542 187.48C660.489 188.52 660.462 189.427 660.462 190.2ZM660.822 199H655.942V193.08H660.822V199Z" fill="black"/>
<rect x="51" y="432" width="293" height="293" rx="146.5" fill="#121D26"/>
<path d="M176.487 675.596C173.542 681.309 175.77 688.415 181.844 690.518C193.302 694.483 205.549 695.859 217.694 694.48C233.71 692.661 248.827 686.135 261.134 675.724C273.441 665.314 282.385 651.489 286.834 635.996C290.207 624.248 290.882 611.942 288.872 599.985C287.806 593.647 281.167 590.271 275.045 592.228C268.923 594.185 265.673 600.748 266.375 607.137C267.199 614.632 266.564 622.253 264.462 629.571C261.284 640.639 254.894 650.517 246.102 657.954C237.31 665.391 226.51 670.053 215.068 671.352C207.503 672.211 199.881 671.574 192.627 669.519C186.443 667.766 179.432 669.883 176.487 675.596Z" fill="white"/>
<path fill-rule="evenodd" clip-rule="evenodd" d="M183.988 355.809L335.734 405.169L335.735 405.248C338.254 406.067 340.451 407.657 342.015 409.794C343.579 411.931 344.431 414.506 344.45 417.154C344.47 419.802 343.655 422.389 342.122 424.548C340.589 426.708 338.415 428.33 335.909 429.185L266.506 452.87C266.526 452.902 266.546 452.933 266.565 452.965L241.815 461.402C241.782 461.357 241.748 461.312 241.714 461.266L184.895 480.603C182.312 481.485 179.512 481.505 176.916 480.661L156.551 474.059L156.543 474.056L156.225 473.953L119.822 462.152C119.805 462.176 119.788 462.2 119.771 462.223L94.8163 454.194C94.8477 454.142 94.8792 454.09 94.9107 454.039L41.8155 436.778L42.605 545.425C42.6293 548.77 41.3236 551.989 38.975 554.371C36.6264 556.754 33.4274 558.107 30.0817 558.131C26.7361 558.155 23.5177 556.85 21.1348 554.501C18.7518 552.153 17.3994 548.954 17.3751 545.608L16.4584 419.458C16.4389 416.811 17.2531 414.224 18.7856 412.065C20.318 409.905 22.4911 408.283 24.9969 407.427L176.009 355.867C178.593 354.985 181.393 354.965 183.988 355.809Z" fill="#121D26"/>
</g>
<path d="M680.088 1187.46C678.824 1186.75 677.242 1187.63 677.242 1189.04V1201.24C677.242 1201.89 677.603 1202.49 678.189 1202.82L689.151 1208.92C690.415 1209.62 691.997 1208.74 691.997 1207.34V1195.14C691.997 1194.48 691.636 1193.88 691.05 1193.56L680.088 1187.46Z" fill="black"/>
<path d="M678.194 1218.18C677.607 1218.51 676.884 1218.51 676.297 1218.18L665.298 1212.08C664.033 1211.38 662.454 1212.25 662.454 1213.66V1240.17C662.454 1241.58 664.034 1242.46 665.299 1241.75L691.052 1227.44C691.639 1227.12 692 1226.52 692 1225.86V1213.66C692 1212.26 690.418 1211.38 689.154 1212.08L678.194 1218.18Z" fill="black"/>
<path d="M644.912 1233.54C646.176 1234.25 647.758 1233.37 647.758 1231.96V1219.76C647.758 1219.11 647.397 1218.51 646.811 1218.18L635.849 1212.08C634.585 1211.38 633.003 1212.26 633.003 1213.66V1225.86C633.003 1226.52 633.364 1227.12 633.95 1227.44L644.912 1233.54Z" fill="black"/>
<path d="M646.806 1202.82C647.393 1202.49 648.116 1202.49 648.703 1202.82L659.702 1208.92C660.967 1209.62 662.546 1208.75 662.546 1207.34V1180.83C662.546 1179.42 660.966 1178.54 659.701 1179.25L633.948 1193.56C633.361 1193.88 633 1194.48 633 1195.14V1207.34C633 1208.74 634.582 1209.62 635.846 1208.92L646.806 1202.82Z" fill="black"/>
<defs>
<clipPath id="clip0_18934_19714">
<rect width="727" height="1272" rx="20.1569" fill="white"/>
</clipPath>
</defs>
</svg>
