<svg width="727" height="1272" viewBox="0 0 727 1272" fill="none" xmlns="http://www.w3.org/2000/svg">
<g clip-path="url(#clip0_18934_19639)">
<rect width="728" height="1273" rx="20.1569" fill="#F2E635"/>
<rect x="-122" y="743" width="632" height="632" rx="316" fill="#121D26"/>
<path d="M171.036 91.56H167.356L156.636 74.2H161.556L166.636 82.48L169.116 86.68H169.436L171.836 82.48L176.876 74.2H181.756L171.036 91.56ZM171.356 101H167.036V88.48H171.356V101ZM189.748 101.4C187.721 101.4 185.961 100.973 184.468 100.12C182.974 99.24 181.828 98.0267 181.028 96.48C180.228 94.9067 179.828 93.0933 179.828 91.04C179.828 88.9867 180.228 87.1867 181.028 85.64C181.828 84.0933 182.974 82.8933 184.468 82.04C185.961 81.16 187.721 80.72 189.748 80.72C191.774 80.72 193.508 81.16 194.948 82.04C196.414 82.8933 197.534 84.0933 198.308 85.64C199.108 87.1867 199.508 88.9867 199.508 91.04C199.508 93.0933 199.108 94.9067 198.308 96.48C197.534 98.0267 196.414 99.24 194.948 100.12C193.508 100.973 191.774 101.4 189.748 101.4ZM189.748 97.56C191.828 97.56 193.281 97.04 194.108 96C194.934 94.9333 195.348 93.28 195.348 91.04C195.348 88.8 194.934 87.16 194.108 86.12C193.281 85.08 191.828 84.56 189.748 84.56C187.641 84.56 186.174 85.08 185.348 86.12C184.521 87.16 184.108 88.8 184.108 91.04C184.108 93.28 184.521 94.9333 185.348 96C186.174 97.04 187.641 97.56 189.748 97.56ZM210.137 101.4C208.431 101.4 207.017 101.053 205.897 100.36C204.777 99.64 203.951 98.68 203.417 97.48C202.884 96.2533 202.617 94.8933 202.617 93.4V81.12H206.937V92.6C206.937 94.3867 207.311 95.68 208.057 96.48C208.804 97.28 210.031 97.68 211.737 97.68C212.857 97.68 213.804 97.5067 214.577 97.16C215.351 96.7867 215.937 96.2133 216.337 95.44C216.737 94.64 216.937 93.6 216.937 92.32H218.057V97.04H217.097C216.804 97.7867 216.351 98.4933 215.737 99.16C215.151 99.8267 214.391 100.373 213.457 100.8C212.551 101.2 211.444 101.4 210.137 101.4ZM221.257 101H217.257V95.04L216.937 94.84V81.12H221.257V101ZM229.831 101H225.511V81H229.471V86.56L229.831 86.76V101ZM229.831 88.04H228.831V84.16H229.671C230.071 83.2267 230.724 82.4267 231.631 81.76C232.564 81.0667 233.764 80.72 235.231 80.72C236.644 80.72 237.764 81.0267 238.591 81.64C239.444 82.2533 240.057 83.0667 240.431 84.08C240.804 85.0933 240.991 86.2267 240.991 87.48V88.8H236.671V88C236.671 86.6667 236.444 85.7333 235.991 85.2C235.537 84.6667 234.684 84.4 233.431 84.4C232.124 84.4 231.191 84.68 230.631 85.24C230.097 85.7733 229.831 86.7067 229.831 88.04ZM255.965 78.6H251.685V74.2H255.965V78.6ZM247.645 107.8V103.88H249.205C250.245 103.88 250.912 103.747 251.205 103.48C251.525 103.24 251.685 102.72 251.685 101.92V81.12H255.965V101C255.965 102.76 255.672 104.133 255.085 105.12C254.499 106.107 253.685 106.8 252.645 107.2C251.605 107.6 250.352 107.8 248.885 107.8C248.699 107.8 248.512 107.8 248.325 107.8C248.112 107.8 247.885 107.8 247.645 107.8ZM269.123 101.4C267.096 101.4 265.336 100.973 263.843 100.12C262.349 99.24 261.203 98.0267 260.403 96.48C259.603 94.9067 259.203 93.0933 259.203 91.04C259.203 88.9867 259.603 87.1867 260.403 85.64C261.203 84.0933 262.349 82.8933 263.843 82.04C265.336 81.16 267.096 80.72 269.123 80.72C271.149 80.72 272.883 81.16 274.323 82.04C275.789 82.8933 276.909 84.0933 277.683 85.64C278.483 87.1867 278.883 88.9867 278.883 91.04C278.883 93.0933 278.483 94.9067 277.683 96.48C276.909 98.0267 275.789 99.24 274.323 100.12C272.883 100.973 271.149 101.4 269.123 101.4ZM269.123 97.56C271.203 97.56 272.656 97.04 273.483 96C274.309 94.9333 274.723 93.28 274.723 91.04C274.723 88.8 274.309 87.16 273.483 86.12C272.656 85.08 271.203 84.56 269.123 84.56C267.016 84.56 265.549 85.08 264.723 86.12C263.896 87.16 263.483 88.8 263.483 91.04C263.483 93.28 263.896 94.9333 264.723 96C265.549 97.04 267.016 97.56 269.123 97.56ZM289.512 101.4C287.806 101.4 286.392 101.053 285.272 100.36C284.152 99.64 283.326 98.68 282.792 97.48C282.259 96.2533 281.992 94.8933 281.992 93.4V81.12H286.312V92.6C286.312 94.3867 286.686 95.68 287.432 96.48C288.179 97.28 289.406 97.68 291.112 97.68C292.232 97.68 293.179 97.5067 293.952 97.16C294.726 96.7867 295.312 96.2133 295.712 95.44C296.112 94.64 296.312 93.6 296.312 92.32H297.432V97.04H296.472C296.179 97.7867 295.726 98.4933 295.112 99.16C294.526 99.8267 293.766 100.373 292.832 100.8C291.926 101.2 290.819 101.4 289.512 101.4ZM300.632 101H296.632V95.04L296.312 94.84V81.12H300.632V101ZM309.206 101H304.886V81H308.846V86.56L309.206 86.76V101ZM309.206 88.04H308.206V84.16H309.046C309.446 83.2267 310.099 82.4267 311.006 81.76C311.939 81.0667 313.139 80.72 314.606 80.72C316.019 80.72 317.139 81.0267 317.966 81.64C318.819 82.2533 319.432 83.0667 319.806 84.08C320.179 85.0933 320.366 86.2267 320.366 87.48V88.8H316.046V88C316.046 86.6667 315.819 85.7333 315.366 85.2C314.912 84.6667 314.059 84.4 312.806 84.4C311.499 84.4 310.566 84.68 310.006 85.24C309.472 85.7733 309.206 86.7067 309.206 88.04ZM341.57 101H337.25V89.44C337.25 87.68 336.916 86.4133 336.25 85.64C335.583 84.84 334.33 84.44 332.49 84.44C331.316 84.44 330.356 84.6133 329.61 84.96C328.863 85.28 328.303 85.8133 327.93 86.56C327.556 87.28 327.37 88.2667 327.37 89.52H326.61L326.25 84.84H327.21C327.503 84.12 327.943 83.4533 328.53 82.84C329.116 82.2267 329.863 81.72 330.77 81.32C331.703 80.92 332.81 80.72 334.09 80.72C335.823 80.72 337.236 81.0533 338.33 81.72C339.423 82.3867 340.236 83.3067 340.77 84.48C341.303 85.6533 341.57 87 341.57 88.52V101ZM327.37 101H323.05V81.12H327.01V87.08L327.37 87.28V101ZM354.468 101.4C352.308 101.4 350.508 100.973 349.068 100.12C347.628 99.24 346.561 98.0267 345.868 96.48C345.174 94.9067 344.828 93.0933 344.828 91.04C344.828 88.9867 345.214 87.1867 345.988 85.64C346.788 84.0933 347.908 82.8933 349.348 82.04C350.788 81.16 352.494 80.72 354.468 80.72C356.254 80.72 357.828 81.0667 359.188 81.76C360.574 82.4267 361.641 83.4 362.388 84.68C363.161 85.96 363.548 87.5067 363.548 89.32C363.548 89.8533 363.521 90.3733 363.468 90.88C363.441 91.36 363.401 91.76 363.348 92.08H346.868V89.2H359.828L359.388 89.6C359.494 88.3733 359.361 87.3733 358.988 86.6C358.641 85.8267 358.068 85.2533 357.268 84.88C356.494 84.5067 355.521 84.32 354.348 84.32C352.241 84.32 350.801 84.8533 350.028 85.92C349.254 86.96 348.868 88.4 348.868 90.24V91.44C348.868 92.7733 349.028 93.9067 349.348 94.84C349.694 95.7467 350.281 96.4267 351.108 96.88C351.934 97.3333 353.068 97.56 354.508 97.56C356.188 97.56 357.374 97.2933 358.068 96.76C358.761 96.2267 359.108 95.52 359.108 94.64V94.32H363.388V94.68C363.388 96.04 363.014 97.2267 362.268 98.24C361.521 99.2267 360.481 100 359.148 100.56C357.841 101.12 356.281 101.4 354.468 101.4ZM369.34 107.8C368.807 107.8 368.26 107.76 367.7 107.68C367.14 107.627 366.687 107.547 366.34 107.44V103.92H369.1C369.927 103.92 370.54 103.8 370.94 103.56C371.34 103.347 371.714 102.88 372.06 102.16L373.3 99.36L372.94 100.76L364.34 81.12H369.1L373.1 90.76L374.9 95.08H375.26L376.86 90.76L380.5 81.12H385.3L375.86 103.32C375.38 104.52 374.834 105.44 374.22 106.08C373.607 106.72 372.9 107.16 372.1 107.4C371.327 107.667 370.407 107.8 369.34 107.8ZM404.274 101.44C402.194 101.44 400.434 101 398.994 100.12C397.554 99.24 396.448 98.0267 395.674 96.48C394.928 94.9333 394.554 93.1333 394.554 91.08C394.554 89.0267 394.941 87.2267 395.714 85.68C396.514 84.1067 397.648 82.8933 399.114 82.04C400.581 81.16 402.354 80.72 404.434 80.72C406.194 80.72 407.741 81.0533 409.074 81.72C410.408 82.3867 411.434 83.32 412.154 84.52C412.901 85.72 413.274 87.12 413.274 88.72V89.08H408.994V88.84C408.994 87.3733 408.594 86.3067 407.794 85.64C407.021 84.9467 405.808 84.6 404.154 84.6C402.234 84.6 400.861 85.1467 400.034 86.24C399.234 87.3067 398.834 88.9067 398.834 91.04C398.834 93.2 399.234 94.8267 400.034 95.92C400.861 96.9867 402.234 97.52 404.154 97.52C405.808 97.52 407.021 97.1867 407.794 96.52C408.594 95.8267 408.994 94.76 408.994 93.32V93.08H413.274V93.44C413.274 94.9867 412.901 96.3733 412.154 97.6C411.408 98.8 410.354 99.7467 408.994 100.44C407.661 101.107 406.088 101.44 404.274 101.44ZM425.842 101.4C423.815 101.4 422.055 100.973 420.562 100.12C419.068 99.24 417.922 98.0267 417.122 96.48C416.322 94.9067 415.922 93.0933 415.922 91.04C415.922 88.9867 416.322 87.1867 417.122 85.64C417.922 84.0933 419.068 82.8933 420.562 82.04C422.055 81.16 423.815 80.72 425.842 80.72C427.868 80.72 429.602 81.16 431.042 82.04C432.508 82.8933 433.628 84.0933 434.402 85.64C435.202 87.1867 435.602 88.9867 435.602 91.04C435.602 93.0933 435.202 94.9067 434.402 96.48C433.628 98.0267 432.508 99.24 431.042 100.12C429.602 100.973 427.868 101.4 425.842 101.4ZM425.842 97.56C427.922 97.56 429.375 97.04 430.202 96C431.028 94.9333 431.442 93.28 431.442 91.04C431.442 88.8 431.028 87.16 430.202 86.12C429.375 85.08 427.922 84.56 425.842 84.56C423.735 84.56 422.268 85.08 421.442 86.12C420.615 87.16 420.202 88.8 420.202 91.04C420.202 93.28 420.615 94.9333 421.442 96C422.268 97.04 423.735 97.56 425.842 97.56ZM457.351 101H453.031V89.44C453.031 87.68 452.698 86.4133 452.031 85.64C451.364 84.84 450.111 84.44 448.271 84.44C447.098 84.44 446.138 84.6133 445.391 84.96C444.644 85.28 444.084 85.8133 443.711 86.56C443.338 87.28 443.151 88.2667 443.151 89.52H442.391L442.031 84.84H442.991C443.284 84.12 443.724 83.4533 444.311 82.84C444.898 82.2267 445.644 81.72 446.551 81.32C447.484 80.92 448.591 80.72 449.871 80.72C451.604 80.72 453.018 81.0533 454.111 81.72C455.204 82.3867 456.018 83.3067 456.551 84.48C457.084 85.6533 457.351 87 457.351 88.52V101ZM443.151 101H438.831V81.12H442.791V87.08L443.151 87.28V101ZM469.573 101C467.386 101 465.706 100.533 464.533 99.6C463.386 98.6667 462.813 97.0933 462.813 94.88V81.56L463.813 76.2H467.133V94.68C467.133 95.72 467.386 96.3867 467.893 96.68C468.426 96.9467 469.373 97.08 470.733 97.08H473.133V100.64C472.733 100.747 472.213 100.84 471.573 100.92C470.933 100.973 470.266 101 469.573 101ZM473.133 84.72H459.493V81.12H473.133V84.72ZM479.98 78.6H475.7L475.66 74.2H479.98V78.6ZM480.02 101H475.7V81H480.02V101ZM502.507 101H498.187V89.44C498.187 87.68 497.854 86.4133 497.187 85.64C496.521 84.84 495.267 84.44 493.427 84.44C492.254 84.44 491.294 84.6133 490.547 84.96C489.801 85.28 489.241 85.8133 488.867 86.56C488.494 87.28 488.307 88.2667 488.307 89.52H487.547L487.187 84.84H488.147C488.441 84.12 488.881 83.4533 489.467 82.84C490.054 82.2267 490.801 81.72 491.707 81.32C492.641 80.92 493.747 80.72 495.027 80.72C496.761 80.72 498.174 81.0533 499.267 81.72C500.361 82.3867 501.174 83.3067 501.707 84.48C502.241 85.6533 502.507 87 502.507 88.52V101ZM488.307 101H483.987V81.12H487.947V87.08L488.307 87.28V101ZM514.043 101.4C512.337 101.4 510.923 101.053 509.803 100.36C508.683 99.64 507.857 98.68 507.323 97.48C506.79 96.2533 506.523 94.8933 506.523 93.4V81.12H510.843V92.6C510.843 94.3867 511.217 95.68 511.963 96.48C512.71 97.28 513.937 97.68 515.643 97.68C516.763 97.68 517.71 97.5067 518.483 97.16C519.257 96.7867 519.843 96.2133 520.243 95.44C520.643 94.64 520.843 93.6 520.843 92.32H521.963V97.04H521.003C520.71 97.7867 520.257 98.4933 519.643 99.16C519.057 99.8267 518.297 100.373 517.363 100.8C516.457 101.2 515.35 101.4 514.043 101.4ZM525.163 101H521.163V95.04L520.843 94.84V81.12H525.163V101ZM538.179 101.4C536.019 101.4 534.219 100.973 532.779 100.12C531.339 99.24 530.272 98.0267 529.579 96.48C528.885 94.9067 528.539 93.0933 528.539 91.04C528.539 88.9867 528.925 87.1867 529.699 85.64C530.499 84.0933 531.619 82.8933 533.059 82.04C534.499 81.16 536.205 80.72 538.179 80.72C539.965 80.72 541.539 81.0667 542.899 81.76C544.285 82.4267 545.352 83.4 546.099 84.68C546.872 85.96 547.259 87.5067 547.259 89.32C547.259 89.8533 547.232 90.3733 547.179 90.88C547.152 91.36 547.112 91.76 547.059 92.08H530.579V89.2H543.539L543.099 89.6C543.205 88.3733 543.072 87.3733 542.699 86.6C542.352 85.8267 541.779 85.2533 540.979 84.88C540.205 84.5067 539.232 84.32 538.059 84.32C535.952 84.32 534.512 84.8533 533.739 85.92C532.965 86.96 532.579 88.4 532.579 90.24V91.44C532.579 92.7733 532.739 93.9067 533.059 94.84C533.405 95.7467 533.992 96.4267 534.819 96.88C535.645 97.3333 536.779 97.56 538.219 97.56C539.899 97.56 541.085 97.2933 541.779 96.76C542.472 96.2267 542.819 95.52 542.819 94.64V94.32H547.099V94.68C547.099 96.04 546.725 97.2267 545.979 98.24C545.232 99.2267 544.192 100 542.859 100.56C541.552 101.12 539.992 101.4 538.179 101.4ZM559.261 101.4C556.355 101.4 554.155 100.827 552.661 99.68C551.168 98.5067 550.421 96.7067 550.421 94.28V94.2H554.581V94.92C554.581 95.6133 554.715 96.1867 554.981 96.64C555.275 97.0667 555.755 97.3867 556.421 97.6C557.115 97.7867 558.088 97.88 559.341 97.88C560.408 97.88 561.208 97.8 561.741 97.64C562.301 97.4533 562.675 97.2 562.861 96.88C563.048 96.56 563.141 96.16 563.141 95.68C563.141 94.88 562.861 94.32 562.301 94C561.741 93.6533 560.741 93.3467 559.301 93.08L556.181 92.56C555.008 92.32 553.981 91.9867 553.101 91.56C552.248 91.1067 551.581 90.4933 551.101 89.72C550.648 88.92 550.421 87.92 550.421 86.72C550.421 84.9333 551.128 83.4933 552.541 82.4C553.955 81.28 555.955 80.72 558.541 80.72C560.115 80.72 561.515 80.9733 562.741 81.48C563.968 81.9867 564.941 82.7467 565.661 83.76C566.381 84.7733 566.741 86.04 566.741 87.56V87.92H562.621V87.44C562.621 86.8 562.515 86.2533 562.301 85.8C562.088 85.32 561.688 84.9467 561.101 84.68C560.515 84.4133 559.621 84.28 558.421 84.28C556.848 84.28 555.808 84.48 555.301 84.88C554.795 85.28 554.541 85.8667 554.541 86.64C554.541 87.4133 554.768 87.96 555.221 88.28C555.701 88.5733 556.635 88.8667 558.021 89.16L561.421 89.8C562.701 90.04 563.768 90.4 564.621 90.88C565.475 91.36 566.115 91.9867 566.541 92.76C566.995 93.5333 567.221 94.4533 567.221 95.52C567.221 97.3867 566.515 98.84 565.101 99.88C563.715 100.893 561.768 101.4 559.261 101.4ZM575.345 92.2H571.145C571.145 91.4 571.118 90.48 571.065 89.44C571.038 88.3733 570.985 87.2533 570.905 86.08C570.852 84.88 570.798 83.7067 570.745 82.56C570.692 81.3867 570.638 80.32 570.585 79.36C570.532 78.4 570.505 77.6133 570.505 77V74.2H575.985V77C575.985 77.6133 575.958 78.4 575.905 79.36C575.878 80.32 575.825 81.3867 575.745 82.56C575.692 83.7067 575.638 84.88 575.585 86.08C575.532 87.28 575.478 88.4133 575.425 89.48C575.372 90.52 575.345 91.4267 575.345 92.2ZM575.705 101H570.825V95.08H575.705V101ZM598.502 101.4C595.942 101.4 593.849 101.04 592.222 100.32C590.595 99.5733 589.382 98.5467 588.582 97.24C587.809 95.9067 587.422 94.3867 587.422 92.68V92H591.662V92.44C591.662 93.5333 591.849 94.4533 592.222 95.2C592.622 95.9467 593.329 96.5067 594.342 96.88C595.355 97.2533 596.809 97.44 598.702 97.44C600.675 97.44 602.062 97.16 602.862 96.6C603.662 96.0133 604.062 95.1067 604.062 93.88C604.062 93.0533 603.942 92.3867 603.702 91.88C603.462 91.3733 602.982 90.96 602.262 90.64C601.569 90.2933 600.529 89.9867 599.142 89.72L594.582 88.8C593.035 88.5067 591.742 88.0533 590.702 87.44C589.662 86.8 588.862 85.9867 588.302 85C587.769 84.0133 587.502 82.8267 587.502 81.44C587.502 80.1067 587.849 78.8667 588.542 77.72C589.262 76.5467 590.355 75.6 591.822 74.88C593.315 74.16 595.209 73.8 597.502 73.8C599.955 73.8 601.942 74.2133 603.462 75.04C605.009 75.8667 606.129 76.96 606.822 78.32C607.542 79.6533 607.902 81.12 607.902 82.72V83.2H603.622V82.76C603.622 81.64 603.435 80.72 603.062 80C602.715 79.2533 602.075 78.6933 601.142 78.32C600.235 77.92 598.995 77.72 597.422 77.72C595.449 77.72 594.022 78.0133 593.142 78.6C592.262 79.1867 591.822 80.0667 591.822 81.24C591.822 82.04 591.955 82.68 592.222 83.16C592.515 83.64 593.009 84.0267 593.702 84.32C594.422 84.5867 595.382 84.8667 596.582 85.16L601.142 86.12C602.849 86.44 604.222 86.9467 605.262 87.64C606.329 88.3333 607.115 89.1867 607.622 90.2C608.129 91.1867 608.382 92.36 608.382 93.72C608.382 95.1067 608.035 96.3867 607.342 97.56C606.649 98.7333 605.569 99.6667 604.102 100.36C602.662 101.053 600.795 101.4 598.502 101.4ZM615.723 78.6H611.443L611.403 74.2H615.723V78.6ZM615.763 101H611.443V81H615.763V101ZM628.934 108.2C627.067 108.2 625.441 107.907 624.054 107.32C622.694 106.733 621.641 105.88 620.894 104.76C620.147 103.667 619.774 102.32 619.774 100.72H624.094C624.094 101.627 624.227 102.347 624.494 102.88C624.761 103.413 625.254 103.787 625.974 104C626.694 104.24 627.721 104.36 629.054 104.36C630.361 104.36 631.361 104.213 632.054 103.92C632.747 103.627 633.227 103.133 633.494 102.44C633.761 101.747 633.894 100.787 633.894 99.56V86.36L634.214 85.84V81.12H638.214V99.56C638.214 101.507 637.841 103.107 637.094 104.36C636.347 105.64 635.281 106.6 633.894 107.24C632.534 107.88 630.881 108.2 628.934 108.2ZM627.254 99.12C624.507 99.12 622.401 98.2933 620.934 96.64C619.467 94.96 618.734 92.72 618.734 89.92C618.734 87.12 619.481 84.8933 620.974 83.24C622.467 81.56 624.614 80.72 627.414 80.72C629.041 80.72 630.441 81.0533 631.614 81.72C632.787 82.36 633.601 83.2533 634.054 84.4H634.854L634.654 89.28H633.894C633.894 88.16 633.667 87.24 633.214 86.52C632.761 85.8 632.121 85.2667 631.294 84.92C630.467 84.5733 629.507 84.4 628.414 84.4C627.161 84.4 626.134 84.5733 625.334 84.92C624.561 85.2667 623.987 85.8533 623.614 86.68C623.241 87.48 623.054 88.56 623.054 89.92C623.054 90.9333 623.161 91.8 623.374 92.52C623.587 93.2133 623.921 93.7733 624.374 94.2C624.827 94.6267 625.401 94.9467 626.094 95.16C626.787 95.3467 627.587 95.44 628.494 95.44C629.587 95.44 630.534 95.2667 631.334 94.92C632.134 94.5467 632.761 94 633.214 93.28C633.667 92.56 633.894 91.64 633.894 90.52H634.774V95.6H633.734C633.281 96.56 632.494 97.3867 631.374 98.08C630.254 98.7733 628.881 99.12 627.254 99.12ZM660.984 101H656.664V89.44C656.664 87.68 656.33 86.4133 655.664 85.64C654.997 84.84 653.744 84.44 651.904 84.44C650.73 84.44 649.77 84.6133 649.024 84.96C648.277 85.28 647.717 85.8133 647.344 86.56C646.97 87.28 646.784 88.2667 646.784 89.52H646.024L645.664 84.84H646.624C646.917 84.12 647.357 83.4533 647.944 82.84C648.53 82.2267 649.277 81.72 650.184 81.32C651.117 80.92 652.224 80.72 653.504 80.72C655.237 80.72 656.65 81.0533 657.744 81.72C658.837 82.3867 659.65 83.3067 660.184 84.48C660.717 85.6533 660.984 87 660.984 88.52V101ZM646.784 101H642.464V81.12H646.424V87.08L646.784 87.28V101ZM212.793 127.6H208.513L208.473 123.2H212.793V127.6ZM212.833 150H208.513V130H212.833V150ZM235.32 150H231V138.44C231 136.68 230.666 135.413 230 134.64C229.333 133.84 228.08 133.44 226.24 133.44C225.066 133.44 224.106 133.613 223.36 133.96C222.613 134.28 222.053 134.813 221.68 135.56C221.306 136.28 221.12 137.267 221.12 138.52H220.36L220 133.84H220.96C221.253 133.12 221.693 132.453 222.28 131.84C222.866 131.227 223.613 130.72 224.52 130.32C225.453 129.92 226.56 129.72 227.84 129.72C229.573 129.72 230.986 130.053 232.08 130.72C233.173 131.387 233.986 132.307 234.52 133.48C235.053 134.653 235.32 136 235.32 137.52V150ZM221.12 150H216.8V130.12H220.76V136.08L221.12 136.28V150ZM255.315 150C253.128 150 251.448 149.533 250.275 148.6C249.128 147.667 248.555 146.093 248.555 143.88V130.56L249.555 125.2H252.875V143.68C252.875 144.72 253.128 145.387 253.635 145.68C254.168 145.947 255.115 146.08 256.475 146.08H258.875V149.64C258.475 149.747 257.955 149.84 257.315 149.92C256.675 149.973 256.008 150 255.315 150ZM258.875 133.72H245.235V130.12H258.875V133.72ZM270.217 150.4C268.19 150.4 266.43 149.973 264.937 149.12C263.443 148.24 262.297 147.027 261.497 145.48C260.697 143.907 260.297 142.093 260.297 140.04C260.297 137.987 260.697 136.187 261.497 134.64C262.297 133.093 263.443 131.893 264.937 131.04C266.43 130.16 268.19 129.72 270.217 129.72C272.243 129.72 273.977 130.16 275.417 131.04C276.883 131.893 278.003 133.093 278.777 134.64C279.577 136.187 279.977 137.987 279.977 140.04C279.977 142.093 279.577 143.907 278.777 145.48C278.003 147.027 276.883 148.24 275.417 149.12C273.977 149.973 272.243 150.4 270.217 150.4ZM270.217 146.56C272.297 146.56 273.75 146.04 274.577 145C275.403 143.933 275.817 142.28 275.817 140.04C275.817 137.8 275.403 136.16 274.577 135.12C273.75 134.08 272.297 133.56 270.217 133.56C268.11 133.56 266.643 134.08 265.817 135.12C264.99 136.16 264.577 137.8 264.577 140.04C264.577 142.28 264.99 143.933 265.817 145C266.643 146.04 268.11 146.56 270.217 146.56ZM298.34 150.4C296.634 150.4 295.22 150.053 294.1 149.36C292.98 148.64 292.154 147.68 291.62 146.48C291.087 145.253 290.82 143.893 290.82 142.4V130.12H295.14V141.6C295.14 143.387 295.514 144.68 296.26 145.48C297.007 146.28 298.234 146.68 299.94 146.68C301.06 146.68 302.007 146.507 302.78 146.16C303.554 145.787 304.14 145.213 304.54 144.44C304.94 143.64 305.14 142.6 305.14 141.32H306.26V146.04H305.3C305.007 146.787 304.554 147.493 303.94 148.16C303.354 148.827 302.594 149.373 301.66 149.8C300.754 150.2 299.647 150.4 298.34 150.4ZM309.46 150H305.46V144.04L305.14 143.84V130.12H309.46V150ZM324.594 150.4C322.807 150.4 321.354 150.053 320.234 149.36C319.14 148.64 318.38 147.827 317.954 146.92H316.874L317.074 141.84H317.834C317.834 142.933 318.034 143.84 318.434 144.56C318.86 145.28 319.487 145.827 320.314 146.2C321.14 146.547 322.127 146.72 323.274 146.72C324.207 146.72 325.02 146.6 325.714 146.36C326.407 146.12 326.967 145.747 327.394 145.24C327.847 144.733 328.167 144.053 328.354 143.2C328.567 142.32 328.674 141.267 328.674 140.04C328.674 138.813 328.567 137.787 328.354 136.96C328.167 136.107 327.847 135.413 327.394 134.88C326.967 134.347 326.407 133.973 325.714 133.76C325.047 133.52 324.234 133.4 323.274 133.4C322.127 133.4 321.14 133.587 320.314 133.96C319.487 134.307 318.86 134.84 318.434 135.56C318.034 136.253 317.834 137.16 317.834 138.28H317.074L316.874 133.4H317.674C318.154 132.253 318.94 131.36 320.034 130.72C321.154 130.053 322.58 129.72 324.314 129.72C327.114 129.72 329.26 130.653 330.754 132.52C332.247 134.387 332.994 136.893 332.994 140.04C332.994 143.187 332.274 145.707 330.834 147.6C329.394 149.467 327.314 150.4 324.594 150.4ZM317.834 156.92H313.554V130.12H317.474V134.84L317.834 135.36V156.92ZM344.603 150.4C341.777 150.4 339.603 149.467 338.083 147.6C336.59 145.707 335.843 143.187 335.843 140.04C335.843 136.893 336.577 134.387 338.043 132.52C339.537 130.653 341.643 129.72 344.363 129.72C346.123 129.72 347.537 130.08 348.603 130.8C349.697 131.493 350.457 132.293 350.883 133.2H351.963L351.763 138.28H351.003C351.003 137.16 350.79 136.24 350.363 135.52C349.937 134.8 349.323 134.267 348.523 133.92C347.723 133.573 346.737 133.4 345.563 133.4C344.603 133.4 343.777 133.52 343.083 133.76C342.417 134 341.857 134.373 341.403 134.88C340.977 135.387 340.657 136.067 340.443 136.92C340.257 137.773 340.163 138.813 340.163 140.04C340.163 141.24 340.257 142.28 340.443 143.16C340.657 144.013 340.977 144.707 341.403 145.24C341.857 145.747 342.43 146.12 343.123 146.36C343.817 146.6 344.63 146.72 345.563 146.72C346.737 146.72 347.723 146.547 348.523 146.2C349.323 145.827 349.937 145.28 350.363 144.56C350.79 143.84 351.003 142.933 351.003 141.84H351.763L351.963 146.72H351.163C350.71 147.867 349.923 148.773 348.803 149.44C347.71 150.08 346.31 150.4 344.603 150.4ZM355.323 150H351.323V145.28L351.003 144.76V123.2H355.323V150ZM376.218 150H372.218V146.08L372.098 145V137.36C372.098 135.867 371.738 134.853 371.018 134.32C370.324 133.787 369.191 133.52 367.618 133.52C366.044 133.52 364.911 133.8 364.218 134.36C363.551 134.92 363.218 135.853 363.218 137.16V137.76H359.058V137.36C359.058 135.867 359.418 134.547 360.138 133.4C360.884 132.253 361.911 131.36 363.218 130.72C364.551 130.053 366.098 129.72 367.858 129.72C369.724 129.72 371.271 130.067 372.498 130.76C373.724 131.453 374.644 132.413 375.258 133.64C375.898 134.84 376.218 136.267 376.218 137.92V150ZM364.818 150.4C363.031 150.4 361.524 149.947 360.298 149.04C359.098 148.107 358.498 146.787 358.498 145.08C358.498 143.96 358.751 143.027 359.258 142.28C359.791 141.533 360.551 140.92 361.538 140.44C362.524 139.96 363.724 139.627 365.138 139.44L372.498 138.4V141.44L365.778 142.44C364.631 142.6 363.831 142.84 363.378 143.16C362.924 143.48 362.698 144.013 362.698 144.76C362.698 145.533 362.964 146.093 363.498 146.44C364.058 146.787 364.964 146.96 366.218 146.96C367.178 146.96 368.098 146.813 368.978 146.52C369.884 146.2 370.631 145.68 371.218 144.96C371.804 144.213 372.098 143.173 372.098 141.84L372.658 146.92L372.018 146.88C371.644 147.493 371.124 148.067 370.458 148.6C369.818 149.133 369.031 149.573 368.098 149.92C367.164 150.24 366.071 150.4 364.818 150.4ZM388.44 150C386.253 150 384.573 149.533 383.4 148.6C382.253 147.667 381.68 146.093 381.68 143.88V130.56L382.68 125.2H386V143.68C386 144.72 386.253 145.387 386.76 145.68C387.293 145.947 388.24 146.08 389.6 146.08H392V149.64C391.6 149.747 391.08 149.84 390.44 149.92C389.8 149.973 389.133 150 388.44 150ZM392 133.72H378.36V130.12H392V133.72ZM403.062 150.4C400.902 150.4 399.102 149.973 397.662 149.12C396.222 148.24 395.155 147.027 394.462 145.48C393.768 143.907 393.422 142.093 393.422 140.04C393.422 137.987 393.808 136.187 394.582 134.64C395.382 133.093 396.502 131.893 397.942 131.04C399.382 130.16 401.088 129.72 403.062 129.72C404.848 129.72 406.422 130.067 407.782 130.76C409.168 131.427 410.235 132.4 410.982 133.68C411.755 134.96 412.142 136.507 412.142 138.32C412.142 138.853 412.115 139.373 412.062 139.88C412.035 140.36 411.995 140.76 411.942 141.08H395.462V138.2H408.422L407.982 138.6C408.088 137.373 407.955 136.373 407.582 135.6C407.235 134.827 406.662 134.253 405.862 133.88C405.088 133.507 404.115 133.32 402.942 133.32C400.835 133.32 399.395 133.853 398.622 134.92C397.848 135.96 397.462 137.4 397.462 139.24V140.44C397.462 141.773 397.622 142.907 397.942 143.84C398.288 144.747 398.875 145.427 399.702 145.88C400.528 146.333 401.662 146.56 403.102 146.56C404.782 146.56 405.968 146.293 406.662 145.76C407.355 145.227 407.702 144.52 407.702 143.64V143.32H411.982V143.68C411.982 145.04 411.608 146.227 410.862 147.24C410.115 148.227 409.075 149 407.742 149.56C406.435 150.12 404.875 150.4 403.062 150.4ZM426.723 156.8C426.19 156.8 425.643 156.76 425.083 156.68C424.523 156.627 424.07 156.547 423.723 156.44V152.92H426.483C427.31 152.92 427.923 152.8 428.323 152.56C428.723 152.347 429.096 151.88 429.443 151.16L430.683 148.36L430.323 149.76L421.723 130.12H426.483L430.483 139.76L432.283 144.08H432.643L434.243 139.76L437.883 130.12H442.683L433.243 152.32C432.763 153.52 432.216 154.44 431.603 155.08C430.99 155.72 430.283 156.16 429.483 156.4C428.71 156.667 427.79 156.8 426.723 156.8ZM453.068 150.4C451.041 150.4 449.281 149.973 447.788 149.12C446.295 148.24 445.148 147.027 444.348 145.48C443.548 143.907 443.148 142.093 443.148 140.04C443.148 137.987 443.548 136.187 444.348 134.64C445.148 133.093 446.295 131.893 447.788 131.04C449.281 130.16 451.041 129.72 453.068 129.72C455.095 129.72 456.828 130.16 458.268 131.04C459.735 131.893 460.855 133.093 461.628 134.64C462.428 136.187 462.828 137.987 462.828 140.04C462.828 142.093 462.428 143.907 461.628 145.48C460.855 147.027 459.735 148.24 458.268 149.12C456.828 149.973 455.095 150.4 453.068 150.4ZM453.068 146.56C455.148 146.56 456.601 146.04 457.428 145C458.255 143.933 458.668 142.28 458.668 140.04C458.668 137.8 458.255 136.16 457.428 135.12C456.601 134.08 455.148 133.56 453.068 133.56C450.961 133.56 449.495 134.08 448.668 135.12C447.841 136.16 447.428 137.8 447.428 140.04C447.428 142.28 447.841 143.933 448.668 145C449.495 146.04 450.961 146.56 453.068 146.56ZM473.458 150.4C471.751 150.4 470.338 150.053 469.217 149.36C468.098 148.64 467.271 147.68 466.738 146.48C466.204 145.253 465.938 143.893 465.938 142.4V130.12H470.258V141.6C470.258 143.387 470.631 144.68 471.378 145.48C472.124 146.28 473.351 146.68 475.058 146.68C476.178 146.68 477.124 146.507 477.898 146.16C478.671 145.787 479.258 145.213 479.658 144.44C480.058 143.64 480.258 142.6 480.258 141.32H481.378V146.04H480.418C480.124 146.787 479.671 147.493 479.058 148.16C478.471 148.827 477.711 149.373 476.778 149.8C475.871 150.2 474.764 150.4 473.458 150.4ZM484.578 150H480.578V144.04L480.258 143.84V130.12H484.578V150ZM493.151 150H488.831V130H492.791V135.56L493.151 135.76V150ZM493.151 137.04H492.151V133.16H492.991C493.391 132.227 494.044 131.427 494.951 130.76C495.884 130.067 497.084 129.72 498.551 129.72C499.964 129.72 501.084 130.027 501.911 130.64C502.764 131.253 503.378 132.067 503.751 133.08C504.124 134.093 504.311 135.227 504.311 136.48V137.8H499.991V137C499.991 135.667 499.764 134.733 499.311 134.2C498.858 133.667 498.004 133.4 496.751 133.4C495.444 133.4 494.511 133.68 493.951 134.24C493.418 134.773 493.151 135.707 493.151 137.04ZM525.766 150.4C523.979 150.4 522.526 150.053 521.406 149.36C520.312 148.64 519.552 147.827 519.126 146.92H518.046L518.246 141.84H519.006C519.006 142.933 519.206 143.84 519.606 144.56C520.032 145.28 520.659 145.827 521.486 146.2C522.312 146.547 523.299 146.72 524.446 146.72C525.379 146.72 526.192 146.6 526.886 146.36C527.579 146.12 528.139 145.747 528.566 145.24C529.019 144.733 529.339 144.053 529.526 143.2C529.739 142.32 529.846 141.267 529.846 140.04C529.846 138.813 529.739 137.787 529.526 136.96C529.339 136.107 529.019 135.413 528.566 134.88C528.139 134.347 527.579 133.973 526.886 133.76C526.219 133.52 525.406 133.4 524.446 133.4C523.299 133.4 522.312 133.587 521.486 133.96C520.659 134.307 520.032 134.84 519.606 135.56C519.206 136.253 519.006 137.16 519.006 138.28H518.246L518.046 133.4H518.846C519.326 132.253 520.112 131.36 521.206 130.72C522.326 130.053 523.752 129.72 525.486 129.72C528.286 129.72 530.432 130.653 531.926 132.52C533.419 134.387 534.166 136.893 534.166 140.04C534.166 143.187 533.446 145.707 532.006 147.6C530.566 149.467 528.486 150.4 525.766 150.4ZM519.006 156.92H514.726V130.12H518.646V134.84L519.006 135.36V156.92ZM546.935 150.4C544.909 150.4 543.149 149.973 541.655 149.12C540.162 148.24 539.015 147.027 538.215 145.48C537.415 143.907 537.015 142.093 537.015 140.04C537.015 137.987 537.415 136.187 538.215 134.64C539.015 133.093 540.162 131.893 541.655 131.04C543.149 130.16 544.909 129.72 546.935 129.72C548.962 129.72 550.695 130.16 552.135 131.04C553.602 131.893 554.722 133.093 555.495 134.64C556.295 136.187 556.695 137.987 556.695 140.04C556.695 142.093 556.295 143.907 555.495 145.48C554.722 147.027 553.602 148.24 552.135 149.12C550.695 149.973 548.962 150.4 546.935 150.4ZM546.935 146.56C549.015 146.56 550.469 146.04 551.295 145C552.122 143.933 552.535 142.28 552.535 140.04C552.535 137.8 552.122 136.16 551.295 135.12C550.469 134.08 549.015 133.56 546.935 133.56C544.829 133.56 543.362 134.08 542.535 135.12C541.709 136.16 541.295 137.8 541.295 140.04C541.295 142.28 541.709 143.933 542.535 145C543.362 146.04 544.829 146.56 546.935 146.56ZM564.245 150H559.925V130H563.885V135.56L564.245 135.76V150ZM564.245 137.04H563.245V133.16H564.085C564.485 132.227 565.138 131.427 566.045 130.76C566.978 130.067 568.178 129.72 569.645 129.72C571.058 129.72 572.178 130.027 573.005 130.64C573.858 131.253 574.471 132.067 574.845 133.08C575.218 134.093 575.405 135.227 575.405 136.48V137.8H571.085V137C571.085 135.667 570.858 134.733 570.405 134.2C569.951 133.667 569.098 133.4 567.845 133.4C566.538 133.4 565.605 133.68 565.045 134.24C564.511 134.773 564.245 135.707 564.245 137.04ZM586.799 150C584.613 150 582.933 149.533 581.759 148.6C580.613 147.667 580.039 146.093 580.039 143.88V130.56L581.039 125.2H584.359V143.68C584.359 144.72 584.613 145.387 585.119 145.68C585.653 145.947 586.599 146.08 587.959 146.08H590.359V149.64C589.959 149.747 589.439 149.84 588.799 149.92C588.159 149.973 587.493 150 586.799 150ZM590.359 133.72H576.719V130.12H590.359V133.72ZM597.668 150H593.348V130.28C593.348 128.733 593.641 127.44 594.228 126.4C594.814 125.36 595.681 124.573 596.828 124.04C598.001 123.48 599.441 123.2 601.148 123.2C601.414 123.2 601.681 123.2 601.947 123.2C602.214 123.2 602.481 123.2 602.748 123.2V126.64H600.348C599.388 126.64 598.681 126.827 598.228 127.2C597.774 127.573 597.548 128.187 597.548 129.04V130.8L597.668 131.84V150ZM602.748 133.72H590.428V130.12H602.748V133.72ZM613.381 150.4C611.354 150.4 609.594 149.973 608.101 149.12C606.607 148.24 605.461 147.027 604.661 145.48C603.861 143.907 603.461 142.093 603.461 140.04C603.461 137.987 603.861 136.187 604.661 134.64C605.461 133.093 606.607 131.893 608.101 131.04C609.594 130.16 611.354 129.72 613.381 129.72C615.407 129.72 617.141 130.16 618.581 131.04C620.047 131.893 621.167 133.093 621.941 134.64C622.741 136.187 623.141 137.987 623.141 140.04C623.141 142.093 622.741 143.907 621.941 145.48C621.167 147.027 620.047 148.24 618.581 149.12C617.141 149.973 615.407 150.4 613.381 150.4ZM613.381 146.56C615.461 146.56 616.914 146.04 617.741 145C618.567 143.933 618.981 142.28 618.981 140.04C618.981 137.8 618.567 136.16 617.741 135.12C616.914 134.08 615.461 133.56 613.381 133.56C611.274 133.56 609.807 134.08 608.981 135.12C608.154 136.16 607.741 137.8 607.741 140.04C607.741 142.28 608.154 143.933 608.981 145C609.807 146.04 611.274 146.56 613.381 146.56ZM630.729 150H626.409V123.2H630.729V150ZM639.004 127.6H634.724L634.684 123.2H639.004V127.6ZM639.044 150H634.724V130H639.044V150ZM651.935 150.4C649.909 150.4 648.149 149.973 646.655 149.12C645.162 148.24 644.015 147.027 643.215 145.48C642.415 143.907 642.015 142.093 642.015 140.04C642.015 137.987 642.415 136.187 643.215 134.64C644.015 133.093 645.162 131.893 646.655 131.04C648.149 130.16 649.909 129.72 651.935 129.72C653.962 129.72 655.695 130.16 657.135 131.04C658.602 131.893 659.722 133.093 660.495 134.64C661.295 136.187 661.695 137.987 661.695 140.04C661.695 142.093 661.295 143.907 660.495 145.48C659.722 147.027 658.602 148.24 657.135 149.12C655.695 149.973 653.962 150.4 651.935 150.4ZM651.935 146.56C654.015 146.56 655.469 146.04 656.295 145C657.122 143.933 657.535 142.28 657.535 140.04C657.535 137.8 657.122 136.16 656.295 135.12C655.469 134.08 654.015 133.56 651.935 133.56C649.829 133.56 648.362 134.08 647.535 135.12C646.709 136.16 646.295 137.8 646.295 140.04C646.295 142.28 646.709 143.933 647.535 145C648.362 146.04 649.829 146.56 651.935 146.56ZM217.468 199H213.468V195.08L213.348 194V186.36C213.348 184.867 212.988 183.853 212.268 183.32C211.574 182.787 210.441 182.52 208.868 182.52C207.294 182.52 206.161 182.8 205.468 183.36C204.801 183.92 204.468 184.853 204.468 186.16V186.76H200.308V186.36C200.308 184.867 200.668 183.547 201.388 182.4C202.134 181.253 203.161 180.36 204.468 179.72C205.801 179.053 207.348 178.72 209.108 178.72C210.974 178.72 212.521 179.067 213.748 179.76C214.974 180.453 215.894 181.413 216.508 182.64C217.148 183.84 217.468 185.267 217.468 186.92V199ZM206.068 199.4C204.281 199.4 202.774 198.947 201.548 198.04C200.348 197.107 199.748 195.787 199.748 194.08C199.748 192.96 200.001 192.027 200.508 191.28C201.041 190.533 201.801 189.92 202.788 189.44C203.774 188.96 204.974 188.627 206.388 188.44L213.748 187.4V190.44L207.028 191.44C205.881 191.6 205.081 191.84 204.628 192.16C204.174 192.48 203.948 193.013 203.948 193.76C203.948 194.533 204.214 195.093 204.748 195.44C205.308 195.787 206.214 195.96 207.468 195.96C208.428 195.96 209.348 195.813 210.228 195.52C211.134 195.2 211.881 194.68 212.468 193.96C213.054 193.213 213.348 192.173 213.348 190.84L213.908 195.92L213.268 195.88C212.894 196.493 212.374 197.067 211.708 197.6C211.068 198.133 210.281 198.573 209.348 198.92C208.414 199.24 207.321 199.4 206.068 199.4ZM240.124 199H235.804V187.44C235.804 185.68 235.471 184.413 234.804 183.64C234.138 182.84 232.884 182.44 231.044 182.44C229.871 182.44 228.911 182.613 228.164 182.96C227.418 183.28 226.858 183.813 226.484 184.56C226.111 185.28 225.924 186.267 225.924 187.52H225.164L224.804 182.84H225.764C226.058 182.12 226.498 181.453 227.084 180.84C227.671 180.227 228.418 179.72 229.324 179.32C230.258 178.92 231.364 178.72 232.644 178.72C234.378 178.72 235.791 179.053 236.884 179.72C237.978 180.387 238.791 181.307 239.324 182.48C239.858 183.653 240.124 185 240.124 186.52V199ZM225.924 199H221.604V179.12H225.564V185.08L225.924 185.28V199ZM252.143 199.4C249.316 199.4 247.143 198.467 245.623 196.6C244.129 194.707 243.382 192.187 243.382 189.04C243.382 185.893 244.116 183.387 245.583 181.52C247.076 179.653 249.183 178.72 251.903 178.72C253.663 178.72 255.076 179.08 256.143 179.8C257.236 180.493 257.996 181.293 258.423 182.2H259.503L259.303 187.28H258.543C258.543 186.16 258.329 185.24 257.903 184.52C257.476 183.8 256.863 183.267 256.063 182.92C255.263 182.573 254.276 182.4 253.103 182.4C252.143 182.4 251.316 182.52 250.623 182.76C249.956 183 249.396 183.373 248.943 183.88C248.516 184.387 248.196 185.067 247.983 185.92C247.796 186.773 247.703 187.813 247.703 189.04C247.703 190.24 247.796 191.28 247.983 192.16C248.196 193.013 248.516 193.707 248.943 194.24C249.396 194.747 249.969 195.12 250.663 195.36C251.356 195.6 252.169 195.72 253.103 195.72C254.276 195.72 255.263 195.547 256.063 195.2C256.863 194.827 257.476 194.28 257.903 193.56C258.329 192.84 258.543 191.933 258.543 190.84H259.303L259.503 195.72H258.703C258.249 196.867 257.463 197.773 256.343 198.44C255.249 199.08 253.849 199.4 252.143 199.4ZM262.863 199H258.863V194.28L258.543 193.76V172.2H262.863V199ZM283.491 199.4C281.331 199.4 279.531 198.973 278.091 198.12C276.651 197.24 275.585 196.027 274.891 194.48C274.198 192.907 273.851 191.093 273.851 189.04C273.851 186.987 274.238 185.187 275.011 183.64C275.811 182.093 276.931 180.893 278.371 180.04C279.811 179.16 281.518 178.72 283.491 178.72C285.278 178.72 286.851 179.067 288.211 179.76C289.598 180.427 290.665 181.4 291.411 182.68C292.185 183.96 292.571 185.507 292.571 187.32C292.571 187.853 292.545 188.373 292.491 188.88C292.465 189.36 292.425 189.76 292.371 190.08H275.891V187.2H288.851L288.411 187.6C288.518 186.373 288.385 185.373 288.011 184.6C287.665 183.827 287.091 183.253 286.291 182.88C285.518 182.507 284.545 182.32 283.371 182.32C281.265 182.32 279.825 182.853 279.051 183.92C278.278 184.96 277.891 186.4 277.891 188.24V189.44C277.891 190.773 278.051 191.907 278.371 192.84C278.718 193.747 279.305 194.427 280.131 194.88C280.958 195.333 282.091 195.56 283.531 195.56C285.211 195.56 286.398 195.293 287.091 194.76C287.785 194.227 288.131 193.52 288.131 192.64V192.32H292.411V192.68C292.411 194.04 292.038 195.227 291.291 196.24C290.545 197.227 289.505 198 288.171 198.56C286.865 199.12 285.305 199.4 283.491 199.4ZM298.042 199H293.162L300.322 189V188.68L293.162 179.12H298.202L303.562 186.44H303.842L309.162 179.12H314.042L306.922 188.88V189.2L314.042 199H309.002L303.642 191.4H303.362L298.042 199ZM326.859 199.4C325.073 199.4 323.619 199.053 322.499 198.36C321.406 197.64 320.646 196.827 320.219 195.92H319.139L319.339 190.84H320.099C320.099 191.933 320.299 192.84 320.699 193.56C321.126 194.28 321.753 194.827 322.579 195.2C323.406 195.547 324.393 195.72 325.539 195.72C326.473 195.72 327.286 195.6 327.979 195.36C328.673 195.12 329.233 194.747 329.659 194.24C330.113 193.733 330.433 193.053 330.619 192.2C330.833 191.32 330.939 190.267 330.939 189.04C330.939 187.813 330.833 186.787 330.619 185.96C330.433 185.107 330.113 184.413 329.659 183.88C329.233 183.347 328.673 182.973 327.979 182.76C327.313 182.52 326.499 182.4 325.539 182.4C324.393 182.4 323.406 182.587 322.579 182.96C321.753 183.307 321.126 183.84 320.699 184.56C320.299 185.253 320.099 186.16 320.099 187.28H319.339L319.139 182.4H319.939C320.419 181.253 321.206 180.36 322.299 179.72C323.419 179.053 324.846 178.72 326.579 178.72C329.379 178.72 331.526 179.653 333.019 181.52C334.513 183.387 335.259 185.893 335.259 189.04C335.259 192.187 334.539 194.707 333.099 196.6C331.659 198.467 329.579 199.4 326.859 199.4ZM320.099 205.92H315.819V179.12H319.739V183.84L320.099 184.36V205.92ZM343.073 199H338.753V172.2H343.073V199ZM356.271 199.4C354.245 199.4 352.485 198.973 350.991 198.12C349.498 197.24 348.351 196.027 347.551 194.48C346.751 192.907 346.351 191.093 346.351 189.04C346.351 186.987 346.751 185.187 347.551 183.64C348.351 182.093 349.498 180.893 350.991 180.04C352.485 179.16 354.245 178.72 356.271 178.72C358.298 178.72 360.031 179.16 361.471 180.04C362.938 180.893 364.058 182.093 364.831 183.64C365.631 185.187 366.031 186.987 366.031 189.04C366.031 191.093 365.631 192.907 364.831 194.48C364.058 196.027 362.938 197.24 361.471 198.12C360.031 198.973 358.298 199.4 356.271 199.4ZM356.271 195.56C358.351 195.56 359.805 195.04 360.631 194C361.458 192.933 361.871 191.28 361.871 189.04C361.871 186.8 361.458 185.16 360.631 184.12C359.805 183.08 358.351 182.56 356.271 182.56C354.165 182.56 352.698 183.08 351.871 184.12C351.045 185.16 350.631 186.8 350.631 189.04C350.631 191.28 351.045 192.933 351.871 194C352.698 195.04 354.165 195.56 356.271 195.56ZM373.581 199H369.261V179H373.221V184.56L373.581 184.76V199ZM373.581 186.04H372.581V182.16H373.421C373.821 181.227 374.474 180.427 375.381 179.76C376.314 179.067 377.514 178.72 378.981 178.72C380.394 178.72 381.514 179.027 382.341 179.64C383.194 180.253 383.807 181.067 384.181 182.08C384.554 183.093 384.741 184.227 384.741 185.48V186.8H380.421V186C380.421 184.667 380.194 183.733 379.741 183.2C379.287 182.667 378.434 182.4 377.181 182.4C375.874 182.4 374.941 182.68 374.381 183.24C373.847 183.773 373.581 184.707 373.581 186.04ZM396.343 199.4C394.183 199.4 392.383 198.973 390.943 198.12C389.503 197.24 388.436 196.027 387.743 194.48C387.049 192.907 386.703 191.093 386.703 189.04C386.703 186.987 387.089 185.187 387.863 183.64C388.663 182.093 389.783 180.893 391.223 180.04C392.663 179.16 394.369 178.72 396.343 178.72C398.129 178.72 399.703 179.067 401.063 179.76C402.449 180.427 403.516 181.4 404.263 182.68C405.036 183.96 405.423 185.507 405.423 187.32C405.423 187.853 405.396 188.373 405.343 188.88C405.316 189.36 405.276 189.76 405.223 190.08H388.743V187.2H401.703L401.263 187.6C401.369 186.373 401.236 185.373 400.863 184.6C400.516 183.827 399.943 183.253 399.143 182.88C398.369 182.507 397.396 182.32 396.223 182.32C394.116 182.32 392.676 182.853 391.903 183.92C391.129 184.96 390.743 186.4 390.743 188.24V189.44C390.743 190.773 390.903 191.907 391.223 192.84C391.569 193.747 392.156 194.427 392.983 194.88C393.809 195.333 394.943 195.56 396.383 195.56C398.063 195.56 399.249 195.293 399.943 194.76C400.636 194.227 400.983 193.52 400.983 192.64V192.32H405.263V192.68C405.263 194.04 404.889 195.227 404.143 196.24C403.396 197.227 402.356 198 401.023 198.56C399.716 199.12 398.156 199.4 396.343 199.4ZM425.724 199.4C423.698 199.4 421.938 198.973 420.444 198.12C418.951 197.24 417.804 196.027 417.004 194.48C416.204 192.907 415.804 191.093 415.804 189.04C415.804 186.987 416.204 185.187 417.004 183.64C417.804 182.093 418.951 180.893 420.444 180.04C421.938 179.16 423.698 178.72 425.724 178.72C427.751 178.72 429.484 179.16 430.924 180.04C432.391 180.893 433.511 182.093 434.284 183.64C435.084 185.187 435.484 186.987 435.484 189.04C435.484 191.093 435.084 192.907 434.284 194.48C433.511 196.027 432.391 197.24 430.924 198.12C429.484 198.973 427.751 199.4 425.724 199.4ZM425.724 195.56C427.804 195.56 429.258 195.04 430.084 194C430.911 192.933 431.324 191.28 431.324 189.04C431.324 186.8 430.911 185.16 430.084 184.12C429.258 183.08 427.804 182.56 425.724 182.56C423.618 182.56 422.151 183.08 421.324 184.12C420.498 185.16 420.084 186.8 420.084 189.04C420.084 191.28 420.498 192.933 421.324 194C422.151 195.04 423.618 195.56 425.724 195.56ZM449.594 199.4C447.807 199.4 446.354 199.053 445.234 198.36C444.14 197.64 443.38 196.827 442.954 195.92H441.874L442.074 190.84H442.834C442.834 191.933 443.034 192.84 443.434 193.56C443.86 194.28 444.487 194.827 445.314 195.2C446.14 195.547 447.127 195.72 448.274 195.72C449.207 195.72 450.02 195.6 450.714 195.36C451.407 195.12 451.967 194.747 452.394 194.24C452.847 193.733 453.167 193.053 453.354 192.2C453.567 191.32 453.674 190.267 453.674 189.04C453.674 187.813 453.567 186.787 453.354 185.96C453.167 185.107 452.847 184.413 452.394 183.88C451.967 183.347 451.407 182.973 450.714 182.76C450.047 182.52 449.234 182.4 448.274 182.4C447.127 182.4 446.14 182.587 445.314 182.96C444.487 183.307 443.86 183.84 443.434 184.56C443.034 185.253 442.834 186.16 442.834 187.28H442.074L441.874 182.4H442.674C443.154 181.253 443.94 180.36 445.034 179.72C446.154 179.053 447.58 178.72 449.314 178.72C452.114 178.72 454.26 179.653 455.754 181.52C457.247 183.387 457.994 185.893 457.994 189.04C457.994 192.187 457.274 194.707 455.834 196.6C454.394 198.467 452.314 199.4 449.594 199.4ZM442.834 205.92H438.554V179.12H442.474V183.84L442.834 184.36V205.92ZM472.328 199.4C470.541 199.4 469.088 199.053 467.968 198.36C466.875 197.64 466.115 196.827 465.688 195.92H464.608L464.808 190.84H465.568C465.568 191.933 465.768 192.84 466.168 193.56C466.595 194.28 467.221 194.827 468.048 195.2C468.875 195.547 469.861 195.72 471.008 195.72C471.941 195.72 472.755 195.6 473.448 195.36C474.141 195.12 474.701 194.747 475.128 194.24C475.581 193.733 475.901 193.053 476.088 192.2C476.301 191.32 476.408 190.267 476.408 189.04C476.408 187.813 476.301 186.787 476.088 185.96C475.901 185.107 475.581 184.413 475.128 183.88C474.701 183.347 474.141 182.973 473.448 182.76C472.781 182.52 471.968 182.4 471.008 182.4C469.861 182.4 468.875 182.587 468.048 182.96C467.221 183.307 466.595 183.84 466.168 184.56C465.768 185.253 465.568 186.16 465.568 187.28H464.808L464.608 182.4H465.408C465.888 181.253 466.675 180.36 467.768 179.72C468.888 179.053 470.315 178.72 472.048 178.72C474.848 178.72 476.995 179.653 478.488 181.52C479.981 183.387 480.728 185.893 480.728 189.04C480.728 192.187 480.008 194.707 478.568 196.6C477.128 198.467 475.048 199.4 472.328 199.4ZM465.568 205.92H461.288V179.12H465.208V183.84L465.568 184.36V205.92ZM493.498 199.4C491.471 199.4 489.711 198.973 488.218 198.12C486.724 197.24 485.578 196.027 484.778 194.48C483.978 192.907 483.578 191.093 483.578 189.04C483.578 186.987 483.978 185.187 484.778 183.64C485.578 182.093 486.724 180.893 488.218 180.04C489.711 179.16 491.471 178.72 493.498 178.72C495.524 178.72 497.258 179.16 498.698 180.04C500.164 180.893 501.284 182.093 502.058 183.64C502.858 185.187 503.258 186.987 503.258 189.04C503.258 191.093 502.858 192.907 502.058 194.48C501.284 196.027 500.164 197.24 498.698 198.12C497.258 198.973 495.524 199.4 493.498 199.4ZM493.498 195.56C495.578 195.56 497.031 195.04 497.858 194C498.684 192.933 499.098 191.28 499.098 189.04C499.098 186.8 498.684 185.16 497.858 184.12C497.031 183.08 495.578 182.56 493.498 182.56C491.391 182.56 489.924 183.08 489.098 184.12C488.271 185.16 487.858 186.8 487.858 189.04C487.858 191.28 488.271 192.933 489.098 194C489.924 195.04 491.391 195.56 493.498 195.56ZM510.807 199H506.487V179H510.447V184.56L510.807 184.76V199ZM510.807 186.04H509.807V182.16H510.647C511.047 181.227 511.701 180.427 512.607 179.76C513.541 179.067 514.741 178.72 516.207 178.72C517.621 178.72 518.741 179.027 519.567 179.64C520.421 180.253 521.034 181.067 521.407 182.08C521.781 183.093 521.967 184.227 521.967 185.48V186.8H517.647V186C517.647 184.667 517.421 183.733 516.967 183.2C516.514 182.667 515.661 182.4 514.407 182.4C513.101 182.4 512.167 182.68 511.607 183.24C511.074 183.773 510.807 184.707 510.807 186.04ZM533.362 199C531.175 199 529.495 198.533 528.322 197.6C527.175 196.667 526.602 195.093 526.602 192.88V179.56L527.602 174.2H530.922V192.68C530.922 193.72 531.175 194.387 531.682 194.68C532.215 194.947 533.162 195.08 534.522 195.08H536.922V198.64C536.522 198.747 536.002 198.84 535.362 198.92C534.722 198.973 534.055 199 533.362 199ZM536.922 182.72H523.282V179.12H536.922V182.72ZM547.286 199.4C545.579 199.4 544.166 199.053 543.046 198.36C541.926 197.64 541.099 196.68 540.566 195.48C540.032 194.253 539.766 192.893 539.766 191.4V179.12H544.086V190.6C544.086 192.387 544.459 193.68 545.206 194.48C545.952 195.28 547.179 195.68 548.886 195.68C550.006 195.68 550.952 195.507 551.726 195.16C552.499 194.787 553.086 194.213 553.486 193.44C553.886 192.64 554.086 191.6 554.086 190.32H555.206V195.04H554.246C553.952 195.787 553.499 196.493 552.886 197.16C552.299 197.827 551.539 198.373 550.606 198.8C549.699 199.2 548.592 199.4 547.286 199.4ZM558.406 199H554.406V193.04L554.086 192.84V179.12H558.406V199ZM581.179 199H576.859V187.44C576.859 185.68 576.526 184.413 575.859 183.64C575.192 182.84 573.939 182.44 572.099 182.44C570.926 182.44 569.966 182.613 569.219 182.96C568.472 183.28 567.912 183.813 567.539 184.56C567.166 185.28 566.979 186.267 566.979 187.52H566.219L565.859 182.84H566.819C567.112 182.12 567.552 181.453 568.139 180.84C568.726 180.227 569.472 179.72 570.379 179.32C571.312 178.92 572.419 178.72 573.699 178.72C575.432 178.72 576.846 179.053 577.939 179.72C579.032 180.387 579.846 181.307 580.379 182.48C580.912 183.653 581.179 185 581.179 186.52V199ZM566.979 199H562.659V179.12H566.619V185.08L566.979 185.28V199ZM589.355 176.6H585.075L585.035 172.2H589.355V176.6ZM589.395 199H585.075V179H589.395V199ZM601.526 199C599.339 199 597.659 198.533 596.486 197.6C595.339 196.667 594.766 195.093 594.766 192.88V179.56L595.766 174.2H599.086V192.68C599.086 193.72 599.339 194.387 599.846 194.68C600.379 194.947 601.326 195.08 602.686 195.08H605.086V198.64C604.686 198.747 604.166 198.84 603.526 198.92C602.886 198.973 602.219 199 601.526 199ZM605.086 182.72H591.446V179.12H605.086V182.72ZM611.933 176.6H607.653L607.613 172.2H611.933V176.6ZM611.973 199H607.653V179H611.973V199ZM624.585 199.4C622.425 199.4 620.625 198.973 619.185 198.12C617.745 197.24 616.678 196.027 615.985 194.48C615.292 192.907 614.945 191.093 614.945 189.04C614.945 186.987 615.332 185.187 616.105 183.64C616.905 182.093 618.025 180.893 619.465 180.04C620.905 179.16 622.612 178.72 624.585 178.72C626.372 178.72 627.945 179.067 629.305 179.76C630.692 180.427 631.758 181.4 632.505 182.68C633.278 183.96 633.665 185.507 633.665 187.32C633.665 187.853 633.638 188.373 633.585 188.88C633.558 189.36 633.518 189.76 633.465 190.08H616.985V187.2H629.945L629.505 187.6C629.612 186.373 629.478 185.373 629.105 184.6C628.758 183.827 628.185 183.253 627.385 182.88C626.612 182.507 625.638 182.32 624.465 182.32C622.358 182.32 620.918 182.853 620.145 183.92C619.372 184.96 618.985 186.4 618.985 188.24V189.44C618.985 190.773 619.145 191.907 619.465 192.84C619.812 193.747 620.398 194.427 621.225 194.88C622.052 195.333 623.185 195.56 624.625 195.56C626.305 195.56 627.492 195.293 628.185 194.76C628.878 194.227 629.225 193.52 629.225 192.64V192.32H633.505V192.68C633.505 194.04 633.132 195.227 632.385 196.24C631.638 197.227 630.598 198 629.265 198.56C627.958 199.12 626.398 199.4 624.585 199.4ZM645.668 199.4C642.761 199.4 640.561 198.827 639.068 197.68C637.574 196.507 636.828 194.707 636.828 192.28V192.2H640.988V192.92C640.988 193.613 641.121 194.187 641.388 194.64C641.681 195.067 642.161 195.387 642.828 195.6C643.521 195.787 644.494 195.88 645.747 195.88C646.814 195.88 647.614 195.8 648.148 195.64C648.708 195.453 649.081 195.2 649.268 194.88C649.454 194.56 649.548 194.16 649.548 193.68C649.548 192.88 649.268 192.32 648.708 192C648.148 191.653 647.148 191.347 645.708 191.08L642.588 190.56C641.414 190.32 640.388 189.987 639.508 189.56C638.654 189.107 637.988 188.493 637.508 187.72C637.054 186.92 636.828 185.92 636.828 184.72C636.828 182.933 637.534 181.493 638.948 180.4C640.361 179.28 642.361 178.72 644.948 178.72C646.521 178.72 647.921 178.973 649.148 179.48C650.374 179.987 651.348 180.747 652.068 181.76C652.788 182.773 653.148 184.04 653.148 185.56V185.92H649.028V185.44C649.028 184.8 648.921 184.253 648.708 183.8C648.494 183.32 648.094 182.947 647.508 182.68C646.921 182.413 646.028 182.28 644.828 182.28C643.254 182.28 642.214 182.48 641.708 182.88C641.201 183.28 640.948 183.867 640.948 184.64C640.948 185.413 641.174 185.96 641.628 186.28C642.108 186.573 643.041 186.867 644.428 187.16L647.828 187.8C649.108 188.04 650.174 188.4 651.028 188.88C651.881 189.36 652.521 189.987 652.948 190.76C653.401 191.533 653.628 192.453 653.628 193.52C653.628 195.387 652.921 196.84 651.508 197.88C650.121 198.893 648.174 199.4 645.668 199.4ZM661.712 199H656.232V192.8H661.712V199Z" fill="black"/>
<rect x="51" y="432" width="293" height="293" rx="146.5" fill="#121D26"/>
<path d="M176.487 675.596C173.542 681.309 175.77 688.415 181.844 690.518C193.302 694.483 205.549 695.859 217.694 694.48C233.71 692.661 248.827 686.135 261.134 675.724C273.441 665.314 282.385 651.489 286.834 635.996C290.207 624.248 290.882 611.942 288.872 599.985C287.806 593.647 281.167 590.271 275.045 592.228C268.923 594.185 265.673 600.748 266.375 607.137C267.199 614.632 266.564 622.253 264.462 629.571C261.284 640.639 254.894 650.517 246.102 657.954C237.31 665.391 226.51 670.053 215.068 671.352C207.503 672.211 199.881 671.574 192.627 669.519C186.443 667.766 179.432 669.883 176.487 675.596Z" fill="white"/>
<path fill-rule="evenodd" clip-rule="evenodd" d="M183.988 355.809L335.734 405.169L335.735 405.248C338.254 406.067 340.451 407.657 342.015 409.794C343.579 411.931 344.431 414.506 344.45 417.154C344.47 419.802 343.655 422.389 342.122 424.548C340.589 426.708 338.415 428.33 335.909 429.185L266.506 452.87C266.526 452.902 266.546 452.933 266.565 452.965L241.815 461.402C241.782 461.357 241.748 461.312 241.714 461.266L184.895 480.603C182.312 481.485 179.512 481.505 176.916 480.661L156.551 474.059L156.543 474.056L156.225 473.953L119.822 462.152C119.805 462.176 119.788 462.2 119.771 462.223L94.8163 454.194C94.8477 454.142 94.8792 454.09 94.9107 454.039L41.8155 436.778L42.605 545.425C42.6293 548.77 41.3236 551.989 38.975 554.371C36.6264 556.754 33.4274 558.107 30.0817 558.131C26.7361 558.155 23.5177 556.85 21.1348 554.501C18.7518 552.153 17.3994 548.954 17.3751 545.608L16.4584 419.458C16.4389 416.811 17.2531 414.224 18.7856 412.065C20.318 409.905 22.4911 408.283 24.9969 407.427L176.009 355.867C178.593 354.985 181.393 354.965 183.988 355.809Z" fill="#121D26"/>
</g>
<path d="M680.088 1187.46C678.824 1186.75 677.242 1187.63 677.242 1189.04V1201.24C677.242 1201.89 677.603 1202.49 678.189 1202.82L689.151 1208.92C690.415 1209.62 691.997 1208.74 691.997 1207.34V1195.14C691.997 1194.48 691.636 1193.88 691.05 1193.56L680.088 1187.46Z" fill="black"/>
<path d="M678.194 1218.18C677.607 1218.51 676.884 1218.51 676.297 1218.18L665.298 1212.08C664.033 1211.38 662.454 1212.25 662.454 1213.66V1240.17C662.454 1241.58 664.034 1242.46 665.299 1241.75L691.052 1227.44C691.639 1227.12 692 1226.52 692 1225.86V1213.66C692 1212.26 690.418 1211.38 689.154 1212.08L678.194 1218.18Z" fill="black"/>
<path d="M644.912 1233.54C646.176 1234.25 647.758 1233.37 647.758 1231.96V1219.76C647.758 1219.11 647.397 1218.51 646.811 1218.18L635.849 1212.08C634.585 1211.38 633.003 1212.26 633.003 1213.66V1225.86C633.003 1226.52 633.364 1227.12 633.95 1227.44L644.912 1233.54Z" fill="black"/>
<path d="M646.806 1202.82C647.393 1202.49 648.116 1202.49 648.703 1202.82L659.702 1208.92C660.967 1209.62 662.546 1208.75 662.546 1207.34V1180.83C662.546 1179.42 660.966 1178.54 659.701 1179.25L633.948 1193.56C633.361 1193.88 633 1194.48 633 1195.14V1207.34C633 1208.74 634.582 1209.62 635.846 1208.92L646.806 1202.82Z" fill="black"/>
<defs>
<clipPath id="clip0_18934_19639">
<rect width="727" height="1272" rx="20.1569" fill="white"/>
</clipPath>
</defs>
</svg>
