<svg width="727" height="1272" viewBox="0 0 727 1272" fill="none" xmlns="http://www.w3.org/2000/svg">
<g clip-path="url(#clip0_18934_19729)">
<rect width="728" height="1273" rx="20.1569" fill="#F2E635"/>
<path d="M223.076 125H218.756V98.2H223.076V125ZM237.916 125H220.076V121.08H237.916V125ZM237.316 113.48H220.076V109.56H237.316V113.48ZM237.916 102.08H220.076V98.2H237.916V102.08ZM260.163 125H255.843V113.44C255.843 111.68 255.51 110.413 254.843 109.64C254.177 108.84 252.923 108.44 251.083 108.44C249.91 108.44 248.95 108.613 248.203 108.96C247.457 109.28 246.897 109.813 246.523 110.56C246.15 111.28 245.963 112.267 245.963 113.52H245.203L244.843 108.84H245.803C246.097 108.12 246.537 107.453 247.123 106.84C247.71 106.227 248.457 105.72 249.363 105.32C250.297 104.92 251.403 104.72 252.683 104.72C254.417 104.72 255.83 105.053 256.923 105.72C258.017 106.387 258.83 107.307 259.363 108.48C259.897 109.653 260.163 111 260.163 112.52V125ZM245.963 125H241.643V105.12H245.603V111.08L245.963 111.28V125ZM272.385 125C270.199 125 268.519 124.533 267.345 123.6C266.199 122.667 265.625 121.093 265.625 118.88V105.56L266.625 100.2H269.945V118.68C269.945 119.72 270.199 120.387 270.705 120.68C271.239 120.947 272.185 121.08 273.545 121.08H275.945V124.64C275.545 124.747 275.025 124.84 274.385 124.92C273.745 124.973 273.079 125 272.385 125ZM275.945 108.72H262.305V105.12H275.945V108.72ZM287.007 125.4C284.847 125.4 283.047 124.973 281.607 124.12C280.167 123.24 279.1 122.027 278.407 120.48C277.714 118.907 277.367 117.093 277.367 115.04C277.367 112.987 277.754 111.187 278.527 109.64C279.327 108.093 280.447 106.893 281.887 106.04C283.327 105.16 285.034 104.72 287.007 104.72C288.794 104.72 290.367 105.067 291.727 105.76C293.114 106.427 294.18 107.4 294.927 108.68C295.7 109.96 296.087 111.507 296.087 113.32C296.087 113.853 296.06 114.373 296.007 114.88C295.98 115.36 295.94 115.76 295.887 116.08H279.407V113.2H292.367L291.927 113.6C292.034 112.373 291.9 111.373 291.527 110.6C291.18 109.827 290.607 109.253 289.807 108.88C289.034 108.507 288.06 108.32 286.887 108.32C284.78 108.32 283.34 108.853 282.567 109.92C281.794 110.96 281.407 112.4 281.407 114.24V115.44C281.407 116.773 281.567 117.907 281.887 118.84C282.234 119.747 282.82 120.427 283.647 120.88C284.474 121.333 285.607 121.56 287.047 121.56C288.727 121.56 289.914 121.293 290.607 120.76C291.3 120.227 291.647 119.52 291.647 118.64V118.32H295.927V118.68C295.927 120.04 295.554 121.227 294.807 122.24C294.06 123.227 293.02 124 291.687 124.56C290.38 125.12 288.82 125.4 287.007 125.4ZM303.854 125H299.534V105H303.494V110.56L303.854 110.76V125ZM303.854 112.04H302.854V108.16H303.694C304.094 107.227 304.747 106.427 305.654 105.76C306.587 105.067 307.787 104.72 309.254 104.72C310.667 104.72 311.787 105.027 312.614 105.64C313.467 106.253 314.081 107.067 314.454 108.08C314.827 109.093 315.014 110.227 315.014 111.48V112.8H310.694V112C310.694 110.667 310.467 109.733 310.014 109.2C309.561 108.667 308.707 108.4 307.454 108.4C306.147 108.4 305.214 108.68 304.654 109.24C304.121 109.773 303.854 110.707 303.854 112.04ZM333.909 125C331.722 125 330.042 124.533 328.869 123.6C327.722 122.667 327.149 121.093 327.149 118.88V105.56L328.149 100.2H331.469V118.68C331.469 119.72 331.722 120.387 332.229 120.68C332.762 120.947 333.709 121.08 335.069 121.08H337.469V124.64C337.069 124.747 336.549 124.84 335.909 124.92C335.269 124.973 334.602 125 333.909 125ZM337.469 108.72H323.829V105.12H337.469V108.72ZM359.07 125H354.75V113.44C354.75 111.68 354.403 110.413 353.71 109.64C353.043 108.84 351.803 108.44 349.99 108.44C348.256 108.44 346.963 108.827 346.11 109.6C345.283 110.347 344.87 111.667 344.87 113.56H344.11L344.07 108.44H345.03C345.35 107.827 345.79 107.24 346.35 106.68C346.936 106.093 347.67 105.627 348.55 105.28C349.456 104.907 350.496 104.72 351.67 104.72C353.43 104.72 354.843 105.067 355.91 105.76C357.003 106.427 357.803 107.347 358.31 108.52C358.816 109.693 359.07 111.013 359.07 112.48V125ZM344.87 125H340.55V98.2H344.87V125ZM372.085 125.4C369.925 125.4 368.125 124.973 366.685 124.12C365.245 123.24 364.178 122.027 363.485 120.48C362.792 118.907 362.445 117.093 362.445 115.04C362.445 112.987 362.832 111.187 363.605 109.64C364.405 108.093 365.525 106.893 366.965 106.04C368.405 105.16 370.112 104.72 372.085 104.72C373.872 104.72 375.445 105.067 376.805 105.76C378.192 106.427 379.258 107.4 380.005 108.68C380.778 109.96 381.165 111.507 381.165 113.32C381.165 113.853 381.138 114.373 381.085 114.88C381.058 115.36 381.018 115.76 380.965 116.08H364.485V113.2H377.445L377.005 113.6C377.112 112.373 376.978 111.373 376.605 110.6C376.258 109.827 375.685 109.253 374.885 108.88C374.112 108.507 373.138 108.32 371.965 108.32C369.858 108.32 368.418 108.853 367.645 109.92C366.872 110.96 366.485 112.4 366.485 114.24V115.44C366.485 116.773 366.645 117.907 366.965 118.84C367.312 119.747 367.898 120.427 368.725 120.88C369.552 121.333 370.685 121.56 372.125 121.56C373.805 121.56 374.992 121.293 375.685 120.76C376.378 120.227 376.725 119.52 376.725 118.64V118.32H381.005V118.68C381.005 120.04 380.632 121.227 379.885 122.24C379.138 123.227 378.098 124 376.765 124.56C375.458 125.12 373.898 125.4 372.085 125.4ZM404.187 125.4C401.653 125.4 399.44 124.84 397.547 123.72C395.68 122.573 394.227 120.973 393.187 118.92C392.173 116.84 391.667 114.4 391.667 111.6C391.667 108.8 392.173 106.373 393.187 104.32C394.227 102.24 395.68 100.64 397.547 99.52C399.44 98.3733 401.653 97.8 404.187 97.8C406.747 97.8 408.96 98.3733 410.827 99.52C412.693 100.64 414.133 102.24 415.147 104.32C416.16 106.373 416.667 108.8 416.667 111.6C416.667 114.4 416.16 116.84 415.147 118.92C414.133 120.973 412.693 122.573 410.827 123.72C408.96 124.84 406.747 125.4 404.187 125.4ZM404.187 121.2C406.053 121.2 407.56 120.893 408.707 120.28C409.853 119.64 410.693 118.613 411.227 117.2C411.787 115.787 412.067 113.92 412.067 111.6C412.067 109.253 411.787 107.387 411.227 106C410.693 104.587 409.853 103.56 408.707 102.92C407.56 102.28 406.053 101.96 404.187 101.96C402.347 101.96 400.84 102.28 399.667 102.92C398.493 103.56 397.627 104.587 397.067 106C396.533 107.387 396.267 109.253 396.267 111.6C396.267 113.92 396.533 115.787 397.067 117.2C397.627 118.613 398.493 119.64 399.667 120.28C400.84 120.893 402.347 121.2 404.187 121.2ZM430.156 125H425.876V98.2H430.156V125ZM439.276 102.08H416.756V98.2H439.276V102.08ZM452.421 116.36H442.661V112.48H452.941C454.701 112.48 455.955 112.093 456.701 111.32C457.475 110.547 457.861 109.2 457.861 107.28C457.861 105.36 457.475 104.013 456.701 103.24C455.955 102.467 454.701 102.08 452.941 102.08H442.661V98.2H452.421C454.288 98.2 455.955 98.56 457.421 99.28C458.888 100 460.035 101.04 460.861 102.4C461.715 103.733 462.141 105.36 462.141 107.28C462.141 109.2 461.715 110.84 460.861 112.2C460.035 113.56 458.888 114.6 457.421 115.32C455.955 116.013 454.288 116.36 452.421 116.36ZM445.341 125H441.021V98.2H445.341V125ZM489.577 125H485.577V121.08L485.457 120V112.36C485.457 110.867 485.097 109.853 484.377 109.32C483.684 108.787 482.551 108.52 480.977 108.52C479.404 108.52 478.271 108.8 477.577 109.36C476.911 109.92 476.577 110.853 476.577 112.16V112.76H472.417V112.36C472.417 110.867 472.777 109.547 473.497 108.4C474.244 107.253 475.271 106.36 476.577 105.72C477.911 105.053 479.457 104.72 481.217 104.72C483.084 104.72 484.631 105.067 485.857 105.76C487.084 106.453 488.004 107.413 488.617 108.64C489.257 109.84 489.577 111.267 489.577 112.92V125ZM478.177 125.4C476.391 125.4 474.884 124.947 473.657 124.04C472.457 123.107 471.857 121.787 471.857 120.08C471.857 118.96 472.111 118.027 472.617 117.28C473.151 116.533 473.911 115.92 474.897 115.44C475.884 114.96 477.084 114.627 478.497 114.44L485.857 113.4V116.44L479.137 117.44C477.991 117.6 477.191 117.84 476.737 118.16C476.284 118.48 476.057 119.013 476.057 119.76C476.057 120.533 476.324 121.093 476.857 121.44C477.417 121.787 478.324 121.96 479.577 121.96C480.537 121.96 481.457 121.813 482.337 121.52C483.244 121.2 483.991 120.68 484.577 119.96C485.164 119.213 485.457 118.173 485.457 116.84L486.017 121.92L485.377 121.88C485.004 122.493 484.484 123.067 483.817 123.6C483.177 124.133 482.391 124.573 481.457 124.92C480.524 125.24 479.431 125.4 478.177 125.4ZM512.234 125H507.914V113.44C507.914 111.68 507.58 110.413 506.914 109.64C506.247 108.84 504.994 108.44 503.154 108.44C501.98 108.44 501.02 108.613 500.274 108.96C499.527 109.28 498.967 109.813 498.594 110.56C498.22 111.28 498.034 112.267 498.034 113.52H497.274L496.914 108.84H497.874C498.167 108.12 498.607 107.453 499.194 106.84C499.78 106.227 500.527 105.72 501.434 105.32C502.367 104.92 503.474 104.72 504.754 104.72C506.487 104.72 507.9 105.053 508.994 105.72C510.087 106.387 510.9 107.307 511.434 108.48C511.967 109.653 512.234 111 512.234 112.52V125ZM498.034 125H493.714V105.12H497.674V111.08L498.034 111.28V125ZM524.252 125.4C521.425 125.4 519.252 124.467 517.732 122.6C516.239 120.707 515.492 118.187 515.492 115.04C515.492 111.893 516.225 109.387 517.692 107.52C519.185 105.653 521.292 104.72 524.012 104.72C525.772 104.72 527.185 105.08 528.252 105.8C529.345 106.493 530.105 107.293 530.532 108.2H531.612L531.412 113.28H530.652C530.652 112.16 530.439 111.24 530.012 110.52C529.585 109.8 528.972 109.267 528.172 108.92C527.372 108.573 526.385 108.4 525.212 108.4C524.252 108.4 523.425 108.52 522.732 108.76C522.065 109 521.505 109.373 521.052 109.88C520.625 110.387 520.305 111.067 520.092 111.92C519.905 112.773 519.812 113.813 519.812 115.04C519.812 116.24 519.905 117.28 520.092 118.16C520.305 119.013 520.625 119.707 521.052 120.24C521.505 120.747 522.079 121.12 522.772 121.36C523.465 121.6 524.279 121.72 525.212 121.72C526.385 121.72 527.372 121.547 528.172 121.2C528.972 120.827 529.585 120.28 530.012 119.56C530.439 118.84 530.652 117.933 530.652 116.84H531.412L531.612 121.72H530.812C530.359 122.867 529.572 123.773 528.452 124.44C527.359 125.08 525.959 125.4 524.252 125.4ZM534.972 125H530.972V120.28L530.652 119.76V98.2H534.972V125ZM554.161 125.4C552.454 125.4 551.041 125.053 549.921 124.36C548.801 123.64 547.974 122.68 547.441 121.48C546.907 120.253 546.641 118.893 546.641 117.4V105.12H550.961V116.6C550.961 118.387 551.334 119.68 552.081 120.48C552.827 121.28 554.054 121.68 555.761 121.68C556.881 121.68 557.827 121.507 558.601 121.16C559.374 120.787 559.961 120.213 560.361 119.44C560.761 118.64 560.961 117.6 560.961 116.32H562.081V121.04H561.121C560.827 121.787 560.374 122.493 559.761 123.16C559.174 123.827 558.414 124.373 557.481 124.8C556.574 125.2 555.467 125.4 554.161 125.4ZM565.281 125H561.281V119.04L560.961 118.84V105.12H565.281V125ZM588.054 125H583.734V113.44C583.734 111.68 583.401 110.413 582.734 109.64C582.067 108.84 580.814 108.44 578.974 108.44C577.801 108.44 576.841 108.613 576.094 108.96C575.347 109.28 574.787 109.813 574.414 110.56C574.041 111.28 573.854 112.267 573.854 113.52H573.094L572.734 108.84H573.694C573.987 108.12 574.427 107.453 575.014 106.84C575.601 106.227 576.347 105.72 577.254 105.32C578.187 104.92 579.294 104.72 580.574 104.72C582.307 104.72 583.721 105.053 584.814 105.72C585.907 106.387 586.721 107.307 587.254 108.48C587.787 109.653 588.054 111 588.054 112.52V125ZM573.854 125H569.534V105.12H573.494V111.08L573.854 111.28V125ZM596.51 125H592.19V98.2H596.51V125ZM609.709 125.4C607.682 125.4 605.922 124.973 604.429 124.12C602.935 123.24 601.789 122.027 600.989 120.48C600.189 118.907 599.789 117.093 599.789 115.04C599.789 112.987 600.189 111.187 600.989 109.64C601.789 108.093 602.935 106.893 604.429 106.04C605.922 105.16 607.682 104.72 609.709 104.72C611.735 104.72 613.469 105.16 614.909 106.04C616.375 106.893 617.495 108.093 618.269 109.64C619.069 111.187 619.469 112.987 619.469 115.04C619.469 117.093 619.069 118.907 618.269 120.48C617.495 122.027 616.375 123.24 614.909 124.12C613.469 124.973 611.735 125.4 609.709 125.4ZM609.709 121.56C611.789 121.56 613.242 121.04 614.069 120C614.895 118.933 615.309 117.28 615.309 115.04C615.309 112.8 614.895 111.16 614.069 110.12C613.242 109.08 611.789 108.56 609.709 108.56C607.602 108.56 606.135 109.08 605.309 110.12C604.482 111.16 604.069 112.8 604.069 115.04C604.069 117.28 604.482 118.933 605.309 120C606.135 121.04 607.602 121.56 609.709 121.56ZM631.813 125.44C629.733 125.44 627.973 125 626.533 124.12C625.093 123.24 623.987 122.027 623.213 120.48C622.467 118.933 622.093 117.133 622.093 115.08C622.093 113.027 622.48 111.227 623.253 109.68C624.053 108.107 625.187 106.893 626.653 106.04C628.12 105.16 629.893 104.72 631.973 104.72C633.733 104.72 635.28 105.053 636.613 105.72C637.947 106.387 638.973 107.32 639.693 108.52C640.44 109.72 640.813 111.12 640.813 112.72V113.08H636.533V112.84C636.533 111.373 636.133 110.307 635.333 109.64C634.56 108.947 633.347 108.6 631.693 108.6C629.773 108.6 628.4 109.147 627.573 110.24C626.773 111.307 626.373 112.907 626.373 115.04C626.373 117.2 626.773 118.827 627.573 119.92C628.4 120.987 629.773 121.52 631.693 121.52C633.347 121.52 634.56 121.187 635.333 120.52C636.133 119.827 636.533 118.76 636.533 117.32V117.08H640.813V117.44C640.813 118.987 640.44 120.373 639.693 121.6C638.947 122.8 637.893 123.747 636.533 124.44C635.2 125.107 633.627 125.44 631.813 125.44ZM662.664 125H657.584L652.384 116.84H646.024V113H652.344L657.704 105.12H662.744L655.824 114.52L662.664 125ZM648.424 125H644.104V98.2H648.424V125ZM273.637 180.8C273.104 180.8 272.557 180.76 271.997 180.68C271.437 180.627 270.984 180.547 270.637 180.44V176.92H273.397C274.224 176.92 274.837 176.8 275.237 176.56C275.637 176.347 276.011 175.88 276.357 175.16L277.597 172.36L277.237 173.76L268.637 154.12H273.397L277.397 163.76L279.197 168.08H279.557L281.157 163.76L284.797 154.12H289.597L280.157 176.32C279.677 177.52 279.131 178.44 278.517 179.08C277.904 179.72 277.197 180.16 276.397 180.4C275.624 180.667 274.704 180.8 273.637 180.8ZM299.982 174.4C297.956 174.4 296.196 173.973 294.702 173.12C293.209 172.24 292.062 171.027 291.262 169.48C290.462 167.907 290.062 166.093 290.062 164.04C290.062 161.987 290.462 160.187 291.262 158.64C292.062 157.093 293.209 155.893 294.702 155.04C296.196 154.16 297.956 153.72 299.982 153.72C302.009 153.72 303.742 154.16 305.182 155.04C306.649 155.893 307.769 157.093 308.542 158.64C309.342 160.187 309.742 161.987 309.742 164.04C309.742 166.093 309.342 167.907 308.542 169.48C307.769 171.027 306.649 172.24 305.182 173.12C303.742 173.973 302.009 174.4 299.982 174.4ZM299.982 170.56C302.062 170.56 303.516 170.04 304.342 169C305.169 167.933 305.582 166.28 305.582 164.04C305.582 161.8 305.169 160.16 304.342 159.12C303.516 158.08 302.062 157.56 299.982 157.56C297.876 157.56 296.409 158.08 295.582 159.12C294.756 160.16 294.342 161.8 294.342 164.04C294.342 166.28 294.756 167.933 295.582 169C296.409 170.04 297.876 170.56 299.982 170.56ZM320.372 174.4C318.665 174.4 317.252 174.053 316.132 173.36C315.012 172.64 314.185 171.68 313.652 170.48C313.118 169.253 312.852 167.893 312.852 166.4V154.12H317.172V165.6C317.172 167.387 317.545 168.68 318.292 169.48C319.038 170.28 320.265 170.68 321.972 170.68C323.092 170.68 324.038 170.507 324.812 170.16C325.585 169.787 326.172 169.213 326.572 168.44C326.972 167.64 327.172 166.6 327.172 165.32H328.292V170.04H327.332C327.038 170.787 326.585 171.493 325.972 172.16C325.385 172.827 324.625 173.373 323.692 173.8C322.785 174.2 321.678 174.4 320.372 174.4ZM331.492 174H327.492V168.04L327.172 167.84V154.12H331.492V174ZM340.065 174H335.745V154H339.705V159.56L340.065 159.76V174ZM340.065 161.04H339.065V157.16H339.905C340.305 156.227 340.958 155.427 341.865 154.76C342.798 154.067 343.998 153.72 345.465 153.72C346.878 153.72 347.998 154.027 348.825 154.64C349.678 155.253 350.292 156.067 350.665 157.08C351.038 158.093 351.225 159.227 351.225 160.48V161.8H346.905V161C346.905 159.667 346.678 158.733 346.225 158.2C345.772 157.667 344.918 157.4 343.665 157.4C342.358 157.4 341.425 157.68 340.865 158.24C340.332 158.773 340.065 159.707 340.065 161.04ZM372.68 174.4C370.893 174.4 369.44 174.053 368.32 173.36C367.226 172.64 366.466 171.827 366.04 170.92H364.96L365.16 165.84H365.92C365.92 166.933 366.12 167.84 366.52 168.56C366.946 169.28 367.573 169.827 368.4 170.2C369.226 170.547 370.213 170.72 371.36 170.72C372.293 170.72 373.106 170.6 373.8 170.36C374.493 170.12 375.053 169.747 375.48 169.24C375.933 168.733 376.253 168.053 376.44 167.2C376.653 166.32 376.76 165.267 376.76 164.04C376.76 162.813 376.653 161.787 376.44 160.96C376.253 160.107 375.933 159.413 375.48 158.88C375.053 158.347 374.493 157.973 373.8 157.76C373.133 157.52 372.32 157.4 371.36 157.4C370.213 157.4 369.226 157.587 368.4 157.96C367.573 158.307 366.946 158.84 366.52 159.56C366.12 160.253 365.92 161.16 365.92 162.28H365.16L364.96 157.4H365.76C366.24 156.253 367.026 155.36 368.12 154.72C369.24 154.053 370.666 153.72 372.4 153.72C375.2 153.72 377.346 154.653 378.84 156.52C380.333 158.387 381.08 160.893 381.08 164.04C381.08 167.187 380.36 169.707 378.92 171.6C377.48 173.467 375.4 174.4 372.68 174.4ZM365.92 180.92H361.64V154.12H365.56V158.84L365.92 159.36V180.92ZM393.849 174.4C391.823 174.4 390.063 173.973 388.569 173.12C387.076 172.24 385.929 171.027 385.129 169.48C384.329 167.907 383.929 166.093 383.929 164.04C383.929 161.987 384.329 160.187 385.129 158.64C385.929 157.093 387.076 155.893 388.569 155.04C390.063 154.16 391.823 153.72 393.849 153.72C395.876 153.72 397.609 154.16 399.049 155.04C400.516 155.893 401.636 157.093 402.409 158.64C403.209 160.187 403.609 161.987 403.609 164.04C403.609 166.093 403.209 167.907 402.409 169.48C401.636 171.027 400.516 172.24 399.049 173.12C397.609 173.973 395.876 174.4 393.849 174.4ZM393.849 170.56C395.929 170.56 397.383 170.04 398.209 169C399.036 167.933 399.449 166.28 399.449 164.04C399.449 161.8 399.036 160.16 398.209 159.12C397.383 158.08 395.929 157.56 393.849 157.56C391.743 157.56 390.276 158.08 389.449 159.12C388.623 160.16 388.209 161.8 388.209 164.04C388.209 166.28 388.623 167.933 389.449 169C390.276 170.04 391.743 170.56 393.849 170.56ZM411.159 174H406.839V154H410.799V159.56L411.159 159.76V174ZM411.159 161.04H410.159V157.16H410.999C411.399 156.227 412.052 155.427 412.959 154.76C413.892 154.067 415.092 153.72 416.559 153.72C417.972 153.72 419.092 154.027 419.919 154.64C420.772 155.253 421.385 156.067 421.759 157.08C422.132 158.093 422.319 159.227 422.319 160.48V161.8H417.999V161C417.999 159.667 417.772 158.733 417.319 158.2C416.865 157.667 416.012 157.4 414.759 157.4C413.452 157.4 412.519 157.68 411.959 158.24C411.425 158.773 411.159 159.707 411.159 161.04ZM433.713 174C431.527 174 429.847 173.533 428.673 172.6C427.527 171.667 426.953 170.093 426.953 167.88V154.56L427.953 149.2H431.273V167.68C431.273 168.72 431.527 169.387 432.033 169.68C432.567 169.947 433.513 170.08 434.873 170.08H437.273V173.64C436.873 173.747 436.353 173.84 435.713 173.92C435.073 173.973 434.407 174 433.713 174ZM437.273 157.72H423.633V154.12H437.273V157.72ZM444.582 174H440.262V154.28C440.262 152.733 440.555 151.44 441.142 150.4C441.728 149.36 442.595 148.573 443.742 148.04C444.915 147.48 446.355 147.2 448.062 147.2C448.328 147.2 448.595 147.2 448.862 147.2C449.128 147.2 449.395 147.2 449.662 147.2V150.64H447.262C446.302 150.64 445.595 150.827 445.142 151.2C444.688 151.573 444.462 152.187 444.462 153.04V154.8L444.582 155.84V174ZM449.662 157.72H437.342V154.12H449.662V157.72ZM460.295 174.4C458.268 174.4 456.508 173.973 455.015 173.12C453.521 172.24 452.375 171.027 451.575 169.48C450.775 167.907 450.375 166.093 450.375 164.04C450.375 161.987 450.775 160.187 451.575 158.64C452.375 157.093 453.521 155.893 455.015 155.04C456.508 154.16 458.268 153.72 460.295 153.72C462.321 153.72 464.055 154.16 465.495 155.04C466.961 155.893 468.081 157.093 468.855 158.64C469.655 160.187 470.055 161.987 470.055 164.04C470.055 166.093 469.655 167.907 468.855 169.48C468.081 171.027 466.961 172.24 465.495 173.12C464.055 173.973 462.321 174.4 460.295 174.4ZM460.295 170.56C462.375 170.56 463.828 170.04 464.655 169C465.481 167.933 465.895 166.28 465.895 164.04C465.895 161.8 465.481 160.16 464.655 159.12C463.828 158.08 462.375 157.56 460.295 157.56C458.188 157.56 456.721 158.08 455.895 159.12C455.068 160.16 454.655 161.8 454.655 164.04C454.655 166.28 455.068 167.933 455.895 169C456.721 170.04 458.188 170.56 460.295 170.56ZM477.643 174H473.323V147.2H477.643V174ZM485.918 151.6H481.638L481.598 147.2H485.918V151.6ZM485.958 174H481.638V154H485.958V174ZM498.849 174.4C496.823 174.4 495.063 173.973 493.569 173.12C492.076 172.24 490.929 171.027 490.129 169.48C489.329 167.907 488.929 166.093 488.929 164.04C488.929 161.987 489.329 160.187 490.129 158.64C490.929 157.093 492.076 155.893 493.569 155.04C495.063 154.16 496.823 153.72 498.849 153.72C500.876 153.72 502.609 154.16 504.049 155.04C505.516 155.893 506.636 157.093 507.409 158.64C508.209 160.187 508.609 161.987 508.609 164.04C508.609 166.093 508.209 167.907 507.409 169.48C506.636 171.027 505.516 172.24 504.049 173.12C502.609 173.973 500.876 174.4 498.849 174.4ZM498.849 170.56C500.929 170.56 502.383 170.04 503.209 169C504.036 167.933 504.449 166.28 504.449 164.04C504.449 161.8 504.036 160.16 503.209 159.12C502.383 158.08 500.929 157.56 498.849 157.56C496.743 157.56 495.276 158.08 494.449 159.12C493.623 160.16 493.209 161.8 493.209 164.04C493.209 166.28 493.623 167.933 494.449 169C495.276 170.04 496.743 170.56 498.849 170.56ZM523.973 151.6H519.693V147.2H523.973V151.6ZM515.653 180.8V176.88H517.213C518.253 176.88 518.92 176.747 519.213 176.48C519.533 176.24 519.693 175.72 519.693 174.92V154.12H523.973V174C523.973 175.76 523.68 177.133 523.093 178.12C522.506 179.107 521.693 179.8 520.653 180.2C519.613 180.6 518.36 180.8 516.893 180.8C516.706 180.8 516.52 180.8 516.333 180.8C516.12 180.8 515.893 180.8 515.653 180.8ZM537.131 174.4C535.104 174.4 533.344 173.973 531.851 173.12C530.357 172.24 529.211 171.027 528.411 169.48C527.611 167.907 527.211 166.093 527.211 164.04C527.211 161.987 527.611 160.187 528.411 158.64C529.211 157.093 530.357 155.893 531.851 155.04C533.344 154.16 535.104 153.72 537.131 153.72C539.157 153.72 540.891 154.16 542.331 155.04C543.797 155.893 544.917 157.093 545.691 158.64C546.491 160.187 546.891 161.987 546.891 164.04C546.891 166.093 546.491 167.907 545.691 169.48C544.917 171.027 543.797 172.24 542.331 173.12C540.891 173.973 539.157 174.4 537.131 174.4ZM537.131 170.56C539.211 170.56 540.664 170.04 541.491 169C542.317 167.933 542.731 166.28 542.731 164.04C542.731 161.8 542.317 160.16 541.491 159.12C540.664 158.08 539.211 157.56 537.131 157.56C535.024 157.56 533.557 158.08 532.731 159.12C531.904 160.16 531.491 161.8 531.491 164.04C531.491 166.28 531.904 167.933 532.731 169C533.557 170.04 535.024 170.56 537.131 170.56ZM557.52 174.4C555.813 174.4 554.4 174.053 553.28 173.36C552.16 172.64 551.333 171.68 550.8 170.48C550.267 169.253 550 167.893 550 166.4V154.12H554.32V165.6C554.32 167.387 554.693 168.68 555.44 169.48C556.187 170.28 557.413 170.68 559.12 170.68C560.24 170.68 561.187 170.507 561.96 170.16C562.733 169.787 563.32 169.213 563.72 168.44C564.12 167.64 564.32 166.6 564.32 165.32H565.44V170.04H564.48C564.187 170.787 563.733 171.493 563.12 172.16C562.533 172.827 561.773 173.373 560.84 173.8C559.933 174.2 558.827 174.4 557.52 174.4ZM568.64 174H564.64V168.04L564.32 167.84V154.12H568.64V174ZM577.213 174H572.893V154H576.853V159.56L577.213 159.76V174ZM577.213 161.04H576.213V157.16H577.053C577.453 156.227 578.107 155.427 579.013 154.76C579.947 154.067 581.147 153.72 582.613 153.72C584.027 153.72 585.147 154.027 585.973 154.64C586.827 155.253 587.44 156.067 587.813 157.08C588.187 158.093 588.373 159.227 588.373 160.48V161.8H584.053V161C584.053 159.667 583.827 158.733 583.373 158.2C582.92 157.667 582.067 157.4 580.813 157.4C579.507 157.4 578.573 157.68 578.013 158.24C577.48 158.773 577.213 159.707 577.213 161.04ZM609.578 174H605.258V162.44C605.258 160.68 604.924 159.413 604.258 158.64C603.591 157.84 602.338 157.44 600.498 157.44C599.324 157.44 598.364 157.613 597.618 157.96C596.871 158.28 596.311 158.813 595.938 159.56C595.564 160.28 595.378 161.267 595.378 162.52H594.618L594.258 157.84H595.218C595.511 157.12 595.951 156.453 596.538 155.84C597.124 155.227 597.871 154.72 598.778 154.32C599.711 153.92 600.818 153.72 602.098 153.72C603.831 153.72 605.244 154.053 606.338 154.72C607.431 155.387 608.244 156.307 608.778 157.48C609.311 158.653 609.578 160 609.578 161.52V174ZM595.378 174H591.058V154.12H595.018V160.08L595.378 160.28V174ZM622.476 174.4C620.316 174.4 618.516 173.973 617.076 173.12C615.636 172.24 614.569 171.027 613.876 169.48C613.182 167.907 612.836 166.093 612.836 164.04C612.836 161.987 613.222 160.187 613.996 158.64C614.796 157.093 615.916 155.893 617.356 155.04C618.796 154.16 620.502 153.72 622.476 153.72C624.262 153.72 625.836 154.067 627.196 154.76C628.582 155.427 629.649 156.4 630.396 157.68C631.169 158.96 631.556 160.507 631.556 162.32C631.556 162.853 631.529 163.373 631.476 163.88C631.449 164.36 631.409 164.76 631.356 165.08H614.876V162.2H627.836L627.396 162.6C627.502 161.373 627.369 160.373 626.996 159.6C626.649 158.827 626.076 158.253 625.276 157.88C624.502 157.507 623.529 157.32 622.356 157.32C620.249 157.32 618.809 157.853 618.036 158.92C617.262 159.96 616.876 161.4 616.876 163.24V164.44C616.876 165.773 617.036 166.907 617.356 167.84C617.702 168.747 618.289 169.427 619.116 169.88C619.942 170.333 621.076 170.56 622.516 170.56C624.196 170.56 625.382 170.293 626.076 169.76C626.769 169.227 627.116 168.52 627.116 167.64V167.32H631.396V167.68C631.396 169.04 631.022 170.227 630.276 171.24C629.529 172.227 628.489 173 627.156 173.56C625.849 174.12 624.289 174.4 622.476 174.4ZM637.348 180.8C636.815 180.8 636.268 180.76 635.708 180.68C635.148 180.627 634.695 180.547 634.348 180.44V176.92H637.108C637.935 176.92 638.548 176.8 638.948 176.56C639.348 176.347 639.721 175.88 640.068 175.16L641.308 172.36L640.948 173.76L632.348 154.12H637.108L641.108 163.76L642.908 168.08H643.268L644.868 163.76L648.508 154.12H653.308L643.868 176.32C643.388 177.52 642.841 178.44 642.228 179.08C641.615 179.72 640.908 180.16 640.108 180.4C639.335 180.667 638.415 180.8 637.348 180.8ZM660.462 165.2H656.262C656.262 164.4 656.236 163.48 656.182 162.44C656.156 161.373 656.102 160.253 656.022 159.08C655.969 157.88 655.916 156.707 655.862 155.56C655.809 154.387 655.756 153.32 655.702 152.36C655.649 151.4 655.622 150.613 655.622 150V147.2H661.102V150C661.102 150.613 661.076 151.4 661.022 152.36C660.996 153.32 660.942 154.387 660.862 155.56C660.809 156.707 660.756 157.88 660.702 159.08C660.649 160.28 660.596 161.413 660.542 162.48C660.489 163.52 660.462 164.427 660.462 165.2ZM660.822 174H655.942V168.08H660.822V174Z" fill="black"/>
<path d="M550 547.667H333V501.111C333 484.648 339.532 468.859 351.159 457.218C362.787 445.577 378.557 439.037 395 439.037C424.779 439.037 451.575 460.375 457.31 488.677C458.161 492.676 460.555 496.177 463.971 498.419C467.386 500.662 471.547 501.463 475.55 500.651C479.553 499.838 483.074 497.476 485.347 494.079C487.62 490.682 488.462 486.524 487.69 482.508C478.932 439.328 439.95 408 395 408C370.343 408.026 346.703 417.844 329.267 435.3C311.832 452.756 302.026 476.424 302 501.111V547.667H240C231.778 547.667 223.893 550.937 218.08 556.757C212.266 562.578 209 570.472 209 578.704V795.963C209 804.194 212.266 812.089 218.08 817.909C223.893 823.73 231.778 827 240 827H550C558.222 827 566.107 823.73 571.92 817.909C577.734 812.089 581 804.194 581 795.963V578.704C581 570.472 577.734 562.578 571.92 556.757C566.107 550.937 558.222 547.667 550 547.667ZM410.5 700.194V749.407C410.5 753.523 408.867 757.47 405.96 760.381C403.053 763.291 399.111 764.926 395 764.926C390.889 764.926 386.947 763.291 384.04 760.381C381.133 757.47 379.5 753.523 379.5 749.407V700.194C369.158 696.534 360.442 689.33 354.892 679.858C349.342 670.385 347.315 659.253 349.17 648.429C351.025 637.605 356.642 627.785 365.028 620.707C373.415 613.628 384.031 609.746 395 609.746C405.969 609.746 416.585 613.628 424.972 620.707C433.358 627.785 438.975 637.605 440.83 648.429C442.685 659.253 440.658 670.385 435.108 679.858C429.558 689.33 420.842 696.534 410.5 700.194Z" fill="#121D26"/>
<rect x="106.1" y="681.1" width="298.8" height="50.8" rx="4.9" fill="#121D26"/>
<rect x="106.1" y="681.1" width="298.8" height="50.8" rx="4.9" stroke="#F2E635" stroke-width="0.2"/>
<circle cx="170.5" cy="706.5" r="13.5" fill="white"/>
<circle cx="170.5" cy="706.5" r="13.5" fill="white"/>
<circle cx="204.5" cy="706.5" r="13.5" fill="white"/>
<circle cx="204.5" cy="706.5" r="13.5" fill="white"/>
<circle cx="238.5" cy="706.5" r="13.5" fill="white"/>
<circle cx="238.5" cy="706.5" r="13.5" fill="white"/>
<circle cx="272.5" cy="706.5" r="13.5" fill="white"/>
<circle cx="272.5" cy="706.5" r="13.5" fill="white"/>
<circle cx="306.5" cy="706.5" r="13.5" fill="white"/>
<circle cx="306.5" cy="706.5" r="13.5" fill="white"/>
<circle cx="340.5" cy="706.5" r="13.5" fill="white"/>
<circle cx="340.5" cy="706.5" r="13.5" fill="white"/>
<rect x="528" y="774" width="93" height="91" rx="12" fill="#121D26"/>
<path d="M528 786C528 779.373 533.373 774 540 774H581V812C581 820.284 574.284 827 566 827H528V786Z" fill="white"/>
<path d="M554 787.764C553.192 787.914 552.242 788.239 550.784 788.739L550.02 789C546.011 790.372 544.007 791.059 543.503 791.776C543.011 792.477 543 794.532 543 798.612L554 794.945V787.764Z" fill="#EBE30D"/>
<path d="M554 797.053L543 800.72V800.988C543 808.505 548.652 812.153 552.198 813.702C552.879 814 553.319 814.192 554 814.279V797.053Z" fill="#EBE30D"/>
<path d="M556 814.279V797.053L567 800.72V800.988C567 808.505 561.348 812.153 557.802 813.702C557.121 814 556.681 814.192 556 814.279Z" fill="#EBE30D"/>
<path d="M556 794.945V787.764C556.808 787.914 557.758 788.239 559.216 788.739L559.98 789C563.989 790.372 565.993 791.059 566.497 791.776C566.989 792.477 567 794.532 567 798.612L556 794.945Z" fill="#EBE30D"/>
</g>
<path d="M680.088 1187.46C678.824 1186.75 677.242 1187.63 677.242 1189.04V1201.24C677.242 1201.89 677.603 1202.49 678.189 1202.82L689.151 1208.92C690.415 1209.62 691.997 1208.74 691.997 1207.34V1195.14C691.997 1194.48 691.636 1193.88 691.05 1193.56L680.088 1187.46Z" fill="black"/>
<path d="M678.194 1218.18C677.607 1218.51 676.884 1218.51 676.297 1218.18L665.298 1212.08C664.033 1211.38 662.454 1212.25 662.454 1213.66V1240.17C662.454 1241.58 664.034 1242.46 665.299 1241.75L691.052 1227.44C691.639 1227.12 692 1226.52 692 1225.86V1213.66C692 1212.26 690.418 1211.38 689.154 1212.08L678.194 1218.18Z" fill="black"/>
<path d="M644.912 1233.54C646.176 1234.25 647.758 1233.37 647.758 1231.96V1219.76C647.758 1219.11 647.397 1218.51 646.811 1218.18L635.849 1212.08C634.585 1211.38 633.003 1212.26 633.003 1213.66V1225.86C633.003 1226.52 633.364 1227.12 633.95 1227.44L644.912 1233.54Z" fill="black"/>
<path d="M646.806 1202.82C647.393 1202.49 648.116 1202.49 648.703 1202.82L659.702 1208.92C660.967 1209.62 662.546 1208.75 662.546 1207.34V1180.83C662.546 1179.42 660.966 1178.54 659.701 1179.25L633.948 1193.56C633.361 1193.88 633 1194.48 633 1195.14V1207.34C633 1208.74 634.582 1209.62 635.846 1208.92L646.806 1202.82Z" fill="black"/>
<defs>
<clipPath id="clip0_18934_19729">
<rect width="727" height="1272" rx="20.1569" fill="white"/>
</clipPath>
</defs>
</svg>
