<svg width="236" height="236" viewBox="0 0 236 236" fill="none" xmlns="http://www.w3.org/2000/svg">
<path d="M233.308 180.492H0V180.61H233.308V180.492Z" fill="#EBEBEB"/>
<path d="M209.932 188.089H194.477V188.207H209.932V188.089Z" fill="#EBEBEB"/>
<path d="M127.49 186.611H121.477V186.729H127.49V186.611Z" fill="#EBEBEB"/>
<path d="M163.16 187.109H150.496V187.227H163.16V187.109Z" fill="#EBEBEB"/>
<path d="M194.008 183.707H167.826V183.825H194.008V183.707Z" fill="#EBEBEB"/>
<path d="M36.8564 189.167H24.4785V189.285H36.8564V189.167Z" fill="#EBEBEB"/>
<path d="M51.7419 189.167H41.0098V189.285H51.7419V189.167Z" fill="#EBEBEB"/>
<path d="M89.5037 186.551H61.127V186.669H89.5037V186.551Z" fill="#EBEBEB"/>
<path d="M110.595 159.442H20.4916C19.0231 159.442 17.8281 158.233 17.8281 156.748V28.6317C17.8281 27.1463 19.0231 25.9375 20.4916 25.9375H110.595C112.063 25.9375 113.258 27.1463 113.258 28.6317V156.748C113.258 158.233 112.063 159.442 110.595 159.442ZM20.4916 26.056C19.0871 26.056 17.9448 27.2114 17.9448 28.6321V156.748C17.9448 158.169 19.0871 159.324 20.4916 159.324H110.595C111.999 159.324 113.141 158.169 113.141 156.748V28.6317C113.141 27.2114 111.999 26.0555 110.595 26.0555L20.4916 26.056Z" fill="#EBEBEB"/>
<path d="M211.521 159.442H121.419C119.95 159.442 118.756 158.233 118.756 156.748V28.6317C118.756 27.1463 119.951 25.9375 121.419 25.9375H211.521C212.99 25.9375 214.185 27.1463 214.185 28.6317V156.748C214.185 158.233 212.99 159.442 211.521 159.442ZM121.419 26.056C120.015 26.056 118.873 27.2114 118.873 28.6321V156.748C118.873 158.169 120.015 159.324 121.419 159.324H211.521C212.926 159.324 214.068 158.169 214.068 156.748V28.6317C214.068 27.2114 212.926 26.0555 211.521 26.0555L121.419 26.056Z" fill="#EBEBEB"/>
<path d="M30.1742 152.456C28.9409 152.456 27.9316 151.435 27.9316 150.188V46.0594C27.9316 44.812 28.9409 43.791 30.1742 43.791C31.4075 43.791 32.4168 44.8115 32.4168 46.0594V150.188C32.4163 151.435 31.4075 152.456 30.1742 152.456Z" fill="#F0F0F0"/>
<path d="M39.5062 152.456C38.273 152.456 37.2637 151.435 37.2637 150.188V46.0594C37.2637 44.812 38.2725 43.791 39.5062 43.791C40.7395 43.791 41.7488 44.8115 41.7488 46.0594V150.188C41.7483 151.435 40.7395 152.456 39.5062 152.456Z" fill="#F0F0F0"/>
<path d="M193.801 152.456C192.568 152.456 191.559 151.435 191.559 150.188V46.0594C191.559 44.812 192.567 43.791 193.801 43.791C195.034 43.791 196.044 44.8115 196.044 46.0594V150.188C196.044 151.435 195.034 152.456 193.801 152.456Z" fill="#F0F0F0"/>
<path d="M203.133 152.456C201.9 152.456 200.891 151.435 200.891 150.188V46.0594C200.891 44.812 201.899 43.791 203.133 43.791C204.366 43.791 205.376 44.8115 205.376 46.0594V150.188C205.376 151.435 204.366 152.456 203.133 152.456Z" fill="#F0F0F0"/>
<path d="M38.0728 177.028H37.7849C37.4984 177.028 37.2637 176.79 37.2637 176.5V168.586C37.2637 168.297 37.4984 168.059 37.7849 168.059H38.0728C38.3593 168.059 38.594 168.297 38.594 168.586V176.5C38.5935 176.79 38.3593 177.028 38.0728 177.028Z" fill="#F0F0F0"/>
<path d="M40.3521 177.028H40.0642C39.7777 177.028 39.543 176.79 39.543 176.5V168.586C39.543 168.297 39.7777 168.059 40.0642 168.059H40.3521C40.6386 168.059 40.8733 168.297 40.8733 168.586V176.5C40.8728 176.79 40.6386 177.028 40.3521 177.028Z" fill="#F0F0F0"/>
<path d="M42.6333 177.028H42.3454C42.0589 177.028 41.8242 176.79 41.8242 176.5V168.586C41.8242 168.297 42.0585 168.059 42.3454 168.059H42.6333C42.9198 168.059 43.1545 168.297 43.1545 168.586V176.5C43.1541 176.79 42.9198 177.028 42.6333 177.028Z" fill="#F0F0F0"/>
<path d="M44.9126 177.028H44.6247C44.3382 177.028 44.1035 176.79 44.1035 176.5V168.586C44.1035 168.297 44.3378 168.059 44.6247 168.059H44.9126C45.1991 168.059 45.4338 168.297 45.4338 168.586V176.5C45.4334 176.79 45.1991 177.028 44.9126 177.028Z" fill="#F0F0F0"/>
<path d="M47.1919 177.028H46.904C46.6175 177.028 46.3828 176.79 46.3828 176.5V168.586C46.3828 168.297 46.6171 168.059 46.904 168.059H47.1919C47.4784 168.059 47.7131 168.297 47.7131 168.586V176.5C47.7131 176.79 47.4784 177.028 47.1919 177.028Z" fill="#F0F0F0"/>
<path d="M49.4712 177.028H49.1833C48.8968 177.028 48.6621 176.79 48.6621 176.5V168.586C48.6621 168.297 48.8968 168.059 49.1833 168.059H49.4712C49.7577 168.059 49.9924 168.297 49.9924 168.586V176.5C49.9924 176.79 49.7577 177.028 49.4712 177.028Z" fill="#F0F0F0"/>
<path d="M51.7525 177.028H51.4646C51.1781 177.028 50.9434 176.79 50.9434 176.5V168.586C50.9434 168.297 51.1781 168.059 51.4646 168.059H51.7525C52.039 168.059 52.2737 168.297 52.2737 168.586V176.5C52.2737 176.79 52.039 177.028 51.7525 177.028Z" fill="#F0F0F0"/>
<path d="M100.448 177.028H100.16C99.8734 177.028 99.6387 176.79 99.6387 176.5V168.586C99.6387 168.297 99.8729 168.059 100.16 168.059H100.448C100.734 168.059 100.969 168.297 100.969 168.586V176.5C100.969 176.79 100.734 177.028 100.448 177.028Z" fill="#F0F0F0"/>
<path d="M102.727 177.028H102.439C102.153 177.028 101.918 176.79 101.918 176.5V168.586C101.918 168.297 102.153 168.059 102.439 168.059H102.727C103.014 168.059 103.248 168.297 103.248 168.586V176.5C103.248 176.79 103.014 177.028 102.727 177.028Z" fill="#F0F0F0"/>
<path d="M105.008 177.028H104.72C104.434 177.028 104.199 176.79 104.199 176.5V168.586C104.199 168.297 104.434 168.059 104.72 168.059H105.008C105.295 168.059 105.53 168.297 105.53 168.586V176.5C105.53 176.79 105.295 177.028 105.008 177.028Z" fill="#F0F0F0"/>
<path d="M107.288 177.028H107C106.713 177.028 106.479 176.79 106.479 176.5V168.586C106.479 168.297 106.713 168.059 107 168.059H107.288C107.574 168.059 107.809 168.297 107.809 168.586V176.5C107.809 176.79 107.575 177.028 107.288 177.028Z" fill="#F0F0F0"/>
<path d="M109.567 177.028H109.279C108.993 177.028 108.758 176.79 108.758 176.5V168.586C108.758 168.297 108.993 168.059 109.279 168.059H109.567C109.853 168.059 110.088 168.297 110.088 168.586V176.5C110.088 176.79 109.853 177.028 109.567 177.028Z" fill="#F0F0F0"/>
<path d="M111.848 177.028H111.56C111.274 177.028 111.039 176.79 111.039 176.5V168.586C111.039 168.297 111.274 168.059 111.56 168.059H111.848C112.135 168.059 112.369 168.297 112.369 168.586V176.5C112.369 176.79 112.135 177.028 111.848 177.028Z" fill="#F0F0F0"/>
<path d="M114.127 177.028H113.84C113.553 177.028 113.318 176.79 113.318 176.5V168.586C113.318 168.297 113.553 168.059 113.84 168.059H114.127C114.414 168.059 114.649 168.297 114.649 168.586V176.5C114.648 176.79 114.414 177.028 114.127 177.028Z" fill="#F0F0F0"/>
<path d="M136.896 173.633C136.896 169.845 135.821 166.773 134.495 166.773C133.169 166.773 132.094 169.845 132.094 173.633C132.094 177.421 133.169 180.493 134.495 180.493C135.822 180.492 136.896 177.421 136.896 173.633Z" fill="#EBEBEB"/>
<path d="M209.118 166.773H134.494C135.82 166.773 136.895 169.844 136.895 173.633C136.895 177.421 135.82 180.493 134.494 180.493H209.118C210.444 180.493 211.519 177.421 211.519 173.633C211.519 169.845 210.444 166.773 209.118 166.773Z" fill="#F5F5F5"/>
<path d="M118 201.809C168.543 201.809 209.516 199.416 209.516 196.465C209.516 193.513 168.543 191.12 118 191.12C67.4573 191.12 26.4844 193.513 26.4844 196.465C26.4844 199.416 67.4573 201.809 118 201.809Z" fill="#F5F5F5"/>
<path d="M49.7689 41.3779H49.2969V53.9124H49.7689V41.3779Z" fill="#66805D"/>
<path d="M49.7689 57.2695H49.2969V61.3604H49.7689V57.2695Z" fill="#66805D"/>
<path d="M180.802 106.369H56.6132C53.498 106.369 50.9492 103.821 50.9492 100.705V36.2392C50.9492 33.124 53.498 30.5752 56.6132 30.5752H180.802C183.917 30.5752 186.466 33.124 186.466 36.2392V100.705C186.466 103.821 183.917 106.369 180.802 106.369Z" fill="#E0E0E0"/>
<path d="M185.144 106.369H52.2718C51.5444 106.369 50.9492 106.964 50.9492 107.691V109.178C50.9492 109.905 51.5444 110.5 52.2718 110.5H185.144C185.871 110.5 186.466 109.904 186.466 109.178V107.691C186.466 106.964 185.871 106.369 185.144 106.369Z" fill="#263238"/>
<path d="M56.6132 104.953C54.2712 104.953 52.3652 103.048 52.3652 100.705V36.2392C52.3652 33.8971 54.2712 31.9912 56.6132 31.9912H180.802C183.144 31.9912 185.05 33.8971 185.05 36.2392V100.705C185.05 103.048 183.144 104.953 180.802 104.953H56.6132Z" fill="white"/>
<path opacity="0.1" d="M56.6132 104.953C54.2712 104.953 52.3652 103.048 52.3652 100.705V36.2392C52.3652 33.8971 54.2712 31.9912 56.6132 31.9912H180.802C183.144 31.9912 185.05 33.8971 185.05 36.2392V100.705C185.05 103.048 183.144 104.953 180.802 104.953H56.6132Z" fill="#E0E0E0"/>
<path d="M74.6899 53.6836C75.4625 52.201 77.4728 50.9058 79.7587 50.3895C81.3139 48.4453 84.4362 46.8962 87.6784 46.6437C88.6375 46.5691 89.5177 46.6187 90.3013 46.7655C92.5409 44.3842 96.4996 42.542 100.599 42.2229C104.607 41.9109 107.648 43.141 108.708 45.1861C109.383 45.0195 110.078 44.9001 110.778 44.8458C113.864 44.6056 116.178 45.6072 116.845 47.2417C117.846 46.7909 118.979 46.4846 120.131 46.3945C123.269 46.1504 125.358 47.5957 124.796 49.6234C124.668 50.0874 124.406 50.5405 124.05 50.9681C128.534 51.3793 132.18 52.4979 129.937 53.8752L67.5924 58.7278C65.9192 55.8043 70.6387 54.4222 74.6899 53.6836Z" fill="white"/>
<path opacity="0.3" d="M154.513 61.7304C155.014 58.648 152.92 55.7438 149.838 55.2435C146.756 54.7432 143.851 56.8365 143.351 59.9189C142.851 63.0012 144.944 65.9055 148.026 66.4058C151.109 66.906 154.013 64.8128 154.513 61.7304Z" fill="#E0E0E0"/>
<path d="M144.773 67.456C144.746 67.2606 144.756 67.053 144.816 66.8344C145.191 65.4803 147.194 64.2507 149.29 64.0874C149.74 64.0525 150.154 64.0723 150.529 64.1336C151.669 62.9381 153.663 62.0148 155.728 61.8544C156.829 61.7684 157.785 61.9138 158.518 62.2282C159.869 61.1629 161.817 60.3827 163.822 60.2264C167.11 59.9706 169.298 61.4852 168.71 63.6097C168.697 63.6531 168.678 63.6956 168.664 63.7386C168.715 63.7329 168.766 63.7258 168.817 63.7221C170.408 63.5984 171.467 64.3314 171.182 65.3594C171.091 65.6898 170.87 66.0103 170.562 66.2973C172.233 66.5682 173.307 67.053 172.374 67.6255L140.76 70.0865C139.853 68.5029 142.646 67.811 144.773 67.456Z" fill="white"/>
<path opacity="0.6" d="M133.208 104.953H112.844L134.026 31.9912H154.39L133.208 104.953Z" fill="white"/>
<path opacity="0.6" d="M109.749 104.953H101.748L122.93 31.9912H130.931L109.749 104.953Z" fill="white"/>
<path opacity="0.6" d="M71.8314 104.953H63.8301L85.0125 31.9912H93.0134L71.8314 104.953Z" fill="white"/>
<path d="M185.758 51.9722V48.9307L51.6574 48.9307V51.9722L185.758 51.9722Z" fill="#E0E0E0"/>
<path opacity="0.2" d="M185.049 83.4947V100.705C185.049 103.047 183.143 104.953 180.801 104.953H56.6132C54.2712 104.953 52.3652 103.047 52.3652 100.705V85.0971C61.8576 81.7922 66.7947 94.9298 102.869 89.1743C133.444 84.2961 141.842 70.2928 158.85 81.9815C168.53 88.6343 185.049 83.4947 185.049 83.4947Z" fill="#66805D"/>
<path d="M180.772 163.207H55.2269C52.0957 163.207 49.5332 160.645 49.5332 157.513V136.804C49.5332 133.673 52.0952 131.11 55.2269 131.11H180.772C183.904 131.11 186.466 133.672 186.466 136.804V157.513C186.466 160.645 183.904 163.207 180.772 163.207Z" fill="white"/>
<path opacity="0.2" d="M180.772 163.207H55.2269C52.0957 163.207 49.5332 160.645 49.5332 157.513V136.804C49.5332 133.673 52.0952 131.11 55.2269 131.11H180.772C183.904 131.11 186.466 133.672 186.466 136.804V157.513C186.466 160.645 183.904 163.207 180.772 163.207Z" fill="#66805D"/>
<path d="M161.398 194.991H158.408L152.795 153.243H155.785L161.398 194.991Z" fill="#66805D"/>
<path d="M107.371 194.991H110.341L116.377 150.097H113.407L107.371 194.991Z" fill="#66805D"/>
<path d="M112.295 153.272C113.153 153.936 114.194 154.322 115.277 154.378L152.189 156.312C157.767 156.604 162.511 152.287 162.744 146.706L164.592 102.549C164.826 96.9478 160.349 92.2793 154.743 92.2793H143.009C139.133 92.2793 135.955 95.3511 135.823 99.2248L134.424 140.336L114.636 143.804C110.074 144.603 108.631 150.439 112.295 153.272Z" fill="#66805D"/>
<path opacity="0.4" d="M112.295 153.272C113.153 153.936 114.194 154.322 115.277 154.378L152.189 156.312C157.767 156.604 162.511 152.287 162.744 146.706L164.592 102.549C164.826 96.9478 160.349 92.2793 154.743 92.2793H143.009C139.133 92.2793 135.955 95.3511 135.823 99.2248L134.424 140.336L114.636 143.804C110.074 144.603 108.631 150.439 112.295 153.272Z" fill="white"/>
<path d="M110.383 70.5371C106.727 76.4399 105.199 82.7232 106.152 90.1544C107.104 97.5851 115.741 101.072 123.182 99.1195C130.623 97.1673 135.718 92.4837 135.189 85.8757C134.66 79.2677 129.019 76.1492 128.958 71.2191C128.896 66.2891 123.704 64.2963 121.711 65.5551C119.246 62.3031 113.184 66.0144 110.383 70.5371Z" fill="#263238"/>
<path d="M124.8 99.717C124.703 99.717 124.611 99.6556 124.577 99.5575C124.535 99.4343 124.601 99.3002 124.724 99.2577C132.444 96.6098 136.497 91.4381 135.564 85.4234C135.043 82.0581 133.25 79.766 131.516 77.5495C129.952 75.5511 128.475 73.6631 128.266 71.2507C128.255 71.1209 128.351 71.0067 128.481 70.9953C128.612 70.9821 128.726 71.0803 128.736 71.2101C128.933 73.4828 130.368 75.317 131.887 77.2588C133.576 79.4172 135.49 81.8641 136.031 85.3512C137.001 91.6104 132.831 96.9761 124.877 99.7047C124.852 99.7128 124.826 99.717 124.8 99.717Z" fill="#263238"/>
<path d="M124.963 104.044C124.159 104.326 123.454 104.552 122.697 104.774C121.953 105 121.202 105.195 120.45 105.39C118.941 105.767 117.416 106.104 115.857 106.357C114.298 106.618 112.711 106.813 111.062 106.889C109.412 106.971 107.706 106.94 105.835 106.592L105.614 106.551C104.285 106.303 103.317 105.229 103.136 103.961C102.954 102.675 103.068 101.669 103.232 100.747C103.402 99.8274 103.644 99.008 103.908 98.2197C104.436 96.6456 105.107 95.2268 105.805 93.8462C106.518 92.4741 107.284 91.1586 108.099 89.8814C108.924 88.6023 109.763 87.3769 110.723 86.1578C111.34 85.3738 112.477 85.2388 113.261 85.8562C113.901 86.3612 114.109 87.2127 113.825 87.9348L113.805 87.9868C113.29 89.2956 112.741 90.6498 112.24 91.9799C111.735 93.3147 111.246 94.6453 110.817 95.9692C110.378 97.2847 110.007 98.6082 109.743 99.8528C109.612 100.473 109.517 101.082 109.489 101.613C109.458 102.138 109.491 102.612 109.559 102.772L106.86 100.142C107.927 100.235 109.209 100.161 110.513 100.008C111.823 99.8467 113.174 99.6008 114.532 99.3152C115.888 99.0179 117.258 98.6931 118.622 98.3264L120.668 97.7657L122.656 97.1879L122.758 97.1582C124.676 96.6008 126.682 97.7043 127.24 99.622C127.776 101.473 126.758 103.41 124.963 104.044Z" fill="#ADBDA8"/>
<path d="M110.654 80.6371L109.801 81.9389C109.48 82.4284 109.415 83.0429 109.627 83.5885L110.619 86.1383C111.015 87.1578 111.88 87.922 112.941 88.1891L113.598 88.3543C115.162 86.2922 115.332 82.9117 115.332 82.9117L115.487 81.9535C115.625 81.1002 115.098 80.3308 114.275 80.1864L112.38 79.8536C111.725 79.7389 111.039 80.0504 110.654 80.6371Z" fill="#ADBDA8"/>
<path opacity="0.2" d="M114.274 80.1888L112.381 79.8537C111.952 79.7782 111.508 79.8867 111.145 80.1369C111.706 82.6857 112.924 85.1967 114.302 87.1603C115.218 85.2015 115.331 82.9123 115.331 82.9123L115.487 81.9541C115.624 81.0998 115.1 80.3299 114.274 80.1888Z" fill="black"/>
<path d="M81.9589 194.69C86.3599 195.131 89.1281 195.339 91.6094 195.504C93.7344 195.64 94.2149 195.955 95.9202 196.088C97.3452 196.199 97.4282 194.833 97.1465 193.223C97.0058 192.415 96.834 190.719 96.6589 189.419L90.2581 188.305C89.1772 189.946 84.7031 191.993 82.1897 192.078C79.7901 192.159 80.204 194.515 81.9589 194.69Z" fill="#263238"/>
<path d="M96.9156 135.581C105.878 128.533 129.996 126.652 129.996 126.652L139.61 125.095C139.61 125.095 144.828 135.62 141.524 143.33C138.709 149.897 121.601 147.859 107.372 147.089C109.503 154.973 96.4129 189.151 96.4129 189.151C94.3724 189.789 91.1732 188.767 90.1367 188.165C90.7961 176.956 93.7796 161.861 93.7867 143.201C93.7881 140.262 94.6056 137.397 96.9156 135.581Z" fill="#17370C"/>
<path d="M111.505 147.334L108.192 138.975C106.837 139.773 103.344 148.981 106.606 156.76C107.498 152.545 107.894 149.024 107.37 147.089C108.73 147.164 110.113 147.249 111.505 147.334Z" fill="#66805D"/>
<path d="M89.4898 183.81C89.2279 184.864 89.478 186.789 88.9805 188.158C88.8012 188.652 88.8503 189.371 89.1995 189.353C91.7262 189.219 95.4682 190.6 96.812 190.452C97.0692 190.424 97.3057 190.153 97.4067 189.778L98.4913 185.761C98.6396 185.211 98.4385 184.662 98.0708 184.614L90.2549 183.076C89.9429 183.015 89.6078 183.334 89.4898 183.81Z" fill="#66805D"/>
<path d="M128.812 92.6562C132.003 104.687 135.918 109.52 115.728 109.062C113.202 107.016 112.506 99.2378 112.506 99.2378C119.26 96.8533 124.867 93.4898 128.812 92.6562Z" fill="#66805D"/>
<path d="M121.984 109.143C123.16 111.176 123.853 112.849 127.084 117.438C129.375 120.216 127.739 125.643 128.666 128.914C134.124 130.499 152.667 127.99 153.597 125.095C154.803 124.228 153.433 109.638 148.667 94.6491C146.726 88.541 142.269 86.1532 137.918 87.6754C137.02 87.9892 136.169 88.5537 135.267 89.0545C131.764 91.0011 128.908 92.6228 126.056 94.7719C125.111 95.4841 124.151 96.2539 123.245 97.0077C119.974 99.7269 119.875 105.5 121.984 109.143Z" fill="#66805D"/>
<path opacity="0.2" d="M132.926 109.11C138.058 110.844 143.044 110.895 144.672 110.539C140.239 112.456 136.716 111.552 132.926 109.11Z" fill="black"/>
<path d="M128.184 79.084C129.221 82.5456 131.607 88.5872 134.761 89.3693C134.761 89.3693 131.692 90.6905 128.02 98.0758C124.758 96.6716 125.55 95.0871 125.55 95.0871C128.424 92.2103 126.999 89.6974 125.166 87.6456L128.184 79.084Z" fill="#ADBDA8"/>
<path d="M128.811 96.5549C130.947 95.6156 133.402 98.1993 133.402 98.1993C133.402 98.1993 136.047 91.9378 136.082 88.6583C135.154 88.7258 133.681 88.6338 133.681 88.6338C133.681 88.6338 129.253 94.7108 128.811 96.5549Z" fill="white"/>
<path d="M126.75 97.3974C126.75 97.3974 125.016 98.3202 125.166 101.179C122.222 96.6946 125.166 93.7017 125.166 93.7017C125.166 93.7017 125.972 92.6562 127.097 92.5273C126.404 94.7542 126.75 97.3974 126.75 97.3974Z" fill="white"/>
<path opacity="0.2" d="M126.953 82.5752L125.166 87.6398C125.602 88.1245 126.011 88.6357 126.343 89.1742C127.506 88.1995 128.484 85.6729 127.896 84.2069C127.602 83.4758 127.229 82.8301 126.953 82.5752Z" fill="black"/>
<path d="M125.248 72.1673C128.131 77.1204 129.452 79.151 128.787 83.2965C127.787 89.5326 121.356 92.2499 117.121 88.321C113.308 84.7843 109.234 77.2786 112.409 72.0757C115.537 66.9502 122.365 67.2141 125.248 72.1673Z" fill="#ADBDA8"/>
<path d="M120.763 67.3058C124.464 71.3164 114.769 74.4335 111.638 78.1628C111.044 78.8698 109.895 78.462 109.865 77.5392C109.707 72.5998 114.2 66.511 120.763 67.3058Z" fill="#263238"/>
<path d="M120.546 67.7698C118.472 71.113 121.089 75.5111 127.097 75.79C128.737 69.6087 123.524 65.9606 120.546 67.7698Z" fill="#263238"/>
<path d="M124.781 75.77C121.6 75.7705 120.37 74.0548 119.962 73.2302C119.211 71.7094 119.474 69.896 120.601 68.8203L120.927 69.162C119.963 70.082 119.735 71.7052 120.385 73.0216C120.81 73.8816 122.238 75.8125 126.337 75.1697L126.41 75.636C125.818 75.7285 125.275 75.77 124.781 75.77Z" fill="#263238"/>
<path d="M119.606 78.5467C119.866 78.9521 119.877 79.4284 119.632 79.611C119.386 79.7937 118.977 79.6129 118.716 79.2079C118.456 78.8025 118.445 78.3262 118.691 78.1436C118.936 77.9609 119.346 78.1412 119.606 78.5467Z" fill="#263238"/>
<path d="M114.715 81.9541C114.975 82.3595 114.986 82.8358 114.741 83.0185C114.496 83.2011 114.085 83.0203 113.826 82.6154C113.566 82.2099 113.554 81.7337 113.8 81.551C114.045 81.3679 114.455 81.5487 114.715 81.9541Z" fill="#263238"/>
<path d="M113.924 81.4932L112.842 81.8835C112.842 81.8835 113.792 82.2993 113.924 81.4932Z" fill="#263238"/>
<path d="M116.746 81.7598C116.746 81.7598 117.228 83.9782 117.066 85.3418C117.882 85.4725 118.579 84.6173 118.579 84.6173L116.746 81.7598Z" fill="#66805D"/>
<path d="M121.145 82.4075C121.346 82.2593 121.571 82.1205 121.823 81.9959C121.891 81.9624 121.971 81.9935 122 82.0662C122.03 82.138 122 82.2224 121.93 82.2578C120.089 83.1646 119.788 84.9563 119.785 84.9742C119.772 85.0535 119.703 85.1083 119.63 85.0969C119.557 85.0856 119.507 85.0124 119.519 84.9341C119.53 84.8638 119.772 83.4213 121.145 82.4075Z" fill="#263238"/>
<path d="M129.352 74.9566C129.481 76.3014 129.015 77.5352 128.343 78.3225C127.332 79.5072 125.945 78.6628 125.487 77.1307C125.076 75.7515 125.105 73.4731 126.476 72.8629C127.826 72.262 129.204 73.4193 129.352 74.9566Z" fill="#ADBDA8"/>
<path d="M117.361 76.1755C117.422 76.1349 117.498 76.1203 117.571 76.1406C118.725 76.4635 119.475 75.7569 119.484 75.7484C119.595 75.6431 119.765 75.6493 119.864 75.7673C119.961 75.8848 119.951 76.0674 119.839 76.1751C119.8 76.2123 118.859 77.1002 117.427 76.6994C117.284 76.6593 117.201 76.5017 117.24 76.3473C117.259 76.2737 117.304 76.2133 117.361 76.1755Z" fill="#263238"/>
<path d="M113.315 79.7518C113.374 79.7164 113.445 79.7037 113.515 79.7226C113.658 79.7608 113.74 79.917 113.697 80.0704C113.274 81.6115 112.083 82.0609 112.032 82.0793C111.889 82.1312 111.738 82.0519 111.695 81.9023C111.652 81.7526 111.733 81.5893 111.876 81.5369C111.923 81.5199 112.842 81.1579 113.179 79.9321C113.201 79.8528 113.251 79.7896 113.315 79.7518Z" fill="#263238"/>
<path d="M118.815 78.085L117.732 78.4753C117.732 78.4753 118.683 78.8916 118.815 78.085Z" fill="#263238"/>
<path d="M123.521 127.647L124.497 126.157C124.865 125.597 125.48 125.248 126.149 125.221L129.278 125.098C130.529 125.048 131.726 125.608 132.49 126.598L132.964 127.212C131.514 129.794 128.044 131.516 128.044 131.516L127.11 132.117C126.278 132.652 125.229 132.45 124.702 131.652L123.488 129.815C123.068 129.182 123.081 128.319 123.521 127.647Z" fill="#ADBDA8"/>
<path d="M149.289 96.751C149.383 97.2036 149.451 97.5595 149.521 97.9517C149.591 98.3359 149.646 98.7173 149.706 99.0987C149.824 99.86 149.907 100.622 149.992 101.383C150.146 102.907 150.248 104.435 150.275 105.971C150.297 106.738 150.29 107.508 150.285 108.278C150.257 109.05 150.239 109.82 150.181 110.594C150.104 112.139 149.892 113.693 149.653 115.241L149.623 115.438C149.598 115.6 149.552 115.767 149.496 115.915C149.16 116.791 148.751 117.393 148.364 117.899C147.973 118.406 147.58 118.825 147.186 119.206C146.4 119.965 145.617 120.59 144.832 121.175C143.264 122.339 141.663 123.301 140.057 124.222C138.443 125.127 136.816 125.963 135.165 126.741C133.508 127.517 131.861 128.246 130.129 128.902C129.197 129.254 128.157 128.785 127.805 127.854C127.505 127.062 127.8 126.19 128.468 125.731L128.497 125.711C129.932 124.725 131.41 123.727 132.844 122.721C134.284 121.715 135.71 120.702 137.087 119.66C138.469 118.632 139.805 117.556 141.01 116.474C141.608 115.934 142.169 115.378 142.616 114.847C142.837 114.583 143.031 114.327 143.167 114.114C143.308 113.903 143.358 113.73 143.329 113.767L143.172 114.441C143.248 113.097 143.299 111.751 143.281 110.387C143.264 109.025 143.213 107.657 143.117 106.285C143.016 104.915 142.903 103.541 142.739 102.173C142.663 101.489 142.57 100.807 142.482 100.129L142.339 99.1185L142.196 98.1703L142.174 98.0254C141.876 96.051 143.236 94.2088 145.21 93.9109C147.115 93.623 148.898 94.8884 149.289 96.751Z" fill="#ADBDA8"/>
<path d="M140.816 87.2393C146.76 87.5305 148.629 91.5741 151.232 99.5943C145.743 105.309 141.862 105.99 141.862 105.99C141.862 105.99 137.231 92.1962 140.816 87.2393Z" fill="#66805D"/>
<path d="M111.8 196.088C116.223 196.088 118.998 196.02 121.484 195.936C123.612 195.86 124.121 196.126 125.831 196.088C127.259 196.058 127.206 194.69 126.765 193.117C126.545 192.326 126.205 190.656 125.901 189.379L119.421 188.909C118.509 190.649 114.261 193.132 111.768 193.466C109.39 193.786 110.037 196.088 111.8 196.088Z" fill="#263238"/>
<path d="M109.538 135.582C115.325 131.216 133.835 127.692 140.262 127.307C146.689 126.921 152.796 126.182 153.596 125.096C153.596 125.096 157.451 135.621 154.147 143.33C151.332 149.898 136.17 148.433 121.922 148.239C125.769 168.094 126.063 189.025 126.063 189.025C124.022 189.663 120.267 190.083 119.231 189.481C119.891 178.272 108.718 161.719 106.41 143.203C106.047 140.286 107.192 137.351 109.538 135.582Z" fill="#17370C"/>
<path d="M117.948 184.876C117.901 185.961 118.528 187.797 118.313 189.238C118.235 189.758 118.451 190.246 118.789 190.337C121.608 191.103 125.156 190.342 126.443 189.931C126.69 189.852 126.868 189.539 126.892 189.151L127.158 184.999C127.194 184.431 126.888 183.933 126.517 183.958L118.552 184.004C118.234 184.007 117.969 184.386 117.948 184.876Z" fill="#66805D"/>
<path d="M148.995 197.768C159.405 197.768 176.371 198.292 182.979 197.348C189.587 196.404 178.784 184.237 178.889 180.776C178.994 177.315 149.354 177.624 149.73 180.881C150.359 186.335 143.332 197.768 148.995 197.768Z" fill="#66805D"/>
<path d="M175.84 180.754C175.808 180.649 172.601 170.216 165.327 168.492C161.758 167.645 159.097 169.014 157.494 170.312C154.583 172.668 152.76 176.71 152.849 180.608L151.906 180.63C151.809 176.45 153.77 172.111 156.9 169.578C159.435 167.526 162.424 166.833 165.545 167.573C173.351 169.424 176.609 180.032 176.744 180.483L175.84 180.754Z" fill="#66805D"/>
<path d="M168.943 183.457L164.092 183.531C163.395 183.541 162.753 182.987 162.663 182.301C162.573 181.613 163.069 181.043 163.765 181.032L168.617 180.958C169.313 180.948 169.956 181.501 170.045 182.188C170.135 182.875 169.639 183.447 168.943 183.457Z" fill="white"/>
</svg>
