<svg width="208" height="138" viewBox="0 0 208 138" fill="none" xmlns="http://www.w3.org/2000/svg">
<path d="M49.2086 9.94024C48.4889 10.1166 47.8438 10.4379 47.293 10.8641C47.1 11.0133 46.8896 11.137 46.6654 11.2286L44.1688 1.063C43.9849 0.314543 43.229 -0.143185 42.4798 0.0405769L31.8925 2.63571L32.1872 3.8362C32.2553 4.11351 32.3778 4.37407 32.545 4.60578C32.8813 5.07156 33.1367 5.60675 33.2824 6.19861C33.9067 8.74076 32.2966 11.3077 29.704 11.8349C27.4196 12.2993 25.0892 10.9345 24.3773 8.71695C24.1266 7.93529 24.0977 7.14558 24.2467 6.4045C24.3132 6.07353 24.3149 5.73317 24.2343 5.40521L24.0276 4.56353L13.2929 7.15866C12.3732 7.384 11.8103 8.31187 12.0362 9.23068L14.3411 18.6609L13.6097 18.8403C13.5268 18.8607 13.4419 18.8788 13.3563 18.8936C12.2889 18.4553 11.0783 18.3379 9.8716 18.6337C6.84506 19.3755 4.99362 22.428 5.73608 25.452C6.47853 28.476 9.53394 30.3254 12.5605 29.5836C13.5503 29.3408 14.4133 28.8499 15.1023 28.1947C15.2403 28.1276 15.3843 28.074 15.5343 28.0374L16.4728 27.8074L19.0569 38.3297C19.2825 39.2486 20.2112 39.8109 21.1309 39.5856L50.4273 32.4044C51.1765 32.2207 51.6346 31.4652 51.4507 30.717L48.8196 20.0035C49.0112 20.0045 49.2032 20.0263 49.3922 20.0669C50.3954 20.2829 51.4816 20.2061 52.5348 19.749C54.6249 18.8419 55.8799 16.6043 55.5778 14.3341C55.1623 11.2101 52.1683 9.21491 49.2086 9.94024Z" fill="#EBEBEB"/>
<path d="M150.232 17.1914C149.669 17.0355 149.102 17.0077 148.558 17.0885C148.368 17.1167 148.175 17.1207 147.986 17.0972L150.195 9.14584C150.357 8.56068 150.014 7.9544 149.428 7.79177L141.147 5.49575L140.886 6.43468C140.826 6.65164 140.81 6.87799 140.835 7.10165C140.887 7.55133 140.856 8.01778 140.727 8.48087C140.175 10.4694 138.077 11.6135 136.091 10.9771C134.341 10.4161 133.265 8.57946 133.632 6.7804C133.762 6.14629 134.047 5.59233 134.436 5.13996C134.609 4.93809 134.742 4.7047 134.813 4.44817L134.996 3.78992L126.613 1.43723C125.894 1.23771 125.149 1.65889 124.949 2.3775L122.893 9.74943L122.321 9.59082C122.256 9.57271 122.191 9.55293 122.126 9.52979C121.562 8.81721 120.774 8.26995 119.831 8.00805C117.463 7.35181 115.012 8.73707 114.355 11.1018C113.698 13.4669 115.084 15.9162 117.452 16.5728C118.226 16.7874 119.009 16.7823 119.735 16.5976C119.856 16.6046 119.976 16.6234 120.093 16.6559L120.827 16.8595L118.541 25.0898C118.341 25.8088 118.763 26.5529 119.482 26.7524L142.398 33.1059C142.984 33.2682 143.59 32.9255 143.753 32.3404L146.081 23.9604C146.212 24.0349 146.335 24.1238 146.45 24.2247C147.056 24.7599 147.833 25.1257 148.733 25.2173C150.521 25.399 152.248 24.3444 152.916 22.6671C153.835 20.3593 152.548 17.8336 150.232 17.1914Z" fill="#F5F5F5"/>
<path d="M88.1996 86.5787C90.0682 86.4493 91.6847 86.9553 93.2461 87.6826C93.9439 88.0076 94.7653 88.243 95.5359 88.243L97.5803 88.1963L97.6045 65.4914C97.6045 63.3469 95.8538 61.6089 93.6942 61.6089L72.0909 61.6887V61.2233C72.0909 60.3112 72.3248 59.4209 72.7246 58.5996C73.7725 56.4478 74.2024 53.9459 73.751 51.3068C72.8552 46.0696 68.4766 41.9833 63.1583 41.4052C55.8398 40.6098 49.6484 46.2796 49.6484 53.3852C49.6484 55.1125 50.0187 56.7523 50.6795 58.2365C51.0216 59.0047 51.2196 59.8276 51.2196 60.6676L51.3475 61.6884H50.0388H25.3116C23.152 61.6884 21.4013 63.4267 21.4013 65.5708V87.7711H19.5445C18.6805 87.7711 17.8374 87.5502 17.0597 87.1719C15.0216 86.1813 12.5244 85.7749 10.0248 86.2018C5.06461 87.0485 1.19391 91.1878 0.646808 96.2155C-0.106387 103.134 5.26365 108.987 11.9934 108.987C13.6293 108.987 15.1824 108.637 16.5881 108.012C17.3158 107.689 18.0951 107.501 18.891 107.501H21.2737L21.3214 134.657C21.3214 136.403 22.7469 137.818 24.5057 137.818H94.191C95.9498 137.818 97.3276 135.613 97.3276 133.867V109.185H94.5068C93.855 109.185 93.2109 109.314 92.6067 109.556C91.3917 110.044 90.0665 110.317 88.6753 110.317C82.7014 110.317 77.8862 105.39 78.1262 99.4058C78.3376 94.1327 82.8974 86.9462 88.1996 86.5787Z" fill="#F9F9F9" fill-opacity="0.86"/>
<path d="M88.1998 86.5787C88.1998 86.5787 88.138 86.5881 88.0155 86.6029C87.893 86.6186 87.7087 86.6321 87.4694 86.6854C86.9905 86.7752 86.2789 86.9697 85.4253 87.4114C83.7249 88.2782 81.4939 90.2583 79.814 93.564C78.9977 95.2088 78.2602 97.19 78.1622 99.4565C78.1327 100.586 78.278 101.772 78.6429 102.946C79.0077 104.119 79.6018 105.277 80.4315 106.317C81.2606 107.355 82.3226 108.275 83.5722 108.962C84.8202 109.65 86.2564 110.1 87.7708 110.224C89.2836 110.37 90.8749 110.158 92.3816 109.59C93.1234 109.265 93.9642 109.098 94.7983 109.133C95.63 109.133 96.4729 109.132 97.3271 109.132H97.3811V109.186C97.3831 113.089 97.3851 117.239 97.3875 121.619C97.3885 123.808 97.3895 126.055 97.3905 128.357C97.3909 129.508 97.3915 130.673 97.3919 131.851C97.3922 132.44 97.3922 133.033 97.3925 133.628C97.3989 133.924 97.3804 134.234 97.3314 134.533C97.2717 134.831 97.1972 135.127 97.0817 135.41C96.8632 135.98 96.5413 136.516 96.1104 136.963C95.6895 137.413 95.1282 137.765 94.4969 137.863C94.176 137.899 93.8726 137.883 93.5618 137.887C93.252 137.887 92.9415 137.887 92.6303 137.887C92.0077 137.887 91.3821 137.887 90.7531 137.888C88.2374 137.889 85.6714 137.89 83.0567 137.891C77.8273 137.892 72.4045 137.894 66.8059 137.895C55.609 137.897 43.7093 137.9 31.2504 137.902C29.6929 137.902 28.1268 137.902 26.5523 137.903C25.7615 137.895 24.9835 137.919 24.1762 137.886C23.3666 137.807 22.592 137.412 22.0526 136.799C21.5055 136.191 21.2158 135.363 21.236 134.549C21.2346 133.75 21.2329 132.949 21.2316 132.146C21.2286 130.54 21.2255 128.926 21.2225 127.305C21.2108 120.82 21.1987 114.213 21.1863 107.502L21.2729 107.589C20.7791 107.589 20.2837 107.589 19.7866 107.589C19.2895 107.597 18.7881 107.566 18.3021 107.623C17.813 107.68 17.331 107.806 16.8695 107.989C16.4134 108.182 15.9384 108.388 15.4527 108.536C13.51 109.164 11.3733 109.24 9.34998 108.76C7.33575 108.261 5.41014 107.248 3.92926 105.739C3.15861 105.015 2.54672 104.139 1.99995 103.234C1.76399 102.76 1.49077 102.302 1.32026 101.797C1.22897 101.548 1.11652 101.305 1.04201 101.05L0.832231 100.28C0.221687 97.7496 0.449928 95.0217 1.53944 92.6737C2.61184 90.3204 4.49684 88.3701 6.77287 87.2055C7.90938 86.6176 9.14557 86.2431 10.4029 86.0573C11.6626 85.8856 12.9458 85.9165 14.1887 86.1462C14.81 86.2615 15.4212 86.4265 16.0136 86.6404C16.3096 86.7477 16.6023 86.8644 16.8873 86.9982C17.176 87.1307 17.4461 87.2645 17.7392 87.3641C18.8975 87.8208 20.1639 87.6541 21.4001 87.6853L21.3138 87.7715C21.3142 82.9699 21.3145 78.2276 21.3148 73.5514C21.3152 71.2135 21.3155 68.892 21.3155 66.5879C21.3269 66.0145 21.2786 65.4357 21.3843 64.8519C21.486 64.2742 21.7273 63.7242 22.0727 63.2537C22.7564 62.3051 23.8694 61.6847 25.0305 61.619C34.1141 61.6156 42.9044 61.6126 51.346 61.6096L51.2674 61.6985C51.2238 61.3484 51.1818 61.0127 51.1399 60.6777L51.1392 60.6727V60.6677C51.1395 60.0436 51.0271 59.4226 50.8277 58.8344C50.73 58.5386 50.6008 58.2586 50.477 57.9656C50.3568 57.6738 50.2491 57.3774 50.151 57.0783C49.763 55.8808 49.5697 54.63 49.5697 53.3883L49.62 52.4597C49.6318 52.3055 49.6298 52.1502 49.6523 51.9973L49.7275 51.5406C49.7845 51.2378 49.8114 50.929 49.8936 50.6329L50.1396 49.7459C50.1749 49.5964 50.2286 49.4532 50.288 49.312L50.4565 48.8858C50.5672 48.6011 50.6747 48.3157 50.827 48.0515L51.2506 47.245L51.7518 46.4882C52.4543 45.51 53.2608 44.6016 54.2151 43.8857L54.5625 43.6053L54.9344 43.3605C55.1844 43.2009 55.4281 43.0319 55.6819 42.881C56.2112 42.6188 56.7197 42.315 57.2779 42.1275C58.3613 41.6701 59.5173 41.4444 60.6625 41.3174C61.2395 41.2925 61.8145 41.2318 62.3868 41.2902C62.6727 41.3093 62.9594 41.3143 63.2427 41.3452C63.5249 41.3881 63.8066 41.4307 64.0878 41.4733C66.3199 41.9102 68.3939 42.9474 70.0157 44.4343C71.6376 45.9154 72.8509 47.7956 73.4561 49.8301C74.0922 51.8551 74.1442 54.006 73.7031 55.9962C73.4809 56.9911 73.1225 57.9481 72.6824 58.8381C72.4821 59.2881 72.331 59.7576 72.2434 60.2368C72.1484 60.7166 72.1474 61.1995 72.1514 61.6887L72.089 61.6267C77.9481 61.6079 83.4373 61.5902 88.5237 61.5741C89.7955 61.57 91.0417 61.5664 92.2625 61.5623C92.5676 61.5613 92.8713 61.5603 93.1731 61.5596C93.4745 61.5566 93.7749 61.556 94.0787 61.5777C94.6818 61.6354 95.2612 61.8376 95.7653 62.1458C96.785 62.7561 97.4587 63.8308 97.6084 64.9485C97.6788 65.5119 97.6386 66.0611 97.6483 66.6054C97.6473 67.1493 97.6463 67.6868 97.6456 68.2173C97.6282 76.7046 97.6144 83.4518 97.6047 88.1974V88.2225L97.5795 88.2229C96.7558 88.2339 95.9899 88.2722 95.2733 88.2574C94.556 88.2054 93.9156 88.0009 93.3601 87.7571C92.2642 87.2377 91.3133 86.9154 90.5359 86.7565C89.7589 86.5952 89.1678 86.57 88.7791 86.5677C88.5844 86.5657 88.4391 86.5714 88.3428 86.576C88.2478 86.5784 88.1998 86.5787 88.1998 86.5787C88.1998 86.5787 88.3901 86.5556 88.7805 86.5532C89.1698 86.5512 89.7622 86.572 90.5426 86.7296C91.3227 86.8846 92.2796 87.2048 93.3772 87.7205C93.93 87.961 94.5677 88.1618 95.2776 88.2111C95.9875 88.2235 96.7578 88.1836 97.5798 88.1706L97.555 88.196C97.5553 83.4504 97.556 76.7032 97.5563 68.216C97.5567 67.6855 97.5567 67.1483 97.557 66.604C97.5469 66.0618 97.5852 65.5041 97.5157 64.9606C97.3684 63.8707 96.7102 62.8235 95.715 62.23C95.2229 61.9302 94.6583 61.734 94.0706 61.6784C93.7779 61.6579 93.4775 61.6586 93.1751 61.6619C92.873 61.6633 92.5696 61.6646 92.2645 61.6659C91.0437 61.6713 89.7975 61.6763 88.5257 61.682C83.4393 61.7035 77.9501 61.7263 72.0914 61.7508L72.0296 61.7511L72.0289 61.6887C72.0242 61.2049 72.0249 60.7029 72.1216 60.2143C72.2109 59.7247 72.3646 59.2455 72.5683 58.7868C73.0087 57.8931 73.3584 56.9552 73.5786 55.968C74.0136 54.0003 73.9603 51.8709 73.3296 49.8696C72.7298 47.8587 71.5285 46.0006 69.9241 44.5372C68.3194 43.0681 66.2682 42.0447 64.063 41.6141C63.7851 41.5722 63.5068 41.5303 63.2279 41.488C62.9476 41.4579 62.664 41.4532 62.3817 41.4344C61.8158 41.3764 61.2479 41.4374 60.6776 41.4619C59.5462 41.5883 58.404 41.8113 57.3343 42.2643C56.7828 42.4494 56.281 42.7506 55.7577 43.0094C55.507 43.1583 55.2663 43.326 55.0196 43.4836L54.6521 43.7257L54.3094 44.003C53.3669 44.7106 52.5711 45.6086 51.8776 46.575L51.3829 47.3225L50.9653 48.1192C50.8146 48.3801 50.7089 48.6621 50.5998 48.9431L50.4337 49.364C50.3753 49.5035 50.3222 49.6446 50.2877 49.7922L50.0453 50.6681C49.9644 50.9605 49.9382 51.2656 49.8819 51.5644L49.8077 52.0154C49.7855 52.1663 49.7875 52.3196 49.7761 52.4718L49.7268 53.3886C49.7275 54.6146 49.9188 55.8489 50.3021 57.0307C50.3988 57.3257 50.5052 57.6182 50.624 57.9062C50.7445 58.1909 50.8787 58.482 50.9788 58.7844C51.1832 59.3874 51.2993 60.0252 51.2993 60.668L51.2986 60.6583C51.3406 60.9933 51.3825 61.3289 51.4265 61.679L51.4376 61.7679H51.348C42.9101 61.7736 34.1235 61.7796 25.0439 61.786C23.9312 61.849 22.8655 62.4442 22.2107 63.353C21.8797 63.8037 21.6488 64.3298 21.5518 64.8831C21.4508 65.4321 21.4968 66.0125 21.486 66.5886C21.4863 68.8927 21.4863 71.2142 21.4867 73.5521C21.487 78.2283 21.4874 82.9706 21.488 87.7722V87.8584H21.4014C20.7822 87.8584 20.1619 87.8584 19.5406 87.8584C18.9082 87.858 18.2779 87.739 17.6828 87.5274C17.3851 87.4264 17.0947 87.2833 16.8161 87.1555C16.5359 87.0241 16.2476 86.909 15.9559 86.8034C15.3722 86.5928 14.77 86.4305 14.1581 86.3168C12.9337 86.0905 11.669 86.0603 10.4277 86.2297C9.1892 86.4131 7.97315 86.7816 6.85376 87.3607C4.61297 88.5076 2.75516 90.4293 1.69955 92.7468C0.626814 95.0583 0.402266 97.7466 1.00341 100.239L1.21017 100.997C1.28334 101.248 1.39411 101.487 1.4844 101.732C1.65188 102.23 1.92141 102.681 2.15368 103.148C2.69239 104.039 3.29455 104.902 4.05378 105.615C5.51184 107.101 7.40825 108.099 9.3916 108.59C11.384 109.063 13.4889 108.989 15.4014 108.371C15.8844 108.223 16.3372 108.026 16.8074 107.827C17.2817 107.64 17.7784 107.51 18.2836 107.451C18.7928 107.392 19.2922 107.424 19.7883 107.415C20.2854 107.415 20.7808 107.415 21.2746 107.415H21.3611V107.502C21.3726 114.213 21.3836 120.82 21.3944 127.305C21.3971 128.926 21.3997 130.54 21.4024 132.146C21.4038 132.948 21.4051 133.75 21.4065 134.548C21.388 135.332 21.6616 136.108 22.1805 136.687C22.692 137.269 23.4267 137.644 24.1947 137.719C24.9687 137.751 25.7709 137.728 26.5543 137.736C28.1288 137.736 29.695 137.736 31.2524 137.736C43.7113 137.739 55.611 137.741 66.8079 137.743C72.4065 137.745 77.8293 137.746 83.0587 137.748C85.6734 137.749 88.2394 137.75 90.7551 137.751C91.3841 137.751 92.0097 137.751 92.6324 137.751C92.9435 137.751 93.254 137.752 93.5638 137.752C93.8719 137.749 94.1874 137.763 94.4801 137.73C95.0722 137.638 95.6089 137.306 96.016 136.871C96.4326 136.44 96.7471 135.917 96.9602 135.363C97.073 135.087 97.1455 134.799 97.2036 134.51C97.2509 134.217 97.269 133.929 97.2633 133.629C97.2636 133.033 97.2636 132.44 97.264 131.851C97.2643 130.673 97.265 129.508 97.2653 128.357C97.2663 126.055 97.2673 123.809 97.2683 121.619C97.2707 117.24 97.2727 113.089 97.2747 109.186L97.3288 109.24C96.4745 109.24 95.6317 109.239 94.8 109.239C93.9686 109.205 93.1624 109.363 92.4196 109.686C90.8977 110.258 89.2903 110.469 87.7645 110.32C86.2363 110.193 84.7879 109.737 83.5303 109.042C82.2706 108.347 81.2015 107.418 80.3674 106.37C79.5327 105.321 78.9359 104.152 78.57 102.97C78.2042 101.786 78.0602 100.592 78.0921 99.4545C78.1955 97.1722 78.9403 95.187 79.7633 93.5382C81.4566 90.2261 83.7018 88.2467 85.4126 87.3852C86.2712 86.9463 86.9868 86.7558 87.4678 86.671C87.7077 86.6203 87.893 86.6092 88.0159 86.5958C88.1377 86.5828 88.1998 86.5787 88.1998 86.5787Z" fill="#263238"/>
<path d="M179.486 87.5086C177.797 87.5086 176.194 87.87 174.742 88.5149C174.233 88.7409 173.7 88.9005 173.154 88.9813V65.1151C173.154 63.3583 171.728 61.9338 169.969 61.9338H145.113V64.7519C145.113 65.4032 145.242 66.0467 145.487 66.6503C145.978 67.8642 146.253 69.188 146.253 70.578C146.253 76.5466 141.291 81.3569 135.264 81.1171C129.953 80.9059 125.534 76.6183 125.164 71.3211C125.033 69.4543 125.4 67.6894 126.132 66.1291C126.46 65.432 126.649 64.6798 126.649 63.9096V61.9338L101.466 61.854C99.306 61.854 97.5556 63.6031 97.5556 65.7606L97.5314 87.8948H95.8146C95.6199 87.8948 95.4219 87.8895 95.2245 87.8751C93.0992 86.3252 90.4818 85.4084 87.6489 85.4084C80.5433 85.4084 74.7832 91.1633 74.7832 98.2623C74.7832 105.361 80.5433 111.116 87.6489 111.116C89.973 111.116 92.151 110.497 94.0326 109.42C94.3743 109.346 94.7231 109.306 95.0752 109.306H97.2783V134.01C97.2783 136.168 99.0287 137.917 101.188 137.917H169.969C171.728 137.917 173.154 136.492 173.154 134.735V109.582C173.578 109.688 173.99 109.841 174.387 110.033C176.491 111.056 178.938 111.476 181.519 111.035C186.64 110.161 190.637 105.887 191.202 100.696C191.98 93.5522 186.435 87.5086 179.486 87.5086Z" fill="#F5F5F5"/>
<path d="M179.487 87.5084C179.487 87.5084 179.739 87.5167 180.234 87.5412C180.482 87.5546 180.792 87.5563 181.154 87.6291C181.336 87.6582 181.533 87.6898 181.744 87.724C181.958 87.7488 182.178 87.8081 182.412 87.8759C182.647 87.9403 182.896 88.0083 183.159 88.0804C183.417 88.1673 183.681 88.2813 183.963 88.3886C184.103 88.4449 184.248 88.4972 184.393 88.5606C184.533 88.6334 184.676 88.7078 184.823 88.7836C185.112 88.9416 185.432 89.077 185.723 89.2886C186.938 90.0401 188.219 91.1547 189.267 92.7134C190.3 94.2633 191.149 96.2618 191.269 98.5669C191.281 98.8536 191.307 99.144 191.308 99.4371C191.293 99.7305 191.277 100.027 191.26 100.326C191.249 100.476 191.252 100.628 191.229 100.778C191.206 100.928 191.183 101.079 191.16 101.23C191.137 101.382 191.113 101.534 191.09 101.687C191.054 101.837 191.018 101.989 190.982 102.141C190.694 103.358 190.196 104.58 189.474 105.724C188.752 106.865 187.813 107.935 186.662 108.82C185.51 109.701 184.155 110.401 182.666 110.822C182.296 110.935 181.909 110.994 181.527 111.084C181.139 111.145 180.747 111.2 180.349 111.225C179.554 111.286 178.741 111.265 177.928 111.155C177.114 111.05 176.302 110.847 175.508 110.563C174.705 110.293 173.977 109.824 173.141 109.635L173.209 109.582C173.211 113.446 173.213 117.546 173.215 121.868C173.216 124.03 173.217 126.246 173.218 128.515C173.218 129.65 173.219 130.798 173.219 131.959C173.22 132.539 173.22 133.123 173.22 133.71C173.22 134.003 173.22 134.298 173.22 134.593C173.224 134.739 173.212 134.891 173.205 135.042C173.183 135.19 173.171 135.343 173.129 135.488C172.863 136.675 171.857 137.673 170.632 137.916C170.329 137.974 170.012 137.99 169.71 137.984C169.406 137.984 169.1 137.984 168.793 137.984C168.181 137.984 167.565 137.984 166.946 137.985C164.47 137.985 161.946 137.986 159.374 137.987C154.232 137.989 148.902 137.99 143.402 137.992C132.402 137.994 120.721 137.996 108.496 137.998C106.967 137.999 105.431 137.999 103.886 137.999C103.113 137.999 102.339 137.999 101.562 137.999C101.178 138.004 100.774 137.993 100.384 137.918C99.9953 137.833 99.619 137.695 99.2669 137.507C98.5708 137.119 97.9861 136.526 97.6269 135.809C97.4387 135.455 97.3222 135.066 97.2534 134.671C97.1775 134.274 97.198 133.871 97.194 133.481C97.194 131.905 97.1936 130.322 97.1936 128.732C97.1933 122.369 97.1926 115.888 97.192 109.305L97.2785 109.392C96.7694 109.392 96.236 109.392 95.6896 109.392C95.4181 109.394 95.1364 109.387 94.8662 109.397C94.5937 109.409 94.3205 109.446 94.0513 109.504L94.0761 109.495C92.4976 110.395 90.7029 110.981 88.842 111.146C86.9839 111.304 85.0663 111.078 83.275 110.43C81.4846 109.786 79.8181 108.743 78.4544 107.373C77.1011 105.996 76.0468 104.31 75.4094 102.469C74.9653 101.148 74.7129 99.7634 74.7012 98.3738C74.7055 96.9855 74.911 95.6036 75.3248 94.2851C75.742 92.9662 76.4019 91.7369 77.2064 90.6269C77.5988 90.0612 78.0724 89.5626 78.5413 89.0639L79.3019 88.3735C79.5583 88.1475 79.845 87.958 80.1148 87.7488C81.2292 86.9597 82.4563 86.3357 83.7513 85.9195C85.0532 85.5235 86.4049 85.3367 87.7555 85.3233C90.4589 85.3341 93.1266 86.2291 95.2754 87.8051L95.2308 87.7887C95.991 87.8269 96.7677 87.8001 97.5313 87.8085L97.4454 87.8943C97.4511 83.1655 97.4564 78.4966 97.4618 73.8942C97.4645 71.5932 97.4675 69.3086 97.4702 67.0417L97.4712 66.1923C97.4679 65.9113 97.4719 65.6259 97.4947 65.3366C97.5565 64.7631 97.7458 64.2055 98.0418 63.7136C98.6282 62.7247 99.6566 62.0141 100.785 61.8327C101.354 61.7368 101.914 61.7827 102.467 61.7743C103.023 61.776 103.578 61.778 104.131 61.7797C105.238 61.7834 106.341 61.7871 107.439 61.7908C109.634 61.7981 111.809 61.8055 113.965 61.8126C118.276 61.827 122.507 61.8414 126.648 61.8555L126.727 61.8558V61.9339C126.727 62.5265 126.726 63.1173 126.726 63.7062C126.743 64.298 126.66 64.902 126.477 65.4653C126.388 65.7477 126.268 66.0233 126.146 66.2862C126.024 66.5491 125.919 66.8187 125.82 67.0893C125.628 67.6336 125.475 68.1906 125.377 68.7556C124.963 71.0167 125.356 73.3691 126.391 75.3459C126.907 76.3348 127.567 77.2449 128.357 78.0141C129.146 78.784 130.045 79.4272 131.012 79.9201C132.943 80.9328 135.165 81.2299 137.247 80.9322C139.334 80.624 141.279 79.6753 142.78 78.2928C143.518 77.5929 144.195 76.825 144.691 75.9505C145.2 75.089 145.61 74.1699 145.839 73.2105C146.352 71.3058 146.285 69.2928 145.715 67.4813C145.585 67.0239 145.373 66.5987 145.242 66.1333C145.111 65.6722 145.047 65.194 145.049 64.7199C145.05 63.782 145.05 62.8534 145.051 61.9343V61.8719H145.113C151.65 61.8749 157.727 61.8779 163.305 61.8806C164.699 61.8813 166.062 61.8823 167.393 61.883C168.059 61.8833 168.716 61.8836 169.366 61.8843C169.69 61.8863 170.013 61.8763 170.339 61.9075C170.663 61.9437 170.977 62.0352 171.272 62.1603C171.86 62.4215 172.359 62.8538 172.694 63.3826C173.034 63.9094 173.198 64.5291 173.2 65.1364C173.199 66.3358 173.198 67.5025 173.197 68.6349C173.187 77.6942 173.18 84.5873 173.175 88.9815L173.15 88.9603C174.27 88.8151 175.113 88.2706 175.91 88.0526C176.696 87.8011 177.367 87.6784 177.899 87.6056C178.433 87.5358 178.831 87.5167 179.094 87.5104C179.358 87.5047 179.487 87.5084 179.487 87.5084C179.487 87.5084 179.358 87.5117 179.096 87.5211C178.833 87.5312 178.436 87.5536 177.903 87.6267C177.372 87.7028 176.704 87.8289 175.92 88.0831C175.129 88.3024 174.287 88.8514 173.158 89.0023L173.133 89.0056V88.9815C173.128 84.5869 173.121 77.6942 173.111 68.6349C173.11 67.5021 173.109 66.3358 173.108 65.1364C173.105 64.5452 172.945 63.9446 172.614 63.4335C172.289 62.9208 171.803 62.5017 171.233 62.2492C170.946 62.1284 170.642 62.0396 170.327 62.005C170.015 61.9752 169.69 61.9849 169.366 61.9839C168.716 61.9842 168.059 61.9846 167.393 61.9853C166.062 61.9859 164.699 61.9869 163.305 61.9876C157.727 61.9903 151.65 61.9933 145.113 61.9963L145.176 61.9339C145.176 62.8531 145.176 63.7816 145.177 64.7195C145.175 65.1833 145.238 65.6481 145.366 66.0981C145.491 66.5458 145.707 66.9787 145.839 67.4424C146.417 69.2764 146.487 71.3142 145.969 73.2437C145.737 74.2155 145.324 75.147 144.808 76.0199C144.307 76.9058 143.621 77.6848 142.874 78.394C141.354 79.7957 139.384 80.7588 137.268 81.0723C135.159 81.3761 132.904 81.0757 130.946 80.0499C129.965 79.5506 129.053 78.899 128.253 78.1187C127.452 77.3391 126.782 76.4169 126.258 75.4143C125.207 73.4097 124.808 71.0224 125.226 68.7278C125.326 68.1543 125.48 67.589 125.675 67.0367C125.776 66.7617 125.882 66.4881 126.006 66.2215C126.129 65.9552 126.242 65.694 126.329 65.4174C126.507 64.8668 126.587 64.2913 126.571 63.7055C126.571 63.1167 126.57 62.5258 126.57 61.9333L126.648 62.0114C122.507 61.999 118.276 61.9866 113.965 61.9739C111.81 61.9675 109.634 61.9608 107.439 61.9544C106.341 61.951 105.239 61.9477 104.132 61.9443C103.578 61.9427 103.024 61.941 102.468 61.9393C101.912 61.9474 101.349 61.9038 100.814 61.996C99.7325 62.17 98.7473 62.8514 98.1855 63.7994C97.9018 64.2705 97.7209 64.8047 97.6615 65.354C97.64 65.6276 97.6357 65.9076 97.639 66.1923L97.6384 67.0417C97.636 69.3086 97.634 71.5932 97.6316 73.8942C97.627 78.4966 97.6223 83.1655 97.6176 87.8943V87.9812L97.5316 87.9802C96.763 87.9718 96.0034 87.9993 95.2187 87.9604L95.1949 87.959L95.174 87.9439C93.0534 86.389 90.4219 85.5068 87.7545 85.4964C86.4217 85.5101 85.0885 85.6945 83.804 86.0849C82.5265 86.4956 81.3161 87.1113 80.2169 87.8899C79.9507 88.0965 79.6678 88.283 79.415 88.5063L78.6648 89.1874C78.2027 89.6796 77.7348 90.1716 77.3481 90.7295C76.5546 91.8247 75.9035 93.0373 75.492 94.3384C75.0838 95.6391 74.8811 97.0023 74.8767 98.3721C74.8885 99.7433 75.1375 101.109 75.5755 102.412C76.2042 104.228 77.244 105.891 78.5792 107.25C79.9249 108.601 81.5689 109.63 83.3347 110.265C85.1012 110.905 86.9933 111.128 88.8269 110.973C90.6626 110.81 92.4328 110.232 93.9905 109.344L94.0023 109.337L94.0154 109.334C94.2933 109.274 94.5763 109.236 94.8592 109.223C95.1448 109.213 95.4157 109.221 95.6906 109.218C96.237 109.218 96.7704 109.218 97.2796 109.218H97.3662V109.305C97.3655 115.888 97.3651 122.369 97.3645 128.731C97.3645 130.322 97.3641 131.905 97.3641 133.48C97.3678 133.876 97.3484 134.266 97.4209 134.643C97.4867 135.02 97.5978 135.393 97.7783 135.732C98.122 136.419 98.6826 136.987 99.3488 137.359C99.6862 137.539 100.046 137.671 100.419 137.753C100.795 137.825 101.171 137.836 101.563 137.831C102.34 137.831 103.114 137.832 103.887 137.832C105.432 137.832 106.968 137.832 108.497 137.832C120.722 137.835 132.403 137.837 143.403 137.839C148.903 137.841 154.233 137.842 159.375 137.844C161.947 137.845 164.471 137.845 166.947 137.846C167.566 137.846 168.182 137.846 168.794 137.847C169.101 137.847 169.406 137.847 169.711 137.847C170.019 137.853 170.312 137.837 170.606 137.782C171.779 137.551 172.745 136.594 173.001 135.456C173.071 135.173 173.092 134.886 173.089 134.591C173.089 134.296 173.089 134.002 173.089 133.708C173.09 133.121 173.09 132.538 173.09 131.957C173.09 130.796 173.091 129.648 173.091 128.514C173.092 126.244 173.093 124.028 173.094 121.867C173.096 117.545 173.099 113.444 173.1 109.581V109.513L173.168 109.528C174.025 109.725 174.756 110.198 175.545 110.463C176.331 110.745 177.136 110.947 177.942 111.052C178.748 111.162 179.554 111.183 180.342 111.125C180.737 111.1 181.126 111.046 181.51 110.986C181.889 110.897 182.273 110.839 182.64 110.728C184.118 110.313 185.462 109.619 186.607 108.748C187.751 107.871 188.684 106.81 189.403 105.678C190.121 104.543 190.619 103.331 190.907 102.122C190.943 101.971 190.978 101.821 191.014 101.671C191.038 101.519 191.062 101.368 191.085 101.217C191.108 101.067 191.131 100.917 191.154 100.768C191.177 100.619 191.174 100.468 191.186 100.32C191.203 100.022 191.219 99.7272 191.236 99.4358C191.235 99.1444 191.21 98.856 191.198 98.5706C191.083 96.2789 190.244 94.2901 189.219 92.7452C188.18 91.192 186.908 90.0783 185.7 89.3255C185.41 89.1139 185.093 88.9778 184.805 88.8195C184.659 88.743 184.517 88.6686 184.377 88.5955C184.234 88.5318 184.089 88.4791 183.95 88.4225C183.669 88.3145 183.406 88.1995 183.149 88.1119C182.888 88.0388 182.64 87.9698 182.406 87.9044C182.172 87.836 181.952 87.7753 181.74 87.7495C181.529 87.7142 181.333 87.6817 181.152 87.6512C180.791 87.5758 180.481 87.5717 180.234 87.556C179.739 87.5271 179.487 87.5084 179.487 87.5084Z" fill="#263238"/>
<path d="M95.6699 91.9112C95.6699 91.9112 96.7987 91.3297 97.7956 91.548C98.7925 91.7664 102.412 94.1241 102.412 94.1241L105.329 93.5798L107.047 101.807L95.6699 106.531V91.9112Z" fill="#D6DED3"/>
<path d="M87.2545 94.7798C87.2545 94.7798 89.8608 94.4508 90.805 93.9793C91.7492 93.5078 94.0004 91.5126 94.4723 91.5488C94.9442 91.585 96.651 91.9117 96.651 91.9117L95.9609 93.9793C95.9609 93.9793 99.3741 96.047 100.391 96.8088C101.407 97.5707 104.603 100.981 104.748 101.815C104.893 102.649 104.639 103.629 104.24 103.955C103.84 104.282 102.388 103.629 102.388 103.629C102.388 103.629 102.606 104.391 102.061 105.116C101.516 105.842 100.245 105.587 100.245 105.587C100.245 105.587 100.137 106.785 99.5553 107.002C98.9743 107.22 97.6673 106.567 97.6673 106.567C97.6673 106.567 97.2729 107.583 96.7983 107.692C96.3237 107.801 94.9801 107.003 94.9801 107.003C94.9801 107.003 89.1704 102.831 87.863 102.214C86.5557 101.597 86.1562 101.561 86.1562 101.561L87.2545 94.7798Z" fill="#979D95"/>
<path d="M97.6687 106.567C97.6425 106.566 97.6261 106.465 97.5647 106.312C97.5042 106.159 97.4015 105.954 97.2726 105.733C97.0139 105.291 96.7816 104.936 96.8232 104.906C96.8588 104.879 97.1555 105.188 97.424 105.646C97.5573 105.874 97.6496 106.102 97.6835 106.278C97.7187 106.455 97.6905 106.569 97.6687 106.567Z" fill="#66805D"/>
<path d="M100.083 105.862C100.035 105.886 99.7514 105.365 99.3503 104.766C98.9533 104.162 98.5276 103.758 98.5582 103.721C98.5857 103.681 99.0855 104.045 99.4953 104.668C99.9068 105.284 100.121 105.843 100.083 105.862Z" fill="#66805D"/>
<path d="M102.413 103.768C102.362 103.781 102.2 103.153 101.798 102.476C101.403 101.795 100.934 101.347 100.971 101.308C100.996 101.272 101.537 101.679 101.949 102.388C102.367 103.094 102.457 103.764 102.413 103.768Z" fill="#66805D"/>
<path d="M100.711 99.2404C100.757 99.2307 100.882 99.6626 100.905 100.213C100.931 100.763 100.845 101.204 100.798 101.199C100.749 101.194 100.756 100.756 100.73 100.221C100.708 99.685 100.662 99.2498 100.711 99.2404Z" fill="#66805D"/>
<path d="M92.2578 95.9739C92.2578 95.9739 93.1657 93.0716 93.4923 92.7091C93.8193 92.3463 96.8555 91.5479 96.8555 91.5479L97.7967 93.979L97.123 94.6909L95.6707 94.5957C95.6714 94.5954 94.7634 96.9896 92.2578 95.9739Z" fill="#D6DED3"/>
<path d="M86.6865 101.713C86.6865 101.713 86.2713 102.032 86.6865 102.794C87.1017 103.556 88.2274 103.012 88.5906 102.794C88.5906 102.794 88.0459 104.064 88.7359 104.463C89.4257 104.862 90.2611 104.753 90.2611 104.753C90.2611 104.753 90.2249 105.515 91.2053 106.023C92.1858 106.53 92.4398 106.023 92.4398 106.023C92.4398 106.023 92.5489 107.292 93.6743 107.401C94.8001 107.51 95.1962 107.124 95.1962 107.124L94.691 106.374C94.691 106.374 95.3445 105.043 94.8364 104.463C94.3279 103.882 93.4928 103.955 93.4928 103.955C93.4928 103.955 93.715 102.776 93.0675 102.448C91.8642 101.838 91.3503 102.976 91.3503 102.976C91.3503 102.976 91.2778 101.684 90.3336 101.713C89.3895 101.743 88.8813 102.323 88.8813 102.323L86.6865 101.713Z" fill="#D6DED3"/>
<path d="M91.349 102.976C91.3917 102.997 91.2134 103.439 90.9161 103.943C90.6194 104.448 90.3189 104.818 90.28 104.791C90.2394 104.764 90.4723 104.354 90.7657 103.855C91.0594 103.356 91.3051 102.954 91.349 102.976Z" fill="#66805D"/>
<path d="M93.5147 104.118C93.5567 104.138 93.3718 104.61 93.0197 105.122C92.6693 105.636 92.2963 105.979 92.2628 105.947C92.2259 105.913 92.5333 105.525 92.8753 105.024C93.2194 104.524 93.4698 104.096 93.5147 104.118Z" fill="#66805D"/>
<path d="M71.0255 117.808H65.5175L64.1074 137.819H69.6298C70.5697 134.771 72.9199 118.89 72.9199 118.89L71.0255 117.808Z" fill="#66805D"/>
<path d="M39.8301 117.808C39.8301 117.808 36.3052 126.066 36.6576 129.409C37.01 132.751 38.9897 137.819 38.9897 137.819H66.2695C66.2695 137.819 67.0307 135.027 67.6184 130.898C68.2058 126.769 69.7921 117.808 69.7921 117.808H39.8301Z" fill="#66805D"/>
<path d="M75.8799 38.1112C74.9586 36.9496 73.8197 35.8309 73.5841 34.3679C73.367 33.0225 73.956 31.5494 73.3522 30.3278C72.6094 28.8245 70.474 28.5307 69.5479 27.1327C69.0995 26.4557 68.9931 25.5979 68.5507 24.9172C67.7965 23.757 66.2482 23.3834 64.866 23.4629C63.4835 23.5424 62.1348 23.9716 60.7506 24.0004C58.8515 24.0403 56.9282 23.3284 55.0838 23.7828C53.0488 24.2841 51.7358 25.9976 50.3475 27.6505L48.5494 29.5582C48.1809 29.8818 47.7932 30.1772 47.3713 30.4217C46.6332 30.8492 45.7988 31.1286 45.155 31.6879C43.7775 32.8847 43.7698 35.3158 45.1399 36.5214C43.6597 36.915 42.54 38.3845 42.5538 39.9146C42.5615 40.7566 42.872 41.5611 43.0844 42.3756C43.2972 43.1901 43.4053 44.0908 43.0324 44.8456C42.6592 45.6005 41.6468 46.0813 40.9336 45.6327C41.1397 46.7336 41.8731 47.7234 42.8669 48.2412C42.4524 48.6278 41.8858 48.8471 41.3186 48.8408C42.68 52.517 46.7658 54.6112 50.6835 54.8187C54.6015 55.0263 58.4235 53.7205 62.1291 52.4322L72.8118 50.1935C73.7482 50.0255 74.1876 48.9189 74.2195 47.9686C74.251 47.0182 74.0574 46.019 74.439 45.1478C74.9619 43.9537 76.4079 43.3752 76.9523 42.1905C77.5713 40.8438 76.801 39.2728 75.8799 38.1112Z" fill="#263238"/>
<path d="M50.4565 46.5442C49.8053 44.1258 49.1646 41.69 48.9397 39.1958C48.7148 36.7016 48.9229 34.1242 49.9161 31.8249C50.0668 31.4764 51.3167 29.1499 51.6923 29.2066C51.9608 29.2472 51.1519 31.4355 51.2761 31.6766C52.4636 33.9787 52.6791 36.6848 52.3381 39.2518C51.9974 41.8187 51.3409 44.1101 50.4565 46.5442Z" fill="#263238"/>
<path d="M50.7032 36.989C50.8227 30.7093 54.5803 25.5445 60.8603 25.8376L61.4393 25.8983C67.2638 26.5119 71.6423 31.4893 71.4986 37.3388C71.3651 42.7812 71.1472 48.7927 70.8059 51.6843C70.0993 57.6699 64.0006 57.9701 64.0006 57.9701C63.9872 57.9694 63.8365 67.8576 63.8365 67.8576L49.5566 57.9724L50.7032 36.989Z" fill="#979D95"/>
<path d="M63.9995 57.9705C63.9995 57.9705 60.1946 57.7938 56.4316 54.8408C56.4316 54.8408 57.8377 59.9063 63.881 59.9972L63.9995 57.9705Z" fill="#66805D"/>
<path d="M69.42 41.9839C69.3885 42.4376 68.9777 42.785 68.5027 42.7605C68.0288 42.736 67.6693 42.3494 67.7012 41.8957C67.7327 41.442 68.1436 41.0942 68.6175 41.1184C69.0921 41.1429 69.4516 41.5305 69.42 41.9839Z" fill="#263238"/>
<path d="M69.9535 39.6914C69.8357 39.7917 69.2372 39.2434 68.3149 39.1488C67.3952 39.0412 66.6685 39.4436 66.5806 39.3202C66.5366 39.2652 66.6662 39.0751 66.9834 38.8916C67.2959 38.7089 67.8124 38.5533 68.3864 38.6163C68.9603 38.68 69.4212 38.9419 69.6759 39.1874C69.9361 39.4349 70.0109 39.6468 69.9535 39.6914Z" fill="#263238"/>
<path d="M61.0763 41.984C61.0447 42.4378 60.6339 42.7852 60.159 42.7607C59.685 42.7362 59.3255 42.3499 59.3574 41.8959C59.3893 41.4425 59.7998 41.0944 60.2741 41.1189C60.7487 41.143 61.1078 41.5307 61.0763 41.984Z" fill="#263238"/>
<path d="M60.8838 39.1132C60.7657 39.2134 60.1662 38.6652 59.2449 38.5706C58.3252 38.4629 57.5985 38.8653 57.5102 38.7419C57.4666 38.6869 57.5948 38.4968 57.9133 38.3137C58.2258 38.1306 58.7424 37.9754 59.3164 38.0381C59.8903 38.1018 60.3508 38.364 60.6059 38.6092C60.8657 38.857 60.9409 39.0689 60.8838 39.1132Z" fill="#263238"/>
<path d="M63.4434 46.5389C63.4447 46.4862 64.0281 46.4473 64.9692 46.4266C65.2072 46.4272 65.4351 46.4038 65.4915 46.2475C65.565 46.0835 65.4932 45.8196 65.4079 45.5339C65.2465 44.9414 65.078 44.3207 64.9008 43.6698C64.2029 41.0183 63.7243 38.8481 63.8314 38.8206C63.9388 38.7934 64.5913 40.9207 65.2888 43.5726C65.4552 44.2261 65.6143 44.8485 65.7657 45.4444C65.8265 45.721 65.9476 46.0403 65.7906 46.3803C65.7087 46.5493 65.5224 46.6586 65.3673 46.6834C65.2116 46.7136 65.079 46.7022 64.9615 46.6968C64.0214 46.6485 63.4414 46.5919 63.4434 46.5389Z" fill="#263238"/>
<path d="M60.663 46.8902C60.814 46.8972 60.7103 47.8972 61.492 48.6969C62.2717 49.4987 63.3505 49.4987 63.3435 49.6396C63.3509 49.7036 63.0854 49.8089 62.6339 49.7737C62.1905 49.7422 61.5605 49.5326 61.0822 49.0433C60.6056 48.5531 60.4425 47.9488 60.4515 47.535C60.4576 47.1132 60.5952 46.8771 60.663 46.8902Z" fill="#263238"/>
<path d="M61.2276 35.3702C61.1101 35.6113 60.2022 35.3954 59.107 35.4118C58.0114 35.4061 57.1055 35.6305 56.9857 35.391C56.933 35.2767 57.1102 35.0574 57.4881 34.8518C57.8631 34.6466 58.4451 34.4752 59.1023 34.4712C59.7591 34.4689 60.3428 34.6342 60.7198 34.8357C61.1 35.0379 61.2793 35.2556 61.2276 35.3702Z" fill="#263238"/>
<path d="M69.8959 36.5897C69.7116 36.7818 69.0994 36.4978 68.3368 36.4069C67.5775 36.2895 66.9116 36.3992 66.7857 36.1645C66.7317 36.0515 66.8556 35.8526 67.159 35.6843C67.458 35.5163 67.9414 35.4043 68.4643 35.4754C68.9873 35.5471 69.4219 35.7845 69.6653 36.027C69.9123 36.2704 69.9781 36.4951 69.8959 36.5897Z" fill="#263238"/>
<path d="M50.7245 41.4791C50.6268 41.4241 46.7309 39.8269 46.4295 43.9384C46.1285 48.0496 50.322 47.504 50.3378 47.3866C50.3533 47.2689 50.7245 41.4791 50.7245 41.4791Z" fill="#979D95"/>
<path d="M49.1937 45.7364C49.1766 45.722 49.1182 45.781 48.993 45.8279C48.8708 45.8732 48.6647 45.8957 48.4563 45.7998C48.033 45.6086 47.7175 44.8924 47.7517 44.1496C47.7689 43.7747 47.8732 43.4243 48.0276 43.1389C48.1753 42.8475 48.3854 42.6513 48.6073 42.6285C48.8288 42.5943 48.9742 42.7365 49.0161 42.8559C49.0628 42.9749 49.0306 43.0551 49.052 43.0638C49.0628 43.0752 49.1453 43.0014 49.1249 42.8291C49.1138 42.7462 49.0725 42.6457 48.9819 42.5595C48.8889 42.4723 48.7466 42.4203 48.5932 42.4257C48.2743 42.4243 47.9672 42.6949 47.7977 43.0081C47.6104 43.3217 47.4842 43.715 47.4651 44.1362C47.4309 44.9665 47.7984 45.7729 48.3807 45.9882C48.6647 46.0848 48.9124 46.0154 49.0443 45.9275C49.1792 45.8353 49.2074 45.7451 49.1937 45.7364Z" fill="#66805D"/>
<path d="M69.2733 30.3526C69.9634 30.0284 68.1022 27.7434 66.5126 26.8957C64.1097 25.6147 60.3746 24.6808 58.0506 25.1805C55.253 25.7821 52.8819 27.0013 51.3416 29.411C49.801 31.8207 49.0951 34.6985 48.9914 37.5556C48.9599 38.4274 48.9918 39.3405 49.4096 40.1064C49.9262 41.0531 50.9929 41.6969 50.8637 42.9484C50.8164 43.4058 50.9177 43.8772 51.2107 44.2317C51.9122 45.0811 52.8826 44.3879 53.3549 43.6606C54.3638 42.1073 54.5887 40.1903 54.7871 38.3493C54.9284 37.0408 55.0677 35.7042 54.7787 34.4202C54.6216 33.7217 54.3397 33.0531 54.2212 32.3465C54.1027 31.64 54.1748 30.8519 54.6451 30.3117C54.7216 30.2239 54.8455 30.1149 55.0012 29.9952C56.233 29.0489 57.8851 28.8483 59.314 29.459C61.5799 30.4277 65.461 31.9062 66.5458 31.1866C68.1066 30.1511 68.51 29.4365 68.51 29.4365L69.2733 30.3526Z" fill="#263238"/>
<path d="M58.302 24.636C60.6133 24.0254 63.1871 24.2309 65.2342 25.4646C66.3207 26.1195 67.2763 27.1161 67.5408 28.3562C67.8053 29.5962 67.188 31.0616 65.9844 31.4633L65.9004 31.5089C64.1057 31.9868 62.979 31.6783 61.2662 30.96C59.8252 30.3554 58.5729 29.3625 57.1289 28.7649C55.594 28.1298 53.8665 27.9682 52.2402 28.3075C53.9302 26.6185 55.9908 25.2463 58.302 24.636Z" fill="#263238"/>
<path d="M59.3419 23.9214C59.3435 23.9103 59.4926 23.9224 59.7607 23.963C60.0269 24.0129 60.4122 24.0968 60.869 24.2644C61.3252 24.4314 61.8515 24.6836 62.3855 25.0454C62.9175 25.4056 63.4626 25.8787 63.8963 26.4907C64.3339 27.1043 64.5726 27.7878 64.7277 28.4091C64.88 29.0342 64.9468 29.6096 64.9807 30.0918C65.015 30.5744 65.016 30.9657 65.0109 31.2353C65.0056 31.5052 64.9922 31.6541 64.9811 31.6541C64.9683 31.6541 64.9586 31.5052 64.9428 31.2366C64.927 30.968 64.9069 30.5797 64.8576 30.1025C64.8082 29.626 64.7293 29.0597 64.5712 28.4487C64.4111 27.8414 64.1732 27.1791 63.7533 26.5916C63.3357 26.0021 62.8088 25.537 62.2935 25.1782C61.777 24.8177 61.2668 24.5588 60.8237 24.3798C59.9343 24.0243 59.3351 23.9549 59.3419 23.9214Z" fill="#455A64"/>
<path d="M63.1329 23.693C63.1366 23.6816 63.2621 23.7168 63.4884 23.7913C63.5991 23.8339 63.7451 23.8637 63.8948 23.9432C64.0526 24.023 64.2241 24.1098 64.4094 24.2037C65.1421 24.632 66.0467 25.4924 66.5441 26.712C66.68 27.0108 66.7606 27.3203 66.8468 27.6164C66.9032 27.9195 66.9683 28.2103 66.9811 28.494C67.0177 28.7753 66.9965 29.0456 66.9969 29.2967C66.9657 29.5462 66.9559 29.782 66.9026 29.9895C66.8536 30.1981 66.817 30.3879 66.7498 30.5452C66.6891 30.7038 66.6485 30.8443 66.5844 30.9469C66.4713 31.1575 66.4041 31.2695 66.3937 31.2638C66.3578 31.247 66.6421 30.7937 66.7811 29.9674C66.8257 29.7639 66.8277 29.5328 66.8522 29.29C66.8452 29.0449 66.8609 28.7824 66.8207 28.5091C66.8042 28.2334 66.7368 27.9514 66.6804 27.6573C66.5941 27.3703 66.5149 27.0698 66.383 26.7801C65.9 25.5974 65.0431 24.7554 64.3443 24.309C64.167 24.2091 64.0032 24.1165 63.8525 24.0317C63.7095 23.9452 63.5696 23.9066 63.4639 23.855C63.248 23.7621 63.1292 23.7048 63.1329 23.693Z" fill="#455A64"/>
<path d="M65.8157 66.8647C65.8157 67.429 68.6466 79.8507 69.7301 82.9019C70.8135 85.9531 74.2445 116.551 73.7931 118.73C73.3417 120.909 72.1679 120.822 72.1679 120.822C72.1679 120.822 44.449 119.079 41.4695 119.34C38.4899 119.602 37.2259 119.515 36.5036 116.115C35.7813 112.715 36.5251 95.0456 35.893 90.7742C35.261 86.5027 35.2556 84.432 35.0113 78.0859C34.7995 72.5858 36.0521 68.1738 38.6705 64.9898C41.2889 61.8059 47.0849 58.5863 47.0849 58.5863L49.1407 55.5908L63.6894 63.2783L64.022 61.5285L64.9048 64.2524L65.8157 66.8647Z" fill="#D6E3D1"/>
<g opacity="0.3">
<path d="M72.0686 104.725C71.8263 104.108 71.0406 103.953 70.381 103.88C64.2168 103.197 57.8002 101.659 53.2982 97.3976C51.5367 95.7304 50.1478 93.7157 48.8092 91.694C45.8834 87.274 43.1327 82.7413 40.3831 78.21L38.248 79.0168C39.5577 85.4149 40.8466 90.0472 42.979 95.2914C45.1141 100.542 46.7678 105.624 52.1731 107.342C55.6672 108.452 62.303 107.601 65.9585 107.315C67.4847 107.196 69.0213 107.048 70.4867 106.606C70.9298 106.473 71.3785 106.304 71.7122 105.983C72.0458 105.663 72.2375 105.155 72.0686 104.725Z" fill="black"/>
</g>
<path d="M37.4966 77.3444C37.656 77.6281 49.9921 103.951 55.4997 105.033C61.0074 106.116 78.1245 106.368 81.4652 105.737C84.8059 105.105 88.0744 104.518 88.0744 104.518C88.0744 104.518 90.4931 98.7774 88.2852 93.887L83.6875 94.0322C83.6875 94.0322 70.9033 93.3434 69.0975 92.8498C67.2917 92.3565 65.7316 90.6644 64.1064 90.7546L54.381 68.1432C54.381 68.1432 48.0608 62.28 43.5463 64.084C39.0315 65.8885 36.1738 74.9934 37.4966 77.3444Z" fill="#D6E3D1"/>
<path d="M84.0421 105.43C84.0307 105.426 84.0639 105.269 84.1334 104.988C84.2062 104.708 84.2972 104.298 84.3929 103.79C84.4912 103.283 84.5758 102.673 84.6369 101.993C84.6899 101.312 84.7148 100.562 84.6849 99.7745C84.6167 98.1984 84.3361 96.791 84.0592 95.7958C83.9216 95.2978 83.7971 94.8971 83.7014 94.6238C83.6088 94.3492 83.5628 94.1949 83.5739 94.1905C83.585 94.1858 83.6524 94.3317 83.7652 94.6003C83.881 94.8672 84.024 95.2639 84.1781 95.7616C84.4875 96.7552 84.7909 98.1746 84.8598 99.7674C84.89 100.563 84.8601 101.322 84.7977 102.008C84.7272 102.694 84.6288 103.307 84.5144 103.815C84.4023 104.324 84.2925 104.731 84.1992 105.007C84.1089 105.283 84.0535 105.434 84.0421 105.43Z" fill="#66805D"/>
<path d="M54.3806 68.1436C54.3806 68.1436 54.446 68.2784 54.5641 68.5443C54.683 68.8149 54.8565 69.2099 55.0831 69.7257C55.5362 70.7682 56.2001 72.2956 57.0506 74.2526C58.7473 78.1794 61.1875 83.8267 64.1694 90.7275L64.1023 90.6859C64.8702 90.65 65.5915 90.9837 66.2585 91.3455C66.9294 91.715 67.5792 92.1446 68.2922 92.4699C68.9964 92.8273 69.7959 92.9101 70.6058 93.0077C71.4157 93.1036 72.2424 93.1744 73.0805 93.2472C76.4353 93.5241 79.9902 93.7424 83.6917 93.9487H83.6847C85.1306 93.9024 86.6951 93.8524 88.2824 93.8018L88.3401 93.8001L88.3629 93.8521C89.0721 95.4738 89.3692 97.2976 89.2836 99.1238C89.2051 100.952 88.8305 102.791 88.1548 104.552L88.1384 104.594L88.0897 104.603C87.1637 104.775 86.1678 104.958 85.1665 105.143C84.0931 105.341 83.0264 105.538 81.9665 105.733C80.9051 105.94 79.823 106.019 78.763 106.063C76.636 106.16 74.5399 106.168 72.4807 106.157C70.4215 106.146 68.3989 106.098 66.4192 106.025C64.4396 105.955 62.5026 105.852 60.6149 105.708C59.671 105.641 58.7403 105.55 57.823 105.45C56.9056 105.329 56.0051 105.247 55.1193 105.001C54.6873 104.84 54.3044 104.593 53.9486 104.326C53.5918 104.059 53.2652 103.761 52.954 103.455C52.3307 102.843 51.7732 102.189 51.2469 101.532C49.1612 98.8834 47.5263 96.1997 46.0649 93.7438C43.1733 88.8077 41.0862 84.6737 39.6533 81.8164C38.9407 80.3852 38.4013 79.2672 38.0392 78.5073C37.6773 77.7475 37.4961 77.3441 37.4961 77.3441C37.4961 77.3441 37.5508 77.4403 37.6468 77.6334C37.7441 77.8306 37.8858 78.1173 38.0707 78.4919C38.4483 79.2487 39.0018 80.358 39.7141 81.7855C41.1651 84.6328 43.2686 88.7571 46.1713 93.6807C47.6377 96.1297 49.278 98.8073 51.36 101.441C51.885 102.095 52.4408 102.743 53.0588 103.348C53.3669 103.65 53.6901 103.944 54.0399 104.205C54.3886 104.466 54.7622 104.705 55.1717 104.857C56.0105 105.088 56.9342 105.176 57.8407 105.293C58.7554 105.392 59.6845 105.481 60.627 105.547C62.5116 105.689 64.447 105.79 66.4249 105.858C68.4029 105.929 70.4239 105.975 72.4814 105.985C74.5386 105.995 76.6334 105.986 78.7543 105.888C79.8173 105.844 80.878 105.766 81.9339 105.561C82.9939 105.366 84.0612 105.169 85.1347 104.971C86.1362 104.786 87.1324 104.602 88.0588 104.431L87.9937 104.483C88.658 102.753 89.0329 100.921 89.1101 99.1165C89.1957 97.3107 88.902 95.515 88.2072 93.9215L88.2877 93.9715C86.7005 94.0211 85.136 94.0697 83.69 94.115H83.6863L83.683 94.1147C79.9798 93.9054 76.4253 93.6831 73.0674 93.4007C72.2283 93.3266 71.4009 93.2545 70.588 93.1569C70.1812 93.1107 69.7787 93.0584 69.3787 92.9826C68.9732 92.9215 68.5939 92.7639 68.2307 92.6026C67.5041 92.2693 66.8532 91.8364 66.1893 91.4692C65.5301 91.1087 64.83 90.7895 64.11 90.8224L64.0613 90.8247L64.0425 90.7808C61.0838 83.8703 58.6624 78.2146 56.9791 74.2821C56.1434 72.3188 55.4912 70.7863 55.0458 69.7404C54.8273 69.2213 54.6598 68.8236 54.5454 68.5513C54.4332 68.2837 54.3806 68.1436 54.3806 68.1436Z" fill="#66805D"/>
<path d="M53.0917 66.3682C53.08 66.3789 52.9199 66.2096 52.6131 65.9255C52.3073 65.6405 51.8367 65.2555 51.202 64.8625C50.569 64.4685 49.7577 64.0869 48.8072 63.8267C47.8586 63.5651 46.7667 63.4431 45.6359 63.549C44.5062 63.6684 43.4599 64.0041 42.5819 64.4484C41.7015 64.8917 40.9818 65.4262 40.4394 65.9376C39.8954 66.448 39.51 66.9185 39.267 67.2585C39.0223 67.5978 38.8992 67.795 38.8854 67.787C38.8804 67.7839 38.9059 67.7316 38.9599 67.6351C39.017 67.5402 39.0895 67.3923 39.211 67.2199C39.4389 66.8655 39.8135 66.3776 40.3542 65.8484C40.8932 65.3186 41.6166 64.7643 42.5087 64.3052C43.3985 63.8451 44.4645 63.4974 45.6185 63.3757C46.7735 63.267 47.8871 63.3971 48.8501 63.6718C49.8154 63.9454 50.6344 64.3455 51.2678 64.7582C51.9028 65.17 52.3664 65.5741 52.6601 65.8766C52.8131 66.0214 52.9138 66.1526 52.9883 66.234C53.0605 66.3182 53.0961 66.3642 53.0917 66.3682Z" fill="#66805D"/>
<path d="M64.0695 90.7742C64.1148 90.7909 63.8362 91.646 63.4472 92.6836C63.0581 93.7214 62.7064 94.549 62.6611 94.5319C62.6158 94.5151 62.8943 93.66 63.2834 92.6222C63.6724 91.585 64.0241 90.7574 64.0695 90.7742Z" fill="#66805D"/>
<path d="M86.4156 95.1101C86.4156 95.1004 86.463 95.087 86.5425 95.1155C86.6214 95.143 86.7228 95.2235 86.7899 95.3573C86.8533 95.4837 86.8986 95.6936 86.7775 95.8797C86.6633 96.0521 86.4465 96.1842 86.1938 96.149C85.9367 96.101 85.7866 95.8784 85.7541 95.6805C85.7188 95.4733 85.8048 95.2848 85.9219 95.1852C86.0417 95.0813 86.175 95.0706 86.2525 95.0773C86.3331 95.085 86.3727 95.1061 86.371 95.1168C86.3767 95.1504 86.1753 95.1048 86.0078 95.2741C85.9306 95.3579 85.8786 95.5031 85.9125 95.65C85.9427 95.7962 86.0635 95.9505 86.2233 95.977C86.3841 96.0031 86.5603 95.9089 86.6439 95.7902C86.7322 95.6735 86.7164 95.5192 86.6768 95.4062C86.5902 95.1661 86.4089 95.1326 86.4156 95.1101Z" fill="#66805D"/>
<path d="M64.0364 64.1533C64.0324 64.16 63.9176 64.1003 63.7051 63.9819C63.4765 63.8515 63.1698 63.6764 62.7871 63.4578L62.8516 63.4296C62.6703 64.3461 62.4944 65.6948 62.1867 67.3111L62.1662 67.4184L62.0725 67.3594C60.7219 66.509 59.1014 65.5369 57.3724 64.493C56.0836 63.722 54.8786 62.9437 53.7686 62.2714C52.6529 61.6044 51.6335 61.027 50.7753 60.5461C49.9291 60.076 49.238 59.6917 48.7382 59.414C48.511 59.2863 48.3277 59.1833 48.1858 59.1035C48.0602 59.0311 47.9954 58.9908 47.9981 58.9855C48.0008 58.9801 48.071 59.01 48.2022 59.0723C48.3482 59.1448 48.5368 59.238 48.7705 59.354C49.2615 59.6032 49.9684 59.9707 50.835 60.4378C51.7017 60.9053 52.7281 61.4723 53.8512 62.1329C54.9632 62.8136 56.1826 63.5597 57.4631 64.3434C59.191 65.387 60.8091 66.3678 62.1531 67.232L62.039 67.2802C62.3605 65.6764 62.5589 64.3263 62.7667 63.4119L62.7804 63.3518L62.8314 63.3837C63.2053 63.6167 63.5051 63.8035 63.7283 63.943C63.9334 64.0738 64.0404 64.1466 64.0364 64.1533Z" fill="#66805D"/>
<g opacity="0.3">
<path d="M50.043 60.0713C52.5738 61.9552 55.1045 63.8391 57.635 65.723C59.3055 66.9664 61.016 68.2309 62.9993 68.867C62.9627 67.1099 62.9262 65.3528 62.8896 63.596L62.1125 67.296L50.043 60.0713Z" fill="black"/>
</g>
<path d="M128.224 33.6688C126.903 33.8455 125.525 32.8995 125.217 31.6035C124.908 30.3074 125.711 28.8433 126.971 28.4061C126.131 27.5785 125.897 26.1993 126.419 25.142C126.94 24.0847 128.177 23.4291 129.346 23.5907C129.372 22.4271 130.046 21.2991 131.059 20.7236C132.071 20.1485 133.386 20.1469 134.4 20.7196C135.665 19.5929 137.738 19.5114 139.088 20.5352C140.215 20.3045 141.46 20.8826 142.01 21.8916C142.561 22.9006 142.372 24.2594 141.568 25.0806" fill="#263238"/>
<path d="M127.836 34.0579C128.197 28.0571 133.111 23.3407 139.127 23.2186L139.725 23.2065C146.178 23.4517 149.574 29.0638 149.151 35.5018L149.535 58.4704L133.854 64.0939L133.717 55.8222C133.717 55.8222 127.501 54.9859 127.298 48.798C127.2 45.8092 127.5 39.6388 127.836 34.0579Z" fill="#D6DED3"/>
<path d="M133.666 55.8137C133.666 55.8137 137.627 55.971 141.735 53.2749C141.735 53.2749 139.917 57.768 133.724 57.3364L133.666 55.8137Z" fill="#66805D"/>
<path d="M129.576 39.6541C129.569 40.1212 129.959 40.5122 130.448 40.5287C130.935 40.5447 131.336 40.1802 131.343 39.7131C131.35 39.246 130.96 38.8543 130.473 38.8379C129.985 38.8218 129.583 39.187 129.576 39.6541Z" fill="#263238"/>
<path d="M129.23 37.0586C129.342 37.1716 130.002 36.6622 130.954 36.6454C131.905 36.6149 132.613 37.0901 132.714 36.9717C132.764 36.9191 132.648 36.7132 132.339 36.4982C132.035 36.2839 131.52 36.0801 130.927 36.0945C130.334 36.1099 129.84 36.3383 129.557 36.5673C129.269 36.7977 129.175 37.0083 129.23 37.0586Z" fill="#263238"/>
<path d="M138.25 39.6541C138.243 40.1213 138.633 40.5122 139.121 40.5283C139.609 40.5448 140.01 40.1803 140.017 39.7128C140.024 39.246 139.634 38.8544 139.147 38.8379C138.659 38.8215 138.257 39.187 138.25 39.6541Z" fill="#263238"/>
<path d="M138.591 37.0454C138.703 37.1584 139.364 36.6493 140.316 36.6326C141.266 36.6021 141.975 37.0772 142.076 36.9585C142.125 36.9059 142.011 36.7003 141.7 36.485C141.397 36.2707 140.881 36.0669 140.288 36.0813C139.696 36.0967 139.201 36.3251 138.919 36.5541C138.632 36.7845 138.536 36.9951 138.591 37.0454Z" fill="#263238"/>
<path d="M135.279 44.1698C135.283 44.1154 134.689 44.0252 133.728 43.9223C133.484 43.9022 133.253 43.8586 133.209 43.6936C133.148 43.5192 133.244 43.2557 133.357 42.9703C133.573 42.3781 133.8 41.7571 134.038 41.1062C134.982 38.4527 135.661 36.273 135.554 36.2358C135.446 36.1989 134.594 38.3196 133.649 40.9731C133.422 41.6273 133.204 42.251 132.998 42.8476C132.912 43.1255 132.76 43.4418 132.891 43.8033C132.96 43.9833 133.142 44.1118 133.298 44.1503C133.455 44.1946 133.592 44.1946 133.712 44.1993C134.678 44.2315 135.277 44.2234 135.279 44.1698Z" fill="#263238"/>
<path d="M138.237 33.814C138.368 34.0524 139.178 33.7744 140.182 33.7217C141.185 33.6463 142.035 33.818 142.122 33.5655C142.159 33.4454 141.976 33.2325 141.611 33.0467C141.248 32.8609 140.699 32.7228 140.097 32.7607C139.496 32.7999 138.977 33.0061 138.651 33.2362C138.322 33.4659 138.179 33.6999 138.237 33.814Z" fill="#263238"/>
<path d="M129.045 33.6941C129.25 33.906 130.031 33.6656 130.976 33.6361C131.919 33.5787 132.724 33.7457 132.903 33.516C132.982 33.4047 132.852 33.1908 132.498 32.9936C132.149 32.7967 131.569 32.6418 130.921 32.6717C130.272 32.7022 129.713 32.9094 129.389 33.1371C129.059 33.3658 128.954 33.5905 129.045 33.6941Z" fill="#263238"/>
<path d="M128.374 31.2071C128.374 31.2071 129.929 27.2978 131.782 26.3551C134.024 25.214 135.05 27.6777 137.196 27.0312C139.342 26.3847 141.482 25.2898 143.722 26.9118C146.174 28.687 145.068 29.9901 145.274 32.7335C146.105 43.8551 148.204 46.9623 148.677 41.7063C148.728 41.1305 150.315 40.6409 150.502 38.2088C150.745 35.0547 150.788 31.2302 150.039 29.0106C149.408 27.1398 148.307 25.8609 146.351 24.4659C143.263 22.2638 139.084 22.3003 136.252 22.643C133.421 22.9857 128.017 26.3588 128.374 31.2071Z" fill="#263238"/>
<path d="M148.278 41.5457C148.297 40.5896 149.106 39.8187 150.061 39.8898C151.218 39.976 152.517 40.6054 152.49 42.9923C152.441 47.2265 148.196 46.304 148.19 46.1823C148.186 46.0998 148.242 43.3172 148.278 41.5457Z" fill="#D6DED3"/>
<path d="M149.131 44.6C149.15 44.5869 149.205 44.6526 149.328 44.711C149.449 44.768 149.658 44.8089 149.88 44.7287C150.33 44.5698 150.715 43.8639 150.744 43.101C150.76 42.7161 150.683 42.3482 150.55 42.0427C150.424 41.7316 150.226 41.5129 150.001 41.4703C149.777 41.4157 149.616 41.5488 149.563 41.6675C149.505 41.7852 149.531 41.87 149.508 41.8771C149.496 41.8875 149.418 41.805 149.454 41.6306C149.473 41.5468 149.524 41.4475 149.624 41.3674C149.727 41.2859 149.877 41.2453 150.034 41.2644C150.36 41.2906 150.651 41.5944 150.797 41.9297C150.962 42.2667 151.057 42.6802 151.04 43.1128C151.002 43.9659 150.556 44.7593 149.941 44.9289C149.642 45.0031 149.395 44.9105 149.267 44.8092C149.137 44.7023 149.116 44.6074 149.131 44.6Z" fill="#66805D"/>
<path d="M148.029 33.349C147.487 33.7353 146.913 34.1341 146.252 34.2132C145.59 34.2923 144.825 33.9275 144.699 33.2736C144.643 32.9802 144.708 32.6368 144.51 32.4131C144.273 32.1462 143.848 32.2401 143.494 32.2847C142.265 32.4403 140.986 31.5956 140.648 30.4052C140.344 30.8813 139.61 30.876 139.129 30.5795C138.647 30.2831 138.331 29.7885 137.95 29.3703C137.57 28.9525 137.04 28.5823 136.481 28.6732C136.169 28.7238 135.88 28.9163 135.564 28.8948C135.007 28.8566 134.722 28.2118 134.627 27.6618C134.532 27.1119 134.453 26.4697 133.976 26.1797C133.534 25.9107 132.971 26.0827 132.461 26.1686C131.95 26.2544 131.287 26.1478 131.145 25.6502C131.071 25.3893 131.178 25.111 131.319 24.8789C131.958 23.8283 133.386 23.3381 134.536 23.7757C134.922 22.3689 136.209 21.2543 137.657 21.0719C139.106 20.8891 140.629 21.65 141.353 22.9169C142.231 22.0873 143.525 21.7201 144.709 21.9649C145.893 22.2093 146.935 23.0587 147.413 24.1687C148.437 23.8769 149.62 24.2512 150.29 25.0791C150.959 25.907 151.078 27.1407 150.577 28.0806C151.348 28.4998 152.015 29.2422 152.048 30.1178C152.082 30.9933 151.246 31.8833 150.395 31.67C150.751 32.3451 150.491 33.2763 149.838 33.6706C149.184 34.065 148.239 33.8611 147.806 33.2327" fill="#263238"/>
<path d="M134.246 25.027C134.243 25.0274 134.244 25.0535 134.249 25.1045C134.256 25.1551 134.26 25.2319 134.28 25.3298C134.323 25.5243 134.408 25.812 134.605 26.139C134.802 26.4606 135.106 26.8308 135.564 27.1202C136.013 27.4133 136.625 27.6305 137.309 27.5792L137.235 27.487C137.111 27.8515 137.156 28.2851 137.344 28.6536C137.523 29.0285 137.799 29.3585 138.09 29.6794C138.239 29.8333 138.37 30.0154 138.574 30.1553C138.773 30.2897 139.009 30.3652 139.251 30.3903C139.73 30.4416 140.266 30.283 140.604 29.8746L140.445 29.8327C140.569 30.6717 141.066 31.5036 141.837 32.0013C142.245 32.2839 142.747 32.4513 143.237 32.4281C143.727 32.4134 144.18 32.2605 144.601 32.0998L144.487 32.0522C144.725 32.5737 145.085 33.0153 145.516 33.3379C145.94 33.6601 146.5 33.8429 147 33.7091C147.996 33.4774 148.642 32.6334 148.759 31.8483L148.664 31.895C149.166 32.1548 149.699 32.1699 150.124 32.0791C150.555 31.9912 150.891 31.7964 151.13 31.6062C151.369 31.4124 151.509 31.2156 151.593 31.0794C151.669 30.9383 151.701 30.8605 151.696 30.8584C151.674 30.8413 151.562 31.183 151.086 31.5502C150.849 31.7256 150.52 31.904 150.105 31.9785C149.695 32.0569 149.19 32.0308 148.727 31.7813L148.647 31.738L148.632 31.8279C148.512 32.5603 147.889 33.3483 146.966 33.5525C146.513 33.6685 146.021 33.5049 145.619 33.2001C145.216 32.8956 144.873 32.4701 144.652 31.9798L144.617 31.902L144.538 31.9322C144.123 32.0891 143.686 32.2326 143.233 32.245C142.78 32.2642 142.329 32.1149 141.94 31.8473C141.211 31.3765 140.746 30.5982 140.624 29.8038L140.593 29.6043L140.464 29.7619C140.179 30.1113 139.699 30.2622 139.269 30.217C139.053 30.1955 138.843 30.1294 138.669 30.0134C138.5 29.9024 138.364 29.7227 138.213 29.5674C137.922 29.2522 137.654 28.9347 137.484 28.5859C137.305 28.2415 137.265 27.8602 137.37 27.5303L137.403 27.4287L137.297 27.4381C136.651 27.4947 136.063 27.2986 135.625 27.0243C135.178 26.754 134.875 26.4032 134.672 26.0964C134.273 25.4653 134.276 25.0166 134.246 25.027Z" fill="#455A64"/>
<path d="M138.561 44.4971C138.41 44.5148 138.585 45.5128 137.855 46.3719C137.128 47.233 136.044 47.3088 136.061 47.4497C136.058 47.5147 136.332 47.6016 136.784 47.5345C137.227 47.4718 137.846 47.2163 138.292 46.6911C138.736 46.1647 138.858 45.5456 138.819 45.1305C138.784 44.7066 138.628 44.4793 138.561 44.4971Z" fill="#263238"/>
<path d="M103.951 92.6534C104.488 92.4388 122.227 90.3094 122.227 90.3094L129.424 84.2222L128.749 101.845L106.099 104.027L103.951 92.6534Z" fill="#66805D"/>
<path opacity="0.3" d="M126.241 86.9136C126.026 87.0212 124.248 88.5996 124.248 88.5996L124.79 102.17L126.241 86.9136Z" fill="black"/>
<path d="M156.464 118.827H126.502C126.502 118.827 128.088 127.273 128.676 131.165C129.263 135.057 130.122 137.819 130.122 137.819H157.258C157.258 137.819 159.283 132.913 159.636 129.762C159.988 126.611 156.464 118.827 156.464 118.827Z" fill="#1C2818"/>
<path d="M124.269 119.846C124.269 119.846 123.431 129.474 124.269 137.819H134.647V130.13L124.269 119.846Z" fill="#1C2818"/>
<path d="M130.035 72.6535L133.264 65.5894L133.665 61.2261C133.665 61.2261 139.857 57.3383 142.794 55.8709C145.731 54.4034 149.689 53.0752 149.689 53.0752V57.1921L130.035 72.6535Z" fill="#EBEBEB"/>
<path d="M157.024 108.733C157.024 108.733 158.778 85.1862 158.897 83.4365C158.897 83.4365 159.932 70.8555 157.696 66.0646C155.46 61.2741 150.457 57.0633 150.457 57.0633L149.996 54.5483L140.223 60.7023L135.705 64.6281C135.705 64.6281 133.141 67.3329 131.442 69.927C130.16 71.6995 128.734 73.9801 128.099 76.8479C127.868 77.8961 125.179 90.4305 125.098 99.1679C125.098 99.1679 124.685 106.79 124.245 111.108C123.699 116.452 122.868 128.634 123.049 135.852L154.718 134.885C162.544 133.692 161.168 132.915 161.168 132.915L157.024 108.733Z" fill="#66805D"/>
<path d="M149.688 57.1929C149.688 57.1929 149.615 57.2308 149.469 57.2928C149.314 57.3572 149.099 57.4471 148.823 57.5627C148.546 57.6955 148.211 57.8709 147.816 58.0755C147.438 58.3095 146.987 58.5513 146.52 58.884C144.62 60.1575 142.113 62.3161 139.561 65.3092L139.543 65.3304L139.517 65.3351C138.553 65.5121 137.534 65.6996 136.478 65.8934L136.544 65.8176C136.496 67.228 136.446 68.7082 136.394 70.24L136.393 70.2745L136.367 70.2993C134.845 71.7389 133.299 73.3683 131.899 75.1921C131.332 75.9396 130.808 76.7078 130.368 77.5052L130.202 77.8034L130.076 78.1149C129.989 78.3208 129.907 78.528 129.846 78.7463C129.711 79.1749 129.577 79.6004 129.467 80.0303C128.998 81.7402 128.611 83.4091 128.249 84.9992C127.527 88.1809 126.927 91.0573 126.429 93.4741C125.435 98.3082 124.875 101.308 124.875 101.308C124.875 101.308 124.882 101.116 124.943 100.758C124.998 100.399 125.09 99.8709 125.211 99.1915C125.456 97.833 125.827 95.8707 126.308 93.4496C126.791 91.0292 127.379 88.1493 128.092 84.9637C128.45 83.3712 128.834 81.7009 129.302 79.9847C129.412 79.5541 129.546 79.1249 129.682 78.6923C129.743 78.4747 129.827 78.2604 129.916 78.0461L130.048 77.7242L130.215 77.4218C130.661 76.6133 131.189 75.8386 131.76 75.0865C133.17 73.2506 134.719 71.6205 136.252 70.1746L136.225 70.2339C136.28 68.7021 136.333 67.222 136.384 65.8119L136.387 65.7475L136.45 65.7361C137.505 65.546 138.525 65.3619 139.49 65.1882L139.446 65.214C142.021 62.2165 144.548 60.0704 146.471 58.8112C146.944 58.4829 147.401 58.2451 147.784 58.0164C148.183 57.8169 148.524 57.6472 148.804 57.5208C149.085 57.4139 149.304 57.3304 149.461 57.271C149.61 57.2157 149.688 57.1929 149.688 57.1929Z" fill="#263238"/>
<path d="M139.058 75.7988L139.437 107.218L134.648 137.819H147.274C147.274 137.819 153.012 114.584 154.348 109.701C155.646 104.96 157.59 81.095 157.762 79.9233C157.83 79.4639 159.198 71.2222 155.169 67.334" fill="#66805D"/>
<path d="M155.168 67.3345C155.168 67.3345 155.259 67.421 155.432 67.5967C155.604 67.7728 155.845 68.0504 156.122 68.4437C156.674 69.2274 157.324 70.5225 157.699 72.3155C158.076 74.1031 158.209 76.3613 157.939 78.9447C157.749 80.2317 157.654 81.6075 157.515 83.0743C157.381 84.5387 157.241 86.0869 157.093 87.7132C156.792 90.9653 156.452 94.5279 156.041 98.3506C155.83 100.261 155.611 102.238 155.342 104.27C155.066 106.298 154.798 108.401 154.23 110.498C152.12 118.891 149.799 128.128 147.358 137.84L147.341 137.907H147.273C146.843 137.907 146.378 137.907 145.911 137.907C142.08 137.906 138.317 137.906 134.648 137.906H134.547L134.563 137.806C136.335 126.519 137.97 116.102 139.366 107.208L139.365 107.219C139.263 97.7055 139.178 89.8517 139.119 84.3723C139.095 81.6367 139.075 79.4946 139.062 78.0322C139.058 77.3056 139.055 76.7482 139.053 76.3686C139.052 75.9927 139.057 75.7992 139.057 75.7992C139.057 75.7992 139.066 75.9927 139.074 76.3686C139.081 76.7482 139.092 77.3052 139.105 78.0319C139.127 79.4943 139.16 81.636 139.201 84.3713C139.274 89.8506 139.38 97.7038 139.508 107.218V107.224L139.507 107.23C138.119 116.126 136.493 126.545 134.732 137.833L134.647 137.733C138.316 137.733 142.079 137.733 145.911 137.732C146.377 137.732 146.843 137.732 147.273 137.732L147.188 137.799C149.634 128.087 151.96 118.85 154.074 110.456C154.642 108.372 154.911 106.278 155.189 104.25C155.462 102.221 155.683 100.245 155.897 98.3352C156.314 94.5144 156.661 90.9529 156.97 87.7018C157.122 86.0762 157.267 84.5283 157.404 83.0642C157.547 81.6042 157.649 80.2119 157.842 78.9343C158.12 76.3613 157.998 74.1109 157.632 72.3292C157.269 70.5423 156.633 69.2502 156.092 68.4635C155.822 68.0688 155.585 67.7885 155.418 67.6088C155.251 67.4297 155.168 67.3345 155.168 67.3345Z" fill="#263238"/>
<path d="M145.733 110.31C145.726 110.332 145.351 110.23 144.757 110.028C144.164 109.825 143.353 109.517 142.478 109.129C141.603 108.741 140.83 108.347 140.282 108.043C139.734 107.739 139.407 107.529 139.418 107.509C139.431 107.487 139.778 107.658 140.339 107.933C140.9 108.209 141.678 108.583 142.549 108.97C143.421 109.356 144.22 109.681 144.8 109.912C145.381 110.143 145.742 110.286 145.733 110.31Z" fill="#263238"/>
<path d="M124.121 112.393C124.118 112.393 124.117 112.365 124.118 112.31C124.12 112.246 124.123 112.167 124.126 112.07C124.138 111.844 124.154 111.535 124.176 111.145C124.228 110.328 124.301 109.172 124.392 107.749C124.586 104.882 124.862 100.921 125.249 96.5525C125.637 92.1824 126.083 88.2356 126.448 85.3846C126.631 83.9591 126.786 82.8066 126.902 82.0115C126.96 81.6252 127.006 81.3197 127.039 81.0964C127.055 81.0005 127.069 80.9227 127.079 80.859C127.089 80.8056 127.096 80.7785 127.099 80.7788C127.102 80.7791 127.101 80.807 127.097 80.8613C127.091 80.9257 127.084 81.0045 127.074 81.1011C127.049 81.3254 127.014 81.6326 126.97 82.0205C126.874 82.8337 126.738 83.9842 126.57 85.3997C126.238 88.2537 125.811 92.2002 125.424 96.5682C125.037 100.935 124.741 104.893 124.516 107.758C124.402 109.179 124.31 110.334 124.244 111.15C124.209 111.539 124.182 111.847 124.162 112.072C124.151 112.169 124.143 112.247 124.136 112.312C124.129 112.366 124.124 112.393 124.121 112.393Z" fill="#263238"/>
<path d="M149.69 63.3701C149.635 63.3886 149.325 62.1629 148.502 60.8672C147.69 59.5634 146.719 58.7536 146.759 58.7124C146.772 58.6966 147.031 58.877 147.399 59.2295C147.767 59.5809 148.234 60.1147 148.65 60.774C149.064 61.4339 149.344 62.0858 149.501 62.5694C149.659 63.0536 149.71 63.3651 149.69 63.3701Z" fill="#263238"/>
<path d="M127.411 102.406C127.42 102.404 127.452 102.483 127.442 102.635C127.431 102.782 127.366 103.008 127.168 103.203C126.983 103.401 126.615 103.542 126.257 103.41C126.082 103.35 125.915 103.237 125.789 103.076C125.663 102.916 125.594 102.697 125.6 102.486C125.603 102.216 125.687 101.957 125.843 101.755C125.921 101.655 126.022 101.572 126.137 101.523C126.258 101.478 126.345 101.457 126.446 101.425L126.458 101.421L126.469 101.422C126.698 101.427 126.919 101.477 127.078 101.596C127.239 101.712 127.319 101.871 127.36 101.996C127.437 102.254 127.422 102.405 127.411 102.406C127.39 102.411 127.372 102.259 127.276 102.029C127.226 101.917 127.145 101.787 127.006 101.7C126.87 101.609 126.678 101.573 126.469 101.575L126.492 101.571C126.401 101.603 126.285 101.638 126.202 101.672C126.117 101.71 126.039 101.776 125.976 101.859C125.85 102.026 125.777 102.255 125.774 102.487C125.756 102.856 126.018 103.153 126.311 103.259C126.607 103.375 126.906 103.276 127.083 103.113C127.267 102.954 127.344 102.758 127.374 102.625C127.404 102.489 127.397 102.408 127.411 102.406Z" fill="#263238"/>
<path d="M126.94 113.516C126.949 113.514 126.981 113.593 126.971 113.744C126.96 113.892 126.895 114.118 126.697 114.313C126.513 114.511 126.144 114.652 125.787 114.52C125.611 114.46 125.444 114.346 125.319 114.185C125.192 114.026 125.123 113.807 125.129 113.596C125.133 113.326 125.216 113.067 125.372 112.865C125.451 112.765 125.552 112.681 125.667 112.633C125.788 112.588 125.875 112.567 125.975 112.535L125.988 112.531L125.999 112.532C126.227 112.537 126.449 112.587 126.608 112.706C126.768 112.822 126.848 112.981 126.889 113.106C126.967 113.364 126.952 113.515 126.94 113.516C126.92 113.52 126.901 113.369 126.805 113.139C126.755 113.027 126.674 112.897 126.536 112.81C126.4 112.718 126.207 112.683 125.998 112.684L126.021 112.681C125.93 112.713 125.814 112.748 125.731 112.781C125.646 112.82 125.568 112.885 125.505 112.969C125.379 113.136 125.306 113.365 125.304 113.597C125.285 113.966 125.547 114.263 125.84 114.369C126.137 114.485 126.436 114.385 126.612 114.223C126.796 114.063 126.874 113.868 126.904 113.735C126.933 113.599 126.926 113.518 126.94 113.516Z" fill="#263238"/>
<path d="M153.747 65.4749C153.729 65.5048 153.313 65.2382 152.576 64.9562C152.209 64.812 151.757 64.6822 151.248 64.5782C150.736 64.4847 150.166 64.4237 149.566 64.428C148.965 64.4401 148.397 64.5172 147.888 64.6245C147.382 64.7426 146.933 64.8847 146.571 65.039C145.842 65.3415 145.433 65.6191 145.414 65.5899C145.408 65.5799 145.506 65.5064 145.692 65.3814C145.783 65.317 145.898 65.2429 146.04 65.1701C146.18 65.0957 146.336 65.0014 146.521 64.926C146.884 64.7546 147.337 64.597 147.852 64.4679C148.369 64.3492 148.95 64.2657 149.563 64.2536C150.177 64.249 150.759 64.3167 151.28 64.421C151.798 64.5357 152.255 64.6809 152.622 64.8422C152.81 64.9126 152.968 65.0021 153.11 65.0729C153.254 65.1416 153.371 65.2127 153.464 65.2747C153.653 65.3938 153.754 65.4645 153.747 65.4749Z" fill="#263238"/>
<g opacity="0.3">
<path d="M126.094 94.8641C127.462 92.876 127.963 91.0008 128.694 88.7014C129.78 85.2844 130.083 81.4237 131.787 78.2686C132.79 76.4105 133.97 74.5042 135.715 73.3127C137.417 72.1508 137.669 70.6733 137.635 66.6778C138.851 66.6899 140.137 65.753 140.29 65.589C141.119 64.6994 141.718 63.287 141.782 62.7964C140.928 63.7232 139.506 65.2611 139.506 65.2611C139.506 65.2611 136.421 65.8338 136.466 65.814C136.39 67.3512 136.388 68.6992 136.312 70.2364C136.312 70.2364 130.394 76.5094 129.933 77.7706C129.472 79.0321 126.094 94.8641 126.094 94.8641Z" fill="black"/>
</g>
<g opacity="0.3">
<path d="M148.064 134.029C155.565 119.846 157.895 101.199 157.449 83.436C157.449 83.436 155.296 105.026 154.571 108.732C153.85 112.412 148.064 134.029 148.064 134.029Z" fill="black"/>
</g>
<path d="M149.211 54.9102C149.214 54.9152 149.157 54.9594 149.043 55.0386C148.914 55.1264 148.748 55.2388 148.543 55.3773C148.086 55.6774 147.457 56.0905 146.687 56.5959C145.095 57.621 142.927 59.017 140.531 60.5595C139.604 61.1503 138.71 61.7194 137.874 62.2519L137.88 62.2475C137.59 62.4719 137.307 62.6909 137.032 62.9035C136.75 63.11 136.508 63.3203 136.274 63.55C135.809 63.9986 135.395 64.4349 135.023 64.8309L134.956 64.9024L134.917 64.8135C134.515 63.885 134.186 63.1258 133.949 62.5768C133.844 62.3253 133.759 62.1221 133.694 61.9645C133.637 61.8237 133.61 61.7482 133.616 61.7459C133.622 61.7432 133.66 61.8136 133.727 61.9494C133.801 62.1034 133.896 62.3019 134.014 62.548C134.264 63.0912 134.611 63.8424 135.035 64.7615L134.929 64.7444C135.296 64.3414 135.705 63.8991 136.169 63.442C136.395 63.214 136.66 62.9809 136.937 62.7754C137.209 62.5618 137.49 62.3418 137.778 62.1161L137.781 62.1137L137.784 62.1117C138.618 61.5772 139.511 61.0055 140.437 60.4119C142.844 58.8858 145.022 57.505 146.622 56.4906C147.404 56.0047 148.043 55.6076 148.507 55.3193C148.719 55.1918 148.89 55.0889 149.025 55.0084C149.144 54.939 149.208 54.9051 149.211 54.9102Z" fill="#263238"/>
<path d="M118.254 39.428L114.061 38.9391C112.371 40.6533 110.202 41.937 107.692 42.5533C100.473 44.3256 93.1836 39.9163 91.4097 32.7046C89.6355 25.493 94.0493 18.2103 101.268 16.438C108.486 14.6658 115.775 19.0751 117.55 26.2867C118.29 29.298 117.949 32.32 116.778 34.9497L116.783 34.9437L118.254 39.428Z" fill="white"/>
<path d="M118.253 39.428C118.253 39.428 118.215 39.3257 118.149 39.1316C118.081 38.9324 117.984 38.6467 117.857 38.2721C117.603 37.5149 117.229 36.403 116.742 34.9567L116.815 34.9698L116.81 34.9758C116.796 34.9939 116.769 34.9969 116.751 34.9825C116.736 34.9704 116.731 34.9496 116.739 34.9325C117.442 33.326 118.058 31.0695 117.828 28.3983C117.771 27.734 117.666 27.0476 117.493 26.3521C117.288 25.666 117.101 24.9474 116.778 24.2532C116.179 22.8526 115.3 21.465 114.12 20.244C112.943 19.0231 111.469 17.9715 109.772 17.2428C108.078 16.5124 106.163 16.109 104.189 16.1499C100.246 16.1949 96.0864 18.2186 93.5899 21.7741C92.3272 23.5819 91.4844 25.6522 91.2367 27.7615C90.9648 29.8653 91.2044 31.9746 91.8553 33.8762C92.4997 35.7843 93.5936 37.4576 94.8996 38.8009C96.2103 40.1463 97.7496 41.1566 99.3369 41.8203C100.925 42.4869 102.559 42.8065 104.099 42.8537C104.292 42.8561 104.483 42.8588 104.673 42.8611C104.863 42.8668 105.052 42.8668 105.238 42.8433C105.61 42.8105 105.976 42.7783 106.336 42.7464C107.044 42.6053 107.736 42.5053 108.376 42.2991C110.956 41.5238 112.822 40.1295 114.032 38.9109C114.041 38.9019 114.053 38.8978 114.065 38.8992C115.417 39.0675 116.458 39.1973 117.168 39.2858C117.518 39.3308 117.786 39.365 117.974 39.3888C118.156 39.4126 118.253 39.428 118.253 39.428C118.253 39.428 118.167 39.422 117.989 39.4035C117.804 39.3841 117.539 39.3559 117.192 39.3193C116.474 39.2416 115.422 39.1272 114.055 38.9787L114.088 38.9669C112.882 40.204 111.011 41.6227 108.411 42.4181C107.767 42.6291 107.068 42.7337 106.354 42.8789C105.99 42.9124 105.621 42.9466 105.245 42.9815C105.057 43.0056 104.867 43.007 104.675 43.0016C104.483 42.9999 104.289 42.9983 104.094 42.9966C102.538 42.9547 100.884 42.6368 99.2748 41.9668C97.667 41.2998 96.1062 40.2807 94.7757 38.9206C93.4503 37.5625 92.3389 35.8685 91.6831 33.9353C91.0208 32.0091 90.7755 29.8707 91.0504 27.7367C91.3008 25.5976 92.154 23.4974 93.4348 21.6641C93.5792 21.4304 93.758 21.2232 93.9316 21.0129L94.4518 20.3835L95.0261 19.8081C95.2151 19.6146 95.4051 19.4231 95.6196 19.2595C95.8273 19.0885 96.0344 18.9178 96.2412 18.7474C96.4432 18.571 96.6795 18.4416 96.8964 18.2873C97.1196 18.1425 97.333 17.9825 97.5633 17.8518C97.7969 17.7267 98.0298 17.6016 98.2618 17.4772C100.132 16.5071 102.185 15.9964 104.185 15.9679C106.186 15.929 108.126 16.3407 109.84 17.0838C111.557 17.8256 113.048 18.894 114.235 20.1327C115.426 21.3714 116.31 22.7781 116.911 24.1962C117.234 24.8987 117.422 25.6257 117.625 26.3195C117.797 27.0227 117.9 27.7165 117.954 28.3872C118.173 31.0853 117.537 33.3558 116.815 34.9661L116.744 34.9228L116.749 34.9171C116.763 34.899 116.79 34.896 116.808 34.9101C116.814 34.9154 116.819 34.9228 116.821 34.9302C117.29 36.3963 117.651 37.523 117.896 38.2906C118.014 38.6624 118.104 38.9461 118.166 39.144C118.227 39.3351 118.253 39.428 118.253 39.428Z" fill="#263238"/>
<path d="M98.2793 29.807L99.8897 28.0274L103.307 30.7674L108.382 24.9443L110.042 26.5593L103.229 34.0469L98.2793 29.807Z" fill="#66805D"/>
<path d="M81.3191 40.5908C81.928 40.515 82.8205 40.4037 83.9794 40.2592C83.9895 40.2582 84.0003 40.2615 84.008 40.2692C85.0458 41.3141 86.6455 42.5096 88.8578 43.1742C89.4059 43.3509 89.9996 43.4368 90.6068 43.5578C90.9153 43.585 91.2291 43.6128 91.5483 43.6407C91.7077 43.6608 91.8692 43.6611 92.032 43.6561C92.1948 43.6541 92.3589 43.6521 92.5244 43.6497C93.8448 43.6091 95.2455 43.3352 96.6075 42.7634C96.9569 42.6172 97.3037 42.4509 97.6454 42.2655C97.541 42.2252 97.4359 42.1873 97.3319 42.1437C95.756 41.4902 94.2261 40.4912 92.9221 39.1579C91.6228 37.827 90.5337 36.1665 89.8909 34.2715C89.2417 32.3836 89.0014 30.2874 89.2706 28.196C89.516 26.0991 90.3524 24.0409 91.6077 22.2438C91.7494 22.0148 91.9246 21.8116 92.0947 21.6053L92.6046 20.9887L92.8238 20.769C92.6979 20.763 92.572 20.7546 92.4468 20.7529C90.7542 20.7177 89.1122 21.0638 87.6602 21.6899C86.2055 22.3149 84.9407 23.2166 83.9321 24.2632C82.9205 25.3101 82.1669 26.4999 81.6531 27.7007C81.3765 28.2956 81.2154 28.9119 81.0398 29.5001C80.8921 30.0966 80.8012 30.6851 80.7529 31.2545C80.5558 33.5452 81.0841 35.4797 81.687 36.8572C81.6933 36.8717 81.6896 36.8891 81.6769 36.8995C81.2634 38.1288 80.9452 39.0755 80.728 39.7206C80.6193 40.0419 80.536 40.2867 80.478 40.4574C80.4212 40.6237 80.3887 40.7115 80.3887 40.7115C80.3887 40.7115 80.4719 40.6985 80.628 40.6783C80.7884 40.6586 81.0183 40.6294 81.3191 40.5908Z" fill="#F5F5F5"/>
<path d="M81.319 40.5909C81.319 40.5909 81.2411 40.6076 81.0857 40.6308C80.9236 40.6542 80.6927 40.6881 80.3913 40.7317L80.3594 40.7364L80.3694 40.7055C80.6292 39.9212 81.0602 38.6194 81.6342 36.8864L81.6476 36.8667C81.6409 36.8636 81.6499 36.8881 81.6402 36.8646L81.617 36.8103L81.5701 36.7003C81.5395 36.6262 81.509 36.5514 81.4781 36.4757C81.416 36.3244 81.3599 36.1672 81.3022 36.0072C81.1891 35.6863 81.0884 35.3469 80.9981 34.9922C80.8202 34.2823 80.694 33.505 80.6615 32.675C80.6265 31.8457 80.6813 30.9645 80.8498 30.0594C80.928 29.604 81.0699 29.1517 81.2076 28.6943C81.3418 28.2325 81.5352 27.7738 81.7453 27.3214C82.5861 25.5029 84.0055 23.7535 85.9436 22.5131C87.8668 21.2684 90.3036 20.5441 92.827 20.6842L93.018 20.695L92.8834 20.8301C92.8153 20.8985 92.7398 20.974 92.6642 21.0497L92.6696 21.0437C91.13 22.7767 89.9525 24.9724 89.483 27.3882C88.8546 30.6996 89.5219 34.1082 91.1387 36.7319C92.7451 39.3766 95.1779 41.2461 97.6711 42.1961L97.8342 42.2581L97.6798 42.3316C97.0693 42.6216 96.4816 42.9274 95.865 43.1203C95.2541 43.3241 94.6422 43.4724 94.0397 43.5709C92.8381 43.7705 91.6613 43.7457 90.6003 43.6186L90.5956 43.6179L90.5936 43.6176C90.2066 43.5394 89.8253 43.4754 89.4558 43.3929C89.0842 43.3144 88.7335 43.1947 88.3951 43.0824C87.7201 42.8443 87.1046 42.5633 86.5551 42.2551C85.4552 41.6374 84.6174 40.9346 83.9975 40.3072C83.9924 40.275 83.9219 40.3068 83.8716 40.3055C83.8186 40.3119 83.7662 40.3179 83.7145 40.3239C83.6115 40.336 83.5114 40.3481 83.4144 40.3595C83.2208 40.3823 83.0399 40.4034 82.8714 40.4232C82.5367 40.4618 82.2528 40.4943 82.0205 40.5211C81.7956 40.5452 81.6217 40.5644 81.4972 40.5778C81.3801 40.5892 81.319 40.5909 81.319 40.5909C81.319 40.5909 81.3784 40.5774 81.4955 40.56C81.6194 40.5426 81.7929 40.5181 82.0168 40.4866C82.2484 40.4554 82.532 40.4172 82.866 40.3726C83.0342 40.3504 83.2151 40.3266 83.4084 40.3008C83.5054 40.288 83.6051 40.275 83.7081 40.2616C83.7598 40.2548 83.8119 40.2478 83.8649 40.2411L83.9451 40.2307C83.9629 40.23 83.9622 40.225 83.9954 40.2274C84.0082 40.2297 84.0213 40.2361 84.0307 40.2458L84.0455 40.2602C84.6688 40.8762 85.5069 41.5667 86.6021 42.1709C87.6973 42.7769 89.0453 43.2732 90.6178 43.4982L90.6114 43.4972C91.1501 43.5428 91.6982 43.6045 92.2658 43.5884C92.8374 43.5847 93.4218 43.5334 94.0179 43.4361C94.613 43.3365 95.2168 43.188 95.8193 42.9845C96.4275 42.7923 97.0069 42.4878 97.6087 42.2001L97.6174 42.3356C95.093 41.3822 92.6256 39.4957 90.9954 36.8194C89.3527 34.1615 88.6751 30.711 89.3114 27.3556C89.7891 24.9024 90.9816 22.6848 92.5377 20.9351L92.5421 20.93L92.5431 20.929C92.6186 20.8532 92.6941 20.7778 92.7622 20.7094L92.8186 20.8549C90.3315 20.7144 87.9296 21.424 86.0298 22.6473C84.1156 23.8665 82.7106 25.5878 81.8735 27.3815C81.662 27.8332 81.4727 28.2765 81.3375 28.7349C81.1975 29.1936 81.0562 29.6362 80.9776 30.0842C80.8071 30.9782 80.7484 31.8504 80.7786 32.671C80.8061 33.4925 80.9266 34.2631 81.0981 34.968C81.1851 35.3201 81.2827 35.6571 81.3925 35.9764C81.4486 36.1356 81.5033 36.2919 81.5633 36.4425C81.5935 36.5179 81.6234 36.5924 81.653 36.6661L81.6986 36.7754L81.7214 36.8298C81.7325 36.8392 81.7432 36.9119 81.7036 36.9347L81.7171 36.9149C81.124 38.651 80.6826 39.9527 80.4054 40.7196L80.3839 40.6935C80.6873 40.6579 80.9189 40.6304 81.082 40.6113C81.2394 40.5942 81.319 40.5909 81.319 40.5909Z" fill="#263238"/>
<path d="M191.144 59.6745H186.968C186.143 59.6745 185.475 59.0065 185.475 58.1823V35.375C185.475 34.5508 186.143 33.8828 186.968 33.8828H191.144C191.969 33.8828 192.638 34.5508 192.638 35.375V58.1823C192.638 59.0062 191.969 59.6745 191.144 59.6745Z" fill="#66805D"/>
<path d="M168.651 60.769H164.578C163.725 60.769 163.033 60.0779 163.033 59.2255V50.6041C163.033 49.7517 163.725 49.0605 164.578 49.0605H168.651C169.504 49.0605 170.196 49.7517 170.196 50.6041V59.2255C170.197 60.0779 169.505 60.769 168.651 60.769Z" fill="#66805D"/>
<path d="M179.614 60.7691H175.753C174.841 60.7691 174.102 60.0307 174.102 59.1196V44.3429C174.102 43.4321 174.841 42.6934 175.753 42.6934H179.614C180.526 42.6934 181.265 43.4318 181.265 44.3429V59.1196C181.265 60.0307 180.526 60.7691 179.614 60.7691Z" fill="#66805D"/>
<path d="M189.99 25.3597C189.996 25.365 189.937 25.4428 189.818 25.587C189.681 25.749 189.505 25.9562 189.286 26.2141C188.794 26.7775 188.112 27.5588 187.265 28.5292C185.503 30.5127 183.06 33.2638 180.239 36.4407L180.161 36.5289L180.062 36.4642C178.681 35.5631 177.198 34.5954 175.667 33.5958L175.854 33.5686C175.801 33.631 175.743 33.6984 175.686 33.7661C172.065 38.0101 168.787 41.8509 166.39 44.6604L166.329 44.7325L166.254 44.6768C164.797 43.5957 163.609 42.7148 162.759 42.0837C162.368 41.7859 162.054 41.5475 161.817 41.3671C161.604 41.2007 161.495 41.1095 161.5 41.1015C161.506 41.0934 161.627 41.1692 161.851 41.3205C162.096 41.4901 162.42 41.7138 162.824 41.9938C163.688 42.6068 164.894 43.4629 166.373 44.5135L166.237 44.5299C168.617 41.7068 171.872 37.8468 175.469 33.582C175.526 33.5143 175.583 33.4469 175.636 33.3845L175.718 33.2883L175.823 33.3573C177.353 34.3603 178.834 35.3311 180.213 36.2348L180.035 36.258C182.886 33.1082 185.355 30.3806 187.135 28.4139C188.008 27.4662 188.71 26.7027 189.217 26.1524C189.449 25.9073 189.636 25.7098 189.782 25.5555C189.913 25.4214 189.984 25.3543 189.99 25.3597Z" fill="#66805D"/>
<path d="M190.218 30.8049C190.179 30.8049 190.144 30.1775 190.118 29.1595C190.092 28.1411 190.076 26.732 190.075 25.168L190.241 25.3085C190.196 25.3159 190.148 25.3239 190.099 25.332C188.522 25.5919 187.092 25.8115 186.054 25.9567C185.016 26.1016 184.372 26.172 184.365 26.1331C184.359 26.0942 184.992 25.9537 186.021 25.7579C187.05 25.562 188.475 25.3109 190.052 25.051C190.101 25.0429 190.15 25.0349 190.194 25.0275L190.361 25V25.168C190.36 26.732 190.344 28.1414 190.318 29.1595C190.292 30.1775 190.257 30.8049 190.218 30.8049Z" fill="#66805D"/>
</svg>
