<svg width="195" height="153" viewBox="0 0 195 153" fill="none" xmlns="http://www.w3.org/2000/svg">
<path d="M42.8027 133.09V152.182H70.7375H101.548V133.09H42.8027Z" fill="#F5F5F5"/>
<path d="M40.3379 127.771V133.109H103.602V127.771H70.7375H40.3379Z" fill="#E0E0E0"/>
<path d="M71.9707 152.2H101.549V133.108H103.603V127.771H70.7383V132.614L71.9707 152.2Z" fill="#E0E0E0"/>
<path d="M62.9328 136.177H51.0195V139.051H62.9328V136.177Z" fill="#E0E0E0"/>
<path d="M64.7839 142.642H49.4863V148.71H64.7839V142.642Z" fill="white"/>
<path d="M49.5469 113.101V127.766H71.0052H94.673V113.101H49.5469Z" fill="#F5F5F5"/>
<path d="M47.6543 108.999V113.099H96.2514V108.999H71.0055H47.6543Z" fill="#E0E0E0"/>
<path d="M71.9549 127.765H94.6756V113.1H96.2537V109H71.0078V112.72L71.9549 127.765Z" fill="#EBEBEB"/>
<path d="M65.0109 115.47H55.8594V117.677H65.0109V115.47Z" fill="#E0E0E0"/>
<path d="M66.4326 120.417H54.6816V125.078H66.4326V120.417Z" fill="white"/>
<path d="M138.855 151.688C128.977 144.942 126.62 132.255 126.889 120.826C126.934 118.919 126.704 116.91 127.594 115.227C128.484 113.545 130.59 112.379 132.307 113.165C133.731 113.817 134.366 115.458 135.172 116.812C136.246 118.614 137.833 120.098 139.692 121.038C140.914 121.655 142.421 122.025 143.614 121.351C145.25 120.427 145.421 118.152 145.389 116.255C145.33 112.72 145.271 109.185 145.212 105.651C145.181 103.754 145.155 101.817 145.727 100.011C146.298 98.2049 147.585 96.5191 149.385 95.9948C151.186 95.471 153.429 96.4878 153.83 98.3407C153.996 99.1117 153.847 99.9152 153.908 100.702C153.969 101.489 154.345 102.356 155.095 102.568C155.855 102.782 156.609 102.237 157.17 101.676C159.109 99.74 160.413 97.2592 161.63 94.7931C162.846 92.3265 164.026 89.8023 165.782 87.6951C167.537 85.5878 169.978 83.907 172.695 83.7246C175.412 83.5427 178.325 85.1892 179.04 87.8488C179.756 90.5156 178.224 93.2449 176.548 95.4272C174.061 98.6652 171.109 101.536 167.815 103.922C167.221 104.353 166.577 104.818 166.356 105.523C165.957 106.792 167.169 108.035 168.422 108.438C169.842 108.894 171.375 108.731 172.857 108.89C174.338 109.049 175.949 109.684 176.523 111.076C177.32 113.007 175.719 115.056 174.137 116.403C170.968 119.102 167.34 121.245 163.461 122.711C162.07 123.236 160.606 123.699 159.49 124.691C158.374 125.684 157.712 127.395 158.406 128.724C159.101 130.054 160.851 130.464 162.311 130.177C163.77 129.891 165.071 129.084 166.459 128.544C169.056 127.533 172.426 127.678 174.121 129.913C175.234 131.383 175.352 133.443 174.815 135.214C174.279 136.985 173.168 138.518 171.987 139.932C167.858 144.877 162.547 148.879 156.519 151.038C150.49 153.197 144.89 153.823 138.855 151.688Z" fill="#F5F5F5"/>
<path d="M141.73 144.515C143.353 138.732 145.658 132.54 148.291 126.147C148.955 124.551 149.611 122.974 150.258 121.42C150.907 119.87 151.551 118.333 152.273 116.869C153.706 113.933 155.307 111.22 156.908 108.692C158.508 106.162 160.118 103.82 161.64 101.64C163.167 99.4635 164.629 97.4618 166.039 95.6937C168.849 92.1456 171.45 89.558 173.307 87.8543C174.235 86.9989 174.976 86.3589 175.484 85.9321C175.728 85.7292 175.92 85.5701 176.064 85.4503C176.197 85.3435 176.266 85.2912 176.27 85.2957C176.275 85.3001 176.212 85.3618 176.088 85.478C175.949 85.6045 175.764 85.7725 175.53 85.9862C175.037 86.4304 174.311 87.086 173.399 87.9553C171.573 89.688 169.008 92.2936 166.231 95.8502C164.838 97.6227 163.391 99.6284 161.876 101.809C160.366 103.994 158.767 106.339 157.178 108.867C155.589 111.393 154 114.1 152.58 117.022C151.864 118.479 151.227 120.003 150.577 121.557C149.931 123.111 149.277 124.687 148.613 126.282C145.982 132.67 143.674 138.844 142.039 144.604" fill="#E0E0E0"/>
<path d="M152.373 116.84C152.349 116.844 152.282 116.556 152.179 116.033C152.074 115.509 151.947 114.748 151.804 113.805C151.516 111.919 151.207 109.301 150.878 106.414C150.549 103.525 150.203 100.919 149.888 99.0432C149.732 98.1047 149.599 97.3463 149.5 96.8234C149.404 96.2996 149.362 96.0069 149.385 96.0011C149.409 95.9957 149.495 96.2773 149.632 96.7934C149.772 97.3083 149.943 98.0618 150.129 98.9977C150.509 100.869 150.895 103.481 151.224 106.372C151.542 109.222 151.829 111.801 152.049 113.771C152.153 114.66 152.242 115.41 152.314 116.011C152.374 116.541 152.397 116.836 152.373 116.84Z" fill="#E0E0E0"/>
<path d="M176.725 112.047C176.725 112.071 176.379 112.115 175.752 112.173C175.127 112.235 174.221 112.321 173.106 112.461C170.874 112.726 167.803 113.199 164.437 113.869C161.072 114.545 158.054 115.286 155.885 115.886C154.798 116.178 153.926 116.438 153.321 116.614C152.717 116.792 152.38 116.88 152.371 116.857C152.364 116.834 152.687 116.702 153.279 116.483C153.872 116.267 154.737 115.97 155.818 115.645C157.974 114.983 160.995 114.2 164.37 113.522C167.745 112.85 170.833 112.414 173.08 112.213C174.202 112.103 175.113 112.056 175.743 112.036C176.375 112.02 176.723 112.022 176.725 112.047Z" fill="#E0E0E0"/>
<path d="M142.027 144.058C142.016 144.063 141.958 143.961 141.857 143.762C141.741 143.525 141.6 143.236 141.43 142.884C141.063 142.12 140.561 141.001 139.959 139.61C138.752 136.828 137.207 132.934 135.56 128.614C133.912 124.292 132.405 120.388 131.259 117.586C130.697 116.224 130.235 115.103 129.892 114.27C129.744 113.909 129.624 113.61 129.524 113.366C129.444 113.158 129.407 113.046 129.418 113.04C129.429 113.036 129.487 113.137 129.588 113.336C129.704 113.574 129.844 113.863 130.014 114.214C130.381 114.978 130.883 116.097 131.486 117.488C132.692 120.269 134.237 124.164 135.885 128.486C137.532 132.807 139.039 136.71 140.186 139.513C140.748 140.875 141.21 141.996 141.553 142.828C141.7 143.19 141.821 143.489 141.92 143.733C142.001 143.941 142.038 144.053 142.027 144.058Z" fill="#E0E0E0"/>
<path d="M174.341 133.278C174.344 133.289 174.234 133.336 174.021 133.414C173.768 133.501 173.458 133.609 173.082 133.739C172.215 134.03 171.045 134.422 169.622 134.9C166.7 135.881 162.68 137.281 158.241 138.835C153.8 140.39 149.763 141.755 146.82 142.675C145.348 143.136 144.154 143.496 143.324 143.729C142.94 143.834 142.624 143.92 142.366 143.991C142.146 144.047 142.029 144.07 142.025 144.058C142.022 144.047 142.133 144 142.346 143.922C142.598 143.835 142.908 143.728 143.284 143.598C144.151 143.307 145.32 142.915 146.744 142.437C149.666 141.457 153.686 140.055 158.127 138.501C162.566 136.947 166.602 135.582 169.545 134.661C171.017 134.201 172.211 133.84 173.042 133.608C173.425 133.503 173.742 133.416 174 133.346C174.22 133.289 174.337 133.266 174.341 133.278Z" fill="#E0E0E0"/>
<path d="M174.119 53.1783C175.708 52.5124 176.837 50.8753 176.847 48.9464C176.857 46.4195 174.944 44.3623 172.573 44.3511C170.203 44.3399 168.273 46.3797 168.262 48.9066C168.254 50.8534 169.392 52.5097 170.997 53.1783C164.392 54.1727 164.692 61.3475 164.692 61.3475L180.311 61.4195C180.311 61.4195 180.667 54.1669 174.119 53.1783Z" fill="#E0E0E0"/>
<path d="M156.151 12.6568C156.697 12.3274 157.277 12.0776 157.876 11.9077L158.231 10.2014L161.116 10.1509L161.531 11.8434C162.136 11.9922 162.725 12.2215 163.281 12.5316L164.739 11.5766L166.815 13.5797L165.911 15.0692C166.241 15.6145 166.491 16.195 166.661 16.7935L168.368 17.1483L168.419 20.0314L166.725 20.4466C166.576 21.0508 166.346 21.6394 166.036 22.1959L166.992 23.6528L164.988 25.7274L163.497 24.8242C162.952 25.1536 162.371 25.4034 161.772 25.5732L161.417 27.2796L158.532 27.3301L158.116 25.6371C157.512 25.4883 156.923 25.259 156.366 24.9489L154.908 25.904L152.833 23.9009L153.736 22.4113C153.407 21.866 153.157 21.2859 152.986 20.687L151.279 20.3322L151.229 17.4491L152.922 17.0339C153.071 16.4297 153.301 15.8411 153.611 15.2847L152.655 13.8277L154.659 11.7531L156.151 12.6568ZM157.689 16.4976C156.502 17.7266 156.536 19.685 157.766 20.8716C158.996 22.0582 160.955 22.0238 162.142 20.7948C163.329 19.5657 163.295 17.6073 162.065 16.4207C160.836 15.2342 158.876 15.2686 157.689 16.4976Z" fill="#E0E0E0"/>
<path d="M157.69 16.5065C157.69 16.5065 157.851 16.2785 158.266 16.001C158.673 15.7301 159.384 15.4289 160.285 15.5237C160.73 15.5737 161.215 15.7181 161.658 16.0108C162.096 16.3036 162.509 16.7201 162.768 17.2604C162.904 17.5259 162.998 17.8208 163.049 18.1288C163.105 18.4358 163.113 18.7594 163.067 19.0812C162.989 19.7274 162.683 20.3643 162.208 20.8644C161.724 21.3569 161.098 21.6845 160.455 21.7859C160.134 21.8436 159.811 21.8467 159.502 21.802C159.192 21.7618 158.893 21.6778 158.623 21.5513C158.074 21.3122 157.643 20.914 157.335 20.4867C157.026 20.055 156.865 19.5746 156.799 19.133C156.673 18.236 156.949 17.5152 157.205 17.0995C157.467 16.6758 157.69 16.5065 157.69 16.5065C157.706 16.5208 157.503 16.7094 157.264 17.1339C157.031 17.5514 156.785 18.2553 156.922 19.1142C156.993 19.537 157.154 19.9933 157.454 20.4018C157.752 20.8054 158.166 21.1804 158.689 21.4025C158.946 21.5205 159.229 21.5982 159.523 21.6344C159.815 21.6751 160.122 21.6706 160.425 21.6148C161.033 21.5169 161.622 21.2063 162.08 20.7415C162.528 20.2682 162.818 19.6689 162.894 19.0579C162.939 18.754 162.933 18.4479 162.882 18.1569C162.835 17.8651 162.748 17.5853 162.621 17.3328C162.38 16.8184 161.991 16.4184 161.577 16.1342C161.158 15.8499 160.696 15.7047 160.271 15.6488C159.407 15.5416 158.712 15.8124 158.303 16.06C157.886 16.3125 157.704 16.5225 157.69 16.5065Z" fill="#E0E0E0"/>
<path d="M156.15 12.6689C156.15 12.6716 156.118 12.6542 156.054 12.6184C155.984 12.5778 155.89 12.5237 155.768 12.4531C155.508 12.2993 155.132 12.0777 154.645 11.7898L154.68 11.7854C154.17 12.3194 153.499 13.022 152.688 13.8712L152.694 13.8153C152.985 14.2555 153.308 14.7449 153.655 15.2687L153.672 15.295L153.657 15.3228C153.374 15.8354 153.136 16.4195 152.98 17.0604L152.971 17.0944L152.937 17.1028C152.409 17.2338 151.838 17.3755 151.244 17.5225L151.293 17.4604C151.31 18.3681 151.33 19.3316 151.35 20.343L151.294 20.276C151.823 20.385 152.405 20.5048 153.002 20.6277L153.046 20.6366L153.058 20.6795C153.216 21.236 153.464 21.8281 153.802 22.3841L153.826 22.4234L153.802 22.4632C153.523 22.9253 153.215 23.4348 152.901 23.9541L152.888 23.8563C153.541 24.4846 154.245 25.1622 154.966 25.8567L154.863 25.8469C155.317 25.5488 155.815 25.2216 156.32 24.8904L156.363 24.8623L156.408 24.8873C156.917 25.1707 157.511 25.4129 158.138 25.5657L158.188 25.5778L158.201 25.6283C158.331 26.1584 158.473 26.7367 158.617 27.3208L158.531 27.2547C159.445 27.2381 160.424 27.2207 161.416 27.2028L161.331 27.273C161.444 26.734 161.564 26.1526 161.686 25.5666L161.697 25.5139L161.749 25.4992C162.316 25.3387 162.905 25.0902 163.45 24.7599L163.452 24.759L163.498 24.7313L163.544 24.759C164.044 25.0625 164.542 25.3637 165.034 25.6623L164.925 25.6766C165.602 24.9758 166.27 24.2844 166.929 23.6024L166.919 23.7115C166.597 23.2207 166.279 22.7349 165.964 22.2541L165.935 22.2098L165.96 22.1638C166.267 21.615 166.494 21.0317 166.642 20.4364L166.654 20.3859L166.705 20.3739C167.277 20.234 167.841 20.0963 168.398 19.96L168.334 20.0436C168.318 19.0595 168.302 18.0981 168.286 17.1605L168.351 17.2387C167.772 17.1176 167.203 16.9983 166.644 16.8816L166.597 16.8718L166.584 16.8258C166.411 16.2144 166.159 15.6405 165.845 15.1194L165.821 15.0796L165.845 15.0399C166.156 14.5295 166.457 14.0352 166.751 13.552L166.763 13.6432C166.034 12.9371 165.346 12.2707 164.691 11.6361L164.776 11.6441C164.263 11.9789 163.78 12.2926 163.316 12.5956L163.283 12.6166L163.25 12.5979C162.669 12.273 162.086 12.0535 161.516 11.9105L161.482 11.902L161.474 11.8681C161.325 11.2522 161.191 10.698 161.064 10.1742L161.116 10.214C159.999 10.2287 159.047 10.2413 158.231 10.252L158.269 10.2203C158.123 10.9009 158.003 11.4591 157.903 11.9244L157.9 11.9413L157.883 11.9458C157.273 12.1161 156.843 12.3154 156.564 12.4531C156.431 12.5228 156.328 12.576 156.254 12.6153C156.183 12.6546 156.15 12.6716 156.15 12.6689C156.15 12.6667 156.183 12.6439 156.246 12.6037C156.313 12.563 156.412 12.5022 156.55 12.4285C156.826 12.2819 157.254 12.0727 157.867 11.8926L157.847 11.9141C157.941 11.4479 158.054 10.888 158.192 10.2055L158.198 10.1747L158.23 10.1738C159.045 10.1559 159.997 10.1349 161.114 10.1108L161.156 10.1099L161.166 10.1505C161.296 10.6734 161.434 11.2272 161.587 11.8417L161.545 11.7992C162.125 11.9405 162.719 12.1608 163.312 12.4884L163.246 12.4906C163.709 12.1854 164.19 11.8694 164.702 11.532L164.747 11.5025L164.786 11.5405C165.444 12.1724 166.134 12.8361 166.866 13.5391L166.908 13.5798L166.878 13.6303C166.585 14.1143 166.286 14.6099 165.977 15.1212V15.0416C166.299 15.573 166.558 16.1594 166.737 16.7837L166.676 16.7274C167.235 16.8432 167.805 16.9607 168.384 17.0805L168.448 17.0935L168.449 17.1587C168.467 18.0959 168.485 19.0572 168.503 20.0413L168.504 20.1088L168.439 20.1249C167.882 20.2617 167.318 20.4007 166.745 20.5415L166.808 20.4784C166.659 21.0885 166.426 21.6869 166.113 22.2496L166.109 22.1598C166.425 22.6406 166.744 23.126 167.065 23.6163L167.104 23.6748L167.055 23.7253C166.397 24.4073 165.729 25.0992 165.052 25.8004L165.003 25.8513L164.942 25.8147C164.449 25.5161 163.952 25.2149 163.452 24.9119H163.543L163.542 24.9128C162.982 25.2516 162.379 25.5059 161.796 25.6703L161.859 25.6033C161.737 26.1892 161.616 26.7706 161.503 27.3096L161.489 27.3785L161.419 27.3798C160.427 27.3968 159.447 27.4133 158.534 27.429L158.465 27.4303L158.448 27.3628C158.305 26.7787 158.164 26.1999 158.034 25.6699L158.097 25.7329C157.456 25.5751 156.847 25.3262 156.326 25.0352L156.414 25.0321C155.908 25.3624 155.409 25.6886 154.955 25.9858L154.899 26.022L154.852 25.9765C154.132 25.2802 153.43 24.6008 152.779 23.9711L152.733 23.9273L152.766 23.8733C153.081 23.3553 153.391 22.8462 153.672 22.385V22.4641C153.328 21.8947 153.077 21.2891 152.917 20.7202L152.973 20.7716C152.376 20.6465 151.794 20.524 151.266 20.4132L151.212 20.4016L151.211 20.3462C151.195 19.3343 151.181 18.3712 151.167 17.4631L151.166 17.4126L151.215 17.4005C151.81 17.2566 152.382 17.118 152.91 16.9902L152.868 17.0327C153.03 16.382 153.276 15.7907 153.567 15.2722L153.569 15.3259C153.227 14.7994 152.907 14.3078 152.619 13.8649L152.6 13.8345L152.625 13.809C153.446 12.9688 154.125 12.2743 154.641 11.746L154.657 11.7295L154.676 11.7416C155.152 12.0379 155.519 12.2658 155.774 12.4245C155.894 12.5009 155.987 12.5599 156.056 12.6037C156.118 12.6444 156.15 12.6667 156.15 12.6689Z" fill="#E0E0E0"/>
<path d="M56.0183 7.51552C57.1367 7.86814 58.3141 7.56915 59.2018 6.82994C59.7549 7.62367 60.4561 8.56936 61.249 9.57627C61.6854 10.1309 62.1076 10.648 62.5096 11.1289C61.7015 11.532 61.0491 12.2448 60.7562 13.174C60.5415 13.8538 60.5487 14.5505 60.7365 15.1865C59.9902 15.4189 59.1472 15.7031 58.2448 16.0343C57.4475 16.327 56.7101 16.618 56.0501 16.8933C55.7317 15.8372 54.9142 14.9509 53.7824 14.5939C51.9638 14.02 50.0239 15.0292 49.4502 16.8468C48.876 18.6649 49.8853 20.6032 51.7044 21.177C53.5231 21.7509 55.4629 20.7422 56.0371 18.9241C56.1614 18.5303 56.1981 18.1326 56.182 17.742C56.9042 17.5149 57.7109 17.2423 58.5731 16.9259C59.4965 16.5867 60.3416 16.2497 61.0723 15.9382C61.4891 16.6568 62.1554 17.2343 63.0104 17.5038C64.8291 18.0776 66.7689 17.0685 67.3431 15.2508C67.9169 13.4332 66.908 11.4945 65.0889 10.9211C64.5223 10.7423 63.9481 10.7329 63.4026 10.8379C62.9809 10.2623 62.5069 9.6375 61.9962 8.98857C61.1761 7.94724 60.3993 7.01943 59.7438 6.2838C60.0452 5.90794 60.2862 5.46638 60.4423 4.97253C61.0665 2.99446 60.0984 0.926109 58.2793 0.352709C56.4606 -0.221138 54.4796 0.917619 53.8553 2.89525C53.2311 4.87332 54.1992 6.94167 56.0183 7.51552Z" fill="#E0E0E0"/>
<path d="M50.4455 53.6042L53.934 57.9005C54.0659 58.0631 54.2698 58.1503 54.4786 58.1338L59.9977 57.6976C60.524 57.656 60.8693 58.2356 60.5826 58.6781L57.5718 63.3216C57.4577 63.4973 57.4376 63.718 57.5181 63.9115L59.6386 69.0225C59.8408 69.5097 59.3963 70.0174 58.886 69.8815L53.5369 68.4545C53.3343 68.4004 53.1183 68.4496 52.9587 68.5855L48.7503 72.1805C48.3492 72.5233 47.7285 72.2574 47.7007 71.7304L47.4056 66.2052C47.3944 65.996 47.2808 65.8056 47.102 65.6961L42.3807 62.8068C41.9304 62.5315 41.9916 61.8593 42.4844 61.6698L47.6507 59.6819C47.8461 59.6068 47.9923 59.4401 48.041 59.2363L49.3316 53.8558C49.4546 53.3436 50.1133 53.1944 50.4455 53.6042Z" fill="#E0E0E0"/>
<path d="M140.205 73.2039C140.205 69.3613 136.73 66.3298 132.749 67.0766C130.246 67.5464 128.25 69.5897 127.812 72.0978C127.538 73.6656 127.861 75.14 128.577 76.357H128.573L128.591 76.3806C128.83 76.7838 129.13 77.0725 129.434 77.4962L133.059 82.2965C133.511 82.8941 134.408 82.8936 134.859 82.2965L138.425 77.5753C138.425 77.5753 139.09 76.782 139.332 76.3744L139.344 76.3574H139.342C139.887 75.4309 140.205 74.3556 140.205 73.2039ZM133.96 75.9212C132.442 75.9212 131.212 74.6913 131.212 73.1744C131.212 71.6576 132.442 70.4277 133.96 70.4277C135.478 70.4277 136.708 71.6576 136.708 73.1744C136.708 74.6913 135.478 75.9212 133.96 75.9212Z" fill="#E0E0E0"/>
<path d="M101.036 44.6684C113.377 44.6684 123.381 34.6701 123.381 22.3367C123.381 10.0032 113.377 0.00488281 101.036 0.00488281C88.6954 0.00488281 78.6914 10.0032 78.6914 22.3367C78.6914 34.6701 88.6954 44.6684 101.036 44.6684Z" fill="#9CB394"/>
<g opacity="0.8">
<path d="M101.036 44.6665C113.377 44.6665 123.381 34.6682 123.381 22.3347C123.381 10.0012 113.377 0.00292969 101.036 0.00292969C88.6954 0.00292969 78.6914 10.0012 78.6914 22.3347C78.6914 34.6682 88.6954 44.6665 101.036 44.6665Z" fill="white"/>
</g>
<path d="M108.551 16.639C107.093 11.962 102.118 9.35104 97.4375 10.808C92.7574 12.265 90.1454 17.2374 91.6032 21.9149C92.6585 25.3012 95.558 27.6029 98.8546 28.0632C99.1672 29.0665 99.5205 30.1999 99.5205 30.1999L106.948 27.888C106.948 27.888 106.619 26.675 106.302 25.5993C108.592 23.3428 109.573 19.9189 108.551 16.639Z" fill="#9CB394"/>
<path d="M104.249 28.6955C104.249 28.6955 104.24 28.6597 104.225 28.5882C104.211 28.5127 104.191 28.4077 104.165 28.2718C104.114 27.9934 104.038 27.5826 103.955 27.0517C103.872 26.5203 103.778 25.8683 103.718 25.1058C103.662 24.3443 103.635 23.4678 103.753 22.5096C103.812 22.0305 103.897 21.5327 104.054 21.0254C104.138 20.7751 104.261 20.5186 104.472 20.3251C104.681 20.1307 104.99 20.0346 105.285 20.1007C105.43 20.1338 105.573 20.2214 105.657 20.3524C105.746 20.4797 105.782 20.6451 105.757 20.7979C105.71 21.1068 105.518 21.3709 105.278 21.5653C104.78 21.9354 104.119 22.0869 103.478 21.989C102.834 21.8925 102.225 21.5099 101.841 20.9481C101.653 20.6683 101.498 20.3457 101.486 19.9868C101.464 19.6337 101.692 19.24 102.073 19.1586C102.261 19.1148 102.466 19.1886 102.597 19.3231C102.732 19.4558 102.812 19.6368 102.828 19.8241C102.856 20.2031 102.684 20.5468 102.495 20.8511C102.098 21.4585 101.447 21.93 100.698 22.0386C99.9538 22.1459 99.1707 21.8759 98.6788 21.328C98.4271 21.0616 98.2715 20.6916 98.3019 20.3197C98.318 20.1361 98.3998 19.9439 98.5568 19.8295C98.7088 19.7092 98.9136 19.6797 99.0934 19.715C99.2745 19.7486 99.4431 19.8447 99.5669 19.9756C99.6935 20.1048 99.782 20.2621 99.8482 20.4234C99.9757 20.7479 100.031 21.0925 100.021 21.4312C100.006 22.1097 99.7288 22.7639 99.2696 23.2234C98.8134 23.6851 98.2026 23.9599 97.5913 24.0104C97.2895 24.0359 96.9657 24.0131 96.7023 23.8433C96.4452 23.6779 96.282 23.34 96.4009 23.0424C96.4613 22.898 96.5869 22.7921 96.7238 22.7376C96.8615 22.6839 97.0104 22.6688 97.1526 22.6902C97.4428 22.7362 97.6691 22.9213 97.8525 23.1099C98.2084 23.5027 98.5188 23.896 98.8246 24.2683C100.034 25.7641 100.953 27.0209 101.579 27.8955C101.892 28.333 102.129 28.6763 102.29 28.9096C102.367 29.024 102.427 29.1129 102.47 29.1764C102.51 29.2372 102.528 29.2693 102.528 29.2693C102.528 29.2693 102.504 29.2412 102.46 29.1826C102.415 29.1205 102.352 29.0338 102.271 28.9221C102.102 28.6892 101.858 28.3523 101.545 27.9201C100.909 27.0539 99.981 25.8048 98.7652 24.317C98.4593 23.9483 98.1427 23.5514 97.7925 23.1684C97.615 22.9856 97.3972 22.8149 97.1401 22.7765C96.8901 22.7371 96.5869 22.8328 96.485 23.0763C96.3857 23.3181 96.5252 23.6211 96.7537 23.7646C96.9885 23.9161 97.2926 23.9402 97.5837 23.9143C98.1717 23.8647 98.7611 23.5979 99.1985 23.1523C99.6385 22.7108 99.9041 22.0811 99.9175 21.4281C99.9269 21.1027 99.8724 20.7702 99.7507 20.4627C99.6318 20.1602 99.401 19.8768 99.0741 19.8201C98.9167 19.7901 98.7464 19.8161 98.6221 19.9148C98.4933 20.0087 98.4244 20.1664 98.4096 20.33C98.3837 20.663 98.5223 21.0049 98.7602 21.2551C99.2253 21.7736 99.9752 22.0337 100.683 21.9304C101.396 21.8276 102.023 21.3754 102.404 20.7917C102.588 20.499 102.748 20.1678 102.721 19.8335C102.707 19.6704 102.637 19.5126 102.522 19.3995C102.41 19.2856 102.248 19.2284 102.094 19.2632C101.941 19.2945 101.804 19.3986 101.716 19.5305C101.625 19.6614 101.589 19.8236 101.592 19.985C101.601 20.3099 101.747 20.6219 101.927 20.8896C102.294 21.4281 102.878 21.7964 103.494 21.8898C104.107 21.9863 104.749 21.8375 105.219 21.4902C105.444 21.3101 105.624 21.058 105.665 20.7854C105.714 20.5124 105.526 20.2411 105.264 20.1883C105.005 20.128 104.719 20.2138 104.531 20.389C104.336 20.5664 104.217 20.8087 104.134 21.0522C103.978 21.547 103.89 22.0453 103.829 22.519C103.708 23.4696 103.729 24.342 103.779 25.1013C103.833 25.8616 103.921 26.5136 103.997 27.0455C104.079 27.5728 104.142 27.984 104.187 28.2682C104.208 28.4045 104.225 28.5105 104.236 28.5864C104.247 28.6584 104.249 28.6955 104.249 28.6955Z" fill="#263238"/>
<path d="M106.803 29.4503L100.426 31.4356C100.162 31.5178 99.8809 31.3703 99.7982 31.1062C99.7159 30.8421 99.8635 30.5614 100.128 30.4787L106.505 28.4935C106.769 28.4112 107.05 28.5587 107.132 28.8229C107.215 29.0874 107.067 29.3681 106.803 29.4503Z" fill="#263238"/>
<path d="M106.932 29.869L100.555 31.8542C100.291 31.9364 100.144 32.2175 100.226 32.4812C100.308 32.7454 100.589 32.8928 100.854 32.8106L101.554 32.5925L103.033 34.07C103.202 34.239 103.451 34.3002 103.679 34.2291L105.958 33.5199C106.189 33.4479 106.36 33.2531 106.401 33.0153L106.755 30.9738L107.231 30.8258C107.495 30.7436 107.642 30.4625 107.56 30.1983C107.478 29.9342 107.197 29.7867 106.932 29.869Z" fill="#263238"/>
<g opacity="0.2">
<path d="M92.9501 15.5809C93.3562 14.8775 93.8382 14.3228 94.2957 13.9255C94.7532 13.5264 95.1731 13.2717 95.4834 13.1398C95.7937 13.0067 95.986 12.9812 96.0223 13.0437C96.1068 13.1859 95.5357 13.614 94.8502 14.4609C94.1642 15.2949 93.3924 16.6205 93.176 18.2213C92.9644 19.8231 93.362 21.3051 93.8051 22.2892C94.2447 23.2863 94.6834 23.849 94.5645 23.9638C94.513 24.0148 94.3342 23.9397 94.0694 23.7296C93.8047 23.5209 93.4662 23.1652 93.1295 22.6602C92.7923 22.1569 92.4725 21.495 92.2651 20.7098C92.0567 19.9268 91.9744 19.0173 92.0951 18.077" fill="white"/>
</g>
<g opacity="0.2">
<path d="M98.1743 12.774C97.6354 12.9363 97.1158 12.9372 96.9722 12.6699C96.9047 12.5363 96.957 12.3553 97.1144 12.1774C97.2709 12.0004 97.5334 11.8301 97.855 11.7318C98.1765 11.6339 98.4895 11.6277 98.718 11.6871C98.9479 11.7461 99.0932 11.8672 99.1115 12.0156" fill="white"/>
</g>
<path d="M106.331 33.19C106.328 33.2083 106.145 33.1846 105.85 33.1918C105.557 33.1976 105.15 33.2476 104.726 33.3924C104.303 33.539 103.951 33.7491 103.716 33.9247C103.48 34.1004 103.35 34.2309 103.336 34.2183C103.327 34.2107 103.438 34.0597 103.668 33.8644C103.897 33.6686 104.254 33.4407 104.691 33.2896C105.129 33.1404 105.55 33.101 105.851 33.1149C106.152 33.1274 106.333 33.1784 106.331 33.19Z" fill="#455A64"/>
<path d="M106.776 30.9876C106.785 31.0162 105.64 31.3983 104.218 31.8412C102.796 32.2841 101.636 32.6198 101.627 32.5907C101.618 32.5621 102.763 32.18 104.186 31.7371C105.607 31.2942 106.767 30.9585 106.776 30.9876Z" fill="#455A64"/>
<path d="M106.613 31.8763C106.618 31.8901 106.387 31.9902 106.005 32.1355C105.624 32.2812 105.093 32.4707 104.502 32.6637C103.91 32.8573 103.37 33.0177 102.976 33.1254C102.583 33.2331 102.337 33.2894 102.332 33.2751C102.328 33.2604 102.566 33.1781 102.954 33.0517C103.373 32.9158 103.892 32.7469 104.468 32.5601C105.042 32.371 105.561 32.2003 105.979 32.0626C106.367 31.9362 106.608 31.862 106.613 31.8763Z" fill="#455A64"/>
<path d="M89.6021 86.0758C89.6021 86.0758 89.3767 86.1517 88.9769 86.2863C86.1852 87.2275 77.882 89.9711 75.3711 90.9977C75.3711 90.9977 79.8156 130.287 80.3375 133.939C80.8593 137.591 80.9899 152.197 80.9899 152.197H128.274C128.274 152.197 128.148 112.823 128.284 106.715C128.461 98.8135 129.441 90.9973 129.441 90.9973L121.181 87.7705L111.525 82.6841L89.6021 86.0758Z" fill="#9CB394"/>
<g opacity="0.3">
<path d="M100.12 94.5771C96.2599 108.904 92.1928 123.175 87.9201 137.385C87.4165 139.059 86.9161 140.899 87.5967 142.51C88.204 143.948 89.6971 144.897 91.2453 145.103C92.7934 145.309 94.3737 144.853 95.7376 144.092C98.9336 142.308 101.009 138.951 102.029 135.437C103.049 131.924 103.14 128.218 103.224 124.561C103.447 114.808 103.67 105.055 103.893 95.3016L100.12 94.5771Z" fill="black"/>
</g>
<path d="M75.3715 90.999C75.3715 90.999 68.4367 94.0703 68.9773 106.388C69.3449 114.77 70.6162 122.435 70.6162 122.435L90.1172 116.822L85.1585 95.4334L75.3715 90.999Z" fill="#9CB394"/>
<path d="M121.62 110.822L120.576 125.038L140.181 118.693C140.181 118.693 135.977 93.6001 129.319 90.999L122.142 103.259L121.62 110.822Z" fill="#9CB394"/>
<path d="M123.849 106.716C123.857 106.716 123.869 106.816 123.885 107.005C123.901 107.22 123.92 107.496 123.945 107.837C123.986 108.589 124.043 109.627 124.113 110.898C124.241 113.483 124.38 117.056 124.506 121.002C124.633 124.937 124.747 128.497 124.831 131.109C124.87 132.381 124.902 133.42 124.925 134.172C124.931 134.515 124.937 134.791 124.941 135.006C124.942 135.196 124.939 135.297 124.93 135.297C124.922 135.298 124.91 135.198 124.894 135.008C124.879 134.794 124.859 134.518 124.834 134.177C124.793 133.425 124.736 132.387 124.666 131.116C124.538 128.531 124.399 124.958 124.273 121.01C124.146 117.077 124.032 113.517 123.948 110.905C123.909 109.633 123.877 108.594 123.854 107.842C123.847 107.499 123.842 107.223 123.838 107.008C123.837 106.817 123.841 106.717 123.849 106.716Z" fill="#263238"/>
<path d="M85.0714 100.733C85.0567 100.739 84.9663 100.578 84.8152 100.28C84.6439 99.9384 84.4324 99.5169 84.1829 99.0191C83.6427 97.9626 82.8892 96.4891 81.7404 95.0951C80.5911 93.7025 79.2062 92.7631 78.1115 92.33C77.0155 91.8822 76.2611 91.8612 76.2696 91.8116C76.2705 91.7986 76.4565 91.7941 76.7906 91.8321C77.1246 91.8683 77.6049 91.9689 78.1715 92.1763C79.3077 92.5794 80.7468 93.5237 81.9197 94.9458C83.0909 96.3675 83.8269 97.8691 84.3309 98.9471C84.5813 99.4897 84.7709 99.9335 84.897 100.242C85.0236 100.552 85.0857 100.726 85.0714 100.733Z" fill="#263238"/>
<path d="M126.142 90.4018C126.208 90.4367 125.402 91.8123 124.906 93.6907C124.393 95.5656 124.401 97.1593 124.326 97.1562C124.297 97.1566 124.259 96.7593 124.287 96.1153C124.315 95.4722 124.426 94.5828 124.681 93.6304C124.937 92.6789 125.288 91.8539 125.586 91.2836C125.885 90.712 126.117 90.3871 126.142 90.4018Z" fill="#263238"/>
<path d="M82.5361 96.527C82.5348 96.5387 82.4655 96.5221 82.3434 96.5476C82.2222 96.5717 82.055 96.6669 81.915 96.86C81.7683 97.0526 81.6722 97.3248 81.6158 97.6716C81.581 97.8428 81.5465 98.03 81.4741 98.2244C81.4025 98.4166 81.2805 98.6217 81.077 98.7585C80.6544 99.0387 80.0614 98.9145 79.6272 98.6025C79.1778 98.2705 78.9131 97.7529 78.5898 97.2855C78.4275 97.049 78.2463 96.8283 78.0098 96.6625C77.7777 96.4966 77.4964 96.3769 77.2147 96.3912C76.9352 96.4055 76.6727 96.5811 76.5323 96.8327C76.3888 97.0915 76.3499 97.4191 76.3262 97.7467C76.3034 98.077 76.2993 98.4113 76.2595 98.7447C76.2193 99.0749 76.1446 99.4186 75.9438 99.7051C75.9009 99.7811 75.8361 99.8401 75.7734 99.8999C75.714 99.963 75.6438 100.015 75.5686 100.058C75.4188 100.144 75.252 100.193 75.0875 100.21C74.7566 100.243 74.4382 100.165 74.1614 100.034C73.5984 99.7587 73.2491 99.2872 72.9254 98.8899C72.607 98.4828 72.298 98.1221 71.9393 97.887C71.5901 97.6484 71.1943 97.5442 70.8728 97.6072C70.5486 97.6743 70.313 97.8794 70.1815 98.0707C70.0482 98.2678 70.0223 98.4586 70.0335 98.5824C70.0415 98.708 70.0751 98.7706 70.0621 98.7755C70.0621 98.7755 70.0116 98.721 69.987 98.5887C69.9588 98.4586 69.9713 98.2454 70.1046 98.0224C70.2369 97.8061 70.4798 97.5706 70.8447 97.4803C71.2113 97.3958 71.6469 97.5031 72.0288 97.7494C72.4174 97.9907 72.7514 98.3679 73.0752 98.7688C73.4025 99.1616 73.7522 99.605 74.2521 99.8405C74.5008 99.9558 74.7856 100.02 75.0629 99.9893C75.3437 99.9656 75.5937 99.8101 75.7569 99.5741C76.0842 99.0861 76.0449 98.3969 76.0941 97.7306C76.1205 97.3936 76.1549 97.0405 76.3297 96.7214C76.5046 96.405 76.8458 96.1784 77.2026 96.1641C77.9293 96.1574 78.4525 96.6821 78.7669 97.1648C79.0933 97.6533 79.3486 98.1511 79.7413 98.4475C80.1281 98.7362 80.6468 98.8416 80.9871 98.6213C81.3301 98.3974 81.4075 97.9737 81.4888 97.6448C81.5555 97.3033 81.6758 96.9972 81.8439 96.805C82.0053 96.6052 82.2007 96.5118 82.3358 96.502C82.4717 96.4895 82.5361 96.527 82.5361 96.527Z" fill="#FAFAFA"/>
<path d="M86.501 103.116C86.5064 103.115 86.5193 103.203 86.51 103.372C86.4956 103.54 86.4375 103.791 86.2667 104.067C86.0994 104.344 85.8088 104.637 85.3875 104.835C84.9748 105.026 84.3818 105.102 83.8524 104.813C83.3278 104.559 82.8918 104.061 82.2841 103.892C81.6688 103.709 81.0003 104.134 80.6112 104.728C80.2052 105.327 80.0406 106.113 79.6292 106.844C79.4204 107.21 79.1244 107.546 78.7384 107.771C78.361 108.002 77.8432 108.083 77.409 107.877C76.9783 107.67 76.6984 107.291 76.4788 106.931C76.257 106.566 76.0733 106.196 75.8497 105.87C75.6323 105.541 75.3452 105.276 74.9996 105.182C74.6552 105.081 74.2881 105.177 73.9988 105.378C73.4027 105.784 73.0655 106.425 72.7936 107.022C72.5155 107.622 72.2664 108.197 71.9521 108.679C71.3493 109.68 70.3887 110.112 69.751 110.126C69.4264 110.142 69.1778 110.07 69.0253 109.999C68.9457 109.969 68.8938 109.929 68.8567 109.908C68.8205 109.885 68.803 109.872 68.8048 109.868C68.8138 109.831 69.1174 110.087 69.7448 110.036C70.3534 109.992 71.2495 109.565 71.813 108.591C72.109 108.119 72.3456 107.55 72.6184 106.942C72.8849 106.342 73.2261 105.654 73.8794 105.2C74.1964 104.974 74.6423 104.847 75.0568 104.968C75.4754 105.077 75.8081 105.396 76.0366 105.74C76.2745 106.084 76.4605 106.458 76.6761 106.81C76.8885 107.161 77.1487 107.494 77.5047 107.666C77.8655 107.835 78.2837 107.773 78.6226 107.572C78.9647 107.373 79.2379 107.069 79.4316 106.732C79.8246 106.046 79.9932 105.254 80.4341 104.608C80.6546 104.29 80.9314 104.016 81.2637 103.838C81.5923 103.657 81.9912 103.605 82.3329 103.706C82.6776 103.8 82.954 103.996 83.204 104.177C83.4548 104.36 83.6851 104.541 83.9275 104.668C84.4064 104.941 84.9386 104.884 85.3348 104.717C85.7345 104.542 86.0207 104.275 86.1907 104.019C86.5386 103.494 86.4661 103.106 86.501 103.116Z" fill="#FAFAFA"/>
<path d="M84.223 112.664C84.2194 112.674 84.1653 112.649 84.0589 112.64C83.9538 112.629 83.791 112.655 83.6278 112.777C83.4677 112.901 83.3103 113.109 83.2151 113.387C83.1055 113.664 83.1328 114.003 83.1721 114.388C83.2021 114.767 83.2768 115.222 83.0755 115.684C82.8774 116.152 82.3256 116.44 81.7765 116.427C81.2193 116.444 80.6415 116.16 80.24 115.714C79.825 115.273 79.5401 114.714 79.2642 114.151L79.3456 114.212C78.8953 114.13 78.4267 114.413 78.1302 114.815C77.8158 115.216 77.7009 115.746 77.6177 116.289C77.556 116.691 77.5091 117.1 77.3999 117.498C77.2882 117.898 77.0972 118.273 76.8177 118.575C76.5436 118.876 76.142 119.087 75.7302 119.074C75.317 119.066 74.9566 118.862 74.6775 118.625C74.106 118.138 73.823 117.491 73.433 117.016C73.0623 116.519 72.54 116.225 72.0177 116.208C71.5008 116.178 71.0326 116.362 70.7298 116.638C70.4222 116.915 70.2612 117.253 70.1834 117.533C70.0345 118.11 70.1753 118.446 70.1436 118.446C70.1396 118.448 70.1311 118.429 70.1181 118.389C70.1038 118.35 70.0877 118.292 70.0738 118.212C70.0461 118.055 70.0278 117.813 70.0953 117.511C70.1633 117.214 70.3189 116.85 70.6417 116.542C70.961 116.234 71.4637 116.021 72.0258 116.043C72.3052 116.055 72.6004 116.124 72.8714 116.274C73.1442 116.421 73.3794 116.644 73.5833 116.894C73.9974 117.392 74.2858 118.021 74.8157 118.461C75.0746 118.678 75.3926 118.848 75.7338 118.851C76.0745 118.859 76.4059 118.687 76.6509 118.419C76.8978 118.152 77.0753 117.805 77.1768 117.436C77.2788 117.061 77.3253 116.662 77.3879 116.253C77.4711 115.707 77.594 115.125 77.9464 114.675C78.2719 114.234 78.8197 113.888 79.3845 113.991L79.4418 114.001L79.4664 114.052C79.7382 114.615 80.0115 115.156 80.3952 115.569C80.7703 115.989 81.2716 116.239 81.7778 116.234C82.2764 116.249 82.746 116.007 82.9226 115.611C83.1064 115.217 83.0545 114.779 83.0313 114.399C83.0013 114.02 82.9825 113.643 83.1118 113.349C83.2249 113.055 83.402 112.839 83.584 112.714C83.7696 112.59 83.9547 112.575 84.0647 112.601C84.176 112.624 84.223 112.664 84.223 112.664Z" fill="#FAFAFA"/>
<path d="M138.509 110.769C138.511 110.783 138.426 110.78 138.284 110.833C138.142 110.882 137.946 111.002 137.781 111.238C137.614 111.472 137.475 111.803 137.382 112.205C137.294 112.601 137.243 113.097 137.003 113.588C136.884 113.83 136.713 114.086 136.434 114.24C136.162 114.397 135.795 114.416 135.488 114.268C135.18 114.12 134.952 113.855 134.767 113.573C134.581 113.29 134.433 112.972 134.294 112.656C134.156 112.351 133.961 112.057 133.716 111.812C133.473 111.574 133.143 111.384 132.823 111.466C132.49 111.538 132.277 111.851 132.214 112.216C132.141 112.581 132.161 112.974 132.155 113.381C132.142 114.197 131.907 115.037 131.339 115.613C130.786 116.178 129.913 116.431 129.216 116.121C128.534 115.812 128.124 115.248 127.667 114.853C127.231 114.436 126.678 114.201 126.187 114.34C125.7 114.464 125.342 114.811 125.121 115.143C124.897 115.485 124.785 115.829 124.703 116.108C124.551 116.673 124.498 116.997 124.478 116.993C124.47 116.992 124.476 116.91 124.496 116.756C124.517 116.602 124.548 116.375 124.616 116.086C124.686 115.799 124.786 115.442 125.011 115.074C125.237 114.715 125.603 114.333 126.146 114.181C126.415 114.103 126.724 114.117 127.01 114.218C127.3 114.318 127.558 114.503 127.795 114.709C128.27 115.115 128.689 115.658 129.298 115.924C129.903 116.19 130.677 115.966 131.177 115.453C131.685 114.936 131.91 114.155 131.922 113.377C131.929 112.983 131.906 112.575 131.988 112.17C132.03 111.969 132.101 111.764 132.234 111.59C132.367 111.416 132.562 111.297 132.77 111.245C133.213 111.14 133.61 111.395 133.872 111.654C134.141 111.927 134.343 112.24 134.49 112.569C134.628 112.891 134.766 113.192 134.939 113.463C135.11 113.731 135.317 113.97 135.571 114.095C135.821 114.22 136.122 114.209 136.349 114.084C136.58 113.962 136.741 113.739 136.856 113.515C137.091 113.057 137.153 112.588 137.256 112.174C137.364 111.764 137.521 111.423 137.709 111.185C137.895 110.942 138.117 110.825 138.271 110.789C138.425 110.748 138.509 110.769 138.509 110.769Z" fill="#FAFAFA"/>
<path d="M136.183 100.267C136.19 100.271 136.161 100.328 136.101 100.431C136.04 100.534 135.948 100.684 135.817 100.871C135.687 101.058 135.517 101.283 135.283 101.513C135.049 101.74 134.737 101.976 134.33 102.099C133.935 102.223 133.423 102.249 132.974 101.979C132.526 101.705 132.312 101.18 131.91 100.901C131.713 100.769 131.452 100.726 131.233 100.832C131.01 100.933 130.835 101.151 130.713 101.395C130.592 101.642 130.515 101.921 130.499 102.203C130.485 102.496 130.497 102.803 130.485 103.117C130.471 103.431 130.439 103.754 130.309 104.054C130.185 104.354 129.948 104.611 129.659 104.746C129.063 105.016 128.433 104.863 127.937 104.646C127.425 104.414 127.036 104.072 126.65 103.799C126.27 103.52 125.896 103.29 125.519 103.18C125.149 103.057 124.784 103.121 124.497 103.231C124.212 103.35 123.994 103.524 123.876 103.706C123.631 104.081 123.758 104.36 123.723 104.355C123.718 104.357 123.692 104.298 123.674 104.177C123.659 104.056 123.678 103.863 123.799 103.657C123.917 103.451 124.143 103.252 124.446 103.112C124.747 102.98 125.151 102.898 125.564 103.022C125.972 103.13 126.371 103.365 126.763 103.642C127.157 103.912 127.551 104.244 128.024 104.45C128.489 104.651 129.072 104.77 129.559 104.541C129.798 104.427 129.991 104.219 130.096 103.963C130.207 103.707 130.239 103.41 130.253 103.109C130.264 102.805 130.253 102.501 130.268 102.192C130.287 101.873 130.372 101.569 130.509 101.293C130.649 101.022 130.848 100.763 131.142 100.63C131.436 100.49 131.789 100.555 132.029 100.724C132.503 101.078 132.693 101.584 133.077 101.817C133.453 102.054 133.915 102.049 134.284 101.942C134.661 101.839 134.959 101.63 135.194 101.419C135.428 101.207 135.604 100.995 135.744 100.818C136.022 100.462 136.168 100.256 136.183 100.267Z" fill="#FAFAFA"/>
<path d="M124.755 125.985C124.755 125.985 124.712 126.106 124.525 126.248C124.341 126.395 123.979 126.487 123.544 126.407C123.327 126.368 123.09 126.295 122.852 126.171C122.61 126.048 122.381 125.875 122.129 125.702C121.877 125.53 121.606 125.344 121.292 125.223C120.98 125.093 120.618 125.073 120.273 125.197C119.929 125.325 119.656 125.625 119.439 125.971C119.22 126.32 119.044 126.719 118.858 127.133C118.668 127.546 118.481 127.986 118.177 128.388C118.018 128.581 117.838 128.775 117.599 128.9C117.48 128.963 117.359 129.023 117.222 129.041C117.156 129.055 117.089 129.074 117.022 129.082L116.816 129.08C116.542 129.07 116.264 128.973 116.041 128.808C115.808 128.655 115.624 128.448 115.449 128.239C115.106 127.814 114.824 127.344 114.489 126.913C114.156 126.488 113.753 126.08 113.23 125.942C112.709 125.808 112.132 125.964 111.658 126.269C111.173 126.572 110.801 127.007 110.502 127.487C110.197 127.963 109.948 128.471 109.664 128.955C109.384 129.438 109.056 129.905 108.636 130.265C108.224 130.625 107.724 130.9 107.184 130.958C106.646 131.018 106.104 130.835 105.715 130.519C105.318 130.207 105.029 129.819 104.765 129.448C104.247 128.704 103.793 127.974 103.152 127.571C102.84 127.366 102.491 127.269 102.155 127.268C101.818 127.271 101.505 127.36 101.232 127.48C100.684 127.727 100.309 128.119 100.094 128.481C99.8753 128.845 99.8122 129.178 99.797 129.401C99.793 129.624 99.8051 129.744 99.7939 129.746C99.7899 129.746 99.7836 129.717 99.7751 129.66C99.7697 129.601 99.7487 129.515 99.7501 129.4C99.7501 129.171 99.8001 128.822 100.015 128.435C100.228 128.053 100.606 127.634 101.177 127.362C101.461 127.23 101.791 127.13 102.153 127.121C102.514 127.114 102.903 127.217 103.239 127.432C103.929 127.856 104.402 128.607 104.922 129.336C105.185 129.701 105.47 130.072 105.839 130.357C106.201 130.646 106.68 130.8 107.159 130.746C107.641 130.692 108.102 130.44 108.489 130.098C108.883 129.758 109.191 129.318 109.466 128.841C109.743 128.366 109.992 127.855 110.305 127.364C110.611 126.871 111.013 126.397 111.533 126.074C112.042 125.747 112.683 125.564 113.287 125.719C113.894 125.882 114.326 126.336 114.668 126.774C115.014 127.222 115.294 127.692 115.621 128.101C115.942 128.502 116.347 128.859 116.827 128.868C117.305 128.893 117.737 128.638 118.014 128.264C118.299 127.894 118.49 127.464 118.681 127.054C118.871 126.643 119.053 126.238 119.287 125.875C119.518 125.517 119.82 125.186 120.214 125.044C120.604 124.907 121.016 124.942 121.346 125.087C121.68 125.223 121.952 125.419 122.203 125.597C122.453 125.775 122.678 125.953 122.903 126.074C123.128 126.199 123.354 126.275 123.56 126.32C123.975 126.409 124.316 126.337 124.498 126.211C124.685 126.088 124.743 125.975 124.755 125.985Z" fill="#FAFAFA"/>
<path d="M123.903 111.112C123.907 111.114 123.895 111.138 123.867 111.184C123.836 111.227 123.783 111.291 123.686 111.338C123.496 111.441 123.154 111.437 122.797 111.258C122.426 111.086 122.136 110.666 121.644 110.469C121.406 110.372 121.102 110.407 120.892 110.599C120.683 110.796 120.574 111.112 120.479 111.439C120.38 111.768 120.298 112.128 120.115 112.481C120.019 112.652 119.9 112.828 119.726 112.956C119.555 113.084 119.344 113.164 119.127 113.189C118.239 113.277 117.401 112.686 116.828 111.987C116.52 111.648 116.216 111.291 115.843 111.017C115.473 110.744 115.018 110.574 114.542 110.6C113.584 110.642 112.674 111.268 112.044 112.069C111.407 112.893 110.978 113.842 110.415 114.68C109.875 115.529 109.095 116.233 108.189 116.528C107.74 116.678 107.258 116.723 106.812 116.613C106.364 116.509 105.986 116.237 105.699 115.94C105.122 115.344 104.744 114.659 104.169 114.306C103.888 114.13 103.57 114.055 103.274 114.077C102.978 114.097 102.711 114.217 102.492 114.368C102.053 114.676 101.773 115.071 101.566 115.39C101.158 116.044 101.012 116.453 100.989 116.442C100.982 116.439 101.015 116.336 101.091 116.146C101.168 115.956 101.291 115.68 101.489 115.342C101.689 115.01 101.96 114.599 102.417 114.26C102.645 114.095 102.933 113.957 103.262 113.929C103.588 113.898 103.944 113.977 104.254 114.165C104.885 114.545 105.275 115.242 105.836 115.804C106.115 116.086 106.456 116.323 106.86 116.414C107.262 116.51 107.703 116.467 108.121 116.325C108.971 116.039 109.699 115.385 110.225 114.553C110.773 113.735 111.2 112.781 111.861 111.926C112.525 111.086 113.473 110.42 114.535 110.372C115.061 110.344 115.579 110.541 115.975 110.838C116.376 111.136 116.683 111.505 116.988 111.843C117.293 112.186 117.59 112.505 117.96 112.706C118.321 112.912 118.726 113.036 119.105 112.997C119.489 112.966 119.792 112.715 119.956 112.395C120.128 112.076 120.216 111.723 120.321 111.391C120.424 111.062 120.538 110.723 120.792 110.489C121.053 110.258 121.422 110.23 121.69 110.346C122.228 110.581 122.501 111.013 122.838 111.177C123.171 111.358 123.488 111.375 123.666 111.295C123.85 111.218 123.891 111.1 123.903 111.112Z" fill="#FAFAFA"/>
<path d="M124.135 95.6872C124.125 95.6966 124.064 95.617 123.906 95.5339C123.75 95.4508 123.477 95.3913 123.149 95.4794C122.819 95.5598 122.458 95.8029 122.226 96.2315C121.98 96.6499 121.859 97.1982 121.671 97.7985C121.571 98.097 121.446 98.4103 121.244 98.7017C121.045 98.9935 120.738 99.2469 120.363 99.3613C119.987 99.4726 119.573 99.4431 119.188 99.3287C118.8 99.2147 118.429 99.0284 118.078 98.7991C117.388 98.3513 116.719 97.7515 115.867 97.6009C115.449 97.533 115.005 97.6023 114.611 97.8056C114.215 98.0022 113.863 98.3071 113.55 98.6503C112.914 99.3332 112.486 100.17 111.887 100.862C111.593 101.208 111.266 101.526 110.888 101.766C110.513 102.008 110.077 102.154 109.644 102.167C108.759 102.185 108.035 101.71 107.464 101.263C106.886 100.799 106.405 100.319 105.894 99.9763C105.39 99.6335 104.858 99.4163 104.379 99.4244C103.899 99.4302 103.492 99.5902 103.224 99.7948C102.947 99.9942 102.818 100.24 102.758 100.405C102.697 100.575 102.698 100.674 102.683 100.672C102.683 100.672 102.664 100.572 102.713 100.391C102.761 100.215 102.884 99.945 103.169 99.7233C103.443 99.4959 103.866 99.3131 104.377 99.2943C104.896 99.2737 105.458 99.4941 105.985 99.8395C106.517 100.184 107.013 100.666 107.582 101.111C108.147 101.545 108.841 101.978 109.637 101.953C110.435 101.931 111.16 101.389 111.713 100.714C112.289 100.049 112.716 99.208 113.379 98.4934C113.704 98.1372 114.074 97.8132 114.508 97.5987C114.937 97.377 115.439 97.2979 115.904 97.3766C116.849 97.5526 117.523 98.1833 118.196 98.6208C118.858 99.0597 119.633 99.3649 120.308 99.1772C120.638 99.0798 120.909 98.8644 121.097 98.598C121.287 98.3325 121.413 98.0353 121.515 97.7462C121.709 97.1652 121.844 96.6007 122.114 96.1658C122.247 95.9495 122.403 95.765 122.583 95.6349C122.763 95.5071 122.952 95.4316 123.128 95.3918C123.481 95.3113 123.772 95.3913 123.929 95.4932C124.089 95.5947 124.135 95.6872 124.135 95.6872Z" fill="#FAFAFA"/>
<path d="M121.837 88.4349C121.844 88.4367 121.837 88.4948 121.81 88.6025C121.784 88.7098 121.738 88.8675 121.65 89.061C121.559 89.2501 121.436 89.4932 121.178 89.6827C120.927 89.8803 120.468 89.8999 120.159 89.6166C119.855 89.343 119.699 88.9457 119.469 88.5873C119.356 88.4068 119.222 88.2365 119.043 88.1203C118.865 88.0032 118.646 87.9339 118.415 87.9218C117.951 87.8919 117.463 88.0702 117.086 88.4197C116.701 88.7634 116.412 89.2327 116.159 89.735C116.028 89.9893 115.89 90.2472 115.689 90.4688C115.498 90.6896 115.193 90.8662 114.877 90.8322C114.561 90.8054 114.311 90.6119 114.136 90.4031C113.956 90.1904 113.848 89.937 113.768 89.7019C113.608 89.2309 113.5 88.7719 113.195 88.493C113.048 88.3527 112.871 88.2535 112.694 88.2307C112.517 88.2065 112.344 88.2664 112.218 88.3768C111.961 88.6034 111.857 88.9417 111.751 89.2112C111.651 89.495 111.516 89.7279 111.367 89.8852C111.218 90.0447 111.052 90.1167 110.94 90.1319C110.825 90.1457 110.767 90.1247 110.768 90.1202C110.758 90.0966 111.035 90.1489 111.299 89.8253C111.427 89.6698 111.543 89.4472 111.628 89.1683C111.727 88.8934 111.808 88.5399 112.109 88.2526C112.259 88.1127 112.485 88.0255 112.714 88.0523C112.943 88.0769 113.155 88.194 113.327 88.3522C113.691 88.6776 113.81 89.1826 113.97 89.6304C114.052 89.8588 114.149 90.0778 114.306 90.2601C114.46 90.4407 114.667 90.5886 114.895 90.6047C115.126 90.6271 115.349 90.5042 115.518 90.3124C115.691 90.1211 115.823 89.8789 115.952 89.6286C116.209 89.1187 116.512 88.6217 116.934 88.249C117.347 87.87 117.907 87.6649 118.43 87.7078C118.692 87.7247 118.948 87.8074 119.157 87.95C119.37 88.0939 119.518 88.2937 119.633 88.485C119.864 88.868 120.013 89.255 120.268 89.4937C120.518 89.7328 120.881 89.731 121.104 89.5746C121.336 89.4213 121.47 89.1969 121.568 89.0208C121.759 88.6557 121.816 88.4278 121.837 88.4349Z" fill="#FAFAFA"/>
<path d="M92.6783 88.4707C92.6859 88.4698 92.7015 88.5427 92.7212 88.6821C92.74 88.822 92.7673 89.0285 92.7762 89.2984C92.7829 89.5666 92.7784 89.9049 92.6599 90.2794C92.5504 90.6535 92.2687 91.0575 91.8103 91.2792C91.5849 91.3878 91.3041 91.4503 91.0237 91.3793C90.7411 91.3145 90.4987 91.112 90.3275 90.8778C90.1499 90.6436 90.0198 90.3795 89.8606 90.1355C89.705 89.8919 89.5078 89.6658 89.2408 89.5679C88.697 89.3686 87.9999 89.6756 87.703 90.2481C87.5447 90.531 87.4566 90.8608 87.4248 91.2014C87.3908 91.5415 87.4239 91.8959 87.4436 92.2624C87.4624 92.628 87.4695 93.0078 87.364 93.3721C87.2634 93.7296 87.0617 94.0782 86.7339 94.2834C86.4066 94.4907 85.9912 94.4939 85.6625 94.3696C85.3284 94.2489 85.0512 94.0425 84.8182 93.8132C84.3621 93.3377 84.0813 92.8014 83.6882 92.4215C83.3103 92.0278 82.8099 91.8494 82.3507 91.8794C81.8914 91.8999 81.4966 92.0961 81.2408 92.3549C80.9805 92.6137 80.8459 92.9158 80.7806 93.1661C80.6536 93.6778 80.7659 93.9763 80.7373 93.9777C80.7323 93.979 80.6997 93.9102 80.6764 93.7694C80.6541 93.6295 80.6344 93.4141 80.6925 93.1455C80.7476 92.8796 80.8759 92.5533 81.1478 92.2646C81.4152 91.9755 81.8413 91.7484 82.3413 91.7158C82.8372 91.6689 83.4127 91.8651 83.8232 92.2843C84.2463 92.6847 84.5428 93.2295 84.9694 93.6617C85.1867 93.8726 85.4452 94.0586 85.7363 94.1605C86.0247 94.2655 86.352 94.2561 86.6136 94.0907C86.8743 93.9272 87.0528 93.6309 87.1413 93.31C87.2343 92.9886 87.2299 92.6351 87.2111 92.2754C87.1538 91.5643 87.1319 90.7768 87.5044 90.1364C87.8474 89.4892 88.6496 89.1183 89.3164 89.3677C89.6504 89.495 89.8727 89.7686 90.0328 90.0251C90.1973 90.2848 90.3225 90.5462 90.4826 90.763C90.6378 90.9806 90.8386 91.1482 91.068 91.2059C91.296 91.2689 91.538 91.2229 91.741 91.1308C92.1555 90.9404 92.4229 90.5851 92.5365 90.2387C92.6599 89.8906 92.6787 89.563 92.6854 89.2997C92.6886 88.7684 92.6573 88.4716 92.6783 88.4707Z" fill="#FAFAFA"/>
<path d="M116.631 37.0074C113.603 36.3553 110.751 39.2554 107.672 38.9184C105.802 38.7142 104.289 37.3631 102.576 36.5877C100.013 35.4288 96.5346 35.5012 94.1431 36.9806C91.7516 38.4594 90.2558 39.9503 90.1507 42.7593C87.7659 41.6473 84.2135 44.8298 83.155 47.6995C82.0966 50.5696 82.6627 53.3964 83.6469 56.2929C85.3413 61.2801 88.027 65.9285 91.5021 69.8878C91.8097 70.2387 92.2855 70.615 92.6898 70.3817C92.9697 70.2203 93.0341 69.8512 93.0582 69.529C93.2639 66.7862 92.6866 64.0546 92.2211 61.344C91.7556 58.6334 91.4023 55.8286 92.0445 53.1542C92.6866 50.4798 94.5219 47.935 97.1669 47.1762C99.1206 46.6157 101.239 47.0877 103.089 47.9288C104.939 48.7703 106.604 49.9645 108.381 50.9504C110.159 51.9359 112.127 52.7269 114.158 52.6438C116.189 52.5607 118.279 51.4233 118.986 49.5189C119.693 47.6142 118.505 45.0935 116.489 44.8415C118.293 44.5206 119.75 42.8142 119.783 40.9823C119.817 39.1513 118.423 37.3935 116.631 37.0074Z" fill="#263238"/>
<path d="M111.546 85.1849L110.765 79.3535C110.765 79.3535 118.361 77.2217 117.527 69.4756C117.124 65.7349 115.668 58.1011 114.27 51.206C112.766 43.7906 105.818 38.7726 98.3023 39.6745L97.5555 39.7639C89.5599 41.2003 86.3139 48.7895 87.972 56.7375L92.4782 87.8419C93.2366 93.0767 98.0809 96.7177 103.324 95.9933C108.574 95.2675 112.251 90.4358 111.546 85.1849Z" fill="#DDE6DA"/>
<path d="M110.774 79.3693C110.774 79.3693 105.93 80.3539 100.34 77.7144C100.34 77.7144 103.394 82.9947 111.032 81.3715L110.774 79.3693Z" fill="#66805D" fill-opacity="0.8"/>
<path d="M111.89 55.9259C111.985 56.5301 111.571 57.1053 110.965 57.2112C110.361 57.3167 109.794 56.914 109.699 56.3093C109.604 55.7051 110.018 55.129 110.622 55.0231C111.228 54.9176 111.795 55.3216 111.89 55.9259Z" fill="#263238"/>
<path d="M113.06 55.703C112.94 55.8635 112.029 55.3446 110.84 55.4907C109.65 55.6194 108.851 56.3359 108.704 56.2054C108.633 56.1486 108.741 55.8715 109.088 55.5497C109.429 55.2297 110.035 54.8851 110.776 54.7993C111.518 54.7144 112.173 54.9124 112.565 55.1484C112.965 55.3848 113.12 55.6306 113.06 55.703Z" fill="#263238"/>
<path d="M100.57 56.8567C100.666 57.4739 100.254 58.059 99.6488 58.1649C99.0451 58.2708 98.4759 57.8583 98.3793 57.2411C98.2827 56.6243 98.695 56.0384 99.2991 55.9321C99.9037 55.8261 100.473 56.24 100.57 56.8567Z" fill="#263238"/>
<path d="M101.644 56.6218C101.524 56.7822 100.612 56.2638 99.4236 56.4095C98.2341 56.5382 97.4346 57.2542 97.2884 57.1241C97.2173 57.0673 97.3246 56.7907 97.6725 56.4685C98.0132 56.148 98.6192 55.8039 99.3606 55.7176C100.102 55.6332 100.758 55.8307 101.15 56.0667C101.548 56.304 101.703 56.5494 101.644 56.6218Z" fill="#263238"/>
<path d="M106.772 65.1103C106.758 65.0433 107.482 64.827 108.662 64.5302C108.962 64.4627 109.242 64.3675 109.268 64.1544C109.313 63.9264 109.147 63.6145 108.957 63.2788C108.584 62.5785 108.192 61.8447 107.782 61.0755C106.139 57.9345 104.911 55.337 105.038 55.2722C105.166 55.2074 106.6 57.7003 108.243 60.8413C108.64 61.6167 109.02 62.3559 109.383 63.063C109.539 63.3941 109.784 63.7615 109.683 64.2352C109.629 64.4717 109.426 64.6634 109.237 64.7389C109.05 64.8216 108.879 64.8457 108.73 64.8726C107.531 65.0822 106.785 65.1773 106.772 65.1103Z" fill="#263238"/>
<path d="M103.367 66.3581C103.559 66.3237 103.717 67.6135 104.932 68.3965C106.145 69.1826 107.504 68.8729 107.535 69.0521C107.563 69.1308 107.259 69.3395 106.68 69.4249C106.113 69.5129 105.259 69.4298 104.515 68.9507C103.774 68.4698 103.394 67.7556 103.286 67.2314C103.172 66.6982 103.277 66.3612 103.367 66.3581Z" fill="#263238"/>
<path d="M101.046 51.2199C100.967 51.5574 99.7615 51.5466 98.3864 51.8818C97.0042 52.1897 95.9283 52.7332 95.7082 52.4655C95.609 52.3363 95.7686 52.0092 96.1863 51.6414C96.5995 51.2749 97.2836 50.8914 98.11 50.6979C98.9369 50.5062 99.7194 50.5469 100.252 50.6926C100.79 50.8374 101.078 51.0604 101.046 51.2199Z" fill="#263238"/>
<path d="M112.21 51.8146C112.034 52.1095 111.18 51.9276 110.194 52.0326C109.203 52.1033 108.396 52.4326 108.17 52.173C108.07 52.0461 108.169 51.76 108.502 51.4606C108.831 51.1629 109.407 50.8827 110.086 50.8219C110.766 50.762 111.382 50.9363 111.758 51.1719C112.139 51.4074 112.287 51.672 112.21 51.8146Z" fill="#263238"/>
<path d="M89.292 62.4473C89.1534 62.4062 83.7855 61.5137 84.5899 66.7811C85.3944 72.0485 90.52 70.1549 90.5061 70.0025C90.4918 69.8501 89.292 62.4473 89.292 62.4473Z" fill="#DDE6DA"/>
<path d="M88.5905 68.2173C88.5646 68.2039 88.5082 68.2955 88.3642 68.3902C88.2238 68.4823 87.9707 68.5699 87.6801 68.5091C87.092 68.3898 86.4883 67.5777 86.3175 66.632C86.2307 66.1547 86.2616 65.6828 86.3738 65.2792C86.4758 64.8694 86.6842 64.5619 86.957 64.4694C87.2262 64.3626 87.4502 64.4998 87.5374 64.6383C87.6304 64.7746 87.613 64.885 87.6425 64.89C87.6595 64.9007 87.7422 64.7845 87.6662 64.5731C87.6286 64.4716 87.5477 64.3572 87.4086 64.2745C87.2664 64.191 87.0723 64.1673 86.8805 64.2178C86.4785 64.3081 86.1695 64.7376 86.0461 65.1809C85.9003 65.6296 85.8547 66.1614 85.9517 66.6977C86.1476 67.7543 86.8429 68.6646 87.6385 68.7683C88.0239 68.8086 88.3164 68.6495 88.4568 68.5011C88.6003 68.346 88.6102 68.224 88.5905 68.2173Z" fill="#66805D" fill-opacity="0.8"/>
<path d="M115.712 49.4106C112.412 50.7268 108.478 50.3241 105.513 48.3666C103.439 46.9972 101.711 44.8779 99.2645 44.4355C97.6175 44.1374 95.8945 44.692 94.536 45.6694C93.1779 46.6468 92.1472 48.0149 91.294 49.4544C93.2615 53.2059 92.7844 57.714 92.2563 61.9168C92.1977 62.3812 92.1217 62.8835 91.7872 63.2106C91.2188 63.7666 90.2368 63.5034 89.6228 62.9983C88.6395 62.1899 88.1458 60.9394 87.7733 59.7229C86.9246 56.9506 86.5002 54.0233 86.794 51.1393C87.0874 48.2553 88.1252 45.4142 89.9681 43.1756C92.271 40.3779 95.7626 38.6514 99.3678 38.2747C102.973 37.8984 106.663 38.8253 109.796 40.6478C111.249 41.4934 112.623 42.5615 113.494 43.9988" fill="#263238"/>
<path d="M119.078 38.6061C119.078 38.6061 119.129 38.7647 119.086 39.0704C119.044 39.3712 118.888 39.8248 118.477 40.2494C118.071 40.6771 117.396 41.0114 116.579 41.1459C116.171 41.2139 115.729 41.2541 115.257 41.2224C114.788 41.1866 114.278 41.0695 113.834 40.7598C113.401 40.4568 113.021 39.958 112.993 39.3462C112.96 38.7245 113.393 38.1453 113.955 37.8615C114.237 37.7149 114.558 37.6269 114.892 37.626C115.225 37.6255 115.567 37.7346 115.849 37.925C116.429 38.3026 116.776 38.9793 116.86 39.6791C116.95 40.3897 116.712 41.1392 116.259 41.7193C115.807 42.3061 115.175 42.7508 114.472 43.0364C113.053 43.6161 111.406 43.5311 109.892 43.0878C108.362 42.6516 106.988 41.9182 105.696 41.2022C104.402 40.4885 103.149 39.8056 101.875 39.3636C100.608 38.9131 99.3127 38.7442 98.1335 38.9158C96.953 39.0865 95.911 39.5495 95.0654 40.1082C93.3626 41.2478 92.457 42.716 91.9383 43.718C91.6771 44.2275 91.5103 44.6409 91.4012 44.922C91.2917 45.2035 91.238 45.3532 91.2277 45.3501C91.2233 45.3488 91.2318 45.3099 91.2519 45.2348C91.2729 45.1602 91.302 45.048 91.3511 44.9045C91.4451 44.6163 91.5966 44.1939 91.8462 43.6728C92.3421 42.6485 93.2329 41.141 94.9617 39.9535C95.8198 39.3721 96.8841 38.8854 98.1018 38.6999C99.3199 38.5122 100.66 38.6807 101.955 39.1343C103.257 39.5795 104.525 40.2659 105.821 40.9761C107.114 41.6885 108.469 42.408 109.965 42.8344C111.445 43.2679 113.025 43.3448 114.375 42.7973C115.042 42.5287 115.639 42.1086 116.059 41.5665C116.481 41.0253 116.696 40.3544 116.618 39.7068C116.545 39.0664 116.23 38.4523 115.721 38.1189C115.223 37.7623 114.56 37.7909 114.055 38.0573C113.547 38.3107 113.173 38.8148 113.197 39.3399C113.215 39.8668 113.547 40.3258 113.942 40.6087C114.343 40.8961 114.823 41.0163 115.271 41.0561C115.723 41.0932 116.158 41.0606 116.556 41.0016C117.354 40.884 118.006 40.5761 118.405 40.1783C118.811 39.7819 118.977 39.352 119.034 39.0628C119.092 38.7674 119.062 38.6061 119.078 38.6061Z" fill="#455A64"/>
<path d="M82.7599 52.3693C82.7742 52.3117 83.3887 52.6 84.4261 52.595C84.9404 52.5857 85.553 52.4739 86.1768 52.1982C86.802 51.9314 87.4437 51.5117 88.046 51.0058C89.2476 49.9703 89.8276 48.5786 90.0248 47.5725C90.2296 46.5518 90.1276 45.8943 90.1795 45.8921C90.1952 45.8899 90.2327 46.0503 90.2618 46.3466C90.2882 46.6425 90.2904 47.0769 90.2081 47.6061C90.053 48.651 89.4783 50.1191 88.2182 51.2056C87.5912 51.7316 86.9321 52.1539 86.2703 52.4225C85.6134 52.6983 84.9614 52.7966 84.4248 52.7819C83.8859 52.764 83.4607 52.6581 83.1803 52.5597C82.8999 52.4605 82.7541 52.3836 82.7599 52.3693Z" fill="#455A64"/>
<path d="M83.4512 56.1684C83.4525 56.1192 84.0866 56.1827 85.078 56.0066C86.0614 55.8381 87.4127 55.3648 88.5808 54.3753C89.7483 53.3841 90.4357 52.1287 90.7621 51.1866C91.097 50.2378 91.1382 49.6027 91.1865 49.6089C91.2026 49.6103 91.2088 49.7689 91.1829 50.0545C91.1579 50.3401 91.0881 50.7517 90.9392 51.2451C90.6508 52.2261 89.9657 53.5463 88.7516 54.5769C87.5366 55.6062 86.1222 56.0665 85.1066 56.1912C84.5955 56.2573 84.1778 56.2591 83.8917 56.2377C83.6055 56.2162 83.4498 56.1845 83.4512 56.1684Z" fill="#455A64"/>
<path d="M98.0512 62.3752C97.9819 62.398 97.9054 62.3547 97.8808 62.2791C97.8562 62.2032 97.892 62.1236 97.9613 62.1008C98.0306 62.078 98.1071 62.1214 98.1317 62.1969C98.1563 62.2724 98.1205 62.3524 98.0512 62.3752Z" fill="#66805D" fill-opacity="0.8"/>
<path d="M100.264 61.5802C100.194 61.603 100.115 61.5507 100.086 61.464C100.058 61.3769 100.091 61.2884 100.16 61.2656C100.23 61.2428 100.309 61.2951 100.337 61.3818C100.366 61.4685 100.333 61.5574 100.264 61.5802Z" fill="#66805D" fill-opacity="0.8"/>
<path d="M101.789 61.366C101.718 61.3839 101.637 61.3043 101.608 61.1886C101.579 61.0728 101.613 60.9647 101.684 60.9472C101.755 60.9298 101.836 61.0089 101.864 61.1247C101.893 61.2404 101.859 61.3486 101.789 61.366Z" fill="#66805D" fill-opacity="0.8"/>
<path d="M99.3409 63.6667C99.2684 63.6756 99.2054 63.6448 99.1996 63.5988C99.1942 63.5523 99.2483 63.508 99.3208 63.4991C99.3932 63.4902 99.4563 63.521 99.4621 63.567C99.4674 63.6135 99.4133 63.6582 99.3409 63.6667Z" fill="#66805D" fill-opacity="0.8"/>
<path d="M101.367 62.9338C101.295 62.9489 101.224 62.8949 101.207 62.814C101.19 62.7331 101.234 62.6553 101.305 62.6401C101.377 62.6254 101.448 62.679 101.465 62.7599C101.482 62.8413 101.438 62.919 101.367 62.9338Z" fill="#66805D" fill-opacity="0.8"/>
<path d="M112.057 60.3317C111.988 60.3545 111.911 60.3094 111.885 60.2312C111.86 60.153 111.895 60.0712 111.964 60.0484C112.034 60.0256 112.111 60.0707 112.136 60.1489C112.162 60.2272 112.126 60.3089 112.057 60.3317Z" fill="#66805D" fill-opacity="0.8"/>
<path d="M113.588 59.9988C113.517 60.0144 113.443 59.9545 113.423 59.8647C113.403 59.7749 113.445 59.6895 113.516 59.6739C113.587 59.6582 113.661 59.7181 113.68 59.808C113.701 59.8978 113.659 59.9831 113.588 59.9988Z" fill="#66805D" fill-opacity="0.8"/>
<path d="M110.692 60.5379C110.623 60.5606 110.551 60.5294 110.53 60.4686C110.511 60.4078 110.551 60.3399 110.62 60.3171C110.689 60.2943 110.762 60.3251 110.781 60.3859C110.802 60.4476 110.762 60.5151 110.692 60.5379Z" fill="#66805D" fill-opacity="0.8"/>
<path d="M112.028 61.9514C111.965 61.9885 111.879 61.9599 111.837 61.8875C111.794 61.8151 111.81 61.7261 111.872 61.6886C111.935 61.6515 112.021 61.6801 112.064 61.7525C112.107 61.8249 112.091 61.9139 112.028 61.9514Z" fill="#66805D" fill-opacity="0.8"/>
<path d="M113.319 61.5215C113.247 61.5107 113.195 61.4531 113.204 61.3923C113.213 61.3315 113.279 61.2913 113.351 61.302C113.423 61.3127 113.475 61.3704 113.465 61.4312C113.457 61.4915 113.391 61.5317 113.319 61.5215Z" fill="#66805D" fill-opacity="0.8"/>
<path d="M84.3063 65.2088C84.3143 65.2352 84.0165 65.2338 83.7786 64.8884C83.6659 64.7244 83.5863 64.471 83.6404 64.1992C83.6923 63.9306 83.864 63.6647 84.1189 63.4873C84.3756 63.3067 84.6877 63.2509 84.9484 63.2821C85.2127 63.309 85.4327 63.414 85.5919 63.5279C85.9148 63.767 85.9698 64.029 85.947 64.0321C85.9121 64.0535 85.8065 63.8395 85.502 63.6661C85.2145 63.4958 84.677 63.3791 84.2522 63.6781C84.0442 63.8229 83.9007 64.0352 83.8501 64.2444C83.7974 64.454 83.8425 64.6555 83.9199 64.8044C84.0791 65.1109 84.3219 65.174 84.3063 65.2088Z" fill="#263238"/>
<path d="M124.331 122.94L124.729 134.48C124.729 134.48 91.2536 141.108 86.9473 143.325C82.641 145.542 80.8836 145.885 81.1443 152.276L134.639 152.184C134.639 152.184 141.233 149.716 141.102 142.543C140.971 135.37 139.178 118.135 139.178 118.135L124.331 122.94Z" fill="#DDE6DA"/>
<path d="M86.6816 152.453L91.1265 152.047L95.3693 141.915C94.6816 141.798 80.3647 139.683 79.5209 139.914L76.0879 152.105C76.0879 152.105 86.3752 152.452 86.6816 152.453Z" fill="#DDE6DA"/>
<path d="M76.891 152.3C76.9017 152.321 76.9867 152.339 77.1298 152.354C78.3121 152.484 83.7722 152.151 83.7722 152.151C84.0222 151.446 83.5499 149.329 82.8702 149.205C82.1905 149.081 76.3794 149.473 76.3794 149.473C76.3794 149.473 75.4641 149.593 75.2364 151.131C75.0951 152.081 76.891 152.3 76.891 152.3Z" fill="#DDE6DA"/>
<path d="M75.048 149.191C75.0588 149.212 75.1433 149.23 75.2864 149.245C76.4687 149.375 81.6305 149.318 81.8537 148.689C82.1036 147.985 81.7065 146.22 81.0268 146.096C80.3471 145.973 74.536 146.364 74.536 146.364C74.536 146.364 73.6207 146.484 73.3926 148.022C73.2522 148.972 75.048 149.191 75.048 149.191Z" fill="#DDE6DA"/>
<path d="M74.1316 146.163C74.1424 146.184 74.2273 146.202 74.37 146.218C75.5523 146.347 80.7141 146.29 80.9372 145.662C81.1872 144.957 80.7901 143.193 80.1104 143.069C79.4307 142.945 73.6196 143.336 73.6196 143.336C73.6196 143.336 72.7042 143.457 72.4766 144.994C72.3358 145.943 74.1316 146.163 74.1316 146.163Z" fill="#DDE6DA"/>
<path d="M73.2723 143.148C73.283 143.168 73.368 143.186 73.5106 143.202C74.693 143.331 79.8548 143.275 80.0779 142.646C80.3279 141.941 79.9308 140.177 79.2511 140.053C78.5714 139.929 72.7603 140.321 72.7603 140.321C72.7603 140.321 71.8449 140.441 71.6173 141.978C71.476 142.928 73.2723 143.148 73.2723 143.148Z" fill="#DDE6DA"/>
<path d="M81.3599 149.165C81.3523 149.253 80.2268 149.357 78.8468 149.397C77.4663 149.436 76.3533 149.396 76.3614 149.307C76.369 149.218 77.4941 149.115 78.875 149.075C80.255 149.036 81.3675 149.076 81.3599 149.165Z" fill="#66805D" fill-opacity="0.8"/>
<path d="M81.3891 146.132C81.3918 146.222 79.7922 146.345 77.8161 146.408C75.8396 146.471 74.2356 146.449 74.2324 146.359C74.2297 146.27 75.8293 146.146 77.8058 146.084C79.7815 146.021 81.3859 146.043 81.3891 146.132Z" fill="#66805D" fill-opacity="0.8"/>
<g opacity="0.78">
<path d="M81.1449 143.036C81.1476 143.126 79.5481 143.249 77.572 143.312C75.5954 143.374 73.9914 143.352 73.9883 143.263C73.9856 143.173 75.5852 143.05 77.5617 142.987C79.5378 142.924 81.1422 142.946 81.1449 143.036Z" fill="#66805D" fill-opacity="0.8"/>
</g>
<path d="M89.4292 141.124C89.4292 141.124 79.6838 136.794 79.0756 137.419C78.467 138.044 77.5293 140.056 77.5293 140.056L89.4292 141.124Z" fill="#DDE6DA"/>
<path d="M132.214 144.548C132.173 144.56 131.974 143.851 131.51 142.763C131.281 142.219 130.969 141.588 130.586 140.908C130.194 140.234 129.724 139.515 129.174 138.803C128.617 138.095 128.033 137.465 127.475 136.92C126.909 136.383 126.373 135.926 125.9 135.572C124.958 134.857 124.318 134.492 124.34 134.455C124.348 134.441 124.513 134.522 124.806 134.682C125.101 134.838 125.51 135.095 125.998 135.439C126.488 135.78 127.042 136.228 127.623 136.764C128.197 137.307 128.793 137.942 129.358 138.659C129.916 139.382 130.387 140.114 130.774 140.803C131.152 141.497 131.452 142.143 131.663 142.701C131.878 143.257 132.027 143.717 132.107 144.041C132.191 144.364 132.23 144.544 132.214 144.548Z" fill="#66805D" fill-opacity="0.8"/>
<path d="M93.023 90.2188L82.9422 118.891L71.6094 122.153C71.6094 122.153 75.718 139.532 79.9144 142.653C81.3391 143.713 83.6725 144.862 86.0595 144.696C90.5899 144.381 95.6703 141.189 97.607 136.732C99.3277 132.771 103.926 91.8192 103.926 91.8192L93.023 90.2188Z" fill="#DDE6DA"/>
<path d="M103.787 93.0437L104.374 86.057L102.753 80.4499L102.126 78.3042L103.352 79.5569L105.589 77.1753C105.589 77.1753 104.863 72.9434 104.258 72.9434C103.879 72.9434 102.768 73.3242 101.994 73.6075C101.534 73.776 101.192 73.9105 101.192 73.9105L99.2978 74.8777L101.192 71.9758C101.192 71.9758 103.141 73.5977 104.138 72.1885C104.901 71.111 102.06 68.6968 100.989 67.8454C100.744 67.6505 100.426 67.5754 100.12 67.6371L99.0156 67.8588C99.05 67.2362 98.3739 66.4018 97.3995 66.3879C95.9556 66.3669 95.2821 67.6554 95.2821 67.6554L94.1172 67.865C93.3047 67.865 92.5785 68.3714 92.2981 69.1334L89.7402 76.0866L93.023 90.2218" fill="#DDE6DA"/>
<path d="M93.023 90.2245C93.023 90.2245 92.9939 90.1405 92.9505 89.9738C92.9058 89.7959 92.8441 89.5497 92.7649 89.2337C92.6053 88.5714 92.375 87.6168 92.0812 86.3993C91.4985 83.9332 90.6654 80.4057 89.6508 76.1099L89.6445 76.0835L89.6539 76.0576C90.1579 74.6788 90.6918 73.2178 91.2521 71.6853C91.5325 70.9189 91.8196 70.135 92.113 69.3341C92.2368 68.9323 92.4676 68.4966 92.8307 68.2154C93.1875 67.9267 93.6481 67.7591 94.1168 67.7587L94.0975 67.7605C94.4584 67.6952 94.8586 67.6228 95.262 67.5495L95.1837 67.6072C95.3961 67.2385 95.6846 66.9323 96.0365 66.6874C96.3911 66.4501 96.8159 66.2973 97.2546 66.2843C97.6942 66.2477 98.1561 66.396 98.5072 66.6785C98.8537 66.9587 99.1372 67.3725 99.1287 67.8686L98.9919 67.7502C99.2687 67.6943 99.5473 67.6385 99.8268 67.5822C99.9676 67.5576 100.1 67.5174 100.265 67.5066C100.424 67.4981 100.585 67.5214 100.735 67.5763C100.883 67.6264 101.028 67.7274 101.135 67.8181L101.473 68.0939C101.697 68.2803 101.919 68.4711 102.138 68.6677C102.575 69.061 103.002 69.4744 103.397 69.9263C103.78 70.383 104.178 70.8617 104.347 71.4905C104.388 71.6688 104.399 71.8686 104.333 72.0576C104.267 72.2547 104.127 72.379 104.009 72.5148C103.743 72.7741 103.357 72.9005 102.998 72.8818C102.271 72.8384 101.658 72.4773 101.117 72.0679L101.288 72.0424C100.646 73.0248 100.014 73.9924 99.3926 74.9434L99.245 74.7794C99.8845 74.4536 100.516 74.1313 101.139 73.8136L101.145 73.8109L101.149 73.8091C101.788 73.5669 102.419 73.3278 103.055 73.1253C103.374 73.0248 103.69 72.9256 104.024 72.863C104.115 72.8514 104.179 72.8286 104.308 72.846C104.443 72.884 104.505 72.9707 104.558 73.0409C104.663 73.1892 104.728 73.3421 104.791 73.4954C105.246 74.7298 105.464 75.966 105.689 77.161L105.699 77.2111L105.663 77.2491C104.885 78.0741 104.14 78.8647 103.422 79.6267L103.352 79.7004L103.281 79.628C102.858 79.1941 102.454 78.7789 102.058 78.3726L102.214 78.2815C103.075 81.2848 103.822 83.893 104.438 86.0414L104.442 86.0534L104.441 86.0655C104.242 88.2661 104.085 90.0091 103.977 91.2145C103.92 91.8017 103.876 92.2576 103.844 92.5785C103.828 92.7251 103.815 92.8404 103.806 92.9289C103.796 93.0075 103.79 93.0473 103.787 93.0468C103.783 93.0468 103.783 93.0062 103.787 92.9271C103.792 92.8386 103.799 92.7224 103.808 92.5753C103.83 92.2536 103.863 91.7968 103.905 91.2087C103.999 90.0024 104.134 88.2576 104.306 86.0543L104.308 86.0785C103.679 83.9341 102.915 81.3313 102.035 78.3337L101.931 77.9771L102.192 78.2426C102.589 78.647 102.995 79.0604 103.42 79.4926L103.28 79.494C103.996 78.7293 104.738 77.9364 105.513 77.1083L105.486 77.1963C105.261 76.0151 105.033 74.7682 104.591 73.5776C104.531 73.4333 104.466 73.2867 104.382 73.1696C104.343 73.1092 104.287 73.065 104.264 73.0605C104.233 73.0525 104.132 73.0663 104.062 73.0793C103.753 73.1378 103.437 73.2366 103.123 73.3367C102.494 73.5383 101.866 73.7778 101.232 74.0192L101.242 74.0147C100.619 74.3338 99.9878 74.6565 99.3488 74.9832L98.9669 75.1785L99.2012 74.8192C99.8214 73.8677 100.452 72.8996 101.094 71.9164L101.162 71.8118L101.264 71.8905C101.766 72.2735 102.372 72.6181 103.004 72.6498C103.318 72.6637 103.625 72.5613 103.85 72.3446C103.951 72.227 104.073 72.1126 104.113 71.9817C104.16 71.8485 104.155 71.6943 104.119 71.5423C103.977 71.0007 103.595 70.5193 103.22 70.0791C102.835 69.6376 102.414 69.2295 101.982 68.8402C101.766 68.6458 101.546 68.4568 101.324 68.2718C101.095 68.097 100.889 67.8744 100.655 67.7927C100.406 67.6934 100.161 67.7426 99.872 67.8074C99.5925 67.8633 99.3139 67.9191 99.0366 67.9746L98.8958 68.0027L98.8998 67.8561C98.9105 67.4776 98.6717 67.099 98.3645 66.8559C98.0537 66.6079 97.6584 66.4774 97.264 66.5096C96.4609 66.5252 95.7548 67.0642 95.3787 67.71L95.3505 67.7587L95.3004 67.7676C94.8971 67.8396 94.4964 67.9111 94.1355 67.9759L94.1257 67.9777H94.1159C93.6964 67.9777 93.285 68.1261 92.9644 68.3835C92.6344 68.6449 92.4398 68.9998 92.3097 69.4083C92.0141 70.2078 91.7244 70.9913 91.4417 71.7569C90.8752 73.2871 90.3354 74.7459 89.8256 76.1224L89.8288 76.0701C90.8112 80.3735 91.6175 83.9073 92.1814 86.3774C92.4542 87.5993 92.6684 88.558 92.8168 89.223C92.8848 89.5416 92.938 89.7897 92.9765 89.9689C93.0122 90.1365 93.023 90.2245 93.023 90.2245Z" fill="#66805D" fill-opacity="0.8"/>
<path d="M101.098 77.3974C101.075 77.3483 101.909 76.9018 103.059 76.3422L103.786 75.9883L103.181 76.5295C103.026 76.668 102.885 76.8428 102.778 77.0444C102.598 77.38 102.529 77.75 102.555 78.0776C102.58 78.407 102.692 78.6935 102.82 78.9116C103.082 79.3518 103.376 79.523 103.352 79.5556C103.346 79.578 103.006 79.455 102.682 79.0005C102.524 78.7757 102.382 78.4669 102.341 78.0978C102.299 77.7299 102.37 77.3116 102.572 76.9349C102.693 76.7083 102.854 76.5125 103.033 76.3592L103.156 76.5465C101.995 77.0832 101.121 77.4466 101.098 77.3974Z" fill="#66805D" fill-opacity="0.8"/>
<path d="M95.7387 73.6218C95.7114 73.6052 95.9225 73.2035 96.2865 72.5675C96.6505 71.9315 97.1665 71.0618 97.7492 70.1085C98.043 69.6317 98.3153 69.1794 98.5841 68.7691C98.8542 68.3602 99.169 68.0165 99.5102 67.8328C99.8474 67.6464 100.171 67.6116 100.381 67.6402C100.595 67.667 100.694 67.7385 100.689 67.7483C100.683 67.768 100.574 67.7278 100.376 67.7305C100.18 67.7309 99.8912 67.7868 99.5938 67.9745C98.978 68.3374 98.5461 69.2916 97.9482 70.2301C97.3655 71.1834 96.8271 72.0397 96.4273 72.6533C96.0271 73.2669 95.7664 73.6383 95.7387 73.6218Z" fill="#66805D" fill-opacity="0.8"/>
<path d="M92.2736 73.5985C92.245 73.586 92.3688 73.2222 92.6045 72.6483C92.8402 72.0745 93.1899 71.2919 93.6107 70.4441C94.0315 69.5959 94.4429 68.8437 94.7572 68.3092C95.0716 67.7742 95.2862 67.4555 95.3135 67.4707C95.3421 67.4868 95.1785 67.8341 94.9017 68.3874C94.5837 69.0216 94.2202 69.7469 93.819 70.5473C93.4246 71.3509 93.0673 72.079 92.7548 72.7163C92.4811 73.2709 92.304 73.6114 92.2736 73.5985Z" fill="#66805D" fill-opacity="0.8"/>
<path d="M84.1767 116.089C84.1914 116.095 84.1324 116.279 84.013 116.608C83.8739 116.981 83.7009 117.445 83.4952 117.995C83.0542 119.164 82.4496 120.78 81.8111 122.575C81.173 124.371 80.622 126.007 80.2263 127.192C80.0385 127.748 79.8802 128.217 79.7527 128.594C79.6378 128.925 79.5671 129.105 79.5519 129.101C79.5367 129.096 79.5779 128.907 79.666 128.568C79.7536 128.229 79.8909 127.742 80.0693 127.143C80.4253 125.944 80.9525 124.297 81.5915 122.498C82.231 120.699 82.8615 119.09 83.3422 117.935C83.5824 117.357 83.7831 116.893 83.9289 116.574C84.0743 116.255 84.1615 116.082 84.1767 116.089Z" fill="#66805D" fill-opacity="0.8"/>
<path d="M99.1228 129.308C99.1268 129.308 99.1233 129.353 99.113 129.44C99.0996 129.539 99.0826 129.666 99.0611 129.825C99.0097 130.179 98.9381 130.673 98.8473 131.302C98.7499 131.943 98.6309 132.727 98.4507 133.632C98.2682 134.535 98.0236 135.562 97.6082 136.653C97.1928 137.737 96.5748 138.89 95.6366 139.901C94.7123 140.915 93.5648 141.854 92.238 142.641C90.9099 143.432 89.3998 144.044 87.7824 144.493C86.9703 144.708 86.1157 144.851 85.241 144.849C84.3659 144.855 83.4805 144.69 82.6349 144.392C80.941 143.777 79.5324 142.636 78.4837 141.327C77.4176 140.02 76.6646 138.567 76.0792 137.146C75.4943 135.717 75.1482 134.294 74.7444 132.997C74.342 131.697 73.9672 130.485 73.6242 129.377C72.9325 127.165 72.4048 125.364 72.0757 124.11C71.9098 123.484 71.7886 122.995 71.7134 122.662C71.679 122.506 71.6513 122.381 71.6294 122.283C71.6115 122.197 71.6048 122.153 71.6084 122.152C71.6124 122.151 71.6271 122.193 71.6522 122.277C71.6795 122.374 71.7148 122.496 71.7586 122.65C71.8556 122.994 71.9907 123.475 72.1629 124.086C72.5184 125.331 73.0693 127.123 73.7812 129.328C74.1327 130.434 74.5168 131.643 74.9291 132.941C75.3427 134.242 75.6942 135.656 76.2778 137.065C76.8627 138.469 77.6113 139.903 78.6604 141.183C79.6929 142.468 81.068 143.575 82.7131 144.173C83.5364 144.463 84.391 144.623 85.241 144.617C86.0907 144.62 86.9256 144.483 87.7242 144.273C89.3184 143.833 90.82 143.23 92.1285 142.456C93.4405 141.685 94.5768 140.765 95.494 139.771C96.4201 138.785 97.0336 137.661 97.4544 136.593C97.8743 135.52 98.1287 134.503 98.3228 133.606C98.5142 132.707 98.6461 131.926 98.757 131.287C98.8666 130.662 98.9524 130.17 99.0141 129.817C99.045 129.66 99.0691 129.535 99.0888 129.436C99.108 129.35 99.1192 129.307 99.1228 129.308Z" fill="#66805D" fill-opacity="0.8"/>
<path d="M15.1314 122.737C14.7281 121.34 13.8646 119.991 12.5293 119.415C11.1404 118.817 9.53098 119.157 8.10895 119.673C6.68692 120.19 5.29083 120.88 3.78115 120.974C2.27148 121.067 0.566835 120.351 0.114737 118.909C-0.310082 117.552 0.507806 116.106 1.53274 115.12C3.68546 113.049 6.92035 112.171 9.82567 112.868C12.731 113.565 15.2142 115.816 16.1917 118.637" fill="#9CB394"/>
<g opacity="0.5">
<path d="M15.1314 122.738C14.7281 121.342 13.8646 119.992 12.5293 119.416C11.1404 118.818 9.53098 119.159 8.10895 119.675C6.68692 120.191 5.29083 120.882 3.78115 120.975C2.27148 121.068 0.566835 120.353 0.114737 118.91C-0.310082 117.554 0.507806 116.107 1.53274 115.122C3.68546 113.051 6.92035 112.172 9.82567 112.87C12.731 113.567 15.2142 115.817 16.1917 118.639" fill="black"/>
</g>
<path d="M27.0938 128.793C29.3091 126.69 29.1982 123.028 28.0932 120.181C26.9883 117.334 24.5766 115.148 21.8824 113.707C16.6602 110.914 10.1323 110.703 4.74023 113.152C7.38977 113.239 9.95121 114.742 11.3187 117.012C12.5328 119.027 12.8024 121.473 13.8054 123.601C14.9225 125.971 16.9733 127.887 19.4153 128.841C21.8573 129.795 24.6638 129.777 27.0938 128.793Z" fill="#9CB394"/>
<path d="M28.1593 116.171C30.6116 113.277 30.9385 108.632 30.5772 104.858C30.2159 101.083 29.3403 97.2838 29.9364 93.5386C30.2892 91.3201 31.1505 89.2017 31.4416 86.9738C31.7327 84.7463 31.3204 82.2271 29.593 80.7889C27.6079 79.1361 24.4822 79.5259 22.4171 81.078C20.352 82.6297 19.1558 85.0677 18.2816 87.4971C16.361 92.8352 15.6558 98.7547 17.2334 104.204C18.8115 109.653 22.5141 114.526 27.9465 116.17" fill="#9CB394"/>
<path d="M29.3359 139.904C29.343 139.904 29.3457 139.789 29.3453 139.57C29.3421 139.352 29.3453 139.029 29.3269 138.614C29.2956 137.784 29.2156 136.584 29.0296 135.11C28.8426 133.636 28.5506 131.889 28.0873 129.978C27.6308 128.064 26.8491 126.023 25.7441 124.037C24.6356 122.05 23.2829 120.335 21.9149 118.921C20.5434 117.507 19.1402 116.406 17.9006 115.585C17.288 115.161 16.6955 114.84 16.1852 114.542C15.662 114.268 15.2055 114.042 14.8316 113.862C14.4618 113.706 14.1676 113.583 13.9493 113.491C13.7468 113.408 13.6395 113.368 13.6368 113.375C13.6341 113.381 13.7365 113.434 13.9333 113.528C14.1474 113.629 14.4354 113.764 14.7976 113.933C15.1652 114.124 15.6146 114.358 16.1302 114.641C16.6324 114.947 17.2169 115.275 17.8206 115.703C19.0427 116.534 20.4263 117.639 21.7803 119.05C23.1308 120.46 24.4674 122.165 25.5666 124.135C27.8217 128.078 28.4393 132.223 28.8869 135.128C29.0904 136.595 29.1923 137.791 29.2478 138.618C29.2715 139.017 29.2898 139.335 29.3041 139.571C29.3184 139.789 29.3287 139.904 29.3359 139.904Z" fill="#263238"/>
<path d="M50.4901 104.754C55.0281 107.491 55.0138 109.982 54.2558 112.332C53.4983 114.683 50.7128 116.316 48.404 115.436C47.0987 114.939 46.1534 113.805 45.3458 112.665C44.5382 111.526 43.7793 110.307 42.6475 109.488C41.5157 108.67 39.875 108.357 38.7383 109.168" fill="#9CB394"/>
<g opacity="0.5">
<path d="M50.4901 104.755C55.0281 107.492 55.0138 109.983 54.2558 112.333C53.4983 114.684 50.7128 116.317 48.404 115.437C47.0987 114.94 46.1534 113.806 45.3458 112.666C44.5382 111.527 43.7793 110.307 42.6475 109.489C41.5157 108.671 39.875 108.358 38.7383 109.169" fill="black"/>
</g>
<path d="M53.8882 107.752C52.7018 106.114 49.7706 105.639 47.9197 106.457C46.0688 107.274 44.713 108.896 43.4994 110.514C42.2857 112.133 41.1047 113.842 39.4238 114.968C37.7428 116.094 35.3947 116.502 33.7191 115.368C32.6186 114.622 31.9809 113.327 31.7815 112.014C31.582 110.7 31.7743 109.36 32.048 108.059C32.4482 106.158 33.102 104.171 34.6251 102.963C36.3226 101.616 38.6774 101.552 40.8436 101.623C43.329 101.704 45.8515 101.891 48.1844 102.751C50.5174 103.613 52.8977 105.472 53.8882 107.752Z" fill="#9CB394"/>
<path d="M33.1085 136.274C33.1121 136.274 33.1161 136.24 33.1206 136.174C33.1246 136.096 33.1295 136 33.1358 135.881C33.1452 135.608 33.1581 135.232 33.1747 134.756C33.2033 133.761 33.244 132.351 33.2936 130.616C33.3486 128.869 33.4197 126.788 33.5458 124.481C33.6751 122.175 33.8463 119.638 34.1965 116.998C34.3745 115.68 34.5829 114.391 34.9482 113.197C35.3162 112.003 35.8059 110.89 36.3389 109.872C36.8769 108.856 37.4672 107.93 38.0932 107.12C38.7224 106.313 39.3717 105.611 40.0089 105.018C41.2963 103.842 42.5283 103.123 43.4052 102.704C43.627 102.603 43.8202 102.503 43.9937 102.433C44.165 102.366 44.3126 102.31 44.4369 102.261C44.5469 102.216 44.6363 102.18 44.7083 102.151C44.7691 102.125 44.8 102.11 44.7986 102.107C44.7978 102.103 44.7647 102.112 44.7016 102.131C44.6274 102.155 44.5357 102.185 44.4226 102.222C44.2956 102.265 44.1453 102.317 43.9705 102.377C43.7934 102.441 43.5966 102.536 43.3708 102.632C42.4782 103.032 41.2235 103.738 39.911 104.912C39.2612 105.504 38.5994 106.206 37.9591 107.017C37.3214 107.83 36.7199 108.761 36.1726 109.785C35.6301 110.811 35.1329 111.929 34.7573 113.138C34.383 114.353 34.1732 115.647 33.9944 116.971C33.6429 119.621 33.4774 122.162 33.358 124.471C33.2422 126.782 33.1854 128.864 33.1492 130.613C33.1134 132.361 33.0996 133.776 33.0946 134.755C33.0942 135.231 33.0938 135.607 33.0938 135.881C33.0955 136 33.0973 136.096 33.0987 136.174C33.1022 136.24 33.1049 136.274 33.1085 136.274Z" fill="#263238"/>
<path d="M31.4745 138.304C31.4745 138.304 31.7285 137.63 31.9713 136.356C32.2079 135.084 32.3854 133.197 32.1792 130.885C31.9852 128.572 31.3931 125.859 30.45 122.946C29.519 120.028 28.2543 116.908 27.1744 113.554C26.6387 111.876 26.1835 110.216 25.8713 108.586C25.5552 106.956 25.3548 105.365 25.2278 103.844C24.9734 100.801 25.0096 98.0444 25.0834 95.7361C25.1617 93.4264 25.2846 91.5592 25.3611 90.268C25.3987 89.6325 25.4277 89.1341 25.4487 88.7815C25.4563 88.6202 25.4622 88.4924 25.4671 88.3945C25.4702 88.3073 25.4698 88.2627 25.4662 88.2622C25.4626 88.2618 25.4559 88.3065 25.4461 88.3932C25.4362 88.4906 25.4237 88.618 25.4081 88.7784C25.3781 89.1306 25.3361 89.628 25.2824 90.2626C25.1813 91.552 25.0369 93.4183 24.9399 95.7307C24.8473 98.0413 24.7963 100.804 25.0414 103.859C25.1639 105.386 25.3611 106.985 25.6764 108.623C25.9876 110.263 26.4437 111.933 26.9812 113.616C28.0647 116.98 29.3338 120.097 30.272 123.004C31.2223 125.904 31.8251 128.6 32.0361 130.898C32.2593 133.196 32.1046 135.072 31.8935 136.343C31.7821 136.978 31.6802 137.47 31.5907 137.798C31.5527 137.955 31.5223 138.079 31.4991 138.174C31.4794 138.259 31.4709 138.303 31.4745 138.304Z" fill="#263238"/>
<path d="M20.2246 140.365H41.5313L42.0179 136.266H20.2246V140.365Z" fill="#455A64"/>
<path d="M39.2456 139.907L36.5817 152.203H25.0043L22.5117 139.907H39.2456Z" fill="#455A64"/>
<path d="M20.2246 140.373C20.2246 140.429 24.9093 140.461 30.6864 140.445C36.4657 140.429 41.1485 140.37 41.1485 140.314C41.1485 140.258 36.4648 140.226 30.6859 140.242C24.9088 140.258 20.2246 140.317 20.2246 140.373Z" fill="#455A64"/>
<path d="M23.8812 146.445C23.9085 146.486 24.51 145.866 25.7576 145.37C26.3765 145.124 27.16 144.933 28.0396 144.912C28.9209 144.884 29.8775 145.094 30.8447 145.427C31.816 145.755 32.7229 146.137 33.606 146.347C34.4932 146.539 35.3196 146.524 35.9926 146.419C36.6679 146.314 37.1911 146.114 37.5264 145.934C37.6919 145.839 37.8185 145.763 37.8963 145.699C37.9763 145.639 38.0157 145.605 38.0116 145.599C38.0005 145.583 37.8296 145.705 37.4911 145.863C37.1517 146.018 36.6343 146.192 35.9721 146.278C35.3125 146.363 34.5044 146.361 33.6472 146.166C32.7944 145.952 31.8875 145.566 30.9091 145.235C29.9334 144.899 28.9424 144.686 28.0342 144.726C27.1286 144.757 26.3286 144.97 25.703 145.238C25.0721 145.499 24.6142 145.817 24.3146 146.047C24.1643 146.164 24.0543 146.261 23.9836 146.332C23.9121 146.401 23.8768 146.44 23.8812 146.445Z" fill="#263238"/>
<path d="M24.0434 147.248C24.0712 147.289 24.6498 146.688 25.8456 146.187C26.4403 145.941 27.1956 145.75 28.0457 145.734C28.8971 145.711 29.8232 145.903 30.7592 146.222C31.6978 146.536 32.5787 146.899 33.4199 147.126C34.2601 147.355 35.0534 147.435 35.7135 147.383C36.3753 147.337 36.8909 147.15 37.2169 146.981C37.3779 146.891 37.5004 146.817 37.5751 146.755C37.6524 146.697 37.6904 146.663 37.6864 146.658C37.6752 146.641 37.5102 146.76 37.1824 146.911C36.8533 147.055 36.3485 147.214 35.7045 147.24C35.0624 147.274 34.291 147.181 33.47 146.946C32.6467 146.715 31.7725 146.347 30.8231 146.03C29.8778 145.708 28.9186 145.513 28.0408 145.548C27.1643 145.575 26.3902 145.787 25.7892 146.056C25.1833 146.32 24.746 146.634 24.4589 146.861C24.3149 146.975 24.2098 147.071 24.1414 147.139C24.0725 147.205 24.0385 147.242 24.0434 147.248Z" fill="white"/>
<path d="M23.6703 145.627C23.6967 145.665 24.3214 145.038 25.5972 144.492C26.2304 144.223 27.029 143.984 27.9359 143.93C28.8437 143.866 29.8324 144.098 30.8305 144.44C31.8344 144.776 32.7664 145.184 33.6898 145.373C34.6132 145.54 35.4615 145.488 36.1542 145.377C36.8478 145.257 37.3888 145.059 37.7372 144.876C37.9094 144.781 38.0408 144.703 38.1218 144.638C38.2045 144.576 38.2456 144.541 38.2416 144.535C38.2304 144.519 38.0542 144.645 37.7032 144.805C37.3513 144.962 36.8151 145.135 36.1323 145.235C35.4512 145.327 34.6168 145.362 33.7255 145.189C32.8415 144.999 31.906 144.587 30.8962 144.247C29.8901 143.902 28.8656 143.667 27.9252 143.743C26.9901 143.809 26.1781 144.069 25.5399 144.36C24.8969 144.647 24.4274 144.976 24.1188 145.215C23.9645 145.337 23.8505 145.437 23.7776 145.51C23.7025 145.581 23.6658 145.621 23.6703 145.627Z" fill="white"/>
<path d="M20.0352 140.392C20.0352 140.448 24.828 140.493 30.7388 140.493C36.6519 140.493 41.4438 140.448 41.4438 140.392C41.4438 140.336 36.6519 140.291 30.7388 140.291C24.828 140.291 20.0352 140.336 20.0352 140.392Z" fill="#263238"/>
<path d="M195 152.2C195 152.265 151.415 152.316 97.6627 152.316C43.8917 152.316 0.316406 152.264 0.316406 152.2C0.316406 152.136 43.8917 152.084 97.6627 152.084C151.415 152.084 195 152.136 195 152.2Z" fill="#263238"/>
</svg>
