<svg width="171" height="173" viewBox="0 0 171 173" fill="none" xmlns="http://www.w3.org/2000/svg">
<g opacity="0.3">
<path d="M14.1769 105.866C11.2351 101.211 8.78878 96.2279 6.83731 91.055C4.89808 85.8768 3.4177 80.5238 2.3828 75.0898C1.87945 72.3701 1.45176 69.6359 1.14278 66.8888C0.846404 64.1401 0.620878 61.3821 0.544095 58.6178C0.453217 55.8543 0.504777 53.087 0.680598 50.3305C0.780749 48.9528 0.909833 47.5777 1.0812 46.2086C1.23477 44.8376 1.46475 43.4763 1.71364 42.1221C1.13091 47.6027 1.09233 53.1056 1.4117 58.578C1.59086 61.3137 1.83382 64.0448 2.18918 66.763C2.52672 69.4834 2.95923 72.1904 3.47519 74.8803C3.97001 77.5746 4.58465 80.2456 5.28459 82.893C5.97156 85.5442 6.77611 88.1638 7.65113 90.7607C9.44866 95.9366 11.6075 100.995 14.1769 105.866Z" fill="#DDE5DA"/>
<path d="M158.764 77.3906C161.368 79.5734 163.445 82.3433 165.1 85.3141C166.757 88.2919 168.011 91.4911 168.918 94.7837C169.8 98.0856 170.288 101.489 170.445 104.904C170.556 106.614 170.476 108.326 170.413 110.036L170.171 112.594C170.143 113.023 170.058 113.443 169.991 113.866L169.78 115.134C168.651 121.893 165.806 128.398 161.488 133.753C157.182 139.127 151.461 143.261 145.216 146.052C138.945 148.83 132.18 150.298 125.436 151.04C118.691 151.835 111.899 152.288 105.106 152.2C98.3154 152.138 91.5274 151.617 84.8198 150.579C78.1205 149.502 71.4919 147.943 65.0859 145.728C71.5672 147.701 78.1972 149.148 84.8988 150.037C91.5945 150.962 98.3547 151.383 105.108 151.342C108.485 151.323 111.86 151.195 115.23 150.987C118.6 150.768 121.963 150.448 125.313 150.031C126.99 149.826 128.661 149.585 130.317 149.311C131.971 149.011 133.623 148.693 135.25 148.273C138.513 147.476 141.701 146.388 144.765 145.032C150.888 142.331 156.481 138.329 160.702 133.113C162.827 130.524 164.571 127.63 165.954 124.576C166.65 123.05 167.223 121.469 167.727 119.867L167.918 119.267L168.077 118.658L168.392 117.437L168.707 116.216C168.802 115.807 168.862 115.39 168.942 114.977L169.168 113.736C169.24 113.322 169.331 112.909 169.363 112.489L169.638 109.979C169.726 108.299 169.831 106.614 169.745 104.929C169.643 101.562 169.206 98.1973 168.393 94.9188C167.576 91.644 166.414 88.4471 164.842 85.4536C164.481 84.6868 164.014 83.9814 163.583 83.2541C163.17 82.5129 162.639 81.8526 162.157 81.158L161.789 80.6404L161.379 80.1564L160.558 79.188C160.297 78.8516 159.972 78.5786 159.674 78.2772L158.764 77.3906Z" fill="#DDE5DA"/>
<path d="M26.7266 5.15097C28.096 4.44073 29.5089 3.809 30.9544 3.25986C32.3981 2.70514 33.8707 2.21925 35.3659 1.81223C36.8626 1.41042 38.3779 1.07596 39.9061 0.807339C41.4351 0.543559 42.9763 0.356791 44.522 0.215414C46.0684 0.0837097 47.62 0.0119055 49.172 0L51.4999 0.0323686L52.0819 0.0409252L52.6621 0.0732924L53.8223 0.138028C54.5957 0.184162 55.3698 0.218018 56.1418 0.287219L58.4552 0.527932C58.8406 0.570345 59.2272 0.603086 59.6118 0.653684L60.7632 0.826685C61.5303 0.944995 62.2992 1.05103 63.0648 1.17938C66.1161 1.76424 69.1399 2.51466 72.084 3.53108C75.008 4.59848 77.8579 5.88427 80.5345 7.47625C83.2275 9.04145 85.7064 10.9519 87.9951 13.0428C90.2637 15.159 92.3594 17.4504 94.2271 19.9122C92.1654 17.6126 90.0029 15.4109 87.636 13.4546C85.2865 11.4839 82.7805 9.70183 80.1017 8.23113C77.4254 6.75895 74.6282 5.51929 71.7409 4.53002C68.8447 3.56382 65.8739 2.83499 62.869 2.27692C59.8544 1.7728 56.818 1.3602 53.757 1.18943L52.6109 1.10572L52.0378 1.06368L51.4647 1.04582L49.1716 0.974759C47.6426 0.967318 46.1129 0.995965 44.5854 1.08042C38.4821 1.4454 32.4007 2.71444 26.7266 5.15097Z" fill="#DDE5DA"/>
<path d="M4.53749 68.7976C-1.78837 23.2321 20.5057 1.75504 51.9395 3.15504C83.3729 4.55468 93.9144 20.1616 107.085 46.0988C120.256 72.0359 139.799 64.6925 157.086 79.3794C172.493 92.4698 176.753 140.801 127.805 147.594C68.0227 155.891 13.2744 131.732 4.53749 68.7976Z" fill="#DDE5DA"/>
<path d="M158.117 73.3226C158.117 74.4383 157.216 75.3424 156.104 75.3424C154.991 75.3424 154.09 74.438 154.09 73.3226C154.09 72.2068 154.992 71.3027 156.104 71.3027C157.216 71.3024 158.117 72.2068 158.117 73.3226Z" fill="#DDE5DA"/>
<path d="M151.5 71.5361C153.607 71.5361 155.316 69.8224 155.316 67.7085C155.316 65.5945 153.607 63.8809 151.5 63.8809C149.392 63.8809 147.684 65.5945 147.684 67.7085C147.684 69.8224 149.392 71.5361 151.5 71.5361Z" fill="#DDE5DA"/>
<path d="M100.715 27.8595C102.505 27.8595 103.956 26.4042 103.956 24.609C103.956 22.8137 102.505 21.3584 100.715 21.3584C98.9256 21.3584 97.4746 22.8137 97.4746 24.609C97.4746 26.4042 98.9256 27.8595 100.715 27.8595Z" fill="#DDE5DA"/>
<path d="M101.159 18.6491C101.159 19.7347 100.282 20.6146 99.1999 20.6146C98.1175 20.6146 97.2402 19.7347 97.2402 18.6491C97.2402 17.5635 98.1175 16.6836 99.1999 16.6836C100.282 16.6836 101.159 17.5639 101.159 18.6491Z" fill="#DDE5DA"/>
<path d="M107.167 19.3244C107.167 20.6225 106.118 21.6747 104.824 21.6747C103.529 21.6747 102.48 20.6225 102.48 19.3244C102.48 18.0268 103.529 16.9746 104.824 16.9746C106.118 16.9746 107.167 18.0268 107.167 19.3244Z" fill="#DDE5DA"/>
</g>
<path opacity="0.7" d="M142.573 28.5882H125.503V26.5378C125.503 25.5716 124.722 24.7881 123.758 24.7881H123.715C122.752 24.7881 121.971 25.5712 121.971 26.5378V28.5882H60.5373V26.5378C60.5373 25.5716 59.7565 24.7881 58.7928 24.7881H58.7498C57.7865 24.7881 57.0053 25.5712 57.0053 26.5378V28.5882H39.8568C37.9124 28.5882 36.3359 30.1693 36.3359 32.1196V121.268C36.3359 123.219 37.9124 124.8 39.8568 124.8H142.573C144.517 124.8 146.094 123.219 146.094 121.268V32.1196C146.094 30.1693 144.518 28.5882 142.573 28.5882Z" fill="#D7F6F9"/>
<path d="M37.2596 123.451C35.2413 123.451 33.5996 121.804 33.5996 119.78V33.9799C33.5996 31.9556 35.2413 30.3086 37.2596 30.3086H139.976C141.994 30.3086 143.636 31.9556 143.636 33.9799V119.78C143.636 121.804 141.994 123.451 139.976 123.451H37.2596V123.451Z" fill="#7E9476"/>
<path d="M139.976 30.449C141.92 30.449 143.497 32.0301 143.497 33.9804V119.781C143.497 121.731 141.92 123.312 139.976 123.312H37.26C35.3152 123.312 33.7391 121.731 33.7391 119.781V33.9804C33.7391 32.0301 35.3156 30.449 37.26 30.449H139.976ZM139.976 30.1699H37.26C35.165 30.1699 33.4609 31.8795 33.4609 33.9804V119.781C33.4609 121.882 35.1654 123.591 37.26 123.591H139.976C142.071 123.591 143.775 121.882 143.775 119.781V33.9804C143.775 31.8795 142.071 30.1699 139.976 30.1699Z" fill="#FF7F6A"/>
<path d="M109.152 35.167H68.082V36.5718H109.152V35.167Z" fill="white"/>
<path d="M114.476 39.0654H62.7598V40.4703H114.476V39.0654Z" fill="white"/>
<path d="M49.4179 44.6758H33.7383V60.4025H49.4179V44.6758Z" fill="white"/>
<path d="M37.38 50.2156C38.4043 50.2156 39.2347 49.3827 39.2347 48.3553C39.2347 47.328 38.4043 46.4951 37.38 46.4951C36.3557 46.4951 35.5254 47.328 35.5254 48.3553C35.5254 49.3827 36.3557 50.2156 37.38 50.2156Z" fill="#CEB2C7"/>
<path d="M38.9336 52.6943H46.293" stroke="#5E334F" stroke-width="0.363282" stroke-miterlimit="10" stroke-linecap="round" stroke-linejoin="round"/>
<path d="M36.8633 52.6943H38.0098" stroke="#5E334F" stroke-width="0.363282" stroke-miterlimit="10" stroke-linecap="round" stroke-linejoin="round"/>
<path d="M38.9336 55.2188H46.293" stroke="#5E334F" stroke-width="0.363282" stroke-miterlimit="10" stroke-linecap="round" stroke-linejoin="round"/>
<path d="M36.8633 55.2188H38.0098" stroke="#5E334F" stroke-width="0.363282" stroke-miterlimit="10" stroke-linecap="round" stroke-linejoin="round"/>
<path d="M80.7773 44.6758H65.0977V60.4025H80.7773V44.6758Z" fill="white"/>
<path d="M68.7394 50.2156C69.7637 50.2156 70.5941 49.3827 70.5941 48.3553C70.5941 47.328 69.7637 46.4951 68.7394 46.4951C67.7151 46.4951 66.8848 47.328 66.8848 48.3553C66.8848 49.3827 67.7151 50.2156 68.7394 50.2156Z" fill="#CEB2C7"/>
<path d="M96.457 44.6758H80.7773V60.4025H96.457V44.6758Z" fill="white"/>
<path d="M84.4191 50.2156C85.4434 50.2156 86.2738 49.3827 86.2738 48.3553C86.2738 47.328 85.4434 46.4951 84.4191 46.4951C83.3948 46.4951 82.5645 47.328 82.5645 48.3553C82.5645 49.3827 83.3948 50.2156 84.4191 50.2156Z" fill="#CEB2C7"/>
<path d="M112.137 44.6758H96.457V60.4025H112.137V44.6758Z" fill="white"/>
<path d="M100.099 50.2156C101.123 50.2156 101.953 49.3827 101.953 48.3553C101.953 47.328 101.123 46.4951 100.099 46.4951C99.0745 46.4951 98.2441 47.328 98.2441 48.3553C98.2441 49.3827 99.0745 50.2156 100.099 50.2156Z" fill="#CEB2C7"/>
<path d="M101.652 52.6943H109.012" stroke="#5E334F" stroke-width="0.363282" stroke-miterlimit="10" stroke-linecap="round" stroke-linejoin="round"/>
<path d="M99.582 52.6943H100.728" stroke="#5E334F" stroke-width="0.363282" stroke-miterlimit="10" stroke-linecap="round" stroke-linejoin="round"/>
<path d="M101.652 55.2188H109.012" stroke="#5E334F" stroke-width="0.363282" stroke-miterlimit="10" stroke-linecap="round" stroke-linejoin="round"/>
<path d="M99.582 55.2188H100.728" stroke="#5E334F" stroke-width="0.363282" stroke-miterlimit="10" stroke-linecap="round" stroke-linejoin="round"/>
<path d="M101.652 57.7393H109.012" stroke="#5E334F" stroke-width="0.363282" stroke-miterlimit="10" stroke-linecap="round" stroke-linejoin="round"/>
<path d="M99.582 57.7393H100.728" stroke="#5E334F" stroke-width="0.363282" stroke-miterlimit="10" stroke-linecap="round" stroke-linejoin="round"/>
<path d="M127.816 44.6758H112.137V60.4025H127.816V44.6758Z" fill="white"/>
<path d="M115.778 50.2156C116.803 50.2156 117.633 49.3827 117.633 48.3553C117.633 47.328 116.803 46.4951 115.778 46.4951C114.754 46.4951 113.924 47.328 113.924 48.3553C113.924 49.3827 114.754 50.2156 115.778 50.2156Z" fill="#CEB2C7"/>
<path d="M143.496 44.6758H127.816V60.4025H143.496V44.6758Z" fill="white"/>
<path d="M131.458 50.2156C132.482 50.2156 133.313 49.3827 133.313 48.3553C133.313 47.328 132.482 46.4951 131.458 46.4951C130.434 46.4951 129.604 47.328 129.604 48.3553C129.604 49.3827 130.434 50.2156 131.458 50.2156Z" fill="#CEB2C7"/>
<path d="M49.4179 60.4023H33.7383V76.1291H49.4179V60.4023Z" fill="white"/>
<path d="M37.38 65.9421C38.4043 65.9421 39.2347 65.1093 39.2347 64.0819C39.2347 63.0545 38.4043 62.2217 37.38 62.2217C36.3557 62.2217 35.5254 63.0545 35.5254 64.0819C35.5254 65.1093 36.3557 65.9421 37.38 65.9421Z" fill="#CEB2C7"/>
<path d="M127.816 60.4023H112.137V76.1291H127.816V60.4023Z" fill="white"/>
<path d="M115.778 65.9421C116.803 65.9421 117.633 65.1093 117.633 64.0819C117.633 63.0545 116.803 62.2217 115.778 62.2217C114.754 62.2217 113.924 63.0545 113.924 64.0819C113.924 65.1093 114.754 65.9421 115.778 65.9421Z" fill="#CEB2C7"/>
<path d="M143.496 60.4023H127.816V76.1291H143.496V60.4023Z" fill="white"/>
<path d="M131.458 65.9421C132.482 65.9421 133.313 65.1093 133.313 64.0819C133.313 63.0545 132.482 62.2217 131.458 62.2217C130.434 62.2217 129.604 63.0545 129.604 64.0819C129.604 65.1093 130.434 65.9421 131.458 65.9421Z" fill="#CEB2C7"/>
<path d="M49.4179 76.1279H33.7383V91.8546H49.4179V76.1279Z" fill="white"/>
<path d="M37.38 81.6716C38.4043 81.6716 39.2347 80.8388 39.2347 79.8114C39.2347 78.784 38.4043 77.9512 37.38 77.9512C36.3557 77.9512 35.5254 78.784 35.5254 79.8114C35.5254 80.8388 36.3557 81.6716 37.38 81.6716Z" fill="#CEB2C7"/>
<path d="M80.7773 76.1279H65.0977V91.8546H80.7773V76.1279Z" fill="white"/>
<path d="M68.7394 81.6716C69.7637 81.6716 70.5941 80.8388 70.5941 79.8114C70.5941 78.784 69.7637 77.9512 68.7394 77.9512C67.7151 77.9512 66.8848 78.784 66.8848 79.8114C66.8848 80.8388 67.7151 81.6716 68.7394 81.6716Z" fill="#CEB2C7"/>
<path d="M96.457 76.1279H80.7773V91.8546H96.457V76.1279Z" fill="white"/>
<path d="M84.4191 81.6716C85.4434 81.6716 86.2738 80.8388 86.2738 79.8114C86.2738 78.784 85.4434 77.9512 84.4191 77.9512C83.3948 77.9512 82.5645 78.784 82.5645 79.8114C82.5645 80.8388 83.3948 81.6716 84.4191 81.6716Z" fill="#CEB2C7"/>
<path d="M112.137 76.1279H96.457V91.8546H112.137V76.1279Z" fill="white"/>
<path d="M100.099 81.6716C101.123 81.6716 101.953 80.8388 101.953 79.8114C101.953 78.784 101.123 77.9512 100.099 77.9512C99.0745 77.9512 98.2441 78.784 98.2441 79.8114C98.2441 80.8388 99.0745 81.6716 100.099 81.6716Z" fill="#CEB2C7"/>
<path d="M127.816 76.1279H112.137V91.8546H127.816V76.1279Z" fill="white"/>
<path d="M115.778 81.6716C116.803 81.6716 117.633 80.8388 117.633 79.8114C117.633 78.784 116.803 77.9512 115.778 77.9512C114.754 77.9512 113.924 78.784 113.924 79.8114C113.924 80.8388 114.754 81.6716 115.778 81.6716Z" fill="#CEB2C7"/>
<path d="M117.332 84.1484H124.691" stroke="#5E334F" stroke-width="0.363282" stroke-miterlimit="10" stroke-linecap="round" stroke-linejoin="round"/>
<path d="M115.262 84.1484H116.408" stroke="#5E334F" stroke-width="0.363282" stroke-miterlimit="10" stroke-linecap="round" stroke-linejoin="round"/>
<path d="M117.332 86.6699H124.691" stroke="#5E334F" stroke-width="0.363282" stroke-miterlimit="10" stroke-linecap="round" stroke-linejoin="round"/>
<path d="M115.262 86.6699H116.408" stroke="#5E334F" stroke-width="0.363282" stroke-miterlimit="10" stroke-linecap="round" stroke-linejoin="round"/>
<path d="M143.496 76.1279H127.816V91.8546H143.496V76.1279Z" fill="white"/>
<path d="M131.458 81.6716C132.482 81.6716 133.313 80.8388 133.313 79.8114C133.313 78.784 132.482 77.9512 131.458 77.9512C130.434 77.9512 129.604 78.784 129.604 79.8114C129.604 80.8388 130.434 81.6716 131.458 81.6716Z" fill="#CEB2C7"/>
<path d="M49.4179 91.8574H33.7383V107.584H49.4179V91.8574Z" fill="white"/>
<path d="M37.38 97.3982C38.4043 97.3982 39.2347 96.5653 39.2347 95.538C39.2347 94.5106 38.4043 93.6777 37.38 93.6777C36.3557 93.6777 35.5254 94.5106 35.5254 95.538C35.5254 96.5653 36.3557 97.3982 37.38 97.3982Z" fill="#CEB2C7"/>
<path d="M80.7773 91.8574H65.0977V107.584H80.7773V91.8574Z" fill="white"/>
<path d="M68.7394 97.3982C69.7637 97.3982 70.5941 96.5653 70.5941 95.538C70.5941 94.5106 69.7637 93.6777 68.7394 93.6777C67.7151 93.6777 66.8848 94.5106 66.8848 95.538C66.8848 96.5653 67.7151 97.3982 68.7394 97.3982Z" fill="#CEB2C7"/>
<path d="M70.293 99.8735H77.6527" stroke="#5E334F" stroke-width="0.363282" stroke-miterlimit="10" stroke-linecap="round" stroke-linejoin="round"/>
<path d="M68.2227 99.8735H69.3692" stroke="#5E334F" stroke-width="0.363282" stroke-miterlimit="10" stroke-linecap="round" stroke-linejoin="round"/>
<path d="M70.293 102.398H77.6527" stroke="#5E334F" stroke-width="0.363282" stroke-miterlimit="10" stroke-linecap="round" stroke-linejoin="round"/>
<path d="M68.2227 102.398H69.3692" stroke="#5E334F" stroke-width="0.363282" stroke-miterlimit="10" stroke-linecap="round" stroke-linejoin="round"/>
<path d="M112.137 91.8574H96.457V107.584H112.137V91.8574Z" fill="white"/>
<path d="M100.099 97.3982C101.123 97.3982 101.953 96.5653 101.953 95.538C101.953 94.5106 101.123 93.6777 100.099 93.6777C99.0745 93.6777 98.2441 94.5106 98.2441 95.538C98.2441 96.5653 99.0745 97.3982 100.099 97.3982Z" fill="#CEB2C7"/>
<path d="M127.816 91.8574H112.137V107.584H127.816V91.8574Z" fill="white"/>
<path d="M115.778 97.3982C116.803 97.3982 117.633 96.5653 117.633 95.538C117.633 94.5106 116.803 93.6777 115.778 93.6777C114.754 93.6777 113.924 94.5106 113.924 95.538C113.924 96.5653 114.754 97.3982 115.778 97.3982Z" fill="#CEB2C7"/>
<path d="M143.496 91.8574H127.816V107.584H143.496V91.8574Z" fill="white"/>
<path d="M131.458 97.3982C132.482 97.3982 133.313 96.5653 133.313 95.538C133.313 94.5106 132.482 93.6777 131.458 93.6777C130.434 93.6777 129.604 94.5106 129.604 95.538C129.604 96.5653 130.434 97.3982 131.458 97.3982Z" fill="#CEB2C7"/>
<path d="M49.4179 123.314H37.1334C35.2584 123.314 33.7383 121.789 33.7383 119.908V107.587H49.4179V123.314Z" fill="white"/>
<path d="M37.38 113.124C38.4043 113.124 39.2347 112.291 39.2347 111.264C39.2347 110.236 38.4043 109.403 37.38 109.403C36.3557 109.403 35.5254 110.236 35.5254 111.264C35.5254 112.291 36.3557 113.124 37.38 113.124Z" fill="#CEB2C7"/>
<path d="M65.0976 60.4023H49.418V76.1291H65.0976V60.4023Z" fill="white"/>
<path d="M53.0597 65.9421C54.084 65.9421 54.9144 65.1093 54.9144 64.0819C54.9144 63.0545 54.084 62.2217 53.0597 62.2217C52.0354 62.2217 51.2051 63.0545 51.2051 64.0819C51.2051 65.1093 52.0354 65.9421 53.0597 65.9421Z" fill="#CEB2C7"/>
<path d="M65.0976 44.6758H49.418V60.4025H65.0976V44.6758Z" fill="white"/>
<path d="M53.0597 50.2156C54.084 50.2156 54.9144 49.3827 54.9144 48.3553C54.9144 47.328 54.084 46.4951 53.0597 46.4951C52.0354 46.4951 51.2051 47.328 51.2051 48.3553C51.2051 49.3827 52.0354 50.2156 53.0597 50.2156Z" fill="#CEB2C7"/>
<path d="M65.0976 76.1279H49.418V91.8546H65.0976V76.1279Z" fill="white"/>
<path d="M53.0597 81.6716C54.084 81.6716 54.9144 80.8388 54.9144 79.8114C54.9144 78.784 54.084 77.9512 53.0597 77.9512C52.0354 77.9512 51.2051 78.784 51.2051 79.8114C51.2051 80.8388 52.0354 81.6716 53.0597 81.6716Z" fill="#CEB2C7"/>
<path d="M65.0976 91.8574H49.418V107.584H65.0976V91.8574Z" fill="white"/>
<path d="M53.0597 97.3982C54.084 97.3982 54.9144 96.5653 54.9144 95.538C54.9144 94.5106 54.084 93.6777 53.0597 93.6777C52.0354 93.6777 51.2051 94.5106 51.2051 95.538C51.2051 96.5653 52.0354 97.3982 53.0597 97.3982Z" fill="#CEB2C7"/>
<path d="M65.0976 107.587H49.418V123.314H65.0976V107.587Z" fill="white"/>
<path d="M53.0597 113.124C54.084 113.124 54.9144 112.291 54.9144 111.264C54.9144 110.236 54.084 109.403 53.0597 109.403C52.0354 109.403 51.2051 110.236 51.2051 111.264C51.2051 112.291 52.0354 113.124 53.0597 113.124Z" fill="#CEB2C7"/>
<path d="M80.7773 107.587H65.0977V123.314H80.7773V107.587Z" fill="white"/>
<path d="M68.7394 113.124C69.7637 113.124 70.5941 112.291 70.5941 111.264C70.5941 110.236 69.7637 109.403 68.7394 109.403C67.7151 109.403 66.8848 110.236 66.8848 111.264C66.8848 112.291 67.7151 113.124 68.7394 113.124Z" fill="#CEB2C7"/>
<path d="M96.457 107.587H80.7773V123.314H96.457V107.587Z" fill="white"/>
<path d="M84.4191 113.124C85.4434 113.124 86.2738 112.291 86.2738 111.264C86.2738 110.236 85.4434 109.403 84.4191 109.403C83.3948 109.403 82.5645 110.236 82.5645 111.264C82.5645 112.291 83.3948 113.124 84.4191 113.124Z" fill="#CEB2C7"/>
<path d="M112.137 107.587H96.457V123.314H112.137V107.587Z" fill="white"/>
<path d="M100.099 113.124C101.123 113.124 101.953 112.291 101.953 111.264C101.953 110.236 101.123 109.403 100.099 109.403C99.0745 109.403 98.2441 110.236 98.2441 111.264C98.2441 112.291 99.0745 113.124 100.099 113.124Z" fill="#CEB2C7"/>
<path d="M127.816 107.587H112.137V123.314H127.816V107.587Z" fill="white"/>
<path opacity="0.3" d="M125.351 122.118H114.602C113.897 122.118 113.324 121.544 113.324 120.836V112.545C113.324 111.837 113.897 111.263 114.602 111.263H125.351C126.057 111.263 126.629 111.837 126.629 112.545V120.836C126.629 121.544 126.057 122.118 125.351 122.118Z" fill="#FF7F6A"/>
<path d="M115.778 113.124C116.803 113.124 117.633 112.291 117.633 111.264C117.633 110.236 116.803 109.403 115.778 109.403C114.754 109.403 113.924 110.236 113.924 111.264C113.924 112.291 114.754 113.124 115.778 113.124Z" fill="#CEB2C7"/>
<path d="M117.332 115.602H124.691" stroke="#5E334F" stroke-width="0.363282" stroke-miterlimit="10" stroke-linecap="round" stroke-linejoin="round"/>
<path d="M115.262 115.601H116.408" stroke="#5E334F" stroke-width="0.363282" stroke-miterlimit="10" stroke-linecap="round" stroke-linejoin="round"/>
<path d="M140.087 123.314H127.816V107.587H143.496V119.895C143.496 121.783 141.97 123.314 140.087 123.314Z" fill="white"/>
<path d="M131.458 113.124C132.482 113.124 133.313 112.291 133.313 111.264C133.313 110.236 132.482 109.403 131.458 109.403C130.434 109.403 129.604 110.236 129.604 111.264C129.604 112.291 130.434 113.124 131.458 113.124Z" fill="#CEB2C7"/>
<path d="M96.457 60.4023H80.7773V76.1291H96.457V60.4023Z" fill="white"/>
<path opacity="0.3" d="M93.9915 74.9405H83.2431C82.5372 74.9405 81.9648 74.3664 81.9648 73.6584V65.367C81.9648 64.659 82.5372 64.085 83.2431 64.085H93.9915C94.6974 64.085 95.2698 64.659 95.2698 65.367V73.6584C95.2698 74.3664 94.6974 74.9405 93.9915 74.9405Z" fill="#FF7F6A"/>
<path d="M84.4191 65.9421C85.4434 65.9421 86.2738 65.1093 86.2738 64.0819C86.2738 63.0545 85.4434 62.2217 84.4191 62.2217C83.3948 62.2217 82.5645 63.0545 82.5645 64.0819C82.5645 65.1093 83.3948 65.9421 84.4191 65.9421Z" fill="#CEB2C7"/>
<path d="M85.9746 68.4199H93.334" stroke="#5E334F" stroke-width="0.363282" stroke-miterlimit="10" stroke-linecap="round" stroke-linejoin="round"/>
<path d="M83.9023 68.4199H85.0489" stroke="#5E334F" stroke-width="0.363282" stroke-miterlimit="10" stroke-linecap="round" stroke-linejoin="round"/>
<path d="M112.137 60.4023H96.457V76.1291H112.137V60.4023Z" fill="white"/>
<path opacity="0.3" d="M109.671 74.9405H98.9228C98.2169 74.9405 97.6445 74.3664 97.6445 73.6584V65.367C97.6445 64.659 98.2169 64.085 98.9228 64.085H109.671C110.377 64.085 110.949 64.659 110.949 65.367V73.6584C110.949 74.3664 110.377 74.9405 109.671 74.9405Z" fill="#FF7F6A"/>
<path d="M100.099 65.9421C101.123 65.9421 101.953 65.1093 101.953 64.0819C101.953 63.0545 101.123 62.2217 100.099 62.2217C99.0745 62.2217 98.2441 63.0545 98.2441 64.0819C98.2441 65.1093 99.0745 65.9421 100.099 65.9421Z" fill="#CEB2C7"/>
<path d="M101.652 68.4199H109.012" stroke="#5E334F" stroke-width="0.363282" stroke-miterlimit="10" stroke-linecap="round" stroke-linejoin="round"/>
<path d="M99.582 68.4199H100.728" stroke="#5E334F" stroke-width="0.363282" stroke-miterlimit="10" stroke-linecap="round" stroke-linejoin="round"/>
<path d="M96.457 91.8574H80.7773V107.584H96.457V91.8574Z" fill="white"/>
<path opacity="0.7" d="M93.9915 106.393H83.2431C82.5372 106.393 81.9648 105.819 81.9648 105.111V96.8192C81.9648 96.1112 82.5372 95.5371 83.2431 95.5371H93.9915C94.6974 95.5371 95.2698 96.1112 95.2698 96.8192V105.111C95.2698 105.819 94.6974 106.393 93.9915 106.393Z" fill="#DEF9E5"/>
<path d="M84.4191 97.3982C85.4434 97.3982 86.2738 96.5653 86.2738 95.538C86.2738 94.5106 85.4434 93.6777 84.4191 93.6777C83.3948 93.6777 82.5645 94.5106 82.5645 95.538C82.5645 96.5653 83.3948 97.3982 84.4191 97.3982Z" fill="#CEB2C7"/>
<path d="M80.7773 60.4023H65.0977V76.1291H80.7773V60.4023Z" fill="white"/>
<path opacity="0.3" d="M78.3118 74.9405H67.5634C66.8575 74.9405 66.2852 74.3664 66.2852 73.6584V65.367C66.2852 64.659 66.8575 64.085 67.5634 64.085H78.3118C79.0177 64.085 79.5901 64.659 79.5901 65.367V73.6584C79.5901 74.3664 79.0177 74.9405 78.3118 74.9405Z" fill="#FF7F6A"/>
<path d="M68.7394 65.9421C69.7637 65.9421 70.5941 65.1093 70.5941 64.0819C70.5941 63.0545 69.7637 62.2217 68.7394 62.2217C67.7151 62.2217 66.8848 63.0545 66.8848 64.0819C66.8848 65.1093 67.7151 65.9421 68.7394 65.9421Z" fill="#CEB2C7"/>
<path d="M70.293 68.4199H77.6527" stroke="#5E334F" stroke-width="0.363282" stroke-miterlimit="10" stroke-linecap="round" stroke-linejoin="round"/>
<path d="M68.2227 68.4199H69.3692" stroke="#5E334F" stroke-width="0.363282" stroke-miterlimit="10" stroke-linecap="round" stroke-linejoin="round"/>
<path d="M70.293 68.4199H77.6527" stroke="#5E334F" stroke-width="0.363282" stroke-miterlimit="10" stroke-linecap="round" stroke-linejoin="round"/>
<path d="M68.2227 68.4199H69.3692" stroke="#5E334F" stroke-width="0.363282" stroke-miterlimit="10" stroke-linecap="round" stroke-linejoin="round"/>
<path d="M70.293 70.9414H77.6527" stroke="#5E334F" stroke-width="0.363282" stroke-miterlimit="10" stroke-linecap="round" stroke-linejoin="round"/>
<path d="M68.2227 70.9414H69.3692" stroke="#5E334F" stroke-width="0.363282" stroke-miterlimit="10" stroke-linecap="round" stroke-linejoin="round"/>
<path d="M70.293 73.4648H77.6527" stroke="#5E334F" stroke-width="0.363282" stroke-miterlimit="10" stroke-linecap="round" stroke-linejoin="round"/>
<path d="M68.2227 73.4648H69.3692" stroke="#5E334F" stroke-width="0.363282" stroke-miterlimit="10" stroke-linecap="round" stroke-linejoin="round"/>
<path d="M33.7383 60.3984H143.496" stroke="#FF7F6A" stroke-width="0.363282" stroke-miterlimit="10"/>
<path d="M33.7383 76.126H143.496" stroke="#FF7F6A" stroke-width="0.363282" stroke-miterlimit="10"/>
<path d="M49.418 44.6719V123.323" stroke="#FF7F6A" stroke-width="0.363282" stroke-miterlimit="10"/>
<path d="M65.0977 44.6719V123.323" stroke="#FF7F6A" stroke-width="0.363282" stroke-miterlimit="10"/>
<path d="M80.7773 44.6719V123.323" stroke="#FF7F6A" stroke-width="0.363282" stroke-miterlimit="10"/>
<path d="M96.457 44.6719V123.323" stroke="#FF7F6A" stroke-width="0.363282" stroke-miterlimit="10"/>
<path d="M112.137 44.6719V123.323" stroke="#FF7F6A" stroke-width="0.363282" stroke-miterlimit="10"/>
<path d="M127.816 44.6719V123.323" stroke="#FF7F6A" stroke-width="0.363282" stroke-miterlimit="10"/>
<path d="M33.7383 91.8525H143.496" stroke="#FF7F6A" stroke-width="0.363282" stroke-miterlimit="10"/>
<path d="M33.7383 107.577H143.496" stroke="#FF7F6A" stroke-width="0.363282" stroke-miterlimit="10"/>
<path opacity="0.6" d="M53.5977 30.4434V37.2127C53.5977 38.6224 54.7368 39.765 56.1422 39.765H56.2049C57.6104 39.765 58.7495 38.6224 58.7495 37.2127V30.4434H53.5977Z" fill="#B2B2B2"/>
<path d="M56.1957 38.2108H56.1527C55.1894 38.2108 54.4082 37.4277 54.4082 36.4611V28.3933C54.4082 27.4271 55.189 26.6436 56.1527 26.6436H56.1957C57.159 26.6436 57.9402 27.4267 57.9402 28.3933V36.4611C57.9402 37.4273 57.159 38.2108 56.1957 38.2108Z" fill="#F1BA68"/>
<path opacity="0.5" d="M56.1957 36.7653H56.1527C55.1894 36.7653 54.4082 35.9822 54.4082 35.0156V36.4618C54.4082 37.428 55.189 38.2115 56.1527 38.2115H56.1957C57.159 38.2115 57.9402 37.4283 57.9402 36.4618V35.0156C57.9402 35.9818 57.159 36.7653 56.1957 36.7653Z" fill="#F1BA68"/>
<path opacity="0.6" d="M118.564 30.4434V37.2127C118.564 38.6224 119.704 39.765 121.109 39.765H121.172C122.577 39.765 123.716 38.6224 123.716 37.2127V30.4434H118.564Z" fill="#B2B2B2"/>
<path d="M121.163 38.2108H121.119C120.156 38.2108 119.375 37.4277 119.375 36.4611V28.3933C119.375 27.4271 120.156 26.6436 121.119 26.6436H121.163C122.126 26.6436 122.907 27.4267 122.907 28.3933V36.4611C122.907 37.4273 122.126 38.2108 121.163 38.2108Z" fill="#F1BA68"/>
<path opacity="0.5" d="M121.163 36.7653H121.119C120.156 36.7653 119.375 35.9822 119.375 35.0156V36.4618C119.375 37.428 120.156 38.2115 121.119 38.2115H121.163C122.126 38.2115 122.907 37.4283 122.907 36.4618V35.0156C122.907 35.9818 122.126 36.7653 121.163 36.7653Z" fill="#F1BA68"/>
<g opacity="0.3">
<path opacity="0.7" d="M92.2773 109.761C92.2787 109.746 92.2821 109.732 92.2836 109.718C92.2839 109.714 92.2821 109.709 92.278 109.706C92.2721 109.702 92.2643 109.704 92.2606 109.71L92.2572 109.715C92.2468 109.731 92.2394 109.747 92.2294 109.763C92.2242 109.764 92.2175 109.764 92.2175 109.764C92.2917 107.893 90.5543 107.99 90.5543 107.99C90.5513 107.98 90.548 107.974 90.545 107.965C90.5435 107.947 90.5435 107.929 90.542 107.911C90.5417 107.907 90.5383 107.902 90.5335 107.901C90.5291 107.899 90.5261 107.903 90.5231 107.906C90.0817 106.62 89.2037 106.842 88.9055 106.856C89.0038 106.567 89.085 106.271 89.1325 105.969C89.1332 105.964 89.131 105.958 89.1258 105.956C89.1236 105.955 89.1217 105.957 89.1195 105.957C89.331 105.386 89.6114 104.616 89.8306 103.967C90.3584 102.406 88.746 101.174 87.6666 103.826C87.4396 104.383 84.1735 111.116 83.9243 111.233C83.675 111.35 83.1093 110.683 82.3979 108.601C81.7413 106.68 80.439 108.016 80.6656 109.227C80.8756 110.349 81.5481 113.908 81.646 114.426C81.6438 114.426 81.6415 114.425 81.6393 114.424C81.6475 114.467 81.6523 114.492 81.6523 114.492C81.5603 114.702 81.4654 114.907 81.3697 115.111C81.3407 115.173 81.3125 115.236 81.2832 115.297C81.2332 115.402 81.1808 115.504 81.1297 115.607C80.2149 115.25 79.6489 115.076 79.6489 115.076C77.4578 117.63 77.7405 119.433 77.7405 119.433C77.9055 119.646 78.0943 119.858 78.2987 120.07C78.2327 120.153 78.167 120.24 78.1006 120.321C78.094 120.33 78.0869 120.338 78.0802 120.346C77.9037 120.561 77.7264 120.769 77.5483 120.97C76.7367 121.89 75.917 122.67 75.1328 123.312H89.3658C90.0602 122.048 90.1207 120.866 90.1207 120.866C89.7419 120.536 89.3536 120.223 88.96 119.922C90.9107 116.889 92.4649 114.142 92.962 112.514C93.7669 109.876 92.5614 109.754 92.2773 109.761Z" fill="#B2B2B2"/>
<path opacity="0.7" d="M66.0909 121.882C65.993 121.798 65.8935 121.71 65.7949 121.624C64.6969 120.665 63.534 119.586 62.3604 118.458C62.0054 118.117 61.6494 117.772 61.2944 117.425C61.2806 117.411 61.2673 117.398 61.2536 117.385C59.4201 115.592 57.6095 113.75 56.0338 112.149C55.9085 112.021 55.786 111.897 55.6636 111.773C53.7786 108.458 52.4098 105.975 51.5849 103.706C51.5092 103.498 51.4384 103.292 51.372 103.087C51.3386 102.984 51.3096 102.881 51.2781 102.779C62.429 104.197 59.9724 92.9457 59.9724 92.9457C59.9724 92.9457 61.7425 92.2246 60.8096 90.8142C59.8589 89.3766 59.1548 88.6422 58.7917 87.0257C58.7175 86.696 58.6678 86.3084 58.6341 85.9021C58.5654 85.0799 58.5662 84.1784 58.5825 83.4983C58.7368 83.3863 58.8915 83.2702 59.0454 83.1456C59.344 82.9042 59.6389 82.6393 59.9201 82.3494C60.482 81.7698 60.988 81.0919 61.353 80.308C61.7183 79.5245 61.9428 78.6353 61.9428 77.6338C61.9428 77.5594 61.9353 77.4805 61.9238 77.3998C61.9201 77.3752 61.9149 77.3495 61.9101 77.3242C61.8994 77.2651 61.8864 77.2048 61.8701 77.1427C61.8626 77.114 61.8548 77.0854 61.8459 77.0564C61.8259 76.989 61.8022 76.9198 61.7758 76.8495C61.7673 76.8268 61.7599 76.8045 61.751 76.7814C61.7128 76.6858 61.6701 76.5879 61.6212 76.4871C61.6167 76.4775 61.6108 76.4674 61.606 76.4581C61.5607 76.367 61.511 76.2736 61.4572 76.1783C61.4424 76.1519 61.4261 76.1251 61.4105 76.0983C61.3619 76.0154 61.3103 75.9309 61.2554 75.8453C61.2387 75.8197 61.2228 75.794 61.2053 75.768C61.1356 75.6616 61.0618 75.554 60.9828 75.4447C60.9809 75.442 60.9791 75.4394 60.9772 75.4368C60.8893 75.3156 60.7958 75.1924 60.6972 75.0674C60.6949 75.0644 60.6923 75.0614 60.6898 75.0585C60.5974 74.942 60.4995 74.8241 60.3978 74.705C60.3837 74.6887 60.3693 74.6719 60.3552 74.6555C60.2569 74.5417 60.1549 74.4271 60.0484 74.3114C60.0399 74.3021 60.0317 74.2928 60.0232 74.2835C59.6656 73.8966 59.2632 73.5015 58.8217 73.1052C58.8143 73.0985 58.8069 73.0922 58.7995 73.0855C58.3529 72.6859 57.867 72.2864 57.3451 71.8935L57.3447 71.8931C51.5337 67.5179 41.3706 64.0482 33.7383 72.3619V119.779C33.7383 121.729 35.3147 123.31 37.2592 123.31H67.8272C67.2771 122.883 66.6951 122.403 66.0909 121.882Z" fill="#B2B2B2"/>
</g>
<path opacity="0.2" d="M139.975 30.4434H137.957V114.418C137.957 116.368 136.38 117.949 134.436 117.949H33.7383V119.775C33.7383 121.725 35.3147 123.307 37.2592 123.307H139.975C141.92 123.307 143.496 121.725 143.496 119.775V33.9748C143.496 32.0246 141.92 30.4434 139.975 30.4434Z" fill="#B2B2B2"/>
<path d="M150.222 128.305C157.053 121.453 157.053 110.345 150.222 103.493C143.391 96.6413 132.315 96.6413 125.484 103.493C118.653 110.345 118.653 121.453 125.484 128.305C132.315 135.157 143.391 135.157 150.222 128.305Z" fill="#F1BA68"/>
<path opacity="0.7" d="M151.483 129.992C158.315 123.141 158.315 112.032 151.483 105.18C144.652 98.3288 133.577 98.3288 126.746 105.18C119.915 112.032 119.915 123.141 126.746 129.992C133.577 136.844 144.652 136.844 151.483 129.992Z" fill="#D7F6F9"/>
<path d="M150.222 128.305C157.053 121.453 157.053 110.345 150.222 103.493C143.391 96.6413 132.315 96.6413 125.484 103.493C118.653 110.345 118.653 121.453 125.484 128.305C132.315 135.157 143.391 135.157 150.222 128.305Z" fill="#495659"/>
<path opacity="0.5" d="M137.856 99.0348C147.402 99.0348 155.157 106.707 155.339 116.238C155.342 116.124 155.348 116.011 155.348 115.897C155.348 106.207 147.517 98.3521 137.856 98.3521C128.195 98.3521 120.363 106.207 120.363 115.897C120.363 116.012 120.37 116.124 120.372 116.238C120.554 106.707 128.309 99.0348 137.856 99.0348Z" fill="white"/>
<path opacity="0.5" d="M137.855 131.931C146.682 131.931 153.838 124.754 153.838 115.901C153.838 107.048 146.682 99.8706 137.855 99.8706C129.029 99.8706 121.873 107.048 121.873 115.901C121.873 124.754 129.029 131.931 137.855 131.931Z" fill="#F1BA68"/>
<path d="M137.856 131.197C146.277 131.197 153.104 124.35 153.104 115.903C153.104 107.456 146.277 100.609 137.856 100.609C129.434 100.609 122.607 107.456 122.607 115.903C122.607 124.35 129.434 131.197 137.856 131.197Z" fill="white"/>
<path opacity="0.2" d="M137.856 129.408C129.733 129.408 123.096 123.037 122.635 115.005C122.618 115.3 122.607 115.597 122.607 115.897C122.607 124.343 129.434 131.191 137.856 131.191C146.277 131.191 153.104 124.343 153.104 115.897C153.104 115.597 153.093 115.301 153.076 115.005C152.615 123.037 145.978 129.408 137.856 129.408Z" fill="#B2B2B2"/>
<path d="M137.855 101.537V102.39" stroke="#5E334F" stroke-width="0.363282" stroke-miterlimit="10" stroke-linecap="round" stroke-linejoin="round"/>
<path d="M137.855 129.414V130.267" stroke="#5E334F" stroke-width="0.363282" stroke-miterlimit="10" stroke-linecap="round" stroke-linejoin="round"/>
<path d="M152.177 115.904H151.326" stroke="#5E334F" stroke-width="0.363282" stroke-miterlimit="10" stroke-linecap="round" stroke-linejoin="round"/>
<path d="M124.384 115.904H123.533" stroke="#5E334F" stroke-width="0.363282" stroke-miterlimit="10" stroke-linecap="round" stroke-linejoin="round"/>
<path d="M143.298 113.14L137.866 115.506L132.758 106.797L137.724 116.421L143.298 113.14Z" fill="#FF7F6A"/>
<path d="M138.535 115.904C138.535 116.281 138.23 116.587 137.854 116.587C137.479 116.587 137.174 116.281 137.174 115.904C137.174 115.527 137.479 115.221 137.854 115.221C138.23 115.221 138.535 115.527 138.535 115.904Z" fill="#5E334F"/>
<path d="M59.6095 172.999C60.2311 164.127 59.3647 157.174 54.2803 152.354L19.9851 151.138C19.9851 151.138 12.2468 158.335 14.7049 172.999H59.6095Z" fill="#62735C" fill-opacity="0.8"/>
<path d="M58.9952 156.598C58.9952 156.598 52.0247 149.88 55.4061 135.113C55.8772 133.055 59.6292 128.841 60.0676 124.432C60.506 120.023 50.0484 105.888 48.0839 103.091C44.628 98.1691 28.7729 101.093 28.7729 101.093C28.7729 101.093 22.802 105.954 24.552 123.313C25.236 130.1 25.2572 137.085 24.834 140.059C24.4103 143.032 18.918 152.018 18.918 152.018C18.918 152.018 32.7871 168.333 58.9952 156.598Z" fill="#9CB294" fill-opacity="0.9"/>
<g opacity="0.5">
<path d="M25.0009 138.352C24.9924 138.478 24.9839 138.6 24.9746 138.72H54.7607C54.7763 138.598 54.7945 138.475 54.8116 138.352H25.0009Z" fill="white"/>
<path d="M23.2806 144.136C23.2213 144.257 23.1604 144.381 23.0996 144.504H54.5305C54.5234 144.383 54.519 144.259 54.5134 144.136H23.2806Z" fill="white"/>
<path d="M23.3223 155.707C23.5059 155.829 23.6962 155.952 23.8909 156.075H58.5292C58.4427 155.969 58.3456 155.845 58.2417 155.707H23.3223Z" fill="white"/>
<path d="M25.0996 132.565C25.1018 132.689 25.1037 132.81 25.1052 132.933H56.4236C56.4933 132.812 56.562 132.691 56.6358 132.565H25.0996Z" fill="white"/>
<path d="M20.159 149.923C20.0855 150.05 20.0139 150.172 19.9453 150.291H55.5573C55.5191 150.169 55.4805 150.049 55.4438 149.923H20.159Z" fill="white"/>
<path d="M24.3613 120.994C24.3695 121.116 24.3765 121.237 24.3854 121.362H59.4051C59.358 121.24 59.3123 121.119 59.2611 120.994H24.3613Z" fill="white"/>
<path d="M24.8438 126.781C24.8523 126.904 24.8608 127.026 24.869 127.149H59.4149C59.459 127.026 59.5039 126.904 59.5447 126.781H24.8438Z" fill="white"/>
<path d="M26.9289 103.639C26.8655 103.757 26.8021 103.878 26.7383 104.007H48.7323C48.6388 103.876 48.5509 103.753 48.4697 103.639H26.9289Z" fill="white"/>
<path d="M24.9505 109.422C24.926 109.543 24.9026 109.667 24.8789 109.79H52.7707C52.6872 109.666 52.6045 109.545 52.5218 109.422H24.9505Z" fill="white"/>
<path d="M24.2754 115.21C24.2702 115.331 24.2658 115.454 24.2617 115.578H56.457C56.3847 115.456 56.3105 115.333 56.2371 115.21H24.2754Z" fill="white"/>
</g>
<path opacity="0.4" d="M58.9956 156.601C58.9956 156.601 52.025 149.883 55.4064 135.116C55.8775 133.058 59.6295 128.844 60.0679 124.435C60.2148 122.956 59.1332 120.381 57.5593 117.507C51.1248 117.783 45.0356 118.822 49.7479 122.08C58.3153 128.005 55.9836 132.112 54.5314 132.567C53.0796 133.021 49.8581 132.567 51.5706 133.941C53.2832 135.315 53.9416 139.536 51.4842 138.72C49.0268 137.904 46.1996 138.72 49.9894 142.608C53.7792 146.496 53.3459 152.336 40.4368 152.867C30.3241 153.282 23.5056 149.894 21.0252 148.406C19.8776 150.45 18.918 152.021 18.918 152.021C18.918 152.021 32.7874 168.336 58.9956 156.601Z" fill="#9CB294" fill-opacity="0.9"/>
<path d="M90.7332 107.525C90.8074 105.654 89.0703 105.75 89.0703 105.75C88.5235 103.988 87.1915 104.853 87.3273 104.543C87.3273 104.543 87.9423 102.924 88.3466 101.728C88.8744 100.167 87.2624 98.9345 86.1826 101.586C85.9556 102.144 82.6895 108.877 82.4403 108.994C82.191 109.111 81.6253 108.444 80.9139 106.362C80.2573 104.441 78.955 105.777 79.1816 106.988C79.4083 108.198 80.1746 112.253 80.1746 112.253C77.4323 118.527 72.8673 122.195 70.4158 123.052C67.9643 123.908 58.1068 113.48 52.8863 108.227C47.6658 102.974 40.1927 112.102 44.9339 117.152C49.6752 122.202 57.7273 130.17 64.8088 134.409C71.3108 138.301 77.6293 131.426 81.0789 126.832C85.2493 121.278 90.4828 113.534 91.4776 110.274C92.3853 107.3 90.7332 107.525 90.7332 107.525Z" fill="#DDE5DA"/>
<path opacity="0.4" d="M80.1679 112.256C78.3726 116.364 75.7983 119.346 73.5449 121.162C75.5876 122.566 78.4438 124.34 81.7777 125.888C83.9692 122.925 86.3617 119.484 88.2416 116.465C85.0757 114.088 82.0559 112.82 80.1545 112.188C80.1631 112.23 80.1679 112.256 80.1679 112.256Z" fill="#DDE5DA"/>
<path d="M86.3975 106.637C86.5244 106.095 86.7288 105.619 86.9354 105.144C87.1505 104.669 87.3605 104.216 87.6216 103.728L87.6238 103.724C87.6272 103.717 87.635 103.715 87.6413 103.718C87.6461 103.721 87.6487 103.727 87.6479 103.732C87.5652 104.259 87.3872 104.764 87.178 105.252C86.9565 105.734 86.7043 106.202 86.4202 106.651C86.4165 106.657 86.4083 106.659 86.4024 106.655C86.3975 106.652 86.3957 106.646 86.3968 106.641L86.3975 106.637Z" fill="#9B717B"/>
<path d="M88.2061 107.802C88.3315 107.628 88.4154 107.454 88.4988 107.293C88.576 107.127 88.6446 106.964 88.7002 106.793C88.7629 106.624 88.8041 106.445 88.8586 106.261C88.905 106.075 88.9588 105.883 89.0311 105.674L89.033 105.669C89.0352 105.662 89.0426 105.659 89.0489 105.661C89.0537 105.663 89.0571 105.667 89.0574 105.672C89.0741 105.874 89.0819 106.076 89.066 106.279C89.0482 106.481 89.0151 106.684 88.951 106.878C88.8152 107.26 88.5741 107.619 88.2176 107.826C88.2117 107.829 88.2043 107.828 88.201 107.822C88.1984 107.817 88.1987 107.812 88.2017 107.808L88.2061 107.802Z" fill="#9B717B"/>
<path d="M90.0013 109.402C90.0833 109.23 90.1234 109.065 90.1809 108.91L90.3352 108.442C90.4509 108.13 90.554 107.81 90.771 107.479L90.7744 107.474C90.7781 107.468 90.7859 107.466 90.7918 107.47C90.7959 107.472 90.7977 107.477 90.7974 107.482C90.7606 107.836 90.6987 108.189 90.5852 108.529C90.5262 108.698 90.4524 108.862 90.3611 109.016C90.2688 109.169 90.1634 109.317 90.0151 109.425C90.0099 109.429 90.0024 109.428 89.9984 109.422C89.9958 109.419 89.9954 109.414 89.9973 109.41L90.0013 109.402Z" fill="#9B717B"/>
<path d="M78.2925 115.774C75.6493 119.908 72.365 122.374 70.4158 123.055C67.9643 123.911 58.1068 113.484 52.8863 108.23C47.6658 102.977 40.1927 112.105 44.9339 117.155C49.6752 122.205 57.7274 130.173 64.8088 134.412C71.3109 138.304 77.6293 131.429 81.079 126.835C82.5133 124.925 84.0735 122.756 85.5435 120.599L78.2925 115.774Z" fill="#9CB294" fill-opacity="0.9"/>
<g opacity="0.5">
<path d="M60.0061 115.383C59.9096 115.289 59.8136 115.195 59.7175 115.101L55.3457 127.29C55.4444 127.377 55.5438 127.463 55.6428 127.548L60.0061 115.383Z" fill="white"/>
<path d="M55.4932 110.874C55.3972 110.777 55.3022 110.68 55.2076 110.584L50.7383 123.046C50.8344 123.139 50.9312 123.232 51.0283 123.325L55.4932 110.874Z" fill="white"/>
<path d="M50.7948 106.881C50.6772 106.841 50.5592 106.808 50.4417 106.779L46.2305 118.521C46.3243 118.618 46.4189 118.717 46.5146 118.816L50.7948 106.881Z" fill="white"/>
<path d="M64.6066 119.648C64.5087 119.563 64.4089 119.475 64.3095 119.389L60.082 131.176C60.1844 131.254 60.2868 131.33 60.3892 131.407L64.6066 119.648Z" fill="white"/>
<path d="M83.2122 119.049L82.8976 118.839L79.1816 129.2C79.4161 128.928 79.6423 128.658 79.8619 128.39L83.2122 119.049Z" fill="white"/>
<path d="M78.2122 115.892C77.947 116.301 77.6755 116.693 77.4002 117.069L70.8711 135.274C71.0169 135.235 71.1619 135.194 71.3062 135.148L78.2122 115.892Z" fill="white"/>
<path d="M69.5315 123.007C69.4217 122.974 69.3064 122.932 69.1862 122.883L65.0117 134.522C65.1204 134.584 65.2291 134.645 65.3374 134.701L69.5315 123.007Z" fill="white"/>
</g>
<path opacity="0.4" d="M76.0316 118.774C78.4523 121.641 81.8363 122.885 81.8363 122.885C81.8363 122.885 75.7215 131.091 70.1916 132.569C65.4385 133.84 58.3066 129.785 58.3066 129.785C60.4847 131.543 62.6903 133.145 64.8091 134.414C71.3111 138.306 77.6296 131.43 81.0792 126.837C82.5136 124.926 84.0737 122.757 85.5437 120.6L78.2928 115.775C77.5735 116.9 76.8061 117.898 76.0316 118.774Z" fill="#9CB294" fill-opacity="0.9"/>
<path d="M78.1645 112.84C78.1645 112.84 84.0775 114.658 88.6362 118.631C88.6362 118.631 88.483 121.881 85.5126 123.369C85.5126 123.369 78.6419 120.263 76.256 117.198C76.256 117.198 75.9734 115.394 78.1645 112.84Z" fill="#62735C"/>
<path d="M77.2969 117.362C77.6248 115.019 78.9839 114.051 78.9839 114.051" stroke="#9CB294" stroke-opacity="0.9" stroke-width="0.346232" stroke-miterlimit="10" stroke-linecap="round" stroke-linejoin="round"/>
<path d="M78.5234 118.48C78.5234 118.48 78.8769 115.825 80.6789 114.438" stroke="#9CB294" stroke-opacity="0.9" stroke-width="0.346232" stroke-miterlimit="10" stroke-linecap="round" stroke-linejoin="round"/>
<path d="M80.0527 119.587C80.0527 119.587 80.5535 116.65 82.4456 115.269" stroke="#9CB294" stroke-opacity="0.9" stroke-width="0.346232" stroke-miterlimit="10" stroke-linecap="round" stroke-linejoin="round"/>
<path d="M81.4551 120.64C81.4551 120.64 83.2074 118.331 83.8832 116.096" stroke="#9CB294" stroke-opacity="0.9" stroke-width="0.346232" stroke-miterlimit="10" stroke-linecap="round" stroke-linejoin="round"/>
<path d="M83.0312 121.745C83.0312 121.745 85.1007 120.129 85.5428 117.36" stroke="#9CB294" stroke-opacity="0.9" stroke-width="0.346232" stroke-miterlimit="10" stroke-linecap="round" stroke-linejoin="round"/>
<path d="M84.9102 122.477C84.9102 122.477 86.8876 121.272 87.263 118.661" stroke="#9CB294" stroke-opacity="0.9" stroke-width="0.346232" stroke-miterlimit="10" stroke-linecap="round" stroke-linejoin="round"/>
<path d="M87.5449 98.0033L89.9319 93.4346" stroke="#5E334F" stroke-width="0.346232" stroke-miterlimit="10" stroke-linecap="round" stroke-linejoin="round"/>
<path d="M88.918 99.1753L92.0453 96.3198" stroke="#5E334F" stroke-width="0.346232" stroke-miterlimit="10" stroke-linecap="round" stroke-linejoin="round"/>
<path d="M89.6836 100.687L92.6058 99.7778" stroke="#5E334F" stroke-width="0.346232" stroke-miterlimit="10" stroke-linecap="round" stroke-linejoin="round"/>
<path opacity="0.5" d="M52.8876 108.231C52.2077 107.547 51.4892 107.108 50.7648 106.871C49.554 105.142 48.5655 103.779 48.0855 103.096C44.6296 98.174 28.7745 101.098 28.7745 101.098C28.7745 101.098 22.8036 105.959 24.5537 123.318C24.8823 126.578 25.0574 129.882 25.1045 132.767C28.7303 133.695 37.0169 134.579 45.0587 132.936C55.2905 130.846 63.5671 126.014 60.8782 116.225C57.989 113.45 55.0431 110.4 52.8876 108.231Z" fill="#9CB294" fill-opacity="0.9"/>
<path d="M59.3263 88.5801C58.3756 87.1425 57.6716 86.4081 57.3085 84.7915C56.9453 83.175 57.143 80.1908 57.143 80.1908C43.7799 79.5524 31.0937 95.2438 46.0025 99.7098C61.4662 104.342 58.4888 90.7119 58.4888 90.7119C58.4888 90.7119 60.2588 89.9905 59.3263 88.5801Z" fill="#DDE5DA"/>
<path opacity="0.7" d="M57.1421 80.1907C54.2581 80.0531 51.406 80.677 48.8555 81.7835C50.8351 83.3263 52.7732 84.3677 52.7732 84.3677C52.7732 84.3677 54.8156 84.4778 57.1499 83.6701C57.0174 82.0826 57.1421 80.1907 57.1421 80.1907Z" fill="#DDE5DA"/>
<path d="M50.4108 90.1024C50.4108 90.1024 54.3486 90.5835 54.1861 82.9275C54.1861 82.9275 60.5813 80.7849 60.5802 75.4431C60.5791 71.3253 42.7982 57.121 31.4996 71.1851C31.4996 71.1851 24.5432 71.9656 24.6889 82.5574C24.7553 87.3846 23.6381 97.1557 17.5626 108.081C12.0228 118.043 17.5626 128.547 26.1141 130.584C39.9505 133.878 65.0054 128.547 56.6305 113.683C49.9812 101.881 47.6952 99.2484 50.4108 90.1024Z" fill="#263238"/>
<g opacity="0.4">
<path d="M45.8905 94.626C45.8319 95.9951 45.8571 97.3657 45.918 98.7326C45.9721 100.1 46.0756 101.465 46.2258 102.825C46.5326 105.541 46.9992 108.244 47.7437 110.873C48.1128 112.187 48.5308 113.488 49.0419 114.754C49.5557 116.017 50.144 117.25 50.812 118.439C51.4945 119.62 52.2639 120.75 53.127 121.807C54.0028 122.854 54.9742 123.819 56.0336 124.687C54.9483 123.854 53.9427 122.917 53.0283 121.892C52.1392 120.845 51.3458 119.72 50.6362 118.543C49.2452 116.169 48.2337 113.588 47.4889 110.944C46.7611 108.293 46.2889 105.577 46.0244 102.846C45.77 100.113 45.6984 97.3609 45.8905 94.626Z" fill="white"/>
<path d="M42.0588 101.284C41.8819 102.498 41.7547 103.717 41.6697 104.939C41.6293 105.551 41.5918 106.162 41.5637 106.774C41.5496 107.386 41.521 107.998 41.5188 108.61C41.4895 111.058 41.6059 113.508 41.8975 115.938C42.0043 117.157 42.2287 118.362 42.409 119.572C42.6661 120.767 42.8704 121.976 43.1995 123.155C43.356 123.746 43.4903 124.345 43.6657 124.931L44.2225 126.68C44.3171 126.971 44.395 127.268 44.5037 127.555L44.8304 128.413L45.4844 130.132C44.5092 127.885 43.599 125.594 43.0025 123.206L42.7566 122.318C42.6727 122.022 42.6234 121.718 42.5552 121.419L42.172 119.615C41.9828 118.401 41.7487 117.192 41.6345 115.967C41.3637 113.524 41.2428 111.063 41.3159 108.606C41.33 107.991 41.3708 107.378 41.3971 106.765C41.4383 106.152 41.4858 105.54 41.5414 104.928C41.669 103.707 41.8396 102.49 42.0588 101.284Z" fill="white"/>
<path d="M32.3398 131.476C32.7586 130.537 33.1095 129.57 33.44 128.598C33.6032 128.111 33.7716 127.626 33.9182 127.133C34.0743 126.644 34.2197 126.152 34.354 125.656C34.9067 123.679 35.3833 121.68 35.7476 119.659C36.1096 117.639 36.4238 115.607 36.6052 113.561C36.8207 111.517 36.9164 109.463 36.9887 107.406C36.9846 108.435 37.0095 109.465 36.9813 110.494C36.9286 111.522 36.9105 112.554 36.8085 113.579L36.6749 115.119L36.4817 116.653C36.4234 117.165 36.3466 117.674 36.2606 118.183C36.1756 118.691 36.1037 119.202 36.0084 119.708C35.6207 121.733 35.1459 123.741 34.5491 125.713C33.9482 127.684 33.2486 129.63 32.3398 131.476Z" fill="white"/>
<path d="M22.4688 129.124C23.6528 128.168 24.6546 127.008 25.5605 125.792C26.0378 125.202 26.4347 124.552 26.8673 123.929C27.2749 123.288 27.6458 122.625 28.0364 121.975C29.5094 119.317 30.6378 116.479 31.5395 113.581C32.5006 110.694 33.077 107.7 33.6197 104.709C33.8474 103.205 34.0259 101.693 34.2262 100.184L34.6015 95.6304L34.3556 100.196C34.1816 101.711 34.0251 103.229 33.8215 104.74L33.4272 106.995L33.2265 108.122C33.1575 108.497 33.0548 108.865 32.9706 109.237L32.439 111.464C32.2506 112.204 32.0061 112.928 31.7917 113.661C30.8648 116.566 29.7331 119.423 28.213 122.075C27.8094 122.723 27.4262 123.384 27.0064 124.021C26.5609 124.64 26.154 125.288 25.6617 125.872C24.7184 127.066 23.6798 128.201 22.4688 129.124Z" fill="white"/>
<path d="M16.7305 122.914C17.6259 122.339 18.4227 121.626 19.1682 120.873C19.9275 120.132 20.6089 119.316 21.2625 118.482C22.5559 116.8 23.6517 114.973 24.5924 113.072L25.2838 111.639L25.8917 110.166C26.325 109.195 26.6102 108.168 26.9793 107.171C27.3135 106.163 27.5739 105.13 27.8766 104.11L28.6073 101L28.0027 104.141L27.5995 105.69C27.4552 106.203 27.3513 106.729 27.1737 107.233L26.6737 108.755C26.5865 109.007 26.5116 109.264 26.4136 109.512L26.1154 110.256L25.5149 111.742L24.829 113.191C23.8624 115.095 22.7603 116.94 21.4216 118.608C20.0774 120.26 18.5588 121.814 16.7305 122.914Z" fill="white"/>
<path d="M15.3672 115.683C16.1929 114.986 16.9277 114.191 17.6269 113.372C17.9715 112.958 18.3217 112.549 18.6384 112.112L19.1251 111.467L19.5795 110.799C20.7891 109.017 21.8288 107.122 22.7009 105.152L23.311 103.656C23.4086 103.405 23.5217 103.159 23.607 102.904L23.8641 102.137C24.031 101.625 24.2169 101.118 24.3686 100.601L24.7914 99.0396L25.0047 98.2587L25.1683 97.4662L25.4962 95.8802C25.6935 94.8188 25.8245 93.745 25.9925 92.6758C25.8679 93.7491 25.7796 94.8303 25.6242 95.9022L25.3322 97.5008L25.1857 98.3007L24.9895 99.0895L24.5889 100.666C24.4402 101.187 24.2573 101.699 24.093 102.215L23.84 102.989C23.7562 103.247 23.6441 103.494 23.5477 103.748L22.9438 105.259C22.0458 107.234 21.0005 109.146 19.7468 110.916C18.4908 112.678 17.0642 114.341 15.3672 115.683Z" fill="white"/>
</g>
<path opacity="0.2" d="M55.8612 69.6572C57.7085 72.109 58.74 74.8469 58.0935 76.623C56.7971 80.185 52.0262 82.5386 52.0262 82.5386C52.7465 88.0575 49.4445 90.0085 49.4445 90.0085C44.3872 93.1206 47.4188 103.271 50.0918 111.18C52.7647 119.089 48.8873 125.71 31.7841 124.237C20.7099 123.284 17.0948 116.368 15.922 111.61C13.2713 120.384 18.4621 128.745 25.9927 130.538C39.8292 133.833 64.8841 128.502 56.5092 113.637C49.8603 101.836 47.5746 99.2032 50.2898 90.0568C50.2898 90.0568 54.2276 90.5379 54.0652 82.882C54.0652 82.882 60.4604 80.739 60.4593 75.3975C60.4589 74.0913 58.6666 71.7693 55.8612 69.6572Z" fill="#5E334F"/>
<path d="M51.7307 92.7356C50.7173 93.1976 48.8441 93.4357 48.0514 91.952C46.6879 89.3991 48.725 86.746 50.816 87.111C51.6876 87.2631 52.5579 88.3797 52.773 89.3388" fill="#DDE5DA"/>
<path d="M48.903 88.3842C49.0762 88.1706 49.3236 88.0211 49.5903 87.9292C49.8611 87.8458 50.1556 87.8395 50.4357 87.8923C50.7135 87.9504 50.9891 88.0497 51.2235 88.2406C51.4532 88.4325 51.6345 88.7146 51.6141 89.0624C51.6101 89.1324 51.5503 89.1856 51.481 89.1815C51.4609 89.1804 51.4424 89.1744 51.4261 89.1651L51.4153 89.1588C51.1727 89.0189 50.8856 88.9177 50.6037 88.8634C50.3192 88.8091 50.0266 88.8143 49.7498 88.8898C49.4739 88.9683 49.2205 89.1298 49.0161 89.3444C48.804 89.5539 48.64 89.8136 48.4961 90.0844C48.587 89.7905 48.7301 89.5111 48.9219 89.2607C49.1163 89.0129 49.3837 88.8135 49.6879 88.7C49.9932 88.5851 50.3281 88.5713 50.6445 88.6189C50.9643 88.6684 51.2621 88.773 51.5518 88.9326L51.353 89.0289C51.3634 88.8265 51.2454 88.5851 51.06 88.4355C50.8801 88.2707 50.6323 88.1732 50.3882 88.0977C49.8975 87.9511 49.3329 88.046 48.903 88.3842Z" fill="#9B717B"/>
<path d="M51.1653 92.3649C51.1653 92.5461 51.0192 92.6927 50.8385 92.6927C50.6579 92.6927 50.5117 92.5457 50.5117 92.3649C50.5117 92.1841 50.6582 92.0371 50.8385 92.0371C51.0188 92.0371 51.1653 92.1841 51.1653 92.3649Z" fill="white"/>
<path d="M50.0999 92.1716C50.0999 92.4596 49.8673 92.6929 49.5802 92.6929C49.2931 92.6929 49.0605 92.4596 49.0605 92.1716C49.0605 91.8837 49.2931 91.6504 49.5802 91.6504C49.867 91.6504 50.0999 91.8837 50.0999 92.1716Z" fill="white"/>
<path opacity="0.4" d="M57.918 157.546C55.5118 158.539 46.316 161.976 36.6848 160.859C25.4704 159.559 18.5889 153.001 18.5889 153.001C18.5181 153.026 18.4554 153.056 18.389 153.083C17.8437 153.863 17.2235 154.879 16.6289 156.135C17.2465 157.859 20.6335 164.55 36.3606 166.255C49.9608 167.73 57.0927 163.835 59.312 162.302C59.0141 160.601 58.5623 159.014 57.918 157.546Z" fill="#62735C" fill-opacity="0.8"/>
<path d="M18.5879 151.138C18.5879 151.138 25.4694 157.696 36.6838 158.996C47.8981 160.296 58.5309 155.42 58.5309 155.42C58.5309 155.42 60.6103 156.604 60.0828 159.849C60.0828 159.849 53.1487 166.213 36.3596 164.392C18.2611 162.43 16.504 153.864 16.504 153.864C16.504 153.864 16.4517 151.887 18.5879 151.138Z" fill="#62735C"/>
<path d="M17.1582 154.234C17.1582 154.234 17.3678 153.131 18.5726 152.395" stroke="#9CB294" stroke-opacity="0.9" stroke-width="0.346232" stroke-miterlimit="10" stroke-linecap="round" stroke-linejoin="round"/>
<path d="M18.5723 156.282C18.5723 156.282 18.9421 154.354 20.8123 153.573" stroke="#9CB294" stroke-opacity="0.9" stroke-width="0.346232" stroke-miterlimit="10" stroke-linecap="round" stroke-linejoin="round"/>
<path d="M21.3574 158.862C21.3574 158.862 21.6171 156.83 23.5912 155.293" stroke="#9CB294" stroke-opacity="0.9" stroke-width="0.346232" stroke-miterlimit="10" stroke-linecap="round" stroke-linejoin="round"/>
<path d="M25.4874 161.313C25.4874 161.313 25.1235 158.864 26.9158 157.249" stroke="#9CB294" stroke-opacity="0.9" stroke-width="0.346232" stroke-miterlimit="10" stroke-linecap="round" stroke-linejoin="round"/>
<path d="M31.67 159.042C31.67 159.042 29.898 160.3 30.8487 163.006" stroke="#9CB294" stroke-opacity="0.9" stroke-width="0.346232" stroke-miterlimit="10" stroke-linecap="round" stroke-linejoin="round"/>
<path d="M36.2081 159.691C36.2081 159.691 35.2719 161.706 35.9199 163.722" stroke="#9CB294" stroke-opacity="0.9" stroke-width="0.346232" stroke-miterlimit="10" stroke-linecap="round" stroke-linejoin="round"/>
<path d="M40.9277 160.082C40.9277 160.082 41.7401 162.071 40.9277 164.243" stroke="#9CB294" stroke-opacity="0.9" stroke-width="0.346232" stroke-miterlimit="10" stroke-linecap="round" stroke-linejoin="round"/>
<path d="M45.0664 159.691C45.0664 159.691 46.6221 162.07 45.628 164.242" stroke="#9CB294" stroke-opacity="0.9" stroke-width="0.346232" stroke-miterlimit="10" stroke-linecap="round" stroke-linejoin="round"/>
<path d="M49.4316 159.042C49.4316 159.042 50.685 161.708 49.6045 163.724" stroke="#9CB294" stroke-opacity="0.9" stroke-width="0.346232" stroke-miterlimit="10" stroke-linecap="round" stroke-linejoin="round"/>
<path d="M53.1055 158.129C53.1055 158.129 54.5328 159.82 53.9697 162.464" stroke="#9CB294" stroke-opacity="0.9" stroke-width="0.346232" stroke-miterlimit="10" stroke-linecap="round" stroke-linejoin="round"/>
<path d="M56.4766 156.875C56.4766 156.875 58.2915 158.132 58.2915 160.559" stroke="#9CB294" stroke-opacity="0.9" stroke-width="0.346232" stroke-miterlimit="10" stroke-linecap="round" stroke-linejoin="round"/>
</svg>
