<svg width="180" height="180" viewBox="0 0 180 180" fill="none" xmlns="http://www.w3.org/2000/svg">
<path d="M31.1043 125.975C31.1018 125.973 31.0993 125.933 31.0968 125.858C31.0946 125.771 31.0921 125.662 31.0889 125.526C31.0846 125.222 31.0785 124.799 31.0706 124.255C31.0606 123.14 31.0466 121.537 31.0287 119.516L31.1043 119.591C25.5295 119.603 16.6636 119.62 6.69011 119.64C6.74524 119.585 6.56445 119.764 6.81291 119.516V119.517V119.521V119.527V119.54V119.566V119.618V119.722V119.929V120.344C6.81291 120.619 6.81291 120.894 6.81291 121.168C6.81291 121.715 6.81255 122.259 6.81255 122.798C6.81183 123.876 6.81112 124.936 6.8104 125.975L6.68868 125.853C13.641 125.875 19.7245 125.894 24.0878 125.908C26.2613 125.923 28.0054 125.934 29.2234 125.943C29.8158 125.949 30.2798 125.955 30.612 125.959C30.7617 125.962 30.8812 125.965 30.9754 125.967C31.0585 125.97 31.1018 125.973 31.1043 125.975C31.1068 125.978 31.0688 125.981 30.9912 125.983C30.9009 125.985 30.786 125.988 30.6428 125.991C30.317 125.995 29.8617 126 29.2803 126.007C28.0688 126.015 26.3343 126.027 24.1727 126.042C19.7879 126.056 13.6751 126.075 6.68868 126.097L6.56696 126.098V125.976C6.56624 124.937 6.56553 123.877 6.56481 122.799C6.56481 122.26 6.56445 121.716 6.56445 121.169C6.56445 120.895 6.56445 120.62 6.56445 120.345V119.93V119.723V119.619V119.567V119.541V119.528V119.522V119.518V119.517C6.81326 119.268 6.63426 119.448 6.69047 119.392C16.664 119.412 25.5299 119.43 31.1046 119.441H31.1809L31.1802 119.517C31.1623 121.557 31.1483 123.175 31.1383 124.301C31.1304 124.837 31.1243 125.255 31.12 125.555C31.1168 125.686 31.1143 125.79 31.1122 125.873C31.1093 125.943 31.1071 125.978 31.1043 125.975Z" fill="#E0E0E0"/>
<path d="M34.4155 119.516C34.4123 119.513 34.4094 119.471 34.4062 119.393C34.4037 119.301 34.4005 119.188 34.3965 119.051C34.3911 118.733 34.3836 118.301 34.3743 117.756C34.3629 116.624 34.3464 115.024 34.326 113.058L34.4155 113.147C30.615 113.156 25.4451 113.168 19.7468 113.182C19.6351 113.293 19.8968 113.031 19.8703 113.058V113.06V113.063V113.07V113.083V113.109V113.162V113.269V113.481V113.903C19.8703 114.184 19.8703 114.463 19.8699 114.741C19.8696 115.296 19.8692 115.845 19.8689 116.385C19.8674 117.465 19.866 118.513 19.8642 119.517L19.7461 119.398C23.9809 119.421 27.6271 119.44 30.2401 119.454C31.5289 119.468 32.5618 119.479 33.2971 119.487C33.6404 119.493 33.9139 119.498 34.1216 119.502C34.3099 119.507 34.4108 119.512 34.4155 119.516C34.4205 119.521 34.3292 119.526 34.1491 119.531C33.9476 119.534 33.6827 119.539 33.3494 119.546C32.6208 119.554 31.597 119.565 30.3196 119.578C27.6865 119.592 24.0131 119.612 19.7457 119.635L19.6272 119.635L19.6269 119.516C19.6254 118.512 19.624 117.465 19.6226 116.384C19.6222 115.844 19.6218 115.295 19.6215 114.74C19.6215 114.463 19.6211 114.183 19.6211 113.903V113.48V113.268V113.162V113.109V113.083V113.069V113.063V113.06V113.058C19.5939 113.084 19.857 112.822 19.7468 112.933C25.4451 112.947 30.615 112.959 34.4155 112.968L34.5057 112.968L34.505 113.058C34.4849 115.047 34.4685 116.665 34.457 117.811C34.4477 118.347 34.4402 118.773 34.4348 119.086C34.428 119.374 34.4219 119.523 34.4155 119.516Z" fill="#E0E0E0"/>
<path d="M66.784 28.5814C66.7815 28.5789 66.779 28.5392 66.7765 28.464C66.7743 28.3774 66.7718 28.2686 66.7686 28.1325C66.7643 27.8286 66.7582 27.4047 66.7503 26.8613C66.7407 25.7461 66.7263 24.1433 66.7084 22.1221L66.784 22.1976C61.2092 22.2087 52.3433 22.2266 42.3698 22.2463C42.4249 22.1908 42.2441 22.3705 42.4926 22.1221V22.1238V22.1271V22.1335V22.1464V22.1725V22.2244V22.3283V22.5359V22.9501C42.4926 23.2258 42.4926 23.5004 42.4926 23.7742C42.4922 24.3216 42.4922 24.865 42.4919 25.4042C42.4912 26.4821 42.4904 27.5425 42.4897 28.5811L42.368 28.4594C49.3204 28.4816 55.4039 28.5009 59.7672 28.5145C61.9406 28.5292 63.6844 28.541 64.9027 28.5492C65.4952 28.556 65.9591 28.5614 66.2914 28.5653C66.441 28.5686 66.5606 28.5711 66.6547 28.5732C66.7378 28.5761 66.7811 28.5786 66.784 28.5814C66.7865 28.584 66.7485 28.5868 66.6708 28.5893C66.5806 28.5915 66.4657 28.594 66.3225 28.5972C65.9967 28.6011 65.5414 28.6065 64.96 28.6133C63.7485 28.6215 62.014 28.6334 59.8524 28.648C55.4679 28.662 49.3547 28.6813 42.3684 28.7035L42.2466 28.7039V28.5818C42.2459 27.5432 42.2452 26.4829 42.2445 25.4049C42.2445 24.8658 42.2441 24.3223 42.2441 23.7749C42.2441 23.5014 42.2441 23.2265 42.2441 22.9508V22.5366V22.329V22.2252V22.1732V22.1471V22.1342V22.1274V22.1238V22.1224C42.493 21.8736 42.3139 22.0533 42.3702 21.9978C52.3437 22.0179 61.2096 22.0354 66.7843 22.0465H66.8606L66.8599 22.1221C66.842 24.1623 66.828 25.7808 66.818 26.9064C66.8101 27.4427 66.804 27.8604 66.7997 28.1604C66.7965 28.2911 66.794 28.3956 66.7918 28.4787C66.789 28.5492 66.7865 28.584 66.784 28.5814Z" fill="#E0E0E0"/>
<path d="M70.0948 22.122C70.0916 22.1188 70.0887 22.0773 70.0855 21.9992C70.083 21.9065 70.0798 21.7941 70.0758 21.657C70.0705 21.3391 70.063 20.907 70.0536 20.3621C70.0422 19.2294 70.0257 17.6302 70.0053 15.6633L70.0948 15.7528C66.2946 15.7618 61.1244 15.7743 55.4261 15.7879C55.3144 15.8989 55.5765 15.6361 55.5496 15.6641V15.6659V15.6691V15.6755V15.6888V15.7153V15.7682V15.8746V16.0865V16.5089C55.5496 16.7896 55.5493 17.0689 55.5493 17.3467C55.5489 17.9019 55.5486 18.4504 55.5482 18.9906C55.5468 20.071 55.5453 21.1186 55.5439 22.1224L55.4254 22.0039C59.6602 22.0264 63.3064 22.0461 65.9195 22.0601C67.2083 22.0741 68.2411 22.0848 68.9764 22.093C69.3197 22.0991 69.5933 22.1041 69.8009 22.1081C69.9892 22.112 70.0898 22.117 70.0948 22.122C70.0998 22.127 70.0085 22.1317 69.8285 22.1367C69.6269 22.1403 69.362 22.1453 69.0287 22.1517C68.2998 22.1596 67.2763 22.1707 65.9989 22.1843C63.3658 22.1983 59.6924 22.218 55.425 22.2405L55.3069 22.2412L55.3065 22.122C55.3051 21.1182 55.3037 20.0707 55.3022 18.9902C55.3019 18.45 55.3015 17.9012 55.3012 17.3463C55.3012 17.0689 55.3008 16.7893 55.3008 16.5086V16.0861V15.8742V15.7679V15.7149V15.6884V15.6752V15.6687V15.6651V15.6633C55.2736 15.6895 55.5367 15.4271 55.4261 15.5384C61.1244 15.552 66.2943 15.5645 70.0948 15.5735L70.185 15.5738L70.184 15.663C70.1639 17.6528 70.1474 19.2706 70.136 20.4162C70.1267 20.9528 70.1192 21.3781 70.1138 21.6914C70.107 21.9799 70.1009 22.1281 70.0948 22.122Z" fill="#E0E0E0"/>
<path d="M171.269 45.2129H147.865V51.4041H171.269V45.2129Z" fill="#E0E0E0"/>
<path d="M161.781 57.7261C161.778 57.7236 161.776 57.6856 161.773 57.6137C161.771 57.5306 161.769 57.4264 161.766 57.2961C161.762 57.0047 161.756 56.5984 161.748 56.0775C161.739 55.0085 161.725 53.472 161.708 51.5348L161.781 51.6072C156.437 51.6179 147.938 51.6347 138.378 51.6537C138.431 51.6007 138.258 51.7725 138.496 51.5345V51.5359V51.5391V51.5452V51.5578V51.5828V51.6326V51.7321V51.9311V52.3282C138.496 52.5924 138.496 52.8555 138.496 53.1179C138.496 53.6427 138.496 54.1636 138.496 54.6802C138.495 55.7134 138.494 56.7298 138.494 57.7257L138.377 57.609C145.041 57.6301 150.873 57.6488 155.055 57.662C157.138 57.676 158.81 57.6874 159.978 57.6953C160.546 57.7017 160.991 57.7071 161.309 57.7107C161.452 57.7139 161.567 57.7164 161.657 57.7182C161.737 57.7211 161.778 57.7236 161.781 57.7261C161.783 57.7286 161.747 57.7311 161.672 57.7336C161.585 57.7354 161.476 57.7379 161.338 57.7411C161.026 57.7447 160.589 57.7497 160.032 57.7565C158.871 57.7644 157.208 57.7759 155.136 57.7898C150.933 57.8031 145.073 57.8217 138.377 57.8428L138.26 57.8432V57.7261C138.259 56.7305 138.259 55.7141 138.258 54.6806C138.258 54.164 138.258 53.6427 138.258 53.1183C138.258 52.8559 138.258 52.5927 138.258 52.3285V51.9315V51.7325V51.6329V51.5832V51.5581V51.5456V51.5395V51.5363V51.5348C138.496 51.2961 138.325 51.4686 138.378 51.4156C147.938 51.4346 156.437 51.4518 161.781 51.4622H161.854L161.853 51.5345C161.836 53.4902 161.822 55.0415 161.813 56.1205C161.805 56.6342 161.8 57.0352 161.795 57.3226C161.792 57.4476 161.789 57.5478 161.788 57.6276C161.786 57.6953 161.783 57.7286 161.781 57.7261Z" fill="#E0E0E0"/>
<path d="M73.5875 163.254C73.585 163.251 73.5829 163.213 73.5804 163.141C73.5782 163.058 73.5761 162.954 73.5729 162.824C73.5686 162.532 73.5628 162.126 73.5553 161.605C73.546 160.536 73.5324 158.999 73.5152 157.062L73.5875 157.135C68.2437 157.145 59.7455 157.162 50.1855 157.181C50.2381 157.128 50.0652 157.3 50.3032 157.062V157.063V157.067V157.073V157.085V157.11V157.16V157.26V157.459V157.856C50.3032 158.12 50.3032 158.383 50.3032 158.645C50.3032 159.17 50.3029 159.691 50.3029 160.208C50.3022 161.241 50.3015 162.257 50.3007 163.253L50.184 163.136C56.8482 163.157 62.6797 163.176 66.8622 163.189C68.9454 163.203 70.6172 163.215 71.785 163.222C72.3532 163.229 72.7978 163.234 73.1161 163.238C73.2593 163.241 73.3738 163.244 73.4644 163.245C73.5435 163.249 73.585 163.251 73.5875 163.254C73.5901 163.256 73.5535 163.259 73.4791 163.261C73.3924 163.263 73.2825 163.265 73.1451 163.269C72.8329 163.272 72.3965 163.278 71.8391 163.284C70.6777 163.292 69.0152 163.303 66.9431 163.317C62.7402 163.331 56.8804 163.349 50.1837 163.37L50.067 163.371V163.254C50.0662 162.258 50.0655 161.242 50.0648 160.208C50.0648 159.692 50.0645 159.171 50.0645 158.646C50.0645 158.384 50.0645 158.121 50.0645 157.856V157.459V157.26V157.161V157.111V157.086V157.073V157.067V157.064V157.063C50.3032 156.824 50.1314 156.996 50.1851 156.943C59.7451 156.962 68.2437 156.979 73.5872 156.99H73.6602L73.6595 157.062C73.6423 159.018 73.6287 160.569 73.6194 161.648C73.6119 162.162 73.6062 162.563 73.6019 162.85C73.5986 162.975 73.5961 163.076 73.5943 163.156C73.5926 163.223 73.5901 163.256 73.5875 163.254Z" fill="#E0E0E0"/>
<path d="M136.749 16.6831C136.747 16.6806 136.745 16.6427 136.742 16.5707C136.74 16.4877 136.738 16.3835 136.735 16.2532C136.73 15.9618 136.725 15.5554 136.717 15.0346C136.708 13.9659 136.694 12.429 136.677 10.4919L136.749 10.5642C131.405 10.575 122.907 10.5918 113.347 10.6108C113.4 10.5578 113.227 10.7296 113.465 10.4919V10.4933V10.4966V10.5026V10.5152V10.5402V10.59V10.6895V10.8886V11.2856C113.465 11.5498 113.465 11.8129 113.465 12.0753C113.465 12.6002 113.465 13.1211 113.465 13.6376C113.464 14.6708 113.463 15.6876 113.462 16.6831L113.346 16.5664C120.01 16.5876 125.841 16.6062 130.024 16.6194C132.107 16.6334 133.779 16.6448 134.947 16.6527C135.515 16.6592 135.96 16.6645 136.278 16.6681C136.421 16.6713 136.536 16.6738 136.626 16.6756C136.705 16.6781 136.747 16.6806 136.749 16.6831C136.752 16.6857 136.715 16.6882 136.641 16.6907C136.554 16.6925 136.444 16.695 136.307 16.6982C135.995 16.7018 135.558 16.7071 135.001 16.7136C133.839 16.7215 132.177 16.7329 130.105 16.7469C125.902 16.7601 120.042 16.7787 113.345 16.7999L113.229 16.8002V16.6831C113.228 15.6876 113.227 14.6712 113.227 13.6376C113.227 13.1211 113.227 12.5998 113.227 12.0753C113.227 11.8129 113.227 11.5498 113.227 11.2856V10.8886V10.6895V10.59V10.5402V10.5152V10.5026V10.4966V10.4933V10.4919C113.465 10.2531 113.293 10.4257 113.347 10.3723C122.907 10.3913 131.406 10.4085 136.749 10.4189H136.822L136.822 10.4912C136.804 12.4469 136.791 13.9982 136.782 15.0772C136.774 15.5912 136.768 15.9919 136.764 16.2793C136.761 16.4043 136.758 16.5045 136.756 16.584C136.754 16.6524 136.752 16.6857 136.749 16.6831Z" fill="#E0E0E0"/>
<path d="M167.495 97.7456C167.493 97.7431 167.491 97.7052 167.488 97.6332C167.486 97.5502 167.484 97.446 167.481 97.3157C167.476 97.0243 167.471 96.618 167.463 96.0971C167.454 95.0281 167.44 93.4915 167.423 91.5544L167.495 91.6267C162.152 91.6375 153.653 91.6543 144.093 91.6736C144.146 91.6206 143.973 91.7925 144.211 91.5544V91.5558V91.5591V91.5651V91.5777V91.6027V91.6525V91.752V91.9511V92.3481C144.211 92.6123 144.211 92.8754 144.211 93.1378C144.211 93.6627 144.211 94.1836 144.211 94.7001C144.21 95.7337 144.209 96.7497 144.209 97.7456L144.092 97.6289C150.756 97.6501 156.588 97.6687 160.77 97.6819C162.854 97.6959 164.525 97.7073 165.693 97.7152C166.261 97.7217 166.706 97.727 167.024 97.7306C167.167 97.7338 167.282 97.7363 167.373 97.7381C167.451 97.7406 167.493 97.7431 167.495 97.7456C167.498 97.7482 167.461 97.7507 167.387 97.7532C167.3 97.755 167.19 97.7575 167.053 97.7607C166.741 97.7643 166.304 97.7696 165.747 97.7761C164.586 97.784 162.923 97.7954 160.851 97.8094C156.648 97.8226 150.788 97.8412 144.092 97.8624L143.975 97.8627V97.7456C143.974 96.7501 143.973 95.7337 143.973 94.7001C143.973 94.1836 143.973 93.6627 143.973 93.1378C143.973 92.8754 143.973 92.6123 143.973 92.3481V91.9511V91.752V91.6525V91.6027V91.5777V91.5651V91.5591V91.5558V91.5544C144.211 91.3156 144.04 91.4882 144.093 91.4348C153.653 91.4538 162.152 91.471 167.495 91.4817H167.568L167.568 91.554C167.551 93.5098 167.537 95.061 167.528 96.14C167.52 96.6538 167.514 97.0547 167.51 97.3422C167.507 97.4671 167.504 97.5674 167.503 97.6472C167.5 97.7152 167.498 97.7482 167.495 97.7456Z" fill="#E0E0E0"/>
<path d="M139.058 29.0449H28.6816V153.015H139.058V29.0449Z" fill="#455A64"/>
<path d="M28.8602 29.002C28.877 28.9834 29.1835 29.2272 29.6578 29.6457C30.1322 30.0638 30.7726 30.6584 31.4571 31.339C32.1416 32.0199 32.7398 32.6572 33.1601 33.1297C33.5808 33.6019 33.8264 33.9073 33.8078 33.9241C33.7881 33.942 33.5088 33.6681 33.0642 33.2199C32.5762 32.7291 31.9823 32.132 31.3257 31.4711C30.662 30.8181 30.0613 30.2274 29.568 29.742C29.1172 29.3002 28.8423 29.0217 28.8602 29.002Z" fill="#263238"/>
<path d="M139.058 29.0449C139.094 29.0814 138.044 30.1776 136.713 31.4925C135.382 32.8082 134.273 33.8446 134.237 33.8077C134.201 33.7712 135.251 32.6754 136.582 31.3597C137.913 30.0451 139.021 29.0084 139.058 29.0449Z" fill="#263238"/>
<path d="M33.8369 147.585C33.8748 147.619 32.7217 148.947 31.2614 150.549C29.8008 152.152 28.5857 153.423 28.5478 153.389C28.5098 153.354 29.6626 152.027 31.1236 150.424C32.5839 148.821 33.7986 147.55 33.8369 147.585Z" fill="#263238"/>
<path d="M134.237 33.8086H33.502V148.253H134.237V33.8086Z" fill="#EBEBEB"/>
<path d="M134.415 148.432H33.3223V33.6299H134.415V148.432ZM33.6803 148.074H134.057V33.9879H33.6803V148.074Z" fill="#263238"/>
<g opacity="0.6">
<path d="M132.912 70.4064C132.73 68.1023 132.539 65.7602 131.745 63.6094C130.951 61.4589 129.451 59.4881 127.398 58.7613C125.899 58.2304 124.27 58.404 122.703 58.6174C119.587 59.0416 116.441 59.6155 113.6 61.0472C108.273 63.7325 105.883 70.1973 104.548 76.3305C103.214 82.4638 104.738 88.6049 107.167 94.3419C109.596 100.078 111.464 104.617 115.813 108.864C113.33 112.728 112.731 117.899 114.256 122.294C114.644 123.413 115.17 124.551 115.032 125.735C114.789 127.832 112.658 129.022 111.711 130.877C110.875 132.515 111.04 134.497 111.04 136.364C111.039 138.231 110.736 140.325 109.335 141.439C108.418 142.168 107.223 142.314 106.124 142.651C105.025 142.988 103.864 143.69 103.619 144.884L104.438 147.869L120.921 147.428L129.538 136.521L134.615 111.405L132.912 70.4064Z" fill="white"/>
</g>
<path d="M77.0825 126.22C77.0474 126.182 79.0869 124.244 81.6373 121.89C84.1884 119.536 86.2841 117.659 86.3189 117.697C86.3536 117.735 84.3148 119.673 81.7637 122.027C79.2137 124.381 77.1176 126.258 77.0825 126.22Z" fill="#E0E0E0"/>
<path d="M103.748 117.671C103.713 117.633 105.753 115.695 108.303 113.341C110.854 110.987 112.95 109.11 112.985 109.148C113.02 109.186 110.981 111.124 108.43 113.478C105.88 115.832 103.783 117.709 103.748 117.671Z" fill="#E0E0E0"/>
<path d="M107.114 132.568C107.079 132.53 109.118 130.591 111.669 128.238C114.22 125.884 116.315 124.007 116.35 124.045C116.385 124.082 114.346 126.021 111.795 128.375C109.245 130.728 107.149 132.606 107.114 132.568Z" fill="#E0E0E0"/>
<path d="M94.5083 102.33C94.4732 102.293 96.5127 100.354 99.0631 98.0005C101.614 95.6462 103.71 93.7693 103.745 93.8072C103.78 93.8452 101.741 95.7834 99.1895 98.1376C96.6394 100.491 94.5433 102.368 94.5083 102.33Z" fill="#E0E0E0"/>
<path d="M120.493 117.859C120.458 117.821 122.497 115.882 125.047 113.529C127.599 111.175 129.694 109.298 129.729 109.336C129.764 109.373 127.725 111.312 125.174 113.666C122.624 116.019 120.528 117.896 120.493 117.859Z" fill="#E0E0E0"/>
<path d="M40.518 99.6723C40.4829 99.6343 42.5225 97.6957 45.0729 95.3423C47.624 92.9881 49.7197 91.1111 49.7544 91.149C49.7895 91.187 47.7503 93.1252 45.1992 95.4794C42.6492 97.8325 40.5531 99.7099 40.518 99.6723Z" fill="#E0E0E0"/>
<path d="M43.0981 48.348C43.0634 48.3101 45.1029 46.3715 47.6529 44.018C50.204 41.6638 52.2998 39.7868 52.3345 39.8248C52.3692 39.8627 50.3304 41.8009 47.7793 44.1551C45.2289 46.5083 43.1328 48.3856 43.0981 48.348Z" fill="#E0E0E0"/>
<path d="M63.8559 106.104C63.8208 106.066 65.8604 104.127 68.4107 101.774C70.9619 99.4197 73.0576 97.5427 73.0923 97.5806C73.127 97.6186 71.0882 99.5568 68.5371 101.911C65.9871 104.264 63.891 106.142 63.8559 106.104Z" fill="#E0E0E0"/>
<path d="M57.2446 142.017C57.2095 141.979 59.249 140.04 61.7994 137.687C64.3505 135.333 66.4463 133.456 66.481 133.494C66.5161 133.532 64.4769 135.47 61.9258 137.824C59.3758 140.177 57.2797 142.055 57.2446 142.017Z" fill="#E0E0E0"/>
<path d="M88.5043 140.847C88.4696 140.809 90.5088 138.871 93.0592 136.517C95.6103 134.163 97.706 132.286 97.7407 132.324C97.7758 132.362 95.7367 134.3 93.1856 136.654C90.6355 139.007 88.5394 140.885 88.5043 140.847Z" fill="#E0E0E0"/>
<path d="M92.2876 64.8686C92.2525 64.8306 94.292 62.892 96.8424 60.5385C99.3935 58.1843 101.489 56.3073 101.524 56.3453C101.559 56.3832 99.5199 58.3215 96.9688 60.6757C94.4184 63.0288 92.3223 64.9065 92.2876 64.8686Z" fill="#E0E0E0"/>
<path d="M111.274 50.2953C111.239 50.2574 113.278 48.3188 115.829 45.9653C118.38 43.6111 120.476 41.7341 120.51 41.772C120.545 41.81 118.506 43.7482 115.955 46.1024C113.405 48.4555 111.309 50.3333 111.274 50.2953Z" fill="white"/>
<path d="M47.7153 74.0736C47.6802 74.0357 49.7197 72.0971 52.2701 69.7436C54.8212 67.3894 56.917 65.5124 56.9517 65.5504C56.9868 65.5883 54.9476 67.5265 52.3965 69.8807C49.8461 72.2339 47.75 74.1116 47.7153 74.0736Z" fill="white"/>
<path d="M41.5336 118.141C41.4986 118.103 43.5381 116.164 46.0885 113.811C48.6396 111.457 50.7353 109.58 50.77 109.618C50.8048 109.656 48.766 111.594 46.2149 113.948C43.6648 116.301 41.5684 118.179 41.5336 118.141Z" fill="white"/>
<path d="M64.8149 128.024C64.7798 127.986 66.8193 126.047 69.3697 123.694C71.9208 121.34 74.0166 119.463 74.0513 119.501C74.0864 119.539 72.0472 121.477 69.4961 123.831C66.9461 126.184 64.8496 128.062 64.8149 128.024Z" fill="white"/>
<path d="M105.614 67.5883C105.579 67.5503 107.618 65.6118 110.169 63.2583C112.72 60.9041 114.815 59.0271 114.85 59.065C114.885 59.103 112.846 61.0412 110.295 63.3954C107.745 65.7485 105.648 67.6259 105.614 67.5883Z" fill="white"/>
<path d="M87.6704 90.89C87.6353 90.8521 89.6748 88.9135 92.2252 86.56C94.7763 84.2058 96.872 82.3288 96.9068 82.3668C96.9418 82.4047 94.9027 84.3429 92.3516 86.6971C89.8012 89.0503 87.7051 90.928 87.6704 90.89Z" fill="white"/>
<path d="M111.274 100.988C111.239 100.95 113.278 99.0112 115.829 96.6577C118.38 94.3035 120.476 92.4265 120.51 92.4644C120.545 92.5024 118.506 94.4406 115.955 96.7948C113.405 99.1479 111.309 101.025 111.274 100.988Z" fill="white"/>
<path d="M72.3501 142.508C72.315 142.47 74.3545 140.532 76.9049 138.178C79.456 135.824 81.5517 133.947 81.5865 133.985C81.6215 134.023 79.5824 135.961 77.0313 138.315C74.4812 140.668 72.3851 142.546 72.3501 142.508Z" fill="white"/>
<path d="M107.78 81.2475C107.745 81.2095 109.784 79.2709 112.335 76.9174C114.886 74.5632 116.981 72.6863 117.016 72.7242C117.051 72.7621 115.012 74.7004 112.461 77.0546C109.911 79.4077 107.814 81.2854 107.78 81.2475Z" fill="#E0E0E0"/>
<path d="M65.4711 50.2953C65.4361 50.2574 67.4756 48.3188 70.026 45.9653C72.5771 43.6111 74.6728 41.7341 74.7075 41.772C74.7426 41.81 72.7035 43.7482 70.1524 46.1024C67.602 48.4555 65.5059 50.3333 65.4711 50.2953Z" fill="#E0E0E0"/>
<path d="M99.1254 46.0336C99.0904 45.9956 101.13 44.0571 103.68 41.7036C106.231 39.3494 108.327 37.4724 108.362 37.5103C108.397 37.5483 106.358 39.4865 103.807 41.8407C101.257 44.1938 99.1605 46.0715 99.1254 46.0336Z" fill="#E0E0E0"/>
<path d="M73.8344 63.3275C73.7993 63.2896 75.8389 61.351 78.3893 58.9975C80.9404 56.6433 83.0361 54.7663 83.0708 54.8043C83.1055 54.8422 81.0667 56.7804 78.5156 59.1346C75.9656 61.4878 73.8695 63.3655 73.8344 63.3275Z" fill="#E0E0E0"/>
<path d="M80.5434 47.102C80.5083 47.064 82.5479 45.1254 85.0982 42.7719C87.6494 40.4177 89.7451 38.5407 89.7798 38.5787C89.8149 38.6166 87.7757 40.5548 85.2246 42.9091C82.6742 45.2625 80.5781 47.1399 80.5434 47.102Z" fill="#E0E0E0"/>
<path d="M43.0981 133.494C43.0634 133.456 45.1029 131.517 47.6529 129.164C50.204 126.809 52.2998 124.932 52.3345 124.97C52.3692 125.008 50.3304 126.946 47.7793 129.301C45.2289 131.654 43.1328 133.531 43.0981 133.494Z" fill="#E0E0E0"/>
<path d="M49.6061 55.1598C49.6401 55.1985 47.6661 56.9788 45.1977 59.1354C42.7285 61.2927 40.7001 63.0097 40.6664 62.971C40.6324 62.9324 42.6061 61.1524 45.0752 58.9951C47.5433 56.8385 49.5721 55.1212 49.6061 55.1598Z" fill="#E0E0E0"/>
<path d="M35.5394 146.187C36.2031 146.184 74.0315 146.018 132.233 145.762L132.154 145.841C132.15 114.2 132.145 76.3731 132.14 35.8171L132.233 35.9102C132.182 35.9102 132.126 35.9102 132.07 35.9102C97.0001 35.9062 63.9707 35.9026 35.5394 35.8994L35.6217 35.8171C35.5727 101.674 35.5397 145.473 35.5394 146.187C35.539 145.474 35.5061 101.674 35.457 35.8167V35.7344H35.5394C63.9707 35.7312 97.0001 35.7276 132.07 35.7236C132.126 35.7236 132.182 35.7236 132.233 35.7236H132.326V35.8167C132.321 76.3728 132.316 114.2 132.312 145.84V145.919L132.234 145.919C74.0315 146.08 36.2024 146.185 35.5394 146.187Z" fill="white"/>
<path d="M83.9837 147.869C83.9322 147.869 83.8906 122.34 83.8906 90.8568C83.8906 59.3621 83.9322 33.8389 83.9837 33.8389C84.0353 33.8389 84.0768 59.3621 84.0768 90.8568C84.0771 122.341 84.0353 147.869 83.9837 147.869Z" fill="#263238"/>
<path d="M135.434 86.6282C135.434 86.6798 112.562 86.7213 84.3543 86.7213C56.1368 86.7213 33.2695 86.6794 33.2695 86.6282C33.2695 86.5767 56.1368 86.5352 84.3543 86.5352C112.562 86.5352 135.434 86.577 135.434 86.6282Z" fill="#263238"/>
<g opacity="0.7">
<path d="M63.2434 80.7253C64.5719 80.5145 65.4791 79.1244 66.7972 78.8562C69.4475 78.3167 71.6639 80.9756 74.3195 81.4882C76.3512 81.8806 78.391 80.9724 80.2165 79.9986C82.0419 79.0245 83.925 77.9308 85.9939 77.9161C88.0628 77.9014 90.3088 79.4731 90.166 81.5369C90.0439 83.2983 88.3853 84.4718 87.0987 85.6811C85.812 86.8905 84.7878 89.0109 85.9871 90.3072C87.0679 91.4754 89.2703 91.0669 89.7529 93.1426C89.9623 94.0437 89.7518 94.9898 89.2556 95.7706C88.2421 97.3659 86.4779 98.2097 85.231 99.5794C84.1437 100.773 83.5373 102.724 84.5723 103.963C84.8848 104.338 85.3105 104.599 85.6574 104.942C87.0944 106.362 86.8137 108.857 85.662 110.517C84.5103 112.177 82.7153 113.248 81.0803 114.435C79.4453 115.622 77.8397 117.109 77.4037 119.081C76.8677 121.505 78.2342 123.975 78.0624 126.451C77.8064 130.136 73.4986 132.921 70.0325 131.641C68.86 131.208 67.8265 130.41 66.606 130.141C64.6671 129.715 62.735 130.694 60.9164 131.489C59.0977 132.284 56.8907 132.891 55.2159 131.826C52.4772 130.083 53.2441 125.295 50.4918 123.574C48.2113 122.149 44.5798 123.616 42.9093 121.508C42.0988 120.486 42.1708 119.018 42.5134 117.759C42.856 116.5 43.4302 115.286 43.5011 113.983C43.7138 110.092 39.5008 107.091 39.4593 103.194C39.4332 100.734 41.0996 98.5831 42.9179 96.9252C44.7362 95.2673 46.8276 93.8296 48.1394 91.7482C49.494 89.5984 49.8867 86.9567 51.211 84.7883C52.8302 82.1366 55.8789 80.4543 58.9717 80.3702C59.706 80.3502 60.4359 80.459 61.1487 80.6358C61.6034 80.749 62.3587 80.866 63.2434 80.7253Z" fill="white"/>
</g>
<path d="M57.1886 99.8215C56.3602 100.007 55.8386 100.828 56.0236 101.657C56.2087 102.485 57.0303 103.007 57.8587 102.822C58.6872 102.636 59.2088 101.815 59.0237 100.986C58.8386 100.158 58.017 99.6364 57.1886 99.8215Z" fill="#EBEBEB"/>
<path d="M67.2884 100.716C68.1168 100.531 68.6384 99.7094 68.4534 98.881C68.2683 98.0525 67.4467 97.5309 66.6183 97.716C65.7898 97.9011 65.2682 98.7227 65.4533 99.5511C65.6384 100.38 66.46 100.901 67.2884 100.716Z" fill="#EBEBEB"/>
<path d="M61.7935 106.705C62.3871 106.238 63.1389 105.861 63.972 105.7C64.8075 105.555 65.6442 105.642 66.3645 105.869C66.7279 105.975 67.0565 106.129 67.3615 106.28C67.659 106.444 67.9315 106.612 68.1638 106.79C69.1053 107.496 69.4956 108.183 69.6559 108.103C69.7229 108.072 69.7114 107.859 69.5782 107.509C69.4472 107.158 69.1666 106.683 68.6986 106.191C68.4659 105.944 68.1785 105.705 67.8498 105.474C67.5137 105.257 67.1381 105.04 66.7114 104.881C65.8665 104.549 64.8301 104.396 63.7672 104.582C62.7068 104.785 61.7918 105.295 61.1191 105.904C60.7765 106.205 60.5019 106.54 60.2645 106.863C60.0386 107.195 59.8546 107.52 59.7247 107.833C59.4612 108.459 59.3674 109.003 59.3692 109.377C59.3692 109.752 59.4336 109.956 59.5074 109.961C59.5256 109.963 59.5435 109.954 59.5614 109.939C59.7569 110.695 60.0229 111.433 60.3633 112.136C60.4303 112.274 60.5316 112.431 60.6855 112.429C60.8062 112.426 60.9028 112.316 60.9308 112.199C60.959 112.082 60.9347 111.959 60.9104 111.841C60.7604 111.11 60.6104 110.379 60.4604 109.648C60.503 109.778 60.5488 109.913 60.6476 110.007C60.746 110.101 60.9147 110.137 61.0181 110.049C61.1151 109.966 61.1162 109.819 61.1094 109.691C61.0715 108.987 61.0335 108.283 60.9956 107.579C60.9938 107.547 60.9859 107.514 60.9698 107.488C60.9823 107.473 60.9941 107.458 61.007 107.443C61.2386 107.194 61.491 106.934 61.7935 106.705Z" fill="#EBEBEB"/>
<path d="M78.1681 100.895C77.4557 97.7058 75.4351 94.7359 72.478 92.5317C70.8577 91.3238 68.9804 90.3751 67.0497 89.7883C64.4309 88.9928 61.7585 88.86 59.3201 89.4042C55.6041 90.2344 52.5396 92.5864 50.6909 96.0279C49.3509 98.5221 48.7373 101.385 48.8876 104.303C48.5275 104.884 48.4355 105.621 48.5318 106.306C48.6442 107.109 48.9825 107.86 49.3165 108.598C49.856 109.789 50.3955 110.98 50.935 112.172C51.3414 113.069 51.7574 113.981 52.4129 114.715C53.1919 115.589 54.2526 116.149 55.2898 116.692C56.3552 117.249 57.4585 117.816 58.6299 118.027C58.834 118.705 59.0756 119.371 59.3577 120.019C59.4873 120.317 59.6842 120.654 60.0082 120.673C60.4306 120.698 60.6508 120.188 60.7471 119.776C62.2607 121.268 61.7141 123.957 62.9979 125.65C63.1217 125.814 63.2996 125.98 63.5019 125.946C63.8141 125.893 63.852 125.463 63.8105 125.149C63.5191 122.937 63.2277 120.726 62.9363 118.514C63.0995 118.52 63.2631 118.522 63.4267 118.522C64.4893 118.522 65.5601 118.405 66.6222 118.168C67.5964 117.95 68.5544 117.635 69.4687 117.231C69.6892 117.134 69.7888 116.876 69.6914 116.656C69.594 116.435 69.3362 116.335 69.1161 116.433C68.2537 116.814 67.3504 117.111 66.4321 117.316C62.8729 118.111 59.2167 117.473 56.1371 115.518C53.058 113.563 50.9243 110.527 50.1292 106.967C48.4799 99.5825 52.0792 92.618 58.4011 90.562C58.5658 90.5208 58.7305 90.4796 58.8952 90.4384C59.0735 90.3941 59.2714 90.3514 59.4325 90.4395C59.6337 90.5494 59.6874 90.8083 59.72 91.0352C59.816 91.7068 59.9123 92.3788 60.0082 93.0504C60.0512 93.3522 60.1747 93.7313 60.479 93.7442C60.7901 93.7575 60.9433 93.3723 60.9809 93.0633C61.0389 92.5864 61.0407 92.1028 60.9862 91.6256C60.9422 91.2386 60.915 90.7427 61.2651 90.572C61.5093 90.4531 61.7957 90.5777 62.0671 90.587C62.4619 90.601 62.8428 90.3289 62.9778 89.9609C64.2376 90.0153 65.5225 90.2355 66.7959 90.6225C68.6313 91.1799 70.4156 92.082 71.9561 93.2301C74.7456 95.3098 76.6491 98.0989 77.3157 101.084C77.3683 101.319 77.6025 101.466 77.8366 101.414C78.0725 101.363 78.2204 101.129 78.1681 100.895Z" fill="#EBEBEB"/>
<path d="M35.5828 35.8164C35.5467 35.8529 35.0856 35.4563 34.5532 34.9304C34.0205 34.4045 33.6181 33.9484 33.6546 33.9115C33.6908 33.875 34.1519 34.2717 34.6843 34.7976C35.2166 35.3238 35.619 35.7799 35.5828 35.8164Z" fill="white"/>
<g opacity="0.6">
<path d="M76.2705 145.522C76.2343 143.371 73.3603 142.504 71.2342 142.176C69.108 141.848 66.83 142.08 64.909 141.112C63.7158 140.51 62.7829 139.499 61.6605 138.773C60.051 137.733 58.0494 137.316 56.1584 137.626C55.0561 137.808 53.893 138.219 52.8645 137.783C51.6301 137.26 51.1783 135.791 50.6646 134.553C48.2588 128.752 42.1674 125.555 36.1562 127.373L36.4004 145.522H76.2705Z" fill="white"/>
</g>
<g opacity="0.6">
<path d="M95.2372 36.959C95.6431 38.3649 93.8098 39.6047 92.4874 40.2304C91.1649 40.8566 89.628 40.7957 88.1749 40.6253C86.7218 40.4545 85.2479 40.1868 83.8069 40.4413C81.9246 40.7739 80.3 41.9617 78.4573 42.4704C75.5976 43.2598 72.5833 42.3469 69.7053 41.6263C66.8273 40.9053 63.5993 40.4198 61.0421 41.9238C58.7344 43.281 57.33 46.0809 54.7481 46.7876C53.329 47.176 51.7477 46.8527 50.4066 47.4574C48.6069 48.2686 47.8874 50.4166 47.5086 52.3541C47.1298 54.2916 46.8101 56.4274 45.3366 57.7409C44.21 58.7451 42.6076 59.0627 41.4426 60.0225C39.6505 61.4989 39.3143 64.0872 39.3036 66.4088C39.2857 70.3064 39.8127 74.1942 39.7339 78.0911C39.6551 81.9879 38.9062 86.0168 36.6211 89.1744L36.9719 36.8867L95.2372 36.959Z" fill="white"/>
</g>
<path d="M153.067 98.1504C152.656 96.0346 151.781 94.0413 151.165 91.9756C150.55 89.9103 150.608 87.6954 150.244 85.4199L143.57 104.387C143.65 106.967 143.73 109.546 143.81 112.126C143.827 112.676 143.883 113.304 144.325 113.632C144.865 114.033 145.631 113.74 146.211 113.397C151.324 110.375 154.199 103.98 153.067 98.1504Z" fill="#263238"/>
<path d="M135.292 72.2811L122.615 69.498L119.565 70.3683C112.573 71.5383 109.01 80.0444 109.892 85.7183C110.871 92.022 112.316 99.6796 114.076 104.156C117.615 113.158 125.026 112.768 125.026 112.768C125.024 112.754 125.37 115.331 125.823 118.474C126.638 124.122 132 127.95 137.606 126.887C142.951 125.874 146.511 120.782 145.627 115.414L138.962 74.9615C138.62 73.251 137.026 72.0867 135.292 72.2811Z" fill="#CECECE"/>
<path d="M113.675 92.0666C113.792 92.7035 114.428 93.1291 115.095 93.0192C115.761 92.9097 116.207 92.3054 116.09 91.6688C115.973 91.0323 115.337 90.6056 114.672 90.7155C114.004 90.825 113.558 91.4301 113.675 92.0666Z" fill="#263238"/>
<path d="M112.298 88.9826C112.481 89.1058 113.24 88.2355 114.528 87.9548C115.81 87.6562 116.901 88.1102 117.006 87.9215C117.059 87.8367 116.846 87.5886 116.369 87.3795C115.898 87.1708 115.143 87.0333 114.342 87.213C113.541 87.3945 112.932 87.8385 112.611 88.2258C112.282 88.6171 112.21 88.9289 112.298 88.9826Z" fill="#263238"/>
<path d="M122.555 97.3395C122.545 97.265 121.715 97.3033 120.381 97.4233C120.045 97.4616 119.72 97.4652 119.615 97.2529C119.485 97.0323 119.544 96.6479 119.619 96.2301C119.753 95.3662 119.893 94.4612 120.04 93.5125C120.604 89.6511 120.935 86.5046 120.779 86.4835C120.623 86.462 120.039 89.5748 119.476 93.4366C119.345 94.3871 119.218 95.2932 119.1 96.1599C119.057 96.5609 118.937 97.032 119.214 97.4877C119.357 97.714 119.637 97.8389 119.86 97.8493C120.085 97.8672 120.271 97.8296 120.436 97.8035C121.756 97.5865 122.567 97.4136 122.555 97.3395Z" fill="#263238"/>
<path d="M125.027 112.768C125.027 112.768 131.392 111.789 136.785 106.681C136.785 106.681 134.883 113.881 125.354 115.067L125.027 112.768Z" fill="#66805D"/>
<path d="M127.199 98.7504C126.722 98.3465 126.044 98.1794 125.441 98.3465C124.838 98.5141 124.335 99.0239 124.208 99.6364C124.063 100.333 124.382 101.034 124.693 101.675L124.639 101.74C125.369 101.964 126.162 101.982 126.901 101.79C127.146 101.727 127.392 101.637 127.58 101.466C127.867 101.204 127.971 100.791 127.964 100.402C127.953 99.7775 127.677 99.1545 127.199 98.7504Z" fill="#66805D"/>
<path d="M124.039 102.38C124.25 102.422 124.45 101.005 125.803 100.168C127.154 99.3274 128.643 99.6972 128.681 99.5007C128.713 99.4144 128.383 99.1785 127.748 99.0725C127.125 98.964 126.184 99.0378 125.356 99.5497C124.53 100.063 124.097 100.842 123.968 101.417C123.832 102.002 123.941 102.375 124.039 102.38Z" fill="#263238"/>
<path d="M115.122 83.3487C114.763 83.228 114.179 83.9895 113.278 84.607C112.399 85.2557 111.488 85.5568 111.484 85.9356C111.491 86.1139 111.778 86.2828 112.272 86.295C112.76 86.3097 113.442 86.1328 114.054 85.6982C114.666 85.2625 115.057 84.6765 115.203 84.2111C115.354 83.7407 115.288 83.4138 115.122 83.3487Z" fill="#263238"/>
<path d="M128.144 88.9587C128.282 89.5912 127.86 90.2296 127.202 90.386C126.546 90.5421 125.901 90.1576 125.762 89.525C125.625 88.8924 126.046 88.2534 126.702 88.0973C127.361 87.9409 128.006 88.3264 128.144 88.9587Z" fill="#263238"/>
<path d="M129.511 85.4406C129.39 85.625 128.354 85.1152 127.058 85.354C125.759 85.5741 124.929 86.4143 124.759 86.2812C124.677 86.2235 124.778 85.9121 125.138 85.5351C125.491 85.1606 126.134 84.7421 126.943 84.5982C127.751 84.4561 128.485 84.6301 128.931 84.8635C129.385 85.0969 129.572 85.3565 129.511 85.4406Z" fill="#263238"/>
<path d="M124.426 80.521C124.69 80.2231 125.72 80.5381 126.96 80.5585C128.199 80.6169 129.252 80.3677 129.491 80.6821C129.597 80.8346 129.43 81.1339 128.97 81.4152C128.516 81.6956 127.759 81.9229 126.907 81.8964C126.055 81.8685 125.318 81.5942 124.888 81.2853C124.452 80.9756 124.309 80.6667 124.426 80.521Z" fill="#263238"/>
<path d="M121.036 65.8057C104.155 66.2618 109.272 87.082 109.272 87.082C115.596 80.7346 121.15 69.7071 121.15 69.7071L123.676 68.8297L121.036 65.8057Z" fill="#263238"/>
<path d="M139.766 91.1737C139.615 90.4788 140.056 88.6637 140.719 88.4053C142.488 87.7157 145.822 87.1344 146.879 91.7805C148.324 98.131 141.65 98.2717 141.597 98.092C141.556 97.952 140.29 93.5737 139.766 91.1737Z" fill="#CECECE"/>
<path d="M142.99 95.2451C143.013 95.2182 143.118 95.2974 143.324 95.3407C143.526 95.3826 143.852 95.369 144.155 95.1695C144.77 94.7707 145.093 93.5772 144.863 92.4255C144.748 91.8437 144.502 91.3207 144.193 90.9115C143.894 90.4912 143.52 90.2349 143.168 90.2521C142.815 90.2506 142.621 90.5073 142.584 90.7035C142.539 90.9008 142.609 91.0185 142.577 91.0364C142.563 91.0565 142.417 90.9613 142.408 90.6877C142.406 90.5553 142.446 90.3885 142.568 90.2324C142.692 90.0738 142.901 89.9599 143.143 89.9316C143.64 89.8543 144.183 90.2044 144.522 90.6537C144.889 91.0987 145.179 91.6833 145.308 92.3367C145.559 93.6255 145.176 94.9723 144.319 95.4463C143.899 95.6639 143.495 95.6145 143.269 95.5082C143.036 95.3962 142.97 95.2616 142.99 95.2451Z" fill="#66805D"/>
<path d="M150.857 90.713C150.513 80.3801 144.559 67.8336 138.949 65.8056C133.338 63.7775 121.044 60.7535 120.092 68.4487C119.484 73.3654 126.073 76.5069 130.547 78.6359C132.024 79.339 133.64 79.9269 134.699 81.1738C136.243 82.991 133.152 90.7316 139.736 94.1151C139.736 94.1151 139.754 89.2413 139.99 88.9152C140.624 88.0409 142.599 87.4241 144.621 88.2765C146.911 89.2413 149.307 95.9065 142.767 98.0556L144.163 106.529C144.164 106.528 151.2 101.046 150.857 90.713Z" fill="#263238"/>
<path d="M130.004 90.8108C130.005 90.8663 129.24 90.9096 128.327 91.1244C127.413 91.3335 126.707 91.6317 126.684 91.5809C126.662 91.5393 127.348 91.1573 128.285 90.9425C129.221 90.7227 130.006 90.7635 130.004 90.8108Z" fill="#66805D"/>
<path d="M116.468 94.2629C116.458 94.3191 115.712 94.1763 114.794 94.2686C113.875 94.352 113.17 94.6334 113.149 94.5804C113.125 94.5407 113.822 94.1705 114.776 94.0832C115.729 93.9883 116.484 94.2196 116.468 94.2629Z" fill="#66805D"/>
<path d="M130.132 100.071C130.08 100.052 130.199 99.6783 130.127 99.2197C130.065 98.7597 129.845 98.4354 129.889 98.4024C129.92 98.3652 130.239 98.6752 130.311 99.1929C130.389 99.7095 130.173 100.098 130.132 100.071Z" fill="#66805D"/>
<path d="M149.726 84.2512C149.698 84.2616 149.628 83.7779 149.193 83.0447C148.755 82.3162 147.862 81.4273 146.541 80.664C145.885 80.277 145.136 79.9065 144.32 79.5281C143.505 79.1454 142.635 78.7366 141.721 78.307C139.89 77.4427 137.88 76.494 135.77 75.4977C133.661 74.4964 131.653 73.5431 129.824 72.6745C128.911 72.2392 128.044 71.8254 127.231 71.4377C126.42 71.0496 125.661 70.6919 124.986 70.3268C123.629 69.6068 122.638 68.8207 122.083 68.1605C121.519 67.5072 121.338 67.059 121.338 67.059C121.36 67.0443 121.563 67.4818 122.137 68.1122C122.702 68.7505 123.692 69.5098 125.047 70.2104C125.722 70.5659 126.483 70.9157 127.297 71.298C128.112 71.6811 128.982 72.0896 129.897 72.5192C131.728 73.3834 133.738 74.3324 135.849 75.3291C137.957 76.3301 139.965 77.2834 141.794 78.1516C142.706 78.5869 143.573 79.0004 144.386 79.3881C145.199 79.7726 145.951 80.1528 146.608 80.5505C147.267 80.9465 147.827 81.3675 148.27 81.7896C148.714 82.2113 149.036 82.6355 149.255 83.0068C149.465 83.3841 149.586 83.6974 149.647 83.915C149.673 84.0156 149.694 84.0976 149.711 84.1646C149.724 84.2215 149.729 84.2505 149.726 84.2512Z" fill="#455A64"/>
<path d="M147.488 76.1581C147.484 76.1631 147.398 76.1108 147.239 76.0063C147.076 75.906 146.852 75.736 146.54 75.5516C145.931 75.1618 145.017 74.6484 143.84 74.1135C142.664 73.5758 141.216 73.0463 139.579 72.5516C137.941 72.055 136.115 71.5979 134.2 71.1063C132.284 70.6127 130.466 70.0961 128.851 69.5086C127.237 68.9218 125.825 68.2731 124.704 67.6148C123.581 66.9596 122.732 66.3306 122.185 65.853C121.902 65.6257 121.709 65.4184 121.567 65.2906C121.429 65.1585 121.359 65.0869 121.363 65.0823C121.368 65.0776 121.447 65.1399 121.592 65.2631C121.742 65.3816 121.942 65.5795 122.231 65.7972C122.79 66.2551 123.645 66.864 124.77 67.5002C125.892 68.14 127.3 68.7718 128.91 69.3471C130.52 69.9232 132.332 70.4329 134.246 70.9259C136.16 71.4174 137.989 71.8803 139.629 72.3876C141.269 72.8931 142.72 73.438 143.895 73.994C145.071 74.5467 145.98 75.0809 146.58 75.4908C146.886 75.6852 147.105 75.8652 147.261 75.9755C147.413 76.0904 147.492 76.1527 147.488 76.1581Z" fill="#455A64"/>
<path d="M154.994 108.36C158.62 108.371 162.185 110.302 164.175 113.333C166.273 116.528 166.566 120.525 167.264 124.283C167.961 128.04 169.404 132.073 172.759 133.903C173.154 134.118 173.613 134.35 173.725 134.786C173.859 135.31 173.364 135.826 172.831 135.922C172.298 136.019 171.762 135.82 171.257 135.625C173.377 138.487 173.295 142.777 171.068 145.557C168.841 148.336 164.672 149.352 161.416 147.907L150.365 115.385L154.994 108.36Z" fill="#263238"/>
<path d="M154.169 105.449C153.077 104.847 151.722 105.611 150.881 106.531C149.684 107.841 148.923 109.481 148.18 111.093C148.539 112.074 147.803 113.264 148.462 114.074C149.121 114.884 150.133 115.484 151.171 115.372C152.558 115.224 153.516 113.92 154.091 112.65C154.672 111.364 155.051 109.987 155.209 108.585C155.34 107.422 155.194 106.014 154.169 105.449Z" fill="#455A64"/>
<path d="M82.609 121.305C82.609 121.305 91.8086 133.648 95.3728 138.131C99.2296 142.981 105.511 150.633 105.511 150.633L103.913 168.245C103.913 168.245 93.9841 163.42 91.2229 158.082C88.4616 152.744 75.5586 128.655 75.5586 128.655L82.609 121.305Z" fill="#CECECE"/>
<path d="M144.775 106.681C144.775 106.681 137.902 110.97 135.46 112.718C134.283 113.561 125.658 120.957 125.658 120.957L126.257 123.259C126.257 123.259 122.7 135.243 122.023 138.136C121.485 140.436 119.78 165.035 119.475 169.109H164.27C164.27 169.109 164.341 138.389 162.389 132.661C159.57 124.391 149.343 111.723 149.343 111.723L145.946 110.913L144.775 106.681Z" fill="#66805D"/>
<path d="M129.368 129.942C128.754 130.286 115.339 143.919 115.339 143.919C115.339 143.919 112.041 144.681 111.602 147.158L107.782 148.37C107.483 147.535 104.38 147.057 103.803 149.039C103.541 149.941 99.9145 163.74 99.7338 165.847C99.5709 167.744 105.513 169.109 105.513 169.109L110.839 167.663C110.839 167.663 120.067 167.003 121.386 166.674C122.705 166.344 140.074 160.628 145.13 155.241C150.187 149.855 155.793 144.029 155.793 144.029C155.793 144.029 139.151 124.445 129.368 129.942Z" fill="#66805D"/>
<path d="M103.802 149.039C103.798 149.038 103.805 149.01 103.82 148.954C103.832 148.897 103.86 148.816 103.909 148.714C104.004 148.512 104.223 148.226 104.622 148.046C105.424 147.676 106.733 147.744 108.206 148.18L108.166 148.18C109.113 147.875 110.179 147.532 111.341 147.158L111.298 147.192C111.42 146.992 111.556 146.77 111.694 146.545L111.687 146.558C111.96 145.888 112.442 145.255 113.09 144.801C113.731 144.336 114.493 144.004 115.323 143.83L115.273 143.856C116.099 143.012 116.962 142.13 117.846 141.226C121.204 137.814 124.242 134.726 126.455 132.477C127.554 131.372 128.448 130.474 129.079 129.841C129.383 129.541 129.623 129.303 129.799 129.131C129.876 129.057 129.938 128.998 129.99 128.949C130.033 128.909 130.057 128.89 130.059 128.892C130.061 128.894 130.042 128.918 130.003 128.962C129.956 129.014 129.898 129.078 129.826 129.157C129.657 129.336 129.425 129.581 129.131 129.891C128.51 130.535 127.631 131.447 126.549 132.569C124.347 134.827 121.322 137.929 117.98 141.356C117.094 142.259 116.231 143.139 115.404 143.983L115.384 144.003L115.354 144.009C113.768 144.331 112.35 145.309 111.84 146.617L111.837 146.623L111.833 146.63C111.694 146.854 111.557 147.075 111.433 147.274L111.418 147.299L111.39 147.308C110.224 147.672 109.155 148.006 108.206 148.303L108.186 148.309L108.166 148.303C106.721 147.857 105.428 147.773 104.652 148.11C104.264 148.274 104.045 148.539 103.942 148.731C103.834 148.924 103.815 149.044 103.802 149.039Z" fill="#263238"/>
<g opacity="0.3">
<path d="M120.93 166.805C127.997 166.275 135.148 164.854 141.276 161.292C147.403 157.73 152.411 151.771 153.544 144.774C145.903 155.944 134.905 163.137 120.93 166.805Z" fill="black"/>
</g>
<path d="M153.199 144.924C153.202 144.926 153.179 144.964 153.131 145.036C153.077 145.116 153.006 145.222 152.916 145.356C152.717 145.644 152.434 146.053 152.073 146.576C151.888 146.841 151.683 147.134 151.46 147.455C151.226 147.769 150.951 148.095 150.667 148.453C150.085 149.159 149.465 150 148.661 150.827C148.27 151.25 147.861 151.694 147.435 152.156C147.005 152.615 146.513 153.049 146.028 153.522C145.783 153.755 145.534 153.993 145.28 154.234C145.032 154.482 144.762 154.713 144.482 154.942C143.929 155.406 143.36 155.883 142.776 156.372C140.379 158.252 137.596 160.136 134.487 161.785C131.358 163.401 128.223 164.614 125.312 165.512C124.577 165.713 123.86 165.909 123.164 166.099C122.99 166.146 122.817 166.193 122.645 166.24C122.473 166.284 122.299 166.314 122.128 166.351C121.785 166.421 121.447 166.491 121.115 166.56C120.45 166.688 119.814 166.846 119.192 166.937C118.569 167.024 117.972 167.107 117.401 167.186C116.263 167.376 115.219 167.407 114.307 167.482C113.851 167.511 113.427 167.552 113.035 167.565C112.644 167.566 112.286 167.566 111.964 167.567C111.328 167.566 110.831 167.566 110.481 167.565C110.319 167.563 110.192 167.561 110.096 167.56C110.009 167.558 109.965 167.555 109.965 167.552C109.965 167.548 110.01 167.545 110.096 167.541C110.193 167.538 110.32 167.533 110.481 167.528C110.831 167.52 111.328 167.509 111.962 167.495C112.285 167.489 112.642 167.483 113.032 167.476C113.422 167.458 113.845 167.412 114.301 167.378C115.21 167.294 116.25 167.254 117.384 167.057C117.953 166.973 118.548 166.886 119.168 166.796C119.788 166.701 120.422 166.54 121.084 166.409C121.414 166.339 121.751 166.268 122.092 166.196C122.263 166.158 122.436 166.128 122.608 166.083C122.778 166.036 122.951 165.988 123.124 165.94C123.817 165.748 124.531 165.551 125.263 165.348C128.162 164.444 131.283 163.23 134.401 161.62C137.499 159.977 140.275 158.104 142.67 156.238C143.253 155.752 143.822 155.278 144.375 154.818C144.655 154.591 144.925 154.362 145.173 154.116C145.427 153.876 145.677 153.641 145.923 153.409C146.409 152.94 146.901 152.51 147.333 152.055C147.761 151.597 148.171 151.158 148.564 150.738C149.372 149.919 149.998 149.086 150.586 148.388C150.873 148.033 151.152 147.712 151.39 147.401C151.618 147.085 151.826 146.795 152.015 146.533C152.388 146.02 152.68 145.618 152.886 145.335C152.983 145.205 153.059 145.103 153.117 145.026C153.168 144.956 153.196 144.922 153.199 144.924Z" fill="#263238"/>
<path d="M154.764 137.419C154.758 137.419 154.738 137.327 154.708 137.15C154.672 136.974 154.646 136.711 154.572 136.379C154.43 135.715 154.175 134.76 153.669 133.657C153.163 132.557 152.39 131.318 151.3 130.143C150.195 128.99 148.774 127.893 147.069 127.176C145.369 126.447 143.593 126.188 141.995 126.142C140.39 126.091 138.944 126.247 137.738 126.399C136.532 126.559 135.561 126.732 134.889 126.845C134.566 126.899 134.309 126.941 134.114 126.973C133.937 127.001 133.843 127.012 133.842 127.006C133.841 127 133.932 126.976 134.107 126.936C134.3 126.895 134.556 126.841 134.875 126.773C135.543 126.638 136.512 126.445 137.72 126.268C138.927 126.099 140.379 125.928 141.999 125.97C143.612 126.007 145.412 126.263 147.141 127.004C148.874 127.733 150.313 128.85 151.425 130.025C152.523 131.222 153.293 132.484 153.789 133.602C154.285 134.724 154.522 135.693 154.643 136.365C154.706 136.701 154.721 136.967 154.745 137.145C154.764 137.324 154.77 137.418 154.764 137.419Z" fill="#263238"/>
<path d="M145.898 111.73C145.902 111.735 145.83 111.8 145.689 111.919C145.534 112.047 145.328 112.218 145.069 112.433C144.51 112.885 143.728 113.519 142.767 114.296C140.799 115.866 138.105 118.014 135.129 120.388C132.601 122.383 130.275 124.218 128.452 125.657L128.383 125.712L128.342 125.634C127.601 124.203 126.993 123.029 126.561 122.192C126.359 121.794 126.199 121.476 126.081 121.242C126.033 121.142 125.994 121.059 125.961 120.991C125.935 120.934 125.923 120.904 125.926 120.902C125.93 120.9 125.948 120.927 125.98 120.981C126.018 121.046 126.064 121.125 126.12 121.221C126.246 121.451 126.418 121.762 126.634 122.153C127.08 122.982 127.708 124.147 128.472 125.565L128.361 125.542C130.178 124.094 132.495 122.248 135.014 120.241C138.003 117.884 140.709 115.751 142.686 114.192C143.662 113.434 144.457 112.816 145.025 112.375C145.292 112.172 145.506 112.01 145.666 111.889C145.814 111.78 145.894 111.725 145.898 111.73Z" fill="#263238"/>
<path d="M142.931 115.427C142.975 115.453 141.671 117.713 140.018 120.473C138.364 123.234 136.988 125.45 136.944 125.424C136.9 125.397 138.205 123.138 139.858 120.377C141.511 117.617 142.887 115.401 142.931 115.427Z" fill="#263238"/>
<path d="M147.488 169.182C147.436 169.177 147.771 165.13 148.235 160.143C148.699 155.155 149.116 151.116 149.168 151.121C149.219 151.126 148.885 155.172 148.421 160.161C147.956 165.147 147.539 169.186 147.488 169.182Z" fill="#263238"/>
<g opacity="0.3">
<path d="M126.066 121.169L126.105 121.303L128.03 128.02L142.93 114.083L129.044 125.229" fill="black"/>
</g>
<path d="M105.541 169.182C105.534 169.18 105.547 169.108 105.578 168.972C105.616 168.818 105.663 168.623 105.721 168.382C105.852 167.872 106.029 167.131 106.233 166.212C106.643 164.374 107.115 161.813 107.411 158.956C107.704 156.097 107.763 153.494 107.737 151.611C107.725 150.67 107.702 149.908 107.678 149.382C107.67 149.135 107.664 148.934 107.658 148.775C107.656 148.636 107.658 148.563 107.664 148.563C107.671 148.562 107.681 148.634 107.696 148.772C107.71 148.931 107.728 149.131 107.75 149.377C107.797 149.903 107.839 150.665 107.868 151.608C107.928 153.494 107.889 156.107 107.596 158.975C107.298 161.841 106.804 164.407 106.361 166.241C106.14 167.158 105.943 167.896 105.79 168.401C105.718 168.637 105.66 168.83 105.614 168.982C105.572 169.115 105.547 169.184 105.541 169.182Z" fill="#263238"/>
<path d="M109.587 159.653C109.574 159.652 109.568 159.494 109.567 159.208C109.568 158.923 109.564 158.51 109.551 158C109.528 156.982 109.441 155.575 109.215 154.038C108.986 152.5 108.662 151.129 108.389 150.147C108.254 149.656 108.138 149.259 108.055 148.987C107.973 148.713 107.933 148.56 107.946 148.555C107.958 148.551 108.02 148.696 108.123 148.963C108.228 149.23 108.364 149.621 108.516 150.11C108.822 151.087 109.169 152.463 109.399 154.011C109.627 155.558 109.693 156.976 109.683 158C109.679 158.512 109.662 158.925 109.639 159.211C109.618 159.496 109.6 159.653 109.587 159.653Z" fill="#263238"/>
<path d="M114.107 160.035C114.094 160.034 114.085 159.847 114.079 159.51C114.075 159.173 114.061 158.685 114.034 158.082C113.982 156.879 113.843 155.218 113.53 153.407C113.213 151.596 112.782 149.986 112.425 148.835C112.246 148.26 112.094 147.796 111.984 147.477C111.876 147.157 111.822 146.978 111.834 146.974C111.846 146.969 111.923 147.139 112.052 147.452C112.183 147.764 112.355 148.222 112.55 148.795C112.942 149.939 113.395 151.554 113.713 153.375C114.029 155.196 114.148 156.869 114.166 158.079C114.176 158.683 114.169 159.173 114.151 159.511C114.135 159.848 114.12 160.035 114.107 160.035Z" fill="#263238"/>
<path d="M69.7048 115.009C69.7048 115.009 68.2277 113.708 67.3631 113.816C66.3027 113.949 66.3467 115.584 66.3467 115.584C66.1416 116.472 68.4693 118.873 69.3579 120.172C70.2468 121.472 76.1953 129.403 76.1953 129.403L84.1268 123.728C84.1268 123.728 84.1268 123.728 83.7849 121.608C83.443 119.489 79.819 111.967 79.819 111.967C79.819 111.967 75.5799 105.062 74.9641 104.309C74.3487 103.557 69.9729 101.438 69.7678 101.369C69.7678 101.369 68.5123 102.801 69.6478 103.764C70.231 104.258 72.6396 105.95 72.6396 105.95L74.7594 109.711L74.7411 110.017L72.3669 106.603C72.3669 106.603 71.3949 105.719 70.511 105.586C69.6274 105.454 68.1901 105.934 68.1901 105.934C68.1901 105.934 67.4182 106.514 67.7275 107.53L68.1693 108.061L69.1849 108.352L70.8701 111.039C70.8701 111.039 69.3607 110.174 68.7532 110.71C68.2026 111.196 68.001 111.811 68.0744 112.497C68.1485 113.182 69.7048 115.009 69.7048 115.009Z" fill="#CECECE"/>
<path d="M77.1682 109.955C77.1653 110.009 76.7962 110.005 76.4357 110.242C76.0691 110.469 75.917 110.806 75.8669 110.785C75.8447 110.778 75.8511 110.678 75.9206 110.535C75.9886 110.394 76.13 110.216 76.3351 110.085C76.5406 109.954 76.7611 109.901 76.9187 109.899C77.0776 109.896 77.1707 109.932 77.1682 109.955Z" fill="#66805D"/>
<path d="M72.3028 113.07C72.262 113.101 71.8374 112.616 71.3544 111.985C70.8715 111.355 70.5131 110.819 70.5539 110.788C70.5948 110.756 71.0193 111.242 71.5023 111.872C71.9852 112.502 72.344 113.038 72.3028 113.07Z" fill="#66805D"/>
<path d="M70.5949 116.517C70.5531 116.546 70.2158 116.142 69.8417 115.614C69.4676 115.086 69.1987 114.634 69.2406 114.604C69.2825 114.574 69.6198 114.978 69.9939 115.507C70.368 116.034 70.6368 116.487 70.5949 116.517Z" fill="#66805D"/>
<path d="M126.257 123.259C126.269 123.264 126.211 123.457 126.097 123.801C125.989 124.148 125.835 124.65 125.657 125.274C125.301 126.523 124.845 128.259 124.321 130.173C123.798 132.087 123.283 133.81 122.864 135.042C122.653 135.658 122.475 136.154 122.337 136.491C122.201 136.829 122.121 137.013 122.109 137.009C122.097 137.004 122.154 136.811 122.269 136.466C122.386 136.122 122.544 135.621 122.738 135.001C123.125 133.762 123.619 132.037 124.141 130.123C124.665 128.21 125.141 126.478 125.531 125.236C125.726 124.615 125.9 124.117 126.029 123.777C126.164 123.439 126.245 123.254 126.257 123.259Z" fill="#263238"/>
<path d="M168.239 169.108C168.239 169.16 133.047 169.201 89.6456 169.201C46.2292 169.201 11.0449 169.159 11.0449 169.108C11.0449 169.057 46.2292 169.015 89.6456 169.015C133.047 169.015 168.239 169.057 168.239 169.108Z" fill="#263238"/>
<path d="M17.748 81.911C17.748 81.911 17.7563 81.8387 17.7842 81.7002C17.8154 81.5523 17.8587 81.3486 17.9138 81.0866C18.0352 80.5377 18.2102 79.7462 18.4347 78.7316C18.8997 76.6778 19.5685 73.7229 20.3947 70.072C22.0752 62.7512 24.395 52.6431 26.9651 41.4456L27.0811 40.9404L27.1957 41.4463C27.2411 41.6471 27.2902 41.8644 27.3396 42.0825C29.8961 53.4371 32.2098 63.7146 33.8874 71.1657C34.7122 74.8817 35.3806 77.8921 35.8453 79.985C36.0698 81.0189 36.2445 81.8258 36.3658 82.3854C36.4213 82.6524 36.4643 82.8601 36.4954 83.0108C36.5234 83.1519 36.5316 83.2256 36.5316 83.2256C36.5316 83.2256 36.5076 83.1554 36.4718 83.0162C36.4349 82.8665 36.3845 82.6607 36.3193 82.3958C36.1879 81.8384 35.9982 81.035 35.7554 80.005C35.2736 77.9161 34.5801 74.9114 33.7242 71.2022C32.0294 63.7551 29.6916 53.4826 27.1087 42.134C27.0593 41.916 27.0102 41.6987 26.9648 41.4978L27.1953 41.4982C24.5984 52.6896 22.2542 62.792 20.5562 70.1085C19.6991 73.7522 19.0053 76.7014 18.5231 78.7513C18.2804 79.7616 18.0907 80.5496 17.9593 81.0962C17.8941 81.3558 17.8436 81.5577 17.8068 81.7045C17.772 81.8423 17.748 81.911 17.748 81.911Z" fill="#263238"/>
<path d="M17.7422 90.4131V83.2266H36.9159V90.4131C36.9159 95.0338 33.1702 98.7795 28.5495 98.7795H26.1086C21.4879 98.7795 17.7422 95.0334 17.7422 90.4131Z" fill="#263238"/>
<path d="M17.7427 83.2267C17.7495 83.2224 17.8243 83.3262 17.9604 83.5285C18.1061 83.7501 18.3008 84.0465 18.545 84.4185C19.0569 85.2172 19.7754 86.3384 20.6582 87.7153C22.4343 90.5288 24.8669 94.3823 27.5544 98.6393C27.5712 98.6658 27.5877 98.6927 27.6031 98.717L27.4019 98.7188C30.0103 94.435 32.3688 90.5621 34.0901 87.7357C34.9457 86.3524 35.642 85.2265 36.1382 84.4242C36.3752 84.0504 36.5638 83.7529 36.7052 83.5303C36.837 83.3273 36.9097 83.2227 36.9165 83.227C36.9236 83.2313 36.8646 83.3441 36.7457 83.555C36.614 83.7834 36.4378 84.0884 36.2166 84.4718C35.7361 85.2834 35.0613 86.4226 34.2325 87.822C32.5267 90.6577 30.1893 94.5434 27.6038 98.8412L27.5046 99.0059L27.4023 98.843C27.3869 98.8187 27.37 98.7918 27.3536 98.7653C24.689 94.494 22.2771 90.6276 20.5161 87.8048C19.6601 86.4111 18.9631 85.2766 18.4666 84.4682C18.2378 84.0863 18.0556 83.7819 17.9196 83.5546C17.7971 83.3434 17.7359 83.231 17.7427 83.2267Z" fill="#263238"/>
<path d="M29.234 41.3826C29.234 42.539 28.2968 43.4762 27.1405 43.4762C25.9841 43.4762 25.0469 42.539 25.0469 41.3826C25.0469 40.2263 25.9841 39.2891 27.1405 39.2891C28.2964 39.2891 29.234 40.2263 29.234 41.3826Z" fill="#263238"/>
<path d="M27.1396 5.74707C27.2048 5.74707 27.2578 13.8128 27.2578 23.7602C27.2578 33.7112 27.2048 41.7751 27.1396 41.7751C27.0745 41.7751 27.0215 33.7112 27.0215 23.7602C27.0215 13.8128 27.0745 5.74707 27.1396 5.74707Z" fill="#263238"/>
<path d="M28.2265 99.5595C28.2265 100.055 27.8251 100.456 27.33 100.456C26.8349 100.456 26.4336 100.055 26.4336 99.5595C26.4336 99.0644 26.8349 98.6631 27.33 98.6631C27.8251 98.6634 28.2265 99.0648 28.2265 99.5595Z" fill="#263238"/>
<path d="M26.934 99.8948C26.982 99.8708 27.0299 99.8472 27.0779 99.8232C26.5549 100.118 26.2538 100.711 26.1725 101.306C26.0913 101.901 26.2005 102.504 26.3261 103.091C26.3662 103.278 26.4643 103.51 26.6551 103.498C26.827 103.488 26.9082 103.284 26.9372 103.114C26.9981 102.759 27.0074 102.396 26.9648 102.039C26.9419 102.493 27.093 102.955 27.3804 103.308C27.4366 103.376 27.5172 103.448 27.6027 103.425C27.6844 103.403 27.7202 103.309 27.7417 103.228C27.8208 102.927 27.8659 102.618 27.8766 102.307C27.9235 102.574 27.9779 102.857 28.1619 103.056C28.346 103.255 28.7072 103.313 28.8762 103.101C28.9893 102.959 28.9775 102.758 28.9524 102.578C28.8028 101.509 28.3656 100.482 27.6987 99.6338" fill="#263238"/>
<path d="M18.9499 83.2262C18.9499 83.2262 10.336 73.2963 11.293 72.9373C12.2503 72.5782 19.9068 78.0817 19.9068 78.0817C19.9068 78.0817 13.3268 63.3661 14.6428 62.2893C15.9588 61.2124 22.8979 75.3298 22.8979 75.3298C22.8979 75.3298 21.821 54.7519 22.8979 54.5128C23.9747 54.2733 27.9228 75.0906 27.9228 75.0906C27.9228 75.0906 33.785 56.0683 35.4601 56.0683C37.1352 56.0683 33.6654 74.3728 33.6654 74.3728C33.6654 74.3728 40.6046 62.6483 41.6811 64.2035C42.7579 65.7586 36.7757 78.4404 36.7757 78.4404C36.7757 78.4404 45.5095 71.1426 45.8682 72.0995C46.2273 73.0568 36.4167 83.2258 36.4167 83.2258H18.9499V83.2262Z" fill="#66805D"/>
<path d="M17.7479 68.2707C17.8073 68.2438 19.3356 71.5195 21.1604 75.586C22.9858 79.654 24.4171 82.9723 24.3573 82.9992C24.2979 83.026 22.7699 79.751 20.9445 75.6831C19.1198 71.6165 17.6881 68.2975 17.7479 68.2707Z" fill="#263238"/>
<path d="M24.7066 70.1016C24.7718 70.0973 25.0256 72.9842 25.2737 76.5495C25.5218 80.1159 25.67 83.01 25.6048 83.0143C25.5397 83.0189 25.2859 80.1324 25.0378 76.566C24.79 73.0007 24.6418 70.1062 24.7066 70.1016Z" fill="#263238"/>
<path d="M34.3065 60.8858C34.3144 60.8883 34.2965 60.9685 34.2556 61.1189C34.2048 61.2943 34.1425 61.5105 34.0666 61.7733C33.8865 62.3729 33.6427 63.1838 33.3463 64.1705C32.7388 66.1946 31.9226 68.9974 31.0906 72.1116C30.26 75.2276 29.5716 78.0648 29.0897 80.1222C28.8552 81.1257 28.6626 81.9498 28.5201 82.5595C28.455 82.8251 28.4016 83.0435 28.3583 83.2211C28.3186 83.3718 28.2942 83.4502 28.286 83.4484C28.2781 83.4466 28.2871 83.3653 28.3114 83.2114C28.3433 83.0317 28.3823 82.8101 28.4299 82.5409C28.5369 81.9591 28.7059 81.1203 28.9264 80.0861C29.3668 78.0175 30.0305 75.1707 30.8622 72.0508C31.6949 68.9326 32.538 66.1337 33.1867 64.1207C33.5106 63.114 33.782 62.3024 33.9793 61.7446C34.0723 61.4876 34.1486 61.2757 34.2105 61.1038C34.2657 60.9585 34.2986 60.8833 34.3065 60.8858Z" fill="#263238"/>
<path d="M38.4558 71.4926C38.5095 71.5298 36.8279 74.0369 34.7007 77.0914C32.5728 80.1469 30.805 82.5931 30.7513 82.5555C30.6976 82.5183 32.3787 80.0116 34.5067 76.956C36.6339 73.9019 38.4021 71.4554 38.4558 71.4926Z" fill="#263238"/>
<path d="M21.8565 83.0156C21.8365 83.0395 21.5447 82.8394 21.1026 82.4775C20.6608 82.1159 20.0726 81.5878 19.4637 80.9639C18.8551 80.3391 18.342 79.7381 17.9916 79.287C17.6407 78.8363 17.4481 78.5391 17.4728 78.5198C17.5276 78.4768 18.4226 79.5616 19.633 80.7985C20.8391 82.0396 21.9009 82.9622 21.8565 83.0156Z" fill="#263238"/>
<path d="M27.0885 79.0703C27.1536 79.0643 27.2904 79.9814 27.3938 81.1185C27.4977 82.2558 27.5288 83.1823 27.464 83.1881C27.3989 83.1941 27.2621 82.2769 27.1586 81.1399C27.0548 80.0029 27.0237 79.0764 27.0885 79.0703Z" fill="#263238"/>
<path d="M36.9165 87.7044C36.919 87.7205 36.6551 87.7742 36.1754 87.858C35.6961 87.9425 35.0001 88.0509 34.138 88.1705C32.4143 88.4086 30.0207 88.681 27.3625 88.773C24.703 88.8622 22.2915 88.7161 20.5638 88.4891C19.6995 88.3774 19.0032 88.264 18.5271 88.1616C18.0499 88.0638 17.7878 88.0023 17.791 87.9865C17.7939 87.9704 18.0621 88.0015 18.5425 88.071C19.0226 88.1451 19.7199 88.2332 20.5827 88.323C22.3083 88.5067 24.7065 88.6255 27.3547 88.5368C30.0017 88.4455 32.3906 88.2002 34.1173 88.0048C34.95 87.9081 35.6391 87.8279 36.1622 87.7671C36.6455 87.7112 36.914 87.6879 36.9165 87.7044Z" fill="white"/>
<path d="M36.9165 89.8439C36.919 89.86 36.6551 89.9137 36.1754 89.9975C35.6961 90.0819 35.0001 90.1904 34.138 90.31C32.4143 90.5481 30.0207 90.8205 27.3625 90.9125C24.703 91.0016 22.2915 90.8556 20.5638 90.6286C19.6995 90.5169 19.0032 90.4031 18.5271 90.301C18.0499 90.2033 17.7878 90.1417 17.791 90.126C17.7939 90.1099 18.0621 90.141 18.5425 90.2105C19.0226 90.2846 19.7199 90.3723 20.5827 90.4625C22.3083 90.6462 24.7065 90.765 27.3547 90.6762C30.0017 90.5846 32.3906 90.3397 34.1173 90.1442C34.95 90.0476 35.6391 89.9674 36.1622 89.9065C36.6455 89.851 36.914 89.8278 36.9165 89.8439Z" fill="white"/>
</svg>
