<svg width="176" height="176" viewBox="0 0 176 176" fill="none" xmlns="http://www.w3.org/2000/svg">
<path d="M176 134.604H0V134.692H176V134.604Z" fill="#EBEBEB"/>
<path d="M158.366 140.27H146.707V140.358H158.366V140.27Z" fill="#EBEBEB"/>
<path d="M116.589 141.225H113.529V141.313H116.589V141.225Z" fill="#EBEBEB"/>
<path d="M146.353 137.001H139.598V137.089H146.353V137.001Z" fill="#EBEBEB"/>
<path d="M33.6688 137.592H18.4648V137.68H33.6688V137.592Z" fill="#EBEBEB"/>
<path d="M39.0339 137.592H36.8047V137.68H39.0339V137.592Z" fill="#EBEBEB"/>
<path d="M79.2513 139.079H46.2773V139.167H79.2513V139.079Z" fill="#EBEBEB"/>
<path d="M83.4293 118.905H15.4584C14.3507 118.905 13.4492 118.004 13.4492 116.896V21.352C13.4492 20.2442 14.3507 19.3428 15.4584 19.3428H83.4293C84.5367 19.3428 85.4381 20.2442 85.4381 21.352V116.896C85.4381 118.004 84.5367 118.905 83.4293 118.905ZM15.4584 19.4311C14.3989 19.4311 13.5372 20.2928 13.5372 21.3523V116.896C13.5372 117.956 14.3989 118.818 15.4584 118.818H83.4293C84.4884 118.818 85.3501 117.956 85.3501 116.896V21.352C85.3501 20.2928 84.4884 19.4308 83.4293 19.4308L15.4584 19.4311Z" fill="#EBEBEB"/>
<path d="M159.565 118.905H91.5948C90.4871 118.905 89.5859 118.004 89.5859 116.896V21.352C89.5859 20.2442 90.4874 19.3428 91.5948 19.3428H159.565C160.673 19.3428 161.575 20.2442 161.575 21.352V116.896C161.575 118.004 160.673 118.905 159.565 118.905ZM91.5948 19.4311C90.5356 19.4311 89.6739 20.2928 89.6739 21.3523V116.896C89.6739 117.956 90.5356 118.818 91.5948 118.818H159.565C160.625 118.818 161.487 117.956 161.487 116.896V21.352C161.487 20.2928 160.625 19.4308 159.565 19.4308L91.5948 19.4311Z" fill="#EBEBEB"/>
<path d="M17.9177 134.604H24.4727L24.4727 89.5933H17.9177L17.9177 134.604Z" fill="#E6E6E6"/>
<path d="M20.2234 134.603H17.916V126.049H22.6427L20.2234 134.603Z" fill="#F0F0F0"/>
<path d="M87.2341 134.604H93.7891V89.5933H87.2341V134.604Z" fill="#E6E6E6"/>
<path d="M17.9177 132.269H89.248V89.5928H17.9177V132.269Z" fill="#F0F0F0"/>
<path d="M86.9408 134.603H89.2481V126.049H84.5215L86.9408 134.603Z" fill="#F0F0F0"/>
<path d="M86.1446 128.605H66.4618C65.9616 128.605 65.5547 128.198 65.5547 127.698V93.8573C65.5547 93.3571 65.9616 92.9502 66.4618 92.9502H86.1442C86.6444 92.9502 87.0513 93.3571 87.0513 93.8573V127.698C87.0513 128.198 86.6448 128.605 86.1446 128.605ZM66.4618 93.3022C66.1556 93.3022 65.9067 93.5514 65.9067 93.8573V127.698C65.9067 128.003 66.1556 128.253 66.4618 128.253H86.1442C86.4505 128.253 86.6993 128.004 86.6993 127.698V93.8573C86.6993 93.5511 86.4505 93.3022 86.1442 93.3022H66.4618Z" fill="white"/>
<path d="M63.4235 128.605H43.7411C43.2409 128.605 42.834 128.198 42.834 127.698V93.8573C42.834 93.3571 43.2409 92.9502 43.7411 92.9502H63.4235C63.9237 92.9502 64.3306 93.3571 64.3306 93.8573V127.698C64.3306 128.198 63.9237 128.605 63.4235 128.605ZM43.7411 93.3022C43.4348 93.3022 43.186 93.5514 43.186 93.8573V127.698C43.186 128.003 43.4348 128.253 43.7411 128.253H63.4235C63.7298 128.253 63.9786 128.004 63.9786 127.698V93.8573C63.9786 93.5511 63.7298 93.3022 63.4235 93.3022H43.7411Z" fill="white"/>
<path d="M40.7032 128.605H21.0204C20.5202 128.605 20.1133 128.198 20.1133 127.698V93.8573C20.1133 93.3571 20.5202 92.9502 21.0204 92.9502H40.7028C41.203 92.9502 41.6099 93.3571 41.6099 93.8573V127.698C41.6099 128.198 41.203 128.605 40.7032 128.605ZM21.0204 93.3022C20.7141 93.3022 20.4653 93.5514 20.4653 93.8573V127.698C20.4653 128.003 20.7141 128.253 21.0204 128.253H40.7028C41.0091 128.253 41.2579 128.004 41.2579 127.698V93.8573C41.2579 93.5511 41.0091 93.3022 40.7028 93.3022H21.0204Z" fill="white"/>
<path d="M109.818 124.926H146.105V28.4721H109.818L109.818 124.926Z" fill="#E6E6E6"/>
<path d="M108.031 124.926H145.854V28.4721H108.031L108.031 124.926Z" fill="#F0F0F0"/>
<path d="M109.818 126.587H146.105V124.926H109.818V126.587Z" fill="#E6E6E6"/>
<path d="M105.053 126.587H142.875V124.926H105.053V126.587Z" fill="#F0F0F0"/>
<path d="M143.35 122.422L143.35 30.9746L110.534 30.9746L110.534 122.422H143.35Z" fill="#FAFAFA"/>
<path d="M118.012 122.422L122.02 30.9746H128.955L124.946 122.422H118.012Z" fill="white"/>
<path d="M142.191 58.4869C142.297 58.4869 142.383 58.401 142.383 58.2954V32.6036C142.383 32.498 142.297 32.4121 142.191 32.4121C142.086 32.4121 142 32.498 142 32.6036V58.295C142 58.401 142.086 58.4869 142.191 58.4869Z" fill="#F0F0F0"/>
<path d="M126.436 122.422L130.444 30.9746H133.147L129.139 122.422H126.436Z" fill="white"/>
<path d="M110.852 122.422L110.852 30.9746H110.534L110.534 122.422H110.852Z" fill="#E6E6E6"/>
<path opacity="0.5" d="M107.439 34.2419H144.309L144.539 31.9482H107.67L107.439 34.2419Z" fill="#E0E0E0"/>
<path opacity="0.5" d="M107.439 38.0127H144.309L144.539 35.7188H107.67L107.439 38.0127Z" fill="#E0E0E0"/>
<path opacity="0.5" d="M107.439 41.7832H144.309L144.539 39.4893H107.67L107.439 41.7832Z" fill="#E0E0E0"/>
<path opacity="0.5" d="M107.439 45.5537H144.309L144.539 43.2598H107.67L107.439 45.5537Z" fill="#E0E0E0"/>
<path opacity="0.5" d="M107.439 49.3243H144.309L144.539 47.0303H107.67L107.439 49.3243Z" fill="#E0E0E0"/>
<path opacity="0.5" d="M107.439 53.0954H144.309L144.539 50.8018H107.67L107.439 53.0954Z" fill="#E0E0E0"/>
<path d="M78.8148 29.5654H29.7695V56.9556H78.8148V29.5654Z" fill="#E6E6E6"/>
<path d="M78.346 29.5654H29.3008V56.9556H78.346V29.5654Z" fill="#F5F5F5"/>
<path d="M74.8262 53.4361V33.0859L32.821 33.0859L32.821 53.4361L74.8262 53.4361Z" fill="white"/>
<path d="M40.2266 53.4351L42.8201 33.085H50.1413L47.5478 53.4351H40.2266Z" fill="#FAFAFA"/>
<path d="M49.457 53.4351L52.0506 33.085H56.2168L53.6229 53.4351H49.457Z" fill="#FAFAFA"/>
<path d="M64.5078 53.4351L67.1017 33.085H71.2676L68.6741 53.4351H64.5078Z" fill="#FAFAFA"/>
<path d="M33.2832 53.4351L33.2832 33.085H32.8207L32.8207 53.4351H33.2832Z" fill="#E6E6E6"/>
<path d="M79.4115 70.3037H77.9219V87.9604H79.4115V70.3037Z" fill="#F5F5F5"/>
<path d="M79.2195 70.2852H78.7988V87.9418H79.2195V70.2852Z" fill="#FAFAFA"/>
<path d="M82.458 89.6359H74.877V88.8182C74.877 87.9998 75.5405 87.3359 76.3592 87.3359H80.9761C81.7945 87.3359 82.458 87.9995 82.458 88.8182V89.6359Z" fill="#F0F0F0"/>
<path d="M80.8382 88.3321V87.1294C80.8382 86.9977 80.7305 86.8896 80.5988 86.8896H80.0268C79.8952 86.8896 79.7871 86.9974 79.7871 87.1294V88.3321C79.7871 88.4638 79.8948 88.5719 80.0268 88.5719H80.5988C80.7305 88.5719 80.8382 88.4641 80.8382 88.3321Z" fill="#F0F0F0"/>
<path d="M87.2336 72.4959H70.0996L70.2203 72.083C71.3172 68.3307 74.7576 65.752 78.6666 65.752C82.5759 65.752 86.0163 68.3311 87.1128 72.083L87.2336 72.4959Z" fill="#E0E0E0"/>
<path d="M29.0951 70.3037H27.6055V87.9604H29.0951V70.3037Z" fill="#F5F5F5"/>
<path d="M28.9031 70.2852H28.4824V87.9418H28.9031V70.2852Z" fill="#FAFAFA"/>
<path d="M32.1416 89.6359H24.5605V88.8182C24.5605 87.9998 25.2241 87.3359 26.0428 87.3359H30.6596C31.478 87.3359 32.1419 87.9995 32.1419 88.8182L32.1416 89.6359Z" fill="#F0F0F0"/>
<path d="M30.5218 88.3321V87.1294C30.5218 86.9977 30.4141 86.8896 30.2821 86.8896H29.7101C29.5784 86.8896 29.4707 86.9974 29.4707 87.1294V88.3321C29.4707 88.4638 29.5784 88.5719 29.7101 88.5719H30.2821C30.4137 88.5719 30.5218 88.4641 30.5218 88.3321Z" fill="#F0F0F0"/>
<path d="M36.9172 72.4959H19.7832L19.9039 72.083C21.0004 68.3307 24.4412 65.752 28.3502 65.752C32.2595 65.752 35.6999 68.3311 36.7964 72.083L36.9172 72.4959Z" fill="#E0E0E0"/>
<path d="M88.0009 150.502C125.694 150.502 156.25 148.717 156.25 146.516C156.25 144.315 125.694 142.53 88.0009 142.53C50.308 142.53 19.752 144.315 19.752 146.516C19.752 148.717 50.308 150.502 88.0009 150.502Z" fill="#F5F5F5"/>
<path d="M111.338 57.1846C110.213 56.0592 110.213 54.2183 111.338 53.0929L112.713 51.718C113.838 50.5927 115.679 50.5927 116.805 51.718C117.93 52.8434 117.93 54.6843 116.805 55.8097L115.43 57.1846C114.304 58.3096 112.463 58.3096 111.338 57.1846Z" fill="#66805D"/>
<path opacity="0.4" d="M111.338 57.1846C110.213 56.0592 110.213 54.2183 111.338 53.0929L112.713 51.718C113.838 50.5927 115.679 50.5927 116.805 51.718C117.93 52.8434 117.93 54.6843 116.805 55.8097L115.43 57.1846C114.304 58.3096 112.463 58.3096 111.338 57.1846Z" fill="white"/>
<path d="M113.271 55.2515C111.821 53.8016 111.821 51.4291 113.271 49.9792L115.961 47.2896C117.411 45.8397 119.783 45.8397 121.233 47.2896C122.683 48.7395 122.683 51.1119 121.233 52.5618L118.543 55.2515C117.093 56.7017 114.721 56.7017 113.271 55.2515Z" fill="#66805D"/>
<path d="M117.021 51.5017C114.546 49.0268 110.496 49.0268 108.021 51.5017L117.021 60.5009C119.496 58.026 119.496 53.9766 117.021 51.5017Z" fill="#66805D"/>
<path d="M120.671 68.9528C120.369 68.9528 120.125 68.7085 120.125 68.4072C120.125 68.1059 120.369 67.862 120.671 67.862C126.105 67.862 130.526 63.4409 130.526 58.0067C130.526 52.5725 126.105 48.1514 120.671 48.1514C120.369 48.1514 120.125 47.9071 120.125 47.6058C120.125 47.3045 120.369 47.0605 120.671 47.0605C126.706 47.0605 131.617 51.9709 131.617 58.0067C131.617 64.0424 126.706 68.9528 120.671 68.9528Z" fill="#66805D"/>
<path d="M133.942 143.035L121.489 83.917L119.823 84.3714L126.289 115.064L116.634 143.035H108.041L108.067 142.652H106.148L106.008 144.732H106.614H107.927H134.441L134.555 143.035H133.942ZM126.536 116.237L132.18 143.036H117.286L126.536 116.237Z" fill="#66805D"/>
<path d="M71.9301 143.035L59.4774 83.917L57.8117 84.3714L64.2769 115.064L54.6223 143.035H46.0296L46.0553 142.652H44.1362L43.9961 144.732H44.6022H45.9152H72.4296L72.5436 143.035H71.9301ZM64.524 116.237L70.1691 143.036H55.2745L64.524 116.237Z" fill="#66805D"/>
<path d="M127.167 113.266L125.567 117.902H63.709L65.3088 113.266H127.167Z" fill="#66805D"/>
<path d="M124.733 116.763L125.568 117.902H63.7099L62.875 116.763H124.733Z" fill="#66805D"/>
<path opacity="0.2" d="M124.733 116.763L125.568 117.902H63.7099L62.875 116.763H124.733Z" fill="black"/>
<path d="M114.781 106.119H39.227L38.1348 105.027L135.394 63.6514L136.486 64.7436L114.781 106.119Z" fill="#66805D"/>
<path opacity="0.4" d="M114.781 106.119H39.227L38.1348 105.027L135.394 63.6514L136.486 64.7436L114.781 106.119Z" fill="black"/>
<path d="M50.9346 77.9633L48.8379 81.9639L49.1497 82.1273L51.2464 78.1267L50.9346 77.9633Z" fill="#66805D"/>
<path d="M48.1474 83.2773L47.1504 85.1797L47.4622 85.3431L48.4592 83.4407L48.1474 83.2773Z" fill="#66805D"/>
<path d="M113.688 105.027H38.1348L59.8401 63.6514H135.394L113.688 105.027Z" fill="#66805D"/>
<path opacity="0.3" d="M106.09 98.3894L52.6172 98.5827L68.4371 68.9756C81.1091 69.8834 100.09 69.9672 120.851 69.5553L106.09 98.3894Z" fill="black"/>
<path d="M105.32 98.5824H52.3145L67.5423 69.5551C83.8691 70.1595 101.353 69.7748 120.184 69.251C117.266 76.5662 111.973 87.1812 105.32 98.5824Z" fill="white"/>
<g opacity="0.6">
<path d="M61.6511 95.1592C66.6323 95.1335 71.6134 95.1109 76.5946 95.0888C81.9401 95.0648 87.2855 95.0416 92.631 95.017C95.3136 95.0046 97.9965 94.9916 100.679 94.9779C100.854 94.9768 100.855 94.7044 100.679 94.7051C95.698 94.7308 90.7168 94.753 85.7357 94.7755C80.3902 94.7994 75.0447 94.8226 69.6993 94.8473C67.0167 94.8596 64.3337 94.8726 61.6511 94.8864C61.4758 94.8874 61.4755 95.1602 61.6511 95.1592Z" fill="#66805D"/>
<path d="M100.02 95.4245C103.213 89.3437 106.436 83.2791 109.691 77.2317C110.63 75.4886 111.571 73.7473 112.514 72.007C112.598 71.8528 112.362 71.7148 112.278 71.8694C109.001 77.9164 105.753 83.9799 102.538 90.0607C101.617 91.8014 100.7 93.5438 99.7845 95.2869C99.7029 95.4421 99.9384 95.5804 100.02 95.4245Z" fill="#66805D"/>
<path d="M112.669 72.1367C107.665 72.1624 102.66 72.1849 97.6552 72.2075C92.2478 72.2318 86.84 72.2553 81.4326 72.2803C78.7574 72.2927 76.0822 72.3053 73.407 72.3194C73.2317 72.3205 73.2313 72.5929 73.407 72.5922C78.4114 72.5665 83.4161 72.544 88.4209 72.5215C93.8283 72.4972 99.2361 72.4736 104.643 72.4486C107.319 72.4363 109.994 72.4236 112.669 72.4099C112.845 72.4088 112.845 72.136 112.669 72.1367Z" fill="#66805D"/>
<path d="M74.3547 71.6435C71.1275 77.7905 67.8687 83.9205 64.5782 90.0337C63.6349 91.7863 62.689 93.5372 61.7404 95.287C61.6566 95.4411 61.8921 95.5791 61.9759 95.4246C65.2893 89.3118 68.5717 83.1824 71.8217 77.0358C72.7471 75.2856 73.67 73.5341 74.5902 71.7811C74.6718 71.6259 74.4367 71.4879 74.3547 71.6435Z" fill="#66805D"/>
<path d="M79.6831 92.2084C81.5212 88.5973 83.359 84.9861 85.1972 81.3749C85.6914 80.4037 86.1856 79.4326 86.6802 78.4614C86.7597 78.3055 86.5242 78.1671 86.4447 78.3238C84.5516 82.043 82.6586 85.7622 80.7659 89.4815C80.3266 90.3446 79.8873 91.2077 79.448 92.0704C79.3681 92.2271 79.6032 92.3651 79.6831 92.2084Z" fill="#66805D"/>
<path d="M66.6247 92.2718C67.6821 90.1939 68.7396 88.1164 69.7973 86.0386C69.8769 85.8826 69.6414 85.7443 69.5618 85.9009C68.5044 87.9788 67.447 90.0563 66.3892 92.1341C66.3097 92.2904 66.5448 92.4284 66.6247 92.2718Z" fill="#66805D"/>
<path d="M97.8613 92.2277C100.499 87.4736 102.827 82.5505 105.324 77.7225C105.937 76.538 106.556 75.3563 107.204 74.1901C107.289 74.0367 107.053 73.8987 106.968 74.0525C104.331 78.8066 102.002 83.7297 99.5052 88.5577C98.8923 89.7422 98.2732 90.9239 97.6258 92.0901C97.5403 92.2435 97.7758 92.3812 97.8613 92.2277Z" fill="#66805D"/>
<path d="M83.3928 92.1907C85.7874 87.4827 88.2042 82.7856 90.5926 78.0744C90.8626 77.5415 91.1325 77.0086 91.4015 76.4753C91.5468 76.1877 91.6919 75.9001 91.8365 75.6126C91.9083 75.4696 91.9805 75.3267 92.0523 75.1838C92.1107 75.0673 92.2037 74.7452 92.323 74.6819C92.4212 74.6301 92.7426 74.6773 92.8549 74.6762C93.0791 74.6738 93.303 74.6713 93.5272 74.6692C94.0073 74.6639 94.4874 74.659 94.9672 74.6541C97.1088 74.6319 99.2504 74.6118 101.392 74.6016C103.555 74.5911 105.718 74.584 107.88 74.6224C108.056 74.6255 108.056 74.3527 107.88 74.3496C102.661 74.257 97.4383 74.3556 92.2195 74.4105C92.1737 74.4108 92.1231 74.4355 92.1019 74.4781C89.1522 80.3526 86.1366 86.194 83.1566 92.0531C83.0777 92.2094 83.3129 92.3473 83.3928 92.1907Z" fill="#66805D"/>
<path d="M97.8767 92.1233C96.5926 87.4955 95.0673 82.9353 93.59 78.3671C93.1746 77.0826 92.7603 75.7978 92.352 74.5109C92.2992 74.3441 92.0359 74.4155 92.0891 74.5834C93.5759 79.2696 95.1409 83.9312 96.5725 88.6349C96.9326 89.818 97.2832 91.0042 97.6137 92.1958C97.6605 92.3644 97.9235 92.2929 97.8767 92.1233Z" fill="#66805D"/>
<path d="M107.123 74.3875C104.215 76.8378 101.096 79.0346 97.9888 81.2227C94.6254 83.5916 91.2321 85.9205 87.924 88.3669C86.2915 89.5742 84.6779 90.8101 83.1273 92.1216C82.9932 92.235 83.1868 92.4272 83.3202 92.3145C86.2848 89.8069 89.4602 87.5527 92.6306 85.3154C95.9732 82.957 99.3493 80.6447 102.644 78.2194C104.234 77.049 105.806 75.8526 107.316 74.5804C107.451 74.4674 107.257 74.2752 107.123 74.3875Z" fill="#66805D"/>
<path d="M82.8835 92.1528C86.9079 92.2661 90.9366 92.3143 94.9624 92.3168C95.9353 92.3175 96.9086 92.3143 97.8819 92.2957C98.0572 92.2921 98.0575 92.0197 97.8819 92.0229C93.8427 92.101 89.7968 92.0215 85.7583 91.9451C84.8002 91.9271 83.8417 91.9067 82.8839 91.8799C82.7079 91.875 82.7082 92.1478 82.8835 92.1528Z" fill="#66805D"/>
<path d="M77.2998 92.3169C79.8656 87.5413 82.2388 82.6629 84.7168 77.8419C85.3293 76.6501 85.946 75.4603 86.5803 74.2797C86.6634 74.1252 86.4279 73.9872 86.3448 74.1421C83.7791 78.9176 81.4059 83.796 78.9278 88.617C78.3154 89.8089 77.6987 90.9986 77.0644 92.1792C76.9813 92.3338 77.2168 92.4714 77.2998 92.3169Z" fill="#66805D"/>
<path d="M69.7202 92.2568C71.325 89.1029 72.9357 85.9518 74.5433 82.7993C75.3473 81.2227 76.1506 79.6457 76.9517 78.0677C77.3438 77.2954 77.7353 76.5231 78.126 75.7505C78.2541 75.4974 78.4477 74.8568 78.7216 74.747C78.8926 74.6783 79.2309 74.7392 79.4157 74.736C79.6755 74.7318 79.9356 74.7272 80.1954 74.7227C82.2387 74.6871 84.2832 74.648 86.3265 74.7118C86.5022 74.7174 86.5018 74.4446 86.3265 74.439C83.734 74.358 81.1405 74.4393 78.548 74.4766C78.5023 74.4773 78.4519 74.5016 78.4305 74.5442C75.4684 80.4127 72.4658 86.2605 69.4851 92.1192C69.4052 92.2751 69.6403 92.4135 69.7202 92.2568Z" fill="#66805D"/>
<path d="M77.3184 92.2482C77.8453 86.3754 78.1406 80.4843 78.6838 74.613C78.7 74.4384 78.4272 74.4394 78.411 74.613C77.8675 80.4843 77.5721 86.3754 77.0456 92.2482C77.0301 92.4228 77.3029 92.4217 77.3184 92.2482Z" fill="#66805D"/>
<path d="M86.3783 74.478C82.0146 79.1864 77.4804 83.7339 73.0467 88.3757C71.8411 89.638 70.6418 90.9062 69.4573 92.1882C69.3383 92.317 69.5309 92.5103 69.6502 92.3811C74.0418 87.6281 78.6083 83.0397 83.0829 78.3659C84.2543 77.1423 85.4198 75.9131 86.5712 74.6709C86.6905 74.5425 86.498 74.3492 86.3783 74.478Z" fill="#66805D"/>
<path d="M69.3813 92.2173C71.9756 92.3451 74.5839 92.4556 77.1817 92.3838C77.357 92.3789 77.3577 92.1061 77.1817 92.111C74.5839 92.1828 71.9756 92.0723 69.3813 91.9445C69.206 91.9361 69.2064 92.2089 69.3813 92.2173Z" fill="#66805D"/>
<path d="M73.5541 76.0563C73.439 76.2752 73.3664 76.5385 73.4449 76.7824C73.5132 76.995 73.6818 77.1443 73.8952 77.2031C74.3908 77.3393 74.9624 77.0876 75.3465 76.786C75.7263 76.4875 76.0286 75.9837 75.9646 75.4853C75.9086 75.0485 75.533 74.7479 75.0934 74.7708C74.7829 74.7869 74.5277 74.9651 74.3074 75.1703C74.1947 75.2752 74.0842 75.3864 73.9839 75.5033C73.8934 75.6082 73.8036 75.725 73.7776 75.8641C73.7456 76.0355 74.0081 76.1091 74.0405 75.9366C74.0761 75.7472 74.2679 75.5923 74.3978 75.4624C74.5425 75.3178 74.7005 75.166 74.8934 75.0886C75.1972 74.9668 75.5802 75.0911 75.6752 75.422C75.7766 75.7757 75.577 76.177 75.3373 76.428C75.0543 76.7244 74.622 76.9479 74.2084 76.963C74.0398 76.9693 73.8424 76.9408 73.7441 76.7867C73.629 76.6057 73.6977 76.3681 73.7892 76.1939C73.8712 76.039 73.6357 75.9007 73.5541 76.0563Z" fill="#66805D"/>
</g>
<path opacity="0.2" d="M135.394 63.6523L113.686 105.026H38.1328L59.8407 63.6523H81.4992L70.4605 68.7106C70.4534 68.7141 70.4429 68.7176 70.4359 68.7211C64.8039 70.7733 60.3018 73.9167 57.9997 77.8415C52.7303 86.8315 61.0163 96.5115 76.5149 99.4613C92.0099 102.411 108.846 97.5112 114.116 88.5211C115.277 86.5359 115.78 84.5189 115.692 82.5477L116.829 63.6523H135.394Z" fill="black"/>
<path d="M66.8666 56.7023C65.9525 58.3144 65.0278 59.9818 64.1439 61.6313C63.2615 63.2836 62.3931 64.9489 61.6602 66.6104C61.4677 67.0261 61.3075 67.4365 61.1375 67.8494C61.1216 67.8888 61.1319 67.8617 61.129 67.8645C61.129 67.8617 61.1266 67.8554 61.1266 67.8554C61.1262 67.8533 61.1209 67.8483 61.1195 67.8533C61.1118 67.8554 61.1076 67.8793 61.1009 67.9085C61.0938 67.9747 61.0942 68.0884 61.1164 68.2253C61.1593 68.5024 61.2786 68.8586 61.4384 69.2187C61.5979 69.5816 61.788 69.9614 62.0052 70.338C62.8781 71.8474 64.0158 73.3804 65.1496 74.8324L63.7768 76.2946C62.1618 75.0795 60.7091 73.7595 59.3993 72.1153C58.7576 71.2744 58.1293 70.4 57.7139 69.1162C57.615 68.7899 57.5334 68.4291 57.5094 68.0159C57.5003 67.8057 57.4999 67.5893 57.5288 67.3545C57.54 67.2401 57.5629 67.1186 57.5872 66.9993C57.5985 66.9402 57.6168 66.8775 57.633 66.817L57.6787 66.661C57.8385 66.1739 57.9941 65.6797 58.1719 65.2108C58.8667 63.3139 59.6918 61.5349 60.5577 59.7773C61.4399 58.0247 62.3603 56.3312 63.3847 54.6367L66.8666 56.7023Z" fill="#FFC3BD"/>
<path d="M64.6555 74.3623L66.5313 74.9776L64.9557 77.6317C64.9557 77.6317 63.5784 77.0108 63.3027 75.7464L64.6555 74.3623Z" fill="#FFC3BD"/>
<path d="M69.0916 76.004L67.2647 78.0491L64.957 77.6316L66.5326 74.9775L69.0916 76.004Z" fill="#FFC3BD"/>
<path d="M77.8211 44.351C77.7676 44.5597 77.8349 44.7572 77.9711 44.7924C78.1077 44.8272 78.2615 44.6868 78.315 44.4781C78.3685 44.2693 78.3013 44.0718 78.165 44.0366C78.0285 44.0014 77.8746 44.1422 77.8211 44.351Z" fill="#263238"/>
<path d="M77.8148 44.752C77.8148 44.752 77.9802 46.0779 78.3537 46.7928C77.8961 47.0428 77.3086 46.7242 77.3086 46.7242L77.8148 44.752Z" fill="#ED847E"/>
<path d="M77.3545 42.9957C77.3267 42.9823 77.3038 42.9587 77.2919 42.9278C77.2665 42.8626 77.2986 42.7894 77.3637 42.7637C78.0156 42.5085 78.4943 42.8426 78.5151 42.857C78.5721 42.8975 78.5851 42.9767 78.5446 43.0334C78.5038 43.09 78.4243 43.1027 78.3686 43.0633C78.3528 43.0524 77.9762 42.7961 77.4563 42.9992C77.4218 43.0133 77.3852 43.0105 77.3545 42.9957Z" fill="#263238"/>
<path d="M70.6429 45.167C71.0259 47.1213 71.4085 50.7022 70.041 52.006C70.041 52.006 70.5754 53.9885 74.2066 53.9885C78.1997 53.9885 76.1148 52.0064 76.1148 52.0064C73.9355 51.4857 73.9919 49.869 74.3713 48.3505L70.6429 45.167Z" fill="#FFC3BD"/>
<path d="M69.3746 53.0126C69.1849 51.9605 68.9801 50.7577 69.6686 50.4525C70.4261 50.1167 74.4023 50.078 75.6878 50.9657C76.9733 51.8535 76.3911 53.8951 76.3911 53.8951L69.3746 53.0126Z" fill="#263238"/>
<path opacity="0.6" d="M69.3746 53.0126C69.1849 51.9605 68.9801 50.7577 69.6686 50.4525C70.4261 50.1167 74.4023 50.078 75.6878 50.9657C76.9733 51.8535 76.3911 53.8951 76.3911 53.8951L69.3746 53.0126Z" fill="#66805D"/>
<path d="M56.6283 142.616C56.8961 142.674 57.1644 142.689 57.2932 142.58C57.3474 142.534 57.402 142.445 57.3544 142.286C57.3295 142.202 57.2749 142.139 57.1918 142.1C56.831 141.927 56.0021 142.265 55.9669 142.28C55.944 142.289 55.9285 142.311 55.9278 142.336C55.9267 142.361 55.9412 142.384 55.9633 142.395C56.0904 142.456 56.3593 142.558 56.6283 142.616ZM57.063 142.19C57.0901 142.196 57.1151 142.204 57.1373 142.214C57.1876 142.238 57.2189 142.274 57.2334 142.322C57.2671 142.436 57.2249 142.472 57.2112 142.484C57.0676 142.606 56.5343 142.493 56.1583 142.343C56.4132 142.253 56.8257 142.138 57.063 142.19Z" fill="#66805D"/>
<path d="M55.9776 142.4C55.9878 142.402 55.9984 142.402 56.0089 142.399C56.3109 142.311 56.9572 141.852 56.965 141.549C56.9664 141.494 56.9474 141.394 56.803 141.344C56.7094 141.311 56.6154 141.319 56.5225 141.367C56.1656 141.549 55.9399 142.289 55.9304 142.32C55.9237 142.342 55.9297 142.367 55.9459 142.383C55.9547 142.392 55.9656 142.398 55.9776 142.4ZM56.7337 141.456C56.7428 141.458 56.752 141.461 56.7615 141.464C56.8396 141.491 56.8386 141.529 56.8382 141.546C56.8337 141.725 56.4074 142.085 56.0945 142.231C56.1726 142.017 56.3511 141.596 56.5799 141.48C56.632 141.453 56.6827 141.445 56.7337 141.456Z" fill="#66805D"/>
<path d="M76.3237 143.925C76.6666 143.925 76.9978 143.878 77.1087 143.724C77.1478 143.67 77.178 143.578 77.1034 143.447C77.0619 143.373 76.994 143.324 76.9028 143.299C76.4582 143.178 75.5247 143.71 75.4849 143.733C75.462 143.746 75.4497 143.772 75.4539 143.798C75.4582 143.824 75.4782 143.845 75.5039 143.85C75.6746 143.884 76.0041 143.925 76.3237 143.925ZM76.7472 143.407C76.7919 143.407 76.8331 143.411 76.8697 143.421C76.9281 143.437 76.9686 143.466 76.9936 143.51C77.0383 143.588 77.0221 143.627 77.0059 143.649C76.8817 143.822 76.2065 143.826 75.7099 143.756C75.9573 143.629 76.4353 143.407 76.7472 143.407Z" fill="#66805D"/>
<path d="M75.5161 143.851C75.5249 143.851 75.5337 143.849 75.5421 143.845C75.8645 143.701 76.5031 143.123 76.4545 142.821C76.4429 142.75 76.3925 142.662 76.219 142.644C76.0891 142.631 75.9719 142.668 75.8681 142.753C75.5284 143.032 75.4562 143.751 75.4534 143.782C75.4513 143.804 75.4612 143.826 75.4795 143.839C75.4904 143.847 75.503 143.851 75.5161 143.851ZM76.168 142.768C76.1803 142.768 76.1933 142.769 76.206 142.77C76.3197 142.782 76.3271 142.826 76.3295 142.841C76.3588 143.022 75.9247 143.476 75.596 143.674C75.6301 143.464 75.7255 143.033 75.9487 142.85C76.0156 142.795 76.0877 142.768 76.168 142.768Z" fill="#66805D"/>
<path d="M72.5781 143.788H75.2495L75.5156 137.602H72.8442L72.5781 143.788Z" fill="#FFC3BD"/>
<path d="M53 141.691L55.6108 142.256L58.2321 136.494L55.6213 135.929L53 141.691Z" fill="#FFC3BD"/>
<path d="M55.8609 141.994L52.9277 141.359C52.821 141.336 52.7126 141.39 52.6669 141.489L51.6489 143.698C51.5433 143.927 51.683 144.196 51.9305 144.245C52.9583 144.449 53.4687 144.497 54.7588 144.776C55.5522 144.948 57.3439 145.385 58.4397 145.622C59.5115 145.854 59.9131 144.807 59.4858 144.611C57.5695 143.736 56.7687 142.965 56.2499 142.247C56.1566 142.117 56.0172 142.028 55.8609 141.994Z" fill="#263238"/>
<path d="M75.2327 143.479H72.3153C72.2062 143.479 72.1115 143.554 72.0879 143.661L71.5603 146.035C71.5057 146.281 71.6926 146.515 71.9447 146.511C72.9972 146.493 74.5178 146.431 75.8403 146.431C77.387 146.431 78.7224 146.516 80.5363 146.516C81.6331 146.516 81.9373 145.407 81.4782 145.306C79.3884 144.849 77.6819 144.8 75.8762 143.687C75.6801 143.566 75.4633 143.479 75.2327 143.479Z" fill="#263238"/>
<path d="M80.5587 55.2324C81.4292 57.1931 82.3775 59.2062 83.3624 61.1312C83.858 62.0964 84.373 63.0458 84.9095 63.9624C85.4501 64.8748 86.0193 65.7576 86.6191 66.532L86.8462 66.8115C86.9004 66.8643 86.8557 66.8417 86.9317 66.9047C87.0179 66.9917 87.2063 67.1181 87.3854 67.2349C87.7652 67.4796 88.2232 67.721 88.6914 67.9495C89.6351 68.4036 90.6369 68.8414 91.6531 69.2505C93.6848 70.078 95.7771 70.8725 97.8507 71.6638L97.3453 73.6047C95.0882 73.2411 92.8787 72.7687 90.6636 72.1622C89.5594 71.8475 88.4523 71.5216 87.3365 71.0907C86.7758 70.875 86.215 70.6465 85.6198 70.3371C85.3174 70.1692 85.0214 70.0094 84.6719 69.7429C84.5209 69.6412 84.2811 69.4152 84.1382 69.2698L83.8105 68.9182C82.9675 67.9769 82.2666 67.0061 81.6186 66.0198C80.9664 65.0363 80.3782 64.0338 79.8167 63.0229C78.6974 60.9904 77.7163 58.9531 76.8223 56.7939L80.5587 55.2324Z" fill="#FFC3BD"/>
<path d="M64.4359 52.61C61.9321 53.1841 57.7285 65.6157 57.7285 65.6157L61.8195 66.9758C61.8195 66.9758 65.9945 60.7919 67.411 57.8101C68.8947 54.6857 66.996 52.0232 64.4359 52.61Z" fill="#66805D"/>
<path opacity="0.5" d="M64.4359 52.61C61.9321 53.1841 57.7285 65.6157 57.7285 65.6157L61.8195 66.9758C61.8195 66.9758 65.9945 60.7919 67.411 57.8101C68.8947 54.6857 66.996 52.0232 64.4359 52.61Z" fill="black"/>
<path d="M62.5293 66.3659C62.5293 66.3659 58.5215 65.6013 57.6108 65.0332C57.2898 65.4968 56.8952 67.1793 57.167 67.6753C57.4391 68.1713 61.16 68.888 61.6673 68.5958C62.1745 68.3036 62.5293 66.3659 62.5293 66.3659Z" fill="#263238"/>
<path opacity="0.6" d="M62.5293 66.3659C62.5293 66.3659 58.5215 65.6013 57.6108 65.0332C57.2898 65.4968 56.8952 67.1793 57.167 67.6753C57.4391 68.1713 61.16 68.888 61.6673 68.5958C62.1745 68.3036 62.5293 66.3659 62.5293 66.3659Z" fill="#66805D"/>
<path opacity="0.3" d="M66.0563 57.0379C65.2928 57.8014 64.598 59.9687 64.5762 62.7252C65.4597 61.3218 66.3724 59.8089 67.0088 58.6015C66.7072 57.4998 66.3689 56.7215 66.0563 57.0379Z" fill="black"/>
<path d="M79.4015 52.7477C79.4015 52.7477 82.2446 55.9593 79.5596 75.8375C75.2546 75.8375 67.3663 75.8375 65.2712 75.8375C65.1726 73.6442 66.5511 62.9448 64.4355 52.6101C64.4355 52.6101 66.8848 52.1187 69.2185 52.006C71.0443 51.918 73.6875 51.8599 75.2923 52.0064C77.4085 52.1996 79.4015 52.7477 79.4015 52.7477Z" fill="#66805D"/>
<path opacity="0.5" d="M79.4015 52.7477C79.4015 52.7477 82.2446 55.9593 79.5596 75.8375C75.2546 75.8375 67.3663 75.8375 65.2712 75.8375C65.1726 73.6442 66.5511 62.9448 64.4355 52.6101C64.4355 52.6101 66.8848 52.1187 69.2185 52.006C71.0443 51.918 73.6875 51.8599 75.2923 52.0064C77.4085 52.1996 79.4015 52.7477 79.4015 52.7477Z" fill="black"/>
<path opacity="0.3" d="M77.2832 59.0957C77.5525 61.9976 79.4103 65.6809 80.4723 67.3466C80.6142 65.4338 80.687 63.7646 80.7089 62.3066L77.2832 59.0957Z" fill="black"/>
<path d="M75.8635 54.8172C74.1426 58.0722 83.1292 68.661 83.1292 68.661L86.2672 65.474C86.2672 65.474 82.1939 58.3481 81.2361 55.1858C80.0534 51.2796 77.1737 52.3395 75.8635 54.8172Z" fill="#66805D"/>
<path opacity="0.5" d="M75.8635 54.8172C74.1426 58.0722 83.1292 68.661 83.1292 68.661L86.2672 65.474C86.2672 65.474 82.1939 58.3481 81.2361 55.1858C80.0534 51.2796 77.1737 52.3395 75.8635 54.8172Z" fill="black"/>
<path d="M86.1429 64.8457C86.1429 64.8457 83.418 67.8824 82.4609 68.3689C82.6918 68.8831 83.9288 70.0905 84.4937 70.1137C85.059 70.137 87.5945 67.3213 87.6065 66.7359C87.6184 66.1506 86.1429 64.8457 86.1429 64.8457Z" fill="#263238"/>
<path opacity="0.6" d="M86.1429 64.8457C86.1429 64.8457 83.418 67.8824 82.4609 68.3689C82.6918 68.8831 83.9288 70.0905 84.4937 70.1137C85.059 70.137 87.5945 67.3213 87.6065 66.7359C87.6184 66.1506 86.1429 64.8457 86.1429 64.8457Z" fill="#66805D"/>
<path d="M97.2516 71.6732L99.8395 70.5566L100.645 73.3645C100.645 73.3645 98.6708 74.6557 97.0879 73.5247L97.2516 71.6732Z" fill="#FFC3BD"/>
<path d="M102.725 71.893C102.64 71.95 102.524 71.9275 102.467 71.843L99.594 67.5831C99.537 67.4986 99.5595 67.3825 99.644 67.3255C99.7288 67.2684 99.8446 67.291 99.9017 67.3754L102.775 71.6353C102.832 71.7198 102.809 71.836 102.725 71.893Z" fill="#263238"/>
<path d="M102.567 70.7657L103.704 72.4479L100.645 73.3645L99.8398 70.5566L102.567 70.7657Z" fill="#FFC3BD"/>
<path opacity="0.2" d="M75.516 137.604L75.3794 140.792H72.707L72.8436 137.604H75.516Z" fill="black"/>
<path opacity="0.2" d="M55.62 135.931L58.2321 136.496L56.8794 139.466L54.2676 138.9L55.62 135.931Z" fill="black"/>
<path d="M70.9742 42.1216C70.4737 44.725 70.0485 46.2234 71.0052 47.8715C72.4445 50.3503 75.9096 49.9888 77.1779 47.5871C78.3194 45.4255 78.9463 41.5309 76.6995 39.867C74.4854 38.2274 71.4748 39.5182 70.9742 42.1216Z" fill="#FFC3BD"/>
<path d="M69.9453 40.8435C71.8296 40.226 75.3978 38.9001 76.6601 41.9304C77.9223 44.9608 72.7979 48.1235 71.4821 48.1274C70.4335 48.1299 67.8759 41.5211 69.9453 40.8435Z" fill="#263238"/>
<path d="M73.8692 42.1079C77.5574 44.1333 80.8909 41.2244 79.4114 37.9325C77.9316 34.6406 74.6464 35.0999 75.6644 36.7223C76.6824 38.3447 73.8674 35.8951 71.9265 36.6427C70.5628 37.1679 72.3313 38.0247 72.4964 38.6407C72.6615 39.2567 68.9306 39.2785 68.4332 40.2099C67.9359 41.1413 69.7293 43.0745 70.6459 42.7711C71.5622 42.468 73.2095 41.7457 73.8692 42.1079Z" fill="#263238"/>
<path d="M74.9332 43.6694C74.7966 44.3502 74.9413 45.063 75.207 45.5741C75.6065 46.3428 76.2961 46.1116 76.595 45.3822C76.8642 44.7257 76.9804 43.5346 76.3824 43.0111C75.7928 42.4951 75.0895 42.8908 74.9332 43.6694Z" fill="#FFC3BD"/>
<path d="M74.4914 75.8369C74.4914 75.8369 71.4596 96.2519 69.7954 103.9C67.9727 112.276 58.2272 139.125 58.2272 139.125L53.4453 138.09C53.4453 138.09 60.7412 112.952 61.7814 104.66C62.9102 95.6598 65.2718 75.8373 65.2718 75.8373L74.4914 75.8369Z" fill="#CDD8C9"/>
<path d="M59.3712 137.529C59.3916 137.534 58.4799 139.259 58.4799 139.259L53.0996 138.094L53.553 136.477L59.3712 137.529Z" fill="#66805D"/>
<path opacity="0.3" d="M72.5743 83.1112C69.0687 83.7983 69.4397 96.8709 69.8618 103.594C70.8727 98.8418 72.3525 89.6965 73.3635 83.2056C73.1305 83.0894 72.8686 83.0532 72.5743 83.1112Z" fill="black"/>
<path d="M79.5584 75.8369C79.5584 75.8369 79.9263 95.8101 79.6359 103.956C79.3335 112.43 76.3739 140.174 76.3739 140.174H71.8486C71.8486 140.174 71.6824 112.925 71.4811 104.603C71.2614 95.531 70.166 75.8369 70.166 75.8369H79.5584Z" fill="#CDD8C9"/>
<path d="M77.245 138.372C77.2657 138.372 76.9898 140.251 76.9898 140.251H71.4848L71.3359 138.574L77.245 138.372Z" fill="#66805D"/>
</svg>
