<svg width="130" height="111" viewBox="0 0 130 111" fill="none" xmlns="http://www.w3.org/2000/svg">
<path d="M88.0653 4.62901C88.0653 4.62901 70.2587 27.0766 41.7681 13.6868C13.2776 0.296953 -15.213 36.5283 9.32053 58.582C33.8541 80.6358 9.84618 92.7543 26.5133 106.27C45.4566 121.632 61.9489 90.4813 76.9856 97.5701C110.172 113.215 134.758 107.022 129.218 88.9061C119.494 57.1064 107.059 55.0377 116.556 38.4973C126.053 21.957 105.093 -12.4345 88.0653 4.62901Z" fill="#F4F4F4"/>
<path d="M78.3705 66.7096L76.9638 74.2262L70.2633 109.958L58.1934 107.715L65.9325 66.4386L66.3005 64.4717L78.3705 66.7096Z" fill="#66805D"/>
<path d="M108.098 48.7393L103.936 70.9459C103.924 71.011 103.899 71.073 103.862 71.1285C103.826 71.184 103.779 71.2318 103.724 71.2693C103.669 71.3067 103.608 71.333 103.542 71.3467C103.477 71.3603 103.41 71.3611 103.345 71.3489L44.873 60.4953L51.7552 23.7715L96.1563 32.0134C104.204 33.5069 109.549 40.9938 108.098 48.7393Z" fill="#E0E2DF"/>
<path d="M64.2433 41.2818L60.114 63.3161L29.4219 57.6189L33.5512 35.5847C35.0715 27.472 43.1749 22.1705 51.6501 23.7437C60.1254 25.3169 65.7637 33.1689 64.2433 41.2818Z" fill="#66805D"/>
<path d="M78.5316 51.585C76.2698 51.1652 74.7775 48.9775 75.2034 46.7056C75.6294 44.4338 77.8135 42.9281 80.0752 43.3481C80.7962 43.4829 81.4685 43.8054 82.0236 44.2826C82.5788 44.7599 82.997 45.375 83.2358 46.0654L111.806 51.3686L111.034 55.4871L82.464 50.1839C81.9912 50.7423 81.3783 51.1661 80.6876 51.4122C79.9969 51.6583 79.253 51.7179 78.5316 51.585Z" fill="#66805D"/>
<path d="M63.2254 41.6889L59.2021 63.1569L30.2891 57.79L34.3126 36.3219C35.7938 28.4178 43.4673 23.2114 51.4513 24.6934C59.4353 26.1755 64.7066 33.7847 63.2254 41.6889Z" fill="#66805D"/>
<path d="M79.3412 49.5041C80.5036 49.5041 81.446 48.5662 81.446 47.4093C81.446 46.2523 80.5036 45.3145 79.3412 45.3145C78.1787 45.3145 77.2363 46.2523 77.2363 47.4093C77.2363 48.5662 78.1787 49.5041 79.3412 49.5041Z" fill="white"/>
<path d="M112.134 51.3596L109.611 64.8262C109.6 64.8842 109.566 64.9355 109.517 64.9689C109.469 65.0022 109.408 65.0149 109.35 65.0041L102.716 63.7726C102.704 63.7705 102.694 63.7639 102.688 63.7543C102.681 63.7447 102.679 63.7329 102.681 63.7214L105.237 50.0793C105.239 50.0679 105.246 50.0577 105.256 50.0511C105.265 50.0446 105.277 50.042 105.289 50.0442L112.099 51.3084C112.111 51.3105 112.121 51.3171 112.128 51.3267C112.134 51.3363 112.137 51.3481 112.134 51.3596Z" fill="#66805D"/>
<path d="M39.8561 50.0909C40.1355 52.1362 42.3906 54.5672 42.3906 54.5672C38.9543 54.8096 37.0934 52.8756 36.2926 51.7004C35.3026 51.9851 34.2851 52.1648 33.2571 52.2365C26.2026 52.7342 20.1297 48.1505 19.6911 41.9933C19.2525 35.8362 24.6152 30.4456 31.6697 29.9481C38.7242 29.4505 44.7967 34.034 45.2352 40.1912C45.5204 44.1962 43.349 47.8775 39.8561 50.0909Z" fill="white"/>
<path d="M60.144 63.3304C59.8245 64.1351 53.9825 88.1092 35.0776 84.6C14.3471 81.1071 29.3419 57.6128 29.3419 57.6128L60.144 63.3304Z" fill="#E0E2DF"/>
<path d="M32.463 43.1964C33.4317 43.1964 34.217 42.4148 34.217 41.4507C34.217 40.4866 33.4317 39.7051 32.463 39.7051C31.4943 39.7051 30.709 40.4866 30.709 41.4507C30.709 42.4148 31.4943 43.1964 32.463 43.1964Z" fill="#66805D"/>
<path d="M24.6103 42.444C25.5848 42.444 26.3749 41.6577 26.3749 40.6878C26.3749 39.7179 25.5848 38.9316 24.6103 38.9316C23.6357 38.9316 22.8457 39.7179 22.8457 40.6878C22.8457 41.6577 23.6357 42.444 24.6103 42.444Z" fill="#66805D"/>
<path d="M40.2411 43.9449C41.2157 43.9449 42.0057 43.1587 42.0057 42.1888C42.0057 41.2189 41.2157 40.4326 40.2411 40.4326C39.2666 40.4326 38.4766 41.2189 38.4766 42.1888C38.4766 43.1587 39.2666 43.9449 40.2411 43.9449Z" fill="#66805D"/>
<path d="M78.3697 66.7096L76.9629 74.2262L65.9316 66.4386L66.2996 64.4717L78.3697 66.7096Z" fill="#66805D"/>
</svg>
