<svg width="402" height="343" viewBox="0 0 402 343" fill="none" xmlns="http://www.w3.org/2000/svg">
<path d="M376 229.363H26V229.538H376V229.363Z" fill="#EBEBEB"/>
<path d="M340.93 240.635H317.746V240.81H340.93V240.635Z" fill="#EBEBEB"/>
<path d="M217.254 238.441H208.231V238.617H217.254V238.441Z" fill="#EBEBEB"/>
<path d="M270.769 239.186H251.771V239.361H270.769V239.186Z" fill="#EBEBEB"/>
<path d="M317.046 234.135H277.769V234.31H317.046V234.135Z" fill="#EBEBEB"/>
<path d="M81.2927 242.24H62.7217V242.415H81.2927V242.24Z" fill="#EBEBEB"/>
<path d="M103.623 242.24H87.5234V242.415H103.623V242.24Z" fill="#EBEBEB"/>
<path d="M160.267 238.357H117.7V238.533H160.267V238.357Z" fill="#EBEBEB"/>
<path d="M191.9 198.118H56.7371C55.6782 198.116 54.6634 197.694 53.9153 196.944C53.1672 196.194 52.7471 195.177 52.7471 194.118V3.96516C52.7563 2.91154 53.1805 1.9041 53.9276 1.16168C54.6747 0.419255 55.6842 0.00180491 56.7371 0H191.9C192.96 0 193.977 0.421447 194.726 1.17163C195.476 1.92181 195.897 2.93927 195.897 4.00019V194.118C195.897 195.179 195.476 196.196 194.726 196.946C193.977 197.697 192.96 198.118 191.9 198.118ZM56.7371 0.140112C55.7246 0.141968 54.7543 0.545781 54.039 1.26292C53.3238 1.98005 52.9221 2.95191 52.9221 3.96516V194.118C52.9221 195.131 53.3238 196.103 54.039 196.82C54.7543 197.537 55.7246 197.941 56.7371 197.943H191.9C192.913 197.941 193.884 197.537 194.601 196.82C195.317 196.103 195.72 195.132 195.722 194.118V3.96516C195.72 2.95126 195.317 1.97942 194.601 1.26249C193.884 0.545553 192.913 0.141964 191.9 0.140112H56.7371Z" fill="#EBEBEB"/>
<path d="M343.317 198.118H208.147C207.088 198.116 206.072 197.694 205.323 196.944C204.574 196.194 204.152 195.178 204.15 194.118V3.96516C204.161 2.9109 204.587 1.90347 205.335 1.16124C206.084 0.41901 207.094 0.00178523 208.147 0H343.317C344.369 0.00364605 345.377 0.421911 346.122 1.16414C346.868 1.90636 347.291 2.91275 347.3 3.96516V194.118C347.3 195.176 346.881 196.192 346.135 196.941C345.388 197.691 344.375 198.114 343.317 198.118ZM208.147 0.140112C207.134 0.141964 206.163 0.545553 205.447 1.26249C204.731 1.97942 204.327 2.95126 204.325 3.96516V194.118C204.327 195.132 204.731 196.103 205.447 196.82C206.163 197.537 207.134 197.941 208.147 197.943H343.317C344.33 197.941 345.302 197.537 346.018 196.82C346.734 196.103 347.138 195.132 347.139 194.118V3.96516C347.138 2.95126 346.734 1.97942 346.018 1.26249C345.302 0.545553 344.33 0.141964 343.317 0.140112H208.147Z" fill="#EBEBEB"/>
<path d="M211.43 169.108C210.03 165.079 198.977 170.558 194.49 177.234C191.501 181.676 189.674 186.425 188.827 192.8C188.925 185.529 189.044 177.71 189.156 170.334C190.066 168.498 192.138 164.26 193.622 160.897C198.599 149.688 210.422 145.485 214.503 138.437C219.858 129.162 219.823 115.256 215.273 110.233C211.311 105.875 198.2 135.369 196.723 138.661C192.693 147.48 190.155 156.907 189.212 166.558C189.324 159.629 189.429 153.247 189.513 148.343C189.793 132.335 190.136 127.186 190.297 125.603C190.843 124.832 191.487 123.929 191.865 123.445C195.036 119.361 202.078 114.492 205.592 108.551C210.73 99.8714 209.904 89.4891 206.292 85.6221C202.526 81.5798 195.862 91.1355 192.327 100.6C188.792 110.065 190.304 119.13 189.31 126.997C189.107 128.538 188.89 134.395 188.694 142.521C187.616 133.778 185.481 127.922 181.519 122.464C176.619 115.753 172.419 107.578 168.436 108.635C164.453 109.693 166.581 120.503 169.759 128.097C172.559 134.864 186.559 141.604 188.589 147.047C188.344 158.06 188.127 172.015 187.973 185.003C186.874 178.292 187.63 177.731 183.122 167.454C180.448 161.345 169.465 153.814 168.156 158.011C166.847 162.207 168.856 170.137 172.979 175.693C176.325 180.176 183.745 180.169 185.46 182.951C185.866 183.602 187.189 186.089 187.945 187.518C187.763 203.379 187.686 217.383 187.777 222.154L188.477 222.203C188.477 220.97 188.533 212.9 188.673 202.223C190.479 196.541 202.61 193.228 206.355 187.315C210.296 181.157 213.117 173.941 211.43 169.108Z" fill="#E6E6E6"/>
<path d="M200.027 229.363H176.745C176.127 229.364 175.528 229.151 175.05 228.76C174.571 228.369 174.243 227.825 174.12 227.219L172.468 219.064H204.304L202.645 227.219C202.523 227.824 202.196 228.368 201.719 228.759C201.241 229.15 200.644 229.363 200.027 229.363Z" fill="#F0F0F0"/>
<path d="M204.969 222.225H171.803C171.417 222.225 171.044 222.082 170.757 221.823C170.47 221.565 170.289 221.208 170.249 220.824L169.549 214.792C169.526 214.574 169.548 214.352 169.615 214.143C169.683 213.934 169.793 213.741 169.94 213.577C170.086 213.413 170.266 213.282 170.466 213.192C170.666 213.102 170.883 213.055 171.103 213.055H205.627C205.846 213.055 206.063 213.102 206.263 213.192C206.463 213.282 206.642 213.414 206.788 213.578C206.934 213.741 207.044 213.934 207.111 214.144C207.177 214.353 207.199 214.574 207.174 214.792L206.474 220.824C206.437 221.201 206.263 221.551 205.986 221.809C205.709 222.067 205.347 222.215 204.969 222.225Z" fill="#F0F0F0"/>
<path opacity="0.3" d="M306.539 226.441H328.834V131.229H306.539V226.441Z" fill="#F0F0F0"/>
<path opacity="0.5" d="M211.815 229.363H327.329V226.442H211.815V229.363Z" fill="#F0F0F0"/>
<path opacity="0.3" d="M306.532 131.229H210.317V226.441H306.532V131.229Z" fill="#F5F5F5"/>
<path opacity="0.3" d="M297.768 168.758H219.081V188.92H297.768V168.758Z" fill="#F0F0F0"/>
<path opacity="0.3" d="M297.768 194.707H219.081V214.869H297.768V194.707Z" fill="#F0F0F0"/>
<path opacity="0.3" d="M249.594 172.232H267.255C268.457 172.232 269.432 171.259 269.432 170.057C269.432 168.856 268.457 167.882 267.255 167.882H249.594C248.391 167.882 247.417 168.856 247.417 170.057C247.417 171.259 248.391 172.232 249.594 172.232Z" fill="#F5F5F5"/>
<path opacity="0.3" d="M297.768 142.809H219.081V162.971H297.768V142.809Z" fill="#F0F0F0"/>
<path opacity="0.3" d="M249.594 146.284H267.255C267.831 146.282 268.382 146.053 268.79 145.646C269.198 145.24 269.428 144.688 269.432 144.112C269.43 143.535 269.2 142.982 268.792 142.574C268.384 142.166 267.832 141.935 267.255 141.934H249.594C249.017 141.935 248.465 142.166 248.057 142.574C247.649 142.982 247.419 143.535 247.417 144.112C247.421 144.688 247.651 145.24 248.059 145.646C248.467 146.053 249.018 146.282 249.594 146.284Z" fill="#F5F5F5"/>
<path opacity="0.3" d="M249.594 198.181H267.255C267.831 198.181 268.384 197.952 268.792 197.545C269.2 197.138 269.43 196.585 269.432 196.009C269.43 195.432 269.2 194.878 268.792 194.47C268.384 194.062 267.832 193.832 267.255 193.83H249.594C249.017 193.832 248.465 194.062 248.057 194.47C247.649 194.878 247.419 195.432 247.417 196.009C247.419 196.585 247.649 197.138 248.057 197.545C248.465 197.952 249.018 198.181 249.594 198.181Z" fill="#F5F5F5"/>
<path opacity="0.3" d="M208.336 131.229H306.532V128.51H208.336V131.229Z" fill="#F0F0F0"/>
<path d="M330.948 128.518H306.532V131.236H330.948V128.518Z" fill="#E6E6E6"/>
<path d="M129.187 229.363H151.216L151.216 86.7786H129.187L129.187 229.363Z" fill="#E0E0E0"/>
<path opacity="0.3" d="M73.0469 229.363H146.806L154.555 53.8594H80.7959L73.0469 229.363Z" fill="#E6E6E6"/>
<path opacity="0.3" d="M62.2881 229.363H143.88L151.622 53.8594H70.0371L62.2881 229.363Z" fill="#F0F0F0"/>
<path opacity="0.3" d="M108.222 220.76L130.111 62.4688H123.244L101.355 220.76H108.222Z" fill="#FAFAFA"/>
<path opacity="0.3" d="M98.4434 220.76L120.332 62.4688H108.621L86.7324 220.76H98.4434Z" fill="#FAFAFA"/>
<path opacity="0.3" d="M231.429 101.666L320.7 101.666V18.0894L231.429 18.0894V101.666Z" fill="#81868B"/>
<path opacity="0.3" d="M233.088 96.4888V23.2734H232.535V96.4888H233.088Z" fill="#E6E6E6"/>
<path opacity="0.3" d="M226.62 27.5742L322.205 27.5742V14.782L226.62 14.782V27.5742Z" fill="#81868B"/>
<path opacity="0.3" d="M226.62 16.373L322.205 16.373V14.7828L226.62 14.7828V16.373Z" fill="#E0E0E0"/>
<path opacity="0.3" d="M226.501 27.9097H322.324C322.368 27.9097 322.411 27.9009 322.452 27.884C322.492 27.867 322.529 27.8421 322.559 27.8108C322.59 27.7794 322.614 27.7423 322.63 27.7016C322.646 27.6608 322.654 27.6172 322.653 27.5734C322.653 27.4861 322.618 27.4023 322.557 27.3406C322.495 27.2788 322.411 27.2441 322.324 27.2441H226.501C226.413 27.2441 226.329 27.2786 226.266 27.3401C226.203 27.4017 226.167 27.4854 226.165 27.5734C226.165 27.6626 226.2 27.7481 226.263 27.8112C226.326 27.8742 226.412 27.9097 226.501 27.9097Z" fill="white"/>
<g opacity="0.3">
<path d="M201 260.999C275.958 260.999 336.723 257.449 336.723 253.069C336.723 248.689 275.958 245.139 201 245.139C126.043 245.139 65.2773 248.689 65.2773 253.069C65.2773 257.449 126.043 260.999 201 260.999Z" fill="#F5F5F5"/>
</g>
<path d="M71.3869 152.079L70.6777 152.162L71.938 162.947L72.6471 162.864L71.3869 152.079Z" fill="#407BFF"/>
<path d="M73.1174 166.876L72.4082 166.959L73.044 172.4L73.7532 172.317L73.1174 166.876Z" fill="#407BFF"/>
<path d="M120.213 130.087L119.373 127.726C118.795 126.103 117.684 124.725 116.222 123.816C114.76 122.908 113.033 122.523 111.323 122.724L77.8701 126.64C75.8661 126.875 74.0375 127.898 72.7865 129.482C71.5355 131.066 70.9645 133.083 71.1991 135.089L80.7191 216.564C80.7981 217.245 81.0107 217.905 81.3445 218.504C81.6783 219.103 82.1268 219.63 82.6645 220.056C83.2022 220.481 83.8184 220.797 84.4779 220.984C85.1374 221.171 85.8273 221.226 86.5081 221.146L206.208 207.134C206.89 207.057 207.55 206.846 208.151 206.512C208.751 206.179 209.28 205.73 209.706 205.192C210.133 204.654 210.449 204.036 210.637 203.376C210.825 202.715 210.88 202.023 210.8 201.341L202.54 130.907C202.38 129.532 201.682 128.277 200.597 127.417C199.513 126.558 198.132 126.165 196.758 126.325L127.248 134.465C125.754 134.639 124.245 134.3 122.967 133.505C121.69 132.71 120.719 131.505 120.213 130.087Z" fill="#EBE30D"/>
<path d="M123.554 94.6567L85.7344 102.199L96.1177 154.346L133.937 146.804L123.554 94.6567Z" fill="#ACACAC"/>
<g opacity="0.4">
<path d="M118.505 107.186L95.2094 111.838C94.6667 111.943 94.1043 111.83 93.6443 111.523C93.1844 111.216 92.8638 110.74 92.7524 110.198C92.647 109.655 92.7599 109.093 93.0666 108.632C93.3732 108.172 93.8489 107.851 94.3903 107.74L117.7 103.109C118.243 103.003 118.805 103.116 119.265 103.423C119.725 103.73 120.046 104.206 120.157 104.748C120.256 105.29 120.139 105.849 119.83 106.305C119.521 106.761 119.045 107.078 118.505 107.186Z" fill="#EDEA90"/>
<path d="M120.221 115.823L96.9247 120.496C96.383 120.599 95.8225 120.485 95.3641 120.179C94.9057 119.872 94.5862 119.397 94.4747 118.857C94.3714 118.314 94.4853 117.753 94.7917 117.295C95.0982 116.836 95.5727 116.516 96.1127 116.405L119.409 111.76C119.95 111.656 120.511 111.77 120.969 112.077C121.428 112.384 121.747 112.859 121.859 113.399C121.954 113.937 121.836 114.491 121.53 114.943C121.225 115.396 120.755 115.711 120.221 115.823Z" fill="#EDEA90"/>
<path d="M121.936 124.448L98.6395 129.093C98.0979 129.196 97.5373 129.082 97.0789 128.775C96.6205 128.469 96.3011 127.994 96.1895 127.453C96.0862 126.911 96.2001 126.35 96.5066 125.892C96.8131 125.433 97.2875 125.113 97.8275 125.001L121.124 120.35C121.665 120.246 122.226 120.36 122.684 120.667C123.143 120.974 123.462 121.449 123.574 121.989C123.679 122.532 123.566 123.095 123.259 123.555C122.953 124.016 122.477 124.336 121.936 124.448Z" fill="#EDEA90"/>
<path d="M123.658 133.107L100.362 137.752C99.819 137.858 99.2567 137.745 98.7967 137.438C98.3367 137.131 98.0162 136.655 97.9047 136.113C97.7994 135.57 97.9123 135.007 98.2189 134.547C98.5256 134.086 99.0012 133.766 99.5427 133.654L122.839 129.009C123.381 128.904 123.944 129.017 124.404 129.324C124.864 129.631 125.184 130.107 125.296 130.649C125.401 131.192 125.288 131.754 124.981 132.215C124.675 132.675 124.199 132.996 123.658 133.107Z" fill="#EDEA90"/>
<path d="M119.002 142.964L102.076 146.34C101.535 146.444 100.974 146.33 100.516 146.023C100.057 145.716 99.7379 145.241 99.6264 144.701C99.521 144.158 99.6339 143.595 99.9406 143.135C100.247 142.674 100.723 142.354 101.264 142.242L118.19 138.865C118.732 138.762 119.293 138.876 119.751 139.183C120.209 139.489 120.529 139.964 120.64 140.505C120.746 141.048 120.633 141.611 120.326 142.071C120.02 142.531 119.544 142.852 119.002 142.964Z" fill="#EDEA90"/>
</g>
<path d="M177.441 84.6068L139.234 89.8379L146.436 142.52L184.643 137.288L177.441 84.6068Z" fill="#ACACAC"/>
<g opacity="0.4">
<path d="M171.642 96.8183L148.108 100.041C147.56 100.113 147.006 99.9656 146.565 99.6312C146.125 99.2968 145.834 98.8021 145.756 98.2545C145.684 97.706 145.831 97.1512 146.165 96.7106C146.5 96.2699 146.994 95.9789 147.541 95.9006L171.075 92.678C171.623 92.6061 172.177 92.7533 172.618 93.0877C173.058 93.4221 173.349 93.9168 173.427 94.4644C173.499 95.0129 173.352 95.5677 173.018 96.0083C172.684 96.449 172.189 96.74 171.642 96.8183Z" fill="#EDEA90"/>
<path d="M172.832 105.526L149.298 108.749C148.75 108.821 148.195 108.674 147.755 108.339C147.315 108.005 147.024 107.51 146.946 106.962C146.876 106.415 147.024 105.862 147.358 105.423C147.692 104.984 148.185 104.694 148.731 104.616L172.265 101.393C172.812 101.321 173.365 101.467 173.805 101.8C174.245 102.133 174.537 102.626 174.617 103.172C174.689 103.721 174.541 104.276 174.207 104.716C173.873 105.157 173.379 105.448 172.832 105.526Z" fill="#EDEA90"/>
<path d="M156.97 116.573L150.488 117.463C149.94 117.535 149.386 117.388 148.945 117.053C148.505 116.719 148.214 116.224 148.136 115.677C148.064 115.128 148.211 114.573 148.545 114.133C148.88 113.692 149.374 113.401 149.921 113.323L156.41 112.433C156.957 112.363 157.509 112.511 157.948 112.845C158.387 113.18 158.677 113.673 158.755 114.219C158.827 114.768 158.68 115.323 158.346 115.763C158.011 116.204 157.517 116.495 156.97 116.573Z" fill="#EDEA90"/>
<path d="M169.549 114.851L163.06 115.74C162.513 115.81 161.961 115.662 161.522 115.328C161.083 114.994 160.793 114.5 160.715 113.954C160.643 113.405 160.79 112.851 161.124 112.41C161.459 111.969 161.953 111.678 162.5 111.6L168.982 110.717C169.529 110.645 170.082 110.791 170.523 111.124C170.963 111.457 171.254 111.95 171.334 112.497C171.406 113.045 171.259 113.6 170.925 114.041C170.591 114.481 170.096 114.772 169.549 114.851Z" fill="#EDEA90"/>
<path d="M175.213 122.949L151.679 126.172C151.13 126.244 150.576 126.096 150.136 125.762C149.696 125.428 149.405 124.933 149.327 124.385C149.257 123.838 149.405 123.285 149.739 122.846C150.073 122.407 150.566 122.117 151.112 122.038L174.646 118.809C175.194 118.737 175.748 118.884 176.188 119.219C176.629 119.553 176.919 120.048 176.998 120.595C177.069 121.144 176.922 121.699 176.588 122.139C176.254 122.58 175.76 122.871 175.213 122.949Z" fill="#EDEA90"/>
<path d="M169.976 132.539L152.868 134.879C152.322 134.949 151.77 134.802 151.332 134.469C150.893 134.136 150.603 133.644 150.523 133.1C150.451 132.552 150.597 131.998 150.93 131.558C151.262 131.117 151.755 130.826 152.301 130.746L169.409 128.406C169.955 128.336 170.506 128.483 170.945 128.816C171.383 129.148 171.674 129.64 171.754 130.185C171.826 130.733 171.68 131.286 171.347 131.727C171.014 132.167 170.522 132.459 169.976 132.539Z" fill="#EDEA90"/>
</g>
<path d="M141.388 92.2943L102.971 95.6445L107.583 148.616L146 145.266L141.388 92.2943Z" fill="#EFEFE7"/>
<g opacity="0.4">
<path d="M134.997 104.215L111.33 106.275C110.779 106.319 110.233 106.145 109.81 105.79C109.387 105.435 109.12 104.927 109.069 104.376C109.026 103.826 109.201 103.281 109.556 102.859C109.911 102.437 110.417 102.172 110.966 102.12L134.633 100.019C135.183 99.9738 135.73 100.148 136.153 100.503C136.576 100.859 136.842 101.367 136.894 101.917C136.921 102.193 136.893 102.471 136.812 102.736C136.731 103.001 136.599 103.247 136.423 103.461C136.246 103.674 136.03 103.851 135.785 103.98C135.54 104.11 135.272 104.19 134.997 104.215Z" fill="#EDEA90"/>
<path d="M135.76 112.973L112.093 115.075C111.542 115.119 110.996 114.945 110.573 114.59C110.15 114.235 109.884 113.727 109.832 113.176C109.787 112.625 109.961 112.078 110.316 111.655C110.672 111.231 111.179 110.965 111.729 110.913L135.396 108.812C135.947 108.767 136.493 108.941 136.916 109.296C137.339 109.652 137.606 110.16 137.657 110.71C137.702 111.261 137.528 111.808 137.173 112.231C136.818 112.655 136.31 112.921 135.76 112.973Z" fill="#EDEA90"/>
<path d="M136.523 121.729L112.856 123.83C112.305 123.875 111.759 123.701 111.336 123.346C110.913 122.99 110.646 122.482 110.595 121.932C110.55 121.381 110.724 120.834 111.079 120.411C111.434 119.987 111.942 119.721 112.492 119.669L136.159 117.567C136.709 117.523 137.256 117.697 137.679 118.052C138.102 118.408 138.368 118.915 138.42 119.466C138.465 120.017 138.291 120.564 137.935 120.987C137.58 121.411 137.073 121.677 136.523 121.729Z" fill="#EDEA90"/>
<path d="M137.3 130.486L113.633 132.587C113.083 132.632 112.536 132.458 112.113 132.103C111.69 131.747 111.424 131.239 111.372 130.689C111.327 130.138 111.501 129.591 111.856 129.168C112.212 128.744 112.719 128.478 113.269 128.426L136.936 126.366C137.487 126.321 138.033 126.496 138.456 126.851C138.879 127.206 139.146 127.714 139.197 128.265C139.23 128.809 139.051 129.345 138.697 129.759C138.343 130.173 137.842 130.434 137.3 130.486Z" fill="#EDEA90"/>
<path d="M131.581 139.811L114.382 141.31C113.828 141.361 113.276 141.189 112.848 140.833C112.42 140.477 112.151 139.966 112.1 139.411C112.055 138.86 112.229 138.314 112.584 137.89C112.939 137.467 113.447 137.2 113.997 137.149L131.196 135.649C131.746 135.605 132.292 135.779 132.716 136.134C133.139 136.49 133.405 136.998 133.457 137.548C133.502 138.096 133.331 138.639 132.98 139.062C132.629 139.485 132.127 139.754 131.581 139.811Z" fill="#EDEA90"/>
</g>
<path d="M188.201 89.7197L149.683 91.5781L152.241 144.689L190.759 142.83L188.201 89.7197Z" fill="#EFEFE7"/>
<g opacity="0.4">
<path d="M181.358 101.371L157.635 102.52C157.084 102.543 156.546 102.348 156.137 101.977C155.728 101.606 155.482 101.089 155.451 100.538C155.428 99.9859 155.623 99.4473 155.994 99.0383C156.364 98.6293 156.881 98.3827 157.432 98.3519L181.162 97.203C181.713 97.18 182.252 97.3752 182.66 97.7462C183.069 98.1172 183.315 98.6342 183.346 99.1856C183.369 99.7385 183.173 100.278 182.801 100.687C182.429 101.096 181.91 101.342 181.358 101.371Z" fill="#EDEA90"/>
<path d="M181.785 110.156L158.055 111.298C157.504 111.321 156.965 111.125 156.557 110.754C156.148 110.383 155.902 109.866 155.871 109.315C155.848 108.762 156.044 108.222 156.416 107.813C156.788 107.404 157.307 107.158 157.859 107.129L181.582 105.98C182.134 105.957 182.674 106.153 183.082 106.526C183.491 106.898 183.737 107.417 183.766 107.97C183.789 108.522 183.594 109.06 183.223 109.469C182.853 109.878 182.336 110.125 181.785 110.156Z" fill="#EDEA90"/>
<path d="M165.02 119.796L158.482 120.112C157.93 120.134 157.392 119.939 156.984 119.568C156.575 119.197 156.329 118.68 156.298 118.129C156.275 117.577 156.47 117.039 156.84 116.63C157.211 116.221 157.728 115.974 158.279 115.943L164.817 115.621C165.369 115.598 165.908 115.794 166.317 116.167C166.726 116.539 166.972 117.058 167.001 117.611C167.024 118.162 166.829 118.701 166.458 119.11C166.087 119.519 165.571 119.765 165.02 119.796Z" fill="#EDEA90"/>
<path d="M177.697 119.151L171.159 119.466C170.608 119.489 170.07 119.294 169.661 118.923C169.253 118.552 169.006 118.035 168.975 117.483C168.953 116.932 169.147 116.393 169.518 115.984C169.889 115.575 170.406 115.328 170.956 115.298L177.494 114.982C178.046 114.959 178.584 115.154 178.993 115.525C179.401 115.896 179.648 116.414 179.678 116.965C179.701 117.517 179.506 118.055 179.136 118.464C178.765 118.873 178.248 119.12 177.697 119.151Z" fill="#EDEA90"/>
<path d="M182.632 127.72L158.902 128.862C158.35 128.885 157.812 128.69 157.403 128.319C156.995 127.948 156.748 127.431 156.718 126.879C156.695 126.327 156.891 125.787 157.263 125.378C157.635 124.969 158.153 124.723 158.706 124.694L182.429 123.545C182.981 123.522 183.52 123.718 183.929 124.09C184.338 124.463 184.584 124.982 184.613 125.534C184.636 126.086 184.441 126.625 184.07 127.034C183.699 127.443 183.183 127.689 182.632 127.72Z" fill="#EDEA90"/>
<path d="M176.57 136.813L159.329 137.646C158.778 137.669 158.24 137.474 157.831 137.103C157.423 136.732 157.176 136.215 157.145 135.664C157.122 135.112 157.317 134.573 157.688 134.164C158.059 133.755 158.575 133.509 159.126 133.478L176.367 132.644C176.919 132.621 177.457 132.817 177.866 133.188C178.274 133.559 178.521 134.076 178.551 134.627C178.574 135.179 178.379 135.717 178.009 136.126C177.638 136.535 177.121 136.782 176.57 136.813Z" fill="#EDEA90"/>
</g>
<path d="M130.895 131.594L130.279 129.289C129.848 127.694 128.846 126.313 127.463 125.409C126.081 124.505 124.415 124.14 122.782 124.385L89.3292 128.301C87.2997 128.55 85.4305 129.531 84.0723 131.061C82.714 132.59 81.9598 134.563 81.9512 136.61L83.8482 216.368C83.8595 217.025 84.0112 217.672 84.2931 218.265C84.5751 218.859 84.9807 219.385 85.4827 219.808C85.9847 220.232 86.5714 220.543 87.2035 220.72C87.8356 220.898 88.4983 220.938 89.1472 220.838L208.847 206.827C210.237 206.658 211.518 205.988 212.449 204.942C213.381 203.896 213.9 202.546 213.908 201.145L212.27 132.196C212.258 131.539 212.105 130.892 211.823 130.298C211.54 129.705 211.134 129.179 210.631 128.756C210.128 128.332 209.541 128.022 208.909 127.844C208.276 127.667 207.613 127.626 206.964 127.727L137.461 135.86C136.034 136.078 134.577 135.764 133.367 134.977C132.156 134.191 131.277 132.987 130.895 131.594Z" fill="#676533"/>
<path d="M247.9 93.2521C247.382 95.8512 246.829 98.4153 246.206 100.958C245.583 103.501 244.974 106.072 244.295 108.615L243.259 112.419L243.126 112.91C243.063 113.12 242.993 113.33 242.909 113.547C242.73 114.024 242.495 114.478 242.209 114.899C241.862 115.423 241.418 115.875 240.9 116.23C240.33 116.617 239.674 116.858 238.989 116.931C237.952 117.006 236.916 116.785 236 116.294C235.304 115.915 234.652 115.461 234.054 114.941C232.972 113.995 232.015 112.914 231.205 111.726L233.2 109.988C234.153 110.73 235.159 111.4 236.21 111.992C236.667 112.251 237.15 112.46 237.652 112.616C238.079 112.756 238.457 112.735 238.457 112.665C238.457 112.595 238.387 112.665 238.352 112.665C238.317 112.665 238.352 112.665 238.352 112.546C238.352 112.426 238.436 112.3 238.485 112.118L238.646 111.341L239.458 107.516L241.103 99.8654C241.635 97.3154 242.209 94.7583 242.762 92.2363L247.9 93.2521Z" fill="#FFC3BD"/>
<path d="M245.576 85.245C239.605 89.8196 239.85 98.4435 239.85 98.4435L250.525 101.001C250.525 101.001 253.808 92.3276 252.478 89.1541C251.092 85.8475 248.943 82.6669 245.576 85.245Z" fill="#263238"/>
<path d="M233.732 110.092L229.805 106.162L227.705 112.313C227.705 112.313 231.023 114.099 234.194 112.411L233.732 110.092Z" fill="#FFC3BD"/>
<path d="M224.366 105.553L223.645 110.415L227.684 112.313L229.805 106.162L224.366 105.553Z" fill="#E5E5D4"/>
<path d="M280.184 247.9L274.178 248.489L267.927 234.176L273.933 233.588L280.184 247.9Z" fill="#E5E5D4"/>
<path d="M318.88 226.743L314.365 230.981L304.628 220.27L309.143 216.031L318.88 226.743Z" fill="#E5E5D4"/>
<path d="M312.299 228.951L315.687 222.842C315.744 222.735 315.838 222.652 315.952 222.61C316.065 222.567 316.19 222.568 316.303 222.611L321.518 224.6C321.647 224.655 321.763 224.735 321.859 224.838C321.954 224.94 322.027 225.061 322.073 225.193C322.118 225.325 322.135 225.466 322.123 225.605C322.111 225.744 322.069 225.879 322.001 226.002C320.783 228.103 320.09 229.07 318.599 231.76C317.682 233.413 315.897 237.203 314.63 239.466C313.363 241.729 311.039 240.622 311.361 239.557C312.81 234.78 312.537 232.124 312.131 230.023C312.062 229.657 312.121 229.278 312.299 228.951Z" fill="#263238"/>
<path d="M273.379 246.631H280.757C280.89 246.631 281.019 246.675 281.124 246.757C281.229 246.838 281.304 246.951 281.338 247.08L282.941 252.915C282.981 253.053 282.987 253.198 282.961 253.339C282.934 253.48 282.875 253.612 282.787 253.726C282.7 253.839 282.588 253.931 282.459 253.994C282.33 254.056 282.188 254.087 282.045 254.085C279.441 254.085 278.209 254.085 274.968 254.085H265.056C262.354 254.085 261.794 251.36 262.907 251.108C267.912 250.001 270.789 248.474 272.336 247.016C272.623 246.761 272.996 246.624 273.379 246.631Z" fill="#263238"/>
<path opacity="0.2" d="M267.934 234.182L271.154 241.559H277.419L273.94 233.594L267.934 234.182Z" fill="black"/>
<path opacity="0.2" d="M309.143 216.039L304.628 220.277L309.654 225.798L314.169 221.552L309.143 216.039Z" fill="black"/>
<path d="M247.382 84.362C247.382 84.362 244.68 85.5459 253.738 121.415L278.896 119.236C277.594 109.029 277.034 102.71 280.107 81.2515C276.523 80.8272 272.913 80.6657 269.306 80.7681C265.48 80.8254 261.662 81.1555 257.882 81.7559C254.34 82.4461 250.836 83.3159 247.382 84.362Z" fill="#263238"/>
<path d="M269.306 80.5645C269.306 80.5645 270.706 80.5645 272.414 80.5645C273.429 82.1267 270.139 88.9712 264.714 93.4477C263.888 90.959 262.37 88.7574 260.339 87.1007L269.306 80.5645Z" fill="white"/>
<path d="M257.882 81.6641C257.882 81.6641 257.245 81.7551 255.726 82.1054C254.711 83.6677 252.996 90.344 255.985 93.7487C256.737 91.1668 258.247 88.8703 260.318 87.1564L257.882 81.6641Z" fill="white"/>
<path d="M267.058 67.9902C266.659 71.7312 266.519 78.4986 269.305 80.7684C269.305 80.7684 266.33 83.8088 260.317 87.1575C255.942 84.1311 257.881 81.7562 257.881 81.7562C261.892 80.4251 261.521 77.3917 260.562 74.5895L267.058 67.9902Z" fill="#E5E5D4"/>
<path d="M260.213 87.1788C260.213 87.1788 263.902 83.1576 265.813 83.9282C267.724 84.6988 266.247 86.0789 266.079 87.375C265.911 88.671 266.821 92.1177 264.266 91.221C261.711 90.3243 260.213 87.1788 260.213 87.1788Z" fill="#EBE30D"/>
<path d="M260.066 87.094C260.066 87.094 258.323 84.0115 256.44 84.4249C254.557 84.8382 255.677 85.9171 255.845 87.08C256.062 88.5652 254.494 91.4234 256.762 90.5828C259.03 89.7421 260.066 87.094 260.066 87.094Z" fill="#EBE30D"/>
<g opacity="0.2">
<path d="M259.1 86.4288C259.075 87.0503 259.195 87.6692 259.45 88.2362C259.682 87.8741 259.885 87.4947 260.059 87.1013C259.8 86.6621 259.503 86.2471 259.17 85.8613C259.112 86.0446 259.089 86.2369 259.1 86.4288Z" fill="black"/>
<path d="M261.557 85.875C260.766 86.5756 260.22 87.178 260.22 87.178C260.423 87.5986 260.657 88.0037 260.92 88.39C261.343 87.9655 261.592 87.3985 261.62 86.7997C261.687 86.4918 261.665 86.171 261.557 85.875Z" fill="black"/>
</g>
<path d="M260.171 88.4382C259.646 88.4382 259.324 87.8708 259.289 86.5187C259.254 85.1666 260.29 85.9162 260.29 85.9162C260.29 85.9162 261.69 85.2157 261.438 86.834C261.256 88.116 260.71 88.4382 260.171 88.4382Z" fill="#EBE30D"/>
<path opacity="0.2" d="M264.412 70.6875L260.569 74.5896C260.8 75.2393 260.975 75.9072 261.094 76.5862C262.641 76.2289 264.881 74.6176 264.902 72.9643C264.877 72.182 264.711 71.4107 264.412 70.6875Z" fill="black"/>
<path d="M261.115 55.3438C261.115 55.3438 256.915 61.1654 256.215 63.7505C253.359 65.4178 252.785 57.2143 254.297 52.1562C259.015 55.1196 261.115 55.3438 261.115 55.3438Z" fill="#263238"/>
<path d="M270.348 62.1476C268.787 68.1233 268.248 70.6874 264.594 73.1884C259.085 76.9574 252.092 73.7348 251.833 67.4088C251.602 61.7202 254.192 52.9002 260.583 51.6602C261.992 51.3741 263.45 51.4544 264.819 51.8934C266.187 52.3324 267.42 53.1155 268.4 54.1677C269.38 55.2199 270.073 56.5061 270.414 57.9032C270.756 59.3004 270.733 60.7617 270.348 62.1476Z" fill="#E5E5D4"/>
<path d="M273.597 59.7579C273.597 59.7579 270.594 64.6268 270.188 66.7635C268.011 68.2416 267.094 61.7545 268.011 57.6562C269.012 54.0063 273.597 59.7579 273.597 59.7579Z" fill="#263238"/>
<path d="M272.4 56.3744C271.532 57.0329 270.615 54.602 271.476 52.7385C269.817 52.8436 267.822 51.8558 268.249 50.2515C264.98 51.3514 263.769 48.0237 264.147 45.7189C264.602 42.9166 267.038 42.3212 268.473 43.0568C268.473 41.8028 271.637 39.1897 272.841 41.2353C275.074 40.4437 278.672 40.6889 278.595 43.4351C280.072 43.4771 284.433 45.1514 282.795 49.0395C284.72 49.1516 285.763 51.5966 284.692 53.446C285.114 53.6697 285.476 53.9917 285.747 54.3848C286.018 54.7779 286.191 55.2306 286.251 55.7047C286.311 56.1787 286.255 56.6602 286.09 57.1084C285.925 57.5566 285.654 57.9584 285.301 58.2799C286.19 60.1294 283.495 62.8826 282.06 62.5533C280.968 64.2276 279.295 65.4886 278.203 64.0595C276.103 65.6077 273.688 63.6392 274.227 62.126C271.847 61.7617 269.418 57.7895 272.4 56.3744Z" fill="#263238"/>
<path d="M275.955 50.4906C277.523 53.1107 277.39 56.0951 275.668 57.1109C273.946 58.1267 271.265 56.8657 269.697 54.2456C268.129 51.6255 268.255 48.6412 269.984 47.6254C271.713 46.6096 274.387 47.8776 275.955 50.4906Z" fill="#EBE30D"/>
<path d="M261.396 54.644C261.305 55.3936 259.24 55.1975 258.645 53.8734C257.791 54.7701 255.782 55.2325 255.096 54.2587C253.934 56.4445 251.596 55.87 250.994 54.8262C250.392 53.7823 249.993 51.8418 251.204 51.4565C250.504 50.854 250.714 48.0167 252.548 48.374C253.318 46.8608 255.425 45.1444 256.965 46.4825C257.805 45.782 261.165 44.3248 262.523 46.9939C262.821 46.7902 263.161 46.6567 263.517 46.6035C263.874 46.5502 264.238 46.5786 264.583 46.6865C264.927 46.7944 265.242 46.979 265.505 47.2263C265.768 47.4737 265.971 47.7775 266.1 48.1148C268.277 47.5474 269.222 49.2007 269.215 50.0974C270.762 50.5177 270.867 53.1939 269.915 53.7683C270.286 55.1204 270.09 56.5706 268.669 56.4445C268.396 58.2659 265.96 58.5461 265.386 57.5583C263.804 58.5742 260.577 56.8087 261.396 54.644Z" fill="#263238"/>
<path d="M257.7 49.4743C259.471 47.0223 265.932 45.9715 271.525 49.6775C276.565 52.9911 276.236 60.6902 272.225 60.2769C268.214 59.8636 264.252 55.1628 264.252 55.1628L257.7 49.4743Z" fill="#263238"/>
<path d="M270.839 67.5421C270.281 68.5956 269.33 69.3861 268.193 69.7419C266.674 70.1973 265.89 68.8522 266.282 67.402C266.639 66.099 267.85 64.2915 269.383 64.4737C269.717 64.5182 270.035 64.6457 270.308 64.8445C270.58 65.0433 270.799 65.3072 270.944 65.6121C271.088 65.9171 271.154 66.2534 271.136 66.5905C271.118 66.9275 271.016 67.2547 270.839 67.5421Z" fill="#E5E5D4"/>
<path d="M253.738 121.415C253.738 121.415 245.226 159.105 250.938 185.677C254.746 203.471 268.438 239.417 268.438 239.417L279.176 239.144C279.176 239.144 268.781 201.419 266.632 186.602C262.957 161.228 272.162 119.846 272.162 119.846L253.738 121.415Z" fill="#EBE30D"/>
<path opacity="0.2" d="M263.552 129.029L268.9 137.499C267.283 147.542 266.257 157.67 265.827 167.833C258.302 154.312 261.9 136.182 263.552 129.029Z" fill="black"/>
<path d="M266.926 239.976L280.184 239.633L279.421 235.562L265.89 236.2L266.926 239.976Z" fill="#263238"/>
<path d="M259.239 121.014C259.239 121.014 264.23 160.981 275.059 182.804C283.802 200.43 307.133 225.538 307.133 225.538L313.097 219.387C313.097 219.387 297.34 192.121 290.844 180.415C274.905 151.692 287.932 129.799 278.895 119.256L259.239 121.014Z" fill="#EBE30D"/>
<path d="M306.532 226.343L314.232 218.833L311.677 215.352L303.508 223.506L306.532 226.343Z" fill="#263238"/>
<path d="M279.148 117.73L280.478 119.888C280.583 120.049 280.387 120.245 280.1 120.273L253.71 122.557C253.486 122.557 253.29 122.48 253.262 122.34L252.842 120.105C252.807 119.951 252.996 119.804 253.241 119.783L278.721 117.576C278.8 117.561 278.88 117.568 278.956 117.595C279.031 117.622 279.097 117.669 279.148 117.73Z" fill="#EFEFE7"/>
<path d="M275.97 120.874L276.67 120.818C276.803 120.818 276.901 120.727 276.887 120.643L276.313 117.743C276.313 117.652 276.173 117.596 276.033 117.61L275.333 117.666C275.193 117.666 275.095 117.757 275.116 117.841L275.69 120.741C275.711 120.825 275.837 120.888 275.97 120.874Z" fill="#EBE30D"/>
<path d="M255.649 122.634L256.349 122.578C256.482 122.578 256.58 122.487 256.566 122.403L255.992 119.502C255.967 119.452 255.925 119.412 255.875 119.388C255.824 119.364 255.767 119.357 255.712 119.369L255.012 119.425C254.872 119.425 254.774 119.516 254.795 119.6L255.369 122.501C255.39 122.599 255.516 122.648 255.649 122.634Z" fill="#407BFF"/>
<path d="M265.813 121.758L266.513 121.695C266.653 121.695 266.751 121.604 266.73 121.52L266.156 118.619C266.156 118.535 266.016 118.472 265.883 118.486L265.183 118.549C265.05 118.549 264.952 118.64 264.966 118.725L265.54 121.625C265.554 121.709 265.673 121.765 265.813 121.758Z" fill="#EBE30D"/>
<path d="M260.24 61.9439C260.142 62.4343 259.806 62.7846 259.484 62.7215C259.162 62.6584 258.98 62.2031 259.071 61.7127C259.162 61.2223 259.512 60.872 259.834 60.9351C260.156 60.9981 260.338 61.4465 260.24 61.9439Z" fill="#263238"/>
<path d="M254.667 60.8439C254.764 60.3503 254.582 59.8988 254.259 59.8354C253.937 59.772 253.597 60.1206 253.5 60.6142C253.403 61.1077 253.586 61.5592 253.908 61.6227C254.23 61.6861 254.57 61.3374 254.667 60.8439Z" fill="#263238"/>
<path d="M254.41 59.8987L253.29 59.3242C253.29 59.3242 253.717 60.3681 254.41 59.8987Z" fill="#263238"/>
<path d="M256.587 62.0762C255.931 63.1151 255.135 64.0581 254.221 64.8784C254.433 65.1124 254.694 65.2965 254.986 65.4177C255.278 65.5388 255.592 65.5939 255.908 65.579L256.587 62.0762Z" fill="#263238"/>
<path d="M258.183 67.8917C259.217 67.9027 260.217 67.5223 260.983 66.8268C260.998 66.8158 261.01 66.8016 261.019 66.7852C261.027 66.7689 261.032 66.7509 261.033 66.7324C261.034 66.7138 261.031 66.6954 261.024 66.6782C261.017 66.661 261.007 66.6456 260.993 66.633C260.98 66.6205 260.963 66.6111 260.946 66.6055C260.928 66.5999 260.909 66.5983 260.891 66.6007C260.873 66.6032 260.855 66.6096 260.839 66.6197C260.824 66.6297 260.811 66.643 260.801 66.6587C260.33 67.0744 259.767 67.3729 259.159 67.53C258.551 67.687 257.914 67.6981 257.301 67.5624C257.285 67.5594 257.269 67.5596 257.254 67.5629C257.238 67.5662 257.223 67.5727 257.21 67.5818C257.197 67.591 257.186 67.6026 257.178 67.6162C257.169 67.6297 257.163 67.6448 257.161 67.6605C257.157 67.6763 257.156 67.6927 257.159 67.7087C257.162 67.7247 257.168 67.74 257.177 67.7533C257.187 67.7666 257.199 67.7778 257.213 67.7859C257.227 67.7941 257.243 67.7991 257.259 67.8006C257.563 67.8644 257.873 67.8949 258.183 67.8917Z" fill="#263238"/>
<path d="M263.579 60.0303C263.624 60.0296 263.667 60.0176 263.705 59.9953C263.761 59.9618 263.801 59.9076 263.817 59.8446C263.833 59.7815 263.823 59.7148 263.789 59.659C263.558 59.2654 263.236 58.9328 262.85 58.6891C262.464 58.4454 262.025 58.2975 261.57 58.2579C261.538 58.257 261.506 58.2624 261.476 58.2739C261.446 58.2853 261.419 58.3026 261.395 58.3247C261.372 58.3469 261.353 58.3734 261.34 58.4028C261.327 58.4322 261.319 58.4639 261.318 58.4961C261.318 58.5283 261.323 58.5604 261.334 58.5905C261.346 58.6206 261.363 58.6481 261.385 58.6716C261.407 58.695 261.434 58.7138 261.463 58.727C261.493 58.7402 261.524 58.7474 261.556 58.7483C261.932 58.7897 262.292 58.9199 262.608 59.1282C262.923 59.3365 263.184 59.6169 263.369 59.9463C263.395 59.9761 263.428 59.9994 263.464 60.014C263.501 60.0286 263.54 60.0342 263.579 60.0303Z" fill="#263238"/>
<path d="M253.136 58.0558C253.175 58.0648 253.216 58.0648 253.255 58.0558C253.58 57.8632 253.946 57.7501 254.323 57.7258C254.7 57.7014 255.078 57.7665 255.425 57.9157C255.482 57.9394 255.545 57.9409 255.603 57.9198C255.661 57.8987 255.709 57.8566 255.737 57.8019C255.765 57.7471 255.772 57.6838 255.755 57.6244C255.739 57.565 255.701 57.5139 255.649 57.4813C255.23 57.2913 254.771 57.2054 254.311 57.231C253.852 57.2566 253.405 57.393 253.01 57.6285C252.955 57.6607 252.915 57.7131 252.898 57.7746C252.881 57.8361 252.888 57.9018 252.919 57.9577C252.943 57.9922 252.975 58.0196 253.014 58.0369C253.052 58.0542 253.094 58.0607 253.136 58.0558Z" fill="#263238"/>
<path d="M281.177 86.9824C281.653 87.4448 281.982 87.8091 282.353 88.2224C282.724 88.6357 283.053 89.0421 283.389 89.4554C284.054 90.2891 284.691 91.1437 285.286 92.0194C286.47 93.7849 287.518 95.6373 288.422 97.5608C289.325 99.4934 290.053 101.503 290.599 103.565C290.872 104.594 291.117 105.666 291.299 106.696C291.647 108.184 291.476 109.746 290.816 111.124C290.432 111.847 289.9 112.482 289.255 112.987C288.696 113.418 288.082 113.771 287.428 114.038C286.305 114.472 285.127 114.75 283.928 114.865C281.801 115.069 279.658 115.041 277.537 114.781C273.477 114.308 269.469 113.457 265.567 112.238L266.211 109.695C268.115 110.01 270.075 110.304 272.007 110.507C273.939 110.71 275.885 110.892 277.796 110.935C279.648 111.001 281.501 110.898 283.333 110.626C284.122 110.498 284.89 110.262 285.615 109.926C286.06 109.757 286.426 109.431 286.644 109.008C286.703 108.846 286.732 108.675 286.728 108.504C286.738 108.378 286.738 108.251 286.728 108.125C286.728 107.985 286.679 107.859 286.616 107.6C286.42 106.696 286.161 105.806 285.881 104.924C285.312 103.164 284.61 101.45 283.781 99.7956C282.949 98.132 281.995 96.5327 280.925 95.0108C280.4 94.2402 279.847 93.4906 279.273 92.769C278.986 92.4047 278.685 92.0685 278.391 91.7112C278.097 91.3539 277.761 91.0106 277.53 90.7584L281.177 86.9824Z" fill="#E5E5D4"/>
<path d="M267.814 110.08L262.914 107.48L262.69 113.975C262.69 113.975 266.19 114.199 268.192 112.574L267.814 110.08Z" fill="#E5E5D4"/>
<path d="M259.219 145.015L263.265 101.013L254.62 94.386L228.23 91.9551L223.645 141.737L259.219 145.015Z" fill="#EFEFE7"/>
<path d="M263.265 101.014L254.62 94.3867L256.888 102.317L263.265 101.014Z" fill="#EBE30D"/>
<path d="M226.739 149.429C232.693 149.429 237.519 144.599 237.519 138.64C237.519 132.682 232.693 127.852 226.739 127.852C220.785 127.852 215.959 132.682 215.959 138.64C215.959 144.599 220.785 149.429 226.739 149.429Z" fill="#EBE30D"/>
<path d="M232.065 145.385C235.79 142.439 236.424 137.029 233.481 133.301C230.538 129.573 225.132 128.938 221.407 131.884C217.682 134.829 217.048 140.239 219.991 143.967C222.934 147.695 228.34 148.33 232.065 145.385Z" fill="white"/>
<path d="M232.052 137.885L228.258 137.444L228.699 133.646L225.983 133.324L225.542 137.121L221.748 136.673L221.426 139.398L225.22 139.846L224.772 143.636L227.495 143.959L227.936 140.162L231.73 140.61L232.052 137.885Z" fill="#EBE30D"/>
<path opacity="0.4" d="M256.81 110.135C256.775 110.52 256.665 110.894 256.485 111.237C256.305 111.579 256.059 111.882 255.762 112.13C255.465 112.377 255.122 112.563 254.753 112.678C254.384 112.792 253.996 112.833 253.611 112.797L234.361 111.025C233.585 110.952 232.869 110.574 232.37 109.974C231.872 109.374 231.631 108.6 231.701 107.823C231.737 107.438 231.847 107.064 232.027 106.721C232.207 106.379 232.452 106.076 232.75 105.828C233.047 105.581 233.39 105.395 233.759 105.28C234.128 105.166 234.516 105.125 234.9 105.161L254.15 106.933C254.535 106.969 254.909 107.079 255.251 107.259C255.593 107.439 255.896 107.685 256.144 107.982C256.391 108.28 256.577 108.623 256.691 108.992C256.805 109.362 256.846 109.75 256.81 110.135Z" fill="#EBE30D"/>
<path opacity="0.4" d="M250.251 118.087C250.216 118.472 250.106 118.846 249.926 119.189C249.746 119.531 249.5 119.834 249.203 120.082C248.906 120.329 248.563 120.515 248.194 120.63C247.825 120.744 247.437 120.785 247.052 120.749L233.598 119.509C233.214 119.474 232.839 119.363 232.497 119.183C232.155 119.003 231.852 118.757 231.605 118.46C231.358 118.163 231.172 117.82 231.058 117.45C230.943 117.081 230.903 116.693 230.938 116.307C230.973 115.922 231.084 115.548 231.264 115.206C231.444 114.863 231.689 114.56 231.986 114.313C232.284 114.066 232.626 113.879 232.995 113.765C233.365 113.65 233.753 113.61 234.137 113.645L247.591 114.892C248.366 114.965 249.081 115.342 249.58 115.941C250.078 116.539 250.319 117.311 250.251 118.087Z" fill="#EBE30D"/>
<path d="M259.919 107.866L260.654 112.721L262.684 113.975L262.908 107.48L259.919 107.866Z" fill="#E5E5D4"/>
<path d="M280.1 81.2644C283.187 81.8109 287.513 90.6659 287.513 90.6659L279.736 97.6715C279.736 97.6715 273.548 90.9181 273.877 86.8969C274.164 83.4992 276.18 80.5639 280.1 81.2644Z" fill="#263238"/>
<path d="M311.095 232.235C311.176 232.234 311.256 232.222 311.333 232.2C312.075 231.948 312.558 230.582 312.782 229.79C312.787 229.768 312.786 229.744 312.778 229.722C312.771 229.7 312.758 229.68 312.74 229.664C312.722 229.649 312.698 229.641 312.674 229.641C312.65 229.641 312.626 229.649 312.607 229.664C312.383 229.776 310.409 230.834 310.346 231.612C310.337 231.697 310.352 231.782 310.389 231.859C310.426 231.936 310.484 232.001 310.556 232.046C310.709 232.169 310.899 232.236 311.095 232.235ZM312.495 230.008C312.152 231.101 311.711 231.822 311.291 231.962C311.196 231.992 311.095 231.995 310.998 231.973C310.901 231.951 310.811 231.904 310.738 231.836C310.701 231.815 310.67 231.783 310.65 231.744C310.63 231.706 310.622 231.662 310.626 231.619C310.626 231.143 311.781 230.393 312.46 230.008H312.495Z" fill="#407BFF"/>
<path d="M310.787 230.317C311.46 230.314 312.123 230.158 312.726 229.862C312.743 229.85 312.758 229.834 312.767 229.816C312.777 229.798 312.782 229.777 312.782 229.757C312.783 229.735 312.778 229.713 312.766 229.695C312.755 229.676 312.739 229.661 312.719 229.651C312.656 229.616 311.095 228.755 310.255 229.056C310.15 229.087 310.053 229.142 309.972 229.218C309.892 229.293 309.831 229.387 309.793 229.49C309.741 229.589 309.723 229.702 309.744 229.811C309.764 229.921 309.821 230.02 309.905 230.093C310.166 230.264 310.476 230.343 310.787 230.317ZM312.39 229.757C311.725 230.044 310.43 230.219 310.066 229.911C310.003 229.855 309.94 229.771 310.024 229.581C310.049 229.512 310.09 229.449 310.144 229.398C310.197 229.347 310.262 229.309 310.332 229.287C310.899 229.084 311.949 229.539 312.39 229.785V229.757Z" fill="#407BFF"/>
<path d="M270.11 247.822C270.787 247.806 271.46 247.719 272.119 247.563C272.142 247.555 272.162 247.539 272.176 247.519C272.19 247.499 272.198 247.475 272.198 247.451C272.198 247.426 272.19 247.402 272.176 247.382C272.162 247.362 272.142 247.347 272.119 247.339C271.818 247.192 269.137 245.938 268.465 246.414C268.404 246.454 268.354 246.511 268.323 246.578C268.292 246.645 268.281 246.719 268.29 246.792C268.292 246.929 268.326 247.064 268.389 247.186C268.452 247.308 268.543 247.413 268.654 247.493C269.092 247.755 269.602 247.871 270.11 247.822ZM271.699 247.402C270.908 247.549 269.438 247.745 268.829 247.29C268.751 247.228 268.687 247.151 268.641 247.063C268.595 246.975 268.569 246.878 268.563 246.778C268.557 246.748 268.561 246.716 268.573 246.687C268.586 246.658 268.607 246.634 268.633 246.617C269.004 246.358 270.586 246.911 271.699 247.402Z" fill="#407BFF"/>
<path d="M272.092 247.57C272.119 247.579 272.148 247.579 272.176 247.57C272.193 247.555 272.206 247.535 272.212 247.513C272.218 247.49 272.218 247.466 272.211 247.444C272.211 247.332 271.581 244.691 270.111 244.859C269.747 244.908 269.642 245.083 269.628 245.231C269.537 245.931 271.224 247.255 272.029 247.591L272.092 247.57ZM270.258 245.069C271.189 245.069 271.728 246.611 271.91 247.227C271.035 246.765 269.81 245.665 269.887 245.238C269.887 245.203 269.887 245.104 270.16 245.076L270.258 245.069Z" fill="#407BFF"/>
<path d="M259.967 60.9905L258.854 60.416C258.854 60.416 259.281 61.4598 259.967 60.9905Z" fill="#263238"/>
<path d="M14.4198 307.237H12.5629L7.15389 298.477H9.6364L12.1996 302.655L13.451 304.774H13.6124L14.8234 302.655L17.3665 298.477H19.8288L14.4198 307.237ZM14.5812 312H12.4015V305.683H14.5812V312ZM23.8615 312.202C22.8389 312.202 21.9508 311.987 21.1973 311.556C20.4438 311.112 19.8652 310.5 19.4616 309.719C19.0579 308.925 18.8561 308.01 18.8561 306.974C18.8561 305.938 19.0579 305.03 19.4616 304.25C19.8652 303.469 20.4438 302.864 21.1973 302.433C21.9508 301.989 22.8389 301.767 23.8615 301.767C24.8841 301.767 25.7587 301.989 26.4853 302.433C27.2253 302.864 27.7904 303.469 28.1806 304.25C28.5843 305.03 28.7861 305.938 28.7861 306.974C28.7861 308.01 28.5843 308.925 28.1806 309.719C27.7904 310.5 27.2253 311.112 26.4853 311.556C25.7587 311.987 24.8841 312.202 23.8615 312.202ZM23.8615 310.264C24.911 310.264 25.6443 310.002 26.0614 309.477C26.4785 308.939 26.6871 308.105 26.6871 306.974C26.6871 305.844 26.4785 305.017 26.0614 304.492C25.6443 303.967 24.911 303.705 23.8615 303.705C22.7985 303.705 22.0585 303.967 21.6413 304.492C21.2242 305.017 21.0157 305.844 21.0157 306.974C21.0157 308.105 21.2242 308.939 21.6413 309.477C22.0585 310.002 22.7985 310.264 23.8615 310.264ZM34.1494 312.202C33.2883 312.202 32.5752 312.027 32.01 311.677C31.4449 311.314 31.0278 310.829 30.7587 310.224C30.4896 309.605 30.355 308.919 30.355 308.165V301.969H32.5348V307.762C32.5348 308.663 32.7232 309.316 33.0999 309.719C33.4767 310.123 34.0956 310.325 34.9568 310.325C35.5219 310.325 35.9996 310.237 36.3898 310.062C36.78 309.874 37.076 309.585 37.2778 309.195C37.4796 308.791 37.5806 308.266 37.5806 307.62H38.1457V310.002H37.6613C37.5133 310.379 37.2845 310.735 36.9751 311.072C36.679 311.408 36.2956 311.684 35.8246 311.899C35.3672 312.101 34.8088 312.202 34.1494 312.202ZM39.7603 312H37.742V308.993L37.5806 308.892V301.969H39.7603V312ZM44.0863 312H41.9065V301.908H43.9046V304.714L44.0863 304.815V312ZM44.0863 305.461H43.5817V303.503H44.0055C44.2074 303.032 44.537 302.628 44.9945 302.292C45.4654 301.942 46.0709 301.767 46.811 301.767C47.5241 301.767 48.0892 301.922 48.5063 302.231C48.9369 302.541 49.2464 302.951 49.4348 303.463C49.6231 303.974 49.7173 304.546 49.7173 305.178V305.844H47.5376V305.441C47.5376 304.768 47.4232 304.297 47.1944 304.028C46.9657 303.759 46.5351 303.624 45.9027 303.624C45.2434 303.624 44.7725 303.765 44.4899 304.048C44.2208 304.317 44.0863 304.788 44.0863 305.461ZM60.5428 312.202C59.6413 312.202 58.908 312.027 58.3429 311.677C57.7912 311.314 57.4077 310.903 57.1924 310.446H56.6475L56.7484 307.883H57.1319C57.1319 308.434 57.2328 308.892 57.4346 309.255C57.6499 309.618 57.9661 309.894 58.3832 310.083C58.8004 310.258 59.2982 310.345 59.8768 310.345C60.3477 310.345 60.7581 310.284 61.108 310.163C61.4578 310.042 61.7404 309.854 61.9556 309.598C62.1844 309.343 62.3458 308.999 62.44 308.569C62.5477 308.125 62.6015 307.593 62.6015 306.974C62.6015 306.355 62.5477 305.837 62.44 305.42C62.3458 304.99 62.1844 304.64 61.9556 304.371C61.7404 304.102 61.4578 303.913 61.108 303.806C60.7716 303.685 60.3612 303.624 59.8768 303.624C59.2982 303.624 58.8004 303.718 58.3832 303.907C57.9661 304.082 57.6499 304.351 57.4346 304.714C57.2328 305.064 57.1319 305.521 57.1319 306.086H56.7484L56.6475 303.624H57.0512C57.2934 303.045 57.6903 302.595 58.242 302.272C58.8071 301.935 59.5269 301.767 60.4015 301.767C61.8144 301.767 62.8975 302.238 63.651 303.18C64.4045 304.122 64.7813 305.387 64.7813 306.974C64.7813 308.562 64.418 309.834 63.6914 310.789C62.9648 311.731 61.9153 312.202 60.5428 312.202ZM57.1319 315.492H54.9723V301.969H56.9503V304.351L57.1319 304.613V315.492ZM68.7237 312H66.544V298.477H68.7237V312ZM79.2589 312H77.2406V310.022L77.1801 309.477V305.622C77.1801 304.869 76.9984 304.357 76.6351 304.088C76.2853 303.819 75.7135 303.685 74.9196 303.685C74.1257 303.685 73.5539 303.826 73.204 304.108C72.8677 304.391 72.6995 304.862 72.6995 305.521V305.824H70.6004V305.622C70.6004 304.869 70.7821 304.203 71.1454 303.624C71.5221 303.045 72.0401 302.595 72.6995 302.272C73.3722 301.935 74.1526 301.767 75.0407 301.767C75.9826 301.767 76.763 301.942 77.3819 302.292C78.0009 302.642 78.4651 303.126 78.7745 303.745C79.0975 304.351 79.2589 305.071 79.2589 305.905V312ZM73.5068 312.202C72.6053 312.202 71.845 311.973 71.2261 311.516C70.6206 311.045 70.3179 310.379 70.3179 309.517C70.3179 308.952 70.4457 308.481 70.7013 308.105C70.9704 307.728 71.3539 307.418 71.8518 307.176C72.3496 306.934 72.9551 306.766 73.6682 306.672L77.3819 306.147V307.681L73.9912 308.185C73.4126 308.266 73.0089 308.387 72.7802 308.549C72.5515 308.71 72.4371 308.979 72.4371 309.356C72.4371 309.746 72.5716 310.029 72.8407 310.204C73.1233 310.379 73.5808 310.466 74.2132 310.466C74.6976 310.466 75.1618 310.392 75.6058 310.244C76.0633 310.083 76.44 309.82 76.7361 309.457C77.0321 309.08 77.1801 308.555 77.1801 307.883L77.4626 310.446L77.1397 310.426C76.9513 310.735 76.689 311.024 76.3526 311.294C76.0297 311.563 75.6327 311.785 75.1618 311.96C74.6909 312.121 74.1392 312.202 73.5068 312.202ZM85.8075 312.222C84.758 312.222 83.87 312 83.1434 311.556C82.4168 311.112 81.8584 310.5 81.4682 309.719C81.0914 308.939 80.9031 308.031 80.9031 306.995C80.9031 305.959 81.0982 305.05 81.4884 304.27C81.892 303.476 82.4639 302.864 83.2039 302.433C83.944 301.989 84.8387 301.767 85.8883 301.767C86.7763 301.767 87.5567 301.935 88.2295 302.272C88.9023 302.608 89.4203 303.079 89.7836 303.685C90.1603 304.29 90.3487 304.996 90.3487 305.804V305.985H88.1891V305.864C88.1891 305.124 87.9873 304.586 87.5836 304.25C87.1934 303.9 86.5812 303.725 85.747 303.725C84.7782 303.725 84.0852 304.001 83.6681 304.552C83.2645 305.091 83.0626 305.898 83.0626 306.974C83.0626 308.064 83.2645 308.885 83.6681 309.437C84.0852 309.975 84.7782 310.244 85.747 310.244C86.5812 310.244 87.1934 310.076 87.5836 309.74C87.9873 309.39 88.1891 308.851 88.1891 308.125V308.004H90.3487V308.185C90.3487 308.966 90.1603 309.665 89.7836 310.284C89.4068 310.89 88.8753 311.368 88.1891 311.717C87.5164 312.054 86.7225 312.222 85.8075 312.222ZM96.5485 312.202C95.4586 312.202 94.5504 311.987 93.8238 311.556C93.0972 311.112 92.559 310.5 92.2092 309.719C91.8593 308.925 91.6844 308.01 91.6844 306.974C91.6844 305.938 91.8795 305.03 92.2697 304.25C92.6734 303.469 93.2385 302.864 93.9651 302.433C94.6917 301.989 95.5528 301.767 96.5485 301.767C97.45 301.767 98.2439 301.942 98.9301 302.292C99.6298 302.628 100.168 303.119 100.545 303.765C100.935 304.411 101.13 305.192 101.13 306.107C101.13 306.376 101.117 306.638 101.09 306.894C101.076 307.136 101.056 307.338 101.029 307.499H92.7138V306.046H99.253L99.031 306.248C99.0849 305.629 99.0176 305.124 98.8292 304.734C98.6543 304.344 98.365 304.055 97.9613 303.866C97.5711 303.678 97.08 303.584 96.488 303.584C95.425 303.584 94.6984 303.853 94.3082 304.391C93.918 304.916 93.7229 305.642 93.7229 306.571V307.176C93.7229 307.849 93.8036 308.421 93.9651 308.892C94.14 309.349 94.436 309.692 94.8532 309.921C95.2703 310.15 95.8421 310.264 96.5687 310.264C97.4164 310.264 98.0152 310.13 98.365 309.861C98.7148 309.591 98.8898 309.235 98.8898 308.791V308.629H101.049V308.811C101.049 309.497 100.861 310.096 100.484 310.607C100.107 311.105 99.5827 311.495 98.9099 311.778C98.2506 312.061 97.4635 312.202 96.5485 312.202ZM118.975 312H116.796V306.167C116.796 305.279 116.628 304.64 116.291 304.25C115.968 303.846 115.349 303.644 114.434 303.644C113.614 303.644 113.001 303.839 112.598 304.23C112.207 304.606 112.012 305.252 112.012 306.167L111.629 306.207L111.447 303.846H111.77C111.932 303.496 112.154 303.167 112.436 302.857C112.732 302.534 113.109 302.272 113.566 302.07C114.024 301.868 114.582 301.767 115.242 301.767C116.116 301.767 116.823 301.935 117.361 302.272C117.912 302.608 118.316 303.072 118.572 303.664C118.841 304.256 118.975 304.936 118.975 305.703V312ZM105.049 312H102.869V301.969H104.868V304.976L105.049 305.077V312ZM112.012 312H109.833V306.167C109.833 305.279 109.664 304.64 109.328 304.25C109.005 303.846 108.386 303.644 107.471 303.644C106.65 303.644 106.038 303.833 105.634 304.209C105.244 304.586 105.049 305.232 105.049 306.147L104.666 306.207L104.484 303.846H104.968C105.116 303.483 105.332 303.146 105.614 302.837C105.91 302.527 106.287 302.272 106.745 302.07C107.202 301.868 107.747 301.767 108.379 301.767C109.227 301.767 109.913 301.935 110.438 302.272C110.976 302.608 111.373 303.072 111.629 303.664C111.885 304.256 112.012 304.936 112.012 305.703V312ZM125.483 312.202C124.393 312.202 123.485 311.987 122.758 311.556C122.031 311.112 121.493 310.5 121.143 309.719C120.794 308.925 120.619 308.01 120.619 306.974C120.619 305.938 120.814 305.03 121.204 304.25C121.608 303.469 122.173 302.864 122.899 302.433C123.626 301.989 124.487 301.767 125.483 301.767C126.384 301.767 127.178 301.942 127.864 302.292C128.564 302.628 129.102 303.119 129.479 303.765C129.869 304.411 130.064 305.192 130.064 306.107C130.064 306.376 130.051 306.638 130.024 306.894C130.01 307.136 129.99 307.338 129.963 307.499H121.648V306.046H128.187L127.965 306.248C128.019 305.629 127.952 305.124 127.763 304.734C127.589 304.344 127.299 304.055 126.896 303.866C126.505 303.678 126.014 303.584 125.422 303.584C124.359 303.584 123.633 303.853 123.242 304.391C122.852 304.916 122.657 305.642 122.657 306.571V307.176C122.657 307.849 122.738 308.421 122.899 308.892C123.074 309.349 123.37 309.692 123.787 309.921C124.204 310.15 124.776 310.264 125.503 310.264C126.351 310.264 126.949 310.13 127.299 309.861C127.649 309.591 127.824 309.235 127.824 308.791V308.629H129.984V308.811C129.984 309.497 129.795 310.096 129.418 310.607C129.042 311.105 128.517 311.495 127.844 311.778C127.185 312.061 126.398 312.202 125.483 312.202ZM141.148 312H138.969V306.167C138.969 305.279 138.8 304.64 138.464 304.25C138.128 303.846 137.495 303.644 136.567 303.644C135.975 303.644 135.49 303.732 135.114 303.907C134.737 304.068 134.454 304.337 134.266 304.714C134.078 305.077 133.983 305.575 133.983 306.207H133.6L133.418 303.846H133.903C134.051 303.483 134.273 303.146 134.569 302.837C134.865 302.527 135.242 302.272 135.699 302.07C136.17 301.868 136.728 301.767 137.374 301.767C138.249 301.767 138.962 301.935 139.514 302.272C140.065 302.608 140.476 303.072 140.745 303.664C141.014 304.256 141.148 304.936 141.148 305.703V312ZM133.983 312H131.804V301.969H133.802V304.976L133.983 305.077V312ZM147.315 312C146.212 312 145.364 311.765 144.772 311.294C144.194 310.823 143.904 310.029 143.904 308.912V302.191L144.409 299.487H146.084V308.811C146.084 309.336 146.212 309.672 146.468 309.82C146.737 309.955 147.214 310.022 147.901 310.022H149.112V311.818C148.91 311.872 148.647 311.919 148.324 311.96C148.001 311.987 147.665 312 147.315 312ZM149.112 303.786H142.229V301.969H149.112V303.786ZM158.912 312.222C157.862 312.222 156.974 312 156.248 311.556C155.521 311.112 154.963 310.5 154.572 309.719C154.196 308.939 154.007 308.031 154.007 306.995C154.007 305.959 154.202 305.05 154.593 304.27C154.996 303.476 155.568 302.864 156.308 302.433C157.048 301.989 157.943 301.767 158.993 301.767C159.881 301.767 160.661 301.935 161.334 302.272C162.007 302.608 162.525 303.079 162.888 303.685C163.265 304.29 163.453 304.996 163.453 305.804V305.985H161.293V305.864C161.293 305.124 161.092 304.586 160.688 304.25C160.298 303.9 159.685 303.725 158.851 303.725C157.882 303.725 157.19 304.001 156.772 304.552C156.369 305.091 156.167 305.898 156.167 306.974C156.167 308.064 156.369 308.885 156.772 309.437C157.19 309.975 157.882 310.244 158.851 310.244C159.685 310.244 160.298 310.076 160.688 309.74C161.092 309.39 161.293 308.851 161.293 308.125V308.004H163.453V308.185C163.453 308.966 163.265 309.665 162.888 310.284C162.511 310.89 161.98 311.368 161.293 311.717C160.621 312.054 159.827 312.222 158.912 312.222ZM169.794 312.202C168.771 312.202 167.883 311.987 167.13 311.556C166.376 311.112 165.798 310.5 165.394 309.719C164.991 308.925 164.789 308.01 164.789 306.974C164.789 305.938 164.991 305.03 165.394 304.25C165.798 303.469 166.376 302.864 167.13 302.433C167.883 301.989 168.771 301.767 169.794 301.767C170.817 301.767 171.691 301.989 172.418 302.433C173.158 302.864 173.723 303.469 174.113 304.25C174.517 305.03 174.719 305.938 174.719 306.974C174.719 308.01 174.517 308.925 174.113 309.719C173.723 310.5 173.158 311.112 172.418 311.556C171.691 311.987 170.817 312.202 169.794 312.202ZM169.794 310.264C170.844 310.264 171.577 310.002 171.994 309.477C172.411 308.939 172.62 308.105 172.62 306.974C172.62 305.844 172.411 305.017 171.994 304.492C171.577 303.967 170.844 303.705 169.794 303.705C168.731 303.705 167.991 303.967 167.574 304.492C167.157 305.017 166.948 305.844 166.948 306.974C166.948 308.105 167.157 308.939 167.574 309.477C167.991 310.002 168.731 310.264 169.794 310.264ZM181.048 312.202C180.026 312.202 179.138 311.987 178.384 311.556C177.631 311.112 177.052 310.5 176.649 309.719C176.245 308.925 176.043 308.01 176.043 306.974C176.043 305.938 176.245 305.03 176.649 304.25C177.052 303.469 177.631 302.864 178.384 302.433C179.138 301.989 180.026 301.767 181.048 301.767C182.071 301.767 182.946 301.989 183.672 302.433C184.412 302.864 184.977 303.469 185.368 304.25C185.771 305.03 185.973 305.938 185.973 306.974C185.973 308.01 185.771 308.925 185.368 309.719C184.977 310.5 184.412 311.112 183.672 311.556C182.946 311.987 182.071 312.202 181.048 312.202ZM181.048 310.264C182.098 310.264 182.831 310.002 183.248 309.477C183.666 308.939 183.874 308.105 183.874 306.974C183.874 305.844 183.666 305.017 183.248 304.492C182.831 303.967 182.098 303.705 181.048 303.705C179.985 303.705 179.245 303.967 178.828 304.492C178.411 305.017 178.203 305.844 178.203 306.974C178.203 308.105 178.411 308.939 178.828 309.477C179.245 310.002 179.985 310.264 181.048 310.264ZM189.782 312H187.603V301.908H189.601V304.714L189.782 304.815V312ZM189.782 305.461H189.278V303.503H189.702C189.903 303.032 190.233 302.628 190.691 302.292C191.162 301.942 191.767 301.767 192.507 301.767C193.22 301.767 193.785 301.922 194.202 302.231C194.633 302.541 194.942 302.951 195.131 303.463C195.319 303.974 195.413 304.546 195.413 305.178V305.844H193.234V305.441C193.234 304.768 193.119 304.297 192.891 304.028C192.662 303.759 192.231 303.624 191.599 303.624C190.94 303.624 190.469 303.765 190.186 304.048C189.917 304.317 189.782 304.788 189.782 305.461ZM200.824 312.202C199.397 312.202 198.301 311.731 197.534 310.789C196.78 309.834 196.403 308.562 196.403 306.974C196.403 305.387 196.774 304.122 197.514 303.18C198.267 302.238 199.33 301.767 200.702 301.767C201.591 301.767 202.304 301.949 202.842 302.312C203.394 302.662 203.777 303.066 203.992 303.523H204.537L204.436 306.086H204.053C204.053 305.521 203.945 305.057 203.73 304.694C203.515 304.33 203.205 304.061 202.801 303.886C202.398 303.712 201.9 303.624 201.308 303.624C200.824 303.624 200.406 303.685 200.057 303.806C199.72 303.927 199.438 304.115 199.209 304.371C198.994 304.626 198.832 304.97 198.725 305.4C198.63 305.831 198.583 306.355 198.583 306.974C198.583 307.58 198.63 308.105 198.725 308.549C198.832 308.979 198.994 309.329 199.209 309.598C199.438 309.854 199.727 310.042 200.077 310.163C200.427 310.284 200.837 310.345 201.308 310.345C201.9 310.345 202.398 310.258 202.801 310.083C203.205 309.894 203.515 309.618 203.73 309.255C203.945 308.892 204.053 308.434 204.053 307.883H204.436L204.537 310.345H204.134C203.905 310.924 203.508 311.381 202.943 311.717C202.391 312.04 201.685 312.202 200.824 312.202ZM206.233 312H204.214V309.618L204.053 309.356V298.477H206.233V312ZM210.415 300.698H208.256L208.236 298.477H210.415V300.698ZM210.436 312H208.256V301.908H210.436V312ZM221.782 312H219.602V306.167C219.602 305.279 219.434 304.64 219.098 304.25C218.761 303.846 218.129 303.644 217.2 303.644C216.608 303.644 216.124 303.732 215.747 303.907C215.37 304.068 215.088 304.337 214.899 304.714C214.711 305.077 214.617 305.575 214.617 306.207H214.233L214.052 303.846H214.536C214.684 303.483 214.906 303.146 215.202 302.837C215.498 302.527 215.875 302.272 216.332 302.07C216.803 301.868 217.362 301.767 218.008 301.767C218.882 301.767 219.595 301.935 220.147 302.272C220.699 302.608 221.109 303.072 221.378 303.664C221.647 304.256 221.782 304.936 221.782 305.703V312ZM214.617 312H212.437V301.969H214.435V304.976L214.617 305.077V312ZM232.327 312H230.308V310.022L230.248 309.477V305.622C230.248 304.869 230.066 304.357 229.703 304.088C229.353 303.819 228.781 303.685 227.987 303.685C227.193 303.685 226.621 303.826 226.272 304.108C225.935 304.391 225.767 304.862 225.767 305.521V305.824H223.668V305.622C223.668 304.869 223.85 304.203 224.213 303.624C224.59 303.045 225.108 302.595 225.767 302.272C226.44 301.935 227.22 301.767 228.108 301.767C229.05 301.767 229.831 301.942 230.45 302.292C231.068 302.642 231.533 303.126 231.842 303.745C232.165 304.351 232.327 305.071 232.327 305.905V312ZM226.574 312.202C225.673 312.202 224.913 311.973 224.294 311.516C223.688 311.045 223.385 310.379 223.385 309.517C223.385 308.952 223.513 308.481 223.769 308.105C224.038 307.728 224.422 307.418 224.919 307.176C225.417 306.934 226.023 306.766 226.736 306.672L230.45 306.147V307.681L227.059 308.185C226.48 308.266 226.077 308.387 225.848 308.549C225.619 308.71 225.505 308.979 225.505 309.356C225.505 309.746 225.639 310.029 225.908 310.204C226.191 310.379 226.648 310.466 227.281 310.466C227.765 310.466 228.229 310.392 228.673 310.244C229.131 310.083 229.508 309.82 229.804 309.457C230.1 309.08 230.248 308.555 230.248 307.883L230.53 310.446L230.207 310.426C230.019 310.735 229.757 311.024 229.42 311.294C229.097 311.563 228.7 311.785 228.229 311.96C227.758 312.121 227.207 312.202 226.574 312.202ZM238.494 312C237.39 312 236.543 311.765 235.95 311.294C235.372 310.823 235.083 310.029 235.083 308.912V302.191L235.587 299.487H237.262V308.811C237.262 309.336 237.39 309.672 237.646 309.82C237.915 309.955 238.393 310.022 239.079 310.022H240.29V311.818C240.088 311.872 239.826 311.919 239.503 311.96C239.18 311.987 238.843 312 238.494 312ZM240.29 303.786H233.407V301.969H240.29V303.786ZM246.013 312.202C244.99 312.202 244.102 311.987 243.348 311.556C242.595 311.112 242.016 310.5 241.613 309.719C241.209 308.925 241.007 308.01 241.007 306.974C241.007 305.938 241.209 305.03 241.613 304.25C242.016 303.469 242.595 302.864 243.348 302.433C244.102 301.989 244.99 301.767 246.013 301.767C247.035 301.767 247.91 301.989 248.636 302.433C249.376 302.864 249.941 303.469 250.332 304.25C250.735 305.03 250.937 305.938 250.937 306.974C250.937 308.01 250.735 308.925 250.332 309.719C249.941 310.5 249.376 311.112 248.636 311.556C247.91 311.987 247.035 312.202 246.013 312.202ZM246.013 310.264C247.062 310.264 247.795 310.002 248.212 309.477C248.63 308.939 248.838 308.105 248.838 306.974C248.838 305.844 248.63 305.017 248.212 304.492C247.795 303.967 247.062 303.705 246.013 303.705C244.95 303.705 244.21 303.967 243.792 304.492C243.375 305.017 243.167 305.844 243.167 306.974C243.167 308.105 243.375 308.939 243.792 309.477C244.21 310.002 244.95 310.264 246.013 310.264ZM254.746 312H252.567V301.908H254.565V304.714L254.746 304.815V312ZM254.746 305.461H254.242V303.503H254.666C254.867 303.032 255.197 302.628 255.655 302.292C256.126 301.942 256.731 301.767 257.471 301.767C258.184 301.767 258.749 301.922 259.166 302.231C259.597 302.541 259.907 302.951 260.095 303.463C260.283 303.974 260.377 304.546 260.377 305.178V305.844H258.198V305.441C258.198 304.768 258.083 304.297 257.855 304.028C257.626 303.759 257.195 303.624 256.563 303.624C255.904 303.624 255.433 303.765 255.15 304.048C254.881 304.317 254.746 304.788 254.746 305.461ZM270.194 312H267.348L264.866 301.969H267.227L268.377 307.54L268.801 310.184H268.963L269.609 307.54L271.364 301.969H274.19L275.966 307.56L276.612 310.163H276.753L277.177 307.56L278.328 301.969H280.608L278.126 312H275.28L273.484 306.409L272.818 303.886H272.676L272.01 306.409L270.194 312ZM283.697 300.698H281.537L281.517 298.477H283.697V300.698ZM283.717 312H281.537V301.908H283.717V312ZM287.899 312H285.719V298.477H287.899V312ZM292.314 312H290.134V298.477H292.314V312ZM300.434 312H298.254V301.908H300.252V304.714L300.434 304.815V312ZM300.434 305.461H299.93V303.503H300.353C300.555 303.032 300.885 302.628 301.342 302.292C301.813 301.942 302.419 301.767 303.159 301.767C303.872 301.767 304.437 301.922 304.854 302.231C305.285 302.541 305.594 302.951 305.783 303.463C305.971 303.974 306.065 304.546 306.065 305.178V305.844H303.885V305.441C303.885 304.768 303.771 304.297 303.542 304.028C303.314 303.759 302.883 303.624 302.251 303.624C301.591 303.624 301.12 303.765 300.838 304.048C300.569 304.317 300.434 304.788 300.434 305.461ZM311.919 312.202C310.829 312.202 309.921 311.987 309.195 311.556C308.468 311.112 307.93 310.5 307.58 309.719C307.23 308.925 307.055 308.01 307.055 306.974C307.055 305.938 307.25 305.03 307.641 304.25C308.044 303.469 308.609 302.864 309.336 302.433C310.062 301.989 310.924 301.767 311.919 301.767C312.821 301.767 313.615 301.942 314.301 302.292C315.001 302.628 315.539 303.119 315.916 303.765C316.306 304.411 316.501 305.192 316.501 306.107C316.501 306.376 316.487 306.638 316.46 306.894C316.447 307.136 316.427 307.338 316.4 307.499H308.085V306.046H314.624L314.402 306.248C314.456 305.629 314.388 305.124 314.2 304.734C314.025 304.344 313.736 304.055 313.332 303.866C312.942 303.678 312.451 303.584 311.859 303.584C310.796 303.584 310.069 303.853 309.679 304.391C309.289 304.916 309.094 305.642 309.094 306.571V307.176C309.094 307.849 309.174 308.421 309.336 308.892C309.511 309.349 309.807 309.692 310.224 309.921C310.641 310.15 311.213 310.264 311.939 310.264C312.787 310.264 313.386 310.13 313.736 309.861C314.086 309.591 314.261 309.235 314.261 308.791V308.629H316.42V308.811C316.42 309.497 316.232 310.096 315.855 310.607C315.478 311.105 314.953 311.495 314.281 311.778C313.621 312.061 312.834 312.202 311.919 312.202ZM323.659 312H320.894L316.878 301.969H319.3L322.226 309.921H322.368L325.314 301.969H327.676L323.659 312ZM330.666 300.698H328.506L328.486 298.477H330.666V300.698ZM330.686 312H328.506V301.908H330.686V312ZM337.05 312.202C335.96 312.202 335.051 311.987 334.325 311.556C333.598 311.112 333.06 310.5 332.71 309.719C332.36 308.925 332.185 308.01 332.185 306.974C332.185 305.938 332.381 305.03 332.771 304.25C333.174 303.469 333.74 302.864 334.466 302.433C335.193 301.989 336.054 301.767 337.05 301.767C337.951 301.767 338.745 301.942 339.431 302.292C340.131 302.628 340.669 303.119 341.046 303.765C341.436 304.411 341.631 305.192 341.631 306.107C341.631 306.376 341.618 306.638 341.591 306.894C341.577 307.136 341.557 307.338 341.53 307.499H333.215V306.046H339.754L339.532 306.248C339.586 305.629 339.519 305.124 339.33 304.734C339.155 304.344 338.866 304.055 338.462 303.866C338.072 303.678 337.581 303.584 336.989 303.584C335.926 303.584 335.199 303.853 334.809 304.391C334.419 304.916 334.224 305.642 334.224 306.571V307.176C334.224 307.849 334.305 308.421 334.466 308.892C334.641 309.349 334.937 309.692 335.354 309.921C335.771 310.15 336.343 310.264 337.07 310.264C337.917 310.264 338.516 310.13 338.866 309.861C339.216 309.591 339.391 309.235 339.391 308.791V308.629H341.55V308.811C341.55 309.497 341.362 310.096 340.985 310.607C340.608 311.105 340.084 311.495 339.411 311.778C338.752 312.061 337.965 312.202 337.05 312.202ZM347.437 312H344.591L342.109 301.969H344.47L345.621 307.54L346.045 310.184H346.206L346.852 307.54L348.608 301.969H351.433L353.21 307.56L353.855 310.163H353.997L354.42 307.56L355.571 301.969H357.852L355.369 312H352.523L350.727 306.409L350.061 303.886H349.92L349.254 306.409L347.437 312ZM367.141 312C366.037 312 365.189 311.765 364.597 311.294C364.019 310.823 363.73 310.029 363.73 308.912V302.191L364.234 299.487H365.909V308.811C365.909 309.336 366.037 309.672 366.293 309.82C366.562 309.955 367.04 310.022 367.726 310.022H368.937V311.818C368.735 311.872 368.473 311.919 368.15 311.96C367.827 311.987 367.49 312 367.141 312ZM368.937 303.786H362.054V301.969H368.937V303.786ZM379.836 312H377.656V306.167C377.656 305.279 377.481 304.64 377.132 304.25C376.795 303.846 376.17 303.644 375.255 303.644C374.38 303.644 373.727 303.839 373.297 304.23C372.88 304.606 372.671 305.272 372.671 306.228H372.288L372.267 303.644H372.752C372.913 303.335 373.135 303.039 373.418 302.756C373.714 302.46 374.084 302.225 374.528 302.05C374.985 301.861 375.51 301.767 376.102 301.767C376.99 301.767 377.703 301.942 378.242 302.292C378.793 302.628 379.197 303.093 379.453 303.685C379.708 304.277 379.836 304.943 379.836 305.683V312ZM372.671 312H370.491V298.477H372.671V312ZM384.021 300.698H381.861L381.841 298.477H384.021V300.698ZM384.041 312H381.861V301.908H384.041V312ZM390.202 312.202C388.735 312.202 387.625 311.913 386.871 311.334C386.118 310.742 385.741 309.834 385.741 308.609V308.569H387.84V308.932C387.84 309.282 387.908 309.571 388.042 309.8C388.19 310.015 388.432 310.177 388.769 310.284C389.118 310.379 389.61 310.426 390.242 310.426C390.78 310.426 391.184 310.385 391.453 310.305C391.736 310.21 391.924 310.083 392.018 309.921C392.112 309.76 392.159 309.558 392.159 309.316C392.159 308.912 392.018 308.629 391.736 308.468C391.453 308.293 390.948 308.138 390.222 308.004L388.648 307.741C388.056 307.62 387.537 307.452 387.093 307.237C386.663 307.008 386.327 306.699 386.084 306.308C385.856 305.905 385.741 305.4 385.741 304.795C385.741 303.893 386.098 303.167 386.811 302.615C387.524 302.05 388.533 301.767 389.838 301.767C390.632 301.767 391.339 301.895 391.958 302.151C392.577 302.406 393.068 302.79 393.431 303.301C393.794 303.812 393.976 304.452 393.976 305.219V305.4H391.897V305.158C391.897 304.835 391.843 304.559 391.736 304.33C391.628 304.088 391.426 303.9 391.13 303.765C390.834 303.631 390.383 303.564 389.778 303.564C388.984 303.564 388.459 303.664 388.204 303.866C387.948 304.068 387.82 304.364 387.82 304.754C387.82 305.145 387.934 305.42 388.163 305.582C388.405 305.73 388.876 305.878 389.576 306.026L391.292 306.349C391.937 306.47 392.476 306.652 392.906 306.894C393.337 307.136 393.66 307.452 393.875 307.842C394.104 308.233 394.218 308.697 394.218 309.235C394.218 310.177 393.861 310.91 393.148 311.435C392.449 311.946 391.466 312.202 390.202 312.202ZM149.935 325.698H147.776L147.756 323.477H149.935V325.698ZM149.956 337H147.776V326.908H149.956V337ZM161.302 337H159.122V331.167C159.122 330.279 158.954 329.64 158.617 329.25C158.281 328.846 157.649 328.644 156.72 328.644C156.128 328.644 155.644 328.732 155.267 328.907C154.89 329.068 154.608 329.337 154.419 329.714C154.231 330.077 154.137 330.575 154.137 331.207H153.753L153.572 328.846H154.056C154.204 328.483 154.426 328.146 154.722 327.837C155.018 327.527 155.395 327.272 155.852 327.07C156.323 326.868 156.882 326.767 157.528 326.767C158.402 326.767 159.115 326.935 159.667 327.272C160.219 327.608 160.629 328.072 160.898 328.664C161.167 329.256 161.302 329.936 161.302 330.703V337ZM154.137 337H151.957V326.969H153.955V329.976L154.137 330.077V337ZM165.975 337H163.795V327.05C163.795 326.269 163.943 325.617 164.239 325.092C164.535 324.567 164.973 324.17 165.551 323.901C166.143 323.619 166.87 323.477 167.731 323.477C167.866 323.477 168 323.477 168.135 323.477C168.269 323.477 168.404 323.477 168.538 323.477V325.213H167.327C166.843 325.213 166.486 325.307 166.258 325.496C166.029 325.684 165.915 325.994 165.915 326.424V327.312L165.975 327.837V337ZM168.538 328.786H162.322V326.969H168.538V328.786ZM173.904 337.202C172.881 337.202 171.993 336.987 171.239 336.556C170.486 336.112 169.907 335.5 169.504 334.719C169.1 333.925 168.898 333.01 168.898 331.974C168.898 330.938 169.1 330.03 169.504 329.25C169.907 328.469 170.486 327.864 171.239 327.433C171.993 326.989 172.881 326.767 173.904 326.767C174.926 326.767 175.801 326.989 176.527 327.433C177.267 327.864 177.833 328.469 178.223 329.25C178.626 330.03 178.828 330.938 178.828 331.974C178.828 333.01 178.626 333.925 178.223 334.719C177.833 335.5 177.267 336.112 176.527 336.556C175.801 336.987 174.926 337.202 173.904 337.202ZM173.904 335.264C174.953 335.264 175.686 335.002 176.104 334.477C176.521 333.939 176.729 333.105 176.729 331.974C176.729 330.844 176.521 330.017 176.104 329.492C175.686 328.967 174.953 328.705 173.904 328.705C172.841 328.705 172.101 328.967 171.683 329.492C171.266 330.017 171.058 330.844 171.058 331.974C171.058 333.105 171.266 333.939 171.683 334.477C172.101 335.002 172.841 335.264 173.904 335.264ZM182.637 337H180.458V326.908H182.456V329.714L182.637 329.815V337ZM182.637 330.461H182.133V328.503H182.557C182.759 328.032 183.088 327.628 183.546 327.292C184.017 326.942 184.622 326.767 185.362 326.767C186.075 326.767 186.64 326.922 187.058 327.231C187.488 327.541 187.798 327.951 187.986 328.463C188.174 328.974 188.269 329.546 188.269 330.178V330.844H186.089V330.441C186.089 329.768 185.974 329.297 185.746 329.028C185.517 328.759 185.086 328.624 184.454 328.624C183.795 328.624 183.324 328.765 183.041 329.048C182.772 329.317 182.637 329.788 182.637 330.461ZM205.729 337H203.549V331.167C203.549 330.279 203.381 329.64 203.045 329.25C202.722 328.846 202.103 328.644 201.188 328.644C200.367 328.644 199.755 328.839 199.351 329.23C198.961 329.606 198.766 330.252 198.766 331.167L198.382 331.207L198.201 328.846H198.524C198.685 328.496 198.907 328.167 199.19 327.857C199.486 327.534 199.862 327.272 200.32 327.07C200.777 326.868 201.336 326.767 201.995 326.767C202.87 326.767 203.576 326.935 204.114 327.272C204.666 327.608 205.07 328.072 205.325 328.664C205.594 329.256 205.729 329.936 205.729 330.703V337ZM191.803 337H189.623V326.969H191.621V329.976L191.803 330.077V337ZM198.766 337H196.586V331.167C196.586 330.279 196.418 329.64 196.081 329.25C195.758 328.846 195.14 328.644 194.225 328.644C193.404 328.644 192.792 328.833 192.388 329.209C191.998 329.586 191.803 330.232 191.803 331.147L191.419 331.207L191.237 328.846H191.722C191.87 328.483 192.085 328.146 192.368 327.837C192.664 327.527 193.041 327.272 193.498 327.07C193.955 326.868 194.5 326.767 195.133 326.767C195.98 326.767 196.667 326.935 197.191 327.272C197.73 327.608 198.127 328.072 198.382 328.664C198.638 329.256 198.766 329.936 198.766 330.703V337ZM216.273 337H214.254V335.022L214.194 334.477V330.622C214.194 329.869 214.012 329.357 213.649 329.088C213.299 328.819 212.727 328.685 211.933 328.685C211.14 328.685 210.568 328.826 210.218 329.108C209.881 329.391 209.713 329.862 209.713 330.521V330.824H207.614V330.622C207.614 329.869 207.796 329.203 208.159 328.624C208.536 328.045 209.054 327.595 209.713 327.272C210.386 326.935 211.166 326.767 212.055 326.767C212.996 326.767 213.777 326.942 214.396 327.292C215.015 327.642 215.479 328.126 215.788 328.745C216.111 329.351 216.273 330.071 216.273 330.905V337ZM210.521 337.202C209.619 337.202 208.859 336.973 208.24 336.516C207.634 336.045 207.332 335.379 207.332 334.517C207.332 333.952 207.46 333.481 207.715 333.105C207.984 332.728 208.368 332.418 208.866 332.176C209.363 331.934 209.969 331.766 210.682 331.672L214.396 331.147V332.681L211.005 333.185C210.426 333.266 210.023 333.387 209.794 333.549C209.565 333.71 209.451 333.979 209.451 334.356C209.451 334.746 209.585 335.029 209.855 335.204C210.137 335.379 210.595 335.466 211.227 335.466C211.711 335.466 212.176 335.392 212.62 335.244C213.077 335.083 213.454 334.82 213.75 334.457C214.046 334.08 214.194 333.555 214.194 332.883L214.476 335.446L214.154 335.426C213.965 335.735 213.703 336.024 213.366 336.294C213.043 336.563 212.647 336.785 212.176 336.96C211.705 337.121 211.153 337.202 210.521 337.202ZM222.44 337C221.336 337 220.489 336.765 219.897 336.294C219.318 335.823 219.029 335.029 219.029 333.912V327.191L219.533 324.487H221.209V333.811C221.209 334.336 221.336 334.672 221.592 334.82C221.861 334.955 222.339 335.022 223.025 335.022H224.236V336.818C224.034 336.872 223.772 336.919 223.449 336.96C223.126 336.987 222.79 337 222.44 337ZM224.236 328.786H217.354V326.969H224.236V328.786ZM227.691 325.698H225.532L225.511 323.477H227.691V325.698ZM227.711 337H225.532V326.908H227.711V337ZM234.216 337.202C233.193 337.202 232.305 336.987 231.552 336.556C230.798 336.112 230.22 335.5 229.816 334.719C229.413 333.925 229.211 333.01 229.211 331.974C229.211 330.938 229.413 330.03 229.816 329.25C230.22 328.469 230.798 327.864 231.552 327.433C232.305 326.989 233.193 326.767 234.216 326.767C235.239 326.767 236.113 326.989 236.84 327.433C237.58 327.864 238.145 328.469 238.535 329.25C238.939 330.03 239.141 330.938 239.141 331.974C239.141 333.01 238.939 333.925 238.535 334.719C238.145 335.5 237.58 336.112 236.84 336.556C236.113 336.987 235.239 337.202 234.216 337.202ZM234.216 335.264C235.266 335.264 235.999 335.002 236.416 334.477C236.833 333.939 237.042 333.105 237.042 331.974C237.042 330.844 236.833 330.017 236.416 329.492C235.999 328.967 235.266 328.705 234.216 328.705C233.153 328.705 232.413 328.967 231.996 329.492C231.579 330.017 231.37 330.844 231.37 331.974C231.37 333.105 231.579 333.939 231.996 334.477C232.413 335.002 233.153 335.264 234.216 335.264ZM250.115 337H247.935V331.167C247.935 330.279 247.767 329.64 247.431 329.25C247.094 328.846 246.462 328.644 245.533 328.644C244.941 328.644 244.457 328.732 244.08 328.907C243.703 329.068 243.421 329.337 243.233 329.714C243.044 330.077 242.95 330.575 242.95 331.207H242.567L242.385 328.846H242.869C243.017 328.483 243.239 328.146 243.535 327.837C243.831 327.527 244.208 327.272 244.666 327.07C245.136 326.868 245.695 326.767 246.341 326.767C247.215 326.767 247.928 326.935 248.48 327.272C249.032 327.608 249.442 328.072 249.711 328.664C249.98 329.256 250.115 329.936 250.115 330.703V337ZM242.95 337H240.77V326.969H242.768V329.976L242.95 330.077V337ZM254.523 337H251.758V333.872H254.523V337Z" fill="white"/>
</svg>
