<svg width="402" height="381" viewBox="0 0 402 381" fill="none" xmlns="http://www.w3.org/2000/svg">
<path d="M402 262.76H0V262.96H402V262.76Z" fill="#EBEBEB" fill-opacity="0.2"/>
<g opacity="0.13">
<path d="M223.441 141.326L355.96 141.326V22.8878L223.441 22.8878L223.441 141.326Z" fill="#E6E6E6"/>
<path d="M217.861 141.326L353.353 141.326V22.8878L217.861 22.8878L217.861 141.326Z" fill="#F0F0F0"/>
<path d="M223.441 145.336L355.96 145.336V141.327L223.441 141.327V145.336Z" fill="#E6E6E6"/>
<path d="M208.565 145.336L344.057 145.336V141.327L208.565 141.327V145.336Z" fill="#F0F0F0"/>
<path d="M345.541 133.53V30.6855L225.673 30.6855V133.53L345.541 133.53Z" fill="#FAFAFA"/>
<path d="M321.452 133.53L275.602 30.6855H228.682L274.531 133.53H321.452Z" fill="white"/>
<path d="M341.925 116.344C342.234 116.344 342.483 116.095 342.483 115.787V35.7581C342.483 35.4507 342.234 35.2012 341.925 35.2012C341.616 35.2012 341.367 35.4507 341.367 35.7581V115.787C341.367 116.095 341.616 116.344 341.925 116.344Z" fill="#F0F0F0"/>
<path d="M256.892 133.53L211.042 30.6855H194.81L240.659 133.53H256.892Z" fill="white"/>
<path d="M226.665 133.53L226.665 30.6855H225.673L225.673 133.53H226.665Z" fill="#E6E6E6"/>
<g opacity="0.5">
<path d="M216.013 41.3943H348.531L349.251 33.7148H216.731L216.013 41.3943Z" fill="#E6E6E6"/>
<path d="M216.013 54.074H348.531L349.251 46.3945H216.731L216.013 54.074Z" fill="#E6E6E6"/>
<path d="M216.013 66.7537H348.531L349.251 59.0742H216.731L216.013 66.7537Z" fill="#E6E6E6"/>
<path d="M216.013 79.4353H348.531L349.251 71.7559H216.731L216.013 79.4353Z" fill="#E6E6E6"/>
<path d="M216.013 92.115H348.531L349.251 84.4355H216.731L216.013 92.115Z" fill="#E6E6E6"/>
<path d="M216.013 104.795H348.531L349.251 97.1152H216.731L216.013 104.795Z" fill="#E6E6E6"/>
</g>
<path d="M62.6043 262.758H168.199L168.199 22.8887H62.6043L62.6043 262.758Z" fill="#F0F0F0"/>
<path d="M62.6037 262.758H166.121L166.121 22.8887H62.6037L62.6037 262.758Z" fill="#F5F5F5"/>
<path d="M160.667 262.757L160.667 28.332L68.0566 28.332L68.0566 262.757H160.667Z" fill="#EBEBEB"/>
<path d="M93.1945 135.673C87.9444 134.229 82.6942 138.884 77.4441 137.44C76.333 137.146 75.4229 135.648 75.4229 134.54C75.4237 133.428 76.333 133.111 77.4441 133.406C82.6942 134.85 87.9444 130.195 93.1945 131.639C94.3048 131.933 95.2157 133.432 95.2157 134.54C95.2165 135.65 94.304 135.967 93.1945 135.673Z" fill="white"/>
<path d="M69.4717 262.757L69.4717 28.332H68.0574L68.0574 262.757H69.4717Z" fill="#E0E0E0"/>
<path d="M334.058 257.467H352.997V175.489H334.058V257.467Z" fill="#F0F0F0"/>
<path d="M255.964 262.66H349.361V257.466H255.964V262.66Z" fill="#F0F0F0"/>
<path d="M334.058 175.488H252.326V257.467H334.058V175.488Z" fill="#F5F5F5"/>
<path d="M326.612 185.578H259.772V212.464H326.612V185.578Z" fill="#F0F0F0"/>
<path d="M326.612 220.49H259.772V247.376H326.612V220.49Z" fill="#F0F0F0"/>
<path d="M285.689 187.845H300.696C301.712 187.845 302.543 187.015 302.543 186.001C302.543 184.988 301.712 184.158 300.696 184.158H285.689C284.672 184.158 283.842 184.988 283.842 186.001C283.842 187.015 284.673 187.845 285.689 187.845Z" fill="#F5F5F5"/>
<path d="M285.689 222.757H300.696C301.712 222.757 302.543 221.927 302.543 220.914C302.543 219.899 301.712 219.07 300.696 219.07H285.689C284.672 219.07 283.842 219.9 283.842 220.914C283.842 221.928 284.673 222.757 285.689 222.757Z" fill="#F5F5F5"/>
<path d="M316.442 173.875C315.671 173.875 315.04 173.245 315.04 172.475V129.878C315.04 129.108 315.671 128.479 316.442 128.479C317.213 128.479 317.844 129.108 317.844 129.878V172.475C317.844 173.246 317.213 173.875 316.442 173.875Z" fill="#EBEBEB"/>
<path d="M329.581 172.223H303.302V175.527H329.581V172.223Z" fill="#F0F0F0"/>
<path d="M323.723 153.987C323.337 153.987 323.021 153.673 323.021 153.287V131.989C323.021 131.604 323.337 131.289 323.723 131.289C324.108 131.289 324.424 131.604 324.424 131.989V153.287C324.424 153.672 324.108 153.987 323.723 153.987Z" fill="#E0E0E0"/>
<path d="M296.01 139.357C296.01 139.357 296.529 123.697 316.443 123.697C336.356 123.697 336.875 139.357 336.875 139.357H296.01Z" fill="#E6E6E6"/>
</g>
<g opacity="0.5">
<path d="M201 299C287.094 299 356.887 294.932 356.887 289.914C356.887 284.896 287.094 280.828 201 280.828C114.906 280.828 45.1133 284.896 45.1133 289.914C45.1133 294.932 114.906 299 201 299Z" fill="#F5F5F5"/>
</g>
<path d="M187.864 71.5018C187.906 69.8078 189.477 67.5786 195.793 67.1774C202.109 66.7762 204.457 67.0683 207.067 71.9921C209.881 77.2995 213.097 83.2264 210.998 88.6654C208.899 94.1044 202.288 97.2933 197.554 100.167C192.82 103.04 185.761 112.694 185.761 112.694C185.761 112.694 172.591 76.2715 187.864 71.5018Z" fill="#263238"/>
<path d="M190.75 144.179C190.75 144.179 200.328 193.246 203.725 213.189C207.258 233.932 210.233 278.566 210.233 278.566H215.553C215.553 278.566 222.33 240.094 215.545 211.444C216 188.607 211.553 141.107 211.553 141.107L190.75 144.179Z" fill="#E5E5D4"/>
<path d="M197.726 143.149C197.726 143.149 218.731 194.456 226.045 213.322C236.299 227.042 262.087 256.152 263.499 256.732L265.369 252.538C265.369 252.538 249.609 221.781 236.905 206.58C233.526 183.988 217.445 140.236 217.445 140.236L197.726 143.149Z" fill="#E5E5D4"/>
<path d="M187.839 112.267C186.326 114.033 184.772 115.723 183.223 117.436C181.664 119.137 180.071 120.806 178.474 122.477C176.879 124.152 175.258 125.802 173.585 127.416C171.917 129.037 170.233 130.646 168.469 132.226L168.734 131.944C168.325 132.419 167.871 132.781 167.432 133.059C167.001 133.317 166.568 133.526 166.178 133.661C165.381 133.953 164.673 134.079 164.005 134.154C162.673 134.3 161.488 134.255 160.336 134.166C158.043 133.978 155.909 133.54 153.808 133.047C151.714 132.526 149.67 131.927 147.648 131.28C145.629 130.602 143.654 129.901 141.671 129.069C140.812 128.708 140.407 127.72 140.769 126.862C141.088 126.106 141.896 125.703 142.672 125.866L142.704 125.873C144.69 126.288 146.721 126.713 148.732 127.07C150.741 127.455 152.754 127.788 154.75 128.035C156.738 128.3 158.729 128.483 160.595 128.493C161.521 128.496 162.427 128.442 163.156 128.295C163.517 128.223 163.832 128.128 164.006 128.043C164.106 128.004 164.134 127.964 164.149 127.956C164.142 127.948 164.089 127.972 164.019 128.053L164.285 127.771C165.865 126.209 167.42 124.571 168.962 122.915L173.573 117.902L182.745 107.779C184.004 106.39 186.152 106.282 187.544 107.538C188.911 108.772 189.039 110.863 187.85 112.254L187.839 112.267Z" fill="#FF8B7B"/>
<path d="M144.023 126.317L140.666 120.518L138.371 126.861C138.371 126.861 141.188 130.06 143.878 129.432L144.023 126.317Z" fill="#FF8B7B"/>
<path d="M136.488 120.69L135.672 123.396C135.486 124.014 135.692 124.684 136.193 125.091L138.372 126.862L140.667 120.519L138.629 119.677C137.755 119.315 136.76 119.786 136.488 120.69Z" fill="#E5E5D4"/>
<path d="M187.906 104.17C183.179 103.399 181.083 106.661 178.828 109.141C179.364 113.521 187.109 122.511 187.109 122.511C187.109 122.511 196.495 105.569 187.906 104.17Z" fill="#EBE30D"/>
<path d="M181.618 109.553C182.219 114.325 184.502 127.724 190.899 147.784L218.805 143.664C216.878 133.565 214.215 124.025 215.446 103.923C215.589 101.582 213.72 99.6037 211.369 99.6133C209.481 99.6205 207.15 99.6968 204.723 99.9367C200.199 100.384 196.497 100.784 192.601 101.727C190.026 102.35 187.302 103.183 185.227 103.859C182.81 104.647 181.301 107.036 181.618 109.553Z" fill="#EBE30D"/>
<path d="M192.6 101.728L204.722 99.9375C204.722 99.9375 204.17 104.581 196.532 110.689C190.726 105.313 192.6 101.728 192.6 101.728Z" fill="white"/>
<path d="M201.503 86.4902C201.315 90.4961 201.61 97.7414 204.723 99.9361C204.723 99.9361 202.299 104.367 196.9 107.699C192.664 105.857 192.602 101.726 192.602 101.726C196.798 100.048 196.208 96.8434 195.002 93.9306L201.503 86.4902Z" fill="#E5E5D4"/>
<path opacity="0.2" d="M198.853 89.5273L195.004 93.928C195.292 94.6173 195.541 95.3218 195.696 96.02C197.323 95.5353 199.335 93.3775 199.254 91.6153C199.214 90.7366 199.054 89.9093 198.853 89.5273Z" fill="black"/>
<path d="M204.558 78.7432C203.967 85.2984 203.857 88.0861 200.437 91.3625C195.294 96.2904 187.356 94.1326 185.973 87.5324C184.729 81.5919 185.904 71.8694 192.419 69.4396C198.838 67.0451 205.15 72.188 204.558 78.7432Z" fill="#E5E5D4"/>
<path d="M199.519 73.6406C198.939 77.5638 201.262 82.3665 203.272 82.417C205.282 82.4676 206.8 74.8892 206.8 74.8892L199.519 73.6406Z" fill="#263238"/>
<path d="M188.353 71.6352C192.64 74.6669 205.371 79.2143 205.639 75.2912C205.906 71.368 200.591 68.2031 196.66 68.2031C192.73 68.2031 189.559 69.7631 188.353 71.6352Z" fill="#263238"/>
<path opacity="0.2" d="M202.684 207.274L215.509 202.225C215.446 199.168 215.339 195.923 215.192 192.57L200.955 197.747C201.589 201.149 202.173 204.373 202.684 207.274Z" fill="black"/>
<path opacity="0.2" d="M232.341 186.33L217.465 191.739C218.635 194.64 219.768 197.466 220.83 200.132L234.515 194.745C233.861 192.027 233.124 189.2 232.341 186.33Z" fill="black"/>
<path d="M194.933 80.4688C194.917 81.0032 194.621 81.4293 194.271 81.4189C193.92 81.4093 193.649 80.9671 193.665 80.4327C193.68 79.8983 193.976 79.4722 194.326 79.4826C194.677 79.493 194.948 79.9344 194.933 80.4688Z" fill="#263238"/>
<path d="M188.878 80.2969C188.863 80.8314 188.567 81.2575 188.216 81.247C187.866 81.2374 187.595 80.7953 187.61 80.2608C187.625 79.7264 187.921 79.3003 188.272 79.3107C188.621 79.3212 188.893 79.7625 188.878 80.2969Z" fill="#263238"/>
<path d="M188.425 79.3443L187.149 78.9375C187.149 78.9375 187.781 79.959 188.425 79.3443Z" fill="#263238"/>
<path d="M190.452 81.2617C190.452 81.2617 189.478 83.5383 188.445 84.62C189.134 85.2988 190.345 85.0316 190.345 85.0316L190.452 81.2617Z" fill="#263238"/>
<path d="M192.244 87.0272C191.965 87.0681 191.665 87.0882 191.343 87.0786C191.256 87.0762 191.188 87.0039 191.19 86.9165C191.193 86.8306 191.263 86.7624 191.353 86.764C193.702 86.8322 194.849 85.2233 194.86 85.2065C194.909 85.135 195.008 85.1174 195.079 85.1663C195.15 85.2153 195.168 85.314 195.119 85.3846C195.075 85.4488 194.152 86.7455 192.244 87.0272Z" fill="#263238"/>
<path d="M205.979 82.2206C205.655 83.5462 204.747 84.5983 203.777 85.1648C202.319 86.0162 201.162 84.8173 201.208 83.2205C201.251 81.7825 202.061 79.607 203.698 79.4064C205.31 79.2082 206.351 80.7048 205.979 82.2206Z" fill="#E5E5D4"/>
<path d="M197.179 77.7116C197.096 77.7164 197.011 77.6883 196.945 77.6273C195.921 76.6692 194.793 76.9316 194.78 76.9348C194.613 76.9741 194.441 76.873 194.4 76.7037C194.359 76.5352 194.462 76.3651 194.63 76.3241C194.689 76.3097 196.104 75.9799 197.376 77.1691C197.503 77.2879 197.509 77.4861 197.391 77.6129C197.333 77.6739 197.256 77.7068 197.179 77.7116Z" fill="#263238"/>
<path d="M187.291 77.2032C187.215 77.1872 187.144 77.1431 187.096 77.074C186.997 76.9312 187.033 76.7354 187.176 76.6367C188.61 75.6505 189.96 76.1849 190.018 76.209C190.178 76.2748 190.256 76.4586 190.19 76.6191C190.124 76.7795 189.94 76.8558 189.78 76.7908C189.727 76.7691 188.674 76.3695 187.534 77.1543C187.46 77.2048 187.372 77.2193 187.291 77.2032Z" fill="#263238"/>
<path d="M194.48 79.5162L193.204 79.1094C193.204 79.1094 193.836 80.1309 194.48 79.5162Z" fill="#263238"/>
<path d="M190.898 147.783L200.238 202.885L235.188 192.537C232.331 163.42 225.078 148.994 218.804 143.662L190.898 147.783Z" fill="#263238"/>
<path opacity="0.2" d="M205.06 178.747L212.047 167.282L210.852 159.221L205.06 178.747Z" fill="black"/>
<path d="M215.095 102.382C215.688 102.91 216.42 103.521 217.099 104.087C217.793 104.661 218.503 105.221 219.223 105.766C220.664 106.853 222.115 107.923 223.618 108.884C226.615 110.798 229.759 112.472 232.902 113.337C233.099 113.399 233.292 113.433 233.488 113.483L233.781 113.553C233.868 113.574 233.774 113.553 233.75 113.554H233.637C233.31 113.573 233.191 113.697 233.281 113.66C233.47 113.594 234.013 113.093 234.447 112.489C235.354 111.247 236.213 109.656 236.974 108.033C237.757 106.404 238.482 104.702 239.153 102.971C239.841 101.25 240.498 99.476 241.129 97.7459L241.145 97.7018C241.464 96.8271 242.433 96.3753 243.31 96.6939C244.073 96.9716 244.513 97.7403 244.405 98.5115C243.862 102.397 243.01 106.144 241.785 109.947C241.129 111.839 240.423 113.731 239.25 115.67C238.63 116.635 237.979 117.664 236.589 118.671C235.89 119.15 234.851 119.653 233.567 119.654C233.411 119.659 233.255 119.647 233.099 119.633C232.957 119.62 232.743 119.593 232.716 119.585L232.309 119.517C232.039 119.468 231.762 119.432 231.5 119.37C229.36 118.939 227.364 118.236 225.464 117.413C223.566 116.59 221.773 115.619 220.051 114.571C218.332 113.519 216.664 112.412 215.077 111.204C214.284 110.6 213.503 109.982 212.735 109.345C211.951 108.699 211.239 108.076 210.436 107.315C209.075 106.026 209.018 103.881 210.31 102.523C211.577 101.191 213.67 101.111 215.033 102.326L215.095 102.382Z" fill="#E5E5D4"/>
<path d="M211.066 99.6136C215.847 99.3311 217.721 101.839 219.709 104.537C218.726 108.839 213.5 116.195 213.5 116.195C213.5 116.195 202.378 100.126 211.066 99.6136Z" fill="#EBE30D"/>
<path d="M240.911 98.1346L242.12 91.0723L246.48 96.2248C246.48 96.2248 244.951 100.201 242.211 100.546L240.911 98.1346Z" fill="#E5E5D4"/>
<path d="M246.105 89.15L248.727 91.4426C249.207 91.8623 249.291 92.5756 248.923 93.0956L246.016 97.201L242.118 91.0711L244.492 89.1243C244.964 88.7383 245.647 88.7488 246.105 89.15Z" fill="#E5E5D4"/>
<path d="M200.13 288.61C200.798 288.052 201.869 287.591 202.816 287.257H202.814C202.814 287.257 207.576 284.574 210.055 276.505L215.558 275.132C216.139 274.987 216.718 275.38 216.789 275.974C216.841 276.409 216.873 276.904 216.929 277.307C217.032 278.055 216.942 279.19 216.928 279.93C216.881 282.656 216.576 288.786 216.576 288.786H215.937C215.937 288.786 215.917 285.017 215.598 283.221C215.28 281.425 214.01 283.552 213.297 285.584C212.584 287.616 209.723 289.783 205.561 289.884C200.69 290.004 198.715 289.792 200.13 288.61Z" fill="#263238"/>
<path d="M261.527 269.673C261.603 268.807 262.032 267.724 262.465 266.819L262.463 266.821C262.463 266.821 263.922 261.561 259.948 254.111L262.86 249.252C263.168 248.738 263.855 248.607 264.327 248.976C264.673 249.246 265.046 249.574 265.372 249.819C265.976 250.274 266.716 251.139 267.232 251.671C269.134 253.63 273.267 258.174 273.267 258.174L272.816 258.626C272.816 258.626 270.128 255.979 268.63 254.936C267.131 253.892 267.743 256.292 268.681 258.23C269.62 260.169 269.136 263.722 266.27 266.734C262.912 270.261 261.366 271.506 261.527 269.673Z" fill="#263238"/>
<path opacity="0.9" d="M240.328 38.9061L155.56 30.7998C151.23 30.3857 147.347 33.5827 146.932 37.9047L134.778 164.503C134.363 168.825 137.567 172.7 141.897 173.114L226.664 181.221C230.995 181.635 234.877 178.438 235.292 174.116L247.446 47.5172C247.862 43.1952 244.659 39.3202 240.328 38.9061ZM222.185 87.3958C220.65 103.387 206.414 115.116 190.385 113.584C179.534 112.546 170.65 105.696 166.515 96.4185C164.543 91.9938 163.651 87.0114 164.147 81.8452C165.683 65.8476 179.918 54.1246 195.947 55.6573C198.558 55.9068 201.051 56.4894 203.39 57.3673C205.698 58.2227 207.86 59.3678 209.833 60.7456C216.169 65.1583 220.605 71.9927 221.917 79.7773C222.336 82.2352 222.435 84.7958 222.185 87.3958Z" fill="white"/>
<path d="M197.483 7.90788L206.668 9.63796C208.955 10.0689 210.622 12.3254 210.366 14.6589L208.589 30.8034C208.566 31.0184 208.529 31.2311 208.468 31.4261C207.943 33.4033 206.035 34.6471 203.96 34.2555L194.775 32.5254C192.7 32.1346 191.137 30.2369 191.059 28.1465C191.043 27.937 191.054 27.7196 191.078 27.5045L192.855 11.36C193.11 9.0265 195.196 7.47696 197.483 7.90788ZM201.323 15.6162C199.497 15.272 197.845 16.4981 197.641 18.3558C197.436 20.2199 198.756 22.0053 200.582 22.3496C202.408 22.693 204.059 21.4677 204.264 19.6036C204.469 17.7459 203.148 15.9605 201.323 15.6162Z" fill="#263238"/>
<path d="M225.779 42.1095C225.411 42.1095 225.058 41.9049 224.888 41.5526L221.344 34.2366C220.857 33.232 219.863 32.5427 218.75 32.4351L177.977 28.536C176.861 28.4325 175.757 28.9196 175.088 29.8135L170.217 36.3246C169.889 36.7611 169.269 36.851 168.833 36.5252C168.395 36.1994 168.305 35.5807 168.632 35.1442L173.503 28.6331C174.583 27.1895 176.371 26.3991 178.164 26.5724L218.938 30.4715C220.734 30.6433 222.337 31.7579 223.123 33.378L226.667 40.694C226.905 41.1842 226.699 41.7749 226.207 42.0124C226.07 42.0782 225.922 42.1095 225.779 42.1095Z" fill="#EBE30D"/>
<path d="M142.271 64.6679L141.615 64.6053L142.068 59.8909L142.724 59.9535L142.271 64.6679ZM143.147 55.552L142.491 55.4894L143.516 44.8145L144.172 44.877L143.147 55.552Z" fill="#EBE30D"/>
<path d="M227.428 181.585C227.164 181.585 226.899 181.572 226.634 181.547L141.866 173.44C139.684 173.231 137.709 172.181 136.304 170.482C134.899 168.783 134.242 166.649 134.45 164.471L146.604 37.8724C146.813 35.6946 147.865 33.7229 149.568 32.3211C151.271 30.9192 153.407 30.2652 155.592 30.4706L240.359 38.5778C242.541 38.7864 244.517 39.8368 245.921 41.5364C247.326 43.2352 247.984 45.3697 247.775 47.5476L235.621 174.146C235.412 176.324 234.36 178.296 232.657 179.697C231.162 180.928 229.33 181.585 227.428 181.585ZM154.8 31.0909C153.05 31.0909 151.364 31.6951 149.989 32.829C148.423 34.1185 147.454 35.9321 147.262 37.935L135.108 164.534C134.915 166.536 135.521 168.5 136.814 170.064C138.106 171.627 139.924 172.593 141.929 172.786L226.698 180.893C228.707 181.09 230.672 180.481 232.239 179.19C233.805 177.901 234.774 176.087 234.966 174.084L247.12 47.4858C247.312 45.4828 246.707 43.5193 245.414 41.9553C244.121 40.3921 242.304 39.4252 240.297 39.2334L155.529 31.1262C155.286 31.1029 155.042 31.0909 154.8 31.0909ZM193.221 114.047C192.27 114.047 191.314 114.001 190.355 113.909C179.787 112.898 170.537 106.248 166.215 96.5508C164.164 91.9487 163.336 86.8524 163.82 81.8122C165.371 65.6613 179.802 53.7786 195.979 55.3281C198.58 55.5777 201.113 56.1586 203.507 57.0574C205.802 57.908 207.995 59.0571 210.023 60.4742C216.486 64.9752 220.94 71.991 222.243 79.7202C222.673 82.2375 222.764 84.8302 222.514 87.4253C221.763 95.2476 218.005 102.311 211.931 107.313C206.599 111.705 200.044 114.047 193.221 114.047ZM193.145 55.8513C178.48 55.8513 165.902 67.0134 164.476 81.8756C164.003 86.8034 164.812 91.7858 166.817 96.2836C171.042 105.764 180.086 112.268 190.418 113.255C198.083 113.99 205.573 111.699 211.512 106.806C217.45 101.915 221.124 95.0109 221.858 87.3627C222.102 84.8254 222.013 82.2912 221.593 79.8301C220.319 72.2726 215.964 65.4141 209.646 61.0135C207.664 59.6284 205.521 58.505 203.277 57.6745C200.935 56.795 198.46 56.226 195.916 55.9837C194.985 55.8938 194.061 55.8513 193.145 55.8513Z" fill="#EBE30D"/>
<path opacity="0.8" d="M203.391 57.3665C201.052 56.4886 198.558 55.9068 195.948 55.6565C179.919 54.1238 165.684 65.8468 164.148 81.8444C163.652 87.0106 164.544 91.993 166.516 96.4177L139.152 118.953L146.933 37.9047C147.348 33.5827 151.231 30.3857 155.561 30.7998L183.649 33.4856L192.642 44.3644L203.391 57.3665Z" fill="#EBE30D"/>
<path opacity="0.5" d="M247.448 47.5166L242.017 104.088L221.918 79.7759C220.606 71.9913 216.17 65.1568 209.834 60.7442L236.766 38.5645L240.329 38.9055C244.659 39.3196 247.862 43.1946 247.448 47.5166Z" fill="#EBE30D"/>
<path d="M236.765 38.5666L209.833 60.7464C207.86 59.3677 205.699 58.2227 203.39 57.368L192.641 44.3651L183.647 33.4863L236.765 38.5666Z" fill="#EBE30D"/>
<path opacity="0.5" d="M214.036 131.683L163.724 126.872C162.881 126.791 162.264 126.044 162.345 125.203L162.598 122.573C162.678 121.732 163.426 121.116 164.269 121.197L214.581 126.008C215.424 126.088 216.041 126.835 215.961 127.676L215.708 130.307C215.626 131.148 214.878 131.764 214.036 131.683Z" fill="#EBE30D"/>
<path opacity="0.5" d="M209.118 141.516L166.68 137.457C165.837 137.377 165.22 136.63 165.301 135.789L165.554 133.159C165.634 132.318 166.382 131.702 167.225 131.783L209.663 135.841C210.506 135.922 211.123 136.669 211.043 137.51L210.791 140.14C210.709 140.98 209.961 141.597 209.118 141.516Z" fill="#EBE30D"/>
<path opacity="0.5" d="M160.36 157.255L147.749 156.049L147.551 158.11L160.162 159.316L160.36 157.255Z" fill="#EBE30D"/>
<path opacity="0.5" d="M173.371 158.5L163.201 157.527L163.003 159.588L173.173 160.561L173.371 158.5Z" fill="#EBE30D"/>
<path opacity="0.5" d="M176.539 163.482L147.303 160.686L147.105 162.746L176.341 165.543L176.539 163.482Z" fill="#EBE30D"/>
<path opacity="0.5" d="M182.49 154.693L148.194 151.412L147.996 153.473L182.292 156.753L182.49 154.693Z" fill="#EBE30D"/>
<path d="M205.796 9.28842L196.496 7.59605C194.18 7.17477 191.938 8.73473 191.517 11.0715L188.613 27.2392C188.574 27.4543 188.548 27.6725 188.551 27.882C188.49 29.974 189.964 31.867 192.066 32.2489L201.366 33.9413C203.468 34.3241 205.509 33.0706 206.178 31.0894C206.254 30.8944 206.305 30.6809 206.344 30.4659L209.249 14.2981C209.67 11.9614 208.113 9.70971 205.796 9.28842ZM199.915 15.2956C201.764 15.6318 202.998 17.414 202.663 19.2741C202.328 21.1406 200.552 22.3748 198.704 22.0385C196.855 21.7023 195.621 19.9209 195.957 18.0536C196.291 16.1935 198.067 14.9593 199.915 15.2956Z" fill="#263238"/>
<path opacity="0.2" d="M205.796 9.28842L196.496 7.59605C194.18 7.17477 191.938 8.73473 191.517 11.0715L188.613 27.2392C188.574 27.4543 188.548 27.6725 188.551 27.882C188.49 29.974 189.964 31.867 192.066 32.2489L201.366 33.9413C203.468 34.3241 205.509 33.0706 206.178 31.0894C206.254 30.8944 206.305 30.6809 206.344 30.4659L209.249 14.2981C209.67 11.9614 208.113 9.70971 205.796 9.28842ZM199.915 15.2956C201.764 15.6318 202.998 17.414 202.663 19.2741C202.328 21.1406 200.552 22.3748 198.704 22.0385C196.855 21.7023 195.621 19.9209 195.957 18.0536C196.291 16.1935 198.067 14.9593 199.915 15.2956Z" fill="white"/>
<path opacity="0.2" d="M223.146 168.35C225.576 166.349 225.92 162.761 223.915 160.337C221.911 157.912 218.316 157.568 215.886 159.569C213.457 161.569 213.112 165.157 215.117 167.582C217.122 170.007 220.716 170.351 223.146 168.35Z" fill="#EBE30D"/>
<path opacity="0.8" d="M208.056 166.907C210.486 164.906 210.83 161.318 208.826 158.893C206.821 156.468 203.226 156.124 200.797 158.125C198.367 160.126 198.023 163.714 200.027 166.139C202.032 168.564 205.627 168.907 208.056 166.907Z" fill="#EBE30D"/>
<path d="M14.4198 345.237H12.5629L7.15389 336.477H9.6364L12.1996 340.655L13.451 342.774H13.6124L14.8234 340.655L17.3665 336.477H19.8288L14.4198 345.237ZM14.5812 350H12.4015V343.683H14.5812V350ZM23.8615 350.202C22.8389 350.202 21.9508 349.987 21.1973 349.556C20.4438 349.112 19.8652 348.5 19.4616 347.719C19.0579 346.925 18.8561 346.01 18.8561 344.974C18.8561 343.938 19.0579 343.03 19.4616 342.25C19.8652 341.469 20.4438 340.864 21.1973 340.433C21.9508 339.989 22.8389 339.767 23.8615 339.767C24.8841 339.767 25.7587 339.989 26.4853 340.433C27.2253 340.864 27.7904 341.469 28.1806 342.25C28.5843 343.03 28.7861 343.938 28.7861 344.974C28.7861 346.01 28.5843 346.925 28.1806 347.719C27.7904 348.5 27.2253 349.112 26.4853 349.556C25.7587 349.987 24.8841 350.202 23.8615 350.202ZM23.8615 348.264C24.911 348.264 25.6443 348.002 26.0614 347.477C26.4785 346.939 26.6871 346.105 26.6871 344.974C26.6871 343.844 26.4785 343.017 26.0614 342.492C25.6443 341.967 24.911 341.705 23.8615 341.705C22.7985 341.705 22.0585 341.967 21.6413 342.492C21.2242 343.017 21.0157 343.844 21.0157 344.974C21.0157 346.105 21.2242 346.939 21.6413 347.477C22.0585 348.002 22.7985 348.264 23.8615 348.264ZM34.1494 350.202C33.2883 350.202 32.5752 350.027 32.01 349.677C31.4449 349.314 31.0278 348.829 30.7587 348.224C30.4896 347.605 30.355 346.919 30.355 346.165V339.969H32.5348V345.762C32.5348 346.663 32.7232 347.316 33.0999 347.719C33.4767 348.123 34.0956 348.325 34.9568 348.325C35.5219 348.325 35.9996 348.237 36.3898 348.062C36.78 347.874 37.076 347.585 37.2778 347.195C37.4796 346.791 37.5806 346.266 37.5806 345.62H38.1457V348.002H37.6613C37.5133 348.379 37.2845 348.735 36.9751 349.072C36.679 349.408 36.2956 349.684 35.8246 349.899C35.3672 350.101 34.8088 350.202 34.1494 350.202ZM39.7603 350H37.742V346.993L37.5806 346.892V339.969H39.7603V350ZM44.0863 350H41.9065V339.908H43.9046V342.714L44.0863 342.815V350ZM44.0863 343.461H43.5817V341.503H44.0055C44.2074 341.032 44.537 340.628 44.9945 340.292C45.4654 339.942 46.0709 339.767 46.811 339.767C47.5241 339.767 48.0892 339.922 48.5063 340.231C48.9369 340.541 49.2464 340.951 49.4348 341.463C49.6231 341.974 49.7173 342.546 49.7173 343.178V343.844H47.5376V343.441C47.5376 342.768 47.4232 342.297 47.1944 342.028C46.9657 341.759 46.5351 341.624 45.9027 341.624C45.2434 341.624 44.7725 341.765 44.4899 342.048C44.2208 342.317 44.0863 342.788 44.0863 343.461ZM60.5428 350.202C59.6413 350.202 58.908 350.027 58.3429 349.677C57.7912 349.314 57.4077 348.903 57.1924 348.446H56.6475L56.7484 345.883H57.1319C57.1319 346.434 57.2328 346.892 57.4346 347.255C57.6499 347.618 57.9661 347.894 58.3832 348.083C58.8004 348.258 59.2982 348.345 59.8768 348.345C60.3477 348.345 60.7581 348.284 61.108 348.163C61.4578 348.042 61.7404 347.854 61.9556 347.598C62.1844 347.343 62.3458 346.999 62.44 346.569C62.5477 346.125 62.6015 345.593 62.6015 344.974C62.6015 344.355 62.5477 343.837 62.44 343.42C62.3458 342.99 62.1844 342.64 61.9556 342.371C61.7404 342.102 61.4578 341.913 61.108 341.806C60.7716 341.685 60.3612 341.624 59.8768 341.624C59.2982 341.624 58.8004 341.718 58.3832 341.907C57.9661 342.082 57.6499 342.351 57.4346 342.714C57.2328 343.064 57.1319 343.521 57.1319 344.086H56.7484L56.6475 341.624H57.0512C57.2934 341.045 57.6903 340.595 58.242 340.272C58.8071 339.935 59.5269 339.767 60.4015 339.767C61.8144 339.767 62.8975 340.238 63.651 341.18C64.4045 342.122 64.7813 343.387 64.7813 344.974C64.7813 346.562 64.418 347.834 63.6914 348.789C62.9648 349.731 61.9153 350.202 60.5428 350.202ZM57.1319 353.492H54.9723V339.969H56.9503V342.351L57.1319 342.613V353.492ZM68.7237 350H66.544V336.477H68.7237V350ZM79.2589 350H77.2406V348.022L77.1801 347.477V343.622C77.1801 342.869 76.9984 342.357 76.6351 342.088C76.2853 341.819 75.7135 341.685 74.9196 341.685C74.1257 341.685 73.5539 341.826 73.204 342.108C72.8677 342.391 72.6995 342.862 72.6995 343.521V343.824H70.6004V343.622C70.6004 342.869 70.7821 342.203 71.1454 341.624C71.5221 341.045 72.0401 340.595 72.6995 340.272C73.3722 339.935 74.1526 339.767 75.0407 339.767C75.9826 339.767 76.763 339.942 77.3819 340.292C78.0009 340.642 78.4651 341.126 78.7745 341.745C79.0975 342.351 79.2589 343.071 79.2589 343.905V350ZM73.5068 350.202C72.6053 350.202 71.845 349.973 71.2261 349.516C70.6206 349.045 70.3179 348.379 70.3179 347.517C70.3179 346.952 70.4457 346.481 70.7013 346.105C70.9704 345.728 71.3539 345.418 71.8518 345.176C72.3496 344.934 72.9551 344.766 73.6682 344.672L77.3819 344.147V345.681L73.9912 346.185C73.4126 346.266 73.0089 346.387 72.7802 346.549C72.5515 346.71 72.4371 346.979 72.4371 347.356C72.4371 347.746 72.5716 348.029 72.8407 348.204C73.1233 348.379 73.5808 348.466 74.2132 348.466C74.6976 348.466 75.1618 348.392 75.6058 348.244C76.0633 348.083 76.44 347.82 76.7361 347.457C77.0321 347.08 77.1801 346.555 77.1801 345.883L77.4626 348.446L77.1397 348.426C76.9513 348.735 76.689 349.024 76.3526 349.294C76.0297 349.563 75.6327 349.785 75.1618 349.96C74.6909 350.121 74.1392 350.202 73.5068 350.202ZM85.8075 350.222C84.758 350.222 83.87 350 83.1434 349.556C82.4168 349.112 81.8584 348.5 81.4682 347.719C81.0914 346.939 80.9031 346.031 80.9031 344.995C80.9031 343.959 81.0982 343.05 81.4884 342.27C81.892 341.476 82.4639 340.864 83.2039 340.433C83.944 339.989 84.8387 339.767 85.8883 339.767C86.7763 339.767 87.5567 339.935 88.2295 340.272C88.9023 340.608 89.4203 341.079 89.7836 341.685C90.1603 342.29 90.3487 342.996 90.3487 343.804V343.985H88.1891V343.864C88.1891 343.124 87.9873 342.586 87.5836 342.25C87.1934 341.9 86.5812 341.725 85.747 341.725C84.7782 341.725 84.0852 342.001 83.6681 342.552C83.2645 343.091 83.0626 343.898 83.0626 344.974C83.0626 346.064 83.2645 346.885 83.6681 347.437C84.0852 347.975 84.7782 348.244 85.747 348.244C86.5812 348.244 87.1934 348.076 87.5836 347.74C87.9873 347.39 88.1891 346.851 88.1891 346.125V346.004H90.3487V346.185C90.3487 346.966 90.1603 347.665 89.7836 348.284C89.4068 348.89 88.8753 349.368 88.1891 349.717C87.5164 350.054 86.7225 350.222 85.8075 350.222ZM96.5485 350.202C95.4586 350.202 94.5504 349.987 93.8238 349.556C93.0972 349.112 92.559 348.5 92.2092 347.719C91.8593 346.925 91.6844 346.01 91.6844 344.974C91.6844 343.938 91.8795 343.03 92.2697 342.25C92.6734 341.469 93.2385 340.864 93.9651 340.433C94.6917 339.989 95.5528 339.767 96.5485 339.767C97.45 339.767 98.2439 339.942 98.9301 340.292C99.6298 340.628 100.168 341.119 100.545 341.765C100.935 342.411 101.13 343.192 101.13 344.107C101.13 344.376 101.117 344.638 101.09 344.894C101.076 345.136 101.056 345.338 101.029 345.499H92.7138V344.046H99.253L99.031 344.248C99.0849 343.629 99.0176 343.124 98.8292 342.734C98.6543 342.344 98.365 342.055 97.9613 341.866C97.5711 341.678 97.08 341.584 96.488 341.584C95.425 341.584 94.6984 341.853 94.3082 342.391C93.918 342.916 93.7229 343.642 93.7229 344.571V345.176C93.7229 345.849 93.8036 346.421 93.9651 346.892C94.14 347.349 94.436 347.692 94.8532 347.921C95.2703 348.15 95.8421 348.264 96.5687 348.264C97.4164 348.264 98.0152 348.13 98.365 347.861C98.7148 347.591 98.8898 347.235 98.8898 346.791V346.629H101.049V346.811C101.049 347.497 100.861 348.096 100.484 348.607C100.107 349.105 99.5827 349.495 98.9099 349.778C98.2506 350.061 97.4635 350.202 96.5485 350.202ZM118.975 350H116.796V344.167C116.796 343.279 116.628 342.64 116.291 342.25C115.968 341.846 115.349 341.644 114.434 341.644C113.614 341.644 113.001 341.839 112.598 342.23C112.207 342.606 112.012 343.252 112.012 344.167L111.629 344.207L111.447 341.846H111.77C111.932 341.496 112.154 341.167 112.436 340.857C112.732 340.534 113.109 340.272 113.566 340.07C114.024 339.868 114.582 339.767 115.242 339.767C116.116 339.767 116.823 339.935 117.361 340.272C117.912 340.608 118.316 341.072 118.572 341.664C118.841 342.256 118.975 342.936 118.975 343.703V350ZM105.049 350H102.869V339.969H104.868V342.976L105.049 343.077V350ZM112.012 350H109.833V344.167C109.833 343.279 109.664 342.64 109.328 342.25C109.005 341.846 108.386 341.644 107.471 341.644C106.65 341.644 106.038 341.833 105.634 342.209C105.244 342.586 105.049 343.232 105.049 344.147L104.666 344.207L104.484 341.846H104.968C105.116 341.483 105.332 341.146 105.614 340.837C105.91 340.527 106.287 340.272 106.745 340.07C107.202 339.868 107.747 339.767 108.379 339.767C109.227 339.767 109.913 339.935 110.438 340.272C110.976 340.608 111.373 341.072 111.629 341.664C111.885 342.256 112.012 342.936 112.012 343.703V350ZM125.483 350.202C124.393 350.202 123.485 349.987 122.758 349.556C122.031 349.112 121.493 348.5 121.143 347.719C120.794 346.925 120.619 346.01 120.619 344.974C120.619 343.938 120.814 343.03 121.204 342.25C121.608 341.469 122.173 340.864 122.899 340.433C123.626 339.989 124.487 339.767 125.483 339.767C126.384 339.767 127.178 339.942 127.864 340.292C128.564 340.628 129.102 341.119 129.479 341.765C129.869 342.411 130.064 343.192 130.064 344.107C130.064 344.376 130.051 344.638 130.024 344.894C130.01 345.136 129.99 345.338 129.963 345.499H121.648V344.046H128.187L127.965 344.248C128.019 343.629 127.952 343.124 127.763 342.734C127.589 342.344 127.299 342.055 126.896 341.866C126.505 341.678 126.014 341.584 125.422 341.584C124.359 341.584 123.633 341.853 123.242 342.391C122.852 342.916 122.657 343.642 122.657 344.571V345.176C122.657 345.849 122.738 346.421 122.899 346.892C123.074 347.349 123.37 347.692 123.787 347.921C124.204 348.15 124.776 348.264 125.503 348.264C126.351 348.264 126.949 348.13 127.299 347.861C127.649 347.591 127.824 347.235 127.824 346.791V346.629H129.984V346.811C129.984 347.497 129.795 348.096 129.418 348.607C129.042 349.105 128.517 349.495 127.844 349.778C127.185 350.061 126.398 350.202 125.483 350.202ZM141.148 350H138.969V344.167C138.969 343.279 138.8 342.64 138.464 342.25C138.128 341.846 137.495 341.644 136.567 341.644C135.975 341.644 135.49 341.732 135.114 341.907C134.737 342.068 134.454 342.337 134.266 342.714C134.078 343.077 133.983 343.575 133.983 344.207H133.6L133.418 341.846H133.903C134.051 341.483 134.273 341.146 134.569 340.837C134.865 340.527 135.242 340.272 135.699 340.07C136.17 339.868 136.728 339.767 137.374 339.767C138.249 339.767 138.962 339.935 139.514 340.272C140.065 340.608 140.476 341.072 140.745 341.664C141.014 342.256 141.148 342.936 141.148 343.703V350ZM133.983 350H131.804V339.969H133.802V342.976L133.983 343.077V350ZM147.315 350C146.212 350 145.364 349.765 144.772 349.294C144.194 348.823 143.904 348.029 143.904 346.912V340.191L144.409 337.487H146.084V346.811C146.084 347.336 146.212 347.672 146.468 347.82C146.737 347.955 147.214 348.022 147.901 348.022H149.112V349.818C148.91 349.872 148.647 349.919 148.324 349.96C148.001 349.987 147.665 350 147.315 350ZM149.112 341.786H142.229V339.969H149.112V341.786ZM158.912 350.222C157.862 350.222 156.974 350 156.248 349.556C155.521 349.112 154.963 348.5 154.572 347.719C154.196 346.939 154.007 346.031 154.007 344.995C154.007 343.959 154.202 343.05 154.593 342.27C154.996 341.476 155.568 340.864 156.308 340.433C157.048 339.989 157.943 339.767 158.993 339.767C159.881 339.767 160.661 339.935 161.334 340.272C162.007 340.608 162.525 341.079 162.888 341.685C163.265 342.29 163.453 342.996 163.453 343.804V343.985H161.293V343.864C161.293 343.124 161.092 342.586 160.688 342.25C160.298 341.9 159.685 341.725 158.851 341.725C157.882 341.725 157.19 342.001 156.772 342.552C156.369 343.091 156.167 343.898 156.167 344.974C156.167 346.064 156.369 346.885 156.772 347.437C157.19 347.975 157.882 348.244 158.851 348.244C159.685 348.244 160.298 348.076 160.688 347.74C161.092 347.39 161.293 346.851 161.293 346.125V346.004H163.453V346.185C163.453 346.966 163.265 347.665 162.888 348.284C162.511 348.89 161.98 349.368 161.293 349.717C160.621 350.054 159.827 350.222 158.912 350.222ZM169.794 350.202C168.771 350.202 167.883 349.987 167.13 349.556C166.376 349.112 165.798 348.5 165.394 347.719C164.991 346.925 164.789 346.01 164.789 344.974C164.789 343.938 164.991 343.03 165.394 342.25C165.798 341.469 166.376 340.864 167.13 340.433C167.883 339.989 168.771 339.767 169.794 339.767C170.817 339.767 171.691 339.989 172.418 340.433C173.158 340.864 173.723 341.469 174.113 342.25C174.517 343.03 174.719 343.938 174.719 344.974C174.719 346.01 174.517 346.925 174.113 347.719C173.723 348.5 173.158 349.112 172.418 349.556C171.691 349.987 170.817 350.202 169.794 350.202ZM169.794 348.264C170.844 348.264 171.577 348.002 171.994 347.477C172.411 346.939 172.62 346.105 172.62 344.974C172.62 343.844 172.411 343.017 171.994 342.492C171.577 341.967 170.844 341.705 169.794 341.705C168.731 341.705 167.991 341.967 167.574 342.492C167.157 343.017 166.948 343.844 166.948 344.974C166.948 346.105 167.157 346.939 167.574 347.477C167.991 348.002 168.731 348.264 169.794 348.264ZM181.048 350.202C180.026 350.202 179.138 349.987 178.384 349.556C177.631 349.112 177.052 348.5 176.649 347.719C176.245 346.925 176.043 346.01 176.043 344.974C176.043 343.938 176.245 343.03 176.649 342.25C177.052 341.469 177.631 340.864 178.384 340.433C179.138 339.989 180.026 339.767 181.048 339.767C182.071 339.767 182.946 339.989 183.672 340.433C184.412 340.864 184.977 341.469 185.368 342.25C185.771 343.03 185.973 343.938 185.973 344.974C185.973 346.01 185.771 346.925 185.368 347.719C184.977 348.5 184.412 349.112 183.672 349.556C182.946 349.987 182.071 350.202 181.048 350.202ZM181.048 348.264C182.098 348.264 182.831 348.002 183.248 347.477C183.666 346.939 183.874 346.105 183.874 344.974C183.874 343.844 183.666 343.017 183.248 342.492C182.831 341.967 182.098 341.705 181.048 341.705C179.985 341.705 179.245 341.967 178.828 342.492C178.411 343.017 178.203 343.844 178.203 344.974C178.203 346.105 178.411 346.939 178.828 347.477C179.245 348.002 179.985 348.264 181.048 348.264ZM189.782 350H187.603V339.908H189.601V342.714L189.782 342.815V350ZM189.782 343.461H189.278V341.503H189.702C189.903 341.032 190.233 340.628 190.691 340.292C191.162 339.942 191.767 339.767 192.507 339.767C193.22 339.767 193.785 339.922 194.202 340.231C194.633 340.541 194.942 340.951 195.131 341.463C195.319 341.974 195.413 342.546 195.413 343.178V343.844H193.234V343.441C193.234 342.768 193.119 342.297 192.891 342.028C192.662 341.759 192.231 341.624 191.599 341.624C190.94 341.624 190.469 341.765 190.186 342.048C189.917 342.317 189.782 342.788 189.782 343.461ZM200.824 350.202C199.397 350.202 198.301 349.731 197.534 348.789C196.78 347.834 196.403 346.562 196.403 344.974C196.403 343.387 196.774 342.122 197.514 341.18C198.267 340.238 199.33 339.767 200.702 339.767C201.591 339.767 202.304 339.949 202.842 340.312C203.394 340.662 203.777 341.066 203.992 341.523H204.537L204.436 344.086H204.053C204.053 343.521 203.945 343.057 203.73 342.694C203.515 342.33 203.205 342.061 202.801 341.886C202.398 341.712 201.9 341.624 201.308 341.624C200.824 341.624 200.406 341.685 200.057 341.806C199.72 341.927 199.438 342.115 199.209 342.371C198.994 342.626 198.832 342.97 198.725 343.4C198.63 343.831 198.583 344.355 198.583 344.974C198.583 345.58 198.63 346.105 198.725 346.549C198.832 346.979 198.994 347.329 199.209 347.598C199.438 347.854 199.727 348.042 200.077 348.163C200.427 348.284 200.837 348.345 201.308 348.345C201.9 348.345 202.398 348.258 202.801 348.083C203.205 347.894 203.515 347.618 203.73 347.255C203.945 346.892 204.053 346.434 204.053 345.883H204.436L204.537 348.345H204.134C203.905 348.924 203.508 349.381 202.943 349.717C202.391 350.04 201.685 350.202 200.824 350.202ZM206.233 350H204.214V347.618L204.053 347.356V336.477H206.233V350ZM210.415 338.698H208.256L208.236 336.477H210.415V338.698ZM210.436 350H208.256V339.908H210.436V350ZM221.782 350H219.602V344.167C219.602 343.279 219.434 342.64 219.098 342.25C218.761 341.846 218.129 341.644 217.2 341.644C216.608 341.644 216.124 341.732 215.747 341.907C215.37 342.068 215.088 342.337 214.899 342.714C214.711 343.077 214.617 343.575 214.617 344.207H214.233L214.052 341.846H214.536C214.684 341.483 214.906 341.146 215.202 340.837C215.498 340.527 215.875 340.272 216.332 340.07C216.803 339.868 217.362 339.767 218.008 339.767C218.882 339.767 219.595 339.935 220.147 340.272C220.699 340.608 221.109 341.072 221.378 341.664C221.647 342.256 221.782 342.936 221.782 343.703V350ZM214.617 350H212.437V339.969H214.435V342.976L214.617 343.077V350ZM232.327 350H230.308V348.022L230.248 347.477V343.622C230.248 342.869 230.066 342.357 229.703 342.088C229.353 341.819 228.781 341.685 227.987 341.685C227.193 341.685 226.621 341.826 226.272 342.108C225.935 342.391 225.767 342.862 225.767 343.521V343.824H223.668V343.622C223.668 342.869 223.85 342.203 224.213 341.624C224.59 341.045 225.108 340.595 225.767 340.272C226.44 339.935 227.22 339.767 228.108 339.767C229.05 339.767 229.831 339.942 230.45 340.292C231.068 340.642 231.533 341.126 231.842 341.745C232.165 342.351 232.327 343.071 232.327 343.905V350ZM226.574 350.202C225.673 350.202 224.913 349.973 224.294 349.516C223.688 349.045 223.385 348.379 223.385 347.517C223.385 346.952 223.513 346.481 223.769 346.105C224.038 345.728 224.422 345.418 224.919 345.176C225.417 344.934 226.023 344.766 226.736 344.672L230.45 344.147V345.681L227.059 346.185C226.48 346.266 226.077 346.387 225.848 346.549C225.619 346.71 225.505 346.979 225.505 347.356C225.505 347.746 225.639 348.029 225.908 348.204C226.191 348.379 226.648 348.466 227.281 348.466C227.765 348.466 228.229 348.392 228.673 348.244C229.131 348.083 229.508 347.82 229.804 347.457C230.1 347.08 230.248 346.555 230.248 345.883L230.53 348.446L230.207 348.426C230.019 348.735 229.757 349.024 229.42 349.294C229.097 349.563 228.7 349.785 228.229 349.96C227.758 350.121 227.207 350.202 226.574 350.202ZM238.494 350C237.39 350 236.543 349.765 235.95 349.294C235.372 348.823 235.083 348.029 235.083 346.912V340.191L235.587 337.487H237.262V346.811C237.262 347.336 237.39 347.672 237.646 347.82C237.915 347.955 238.393 348.022 239.079 348.022H240.29V349.818C240.088 349.872 239.826 349.919 239.503 349.96C239.18 349.987 238.843 350 238.494 350ZM240.29 341.786H233.407V339.969H240.29V341.786ZM246.013 350.202C244.99 350.202 244.102 349.987 243.348 349.556C242.595 349.112 242.016 348.5 241.613 347.719C241.209 346.925 241.007 346.01 241.007 344.974C241.007 343.938 241.209 343.03 241.613 342.25C242.016 341.469 242.595 340.864 243.348 340.433C244.102 339.989 244.99 339.767 246.013 339.767C247.035 339.767 247.91 339.989 248.636 340.433C249.376 340.864 249.941 341.469 250.332 342.25C250.735 343.03 250.937 343.938 250.937 344.974C250.937 346.01 250.735 346.925 250.332 347.719C249.941 348.5 249.376 349.112 248.636 349.556C247.91 349.987 247.035 350.202 246.013 350.202ZM246.013 348.264C247.062 348.264 247.795 348.002 248.212 347.477C248.63 346.939 248.838 346.105 248.838 344.974C248.838 343.844 248.63 343.017 248.212 342.492C247.795 341.967 247.062 341.705 246.013 341.705C244.95 341.705 244.21 341.967 243.792 342.492C243.375 343.017 243.167 343.844 243.167 344.974C243.167 346.105 243.375 346.939 243.792 347.477C244.21 348.002 244.95 348.264 246.013 348.264ZM254.746 350H252.567V339.908H254.565V342.714L254.746 342.815V350ZM254.746 343.461H254.242V341.503H254.666C254.867 341.032 255.197 340.628 255.655 340.292C256.126 339.942 256.731 339.767 257.471 339.767C258.184 339.767 258.749 339.922 259.166 340.231C259.597 340.541 259.907 340.951 260.095 341.463C260.283 341.974 260.377 342.546 260.377 343.178V343.844H258.198V343.441C258.198 342.768 258.083 342.297 257.855 342.028C257.626 341.759 257.195 341.624 256.563 341.624C255.904 341.624 255.433 341.765 255.15 342.048C254.881 342.317 254.746 342.788 254.746 343.461ZM270.194 350H267.348L264.866 339.969H267.227L268.377 345.54L268.801 348.184H268.963L269.609 345.54L271.364 339.969H274.19L275.966 345.56L276.612 348.163H276.753L277.177 345.56L278.328 339.969H280.608L278.126 350H275.28L273.484 344.409L272.818 341.886H272.676L272.01 344.409L270.194 350ZM283.697 338.698H281.537L281.517 336.477H283.697V338.698ZM283.717 350H281.537V339.908H283.717V350ZM287.899 350H285.719V336.477H287.899V350ZM292.314 350H290.134V336.477H292.314V350ZM300.434 350H298.254V339.908H300.252V342.714L300.434 342.815V350ZM300.434 343.461H299.93V341.503H300.353C300.555 341.032 300.885 340.628 301.342 340.292C301.813 339.942 302.419 339.767 303.159 339.767C303.872 339.767 304.437 339.922 304.854 340.231C305.285 340.541 305.594 340.951 305.783 341.463C305.971 341.974 306.065 342.546 306.065 343.178V343.844H303.885V343.441C303.885 342.768 303.771 342.297 303.542 342.028C303.314 341.759 302.883 341.624 302.251 341.624C301.591 341.624 301.12 341.765 300.838 342.048C300.569 342.317 300.434 342.788 300.434 343.461ZM311.919 350.202C310.829 350.202 309.921 349.987 309.195 349.556C308.468 349.112 307.93 348.5 307.58 347.719C307.23 346.925 307.055 346.01 307.055 344.974C307.055 343.938 307.25 343.03 307.641 342.25C308.044 341.469 308.609 340.864 309.336 340.433C310.062 339.989 310.924 339.767 311.919 339.767C312.821 339.767 313.615 339.942 314.301 340.292C315.001 340.628 315.539 341.119 315.916 341.765C316.306 342.411 316.501 343.192 316.501 344.107C316.501 344.376 316.487 344.638 316.46 344.894C316.447 345.136 316.427 345.338 316.4 345.499H308.085V344.046H314.624L314.402 344.248C314.456 343.629 314.388 343.124 314.2 342.734C314.025 342.344 313.736 342.055 313.332 341.866C312.942 341.678 312.451 341.584 311.859 341.584C310.796 341.584 310.069 341.853 309.679 342.391C309.289 342.916 309.094 343.642 309.094 344.571V345.176C309.094 345.849 309.174 346.421 309.336 346.892C309.511 347.349 309.807 347.692 310.224 347.921C310.641 348.15 311.213 348.264 311.939 348.264C312.787 348.264 313.386 348.13 313.736 347.861C314.086 347.591 314.261 347.235 314.261 346.791V346.629H316.42V346.811C316.42 347.497 316.232 348.096 315.855 348.607C315.478 349.105 314.953 349.495 314.281 349.778C313.621 350.061 312.834 350.202 311.919 350.202ZM323.659 350H320.894L316.878 339.969H319.3L322.226 347.921H322.368L325.314 339.969H327.676L323.659 350ZM330.666 338.698H328.506L328.486 336.477H330.666V338.698ZM330.686 350H328.506V339.908H330.686V350ZM337.05 350.202C335.96 350.202 335.051 349.987 334.325 349.556C333.598 349.112 333.06 348.5 332.71 347.719C332.36 346.925 332.185 346.01 332.185 344.974C332.185 343.938 332.381 343.03 332.771 342.25C333.174 341.469 333.74 340.864 334.466 340.433C335.193 339.989 336.054 339.767 337.05 339.767C337.951 339.767 338.745 339.942 339.431 340.292C340.131 340.628 340.669 341.119 341.046 341.765C341.436 342.411 341.631 343.192 341.631 344.107C341.631 344.376 341.618 344.638 341.591 344.894C341.577 345.136 341.557 345.338 341.53 345.499H333.215V344.046H339.754L339.532 344.248C339.586 343.629 339.519 343.124 339.33 342.734C339.155 342.344 338.866 342.055 338.462 341.866C338.072 341.678 337.581 341.584 336.989 341.584C335.926 341.584 335.199 341.853 334.809 342.391C334.419 342.916 334.224 343.642 334.224 344.571V345.176C334.224 345.849 334.305 346.421 334.466 346.892C334.641 347.349 334.937 347.692 335.354 347.921C335.771 348.15 336.343 348.264 337.07 348.264C337.917 348.264 338.516 348.13 338.866 347.861C339.216 347.591 339.391 347.235 339.391 346.791V346.629H341.55V346.811C341.55 347.497 341.362 348.096 340.985 348.607C340.608 349.105 340.084 349.495 339.411 349.778C338.752 350.061 337.965 350.202 337.05 350.202ZM347.437 350H344.591L342.109 339.969H344.47L345.621 345.54L346.045 348.184H346.206L346.852 345.54L348.608 339.969H351.433L353.21 345.56L353.855 348.163H353.997L354.42 345.56L355.571 339.969H357.852L355.369 350H352.523L350.727 344.409L350.061 341.886H349.92L349.254 344.409L347.437 350ZM367.141 350C366.037 350 365.189 349.765 364.597 349.294C364.019 348.823 363.73 348.029 363.73 346.912V340.191L364.234 337.487H365.909V346.811C365.909 347.336 366.037 347.672 366.293 347.82C366.562 347.955 367.04 348.022 367.726 348.022H368.937V349.818C368.735 349.872 368.473 349.919 368.15 349.96C367.827 349.987 367.49 350 367.141 350ZM368.937 341.786H362.054V339.969H368.937V341.786ZM379.836 350H377.656V344.167C377.656 343.279 377.481 342.64 377.132 342.25C376.795 341.846 376.17 341.644 375.255 341.644C374.38 341.644 373.727 341.839 373.297 342.23C372.88 342.606 372.671 343.272 372.671 344.228H372.288L372.267 341.644H372.752C372.913 341.335 373.135 341.039 373.418 340.756C373.714 340.46 374.084 340.225 374.528 340.05C374.985 339.861 375.51 339.767 376.102 339.767C376.99 339.767 377.703 339.942 378.242 340.292C378.793 340.628 379.197 341.093 379.453 341.685C379.708 342.277 379.836 342.943 379.836 343.683V350ZM372.671 350H370.491V336.477H372.671V350ZM384.021 338.698H381.861L381.841 336.477H384.021V338.698ZM384.041 350H381.861V339.908H384.041V350ZM390.202 350.202C388.735 350.202 387.625 349.913 386.871 349.334C386.118 348.742 385.741 347.834 385.741 346.609V346.569H387.84V346.932C387.84 347.282 387.908 347.571 388.042 347.8C388.19 348.015 388.432 348.177 388.769 348.284C389.118 348.379 389.61 348.426 390.242 348.426C390.78 348.426 391.184 348.385 391.453 348.305C391.736 348.21 391.924 348.083 392.018 347.921C392.112 347.76 392.159 347.558 392.159 347.316C392.159 346.912 392.018 346.629 391.736 346.468C391.453 346.293 390.948 346.138 390.222 346.004L388.648 345.741C388.056 345.62 387.537 345.452 387.093 345.237C386.663 345.008 386.327 344.699 386.084 344.308C385.856 343.905 385.741 343.4 385.741 342.795C385.741 341.893 386.098 341.167 386.811 340.615C387.524 340.05 388.533 339.767 389.838 339.767C390.632 339.767 391.339 339.895 391.958 340.151C392.577 340.406 393.068 340.79 393.431 341.301C393.794 341.812 393.976 342.452 393.976 343.219V343.4H391.897V343.158C391.897 342.835 391.843 342.559 391.736 342.33C391.628 342.088 391.426 341.9 391.13 341.765C390.834 341.631 390.383 341.564 389.778 341.564C388.984 341.564 388.459 341.664 388.204 341.866C387.948 342.068 387.82 342.364 387.82 342.754C387.82 343.145 387.934 343.42 388.163 343.582C388.405 343.73 388.876 343.878 389.576 344.026L391.292 344.349C391.937 344.47 392.476 344.652 392.906 344.894C393.337 345.136 393.66 345.452 393.875 345.842C394.104 346.233 394.218 346.697 394.218 347.235C394.218 348.177 393.861 348.91 393.148 349.435C392.449 349.946 391.466 350.202 390.202 350.202ZM149.935 363.698H147.776L147.756 361.477H149.935V363.698ZM149.956 375H147.776V364.908H149.956V375ZM161.302 375H159.122V369.167C159.122 368.279 158.954 367.64 158.617 367.25C158.281 366.846 157.649 366.644 156.72 366.644C156.128 366.644 155.644 366.732 155.267 366.907C154.89 367.068 154.608 367.337 154.419 367.714C154.231 368.077 154.137 368.575 154.137 369.207H153.753L153.572 366.846H154.056C154.204 366.483 154.426 366.146 154.722 365.837C155.018 365.527 155.395 365.272 155.852 365.07C156.323 364.868 156.882 364.767 157.528 364.767C158.402 364.767 159.115 364.935 159.667 365.272C160.219 365.608 160.629 366.072 160.898 366.664C161.167 367.256 161.302 367.936 161.302 368.703V375ZM154.137 375H151.957V364.969H153.955V367.976L154.137 368.077V375ZM165.975 375H163.795V365.05C163.795 364.269 163.943 363.617 164.239 363.092C164.535 362.567 164.973 362.17 165.551 361.901C166.143 361.619 166.87 361.477 167.731 361.477C167.866 361.477 168 361.477 168.135 361.477C168.269 361.477 168.404 361.477 168.538 361.477V363.213H167.327C166.843 363.213 166.486 363.307 166.258 363.496C166.029 363.684 165.915 363.994 165.915 364.424V365.312L165.975 365.837V375ZM168.538 366.786H162.322V364.969H168.538V366.786ZM173.904 375.202C172.881 375.202 171.993 374.987 171.239 374.556C170.486 374.112 169.907 373.5 169.504 372.719C169.1 371.925 168.898 371.01 168.898 369.974C168.898 368.938 169.1 368.03 169.504 367.25C169.907 366.469 170.486 365.864 171.239 365.433C171.993 364.989 172.881 364.767 173.904 364.767C174.926 364.767 175.801 364.989 176.527 365.433C177.267 365.864 177.833 366.469 178.223 367.25C178.626 368.03 178.828 368.938 178.828 369.974C178.828 371.01 178.626 371.925 178.223 372.719C177.833 373.5 177.267 374.112 176.527 374.556C175.801 374.987 174.926 375.202 173.904 375.202ZM173.904 373.264C174.953 373.264 175.686 373.002 176.104 372.477C176.521 371.939 176.729 371.105 176.729 369.974C176.729 368.844 176.521 368.017 176.104 367.492C175.686 366.967 174.953 366.705 173.904 366.705C172.841 366.705 172.101 366.967 171.683 367.492C171.266 368.017 171.058 368.844 171.058 369.974C171.058 371.105 171.266 371.939 171.683 372.477C172.101 373.002 172.841 373.264 173.904 373.264ZM182.637 375H180.458V364.908H182.456V367.714L182.637 367.815V375ZM182.637 368.461H182.133V366.503H182.557C182.759 366.032 183.088 365.628 183.546 365.292C184.017 364.942 184.622 364.767 185.362 364.767C186.075 364.767 186.64 364.922 187.058 365.231C187.488 365.541 187.798 365.951 187.986 366.463C188.174 366.974 188.269 367.546 188.269 368.178V368.844H186.089V368.441C186.089 367.768 185.974 367.297 185.746 367.028C185.517 366.759 185.086 366.624 184.454 366.624C183.795 366.624 183.324 366.765 183.041 367.048C182.772 367.317 182.637 367.788 182.637 368.461ZM205.729 375H203.549V369.167C203.549 368.279 203.381 367.64 203.045 367.25C202.722 366.846 202.103 366.644 201.188 366.644C200.367 366.644 199.755 366.839 199.351 367.23C198.961 367.606 198.766 368.252 198.766 369.167L198.382 369.207L198.201 366.846H198.524C198.685 366.496 198.907 366.167 199.19 365.857C199.486 365.534 199.862 365.272 200.32 365.07C200.777 364.868 201.336 364.767 201.995 364.767C202.87 364.767 203.576 364.935 204.114 365.272C204.666 365.608 205.07 366.072 205.325 366.664C205.594 367.256 205.729 367.936 205.729 368.703V375ZM191.803 375H189.623V364.969H191.621V367.976L191.803 368.077V375ZM198.766 375H196.586V369.167C196.586 368.279 196.418 367.64 196.081 367.25C195.758 366.846 195.14 366.644 194.225 366.644C193.404 366.644 192.792 366.833 192.388 367.209C191.998 367.586 191.803 368.232 191.803 369.147L191.419 369.207L191.237 366.846H191.722C191.87 366.483 192.085 366.146 192.368 365.837C192.664 365.527 193.041 365.272 193.498 365.07C193.955 364.868 194.5 364.767 195.133 364.767C195.98 364.767 196.667 364.935 197.191 365.272C197.73 365.608 198.127 366.072 198.382 366.664C198.638 367.256 198.766 367.936 198.766 368.703V375ZM216.273 375H214.254V373.022L214.194 372.477V368.622C214.194 367.869 214.012 367.357 213.649 367.088C213.299 366.819 212.727 366.685 211.933 366.685C211.14 366.685 210.568 366.826 210.218 367.108C209.881 367.391 209.713 367.862 209.713 368.521V368.824H207.614V368.622C207.614 367.869 207.796 367.203 208.159 366.624C208.536 366.045 209.054 365.595 209.713 365.272C210.386 364.935 211.166 364.767 212.055 364.767C212.996 364.767 213.777 364.942 214.396 365.292C215.015 365.642 215.479 366.126 215.788 366.745C216.111 367.351 216.273 368.071 216.273 368.905V375ZM210.521 375.202C209.619 375.202 208.859 374.973 208.24 374.516C207.634 374.045 207.332 373.379 207.332 372.517C207.332 371.952 207.46 371.481 207.715 371.105C207.984 370.728 208.368 370.418 208.866 370.176C209.363 369.934 209.969 369.766 210.682 369.672L214.396 369.147V370.681L211.005 371.185C210.426 371.266 210.023 371.387 209.794 371.549C209.565 371.71 209.451 371.979 209.451 372.356C209.451 372.746 209.585 373.029 209.855 373.204C210.137 373.379 210.595 373.466 211.227 373.466C211.711 373.466 212.176 373.392 212.62 373.244C213.077 373.083 213.454 372.82 213.75 372.457C214.046 372.08 214.194 371.555 214.194 370.883L214.476 373.446L214.154 373.426C213.965 373.735 213.703 374.024 213.366 374.294C213.043 374.563 212.647 374.785 212.176 374.96C211.705 375.121 211.153 375.202 210.521 375.202ZM222.44 375C221.336 375 220.489 374.765 219.897 374.294C219.318 373.823 219.029 373.029 219.029 371.912V365.191L219.533 362.487H221.209V371.811C221.209 372.336 221.336 372.672 221.592 372.82C221.861 372.955 222.339 373.022 223.025 373.022H224.236V374.818C224.034 374.872 223.772 374.919 223.449 374.96C223.126 374.987 222.79 375 222.44 375ZM224.236 366.786H217.354V364.969H224.236V366.786ZM227.691 363.698H225.532L225.511 361.477H227.691V363.698ZM227.711 375H225.532V364.908H227.711V375ZM234.216 375.202C233.193 375.202 232.305 374.987 231.552 374.556C230.798 374.112 230.22 373.5 229.816 372.719C229.413 371.925 229.211 371.01 229.211 369.974C229.211 368.938 229.413 368.03 229.816 367.25C230.22 366.469 230.798 365.864 231.552 365.433C232.305 364.989 233.193 364.767 234.216 364.767C235.239 364.767 236.113 364.989 236.84 365.433C237.58 365.864 238.145 366.469 238.535 367.25C238.939 368.03 239.141 368.938 239.141 369.974C239.141 371.01 238.939 371.925 238.535 372.719C238.145 373.5 237.58 374.112 236.84 374.556C236.113 374.987 235.239 375.202 234.216 375.202ZM234.216 373.264C235.266 373.264 235.999 373.002 236.416 372.477C236.833 371.939 237.042 371.105 237.042 369.974C237.042 368.844 236.833 368.017 236.416 367.492C235.999 366.967 235.266 366.705 234.216 366.705C233.153 366.705 232.413 366.967 231.996 367.492C231.579 368.017 231.37 368.844 231.37 369.974C231.37 371.105 231.579 371.939 231.996 372.477C232.413 373.002 233.153 373.264 234.216 373.264ZM250.115 375H247.935V369.167C247.935 368.279 247.767 367.64 247.431 367.25C247.094 366.846 246.462 366.644 245.533 366.644C244.941 366.644 244.457 366.732 244.08 366.907C243.703 367.068 243.421 367.337 243.233 367.714C243.044 368.077 242.95 368.575 242.95 369.207H242.567L242.385 366.846H242.869C243.017 366.483 243.239 366.146 243.535 365.837C243.831 365.527 244.208 365.272 244.666 365.07C245.136 364.868 245.695 364.767 246.341 364.767C247.215 364.767 247.928 364.935 248.48 365.272C249.032 365.608 249.442 366.072 249.711 366.664C249.98 367.256 250.115 367.936 250.115 368.703V375ZM242.95 375H240.77V364.969H242.768V367.976L242.95 368.077V375ZM254.523 375H251.758V371.872H254.523V375Z" fill="white"/>
</svg>
