<svg width="402" height="309" viewBox="0 0 402 309" fill="none" xmlns="http://www.w3.org/2000/svg">
<g opacity="0.3">
<path d="M11.0005 100.394C11.3699 115.479 16.3164 202.795 81.3373 203.342C81.3373 203.342 89.6731 143.3 12.4712 99.0388C11.7956 98.6515 10.9763 99.4089 11.0005 100.394Z" fill="#81868B"/>
<path d="M18.7774 111.178C20.2054 115.433 21.8008 119.645 23.4633 123.82C25.1302 127.997 26.8884 132.136 28.7389 136.233C30.5896 140.331 32.5322 144.385 34.5691 148.391C36.6141 152.393 38.7715 156.336 41.0318 160.217C43.2839 164.103 45.7073 167.886 48.236 171.591C50.7558 175.304 53.4879 178.867 56.3658 182.297L57.4563 183.574C57.8203 184 58.1773 184.431 58.5644 184.835L60.8435 187.298C62.4235 188.879 63.9882 190.479 65.6807 191.935C69.0197 194.893 72.6032 197.58 76.4764 199.759L76.4828 199.763C76.8129 199.948 76.9298 200.366 76.7441 200.696C76.5585 201.027 76.1404 201.143 75.8105 200.958L75.8062 200.955C71.8414 198.687 68.2053 195.916 64.8326 192.884C63.1224 191.389 61.5477 189.757 59.9586 188.143L57.6701 185.633C57.2814 185.221 56.9237 184.782 56.5589 184.35L55.4665 183.051C52.5847 179.565 49.8574 175.953 47.3482 172.197C44.8302 168.449 42.4216 164.627 40.1876 160.707C37.9453 156.792 35.8087 152.818 33.7862 148.787C31.772 144.753 29.8535 140.672 28.0281 136.551C26.2028 132.429 24.471 128.267 22.831 124.07C21.1945 119.87 19.6296 115.646 18.2245 111.355C18.1745 111.203 18.2576 111.039 18.4102 110.989C18.5618 110.939 18.7252 111.022 18.7758 111.173L18.7774 111.178Z" fill="#DCE5FE"/>
</g>
<path d="M12.5228 187.05C19.3299 184.609 46.8861 177.873 62.2256 221.485C62.2256 221.485 21.804 205.772 11.7702 189.134C11.3039 188.361 11.6724 187.355 12.5228 187.05Z" fill="#BDD0FB"/>
<g opacity="0.3">
<path d="M86.2555 179.468C86.2555 179.468 17.3043 137.086 32.4907 22.7044C32.7438 20.7974 35.117 20.0638 36.405 21.4928C48.395 34.7941 89.2007 87.0548 86.2555 179.468Z" fill="#81868B"/>
<path d="M43.9566 47.775C47.0091 57.4362 50.059 67.0976 53.0622 76.7744C54.5638 81.6126 56.0588 86.4531 57.5101 91.3066L59.6917 98.5856L61.8285 105.878L66.0582 120.476L68.145 127.783L70.1801 135.106C72.884 144.871 75.5289 154.655 77.9329 164.501C77.9664 164.638 77.8824 164.777 77.7453 164.81C77.6112 164.843 77.4754 164.761 77.4384 164.629L75.395 157.314L73.3135 150.008C71.9114 145.142 70.5343 140.269 69.1038 135.411L64.8425 120.828L60.5441 106.256L58.3812 98.9736L56.2409 91.6845C54.7947 86.8307 53.3937 81.9634 51.9754 77.1011C49.1431 67.3754 46.3219 57.6451 43.4334 47.9358C43.3902 47.7911 43.4724 47.6387 43.6171 47.5955C43.7606 47.5526 43.9114 47.6332 43.9566 47.775Z" fill="#DCE5FE"/>
</g>
<g opacity="0.3">
<path d="M290.546 173.901C300.202 148.674 341.701 40.6839 358.704 3.41817C360.485 -0.486208 366.088 -0.303195 367.62 3.70536C378.729 32.7593 400.66 119.901 293.599 176.595C291.824 177.535 289.828 175.777 290.546 173.901Z" fill="#81868B"/>
<path d="M294.381 174.239C294.203 174.239 294.024 174.17 293.89 174.032C293.626 173.76 293.631 173.327 293.902 173.062C308.575 158.759 321.3 141.468 331.723 121.669C340.067 105.819 346.964 88.3365 352.221 69.7056C361.177 37.9667 362.275 13.5836 362.285 13.341C362.3 12.9626 362.621 12.6657 362.998 12.6844C363.376 12.7 363.67 13.0195 363.655 13.3977C363.645 13.6417 362.544 38.1559 353.551 70.042C348.269 88.7706 341.337 106.349 332.947 122.288C322.455 142.222 309.641 159.636 294.86 174.044C294.726 174.174 294.553 174.239 294.381 174.239Z" fill="#DCE5FE"/>
</g>
<g opacity="0.3">
<path d="M326.534 181.439C324.94 182.052 323.238 180.838 323.276 179.131C323.486 169.711 326.49 143.132 352.184 123.187C373.882 106.345 384.047 95.1503 388.309 89.7487C389.211 88.6065 391.046 89.2786 390.999 90.733C390.483 106.777 384.282 159.218 326.534 181.439Z" fill="#81868B"/>
<path d="M325.185 179.745C325.082 179.745 324.978 179.722 324.88 179.673C324.541 179.504 324.403 179.092 324.572 178.753C324.759 178.38 343.55 141.121 372.664 116.337C372.953 116.092 373.386 116.127 373.631 116.415C373.876 116.703 373.842 117.136 373.553 117.381C344.657 141.979 325.984 178.994 325.799 179.365C325.679 179.606 325.437 179.745 325.185 179.745Z" fill="#DCE5FE"/>
</g>
<g opacity="0.3">
<path d="M328.421 199.017C328.421 201.615 326.295 203.741 323.697 203.741H64.8339C62.2356 203.741 60.1096 201.615 60.1096 199.017L57.9893 58.1413C58.2391 49.6637 65.6715 46.6168 70.1768 46.7968L323.109 40.011C325.53 39.946 327.871 40.8788 329.586 42.5891C331.301 44.2995 332.244 46.6402 332.183 49.0612L328.421 199.017Z" fill="#81868B"/>
<path d="M62.9069 131.741C62.72 131.741 62.5671 131.591 62.5643 131.404L62.3965 119.979C62.3939 119.789 62.545 119.634 62.7344 119.631C62.9117 119.637 63.0793 119.779 63.0822 119.969L63.2499 131.394C63.2526 131.583 63.1015 131.739 62.9121 131.741C62.9103 131.741 62.9087 131.741 62.9069 131.741Z" fill="#91B3FA"/>
<path d="M62.496 103.745C62.309 103.745 62.1562 103.594 62.1533 103.407L61.5107 59.6497C61.524 56.7391 62.4203 54.4141 64.1748 52.7328C67.3696 49.6716 72.3707 49.8262 72.5822 49.834L153.357 47.6666C153.548 47.6553 153.704 47.8106 153.709 48C153.714 48.1894 153.565 48.3469 153.376 48.3519L72.5811 50.5193C72.3567 50.5121 67.6352 50.3661 64.6491 53.228C63.0338 54.7757 62.2086 56.935 62.1964 59.6462L62.839 103.397C62.8416 103.586 62.6905 103.742 62.5011 103.744C62.4995 103.745 62.4977 103.745 62.496 103.745Z" fill="#91B3FA"/>
<g opacity="0.32">
<path d="M71.5143 191.201C71.7854 179.557 71.6844 76.4508 71.0163 67.5461C70.3482 58.6414 84.2167 56.9711 105.509 55.9691C126.802 54.9668 306.454 50.9994 311.08 50.6243C321.477 49.7812 323.629 65.3222 322.589 99.0606C321.808 124.408 320.513 166.163 319.917 185.365C319.739 191.083 315.066 195.619 309.346 195.635C266.114 195.754 100.419 196.229 89.3887 196.557C76.6952 196.936 71.4069 195.818 71.5143 191.201Z" fill="white"/>
</g>
<path d="M353.928 221.674H38.2261C37.4948 221.674 36.8965 221.076 36.8965 220.344V209.369C36.8965 208.637 37.4948 208.039 38.2261 208.039H353.928C354.66 208.039 355.258 208.637 355.258 209.369V220.344C355.258 221.076 354.66 221.674 353.928 221.674Z" fill="#AAADB0"/>
<path d="M198.124 181.319C230.423 181.319 256.607 155.136 256.607 122.836C256.607 90.5372 230.423 64.3535 198.124 64.3535C165.824 64.3535 139.641 90.5372 139.641 122.836C139.641 155.136 165.824 181.319 198.124 181.319Z" fill="white"/>
</g>
<path d="M69.4952 198.787H67.3809V221.652H69.4952V198.787Z" fill="white"/>
<path d="M59.1787 222.093H77.6971V221.306C77.6971 220.98 77.4335 220.717 77.1084 220.717H59.7674C59.4423 220.717 59.1787 220.98 59.1787 221.306V222.093Z" fill="white"/>
<path d="M56.4307 197.994C56.4307 199.244 57.4538 200.267 58.7044 200.267H77.4402C78.6908 200.267 79.714 199.244 79.714 197.994V195.938C79.714 194.687 78.6908 193.664 77.4402 193.664H58.7044C57.4538 193.664 56.4307 194.687 56.4307 195.938V197.994Z" fill="white"/>
<path d="M84.047 183.543C84.047 183.543 87.1889 184.03 90.7212 186.391C91.2772 186.763 91.5821 187.411 91.4983 188.074C91.0754 191.425 89.3362 202.269 83.6015 212.861C83.299 213.419 83.2122 214.07 83.3456 214.691L84.342 219.327L86.1897 221.06H81.4305L78.2617 212.484L79.6167 212.056C80.6672 211.724 81.388 210.758 81.4071 209.656L81.5662 200.457C81.4305 196.359 84.0791 193.531 84.0791 193.531L76.4785 193.161L84.047 183.543Z" fill="#E5E5D4"/>
<path d="M88.0485 221.895C88.4818 222.463 83.3835 223.211 80.8079 221.97C80.8079 221.97 77.2373 215.758 77.2373 212.559C77.2373 212.559 77.5208 211.907 79.6173 212.055C79.6173 212.055 80.8162 219.411 82.0821 220.235C83.3481 221.059 85.6238 220.318 85.6238 220.318C85.6238 220.318 87.4091 221.058 88.0485 221.895Z" fill="#121D26"/>
<path d="M77.4404 193.664C77.4808 193.594 85.6235 192.685 85.6235 192.685C85.6235 192.685 85.3571 195.161 86.1899 198.569C87.0228 201.978 98.9781 216.744 98.9781 216.744L97.7247 220.717C101.601 222.067 105.413 222.283 109.165 221.406L101.396 216.744C101.396 216.744 94.1254 191.967 89.6718 187.546L81.5098 184.723L77.4404 193.664Z" fill="#E5E5D4"/>
<path d="M59.1793 179.248C59.1793 179.248 54.4879 186.226 54.1029 189.409C53.718 192.592 55.3881 193.885 60.3105 194.098C65.233 194.312 78.374 194.308 78.374 194.308L89.5896 184.723C89.5896 184.723 81.4161 181.807 79.291 180.982C77.166 180.157 59.1793 179.248 59.1793 179.248Z" fill="#121D26"/>
<path d="M98.1984 219.379C98.1984 219.379 96.8489 220.686 97.7606 222.14C97.7606 222.14 108.451 224.035 111.354 223.176C111.354 223.176 110.751 221.8 107.483 220.234L107.724 220.419C108.029 220.653 107.85 221.142 107.466 221.12C105.312 220.997 100.855 220.602 98.1984 219.379Z" fill="#121D26"/>
<path d="M71.8661 178.324C71.8661 178.324 77.3293 173.121 80.0184 169.676C81.472 167.813 81.9284 165.362 81.2562 163.096C80.0285 158.96 77.8467 154.676 77.6475 154.009C77.3424 152.987 71.2168 153.03 71.2168 153.03C71.2168 153.03 59.1628 160.853 54.4268 174.104L59.7456 175.76C59.7456 175.76 62.893 170.48 66.0026 167.123C66.0026 167.123 60.6217 174.232 60.4321 177.142L71.8661 178.324Z" fill="#EBE30D"/>
<path d="M78.3887 148.298C78.3247 148.51 76.7258 153.811 76.6007 153.921C76.4756 154.031 73.0944 154.213 71.5029 153.125L74.2029 147.473L78.3887 148.298Z" fill="#E5E5D4"/>
<path d="M82.5321 140.894C82.5321 140.894 84.1131 143.599 83.186 148.114C82.2589 152.629 79.9316 153.293 78.2994 152.402C76.667 151.511 74.4866 149.83 73.7689 145.928C73.0512 142.026 80.3931 137.489 82.5321 140.894Z" fill="#E5E5D4"/>
<path d="M76.6707 145.318C76.6707 145.318 78.5825 139.127 82.9576 142.311L83.444 143.786C83.444 143.786 87.0601 142.266 85.4187 139.021C83.7774 135.776 79.0233 134.015 75.2837 136.699C71.5441 139.383 70.496 142.139 71.0849 145.202C71.6738 148.266 73.8614 146.929 73.8614 146.929C73.8614 146.929 74.0324 144.603 75.0713 144.068C76.1102 143.533 76.2948 145.255 76.2948 145.255L76.6707 145.318Z" fill="#121D26"/>
<path d="M75.7778 145.499C75.7778 145.499 76.7792 142.322 74.8532 142.445C72.9272 142.567 74.0696 145.485 74.5837 146.538L75.7778 145.499Z" fill="#E5E5D4"/>
<path d="M82.996 178.71L78.9821 174.842L73.4294 177.187C73.4294 177.187 67.9023 178.044 64.7391 177.187C61.5758 176.331 61.5758 176.331 61.5758 176.331L54.4273 174.105L53.3046 177.278C53.0195 178.084 53.306 178.978 54.0026 179.473C54.6211 179.913 55.3461 180.396 55.8081 180.598C56.7496 181.01 79.0145 180.313 79.0145 180.313L82.996 178.71Z" fill="#E5E5D4"/>
<path d="M75.1966 137.771C76.1487 137.484 76.3315 136.214 75.5447 135.606C73.0047 133.643 68.5252 131.753 63.4719 136.721C57.7796 142.318 54.631 144.949 52.9683 144.8C51.8764 144.702 51.1481 145.892 51.8077 146.767C52.2952 147.415 53.1658 148.028 54.6539 148.467C66.1321 151.851 69.6121 139.454 75.1966 137.771Z" fill="#121D26"/>
<path d="M67.8072 180.532C67.8249 180.533 67.8428 180.534 67.8607 180.534L91.1446 180.508C91.7202 180.508 92.1863 180.041 92.1856 179.465C92.185 178.889 91.7163 178.414 91.1423 178.424L67.8584 178.45C67.2828 178.45 66.8169 178.917 66.8174 179.493C66.8179 180.05 67.2566 180.505 67.8072 180.532Z" fill="#AAADB0"/>
<path d="M112.076 159.393H92.6849C91.2545 159.393 89.9525 160.218 89.3423 161.512L80.3779 180.52H104.476C105.397 180.52 106.226 179.957 106.564 179.1L113.516 161.51C113.918 160.494 113.169 159.393 112.076 159.393Z" fill="#FBF9CF"/>
<path d="M98.4149 169.139C97.9947 170.445 98.3051 171.713 99.1083 171.971C99.9114 172.23 100.903 171.381 101.323 170.075C101.744 168.77 101.433 167.502 100.63 167.244C99.8268 166.985 98.8352 167.834 98.4149 169.139Z" fill="#AAADB0"/>
<path d="M127.923 226.406C128.036 226.406 128.15 226.383 128.26 226.335C128.693 226.144 128.892 225.631 128.706 225.188L110.824 182.655C110.638 182.212 110.136 182.008 109.703 182.198C109.271 182.389 109.071 182.902 109.257 183.344L127.14 225.878C127.278 226.208 127.593 226.406 127.923 226.406Z" fill="white"/>
<path d="M107.779 226.406C108.109 226.406 108.423 226.209 108.562 225.878L126.445 183.344C126.631 182.902 126.431 182.388 125.998 182.198C125.566 182.008 125.064 182.212 124.878 182.655L106.995 225.189C106.809 225.631 107.009 226.144 107.442 226.335C107.552 226.383 107.666 226.406 107.779 226.406Z" fill="white"/>
<path d="M57.5038 226.406C57.6161 226.406 57.7304 226.383 57.8402 226.335C58.2729 226.144 58.4727 225.631 58.2865 225.188L40.4037 182.655C40.2177 182.212 39.7167 182.008 39.2835 182.198C38.8511 182.389 38.651 182.902 38.8372 183.344L56.7198 225.878C56.8587 226.208 57.1732 226.406 57.5038 226.406Z" fill="white"/>
<path d="M37.3583 226.406C37.6887 226.406 38.0032 226.209 38.1421 225.878L56.0247 183.344C56.2107 182.902 56.0109 182.388 55.5784 182.198C55.1461 182.008 54.6444 182.212 54.4582 182.655L36.5754 225.189C36.3894 225.631 36.5893 226.144 37.0217 226.335C37.1316 226.383 37.2458 226.406 37.3583 226.406Z" fill="white"/>
<path d="M35.2636 181.384C35.2092 181.12 35.2832 180.847 35.4657 180.64C35.6482 180.433 35.9201 180.312 36.207 180.312H133.369C133.746 180.312 134.098 180.493 134.301 180.79C134.504 181.088 134.532 181.463 134.373 181.784L133.32 183.92C133.079 184.409 132.557 184.722 131.982 184.722H36.8736C36.339 184.722 35.8792 184.367 35.7777 183.875L35.2636 181.384Z" fill="url(#paint0_linear_21912_9644)"/>
<path d="M215.918 56.9672C230.228 56.7563 301.016 55.5169 315.544 55.2621C316.978 55.237 318.153 56.3923 318.153 57.8261V64.4537C318.153 65.8699 317.005 67.0181 315.589 67.0181H215.957C214.541 67.0181 213.393 65.8701 213.393 64.4537V59.5313C213.392 58.1295 214.516 56.9877 215.918 56.9672Z" fill="white"/>
<path opacity="0.2" d="M233.96 62.0711C233.96 63.514 235.143 64.6764 236.585 64.6514L294.314 63.6499C295.97 63.6212 297.17 62.063 296.776 60.4549L296.513 59.3839C296.222 58.1958 295.136 57.3756 293.914 57.4197L236.448 59.4922C235.06 59.5423 233.96 60.6822 233.96 62.0711Z" fill="#EBE30D"/>
<path d="M219.022 59.5327C218.947 59.5327 218.878 59.4829 218.857 59.4067C218.743 58.9936 218.674 58.5671 218.651 58.1388C218.646 58.0442 218.718 57.9634 218.812 57.9584C218.905 57.9455 218.988 58.0257 218.993 58.1202C219.015 58.5243 219.08 58.9266 219.187 59.3162C219.212 59.4074 219.159 59.5019 219.067 59.5269C219.052 59.5308 219.037 59.5327 219.022 59.5327Z" fill="white"/>
<path d="M97.4393 153.527C97.392 153.527 97.3438 153.517 97.2979 153.496C97.1256 153.418 97.0492 153.214 97.1273 153.042C97.2701 152.727 97.4168 152.414 97.5672 152.103C97.6498 151.932 97.8548 151.861 98.0252 151.944C98.1956 152.026 98.2669 152.231 98.1847 152.402C98.0365 152.708 97.8922 153.016 97.7518 153.325C97.6944 153.452 97.5697 153.527 97.4393 153.527ZM98.9824 150.466C98.9261 150.466 98.8687 150.453 98.8159 150.423C98.6506 150.331 98.5911 150.122 98.6834 149.957C98.8517 149.655 99.0235 149.355 99.1991 149.057C99.2953 148.894 99.506 148.84 99.6684 148.936C99.8314 149.032 99.8858 149.242 99.7896 149.405C99.617 149.698 99.4478 149.993 99.2822 150.29C99.2193 150.403 99.1027 150.466 98.9824 150.466ZM100.771 147.543C100.705 147.543 100.639 147.524 100.581 147.485C100.423 147.38 100.381 147.167 100.486 147.01C100.678 146.722 100.874 146.437 101.073 146.155C101.182 146 101.396 145.963 101.551 146.072C101.705 146.181 101.743 146.395 101.634 146.549C101.438 146.828 101.245 147.108 101.056 147.391C100.99 147.489 100.881 147.543 100.771 147.543ZM102.789 144.773C102.714 144.773 102.639 144.748 102.576 144.698C102.428 144.581 102.403 144.365 102.52 144.217C102.734 143.946 102.952 143.677 103.173 143.412C103.294 143.266 103.511 143.246 103.656 143.367C103.802 143.488 103.822 143.704 103.701 143.85C103.483 144.112 103.269 144.376 103.058 144.642C102.99 144.728 102.89 144.773 102.789 144.773ZM105.021 142.172C104.938 142.172 104.854 142.141 104.788 142.08C104.649 141.951 104.641 141.734 104.77 141.596C105.005 141.343 105.243 141.092 105.485 140.845C105.617 140.709 105.835 140.707 105.97 140.839C106.105 140.971 106.108 141.188 105.976 141.323C105.738 141.567 105.504 141.813 105.272 142.062C105.205 142.135 105.113 142.172 105.021 142.172ZM107.453 139.756C107.36 139.756 107.267 139.719 107.2 139.646C107.072 139.506 107.081 139.289 107.22 139.161C107.475 138.927 107.733 138.697 107.993 138.469C108.136 138.345 108.352 138.359 108.477 138.502C108.601 138.644 108.587 138.861 108.444 138.986C108.188 139.21 107.935 139.436 107.684 139.666C107.619 139.726 107.535 139.756 107.453 139.756ZM110.069 137.542C109.967 137.542 109.866 137.497 109.798 137.41C109.681 137.261 109.708 137.045 109.858 136.929C110.13 136.717 110.405 136.508 110.683 136.302C110.835 136.189 111.05 136.221 111.162 136.373C111.275 136.525 111.243 136.739 111.091 136.852C110.818 137.055 110.547 137.261 110.279 137.47C110.217 137.519 110.142 137.542 110.069 137.542ZM112.854 135.546C112.743 135.546 112.633 135.491 112.567 135.391C112.463 135.232 112.507 135.02 112.666 134.916C112.955 134.727 113.246 134.54 113.539 134.357C113.7 134.258 113.911 134.307 114.011 134.467C114.111 134.628 114.062 134.84 113.901 134.94C113.613 135.119 113.326 135.302 113.042 135.489C112.984 135.527 112.919 135.546 112.854 135.546ZM115.794 133.783C115.672 133.783 115.555 133.719 115.492 133.605C115.401 133.439 115.463 133.23 115.629 133.139L115.819 133.037C116.06 132.907 116.303 132.78 116.546 132.655C116.714 132.568 116.921 132.635 117.007 132.803C117.094 132.972 117.027 133.178 116.859 133.265C116.619 133.388 116.381 133.513 116.144 133.64L115.957 133.741C115.905 133.77 115.849 133.783 115.794 133.783ZM118.869 132.27C118.737 132.27 118.612 132.194 118.555 132.066C118.478 131.893 118.556 131.69 118.73 131.614C119.046 131.474 119.364 131.338 119.683 131.206C119.858 131.133 120.059 131.217 120.131 131.393C120.203 131.568 120.12 131.768 119.945 131.84C119.63 131.97 119.318 132.103 119.007 132.241C118.962 132.261 118.915 132.27 118.869 132.27ZM122.057 131.014C121.915 131.014 121.783 130.926 121.733 130.784C121.671 130.605 121.766 130.41 121.944 130.348C122.271 130.234 122.598 130.125 122.927 130.019C123.109 129.96 123.301 130.06 123.359 130.24C123.417 130.42 123.318 130.614 123.137 130.672C122.813 130.776 122.491 130.883 122.17 130.995C122.132 131.008 122.094 131.014 122.057 131.014ZM125.336 130.019C125.184 130.019 125.045 129.917 125.005 129.763C124.957 129.579 125.067 129.392 125.25 129.345C125.585 129.258 125.92 129.174 126.256 129.095C126.441 129.052 126.625 129.166 126.668 129.351C126.712 129.535 126.597 129.719 126.413 129.763C126.082 129.841 125.752 129.922 125.423 130.008C125.394 130.015 125.365 130.019 125.336 130.019ZM128.684 129.288C128.521 129.288 128.377 129.171 128.347 129.005C128.314 128.819 128.439 128.641 128.625 128.608C128.965 128.548 129.306 128.491 129.648 128.439C129.836 128.411 130.01 128.539 130.038 128.726C130.067 128.914 129.938 129.089 129.751 129.117C129.415 129.168 129.079 129.224 128.745 129.283C128.724 129.286 128.704 129.288 128.684 129.288ZM142.76 129.148C142.742 129.148 142.724 129.146 142.706 129.143C142.566 129.121 142.426 129.099 142.286 129.078C142.099 129.051 141.969 128.876 141.997 128.689C142.025 128.502 142.2 128.373 142.387 128.4C142.529 128.421 142.672 128.443 142.814 128.466C143.001 128.496 143.128 128.672 143.098 128.859C143.071 129.028 142.926 129.148 142.76 129.148ZM132.08 128.825C131.906 128.825 131.757 128.693 131.739 128.515C131.721 128.327 131.859 128.159 132.048 128.141C132.392 128.108 132.736 128.079 133.081 128.054C133.271 128.044 133.434 128.183 133.447 128.372C133.461 128.561 133.319 128.725 133.13 128.738C132.791 128.763 132.452 128.791 132.113 128.824C132.102 128.825 132.091 128.825 132.08 128.825ZM139.954 128.798C139.944 128.798 139.934 128.798 139.923 128.797C139.585 128.766 139.246 128.74 138.906 128.718C138.717 128.706 138.574 128.543 138.586 128.354C138.599 128.165 138.764 128.022 138.951 128.034C139.296 128.056 139.64 128.083 139.984 128.114C140.173 128.131 140.312 128.298 140.295 128.486C140.279 128.664 140.13 128.798 139.954 128.798ZM135.503 128.634C135.316 128.634 135.163 128.484 135.16 128.297C135.157 128.107 135.308 127.952 135.497 127.948C135.723 127.945 135.942 127.943 136.173 127.943L136.534 127.945C136.723 127.946 136.875 128.101 136.874 128.29C136.872 128.479 136.719 128.63 136.531 128.63C136.53 128.63 136.529 128.63 136.528 128.63L136.173 128.629C135.954 128.628 135.73 128.631 135.508 128.634C135.506 128.634 135.504 128.634 135.503 128.634Z" fill="white"/>
<path d="M193.641 142.418C193.071 142.634 192.456 142.612 191.898 142.357L151.663 123.926L154.52 147.375C154.92 150.656 156.947 153.357 159.687 154.249C184.765 162.408 208.239 164.237 228.72 154.251C230.587 153.34 232.025 151.533 232.691 149.306L240.008 124.84L193.641 142.418Z" fill="#EBE30D"/>
<path d="M135.616 106.401L198.958 80.2796C199.512 80.0512 200.117 80.05 200.672 80.2762L263.316 105.825C265.646 106.775 265.609 110.628 263.262 111.518L193.641 137.911C193.071 138.127 192.456 138.105 191.898 137.85L135.533 112.03C133.312 111.012 133.366 107.329 135.616 106.401Z" fill="#EBE30D"/>
<path d="M260.202 126.629C260.202 126.629 246.451 145.717 259.301 157.91C259.763 158.349 260.451 158.21 260.748 157.607L265.627 147.695C269.25 140.335 260.202 126.629 260.202 126.629Z" fill="#EBE30D"/>
<path d="M260.149 129.698H258.765V116.863L261.381 115.975L260.149 129.698Z" fill="#EBE30D"/>
<path d="M60.8591 277.608C59.5674 277.608 58.5112 277.426 57.6904 277.063C56.8696 276.686 56.2574 276.168 55.8538 275.509C55.4635 274.836 55.2684 274.069 55.2684 273.208V272.865H57.4078V273.087C57.4078 273.639 57.502 274.103 57.6904 274.48C57.8922 274.856 58.2488 275.139 58.7601 275.327C59.2714 275.516 60.0047 275.61 60.9601 275.61C61.9557 275.61 62.6554 275.469 63.0591 275.186C63.4627 274.89 63.6646 274.433 63.6646 273.814C63.6646 273.397 63.604 273.06 63.4829 272.805C63.3618 272.549 63.1196 272.34 62.7563 272.179C62.4065 272.004 61.8817 271.849 61.1821 271.715L58.8812 271.25C58.1008 271.102 57.4482 270.874 56.9234 270.564C56.3987 270.241 55.995 269.831 55.7125 269.333C55.4434 268.835 55.3088 268.236 55.3088 267.537C55.3088 266.864 55.4837 266.238 55.8336 265.66C56.1969 265.068 56.7485 264.59 57.4886 264.227C58.2421 263.863 59.1974 263.682 60.3546 263.682C61.5925 263.682 62.5949 263.89 63.3618 264.307C64.1422 264.725 64.7074 265.276 65.0572 265.962C65.4205 266.635 65.6021 267.375 65.6021 268.183V268.425H63.4426V268.203C63.4426 267.638 63.3484 267.173 63.16 266.81C62.9851 266.433 62.6622 266.151 62.1912 265.962C61.7337 265.761 61.1081 265.66 60.3142 265.66C59.3185 265.66 58.5986 265.808 58.1546 266.104C57.7106 266.4 57.4886 266.844 57.4886 267.436C57.4886 267.84 57.5559 268.162 57.6904 268.405C57.8384 268.647 58.0873 268.842 58.4372 268.99C58.8005 269.124 59.2849 269.266 59.8904 269.414L62.1912 269.898C63.0524 270.06 63.7453 270.315 64.2701 270.665C64.8083 271.015 65.2052 271.446 65.4609 271.957C65.7165 272.455 65.8443 273.047 65.8443 273.733C65.8443 274.433 65.6694 275.078 65.3196 275.671C64.9697 276.263 64.4248 276.733 63.6848 277.083C62.9582 277.433 62.0163 277.608 60.8591 277.608ZM76.8545 277.406H74.6747V271.573C74.6747 270.685 74.4998 270.046 74.15 269.656C73.8136 269.252 73.1879 269.05 72.2729 269.05C71.3983 269.05 70.7458 269.246 70.3152 269.636C69.8981 270.013 69.6895 270.679 69.6895 271.634H69.306L69.2859 269.05H69.7702C69.9317 268.741 70.1537 268.445 70.4363 268.162C70.7323 267.866 71.1023 267.631 71.5464 267.456C72.0038 267.268 72.5286 267.173 73.1206 267.173C74.0087 267.173 74.7218 267.348 75.26 267.698C75.8117 268.035 76.2154 268.499 76.471 269.091C76.7267 269.683 76.8545 270.349 76.8545 271.089V277.406ZM69.6895 277.406H67.5098V263.884H69.6895V277.406ZM83.563 277.608C82.5404 277.608 81.6523 277.393 80.8988 276.962C80.1453 276.518 79.5667 275.906 79.1631 275.126C78.7594 274.332 78.5576 273.417 78.5576 272.381C78.5576 271.345 78.7594 270.436 79.1631 269.656C79.5667 268.876 80.1453 268.27 80.8988 267.84C81.6523 267.395 82.5404 267.173 83.563 267.173C84.5856 267.173 85.4602 267.395 86.1868 267.84C86.9268 268.27 87.4919 268.876 87.8821 269.656C88.2858 270.436 88.4876 271.345 88.4876 272.381C88.4876 273.417 88.2858 274.332 87.8821 275.126C87.4919 275.906 86.9268 276.518 86.1868 276.962C85.4602 277.393 84.5856 277.608 83.563 277.608ZM83.563 275.671C84.6125 275.671 85.3458 275.408 85.7629 274.883C86.18 274.345 86.3886 273.511 86.3886 272.381C86.3886 271.25 86.18 270.423 85.7629 269.898C85.3458 269.373 84.6125 269.111 83.563 269.111C82.5 269.111 81.76 269.373 81.3428 269.898C80.9257 270.423 80.7172 271.25 80.7172 272.381C80.7172 273.511 80.9257 274.345 81.3428 274.883C81.76 275.408 82.5 275.671 83.563 275.671ZM94.1838 277.406H91.338L88.8555 267.375H91.2169L92.3673 272.946L92.7912 275.59H92.9526L93.5985 272.946L95.3544 267.375H98.18L99.9561 272.966L100.602 275.57H100.743L101.167 272.966L102.318 267.375H104.598L102.116 277.406H99.2699L97.4736 271.816L96.8076 269.293H96.6663L96.0003 271.816L94.1838 277.406ZM109.834 277.628C108.784 277.628 107.896 277.406 107.17 276.962C106.443 276.518 105.885 275.906 105.495 275.126C105.118 274.345 104.93 273.437 104.93 272.401C104.93 271.365 105.125 270.457 105.515 269.676C105.918 268.882 106.49 268.27 107.23 267.84C107.97 267.395 108.865 267.173 109.915 267.173C110.803 267.173 111.583 267.342 112.256 267.678C112.929 268.014 113.447 268.485 113.81 269.091C114.187 269.696 114.375 270.403 114.375 271.21V271.392H112.216V271.271C112.216 270.531 112.014 269.992 111.61 269.656C111.22 269.306 110.608 269.131 109.773 269.131C108.805 269.131 108.112 269.407 107.695 269.959C107.291 270.497 107.089 271.304 107.089 272.381C107.089 273.471 107.291 274.291 107.695 274.843C108.112 275.381 108.805 275.65 109.773 275.65C110.608 275.65 111.22 275.482 111.61 275.146C112.014 274.796 112.216 274.258 112.216 273.531V273.41H114.375V273.592C114.375 274.372 114.187 275.072 113.81 275.691C113.433 276.296 112.902 276.774 112.216 277.124C111.543 277.46 110.749 277.628 109.834 277.628ZM124.592 277.406H122.574V275.428L122.513 274.883V271.028C122.513 270.275 122.331 269.764 121.968 269.495C121.618 269.225 121.046 269.091 120.253 269.091C119.459 269.091 118.887 269.232 118.537 269.515C118.201 269.797 118.032 270.268 118.032 270.928V271.23H115.933V271.028C115.933 270.275 116.115 269.609 116.478 269.03C116.855 268.452 117.373 268.001 118.032 267.678C118.705 267.342 119.486 267.173 120.374 267.173C121.315 267.173 122.096 267.348 122.715 267.698C123.334 268.048 123.798 268.532 124.107 269.151C124.43 269.757 124.592 270.477 124.592 271.311V277.406ZM118.84 277.608C117.938 277.608 117.178 277.379 116.559 276.922C115.954 276.451 115.651 275.785 115.651 274.924C115.651 274.359 115.779 273.888 116.034 273.511C116.303 273.134 116.687 272.825 117.185 272.583C117.683 272.34 118.288 272.172 119.001 272.078L122.715 271.553V273.087L119.324 273.592C118.746 273.672 118.342 273.793 118.113 273.955C117.884 274.116 117.77 274.386 117.77 274.762C117.77 275.152 117.905 275.435 118.174 275.61C118.456 275.785 118.914 275.872 119.546 275.872C120.031 275.872 120.495 275.798 120.939 275.65C121.396 275.489 121.773 275.226 122.069 274.863C122.365 274.486 122.513 273.962 122.513 273.289L122.796 275.852L122.473 275.832C122.284 276.141 122.022 276.431 121.686 276.7C121.363 276.969 120.966 277.191 120.495 277.366C120.024 277.527 119.472 277.608 118.84 277.608ZM130.838 277.608C129.372 277.608 128.261 277.319 127.508 276.74C126.754 276.148 126.378 275.24 126.378 274.016V273.975H128.477V274.338C128.477 274.688 128.544 274.978 128.679 275.206C128.827 275.422 129.069 275.583 129.405 275.691C129.755 275.785 130.246 275.832 130.879 275.832C131.417 275.832 131.82 275.792 132.09 275.711C132.372 275.617 132.56 275.489 132.655 275.327C132.749 275.166 132.796 274.964 132.796 274.722C132.796 274.318 132.655 274.036 132.372 273.874C132.09 273.699 131.585 273.545 130.858 273.41L129.284 273.148C128.692 273.027 128.174 272.858 127.73 272.643C127.299 272.414 126.963 272.105 126.721 271.715C126.492 271.311 126.378 270.806 126.378 270.201C126.378 269.299 126.734 268.573 127.447 268.021C128.161 267.456 129.17 267.173 130.475 267.173C131.269 267.173 131.975 267.301 132.594 267.557C133.213 267.813 133.704 268.196 134.067 268.707C134.431 269.219 134.612 269.858 134.612 270.625V270.806H132.534V270.564C132.534 270.241 132.48 269.965 132.372 269.737C132.264 269.495 132.063 269.306 131.767 269.172C131.471 269.037 131.02 268.97 130.414 268.97C129.62 268.97 129.096 269.071 128.84 269.272C128.584 269.474 128.457 269.77 128.457 270.161C128.457 270.551 128.571 270.827 128.8 270.988C129.042 271.136 129.513 271.284 130.213 271.432L131.928 271.755C132.574 271.876 133.112 272.058 133.543 272.3C133.973 272.542 134.296 272.858 134.512 273.249C134.74 273.639 134.855 274.103 134.855 274.641C134.855 275.583 134.498 276.316 133.785 276.841C133.085 277.352 132.103 277.608 130.838 277.608ZM141.073 277.608C139.983 277.608 139.075 277.393 138.349 276.962C137.622 276.518 137.084 275.906 136.734 275.126C136.384 274.332 136.209 273.417 136.209 272.381C136.209 271.345 136.404 270.436 136.795 269.656C137.198 268.876 137.763 268.27 138.49 267.84C139.217 267.395 140.078 267.173 141.073 267.173C141.975 267.173 142.769 267.348 143.455 267.698C144.155 268.035 144.693 268.526 145.07 269.172C145.46 269.817 145.655 270.598 145.655 271.513C145.655 271.782 145.641 272.044 145.615 272.3C145.601 272.542 145.581 272.744 145.554 272.905H137.239V271.452H143.778L143.556 271.654C143.61 271.035 143.542 270.531 143.354 270.14C143.179 269.75 142.89 269.461 142.486 269.272C142.096 269.084 141.605 268.99 141.013 268.99C139.95 268.99 139.223 269.259 138.833 269.797C138.443 270.322 138.248 271.049 138.248 271.977V272.583C138.248 273.255 138.328 273.827 138.49 274.298C138.665 274.756 138.961 275.099 139.378 275.327C139.795 275.556 140.367 275.671 141.094 275.671C141.941 275.671 142.54 275.536 142.89 275.267C143.24 274.998 143.415 274.641 143.415 274.197V274.036H145.574V274.217C145.574 274.904 145.386 275.502 145.009 276.014C144.632 276.511 144.108 276.902 143.435 277.184C142.775 277.467 141.988 277.608 141.073 277.608ZM153.012 280.837C152.743 280.837 152.467 280.817 152.185 280.777C151.902 280.75 151.674 280.71 151.499 280.656V278.88H152.891C153.308 278.88 153.618 278.819 153.82 278.698C154.022 278.59 154.21 278.355 154.385 277.992L155.01 276.579L154.829 277.285L150.489 267.375H152.891L154.91 272.239L155.818 274.419H155.999L156.807 272.239L158.643 267.375H161.065L156.302 278.577C156.06 279.182 155.784 279.647 155.475 279.969C155.165 280.292 154.809 280.514 154.405 280.636C154.015 280.77 153.551 280.837 153.012 280.837ZM166.305 277.608C165.283 277.608 164.395 277.393 163.641 276.962C162.888 276.518 162.309 275.906 161.906 275.126C161.502 274.332 161.3 273.417 161.3 272.381C161.3 271.345 161.502 270.436 161.906 269.656C162.309 268.876 162.888 268.27 163.641 267.84C164.395 267.395 165.283 267.173 166.305 267.173C167.328 267.173 168.203 267.395 168.929 267.84C169.669 268.27 170.234 268.876 170.625 269.656C171.028 270.436 171.23 271.345 171.23 272.381C171.23 273.417 171.028 274.332 170.625 275.126C170.234 275.906 169.669 276.518 168.929 276.962C168.203 277.393 167.328 277.608 166.305 277.608ZM166.305 275.671C167.355 275.671 168.088 275.408 168.505 274.883C168.922 274.345 169.131 273.511 169.131 272.381C169.131 271.25 168.922 270.423 168.505 269.898C168.088 269.373 167.355 269.111 166.305 269.111C165.242 269.111 164.502 269.373 164.085 269.898C163.668 270.423 163.46 271.25 163.46 272.381C163.46 273.511 163.668 274.345 164.085 274.883C164.502 275.408 165.242 275.671 166.305 275.671ZM176.593 277.608C175.732 277.608 175.019 277.433 174.454 277.083C173.889 276.72 173.472 276.236 173.203 275.63C172.934 275.011 172.799 274.325 172.799 273.571V267.375H174.979V273.168C174.979 274.069 175.167 274.722 175.544 275.126C175.921 275.529 176.54 275.731 177.401 275.731C177.966 275.731 178.443 275.644 178.834 275.469C179.224 275.28 179.52 274.991 179.722 274.601C179.924 274.197 180.024 273.672 180.024 273.027H180.59V275.408H180.105C179.957 275.785 179.728 276.141 179.419 276.478C179.123 276.814 178.74 277.09 178.269 277.305C177.811 277.507 177.253 277.608 176.593 277.608ZM182.204 277.406H180.186V274.399L180.024 274.298V267.375H182.204V277.406ZM186.53 277.406H184.35V267.315H186.349V270.12L186.53 270.221V277.406ZM186.53 270.867H186.026V268.909H186.449C186.651 268.438 186.981 268.035 187.438 267.698C187.909 267.348 188.515 267.173 189.255 267.173C189.968 267.173 190.533 267.328 190.95 267.638C191.381 267.947 191.69 268.358 191.879 268.869C192.067 269.38 192.161 269.952 192.161 270.584V271.25H189.981V270.847C189.981 270.174 189.867 269.703 189.638 269.434C189.41 269.165 188.979 269.03 188.347 269.03C187.687 269.03 187.216 269.172 186.934 269.454C186.665 269.723 186.53 270.194 186.53 270.867ZM199.677 277.406H197.497V267.315H199.495V270.12L199.677 270.221V277.406ZM199.677 270.867H199.172V268.909H199.596C199.798 268.438 200.128 268.035 200.585 267.698C201.056 267.348 201.661 267.173 202.401 267.173C203.115 267.173 203.68 267.328 204.097 267.638C204.527 267.947 204.837 268.358 205.025 268.869C205.214 269.38 205.308 269.952 205.308 270.584V271.25H203.128V270.847C203.128 270.174 203.014 269.703 202.785 269.434C202.556 269.165 202.126 269.03 201.493 269.03C200.834 269.03 200.363 269.172 200.08 269.454C199.811 269.723 199.677 270.194 199.677 270.867ZM211.162 277.608C210.072 277.608 209.164 277.393 208.437 276.962C207.711 276.518 207.172 275.906 206.823 275.126C206.473 274.332 206.298 273.417 206.298 272.381C206.298 271.345 206.493 270.436 206.883 269.656C207.287 268.876 207.852 268.27 208.579 267.84C209.305 267.395 210.166 267.173 211.162 267.173C212.063 267.173 212.857 267.348 213.544 267.698C214.243 268.035 214.781 268.526 215.158 269.172C215.548 269.817 215.744 270.598 215.744 271.513C215.744 271.782 215.73 272.044 215.703 272.3C215.69 272.542 215.67 272.744 215.643 272.905H207.327V271.452H213.867L213.644 271.654C213.698 271.035 213.631 270.531 213.443 270.14C213.268 269.75 212.978 269.461 212.575 269.272C212.185 269.084 211.693 268.99 211.101 268.99C210.038 268.99 209.312 269.259 208.922 269.797C208.531 270.322 208.336 271.049 208.336 271.977V272.583C208.336 273.255 208.417 273.827 208.579 274.298C208.753 274.756 209.049 275.099 209.467 275.327C209.884 275.556 210.456 275.671 211.182 275.671C212.03 275.671 212.629 275.536 212.978 275.267C213.328 274.998 213.503 274.641 213.503 274.197V274.036H215.663V274.217C215.663 274.904 215.474 275.502 215.098 276.014C214.721 276.511 214.196 276.902 213.523 277.184C212.864 277.467 212.077 277.608 211.162 277.608ZM222.082 277.628C221.033 277.628 220.145 277.406 219.418 276.962C218.691 276.518 218.133 275.906 217.743 275.126C217.366 274.345 217.178 273.437 217.178 272.401C217.178 271.365 217.373 270.457 217.763 269.676C218.167 268.882 218.739 268.27 219.479 267.84C220.219 267.395 221.113 267.173 222.163 267.173C223.051 267.173 223.831 267.342 224.504 267.678C225.177 268.014 225.695 268.485 226.058 269.091C226.435 269.696 226.623 270.403 226.623 271.21V271.392H224.464V271.271C224.464 270.531 224.262 269.992 223.858 269.656C223.468 269.306 222.856 269.131 222.022 269.131C221.053 269.131 220.36 269.407 219.943 269.959C219.539 270.497 219.337 271.304 219.337 272.381C219.337 273.471 219.539 274.291 219.943 274.843C220.36 275.381 221.053 275.65 222.022 275.65C222.856 275.65 223.468 275.482 223.858 275.146C224.262 274.796 224.464 274.258 224.464 273.531V273.41H226.623V273.592C226.623 274.372 226.435 275.072 226.058 275.691C225.682 276.296 225.15 276.774 224.464 277.124C223.791 277.46 222.997 277.628 222.082 277.628ZM232.823 277.608C231.733 277.608 230.825 277.393 230.099 276.962C229.372 276.518 228.834 275.906 228.484 275.126C228.134 274.332 227.959 273.417 227.959 272.381C227.959 271.345 228.154 270.436 228.544 269.656C228.948 268.876 229.513 268.27 230.24 267.84C230.966 267.395 231.828 267.173 232.823 267.173C233.725 267.173 234.519 267.348 235.205 267.698C235.905 268.035 236.443 268.526 236.819 269.172C237.21 269.817 237.405 270.598 237.405 271.513C237.405 271.782 237.391 272.044 237.364 272.3C237.351 272.542 237.331 272.744 237.304 272.905H228.988V271.452H235.528L235.306 271.654C235.36 271.035 235.292 270.531 235.104 270.14C234.929 269.75 234.64 269.461 234.236 269.272C233.846 269.084 233.355 268.99 232.763 268.99C231.7 268.99 230.973 269.259 230.583 269.797C230.193 270.322 229.998 271.049 229.998 271.977V272.583C229.998 273.255 230.078 273.827 230.24 274.298C230.415 274.756 230.711 275.099 231.128 275.327C231.545 275.556 232.117 275.671 232.843 275.671C233.691 275.671 234.29 275.536 234.64 275.267C234.99 274.998 235.164 274.641 235.164 274.197V274.036H237.324V274.217C237.324 274.904 237.136 275.502 236.759 276.014C236.382 276.511 235.857 276.902 235.185 277.184C234.525 277.467 233.738 277.608 232.823 277.608ZM248.489 277.406H246.309V271.573C246.309 270.685 246.141 270.046 245.805 269.656C245.468 269.252 244.836 269.05 243.907 269.05C243.315 269.05 242.831 269.138 242.454 269.313C242.077 269.474 241.795 269.743 241.606 270.12C241.418 270.483 241.324 270.981 241.324 271.614H240.94L240.759 269.252H241.243C241.391 268.889 241.613 268.553 241.909 268.243C242.205 267.934 242.582 267.678 243.039 267.476C243.51 267.274 244.069 267.173 244.715 267.173C245.589 267.173 246.302 267.342 246.854 267.678C247.406 268.014 247.816 268.479 248.085 269.071C248.354 269.663 248.489 270.342 248.489 271.109V277.406ZM241.324 277.406H239.144V267.375H241.142V270.383L241.324 270.483V277.406ZM254.656 277.406C253.552 277.406 252.705 277.171 252.113 276.7C251.534 276.229 251.245 275.435 251.245 274.318V267.597L251.749 264.893H253.425V274.217C253.425 274.742 253.552 275.078 253.808 275.226C254.077 275.361 254.555 275.428 255.241 275.428H256.452V277.225C256.25 277.278 255.988 277.326 255.665 277.366C255.342 277.393 255.006 277.406 254.656 277.406ZM256.452 269.192H249.57V267.375H256.452V269.192ZM270.249 277.406H268.23V275.428L268.17 274.883V271.028C268.17 270.275 267.988 269.764 267.625 269.495C267.275 269.225 266.703 269.091 265.909 269.091C265.115 269.091 264.543 269.232 264.194 269.515C263.857 269.797 263.689 270.268 263.689 270.928V271.23H261.59V271.028C261.59 270.275 261.772 269.609 262.135 269.03C262.512 268.452 263.03 268.001 263.689 267.678C264.362 267.342 265.142 267.173 266.03 267.173C266.972 267.173 267.753 267.348 268.372 267.698C268.99 268.048 269.455 268.532 269.764 269.151C270.087 269.757 270.249 270.477 270.249 271.311V277.406ZM264.496 277.608C263.595 277.608 262.835 277.379 262.216 276.922C261.61 276.451 261.307 275.785 261.307 274.924C261.307 274.359 261.435 273.888 261.691 273.511C261.96 273.134 262.344 272.825 262.841 272.583C263.339 272.34 263.945 272.172 264.658 272.078L268.372 271.553V273.087L264.981 273.592C264.402 273.672 263.999 273.793 263.77 273.955C263.541 274.116 263.427 274.386 263.427 274.762C263.427 275.152 263.561 275.435 263.83 275.61C264.113 275.785 264.57 275.872 265.203 275.872C265.687 275.872 266.151 275.798 266.595 275.65C267.053 275.489 267.43 275.226 267.726 274.863C268.022 274.486 268.17 273.962 268.17 273.289L268.452 275.852L268.129 275.832C267.941 276.141 267.679 276.431 267.342 276.7C267.019 276.969 266.622 277.191 266.151 277.366C265.68 277.527 265.129 277.608 264.496 277.608ZM276.797 277.628C275.748 277.628 274.86 277.406 274.133 276.962C273.406 276.518 272.848 275.906 272.458 275.126C272.081 274.345 271.893 273.437 271.893 272.401C271.893 271.365 272.088 270.457 272.478 269.676C272.882 268.882 273.453 268.27 274.194 267.84C274.934 267.395 275.828 267.173 276.878 267.173C277.766 267.173 278.546 267.342 279.219 267.678C279.892 268.014 280.41 268.485 280.773 269.091C281.15 269.696 281.338 270.403 281.338 271.21V271.392H279.179V271.271C279.179 270.531 278.977 269.992 278.573 269.656C278.183 269.306 277.571 269.131 276.737 269.131C275.768 269.131 275.075 269.407 274.658 269.959C274.254 270.497 274.052 271.304 274.052 272.381C274.052 273.471 274.254 274.291 274.658 274.843C275.075 275.381 275.768 275.65 276.737 275.65C277.571 275.65 278.183 275.482 278.573 275.146C278.977 274.796 279.179 274.258 279.179 273.531V273.41H281.338V273.592C281.338 274.372 281.15 275.072 280.773 275.691C280.396 276.296 279.865 276.774 279.179 277.124C278.506 277.46 277.712 277.628 276.797 277.628ZM291.555 277.406H289.537V275.428L289.476 274.883V271.028C289.476 270.275 289.294 269.764 288.931 269.495C288.581 269.225 288.01 269.091 287.216 269.091C286.422 269.091 285.85 269.232 285.5 269.515C285.164 269.797 284.996 270.268 284.996 270.928V271.23H282.896V271.028C282.896 270.275 283.078 269.609 283.441 269.03C283.818 268.452 284.336 268.001 284.996 267.678C285.668 267.342 286.449 267.173 287.337 267.173C288.279 267.173 289.059 267.348 289.678 267.698C290.297 268.048 290.761 268.532 291.071 269.151C291.394 269.757 291.555 270.477 291.555 271.311V277.406ZM285.803 277.608C284.901 277.608 284.141 277.379 283.522 276.922C282.917 276.451 282.614 275.785 282.614 274.924C282.614 274.359 282.742 273.888 282.997 273.511C283.267 273.134 283.65 272.825 284.148 272.583C284.646 272.34 285.251 272.172 285.964 272.078L289.678 271.553V273.087L286.287 273.592C285.709 273.672 285.305 273.793 285.076 273.955C284.848 274.116 284.733 274.386 284.733 274.762C284.733 275.152 284.868 275.435 285.137 275.61C285.419 275.785 285.877 275.872 286.509 275.872C286.994 275.872 287.458 275.798 287.902 275.65C288.359 275.489 288.736 275.226 289.032 274.863C289.328 274.486 289.476 273.962 289.476 273.289L289.759 275.852L289.436 275.832C289.247 276.141 288.985 276.431 288.649 276.7C288.326 276.969 287.929 277.191 287.458 277.366C286.987 277.527 286.435 277.608 285.803 277.608ZM297.619 277.608C296.193 277.608 295.096 277.137 294.329 276.195C293.576 275.24 293.199 273.968 293.199 272.381C293.199 270.793 293.569 269.528 294.309 268.586C295.063 267.644 296.126 267.173 297.498 267.173C298.386 267.173 299.099 267.355 299.637 267.718C300.189 268.068 300.573 268.472 300.788 268.929H301.333L301.232 271.493H300.848C300.848 270.928 300.741 270.463 300.526 270.1C300.31 269.737 300.001 269.468 299.597 269.293C299.193 269.118 298.696 269.03 298.104 269.03C297.619 269.03 297.202 269.091 296.852 269.212C296.516 269.333 296.233 269.521 296.005 269.777C295.789 270.033 295.628 270.376 295.52 270.806C295.426 271.237 295.379 271.762 295.379 272.381C295.379 272.986 295.426 273.511 295.52 273.955C295.628 274.386 295.789 274.735 296.005 275.004C296.233 275.26 296.523 275.448 296.872 275.57C297.222 275.691 297.633 275.751 298.104 275.751C298.696 275.751 299.193 275.664 299.597 275.489C300.001 275.3 300.31 275.025 300.526 274.661C300.741 274.298 300.848 273.841 300.848 273.289H301.232L301.333 275.751H300.929C300.7 276.33 300.304 276.787 299.738 277.124C299.187 277.447 298.48 277.608 297.619 277.608ZM303.028 277.406H301.01V275.025L300.848 274.762V263.884H303.028V277.406ZM309.554 277.608C308.464 277.608 307.556 277.393 306.829 276.962C306.103 276.518 305.565 275.906 305.215 275.126C304.865 274.332 304.69 273.417 304.69 272.381C304.69 271.345 304.885 270.436 305.275 269.656C305.679 268.876 306.244 268.27 306.971 267.84C307.697 267.395 308.558 267.173 309.554 267.173C310.456 267.173 311.25 267.348 311.936 267.698C312.635 268.035 313.174 268.526 313.55 269.172C313.941 269.817 314.136 270.598 314.136 271.513C314.136 271.782 314.122 272.044 314.095 272.3C314.082 272.542 314.062 272.744 314.035 272.905H305.719V271.452H312.259L312.037 271.654C312.09 271.035 312.023 270.531 311.835 270.14C311.66 269.75 311.371 269.461 310.967 269.272C310.577 269.084 310.086 268.99 309.494 268.99C308.431 268.99 307.704 269.259 307.314 269.797C306.924 270.322 306.729 271.049 306.729 271.977V272.583C306.729 273.255 306.809 273.827 306.971 274.298C307.146 274.756 307.442 275.099 307.859 275.327C308.276 275.556 308.848 275.671 309.574 275.671C310.422 275.671 311.021 275.536 311.371 275.267C311.72 274.998 311.895 274.641 311.895 274.197V274.036H314.055V274.217C314.055 274.904 313.867 275.502 313.49 276.014C313.113 276.511 312.588 276.902 311.916 277.184C311.256 277.467 310.469 277.608 309.554 277.608ZM331.981 277.406H329.801V271.573C329.801 270.685 329.633 270.046 329.297 269.656C328.974 269.252 328.355 269.05 327.44 269.05C326.619 269.05 326.007 269.246 325.603 269.636C325.213 270.013 325.018 270.658 325.018 271.573L324.634 271.614L324.453 269.252H324.776C324.937 268.902 325.159 268.573 325.442 268.263C325.738 267.94 326.115 267.678 326.572 267.476C327.03 267.274 327.588 267.173 328.247 267.173C329.122 267.173 329.828 267.342 330.366 267.678C330.918 268.014 331.322 268.479 331.577 269.071C331.847 269.663 331.981 270.342 331.981 271.109V277.406ZM318.055 277.406H315.875V267.375H317.873V270.383L318.055 270.483V277.406ZM325.018 277.406H322.838V271.573C322.838 270.685 322.67 270.046 322.334 269.656C322.011 269.252 321.392 269.05 320.477 269.05C319.656 269.05 319.044 269.239 318.64 269.616C318.25 269.992 318.055 270.638 318.055 271.553L317.671 271.614L317.49 269.252H317.974C318.122 268.889 318.337 268.553 318.62 268.243C318.916 267.934 319.293 267.678 319.75 267.476C320.208 267.274 320.753 267.173 321.385 267.173C322.233 267.173 322.919 267.342 323.444 267.678C323.982 268.014 324.379 268.479 324.634 269.071C324.89 269.663 325.018 270.342 325.018 271.109V277.406ZM336.106 266.104H333.946L333.926 263.884H336.106V266.104ZM336.126 277.406H333.946V267.315H336.126V277.406ZM342.53 277.628C341.48 277.628 340.592 277.406 339.866 276.962C339.139 276.518 338.581 275.906 338.191 275.126C337.814 274.345 337.625 273.437 337.625 272.401C337.625 271.365 337.82 270.457 338.211 269.676C338.614 268.882 339.186 268.27 339.926 267.84C340.666 267.395 341.561 267.173 342.611 267.173C343.499 267.173 344.279 267.342 344.952 267.678C345.625 268.014 346.143 268.485 346.506 269.091C346.883 269.696 347.071 270.403 347.071 271.21V271.392H344.911V271.271C344.911 270.531 344.71 269.992 344.306 269.656C343.916 269.306 343.304 269.131 342.469 269.131C341.501 269.131 340.808 269.407 340.39 269.959C339.987 270.497 339.785 271.304 339.785 272.381C339.785 273.471 339.987 274.291 340.39 274.843C340.808 275.381 341.501 275.65 342.469 275.65C343.304 275.65 343.916 275.482 344.306 275.146C344.71 274.796 344.911 274.258 344.911 273.531V273.41H347.071V273.592C347.071 274.372 346.883 275.072 346.506 275.691C346.129 276.296 345.598 276.774 344.911 277.124C344.239 277.46 343.445 277.628 342.53 277.628ZM176.837 302.608C175.41 302.608 174.314 302.137 173.547 301.195C172.793 300.24 172.416 298.968 172.416 297.381C172.416 295.793 172.786 294.528 173.527 293.586C174.28 292.644 175.343 292.173 176.715 292.173C177.603 292.173 178.317 292.355 178.855 292.718C179.406 293.068 179.79 293.472 180.005 293.929H180.55L180.449 296.493H180.066C180.066 295.928 179.958 295.463 179.743 295.1C179.528 294.737 179.218 294.468 178.814 294.293C178.411 294.118 177.913 294.03 177.321 294.03C176.837 294.03 176.419 294.091 176.07 294.212C175.733 294.333 175.451 294.521 175.222 294.777C175.007 295.033 174.845 295.376 174.737 295.806C174.643 296.237 174.596 296.762 174.596 297.381C174.596 297.986 174.643 298.511 174.737 298.955C174.845 299.386 175.007 299.735 175.222 300.004C175.451 300.26 175.74 300.448 176.09 300.57C176.44 300.691 176.85 300.751 177.321 300.751C177.913 300.751 178.411 300.664 178.814 300.489C179.218 300.3 179.528 300.025 179.743 299.661C179.958 299.298 180.066 298.841 180.066 298.289H180.449L180.55 300.751H180.147C179.918 301.33 179.521 301.787 178.956 302.124C178.404 302.447 177.698 302.608 176.837 302.608ZM182.246 302.406H180.227V300.025L180.066 299.762V288.884H182.246V302.406ZM188.771 302.608C187.682 302.608 186.773 302.393 186.047 301.962C185.32 301.518 184.782 300.906 184.432 300.126C184.082 299.332 183.907 298.417 183.907 297.381C183.907 296.345 184.102 295.436 184.493 294.656C184.896 293.876 185.461 293.27 186.188 292.84C186.915 292.395 187.776 292.173 188.771 292.173C189.673 292.173 190.467 292.348 191.153 292.698C191.853 293.035 192.391 293.526 192.768 294.172C193.158 294.817 193.353 295.598 193.353 296.513C193.353 296.782 193.34 297.044 193.313 297.3C193.299 297.542 193.279 297.744 193.252 297.905H184.937V296.452H191.476L191.254 296.654C191.308 296.035 191.241 295.531 191.052 295.14C190.877 294.75 190.588 294.461 190.184 294.272C189.794 294.084 189.303 293.99 188.711 293.99C187.648 293.99 186.921 294.259 186.531 294.797C186.141 295.322 185.946 296.049 185.946 296.977V297.583C185.946 298.255 186.027 298.827 186.188 299.298C186.363 299.756 186.659 300.099 187.076 300.327C187.493 300.556 188.065 300.671 188.792 300.671C189.639 300.671 190.238 300.536 190.588 300.267C190.938 299.998 191.113 299.641 191.113 299.197V299.036H193.272V299.217C193.272 299.904 193.084 300.502 192.707 301.014C192.33 301.511 191.806 301.902 191.133 302.184C190.474 302.467 189.686 302.608 188.771 302.608ZM199.192 302.406C198.089 302.406 197.241 302.171 196.649 301.7C196.07 301.229 195.781 300.435 195.781 299.318V292.597L196.286 289.893H197.961V299.217C197.961 299.742 198.089 300.078 198.344 300.226C198.613 300.361 199.091 300.428 199.777 300.428H200.988V302.225C200.786 302.278 200.524 302.326 200.201 302.366C199.878 302.393 199.542 302.406 199.192 302.406ZM200.988 294.192H194.106V292.375H200.988V294.192ZM210.922 302.406H208.903V300.428L208.843 299.883V296.028C208.843 295.275 208.661 294.764 208.298 294.495C207.948 294.225 207.376 294.091 206.582 294.091C205.788 294.091 205.216 294.232 204.867 294.515C204.53 294.797 204.362 295.268 204.362 295.928V296.23H202.263V296.028C202.263 295.275 202.445 294.609 202.808 294.03C203.185 293.452 203.703 293.001 204.362 292.678C205.035 292.342 205.815 292.173 206.703 292.173C207.645 292.173 208.426 292.348 209.045 292.698C209.663 293.048 210.128 293.532 210.437 294.151C210.76 294.757 210.922 295.477 210.922 296.311V302.406ZM205.169 302.608C204.268 302.608 203.508 302.379 202.889 301.922C202.283 301.451 201.98 300.785 201.98 299.924C201.98 299.359 202.108 298.888 202.364 298.511C202.633 298.134 203.017 297.825 203.514 297.583C204.012 297.34 204.618 297.172 205.331 297.078L209.045 296.553V298.087L205.654 298.592C205.075 298.672 204.672 298.793 204.443 298.955C204.214 299.116 204.1 299.386 204.1 299.762C204.1 300.152 204.234 300.435 204.503 300.61C204.786 300.785 205.243 300.872 205.876 300.872C206.36 300.872 206.824 300.798 207.268 300.65C207.726 300.489 208.103 300.226 208.399 299.863C208.695 299.486 208.843 298.962 208.843 298.289L209.125 300.852L208.802 300.832C208.614 301.141 208.352 301.431 208.015 301.7C207.692 301.969 207.295 302.191 206.824 302.366C206.353 302.527 205.802 302.608 205.169 302.608ZM215.047 291.104H212.888L212.867 288.884H215.047V291.104ZM215.067 302.406H212.888V292.315H215.067V302.406ZM219.249 302.406H217.069V288.884H219.249V302.406ZM225.545 302.608C224.078 302.608 222.968 302.319 222.214 301.74C221.461 301.148 221.084 300.24 221.084 299.016V298.975H223.183V299.338C223.183 299.688 223.25 299.978 223.385 300.206C223.533 300.422 223.775 300.583 224.112 300.691C224.461 300.785 224.953 300.832 225.585 300.832C226.123 300.832 226.527 300.792 226.796 300.711C227.078 300.617 227.267 300.489 227.361 300.327C227.455 300.166 227.502 299.964 227.502 299.722C227.502 299.318 227.361 299.036 227.078 298.874C226.796 298.699 226.291 298.545 225.565 298.41L223.99 298.148C223.398 298.027 222.88 297.858 222.436 297.643C222.006 297.414 221.669 297.105 221.427 296.715C221.199 296.311 221.084 295.806 221.084 295.201C221.084 294.299 221.441 293.573 222.154 293.021C222.867 292.456 223.876 292.173 225.181 292.173C225.975 292.173 226.682 292.301 227.301 292.557C227.919 292.813 228.411 293.196 228.774 293.707C229.137 294.219 229.319 294.858 229.319 295.625V295.806H227.24V295.564C227.24 295.241 227.186 294.965 227.078 294.737C226.971 294.495 226.769 294.306 226.473 294.172C226.177 294.037 225.726 293.97 225.121 293.97C224.327 293.97 223.802 294.071 223.546 294.272C223.291 294.474 223.163 294.77 223.163 295.161C223.163 295.551 223.277 295.827 223.506 295.988C223.748 296.136 224.219 296.284 224.919 296.432L226.634 296.755C227.28 296.876 227.819 297.058 228.249 297.3C228.68 297.542 229.003 297.858 229.218 298.249C229.447 298.639 229.561 299.103 229.561 299.641C229.561 300.583 229.204 301.316 228.491 301.841C227.792 302.352 226.809 302.608 225.545 302.608Z" fill="white"/>
<defs>
<linearGradient id="paint0_linear_21912_9644" x1="35.246" y1="182.517" x2="134.475" y2="182.517" gradientUnits="userSpaceOnUse">
<stop stop-color="#DAE3FE"/>
<stop offset="1" stop-color="#E9EFFD"/>
</linearGradient>
</defs>
</svg>
