<svg width="402" height="331" viewBox="0 0 402 331" fill="none" xmlns="http://www.w3.org/2000/svg">
<path d="M337.489 227.055H342.725V95.9379H337.489V227.055Z" fill="#3B364D"/>
<path d="M145.145 238.199C145.145 240.099 128.485 241.64 107.933 241.64C87.3817 241.64 70.7207 240.099 70.7207 238.199C70.7207 236.298 87.3809 234.758 107.933 234.758C128.485 234.758 145.145 236.298 145.145 238.199Z" fill="black" fill-opacity="0.1"/>
<path d="M245.928 249C285.872 249 318.254 245.812 318.254 241.879C318.254 237.946 285.872 234.758 245.928 234.758C205.983 234.758 173.602 237.946 173.602 241.879C173.602 245.812 205.983 249 245.928 249Z" fill="black" fill-opacity="0.1"/>
<g opacity="0.3">
<path d="M149.25 104.654H48.368C43.6252 104.654 39.7812 100.809 39.7812 96.0668V8.5867C39.7812 3.84398 43.626 0 48.368 0H149.25C153.993 0 157.837 3.84478 157.837 8.5867V96.0668C157.838 100.809 153.993 104.654 149.25 104.654Z" fill="#DEDEDE"/>
<path d="M149.833 8.65039H47.7852V96.0012H149.833V8.65039Z" fill="#C3C3C3"/>
<path d="M98.8086 8.65039V96.0012" stroke="#DEDEDE" stroke-miterlimit="10"/>
<path d="M149.833 52.3262H47.7852" stroke="#DEDEDE" stroke-miterlimit="10"/>
<path opacity="0.54" d="M92.4301 8.65039L58.207 95.9366H73.3427L107.935 8.65039H92.4301Z" fill="white"/>
<path opacity="0.54" d="M118.893 8.65039L84.6699 95.9366H99.8056L134.397 8.65039H118.893Z" fill="white"/>
</g>
<path d="M362.219 91.25H261.732V100.623H362.219V91.25Z" fill="black" fill-opacity="0.1"/>
<path d="M362.217 91.25H298.125V100.623H362.217V91.25Z" fill="black" fill-opacity="0.1"/>
<path d="M334.747 91.2507H283.486C281.701 91.2507 280.254 89.8037 280.254 88.019V79.429C280.254 77.6443 281.701 76.1973 283.486 76.1973H334.747V91.2507Z" fill="#B9BAC4"/>
<path d="M335.618 79.3809H284.207V88.0697H335.618V79.3809Z" fill="#EDF1FC"/>
<path d="M320.78 79.3809H284.082V88.0697H320.78V79.3809Z" fill="#E0E7FF"/>
<path d="M326.33 76.2H275.07C273.285 76.2 271.838 74.7529 271.838 72.9682V64.3783C271.838 62.5936 273.285 61.1465 275.07 61.1465H326.33V76.2Z" fill="#D7D13E"/>
<path d="M327.079 64.3281H275.668V73.017H327.079V64.3281Z" fill="#EDF1FC"/>
<path d="M312.622 64.3281H275.668V73.017H312.622V64.3281Z" fill="#E0E7FF"/>
<path d="M337.952 61.1453H286.691C284.906 61.1453 283.459 59.6982 283.459 57.9135V49.3236C283.459 47.5389 284.906 46.0918 286.691 46.0918H337.952V61.1453Z" fill="#D8D8D8"/>
<path d="M338.874 49.2754H287.463V57.9643H338.874V49.2754Z" fill="#EDF1FC"/>
<path d="M321.944 49.2754H287.291V57.9643H321.944V49.2754Z" fill="#E0E7FF"/>
<path d="M280.866 168.77C280.935 179.97 279.879 190.641 276.984 200.248C276.984 200.255 276.977 200.261 276.977 200.268C268.866 227.162 246.314 245.693 193.578 243.975C122.005 241.645 109.003 175.094 103 112.87C98.1243 62.3807 113.302 25.2204 158.867 12.9908C169.461 10.1454 181.704 8.65039 195.714 8.65039C260.122 8.65039 280.595 126.191 280.866 168.77Z" fill="#313A42"/>
<path d="M276.977 200.268C268.866 227.161 246.314 245.692 193.578 243.975C122.005 241.644 109.003 175.094 103 112.869C98.1243 62.3801 113.302 25.2198 158.867 12.9902C119.737 36.8435 110.019 80.2998 126.012 146.405C141.997 212.511 182.344 231.738 208.472 231.78C234.593 231.829 267.385 223.301 276.977 200.268Z" fill="#484F56"/>
<path d="M177.574 71.0517C126.521 80.1404 148.794 153.065 160.079 173.485C171.363 193.905 176.174 218.086 202.249 219.162C228.326 220.236 261.643 208.414 264.867 199.816C268.09 191.218 253.338 146.402 253.338 146.402C253.338 146.402 251.298 101.047 237.166 89.1358C223.036 77.2255 194.533 68.033 177.574 71.0517Z" fill="#313A42"/>
<path d="M245.929 194.04C236.603 211.472 204.817 217.599 193.925 214.841C187.514 213.214 179.822 207.392 172.827 199.035C168.361 191.167 164.783 181.997 160.079 173.484C158.31 170.285 156.276 165.805 154.298 160.485C150.408 141.76 150.522 119.523 157.835 111.945C167.765 101.67 177.402 94.4321 178.094 88.0675C178.629 83.0725 172.963 76.4844 174.102 71.8016C175.214 71.5166 176.373 71.266 177.572 71.0561C191.54 68.569 213.338 74.3637 228.492 83.1404C229.949 88.6637 230.078 96.0651 233.507 98.4644C238.78 102.138 246.933 125.174 249.001 135.991C251.06 146.808 245.929 194.04 245.929 194.04Z" fill="#484F56"/>
<path d="M315.272 221.695C315.684 228.256 334.665 219.882 337.177 216.254C337.177 216.254 326.783 246.121 321.373 246.121C315.963 246.121 301.215 230.564 301.215 230.564L302.985 221.695H315.272Z" fill="#B3B194"/>
<path d="M321.374 246.121C315.486 248.647 330.199 211.509 337.178 212.346C344.156 213.183 328.977 242.859 321.374 246.121Z" fill="#535105"/>
<path d="M317.526 178.692C317.143 197.892 312.156 221.696 312.156 221.696H299.864C299.864 221.696 292.309 205.495 288.768 189.189C287.878 185.098 287.245 181.001 287.044 177.154C287.044 177.154 267.997 182.914 249.57 179.457C241.905 178.024 233.223 175.589 225.696 173.231C215.137 169.934 206.852 166.79 206.852 166.79L207.477 165.997L220.917 148.996L257.09 143.556L261.327 142.916L287.044 150.888C309.853 153.35 317.915 159.492 317.526 178.692Z" fill="#605E2E"/>
<path opacity="0.54" d="M288.769 189.19C287.879 185.1 287.246 181.003 287.045 177.155C287.045 177.155 267.998 182.915 249.571 179.458C241.906 178.025 233.224 175.59 225.697 173.232L207.479 165.998L205.886 165.365L202.867 152.788L241.774 139.195L257.092 143.557L282.823 150.878C276.604 162.05 289.119 175.264 291.866 179.236C294.614 183.208 302.426 176.795 307.379 179.236C312.33 181.677 292.707 180.509 288.769 189.19Z" fill="#232433"/>
<path d="M296.027 232.445C301.679 244.724 310.054 250.586 314.519 248.632L312.565 228.255L304.474 224.766L296.027 232.445Z" fill="#B3B194"/>
<path d="M314.52 248.633C304.574 250.291 306.425 231.044 306.983 221.695C307.541 212.346 315.358 213.184 316.195 220.441C317.032 227.698 321.22 247.516 314.52 248.633Z" fill="#535105"/>
<path d="M304.476 224.764L296.031 232.444C261.472 222.461 241.125 190.977 241.125 190.977C221.926 213.245 200.424 218.24 183.123 190.977C183.123 190.977 184.215 178.86 198.246 169.517C200.966 167.695 204.18 165.984 207.964 164.488C222.968 158.547 242.926 157.392 255.225 157.323C262.647 157.281 269.597 160.898 273.881 166.957C281.116 177.183 288.01 189.865 293.422 200.744C300.072 214.121 304.476 224.764 304.476 224.764Z" fill="#514E0C"/>
<path opacity="0.54" d="M304.476 224.765L296.031 232.445C261.472 222.462 241.125 190.978 241.125 190.978C221.926 213.245 200.424 218.24 183.123 190.978C183.123 190.978 184.215 178.86 198.246 169.518L212.729 166.84C195.825 200.036 236.464 192.293 243.796 186.241C251.128 180.182 258.05 174.116 261.326 173.782C264.603 173.449 247.323 186.213 259.51 200.745C271.69 215.284 299.801 224.341 293.422 200.745C300.072 214.122 304.476 224.765 304.476 224.765Z" fill="#232433"/>
<path d="M220.248 59.4333H219.733C219.733 59.4333 214.613 79.0291 205.884 86.3332C204.311 87.6478 202.622 88.5665 200.819 88.9001C189.042 91.0775 178.782 77.6587 176.841 68.4558C175.756 63.3084 177.668 60.15 179.568 58.3757C181.057 56.9566 182.545 56.4074 182.545 56.4074C182.545 56.4074 183.317 41.8895 188.374 42.1537C193.237 42.4044 192.423 44.3311 192.36 44.4772C192.673 44.0597 203.254 29.9944 210.53 31.5245C217.918 33.0825 212.735 43.9624 212.735 43.9624C212.735 43.9624 222.063 34.5089 225.173 39.9484C228.283 45.3879 219.086 51.9967 219.086 51.9967C219.086 51.9967 226.989 51.8714 227.768 54.7233C228.54 57.5688 227.378 60.2953 220.248 59.4333Z" fill="#36340B"/>
<path d="M205.884 86.3344C204.311 87.649 202.622 88.5677 200.819 88.9013C189.042 91.0787 178.782 77.6599 176.841 68.457C175.756 63.3096 177.668 60.1513 179.568 58.377C181.321 60.6517 183.665 65.2149 189.014 59.4345H191.498L205.884 86.3344Z" fill="#6D6C42"/>
<path d="M237.167 144.627L183.388 194.483C180.772 192.131 178.497 189.676 176.529 187.123H176.522C172.869 182.407 170.24 177.37 168.376 172.118C166.977 168.174 166.004 164.112 165.363 159.972C163.888 150.526 164.09 140.648 164.689 130.839C166.087 107.87 173.03 92.5304 200.604 92.1409C200.604 92.1409 213.244 88.6074 222.6 93.6502C229.96 97.6083 234.753 126.88 236.464 139.193C236.93 142.533 237.167 144.627 237.167 144.627Z" fill="#BAB879"/>
<path opacity="0.36" d="M225.712 121.921C197.401 132.538 185.68 111.947 185.68 111.947L176.525 144.853L196.114 150.889L230.218 147.338L225.712 121.921Z" fill="#383952"/>
<path opacity="0.36" d="M237.168 144.627L183.389 194.483C180.773 192.131 178.498 189.676 176.53 187.123C185.886 186.413 205.983 164.041 200.703 162.873C195.98 161.836 179.723 172.897 168.378 172.118C166.979 168.174 166.005 164.111 165.365 159.972L182.645 144.849L236.465 139.193C236.931 142.533 237.168 144.627 237.168 144.627Z" fill="#383952"/>
<path d="M206.854 138.006C213.17 133.736 220.522 137.294 223.132 139.192C225.74 141.089 223.132 146.07 223.132 146.07C223.132 146.07 220.285 144.409 219.337 144.172C218.389 143.935 213.815 147.493 204.718 146.07C195.619 144.646 206.854 138.006 206.854 138.006Z" fill="#E5E5D4"/>
<path d="M169.946 108.214C182.334 98.9764 189.35 107.094 188.751 123.06C188.152 139.025 188.152 139.025 188.152 139.025C188.152 139.025 203.95 133.983 207.815 133.983C207.815 133.983 208.151 144.907 207.815 148.828C207.815 148.828 188.712 167.314 176.107 168.715C163.503 170.116 166.024 145.187 164.903 133.703C163.784 122.219 165.642 111.424 169.946 108.214Z" fill="#BAB879"/>
<path d="M220.945 146.808L230.342 108.746C231.3 104.865 234.782 102.139 238.779 102.139H292.699C296.239 102.139 298.831 105.475 297.954 108.906L287.073 148.705L220.945 146.808Z" fill="black"/>
<path d="M224.721 146.808L234.118 108.746C235.075 104.865 238.557 102.139 242.554 102.139H296.475C300.014 102.139 302.606 105.475 301.73 108.906L290.848 148.705L224.721 146.808Z" fill="#DDDDDD"/>
<path d="M275.271 150.603H206.673C205.625 150.603 204.775 149.754 204.775 148.706C204.775 147.658 205.625 146.809 206.673 146.809H275.271C276.319 146.809 277.169 147.658 277.169 148.706C277.168 149.753 276.318 150.603 275.271 150.603Z" fill="black"/>
<path d="M291.442 150.603H222.845C221.797 150.603 220.947 149.754 220.947 148.706C220.947 147.658 221.797 146.809 222.845 146.809H291.442C292.49 146.809 293.34 147.658 293.34 148.706C293.34 149.753 292.49 150.603 291.442 150.603Z" fill="#DDDDDD"/>
<path d="M268.504 125.313C267.599 130.261 265.356 133.997 263.493 133.657C261.631 133.317 260.854 129.029 261.758 124.08C262.663 119.132 264.905 115.396 266.768 115.736C268.631 116.077 269.408 120.365 268.504 125.313Z" fill="black"/>
<path d="M223.326 62.616C224.521 80.1406 221.733 87.9068 211.776 88.9029V92.9855C211.776 96.0106 209.324 98.4617 206.3 98.4617C203.276 98.4617 200.824 96.0098 200.824 92.9855V88.9029C200.824 88.9029 192.858 85.517 191.265 80.5389C189.672 75.5607 191.265 79.7423 191.265 79.7423L190.557 59.4297H223.586L223.326 62.616Z" fill="#E5E5D4"/>
<path d="M191.765 72.1102C189.26 67.5439 186.315 69.4587 185.725 72.1102C185.136 74.7617 190.439 81.2165 191.765 78.9465C193.091 76.6765 191.765 72.1102 191.765 72.1102Z" fill="#E5E5D4"/>
<path d="M186.273 57.1822C191.605 63.6609 206.722 67.03 212.192 65.4752C217.663 63.9203 209.889 58.8671 209.889 58.8671C209.889 58.8671 220.034 65.8639 224.679 63.5316C229.324 61.1994 216.799 55.498 216.799 55.498L186.273 57.1822Z" fill="#36340B"/>
<path d="M204.387 71.0543C204.387 71.9914 204.219 72.7504 204.012 72.7504C203.804 72.7504 203.637 71.9906 203.637 71.0543C203.637 70.1173 203.805 69.3574 204.012 69.3574C204.219 69.3582 204.387 70.1173 204.387 71.0543Z" stroke="#191918" stroke-width="2" stroke-miterlimit="10"/>
<path d="M215.151 71.0543C215.151 71.9914 214.983 72.7504 214.776 72.7504C214.569 72.7504 214.4 71.9906 214.4 71.0543C214.4 70.1173 214.569 69.3574 214.776 69.3574C214.983 69.3582 215.151 70.1173 215.151 71.0543Z" stroke="#191918" stroke-width="2" stroke-miterlimit="10"/>
<path d="M210.814 80.518C205.658 80.6361 201.66 76.9238 201.66 76.9238" stroke="#E56A85" stroke-miterlimit="10" stroke-linecap="round"/>
<path opacity="0.53" d="M211.776 88.9043C207.365 89.301 202.25 89.139 202.25 89.139L211.776 92.9861V88.9043Z" fill="black" fill-opacity="0.1"/>
<path opacity="0.53" d="M191.5 73.3348C189.267 70.9913 188.171 71.9539 188.32 74.3891C188.469 76.8244 191.405 78.57 192.356 77.8716C193.306 77.174 191.5 73.3348 191.5 73.3348Z" fill="black" fill-opacity="0.1"/>
<path d="M104.178 195.373C94.2745 191.735 88.8174 193.15 85.7852 189.107C85.7852 189.107 93.8698 187.692 98.3164 189.107L104.178 195.373Z" fill="#7C9E1E"/>
<path d="M98.3168 189.108C86.282 182.819 82.7126 175.681 79.6532 170.753C76.5938 165.824 74.8945 161.745 73.7044 161.405C72.5144 161.065 78.6331 162.255 84.4119 168.033C90.1906 173.812 92.57 174.662 97.1586 179.251C101.747 183.84 105.827 190.593 106.337 195.375H104.178L98.3168 189.108Z" fill="#B7AC15"/>
<path d="M101.748 187.408C95.246 177.429 101.081 171.697 93.2498 160.385C84.0717 147.128 86.961 133.871 88.3211 125.543C88.3211 125.543 86.2858 135.235 94.2715 144.666C102.258 154.096 110.076 157.749 110.755 171.814C111.435 185.879 108.716 195.374 108.716 195.374H104.178L101.748 187.408Z" fill="#7C9E1E"/>
<path d="M107.666 195.374C105.487 186.027 109.736 170.073 110.076 154.267C110.416 138.461 101.578 126.733 114.665 111.947C114.665 111.947 111.945 114.667 115.685 125.544C119.424 136.422 127.752 147.809 123.673 162.425C119.593 177.042 110.804 189.013 110.865 195.374H107.666Z" fill="#B7AC15"/>
<path d="M110.865 195.375C109.504 184.157 120.953 166.674 130.641 162.766C130.641 162.766 131.66 171.358 125.372 178.364C119.083 185.371 114.408 195.376 114.408 195.376H110.865V195.375Z" fill="#A88F14"/>
<path d="M114.408 195.374C114.834 187.919 121.293 185.305 127.921 183.383C127.921 183.383 119.933 191.443 118.574 195.374H114.408Z" fill="#426313"/>
<path opacity="0.36" d="M117.518 196.226C118.648 190.579 121.194 188.803 120.728 188.481C120.261 188.158 117.364 192.91 115.908 195.375C115.908 195.375 113.969 188.934 116.873 183.384C119.778 177.833 122.52 173.638 122.52 173.638C122.52 173.638 113.163 184.448 112.678 189.912C112.678 189.912 111.71 184.42 113.324 177.335C114.937 170.25 119.132 163.473 117.6 155.084C116.067 146.693 114.409 137.74 114.409 137.74C114.409 137.74 115.105 146.271 115.909 153.662C116.713 161.053 114.523 164.926 112.391 172.832C110.259 180.738 111.452 191.987 110.533 191.929C109.613 191.87 108.161 193.968 108.161 193.968C108.161 193.968 107.187 181.867 105.738 171.541C104.289 161.215 104.451 159.824 98.1578 153.662C91.865 147.5 91.0589 143.734 91.0589 143.734C91.0589 143.734 95.3083 152.179 98.8307 157.665C102.353 163.151 103.482 165.571 103.482 175.252C103.482 184.933 103.966 190.374 104.773 191.929C105.58 193.484 98.8035 182.729 93.4789 179.071C88.1544 175.413 83.798 170.412 83.3143 169.605C82.8306 168.798 88.4776 178.962 92.672 181.706C96.8672 184.449 104.178 193.807 104.178 193.807L92.1883 190.58L105.739 196.227L117.518 196.226Z" fill="#426313"/>
<path d="M128.206 198.384L121.827 235.127C121.75 235.575 121.597 235.984 121.379 236.356C120.733 237.469 119.531 238.198 118.174 238.198H95.2247C93.4081 238.198 91.8533 236.88 91.5651 235.088L85.5836 198.345C85.2189 196.086 86.9589 194.039 89.2496 194.039H124.546C126.85 194.04 128.597 196.113 128.206 198.384Z" fill="#3A3852"/>
<path opacity="0.54" d="M121.381 236.356C120.735 237.469 119.533 238.198 118.176 238.198H95.2267C93.41 238.198 91.8552 236.88 91.5671 235.088L85.5856 198.345C85.2208 196.086 86.9608 194.039 89.2516 194.039H101.389C90.1335 211.519 108.905 231.832 121.381 236.356Z" fill="#232433"/>
<path d="M160.08 173.483C164.784 181.996 168.362 191.166 172.828 199.034C167.935 193.199 163.388 186.123 159.849 178.363C157.586 173.402 155.688 167.167 154.299 160.484C156.277 165.805 158.311 170.284 160.08 173.483Z" fill="#313A42"/>
<path d="M22.7353 300.2C21.4553 300.2 20.4086 300.02 19.5953 299.66C18.782 299.287 18.1753 298.773 17.7753 298.12C17.3886 297.453 17.1953 296.693 17.1953 295.84V295.5H19.3153V295.72C19.3153 296.267 19.4086 296.727 19.5953 297.1C19.7953 297.473 20.1486 297.753 20.6553 297.94C21.162 298.127 21.8886 298.22 22.8353 298.22C23.822 298.22 24.5153 298.08 24.9153 297.8C25.3153 297.507 25.5153 297.053 25.5153 296.44C25.5153 296.027 25.4553 295.693 25.3353 295.44C25.2153 295.187 24.9753 294.98 24.6153 294.82C24.2686 294.647 23.7486 294.493 23.0553 294.36L20.7753 293.9C20.002 293.753 19.3553 293.527 18.8353 293.22C18.3153 292.9 17.9153 292.493 17.6353 292C17.3686 291.507 17.2353 290.913 17.2353 290.22C17.2353 289.553 17.4086 288.933 17.7553 288.36C18.1153 287.773 18.662 287.3 19.3953 286.94C20.142 286.58 21.0886 286.4 22.2353 286.4C23.462 286.4 24.4553 286.607 25.2153 287.02C25.9886 287.433 26.5486 287.98 26.8953 288.66C27.2553 289.327 27.4353 290.06 27.4353 290.86V291.1H25.2953V290.88C25.2953 290.32 25.202 289.86 25.0153 289.5C24.842 289.127 24.522 288.847 24.0553 288.66C23.602 288.46 22.982 288.36 22.1953 288.36C21.2086 288.36 20.4953 288.507 20.0553 288.8C19.6153 289.093 19.3953 289.533 19.3953 290.12C19.3953 290.52 19.462 290.84 19.5953 291.08C19.742 291.32 19.9886 291.513 20.3353 291.66C20.6953 291.793 21.1753 291.933 21.7753 292.08L24.0553 292.56C24.9086 292.72 25.5953 292.973 26.1153 293.32C26.6486 293.667 27.042 294.093 27.2953 294.6C27.5486 295.093 27.6753 295.68 27.6753 296.36C27.6753 297.053 27.502 297.693 27.1553 298.28C26.8086 298.867 26.2686 299.333 25.5353 299.68C24.8153 300.027 23.882 300.2 22.7353 300.2ZM33.2317 300C32.1384 300 31.2984 299.767 30.7117 299.3C30.1384 298.833 29.8517 298.047 29.8517 296.94V290.28L30.3517 287.6H32.0117V296.84C32.0117 297.36 32.1384 297.693 32.3917 297.84C32.6584 297.973 33.1317 298.04 33.8117 298.04H35.0117V299.82C34.8117 299.873 34.5517 299.92 34.2317 299.96C33.9117 299.987 33.5784 300 33.2317 300ZM35.0117 291.86H28.1917V290.06H35.0117V291.86ZM44.855 300H42.855V298.04L42.795 297.5V293.68C42.795 292.933 42.615 292.427 42.255 292.16C41.9083 291.893 41.3417 291.76 40.555 291.76C39.7683 291.76 39.2017 291.9 38.855 292.18C38.5217 292.46 38.355 292.927 38.355 293.58V293.88H36.275V293.68C36.275 292.933 36.455 292.273 36.815 291.7C37.1883 291.127 37.7017 290.68 38.355 290.36C39.0217 290.027 39.795 289.86 40.675 289.86C41.6083 289.86 42.3817 290.033 42.995 290.38C43.6083 290.727 44.0683 291.207 44.375 291.82C44.695 292.42 44.855 293.133 44.855 293.96V300ZM39.155 300.2C38.2617 300.2 37.5083 299.973 36.895 299.52C36.295 299.053 35.995 298.393 35.995 297.54C35.995 296.98 36.1217 296.513 36.375 296.14C36.6417 295.767 37.0217 295.46 37.515 295.22C38.0083 294.98 38.6083 294.813 39.315 294.72L42.995 294.2V295.72L39.635 296.22C39.0617 296.3 38.6617 296.42 38.435 296.58C38.2083 296.74 38.095 297.007 38.095 297.38C38.095 297.767 38.2283 298.047 38.495 298.22C38.775 298.393 39.2283 298.48 39.855 298.48C40.335 298.48 40.795 298.407 41.235 298.26C41.6883 298.1 42.0617 297.84 42.355 297.48C42.6483 297.107 42.795 296.587 42.795 295.92L43.075 298.46L42.755 298.44C42.5683 298.747 42.3083 299.033 41.975 299.3C41.655 299.567 41.2617 299.787 40.795 299.96C40.3283 300.12 39.7817 300.2 39.155 300.2ZM49.0833 300H46.9233V290H48.9033V292.78L49.0833 292.88V300ZM49.0833 293.52H48.5833V291.58H49.0033C49.2033 291.113 49.5299 290.713 49.9833 290.38C50.4499 290.033 51.0499 289.86 51.7833 289.86C52.4899 289.86 53.0499 290.013 53.4633 290.32C53.8899 290.627 54.1966 291.033 54.3833 291.54C54.5699 292.047 54.6633 292.613 54.6633 293.24V293.9H52.5033V293.5C52.5033 292.833 52.3899 292.367 52.1633 292.1C51.9366 291.833 51.5099 291.7 50.8833 291.7C50.2299 291.7 49.7633 291.84 49.4833 292.12C49.2166 292.387 49.0833 292.853 49.0833 293.52ZM60.3606 300C59.2673 300 58.4273 299.767 57.8406 299.3C57.2673 298.833 56.9806 298.047 56.9806 296.94V290.28L57.4806 287.6H59.1406V296.84C59.1406 297.36 59.2673 297.693 59.5206 297.84C59.7873 297.973 60.2606 298.04 60.9406 298.04H62.1406V299.82C61.9406 299.873 61.6806 299.92 61.3606 299.96C61.0406 299.987 60.7073 300 60.3606 300ZM62.1406 291.86H55.3206V290.06H62.1406V291.86ZM69.092 303.4C68.8254 303.4 68.552 303.38 68.272 303.34C67.992 303.313 67.7654 303.273 67.592 303.22V301.46H68.972C69.3854 301.46 69.692 301.4 69.892 301.28C70.092 301.173 70.2787 300.94 70.452 300.58L71.072 299.18L70.892 299.88L66.592 290.06H68.972L70.972 294.88L71.872 297.04H72.052L72.852 294.88L74.672 290.06H77.072L72.352 301.16C72.112 301.76 71.8387 302.22 71.532 302.54C71.2254 302.86 70.872 303.08 70.472 303.2C70.0854 303.333 69.6254 303.4 69.092 303.4ZM82.2645 300.2C81.2512 300.2 80.3712 299.987 79.6245 299.56C78.8779 299.12 78.3045 298.513 77.9045 297.74C77.5045 296.953 77.3045 296.047 77.3045 295.02C77.3045 293.993 77.5045 293.093 77.9045 292.32C78.3045 291.547 78.8779 290.947 79.6245 290.52C80.3712 290.08 81.2512 289.86 82.2645 289.86C83.2779 289.86 84.1445 290.08 84.8645 290.52C85.5979 290.947 86.1579 291.547 86.5445 292.32C86.9445 293.093 87.1445 293.993 87.1445 295.02C87.1445 296.047 86.9445 296.953 86.5445 297.74C86.1579 298.513 85.5979 299.12 84.8645 299.56C84.1445 299.987 83.2779 300.2 82.2645 300.2ZM82.2645 298.28C83.3045 298.28 84.0312 298.02 84.4445 297.5C84.8579 296.967 85.0645 296.14 85.0645 295.02C85.0645 293.9 84.8579 293.08 84.4445 292.56C84.0312 292.04 83.3045 291.78 82.2645 291.78C81.2112 291.78 80.4779 292.04 80.0645 292.56C79.6512 293.08 79.4445 293.9 79.4445 295.02C79.4445 296.14 79.6512 296.967 80.0645 297.5C80.4779 298.02 81.2112 298.28 82.2645 298.28ZM92.4592 300.2C91.6059 300.2 90.8992 300.027 90.3392 299.68C89.7792 299.32 89.3659 298.84 89.0992 298.24C88.8326 297.627 88.6992 296.947 88.6992 296.2V290.06H90.8592V295.8C90.8592 296.693 91.0459 297.34 91.4192 297.74C91.7926 298.14 92.4059 298.34 93.2592 298.34C93.8192 298.34 94.2926 298.253 94.6792 298.08C95.0659 297.893 95.3592 297.607 95.5592 297.22C95.7592 296.82 95.8592 296.3 95.8592 295.66H96.4192V298.02H95.9392C95.7926 298.393 95.5659 298.747 95.2592 299.08C94.9659 299.413 94.5859 299.687 94.1192 299.9C93.6659 300.1 93.1126 300.2 92.4592 300.2ZM98.0192 300H96.0192V297.02L95.8592 296.92V290.06H98.0192V300ZM102.306 300H100.146V290H102.126V292.78L102.306 292.88V300ZM102.306 293.52H101.806V291.58H102.226C102.426 291.113 102.753 290.713 103.206 290.38C103.673 290.033 104.273 289.86 105.006 289.86C105.713 289.86 106.273 290.013 106.686 290.32C107.113 290.627 107.419 291.033 107.606 291.54C107.793 292.047 107.886 292.613 107.886 293.24V293.9H105.726V293.5C105.726 292.833 105.613 292.367 105.386 292.1C105.159 291.833 104.733 291.7 104.106 291.7C103.453 291.7 102.986 291.84 102.706 292.12C102.439 292.387 102.306 292.853 102.306 293.52ZM115.373 288.8H113.233V286.6H115.373V288.8ZM111.213 303.4V301.44H111.993C112.513 301.44 112.847 301.373 112.993 301.24C113.153 301.12 113.233 300.86 113.233 300.46V290.06H115.373V300C115.373 300.88 115.227 301.567 114.933 302.06C114.64 302.553 114.233 302.9 113.713 303.1C113.193 303.3 112.567 303.4 111.833 303.4C111.74 303.4 111.647 303.4 111.553 303.4C111.447 303.4 111.333 303.4 111.213 303.4ZM121.952 300.2C120.939 300.2 120.059 299.987 119.312 299.56C118.565 299.12 117.992 298.513 117.592 297.74C117.192 296.953 116.992 296.047 116.992 295.02C116.992 293.993 117.192 293.093 117.592 292.32C117.992 291.547 118.565 290.947 119.312 290.52C120.059 290.08 120.939 289.86 121.952 289.86C122.965 289.86 123.832 290.08 124.552 290.52C125.285 290.947 125.845 291.547 126.232 292.32C126.632 293.093 126.832 293.993 126.832 295.02C126.832 296.047 126.632 296.953 126.232 297.74C125.845 298.513 125.285 299.12 124.552 299.56C123.832 299.987 122.965 300.2 121.952 300.2ZM121.952 298.28C122.992 298.28 123.719 298.02 124.132 297.5C124.545 296.967 124.752 296.14 124.752 295.02C124.752 293.9 124.545 293.08 124.132 292.56C123.719 292.04 122.992 291.78 121.952 291.78C120.899 291.78 120.165 292.04 119.752 292.56C119.339 293.08 119.132 293.9 119.132 295.02C119.132 296.14 119.339 296.967 119.752 297.5C120.165 298.02 120.899 298.28 121.952 298.28ZM132.147 300.2C131.293 300.2 130.587 300.027 130.027 299.68C129.467 299.32 129.053 298.84 128.787 298.24C128.52 297.627 128.387 296.947 128.387 296.2V290.06H130.547V295.8C130.547 296.693 130.733 297.34 131.107 297.74C131.48 298.14 132.093 298.34 132.947 298.34C133.507 298.34 133.98 298.253 134.367 298.08C134.753 297.893 135.047 297.607 135.247 297.22C135.447 296.82 135.547 296.3 135.547 295.66H136.107V298.02H135.627C135.48 298.393 135.253 298.747 134.947 299.08C134.653 299.413 134.273 299.687 133.807 299.9C133.353 300.1 132.8 300.2 132.147 300.2ZM137.707 300H135.707V297.02L135.547 296.92V290.06H137.707V300ZM141.993 300H139.833V290H141.813V292.78L141.993 292.88V300ZM141.993 293.52H141.493V291.58H141.913C142.113 291.113 142.44 290.713 142.893 290.38C143.36 290.033 143.96 289.86 144.693 289.86C145.4 289.86 145.96 290.013 146.373 290.32C146.8 290.627 147.107 291.033 147.293 291.54C147.48 292.047 147.573 292.613 147.573 293.24V293.9H145.413V293.5C145.413 292.833 145.3 292.367 145.073 292.1C144.847 291.833 144.42 291.7 143.793 291.7C143.14 291.7 142.673 291.84 142.393 292.12C142.127 292.387 141.993 292.853 141.993 293.52ZM158.175 300H156.015V294.22C156.015 293.34 155.849 292.707 155.515 292.32C155.182 291.92 154.555 291.72 153.635 291.72C153.049 291.72 152.569 291.807 152.195 291.98C151.822 292.14 151.542 292.407 151.355 292.78C151.169 293.14 151.075 293.633 151.075 294.26H150.695L150.515 291.92H150.995C151.142 291.56 151.362 291.227 151.655 290.92C151.949 290.613 152.322 290.36 152.775 290.16C153.242 289.96 153.795 289.86 154.435 289.86C155.302 289.86 156.009 290.027 156.555 290.36C157.102 290.693 157.509 291.153 157.775 291.74C158.042 292.327 158.175 293 158.175 293.76V300ZM151.075 300H148.915V290.06H150.895V293.04L151.075 293.14V300ZM164.625 300.2C163.545 300.2 162.645 299.987 161.925 299.56C161.205 299.12 160.671 298.513 160.325 297.74C159.978 296.953 159.805 296.047 159.805 295.02C159.805 293.993 159.998 293.093 160.385 292.32C160.785 291.547 161.345 290.947 162.065 290.52C162.785 290.08 163.638 289.86 164.625 289.86C165.518 289.86 166.305 290.033 166.985 290.38C167.678 290.713 168.211 291.2 168.585 291.84C168.971 292.48 169.165 293.253 169.165 294.16C169.165 294.427 169.151 294.687 169.125 294.94C169.111 295.18 169.091 295.38 169.065 295.54H160.825V294.1H167.305L167.085 294.3C167.138 293.687 167.071 293.187 166.885 292.8C166.711 292.413 166.425 292.127 166.025 291.94C165.638 291.753 165.151 291.66 164.565 291.66C163.511 291.66 162.791 291.927 162.405 292.46C162.018 292.98 161.825 293.7 161.825 294.62V295.22C161.825 295.887 161.905 296.453 162.065 296.92C162.238 297.373 162.531 297.713 162.945 297.94C163.358 298.167 163.925 298.28 164.645 298.28C165.485 298.28 166.078 298.147 166.425 297.88C166.771 297.613 166.945 297.26 166.945 296.82V296.66H169.085V296.84C169.085 297.52 168.898 298.113 168.525 298.62C168.151 299.113 167.631 299.5 166.965 299.78C166.311 300.06 165.531 300.2 164.625 300.2ZM172.061 303.4C171.794 303.4 171.521 303.38 171.241 303.34C170.961 303.313 170.734 303.273 170.561 303.22V301.46H171.941C172.354 301.46 172.661 301.4 172.861 301.28C173.061 301.173 173.247 300.94 173.421 300.58L174.041 299.18L173.861 299.88L169.561 290.06H171.941L173.941 294.88L174.841 297.04H175.021L175.821 294.88L177.641 290.06H180.041L175.321 301.16C175.081 301.76 174.807 302.22 174.501 302.54C174.194 302.86 173.841 303.08 173.441 303.2C173.054 303.333 172.594 303.4 172.061 303.4ZM189.228 300C188.134 300 187.294 299.767 186.708 299.3C186.134 298.833 185.848 298.047 185.848 296.94V290.28L186.348 287.6H188.008V296.84C188.008 297.36 188.134 297.693 188.388 297.84C188.654 297.973 189.128 298.04 189.808 298.04H191.008V299.82C190.808 299.873 190.548 299.92 190.228 299.96C189.908 299.987 189.574 300 189.228 300ZM191.008 291.86H184.188V290.06H191.008V291.86ZM196.679 300.2C195.665 300.2 194.785 299.987 194.039 299.56C193.292 299.12 192.719 298.513 192.319 297.74C191.919 296.953 191.719 296.047 191.719 295.02C191.719 293.993 191.919 293.093 192.319 292.32C192.719 291.547 193.292 290.947 194.039 290.52C194.785 290.08 195.665 289.86 196.679 289.86C197.692 289.86 198.559 290.08 199.279 290.52C200.012 290.947 200.572 291.547 200.959 292.32C201.359 293.093 201.559 293.993 201.559 295.02C201.559 296.047 201.359 296.953 200.959 297.74C200.572 298.513 200.012 299.12 199.279 299.56C198.559 299.987 197.692 300.2 196.679 300.2ZM196.679 298.28C197.719 298.28 198.445 298.02 198.859 297.5C199.272 296.967 199.479 296.14 199.479 295.02C199.479 293.9 199.272 293.08 198.859 292.56C198.445 292.04 197.719 291.78 196.679 291.78C195.625 291.78 194.892 292.04 194.479 292.56C194.065 293.08 193.859 293.9 193.859 295.02C193.859 296.14 194.065 296.967 194.479 297.5C194.892 298.02 195.625 298.28 196.679 298.28ZM207.203 300H204.383L201.923 290.06H204.263L205.403 295.58L205.823 298.2H205.983L206.623 295.58L208.363 290.06H211.163L212.923 295.6L213.563 298.18H213.703L214.123 295.6L215.263 290.06H217.523L215.063 300H212.243L210.463 294.46L209.803 291.96H209.663L209.003 294.46L207.203 300ZM226.73 300H224.73V298.04L224.67 297.5V293.68C224.67 292.933 224.49 292.427 224.13 292.16C223.783 291.893 223.217 291.76 222.43 291.76C221.643 291.76 221.077 291.9 220.73 292.18C220.397 292.46 220.23 292.927 220.23 293.58V293.88H218.15V293.68C218.15 292.933 218.33 292.273 218.69 291.7C219.063 291.127 219.577 290.68 220.23 290.36C220.897 290.027 221.67 289.86 222.55 289.86C223.483 289.86 224.257 290.033 224.87 290.38C225.483 290.727 225.943 291.207 226.25 291.82C226.57 292.42 226.73 293.133 226.73 293.96V300ZM221.03 300.2C220.137 300.2 219.383 299.973 218.77 299.52C218.17 299.053 217.87 298.393 217.87 297.54C217.87 296.98 217.997 296.513 218.25 296.14C218.517 295.767 218.897 295.46 219.39 295.22C219.883 294.98 220.483 294.813 221.19 294.72L224.87 294.2V295.72L221.51 296.22C220.937 296.3 220.537 296.42 220.31 296.58C220.083 296.74 219.97 297.007 219.97 297.38C219.97 297.767 220.103 298.047 220.37 298.22C220.65 298.393 221.103 298.48 221.73 298.48C222.21 298.48 222.67 298.407 223.11 298.26C223.563 298.1 223.937 297.84 224.23 297.48C224.523 297.107 224.67 296.587 224.67 295.92L224.95 298.46L224.63 298.44C224.443 298.747 224.183 299.033 223.85 299.3C223.53 299.567 223.137 299.787 222.67 299.96C222.203 300.12 221.657 300.2 221.03 300.2ZM230.958 300H228.798V290H230.778V292.78L230.958 292.88V300ZM230.958 293.52H230.458V291.58H230.878C231.078 291.113 231.405 290.713 231.858 290.38C232.325 290.033 232.925 289.86 233.658 289.86C234.365 289.86 234.925 290.013 235.338 290.32C235.765 290.627 236.072 291.033 236.258 291.54C236.445 292.047 236.538 292.613 236.538 293.24V293.9H234.378V293.5C234.378 292.833 234.265 292.367 234.038 292.1C233.812 291.833 233.385 291.7 232.758 291.7C232.105 291.7 231.638 291.84 231.358 292.12C231.092 292.387 230.958 292.853 230.958 293.52ZM241.899 300.2C240.486 300.2 239.399 299.733 238.639 298.8C237.893 297.853 237.519 296.593 237.519 295.02C237.519 293.447 237.886 292.193 238.619 291.26C239.366 290.327 240.419 289.86 241.779 289.86C242.659 289.86 243.366 290.04 243.899 290.4C244.446 290.747 244.826 291.147 245.039 291.6H245.579L245.479 294.14H245.099C245.099 293.58 244.993 293.12 244.779 292.76C244.566 292.4 244.259 292.133 243.859 291.96C243.459 291.787 242.966 291.7 242.379 291.7C241.899 291.7 241.486 291.76 241.139 291.88C240.806 292 240.526 292.187 240.299 292.44C240.086 292.693 239.926 293.033 239.819 293.46C239.726 293.887 239.679 294.407 239.679 295.02C239.679 295.62 239.726 296.14 239.819 296.58C239.926 297.007 240.086 297.353 240.299 297.62C240.526 297.873 240.813 298.06 241.159 298.18C241.506 298.3 241.913 298.36 242.379 298.36C242.966 298.36 243.459 298.273 243.859 298.1C244.259 297.913 244.566 297.64 244.779 297.28C244.993 296.92 245.099 296.467 245.099 295.92H245.479L245.579 298.36H245.179C244.953 298.933 244.559 299.387 243.999 299.72C243.453 300.04 242.753 300.2 241.899 300.2ZM247.259 300H245.259V297.64L245.099 297.38V286.6H247.259V300ZM257.574 300.2C256.494 300.2 255.594 299.987 254.874 299.56C254.154 299.12 253.62 298.513 253.274 297.74C252.927 296.953 252.754 296.047 252.754 295.02C252.754 293.993 252.947 293.093 253.334 292.32C253.734 291.547 254.294 290.947 255.014 290.52C255.734 290.08 256.587 289.86 257.574 289.86C258.467 289.86 259.254 290.033 259.934 290.38C260.627 290.713 261.16 291.2 261.534 291.84C261.92 292.48 262.114 293.253 262.114 294.16C262.114 294.427 262.1 294.687 262.074 294.94C262.06 295.18 262.04 295.38 262.014 295.54H253.774V294.1H260.254L260.034 294.3C260.087 293.687 260.02 293.187 259.834 292.8C259.66 292.413 259.374 292.127 258.974 291.94C258.587 291.753 258.1 291.66 257.514 291.66C256.46 291.66 255.74 291.927 255.354 292.46C254.967 292.98 254.774 293.7 254.774 294.62V295.22C254.774 295.887 254.854 296.453 255.014 296.92C255.187 297.373 255.48 297.713 255.894 297.94C256.307 298.167 256.874 298.28 257.594 298.28C258.434 298.28 259.027 298.147 259.374 297.88C259.72 297.613 259.894 297.26 259.894 296.82V296.66H262.034V296.84C262.034 297.52 261.847 298.113 261.474 298.62C261.1 299.113 260.58 299.5 259.914 299.78C259.26 300.06 258.48 300.2 257.574 300.2ZM264.849 300H262.409L265.989 295V294.84L262.409 290.06H264.929L267.609 293.72H267.749L270.409 290.06H272.849L269.289 294.94V295.1L272.849 300H270.329L267.649 296.2H267.509L264.849 300ZM277.907 300.22C276.867 300.22 275.987 300 275.267 299.56C274.547 299.12 273.993 298.513 273.607 297.74C273.233 296.967 273.047 296.067 273.047 295.04C273.047 294.013 273.24 293.113 273.627 292.34C274.027 291.553 274.593 290.947 275.327 290.52C276.06 290.08 276.947 289.86 277.987 289.86C278.867 289.86 279.64 290.027 280.307 290.36C280.973 290.693 281.487 291.16 281.847 291.76C282.22 292.36 282.407 293.06 282.407 293.86V294.04H280.267V293.92C280.267 293.187 280.067 292.653 279.667 292.32C279.28 291.973 278.673 291.8 277.847 291.8C276.887 291.8 276.2 292.073 275.787 292.62C275.387 293.153 275.187 293.953 275.187 295.02C275.187 296.1 275.387 296.913 275.787 297.46C276.2 297.993 276.887 298.26 277.847 298.26C278.673 298.26 279.28 298.093 279.667 297.76C280.067 297.413 280.267 296.88 280.267 296.16V296.04H282.407V296.22C282.407 296.993 282.22 297.687 281.847 298.3C281.473 298.9 280.947 299.373 280.267 299.72C279.6 300.053 278.813 300.22 277.907 300.22ZM286.053 288.8H283.913L283.893 286.6H286.053V288.8ZM286.073 300H283.913V290H286.073V300ZM292.138 300C291.045 300 290.205 299.767 289.618 299.3C289.045 298.833 288.758 298.047 288.758 296.94V290.28L289.258 287.6H290.918V296.84C290.918 297.36 291.045 297.693 291.298 297.84C291.565 297.973 292.038 298.04 292.718 298.04H293.918V299.82C293.718 299.873 293.458 299.92 293.138 299.96C292.818 299.987 292.485 300 292.138 300ZM293.918 291.86H287.098V290.06H293.918V291.86ZM297.342 288.8H295.202L295.182 286.6H297.342V288.8ZM297.362 300H295.202V290H297.362V300ZM308.605 300H306.445V294.22C306.445 293.34 306.278 292.707 305.945 292.32C305.612 291.92 304.985 291.72 304.065 291.72C303.478 291.72 302.998 291.807 302.625 291.98C302.252 292.14 301.972 292.407 301.785 292.78C301.598 293.14 301.505 293.633 301.505 294.26H301.125L300.945 291.92H301.425C301.572 291.56 301.792 291.227 302.085 290.92C302.378 290.613 302.752 290.36 303.205 290.16C303.672 289.96 304.225 289.86 304.865 289.86C305.732 289.86 306.438 290.027 306.985 290.36C307.532 290.693 307.938 291.153 308.205 291.74C308.472 292.327 308.605 293 308.605 293.76V300ZM301.505 300H299.345V290.06H301.325V293.04L301.505 293.14V300ZM315.334 303.6C314.401 303.6 313.588 303.453 312.894 303.16C312.214 302.867 311.688 302.44 311.314 301.88C310.941 301.333 310.754 300.66 310.754 299.86H312.914C312.914 300.313 312.981 300.673 313.114 300.94C313.248 301.207 313.494 301.393 313.854 301.5C314.214 301.62 314.728 301.68 315.394 301.68C316.048 301.68 316.548 301.607 316.894 301.46C317.241 301.313 317.481 301.067 317.614 300.72C317.748 300.373 317.814 299.893 317.814 299.28V292.68L317.974 292.42V290.06H319.974V299.28C319.974 300.253 319.788 301.053 319.414 301.68C319.041 302.32 318.508 302.8 317.814 303.12C317.134 303.44 316.308 303.6 315.334 303.6ZM314.494 299.06C313.121 299.06 312.068 298.647 311.334 297.82C310.601 296.98 310.234 295.86 310.234 294.46C310.234 293.06 310.608 291.947 311.354 291.12C312.101 290.28 313.174 289.86 314.574 289.86C315.388 289.86 316.088 290.027 316.674 290.36C317.261 290.68 317.668 291.127 317.894 291.7H318.294L318.194 294.14H317.814C317.814 293.58 317.701 293.12 317.474 292.76C317.248 292.4 316.928 292.133 316.514 291.96C316.101 291.787 315.621 291.7 315.074 291.7C314.448 291.7 313.934 291.787 313.534 291.96C313.148 292.133 312.861 292.427 312.674 292.84C312.488 293.24 312.394 293.78 312.394 294.46C312.394 294.967 312.448 295.4 312.554 295.76C312.661 296.107 312.828 296.387 313.054 296.6C313.281 296.813 313.568 296.973 313.914 297.08C314.261 297.173 314.661 297.22 315.114 297.22C315.661 297.22 316.134 297.133 316.534 296.96C316.934 296.773 317.248 296.5 317.474 296.14C317.701 295.78 317.814 295.32 317.814 294.76H318.254V297.3H317.734C317.508 297.78 317.114 298.193 316.554 298.54C315.994 298.887 315.308 299.06 314.494 299.06ZM330.329 300.22C329.289 300.22 328.409 300 327.689 299.56C326.969 299.12 326.415 298.513 326.029 297.74C325.655 296.967 325.469 296.067 325.469 295.04C325.469 294.013 325.662 293.113 326.049 292.34C326.449 291.553 327.015 290.947 327.749 290.52C328.482 290.08 329.369 289.86 330.409 289.86C331.289 289.86 332.062 290.027 332.729 290.36C333.395 290.693 333.909 291.16 334.269 291.76C334.642 292.36 334.829 293.06 334.829 293.86V294.04H332.689V293.92C332.689 293.187 332.489 292.653 332.089 292.32C331.702 291.973 331.095 291.8 330.269 291.8C329.309 291.8 328.622 292.073 328.209 292.62C327.809 293.153 327.609 293.953 327.609 295.02C327.609 296.1 327.809 296.913 328.209 297.46C328.622 297.993 329.309 298.26 330.269 298.26C331.095 298.26 331.702 298.093 332.089 297.76C332.489 297.413 332.689 296.88 332.689 296.16V296.04H334.829V296.22C334.829 296.993 334.642 297.687 334.269 298.3C333.895 298.9 333.369 299.373 332.689 299.72C332.022 300.053 331.235 300.22 330.329 300.22ZM344.953 300H342.953V298.04L342.893 297.5V293.68C342.893 292.933 342.713 292.427 342.353 292.16C342.006 291.893 341.439 291.76 340.653 291.76C339.866 291.76 339.299 291.9 338.953 292.18C338.619 292.46 338.453 292.927 338.453 293.58V293.88H336.373V293.68C336.373 292.933 336.553 292.273 336.913 291.7C337.286 291.127 337.799 290.68 338.453 290.36C339.119 290.027 339.893 289.86 340.773 289.86C341.706 289.86 342.479 290.033 343.093 290.38C343.706 290.727 344.166 291.207 344.473 291.82C344.793 292.42 344.953 293.133 344.953 293.96V300ZM339.253 300.2C338.359 300.2 337.606 299.973 336.993 299.52C336.393 299.053 336.093 298.393 336.093 297.54C336.093 296.98 336.219 296.513 336.473 296.14C336.739 295.767 337.119 295.46 337.613 295.22C338.106 294.98 338.706 294.813 339.413 294.72L343.093 294.2V295.72L339.733 296.22C339.159 296.3 338.759 296.42 338.533 296.58C338.306 296.74 338.193 297.007 338.193 297.38C338.193 297.767 338.326 298.047 338.593 298.22C338.873 298.393 339.326 298.48 339.953 298.48C340.433 298.48 340.893 298.407 341.333 298.26C341.786 298.1 342.159 297.84 342.453 297.48C342.746 297.107 342.893 296.587 342.893 295.92L343.173 298.46L342.853 298.44C342.666 298.747 342.406 299.033 342.073 299.3C341.753 299.567 341.359 299.787 340.893 299.96C340.426 300.12 339.879 300.2 339.253 300.2ZM349.181 300H347.021V290H349.001V292.78L349.181 292.88V300ZM349.181 293.52H348.681V291.58H349.101C349.301 291.113 349.628 290.713 350.081 290.38C350.548 290.033 351.148 289.86 351.881 289.86C352.588 289.86 353.148 290.013 353.561 290.32C353.988 290.627 354.294 291.033 354.481 291.54C354.668 292.047 354.761 292.613 354.761 293.24V293.9H352.601V293.5C352.601 292.833 352.488 292.367 352.261 292.1C352.034 291.833 351.608 291.7 350.981 291.7C350.328 291.7 349.861 291.84 349.581 292.12C349.314 292.387 349.181 292.853 349.181 293.52ZM360.562 300.2C359.482 300.2 358.582 299.987 357.862 299.56C357.142 299.12 356.609 298.513 356.262 297.74C355.915 296.953 355.742 296.047 355.742 295.02C355.742 293.993 355.935 293.093 356.322 292.32C356.722 291.547 357.282 290.947 358.002 290.52C358.722 290.08 359.575 289.86 360.562 289.86C361.455 289.86 362.242 290.033 362.922 290.38C363.615 290.713 364.149 291.2 364.522 291.84C364.909 292.48 365.102 293.253 365.102 294.16C365.102 294.427 365.089 294.687 365.062 294.94C365.049 295.18 365.029 295.38 365.002 295.54H356.762V294.1H363.242L363.022 294.3C363.075 293.687 363.009 293.187 362.822 292.8C362.649 292.413 362.362 292.127 361.962 291.94C361.575 291.753 361.089 291.66 360.502 291.66C359.449 291.66 358.729 291.927 358.342 292.46C357.955 292.98 357.762 293.7 357.762 294.62V295.22C357.762 295.887 357.842 296.453 358.002 296.92C358.175 297.373 358.469 297.713 358.882 297.94C359.295 298.167 359.862 298.28 360.582 298.28C361.422 298.28 362.015 298.147 362.362 297.88C362.709 297.613 362.882 297.26 362.882 296.82V296.66H365.022V296.84C365.022 297.52 364.835 298.113 364.462 298.62C364.089 299.113 363.569 299.5 362.902 299.78C362.249 300.06 361.469 300.2 360.562 300.2ZM371.343 300.2C370.263 300.2 369.363 299.987 368.643 299.56C367.923 299.12 367.39 298.513 367.043 297.74C366.697 296.953 366.523 296.047 366.523 295.02C366.523 293.993 366.717 293.093 367.103 292.32C367.503 291.547 368.063 290.947 368.783 290.52C369.503 290.08 370.357 289.86 371.343 289.86C372.237 289.86 373.023 290.033 373.703 290.38C374.397 290.713 374.93 291.2 375.303 291.84C375.69 292.48 375.883 293.253 375.883 294.16C375.883 294.427 375.87 294.687 375.843 294.94C375.83 295.18 375.81 295.38 375.783 295.54H367.543V294.1H374.023L373.803 294.3C373.857 293.687 373.79 293.187 373.603 292.8C373.43 292.413 373.143 292.127 372.743 291.94C372.357 291.753 371.87 291.66 371.283 291.66C370.23 291.66 369.51 291.927 369.123 292.46C368.737 292.98 368.543 293.7 368.543 294.62V295.22C368.543 295.887 368.623 296.453 368.783 296.92C368.957 297.373 369.25 297.713 369.663 297.94C370.077 298.167 370.643 298.28 371.363 298.28C372.203 298.28 372.797 298.147 373.143 297.88C373.49 297.613 373.663 297.26 373.663 296.82V296.66H375.803V296.84C375.803 297.52 375.617 298.113 375.243 298.62C374.87 299.113 374.35 299.5 373.683 299.78C373.03 300.06 372.25 300.2 371.343 300.2ZM379.767 300H377.607V290H379.587V292.78L379.767 292.88V300ZM379.767 293.52H379.267V291.58H379.687C379.887 291.113 380.214 290.713 380.667 290.38C381.134 290.033 381.734 289.86 382.467 289.86C383.174 289.86 383.734 290.013 384.147 290.32C384.574 290.627 384.88 291.033 385.067 291.54C385.254 292.047 385.347 292.613 385.347 293.24V293.9H383.187V293.5C383.187 292.833 383.074 292.367 382.847 292.1C382.62 291.833 382.194 291.7 381.567 291.7C380.914 291.7 380.447 291.84 380.167 292.12C379.9 292.387 379.767 292.853 379.767 293.52ZM144.491 325.2C143.478 325.2 142.598 324.987 141.851 324.56C141.104 324.12 140.531 323.513 140.131 322.74C139.731 321.953 139.531 321.047 139.531 320.02C139.531 318.993 139.731 318.093 140.131 317.32C140.531 316.547 141.104 315.947 141.851 315.52C142.598 315.08 143.478 314.86 144.491 314.86C145.504 314.86 146.371 315.08 147.091 315.52C147.824 315.947 148.384 316.547 148.771 317.32C149.171 318.093 149.371 318.993 149.371 320.02C149.371 321.047 149.171 321.953 148.771 322.74C148.384 323.513 147.824 324.12 147.091 324.56C146.371 324.987 145.504 325.2 144.491 325.2ZM144.491 323.28C145.531 323.28 146.258 323.02 146.671 322.5C147.084 321.967 147.291 321.14 147.291 320.02C147.291 318.9 147.084 318.08 146.671 317.56C146.258 317.04 145.531 316.78 144.491 316.78C143.438 316.78 142.704 317.04 142.291 317.56C141.878 318.08 141.671 318.9 141.671 320.02C141.671 321.14 141.878 321.967 142.291 322.5C142.704 323.02 143.438 323.28 144.491 323.28ZM156.426 325.2C155.532 325.2 154.806 325.027 154.246 324.68C153.699 324.32 153.319 323.913 153.106 323.46H152.566L152.666 320.92H153.046C153.046 321.467 153.146 321.92 153.346 322.28C153.559 322.64 153.872 322.913 154.286 323.1C154.699 323.273 155.192 323.36 155.766 323.36C156.232 323.36 156.639 323.3 156.986 323.18C157.332 323.06 157.612 322.873 157.826 322.62C158.052 322.367 158.212 322.027 158.306 321.6C158.412 321.16 158.466 320.633 158.466 320.02C158.466 319.407 158.412 318.893 158.306 318.48C158.212 318.053 158.052 317.707 157.826 317.44C157.612 317.173 157.332 316.987 156.986 316.88C156.652 316.76 156.246 316.7 155.766 316.7C155.192 316.7 154.699 316.793 154.286 316.98C153.872 317.153 153.559 317.42 153.346 317.78C153.146 318.127 153.046 318.58 153.046 319.14H152.666L152.566 316.7H152.966C153.206 316.127 153.599 315.68 154.146 315.36C154.706 315.027 155.419 314.86 156.286 314.86C157.686 314.86 158.759 315.327 159.506 316.26C160.252 317.193 160.626 318.447 160.626 320.02C160.626 321.593 160.266 322.853 159.546 323.8C158.826 324.733 157.786 325.2 156.426 325.2ZM153.046 328.46H150.906V315.06H152.866V317.42L153.046 317.68V328.46ZM167.793 325.2C166.9 325.2 166.173 325.027 165.613 324.68C165.066 324.32 164.686 323.913 164.473 323.46H163.933L164.033 320.92H164.413C164.413 321.467 164.513 321.92 164.713 322.28C164.926 322.64 165.24 322.913 165.653 323.1C166.066 323.273 166.56 323.36 167.133 323.36C167.6 323.36 168.006 323.3 168.353 323.18C168.7 323.06 168.98 322.873 169.193 322.62C169.42 322.367 169.58 322.027 169.673 321.6C169.78 321.16 169.833 320.633 169.833 320.02C169.833 319.407 169.78 318.893 169.673 318.48C169.58 318.053 169.42 317.707 169.193 317.44C168.98 317.173 168.7 316.987 168.353 316.88C168.02 316.76 167.613 316.7 167.133 316.7C166.56 316.7 166.066 316.793 165.653 316.98C165.24 317.153 164.926 317.42 164.713 317.78C164.513 318.127 164.413 318.58 164.413 319.14H164.033L163.933 316.7H164.333C164.573 316.127 164.966 315.68 165.513 315.36C166.073 315.027 166.786 314.86 167.653 314.86C169.053 314.86 170.126 315.327 170.873 316.26C171.62 317.193 171.993 318.447 171.993 320.02C171.993 321.593 171.633 322.853 170.913 323.8C170.193 324.733 169.153 325.2 167.793 325.2ZM164.413 328.46H162.273V315.06H164.233V317.42L164.413 317.68V328.46ZM178.378 325.2C177.364 325.2 176.484 324.987 175.738 324.56C174.991 324.12 174.418 323.513 174.018 322.74C173.618 321.953 173.418 321.047 173.418 320.02C173.418 318.993 173.618 318.093 174.018 317.32C174.418 316.547 174.991 315.947 175.738 315.52C176.484 315.08 177.364 314.86 178.378 314.86C179.391 314.86 180.258 315.08 180.978 315.52C181.711 315.947 182.271 316.547 182.658 317.32C183.058 318.093 183.258 318.993 183.258 320.02C183.258 321.047 183.058 321.953 182.658 322.74C182.271 323.513 181.711 324.12 180.978 324.56C180.258 324.987 179.391 325.2 178.378 325.2ZM178.378 323.28C179.418 323.28 180.144 323.02 180.558 322.5C180.971 321.967 181.178 321.14 181.178 320.02C181.178 318.9 180.971 318.08 180.558 317.56C180.144 317.04 179.418 316.78 178.378 316.78C177.324 316.78 176.591 317.04 176.178 317.56C175.764 318.08 175.558 318.9 175.558 320.02C175.558 321.14 175.764 321.967 176.178 322.5C176.591 323.02 177.324 323.28 178.378 323.28ZM187.033 325H184.873V315H186.853V317.78L187.033 317.88V325ZM187.033 318.52H186.533V316.58H186.953C187.153 316.113 187.479 315.713 187.933 315.38C188.399 315.033 188.999 314.86 189.733 314.86C190.439 314.86 190.999 315.013 191.413 315.32C191.839 315.627 192.146 316.033 192.333 316.54C192.519 317.047 192.613 317.613 192.613 318.24V318.9H190.453V318.5C190.453 317.833 190.339 317.367 190.113 317.1C189.886 316.833 189.459 316.7 188.833 316.7C188.179 316.7 187.713 316.84 187.433 317.12C187.166 317.387 187.033 317.853 187.033 318.52ZM198.31 325C197.217 325 196.377 324.767 195.79 324.3C195.217 323.833 194.93 323.047 194.93 321.94V315.28L195.43 312.6H197.09V321.84C197.09 322.36 197.217 322.693 197.47 322.84C197.737 322.973 198.21 323.04 198.89 323.04H200.09V324.82C199.89 324.873 199.63 324.92 199.31 324.96C198.99 324.987 198.657 325 198.31 325ZM200.09 316.86H193.27V315.06H200.09V316.86ZM205.272 325.2C204.418 325.2 203.712 325.027 203.152 324.68C202.592 324.32 202.178 323.84 201.912 323.24C201.645 322.627 201.512 321.947 201.512 321.2V315.06H203.672V320.8C203.672 321.693 203.858 322.34 204.232 322.74C204.605 323.14 205.218 323.34 206.072 323.34C206.632 323.34 207.105 323.253 207.492 323.08C207.878 322.893 208.172 322.607 208.372 322.22C208.572 321.82 208.672 321.3 208.672 320.66H209.232V323.02H208.752C208.605 323.393 208.378 323.747 208.072 324.08C207.778 324.413 207.398 324.687 206.932 324.9C206.478 325.1 205.925 325.2 205.272 325.2ZM210.832 325H208.832V322.02L208.672 321.92V315.06H210.832V325ZM222.218 325H220.058V319.22C220.058 318.34 219.892 317.707 219.558 317.32C219.225 316.92 218.598 316.72 217.678 316.72C217.092 316.72 216.612 316.807 216.238 316.98C215.865 317.14 215.585 317.407 215.398 317.78C215.212 318.14 215.118 318.633 215.118 319.26H214.738L214.558 316.92H215.038C215.185 316.56 215.405 316.227 215.698 315.92C215.992 315.613 216.365 315.36 216.818 315.16C217.285 314.96 217.838 314.86 218.478 314.86C219.345 314.86 220.052 315.027 220.598 315.36C221.145 315.693 221.552 316.153 221.818 316.74C222.085 317.327 222.218 318 222.218 318.76V325ZM215.118 325H212.958V315.06H214.938V318.04L215.118 318.14V325ZM226.307 313.8H224.167L224.147 311.6H226.307V313.8ZM226.327 325H224.167V315H226.327V325ZM232.392 325C231.299 325 230.459 324.767 229.872 324.3C229.299 323.833 229.012 323.047 229.012 321.94V315.28L229.512 312.6H231.172V321.84C231.172 322.36 231.299 322.693 231.552 322.84C231.819 322.973 232.292 323.04 232.972 323.04H234.172V324.82C233.972 324.873 233.712 324.92 233.392 324.96C233.072 324.987 232.739 325 232.392 325ZM234.172 316.86H227.352V315.06H234.172V316.86ZM237.596 313.8H235.456L235.436 311.6H237.596V313.8ZM237.616 325H235.456V315H237.616V325ZM243.921 325.2C242.841 325.2 241.941 324.987 241.221 324.56C240.501 324.12 239.968 323.513 239.621 322.74C239.275 321.953 239.101 321.047 239.101 320.02C239.101 318.993 239.295 318.093 239.681 317.32C240.081 316.547 240.641 315.947 241.361 315.52C242.081 315.08 242.935 314.86 243.921 314.86C244.815 314.86 245.601 315.033 246.281 315.38C246.975 315.713 247.508 316.2 247.881 316.84C248.268 317.48 248.461 318.253 248.461 319.16C248.461 319.427 248.448 319.687 248.421 319.94C248.408 320.18 248.388 320.38 248.361 320.54H240.121V319.1H246.601L246.381 319.3C246.435 318.687 246.368 318.187 246.181 317.8C246.008 317.413 245.721 317.127 245.321 316.94C244.935 316.753 244.448 316.66 243.861 316.66C242.808 316.66 242.088 316.927 241.701 317.46C241.315 317.98 241.121 318.7 241.121 319.62V320.22C241.121 320.887 241.201 321.453 241.361 321.92C241.535 322.373 241.828 322.713 242.241 322.94C242.655 323.167 243.221 323.28 243.941 323.28C244.781 323.28 245.375 323.147 245.721 322.88C246.068 322.613 246.241 322.26 246.241 321.82V321.66H248.381V321.84C248.381 322.52 248.195 323.113 247.821 323.62C247.448 324.113 246.928 324.5 246.261 324.78C245.608 325.06 244.828 325.2 243.921 325.2ZM254.463 325.2C253.009 325.2 251.909 324.913 251.163 324.34C250.416 323.753 250.043 322.853 250.043 321.64V321.6H252.123V321.96C252.123 322.307 252.189 322.593 252.323 322.82C252.469 323.033 252.709 323.193 253.043 323.3C253.389 323.393 253.876 323.44 254.503 323.44C255.036 323.44 255.436 323.4 255.703 323.32C255.983 323.227 256.169 323.1 256.263 322.94C256.356 322.78 256.403 322.58 256.403 322.34C256.403 321.94 256.263 321.66 255.983 321.5C255.703 321.327 255.203 321.173 254.483 321.04L252.923 320.78C252.336 320.66 251.823 320.493 251.383 320.28C250.956 320.053 250.623 319.747 250.383 319.36C250.156 318.96 250.043 318.46 250.043 317.86C250.043 316.967 250.396 316.247 251.103 315.7C251.809 315.14 252.809 314.86 254.103 314.86C254.889 314.86 255.589 314.987 256.203 315.24C256.816 315.493 257.303 315.873 257.663 316.38C258.023 316.887 258.203 317.52 258.203 318.28V318.46H256.143V318.22C256.143 317.9 256.089 317.627 255.983 317.4C255.876 317.16 255.676 316.973 255.383 316.84C255.089 316.707 254.643 316.64 254.043 316.64C253.256 316.64 252.736 316.74 252.483 316.94C252.229 317.14 252.103 317.433 252.103 317.82C252.103 318.207 252.216 318.48 252.443 318.64C252.683 318.787 253.149 318.933 253.843 319.08L255.543 319.4C256.183 319.52 256.716 319.7 257.143 319.94C257.569 320.18 257.889 320.493 258.103 320.88C258.329 321.267 258.443 321.727 258.443 322.26C258.443 323.193 258.089 323.92 257.383 324.44C256.689 324.947 255.716 325.2 254.463 325.2ZM262.485 325H259.745V321.9H262.485V325Z" fill="white"/>
</svg>
