<svg width="402" height="331" viewBox="0 0 402 331" fill="none" xmlns="http://www.w3.org/2000/svg">
<path d="M337.489 227.055H342.725V95.9379H337.489V227.055Z" fill="#3B364D"/>
<path d="M145.145 238.199C145.145 240.099 128.485 241.64 107.933 241.64C87.3817 241.64 70.7207 240.099 70.7207 238.199C70.7207 236.298 87.3809 234.758 107.933 234.758C128.485 234.758 145.145 236.298 145.145 238.199Z" fill="black" fill-opacity="0.1"/>
<path d="M245.928 249C285.872 249 318.254 245.812 318.254 241.879C318.254 237.946 285.872 234.758 245.928 234.758C205.983 234.758 173.602 237.946 173.602 241.879C173.602 245.812 205.983 249 245.928 249Z" fill="black" fill-opacity="0.1"/>
<g opacity="0.3">
<path d="M149.25 104.654H48.368C43.6252 104.654 39.7812 100.809 39.7812 96.0668V8.5867C39.7812 3.84398 43.626 0 48.368 0H149.25C153.993 0 157.837 3.84478 157.837 8.5867V96.0668C157.838 100.809 153.993 104.654 149.25 104.654Z" fill="#DEDEDE"/>
<path d="M149.833 8.65039H47.7852V96.0012H149.833V8.65039Z" fill="#C3C3C3"/>
<path d="M98.8086 8.65039V96.0012" stroke="#DEDEDE" stroke-miterlimit="10"/>
<path d="M149.833 52.3262H47.7852" stroke="#DEDEDE" stroke-miterlimit="10"/>
<path opacity="0.54" d="M92.4301 8.65039L58.207 95.9366H73.3427L107.935 8.65039H92.4301Z" fill="white"/>
<path opacity="0.54" d="M118.893 8.65039L84.6699 95.9366H99.8056L134.397 8.65039H118.893Z" fill="white"/>
</g>
<path d="M362.219 91.25H261.732V100.623H362.219V91.25Z" fill="black" fill-opacity="0.1"/>
<path d="M362.217 91.25H298.125V100.623H362.217V91.25Z" fill="black" fill-opacity="0.1"/>
<path d="M334.747 91.2507H283.486C281.701 91.2507 280.254 89.8037 280.254 88.019V79.429C280.254 77.6443 281.701 76.1973 283.486 76.1973H334.747V91.2507Z" fill="#B9BAC4"/>
<path d="M335.618 79.3809H284.207V88.0697H335.618V79.3809Z" fill="#EDF1FC"/>
<path d="M320.78 79.3809H284.082V88.0697H320.78V79.3809Z" fill="#E0E7FF"/>
<path d="M326.33 76.2H275.07C273.285 76.2 271.838 74.7529 271.838 72.9682V64.3783C271.838 62.5936 273.285 61.1465 275.07 61.1465H326.33V76.2Z" fill="#D7D13E"/>
<path d="M327.079 64.3281H275.668V73.017H327.079V64.3281Z" fill="#EDF1FC"/>
<path d="M312.622 64.3281H275.668V73.017H312.622V64.3281Z" fill="#E0E7FF"/>
<path d="M337.952 61.1453H286.691C284.906 61.1453 283.459 59.6982 283.459 57.9135V49.3236C283.459 47.5389 284.906 46.0918 286.691 46.0918H337.952V61.1453Z" fill="#D8D8D8"/>
<path d="M338.874 49.2754H287.463V57.9643H338.874V49.2754Z" fill="#EDF1FC"/>
<path d="M321.944 49.2754H287.291V57.9643H321.944V49.2754Z" fill="#E0E7FF"/>
<path d="M280.866 168.77C280.935 179.97 279.879 190.641 276.984 200.248C276.984 200.255 276.977 200.261 276.977 200.268C268.866 227.162 246.314 245.693 193.578 243.975C122.005 241.645 109.003 175.094 103 112.87C98.1243 62.3807 113.302 25.2204 158.867 12.9908C169.461 10.1454 181.704 8.65039 195.714 8.65039C260.122 8.65039 280.595 126.191 280.866 168.77Z" fill="#313A42"/>
<path d="M276.977 200.268C268.866 227.161 246.314 245.692 193.578 243.975C122.005 241.644 109.003 175.094 103 112.869C98.1243 62.3801 113.302 25.2198 158.867 12.9902C119.737 36.8435 110.019 80.2998 126.012 146.405C141.997 212.511 182.344 231.738 208.472 231.78C234.593 231.829 267.385 223.301 276.977 200.268Z" fill="#484F56"/>
<path d="M177.574 71.0517C126.521 80.1404 148.794 153.065 160.079 173.485C171.363 193.905 176.174 218.086 202.249 219.162C228.326 220.236 261.643 208.414 264.867 199.816C268.09 191.218 253.338 146.402 253.338 146.402C253.338 146.402 251.298 101.047 237.166 89.1358C223.036 77.2255 194.533 68.033 177.574 71.0517Z" fill="#313A42"/>
<path d="M245.929 194.04C236.603 211.472 204.817 217.599 193.925 214.841C187.514 213.214 179.822 207.392 172.827 199.035C168.361 191.167 164.783 181.997 160.079 173.484C158.31 170.285 156.276 165.805 154.298 160.485C150.408 141.76 150.522 119.523 157.835 111.945C167.765 101.67 177.402 94.4321 178.094 88.0675C178.629 83.0725 172.963 76.4844 174.102 71.8016C175.214 71.5166 176.373 71.266 177.572 71.0561C191.54 68.569 213.338 74.3637 228.492 83.1404C229.949 88.6637 230.078 96.0651 233.507 98.4644C238.78 102.138 246.933 125.174 249.001 135.991C251.06 146.808 245.929 194.04 245.929 194.04Z" fill="#484F56"/>
<path d="M315.272 221.695C315.684 228.256 334.665 219.882 337.177 216.254C337.177 216.254 326.783 246.121 321.373 246.121C315.963 246.121 301.215 230.564 301.215 230.564L302.985 221.695H315.272Z" fill="#B3B194"/>
<path d="M321.374 246.121C315.486 248.647 330.199 211.509 337.178 212.346C344.156 213.183 328.977 242.859 321.374 246.121Z" fill="#535105"/>
<path d="M317.526 178.692C317.143 197.892 312.156 221.696 312.156 221.696H299.864C299.864 221.696 292.309 205.495 288.768 189.189C287.878 185.098 287.245 181.001 287.044 177.154C287.044 177.154 267.997 182.914 249.57 179.457C241.905 178.024 233.223 175.589 225.696 173.231C215.137 169.934 206.852 166.79 206.852 166.79L207.477 165.997L220.917 148.996L257.09 143.556L261.327 142.916L287.044 150.888C309.853 153.35 317.915 159.492 317.526 178.692Z" fill="#605E2E"/>
<path opacity="0.54" d="M288.769 189.19C287.879 185.1 287.246 181.003 287.045 177.155C287.045 177.155 267.998 182.915 249.571 179.458C241.906 178.025 233.224 175.59 225.697 173.232L207.479 165.998L205.886 165.365L202.867 152.788L241.774 139.195L257.092 143.557L282.823 150.878C276.604 162.05 289.119 175.264 291.866 179.236C294.614 183.208 302.426 176.795 307.379 179.236C312.33 181.677 292.707 180.509 288.769 189.19Z" fill="#232433"/>
<path d="M296.027 232.445C301.679 244.724 310.054 250.586 314.519 248.632L312.565 228.255L304.474 224.766L296.027 232.445Z" fill="#B3B194"/>
<path d="M314.52 248.633C304.574 250.291 306.425 231.044 306.983 221.695C307.541 212.346 315.358 213.184 316.195 220.441C317.032 227.698 321.22 247.516 314.52 248.633Z" fill="#535105"/>
<path d="M304.476 224.764L296.031 232.444C261.472 222.461 241.125 190.977 241.125 190.977C221.926 213.245 200.424 218.24 183.123 190.977C183.123 190.977 184.215 178.86 198.246 169.517C200.966 167.695 204.18 165.984 207.964 164.488C222.968 158.547 242.926 157.392 255.225 157.323C262.647 157.281 269.597 160.898 273.881 166.957C281.116 177.183 288.01 189.865 293.422 200.744C300.072 214.121 304.476 224.764 304.476 224.764Z" fill="#514E0C"/>
<path opacity="0.54" d="M304.476 224.765L296.031 232.445C261.472 222.462 241.125 190.978 241.125 190.978C221.926 213.245 200.424 218.24 183.123 190.978C183.123 190.978 184.215 178.86 198.246 169.518L212.729 166.84C195.825 200.036 236.464 192.293 243.796 186.241C251.128 180.182 258.05 174.116 261.326 173.782C264.603 173.449 247.323 186.213 259.51 200.745C271.69 215.284 299.801 224.341 293.422 200.745C300.072 214.122 304.476 224.765 304.476 224.765Z" fill="#232433"/>
<path d="M220.248 59.4333H219.733C219.733 59.4333 214.613 79.0291 205.884 86.3332C204.311 87.6478 202.622 88.5665 200.819 88.9001C189.042 91.0775 178.782 77.6587 176.841 68.4558C175.756 63.3084 177.668 60.15 179.568 58.3757C181.057 56.9566 182.545 56.4074 182.545 56.4074C182.545 56.4074 183.317 41.8895 188.374 42.1537C193.237 42.4044 192.423 44.3311 192.36 44.4772C192.673 44.0597 203.254 29.9944 210.53 31.5245C217.918 33.0825 212.735 43.9624 212.735 43.9624C212.735 43.9624 222.063 34.5089 225.173 39.9484C228.283 45.3879 219.086 51.9967 219.086 51.9967C219.086 51.9967 226.989 51.8714 227.768 54.7233C228.54 57.5688 227.378 60.2953 220.248 59.4333Z" fill="#36340B"/>
<path d="M205.884 86.3344C204.311 87.649 202.622 88.5677 200.819 88.9013C189.042 91.0787 178.782 77.6599 176.841 68.457C175.756 63.3096 177.668 60.1513 179.568 58.377C181.321 60.6517 183.665 65.2149 189.014 59.4345H191.498L205.884 86.3344Z" fill="#6D6C42"/>
<path d="M237.167 144.627L183.388 194.483C180.772 192.131 178.497 189.676 176.529 187.123H176.522C172.869 182.407 170.24 177.37 168.376 172.118C166.977 168.174 166.004 164.112 165.363 159.972C163.888 150.526 164.09 140.648 164.689 130.839C166.087 107.87 173.03 92.5304 200.604 92.1409C200.604 92.1409 213.244 88.6074 222.6 93.6502C229.96 97.6083 234.753 126.88 236.464 139.193C236.93 142.533 237.167 144.627 237.167 144.627Z" fill="#BAB879"/>
<path opacity="0.36" d="M225.712 121.921C197.401 132.538 185.68 111.947 185.68 111.947L176.525 144.853L196.114 150.889L230.218 147.338L225.712 121.921Z" fill="#383952"/>
<path opacity="0.36" d="M237.168 144.627L183.389 194.483C180.773 192.131 178.498 189.676 176.53 187.123C185.886 186.413 205.983 164.041 200.703 162.873C195.98 161.836 179.723 172.897 168.378 172.118C166.979 168.174 166.005 164.111 165.365 159.972L182.645 144.849L236.465 139.193C236.931 142.533 237.168 144.627 237.168 144.627Z" fill="#383952"/>
<path d="M206.854 138.006C213.17 133.736 220.522 137.294 223.132 139.192C225.74 141.089 223.132 146.07 223.132 146.07C223.132 146.07 220.285 144.409 219.337 144.172C218.389 143.935 213.815 147.493 204.718 146.07C195.619 144.646 206.854 138.006 206.854 138.006Z" fill="#E5E5D4"/>
<path d="M169.946 108.214C182.334 98.9764 189.35 107.094 188.751 123.06C188.152 139.025 188.152 139.025 188.152 139.025C188.152 139.025 203.95 133.983 207.815 133.983C207.815 133.983 208.151 144.907 207.815 148.828C207.815 148.828 188.712 167.314 176.107 168.715C163.503 170.116 166.024 145.187 164.903 133.703C163.784 122.219 165.642 111.424 169.946 108.214Z" fill="#BAB879"/>
<path d="M220.945 146.808L230.342 108.746C231.3 104.865 234.782 102.139 238.779 102.139H292.699C296.239 102.139 298.831 105.475 297.954 108.906L287.073 148.705L220.945 146.808Z" fill="black"/>
<path d="M224.721 146.808L234.118 108.746C235.075 104.865 238.557 102.139 242.554 102.139H296.475C300.014 102.139 302.606 105.475 301.73 108.906L290.848 148.705L224.721 146.808Z" fill="#DDDDDD"/>
<path d="M275.271 150.603H206.673C205.625 150.603 204.775 149.754 204.775 148.706C204.775 147.658 205.625 146.809 206.673 146.809H275.271C276.319 146.809 277.169 147.658 277.169 148.706C277.168 149.753 276.318 150.603 275.271 150.603Z" fill="black"/>
<path d="M291.442 150.603H222.845C221.797 150.603 220.947 149.754 220.947 148.706C220.947 147.658 221.797 146.809 222.845 146.809H291.442C292.49 146.809 293.34 147.658 293.34 148.706C293.34 149.753 292.49 150.603 291.442 150.603Z" fill="#DDDDDD"/>
<path d="M268.504 125.313C267.599 130.261 265.356 133.997 263.493 133.657C261.631 133.317 260.854 129.029 261.758 124.08C262.663 119.132 264.905 115.396 266.768 115.736C268.631 116.077 269.408 120.365 268.504 125.313Z" fill="black"/>
<path d="M223.326 62.616C224.521 80.1406 221.733 87.9068 211.776 88.9029V92.9855C211.776 96.0106 209.324 98.4617 206.3 98.4617C203.276 98.4617 200.824 96.0098 200.824 92.9855V88.9029C200.824 88.9029 192.858 85.517 191.265 80.5389C189.672 75.5607 191.265 79.7423 191.265 79.7423L190.557 59.4297H223.586L223.326 62.616Z" fill="#E5E5D4"/>
<path d="M191.765 72.1102C189.26 67.5439 186.315 69.4587 185.725 72.1102C185.136 74.7617 190.439 81.2165 191.765 78.9465C193.091 76.6765 191.765 72.1102 191.765 72.1102Z" fill="#E5E5D4"/>
<path d="M186.273 57.1822C191.605 63.6609 206.722 67.03 212.192 65.4752C217.663 63.9203 209.889 58.8671 209.889 58.8671C209.889 58.8671 220.034 65.8639 224.679 63.5316C229.324 61.1994 216.799 55.498 216.799 55.498L186.273 57.1822Z" fill="#36340B"/>
<path d="M204.387 71.0543C204.387 71.9914 204.219 72.7504 204.012 72.7504C203.804 72.7504 203.637 71.9906 203.637 71.0543C203.637 70.1173 203.805 69.3574 204.012 69.3574C204.219 69.3582 204.387 70.1173 204.387 71.0543Z" stroke="#191918" stroke-width="2" stroke-miterlimit="10"/>
<path d="M215.151 71.0543C215.151 71.9914 214.983 72.7504 214.776 72.7504C214.569 72.7504 214.4 71.9906 214.4 71.0543C214.4 70.1173 214.569 69.3574 214.776 69.3574C214.983 69.3582 215.151 70.1173 215.151 71.0543Z" stroke="#191918" stroke-width="2" stroke-miterlimit="10"/>
<path d="M210.814 80.518C205.658 80.6361 201.66 76.9238 201.66 76.9238" stroke="#E56A85" stroke-miterlimit="10" stroke-linecap="round"/>
<path opacity="0.53" d="M211.776 88.9043C207.365 89.301 202.25 89.139 202.25 89.139L211.776 92.9861V88.9043Z" fill="black" fill-opacity="0.1"/>
<path opacity="0.53" d="M191.5 73.3348C189.267 70.9913 188.171 71.9539 188.32 74.3891C188.469 76.8244 191.405 78.57 192.356 77.8716C193.306 77.174 191.5 73.3348 191.5 73.3348Z" fill="black" fill-opacity="0.1"/>
<path d="M104.178 195.373C94.2745 191.735 88.8174 193.15 85.7852 189.107C85.7852 189.107 93.8698 187.692 98.3164 189.107L104.178 195.373Z" fill="#7C9E1E"/>
<path d="M98.3168 189.108C86.282 182.819 82.7126 175.681 79.6532 170.753C76.5938 165.824 74.8945 161.745 73.7044 161.405C72.5144 161.065 78.6331 162.255 84.4119 168.033C90.1906 173.812 92.57 174.662 97.1586 179.251C101.747 183.84 105.827 190.593 106.337 195.375H104.178L98.3168 189.108Z" fill="#B7AC15"/>
<path d="M101.748 187.408C95.246 177.429 101.081 171.697 93.2498 160.385C84.0717 147.128 86.961 133.871 88.3211 125.543C88.3211 125.543 86.2858 135.235 94.2715 144.666C102.258 154.096 110.076 157.749 110.755 171.814C111.435 185.879 108.716 195.374 108.716 195.374H104.178L101.748 187.408Z" fill="#7C9E1E"/>
<path d="M107.666 195.374C105.487 186.027 109.736 170.073 110.076 154.267C110.416 138.461 101.578 126.733 114.665 111.947C114.665 111.947 111.945 114.667 115.685 125.544C119.424 136.422 127.752 147.809 123.673 162.425C119.593 177.042 110.804 189.013 110.865 195.374H107.666Z" fill="#B7AC15"/>
<path d="M110.865 195.375C109.504 184.157 120.953 166.674 130.641 162.766C130.641 162.766 131.66 171.358 125.372 178.364C119.083 185.371 114.408 195.376 114.408 195.376H110.865V195.375Z" fill="#A88F14"/>
<path d="M114.408 195.374C114.834 187.919 121.293 185.305 127.921 183.383C127.921 183.383 119.933 191.443 118.574 195.374H114.408Z" fill="#426313"/>
<path opacity="0.36" d="M117.518 196.226C118.648 190.579 121.194 188.803 120.728 188.481C120.261 188.158 117.364 192.91 115.908 195.375C115.908 195.375 113.969 188.934 116.873 183.384C119.778 177.833 122.52 173.638 122.52 173.638C122.52 173.638 113.163 184.448 112.678 189.912C112.678 189.912 111.71 184.42 113.324 177.335C114.937 170.25 119.132 163.473 117.6 155.084C116.067 146.693 114.409 137.74 114.409 137.74C114.409 137.74 115.105 146.271 115.909 153.662C116.713 161.053 114.523 164.926 112.391 172.832C110.259 180.738 111.452 191.987 110.533 191.929C109.613 191.87 108.161 193.968 108.161 193.968C108.161 193.968 107.187 181.867 105.738 171.541C104.289 161.215 104.451 159.824 98.1578 153.662C91.865 147.5 91.0589 143.734 91.0589 143.734C91.0589 143.734 95.3083 152.179 98.8307 157.665C102.353 163.151 103.482 165.571 103.482 175.252C103.482 184.933 103.966 190.374 104.773 191.929C105.58 193.484 98.8035 182.729 93.4789 179.071C88.1544 175.413 83.798 170.412 83.3143 169.605C82.8306 168.798 88.4776 178.962 92.672 181.706C96.8672 184.449 104.178 193.807 104.178 193.807L92.1883 190.58L105.739 196.227L117.518 196.226Z" fill="#426313"/>
<path d="M128.206 198.384L121.827 235.127C121.75 235.575 121.597 235.984 121.379 236.356C120.733 237.469 119.531 238.198 118.174 238.198H95.2247C93.4081 238.198 91.8533 236.88 91.5651 235.088L85.5836 198.345C85.2189 196.086 86.9589 194.039 89.2496 194.039H124.546C126.85 194.04 128.597 196.113 128.206 198.384Z" fill="#3A3852"/>
<path opacity="0.54" d="M121.381 236.356C120.735 237.469 119.533 238.198 118.176 238.198H95.2267C93.41 238.198 91.8552 236.88 91.5671 235.088L85.5856 198.345C85.2208 196.086 86.9608 194.039 89.2516 194.039H101.389C90.1335 211.519 108.905 231.832 121.381 236.356Z" fill="#232433"/>
<path d="M160.08 173.483C164.784 181.996 168.362 191.166 172.828 199.034C167.935 193.199 163.388 186.123 159.849 178.363C157.586 173.402 155.688 167.167 154.299 160.484C156.277 165.805 158.311 170.284 160.08 173.483Z" fill="#313A42"/>
<path d="M21.4187 300H19.2587V286.6H21.4187V300ZM28.5587 300H19.8987V298.04H28.5587V300ZM34.0126 300.2C32.9992 300.2 32.1192 299.987 31.3726 299.56C30.6259 299.12 30.0526 298.513 29.6526 297.74C29.2526 296.953 29.0526 296.047 29.0526 295.02C29.0526 293.993 29.2526 293.093 29.6526 292.32C30.0526 291.547 30.6259 290.947 31.3726 290.52C32.1192 290.08 32.9992 289.86 34.0126 289.86C35.0259 289.86 35.8926 290.08 36.6126 290.52C37.3459 290.947 37.9059 291.547 38.2926 292.32C38.6926 293.093 38.8926 293.993 38.8926 295.02C38.8926 296.047 38.6926 296.953 38.2926 297.74C37.9059 298.513 37.3459 299.12 36.6126 299.56C35.8926 299.987 35.0259 300.2 34.0126 300.2ZM34.0126 298.28C35.0526 298.28 35.7792 298.02 36.1926 297.5C36.6059 296.967 36.8126 296.14 36.8126 295.02C36.8126 293.9 36.6059 293.08 36.1926 292.56C35.7792 292.04 35.0526 291.78 34.0126 291.78C32.9592 291.78 32.2259 292.04 31.8126 292.56C31.3992 293.08 31.1926 293.9 31.1926 295.02C31.1926 296.14 31.3992 296.967 31.8126 297.5C32.2259 298.02 32.9592 298.28 34.0126 298.28ZM45.3049 303.6C44.3716 303.6 43.5583 303.453 42.8649 303.16C42.1849 302.867 41.6583 302.44 41.2849 301.88C40.9116 301.333 40.7249 300.66 40.7249 299.86H42.8849C42.8849 300.313 42.9516 300.673 43.0849 300.94C43.2183 301.207 43.4649 301.393 43.8249 301.5C44.1849 301.62 44.6983 301.68 45.3649 301.68C46.0183 301.68 46.5183 301.607 46.8649 301.46C47.2116 301.313 47.4516 301.067 47.5849 300.72C47.7183 300.373 47.7849 299.893 47.7849 299.28V292.68L47.9449 292.42V290.06H49.9449V299.28C49.9449 300.253 49.7583 301.053 49.3849 301.68C49.0116 302.32 48.4783 302.8 47.7849 303.12C47.1049 303.44 46.2783 303.6 45.3049 303.6ZM44.4649 299.06C43.0916 299.06 42.0383 298.647 41.3049 297.82C40.5716 296.98 40.2049 295.86 40.2049 294.46C40.2049 293.06 40.5783 291.947 41.3249 291.12C42.0716 290.28 43.1449 289.86 44.5449 289.86C45.3583 289.86 46.0583 290.027 46.6449 290.36C47.2316 290.68 47.6383 291.127 47.8649 291.7H48.2649L48.1649 294.14H47.7849C47.7849 293.58 47.6716 293.12 47.4449 292.76C47.2183 292.4 46.8983 292.133 46.4849 291.96C46.0716 291.787 45.5916 291.7 45.0449 291.7C44.4183 291.7 43.9049 291.787 43.5049 291.96C43.1183 292.133 42.8316 292.427 42.6449 292.84C42.4583 293.24 42.3649 293.78 42.3649 294.46C42.3649 294.967 42.4183 295.4 42.5249 295.76C42.6316 296.107 42.7983 296.387 43.0249 296.6C43.2516 296.813 43.5383 296.973 43.8849 297.08C44.2316 297.173 44.6316 297.22 45.0849 297.22C45.6316 297.22 46.1049 297.133 46.5049 296.96C46.9049 296.773 47.2183 296.5 47.4449 296.14C47.6716 295.78 47.7849 295.32 47.7849 294.76H48.2249V297.3H47.7049C47.4783 297.78 47.0849 298.193 46.5249 298.54C45.9649 298.887 45.2783 299.06 44.4649 299.06ZM57.8593 288.8H55.7193L55.6993 286.6H57.8593V288.8ZM57.8793 300H55.7193V290H57.8793V300ZM69.1227 300H66.9627V294.22C66.9627 293.34 66.7961 292.707 66.4627 292.32C66.1294 291.92 65.5027 291.72 64.5827 291.72C63.9961 291.72 63.5161 291.807 63.1427 291.98C62.7694 292.14 62.4894 292.407 62.3027 292.78C62.1161 293.14 62.0227 293.633 62.0227 294.26H61.6427L61.4627 291.92H61.9427C62.0894 291.56 62.3094 291.227 62.6027 290.92C62.8961 290.613 63.2694 290.36 63.7227 290.16C64.1894 289.96 64.7427 289.86 65.3827 289.86C66.2494 289.86 66.9561 290.027 67.5027 290.36C68.0494 290.693 68.4561 291.153 68.7227 291.74C68.9894 292.327 69.1227 293 69.1227 293.76V300ZM62.0227 300H59.8627V290.06H61.8427V293.04L62.0227 293.14V300ZM79.1204 300C78.0271 300 77.1871 299.767 76.6004 299.3C76.0271 298.833 75.7404 298.047 75.7404 296.94V290.28L76.2404 287.6H77.9004V296.84C77.9004 297.36 78.0271 297.693 78.2804 297.84C78.5471 297.973 79.0204 298.04 79.7004 298.04H80.9004V299.82C80.7004 299.873 80.4404 299.92 80.1204 299.96C79.8004 299.987 79.4671 300 79.1204 300ZM80.9004 291.86H74.0804V290.06H80.9004V291.86ZM86.5712 300.2C85.5578 300.2 84.6778 299.987 83.9312 299.56C83.1845 299.12 82.6112 298.513 82.2112 297.74C81.8112 296.953 81.6112 296.047 81.6112 295.02C81.6112 293.993 81.8112 293.093 82.2112 292.32C82.6112 291.547 83.1845 290.947 83.9312 290.52C84.6778 290.08 85.5578 289.86 86.5712 289.86C87.5845 289.86 88.4512 290.08 89.1712 290.52C89.9045 290.947 90.4645 291.547 90.8512 292.32C91.2512 293.093 91.4512 293.993 91.4512 295.02C91.4512 296.047 91.2512 296.953 90.8512 297.74C90.4645 298.513 89.9045 299.12 89.1712 299.56C88.4512 299.987 87.5845 300.2 86.5712 300.2ZM86.5712 298.28C87.6112 298.28 88.3378 298.02 88.7512 297.5C89.1645 296.967 89.3712 296.14 89.3712 295.02C89.3712 293.9 89.1645 293.08 88.7512 292.56C88.3378 292.04 87.6112 291.78 86.5712 291.78C85.5178 291.78 84.7845 292.04 84.3712 292.56C83.9578 293.08 83.7512 293.9 83.7512 295.02C83.7512 296.14 83.9578 296.967 84.3712 297.5C84.7845 298.02 85.5178 298.28 86.5712 298.28ZM100.633 300.2C99.7797 300.2 99.073 300.027 98.513 299.68C97.953 299.32 97.5397 298.84 97.273 298.24C97.0064 297.627 96.873 296.947 96.873 296.2V290.06H99.033V295.8C99.033 296.693 99.2197 297.34 99.593 297.74C99.9664 298.14 100.58 298.34 101.433 298.34C101.993 298.34 102.466 298.253 102.853 298.08C103.24 297.893 103.533 297.607 103.733 297.22C103.933 296.82 104.033 296.3 104.033 295.66H104.593V298.02H104.113C103.966 298.393 103.74 298.747 103.433 299.08C103.14 299.413 102.76 299.687 102.293 299.9C101.84 300.1 101.286 300.2 100.633 300.2ZM106.193 300H104.193V297.02L104.033 296.92V290.06H106.193V300ZM113.76 300.2C112.866 300.2 112.14 300.027 111.58 299.68C111.033 299.32 110.653 298.913 110.44 298.46H109.9L110 295.92H110.38C110.38 296.467 110.48 296.92 110.68 297.28C110.893 297.64 111.206 297.913 111.62 298.1C112.033 298.273 112.526 298.36 113.1 298.36C113.566 298.36 113.973 298.3 114.32 298.18C114.666 298.06 114.946 297.873 115.16 297.62C115.386 297.367 115.546 297.027 115.64 296.6C115.746 296.16 115.8 295.633 115.8 295.02C115.8 294.407 115.746 293.893 115.64 293.48C115.546 293.053 115.386 292.707 115.16 292.44C114.946 292.173 114.666 291.987 114.32 291.88C113.986 291.76 113.58 291.7 113.1 291.7C112.526 291.7 112.033 291.793 111.62 291.98C111.206 292.153 110.893 292.42 110.68 292.78C110.48 293.127 110.38 293.58 110.38 294.14H110L109.9 291.7H110.3C110.54 291.127 110.933 290.68 111.48 290.36C112.04 290.027 112.753 289.86 113.62 289.86C115.02 289.86 116.093 290.327 116.84 291.26C117.586 292.193 117.96 293.447 117.96 295.02C117.96 296.593 117.6 297.853 116.88 298.8C116.16 299.733 115.12 300.2 113.76 300.2ZM110.38 303.46H108.24V290.06H110.2V292.42L110.38 292.68V303.46ZM123.765 300.2C122.351 300.2 121.265 299.733 120.505 298.8C119.758 297.853 119.385 296.593 119.385 295.02C119.385 293.447 119.751 292.193 120.485 291.26C121.231 290.327 122.285 289.86 123.645 289.86C124.525 289.86 125.231 290.04 125.765 290.4C126.311 290.747 126.691 291.147 126.905 291.6H127.445L127.345 294.14H126.965C126.965 293.58 126.858 293.12 126.645 292.76C126.431 292.4 126.125 292.133 125.725 291.96C125.325 291.787 124.831 291.7 124.245 291.7C123.765 291.7 123.351 291.76 123.005 291.88C122.671 292 122.391 292.187 122.165 292.44C121.951 292.693 121.791 293.033 121.685 293.46C121.591 293.887 121.545 294.407 121.545 295.02C121.545 295.62 121.591 296.14 121.685 296.58C121.791 297.007 121.951 297.353 122.165 297.62C122.391 297.873 122.678 298.06 123.025 298.18C123.371 298.3 123.778 298.36 124.245 298.36C124.831 298.36 125.325 298.273 125.725 298.1C126.125 297.913 126.431 297.64 126.645 297.28C126.858 296.92 126.965 296.467 126.965 295.92H127.345L127.445 298.36H127.045C126.818 298.933 126.425 299.387 125.865 299.72C125.318 300.04 124.618 300.2 123.765 300.2ZM129.125 300H127.125V297.64L126.965 297.38V286.6H129.125V300ZM139.572 300H137.572V298.04L137.512 297.5V293.68C137.512 292.933 137.332 292.427 136.972 292.16C136.625 291.893 136.058 291.76 135.272 291.76C134.485 291.76 133.918 291.9 133.572 292.18C133.238 292.46 133.072 292.927 133.072 293.58V293.88H130.992V293.68C130.992 292.933 131.172 292.273 131.532 291.7C131.905 291.127 132.418 290.68 133.072 290.36C133.738 290.027 134.512 289.86 135.392 289.86C136.325 289.86 137.098 290.033 137.712 290.38C138.325 290.727 138.785 291.207 139.092 291.82C139.412 292.42 139.572 293.133 139.572 293.96V300ZM133.872 300.2C132.978 300.2 132.225 299.973 131.612 299.52C131.012 299.053 130.712 298.393 130.712 297.54C130.712 296.98 130.838 296.513 131.092 296.14C131.358 295.767 131.738 295.46 132.232 295.22C132.725 294.98 133.325 294.813 134.032 294.72L137.712 294.2V295.72L134.352 296.22C133.778 296.3 133.378 296.42 133.152 296.58C132.925 296.74 132.812 297.007 132.812 297.38C132.812 297.767 132.945 298.047 133.212 298.22C133.492 298.393 133.945 298.48 134.572 298.48C135.052 298.48 135.512 298.407 135.952 298.26C136.405 298.1 136.778 297.84 137.072 297.48C137.365 297.107 137.512 296.587 137.512 295.92L137.792 298.46L137.472 298.44C137.285 298.747 137.025 299.033 136.692 299.3C136.372 299.567 135.978 299.787 135.512 299.96C135.045 300.12 134.498 300.2 133.872 300.2ZM145.683 300C144.59 300 143.75 299.767 143.163 299.3C142.59 298.833 142.303 298.047 142.303 296.94V290.28L142.803 287.6H144.463V296.84C144.463 297.36 144.59 297.693 144.843 297.84C145.11 297.973 145.583 298.04 146.263 298.04H147.463V299.82C147.263 299.873 147.003 299.92 146.683 299.96C146.363 299.987 146.03 300 145.683 300ZM147.463 291.86H140.643V290.06H147.463V291.86ZM152.994 300.2C151.914 300.2 151.014 299.987 150.294 299.56C149.574 299.12 149.04 298.513 148.694 297.74C148.347 296.953 148.174 296.047 148.174 295.02C148.174 293.993 148.367 293.093 148.754 292.32C149.154 291.547 149.714 290.947 150.434 290.52C151.154 290.08 152.007 289.86 152.994 289.86C153.887 289.86 154.674 290.033 155.354 290.38C156.047 290.713 156.58 291.2 156.954 291.84C157.34 292.48 157.534 293.253 157.534 294.16C157.534 294.427 157.52 294.687 157.494 294.94C157.48 295.18 157.46 295.38 157.434 295.54H149.194V294.1H155.674L155.454 294.3C155.507 293.687 155.44 293.187 155.254 292.8C155.08 292.413 154.794 292.127 154.394 291.94C154.007 291.753 153.52 291.66 152.934 291.66C151.88 291.66 151.16 291.927 150.774 292.46C150.387 292.98 150.194 293.7 150.194 294.62V295.22C150.194 295.887 150.274 296.453 150.434 296.92C150.607 297.373 150.9 297.713 151.314 297.94C151.727 298.167 152.294 298.28 153.014 298.28C153.854 298.28 154.447 298.147 154.794 297.88C155.14 297.613 155.314 297.26 155.314 296.82V296.66H157.454V296.84C157.454 297.52 157.267 298.113 156.894 298.62C156.52 299.113 156 299.5 155.334 299.78C154.68 300.06 153.9 300.2 152.994 300.2ZM164.824 303.4C164.558 303.4 164.284 303.38 164.004 303.34C163.724 303.313 163.498 303.273 163.324 303.22V301.46H164.704C165.118 301.46 165.424 301.4 165.624 301.28C165.824 301.173 166.011 300.94 166.184 300.58L166.804 299.18L166.624 299.88L162.324 290.06H164.704L166.704 294.88L167.604 297.04H167.784L168.584 294.88L170.404 290.06H172.804L168.084 301.16C167.844 301.76 167.571 302.22 167.264 302.54C166.958 302.86 166.604 303.08 166.204 303.2C165.818 303.333 165.358 303.4 164.824 303.4ZM177.997 300.2C176.984 300.2 176.104 299.987 175.357 299.56C174.61 299.12 174.037 298.513 173.637 297.74C173.237 296.953 173.037 296.047 173.037 295.02C173.037 293.993 173.237 293.093 173.637 292.32C174.037 291.547 174.61 290.947 175.357 290.52C176.104 290.08 176.984 289.86 177.997 289.86C179.01 289.86 179.877 290.08 180.597 290.52C181.33 290.947 181.89 291.547 182.277 292.32C182.677 293.093 182.877 293.993 182.877 295.02C182.877 296.047 182.677 296.953 182.277 297.74C181.89 298.513 181.33 299.12 180.597 299.56C179.877 299.987 179.01 300.2 177.997 300.2ZM177.997 298.28C179.037 298.28 179.764 298.02 180.177 297.5C180.59 296.967 180.797 296.14 180.797 295.02C180.797 293.9 180.59 293.08 180.177 292.56C179.764 292.04 179.037 291.78 177.997 291.78C176.944 291.78 176.21 292.04 175.797 292.56C175.384 293.08 175.177 293.9 175.177 295.02C175.177 296.14 175.384 296.967 175.797 297.5C176.21 298.02 176.944 298.28 177.997 298.28ZM188.192 300.2C187.338 300.2 186.632 300.027 186.072 299.68C185.512 299.32 185.098 298.84 184.832 298.24C184.565 297.627 184.432 296.947 184.432 296.2V290.06H186.592V295.8C186.592 296.693 186.778 297.34 187.152 297.74C187.525 298.14 188.138 298.34 188.992 298.34C189.552 298.34 190.025 298.253 190.412 298.08C190.798 297.893 191.092 297.607 191.292 297.22C191.492 296.82 191.592 296.3 191.592 295.66H192.152V298.02H191.672C191.525 298.393 191.298 298.747 190.992 299.08C190.698 299.413 190.318 299.687 189.852 299.9C189.398 300.1 188.845 300.2 188.192 300.2ZM193.752 300H191.752V297.02L191.592 296.92V290.06H193.752V300ZM198.038 300H195.878V290H197.858V292.78L198.038 292.88V300ZM198.038 293.52H197.538V291.58H197.958C198.158 291.113 198.485 290.713 198.938 290.38C199.405 290.033 200.005 289.86 200.738 289.86C201.445 289.86 202.005 290.013 202.418 290.32C202.845 290.627 203.152 291.033 203.338 291.54C203.525 292.047 203.618 292.613 203.618 293.24V293.9H201.458V293.5C201.458 292.833 201.345 292.367 201.118 292.1C200.892 291.833 200.465 291.7 199.838 291.7C199.185 291.7 198.718 291.84 198.438 292.12C198.172 292.387 198.038 292.853 198.038 293.52ZM214.346 300.2C213.452 300.2 212.726 300.027 212.166 299.68C211.619 299.32 211.239 298.913 211.026 298.46H210.486L210.586 295.92H210.966C210.966 296.467 211.066 296.92 211.266 297.28C211.479 297.64 211.792 297.913 212.206 298.1C212.619 298.273 213.112 298.36 213.686 298.36C214.152 298.36 214.559 298.3 214.906 298.18C215.252 298.06 215.532 297.873 215.746 297.62C215.972 297.367 216.132 297.027 216.226 296.6C216.332 296.16 216.386 295.633 216.386 295.02C216.386 294.407 216.332 293.893 216.226 293.48C216.132 293.053 215.972 292.707 215.746 292.44C215.532 292.173 215.252 291.987 214.906 291.88C214.572 291.76 214.166 291.7 213.686 291.7C213.112 291.7 212.619 291.793 212.206 291.98C211.792 292.153 211.479 292.42 211.266 292.78C211.066 293.127 210.966 293.58 210.966 294.14H210.586L210.486 291.7H210.886C211.126 291.127 211.519 290.68 212.066 290.36C212.626 290.027 213.339 289.86 214.206 289.86C215.606 289.86 216.679 290.327 217.426 291.26C218.172 292.193 218.546 293.447 218.546 295.02C218.546 296.593 218.186 297.853 217.466 298.8C216.746 299.733 215.706 300.2 214.346 300.2ZM210.966 303.46H208.826V290.06H210.786V292.42L210.966 292.68V303.46ZM222.433 300H220.273V290H222.253V292.78L222.433 292.88V300ZM222.433 293.52H221.933V291.58H222.353C222.553 291.113 222.88 290.713 223.333 290.38C223.8 290.033 224.4 289.86 225.133 289.86C225.84 289.86 226.4 290.013 226.813 290.32C227.24 290.627 227.546 291.033 227.733 291.54C227.92 292.047 228.013 292.613 228.013 293.24V293.9H225.853V293.5C225.853 292.833 225.74 292.367 225.513 292.1C225.286 291.833 224.86 291.7 224.233 291.7C223.58 291.7 223.113 291.84 222.833 292.12C222.566 292.387 222.433 292.853 222.433 293.52ZM233.954 300.2C232.941 300.2 232.061 299.987 231.314 299.56C230.567 299.12 229.994 298.513 229.594 297.74C229.194 296.953 228.994 296.047 228.994 295.02C228.994 293.993 229.194 293.093 229.594 292.32C229.994 291.547 230.567 290.947 231.314 290.52C232.061 290.08 232.941 289.86 233.954 289.86C234.967 289.86 235.834 290.08 236.554 290.52C237.287 290.947 237.847 291.547 238.234 292.32C238.634 293.093 238.834 293.993 238.834 295.02C238.834 296.047 238.634 296.953 238.234 297.74C237.847 298.513 237.287 299.12 236.554 299.56C235.834 299.987 234.967 300.2 233.954 300.2ZM233.954 298.28C234.994 298.28 235.721 298.02 236.134 297.5C236.547 296.967 236.754 296.14 236.754 295.02C236.754 293.9 236.547 293.08 236.134 292.56C235.721 292.04 234.994 291.78 233.954 291.78C232.901 291.78 232.167 292.04 231.754 292.56C231.341 293.08 231.134 293.9 231.134 295.02C231.134 296.14 231.341 296.967 231.754 297.5C232.167 298.02 232.901 298.28 233.954 298.28ZM243.031 300H240.871V290.14C240.871 289.367 241.018 288.72 241.311 288.2C241.604 287.68 242.038 287.287 242.611 287.02C243.198 286.74 243.918 286.6 244.771 286.6C244.904 286.6 245.038 286.6 245.171 286.6C245.304 286.6 245.438 286.6 245.571 286.6V288.32H244.371C243.891 288.32 243.538 288.413 243.311 288.6C243.084 288.787 242.971 289.093 242.971 289.52V290.4L243.031 290.92V300ZM245.571 291.86H239.411V290.06H245.571V291.86ZM248.731 288.8H246.591L246.571 286.6H248.731V288.8ZM248.751 300H246.591V290H248.751V300ZM252.882 300H250.722V286.6H252.882V300ZM259.341 300.2C258.261 300.2 257.361 299.987 256.641 299.56C255.921 299.12 255.388 298.513 255.041 297.74C254.695 296.953 254.521 296.047 254.521 295.02C254.521 293.993 254.715 293.093 255.101 292.32C255.501 291.547 256.061 290.947 256.781 290.52C257.501 290.08 258.355 289.86 259.341 289.86C260.235 289.86 261.021 290.033 261.701 290.38C262.395 290.713 262.928 291.2 263.301 291.84C263.688 292.48 263.881 293.253 263.881 294.16C263.881 294.427 263.868 294.687 263.841 294.94C263.828 295.18 263.808 295.38 263.781 295.54H255.541V294.1H262.021L261.801 294.3C261.855 293.687 261.788 293.187 261.601 292.8C261.428 292.413 261.141 292.127 260.741 291.94C260.355 291.753 259.868 291.66 259.281 291.66C258.228 291.66 257.508 291.927 257.121 292.46C256.735 292.98 256.541 293.7 256.541 294.62V295.22C256.541 295.887 256.621 296.453 256.781 296.92C256.955 297.373 257.248 297.713 257.661 297.94C258.075 298.167 258.641 298.28 259.361 298.28C260.201 298.28 260.795 298.147 261.141 297.88C261.488 297.613 261.661 297.26 261.661 296.82V296.66H263.801V296.84C263.801 297.52 263.615 298.113 263.241 298.62C262.868 299.113 262.348 299.5 261.681 299.78C261.028 300.06 260.248 300.2 259.341 300.2ZM267.807 300H265.067V296.9H267.807V300ZM265.827 302.34H265.127V300.94H265.767C265.941 300.94 266.067 300.907 266.147 300.84C266.241 300.787 266.287 300.647 266.287 300.42V299.54H267.807V300.38C267.807 301.047 267.634 301.54 267.287 301.86C266.941 302.18 266.454 302.34 265.827 302.34ZM277.701 300.2C276.621 300.2 275.721 299.987 275.001 299.56C274.281 299.12 273.747 298.513 273.401 297.74C273.054 296.953 272.881 296.047 272.881 295.02C272.881 293.993 273.074 293.093 273.461 292.32C273.861 291.547 274.421 290.947 275.141 290.52C275.861 290.08 276.714 289.86 277.701 289.86C278.594 289.86 279.381 290.033 280.061 290.38C280.754 290.713 281.287 291.2 281.661 291.84C282.047 292.48 282.241 293.253 282.241 294.16C282.241 294.427 282.227 294.687 282.201 294.94C282.187 295.18 282.167 295.38 282.141 295.54H273.901V294.1H280.381L280.161 294.3C280.214 293.687 280.147 293.187 279.961 292.8C279.787 292.413 279.501 292.127 279.101 291.94C278.714 291.753 278.227 291.66 277.641 291.66C276.587 291.66 275.867 291.927 275.481 292.46C275.094 292.98 274.901 293.7 274.901 294.62V295.22C274.901 295.887 274.981 296.453 275.141 296.92C275.314 297.373 275.607 297.713 276.021 297.94C276.434 298.167 277.001 298.28 277.721 298.28C278.561 298.28 279.154 298.147 279.501 297.88C279.847 297.613 280.021 297.26 280.021 296.82V296.66H282.161V296.84C282.161 297.52 281.974 298.113 281.601 298.62C281.227 299.113 280.707 299.5 280.041 299.78C279.387 300.06 278.607 300.2 277.701 300.2ZM284.976 300H282.536L286.116 295V294.84L282.536 290.06H285.056L287.736 293.72H287.876L290.536 290.06H292.976L289.416 294.94V295.1L292.976 300H290.456L287.776 296.2H287.636L284.976 300ZM299.385 300.2C298.491 300.2 297.765 300.027 297.205 299.68C296.658 299.32 296.278 298.913 296.065 298.46H295.525L295.625 295.92H296.005C296.005 296.467 296.105 296.92 296.305 297.28C296.518 297.64 296.831 297.913 297.245 298.1C297.658 298.273 298.151 298.36 298.725 298.36C299.191 298.36 299.598 298.3 299.945 298.18C300.291 298.06 300.571 297.873 300.785 297.62C301.011 297.367 301.171 297.027 301.265 296.6C301.371 296.16 301.425 295.633 301.425 295.02C301.425 294.407 301.371 293.893 301.265 293.48C301.171 293.053 301.011 292.707 300.785 292.44C300.571 292.173 300.291 291.987 299.945 291.88C299.611 291.76 299.205 291.7 298.725 291.7C298.151 291.7 297.658 291.793 297.245 291.98C296.831 292.153 296.518 292.42 296.305 292.78C296.105 293.127 296.005 293.58 296.005 294.14H295.625L295.525 291.7H295.925C296.165 291.127 296.558 290.68 297.105 290.36C297.665 290.027 298.378 289.86 299.245 289.86C300.645 289.86 301.718 290.327 302.465 291.26C303.211 292.193 303.585 293.447 303.585 295.02C303.585 296.593 303.225 297.853 302.505 298.8C301.785 299.733 300.745 300.2 299.385 300.2ZM296.005 303.46H293.865V290.06H295.825V292.42L296.005 292.68V303.46ZM307.491 300H305.331V286.6H307.491V300ZM314.091 300.2C313.077 300.2 312.197 299.987 311.451 299.56C310.704 299.12 310.131 298.513 309.731 297.74C309.331 296.953 309.131 296.047 309.131 295.02C309.131 293.993 309.331 293.093 309.731 292.32C310.131 291.547 310.704 290.947 311.451 290.52C312.197 290.08 313.077 289.86 314.091 289.86C315.104 289.86 315.971 290.08 316.691 290.52C317.424 290.947 317.984 291.547 318.371 292.32C318.771 293.093 318.971 293.993 318.971 295.02C318.971 296.047 318.771 296.953 318.371 297.74C317.984 298.513 317.424 299.12 316.691 299.56C315.971 299.987 315.104 300.2 314.091 300.2ZM314.091 298.28C315.131 298.28 315.857 298.02 316.271 297.5C316.684 296.967 316.891 296.14 316.891 295.02C316.891 293.9 316.684 293.08 316.271 292.56C315.857 292.04 315.131 291.78 314.091 291.78C313.037 291.78 312.304 292.04 311.891 292.56C311.477 293.08 311.271 293.9 311.271 295.02C311.271 296.14 311.477 296.967 311.891 297.5C312.304 298.02 313.037 298.28 314.091 298.28ZM322.745 300H320.585V290H322.565V292.78L322.745 292.88V300ZM322.745 293.52H322.245V291.58H322.665C322.865 291.113 323.192 290.713 323.645 290.38C324.112 290.033 324.712 289.86 325.445 289.86C326.152 289.86 326.712 290.013 327.125 290.32C327.552 290.627 327.859 291.033 328.045 291.54C328.232 292.047 328.325 292.613 328.325 293.24V293.9H326.165V293.5C326.165 292.833 326.052 292.367 325.825 292.1C325.599 291.833 325.172 291.7 324.545 291.7C323.892 291.7 323.425 291.84 323.145 292.12C322.879 292.387 322.745 292.853 322.745 293.52ZM334.126 300.2C333.046 300.2 332.146 299.987 331.426 299.56C330.706 299.12 330.173 298.513 329.826 297.74C329.48 296.953 329.306 296.047 329.306 295.02C329.306 293.993 329.5 293.093 329.886 292.32C330.286 291.547 330.846 290.947 331.566 290.52C332.286 290.08 333.14 289.86 334.126 289.86C335.02 289.86 335.806 290.033 336.486 290.38C337.18 290.713 337.713 291.2 338.086 291.84C338.473 292.48 338.666 293.253 338.666 294.16C338.666 294.427 338.653 294.687 338.626 294.94C338.613 295.18 338.593 295.38 338.566 295.54H330.326V294.1H336.806L336.586 294.3C336.64 293.687 336.573 293.187 336.386 292.8C336.213 292.413 335.926 292.127 335.526 291.94C335.14 291.753 334.653 291.66 334.066 291.66C333.013 291.66 332.293 291.927 331.906 292.46C331.52 292.98 331.326 293.7 331.326 294.62V295.22C331.326 295.887 331.406 296.453 331.566 296.92C331.74 297.373 332.033 297.713 332.446 297.94C332.86 298.167 333.426 298.28 334.146 298.28C334.986 298.28 335.58 298.147 335.926 297.88C336.273 297.613 336.446 297.26 336.446 296.82V296.66H338.586V296.84C338.586 297.52 338.4 298.113 338.026 298.62C337.653 299.113 337.133 299.5 336.466 299.78C335.813 300.06 335.033 300.2 334.126 300.2ZM346.457 288.8H344.317V286.6H346.457V288.8ZM342.297 303.4V301.44H343.077C343.597 301.44 343.931 301.373 344.077 301.24C344.237 301.12 344.317 300.86 344.317 300.46V290.06H346.457V300C346.457 300.88 346.311 301.567 346.017 302.06C345.724 302.553 345.317 302.9 344.797 303.1C344.277 303.3 343.651 303.4 342.917 303.4C342.824 303.4 342.731 303.4 342.637 303.4C342.531 303.4 342.417 303.4 342.297 303.4ZM353.036 300.2C352.023 300.2 351.143 299.987 350.396 299.56C349.649 299.12 349.076 298.513 348.676 297.74C348.276 296.953 348.076 296.047 348.076 295.02C348.076 293.993 348.276 293.093 348.676 292.32C349.076 291.547 349.649 290.947 350.396 290.52C351.143 290.08 352.023 289.86 353.036 289.86C354.049 289.86 354.916 290.08 355.636 290.52C356.369 290.947 356.929 291.547 357.316 292.32C357.716 293.093 357.916 293.993 357.916 295.02C357.916 296.047 357.716 296.953 357.316 297.74C356.929 298.513 356.369 299.12 355.636 299.56C354.916 299.987 354.049 300.2 353.036 300.2ZM353.036 298.28C354.076 298.28 354.803 298.02 355.216 297.5C355.629 296.967 355.836 296.14 355.836 295.02C355.836 293.9 355.629 293.08 355.216 292.56C354.803 292.04 354.076 291.78 353.036 291.78C351.983 291.78 351.249 292.04 350.836 292.56C350.423 293.08 350.216 293.9 350.216 295.02C350.216 296.14 350.423 296.967 350.836 297.5C351.249 298.02 351.983 298.28 353.036 298.28ZM364.97 300.2C364.104 300.2 363.39 300.04 362.83 299.72C362.27 299.387 361.864 298.933 361.61 298.36H361.21L361.33 295.92H361.71C361.71 296.467 361.81 296.92 362.01 297.28C362.224 297.64 362.53 297.913 362.93 298.1C363.344 298.273 363.837 298.36 364.41 298.36C364.89 298.36 365.297 298.3 365.63 298.18C365.977 298.06 366.264 297.873 366.49 297.62C366.717 297.353 366.877 297.007 366.97 296.58C367.077 296.14 367.13 295.62 367.13 295.02C367.13 294.407 367.077 293.887 366.97 293.46C366.877 293.033 366.717 292.693 366.49 292.44C366.277 292.187 365.997 292 365.65 291.88C365.304 291.76 364.89 291.7 364.41 291.7C363.837 291.7 363.344 291.787 362.93 291.96C362.53 292.133 362.224 292.4 362.01 292.76C361.81 293.12 361.71 293.58 361.71 294.14H361.33L361.21 291.64H361.77C361.984 291.187 362.37 290.78 362.93 290.42C363.504 290.047 364.224 289.86 365.09 289.86C366.464 289.86 367.504 290.327 368.21 291.26C368.93 292.193 369.29 293.447 369.29 295.02C369.29 296.593 368.917 297.853 368.17 298.8C367.437 299.733 366.37 300.2 364.97 300.2ZM361.53 300H359.55V286.6H361.71V297.38L361.53 297.64V300ZM375.195 300.2C373.742 300.2 372.642 299.913 371.895 299.34C371.148 298.753 370.775 297.853 370.775 296.64V296.6H372.855V296.96C372.855 297.307 372.922 297.593 373.055 297.82C373.202 298.033 373.442 298.193 373.775 298.3C374.122 298.393 374.608 298.44 375.235 298.44C375.768 298.44 376.168 298.4 376.435 298.32C376.715 298.227 376.902 298.1 376.995 297.94C377.088 297.78 377.135 297.58 377.135 297.34C377.135 296.94 376.995 296.66 376.715 296.5C376.435 296.327 375.935 296.173 375.215 296.04L373.655 295.78C373.068 295.66 372.555 295.493 372.115 295.28C371.688 295.053 371.355 294.747 371.115 294.36C370.888 293.96 370.775 293.46 370.775 292.86C370.775 291.967 371.128 291.247 371.835 290.7C372.542 290.14 373.542 289.86 374.835 289.86C375.622 289.86 376.322 289.987 376.935 290.24C377.548 290.493 378.035 290.873 378.395 291.38C378.755 291.887 378.935 292.52 378.935 293.28V293.46H376.875V293.22C376.875 292.9 376.822 292.627 376.715 292.4C376.608 292.16 376.408 291.973 376.115 291.84C375.822 291.707 375.375 291.64 374.775 291.64C373.988 291.64 373.468 291.74 373.215 291.94C372.962 292.14 372.835 292.433 372.835 292.82C372.835 293.207 372.948 293.48 373.175 293.64C373.415 293.787 373.882 293.933 374.575 294.08L376.275 294.4C376.915 294.52 377.448 294.7 377.875 294.94C378.302 295.18 378.622 295.493 378.835 295.88C379.062 296.267 379.175 296.727 379.175 297.26C379.175 298.193 378.822 298.92 378.115 299.44C377.422 299.947 376.448 300.2 375.195 300.2ZM383.217 300H380.477V296.9H383.217V300ZM381.237 302.34H380.537V300.94H381.177C381.351 300.94 381.477 300.907 381.557 300.84C381.651 300.787 381.697 300.647 381.697 300.42V299.54H383.217V300.38C383.217 301.047 383.044 301.54 382.697 301.86C382.351 302.18 381.864 302.34 381.237 302.34ZM111.935 325H109.935V323.04L109.875 322.5V318.68C109.875 317.933 109.695 317.427 109.335 317.16C108.988 316.893 108.422 316.76 107.635 316.76C106.848 316.76 106.282 316.9 105.935 317.18C105.602 317.46 105.435 317.927 105.435 318.58V318.88H103.355V318.68C103.355 317.933 103.535 317.273 103.895 316.7C104.268 316.127 104.782 315.68 105.435 315.36C106.102 315.027 106.875 314.86 107.755 314.86C108.688 314.86 109.462 315.033 110.075 315.38C110.688 315.727 111.148 316.207 111.455 316.82C111.775 317.42 111.935 318.133 111.935 318.96V325ZM106.235 325.2C105.342 325.2 104.588 324.973 103.975 324.52C103.375 324.053 103.075 323.393 103.075 322.54C103.075 321.98 103.202 321.513 103.455 321.14C103.722 320.767 104.102 320.46 104.595 320.22C105.088 319.98 105.688 319.813 106.395 319.72L110.075 319.2V320.72L106.715 321.22C106.142 321.3 105.742 321.42 105.515 321.58C105.288 321.74 105.175 322.007 105.175 322.38C105.175 322.767 105.308 323.047 105.575 323.22C105.855 323.393 106.308 323.48 106.935 323.48C107.415 323.48 107.875 323.407 108.315 323.26C108.768 323.1 109.142 322.84 109.435 322.48C109.728 322.107 109.875 321.587 109.875 320.92L110.155 323.46L109.835 323.44C109.648 323.747 109.388 324.033 109.055 324.3C108.735 324.567 108.342 324.787 107.875 324.96C107.408 325.12 106.862 325.2 106.235 325.2ZM123.263 325H121.103V319.22C121.103 318.34 120.937 317.707 120.603 317.32C120.27 316.92 119.643 316.72 118.723 316.72C118.137 316.72 117.657 316.807 117.283 316.98C116.91 317.14 116.63 317.407 116.443 317.78C116.257 318.14 116.163 318.633 116.163 319.26H115.783L115.603 316.92H116.083C116.23 316.56 116.45 316.227 116.743 315.92C117.037 315.613 117.41 315.36 117.863 315.16C118.33 314.96 118.883 314.86 119.523 314.86C120.39 314.86 121.097 315.027 121.643 315.36C122.19 315.693 122.597 316.153 122.863 316.74C123.13 317.327 123.263 318 123.263 318.76V325ZM116.163 325H114.003V315.06H115.983V318.04L116.163 318.14V325ZM129.272 325.2C127.859 325.2 126.772 324.733 126.012 323.8C125.266 322.853 124.892 321.593 124.892 320.02C124.892 318.447 125.259 317.193 125.992 316.26C126.739 315.327 127.792 314.86 129.152 314.86C130.032 314.86 130.739 315.04 131.272 315.4C131.819 315.747 132.199 316.147 132.412 316.6H132.952L132.852 319.14H132.472C132.472 318.58 132.366 318.12 132.152 317.76C131.939 317.4 131.632 317.133 131.232 316.96C130.832 316.787 130.339 316.7 129.752 316.7C129.272 316.7 128.859 316.76 128.512 316.88C128.179 317 127.899 317.187 127.672 317.44C127.459 317.693 127.299 318.033 127.192 318.46C127.099 318.887 127.052 319.407 127.052 320.02C127.052 320.62 127.099 321.14 127.192 321.58C127.299 322.007 127.459 322.353 127.672 322.62C127.899 322.873 128.186 323.06 128.532 323.18C128.879 323.3 129.286 323.36 129.752 323.36C130.339 323.36 130.832 323.273 131.232 323.1C131.632 322.913 131.939 322.64 132.152 322.28C132.366 321.92 132.472 321.467 132.472 320.92H132.852L132.952 323.36H132.552C132.326 323.933 131.932 324.387 131.372 324.72C130.826 325.04 130.126 325.2 129.272 325.2ZM134.632 325H132.632V322.64L132.472 322.38V311.6H134.632V325ZM144.687 325C143.593 325 142.753 324.767 142.167 324.3C141.593 323.833 141.307 323.047 141.307 321.94V315.28L141.807 312.6H143.467V321.84C143.467 322.36 143.593 322.693 143.847 322.84C144.113 322.973 144.587 323.04 145.267 323.04H146.467V324.82C146.267 324.873 146.007 324.92 145.687 324.96C145.367 324.987 145.033 325 144.687 325ZM146.467 316.86H139.647V315.06H146.467V316.86ZM150.109 325H147.949V315H149.929V317.78L150.109 317.88V325ZM150.109 318.52H149.609V316.58H150.029C150.229 316.113 150.555 315.713 151.009 315.38C151.475 315.033 152.075 314.86 152.809 314.86C153.515 314.86 154.075 315.013 154.489 315.32C154.915 315.627 155.222 316.033 155.409 316.54C155.595 317.047 155.689 317.613 155.689 318.24V318.9H153.529V318.5C153.529 317.833 153.415 317.367 153.189 317.1C152.962 316.833 152.535 316.7 151.909 316.7C151.255 316.7 150.789 316.84 150.509 317.12C150.242 317.387 150.109 317.853 150.109 318.52ZM165.255 325H163.255V323.04L163.195 322.5V318.68C163.195 317.933 163.015 317.427 162.655 317.16C162.309 316.893 161.742 316.76 160.955 316.76C160.169 316.76 159.602 316.9 159.255 317.18C158.922 317.46 158.755 317.927 158.755 318.58V318.88H156.675V318.68C156.675 317.933 156.855 317.273 157.215 316.7C157.589 316.127 158.102 315.68 158.755 315.36C159.422 315.027 160.195 314.86 161.075 314.86C162.009 314.86 162.782 315.033 163.395 315.38C164.009 315.727 164.469 316.207 164.775 316.82C165.095 317.42 165.255 318.133 165.255 318.96V325ZM159.555 325.2C158.662 325.2 157.909 324.973 157.295 324.52C156.695 324.053 156.395 323.393 156.395 322.54C156.395 321.98 156.522 321.513 156.775 321.14C157.042 320.767 157.422 320.46 157.915 320.22C158.409 319.98 159.009 319.813 159.715 319.72L163.395 319.2V320.72L160.035 321.22C159.462 321.3 159.062 321.42 158.835 321.58C158.609 321.74 158.495 322.007 158.495 322.38C158.495 322.767 158.629 323.047 158.895 323.22C159.175 323.393 159.629 323.48 160.255 323.48C160.735 323.48 161.195 323.407 161.635 323.26C162.089 323.1 162.462 322.84 162.755 322.48C163.049 322.107 163.195 321.587 163.195 320.92L163.475 323.46L163.155 323.44C162.969 323.747 162.709 324.033 162.375 324.3C162.055 324.567 161.662 324.787 161.195 324.96C160.729 325.12 160.182 325.2 159.555 325.2ZM171.745 325.22C170.705 325.22 169.825 325 169.105 324.56C168.385 324.12 167.831 323.513 167.445 322.74C167.071 321.967 166.885 321.067 166.885 320.04C166.885 319.013 167.078 318.113 167.465 317.34C167.865 316.553 168.431 315.947 169.165 315.52C169.898 315.08 170.785 314.86 171.825 314.86C172.705 314.86 173.478 315.027 174.145 315.36C174.811 315.693 175.325 316.16 175.685 316.76C176.058 317.36 176.245 318.06 176.245 318.86V319.04H174.105V318.92C174.105 318.187 173.905 317.653 173.505 317.32C173.118 316.973 172.511 316.8 171.685 316.8C170.725 316.8 170.038 317.073 169.625 317.62C169.225 318.153 169.025 318.953 169.025 320.02C169.025 321.1 169.225 321.913 169.625 322.46C170.038 322.993 170.725 323.26 171.685 323.26C172.511 323.26 173.118 323.093 173.505 322.76C173.905 322.413 174.105 321.88 174.105 321.16V321.04H176.245V321.22C176.245 321.993 176.058 322.687 175.685 323.3C175.311 323.9 174.785 324.373 174.105 324.72C173.438 325.053 172.651 325.22 171.745 325.22ZM187.17 325H184.63L182.03 320.92H178.85V319H182.01L184.69 315.06H187.21L183.75 319.76L187.17 325ZM180.05 325H177.89V311.6H180.05V325ZM197.607 325.2C196.714 325.2 195.987 325.027 195.427 324.68C194.881 324.32 194.501 323.913 194.287 323.46H193.747L193.847 320.92H194.227C194.227 321.467 194.327 321.92 194.527 322.28C194.741 322.64 195.054 322.913 195.467 323.1C195.881 323.273 196.374 323.36 196.947 323.36C197.414 323.36 197.821 323.3 198.167 323.18C198.514 323.06 198.794 322.873 199.007 322.62C199.234 322.367 199.394 322.027 199.487 321.6C199.594 321.16 199.647 320.633 199.647 320.02C199.647 319.407 199.594 318.893 199.487 318.48C199.394 318.053 199.234 317.707 199.007 317.44C198.794 317.173 198.514 316.987 198.167 316.88C197.834 316.76 197.427 316.7 196.947 316.7C196.374 316.7 195.881 316.793 195.467 316.98C195.054 317.153 194.741 317.42 194.527 317.78C194.327 318.127 194.227 318.58 194.227 319.14H193.847L193.747 316.7H194.147C194.387 316.127 194.781 315.68 195.327 315.36C195.887 315.027 196.601 314.86 197.467 314.86C198.867 314.86 199.941 315.327 200.687 316.26C201.434 317.193 201.807 318.447 201.807 320.02C201.807 321.593 201.447 322.853 200.727 323.8C200.007 324.733 198.967 325.2 197.607 325.2ZM194.227 328.46H192.087V315.06H194.047V317.42L194.227 317.68V328.46ZM205.714 325H203.554V311.6H205.714V325ZM216.154 325H214.154V323.04L214.094 322.5V318.68C214.094 317.933 213.914 317.427 213.554 317.16C213.207 316.893 212.64 316.76 211.854 316.76C211.067 316.76 210.5 316.9 210.154 317.18C209.82 317.46 209.654 317.927 209.654 318.58V318.88H207.574V318.68C207.574 317.933 207.754 317.273 208.114 316.7C208.487 316.127 209 315.68 209.654 315.36C210.32 315.027 211.094 314.86 211.974 314.86C212.907 314.86 213.68 315.033 214.294 315.38C214.907 315.727 215.367 316.207 215.674 316.82C215.994 317.42 216.154 318.133 216.154 318.96V325ZM210.454 325.2C209.56 325.2 208.807 324.973 208.194 324.52C207.594 324.053 207.294 323.393 207.294 322.54C207.294 321.98 207.42 321.513 207.674 321.14C207.94 320.767 208.32 320.46 208.814 320.22C209.307 319.98 209.907 319.813 210.614 319.72L214.294 319.2V320.72L210.934 321.22C210.36 321.3 209.96 321.42 209.734 321.58C209.507 321.74 209.394 322.007 209.394 322.38C209.394 322.767 209.527 323.047 209.794 323.22C210.074 323.393 210.527 323.48 211.154 323.48C211.634 323.48 212.094 323.407 212.534 323.26C212.987 323.1 213.36 322.84 213.654 322.48C213.947 322.107 214.094 321.587 214.094 320.92L214.374 323.46L214.054 323.44C213.867 323.747 213.607 324.033 213.274 324.3C212.954 324.567 212.56 324.787 212.094 324.96C211.627 325.12 211.08 325.2 210.454 325.2ZM222.643 325.22C221.603 325.22 220.723 325 220.003 324.56C219.283 324.12 218.73 323.513 218.343 322.74C217.97 321.967 217.783 321.067 217.783 320.04C217.783 319.013 217.976 318.113 218.363 317.34C218.763 316.553 219.33 315.947 220.063 315.52C220.796 315.08 221.683 314.86 222.723 314.86C223.603 314.86 224.376 315.027 225.043 315.36C225.71 315.693 226.223 316.16 226.583 316.76C226.956 317.36 227.143 318.06 227.143 318.86V319.04H225.003V318.92C225.003 318.187 224.803 317.653 224.403 317.32C224.016 316.973 223.41 316.8 222.583 316.8C221.623 316.8 220.936 317.073 220.523 317.62C220.123 318.153 219.923 318.953 219.923 320.02C219.923 321.1 220.123 321.913 220.523 322.46C220.936 322.993 221.623 323.26 222.583 323.26C223.41 323.26 224.016 323.093 224.403 322.76C224.803 322.413 225.003 321.88 225.003 321.16V321.04H227.143V321.22C227.143 321.993 226.956 322.687 226.583 323.3C226.21 323.9 225.683 324.373 225.003 324.72C224.336 325.053 223.55 325.22 222.643 325.22ZM233.287 325.2C232.207 325.2 231.307 324.987 230.587 324.56C229.867 324.12 229.333 323.513 228.987 322.74C228.64 321.953 228.467 321.047 228.467 320.02C228.467 318.993 228.66 318.093 229.047 317.32C229.447 316.547 230.007 315.947 230.727 315.52C231.447 315.08 232.3 314.86 233.287 314.86C234.18 314.86 234.967 315.033 235.647 315.38C236.34 315.713 236.873 316.2 237.247 316.84C237.633 317.48 237.827 318.253 237.827 319.16C237.827 319.427 237.813 319.687 237.787 319.94C237.773 320.18 237.753 320.38 237.727 320.54H229.487V319.1H235.967L235.747 319.3C235.8 318.687 235.733 318.187 235.547 317.8C235.373 317.413 235.087 317.127 234.687 316.94C234.3 316.753 233.813 316.66 233.227 316.66C232.173 316.66 231.453 316.927 231.067 317.46C230.68 317.98 230.487 318.7 230.487 319.62V320.22C230.487 320.887 230.567 321.453 230.727 321.92C230.9 322.373 231.193 322.713 231.607 322.94C232.02 323.167 232.587 323.28 233.307 323.28C234.147 323.28 234.74 323.147 235.087 322.88C235.433 322.613 235.607 322.26 235.607 321.82V321.66H237.747V321.84C237.747 322.52 237.56 323.113 237.187 323.62C236.813 324.113 236.293 324.5 235.627 324.78C234.973 325.06 234.193 325.2 233.287 325.2ZM255.51 325H253.35V319.22C253.35 318.34 253.184 317.707 252.85 317.32C252.53 316.92 251.917 316.72 251.01 316.72C250.197 316.72 249.59 316.913 249.19 317.3C248.804 317.673 248.61 318.313 248.61 319.22L248.23 319.26L248.05 316.92H248.37C248.53 316.573 248.75 316.247 249.03 315.94C249.324 315.62 249.697 315.36 250.15 315.16C250.604 314.96 251.157 314.86 251.81 314.86C252.677 314.86 253.377 315.027 253.91 315.36C254.457 315.693 254.857 316.153 255.11 316.74C255.377 317.327 255.51 318 255.51 318.76V325ZM241.71 325H239.55V315.06H241.53V318.04L241.71 318.14V325ZM248.61 325H246.45V319.22C246.45 318.34 246.284 317.707 245.95 317.32C245.63 316.92 245.017 316.72 244.11 316.72C243.297 316.72 242.69 316.907 242.29 317.28C241.904 317.653 241.71 318.293 241.71 319.2L241.33 319.26L241.15 316.92H241.63C241.777 316.56 241.99 316.227 242.27 315.92C242.564 315.613 242.937 315.36 243.39 315.16C243.844 314.96 244.384 314.86 245.01 314.86C245.85 314.86 246.53 315.027 247.05 315.36C247.584 315.693 247.977 316.153 248.23 316.74C248.484 317.327 248.61 318 248.61 318.76V325ZM261.959 325.2C260.879 325.2 259.979 324.987 259.259 324.56C258.539 324.12 258.005 323.513 257.659 322.74C257.312 321.953 257.139 321.047 257.139 320.02C257.139 318.993 257.332 318.093 257.719 317.32C258.119 316.547 258.679 315.947 259.399 315.52C260.119 315.08 260.972 314.86 261.959 314.86C262.852 314.86 263.639 315.033 264.319 315.38C265.012 315.713 265.545 316.2 265.919 316.84C266.305 317.48 266.499 318.253 266.499 319.16C266.499 319.427 266.485 319.687 266.459 319.94C266.445 320.18 266.425 320.38 266.399 320.54H258.159V319.1H264.639L264.419 319.3C264.472 318.687 264.405 318.187 264.219 317.8C264.045 317.413 263.759 317.127 263.359 316.94C262.972 316.753 262.485 316.66 261.899 316.66C260.845 316.66 260.125 316.927 259.739 317.46C259.352 317.98 259.159 318.7 259.159 319.62V320.22C259.159 320.887 259.239 321.453 259.399 321.92C259.572 322.373 259.865 322.713 260.279 322.94C260.692 323.167 261.259 323.28 261.979 323.28C262.819 323.28 263.412 323.147 263.759 322.88C264.105 322.613 264.279 322.26 264.279 321.82V321.66H266.419V321.84C266.419 322.52 266.232 323.113 265.859 323.62C265.485 324.113 264.965 324.5 264.299 324.78C263.645 325.06 262.865 325.2 261.959 325.2ZM277.482 325H275.322V319.22C275.322 318.34 275.155 317.707 274.822 317.32C274.489 316.92 273.862 316.72 272.942 316.72C272.355 316.72 271.875 316.807 271.502 316.98C271.129 317.14 270.849 317.407 270.662 317.78C270.475 318.14 270.382 318.633 270.382 319.26H270.002L269.822 316.92H270.302C270.449 316.56 270.669 316.227 270.962 315.92C271.255 315.613 271.629 315.36 272.082 315.16C272.549 314.96 273.102 314.86 273.742 314.86C274.609 314.86 275.315 315.027 275.862 315.36C276.409 315.693 276.815 316.153 277.082 316.74C277.349 317.327 277.482 318 277.482 318.76V325ZM270.382 325H268.222V315.06H270.202V318.04L270.382 318.14V325ZM283.593 325C282.5 325 281.66 324.767 281.073 324.3C280.5 323.833 280.213 323.047 280.213 321.94V315.28L280.713 312.6H282.373V321.84C282.373 322.36 282.5 322.693 282.753 322.84C283.02 322.973 283.493 323.04 284.173 323.04H285.373V324.82C285.173 324.873 284.913 324.92 284.593 324.96C284.273 324.987 283.94 325 283.593 325ZM285.373 316.86H278.553V315.06H285.373V316.86ZM290.879 325.2C289.425 325.2 288.325 324.913 287.579 324.34C286.832 323.753 286.459 322.853 286.459 321.64V321.6H288.539V321.96C288.539 322.307 288.605 322.593 288.739 322.82C288.885 323.033 289.125 323.193 289.459 323.3C289.805 323.393 290.292 323.44 290.919 323.44C291.452 323.44 291.852 323.4 292.119 323.32C292.399 323.227 292.585 323.1 292.679 322.94C292.772 322.78 292.819 322.58 292.819 322.34C292.819 321.94 292.679 321.66 292.399 321.5C292.119 321.327 291.619 321.173 290.899 321.04L289.339 320.78C288.752 320.66 288.239 320.493 287.799 320.28C287.372 320.053 287.039 319.747 286.799 319.36C286.572 318.96 286.459 318.46 286.459 317.86C286.459 316.967 286.812 316.247 287.519 315.7C288.225 315.14 289.225 314.86 290.519 314.86C291.305 314.86 292.005 314.987 292.619 315.24C293.232 315.493 293.719 315.873 294.079 316.38C294.439 316.887 294.619 317.52 294.619 318.28V318.46H292.559V318.22C292.559 317.9 292.505 317.627 292.399 317.4C292.292 317.16 292.092 316.973 291.799 316.84C291.505 316.707 291.059 316.64 290.459 316.64C289.672 316.64 289.152 316.74 288.899 316.94C288.645 317.14 288.519 317.433 288.519 317.82C288.519 318.207 288.632 318.48 288.859 318.64C289.099 318.787 289.565 318.933 290.259 319.08L291.959 319.4C292.599 319.52 293.132 319.7 293.559 319.94C293.985 320.18 294.305 320.493 294.519 320.88C294.745 321.267 294.859 321.727 294.859 322.26C294.859 323.193 294.505 323.92 293.799 324.44C293.105 324.947 292.132 325.2 290.879 325.2ZM298.901 325H296.161V321.9H298.901V325Z" fill="white"/>
</svg>
