<svg width="100" height="100" viewBox="0 0 100 100" fill="none" xmlns="http://www.w3.org/2000/svg">
<g clip-path="url(#clip0_0_455)">
<path d="M50 74.989C63.8071 74.989 75 63.7961 75 49.9889C75 36.1818 63.8071 24.989 50 24.989C36.1929 24.989 25 36.1818 25 49.9889C25 63.7961 36.1929 74.989 50 74.989Z" fill="white"/>
<path d="M50 25H93.2942C88.9071 17.3987 82.596 11.0865 74.9955 6.69796C67.3951 2.30943 58.7731 -0.000673265 49.9967 -6.09134e-05C41.2202 0.000551438 32.5986 2.31185 24.9988 6.70144C17.3989 11.091 11.0887 17.4042 6.7027 25.0061L28.3498 62.5L28.3692 62.495C26.1671 58.6977 25.005 54.3869 25.0001 49.9972C24.9951 45.6076 26.1475 41.2942 28.3411 37.4919C30.5346 33.6896 33.6918 30.5328 37.4943 28.3397C41.2968 26.1465 45.6103 24.9946 50 25Z" fill="url(#paint0_linear_0_455)"/>
<path d="M50 69.7916C60.9306 69.7916 69.7916 60.9306 69.7916 50C69.7916 39.0693 60.9306 30.2083 50 30.2083C39.0693 30.2083 30.2083 39.0693 30.2083 50C30.2083 60.9306 39.0693 69.7916 50 69.7916Z" fill="#1A73E8"/>
<path d="M71.6485 62.506L50.0014 100C58.7779 100.001 67.3999 97.6917 75.0007 93.3037C82.6014 88.9158 88.9129 82.604 93.3006 75.0031C97.6882 67.4022 99.9974 58.78 99.9958 50.0036C99.9942 41.2272 97.682 32.6058 93.2917 25.0065H49.9977L49.9925 25.0258C54.3822 25.0174 58.6965 26.1663 62.5005 28.3568C66.3046 30.5474 69.4639 33.7021 71.66 37.5029C73.8561 41.3037 75.0114 45.6163 75.0094 50.006C75.0074 54.3957 73.8481 58.7072 71.6485 62.506Z" fill="url(#paint1_linear_0_455)"/>
<path d="M28.3512 62.5065L6.70414 25.0125C2.31482 32.6125 0.00380611 41.2342 0.00347904 50.0106C0.00315197 58.7871 2.31352 67.409 6.70228 75.0093C11.091 82.6096 17.4035 88.9205 25.0049 93.3074C32.6063 97.6943 41.2287 100.003 50.0052 100L71.6523 62.5061L71.6383 62.4919C69.4507 66.2976 66.2985 69.4594 62.4994 71.6585C58.7003 73.8576 54.3886 75.0163 49.999 75.0178C45.6093 75.0193 41.2968 73.8635 37.4963 71.6669C33.6957 69.4704 30.5414 66.3107 28.3512 62.5065Z" fill="url(#paint2_linear_0_455)"/>
</g>
<defs>
<linearGradient id="paint0_linear_0_455" x1="6.7027" y1="31.25" x2="93.2942" y2="31.25" gradientUnits="userSpaceOnUse">
<stop stop-color="#D93025"/>
<stop offset="1" stop-color="#EA4335"/>
</linearGradient>
<linearGradient id="paint1_linear_0_455" x1="43.1706" y1="99.3315" x2="86.4664" y2="24.3411" gradientUnits="userSpaceOnUse">
<stop stop-color="#FCC934"/>
<stop offset="1" stop-color="#FBBC04"/>
</linearGradient>
<linearGradient id="paint2_linear_0_455" x1="55.4127" y1="96.8781" x2="12.1169" y2="21.8875" gradientUnits="userSpaceOnUse">
<stop stop-color="#1E8E3E"/>
<stop offset="1" stop-color="#34A853"/>
</linearGradient>
<clipPath id="clip0_0_455">
<rect width="100" height="100" fill="white"/>
</clipPath>
</defs>
</svg>
