<svg width="100" height="100" viewBox="0 0 100 100" fill="none" xmlns="http://www.w3.org/2000/svg">
<path fill-rule="evenodd" clip-rule="evenodd" d="M49.4063 -0.00158691C26.1122 -0.00158691 6.56423 15.9898 1.06267 37.6096C1.02539 37.767 1.00005 37.9273 1.00005 38.0947C1.00005 39.4094 2.06417 40.4752 3.37681 40.4752H23.4894C24.4471 40.4752 25.2667 39.9024 25.645 39.0847C29.7772 30.0713 38.8574 23.8065 49.4063 23.8065C63.8383 23.8065 75.544 35.5354 75.544 49.999C75.544 64.4631 63.8383 76.1917 49.4063 76.1917C38.8574 76.1917 29.7807 69.926 25.6484 60.91L25.645 60.9152C25.2667 60.096 24.4471 59.524 23.4894 59.524H3.37681C2.06417 59.524 1.00005 60.5869 1.00005 61.9052C1.00005 62.0679 1.02539 62.2234 1.05919 62.3793C6.55926 84.0005 26.1077 99.9984 49.4063 99.9984C76.9633 99.9984 99.3071 77.6097 99.3071 49.999C99.3071 22.3851 76.9633 -0.00158691 49.4063 -0.00158691ZM37.5238 49.999C37.5238 43.4259 42.8452 38.0947 49.4063 38.0947C55.967 38.0947 61.286 43.4259 61.286 49.999C61.286 56.5725 55.967 61.9052 49.4063 61.9052C42.8452 61.9052 37.5238 56.5725 37.5238 49.999Z" fill="black"/>
</svg>
