<svg width="100" height="100" viewBox="0 0 100 100" fill="none" xmlns="http://www.w3.org/2000/svg">
<path fill-rule="evenodd" clip-rule="evenodd" d="M49.2308 24.8312H92.3077V42.2671H49.2308V24.8312Z" fill="white"/>
<path fill-rule="evenodd" clip-rule="evenodd" d="M10.2564 81.7543C6.46256 81.7543 3.15744 79.6891 1.38308 76.6261C0.477173 78.1833 -3.95195e-05 79.9527 2.45466e-09 81.7543C2.45465e-09 87.4189 4.5918 92.0107 10.2564 92.0107H20.5128V81.7543H10.2564Z" fill="#3ECC5F"/>
<path fill-rule="evenodd" clip-rule="evenodd" d="M56.3999 27.5883L92.3076 25.3442V20.216C92.3076 14.5514 87.7158 9.95955 82.0512 9.95955H35.8973L34.6153 7.73904C34.045 6.75186 32.6209 6.75186 32.0512 7.73904L30.7691 9.95955L29.4871 7.73904C28.9173 6.75186 27.4927 6.75186 26.923 7.73904L25.6409 9.95955L24.3589 7.73904C23.7891 6.75186 22.3645 6.75186 21.7948 7.73904L20.5127 9.95955C20.5014 9.95955 20.4912 9.96109 20.4794 9.96109L18.3553 7.8375C17.5502 7.03186 16.1748 7.40007 15.8794 8.50109L15.1773 11.1185L12.5148 10.4047C11.4132 10.1098 10.4066 11.117 10.7019 12.218L11.4148 14.8811L8.79836 15.5821C7.69682 15.8775 7.3281 17.2534 8.13374 18.059L10.2578 20.1831C10.2578 20.1939 10.2563 20.2047 10.2563 20.216L8.03579 21.498C7.04862 22.0678 7.04862 23.4924 8.03579 24.0621L10.2563 25.3442L8.03579 26.6262C7.04862 27.196 7.04862 28.6206 8.03579 29.1903L10.2563 30.4724L8.03579 31.7544C7.04862 32.3242 7.04862 33.7488 8.03579 34.3185L10.2563 35.6006L8.03579 36.8826C7.04862 37.4524 7.04862 38.877 8.03579 39.4467L10.2563 40.7288L8.03579 42.0108C7.04862 42.5806 7.04862 44.0052 8.03579 44.5749L10.2563 45.857L8.03579 47.139C7.04862 47.7088 7.04862 49.1334 8.03579 49.7031L10.2563 50.9852L8.03579 52.2673C7.04862 52.837 7.04862 54.2616 8.03579 54.8314L10.2563 56.1134L8.03579 57.3955C7.04862 57.9652 7.04862 59.3898 8.03579 59.9596L10.2563 61.2416L8.03579 62.5237C7.04862 63.0934 7.04862 64.518 8.03579 65.0878L10.2563 66.3698L8.03579 67.6519C7.04862 68.2216 7.04862 69.6462 8.03579 70.216L10.2563 71.498L8.03579 72.7801C7.04862 73.3498 7.04862 74.7744 8.03579 75.3442L10.2563 76.6262L8.03579 77.9083C7.04862 78.478 7.04862 79.9026 8.03579 80.4724L10.2563 81.7544C10.2563 87.419 14.8481 92.0108 20.5127 92.0108H82.0512C87.7158 92.0108 92.3076 87.419 92.3076 81.7544V40.7288L56.3999 38.4847C55.0139 38.3979 53.713 37.7862 52.7621 36.774C51.8113 35.7618 51.282 34.4252 51.282 33.0365C51.282 30.1539 53.523 27.7683 56.3999 27.5883Z" fill="#3ECC5F"/>
<path fill-rule="evenodd" clip-rule="evenodd" d="M71.7949 92.0107H87.1795V71.4979H71.7949V92.0107Z" fill="#3ECC5F"/>
<path fill-rule="evenodd" clip-rule="evenodd" d="M97.4359 79.1902C97.3236 79.1902 97.2164 79.2091 97.1082 79.223C97.0887 79.1461 97.0703 79.0686 97.0487 78.9917C97.5952 78.7632 98.0457 78.3526 98.3237 77.8295C98.6017 77.3065 98.6901 76.7034 98.5738 76.1226C98.4575 75.5418 98.1437 75.0192 97.6857 74.6435C97.2278 74.2679 96.6539 74.0624 96.0616 74.062C95.5016 74.064 94.9579 74.2507 94.5149 74.5932C94.4581 74.5353 94.4009 74.4778 94.3431 74.4209C94.6781 73.9804 94.8602 73.4426 94.8616 72.8891C94.8612 72.2984 94.6569 71.7258 94.2831 71.2683C93.9093 70.8108 93.389 70.4964 92.8102 70.3783C92.2313 70.2602 91.6295 70.3456 91.1063 70.62C90.5831 70.8944 90.1708 71.3411 89.939 71.8845C89.8631 71.863 89.7867 71.845 89.7108 71.8255C89.7246 71.7173 89.7436 71.6102 89.7436 71.4978C89.7436 70.8178 89.4735 70.1656 88.9926 69.6848C88.5117 69.2039 87.8595 68.9337 87.1795 68.9337C86.4995 68.9337 85.8473 69.2039 85.3664 69.6848C84.8855 70.1656 84.6154 70.8178 84.6154 71.4978C84.6154 71.6102 84.6344 71.7173 84.6482 71.8255C84.5723 71.845 84.4959 71.863 84.42 71.8845C84.189 71.3401 83.7769 70.8923 83.2534 70.617C82.73 70.3418 82.1275 70.256 81.548 70.3743C80.9686 70.4925 80.4478 70.8076 80.0741 71.2659C79.7004 71.7242 79.4966 72.2977 79.4975 72.8891C79.4975 73.4661 79.6944 73.9922 80.0159 74.4209C78.1098 76.2835 76.9231 78.8789 76.9231 81.7543C76.9231 87.4189 81.5149 92.0107 87.1795 92.0107C91.9687 92.0107 95.9795 88.7235 97.1082 84.2855C97.2164 84.2994 97.3236 84.3184 97.4359 84.3184C98.116 84.3184 98.7682 84.0482 99.249 83.5674C99.7299 83.0865 100 82.4343 100 81.7543C100 81.0742 99.7299 80.422 99.249 79.9412C98.7682 79.4603 98.116 79.1902 97.4359 79.1902Z" fill="#44D860"/>
<path fill-rule="evenodd" clip-rule="evenodd" d="M76.9231 61.2415H92.3077V50.985H76.9231V61.2415Z" fill="#3ECC5F"/>
<path fill-rule="evenodd" clip-rule="evenodd" d="M97.4359 57.3956C97.7759 57.3956 98.102 57.2606 98.3425 57.0201C98.5829 56.7797 98.718 56.4536 98.718 56.1136C98.718 55.7736 98.5829 55.4475 98.3425 55.207C98.102 54.9666 97.7759 54.8315 97.4359 54.8315C97.38 54.8315 97.3262 54.8413 97.2723 54.8479C97.2621 54.8095 97.2534 54.771 97.2426 54.7325C97.5155 54.618 97.7404 54.4125 97.8791 54.1511C98.0178 53.8896 98.0618 53.5883 98.0037 53.298C97.9455 53.0078 97.7888 52.7467 97.5601 52.5588C97.3314 52.371 97.0447 52.268 96.7487 52.2674C96.4569 52.2674 96.1908 52.3684 95.9754 52.5331C95.9472 52.5038 95.9185 52.4751 95.8892 52.4469C96.0503 52.2331 96.1487 51.9695 96.1487 51.6808C96.1486 51.3853 96.0465 51.0989 95.8596 50.8701C95.6726 50.6413 95.4124 50.484 95.1229 50.425C94.8334 50.3659 94.5324 50.4087 94.2707 50.546C94.0091 50.6834 93.803 50.9069 93.6872 51.1787C93.2383 51.0517 92.7742 50.9867 92.3077 50.9854C89.4759 50.9854 87.1795 53.2818 87.1795 56.1136C87.1795 58.9454 89.4759 61.2418 92.3077 61.2418C92.7867 61.2418 93.2477 61.171 93.6872 61.0484C93.803 61.3203 94.0091 61.5438 94.2707 61.6811C94.5324 61.8185 94.8334 61.8612 95.1229 61.8022C95.4124 61.7431 95.6726 61.5859 95.8596 61.3571C96.0465 61.1282 96.1486 60.8419 96.1487 60.5464C96.1487 60.2577 96.0503 59.9941 95.8892 59.7802C95.9185 59.752 95.9472 59.7233 95.9754 59.6941C96.1908 59.8587 96.4569 59.9597 96.7487 59.9597C97.045 59.9597 97.3322 59.8571 97.5613 59.6692C97.7905 59.4814 97.9475 59.22 98.0057 58.9295C98.0639 58.639 98.0197 58.3373 97.8806 58.0757C97.7414 57.8141 97.516 57.6088 97.2426 57.4946C97.2534 57.4567 97.2621 57.4177 97.2723 57.3792C97.3262 57.3859 97.38 57.3956 97.4359 57.3956Z" fill="#44D860"/>
<path fill-rule="evenodd" clip-rule="evenodd" d="M30.7692 26.6261C30.4292 26.6261 30.1031 26.491 29.8627 26.2506C29.6223 26.0101 29.4872 25.6841 29.4872 25.344C29.4872 23.223 27.7621 21.4979 25.641 21.4979C23.52 21.4979 21.7949 23.223 21.7949 25.344C21.7949 25.6841 21.6598 26.0101 21.4194 26.2506C21.1789 26.491 20.8528 26.6261 20.5128 26.6261C20.1728 26.6261 19.8467 26.491 19.6063 26.2506C19.3658 26.0101 19.2308 25.6841 19.2308 25.344C19.2308 21.8092 22.1062 18.9338 25.641 18.9338C29.1759 18.9338 32.0513 21.8092 32.0513 25.344C32.0513 25.6841 31.9162 26.0101 31.6758 26.2506C31.4354 26.491 31.1093 26.6261 30.7692 26.6261Z" fill="black"/>
<path fill-rule="evenodd" clip-rule="evenodd" d="M51.282 92.0107H82.0513C87.7159 92.0107 92.3077 87.4189 92.3077 81.7543V45.8568H61.5385C55.8738 45.8568 51.282 50.4486 51.282 56.1133V92.0107Z" fill="#FFFF50"/>
<path fill-rule="evenodd" clip-rule="evenodd" d="M84.6258 61.7545H58.9642C58.8282 61.7545 58.6978 61.7005 58.6016 61.6043C58.5054 61.5082 58.4514 61.3777 58.4514 61.2417C58.4514 61.1057 58.5054 60.9753 58.6016 60.8791C58.6978 60.7829 58.8282 60.7289 58.9642 60.7289H84.6258C84.7618 60.7289 84.8922 60.7829 84.9884 60.8791C85.0845 60.9753 85.1386 61.1057 85.1386 61.2417C85.1386 61.3777 85.0845 61.5082 84.9884 61.6043C84.8922 61.7005 84.7618 61.7545 84.6258 61.7545ZM84.6258 72.011H58.9642C58.8282 72.011 58.6978 71.9569 58.6016 71.8608C58.5054 71.7646 58.4514 71.6341 58.4514 71.4981C58.4514 71.3621 58.5054 71.2317 58.6016 71.1355C58.6978 71.0393 58.8282 70.9853 58.9642 70.9853H84.6258C84.7618 70.9853 84.8922 71.0393 84.9884 71.1355C85.0845 71.2317 85.1386 71.3621 85.1386 71.4981C85.1386 71.6341 85.0845 71.7646 84.9884 71.8608C84.8922 71.9569 84.7618 72.011 84.6258 72.011ZM84.6258 82.2674H58.9642C58.8282 82.2674 58.6978 82.2133 58.6016 82.1172C58.5054 82.021 58.4514 81.8906 58.4514 81.7545C58.4514 81.6185 58.5054 81.4881 58.6016 81.3919C58.6978 81.2958 58.8282 81.2417 58.9642 81.2417H84.6258C84.7618 81.2417 84.8922 81.2958 84.9884 81.3919C85.0845 81.4881 85.1386 81.6185 85.1386 81.7545C85.1386 81.8906 85.0845 82.021 84.9884 82.1172C84.8922 82.2133 84.7618 82.2674 84.6258 82.2674ZM84.6258 56.7217H58.9642C58.8282 56.7217 58.6978 56.6677 58.6016 56.5715C58.5054 56.4754 58.4514 56.3449 58.4514 56.2089C58.4514 56.0729 58.5054 55.9425 58.6016 55.8463C58.6978 55.7501 58.8282 55.6961 58.9642 55.6961H84.6258C84.7618 55.6961 84.8922 55.7501 84.9884 55.8463C85.0845 55.9425 85.1386 56.0729 85.1386 56.2089C85.1386 56.3449 85.0845 56.4754 84.9884 56.5715C84.8922 56.6677 84.7618 56.7217 84.6258 56.7217ZM84.6258 66.8828H58.9642C58.8282 66.8828 58.6978 66.8287 58.6016 66.7326C58.5054 66.6364 58.4514 66.5059 58.4514 66.3699C58.4514 66.2339 58.5054 66.1035 58.6016 66.0073C58.6978 65.9111 58.8282 65.8571 58.9642 65.8571H84.6258C84.7618 65.8571 84.8922 65.9111 84.9884 66.0073C85.0845 66.1035 85.1386 66.2339 85.1386 66.3699C85.1386 66.5059 85.0845 66.6364 84.9884 66.7326C84.8922 66.8287 84.7618 66.8828 84.6258 66.8828ZM84.6258 77.1392H58.9642C58.8282 77.1392 58.6978 77.0851 58.6016 76.989C58.5054 76.8928 58.4514 76.7623 58.4514 76.6263C58.4514 76.4903 58.5054 76.3599 58.6016 76.2637C58.6978 76.1675 58.8282 76.1135 58.9642 76.1135H84.6258C84.7618 76.1135 84.8922 76.1675 84.9884 76.2637C85.0845 76.3599 85.1386 76.4903 85.1386 76.6263C85.1386 76.7623 85.0845 76.8928 84.9884 76.989C84.8922 77.0851 84.7618 77.1392 84.6258 77.1392ZM92.3078 29.7602C92.3017 29.7602 92.2965 29.7571 92.2904 29.7576C90.7058 29.8115 89.956 31.3966 89.2945 32.7951C88.6042 34.2566 88.0704 35.2069 87.1955 35.1781C86.2268 35.1433 85.6729 34.0489 85.0863 32.891C84.4124 31.5607 83.6432 30.052 82.0283 30.1084C80.4663 30.1617 79.714 31.5412 79.0504 32.7581C78.3442 34.0545 77.8637 34.8428 76.937 34.8063C75.9488 34.7704 75.4237 33.8807 74.816 32.851C74.1386 31.7043 73.3555 30.4151 71.7719 30.4592C70.2365 30.512 69.4822 31.6822 68.8165 32.7156C68.1124 33.8079 67.6191 34.4735 66.6806 34.434C65.6688 34.3981 65.1463 33.6597 64.5417 32.8048C63.8627 31.8443 63.0975 30.7571 61.5186 30.8099C60.017 30.8612 59.2627 31.8202 58.5975 32.6653C57.9658 33.4674 57.4724 34.1022 56.4288 34.0622C56.2928 34.0573 56.1604 34.1067 56.0608 34.1994C55.9612 34.2921 55.9024 34.4206 55.8975 34.5566C55.8927 34.6926 55.942 34.825 56.0347 34.9246C56.1274 35.0243 56.2559 35.083 56.3919 35.0879C57.9391 35.1397 58.7227 34.1648 59.4032 33.2997C60.0068 32.5325 60.5278 31.8704 61.5534 31.8356C62.5411 31.7935 63.0042 32.4074 63.7047 33.3971C64.3699 34.3376 65.1247 35.4043 66.6437 35.4592C68.235 35.5125 69.0006 34.3233 69.6786 33.271C70.2847 32.3304 70.8078 31.5187 71.8068 31.4843C72.7263 31.4499 73.2268 32.1766 73.9324 33.372C74.5975 34.4987 75.3509 35.7751 76.9001 35.8315C78.5027 35.8869 79.2765 34.4879 79.9509 33.2494C80.535 32.1787 81.0863 31.1674 82.0632 31.1335C82.9827 31.112 83.4622 31.9515 84.1714 33.354C84.834 34.6633 85.5852 36.1463 87.1586 36.2033L87.2452 36.2048C88.8165 36.2048 89.5622 34.6279 90.2222 33.2335C90.8063 31.9976 91.3591 30.8335 92.3078 30.7858V29.7602Z" fill="black"/>
<path fill-rule="evenodd" clip-rule="evenodd" d="M41.0256 92.0107H61.5385V71.4979H41.0256V92.0107Z" fill="#3ECC5F"/>
<path d="M92.1841 38.7913L52.2978 49.4788C51.7506 49.6254 51.4259 50.1878 51.5725 50.735L55.4703 65.2818C55.6169 65.8289 56.1793 66.1536 56.7265 66.007L96.6128 55.3195C97.1599 55.1729 97.4846 54.6105 97.338 54.0634L93.4402 39.5165C93.2936 38.9694 92.7312 38.6447 92.1841 38.7913Z" fill="#D8D8D8"/>
<path d="M64.3358 57.4421L62.9077 57.8248C62.6341 57.8981 62.4718 58.1793 62.5451 58.4529L62.9277 59.881C63.001 60.1545 63.2822 60.3169 63.5558 60.2436L64.9839 59.8609C65.2575 59.7876 65.4198 59.5064 65.3465 59.2328L64.9639 57.8048C64.8906 57.5312 64.6094 57.3688 64.3358 57.4421Z" fill="#4A4A4A"/>
<path d="M67.2024 56.6738L65.7743 57.0565C65.5007 57.1298 65.3384 57.411 65.4117 57.6845L65.7943 59.1126C65.8676 59.3862 66.1488 59.5485 66.4224 59.4752L67.8505 59.0926C68.124 59.0193 68.2864 58.7381 68.2131 58.4645L67.8304 57.0364C67.7571 56.7628 67.4759 56.6005 67.2024 56.6738Z" fill="#4A4A4A"/>
<path d="M70.0689 55.9059L68.6409 56.2886C68.3673 56.3619 68.2049 56.6431 68.2782 56.9167L68.6609 58.3448C68.7342 58.6183 69.0154 58.7807 69.289 58.7074L70.717 58.3247C70.9906 58.2514 71.153 57.9702 71.0797 57.6966L70.697 56.2686C70.6237 55.995 70.3425 55.8326 70.0689 55.9059Z" fill="#4A4A4A"/>
<path d="M72.9355 55.1378L71.5074 55.5205C71.2339 55.5938 71.0715 55.875 71.1448 56.1486L71.5275 57.5767C71.6008 57.8502 71.882 58.0126 72.1555 57.9393L73.5836 57.5566C73.8572 57.4833 74.0195 57.2021 73.9462 56.9286L73.5636 55.5005C73.4903 55.2269 73.2091 55.0645 72.9355 55.1378Z" fill="#4A4A4A"/>
<path d="M75.8021 54.3696L74.374 54.7523C74.1004 54.8256 73.9381 55.1068 74.0114 55.3803L74.394 56.8084C74.4673 57.082 74.7485 57.2443 75.0221 57.171L76.4502 56.7884C76.7238 56.7151 76.8861 56.4339 76.8128 56.1603L76.4302 54.7322C76.3569 54.4586 76.0757 54.2963 75.8021 54.3696Z" fill="#4A4A4A"/>
<path d="M78.6687 53.6019L77.2406 53.9845C76.967 54.0578 76.8047 54.339 76.878 54.6126L77.2606 56.0407C77.3339 56.3143 77.6151 56.4766 77.8887 56.4033L79.3168 56.0206C79.5904 55.9473 79.7527 55.6661 79.6794 55.3926L79.2967 53.9645C79.2234 53.6909 78.9422 53.5286 78.6687 53.6019Z" fill="#4A4A4A"/>
<path d="M81.5352 52.8336L80.1072 53.2162C79.8336 53.2895 79.6712 53.5707 79.7445 53.8443L80.1272 55.2724C80.2005 55.5459 80.4817 55.7083 80.7553 55.635L82.1834 55.2523C82.4569 55.179 82.6193 54.8978 82.546 54.6243L82.1633 53.1962C82.09 52.9226 81.8088 52.7603 81.5352 52.8336Z" fill="#4A4A4A"/>
<path d="M84.4018 52.0655L82.9737 52.4481C82.7002 52.5214 82.5378 52.8026 82.6111 53.0762L82.9938 54.5043C83.0671 54.7778 83.3483 54.9402 83.6218 54.8669L85.0499 54.4842C85.3235 54.4109 85.4859 54.1297 85.4126 53.8562L85.0299 52.4281C84.9566 52.1545 84.6754 51.9922 84.4018 52.0655Z" fill="#4A4A4A"/>
<path d="M87.2685 51.2972L85.8404 51.6798C85.5668 51.7531 85.4045 52.0343 85.4778 52.3079L85.8604 53.736C85.9337 54.0096 86.2149 54.1719 86.4885 54.0986L87.9166 53.716C88.1901 53.6427 88.3525 53.3615 88.2792 53.0879L87.8965 51.6598C87.8232 51.3862 87.542 51.2239 87.2685 51.2972Z" fill="#4A4A4A"/>
<path fill-rule="evenodd" clip-rule="evenodd" d="M55.2939 59.8657L61.3798 58.235C61.5111 58.1998 61.6511 58.2182 61.7689 58.2862C61.8867 58.3542 61.9726 58.4662 62.0078 58.5976L62.3904 60.0252C62.4256 60.1566 62.4071 60.2965 62.3391 60.4143C62.2711 60.5321 62.1591 60.618 62.0277 60.6533L55.9419 62.2839C55.8105 62.3191 55.6706 62.3007 55.5528 62.2327C55.435 62.1647 55.349 62.0527 55.3138 61.9213L54.9312 60.4932C54.896 60.3619 54.9144 60.2219 54.9824 60.1041C55.0504 59.9863 55.1624 59.9004 55.2938 59.8652L55.2939 59.8657ZM88.7962 50.8888L94.8825 49.2579C95.0139 49.2227 95.1539 49.2412 95.2717 49.3092C95.3895 49.3772 95.4754 49.4892 95.5106 49.6205L95.8931 51.0481C95.9283 51.1795 95.9099 51.3195 95.8419 51.4373C95.7739 51.5551 95.6619 51.641 95.5305 51.6762L89.4437 53.3072C89.3123 53.3424 89.1723 53.3239 89.0546 53.2559C88.9368 53.1879 88.8508 53.0759 88.8156 52.9446L88.433 51.5165C88.3978 51.3851 88.4162 51.2451 88.4842 51.1273C88.5522 51.0095 88.6642 50.9236 88.7956 50.8884L88.7962 50.8888Z" fill="#4A4A4A"/>
<path fill-rule="evenodd" clip-rule="evenodd" d="M53.7428 54.0769L56.066 53.4544C56.1974 53.4192 56.3374 53.4376 56.4552 53.5056C56.5729 53.5736 56.6589 53.6856 56.6941 53.817L57.0766 55.2446C57.1118 55.376 57.0934 55.516 57.0254 55.6338C56.9574 55.7515 56.8454 55.8375 56.714 55.8727L54.3908 56.4952C54.2594 56.5304 54.1195 56.512 54.0017 56.4439C53.8839 56.3759 53.7979 56.2639 53.7627 56.1326L53.3802 54.705C53.345 54.5736 53.3635 54.4336 53.4315 54.3158C53.4995 54.198 53.6115 54.1121 53.7428 54.0769Z" fill="#4A4A4A"/>
<path d="M58.933 52.6859L57.5049 53.0686C57.2314 53.1419 57.069 53.4231 57.1423 53.6967L57.525 55.1248C57.5983 55.3983 57.8795 55.5607 58.153 55.4874L59.5811 55.1047C59.8547 55.0314 60.017 54.7502 59.9437 54.4766L59.5611 53.0486C59.4878 52.775 59.2066 52.6126 58.933 52.6859Z" fill="#4A4A4A"/>
<path d="M61.7995 51.9177L60.3714 52.3003C60.0978 52.3737 59.9355 52.6548 60.0088 52.9284L60.3914 54.3565C60.4647 54.6301 60.7459 54.7924 61.0195 54.7191L62.4476 54.3365C62.7211 54.2632 62.8835 53.982 62.8102 53.7084L62.4275 52.2803C62.3542 52.0067 62.073 51.8444 61.7995 51.9177Z" fill="#4A4A4A"/>
<path d="M64.666 51.15L63.238 51.5326C62.9644 51.6059 62.802 51.8871 62.8753 52.1607L63.258 53.5888C63.3313 53.8623 63.6125 54.0247 63.8861 53.9514L65.3142 53.5687C65.5877 53.4954 65.7501 53.2142 65.6768 52.9407L65.2941 51.5126C65.2208 51.239 64.9396 51.0767 64.666 51.15Z" fill="#4A4A4A"/>
<path d="M67.5327 50.3817L66.1047 50.7643C65.8311 50.8376 65.6687 51.1188 65.742 51.3924L66.1247 52.8205C66.198 53.0941 66.4792 53.2564 66.7528 53.1831L68.1809 52.8005C68.4544 52.7272 68.6168 52.446 68.5435 52.1724L68.1608 50.7443C68.0875 50.4707 67.8063 50.3084 67.5327 50.3817Z" fill="#4A4A4A"/>
<path d="M70.3993 49.6136L68.9712 49.9962C68.6977 50.0695 68.5353 50.3507 68.6086 50.6243L68.9913 52.0524C69.0646 52.326 69.3458 52.4883 69.6193 52.415L71.0474 52.0324C71.321 51.9591 71.4834 51.6779 71.4101 51.4043L71.0274 49.9762C70.9541 49.7026 70.6729 49.5403 70.3993 49.6136Z" fill="#4A4A4A"/>
<path d="M73.2658 48.8453L71.8378 49.2279C71.5642 49.3012 71.4018 49.5824 71.4751 49.856L71.8578 51.2841C71.9311 51.5577 72.2123 51.72 72.4859 51.6467L73.9139 51.2641C74.1875 51.1907 74.3499 50.9096 74.2766 50.636L73.8939 49.2079C73.8206 48.9343 73.5394 48.772 73.2658 48.8453Z" fill="#4A4A4A"/>
<path d="M76.1324 48.0775L74.7043 48.4602C74.4308 48.5335 74.2684 48.8147 74.3417 49.0883L74.7244 50.5164C74.7977 50.7899 75.0789 50.9523 75.3524 50.879L76.7805 50.4963C77.0541 50.423 77.2164 50.1418 77.1431 49.8682L76.7605 48.4402C76.6872 48.1666 76.406 48.0042 76.1324 48.0775Z" fill="#4A4A4A"/>
<path d="M78.999 47.3093L77.5709 47.6919C77.2973 47.7653 77.135 48.0465 77.2083 48.32L77.5909 49.7481C77.6642 50.0217 77.9454 50.184 78.219 50.1107L79.6471 49.7281C79.9207 49.6548 80.083 49.3736 80.0097 49.1L79.6271 47.6719C79.5538 47.3983 79.2726 47.236 78.999 47.3093Z" fill="#4A4A4A"/>
<path d="M81.8651 46.5411L80.437 46.9237C80.1634 46.997 80.0011 47.2782 80.0744 47.5518L80.457 48.9799C80.5303 49.2535 80.8115 49.4158 81.0851 49.3425L82.5132 48.9599C82.7868 48.8865 82.9491 48.6054 82.8758 48.3318L82.4932 46.9037C82.4199 46.6301 82.1387 46.4678 81.8651 46.5411Z" fill="#4A4A4A"/>
<path d="M84.7317 45.7732L83.3036 46.1559C83.03 46.2292 82.8677 46.5104 82.941 46.784L83.3236 48.212C83.3969 48.4856 83.6781 48.648 83.9517 48.5747L85.3798 48.192C85.6533 48.1187 85.8157 47.8375 85.7424 47.5639L85.3597 46.1358C85.2864 45.8623 85.0052 45.6999 84.7317 45.7732Z" fill="#4A4A4A"/>
<path d="M87.5982 45.0051L86.1702 45.3878C85.8966 45.4611 85.7342 45.7423 85.8075 46.0159L86.1902 47.4439C86.2635 47.7175 86.5447 47.8799 86.8183 47.8066L88.2463 47.4239C88.5199 47.3506 88.6823 47.0694 88.609 46.7958L88.2263 45.3677C88.153 45.0942 87.8718 44.9318 87.5982 45.0051Z" fill="#4A4A4A"/>
<path d="M90.4648 44.2369L89.0367 44.6195C88.7632 44.6928 88.6008 44.974 88.6741 45.2476L89.0568 46.6757C89.1301 46.9493 89.4113 47.1116 89.6848 47.0383L91.1129 46.6557C91.3865 46.5824 91.5488 46.3012 91.4755 46.0276L91.0929 44.5995C91.0196 44.3259 90.7384 44.1636 90.4648 44.2369Z" fill="#4A4A4A"/>
<path d="M93.3314 43.4692L91.9034 43.8518C91.6298 43.9251 91.4674 44.2063 91.5407 44.4799L91.9234 45.908C91.9967 46.1816 92.2779 46.3439 92.5515 46.2706L93.9796 45.888C94.2531 45.8147 94.4155 45.5335 94.3422 45.2599L93.9595 43.8318C93.8862 43.5582 93.605 43.3959 93.3314 43.4692Z" fill="#4A4A4A"/>
<path fill-rule="evenodd" clip-rule="evenodd" d="M93.2445 43.1449L90.9208 43.7675C90.7894 43.8027 90.6494 43.7843 90.5317 43.7163C90.4139 43.6483 90.3279 43.5363 90.2927 43.4049L89.9101 41.9768C89.8749 41.8454 89.8933 41.7054 89.9613 41.5877C90.0293 41.4699 90.1413 41.3839 90.2727 41.3487L92.5964 40.7261C92.7277 40.6909 92.8677 40.7093 92.9855 40.7773C93.1033 40.8453 93.1892 40.9573 93.2244 41.0887L93.6071 42.5168C93.6423 42.6482 93.6239 42.7882 93.5558 42.9059C93.4878 43.0237 93.3758 43.1097 93.2445 43.1449Z" fill="#4A4A4A"/>
<path d="M88.0542 44.5356L89.4823 44.1529C89.7559 44.0796 89.9182 43.7984 89.8449 43.5249L89.4623 42.0968C89.389 41.8232 89.1078 41.6608 88.8342 41.7342L87.4061 42.1168C87.1325 42.1901 86.9702 42.4713 87.0435 42.7449L87.4262 44.173C87.4995 44.4465 87.7807 44.6089 88.0542 44.5356Z" fill="#4A4A4A"/>
<path d="M85.1879 45.3039L86.616 44.9212C86.8896 44.8479 87.0519 44.5667 86.9786 44.2932L86.5959 42.8651C86.5226 42.5915 86.2414 42.4292 85.9679 42.5025L84.5398 42.8851C84.2662 42.9584 84.1039 43.2396 84.1772 43.5132L84.5598 44.9413C84.6331 45.2148 84.9143 45.3772 85.1879 45.3039Z" fill="#4A4A4A"/>
<path d="M82.3213 46.0716L83.7493 45.689C84.0229 45.6157 84.1853 45.3345 84.112 45.0609L83.7293 43.6328C83.656 43.3592 83.3748 43.1969 83.1012 43.2702L81.6732 43.6528C81.3996 43.7262 81.2372 44.0074 81.3105 44.2809L81.6932 45.709C81.7665 45.9826 82.0477 46.1449 82.3213 46.0716Z" fill="#4A4A4A"/>
<path d="M79.4547 46.8398L80.8828 46.4572C81.1563 46.3839 81.3187 46.1027 81.2454 45.8291L80.8627 44.401C80.7894 44.1275 80.5082 43.9651 80.2347 44.0384L78.8066 44.4211C78.533 44.4944 78.3706 44.7756 78.444 45.0491L78.8266 46.4772C78.8999 46.7508 79.1811 46.9131 79.4547 46.8398Z" fill="#4A4A4A"/>
<path d="M76.5881 47.6081L78.0162 47.2254C78.2898 47.1521 78.4521 46.8709 78.3788 46.5973L77.9962 45.1693C77.9229 44.8957 77.6417 44.7333 77.3681 44.8066L75.94 45.1893C75.6664 45.2626 75.5041 45.5438 75.5774 45.8174L75.96 47.2454C76.0333 47.519 76.3145 47.6814 76.5881 47.6081Z" fill="#4A4A4A"/>
<path d="M73.7215 48.3763L75.1496 47.9937C75.4232 47.9204 75.5855 47.6392 75.5122 47.3656L75.1296 45.9375C75.0563 45.6639 74.7751 45.5016 74.5015 45.5749L73.0734 45.9575C72.7998 46.0308 72.6375 46.312 72.7108 46.5856L73.0935 48.0137C73.1668 48.2873 73.448 48.4496 73.7215 48.3763Z" fill="#4A4A4A"/>
<path d="M70.855 49.144L72.283 48.7614C72.5566 48.6881 72.719 48.4069 72.6457 48.1333L72.263 46.7052C72.1897 46.4317 71.9085 46.2693 71.6349 46.3426L70.2068 46.7253C69.9333 46.7986 69.7709 47.0798 69.8442 47.3533L70.2269 48.7814C70.3002 49.055 70.5814 49.2173 70.855 49.144Z" fill="#4A4A4A"/>
<path d="M67.9884 49.9123L69.4165 49.5296C69.69 49.4563 69.8524 49.1751 69.7791 48.9015L69.3964 47.4735C69.3231 47.1999 69.0419 47.0375 68.7683 47.1108L67.3403 47.4935C67.0667 47.5668 66.9043 47.848 66.9776 48.1216L67.3603 49.5496C67.4336 49.8232 67.7148 49.9856 67.9884 49.9123Z" fill="#4A4A4A"/>
<path d="M65.1218 50.6805L66.5499 50.2978C66.8235 50.2245 66.9858 49.9433 66.9125 49.6698L66.5298 48.2417C66.4565 47.9681 66.1753 47.8057 65.9018 47.8791L64.4737 48.2617C64.2001 48.335 64.0378 48.6162 64.1111 48.8898L64.4937 50.3179C64.567 50.5914 64.8482 50.7538 65.1218 50.6805Z" fill="#4A4A4A"/>
<path d="M62.2552 51.4487L63.6832 51.0661C63.9568 50.9928 64.1192 50.7116 64.0459 50.438L63.6632 49.0099C63.5899 48.7363 63.3087 48.574 63.0351 48.6473L61.607 49.03C61.3335 49.1033 61.1711 49.3845 61.2444 49.658L61.6271 51.0861C61.7004 51.3597 61.9816 51.522 62.2552 51.4487Z" fill="#4A4A4A"/>
<path d="M59.3885 52.2166L60.8166 51.8339C61.0902 51.7606 61.2525 51.4794 61.1792 51.2058L60.7966 49.7777C60.7233 49.5042 60.4421 49.3418 60.1685 49.4151L58.7404 49.7978C58.4668 49.8711 58.3045 50.1523 58.3778 50.4259L58.7604 51.8539C58.8337 52.1275 59.1149 52.2899 59.3885 52.2166Z" fill="#4A4A4A"/>
<path d="M56.5219 52.9847L57.95 52.602C58.2236 52.5287 58.3859 52.2475 58.3126 51.9739L57.93 50.5458C57.8567 50.2723 57.5755 50.1099 57.3019 50.1832L55.8738 50.5659C55.6003 50.6392 55.4379 50.9204 55.5112 51.1939L55.8939 52.622C55.9672 52.8956 56.2484 53.058 56.5219 52.9847Z" fill="#4A4A4A"/>
<path d="M53.6559 53.7524L55.084 53.3698C55.3576 53.2965 55.5199 53.0153 55.4466 52.7417L55.064 51.3136C54.9907 51.04 54.7095 50.8777 54.4359 50.951L53.0078 51.3336C52.7342 51.4069 52.5719 51.6881 52.6452 51.9617L53.0278 53.3898C53.1011 53.6634 53.3823 53.8257 53.6559 53.7524Z" fill="#4A4A4A"/>
<path d="M88.0542 44.5356L89.4823 44.1529C89.7559 44.0796 89.9182 43.7984 89.8449 43.5249L89.4623 42.0968C89.389 41.8232 89.1078 41.6608 88.8342 41.7342L87.4061 42.1168C87.1325 42.1901 86.9702 42.4713 87.0435 42.7449L87.4262 44.173C87.4995 44.4465 87.7807 44.6089 88.0542 44.5356Z" fill="#4A4A4A"/>
<path d="M85.1879 45.3039L86.616 44.9212C86.8896 44.8479 87.0519 44.5667 86.9786 44.2932L86.5959 42.8651C86.5226 42.5915 86.2414 42.4292 85.9679 42.5025L84.5398 42.8851C84.2662 42.9584 84.1039 43.2396 84.1772 43.5132L84.5598 44.9413C84.6331 45.2148 84.9143 45.3772 85.1879 45.3039Z" fill="#4A4A4A"/>
<path d="M82.3213 46.0716L83.7493 45.689C84.0229 45.6157 84.1853 45.3345 84.112 45.0609L83.7293 43.6328C83.656 43.3592 83.3748 43.1969 83.1012 43.2702L81.6732 43.6528C81.3996 43.7262 81.2372 44.0074 81.3105 44.2809L81.6932 45.709C81.7665 45.9826 82.0477 46.1449 82.3213 46.0716Z" fill="#4A4A4A"/>
<path d="M79.4547 46.8398L80.8828 46.4572C81.1563 46.3839 81.3187 46.1027 81.2454 45.8291L80.8627 44.401C80.7894 44.1275 80.5082 43.9651 80.2347 44.0384L78.8066 44.4211C78.533 44.4944 78.3706 44.7756 78.444 45.0491L78.8266 46.4772C78.8999 46.7508 79.1811 46.9131 79.4547 46.8398Z" fill="#4A4A4A"/>
<path d="M76.5881 47.6081L78.0162 47.2254C78.2898 47.1521 78.4521 46.8709 78.3788 46.5973L77.9962 45.1693C77.9229 44.8957 77.6417 44.7333 77.3681 44.8066L75.94 45.1893C75.6664 45.2626 75.5041 45.5438 75.5774 45.8174L75.96 47.2454C76.0333 47.519 76.3145 47.6814 76.5881 47.6081Z" fill="#4A4A4A"/>
<path d="M73.7215 48.3763L75.1496 47.9937C75.4232 47.9204 75.5855 47.6392 75.5122 47.3656L75.1296 45.9375C75.0563 45.6639 74.7751 45.5016 74.5015 45.5749L73.0734 45.9575C72.7998 46.0308 72.6375 46.312 72.7108 46.5856L73.0935 48.0137C73.1668 48.2873 73.448 48.4496 73.7215 48.3763Z" fill="#4A4A4A"/>
<path d="M70.855 49.144L72.283 48.7614C72.5566 48.6881 72.719 48.4069 72.6457 48.1333L72.263 46.7052C72.1897 46.4317 71.9085 46.2693 71.6349 46.3426L70.2068 46.7253C69.9333 46.7986 69.7709 47.0798 69.8442 47.3533L70.2269 48.7814C70.3002 49.055 70.5814 49.2173 70.855 49.144Z" fill="#4A4A4A"/>
<path d="M67.9884 49.9123L69.4165 49.5296C69.69 49.4563 69.8524 49.1751 69.7791 48.9015L69.3964 47.4735C69.3231 47.1999 69.0419 47.0375 68.7683 47.1108L67.3403 47.4935C67.0667 47.5668 66.9043 47.848 66.9776 48.1216L67.3603 49.5496C67.4336 49.8232 67.7148 49.9856 67.9884 49.9123Z" fill="#4A4A4A"/>
<path d="M65.1218 50.6805L66.5499 50.2978C66.8235 50.2245 66.9858 49.9433 66.9125 49.6698L66.5298 48.2417C66.4565 47.9681 66.1753 47.8057 65.9018 47.8791L64.4737 48.2617C64.2001 48.335 64.0378 48.6162 64.1111 48.8898L64.4937 50.3179C64.567 50.5914 64.8482 50.7538 65.1218 50.6805Z" fill="#4A4A4A"/>
<path d="M62.2552 51.4487L63.6832 51.0661C63.9568 50.9928 64.1192 50.7116 64.0459 50.438L63.6632 49.0099C63.5899 48.7363 63.3087 48.574 63.0351 48.6473L61.607 49.03C61.3335 49.1033 61.1711 49.3845 61.2444 49.658L61.6271 51.0861C61.7004 51.3597 61.9816 51.522 62.2552 51.4487Z" fill="#4A4A4A"/>
<path d="M59.3885 52.2166L60.8166 51.8339C61.0902 51.7606 61.2525 51.4794 61.1792 51.2058L60.7966 49.7777C60.7233 49.5042 60.4421 49.3418 60.1685 49.4151L58.7404 49.7978C58.4668 49.8711 58.3045 50.1523 58.3778 50.4259L58.7604 51.8539C58.8337 52.1275 59.1149 52.2899 59.3885 52.2166Z" fill="#4A4A4A"/>
<path d="M56.5219 52.9847L57.95 52.602C58.2236 52.5287 58.3859 52.2475 58.3126 51.9739L57.93 50.5458C57.8567 50.2723 57.5755 50.1099 57.3019 50.1832L55.8738 50.5659C55.6003 50.6392 55.4379 50.9204 55.5112 51.1939L55.8939 52.622C55.9672 52.8956 56.2484 53.058 56.5219 52.9847Z" fill="#4A4A4A"/>
<path d="M53.6559 53.7524L55.084 53.3698C55.3576 53.2965 55.5199 53.0153 55.4466 52.7417L55.064 51.3136C54.9907 51.04 54.7095 50.8777 54.4359 50.951L53.0078 51.3336C52.7342 51.4069 52.5719 51.6881 52.6452 51.9617L53.0278 53.3898C53.1011 53.6634 53.3823 53.8257 53.6559 53.7524Z" fill="#4A4A4A"/>
<path fill-rule="evenodd" clip-rule="evenodd" d="M54.5108 56.9427L57.8197 56.056C57.9511 56.0208 58.0911 56.0393 58.2088 56.1073C58.3266 56.1753 58.4126 56.2873 58.4478 56.4186L58.8304 57.8467C58.8656 57.9781 58.8472 58.1181 58.7792 58.2359C58.7112 58.3537 58.5992 58.4396 58.4678 58.4748L55.1589 59.3614C55.0275 59.3966 54.8875 59.3782 54.7698 59.3102C54.652 59.2422 54.566 59.1302 54.5308 58.9988L54.1483 57.5712C54.1131 57.4398 54.1315 57.2999 54.1995 57.1821C54.2675 57.0643 54.3795 56.9783 54.5109 56.9431L54.5108 56.9427Z" fill="#4A4A4A"/>
<path d="M60.776 55.2635L59.3479 55.6461C59.0744 55.7194 58.912 56.0006 58.9853 56.2742L59.368 57.7023C59.4413 57.9758 59.7225 58.1382 59.9961 58.0649L61.4241 57.6822C61.6977 57.6089 61.8601 57.3277 61.7868 57.0542L61.4041 55.6261C61.3308 55.3525 61.0496 55.1902 60.776 55.2635Z" fill="#4A4A4A"/>
<path d="M63.6425 54.4951L62.2145 54.8777C61.9409 54.951 61.7785 55.2322 61.8518 55.5058L62.2345 56.9339C62.3078 57.2075 62.589 57.3698 62.8626 57.2965L64.2907 56.9139C64.5642 56.8406 64.7266 56.5594 64.6533 56.2858L64.2706 54.8577C64.1973 54.5841 63.9161 54.4218 63.6425 54.4951Z" fill="#4A4A4A"/>
<path d="M66.5091 53.7274L65.081 54.11C64.8075 54.1833 64.6451 54.4645 64.7184 54.7381L65.1011 56.1662C65.1744 56.4398 65.4556 56.6021 65.7291 56.5288L67.1572 56.1462C67.4308 56.0729 67.5932 55.7917 67.5199 55.5181L67.1372 54.09C67.0639 53.8164 66.7827 53.6541 66.5091 53.7274Z" fill="#4A4A4A"/>
<path d="M69.3757 52.959L67.9476 53.3417C67.674 53.415 67.5117 53.6962 67.585 53.9698L67.9677 55.3979C68.041 55.6714 68.3222 55.8338 68.5957 55.7605L70.0238 55.3778C70.2974 55.3045 70.4597 55.0233 70.3864 54.7497L70.0038 53.3217C69.9305 53.0481 69.6493 52.8857 69.3757 52.959Z" fill="#4A4A4A"/>
<path d="M72.2423 52.1909L70.8142 52.5736C70.5406 52.6469 70.3783 52.9281 70.4516 53.2017L70.8342 54.6298C70.9075 54.9033 71.1887 55.0657 71.4623 54.9924L72.8904 54.6097C73.164 54.5364 73.3263 54.2552 73.253 53.9817L72.8704 52.5536C72.797 52.28 72.5159 52.1176 72.2423 52.1909Z" fill="#4A4A4A"/>
<path d="M75.1089 51.4227L73.6808 51.8054C73.4072 51.8787 73.2448 52.1599 73.3182 52.4334L73.7008 53.8615C73.7741 54.1351 74.0553 54.2974 74.3289 54.2241L75.757 53.8415C76.0305 53.7682 76.1929 53.487 76.1196 53.2134L75.7369 51.7853C75.6636 51.5117 75.3824 51.3494 75.1089 51.4227Z" fill="#4A4A4A"/>
<path d="M77.9754 50.655L76.5473 51.0376C76.2738 51.1109 76.1114 51.3921 76.1847 51.6657L76.5674 53.0938C76.6407 53.3674 76.9219 53.5297 77.1955 53.4564L78.6235 53.0737C78.8971 53.0004 79.0595 52.7192 78.9862 52.4457L78.6035 51.0176C78.5302 50.744 78.249 50.5817 77.9754 50.655Z" fill="#4A4A4A"/>
<path d="M80.8415 49.8868L79.4134 50.2694C79.1399 50.3427 78.9775 50.6239 79.0508 50.8975L79.4335 52.3256C79.5068 52.5992 79.788 52.7615 80.0615 52.6882L81.4896 52.3056C81.7632 52.2323 81.9256 51.9511 81.8522 51.6775L81.4696 50.2494C81.3963 49.9758 81.1151 49.8135 80.8415 49.8868Z" fill="#4A4A4A"/>
<path d="M83.7082 49.1185L82.2801 49.5012C82.0065 49.5745 81.8442 49.8557 81.9175 50.1292L82.3001 51.5573C82.3734 51.8309 82.6546 51.9932 82.9282 51.9199L84.3563 51.5373C84.6298 51.464 84.7922 51.1828 84.7189 50.9092L84.3362 49.4811C84.2629 49.2075 83.9817 49.0452 83.7082 49.1185Z" fill="#4A4A4A"/>
<path d="M86.5745 48.3508L85.1464 48.7334C84.8728 48.8067 84.7105 49.0879 84.7838 49.3615L85.1664 50.7896C85.2397 51.0632 85.5209 51.2255 85.7945 51.1522L87.2226 50.7695C87.4962 50.6962 87.6585 50.415 87.5852 50.1415L87.2026 48.7134C87.1293 48.4398 86.8481 48.2775 86.5745 48.3508Z" fill="#4A4A4A"/>
<path d="M89.4411 47.5825L88.013 47.9652C87.7394 48.0385 87.5771 48.3197 87.6504 48.5933L88.033 50.0214C88.1063 50.2949 88.3875 50.4573 88.6611 50.384L90.0892 50.0013C90.3628 49.928 90.5251 49.6468 90.4518 49.3733L90.0691 47.9452C89.9958 47.6716 89.7146 47.5092 89.4411 47.5825Z" fill="#4A4A4A"/>
<path fill-rule="evenodd" clip-rule="evenodd" d="M90.9697 47.1734L94.0993 46.3348C94.2307 46.2996 94.3707 46.318 94.4885 46.386C94.6062 46.454 94.6922 46.566 94.7274 46.6974L95.11 48.1255C95.1452 48.2569 95.1268 48.3968 95.0588 48.5146C94.9908 48.6324 94.8788 48.7184 94.7474 48.7536L91.6173 49.5923C91.486 49.6275 91.346 49.609 91.2282 49.541C91.1104 49.473 91.0245 49.361 90.9893 49.2296L90.6067 47.8021C90.5715 47.6707 90.59 47.5307 90.658 47.4129C90.726 47.2951 90.838 47.2092 90.9694 47.174L90.9697 47.1734Z" fill="#4A4A4A"/>
<path d="M57.5232 62.4727L56.0951 62.8554C55.8215 62.9287 55.6592 63.2099 55.7325 63.4834L56.1151 64.9115C56.1884 65.1851 56.4696 65.3475 56.7432 65.2741L58.1713 64.8915C58.4448 64.8182 58.6072 64.537 58.5339 64.2634L58.1512 62.8353C58.0779 62.5618 57.7967 62.3994 57.5232 62.4727Z" fill="#4A4A4A"/>
<path d="M60.3897 61.7043L58.9617 62.087C58.6881 62.1603 58.5257 62.4415 58.599 62.7151L58.9817 64.1432C59.055 64.4167 59.3362 64.5791 59.6098 64.5058L61.0378 64.1231C61.3114 64.0498 61.4738 63.7686 61.4005 63.495L61.0178 62.067C60.9445 61.7934 60.6633 61.631 60.3897 61.7043Z" fill="#4A4A4A"/>
<path d="M63.2563 60.9366L61.8282 61.3193C61.5547 61.3926 61.3923 61.6738 61.4656 61.9473L61.8483 63.3754C61.9216 63.649 62.2028 63.8113 62.4763 63.738L63.9044 63.3554C64.178 63.2821 64.3403 63.0009 64.267 62.7273L63.8844 61.2992C63.8111 61.0257 63.5299 60.8633 63.2563 60.9366Z" fill="#4A4A4A"/>
<path d="M66.1228 60.1683L64.6947 60.551C64.4212 60.6243 64.2588 60.9055 64.3321 61.179L64.7148 62.6071C64.7881 62.8807 65.0693 63.043 65.3429 62.9697L66.7709 62.5871C67.0445 62.5138 67.2069 62.2326 67.1336 61.959L66.7509 60.5309C66.6776 60.2574 66.3964 60.095 66.1228 60.1683Z" fill="#4A4A4A"/>
<path fill-rule="evenodd" clip-rule="evenodd" d="M67.5609 59.7828L81.3513 56.0877C81.4827 56.0525 81.6227 56.0709 81.7405 56.1389C81.8583 56.2069 81.9442 56.3189 81.9794 56.4503L82.3622 57.8789C82.3974 58.0103 82.379 58.1502 82.311 58.268C82.243 58.3858 82.131 58.4718 81.9996 58.507L68.2091 62.2021C68.0778 62.2373 67.9378 62.2189 67.82 62.1509C67.7022 62.0829 67.6163 61.9709 67.5811 61.8395L67.1983 60.4109C67.1631 60.2795 67.1815 60.1396 67.2495 60.0218C67.3175 59.904 67.4295 59.818 67.5609 59.7828ZM82.7893 55.7024L84.5761 55.2236C84.7074 55.1884 84.8474 55.2069 84.9652 55.2749C85.083 55.3429 85.1689 55.4549 85.2041 55.5863L85.5869 57.0148C85.6221 57.1462 85.6037 57.2862 85.5357 57.404C85.4677 57.5218 85.3557 57.6077 85.2243 57.6429L83.4376 58.1217C83.3062 58.1569 83.1662 58.1384 83.0484 58.0704C82.9307 58.0024 82.8447 57.8904 82.8095 57.759L82.4267 56.3305C82.3915 56.1991 82.4099 56.0591 82.478 55.9413C82.546 55.8235 82.658 55.7376 82.7893 55.7024Z" fill="#4A4A4A"/>
<path d="M87.4426 54.4557L86.0145 54.8383C85.7409 54.9116 85.5786 55.1928 85.6519 55.4664L86.0345 56.8945C86.1079 57.1681 86.389 57.3304 86.6626 57.2571L88.0907 56.8745C88.3643 56.8012 88.5266 56.52 88.4533 56.2464L88.0707 54.8183C87.9974 54.5447 87.7162 54.3824 87.4426 54.4557Z" fill="#4A4A4A"/>
<path d="M90.3091 53.6876L88.881 54.0702C88.6075 54.1435 88.4451 54.4247 88.5184 54.6983L88.9011 56.1264C88.9744 56.4 89.2556 56.5623 89.5291 56.489L90.9572 56.1064C91.2308 56.0331 91.3931 55.7519 91.3198 55.4783L90.9372 54.0502C90.8639 53.7766 90.5827 53.6143 90.3091 53.6876Z" fill="#4A4A4A"/>
<path d="M95.6837 52.2477L94.2556 52.6304C93.982 52.7037 93.8197 52.9849 93.893 53.2584L94.2756 54.6865C94.3489 54.9601 94.6301 55.1224 94.9037 55.0491L96.3318 54.6665C96.6054 54.5932 96.7677 54.312 96.6944 54.0384L96.3118 52.6103C96.2385 52.3368 95.9573 52.1744 95.6837 52.2477Z" fill="#4A4A4A"/>
<path d="M91.3486 54.5134L91.2052 53.9784C91.17 53.847 91.1884 53.707 91.2564 53.5893C91.3244 53.4715 91.4365 53.3855 91.5678 53.3503L92.9959 52.9677C93.1273 52.9325 93.2673 52.9509 93.3851 53.0189C93.5028 53.0869 93.5888 53.1989 93.624 53.3303L93.7673 53.8653L91.3486 54.5134Z" fill="#4A4A4A"/>
<path d="M93.8638 54.2233L94.0071 54.7583C94.0423 54.8896 94.0239 55.0296 93.9559 55.1474C93.8879 55.2652 93.7759 55.3511 93.6445 55.3863L92.2164 55.769C92.0851 55.8042 91.9451 55.7858 91.8273 55.7178C91.7095 55.6498 91.6236 55.5377 91.5884 55.4064L91.445 54.8714L93.8638 54.2233Z" fill="#4A4A4A"/>
<path d="M92.0953 39.3835L52.8594 49.8967C52.5626 49.9763 52.3864 50.2814 52.466 50.5782C52.5455 50.875 52.8506 51.0512 53.1474 50.9716L92.3833 40.4584C92.6802 40.3789 92.8563 40.0738 92.7768 39.7769C92.6972 39.4801 92.3921 39.304 92.0953 39.3835Z" fill="#4A4A4A"/>
<path opacity="0.136" d="M55.258 49.4464L53.714 49.8601C53.5162 49.9131 53.3988 50.1164 53.4518 50.3142L53.4519 50.3147C53.5049 50.5125 53.7082 50.6299 53.906 50.5769L55.45 50.1632C55.6478 50.1102 55.7652 49.9069 55.7122 49.7091L55.7121 49.7086C55.6591 49.5108 55.4558 49.3934 55.258 49.4464Z" fill="#D8D8D8"/>
<path opacity="0.136" d="M58.3509 48.6177L56.8069 49.0314C56.6091 49.0844 56.4917 49.2877 56.5447 49.4855L56.5448 49.486C56.5978 49.6838 56.8011 49.8012 56.9989 49.7482L58.5429 49.3344C58.7407 49.2814 58.8581 49.0781 58.8051 48.8803L58.805 48.8798C58.752 48.6821 58.5487 48.5647 58.3509 48.6177Z" fill="#D8D8D8"/>
<path opacity="0.136" d="M60.7305 47.98L59.1865 48.3938C58.9887 48.4468 58.8713 48.6501 58.9243 48.8479L58.9245 48.8483C58.9775 49.0461 59.1808 49.1635 59.3786 49.1105L60.9226 48.6968C61.1204 48.6438 61.2377 48.4405 61.1847 48.2427L61.1846 48.2422C61.1316 48.0444 60.9283 47.927 60.7305 47.98Z" fill="#D8D8D8"/>
<path opacity="0.136" d="M63.1097 47.3426L61.5657 47.7563C61.3679 47.8093 61.2505 48.0126 61.3035 48.2104L61.3036 48.2109C61.3566 48.4087 61.5599 48.526 61.7577 48.473L63.3017 48.0593C63.4995 48.0063 63.6169 47.803 63.5639 47.6052L63.5637 47.6047C63.5107 47.4069 63.3074 47.2896 63.1097 47.3426Z" fill="#D8D8D8"/>
<path opacity="0.136" d="M65.4893 46.7049L63.9453 47.1186C63.7475 47.1716 63.6301 47.3749 63.6831 47.5727L63.6833 47.5732C63.7363 47.771 63.9396 47.8884 64.1374 47.8354L65.6813 47.4217C65.8791 47.3687 65.9965 47.1654 65.9435 46.9676L65.9434 46.9671C65.8904 46.7693 65.6871 46.6519 65.4893 46.7049Z" fill="#D8D8D8"/>
<path opacity="0.136" d="M68.4633 45.9083L66.9194 46.322C66.7216 46.375 66.6042 46.5783 66.6572 46.7761L66.6573 46.7766C66.7103 46.9744 66.9136 47.0917 67.1114 47.0387L68.6554 46.625C68.8532 46.572 68.9706 46.3687 68.9176 46.1709L68.9174 46.1704C68.8644 45.9726 68.6611 45.8553 68.4633 45.9083Z" fill="#D8D8D8"/>
<path opacity="0.136" d="M70.8424 45.2708L69.2984 45.6845C69.1007 45.7375 68.9833 45.9408 69.0363 46.1386L69.0364 46.1391C69.0894 46.3368 69.2927 46.4542 69.4905 46.4012L71.0345 45.9875C71.2323 45.9345 71.3497 45.7312 71.2967 45.5334L71.2965 45.5329C71.2435 45.3351 71.0402 45.2178 70.8424 45.2708Z" fill="#D8D8D8"/>
<path opacity="0.136" d="M73.2222 44.6327L71.6782 45.0464C71.4804 45.0994 71.363 45.3027 71.416 45.5005L71.4162 45.501C71.4692 45.6988 71.6725 45.8162 71.8703 45.7632L73.4143 45.3495C73.612 45.2965 73.7294 45.0932 73.6764 44.8954L73.6763 44.8949C73.6233 44.6971 73.42 44.5797 73.2222 44.6327Z" fill="#D8D8D8"/>
<path opacity="0.136" d="M75.6013 43.9952L74.0573 44.4089C73.8595 44.4619 73.7421 44.6652 73.7951 44.863L73.7953 44.8635C73.8483 45.0613 74.0516 45.1787 74.2494 45.1257L75.7933 44.712C75.9911 44.659 76.1085 44.4557 76.0555 44.2579L76.0554 44.2574C76.0024 44.0596 75.7991 43.9422 75.6013 43.9952Z" fill="#D8D8D8"/>
<path opacity="0.136" d="M78.5759 43.1984L77.0319 43.6121C76.8341 43.6651 76.7167 43.8684 76.7697 44.0662L76.7699 44.0667C76.8229 44.2645 77.0262 44.3819 77.224 44.3289L78.768 43.9152C78.9657 43.8622 79.0831 43.6589 79.0301 43.4611L79.03 43.4606C78.977 43.2628 78.7737 43.1454 78.5759 43.1984Z" fill="#D8D8D8"/>
<path opacity="0.136" d="M80.955 42.5609L79.4111 42.9746C79.2133 43.0276 79.0959 43.2309 79.1489 43.4287L79.149 43.4292C79.202 43.627 79.4053 43.7444 79.6031 43.6914L81.1471 43.2777C81.3449 43.2247 81.4623 43.0214 81.4093 42.8236L81.4091 42.8231C81.3561 42.6253 81.1528 42.5079 80.955 42.5609Z" fill="#D8D8D8"/>
<path opacity="0.136" d="M83.3347 41.9233L81.7907 42.337C81.5929 42.39 81.4755 42.5933 81.5285 42.7911L81.5287 42.7916C81.5816 42.9894 81.785 43.1068 81.9827 43.0538L83.5267 42.64C83.7245 42.587 83.8419 42.3837 83.7889 42.1859L83.7888 42.1855C83.7358 41.9877 83.5325 41.8703 83.3347 41.9233Z" fill="#D8D8D8"/>
<path opacity="0.136" d="M86.3086 41.1266L84.7646 41.5403C84.5668 41.5933 84.4495 41.7966 84.5025 41.9944L84.5026 41.9949C84.5556 42.1927 84.7589 42.3101 84.9567 42.2571L86.5007 41.8434C86.6985 41.7904 86.8159 41.5871 86.7629 41.3893L86.7627 41.3888C86.7097 41.191 86.5064 41.0736 86.3086 41.1266Z" fill="#D8D8D8"/>
<path opacity="0.136" d="M88.688 40.4891L87.144 40.9028C86.9462 40.9558 86.8288 41.1591 86.8818 41.3569L86.8819 41.3574C86.9349 41.5552 87.1382 41.6726 87.336 41.6196L88.88 41.2059C89.0778 41.1529 89.1952 40.9496 89.1422 40.7518L89.1421 40.7513C89.0891 40.5535 88.8857 40.4361 88.688 40.4891Z" fill="#D8D8D8"/>
<path opacity="0.136" d="M91.0675 39.8511L89.5235 40.2648C89.3258 40.3178 89.2084 40.5211 89.2614 40.7189L89.2615 40.7194C89.3145 40.9172 89.5178 41.0346 89.7156 40.9816L91.2596 40.5678C91.4574 40.5148 91.5748 40.3115 91.5218 40.1137L91.5216 40.1132C91.4686 39.9155 91.2653 39.7981 91.0675 39.8511Z" fill="#D8D8D8"/>
<path fill-rule="evenodd" clip-rule="evenodd" d="M71.7949 79.1902C71.6826 79.1902 71.5754 79.2091 71.4672 79.223C71.4477 79.1461 71.4292 79.0686 71.4077 78.9917C71.9542 78.7632 72.4047 78.3526 72.6827 77.8295C72.9607 77.3065 73.0491 76.7034 72.9328 76.1226C72.8165 75.5418 72.5027 75.0192 72.0447 74.6435C71.5867 74.2679 71.0128 74.0624 70.4205 74.062C69.8605 74.064 69.3169 74.2507 68.8738 74.5932C68.8171 74.5353 68.7598 74.4778 68.702 74.4209C69.0371 73.9804 69.2191 73.4426 69.2205 72.8891C69.2202 72.2984 69.0158 71.7258 68.642 71.2683C68.2683 70.8108 67.748 70.4964 67.1691 70.3783C66.5903 70.2602 65.9884 70.3456 65.4653 70.62C64.9421 70.8944 64.5298 71.3411 64.2979 71.8845C64.222 71.863 64.1456 71.845 64.0697 71.8255C64.0836 71.7173 64.1026 71.6102 64.1026 71.4978C64.1026 70.8178 63.8324 70.1656 63.3516 69.6848C62.8707 69.2039 62.2185 68.9337 61.5385 68.9337C60.8584 68.9337 60.2062 69.2039 59.7254 69.6848C59.2445 70.1656 58.9744 70.8178 58.9744 71.4978C58.9744 71.6102 58.9933 71.7173 59.0072 71.8255C58.9313 71.845 58.8549 71.863 58.779 71.8845C58.548 71.3401 58.1358 70.8923 57.6124 70.617C57.0889 70.3418 56.4864 70.256 55.907 70.3743C55.3275 70.4925 54.8068 70.8076 54.433 71.2659C54.0593 71.7242 53.8556 72.2977 53.8564 72.8891C53.8564 73.4661 54.0533 73.9922 54.3749 74.4209C52.4687 76.2835 51.282 78.8789 51.282 81.7543C51.282 87.4189 55.8738 92.0107 61.5385 92.0107C66.3277 92.0107 70.3385 88.7235 71.4672 84.2855C71.5754 84.2994 71.6826 84.3184 71.7949 84.3184C72.4749 84.3184 73.1271 84.0482 73.608 83.5674C74.0888 83.0865 74.359 82.4343 74.359 81.7543C74.359 81.0742 74.0888 80.422 73.608 79.9412C73.1271 79.4603 72.4749 79.1902 71.7949 79.1902Z" fill="#44D860"/>
<path fill-rule="evenodd" clip-rule="evenodd" d="M41.0256 61.2415H61.5385V50.985H41.0256V61.2415Z" fill="#3ECC5F"/>
<path fill-rule="evenodd" clip-rule="evenodd" d="M66.6667 57.3956C67.0067 57.3956 67.3328 57.2606 67.5732 57.0201C67.8137 56.7797 67.9487 56.4536 67.9487 56.1136C67.9487 55.7736 67.8137 55.4475 67.5732 55.207C67.3328 54.9666 67.0067 54.8315 66.6667 54.8315C66.6108 54.8315 66.5569 54.8413 66.5031 54.8479C66.4928 54.8095 66.4841 54.771 66.4734 54.7325C66.7463 54.618 66.9711 54.4125 67.1098 54.1511C67.2486 53.8896 67.2926 53.5883 67.2344 53.298C67.1763 53.0078 67.0196 52.7467 66.7909 52.5588C66.5621 52.371 66.2755 52.268 65.9795 52.2674C65.6877 52.2674 65.4216 52.3684 65.2062 52.5331C65.178 52.5038 65.1492 52.4751 65.12 52.4469C65.281 52.2331 65.3795 51.9695 65.3795 51.6808C65.3794 51.3853 65.2773 51.0989 65.0903 50.8701C64.9034 50.6413 64.6432 50.484 64.3537 50.425C64.0642 50.3659 63.7631 50.4087 63.5015 50.546C63.2399 50.6834 63.0338 50.9069 62.918 51.1787C62.4691 51.0517 62.005 50.9867 61.5385 50.9854C58.7067 50.9854 56.4103 53.2818 56.4103 56.1136C56.4103 58.9454 58.7067 61.2418 61.5385 61.2418C62.0175 61.2418 62.4785 61.171 62.918 61.0484C63.0338 61.3203 63.2399 61.5438 63.5015 61.6811C63.7631 61.8185 64.0642 61.8612 64.3537 61.8022C64.6432 61.7431 64.9034 61.5859 65.0903 61.3571C65.2773 61.1282 65.3794 60.8419 65.3795 60.5464C65.3795 60.2577 65.281 59.9941 65.12 59.7802C65.1493 59.752 65.178 59.7233 65.2062 59.6941C65.4216 59.8587 65.6877 59.9597 65.9795 59.9597C66.2758 59.9597 66.5629 59.8571 66.7921 59.6692C67.0212 59.4814 67.1783 59.22 67.2365 58.9295C67.2947 58.639 67.2505 58.3373 67.1113 58.0757C66.9722 57.8141 66.7468 57.6088 66.4734 57.4946C66.4841 57.4567 66.4928 57.4177 66.5031 57.3792C66.5569 57.3859 66.6108 57.3956 66.6667 57.3956Z" fill="#44D860"/>
<path fill-rule="evenodd" clip-rule="evenodd" d="M71.7949 19.5751C71.7128 19.5751 71.6256 19.5648 71.5436 19.5494C71.4611 19.5334 71.3804 19.5093 71.3026 19.4776C71.2256 19.4469 71.1538 19.4058 71.0815 19.3597C71.0149 19.3135 70.9487 19.2571 70.8867 19.2007C70.8308 19.1392 70.7744 19.0776 70.7282 19.0058C70.682 18.934 70.641 18.8622 70.6097 18.7853C70.5468 18.6288 70.5139 18.4617 70.5128 18.293C70.5128 18.211 70.5231 18.1238 70.5385 18.0417C70.5538 17.9597 70.5795 17.8828 70.6097 17.8007C70.641 17.7238 70.682 17.652 70.7282 17.5802C70.7744 17.5135 70.8308 17.4469 70.8867 17.3853C70.9487 17.3289 71.0149 17.2725 71.0815 17.2263C71.1538 17.1802 71.2256 17.1392 71.3026 17.1084C71.379 17.0776 71.4615 17.052 71.5436 17.0366C71.7077 17.0007 71.8769 17.0007 72.0462 17.0366C72.1277 17.052 72.2103 17.0776 72.2872 17.1084C72.3636 17.1392 72.4359 17.1802 72.5077 17.2263C72.5744 17.2725 72.6405 17.3289 72.7026 17.3853C72.759 17.4469 72.8154 17.5135 72.8615 17.5802C72.9077 17.652 72.9487 17.7238 72.9795 17.8007C73.0103 17.8828 73.0359 17.9597 73.0513 18.0417C73.0661 18.1238 73.0769 18.211 73.0769 18.293C73.0769 18.6315 72.9379 18.9648 72.7026 19.2007C72.6405 19.2571 72.5744 19.3135 72.5077 19.3597C72.4359 19.4058 72.3636 19.4469 72.2872 19.4776C72.1309 19.5414 71.9637 19.5745 71.7949 19.5751ZM82.0513 18.934C81.7128 18.934 81.3846 18.7956 81.1431 18.5597C81.0861 18.4982 81.0332 18.4331 80.9846 18.3648C80.9385 18.293 80.8974 18.2212 80.8661 18.1443C80.8032 17.9877 80.7703 17.8207 80.7692 17.652C80.7692 17.3135 80.9077 16.9853 81.1431 16.7443C81.2051 16.6879 81.2713 16.6315 81.3379 16.5853C81.4102 16.5392 81.482 16.4981 81.559 16.4674C81.6354 16.4366 81.7179 16.411 81.8 16.3956C81.9641 16.3597 82.1385 16.3597 82.3026 16.3956C82.3841 16.411 82.4667 16.4366 82.5436 16.4674C82.62 16.4981 82.6923 16.5392 82.7641 16.5853C82.8308 16.6315 82.8969 16.6879 82.959 16.7443C83.1944 16.9853 83.3333 17.3135 83.3333 17.652C83.3333 17.734 83.3226 17.8212 83.3077 17.9033C83.2923 17.9853 83.2667 18.0674 83.2359 18.1443C83.2 18.2212 83.1641 18.293 83.1179 18.3648C83.0718 18.4315 83.0154 18.4981 82.959 18.5597C82.8969 18.6161 82.8308 18.6725 82.7641 18.7187C82.6923 18.7648 82.62 18.8058 82.5436 18.8366C82.3873 18.9004 82.2201 18.9335 82.0513 18.934Z" fill="black"/>
</svg>
