<svg width="100" height="100" viewBox="0 0 100 100" fill="none" xmlns="http://www.w3.org/2000/svg">
<path d="M100 52.1966C100 43.8281 94.8015 36.4739 86.9824 33.6422C87.3206 31.867 87.4897 30.0917 87.4897 28.2744C87.4897 12.6785 74.8101 -0.00115967 59.2565 -0.00115967C50.1271 -0.00115967 41.6738 4.35218 36.3484 11.7064C33.7279 9.67763 30.5159 8.57875 27.1769 8.57875C18.8928 8.57875 12.1726 15.2989 12.1726 23.583C12.1726 25.4004 12.5107 27.1756 13.1025 28.8238C5.32563 31.6134 0.000183105 39.0944 0.000183105 47.4206C0.000183105 55.8315 5.2411 63.1857 13.0602 66.0176C12.7221 67.7505 12.553 69.5678 12.553 71.3851C12.553 86.939 25.1905 99.5762 40.7441 99.5762C49.8735 99.5762 58.3265 95.1808 63.6096 87.8263C66.2301 89.8974 69.4423 91.0386 72.7813 91.0386C81.0652 91.0386 87.7856 84.3185 87.7856 76.0344C87.7856 74.217 87.4474 72.4418 86.8556 70.7934C94.6324 68.004 100 60.5231 100 52.1966Z" fill="white"/>
<path d="M39.306 42.8995L61.1995 52.8741L83.2622 33.5165C83.6002 31.9104 83.727 30.3466 83.727 28.6558C83.727 15.0465 72.6535 3.9729 59.0439 3.9729C50.8868 3.9729 43.3212 7.98812 38.7143 14.7083L35.0373 33.7701L39.306 42.8995Z" fill="#FED10A"/>
<path d="M16.6533 66.06C16.3152 67.6661 16.1884 69.3143 16.1884 71.0049C16.1884 84.6568 27.3043 95.7303 40.9559 95.7303C49.1554 95.7303 56.8054 91.6727 61.4126 84.9103L65.0472 65.9332L60.1867 56.6347L38.2086 46.6177L16.6533 66.06Z" fill="#24BBB1"/>
<path d="M16.525 28.19L31.5293 31.7402L34.826 14.7072C32.7972 13.1434 30.2614 12.2981 27.6409 12.2981C21.132 12.2981 15.8065 17.5813 15.8065 24.1324C15.8065 25.5271 16.0601 26.922 16.525 28.19Z" fill="#EF5098"/>
<path d="M15.2172 31.7818C8.53926 33.9794 3.84779 40.4039 3.84779 47.4622C3.84779 54.3514 8.1166 60.48 14.4987 62.9314L35.547 43.912L31.7007 35.6702L15.2172 31.7818Z" fill="#1BA9F5"/>
<path d="M65.2163 84.9092C67.2874 86.4729 69.7811 87.3605 72.3593 87.3605C78.8682 87.3605 84.1936 82.0772 84.1936 75.5262C84.1936 74.0892 83.9401 72.6943 83.4751 71.4264L68.5132 67.9183L65.2163 84.9092Z" fill="#93C83E"/>
<path d="M68.2576 63.9885L84.7411 67.8345C91.4615 65.6367 96.1105 59.2124 96.1105 52.1118C96.1105 45.2649 91.8418 39.094 85.4596 36.6849L63.9042 55.5776L68.2576 63.9885Z" fill="#0077CC"/>
</svg>
