<svg width="100" height="100" viewBox="0 0 100 100" fill="none" xmlns="http://www.w3.org/2000/svg">
<path fill-rule="evenodd" clip-rule="evenodd" d="M53.2615 0.236084C45.9163 2.84244 39.045 10.4246 32.1737 22.7456C21.9852 41.464 8.95344 68.0014 26.961 89.0893C35.254 98.8039 49.2335 104.49 67.2411 95.4867C81.6945 88.1415 85.9595 67.0537 80.5098 57.3391C69.6105 36.9621 58.7112 31.9863 55.8679 19.4284C53.9723 10.8985 53.0246 4.50104 53.2615 0.236084Z" fill="url(#paint0_linear_0_729)"/>
<path fill-rule="evenodd" clip-rule="evenodd" d="M53.2615 -0.000854492C45.9163 2.60551 38.8081 10.1876 32.1737 22.5086C21.9852 41.227 8.95344 67.7645 26.961 88.8523C35.254 98.5669 48.9966 101.647 56.5787 95.9606C61.5545 92.1695 64.8716 88.6154 66.7672 81.0332C68.8997 72.5033 67.2411 61.3671 66.0564 55.9174C64.6347 49.283 64.1608 42.1748 64.6347 34.1188C64.6347 34.1188 64.3978 34.1188 64.3978 33.8818C60.3698 29.143 57.5265 24.878 56.1048 18.9545C53.9723 10.6615 53.0246 4.2641 53.2615 -0.000854492Z" fill="url(#paint1_linear_0_729)"/>
<path fill-rule="evenodd" clip-rule="evenodd" d="M47.101 3.31635C40.2297 8.76601 35.254 17.7698 31.9368 30.3277C26.961 49.2831 26.4871 66.8167 28.1457 77.2422C31.4629 97.1453 49.2335 104.49 67.2411 95.2498C78.3773 89.5632 83.1162 77.4791 82.8792 64.2104C82.6423 50.4678 56.1048 35.0665 51.6029 23.6933C48.5227 15.8743 47.101 9.23989 47.101 3.31635Z" fill="url(#paint2_linear_0_729)"/>
<path fill-rule="evenodd" clip-rule="evenodd" d="M64.3977 38.8576C72.6907 49.2831 74.3493 56.6283 69.8474 60.6563C62.9761 66.8167 45.9163 70.8448 35.4908 63.4996C28.3826 58.5238 25.7762 47.8614 27.4348 31.5124C24.5915 37.6729 21.9852 43.5965 20.0896 49.9939C18.1941 56.1544 17.4833 62.7887 18.431 69.4231C21.0374 74.3989 26.9609 77.953 36.6755 79.6116C51.129 82.218 64.8716 80.7963 74.1123 76.2944C80.2728 73.2142 83.1161 70.1339 82.8792 67.0537C83.1161 62.5518 81.6944 58.2868 78.6142 54.0219C75.7709 49.7569 71.0321 44.7812 64.3977 38.8576Z" fill="url(#paint3_linear_0_729)"/>
<path fill-rule="evenodd" clip-rule="evenodd" d="M32.4106 28.4322C32.4106 36.0143 34.3061 43.1226 38.3341 49.9939C44.2577 60.1824 51.129 70.3709 61.5544 78.6638C68.4257 84.3504 74.1123 86.009 78.1403 84.1135C74.8231 90.274 71.0321 93.1173 67.241 93.1173C61.5544 92.8804 54.4461 90.5109 43.3099 77.0053C35.7278 68.0015 30.752 59.4716 27.9087 51.4155C28.3826 48.3353 28.8565 45.0181 29.3303 41.9379C30.0412 38.8576 30.9889 34.3557 32.4106 28.4322Z" fill="url(#paint4_linear_0_729)"/>
<path fill-rule="evenodd" clip-rule="evenodd" d="M50.1813 38.8576C50.8921 45.0181 53.2615 54.9697 50.1813 61.3671C47.1011 68.0015 33.1215 79.8486 36.9126 90.274C40.7036 100.699 50.1813 98.33 56.1048 93.5912C62.0284 88.8523 65.1086 81.0333 65.8194 75.3467C66.5303 69.897 64.1609 59.2346 63.45 49.9939C62.9761 43.8334 63.2131 38.6207 64.3978 34.1188L62.5023 31.7494L51.8399 28.6691C50.4182 31.2755 49.7074 34.5927 50.1813 38.8576Z" fill="url(#paint5_linear_0_729)"/>
<path fill-rule="evenodd" clip-rule="evenodd" d="M53.9723 8.29211C50.4182 9.71377 47.3379 12.5571 44.2577 17.059C39.5189 23.4564 37.1495 27.4844 39.045 40.2793C40.2297 48.8092 40.9405 56.6282 41.6513 63.9734L56.5787 20.6131C56.1048 18.4806 55.6309 16.3481 55.157 14.6895C54.4462 12.5571 54.2092 10.6615 53.9723 8.29211Z" fill="url(#paint6_linear_0_729)"/>
<path fill-rule="evenodd" clip-rule="evenodd" d="M56.3417 20.3762C52.5507 22.5086 49.7074 27.2475 47.5749 33.8818C45.4424 40.7532 43.5469 50.2308 41.8883 62.5518C44.2577 54.7327 45.6794 49.0461 46.3902 45.492C47.5749 40.2793 47.8118 32.6971 50.8921 27.7214C52.7876 24.4042 54.6831 22.0348 56.3417 20.3762Z" fill="#330A4C" fill-opacity="0.3163"/>
<path fill-rule="evenodd" clip-rule="evenodd" d="M38.5712 93.8281C44.7316 94.7759 48.0488 95.4867 48.2858 96.1975C48.7597 97.1453 47.5749 98.0931 44.0208 97.6192C41.8883 97.1453 39.9928 95.9606 38.5712 93.8281Z" fill="white"/>
<path fill-rule="evenodd" clip-rule="evenodd" d="M41.8883 8.29211C38.5711 12.3201 35.4908 16.822 32.8845 21.3239C30.2781 25.8258 28.6195 29.3799 27.4348 31.5124C27.1979 33.171 26.9609 35.7774 26.9609 39.0946C26.9609 42.4117 27.1979 45.9659 27.9087 49.9939C28.3826 42.1748 29.8042 34.3557 32.4106 27.0105C34.78 19.6653 38.0972 13.2679 41.8883 8.29211Z" fill="#EDEDED" fill-opacity="0.6033"/>
<defs>
<linearGradient id="paint0_linear_0_729" x1="51.3143" y1="7.55308" x2="47.8353" y2="100.104" gradientUnits="userSpaceOnUse">
<stop stop-color="#D9D8DC"/>
<stop offset="1" stop-color="white" stop-opacity="0.3853"/>
</linearGradient>
<linearGradient id="paint1_linear_0_729" x1="50.0486" y1="6.01338" x2="13.7031" y2="85.6717" gradientUnits="userSpaceOnUse">
<stop stop-color="#8D67AF" stop-opacity="0.6719"/>
<stop offset="1" stop-color="#9F8DAF"/>
</linearGradient>
<linearGradient id="paint2_linear_0_729" x1="55.1602" y1="33.3649" x2="55.1602" y2="97.4407" gradientUnits="userSpaceOnUse">
<stop stop-color="#26053D" stop-opacity="0.7616"/>
<stop offset="1" stop-color="#B7B4B4" stop-opacity="0.2777"/>
</linearGradient>
<linearGradient id="paint3_linear_0_729" x1="31.2441" y1="35.1999" x2="47.5564" y2="78.4081" gradientUnits="userSpaceOnUse">
<stop stop-color="#91739F" stop-opacity="0.4595"/>
<stop offset="1" stop-color="#32054F" stop-opacity="0.5399"/>
</linearGradient>
<linearGradient id="paint4_linear_0_729" x1="68.1136" y1="90.9054" x2="23.2626" y2="53.7574" gradientUnits="userSpaceOnUse">
<stop stop-color="#463D49" stop-opacity="0.3312"/>
<stop offset="1" stop-color="#340A50" stop-opacity="0.8214"/>
</linearGradient>
<linearGradient id="paint5_linear_0_729" x1="57.0145" y1="32.6467" x2="25.3831" y2="80.7761" gradientUnits="userSpaceOnUse">
<stop stop-color="#715383" stop-opacity="0.1452"/>
<stop offset="1" stop-color="#F4F4F4" stop-opacity="0.2336"/>
</linearGradient>
<linearGradient id="paint6_linear_0_729" x1="62.2665" y1="44.545" x2="39.8661" y2="43.1777" gradientUnits="userSpaceOnUse">
<stop stop-color="#A5A1A8" stop-opacity="0.3561"/>
<stop offset="1" stop-color="#370C50" stop-opacity="0.582"/>
</linearGradient>
</defs>
</svg>
