<svg width="100" height="100" viewBox="0 0 100 100" fill="none" xmlns="http://www.w3.org/2000/svg">
<path fill-rule="evenodd" clip-rule="evenodd" d="M58.9723 11.4443L79.507 23.3008C80.0999 22.6735 80.7802 22.1351 81.527 21.7023C85.7856 19.254 91.2177 20.7077 93.6914 24.9666C96.1397 29.2256 94.6861 34.6573 90.4271 37.131C89.6859 37.5578 88.8872 37.8759 88.0555 38.0754V61.7969C88.8781 61.9968 89.6681 62.3126 90.4018 62.7351C94.6861 65.2088 96.1397 70.6409 93.666 74.8998C91.2177 79.1584 85.7602 80.6121 81.5013 78.1641C80.6762 77.6907 79.9329 77.0873 79.3001 76.3771L58.8904 88.1606C59.1893 89.0657 59.3411 90.0128 59.34 90.9659C59.34 95.8623 55.3619 99.8664 50.4398 99.8664C45.5177 99.8664 41.5397 95.8876 41.5397 90.9659C41.5397 90.091 41.6654 89.2459 41.8997 88.4478L21.3705 76.5948C20.7842 77.2096 20.1134 77.738 19.3784 78.1641C15.0941 80.6121 9.66198 79.1584 7.21361 74.8998C4.76559 70.6409 6.21927 65.2088 10.4779 62.7351C11.2115 62.3125 12.0015 61.9966 12.8242 61.7966V38.0754C11.9924 37.8759 11.1937 37.5578 10.4525 37.131C6.19358 34.683 4.7399 29.2256 7.18827 24.9666C9.63663 20.7077 15.0937 19.254 19.3527 21.7023C20.0953 22.1328 20.7723 22.6678 21.3629 23.2907L41.9035 11.4311C41.6614 10.6093 41.5389 9.75691 41.5397 8.90015C41.5397 3.97877 45.5177 0 50.4398 0C55.3619 0 59.34 3.97842 59.34 8.90015C59.34 9.78479 59.2115 10.6385 58.9723 11.4443ZM56.8329 15.0974L77.4166 26.9817C77.0889 28.1274 76.9949 29.3274 77.1402 30.5102C77.2856 31.693 77.6673 32.8345 78.2627 33.8668C79.5157 36.0464 81.5568 37.4914 83.8222 38.0545V61.8056C83.7066 61.8338 83.5917 61.8647 83.4775 61.8973L56.5937 15.3353C56.675 15.2575 56.7548 15.178 56.8329 15.0974ZM44.2915 15.3405L17.4081 61.9018C17.2918 61.8682 17.1749 61.8369 17.0574 61.8081V38.0545C19.3228 37.4914 21.3639 36.0464 22.6169 33.8668C23.2135 32.8325 23.5956 31.6886 23.7404 30.5034C23.8852 29.3182 23.7897 28.116 23.4595 26.9685L44.0373 15.0877C44.1203 15.1735 44.205 15.2582 44.2915 15.3405ZM52.9267 17.4496L79.8039 64.0005C79.1882 64.588 78.6605 65.2612 78.237 65.9993C77.8146 66.7329 77.4987 67.523 77.2989 68.3456H23.5814C23.3813 67.5229 23.0652 66.7329 22.6426 65.9993C22.2177 65.2663 21.6909 64.5972 21.0782 64.012L47.9606 17.4517C48.7665 17.6838 49.6011 17.8011 50.4398 17.8003C51.3033 17.8003 52.1376 17.6781 52.9267 17.4496ZM57.0218 84.97L77.4718 73.1628C77.4105 72.9701 77.3558 72.7753 77.3076 72.5789H23.57C23.5415 72.6945 23.5106 72.809 23.4776 72.9233L44.0276 84.7884C44.8575 83.9255 45.8534 83.2394 46.9554 82.7715C48.0573 82.3036 49.2426 82.0635 50.4398 82.0658C51.6789 82.0636 52.9047 82.3209 54.0383 82.8211C55.1719 83.3213 56.1882 84.0533 57.0218 84.97Z" fill="#E535AB"/>
</svg>
