<svg width="100" height="100" viewBox="0 0 100 100" fill="none" xmlns="http://www.w3.org/2000/svg">
<g clip-path="url(#clip0_0_858)">
<path d="M18.0269 24.2294C18.0269 24.2294 19.7344 30.8144 19.9779 33.0098C20.222 35.2046 15.588 40.0824 15.588 42.5214C15.588 44.9606 16.5622 49.3505 21.9286 51.5459C27.295 53.7409 28.0259 59.35 28.0259 62.7654C28.0259 66.1797 26.0749 72.7641 26.0749 72.7641C26.0749 72.7641 24.856 89.1048 31.4404 92.0314C38.0248 94.9577 36.5621 94.9577 38.0248 94.9577C39.4879 94.9577 50.2195 99.349 56.5603 97.6413C62.9018 95.9342 64.6077 93.9832 64.6077 93.9832C64.6077 93.9832 70.9495 94.4706 72.9004 88.8604C74.8523 83.2513 76.0712 71.5449 75.3391 66.1791C74.6073 60.8127 73.6322 53.7412 78.0215 51.302C82.4129 48.8628 87.046 45.9371 86.3142 43.4976C85.5824 41.0584 81.6814 37.6438 81.6814 37.6438C81.6814 37.6438 80.7055 31.5471 81.4367 30.0835C82.1679 28.6202 86.5584 24.9609 84.1191 22.2788C81.6817 19.5963 77.2903 19.5963 77.2903 19.5963L71.6813 20.0834C71.6813 20.0834 62.1697 11.5477 49.7312 12.0354C37.2933 12.5231 29.4883 20.0834 29.4883 20.0834C29.4883 20.0834 25.3426 18.6201 21.6839 20.0834C18.0252 21.5473 17.2957 20.0831 18.0269 24.2294Z" fill="#FBA919"/>
<path d="M40.3123 60.5422C40.3123 60.5422 35.4824 67.9269 31.9397 73.1678C31.3916 73.9786 35.4824 74.0347 35.4824 74.0347L40.3123 60.5419V60.5422ZM42.6117 45.2312C42.6117 45.2312 41.1557 48.8634 40.3582 50.7888C39.4928 52.8822 36.1918 53.9235 36.1918 53.9235C36.1918 53.9235 37.9027 52.1289 37.9027 47.5826C37.9027 45.6755 40.3652 44.917 40.3652 44.917L42.6117 45.2312Z" fill="#E78724"/>
<path d="M41.1412 47.2847C41.1412 47.2847 38.1582 50.8356 32.6201 48.8468C27.0805 46.8589 26.5126 39.7566 26.5126 37.7682C26.5126 35.7797 37.0227 39.7567 38.4436 40.6091C39.8642 41.4615 42.5615 44.8696 41.1412 47.2847ZM20.22 9.34362C20.22 9.34362 25.3329 8.34852 28.7411 11.0476C32.151 13.746 33.1441 15.8769 33.1441 15.8769L27.3987 20.431C27.3987 20.431 24.6226 19.1441 23.7705 15.4508C22.9184 11.7578 23.4866 10.0539 20.22 9.34362Z" fill="#E78724"/>
<path d="M39.6497 37.0285C37.4485 33.9037 33.8206 32.5407 30.924 32.3149C25.9851 31.9287 23.6403 33.6747 23.6403 33.6747C23.6403 33.6747 31.729 34.0171 34.0604 37.0791C38.4006 42.7783 44.7324 43.2412 45.745 41.9895C44.5741 42.0479 43.2863 41.4678 41.9076 40.1644C41.0465 39.3489 40.3484 38.0205 39.6497 37.0285ZM25.995 48.0775C25.995 48.0775 17.0205 44.9923 18.7262 41.8683C20.4301 38.7432 19.0737 37.0405 19.0737 37.0405C19.0737 37.0405 14.0625 40.7814 15.3392 44.7583C16.1242 47.199 17.4407 48.9663 24.6703 52.3544C28.1381 58.7955 25.3864 70.3891 25.5512 70.4435C25.8258 70.5347 30.42 68.1728 30.1065 57.3261C30.0105 53.9955 29.7443 49.4484 25.995 48.0778V48.0775ZM37.7554 14.9012C33.9924 16.813 28.837 19.4754 28.837 19.4754L30.8661 20.4905C30.6723 20.8041 30.579 20.9913 30.579 20.9913L32.6616 21.9381C32.6616 21.9381 37.7455 25.6209 40.8602 27.9889C39.8218 24.7903 36.7731 19.7663 36.7731 19.7663C36.7731 19.7663 35.9094 17.4581 37.7554 14.9012ZM50.2569 92.8306C38.6901 92.8306 34.7724 86.9588 34.7724 86.9588L36.5801 91.3606C37.2631 93.2648 44.552 99.1906 50.2395 99.1906" fill="#E78724"/>
<path d="M36.0399 82.9912C36.0399 82.9912 37.1042 89.4948 41.3653 89.4948C44.9862 89.4948 46.0531 84.0011 46.0531 82.8656L36.0399 82.9912ZM28.9489 73.1826C29.3276 72.1404 30.6532 67.9269 31.0789 64.0924C31.5893 59.4997 31.4033 52.7827 31.4033 52.7827C31.4033 52.7827 30.2663 57.1857 29.2721 57.8972C28.2785 58.6069 26.4315 63.4356 26.4315 63.4356C26.4315 63.4356 25.4422 70.6245 24.9714 73.0408C26.2746 73.3015 27.3714 72.5339 28.9489 73.1826ZM18.6591 44.6874C18.6591 44.6874 21.073 43.8344 21.7839 38.5799C22.4939 33.3245 20.9312 28.7794 20.9312 28.7794C20.9312 28.7794 21.073 36.023 20.2212 37.4439C19.3685 38.8636 18.6591 39.2899 17.6642 41.1368C16.6694 42.984 18.09 44.1189 18.6591 44.6874Z" fill="#E78724"/>
<path d="M21.5415 10.5866L21.0486 10.2745C19.5955 10.3236 21.5415 10.5866 21.5415 10.5866Z" fill="#FDC168"/>
<path d="M39.7201 13.3452C39.7201 13.3452 37.4486 12.9668 36.3116 11.2626C35.1747 9.55811 31.9561 6.14878 26.8245 6.111C21.6932 6.07264 16.6166 7.47491 16.6166 7.47491L21.048 10.2751C21.5168 10.2597 22.3364 10.2661 23.6916 10.3114C29.2532 10.4962 30.1094 15.9972 30.1094 15.9972L49.7098 13.2982" fill="#FBA919"/>
<path d="M41.6146 43.7292C41.6146 43.7292 38.963 46.3806 34.8907 45.5279C30.8188 44.6761 28.3563 42.8768 28.1671 39.7517C27.9779 36.6269 29.0201 35.3961 29.0201 35.3961C29.0201 35.3961 33.5646 36.8173 35.7437 38.7113C37.9217 40.6047 39.5314 43.6348 41.6146 43.7292Z" fill="white"/>
<path d="M38.4056 42.7821C38.4056 42.7821 36.1059 43.8324 33.5356 42.9768C30.1711 41.8544 29.947 38.3553 29.947 38.3553C29.947 38.3553 27.8827 44.4128 33.6699 45.5787C38.3115 46.5137 41.0567 43.8239 41.0567 43.8239L38.4056 42.7818V42.7821Z" fill="#C9C9C9"/>
<path d="M40.0398 12.0601C39.7924 6.86545 44.051 2.72811 45.5268 2.55171C45.6081 3.43201 45.4442 6.86574 46.9194 7.92158C47.349 5.11705 48.8012 2.0248 54.5361 -0.000854492C53.3079 3.25676 54.3719 5.98544 54.8791 7.25024C58.795 3.6959 61.4335 4.28296 61.4335 4.28296C61.4335 4.28296 58.7124 8.9783 59.777 12.0592C51.9156 11.4428 40.0781 12.8942 40.0398 12.0601ZM23.3736 19.9732C21.4976 18.4169 22.8958 16.9728 22.7476 15.2046C22.6671 14.2639 22.5927 13.3763 22.2826 12.8866C20.5563 10.1611 16.4843 9.33402 16.4436 9.3253L14.5325 8.95098L15.7976 7.47112C15.9615 7.2793 21.1567 2.32211 29.1968 4.91797C34.821 6.73176 38.9845 12.8826 39.1394 13.131L36.3195 14.4572C36.2863 14.4048 32.9947 8.62315 28.1698 7.06744C24.2696 5.80903 20.6745 7.00641 19.1351 7.79109C20.7719 8.44442 22.9118 9.63453 24.2013 11.6704C24.8096 12.632 24.9124 13.8425 25.0115 15.0149C25.1423 16.5668 25.2644 18.0318 26.4065 18.9807L23.3736 19.9732ZM18.3638 42.6899C18.3638 42.6899 20.7269 39.7593 21.427 34.0572C21.7019 31.811 21.2134 27.381 20.4319 25.6767C20.574 29.8667 19.5088 34.0572 19.5088 34.0572C19.5088 34.0572 18.7907 41.8375 18.3638 42.6899Z" fill="#463014"/>
<path d="M30.8252 17.0135C30.8237 17.0074 30.0666 13.6989 27.9677 12.0287C25.0069 9.67348 21.3918 10.9264 21.3569 10.9374L20.832 9.31572C21.007 9.25904 25.1391 7.95704 28.9472 10.634C32.7782 13.3261 33.2379 15.7664 33.2778 16.0358L30.8252 17.0135ZM25.786 40.5881C25.786 40.5881 24.5462 38.8133 24.7691 36.8614C24.8801 35.8974 25.3271 34.9079 26.1243 34.5568C27.6065 33.9058 28.2633 35.5856 28.2633 35.5856C28.2633 35.5856 26.1775 36.1003 25.786 40.5881Z" fill="#463014"/>
<path d="M39.3992 43.2936C39.4509 43.39 39.4777 43.4444 39.4777 43.4444C39.4777 43.4444 35.6103 46.3466 31.6474 43.4014C29.5258 41.8233 29.7263 37.9205 30.3762 36.2654C32.0664 36.6484 33.4998 37.3386 34.6978 38.1448C33.1836 36.7934 31.8584 35.7986 31.8618 35.7757L30.1408 35.2886L26.7957 34.1415C26.7529 34.3966 25.5329 40.1156 29.0547 44.0123C30.6154 45.7403 37.9333 49.6097 41.408 42.9933L39.3992 43.2933V43.2936Z" fill="#463014"/>
<path d="M39.0371 43.7188C41.2141 47.0325 46.7075 45.1388 46.6131 41.6356C46.6131 41.6356 42.9425 43.6612 39.6994 39.9314C37.806 37.754 31.7392 31.75 23.5116 33.7451C29.1933 34.9948 36.7159 40.1854 39.0371 43.7188Z" fill="#463014"/>
<path d="M22.7433 53.0711C23.267 53.3736 25.1142 55.2868 25.1153 58.1477C25.1153 59.5825 24.9726 66.79 24.2624 71.1933C25.3304 71.8873 26.0744 72.0349 27.1381 72.7423C27.6705 67.6427 28.0524 60.2515 27.8745 57.2677C27.6711 53.8665 25.8498 51.5839 24.1609 50.6106C23.632 50.3063 23.0795 50.0073 22.523 49.7065C19.6304 48.1435 16.639 46.5265 16.639 43.7658C16.639 41.6059 17.4789 40.9305 18.3676 40.2144L18.4635 40.1368C19.0535 39.6602 19.7208 39.1196 20.1163 38.2323C21.1954 35.8062 21.3718 29.6255 20.1163 28.0567C19.4903 27.2749 17.8134 24.6459 18.2955 22.8792C18.4792 22.2049 18.9038 21.7051 19.5952 21.3511C20.3267 20.9762 21.3151 20.7864 22.5317 20.7864C24.9212 20.7864 27.5717 21.5138 28.9391 21.9469C33.8254 23.4956 39.7216 27.9608 41.4116 29.2924C41.4601 29.3296 41.4886 29.3514 41.4938 29.3549L42.5752 30.107L41.8989 28.9753C41.8571 28.9047 37.5736 21.8611 29.9141 19.2786C28.4241 18.7761 25.4966 17.933 22.6195 17.933C20.9068 17.933 19.4531 18.2324 18.3025 18.8215C16.8997 19.539 15.9499 20.6838 15.5552 22.1311C14.588 25.6788 17.7381 29.6287 17.8454 29.7551C18.2127 30.4107 18.3685 35.1732 17.5199 37.0791C17.4036 37.3424 17.0833 37.6008 16.6785 37.9278C16.5515 38.0303 16.4097 38.137 16.2594 38.2509C15.0623 39.1545 13.2523 40.5195 13.2523 43.6661C13.2523 47.9715 17.6158 50.3058 21.1224 52.1826C21.6979 52.4921 22.2469 52.7851 22.7433 53.0711Z" fill="#463014"/>
<path d="M23.3736 19.9732C21.4976 18.4169 22.8958 16.9728 22.7476 15.2046C22.6671 14.2639 22.5927 13.3763 22.2826 12.8866C20.5563 10.1611 16.4843 9.33402 16.4436 9.3253L14.5325 8.95098L15.7976 7.47111C15.9615 7.2793 21.1567 2.32211 29.1968 4.91797C34.821 6.73176 38.9845 12.8826 39.1394 13.131L36.3195 14.4572C36.2863 14.4048 32.9947 8.62315 28.1698 7.06744C24.2696 5.80903 20.6745 7.00641 19.1351 7.79109C20.7719 8.44442 22.9118 9.63453 24.2013 11.6704C24.8096 12.632 24.9124 13.8425 25.0115 15.0149C25.1423 16.5668 25.2644 18.0318 26.4065 18.9807L23.3736 19.9732Z" fill="#463014"/>
<path d="M23.3125 20.292L23.1914 20.1915C21.8004 19.0371 22.0472 17.9002 22.2861 16.7999C22.3947 16.2922 22.5093 15.7673 22.4628 15.2288C22.3869 14.3235 22.314 13.4693 22.0413 13.0383C20.3979 10.443 16.4256 9.61186 16.3864 9.60372L13.9998 9.13552L15.5819 7.28569C15.611 7.25082 18.9468 3.88364 24.5962 3.88364C26.1365 3.88364 27.7143 4.13997 29.284 4.64711C35.1541 6.53966 39.3414 12.9171 39.3809 12.9802L39.5503 13.2511L36.2145 14.8199L36.0809 14.6077C35.7216 13.9956 32.5588 8.77951 28.0843 7.33626C26.9855 6.9817 25.8276 6.80238 24.6442 6.80238C22.5005 6.80238 20.7623 7.38654 19.8372 7.77888C21.3831 8.47493 23.2579 9.64644 24.4437 11.5172C25.0888 12.5361 25.1935 13.7815 25.2958 14.9849C25.4213 16.4811 25.5399 17.8883 26.5896 18.7596L26.9858 19.088L23.3125 20.292Z" fill="#463014"/>
<path d="M30.8252 17.0135C30.8237 17.0074 30.0666 13.6989 27.9677 12.0287C25.0069 9.67348 21.3918 10.9264 21.3569 10.9374L20.832 9.31572C21.007 9.25904 25.1391 7.95704 28.9472 10.634C32.7782 13.3261 33.2379 15.7664 33.2778 16.0358L30.8252 17.0135Z" fill="#463014"/>
<path d="M30.6215 17.4003L30.5477 17.0748C30.5402 17.0428 29.7976 13.8477 27.7903 12.2516C26.6461 11.3408 25.2665 10.8781 23.6919 10.8781C22.4628 10.8781 21.5494 11.1716 21.4497 11.2062L21.1785 11.2963L20.4744 9.13319L20.7444 9.046C20.8653 9.00735 21.9621 8.66528 23.5134 8.66528C25.56 8.66528 27.495 9.266 29.1115 10.4012C33.0387 13.1607 33.5182 15.7126 33.5589 15.9943L33.5935 16.2169L30.6215 17.4003ZM23.6922 10.3111C25.3743 10.3111 26.9152 10.8284 28.1445 11.8061C29.9269 13.2258 30.7654 15.7318 31.0188 16.6304L32.9509 15.8603C32.7759 15.1782 32.0058 13.131 28.7845 10.8665C27.2433 9.78332 25.4705 9.23462 23.5137 9.23462C22.4399 9.23462 21.6058 9.4055 21.1937 9.50955L21.5421 10.5866C21.9461 10.4779 22.7238 10.3111 23.6922 10.3111ZM41.1872 87.9347C40.3479 87.9347 39.4914 87.6301 38.898 87.1163C38.4434 86.7245 36.9066 85.313 36.2289 83.5838C35.976 82.9371 36.0327 82.4198 36.3997 82.0475C36.6526 81.7923 37.1777 81.4875 38.2435 81.4875L39.0017 81.4863C39.9053 81.4852 41.4264 81.4852 42.7267 81.4852H43.9734C44.7843 81.4852 45.3655 81.6607 45.6995 82.0025C46.1287 82.4433 45.9912 83.0043 45.8709 83.2995C45.6623 83.8168 44.7976 85.4998 43.3341 87.0646C42.8101 87.6255 42.0475 87.9347 41.1872 87.9347ZM42.0669 43.9134L39.0369 43.7187C39.0369 43.7187 39.8114 45.0841 40.3133 46.8499C40.88 48.8474 39.7951 51.7667 39.7951 51.7667C39.7951 51.7667 43.8354 47.1923 42.0669 43.9134ZM38.2844 95.9356C27.4996 95.1068 23.7052 84.916 23.7052 82.7935L26.5217 82.7947L25.1136 82.7935H26.5217C26.5359 83.7111 29.4018 92.4284 38.5001 93.1282L38.2844 95.9356Z" fill="#463014"/>
<path d="M35.2537 77.6774C35.0852 76.7035 35.0677 75.7796 35.2732 74.872C34.4537 74.2559 32.9831 74.0271 31.8796 73.6694C30.9772 73.0983 26.3595 74.2547 23.0097 70.2005C18.8122 65.1239 19.6954 62.0929 19.6954 62.0929C18.6192 63.2886 17.5762 62.8329 15.9359 68.4082C14.293 73.9847 16.7069 77.8721 21.2058 81.7749C23.3311 83.6184 26.3356 84.378 28.9202 84.6687C28.0544 83.7997 30.3989 83.7125 32.0147 83.108C31.886 81.8031 32.1019 80.5366 33.0746 79.5168C33.6611 78.9018 34.4159 78.5345 35.1991 78.2415C35.2427 78.1404 35.2796 78.0468 35.3212 77.9497C35.2936 77.8603 35.2711 77.7694 35.2537 77.6774Z" fill="white"/>
<path d="M31.9933 83.074C31.8997 82.7999 31.8291 82.5209 31.7599 82.2399C31.6852 81.9333 31.3132 81.0637 31.7715 82.0565C31.6538 81.8022 31.5768 81.5404 31.5201 81.2765C24.2342 81.2672 17.8956 76.2647 19.1203 65.7478C18.1665 64.4816 16.8308 68.3012 16.8308 68.3012C16.8308 68.3012 13.1831 78.8922 22.6035 82.997C25.7422 84.3658 28.5162 85.3473 29.1707 84.9511C30.534 85.2281 31.7645 84.2778 32.226 83.6526C32.1397 83.4608 32.0607 83.2684 31.9933 83.074Z" fill="#C9C9C9"/>
<path d="M35.1224 76.1525C35.1338 75.2649 35.3151 74.405 35.7444 73.5485C35.7743 73.4895 35.8089 73.4328 35.8411 73.3753C33.0375 73.3512 29.8086 73.0829 27.059 71.9823C24.0368 70.7733 20.2564 66.6377 19.6068 61.7785C19.6068 61.7785 13.9152 66.1704 15.5875 75.5712C17.1574 84.3984 24.5443 87.2762 32.9686 87.763C32.9733 87.706 32.0212 85.7396 32.322 84.5356C27.5383 84.8832 22.189 83.0351 19.6068 78.7861C17.2426 74.897 17.9058 68.2574 18.8774 67.2844C21.2474 74.7627 29.7755 76.283 35.1224 76.1525Z" fill="#463014"/>
<path d="M36.005 70.7989C34.4891 75.2475 31.3928 78.848 31.3928 78.848C31.3928 78.848 35.6522 78.6542 35.8873 77.9006C36.0614 77.3449 39.7335 68.7488 41.143 58.6786C39.8172 60.8569 36.135 70.4179 36.005 70.7989Z" fill="#463014"/>
<path d="M60.1377 60.5422C60.1377 60.5422 64.9664 67.9269 68.5103 73.1678C69.0584 73.9786 64.9664 74.0347 64.9664 74.0347L60.1377 60.5419V60.5422ZM57.8376 45.2312C57.8376 45.2312 59.2937 48.8634 60.09 50.7888C60.9561 52.8822 64.2564 53.9235 64.2564 53.9235C64.2564 53.9235 62.5458 52.1289 62.5458 47.5826C62.5458 45.6755 60.0836 44.917 60.0836 44.917L57.8376 45.2312Z" fill="#E78724"/>
<path d="M59.3082 47.2847C59.3082 47.2847 62.2909 50.8356 67.8308 48.8468C73.3707 46.8584 73.938 39.7566 73.938 37.7682C73.938 35.7797 63.4279 39.7567 62.007 40.6091C60.5864 41.4615 57.8882 44.8696 59.3082 47.2847ZM80.2298 9.34362C80.2298 9.34362 75.1168 8.34852 71.7072 11.0476C68.299 13.746 67.3042 15.8769 67.3042 15.8769L73.0499 20.431C73.0499 20.431 75.8271 19.1435 76.6792 15.4505C77.531 11.7578 76.9631 10.0536 80.2298 9.34362Z" fill="#E78724"/>
<path d="M60.8 37.0286C63.0012 33.9038 66.6279 32.5407 69.5257 32.3149C74.4649 31.9287 76.8085 33.6747 76.8085 33.6747C76.8085 33.6747 68.7198 34.0171 66.3879 37.0791C62.0474 42.7783 55.7179 43.2413 54.7053 41.9895C55.876 42.0479 57.1646 41.4679 58.5421 40.1644C59.403 39.3489 60.1016 38.0205 60.8 37.0286ZM74.4547 48.0775C74.4547 48.0775 83.4284 44.9923 81.7238 41.8683C80.0199 38.7432 81.3751 37.0405 81.3751 37.0405C81.3751 37.0405 86.3875 40.7814 85.1096 44.758C84.3247 47.1987 83.0081 48.966 75.7785 52.3541C72.3108 58.7952 75.0624 70.3888 74.8985 70.4432C74.6236 70.5344 70.03 68.1725 70.3436 57.3258C70.4389 53.9953 70.7054 49.4481 74.4547 48.0775ZM62.6946 14.9012C66.4564 16.813 71.6127 19.4754 71.6127 19.4754L69.5842 20.4905C69.7777 20.8041 69.8713 20.9913 69.8713 20.9913L67.7887 21.9381C67.7887 21.9381 62.7045 25.6209 59.5896 27.989C60.6271 24.7906 63.6757 19.7666 63.6757 19.7666C63.6757 19.7666 64.5412 17.4582 62.6946 14.9012ZM50.1934 92.8306C61.7582 92.8306 65.6761 86.9588 65.6761 86.9588L63.8696 91.3606C63.1866 93.2648 55.8969 99.1906 50.2111 99.1906" fill="#E78724"/>
<path d="M64.4099 82.9912C64.4099 82.9912 63.3444 89.4948 59.0845 89.4948C55.4644 89.4948 54.397 84.0011 54.397 82.8656L64.4099 82.9912ZM71.5008 73.1826C71.1222 72.1404 69.7966 67.9269 69.3697 64.0924C68.8593 59.4997 69.0465 52.7827 69.0465 52.7827C69.0465 52.7827 70.1829 57.1857 71.1762 57.8972C72.1713 58.6069 74.0171 63.4356 74.0171 63.4356C74.0171 63.4356 75.0061 70.6245 75.4769 73.0408C74.1743 73.3015 73.0786 72.5339 71.5008 73.1826ZM81.7916 44.6874C81.7916 44.6874 79.3765 43.8344 78.6668 38.5799C77.9568 33.3245 79.5192 28.7794 79.5192 28.7794C79.5192 28.7794 79.3765 36.023 80.2292 37.4439C81.0819 38.8641 81.7916 39.2899 82.7861 41.1368C83.7795 42.9835 82.3592 44.1189 81.7916 44.6874Z" fill="#E78724"/>
<path d="M78.908 10.5866L79.4017 10.2745C80.8551 10.3236 78.908 10.5866 78.908 10.5866Z" fill="#FDC168"/>
<path d="M60.7284 13.3452C60.7284 13.3452 63.0014 12.9668 64.1372 11.2626C65.2735 9.55809 68.4936 6.14877 73.6255 6.1107C78.7568 6.07233 83.8334 7.4746 83.8334 7.4746L79.4017 10.2748C78.9329 10.2594 78.1133 10.2658 76.757 10.3111C71.1962 10.4959 70.34 15.9969 70.34 15.9969L50.7402 13.2979" fill="#FBA919"/>
<path d="M58.8351 43.7292C58.8351 43.7292 61.4867 46.3806 65.5581 45.5279C69.6303 44.6761 72.0925 42.8768 72.282 39.7517C72.4709 36.6269 71.4299 35.3961 71.4299 35.3961C71.4299 35.3961 66.8839 36.8173 64.7063 38.7113C62.5283 40.6053 60.9189 43.6348 58.8351 43.7292Z" fill="white"/>
<path d="M62.0433 42.7821C62.0433 42.7821 64.3439 43.8324 66.9133 42.9768C70.2787 41.8544 70.5028 38.3553 70.5028 38.3553C70.5028 38.3553 72.566 44.4128 66.7787 45.5787C62.138 46.5137 59.3922 43.8239 59.3922 43.8239L62.0433 42.7818V42.7821Z" fill="#C9C9C9"/>
<path d="M77.0758 19.9732C78.9518 18.4169 77.5548 16.9728 77.703 15.2046C77.782 14.2639 77.8564 13.3763 78.1668 12.8866C79.8931 10.1611 83.9651 9.33402 84.0069 9.3253L85.9187 8.95098L84.653 7.47111C84.4891 7.2793 79.2939 2.32211 71.2523 4.91797C65.6293 6.73176 61.4661 12.8826 61.3112 13.131L64.1302 14.4572C64.1642 14.4048 67.4561 8.62315 72.2811 7.06744C76.1813 5.80903 79.7757 7.00641 81.3146 7.79109C79.6787 8.44442 77.5379 9.63453 76.2484 11.6704C75.6401 12.632 75.5381 13.8425 75.4393 15.0149C75.3085 16.5668 75.1853 18.0318 74.0429 18.9807L77.0758 19.9732ZM82.0847 42.6899C82.0847 42.6899 79.7228 39.7593 79.0227 34.0572C78.7478 31.811 79.2355 27.381 80.0167 25.6767C79.8745 29.8667 80.9408 34.0572 80.9408 34.0572C80.9408 34.0572 81.659 41.8375 82.0847 42.6899Z" fill="#463014"/>
<path d="M69.6248 17.0135C69.626 17.0074 70.3831 13.6989 72.4823 12.0287C75.4429 9.67348 79.0582 10.9264 79.092 10.9374L79.6183 9.31572C79.4427 9.25904 75.3112 7.95704 71.502 10.634C67.671 13.3261 67.2124 15.7664 67.1714 16.0358L69.6248 17.0135ZM74.6637 40.5881C74.6637 40.5881 75.9035 38.8133 75.6794 36.8614C75.5696 35.8974 75.1229 34.9079 74.3251 34.5568C72.8432 33.9058 72.1861 35.5856 72.1861 35.5856C72.1861 35.5856 74.2722 36.1003 74.6637 40.5881Z" fill="#463014"/>
<path d="M61.0509 43.2935C60.9991 43.39 60.9724 43.4444 60.9724 43.4444C60.9724 43.4444 64.838 46.3466 68.8012 43.4014C70.924 41.8233 70.7234 37.9205 70.0724 36.2654C68.383 36.6484 66.95 37.3386 65.7511 38.1448C67.2656 36.7934 68.5911 35.7986 68.5865 35.7757L70.3087 35.2886L73.6532 34.1421C73.6962 34.3972 74.916 40.1161 71.393 44.0131C69.8324 45.7409 62.5144 49.6103 59.0409 42.9939L61.0509 43.2933V43.2935Z" fill="#463014"/>
<path d="M61.4118 43.7188C59.2347 47.0325 53.7428 45.1388 53.8375 41.6356C53.8375 41.6356 57.5069 43.6612 60.75 39.9314C62.6432 37.754 68.7114 31.75 76.9384 33.7451C71.257 34.9948 63.7345 40.1854 61.4118 43.7188Z" fill="#463014"/>
<path d="M77.7076 53.0711C77.1833 53.3736 75.3353 55.2868 75.3353 58.1477C75.3341 59.5825 75.4771 66.79 76.1882 71.1933C75.1199 71.8873 74.3759 72.0349 73.3122 72.7423C72.7798 67.6427 72.3968 60.2515 72.5761 57.2677C72.7792 53.8665 74.5997 51.5839 76.2882 50.6106C76.8172 50.3063 77.3699 50.0073 77.9276 49.7065C80.8202 48.1435 83.8116 46.5265 83.8116 43.7658C83.8116 41.6059 82.9711 40.9305 82.0824 40.2144L81.9877 40.1368C81.3977 39.6602 80.729 39.1196 80.3346 38.2323C79.2552 35.8062 79.0782 29.6255 80.3334 28.0567C80.9594 27.2749 82.6375 24.6459 82.1554 22.8792C81.9705 22.2049 81.5456 21.7051 80.8545 21.3511C80.1227 20.9762 79.1361 20.7864 77.918 20.7864C75.53 20.7864 72.878 21.5138 71.5118 21.9469C66.6255 23.4956 60.7296 27.9608 59.0382 29.2924C58.9899 29.3296 58.962 29.3514 58.9568 29.3549L57.8745 30.107L58.5508 28.9753C58.5938 28.9047 62.8765 21.8611 70.5356 19.2786C72.0259 18.7761 74.9531 17.933 77.8303 17.933C79.5432 17.933 80.9952 18.2324 82.1472 18.8215C83.5504 19.539 84.4995 20.6838 84.8948 22.1311C85.862 25.6788 82.7116 29.6287 82.6041 29.7551C82.237 30.4107 82.0815 35.1732 82.9287 37.0791C83.0455 37.3424 83.3655 37.6008 83.7715 37.9278C83.8982 38.0303 84.0389 38.137 84.1903 38.2509C85.3877 39.1545 87.1968 40.5195 87.1968 43.6661C87.1968 47.9715 82.8334 50.3058 79.3279 52.1826C78.7521 52.4921 78.2026 52.7851 77.7076 53.0711Z" fill="#463014"/>
<path d="M72.5023 19.4667C71.8083 18.2911 70.0331 16.0213 65.9426 14.0267C61.3772 11.8017 56.0936 10.6723 50.2361 10.6697V10.6683H50.2134V10.6689C44.355 10.6718 39.0702 11.8014 34.5063 14.0262C30.4154 16.021 28.6415 18.2905 27.9469 19.4661L27.6487 19.8605L31.1519 20.6402L31.2629 20.4998L31.3216 20.3714C31.3757 20.1397 31.8453 18.8898 35.7507 16.9853C39.9261 14.9489 44.7961 13.9163 50.2238 13.9146C55.6527 13.9163 60.5207 14.9489 64.6955 16.9853C68.6015 18.8898 69.0726 20.1397 69.1261 20.3711L69.1845 20.4998L69.2944 20.6402L72.7984 19.8605L72.5023 19.4667Z" fill="#463014"/>
<path d="M77.0758 19.9732C78.9518 18.4169 77.5548 16.9728 77.703 15.2046C77.782 14.2639 77.8564 13.3763 78.1668 12.8866C79.8931 10.1611 83.9651 9.33402 84.0069 9.3253L85.9187 8.95098L84.653 7.47111C84.4891 7.2793 79.2939 2.32211 71.2523 4.91797C65.6293 6.73176 61.4661 12.8826 61.3112 13.131L64.1302 14.4572C64.1642 14.4048 67.4561 8.62315 72.2811 7.06744C76.1813 5.80903 79.7757 7.00641 81.3146 7.79109C79.6787 8.44442 77.5379 9.63453 76.2484 11.6704C75.6401 12.632 75.5381 13.8425 75.4393 15.0149C75.3085 16.5668 75.1853 18.0318 74.0429 18.9807L77.0758 19.9732Z" fill="#463014"/>
<path d="M73.4658 19.0894L73.8604 18.7607C74.911 17.8894 75.0287 16.4822 75.1557 14.9861C75.2575 13.7823 75.3624 12.5367 76.0073 11.5184C77.1924 9.6482 79.0684 8.4764 80.6137 7.77948C79.6886 7.38771 77.9501 6.80356 75.8062 6.80356C74.6222 6.80356 73.4666 6.98258 72.3672 7.33744C67.8916 8.78068 64.729 13.9968 64.3709 14.6089L64.2367 14.821L60.9009 13.2522L61.0706 12.9814C61.1098 12.9183 65.2963 6.54112 71.1663 4.64828C72.736 4.14114 74.3138 3.8851 75.8553 3.8851C81.5047 3.8851 84.8408 7.25315 84.8693 7.28716L86.4518 9.13699L84.0643 9.60489C84.0247 9.61303 80.0528 10.4439 78.4081 13.0398C78.1355 13.4711 78.064 14.3244 77.9867 15.2302C77.9417 15.769 78.0547 16.2939 78.1649 16.8013C78.4035 17.9017 78.6502 19.0397 77.2584 20.1929L77.1375 20.2935L73.4658 19.0894Z" fill="#463014"/>
<path d="M69.6248 17.0135C69.626 17.0074 70.3831 13.6989 72.4823 12.0287C75.4429 9.67348 79.0582 10.9264 79.092 10.9374L79.6183 9.31572C79.4427 9.25904 75.3112 7.95704 71.502 10.634C67.671 13.3261 67.2124 15.7664 67.1714 16.0358L69.6248 17.0135Z" fill="#463014"/>
<path d="M66.8581 16.2169L66.8912 15.9943C66.9328 15.7127 67.4126 13.1613 71.339 10.4012C72.9543 9.26602 74.8898 8.66559 76.9364 8.66559C78.4886 8.66559 79.5855 9.00678 79.7069 9.04602L79.9763 9.1332L79.2727 11.2963L79.001 11.2062C78.8993 11.1719 77.9864 10.8781 76.758 10.8781C75.1836 10.8781 73.8049 11.3402 72.6607 12.2516C70.6531 13.8483 69.9103 17.0434 69.9033 17.0748L69.8295 17.3997L66.8581 16.2169ZM78.908 10.5866L79.2576 9.50956C78.8452 9.40494 78.0103 9.23463 76.9364 9.23463C74.9799 9.23463 73.2065 9.78391 71.6662 10.8665C68.4438 13.1316 67.6736 15.1782 67.4989 15.8603L69.4325 16.6305C69.6853 15.7313 70.5229 13.2252 72.3062 11.8061C73.5367 10.8281 75.0758 10.3111 76.7577 10.3111C77.7249 10.3111 78.504 10.4779 78.9083 10.5866H78.908ZM57.1169 87.0646C55.6536 85.5001 54.7879 83.8166 54.5786 83.2995C54.4589 83.0048 54.3229 82.4434 54.7518 82.0022C55.0863 81.6607 55.6661 81.4852 56.4767 81.4852H57.7243C59.0246 81.4852 60.5449 81.4852 61.449 81.4863L62.2075 81.4875C63.2724 81.4875 63.7972 81.7921 64.0498 82.0475C64.4172 82.4192 64.4744 82.9362 64.2213 83.5838C63.5441 85.3133 62.0067 86.7248 61.5525 87.1163C60.9573 87.6301 60.1028 87.9347 59.2635 87.9347C58.4033 87.9347 57.6409 87.6255 57.1169 87.0646ZM58.3835 43.9135L61.4118 43.7187C61.4118 43.7187 60.6384 45.0841 60.1365 46.8499C59.5698 48.8474 60.6547 51.7667 60.6547 51.7667C60.6547 51.7667 56.6142 47.1923 58.3835 43.9135Z" fill="#463014"/>
<path d="M50.2253 33.0956C48.294 33.0956 45.7761 33.0427 43.8867 31.6849C43.8867 31.6849 46.3605 36.0213 50.2221 36.0213L50.2253 35.4726L50.2284 36.0213C54.0903 36.0213 56.5635 31.6852 56.5635 31.6852C54.6744 33.0424 52.1547 33.0956 50.2253 33.0956Z" fill="#E78724"/>
<path d="M55.5426 33.0746C53.6056 34.247 51.8755 34.6533 50.2254 34.6893C48.5746 34.6533 46.8454 34.247 44.9081 33.0746C44.9081 33.0746 47.7292 36.517 50.2111 36.5435V36.5455C50.2155 36.5455 50.2198 36.5444 50.2251 36.5444C50.2294 36.5444 50.2338 36.5455 50.239 36.5455V36.5435C52.7204 36.517 55.5426 33.0746 55.5426 33.0746ZM62.1657 95.9356L61.9498 93.1276C71.0457 92.4281 73.9119 83.7108 73.9267 82.793H76.7434C76.7446 84.9154 72.949 95.1068 62.1657 95.9356Z" fill="#463014"/>
<path d="M65.1957 77.6774C65.3651 76.7035 65.3817 75.7796 65.1762 74.872C65.997 74.2559 67.4664 74.0271 68.5699 73.6694C69.4722 73.0983 74.0912 74.2547 77.4412 70.2005C81.6384 65.1239 80.754 62.0929 80.754 62.0929C81.8311 63.2886 82.8733 62.8329 84.5147 68.4082C86.1576 73.9847 83.7425 77.8721 79.2436 81.7749C77.1186 83.6184 74.1138 84.378 71.5293 84.6687C72.3951 83.7997 70.0506 83.7125 68.4356 83.108C68.5646 81.8031 68.3478 80.5366 67.3751 79.5168C66.7898 78.9018 66.0339 78.5345 65.2515 78.2415C65.2073 78.1404 65.1695 78.0468 65.1292 77.9497C65.155 77.8611 65.1791 77.7716 65.1957 77.6774Z" fill="white"/>
<path d="M68.4553 83.074C68.55 82.7999 68.6192 82.5209 68.6886 82.2399C68.7645 81.9333 69.1365 81.0637 68.6773 82.0565C68.7953 81.8022 68.872 81.5404 68.929 81.2765C76.215 81.2672 82.5535 76.2647 81.3276 65.7478C82.2815 64.4816 83.6181 68.3012 83.6181 68.3012C83.6181 68.3012 87.2657 78.8922 77.8454 82.997C74.7066 84.3658 71.9332 85.3473 71.2784 84.9511C69.9139 85.2281 68.6831 84.2778 68.2228 83.6526C68.3088 83.4608 68.3896 83.2684 68.4553 83.074Z" fill="#C9C9C9"/>
<path d="M65.3262 76.1525C65.316 75.2649 65.1335 74.405 64.7057 73.5485C64.6752 73.4895 64.6406 73.4328 64.6086 73.3753C67.412 73.3512 70.6411 73.0829 73.3907 71.9823C76.4127 70.7733 80.1931 66.6377 80.843 61.7785C80.843 61.7785 86.5346 66.1704 84.8623 75.5712C83.2912 84.3984 75.9052 87.2762 67.4812 87.763C67.4765 87.706 68.4289 85.7396 68.1278 84.5356C72.9101 84.8832 78.2596 83.0351 80.8432 78.7861C83.206 74.897 82.5434 68.2574 81.5716 67.2844C79.2024 74.7627 70.6734 76.283 65.3262 76.1525Z" fill="#463014"/>
<path d="M68.7279 78.3668C67.7215 77.2787 65.8711 75.9819 61.6044 75.9819L50.2395 75.9749H50.2116C46.9363 75.9772 38.8453 75.9819 38.8453 75.9819C34.5795 75.9819 32.7291 77.279 31.722 78.3668C30.2553 79.9504 30.0251 82.153 31.0399 84.9064C33.7364 92.2351 37.5258 99.6809 50.211 99.6914V99.6925C50.2157 99.6925 50.2197 99.6914 50.225 99.6914C50.2293 99.6914 50.2337 99.6925 50.2389 99.6925V99.6914C62.923 99.6803 66.7124 92.2351 69.4097 84.9064C70.4246 82.153 70.1938 79.9504 68.7279 78.3668ZM66.7531 84.3926C65.4685 88.0728 62.0156 96.9804 50.2247 96.9958C38.4323 96.9804 34.9808 88.073 33.696 84.3926C32.9851 82.3506 33.0392 80.8397 33.8622 79.9013C34.4246 79.2596 35.7161 78.4938 38.6596 78.4938L41.7347 78.4926C44.0033 78.4906 46.8517 78.4882 50.225 78.4868C53.5971 78.4882 56.447 78.4906 58.715 78.4926L61.7889 78.4938C64.7333 78.4938 66.0245 79.2593 66.5872 79.9013C67.4093 80.8406 67.464 82.3506 66.7528 84.3926H66.7531Z" fill="#463014"/>
<path d="M64.4441 70.7989C65.96 75.2475 69.0563 78.848 69.0563 78.848C69.0563 78.848 64.7969 78.6542 64.5615 77.9006C64.3886 77.3449 60.7165 68.7488 59.307 58.6786C60.6317 60.8569 64.3139 70.4179 64.4441 70.7989Z" fill="#463014"/>
</g>
<defs>
<clipPath id="clip0_0_858">
<rect width="74.4" height="100" fill="white" transform="translate(13 -0.000854492)"/>
</clipPath>
</defs>
</svg>
