<svg width="114" height="112" viewBox="0 0 114 112" fill="none" xmlns="http://www.w3.org/2000/svg">
<g opacity="0.783251">
<g filter="url(#filter0_f_0_985)">
<path d="M48.0874 9.21159L11.3791 46.8109C-2.52019 60.7102 20.378 59.5519 28.6641 64.8087C32.4953 67.3034 16.3686 70.5109 19.6652 73.8075C22.8727 77.1042 38.9994 80.1335 42.2069 83.341C45.4145 86.6376 35.7028 90.1124 38.9103 93.4091C42.0287 96.7057 49.513 93.5873 50.8494 101.071C51.8295 106.596 64.5705 103.834 70.2728 99.1113C73.8367 96.082 64.125 96.082 67.3325 92.7854C75.3513 84.6775 82.4792 89.1324 85.4194 81.6481C87.0232 77.6387 73.3021 74.7876 76.9551 72.2038C85.6867 66.056 117.762 62.9376 102.972 48.1474L64.9269 9.21159C60.2047 4.7567 52.4532 4.7567 48.0874 9.21159ZM90.2307 81.6481C90.2307 83.5192 104.754 84.5884 103.952 81.2027C102.793 75.5004 91.8344 75.9459 90.2307 81.6481ZM28.3077 91.538C31.6043 94.3891 36.5938 90.9143 38.1975 86.9049C34.99 82.7173 23.14 87.1722 28.3077 91.538ZM88.4487 85.5685C84.3502 89.3106 89.1615 93.2309 93.1709 90.647C94.2401 89.9342 93.0818 86.4594 88.4487 85.5685Z" fill="black"/>
</g>
<g opacity="0.576355" filter="url(#filter1_f_0_985)">
<path d="M48.0874 10.0817L11.3791 47.681C-2.52019 61.5803 20.378 60.422 28.6641 65.6788C32.4953 68.1735 16.3686 71.3811 19.6652 74.6777C22.8727 77.9743 38.9994 81.0036 42.2069 84.2112C45.4145 87.5078 35.7028 90.9826 38.9103 94.2792C42.0287 97.5758 49.513 94.4574 50.8494 101.942C51.8295 107.466 64.5705 104.704 70.2728 99.9815C73.8367 96.9521 64.125 96.9521 67.3325 93.6555C75.3513 85.5476 82.4792 90.0025 85.4194 82.5183C87.0232 78.5089 73.3021 75.6578 76.9551 73.0739C85.6867 66.9262 117.762 63.8077 102.972 49.0175L64.9269 10.0817C60.2047 5.62683 52.4532 5.62683 48.0874 10.0817ZM90.2307 82.5183C90.2307 84.3893 104.754 85.4585 103.952 82.0728C102.793 76.3705 91.8344 76.816 90.2307 82.5183ZM28.3077 92.4082C31.6043 95.2593 36.5938 91.7845 38.1975 87.7751C34.99 83.5875 23.14 88.0424 28.3077 92.4082ZM88.4487 86.4386C84.3502 90.1807 89.1615 94.101 93.1709 91.5172C94.2401 90.8044 93.0818 87.3296 88.4487 86.4386Z" fill="black"/>
</g>
</g>
<path d="M48.0874 8.34031L11.3791 45.9396C-2.52017 59.8389 20.378 58.6806 28.6641 63.9374C32.4953 66.4321 16.3686 69.6396 19.6652 72.9363C22.8727 76.2329 38.9994 79.2622 42.207 82.4697C45.4145 85.7663 35.7028 89.2412 38.9103 92.5378C42.0288 95.8344 49.513 92.716 50.8494 100.2C51.8295 105.724 64.5705 102.962 70.2728 98.2401C73.8367 95.2107 64.125 95.2107 67.3326 91.9141C75.3514 83.8062 82.4792 88.2611 85.4194 80.7769C87.0232 76.7675 73.3021 73.9163 76.9551 71.3325C85.6867 65.1847 117.762 62.0663 102.972 47.2761L64.9269 8.34031C60.2047 3.88542 52.4532 3.88542 48.0874 8.34031ZM90.2307 80.7769C90.2307 82.6479 104.754 83.7171 103.952 80.3314C102.794 74.6291 91.8345 75.0746 90.2307 80.7769ZM28.3077 90.6667C31.6043 93.5179 36.5938 90.043 38.1976 86.0336C34.99 81.846 23.14 86.3009 28.3077 90.6667ZM88.4487 84.6972C84.3502 88.4393 89.1615 92.3596 93.1709 89.7757C94.2401 89.063 93.0818 85.5882 88.4487 84.6972Z" fill="black"/>
<mask id="mask0_0_985" style="mask-type:luminance" maskUnits="userSpaceOnUse" x="7" y="5" width="100" height="98">
<path d="M48.1708 8.77363L11.8096 46.0174C-1.95826 59.7852 20.7234 58.6379 28.9311 63.845C32.7261 66.3161 16.7519 69.4933 20.0173 72.7588C23.1945 76.0242 39.1687 79.0249 42.3459 82.2021C45.5231 85.4675 35.9033 88.9095 39.0805 92.1749C42.1694 95.4404 49.5829 92.3515 50.9067 99.7649C51.8775 105.237 64.498 102.501 70.1464 97.8233C73.6766 94.8226 64.0568 94.8226 67.2339 91.5572C75.1769 83.5259 82.2374 87.9387 85.1498 80.5252C86.7384 76.5537 73.1471 73.7296 76.7655 71.1702C85.4146 65.0805 117.186 61.9916 102.536 47.3412L64.8511 8.77363C60.1735 4.36086 52.4953 4.36086 48.1708 8.77363ZM39.4335 65.8748C40.2278 65.8748 66.6162 69.4051 56.4668 72.141C52.5836 73.2 34.756 65.8748 39.4335 65.8748ZM89.9156 80.5252C89.9156 82.3786 104.301 83.4377 103.507 80.084C102.36 74.4356 91.5042 74.8769 89.9156 80.5252ZM28.5781 90.3216C31.8435 93.1458 36.7859 89.7038 38.3744 85.7323C35.1973 81.5843 23.4593 85.9971 28.5781 90.3216ZM88.1505 84.4085C84.0907 88.1152 88.8565 91.9984 92.828 89.439C93.8871 88.733 92.7397 85.291 88.1505 84.4085Z" fill="white"/>
</mask>
<g mask="url(#mask0_0_985)">
<path d="M48.1708 8.77363L11.8096 46.0174C-1.95826 59.7852 20.7234 58.6379 28.9311 63.845C32.7261 66.3161 16.7519 69.4933 20.0173 72.7588C23.1945 76.0242 39.1687 79.0249 42.3459 82.2021C45.5231 85.4675 35.9033 88.9095 39.0805 92.1749C42.1694 95.4404 49.5829 92.3515 50.9067 99.7649C51.8775 105.237 64.498 102.501 70.1464 97.8233C73.6766 94.8226 64.0568 94.8226 67.2339 91.5572C75.1769 83.5259 82.2374 87.9387 85.1498 80.5252C86.7384 76.5537 73.1471 73.7296 76.7655 71.1702C85.4146 65.0805 117.186 61.9916 102.536 47.3412L64.8511 8.77363C60.1735 4.36086 52.4953 4.36086 48.1708 8.77363ZM39.4335 65.8748C40.2278 65.8748 66.6162 69.4051 56.4668 72.141C52.5836 73.2 34.756 65.8748 39.4335 65.8748ZM89.9156 80.5252C89.9156 82.3786 104.301 83.4377 103.507 80.084C102.36 74.4356 91.5042 74.8769 89.9156 80.5252ZM28.5781 90.3216C31.8435 93.1458 36.7859 89.7038 38.3744 85.7323C35.1973 81.5843 23.4593 85.9971 28.5781 90.3216ZM88.1505 84.4085C84.0907 88.1152 88.8565 91.9984 92.828 89.439C93.8871 88.733 92.7397 85.291 88.1505 84.4085Z" fill="url(#paint0_linear_0_985)"/>
</g>
<path opacity="0.505263" d="M14.6447 48.0243C4.66404 57.9151 22.1977 55.1277 35.6851 60.4327L63.5591 11.4284C59.333 7.11246 53.9381 7.47212 50.0717 11.4284L14.6447 48.0243Z" fill="url(#paint1_linear_0_985)"/>
<path d="M62.6995 11.0135L77.2224 25.8038C78.5589 27.1402 78.5589 29.9023 77.757 30.7041L70.5401 24.8237L69.1145 33.4662L63.145 30.2586L53.4333 36.4064L50.2258 23.4872L45.0581 34.7135L32.1389 34.6244C29.6442 34.6244 30.0006 32.0406 32.5844 29.4568C37.663 23.8436 47.5528 14.3101 50.6713 11.0135C53.8788 7.71689 59.492 7.80599 62.6995 11.0135Z" fill="url(#paint2_linear_0_985)"/>
<path opacity="0.216749" fill-rule="evenodd" clip-rule="evenodd" d="M42.7665 80.8832C42.7665 80.8832 44.3429 83.2902 44.1822 84.4225C43.8669 86.6445 39.0812 87.7534 40.1415 89.7314C41.1891 91.6856 44.9651 90.578 48.1344 92.6218C51.2903 94.6569 50.4418 98.8045 52.7355 99.8479C57.2088 101.883 68.9572 96.3381 68.3674 96.4561C67.7775 96.574 56.7726 98.8606 54.2951 96.855C51.4703 94.5683 50.6604 92.9711 48.5768 91.619C46.6243 90.352 43.8815 89.8351 43.2431 88.7977C42.6048 87.7603 44.5216 86.4218 44.6541 84.4225C44.7337 83.2217 42.7665 80.8832 42.7665 80.8832Z" fill="url(#paint3_radial_0_985)"/>
<g opacity="0.275862" filter="url(#filter2_f_0_985)">
<path fill-rule="evenodd" clip-rule="evenodd" d="M42.7665 80.8832C42.7665 80.8832 44.3429 83.2902 44.1822 84.4225C43.8669 86.6445 39.0812 87.7534 40.1415 89.7314C41.1891 91.6856 44.9651 90.578 48.1344 92.6218C51.2903 94.6569 50.4418 98.8045 52.7355 99.8479C57.2088 101.883 68.9572 96.3381 68.3674 96.4561C48.859 96.5303 52.4996 91.5036 44.9786 88.1977C43.8917 87.72 44.5216 86.4218 44.6541 84.4225C44.7337 83.2217 42.7665 80.8832 42.7665 80.8832Z" fill="url(#paint4_radial_0_985)"/>
</g>
<path opacity="0.453202" fill-rule="evenodd" clip-rule="evenodd" d="M75.9179 70.6195C93.4273 64.1758 99.0524 63.2905 104.822 57.5241C98.1395 63.1651 84.0117 66.191 72.4965 71.2094L75.9179 70.6195Z" fill="url(#paint5_radial_0_985)"/>
<g opacity="0.512315" filter="url(#filter3_f_0_985)">
<path fill-rule="evenodd" clip-rule="evenodd" d="M75.9179 69.7931C104.753 59.5742 99.8782 59.6327 104.822 56.6978C95.654 60.2072 78.5207 60.5814 72.4965 70.383L75.9179 69.7931Z" fill="url(#paint6_radial_0_985)"/>
</g>
<path opacity="0.285714" d="M101.106 77.963C101.106 78.268 100.711 78.5606 100.009 78.7763C99.3062 78.992 98.3535 79.1132 97.36 79.1132C96.3666 79.1132 95.4139 78.992 94.7114 78.7763C94.0089 78.5606 93.6143 78.268 93.6143 77.963C93.6143 77.6579 94.0089 77.3653 94.7114 77.1496C95.4139 76.9339 96.3666 76.8127 97.36 76.8127C98.3535 76.8127 99.3062 76.9339 100.009 77.1496C100.711 77.3653 101.106 77.6579 101.106 77.963Z" fill="url(#paint7_linear_0_985)"/>
<g opacity="0.620689" filter="url(#filter4_f_0_985)">
<path d="M102.404 79.2902C102.404 79.9473 101.872 80.5774 100.926 81.042C99.9805 81.5067 98.6976 81.7677 97.36 81.7677C96.0224 81.7677 94.7396 81.5067 93.7937 81.042C92.8479 80.5774 92.3165 79.9473 92.3165 79.2902C92.3165 78.6331 92.8479 78.0029 93.7937 77.5383C94.7396 77.0737 96.0224 76.8127 97.36 76.8127C98.6976 76.8127 99.9805 77.0737 100.926 77.5383C101.872 78.0029 102.404 78.6331 102.404 79.2902Z" fill="url(#paint8_linear_0_985)"/>
</g>
<g filter="url(#filter5_f_0_985)">
<path fill-rule="evenodd" clip-rule="evenodd" d="M90.4879 80.6672C92.2668 82.3114 102.17 83.1551 103.79 80.1953C100.611 82.4528 93.5415 81.6594 90.4879 80.6672Z" fill="url(#paint9_radial_0_985)"/>
</g>
<path opacity="0.285714" d="M90.523 86.1554C90.6096 86.3258 90.6647 86.5101 90.6851 86.6978C90.7055 86.8855 90.6909 87.0729 90.642 87.2493C90.5932 87.4256 90.5111 87.5875 90.4004 87.7257C90.2897 87.8639 90.1526 87.9756 89.997 88.0545C89.8413 88.1335 89.6702 88.178 89.4933 88.1856C89.3164 88.1933 89.1373 88.1638 88.9661 88.099C88.795 88.0342 88.6352 87.9352 88.4959 87.8078C88.3565 87.6804 88.2404 87.5271 88.1541 87.3565C88.0675 87.1861 88.0125 87.0018 87.992 86.8141C87.9716 86.6265 87.9862 86.4391 88.0351 86.2627C88.0839 86.0863 88.1661 85.9244 88.2767 85.7862C88.3874 85.6481 88.5245 85.5363 88.6802 85.4574C88.8358 85.3785 89.007 85.334 89.1838 85.3263C89.3607 85.3187 89.5398 85.3482 89.711 85.413C89.8821 85.4778 90.0419 85.5767 90.1813 85.7041C90.3206 85.8315 90.4367 85.9849 90.523 86.1554Z" fill="url(#paint10_linear_0_985)"/>
<g opacity="0.620689" filter="url(#filter6_f_0_985)">
<path d="M91.2252 86.4736C91.3546 86.7284 91.4379 87.0034 91.4705 87.283C91.5031 87.5625 91.4843 87.8411 91.4152 88.1028C91.346 88.3645 91.2279 88.6041 91.0676 88.8081C90.9072 89.0121 90.7078 89.1763 90.4806 89.2915C90.2535 89.4066 90.0031 89.4704 89.7438 89.4792C89.4845 89.4881 89.2214 89.4417 88.9694 89.3428C88.7175 89.2439 88.4816 89.0945 88.2754 88.903C88.0692 88.7115 87.8966 88.4817 87.7675 88.2267C87.6381 87.9719 87.5548 87.6969 87.5222 87.4174C87.4896 87.1378 87.5084 86.8592 87.5775 86.5975C87.6466 86.3359 87.7648 86.0962 87.9251 85.8922C88.0855 85.6883 88.2849 85.524 88.512 85.4088C88.7392 85.2937 88.9896 85.2299 89.2489 85.2211C89.5082 85.2122 89.7713 85.2586 90.0233 85.3575C90.2752 85.4564 90.5111 85.6058 90.7173 85.7973C90.9235 85.9888 91.0961 86.2186 91.2252 86.4736Z" fill="url(#paint11_linear_0_985)"/>
</g>
<g filter="url(#filter7_f_0_985)">
<path fill-rule="evenodd" clip-rule="evenodd" d="M88.0588 89.4789C89.4883 90.5976 94.8688 90.7409 92.8276 87.4894C93.3599 90.036 89.6851 89.7668 88.0588 89.4789Z" fill="url(#paint12_radial_0_985)"/>
</g>
<path fill-rule="evenodd" clip-rule="evenodd" d="M21.6487 72.6248C21.6487 72.332 39.9805 78.2115 43.1204 81.3551C40.5385 78.8358 27.4722 73.0419 25.483 72.9787C23.4938 72.9155 21.8847 72.7428 21.6487 72.6248Z" fill="url(#paint13_radial_0_985)"/>
<path opacity="0.285714" d="M35.42 85.2181C35.4914 85.4304 35.2129 85.7101 34.6459 85.9958C34.0788 86.2815 33.2697 86.5498 32.3964 86.7415C31.5232 86.9332 30.6574 87.0327 29.9895 87.0182C29.3216 87.0036 28.9062 86.8762 28.8349 86.6639C28.7636 86.4516 29.0421 86.1718 29.6091 85.8861C30.1761 85.6004 30.9853 85.3322 31.8585 85.1405C32.7317 84.9487 33.5976 84.8492 34.2655 84.8638C34.9334 84.8783 35.3487 85.0058 35.42 85.2181Z" fill="url(#paint14_linear_0_985)"/>
<g opacity="0.620689" filter="url(#filter8_f_0_985)">
<path d="M36.8711 85.8913C37.0248 86.3485 36.705 86.8896 35.9823 87.3955C35.2595 87.9014 34.1929 88.3306 33.0172 88.5888C31.8414 88.8469 30.6527 88.9129 29.7127 88.7721C28.7726 88.6313 28.1582 88.2953 28.0045 87.838C27.8509 87.3807 28.1706 86.8396 28.8934 86.3337C29.6161 85.8278 30.6827 85.3986 31.8585 85.1405C33.0343 84.8823 34.2229 84.8164 35.163 84.9572C36.103 85.098 36.7175 85.434 36.8711 85.8913Z" fill="url(#paint15_linear_0_985)"/>
</g>
<g opacity="0.615764" filter="url(#filter9_f_0_985)">
<path fill-rule="evenodd" clip-rule="evenodd" d="M27.5181 88.198C27.5181 88.198 28.5107 90.8647 31.2343 91C33.9897 91.1369 37.1347 87.6933 37.3986 86.4579C36.9267 87.5197 34.2886 90.7207 30.8804 90.6755C28.9456 90.6499 27.5181 88.198 27.5181 88.198Z" fill="url(#paint16_radial_0_985)"/>
</g>
<g filter="url(#filter10_f_0_985)">
<path d="M56.3791 6.3078C53.6187 6.3078 50.9133 7.30752 49.0007 9.25917L12.3035 46.8473C8.9484 50.2024 8.14241 52.3987 8.34977 53.641C8.45346 54.2622 8.75838 54.802 9.40781 55.3673C10.0572 55.9326 11.0396 56.4867 12.22 56.9822C14.5806 57.9732 17.76 58.7714 20.8792 59.6273C23.9983 60.4832 27.0535 61.3866 29.3713 62.8571C29.7247 63.0872 30.0565 63.3707 30.2901 63.7759C30.5237 64.1811 30.6057 64.7169 30.5129 65.1681C30.3272 66.0705 29.7716 66.5464 29.2042 66.9779C28.0696 67.8408 26.5106 68.5578 24.9442 69.3167C23.3779 70.0756 21.8036 70.8521 21.0184 71.4884C20.6258 71.8066 20.4837 72.0926 20.4894 72.0732C20.4951 72.0537 20.3852 71.8298 20.5729 72.0175C21.0645 72.5227 22.599 73.3879 24.5544 74.1614C26.5099 74.9348 28.903 75.7167 31.3203 76.5002C33.7376 77.2837 36.1828 78.0594 38.2532 78.8669C40.3237 79.6743 42.0111 80.4251 43.1258 81.5398C43.6806 82.11 44.0726 82.8192 44.156 83.5445C44.2394 84.2698 44.043 84.9505 43.7662 85.5214C43.2125 86.6631 42.3225 87.5414 41.5109 88.3892C40.6993 89.237 39.9639 90.0467 39.7011 90.5888C39.5697 90.8598 39.5493 91.0364 39.5619 91.1457C39.5744 91.2549 39.5932 91.365 39.8403 91.619C39.8497 91.6281 39.859 91.6374 39.8681 91.6468C40.9316 92.7711 43.2423 92.9292 45.8544 93.5402C47.1605 93.8457 48.5264 94.3082 49.6967 95.3221C50.8671 96.3361 51.7455 97.8798 52.1191 99.9719C52.2763 100.858 52.7452 101.289 53.8732 101.643C55.0012 101.996 56.7193 102.057 58.6065 101.782C62.381 101.231 66.857 99.3802 69.4375 97.2433C69.5979 97.107 69.5533 97.143 69.6045 97.0762C69.431 96.952 69.0239 96.6873 68.3516 96.3523C67.5573 95.9565 66.6189 95.5865 65.9014 94.6817C65.5427 94.2294 65.2957 93.5151 65.4002 92.8162C65.5048 92.1174 65.8875 91.5359 66.4026 91.0064C70.631 86.7311 74.7973 85.7103 77.9296 84.881C79.4958 84.4663 80.8069 84.0869 81.7998 83.461C82.7928 82.835 83.5685 81.9786 84.2222 80.3147C84.2942 80.1346 84.2921 80.0823 84.1943 79.8692C84.0965 79.6561 83.834 79.3153 83.4147 78.9504C82.5762 78.2206 81.178 77.4364 79.7951 76.6673C78.4122 75.8981 77.0683 75.1809 76.092 74.2728C75.6038 73.8187 75.0923 73.2467 75.0339 72.3794C74.9756 71.5122 75.5441 70.7297 76.2034 70.2634C78.6497 68.5409 82.3478 67.2297 86.3661 65.8363C90.3844 64.443 94.7066 63.0011 98.2272 61.3536C101.748 59.706 104.337 57.8087 105.16 55.8963C105.572 54.9402 105.647 53.9731 105.216 52.7222C104.784 51.4714 103.8 49.9416 102.042 48.1838L64.0359 9.28701C64.0264 9.27801 64.0177 9.26813 64.0081 9.25917C61.9074 7.29212 59.127 6.3078 56.3791 6.3078ZM97.3084 77.5861C94.9605 77.6708 92.8005 78.7456 91.879 80.4261C92.1408 80.5246 92.3765 80.6354 92.7978 80.7323C94.0235 81.0143 95.734 81.1963 97.4198 81.2335C99.1056 81.2707 100.791 81.1289 101.819 80.8437C102.269 80.7189 102.507 80.5927 102.626 80.5096C102.399 79.5375 101.856 78.8505 100.928 78.3378C99.967 77.8069 98.6501 77.5376 97.3084 77.5861ZM34.4944 85.6606C32.6324 85.5311 30.2921 86.2723 29.1486 87.1919C28.5768 87.6518 28.3349 88.0779 28.3133 88.3614C28.2917 88.6448 28.3821 89.0225 29.1486 89.67C29.1487 89.6792 29.1487 89.6885 29.1486 89.6978C30.3539 90.7402 31.7166 90.6315 33.2693 89.7813C34.571 89.0685 35.7259 87.7313 36.4991 86.3287C35.9779 85.9925 35.3546 85.7204 34.4944 85.6606ZM88.8441 86.2174C88.4456 86.724 88.2285 87.1957 88.2037 87.5261C88.1695 87.982 88.2987 88.3344 88.6492 88.6676C89.3061 89.2922 90.7333 89.5611 92.1853 88.779C92.1566 88.6105 92.1022 88.355 91.879 88.0272C91.4336 87.3731 90.3923 86.6684 88.8441 86.2174Z" stroke="url(#paint17_radial_0_985)" stroke-width="0.435071"/>
</g>
<g opacity="0.325123" filter="url(#filter11_f_0_985)">
<path fill-rule="evenodd" clip-rule="evenodd" d="M36.2578 65.171C34.043 65.8244 26.8637 68.5372 27.8827 70.6093C28.8588 72.5945 45.5515 73.3944 48.1135 79.3108C49.2307 81.8908 45.5499 83.8369 46.4819 86.4894C47.1997 88.532 52.7522 93.6641 56.2649 96.0905C59.0202 97.9936 62.6392 94.558 61.1656 91.7103C58.818 87.1735 69.1894 81.617 73.8914 79.0932C76.6346 77.6208 68.2355 70.3918 68.2355 70.3918L36.2578 65.171Z" fill="url(#paint18_linear_0_985)"/>
</g>
<path fill-rule="evenodd" clip-rule="evenodd" d="M37.0768 67.1744C39.0655 68.6349 42.9901 67.754 45.347 68.8153C51.0043 71.3629 57.9588 74.2017 56.679 69.1758L55.2394 70.3715L55.2113 68.0928L51.8684 68.9092C51.8684 68.9092 49.279 66.8308 48.0919 66.1454C47.844 66.0022 46.5704 67.2973 46.5704 67.2973L46.3414 65.9218C44.6866 65.7457 43.0482 65.668 41.6058 65.6796C38.1479 65.7073 35.8152 66.2478 37.0768 67.1744Z" fill="url(#paint19_linear_0_985)"/>
<g opacity="0.477832" filter="url(#filter12_f_0_985)">
<path fill-rule="evenodd" clip-rule="evenodd" d="M74.2177 71.8054C73.4521 74.6239 83.6273 78.4533 82.8648 80.3981C81.1858 84.6799 71.9985 81.7631 64.9725 90.731C63.9661 92.0155 66.3865 96.6045 66.0602 96.0606C65.7338 95.5168 63.2475 91.7261 63.8848 89.8609C65.8836 84.0112 85.2088 81.8305 81.6683 79.0385C79.6322 77.4328 72.3119 72.9966 74.2177 71.8054Z" fill="url(#paint20_radial_0_985)"/>
</g>
<path opacity="0.586207" d="M97.1133 77.598C97.1133 77.7206 96.9959 77.8382 96.7868 77.9249C96.5777 78.0116 96.2941 78.0603 95.9984 78.0603C95.7028 78.0603 95.4192 78.0116 95.2101 77.9249C95.001 77.8382 94.8836 77.7206 94.8836 77.598C94.8836 77.4754 95.001 77.3578 95.2101 77.2711C95.4192 77.1844 95.7028 77.1357 95.9984 77.1357C96.2941 77.1357 96.5777 77.1844 96.7868 77.2711C96.9959 77.3578 97.1133 77.4754 97.1133 77.598Z" fill="white"/>
<path opacity="0.586207" d="M89.6627 86.1359C89.6627 86.2585 89.5882 86.3761 89.4557 86.4628C89.3231 86.5495 89.1432 86.5982 88.9557 86.5982C88.7682 86.5982 88.5884 86.5495 88.4558 86.4628C88.3232 86.3761 88.2487 86.2585 88.2487 86.1359C88.2487 86.0133 88.3232 85.8958 88.4558 85.8091C88.5884 85.7224 88.7682 85.6737 88.9557 85.6737C89.1432 85.6737 89.3231 85.7224 89.4557 85.8091C89.5882 85.8958 89.6627 86.0133 89.6627 86.1359Z" fill="white"/>
<path opacity="0.586207" d="M33.2667 85.7278C33.2667 85.8504 33.1349 85.968 32.9003 86.0547C32.6657 86.1414 32.3476 86.1901 32.0158 86.1901C31.6841 86.1901 31.3659 86.1414 31.1314 86.0547C30.8968 85.968 30.765 85.8504 30.765 85.7278C30.765 85.6052 30.8968 85.4877 31.1314 85.401C31.3659 85.3143 31.6841 85.2656 32.0158 85.2656C32.3476 85.2656 32.6657 85.3143 32.9003 85.401C33.1349 85.4877 33.2667 85.6052 33.2667 85.7278Z" fill="white"/>
<path opacity="0.251232" d="M32.5597 65.3887C26.1865 69.3305 16.2779 70.7651 27.1213 73.3832C25.8296 70.507 29.9177 70.8242 32.5597 65.3887Z" fill="url(#paint21_linear_0_985)"/>
<g opacity="0.363158" filter="url(#filter13_f_0_985)">
<path d="M55.1834 101.282C55.1834 101.282 65.0124 100.356 67.2862 97.5204C68.6164 95.8612 61.9994 93.9251 63.4279 92.2996C68.801 86.185 73.3173 86.4403 79.5473 83.8794C85.7773 81.3185 83.4784 80.0642 81.4633 78.9398C78.0121 77.014 70.3311 74.9622 72.872 70.3922C75.4288 65.7935 97.8203 59.4067 97.8203 59.4067C104.606 57.0884 103.754 52.8961 100.431 49.4L80.4175 29.4955C80.4175 29.4955 81.4107 48.3727 77.372 56.4699C72.3811 66.4762 45.8102 77.6412 56.9237 78.8761C60.8393 79.3111 62.7191 80.647 64.3199 83.6619C67.6161 89.8698 55.1834 101.282 55.1834 101.282Z" fill="url(#paint22_linear_0_985)"/>
</g>
<defs>
<filter id="filter0_f_0_985" x="5.5647" y="4.43512" width="102.684" height="101.129" filterUnits="userSpaceOnUse" color-interpolation-filters="sRGB">
<feFlood flood-opacity="0" result="BackgroundImageFix"/>
<feBlend mode="normal" in="SourceGraphic" in2="BackgroundImageFix" result="shape"/>
<feGaussianBlur stdDeviation="0.717652" result="effect1_foregroundBlur_0_985"/>
</filter>
<filter id="filter1_f_0_985" x="0.78035" y="0.520905" width="112.253" height="110.698" filterUnits="userSpaceOnUse" color-interpolation-filters="sRGB">
<feFlood flood-opacity="0" result="BackgroundImageFix"/>
<feBlend mode="normal" in="SourceGraphic" in2="BackgroundImageFix" result="shape"/>
<feGaussianBlur stdDeviation="3.10982" result="effect1_foregroundBlur_0_985"/>
</filter>
<filter id="filter2_f_0_985" x="38.1406" y="79.0353" width="32.0961" height="23.1097" filterUnits="userSpaceOnUse" color-interpolation-filters="sRGB">
<feFlood flood-opacity="0" result="BackgroundImageFix"/>
<feBlend mode="normal" in="SourceGraphic" in2="BackgroundImageFix" result="shape"/>
<feGaussianBlur stdDeviation="0.923947" result="effect1_foregroundBlur_0_985"/>
</filter>
<filter id="filter3_f_0_985" x="70.4961" y="54.6973" width="36.3265" height="17.6862" filterUnits="userSpaceOnUse" color-interpolation-filters="sRGB">
<feFlood flood-opacity="0" result="BackgroundImageFix"/>
<feBlend mode="normal" in="SourceGraphic" in2="BackgroundImageFix" result="shape"/>
<feGaussianBlur stdDeviation="1.00023" result="effect1_foregroundBlur_0_985"/>
</filter>
<filter id="filter4_f_0_985" x="91.4082" y="75.9043" width="11.9037" height="6.77173" filterUnits="userSpaceOnUse" color-interpolation-filters="sRGB">
<feFlood flood-opacity="0" result="BackgroundImageFix"/>
<feBlend mode="normal" in="SourceGraphic" in2="BackgroundImageFix" result="shape"/>
<feGaussianBlur stdDeviation="0.454181" result="effect1_foregroundBlur_0_985"/>
</filter>
<filter id="filter5_f_0_985" x="89.7135" y="79.4208" width="14.8507" height="3.51412" filterUnits="userSpaceOnUse" color-interpolation-filters="sRGB">
<feFlood flood-opacity="0" result="BackgroundImageFix"/>
<feBlend mode="normal" in="SourceGraphic" in2="BackgroundImageFix" result="shape"/>
<feGaussianBlur stdDeviation="0.38721" result="effect1_foregroundBlur_0_985"/>
</filter>
<filter id="filter6_f_0_985" x="86.9093" y="84.6227" width="5.17403" height="5.45489" filterUnits="userSpaceOnUse" color-interpolation-filters="sRGB">
<feFlood flood-opacity="0" result="BackgroundImageFix"/>
<feBlend mode="normal" in="SourceGraphic" in2="BackgroundImageFix" result="shape"/>
<feGaussianBlur stdDeviation="0.298647" result="effect1_foregroundBlur_0_985"/>
</filter>
<filter id="filter7_f_0_985" x="87.5496" y="86.9802" width="6.24386" height="3.72825" filterUnits="userSpaceOnUse" color-interpolation-filters="sRGB">
<feFlood flood-opacity="0" result="BackgroundImageFix"/>
<feBlend mode="normal" in="SourceGraphic" in2="BackgroundImageFix" result="shape"/>
<feGaussianBlur stdDeviation="0.25461" result="effect1_foregroundBlur_0_985"/>
</filter>
<filter id="filter8_f_0_985" x="27.2285" y="84.1463" width="10.4187" height="5.43662" filterUnits="userSpaceOnUse" color-interpolation-filters="sRGB">
<feFlood flood-opacity="0" result="BackgroundImageFix"/>
<feBlend mode="normal" in="SourceGraphic" in2="BackgroundImageFix" result="shape"/>
<feGaussianBlur stdDeviation="0.369177" result="effect1_foregroundBlur_0_985"/>
</filter>
<filter id="filter9_f_0_985" x="26.8908" y="85.8306" width="11.135" height="5.80054" filterUnits="userSpaceOnUse" color-interpolation-filters="sRGB">
<feFlood flood-opacity="0" result="BackgroundImageFix"/>
<feBlend mode="normal" in="SourceGraphic" in2="BackgroundImageFix" result="shape"/>
<feGaussianBlur stdDeviation="0.313621" result="effect1_foregroundBlur_0_985"/>
</filter>
<filter id="filter10_f_0_985" x="7.52076" y="5.50916" width="98.7839" height="97.2433" filterUnits="userSpaceOnUse" color-interpolation-filters="sRGB">
<feFlood flood-opacity="0" result="BackgroundImageFix"/>
<feBlend mode="normal" in="SourceGraphic" in2="BackgroundImageFix" result="shape"/>
<feGaussianBlur stdDeviation="0.290554" result="effect1_foregroundBlur_0_985"/>
</filter>
<filter id="filter11_f_0_985" x="24.5762" y="61.9629" width="53.0739" height="37.8843" filterUnits="userSpaceOnUse" color-interpolation-filters="sRGB">
<feFlood flood-opacity="0" result="BackgroundImageFix"/>
<feBlend mode="normal" in="SourceGraphic" in2="BackgroundImageFix" result="shape"/>
<feGaussianBlur stdDeviation="1.60403" result="effect1_foregroundBlur_0_985"/>
</filter>
<filter id="filter12_f_0_985" x="62.701" y="70.7256" width="21.2844" height="26.4593" filterUnits="userSpaceOnUse" color-interpolation-filters="sRGB">
<feFlood flood-opacity="0" result="BackgroundImageFix"/>
<feBlend mode="normal" in="SourceGraphic" in2="BackgroundImageFix" result="shape"/>
<feGaussianBlur stdDeviation="0.539895" result="effect1_foregroundBlur_0_985"/>
</filter>
<filter id="filter13_f_0_985" x="51.8218" y="27.0855" width="53.5337" height="76.6067" filterUnits="userSpaceOnUse" color-interpolation-filters="sRGB">
<feFlood flood-opacity="0" result="BackgroundImageFix"/>
<feBlend mode="normal" in="SourceGraphic" in2="BackgroundImageFix" result="shape"/>
<feGaussianBlur stdDeviation="1.205" result="effect1_foregroundBlur_0_985"/>
</filter>
<linearGradient id="paint0_linear_0_985" x1="72.8987" y1="15.3928" x2="53.3779" y2="33.0439" gradientUnits="userSpaceOnUse">
<stop stop-color="#C0CDF9"/>
<stop offset="1" stop-color="#07092D" stop-opacity="0.288043"/>
</linearGradient>
<linearGradient id="paint1_linear_0_985" x1="29.2111" y1="28.3327" x2="51.6902" y2="50.8117" gradientUnits="userSpaceOnUse">
<stop stop-color="white"/>
<stop offset="1" stop-color="white" stop-opacity="0"/>
</linearGradient>
<linearGradient id="paint2_linear_0_985" x1="53.3442" y1="15.0229" x2="80.0736" y2="41.7523" gradientUnits="userSpaceOnUse">
<stop stop-color="white"/>
<stop offset="1" stop-color="white" stop-opacity="0"/>
</linearGradient>
<radialGradient id="paint3_radial_0_985" cx="0" cy="0" r="1" gradientUnits="userSpaceOnUse" gradientTransform="translate(39.9885 98.8532) scale(22.6717 15.1755)">
<stop stop-color="white"/>
<stop offset="1" stop-color="white" stop-opacity="0"/>
</radialGradient>
<radialGradient id="paint4_radial_0_985" cx="0" cy="0" r="1" gradientUnits="userSpaceOnUse" gradientTransform="translate(51.9424 99.397) scale(28.9272 19.3627)">
<stop stop-color="white"/>
<stop offset="1" stop-color="white" stop-opacity="0"/>
</radialGradient>
<radialGradient id="paint5_radial_0_985" cx="0" cy="0" r="1" gradientUnits="userSpaceOnUse" gradientTransform="translate(88.6593 64.3667) scale(16.1628 6.84263)">
<stop stop-color="white"/>
<stop offset="1" stop-color="white" stop-opacity="0"/>
</radialGradient>
<radialGradient id="paint6_radial_0_985" cx="0" cy="0" r="1" gradientUnits="userSpaceOnUse" gradientTransform="translate(92.0806 66.2538) scale(16.1628 6.84263)">
<stop stop-color="white"/>
<stop offset="1" stop-color="white" stop-opacity="0"/>
</radialGradient>
<linearGradient id="paint7_linear_0_985" x1="98.1564" y1="76.1343" x2="98.2154" y2="79.1132" gradientUnits="userSpaceOnUse">
<stop stop-color="white"/>
<stop offset="1" stop-color="white" stop-opacity="0"/>
</linearGradient>
<linearGradient id="paint8_linear_0_985" x1="98.2743" y1="75.7925" x2="98.2743" y2="80.3156" gradientUnits="userSpaceOnUse">
<stop stop-color="white"/>
<stop offset="1" stop-color="white" stop-opacity="0"/>
</linearGradient>
<radialGradient id="paint9_radial_0_985" cx="0" cy="0" r="1" gradientUnits="userSpaceOnUse" gradientTransform="translate(97.1388 81.1779) scale(6.65092 0.982643)">
<stop stop-color="white"/>
<stop offset="1" stop-color="white" stop-opacity="0"/>
</radialGradient>
<linearGradient id="paint10_linear_0_985" x1="88.8187" y1="84.9693" x2="90.285" y2="87.5601" gradientUnits="userSpaceOnUse">
<stop stop-color="white"/>
<stop offset="1" stop-color="white" stop-opacity="0"/>
</linearGradient>
<linearGradient id="paint11_linear_0_985" x1="88.2672" y1="84.0518" x2="90.3127" y2="88.086" gradientUnits="userSpaceOnUse">
<stop stop-color="white"/>
<stop offset="1" stop-color="white" stop-opacity="0"/>
</linearGradient>
<radialGradient id="paint12_radial_0_985" cx="0" cy="0" r="1" gradientUnits="userSpaceOnUse" gradientTransform="translate(90.7071 89.6663) rotate(-26.8861) scale(2.87567 0.982642)">
<stop stop-color="white"/>
<stop offset="1" stop-color="white" stop-opacity="0"/>
</radialGradient>
<radialGradient id="paint13_radial_0_985" cx="0" cy="0" r="1" gradientUnits="userSpaceOnUse" gradientTransform="translate(31.8537 75.5689) scale(10.7358 4.3704)">
<stop stop-color="white" stop-opacity="0.330049"/>
<stop offset="1" stop-color="white" stop-opacity="0"/>
</radialGradient>
<linearGradient id="paint14_linear_0_985" x1="32.3999" y1="84.5147" x2="32.9012" y2="86.6348" gradientUnits="userSpaceOnUse">
<stop stop-color="white"/>
<stop offset="1" stop-color="white" stop-opacity="0"/>
</linearGradient>
<linearGradient id="paint15_linear_0_985" x1="32.4237" y1="84.254" x2="33.1316" y2="87.4786" gradientUnits="userSpaceOnUse">
<stop stop-color="white"/>
<stop offset="1" stop-color="white" stop-opacity="0"/>
</linearGradient>
<radialGradient id="paint16_radial_0_985" cx="0" cy="0" r="1" gradientUnits="userSpaceOnUse" gradientTransform="translate(32.1339 90.825) rotate(-15.4869) scale(6.07516 2.27303)">
<stop stop-color="white"/>
<stop offset="1" stop-color="white" stop-opacity="0"/>
</radialGradient>
<radialGradient id="paint17_radial_0_985" cx="0" cy="0" r="1" gradientUnits="userSpaceOnUse" gradientTransform="translate(60.8283 16.7147) scale(84.0597 82.7332)">
<stop stop-color="white"/>
<stop offset="1" stop-color="white" stop-opacity="0"/>
</radialGradient>
<linearGradient id="paint18_linear_0_985" x1="36.2578" y1="80.9051" x2="61.4919" y2="87.5771" gradientUnits="userSpaceOnUse">
<stop stop-color="white"/>
<stop offset="1" stop-color="white" stop-opacity="0"/>
</linearGradient>
<linearGradient id="paint19_linear_0_985" x1="49.6344" y1="65.5652" x2="46.7999" y2="72.0597" gradientUnits="userSpaceOnUse">
<stop stop-color="#EEEEEC"/>
<stop offset="1" stop-color="#EEEEEC" stop-opacity="0"/>
</linearGradient>
<radialGradient id="paint20_radial_0_985" cx="0" cy="0" r="1" gradientUnits="userSpaceOnUse" gradientTransform="translate(73.5552 83.6834) scale(13.2104 16.7883)">
<stop stop-color="white"/>
<stop offset="1" stop-color="white" stop-opacity="0"/>
</radialGradient>
<linearGradient id="paint21_linear_0_985" x1="26.9038" y1="67.7816" x2="30.8738" y2="70.9359" gradientUnits="userSpaceOnUse">
<stop stop-color="white"/>
<stop offset="1" stop-color="white" stop-opacity="0"/>
</linearGradient>
<linearGradient id="paint22_linear_0_985" x1="73.375" y1="84.9671" x2="61.5791" y2="53.2069" gradientUnits="userSpaceOnUse">
<stop stop-color="#729FCF"/>
<stop offset="1" stop-color="#729FCF" stop-opacity="0"/>
</linearGradient>
</defs>
</svg>
