<svg width="100" height="100" viewBox="0 0 100 100" fill="none" xmlns="http://www.w3.org/2000/svg">
<path d="M57 45.3656L65.984 24.1156C66.0904 23.8603 66.3883 23.7395 66.6457 23.8465C66.9021 23.9528 67.025 24.2465 66.917 24.5023L58.9995 43.2268L57 45.3656Z" fill="#939598"/>
<path d="M64.7499 34.5512C64.7499 34.5512 60.4505 40.1858 57.4159 43.4411C54.3787 46.6975 49.9531 51.8316 49.9531 51.8316V63.3103C49.985 63.3082 50.0143 63.3018 50.0462 63.3018C50.7803 63.3018 51.3749 63.8895 51.3749 64.6156C51.3749 65.3422 50.7797 65.931 50.0462 65.931C50.0143 65.931 49.985 65.9236 49.9531 65.9209V77.5018C49.9531 77.5018 55.5265 73.7145 59.5638 70.0507C64.1159 65.9193 69.1749 59.4683 69.1749 59.4683L64.7499 34.5518V34.5512Z" fill="#931A2B"/>
<path d="M46.7973 13.5475L46.7559 18.0225L30.5149 24.5278L30.8005 20.5518L46.7979 13.5464L46.7973 13.5475Z" fill="#A7A9AC"/>
<path d="M69.36 20.3954L69.6764 24.3698L53.3536 17.9954L53.2764 13.522L69.36 20.3954ZM50.0302 12.1326L50.0472 16.7033L26.2892 7.42409L26.7823 2.19431L50.0302 12.1326ZM26.7823 2.19431L26.2892 7.42409L23.1387 9.28313L23.6834 4.17675L26.7823 2.19431Z" fill="#BCBEC0"/>
<path d="M73.1723 1.99963L73.7043 7.22623L50.0473 16.7034L50.0298 12.1321L73.1723 1.99963Z" fill="#A7A9AC"/>
<path d="M76.2947 3.9571L76.8792 9.05976L73.7048 7.22625L73.1729 2.00018L76.2947 3.9571Z" fill="#BCBEC0"/>
<path d="M33.7482 25.4422L30.5142 24.5284L46.7557 18.023L23.1387 9.28367L26.2892 7.4241L50.0472 16.7034L73.7046 7.22623L76.8791 9.05974L53.3536 17.9959L69.6764 24.3698L66.4504 25.3103L50.0621 19.2464L33.7482 25.4411V25.4422Z" fill="#808285"/>
<path d="M23.3952 38.5672C23.3781 38.5672 23.3611 38.5672 23.3446 38.5645C23.067 38.5369 22.8638 38.2933 22.8914 38.0167L25.7866 9.12836C25.8143 8.85442 26.0558 8.65229 26.3398 8.67995C26.6175 8.70655 26.8207 8.95229 26.793 9.22676L23.8984 38.1151C23.8718 38.3736 23.6537 38.5672 23.3962 38.5672H23.3952ZM75.4532 38.5672C75.1888 38.5672 74.9649 38.3619 74.9494 38.0964L73.1994 9.00974C73.1824 8.73315 73.3946 8.49538 73.6739 8.47889C73.9595 8.46027 74.193 8.67251 74.2101 8.9491L75.9585 38.0342C75.976 38.3108 75.7643 38.548 75.4851 38.5651C75.4739 38.5667 75.4638 38.5667 75.4532 38.5672ZM41.6579 44.3805L33.2829 24.6358C33.1749 24.3805 33.2962 24.0858 33.5526 23.9789C33.8111 23.8725 34.1074 23.9927 34.2154 24.2475L43.5111 46.1624L41.6579 44.3805Z" fill="#939598"/>
<path d="M48.7196 64.6167C48.7196 63.922 49.2643 63.3592 49.9536 63.3108V51.8321C49.9536 51.8321 45.5265 46.6975 42.4909 43.4411C39.4558 40.1858 35.1558 34.5512 35.1558 34.5512L30.7302 59.4704C30.7302 59.4704 35.7887 65.9209 40.3409 70.0523C44.3781 73.7161 49.9526 77.5028 49.9526 77.5028V65.9215C49.2648 65.873 48.7196 65.3097 48.7196 64.6167Z" fill="#A81E2C"/>
<path d="M50.0461 65.3672C49.9238 65.3672 49.7993 65.3236 49.7025 65.2342L32.2717 49.2092L32.2664 47.8379L50.043 64.1784L67.594 47.6432L67.6648 48.9581L50.3946 65.2284C50.2967 65.322 50.1711 65.3677 50.0451 65.3677L50.0461 65.3672Z" fill="#939598"/>
<path d="M86.5043 38.0571L64.7505 34.5518C64.7505 34.5518 66.7739 46.0715 66.7739 65.355C66.7739 84.6406 64.1181 97.7885 64.1181 97.7885L86.125 95.4087C86.125 95.4087 88.9064 84.8874 88.9064 66.731C88.9053 48.5752 86.5032 38.0566 86.5032 38.0566L86.5043 38.0571ZM76.4484 88.8975C75.8548 88.8975 75.3734 88.422 75.3734 87.8337C75.3734 87.2475 75.8543 86.7699 76.4484 86.7699C77.0426 86.7699 77.5229 87.2475 77.5229 87.8337C77.5229 88.4209 77.0431 88.8975 76.4484 88.8975ZM33.1325 65.3544C33.1325 46.0709 35.1559 34.5512 35.1559 34.5512L13.4027 38.0566C13.4027 38.0566 11 48.5757 11 66.7321C11 84.8906 13.7819 95.4098 13.7819 95.4098L35.7883 97.7906C35.7883 97.7879 33.1325 84.6411 33.1325 65.3544ZM23.0537 88.8278C22.5005 88.8278 22.0511 88.3826 22.0511 87.8348C22.0511 87.2864 22.4995 86.8417 23.0532 86.8417C23.6064 86.8417 24.0553 87.2864 24.0553 87.8337C24.0553 88.3805 23.6069 88.8262 23.0532 88.8262L23.0537 88.8278Z" fill="#CE2227"/>
<path d="M76.4483 45.3651C76.9973 45.3651 77.4424 44.9245 77.4424 44.381C77.4424 43.8375 76.9973 43.397 76.4483 43.397C75.8992 43.397 75.4541 43.8375 75.4541 44.381C75.4541 44.9245 75.8992 45.3651 76.4483 45.3651Z" fill="#A51724"/>
<path d="M76.4495 88.3347C76.4107 88.3347 76.3708 88.3294 76.3309 88.3198C76.0596 88.2565 75.8915 87.9885 75.9559 87.7166C75.9713 87.6549 77.4596 81.2544 77.4596 66.431C77.4596 51.5789 75.9681 44.5544 75.9537 44.4863C75.8958 44.2151 76.0692 43.9491 76.3415 43.8906C76.6128 43.8321 76.8846 44.0044 76.9426 44.2752C76.958 44.3443 78.4713 51.4746 78.4713 66.431C78.4713 81.3959 77.0027 87.6869 76.9404 87.9475C76.8846 88.181 76.6771 88.3353 76.449 88.3353L76.4495 88.3347Z" fill="#939598"/>
<path d="M23.0537 45.5353C23.6976 45.5353 24.2196 45.0185 24.2196 44.381C24.2196 43.7436 23.6976 43.2268 23.0537 43.2268C22.4097 43.2268 21.8877 43.7436 21.8877 44.381C21.8877 45.0185 22.4097 45.5353 23.0537 45.5353Z" fill="#A51724"/>
<path d="M23.0524 88.3348C22.8062 88.3348 22.5907 88.1555 22.5524 87.9071C22.5402 87.8241 21.2822 79.3901 21.2822 66.1699C21.2822 52.9491 22.5402 44.3933 22.5524 44.3082C22.5939 44.0342 22.8503 43.8454 23.1269 43.8864C23.4035 43.9262 23.595 44.1816 23.554 44.4544C23.5407 44.5395 22.2945 53.0289 22.2945 66.1709C22.2945 79.3183 23.5418 87.6789 23.5535 87.7592C23.5961 88.0305 23.4046 88.2885 23.128 88.3294C23.1024 88.3316 23.0769 88.3348 23.0524 88.3348Z" fill="#939598"/>
</svg>
