<svg width="402" height="385" viewBox="0 0 402 385" fill="none" xmlns="http://www.w3.org/2000/svg">
<g clip-path="url(#clip0_22398_47760)">
<path d="M352.5 231.733H49.5V231.885H352.5V231.733Z" fill="#EBEBEB"/>
<path d="M322.14 241.487H302.068V241.639H322.14V241.487Z" fill="#EBEBEB"/>
<path d="M250.219 243.132H244.951V243.283H250.219V243.132Z" fill="#EBEBEB"/>
<path d="M301.461 235.86H289.831V236.012H301.461V235.86Z" fill="#EBEBEB"/>
<path d="M107.465 236.878H81.29V237.029H107.465V236.878Z" fill="#EBEBEB"/>
<path d="M116.699 236.878H112.861V237.029H116.699V236.878Z" fill="#EBEBEB"/>
<path d="M185.94 239.438H129.172V239.589H185.94V239.438Z" fill="#EBEBEB"/>
<path d="M193.13 204.707H76.1124C74.2053 204.707 72.6533 203.155 72.6533 201.248V36.7598C72.6533 34.8527 74.2053 33.3008 76.1124 33.3008H193.13C195.037 33.3008 196.589 34.8527 196.589 36.7598V201.248C196.589 203.155 195.037 204.707 193.13 204.707ZM76.1124 33.4529C74.2883 33.4529 72.8048 34.9364 72.8048 36.7604V201.248C72.8048 203.072 74.2883 204.556 76.1124 204.556H193.13C194.954 204.556 196.437 203.072 196.437 201.248V36.7598C196.437 34.9364 194.954 33.4523 193.13 33.4523L76.1124 33.4529Z" fill="#EBEBEB"/>
<path d="M324.206 204.707H207.189C205.282 204.707 203.73 203.155 203.73 201.248V36.7598C203.73 34.8527 205.282 33.3008 207.189 33.3008H324.206C326.114 33.3008 327.665 34.8527 327.665 36.7598V201.248C327.666 203.155 326.114 204.707 324.206 204.707ZM207.189 33.4529C205.365 33.4529 203.882 34.9364 203.882 36.7604V201.248C203.882 203.072 205.365 204.556 207.189 204.556H324.206C326.03 204.556 327.514 203.072 327.514 201.248V36.7598C327.514 34.9364 326.03 33.4523 324.206 33.4523L207.189 33.4529Z" fill="#EBEBEB"/>
<path d="M138.498 176.099H95.3486V230.031H138.498C142.671 230.031 146.085 226.617 146.085 222.444V183.687C146.085 179.513 142.671 176.099 138.498 176.099Z" fill="#F0F0F0"/>
<path d="M95.7055 176.099H94.991C90.8175 176.099 87.4033 179.513 87.4033 183.686V222.443C87.4033 226.617 90.8175 230.031 94.991 230.031H95.7055C99.879 230.031 103.293 226.616 103.293 222.443V183.686C103.293 179.513 99.879 176.099 95.7055 176.099Z" fill="#F5F5F5"/>
<path d="M101.125 230.031H157.441V195.992H101.125V230.031Z" fill="#F0F0F0"/>
<path d="M96.4999 231.733H197.998C198.857 231.733 199.554 231.036 199.554 230.177V230.031H138.519L94.9443 230.177C94.9443 231.037 95.6406 231.733 96.4999 231.733Z" fill="#E0E0E0"/>
<path d="M140.956 153.722H193.353C199.198 153.722 203.52 158.459 203.008 164.304L199.554 203.688H125.992L129.446 164.304C129.958 158.459 135.111 153.722 140.956 153.722Z" fill="#E0E0E0"/>
<path d="M132.678 153.722H186.095C191.658 153.722 195.772 158.231 195.284 163.793L191.786 203.688H118.225L121.723 163.793C122.21 158.231 127.115 153.722 132.678 153.722Z" fill="#F5F5F5"/>
<path d="M105.639 192.883H150.247C152.886 192.883 155.025 195.022 155.025 197.661V201.968C155.025 204.606 152.886 206.746 150.247 206.746H105.639C101.811 206.746 98.708 203.642 98.708 199.814C98.708 195.986 101.811 192.883 105.639 192.883Z" fill="#E0E0E0"/>
<path d="M200.837 176.099H157.688V230.031H200.837C205.01 230.031 208.424 226.617 208.424 222.444V183.687C208.424 179.513 205.01 176.099 200.837 176.099Z" fill="#F0F0F0"/>
<path d="M158.044 176.099H157.33C153.156 176.099 149.742 179.513 149.742 183.686V222.443C149.742 226.617 153.157 230.031 157.33 230.031H158.044C162.218 230.031 165.632 226.616 165.632 222.443V183.686C165.632 179.513 162.217 176.099 158.044 176.099Z" fill="#F5F5F5"/>
<path d="M276.759 146.45H235.275V231.734H276.759V146.45Z" fill="#F0F0F0"/>
<path d="M241.477 225.09V153.093H240.52V225.09H241.477Z" fill="#E6E6E6"/>
<path d="M270.64 153.093H240.521V154.304H270.64V153.093Z" fill="#E6E6E6"/>
<path d="M319.199 146.45H277.715V231.734H319.199V146.45Z" fill="#F0F0F0"/>
<path d="M319.199 231.732H324.689V146.449H319.199V231.732Z" fill="#E0E0E0"/>
<path d="M283.917 225.089V153.092H282.961V225.089H283.917Z" fill="#E6E6E6"/>
<path d="M277.715 231.733V147.418H276.759V231.733H277.715Z" fill="#E6E6E6"/>
<path d="M313.079 153.093H282.96V154.304H313.079V153.093Z" fill="#E6E6E6"/>
<path d="M274.941 165.317H272.879V184.162H274.941V165.317Z" fill="#E0E0E0"/>
<path d="M281.595 165.317H279.533V184.162H281.595V165.317Z" fill="#E0E0E0"/>
<path d="M307.723 57.5205H96.2148V132.96H307.723V57.5205Z" fill="#E0E0E0"/>
<path d="M305.784 57.5205H94.2764V132.96H305.784V57.5205Z" fill="#F0F0F0"/>
<path d="M299.438 126.614V63.8662L100.621 63.8662V126.614L299.438 126.614Z" fill="#FAFAFA"/>
<path d="M132.896 126.615L146.074 63.8662H175.157L161.98 126.615H132.896Z" fill="white"/>
<path d="M174.25 126.615L187.427 63.8662H201.969L188.792 126.615H174.25Z" fill="white"/>
<path d="M263.039 126.615L276.216 63.8662H290.757L277.581 126.615H263.039Z" fill="white"/>
<path d="M201 259.102C265.891 259.102 318.496 256.03 318.496 252.241C318.496 248.451 265.891 245.379 201 245.379C136.108 245.379 83.5029 248.451 83.5029 252.241C83.5029 256.03 136.108 259.102 201 259.102Z" fill="#F5F5F5"/>
<path d="M150.102 70.0805C151.628 66.579 138.101 63.3945 134.011 74.1843C130.304 83.9627 124.146 86.4558 127.042 93.2255C130.177 100.556 147.903 101.434 155.601 93.3103C161.841 86.7255 155.063 83.9512 155.938 77.7561C156.813 71.5622 154.972 69.5418 150.102 70.0805Z" fill="#263238"/>
<path d="M125.457 91.0558C124.754 87.2386 126.17 85.6636 127.963 83.6698C129.599 81.8506 131.635 79.5872 132.749 74.7228C133.654 70.7778 136.35 68.1968 140.343 67.4569C144.34 66.7152 148.578 68.0223 149.696 69.6864C150.064 70.2336 150.087 70.816 149.759 71.3262L149.249 70.999C149.446 70.6917 149.428 70.373 149.193 70.0245C148.2 68.5477 144.166 67.3648 140.454 68.0532C137.808 68.5441 134.426 70.1227 133.34 74.8592C132.19 79.8763 130.096 82.2045 128.414 84.0758C126.667 86.0193 125.405 87.4228 126.054 90.9473L125.457 91.0558Z" fill="#263238"/>
<path d="M117.123 88.1541L116.745 86.947C116.487 86.1246 116.019 85.3835 115.387 84.7981L114.195 83.6946C113.405 82.9637 112.207 82.9001 111.344 83.5437L110.043 84.5157C109.046 85.2599 108.85 86.6755 109.608 87.6621L110.447 88.7553C110.447 88.7553 112.406 92.0725 115.249 93.2257L115.904 92.667C115.915 92.6579 115.925 92.6488 115.936 92.6397C117.201 91.5405 117.624 89.7528 117.123 88.1541Z" fill="#FFC3BD"/>
<path d="M140.679 109.193L140.291 109.49L139.977 109.72L139.368 110.144C138.962 110.412 138.555 110.662 138.143 110.901C137.321 111.381 136.471 111.802 135.598 112.192C133.847 112.951 131.977 113.542 129.994 113.86C128.02 114.199 125.916 114.222 123.833 113.897C122.792 113.73 121.758 113.472 120.766 113.105C120.514 113.024 120.271 112.922 120.028 112.82L119.663 112.668L119.481 112.591L119.28 112.502L119.028 112.382C118.39 112.053 117.918 111.68 117.576 111.358C117.213 111.021 116.955 110.716 116.723 110.421C115.849 109.269 115.461 108.329 115.076 107.422C114.713 106.521 114.434 105.665 114.185 104.822C113.719 103.131 113.36 101.503 113.088 99.8697C112.535 96.6058 112.22 93.4122 112.161 90.1143C112.136 88.7599 113.214 87.6418 114.568 87.6176C115.643 87.5982 116.569 88.2727 116.918 89.2296L116.941 89.295C117.994 92.1984 119.01 95.1696 120.077 97.9953C120.625 99.4031 121.159 100.799 121.766 102.072C122.055 102.709 122.358 103.319 122.665 103.844C122.955 104.356 123.318 104.817 123.436 104.891C123.456 104.898 123.463 104.887 123.397 104.81C123.344 104.755 123.199 104.607 122.912 104.456L122.794 104.397C122.761 104.381 122.687 104.354 122.729 104.367L122.825 104.39L123.016 104.439C123.143 104.472 123.268 104.509 123.398 104.527C123.905 104.647 124.428 104.675 124.947 104.715C125.993 104.767 127.075 104.634 128.192 104.375C129.303 104.101 130.448 103.706 131.571 103.177C132.137 102.925 132.691 102.627 133.236 102.326C133.51 102.176 133.775 102.016 134.032 101.859L134.664 101.467L135.138 101.173C137.428 99.7515 140.436 100.456 141.857 102.746C143.189 104.893 142.636 107.683 140.679 109.193Z" fill="#FFC3BD"/>
<path d="M151.332 249.597C155.17 248.335 158.401 245.741 157.748 241.19C157.468 239.239 163.727 238.476 163.727 238.476C163.014 244.674 163.791 245.72 164.539 247.148C165.289 248.583 165.239 250.259 163.945 250.414C162.394 250.599 162.046 250.427 160.12 250.683C157.869 250.982 156.409 252.16 151.905 252.16C149.438 252.16 150.1 250.002 151.332 249.597Z" fill="#F2935C"/>
<path d="M162.974 183.382C163.418 152.331 160.54 135.407 160.54 135.407L137.566 136.551C137.566 136.551 140.964 164.959 146.996 185.885C148.608 197.114 152.24 216.108 154.755 228.862C158.727 228.46 162.708 227.774 165.764 226.777C166.656 215.57 166.817 199.361 162.974 183.382Z" fill="#F2935C"/>
<path d="M163.469 241.516C163.469 241.516 164.367 235.649 164.971 226.777C162.355 227.775 158.948 228.46 155.549 228.862C156.857 236.61 157.79 241.541 157.79 241.541C158.932 242.097 161.829 242.291 163.469 241.516Z" fill="#FFC3BD"/>
<path d="M153.511 225.148C153.717 226.214 154.269 228.887 154.82 229.824C154.886 229.936 154.999 230.01 155.128 230.027C159.41 230.567 163.69 229.703 165.461 228.93C165.56 228.886 165.635 228.81 165.673 228.709C166.154 227.427 166.331 224.722 166.385 223.583C166.398 223.318 166.162 223.112 165.902 223.163C164.496 223.441 160.219 224.212 153.888 224.668C153.644 224.685 153.465 224.908 153.511 225.148Z" fill="#263238"/>
<path d="M137.879 100.039C134.474 100.672 129.278 103.524 129.278 103.524C129.278 103.524 126.545 110.068 129.818 114.784C133.044 115.544 134.684 114.923 134.684 114.923L137.879 100.039Z" fill="#263238"/>
<path opacity="0.2" d="M129.817 114.784C133.044 115.544 134.683 114.923 134.683 114.923L134.57 106.091C132.361 109.041 130.541 111.958 129.817 114.784Z" fill="black"/>
<path opacity="0.2" d="M162.849 165.062C160.28 158.778 157.517 153.603 156.456 148.876C154.65 161.729 156.068 173.552 162.983 182.024C163.062 175.77 162.995 170.11 162.849 165.062Z" fill="black"/>
<path d="M197.95 214.343L188.781 220.863C181.297 211.113 170.074 196.217 167.359 189.733C160.463 173.28 146.597 137.027 146.597 137.027L164.595 132.848C164.595 132.848 175.951 143.392 183.278 183.183C189.429 191.878 194.592 204.701 197.95 214.343Z" fill="#F2935C"/>
<path d="M197.442 245.25C199.728 240.784 199.759 235.86 197.289 231.982C196.23 230.32 201.618 227.046 201.618 227.046C203.523 232.988 205.071 233.334 206.395 234.253C207.758 235.2 207.852 237.159 206.736 237.833C205.399 238.64 204.884 239.167 203.701 240.708C202.32 242.51 201.546 245.026 199.565 246.578C198.297 247.571 196.44 247.206 197.442 245.25Z" fill="#F2935C"/>
<path d="M202.621 229.768C202.621 229.768 201.037 224.207 197.932 215.874C195.959 217.86 193.138 219.889 190.206 221.656C194.59 228.176 197.794 232.861 197.794 232.861C199.741 232.242 201.446 231.15 202.621 229.768Z" fill="#FFC3BD"/>
<path d="M186.818 219.111C187.445 219.999 189.05 222.206 189.938 222.833C190.044 222.908 190.177 222.929 190.302 222.891C194.425 221.618 197.97 219.067 199.264 217.633C199.337 217.553 199.373 217.452 199.366 217.344C199.277 215.978 198.323 213.44 197.903 212.38C197.805 212.133 197.505 212.043 197.289 212.197C196.123 213.03 192.543 215.494 186.963 218.519C186.748 218.636 186.677 218.912 186.818 219.111Z" fill="#263238"/>
<path d="M132.681 109.107C133.505 114.467 130.309 118.625 135.223 121.099C134.408 125.172 135.62 133.32 137.567 136.551C140.296 138.033 153.666 135.84 164.594 132.847C164.434 128.183 160.597 119.002 161.663 103.719C161.91 100.176 159.034 97.1999 155.484 97.3272C154.535 97.3611 153.534 97.4187 152.512 97.5084C148.542 97.8586 145.293 98.1756 141.868 98.9676C140.733 99.23 139.565 99.5385 138.453 99.853C134.438 100.988 132.047 104.982 132.681 109.107Z" fill="#263238"/>
<path d="M140.407 105.004C140.407 105.004 143.827 103.752 145.625 106.825C148.609 105.148 152.814 98.0506 152.512 97.5088C147.511 98.8796 140.407 105.004 140.407 105.004Z" fill="white"/>
<path d="M140.407 105.004C140.407 105.004 137.806 104.695 137.074 106.993C137.1 102.448 140.138 99.5922 141.48 99.0596C141.03 100.243 140.407 105.004 140.407 105.004Z" fill="white"/>
<path d="M151.196 85.4785C150.817 89.0194 150.754 94.7194 152.512 97.5088C152.512 97.5088 145.876 102.077 140.407 105.003C138.69 101.034 141.48 99.059 141.48 99.059C144.079 98.0603 144.056 94.7358 143.704 92.1888L151.196 85.4785Z" fill="#FFC3BD"/>
<path opacity="0.2" d="M143.702 92.1889L147.964 88.3711C148.121 88.9468 148.054 89.7873 147.829 90.5127C147.162 92.6107 145.406 94.2929 143.843 95.208C143.92 94.2044 143.834 93.1452 143.702 92.1889Z" fill="black"/>
<path d="M152.566 78.8921C151.994 84.6449 151.871 87.0919 148.899 89.9401C144.429 94.2239 137.626 92.2587 136.502 86.4502C135.49 81.2216 136.597 72.6927 142.222 70.6148C147.764 68.5665 153.14 73.1394 152.566 78.8921Z" fill="#FFC3BD"/>
<path d="M151.281 83.1004C149.21 81.2545 149.564 78.0621 151.079 76.5277C152.594 74.9927 154.725 78.1658 154.725 78.1658L151.281 83.1004Z" fill="#263238"/>
<path d="M144.282 80.4846C144.264 80.9543 144.001 81.3251 143.693 81.313C143.386 81.3009 143.152 80.9106 143.171 80.441C143.189 79.9713 143.453 79.6005 143.76 79.6126C144.067 79.6247 144.301 80.015 144.282 80.4846Z" fill="#263238"/>
<path d="M138.505 80.3411C138.487 80.8107 138.223 81.1816 137.916 81.1695C137.609 81.1574 137.375 80.7671 137.394 80.2974C137.412 79.8278 137.675 79.4569 137.983 79.469C138.289 79.4812 138.523 79.872 138.505 80.3411Z" fill="#263238"/>
<path d="M138.117 79.4999L137.002 79.1309C137.002 79.1309 137.546 80.0344 138.117 79.4999Z" fill="#263238"/>
<path d="M139.925 80.5264C139.925 80.5264 139.049 82.5165 138.134 83.4576C138.731 84.0606 139.795 83.8369 139.795 83.8369L139.925 80.5264Z" fill="#ED847E"/>
<path d="M142.428 85.6787C142.183 85.7121 141.919 85.7266 141.638 85.7157C141.562 85.7127 141.503 85.6484 141.505 85.5721C141.508 85.4963 141.57 85.4375 141.649 85.4394C143.708 85.5212 144.728 84.1183 144.738 84.1043C144.782 84.0419 144.868 84.0274 144.93 84.071C144.992 84.1153 145.007 84.2013 144.963 84.2631C144.924 84.3189 144.103 85.4491 142.428 85.6787Z" fill="#263238"/>
<path d="M153.528 83.7142C152.982 84.8038 152.059 85.4735 151.2 85.6886C149.908 86.0122 149.309 84.5887 149.708 83.1713C150.067 81.8956 151.172 80.1897 152.449 80.5036C153.708 80.8127 154.152 82.4683 153.528 83.7142Z" fill="#FFC3BD"/>
<path d="M149.587 70.7008C145.02 73.5793 140.143 74.9931 136.168 75.4985C136.132 71.3571 144.256 66.7109 149.587 70.7008Z" fill="#263238"/>
<path d="M146.467 71.2053C145.524 74.8413 154.917 81.4867 153.149 87.9206C156.23 83.1229 154.008 72.3373 154.008 72.3373C154.008 72.3373 146.047 67.3166 146.467 71.2053Z" fill="#263238"/>
<path d="M145.492 77.3941C145.42 77.382 145.353 77.342 145.308 77.2772C144.616 76.2591 143.602 76.267 143.59 76.267C143.44 76.2688 143.312 76.1488 143.309 75.9961C143.306 75.844 143.427 75.7179 143.58 75.7149C143.633 75.7143 144.907 75.7034 145.765 76.9669C145.85 77.0929 145.817 77.2644 145.691 77.3505C145.631 77.3911 145.559 77.405 145.492 77.3941Z" fill="#263238"/>
<path d="M135.947 77.19C135.878 77.1887 135.81 77.1615 135.758 77.1094C135.65 77.0015 135.65 76.827 135.757 76.7191C136.835 75.6392 138.085 75.8858 138.138 75.8974C138.287 75.9289 138.383 76.0749 138.351 76.224C138.321 76.3731 138.174 76.4682 138.025 76.4379C137.976 76.4276 137.005 76.2501 136.147 77.1088C136.093 77.1651 136.02 77.1918 135.947 77.19Z" fill="#263238"/>
<path d="M143.894 79.6435L142.779 79.2744C142.779 79.2744 143.323 80.1774 143.894 79.6435Z" fill="#263238"/>
<path opacity="0.2" d="M161.517 106.675C161.4 110.264 161.554 113.488 161.841 116.361C158.794 113.159 155.002 107.119 154.755 104.09L161.517 106.675Z" fill="black"/>
<path d="M181.303 95.2739L181.968 91.4258L187.946 93.734C187.946 93.734 186.561 97.3167 184.01 98.899L183.3 98.4493C182.144 97.7179 181.41 96.5501 181.303 95.2739Z" fill="#FFC3BD"/>
<path d="M185.699 89.2844L187.662 90.3521C188.557 90.8388 188.893 91.9562 188.414 92.8555L187.945 93.7348L181.968 91.4266L183.386 89.7261C183.954 89.0462 184.921 88.8614 185.699 89.2844Z" fill="#FFC3BD"/>
<path d="M160.455 99.672L161.213 100.459L162.044 101.299C162.61 101.852 163.173 102.412 163.754 102.946C164.904 104.03 166.097 105.039 167.286 105.974C168.483 106.889 169.697 107.714 170.863 108.335C172.032 108.951 173.139 109.336 173.949 109.439L172.32 109.742C171.919 109.933 171.943 110.018 172.029 109.955C172.118 109.903 172.29 109.758 172.476 109.575C172.853 109.198 173.279 108.663 173.69 108.087C174.513 106.919 175.351 105.59 176.135 104.216C176.938 102.846 177.714 101.425 178.492 99.9908L180.828 95.6736L180.847 95.6379C181.493 94.4446 182.983 94.0005 184.176 94.6458C185.118 95.1555 185.592 96.196 185.432 97.1965C185.151 98.9412 184.773 100.591 184.347 102.27C183.915 103.941 183.417 105.599 182.843 107.263C182.245 108.92 181.611 110.587 180.733 112.285C180.288 113.137 179.804 114.001 179.14 114.927C178.804 115.392 178.42 115.871 177.895 116.382C177.368 116.882 176.711 117.468 175.537 117.975C175.093 118.167 174.631 118.263 174.176 118.274L173.907 118.278C171.226 118.328 168.934 117.658 166.955 116.821C165.962 116.397 165.021 115.931 164.132 115.43C163.251 114.919 162.406 114.382 161.593 113.825C159.97 112.71 158.484 111.491 157.074 110.219C156.374 109.576 155.684 108.929 155.026 108.246C154.695 107.908 154.366 107.565 154.044 107.211C153.712 106.843 153.427 106.522 153.044 106.07C151.297 104.007 151.554 100.92 153.616 99.1733C155.593 97.4995 158.512 97.6655 160.289 99.4987L160.455 99.672Z" fill="#FFC3BD"/>
<path d="M155.752 97.335C160.191 97.4707 164.611 102.804 164.611 102.804C164.611 102.804 162.899 109.862 158.033 112.906C155.297 110.77 152.975 109.063 152.975 109.063C149.1 103.374 150.39 99.5996 155.752 97.335Z" fill="#263238"/>
<path d="M136.678 136.13C137.005 138.031 137.4 139.518 137.526 139.975C137.554 140.073 137.616 140.152 137.705 140.202C138.355 140.563 141.311 141.999 146.737 141.704C152.83 141.373 161.689 138.079 166.303 134.544C166.442 134.438 166.491 134.252 166.422 134.091C166.033 133.179 165.454 132.241 165.177 131.811C165.085 131.668 164.909 131.604 164.745 131.653C162.759 132.25 150.245 135.841 137.062 135.684C136.823 135.681 136.638 135.894 136.678 136.13Z" fill="#F2935C"/>
<path opacity="0.3" d="M136.678 136.13C137.005 138.031 137.4 139.518 137.526 139.975C137.554 140.073 137.616 140.152 137.705 140.202C138.355 140.563 141.311 141.999 146.737 141.704C152.83 141.373 161.689 138.079 166.303 134.544C166.442 134.438 166.491 134.252 166.422 134.091C166.033 133.179 165.454 132.241 165.177 131.811C165.085 131.668 164.909 131.604 164.745 131.653C162.759 132.25 150.245 135.841 137.062 135.684C136.823 135.681 136.638 135.894 136.678 136.13Z" fill="white"/>
<path d="M258.126 234.165H178.341C172.049 234.165 167.204 229.017 167.573 222.726L177.3 56.8891C177.669 50.5976 183.118 45.4502 189.409 45.4502H269.195C275.486 45.4502 280.331 50.5976 279.962 56.8884L270.236 222.726C269.867 229.017 264.418 234.165 258.126 234.165Z" fill="#F2935C"/>
<path opacity="0.8" d="M258.126 234.165H178.341C172.049 234.165 167.204 229.017 167.573 222.726L177.3 56.8891C177.669 50.5976 183.118 45.4502 189.409 45.4502H269.195C275.486 45.4502 280.331 50.5976 279.962 56.8884L270.236 222.726C269.867 229.017 264.418 234.165 258.126 234.165Z" fill="white"/>
<path d="M257.653 230.847H180.093C175.671 230.847 172.266 227.23 172.526 222.808L182.209 57.6954C182.469 53.2741 186.299 49.6562 190.72 49.6562H268.281C272.702 49.6562 276.107 53.2735 275.849 57.6954L266.165 222.808C265.905 227.23 262.075 230.847 257.653 230.847Z" fill="#F2935C"/>
<path d="M256.817 229.959H179.255C174.834 229.959 171.429 226.341 171.688 221.919L181.372 56.8068C181.631 52.3854 185.46 48.7676 189.882 48.7676H267.443C271.864 48.7676 275.269 52.3848 275.01 56.8068L265.326 221.919C265.067 226.341 261.238 229.959 256.817 229.959Z" fill="white"/>
<path opacity="0.1" d="M254.552 223.819H182.24C179.507 223.819 177.402 221.583 177.562 218.85L181.602 149.978C181.762 147.245 184.129 145.01 186.862 145.01H259.174C261.907 145.01 264.012 147.246 263.852 149.978L259.812 218.85C259.652 221.583 257.285 223.819 254.552 223.819Z" fill="#F2935C"/>
<path opacity="0.1" d="M238.485 61.0155H217.406C216.427 61.0155 215.673 60.2149 215.731 59.2362C215.788 58.2576 216.635 57.457 217.614 57.457H238.693C239.672 57.457 240.426 58.2576 240.368 59.2362C240.311 60.2143 239.463 61.0155 238.485 61.0155Z" fill="#F2935C"/>
<path opacity="0.1" d="M246.88 127.481C259.862 114.873 260.748 94.727 248.858 82.4837C236.968 70.2404 216.805 70.5362 203.822 83.1444C190.839 95.7527 189.953 115.899 201.843 128.142C213.733 140.385 233.897 140.09 246.88 127.481Z" fill="#F2935C"/>
<path d="M203.063 126.395C197.717 120.728 195.032 113.197 195.502 105.193L196.107 105.229C195.647 113.065 198.274 120.434 203.503 125.98L203.063 126.395Z" fill="#F2935C"/>
<path d="M255.191 105.442L254.586 105.406C254.745 102.698 254.536 100.02 253.964 97.445L254.555 97.3135C255.139 99.9435 255.353 102.678 255.191 105.442Z" fill="#F2935C"/>
<path d="M252.219 92.1749C250.977 89.4085 249.285 86.8785 247.188 84.6551C244.285 81.5772 240.809 79.2756 236.856 77.8145L237.067 77.2461C241.108 78.7399 244.662 81.0924 247.629 84.2393C249.773 86.5118 251.503 89.0989 252.772 91.9271L252.219 92.1749Z" fill="#F2935C"/>
<path d="M244.11 124.629C255.422 113.643 256.194 96.0886 245.834 85.4204C235.473 74.7521 217.904 75.0097 206.591 85.9957C195.279 96.9818 194.507 114.536 204.868 125.204C215.228 135.873 232.797 135.615 244.11 124.629Z" fill="#F2935C"/>
<path d="M222.263 109.076C222.268 109.075 222.275 109.072 222.28 109.071C223.612 108.779 224.235 107.636 224.519 106.338C224.547 106.204 224.574 106.07 224.596 105.933C224.602 105.893 224.608 105.854 224.615 105.814C224.695 105.266 224.728 104.706 224.737 104.182C222.211 103.906 220.091 101.939 219.973 99.0086C219.883 96.7924 220.388 93.9085 221.591 91.596C221.349 91.6293 221.064 91.7202 220.773 91.9353C220.725 91.9711 220.666 91.9826 220.612 91.9735C220.56 91.9644 220.513 91.9366 220.479 91.8911C220.41 91.7978 220.43 91.6663 220.523 91.5972C221.005 91.2415 221.479 91.1578 221.832 91.1609C221.917 91.013 222.003 90.8651 222.095 90.7239C221.711 90.7324 221.335 90.733 220.971 90.7246C221.371 87.9248 226.756 85.5723 230.43 87.7206C232.064 88.0479 234.764 90.3828 234.764 90.3828C234.764 90.3828 234.871 92.4074 234.638 94.852V94.8526H234.638C234.398 97.3815 233.796 100.36 232.339 102.017C232.72 101.159 232.814 100.251 232.723 99.3261C232.338 99.7012 231.896 99.9333 231.464 100.042C231.29 100.426 231.093 100.778 230.87 101.111C230.299 103.709 229.896 107.176 230.764 109.164C231.543 109.213 232.303 109.284 233.022 109.367C233.082 109.374 233.139 109.388 233.199 109.397C233.67 109.118 234.129 108.81 234.571 108.466C240.021 104.221 234.232 99.2479 235.599 94.6842C236.965 90.1204 235.81 88.389 232.082 88.2381C233.631 85.776 223.81 81.8333 219.497 89.4901C215.589 96.4288 214.327 99.8903 215.733 105.318C216.178 107.036 217.402 108.462 219.073 109.495C219.345 109.421 219.622 109.36 219.91 109.324C220.679 109.227 221.479 109.142 222.263 109.076Z" fill="#263238"/>
<path d="M213.785 119.745C213.52 119.294 213.309 118.876 213.156 118.54C212.744 119.762 212.338 120.985 211.935 122.192C211.565 123.284 211.203 124.375 210.829 125.415L210.269 126.888L210.023 127.47C209.94 127.634 210.023 127.541 210.014 127.585C209.905 127.745 209.53 128.095 209.159 128.415C209.087 128.476 209.008 128.539 208.933 128.601C210.592 129.718 212.39 130.655 214.308 131.37C214.349 128.601 214.692 125.722 215.051 124.952C212.911 123.433 213.241 121.782 213.785 119.745Z" fill="#FFC3BD"/>
<path d="M215.91 111.573C215.858 111.639 215.806 111.713 215.754 111.784C215.806 111.714 215.859 111.646 215.913 111.578L215.91 111.573Z" fill="#263238"/>
<path d="M214.507 115.632C214.505 114.253 214.929 112.957 215.667 111.899C214.13 114.038 212.819 117.713 212.819 117.713C212.819 117.713 212.927 118.038 213.156 118.539C213.308 118.875 213.52 119.293 213.785 119.745C214.109 118.529 214.51 117.176 214.507 115.632Z" fill="#263238"/>
<path d="M235.633 124.423C234.991 123.504 234.324 122.338 233.724 121.106C233.539 121.205 233.354 121.303 233.16 121.386C231.344 119.466 229.791 117.916 229.791 117.916C227.523 113.19 228.926 110.495 233.221 109.402C233.877 109.523 234.509 109.799 235.101 110.158C234.55 109.774 233.906 109.506 233.197 109.397C233.137 109.388 233.08 109.374 233.02 109.366C232.302 109.284 231.541 109.213 230.762 109.163C230.927 109.606 227.038 115.194 224.599 116.116C223.596 113.597 220.792 113.424 220.792 113.424C220.792 113.424 218.176 112.888 217.362 114.534C217.898 111.131 221.175 109.337 222.263 109.076C221.478 109.142 220.679 109.227 219.91 109.323C219.622 109.36 219.344 109.422 219.073 109.495C217.795 109.842 216.706 110.584 215.913 111.578C215.859 111.646 215.806 111.713 215.754 111.783C215.726 111.821 215.695 111.86 215.668 111.899C214.929 112.956 214.505 114.251 214.508 115.631C214.511 117.175 214.11 118.529 213.785 119.745C213.242 121.782 212.912 123.434 215.051 124.951C214.692 125.722 214.349 128.6 214.308 131.37C217.211 132.453 220.379 133.044 223.721 133.044C227.926 133.044 231.964 132.104 235.633 130.429C235.549 128.489 235.521 126.228 235.685 123.659L235.684 123.657C235.667 123.912 235.646 124.175 235.633 124.423Z" fill="#263238"/>
<path d="M220.793 113.424C220.793 113.424 223.598 113.598 224.6 116.117C227.039 115.195 230.928 109.606 230.763 109.164C230.763 109.164 225.245 111.846 220.793 113.424Z" fill="white"/>
<path d="M222.28 109.071C222.275 109.072 222.268 109.075 222.263 109.076C221.176 109.337 217.898 111.131 217.362 114.534C218.176 112.888 220.793 113.425 220.793 113.425C219.954 110.24 222.28 109.071 222.28 109.071Z" fill="white"/>
<path d="M224.596 105.933C224.602 105.894 224.608 105.854 224.614 105.814C224.608 105.854 224.602 105.893 224.596 105.933Z" fill="#FFC3BD"/>
<path d="M230.87 101.111C230.391 101.823 229.777 102.44 228.908 103.052C228.572 103.289 228.226 103.475 227.878 103.638C227.095 104.993 225.699 105.964 224.499 106.442C224.507 106.408 224.512 106.373 224.519 106.338C224.236 107.636 223.613 108.778 222.28 109.071C222.28 109.071 219.954 110.24 220.793 113.424C225.245 111.845 230.763 109.164 230.763 109.164C229.895 107.176 230.299 103.709 230.87 101.111Z" fill="#FFC3BD"/>
<path d="M224.519 106.338C224.548 106.204 224.573 106.069 224.596 105.933C224.573 106.07 224.547 106.204 224.519 106.338Z" fill="#263238"/>
<path opacity="0.2" d="M224.519 106.338C224.548 106.204 224.573 106.069 224.596 105.933C224.573 106.07 224.547 106.204 224.519 106.338Z" fill="black"/>
<path d="M224.737 104.182C224.728 104.706 224.695 105.266 224.614 105.814C224.697 105.264 224.73 104.705 224.738 104.182H224.737Z" fill="#263238"/>
<path opacity="0.2" d="M224.737 104.182C224.728 104.706 224.695 105.266 224.614 105.814C224.697 105.264 224.73 104.705 224.738 104.182H224.737Z" fill="black"/>
<path d="M227.878 103.638C226.832 104.127 225.754 104.293 224.738 104.182C224.73 104.705 224.697 105.265 224.614 105.814C224.608 105.854 224.602 105.893 224.595 105.933C224.573 106.07 224.547 106.205 224.518 106.339C224.51 106.373 224.506 106.409 224.498 106.443C225.698 105.964 227.094 104.993 227.878 103.638Z" fill="#FFC3BD"/>
<path opacity="0.2" d="M227.878 103.638C226.832 104.127 225.754 104.293 224.738 104.182C224.73 104.705 224.697 105.265 224.614 105.814C224.608 105.854 224.602 105.893 224.595 105.933C224.573 106.07 224.547 106.205 224.518 106.339C224.51 106.373 224.506 106.409 224.498 106.443C225.698 105.964 227.094 104.993 227.878 103.638Z" fill="black"/>
<path d="M227.878 103.638C228.226 103.475 228.572 103.289 228.907 103.052C229.777 102.44 230.39 101.823 230.869 101.111C231.093 100.779 231.289 100.426 231.464 100.042C231.35 100.071 231.235 100.105 231.125 100.115C230.115 100.211 229.827 99.0709 230.289 98.0492C230.43 97.7377 230.642 97.3995 230.895 97.1026C230.612 96.2221 230.718 95.2725 231.078 94.4853C230.153 92.5939 229.178 90.862 229.089 89.5791C226.623 90.3433 224.212 90.6772 222.094 90.725C222.002 90.8662 221.916 91.0141 221.831 91.162C222.163 91.165 222.39 91.2444 222.409 91.251C222.518 91.2916 222.573 91.4128 222.532 91.5213C222.492 91.6298 222.371 91.6849 222.263 91.645C222.241 91.6365 221.968 91.545 221.591 91.5965C220.387 93.909 219.882 96.7923 219.972 99.0091C220.091 101.939 222.21 103.907 224.736 104.182L224.738 104.183C225.754 104.293 226.833 104.127 227.878 103.638ZM226.526 91.7346C226.566 91.7401 227.526 91.8777 228.028 92.9266C228.078 93.0315 228.034 93.1569 227.929 93.2072C227.879 93.2315 227.823 93.2333 227.774 93.2175C227.721 93.2006 227.675 93.1624 227.649 93.1084C227.244 92.2631 226.479 92.1528 226.47 92.1516C226.357 92.1352 226.274 92.031 226.29 91.9152C226.305 91.8007 226.411 91.7195 226.526 91.7346ZM226.314 94.7289C226.31 94.7319 226.306 94.7319 226.301 94.7349C226.474 94.8349 226.568 95.1034 226.511 95.4064C226.443 95.7579 226.202 96.0069 225.973 95.9627C225.743 95.9185 225.611 95.5979 225.679 95.2464C225.717 95.044 225.816 94.8846 225.934 94.7865C225.672 94.6871 225.518 94.3235 225.518 94.3235L226.314 94.7289ZM221.345 94.4786C221.383 94.2768 221.482 94.1174 221.6 94.0193C221.338 93.9199 221.183 93.5563 221.183 93.5563L221.98 93.9617C221.975 93.9647 221.972 93.9647 221.967 93.9677C222.14 94.0677 222.234 94.3362 222.177 94.6386C222.109 94.9901 221.868 95.2391 221.639 95.1949C221.409 95.1507 221.278 94.8301 221.345 94.4786ZM222.75 97.4183C222.75 97.4183 221.923 97.465 221.542 96.9426C222.338 96.3384 223.226 94.9404 223.226 94.9404L222.75 97.4183ZM223.922 99.0424C223.865 99.0315 223.828 98.9763 223.839 98.9188C223.85 98.8624 223.903 98.8248 223.962 98.8357C225.503 99.1327 226.431 98.1928 226.44 98.1831C226.48 98.1413 226.547 98.1401 226.589 98.1807C226.631 98.2207 226.632 98.2873 226.591 98.3291C226.556 98.3661 225.809 99.123 224.521 99.1048C224.332 99.1018 224.133 99.0824 223.922 99.0424Z" fill="#FFC3BD"/>
<path d="M234.639 94.8536V94.8516L234.638 94.8536H234.639Z" fill="#263238"/>
<path d="M231.917 96.3418C231.664 95.7127 231.374 95.0904 231.078 94.4844C230.718 95.2722 230.612 96.2212 230.896 97.1017C231.193 96.7532 231.548 96.4636 231.917 96.3418Z" fill="#263238"/>
<path d="M225.934 94.7869C225.816 94.885 225.718 95.0444 225.679 95.2468C225.611 95.5983 225.743 95.9189 225.973 95.9631C226.202 96.0073 226.443 95.7583 226.511 95.4068C226.569 95.1044 226.474 94.8353 226.301 94.7354C226.162 94.8256 226.04 94.8275 225.934 94.7869Z" fill="#263238"/>
<path d="M222.177 94.6386C222.235 94.3356 222.141 94.0678 221.968 93.9678C221.829 94.0581 221.706 94.0599 221.601 94.0193C221.483 94.1175 221.384 94.2768 221.346 94.4786C221.279 94.8301 221.409 95.1507 221.639 95.1949C221.869 95.2386 222.11 94.9901 222.177 94.6386Z" fill="#263238"/>
<path d="M221.968 93.9671C221.973 93.9641 221.977 93.9641 221.981 93.9611L221.185 93.5557C221.185 93.5557 221.339 93.9193 221.601 94.0186C221.707 94.0592 221.829 94.0574 221.968 93.9671Z" fill="#263238"/>
<path d="M221.542 96.9426C221.923 97.465 222.75 97.4184 222.75 97.4184L223.225 94.9404C223.225 94.9404 222.339 96.3385 221.542 96.9426Z" fill="#ED847E"/>
<path d="M226.589 98.1808C226.547 98.1408 226.48 98.1415 226.44 98.1833C226.431 98.193 225.503 99.1323 223.962 98.8359C223.903 98.825 223.85 98.8626 223.839 98.9189C223.828 98.9765 223.865 99.0317 223.922 99.0426C224.133 99.0826 224.333 99.102 224.521 99.105C225.809 99.1232 226.556 98.3663 226.592 98.3293C226.631 98.2875 226.63 98.2214 226.589 98.1808Z" fill="#263238"/>
<path d="M231.917 96.3418C231.548 96.4636 231.193 96.7539 230.896 97.1023C230.642 97.3993 230.43 97.7374 230.29 98.0489C229.827 99.0706 230.116 100.21 231.125 100.115C231.235 100.104 231.35 100.071 231.464 100.042C231.896 99.9336 232.338 99.7015 232.723 99.3263C232.626 98.3392 232.317 97.332 231.917 96.3418Z" fill="#FFC3BD"/>
<path d="M229.215 88.6697C229.253 87.7953 229.749 87.585 230.429 87.7213C226.755 85.5731 221.37 87.9256 220.97 90.7253C221.333 90.7338 221.709 90.7332 222.093 90.7247C224.211 90.6768 226.623 90.3429 229.089 89.5787C229.066 89.2436 229.1 88.9382 229.215 88.6697Z" fill="#263238"/>
<path d="M229.215 88.6701C229.101 88.9385 229.066 89.244 229.09 89.5791C229.179 90.862 230.154 92.5939 231.078 94.4852C231.375 95.0912 231.664 95.713 231.918 96.3426C232.318 97.3334 232.626 98.3406 232.724 99.3272C232.815 100.253 232.721 101.16 232.339 102.018C233.796 100.361 234.398 97.3825 234.638 94.8537L234.639 94.8531C234.871 92.4085 234.765 90.3838 234.765 90.3838C234.765 90.3838 232.064 88.0489 230.431 87.7217C229.749 87.5853 229.253 87.7956 229.215 88.6701Z" fill="#263238"/>
<path d="M226.47 92.1522C226.48 92.1534 227.244 92.2637 227.649 93.109C227.675 93.163 227.721 93.2011 227.774 93.2181C227.824 93.2339 227.879 93.2321 227.929 93.2078C228.034 93.1575 228.078 93.0321 228.028 92.9272C227.526 91.8782 226.566 91.7407 226.526 91.7352C226.411 91.7201 226.306 91.8007 226.29 91.9158C226.275 92.0316 226.357 92.1364 226.47 92.1522Z" fill="#263238"/>
<path d="M222.262 91.6452C222.37 91.6852 222.491 91.63 222.532 91.5215C222.572 91.4131 222.517 91.2919 222.408 91.2513C222.389 91.244 222.163 91.1646 221.83 91.1622C221.477 91.1592 221.003 91.2428 220.521 91.5985C220.428 91.667 220.408 91.7991 220.477 91.8924C220.51 91.9379 220.558 91.9657 220.61 91.9748C220.665 91.9845 220.723 91.9724 220.771 91.9367C221.062 91.7215 221.347 91.6306 221.589 91.5973C221.967 91.5452 222.241 91.6367 222.262 91.6452Z" fill="#263238"/>
<path d="M225.935 94.7862C226.041 94.8262 226.162 94.8244 226.301 94.7347C226.306 94.7317 226.31 94.7323 226.314 94.7287L225.518 94.3232C225.518 94.3232 225.672 94.6868 225.935 94.7862Z" fill="#263238"/>
<path d="M235.633 124.423C235.646 124.174 235.667 123.911 235.683 123.657C235.344 123.115 234.994 122.572 234.638 122.028C234.408 121.684 234.173 121.338 233.939 120.992C233.868 121.032 233.795 121.067 233.724 121.106C234.324 122.338 234.991 123.504 235.633 124.423Z" fill="#263238"/>
<path opacity="0.2" d="M235.633 124.423C235.646 124.174 235.667 123.911 235.683 123.657C235.344 123.115 234.994 122.572 234.638 122.028C234.408 121.684 234.173 121.338 233.939 120.992C233.868 121.032 233.795 121.067 233.724 121.106C234.324 122.338 234.991 123.504 235.633 124.423Z" fill="black"/>
<path d="M237.435 129.445L237.416 129.542C239.834 128.235 242.061 126.6 244.034 124.696C243.691 123.674 243.295 122.739 242.871 121.83C242.273 120.527 241.608 119.314 240.91 118.13C240.309 117.089 239.663 116.093 239.001 115.11C238.383 116.376 236.674 119.427 233.939 120.993C234.174 121.339 234.409 121.685 234.639 122.03C234.994 122.573 235.345 123.116 235.684 123.658L235.685 123.66C235.983 124.137 236.273 124.612 236.544 125.085C237.006 125.904 237.445 126.725 237.778 127.48L237.715 127.894C237.635 128.398 237.539 128.917 237.435 129.445Z" fill="#FFC3BD"/>
<path d="M229.792 117.916C229.792 117.916 231.345 119.467 233.161 121.387C233.354 121.303 233.54 121.205 233.725 121.107C233.796 121.069 233.87 121.034 233.94 120.994C236.675 119.427 238.383 116.377 239.002 115.111C239.176 114.756 239.268 114.534 239.268 114.534C239.268 114.534 237.514 111.624 235.102 110.16C234.51 109.8 233.878 109.524 233.222 109.403C228.926 110.496 227.524 113.19 229.792 117.916Z" fill="#263238"/>
<path d="M258.846 57.1294H267.386C267.863 57.1294 268.275 56.7398 268.303 56.2634C268.331 55.7871 267.964 55.3975 267.488 55.3975H258.948C258.471 55.3975 258.059 55.7871 258.031 56.2634C258.003 56.7398 258.37 57.1294 258.846 57.1294Z" fill="#F2935C"/>
<path d="M258.672 60.1021H267.212C267.689 60.1021 268.101 59.7124 268.129 59.2361C268.157 58.7598 267.791 58.3701 267.314 58.3701H258.774C258.298 58.3701 257.885 58.7598 257.857 59.2361C257.829 59.7124 258.196 60.1021 258.672 60.1021Z" fill="#F2935C"/>
<path d="M189.596 60.1021H198.136C198.613 60.1021 199.025 59.7124 199.053 59.2361C199.081 58.7598 198.714 58.3701 198.238 58.3701H189.698C189.221 58.3701 188.809 58.7598 188.781 59.2361C188.753 59.7124 189.12 60.1021 189.596 60.1021Z" fill="#F2935C"/>
<path d="M258.497 63.0737H267.038C267.514 63.0737 267.927 62.6841 267.954 62.2078C267.982 61.7315 267.616 61.3418 267.139 61.3418H258.599C258.123 61.3418 257.711 61.7315 257.682 62.2078C257.654 62.6841 258.021 63.0737 258.497 63.0737Z" fill="#F2935C"/>
<path d="M247.275 171.798H195.618C191.504 171.798 188.335 168.432 188.576 164.317C188.818 160.203 192.381 156.837 196.496 156.837H248.153C252.268 156.837 255.436 160.203 255.195 164.317C254.954 168.432 251.39 171.798 247.275 171.798Z" fill="white"/>
<path d="M246.097 191.895H194.439C190.325 191.895 187.156 188.529 187.398 184.415C187.639 180.301 191.203 176.935 195.317 176.935H246.975C251.089 176.935 254.258 180.301 254.016 184.415C253.775 188.529 250.212 191.895 246.097 191.895Z" fill="white"/>
<path d="M244.919 211.992H193.262C189.148 211.992 185.979 208.626 186.22 204.512C186.461 200.398 190.025 197.031 194.139 197.031H245.797C249.911 197.031 253.081 200.398 252.839 204.512C252.597 208.626 249.034 211.992 244.919 211.992Z" fill="white"/>
<path d="M199.637 166.996C201.209 165.47 201.316 163.031 199.877 161.549C198.438 160.067 195.997 160.102 194.425 161.629C192.853 163.155 192.746 165.594 194.185 167.076C195.625 168.558 198.066 168.523 199.637 166.996Z" fill="#F2935C"/>
<path d="M196.569 180.768L197.08 182.688C197.139 182.908 197.335 183.057 197.566 183.057H199.585C200.102 183.057 200.279 183.72 199.842 184.023L198.139 185.21C197.944 185.346 197.851 185.587 197.91 185.807L198.422 187.727C198.553 188.219 197.965 188.628 197.565 188.323L196.001 187.137C195.822 187.001 195.569 187.001 195.374 187.137L193.671 188.323C193.234 188.628 192.695 188.219 192.884 187.727L193.62 185.807C193.705 185.587 193.64 185.346 193.462 185.21L191.898 184.023C191.498 183.719 191.751 183.057 192.269 183.057H194.288C194.519 183.057 194.733 182.908 194.817 182.688L195.554 180.768C195.741 180.276 196.437 180.276 196.569 180.768Z" fill="#F2935C"/>
<path d="M197.986 202.479L197.67 207.87C197.642 208.333 197.245 208.709 196.781 208.709H192.062C191.599 208.709 191.245 208.333 191.272 207.87L191.666 201.155C191.693 200.691 192.091 200.315 192.554 200.315H195.948L197.986 202.479Z" fill="#F2935C"/>
<path d="M195.949 200.315L197.986 202.479H196.661C196.198 202.479 195.844 202.104 195.871 201.64L195.949 200.315ZM195.409 198.828L195.323 200.279L195.246 201.604C195.222 202.002 195.358 202.379 195.627 202.664C195.896 202.95 196.263 203.106 196.661 203.106H197.986H199.436L198.442 202.051L196.406 199.887L195.409 198.828Z" fill="white"/>
<path opacity="0.2" d="M245.538 163.526H206.887C206.217 163.526 205.701 162.978 205.74 162.308C205.78 161.638 206.36 161.09 207.03 161.09H245.681C246.351 161.09 246.867 161.638 246.828 162.308C246.789 162.978 246.208 163.526 245.538 163.526Z" fill="#F2935C"/>
<path opacity="0.2" d="M238.212 167.545H206.651C205.98 167.545 205.465 166.996 205.504 166.326C205.543 165.656 206.124 165.108 206.794 165.108H238.355C239.026 165.108 239.541 165.657 239.502 166.326C239.462 166.997 238.883 167.545 238.212 167.545Z" fill="#F2935C"/>
<path opacity="0.2" d="M244.266 185.206H233.602C232.932 185.206 232.351 185.754 232.313 186.424C232.273 187.094 232.79 187.642 233.459 187.642H244.123C244.793 187.642 245.374 187.094 245.413 186.424C245.452 185.754 244.936 185.206 244.266 185.206Z" fill="#F2935C"/>
<path opacity="0.2" d="M227.37 185.206H205.615C204.945 185.206 204.365 185.754 204.325 186.424C204.286 187.094 204.802 187.642 205.472 187.642H227.227C227.897 187.642 228.477 187.094 228.516 186.424C228.556 185.754 228.04 185.206 227.37 185.206Z" fill="#F2935C"/>
<path opacity="0.2" d="M237.413 181.187H205.851C205.181 181.187 204.601 181.735 204.562 182.405C204.522 183.075 205.039 183.623 205.708 183.623H237.27C237.94 183.623 238.52 183.074 238.559 182.405C238.599 181.735 238.083 181.187 237.413 181.187Z" fill="#F2935C"/>
<path opacity="0.2" d="M243.087 205.304H204.436C203.766 205.304 203.185 205.852 203.147 206.522C203.107 207.192 203.624 207.74 204.293 207.74H242.944C243.615 207.74 244.195 207.191 244.234 206.522C244.273 205.852 243.758 205.304 243.087 205.304Z" fill="#F2935C"/>
<path opacity="0.2" d="M236.234 201.284H204.673C204.002 201.284 203.422 201.833 203.383 202.502C203.344 203.172 203.86 203.72 204.53 203.72H236.091C236.761 203.72 237.341 203.172 237.381 202.502C237.42 201.832 236.904 201.284 236.234 201.284Z" fill="#F2935C"/>
</g>
<path d="M32.1917 354H29.0517L25.9517 340.6H28.4317L30.1117 348.14L30.6717 351.84H30.8317L31.6917 348.14L33.9117 340.6H36.9317L39.1517 348.14L40.0317 351.84H40.1717L40.7517 348.14L42.4317 340.6H44.8717L41.7517 354H38.6117L36.5917 347.18L35.4917 343.02H35.3117L34.2317 347.18L32.1917 354ZM49.6441 354.2C48.5641 354.2 47.6641 353.987 46.9441 353.56C46.2241 353.12 45.6907 352.513 45.3441 351.74C44.9974 350.953 44.8241 350.047 44.8241 349.02C44.8241 347.993 45.0174 347.093 45.4041 346.32C45.8041 345.547 46.3641 344.947 47.0841 344.52C47.8041 344.08 48.6574 343.86 49.6441 343.86C50.5374 343.86 51.3241 344.033 52.0041 344.38C52.6974 344.713 53.2307 345.2 53.6041 345.84C53.9907 346.48 54.1841 347.253 54.1841 348.16C54.1841 348.427 54.1707 348.687 54.1441 348.94C54.1307 349.18 54.1107 349.38 54.0841 349.54H45.8441V348.1H52.3241L52.1041 348.3C52.1574 347.687 52.0907 347.187 51.9041 346.8C51.7307 346.413 51.4441 346.127 51.0441 345.94C50.6574 345.753 50.1707 345.66 49.5841 345.66C48.5307 345.66 47.8107 345.927 47.4241 346.46C47.0374 346.98 46.8441 347.7 46.8441 348.62V349.22C46.8441 349.887 46.9241 350.453 47.0841 350.92C47.2574 351.373 47.5507 351.713 47.9641 351.94C48.3774 352.167 48.9441 352.28 49.6641 352.28C50.5041 352.28 51.0974 352.147 51.4441 351.88C51.7907 351.613 51.9641 351.26 51.9641 350.82V350.66H54.1041V350.84C54.1041 351.52 53.9174 352.113 53.5441 352.62C53.1707 353.113 52.6507 353.5 51.9841 353.78C51.3307 354.06 50.5507 354.2 49.6441 354.2ZM69.0348 354H66.8748V348.22C66.8748 347.34 66.7082 346.707 66.3748 346.32C66.0415 345.92 65.4148 345.72 64.4948 345.72C63.9082 345.72 63.4282 345.807 63.0548 345.98C62.6815 346.14 62.4015 346.407 62.2148 346.78C62.0282 347.14 61.9348 347.633 61.9348 348.26H61.5548L61.3748 345.92H61.8548C62.0015 345.56 62.2215 345.227 62.5148 344.92C62.8082 344.613 63.1815 344.36 63.6348 344.16C64.1015 343.96 64.6548 343.86 65.2948 343.86C66.1615 343.86 66.8682 344.027 67.4148 344.36C67.9615 344.693 68.3682 345.153 68.6348 345.74C68.9015 346.327 69.0348 347 69.0348 347.76V354ZM61.9348 354H59.7748V344.06H61.7548V347.04L61.9348 347.14V354ZM75.4839 354.2C74.4039 354.2 73.5039 353.987 72.7839 353.56C72.0639 353.12 71.5306 352.513 71.1839 351.74C70.8372 350.953 70.6639 350.047 70.6639 349.02C70.6639 347.993 70.8572 347.093 71.2439 346.32C71.6439 345.547 72.2039 344.947 72.9239 344.52C73.6439 344.08 74.4972 343.86 75.4839 343.86C76.3772 343.86 77.1639 344.033 77.8439 344.38C78.5372 344.713 79.0706 345.2 79.4439 345.84C79.8306 346.48 80.0239 347.253 80.0239 348.16C80.0239 348.427 80.0106 348.687 79.9839 348.94C79.9706 349.18 79.9506 349.38 79.9239 349.54H71.6839V348.1H78.1639L77.9439 348.3C77.9972 347.687 77.9306 347.187 77.7439 346.8C77.5706 346.413 77.2839 346.127 76.8839 345.94C76.4972 345.753 76.0106 345.66 75.4239 345.66C74.3706 345.66 73.6506 345.927 73.2639 346.46C72.8772 346.98 72.6839 347.7 72.6839 348.62V349.22C72.6839 349.887 72.7639 350.453 72.9239 350.92C73.0972 351.373 73.3906 351.713 73.8039 351.94C74.2172 352.167 74.7839 352.28 75.5039 352.28C76.3439 352.28 76.9372 352.147 77.2839 351.88C77.6306 351.613 77.8039 351.26 77.8039 350.82V350.66H79.9439V350.84C79.9439 351.52 79.7572 352.113 79.3839 352.62C79.0106 353.113 78.4906 353.5 77.8239 353.78C77.1706 354.06 76.3906 354.2 75.4839 354.2ZM86.2652 354.2C85.1852 354.2 84.2852 353.987 83.5652 353.56C82.8452 353.12 82.3118 352.513 81.9652 351.74C81.6185 350.953 81.4452 350.047 81.4452 349.02C81.4452 347.993 81.6385 347.093 82.0252 346.32C82.4252 345.547 82.9852 344.947 83.7052 344.52C84.4252 344.08 85.2785 343.86 86.2652 343.86C87.1585 343.86 87.9452 344.033 88.6252 344.38C89.3185 344.713 89.8518 345.2 90.2252 345.84C90.6118 346.48 90.8052 347.253 90.8052 348.16C90.8052 348.427 90.7918 348.687 90.7652 348.94C90.7518 349.18 90.7318 349.38 90.7052 349.54H82.4652V348.1H88.9452L88.7252 348.3C88.7785 347.687 88.7118 347.187 88.5252 346.8C88.3518 346.413 88.0652 346.127 87.6652 345.94C87.2785 345.753 86.7918 345.66 86.2052 345.66C85.1518 345.66 84.4318 345.927 84.0452 346.46C83.6585 346.98 83.4652 347.7 83.4652 348.62V349.22C83.4652 349.887 83.5452 350.453 83.7052 350.92C83.8785 351.373 84.1718 351.713 84.5852 351.94C84.9985 352.167 85.5652 352.28 86.2852 352.28C87.1252 352.28 87.7185 352.147 88.0652 351.88C88.4118 351.613 88.5852 351.26 88.5852 350.82V350.66H90.7252V350.84C90.7252 351.52 90.5385 352.113 90.1652 352.62C89.7918 353.113 89.2718 353.5 88.6052 353.78C87.9518 354.06 87.1718 354.2 86.2652 354.2ZM96.6064 354.2C95.1931 354.2 94.1064 353.733 93.3464 352.8C92.5997 351.853 92.2264 350.593 92.2264 349.02C92.2264 347.447 92.5931 346.193 93.3264 345.26C94.0731 344.327 95.1264 343.86 96.4864 343.86C97.3664 343.86 98.0731 344.04 98.6064 344.4C99.1531 344.747 99.5331 345.147 99.7464 345.6H100.286L100.186 348.14H99.8064C99.8064 347.58 99.6997 347.12 99.4864 346.76C99.2731 346.4 98.9664 346.133 98.5664 345.96C98.1664 345.787 97.6731 345.7 97.0864 345.7C96.6064 345.7 96.1931 345.76 95.8464 345.88C95.5131 346 95.2331 346.187 95.0064 346.44C94.7931 346.693 94.6331 347.033 94.5264 347.46C94.4331 347.887 94.3864 348.407 94.3864 349.02C94.3864 349.62 94.4331 350.14 94.5264 350.58C94.6331 351.007 94.7931 351.353 95.0064 351.62C95.2331 351.873 95.5197 352.06 95.8664 352.18C96.2131 352.3 96.6197 352.36 97.0864 352.36C97.6731 352.36 98.1664 352.273 98.5664 352.1C98.9664 351.913 99.2731 351.64 99.4864 351.28C99.6997 350.92 99.8064 350.467 99.8064 349.92H100.186L100.286 352.36H99.8864C99.6597 352.933 99.2664 353.387 98.7064 353.72C98.1597 354.04 97.4597 354.2 96.6064 354.2ZM101.966 354H99.9664V351.64L99.8064 351.38V340.6H101.966V354ZM116.281 354H114.281V352.04L114.221 351.5V347.68C114.221 346.933 114.041 346.427 113.681 346.16C113.334 345.893 112.767 345.76 111.981 345.76C111.194 345.76 110.627 345.9 110.281 346.18C109.947 346.46 109.781 346.927 109.781 347.58V347.88H107.701V347.68C107.701 346.933 107.881 346.273 108.241 345.7C108.614 345.127 109.127 344.68 109.781 344.36C110.447 344.027 111.221 343.86 112.101 343.86C113.034 343.86 113.807 344.033 114.421 344.38C115.034 344.727 115.494 345.207 115.801 345.82C116.121 346.42 116.281 347.133 116.281 347.96V354ZM110.581 354.2C109.687 354.2 108.934 353.973 108.321 353.52C107.721 353.053 107.421 352.393 107.421 351.54C107.421 350.98 107.547 350.513 107.801 350.14C108.067 349.767 108.447 349.46 108.941 349.22C109.434 348.98 110.034 348.813 110.741 348.72L114.421 348.2V349.72L111.061 350.22C110.487 350.3 110.087 350.42 109.861 350.58C109.634 350.74 109.521 351.007 109.521 351.38C109.521 351.767 109.654 352.047 109.921 352.22C110.201 352.393 110.654 352.48 111.281 352.48C111.761 352.48 112.221 352.407 112.661 352.26C113.114 352.1 113.487 351.84 113.781 351.48C114.074 351.107 114.221 350.587 114.221 349.92L114.501 352.46L114.181 352.44C113.994 352.747 113.734 353.033 113.401 353.3C113.081 353.567 112.687 353.787 112.221 353.96C111.754 354.12 111.207 354.2 110.581 354.2ZM124.799 354H122.639V344.14C122.639 343.367 122.785 342.72 123.079 342.2C123.372 341.68 123.805 341.287 124.379 341.02C124.965 340.74 125.685 340.6 126.539 340.6C126.672 340.6 126.805 340.6 126.939 340.6C127.072 340.6 127.205 340.6 127.339 340.6V342.32H126.139C125.659 342.32 125.305 342.413 125.079 342.6C124.852 342.787 124.739 343.093 124.739 343.52V344.4L124.799 344.92V354ZM127.339 345.86H121.179V344.06H127.339V345.86ZM132.515 354.2C131.435 354.2 130.535 353.987 129.815 353.56C129.095 353.12 128.562 352.513 128.215 351.74C127.868 350.953 127.695 350.047 127.695 349.02C127.695 347.993 127.888 347.093 128.275 346.32C128.675 345.547 129.235 344.947 129.955 344.52C130.675 344.08 131.528 343.86 132.515 343.86C133.408 343.86 134.195 344.033 134.875 344.38C135.568 344.713 136.102 345.2 136.475 345.84C136.862 346.48 137.055 347.253 137.055 348.16C137.055 348.427 137.042 348.687 137.015 348.94C137.002 349.18 136.982 349.38 136.955 349.54H128.715V348.1H135.195L134.975 348.3C135.028 347.687 134.962 347.187 134.775 346.8C134.602 346.413 134.315 346.127 133.915 345.94C133.528 345.753 133.042 345.66 132.455 345.66C131.402 345.66 130.682 345.927 130.295 346.46C129.908 346.98 129.715 347.7 129.715 348.62V349.22C129.715 349.887 129.795 350.453 129.955 350.92C130.128 351.373 130.422 351.713 130.835 351.94C131.248 352.167 131.815 352.28 132.535 352.28C133.375 352.28 133.968 352.147 134.315 351.88C134.662 351.613 134.835 351.26 134.835 350.82V350.66H136.975V350.84C136.975 351.52 136.788 352.113 136.415 352.62C136.042 353.113 135.522 353.5 134.855 353.78C134.202 354.06 133.422 354.2 132.515 354.2ZM142.809 354H139.989L137.529 344.06H139.869L141.009 349.58L141.429 352.2H141.589L142.229 349.58L143.969 344.06H146.769L148.529 349.6L149.169 352.18H149.309L149.729 349.6L150.869 344.06H153.129L150.669 354H147.849L146.069 348.46L145.409 345.96H145.269L144.609 348.46L142.809 354ZM162.153 354.2C160.74 354.2 159.653 353.733 158.893 352.8C158.147 351.853 157.773 350.593 157.773 349.02C157.773 347.447 158.14 346.193 158.873 345.26C159.62 344.327 160.673 343.86 162.033 343.86C162.913 343.86 163.62 344.04 164.153 344.4C164.7 344.747 165.08 345.147 165.293 345.6H165.833L165.733 348.14H165.353C165.353 347.58 165.247 347.12 165.033 346.76C164.82 346.4 164.513 346.133 164.113 345.96C163.713 345.787 163.22 345.7 162.633 345.7C162.153 345.7 161.74 345.76 161.393 345.88C161.06 346 160.78 346.187 160.553 346.44C160.34 346.693 160.18 347.033 160.073 347.46C159.98 347.887 159.933 348.407 159.933 349.02C159.933 349.62 159.98 350.14 160.073 350.58C160.18 351.007 160.34 351.353 160.553 351.62C160.78 351.873 161.067 352.06 161.413 352.18C161.76 352.3 162.167 352.36 162.633 352.36C163.22 352.36 163.713 352.273 164.113 352.1C164.513 351.913 164.82 351.64 165.033 351.28C165.247 350.92 165.353 350.467 165.353 349.92H165.733L165.833 352.36H165.433C165.207 352.933 164.813 353.387 164.253 353.72C163.707 354.04 163.007 354.2 162.153 354.2ZM167.513 354H165.513V351.64L165.353 351.38V340.6H167.513V354ZM173.98 354.2C172.9 354.2 172 353.987 171.28 353.56C170.56 353.12 170.027 352.513 169.68 351.74C169.333 350.953 169.16 350.047 169.16 349.02C169.16 347.993 169.353 347.093 169.74 346.32C170.14 345.547 170.7 344.947 171.42 344.52C172.14 344.08 172.993 343.86 173.98 343.86C174.873 343.86 175.66 344.033 176.34 344.38C177.033 344.713 177.567 345.2 177.94 345.84C178.327 346.48 178.52 347.253 178.52 348.16C178.52 348.427 178.507 348.687 178.48 348.94C178.467 349.18 178.447 349.38 178.42 349.54H170.18V348.1H176.66L176.44 348.3C176.493 347.687 176.427 347.187 176.24 346.8C176.067 346.413 175.78 346.127 175.38 345.94C174.993 345.753 174.507 345.66 173.92 345.66C172.867 345.66 172.147 345.927 171.76 346.46C171.373 346.98 171.18 347.7 171.18 348.62V349.22C171.18 349.887 171.26 350.453 171.42 350.92C171.593 351.373 171.887 351.713 172.3 351.94C172.713 352.167 173.28 352.28 174 352.28C174.84 352.28 175.433 352.147 175.78 351.88C176.127 351.613 176.3 351.26 176.3 350.82V350.66H178.44V350.84C178.44 351.52 178.253 352.113 177.88 352.62C177.507 353.113 176.987 353.5 176.32 353.78C175.667 354.06 174.887 354.2 173.98 354.2ZM184.306 354C183.213 354 182.373 353.767 181.786 353.3C181.213 352.833 180.926 352.047 180.926 350.94V344.28L181.426 341.6H183.086V350.84C183.086 351.36 183.213 351.693 183.466 351.84C183.733 351.973 184.206 352.04 184.886 352.04H186.086V353.82C185.886 353.873 185.626 353.92 185.306 353.96C184.986 353.987 184.653 354 184.306 354ZM186.086 345.86H179.266V344.06H186.086V345.86ZM195.929 354H193.929V352.04L193.869 351.5V347.68C193.869 346.933 193.689 346.427 193.329 346.16C192.983 345.893 192.416 345.76 191.629 345.76C190.843 345.76 190.276 345.9 189.929 346.18C189.596 346.46 189.429 346.927 189.429 347.58V347.88H187.349V347.68C187.349 346.933 187.529 346.273 187.889 345.7C188.263 345.127 188.776 344.68 189.429 344.36C190.096 344.027 190.869 343.86 191.749 343.86C192.683 343.86 193.456 344.033 194.069 344.38C194.683 344.727 195.143 345.207 195.449 345.82C195.769 346.42 195.929 347.133 195.929 347.96V354ZM190.229 354.2C189.336 354.2 188.583 353.973 187.969 353.52C187.369 353.053 187.069 352.393 187.069 351.54C187.069 350.98 187.196 350.513 187.449 350.14C187.716 349.767 188.096 349.46 188.589 349.22C189.083 348.98 189.683 348.813 190.389 348.72L194.069 348.2V349.72L190.709 350.22C190.136 350.3 189.736 350.42 189.509 350.58C189.283 350.74 189.169 351.007 189.169 351.38C189.169 351.767 189.303 352.047 189.569 352.22C189.849 352.393 190.303 352.48 190.929 352.48C191.409 352.48 191.869 352.407 192.309 352.26C192.763 352.1 193.136 351.84 193.429 351.48C193.723 351.107 193.869 350.587 193.869 349.92L194.149 352.46L193.829 352.44C193.643 352.747 193.383 353.033 193.049 353.3C192.729 353.567 192.336 353.787 191.869 353.96C191.403 354.12 190.856 354.2 190.229 354.2ZM200.018 342.8H197.878L197.858 340.6H200.018V342.8ZM200.038 354H197.878V344H200.038V354ZM204.181 354H202.021V340.6H204.181V354ZM210.42 354.2C208.966 354.2 207.866 353.913 207.12 353.34C206.373 352.753 206 351.853 206 350.64V350.6H208.08V350.96C208.08 351.307 208.146 351.593 208.28 351.82C208.426 352.033 208.666 352.193 209 352.3C209.346 352.393 209.833 352.44 210.46 352.44C210.993 352.44 211.393 352.4 211.66 352.32C211.94 352.227 212.126 352.1 212.22 351.94C212.313 351.78 212.36 351.58 212.36 351.34C212.36 350.94 212.22 350.66 211.94 350.5C211.66 350.327 211.16 350.173 210.44 350.04L208.88 349.78C208.293 349.66 207.78 349.493 207.34 349.28C206.913 349.053 206.58 348.747 206.34 348.36C206.113 347.96 206 347.46 206 346.86C206 345.967 206.353 345.247 207.06 344.7C207.766 344.14 208.766 343.86 210.06 343.86C210.846 343.86 211.546 343.987 212.16 344.24C212.773 344.493 213.26 344.873 213.62 345.38C213.98 345.887 214.16 346.52 214.16 347.28V347.46H212.1V347.22C212.1 346.9 212.046 346.627 211.94 346.4C211.833 346.16 211.633 345.973 211.34 345.84C211.046 345.707 210.6 345.64 210 345.64C209.213 345.64 208.693 345.74 208.44 345.94C208.186 346.14 208.06 346.433 208.06 346.82C208.06 347.207 208.173 347.48 208.4 347.64C208.64 347.787 209.106 347.933 209.8 348.08L211.5 348.4C212.14 348.52 212.673 348.7 213.1 348.94C213.526 349.18 213.846 349.493 214.06 349.88C214.286 350.267 214.4 350.727 214.4 351.26C214.4 352.193 214.046 352.92 213.34 353.44C212.646 353.947 211.673 354.2 210.42 354.2ZM224.072 354C222.978 354 222.138 353.767 221.552 353.3C220.978 352.833 220.692 352.047 220.692 350.94V344.28L221.192 341.6H222.852V350.84C222.852 351.36 222.978 351.693 223.232 351.84C223.498 351.973 223.972 352.04 224.652 352.04H225.852V353.82C225.652 353.873 225.392 353.92 225.072 353.96C224.752 353.987 224.418 354 224.072 354ZM225.852 345.86H219.032V344.06H225.852V345.86ZM231.522 354.2C230.509 354.2 229.629 353.987 228.882 353.56C228.136 353.12 227.562 352.513 227.162 351.74C226.762 350.953 226.562 350.047 226.562 349.02C226.562 347.993 226.762 347.093 227.162 346.32C227.562 345.547 228.136 344.947 228.882 344.52C229.629 344.08 230.509 343.86 231.522 343.86C232.536 343.86 233.402 344.08 234.122 344.52C234.856 344.947 235.416 345.547 235.802 346.32C236.202 347.093 236.402 347.993 236.402 349.02C236.402 350.047 236.202 350.953 235.802 351.74C235.416 352.513 234.856 353.12 234.122 353.56C233.402 353.987 232.536 354.2 231.522 354.2ZM231.522 352.28C232.562 352.28 233.289 352.02 233.702 351.5C234.116 350.967 234.322 350.14 234.322 349.02C234.322 347.9 234.116 347.08 233.702 346.56C233.289 346.04 232.562 345.78 231.522 345.78C230.469 345.78 229.736 346.04 229.322 346.56C228.909 347.08 228.702 347.9 228.702 349.02C228.702 350.14 228.909 350.967 229.322 351.5C229.736 352.02 230.469 352.28 231.522 352.28ZM246.304 354.2C245.224 354.2 244.324 353.987 243.604 353.56C242.884 353.12 242.351 352.513 242.004 351.74C241.658 350.953 241.484 350.047 241.484 349.02C241.484 347.993 241.678 347.093 242.064 346.32C242.464 345.547 243.024 344.947 243.744 344.52C244.464 344.08 245.318 343.86 246.304 343.86C247.198 343.86 247.984 344.033 248.664 344.38C249.358 344.713 249.891 345.2 250.264 345.84C250.651 346.48 250.844 347.253 250.844 348.16C250.844 348.427 250.831 348.687 250.804 348.94C250.791 349.18 250.771 349.38 250.744 349.54H242.504V348.1H248.984L248.764 348.3C248.818 347.687 248.751 347.187 248.564 346.8C248.391 346.413 248.104 346.127 247.704 345.94C247.318 345.753 246.831 345.66 246.244 345.66C245.191 345.66 244.471 345.927 244.084 346.46C243.698 346.98 243.504 347.7 243.504 348.62V349.22C243.504 349.887 243.584 350.453 243.744 350.92C243.918 351.373 244.211 351.713 244.624 351.94C245.038 352.167 245.604 352.28 246.324 352.28C247.164 352.28 247.758 352.147 248.104 351.88C248.451 351.613 248.624 351.26 248.624 350.82V350.66H250.764V350.84C250.764 351.52 250.578 352.113 250.204 352.62C249.831 353.113 249.311 353.5 248.644 353.78C247.991 354.06 247.211 354.2 246.304 354.2ZM261.828 354H259.668V348.22C259.668 347.34 259.501 346.707 259.168 346.32C258.834 345.92 258.208 345.72 257.288 345.72C256.701 345.72 256.221 345.807 255.848 345.98C255.474 346.14 255.194 346.407 255.008 346.78C254.821 347.14 254.728 347.633 254.728 348.26H254.348L254.168 345.92H254.648C254.794 345.56 255.014 345.227 255.308 344.92C255.601 344.613 255.974 344.36 256.428 344.16C256.894 343.96 257.448 343.86 258.088 343.86C258.954 343.86 259.661 344.027 260.208 344.36C260.754 344.693 261.161 345.153 261.428 345.74C261.694 346.327 261.828 347 261.828 347.76V354ZM254.728 354H252.568V344.06H254.548V347.04L254.728 347.14V354ZM268.017 354.2C266.564 354.2 265.464 353.913 264.717 353.34C263.971 352.753 263.597 351.853 263.597 350.64V350.6H265.677V350.96C265.677 351.307 265.744 351.593 265.877 351.82C266.024 352.033 266.264 352.193 266.597 352.3C266.944 352.393 267.431 352.44 268.057 352.44C268.591 352.44 268.991 352.4 269.257 352.32C269.537 352.227 269.724 352.1 269.817 351.94C269.911 351.78 269.957 351.58 269.957 351.34C269.957 350.94 269.817 350.66 269.537 350.5C269.257 350.327 268.757 350.173 268.037 350.04L266.477 349.78C265.891 349.66 265.377 349.493 264.937 349.28C264.511 349.053 264.177 348.747 263.937 348.36C263.711 347.96 263.597 347.46 263.597 346.86C263.597 345.967 263.951 345.247 264.657 344.7C265.364 344.14 266.364 343.86 267.657 343.86C268.444 343.86 269.144 343.987 269.757 344.24C270.371 344.493 270.857 344.873 271.217 345.38C271.577 345.887 271.757 346.52 271.757 347.28V347.46H269.697V347.22C269.697 346.9 269.644 346.627 269.537 346.4C269.431 346.16 269.231 345.973 268.937 345.84C268.644 345.707 268.197 345.64 267.597 345.64C266.811 345.64 266.291 345.74 266.037 345.94C265.784 346.14 265.657 346.433 265.657 346.82C265.657 347.207 265.771 347.48 265.997 347.64C266.237 347.787 266.704 347.933 267.397 348.08L269.097 348.4C269.737 348.52 270.271 348.7 270.697 348.94C271.124 349.18 271.444 349.493 271.657 349.88C271.884 350.267 271.997 350.727 271.997 351.26C271.997 352.193 271.644 352.92 270.937 353.44C270.244 353.947 269.271 354.2 268.017 354.2ZM277.381 354.2C276.528 354.2 275.821 354.027 275.261 353.68C274.701 353.32 274.288 352.84 274.021 352.24C273.754 351.627 273.621 350.947 273.621 350.2V344.06H275.781V349.8C275.781 350.693 275.968 351.34 276.341 351.74C276.714 352.14 277.328 352.34 278.181 352.34C278.741 352.34 279.214 352.253 279.601 352.08C279.988 351.893 280.281 351.607 280.481 351.22C280.681 350.82 280.781 350.3 280.781 349.66H281.341V352.02H280.861C280.714 352.393 280.488 352.747 280.181 353.08C279.888 353.413 279.508 353.687 279.041 353.9C278.588 354.1 278.034 354.2 277.381 354.2ZM282.941 354H280.941V351.02L280.781 350.92V344.06H282.941V354ZM287.228 354H285.068V344H287.048V346.78L287.228 346.88V354ZM287.228 347.52H286.728V345.58H287.148C287.348 345.113 287.674 344.713 288.128 344.38C288.594 344.033 289.194 343.86 289.928 343.86C290.634 343.86 291.194 344.013 291.608 344.32C292.034 344.627 292.341 345.033 292.528 345.54C292.714 346.047 292.808 346.613 292.808 347.24V347.9H290.648V347.5C290.648 346.833 290.534 346.367 290.308 346.1C290.081 345.833 289.654 345.7 289.028 345.7C288.374 345.7 287.908 345.84 287.628 346.12C287.361 346.387 287.228 346.853 287.228 347.52ZM298.609 354.2C297.529 354.2 296.629 353.987 295.909 353.56C295.189 353.12 294.656 352.513 294.309 351.74C293.962 350.953 293.789 350.047 293.789 349.02C293.789 347.993 293.982 347.093 294.369 346.32C294.769 345.547 295.329 344.947 296.049 344.52C296.769 344.08 297.622 343.86 298.609 343.86C299.502 343.86 300.289 344.033 300.969 344.38C301.662 344.713 302.196 345.2 302.569 345.84C302.956 346.48 303.149 347.253 303.149 348.16C303.149 348.427 303.136 348.687 303.109 348.94C303.096 349.18 303.076 349.38 303.049 349.54H294.809V348.1H301.289L301.069 348.3C301.122 347.687 301.056 347.187 300.869 346.8C300.696 346.413 300.409 346.127 300.009 345.94C299.622 345.753 299.136 345.66 298.549 345.66C297.496 345.66 296.776 345.927 296.389 346.46C296.002 346.98 295.809 347.7 295.809 348.62V349.22C295.809 349.887 295.889 350.453 296.049 350.92C296.222 351.373 296.516 351.713 296.929 351.94C297.342 352.167 297.909 352.28 298.629 352.28C299.469 352.28 300.062 352.147 300.409 351.88C300.756 351.613 300.929 351.26 300.929 350.82V350.66H303.069V350.84C303.069 351.52 302.882 352.113 302.509 352.62C302.136 353.113 301.616 353.5 300.949 353.78C300.296 354.06 299.516 354.2 298.609 354.2ZM312.92 354.2C311.466 354.2 310.366 353.913 309.62 353.34C308.873 352.753 308.5 351.853 308.5 350.64V350.6H310.58V350.96C310.58 351.307 310.646 351.593 310.78 351.82C310.926 352.033 311.166 352.193 311.5 352.3C311.846 352.393 312.333 352.44 312.96 352.44C313.493 352.44 313.893 352.4 314.16 352.32C314.44 352.227 314.626 352.1 314.72 351.94C314.813 351.78 314.86 351.58 314.86 351.34C314.86 350.94 314.72 350.66 314.44 350.5C314.16 350.327 313.66 350.173 312.94 350.04L311.38 349.78C310.793 349.66 310.28 349.493 309.84 349.28C309.413 349.053 309.08 348.747 308.84 348.36C308.613 347.96 308.5 347.46 308.5 346.86C308.5 345.967 308.853 345.247 309.56 344.7C310.266 344.14 311.266 343.86 312.56 343.86C313.346 343.86 314.046 343.987 314.66 344.24C315.273 344.493 315.76 344.873 316.12 345.38C316.48 345.887 316.66 346.52 316.66 347.28V347.46H314.6V347.22C314.6 346.9 314.546 346.627 314.44 346.4C314.333 346.16 314.133 345.973 313.84 345.84C313.546 345.707 313.1 345.64 312.5 345.64C311.713 345.64 311.193 345.74 310.94 345.94C310.686 346.14 310.56 346.433 310.56 346.82C310.56 347.207 310.673 347.48 310.9 347.64C311.14 347.787 311.606 347.933 312.3 348.08L314 348.4C314.64 348.52 315.173 348.7 315.6 348.94C316.026 349.18 316.346 349.493 316.56 349.88C316.786 350.267 316.9 350.727 316.9 351.26C316.9 352.193 316.546 352.92 315.84 353.44C315.146 353.947 314.173 354.2 312.92 354.2ZM334.543 354H332.383V348.22C332.383 347.34 332.217 346.707 331.883 346.32C331.563 345.92 330.95 345.72 330.043 345.72C329.23 345.72 328.623 345.913 328.223 346.3C327.837 346.673 327.643 347.313 327.643 348.22L327.263 348.26L327.083 345.92H327.403C327.563 345.573 327.783 345.247 328.063 344.94C328.357 344.62 328.73 344.36 329.183 344.16C329.637 343.96 330.19 343.86 330.843 343.86C331.71 343.86 332.41 344.027 332.943 344.36C333.49 344.693 333.89 345.153 334.143 345.74C334.41 346.327 334.543 347 334.543 347.76V354ZM320.743 354H318.583V344.06H320.563V347.04L320.743 347.14V354ZM327.643 354H325.483V348.22C325.483 347.34 325.317 346.707 324.983 346.32C324.663 345.92 324.05 345.72 323.143 345.72C322.33 345.72 321.723 345.907 321.323 346.28C320.937 346.653 320.743 347.293 320.743 348.2L320.363 348.26L320.183 345.92H320.663C320.81 345.56 321.023 345.227 321.303 344.92C321.597 344.613 321.97 344.36 322.423 344.16C322.877 343.96 323.417 343.86 324.043 343.86C324.883 343.86 325.563 344.027 326.083 344.36C326.617 344.693 327.01 345.153 327.263 345.74C327.517 346.327 327.643 347 327.643 347.76V354ZM341.132 354.2C340.118 354.2 339.238 353.987 338.492 353.56C337.745 353.12 337.172 352.513 336.772 351.74C336.372 350.953 336.172 350.047 336.172 349.02C336.172 347.993 336.372 347.093 336.772 346.32C337.172 345.547 337.745 344.947 338.492 344.52C339.238 344.08 340.118 343.86 341.132 343.86C342.145 343.86 343.012 344.08 343.732 344.52C344.465 344.947 345.025 345.547 345.412 346.32C345.812 347.093 346.012 347.993 346.012 349.02C346.012 350.047 345.812 350.953 345.412 351.74C345.025 352.513 344.465 353.12 343.732 353.56C343.012 353.987 342.145 354.2 341.132 354.2ZM341.132 352.28C342.172 352.28 342.898 352.02 343.312 351.5C343.725 350.967 343.932 350.14 343.932 349.02C343.932 347.9 343.725 347.08 343.312 346.56C342.898 346.04 342.172 345.78 341.132 345.78C340.078 345.78 339.345 346.04 338.932 346.56C338.518 347.08 338.312 347.9 338.312 349.02C338.312 350.14 338.518 350.967 338.932 351.5C339.345 352.02 340.078 352.28 341.132 352.28ZM352.284 354.2C351.271 354.2 350.391 353.987 349.644 353.56C348.897 353.12 348.324 352.513 347.924 351.74C347.524 350.953 347.324 350.047 347.324 349.02C347.324 347.993 347.524 347.093 347.924 346.32C348.324 345.547 348.897 344.947 349.644 344.52C350.391 344.08 351.271 343.86 352.284 343.86C353.297 343.86 354.164 344.08 354.884 344.52C355.617 344.947 356.177 345.547 356.564 346.32C356.964 347.093 357.164 347.993 357.164 349.02C357.164 350.047 356.964 350.953 356.564 351.74C356.177 352.513 355.617 353.12 354.884 353.56C354.164 353.987 353.297 354.2 352.284 354.2ZM352.284 352.28C353.324 352.28 354.051 352.02 354.464 351.5C354.877 350.967 355.084 350.14 355.084 349.02C355.084 347.9 354.877 347.08 354.464 346.56C354.051 346.04 353.324 345.78 352.284 345.78C351.231 345.78 350.497 346.04 350.084 346.56C349.671 347.08 349.464 347.9 349.464 349.02C349.464 350.14 349.671 350.967 350.084 351.5C350.497 352.02 351.231 352.28 352.284 352.28ZM362.841 354C361.748 354 360.908 353.767 360.321 353.3C359.748 352.833 359.461 352.047 359.461 350.94V344.28L359.961 341.6H361.621V350.84C361.621 351.36 361.748 351.693 362.001 351.84C362.268 351.973 362.741 352.04 363.421 352.04H364.621V353.82C364.421 353.873 364.161 353.92 363.841 353.96C363.521 353.987 363.188 354 362.841 354ZM364.621 345.86H357.801V344.06H364.621V345.86ZM375.422 354H373.262V348.22C373.262 347.34 373.088 346.707 372.742 346.32C372.408 345.92 371.788 345.72 370.882 345.72C370.015 345.72 369.368 345.913 368.942 346.3C368.528 346.673 368.322 347.333 368.322 348.28H367.942L367.922 345.72H368.402C368.562 345.413 368.782 345.12 369.062 344.84C369.355 344.547 369.722 344.313 370.162 344.14C370.615 343.953 371.135 343.86 371.722 343.86C372.602 343.86 373.308 344.033 373.842 344.38C374.388 344.713 374.788 345.173 375.042 345.76C375.295 346.347 375.422 347.007 375.422 347.74V354ZM368.322 354H366.162V340.6H368.322V354ZM148.112 379.22C147.072 379.22 146.192 379 145.472 378.56C144.752 378.12 144.198 377.513 143.812 376.74C143.438 375.967 143.252 375.067 143.252 374.04C143.252 373.013 143.445 372.113 143.832 371.34C144.232 370.553 144.798 369.947 145.532 369.52C146.265 369.08 147.152 368.86 148.192 368.86C149.072 368.86 149.845 369.027 150.512 369.36C151.178 369.693 151.692 370.16 152.052 370.76C152.425 371.36 152.612 372.06 152.612 372.86V373.04H150.472V372.92C150.472 372.187 150.272 371.653 149.872 371.32C149.485 370.973 148.878 370.8 148.052 370.8C147.092 370.8 146.405 371.073 145.992 371.62C145.592 372.153 145.392 372.953 145.392 374.02C145.392 375.1 145.592 375.913 145.992 376.46C146.405 376.993 147.092 377.26 148.052 377.26C148.878 377.26 149.485 377.093 149.872 376.76C150.272 376.413 150.472 375.88 150.472 375.16V375.04H152.612V375.22C152.612 375.993 152.425 376.687 152.052 377.3C151.678 377.9 151.152 378.373 150.472 378.72C149.805 379.053 149.018 379.22 148.112 379.22ZM158.895 379.2C157.882 379.2 157.002 378.987 156.255 378.56C155.509 378.12 154.935 377.513 154.535 376.74C154.135 375.953 153.935 375.047 153.935 374.02C153.935 372.993 154.135 372.093 154.535 371.32C154.935 370.547 155.509 369.947 156.255 369.52C157.002 369.08 157.882 368.86 158.895 368.86C159.909 368.86 160.775 369.08 161.495 369.52C162.229 369.947 162.789 370.547 163.175 371.32C163.575 372.093 163.775 372.993 163.775 374.02C163.775 375.047 163.575 375.953 163.175 376.74C162.789 377.513 162.229 378.12 161.495 378.56C160.775 378.987 159.909 379.2 158.895 379.2ZM158.895 377.28C159.935 377.28 160.662 377.02 161.075 376.5C161.489 375.967 161.695 375.14 161.695 374.02C161.695 372.9 161.489 372.08 161.075 371.56C160.662 371.04 159.935 370.78 158.895 370.78C157.842 370.78 157.109 371.04 156.695 371.56C156.282 372.08 156.075 372.9 156.075 374.02C156.075 375.14 156.282 375.967 156.695 376.5C157.109 377.02 157.842 377.28 158.895 377.28ZM170.048 379.2C169.034 379.2 168.154 378.987 167.408 378.56C166.661 378.12 166.088 377.513 165.688 376.74C165.288 375.953 165.088 375.047 165.088 374.02C165.088 372.993 165.288 372.093 165.688 371.32C166.088 370.547 166.661 369.947 167.408 369.52C168.154 369.08 169.034 368.86 170.048 368.86C171.061 368.86 171.928 369.08 172.648 369.52C173.381 369.947 173.941 370.547 174.328 371.32C174.728 372.093 174.928 372.993 174.928 374.02C174.928 375.047 174.728 375.953 174.328 376.74C173.941 377.513 173.381 378.12 172.648 378.56C171.928 378.987 171.061 379.2 170.048 379.2ZM170.048 377.28C171.088 377.28 171.814 377.02 172.228 376.5C172.641 375.967 172.848 375.14 172.848 374.02C172.848 372.9 172.641 372.08 172.228 371.56C171.814 371.04 171.088 370.78 170.048 370.78C168.994 370.78 168.261 371.04 167.848 371.56C167.434 372.08 167.228 372.9 167.228 374.02C167.228 375.14 167.434 375.967 167.848 376.5C168.261 377.02 168.994 377.28 170.048 377.28ZM178.702 379H176.542V369H178.522V371.78L178.702 371.88V379ZM178.702 372.52H178.202V370.58H178.622C178.822 370.113 179.149 369.713 179.602 369.38C180.069 369.033 180.669 368.86 181.402 368.86C182.109 368.86 182.669 369.013 183.082 369.32C183.509 369.627 183.816 370.033 184.002 370.54C184.189 371.047 184.282 371.613 184.282 372.24V372.9H182.122V372.5C182.122 371.833 182.009 371.367 181.782 371.1C181.556 370.833 181.129 370.7 180.502 370.7C179.849 370.7 179.382 370.84 179.102 371.12C178.836 371.387 178.702 371.853 178.702 372.52ZM189.644 379.2C188.23 379.2 187.144 378.733 186.384 377.8C185.637 376.853 185.264 375.593 185.264 374.02C185.264 372.447 185.63 371.193 186.364 370.26C187.11 369.327 188.164 368.86 189.524 368.86C190.404 368.86 191.11 369.04 191.644 369.4C192.19 369.747 192.57 370.147 192.784 370.6H193.324L193.224 373.14H192.844C192.844 372.58 192.737 372.12 192.524 371.76C192.31 371.4 192.004 371.133 191.604 370.96C191.204 370.787 190.71 370.7 190.124 370.7C189.644 370.7 189.23 370.76 188.884 370.88C188.55 371 188.27 371.187 188.044 371.44C187.83 371.693 187.67 372.033 187.564 372.46C187.47 372.887 187.424 373.407 187.424 374.02C187.424 374.62 187.47 375.14 187.564 375.58C187.67 376.007 187.83 376.353 188.044 376.62C188.27 376.873 188.557 377.06 188.904 377.18C189.25 377.3 189.657 377.36 190.124 377.36C190.71 377.36 191.204 377.273 191.604 377.1C192.004 376.913 192.31 376.64 192.524 376.28C192.737 375.92 192.844 375.467 192.844 374.92H193.224L193.324 377.36H192.924C192.697 377.933 192.304 378.387 191.744 378.72C191.197 379.04 190.497 379.2 189.644 379.2ZM195.004 379H193.004V376.64L192.844 376.38V365.6H195.004V379ZM199.148 367.8H197.008L196.988 365.6H199.148V367.8ZM199.168 379H197.008V369H199.168V379ZM210.412 379H208.252V373.22C208.252 372.34 208.085 371.707 207.752 371.32C207.418 370.92 206.792 370.72 205.872 370.72C205.285 370.72 204.805 370.807 204.432 370.98C204.058 371.14 203.778 371.407 203.592 371.78C203.405 372.14 203.312 372.633 203.312 373.26H202.932L202.752 370.92H203.232C203.378 370.56 203.598 370.227 203.892 369.92C204.185 369.613 204.558 369.36 205.012 369.16C205.478 368.96 206.032 368.86 206.672 368.86C207.538 368.86 208.245 369.027 208.792 369.36C209.338 369.693 209.745 370.153 210.012 370.74C210.278 371.327 210.412 372 210.412 372.76V379ZM203.312 379H201.152V369.06H203.132V372.04L203.312 372.14V379ZM220.861 379H218.861V377.04L218.801 376.5V372.68C218.801 371.933 218.621 371.427 218.261 371.16C217.914 370.893 217.348 370.76 216.561 370.76C215.774 370.76 215.208 370.9 214.861 371.18C214.528 371.46 214.361 371.927 214.361 372.58V372.88H212.281V372.68C212.281 371.933 212.461 371.273 212.821 370.7C213.194 370.127 213.708 369.68 214.361 369.36C215.028 369.027 215.801 368.86 216.681 368.86C217.614 368.86 218.388 369.033 219.001 369.38C219.614 369.727 220.074 370.207 220.381 370.82C220.701 371.42 220.861 372.133 220.861 372.96V379ZM215.161 379.2C214.268 379.2 213.514 378.973 212.901 378.52C212.301 378.053 212.001 377.393 212.001 376.54C212.001 375.98 212.128 375.513 212.381 375.14C212.648 374.767 213.028 374.46 213.521 374.22C214.014 373.98 214.614 373.813 215.321 373.72L219.001 373.2V374.72L215.641 375.22C215.068 375.3 214.668 375.42 214.441 375.58C214.214 375.74 214.101 376.007 214.101 376.38C214.101 376.767 214.234 377.047 214.501 377.22C214.781 377.393 215.234 377.48 215.861 377.48C216.341 377.48 216.801 377.407 217.241 377.26C217.694 377.1 218.068 376.84 218.361 376.48C218.654 376.107 218.801 375.587 218.801 374.92L219.081 377.46L218.761 377.44C218.574 377.747 218.314 378.033 217.981 378.3C217.661 378.567 217.268 378.787 216.801 378.96C216.334 379.12 215.788 379.2 215.161 379.2ZM226.972 379C225.879 379 225.039 378.767 224.452 378.3C223.879 377.833 223.592 377.047 223.592 375.94V369.28L224.092 366.6H225.752V375.84C225.752 376.36 225.879 376.693 226.132 376.84C226.399 376.973 226.872 377.04 227.552 377.04H228.752V378.82C228.552 378.873 228.292 378.92 227.972 378.96C227.652 378.987 227.319 379 226.972 379ZM228.752 370.86H221.932V369.06H228.752V370.86ZM232.176 367.8H230.036L230.016 365.6H232.176V367.8ZM232.196 379H230.036V369H232.196V379ZM238.641 379.2C237.628 379.2 236.748 378.987 236.001 378.56C235.255 378.12 234.681 377.513 234.281 376.74C233.881 375.953 233.681 375.047 233.681 374.02C233.681 372.993 233.881 372.093 234.281 371.32C234.681 370.547 235.255 369.947 236.001 369.52C236.748 369.08 237.628 368.86 238.641 368.86C239.655 368.86 240.521 369.08 241.241 369.52C241.975 369.947 242.535 370.547 242.921 371.32C243.321 372.093 243.521 372.993 243.521 374.02C243.521 375.047 243.321 375.953 242.921 376.74C242.535 377.513 241.975 378.12 241.241 378.56C240.521 378.987 239.655 379.2 238.641 379.2ZM238.641 377.28C239.681 377.28 240.408 377.02 240.821 376.5C241.235 375.967 241.441 375.14 241.441 374.02C241.441 372.9 241.235 372.08 240.821 371.56C240.408 371.04 239.681 370.78 238.641 370.78C237.588 370.78 236.855 371.04 236.441 371.56C236.028 372.08 235.821 372.9 235.821 374.02C235.821 375.14 236.028 375.967 236.441 376.5C236.855 377.02 237.588 377.28 238.641 377.28ZM254.396 379H252.236V373.22C252.236 372.34 252.07 371.707 251.736 371.32C251.403 370.92 250.776 370.72 249.856 370.72C249.27 370.72 248.79 370.807 248.416 370.98C248.043 371.14 247.763 371.407 247.576 371.78C247.39 372.14 247.296 372.633 247.296 373.26H246.916L246.736 370.92H247.216C247.363 370.56 247.583 370.227 247.876 369.92C248.17 369.613 248.543 369.36 248.996 369.16C249.463 368.96 250.016 368.86 250.656 368.86C251.523 368.86 252.23 369.027 252.776 369.36C253.323 369.693 253.73 370.153 253.996 370.74C254.263 371.327 254.396 372 254.396 372.76V379ZM247.296 379H245.136V369.06H247.116V372.04L247.296 372.14V379ZM258.764 379H256.024V375.9H258.764V379Z" fill="white"/>
<defs>
<clipPath id="clip0_22398_47760">
<rect width="303" height="303" fill="white" transform="translate(49.5)"/>
</clipPath>
</defs>
</svg>
