<svg width="402" height="381" viewBox="0 0 402 381" fill="none" xmlns="http://www.w3.org/2000/svg">
<path d="M201 299C286.052 299 355 259.148 355 209.99C355 160.831 286.052 120.979 201 120.979C115.948 120.979 47 160.831 47 209.99C47 259.148 115.948 299 201 299Z" fill="#F0F0F0" fill-opacity="0.28"/>
<path d="M289.446 240.877C279.347 235.04 279.347 225.577 289.446 219.74C299.545 213.903 315.917 213.903 326.015 219.74C336.114 225.577 336.114 235.04 326.015 240.877C315.917 246.713 299.545 246.713 289.446 240.877Z" fill="#E0E0E0"/>
<path d="M84.0469 241.686L57.4834 226.333C55.986 225.467 55.986 224.064 57.4834 223.198L211.994 133.893C213.491 133.028 215.92 133.028 217.417 133.893L243.982 149.246C245.479 150.112 245.479 151.516 243.982 152.381L89.47 241.686C87.9726 242.552 85.5444 242.552 84.0469 241.686Z" fill="#E0E0E0"/>
<path d="M179.53 214.322L202.365 201.103C204.719 199.743 205.896 197.96 205.896 196.177C205.896 194.394 205.906 192.997 205.906 192.997L182.213 179.622C180.957 178.896 179.939 177.131 179.939 175.68V147.494L140.053 170.568L140.052 198.753C140.052 200.204 141.069 201.969 142.325 202.695L162.48 214.321C167.188 217.043 174.821 217.043 179.53 214.322Z" fill="#F2935C"/>
<g opacity="0.6">
<path d="M179.53 214.322L202.365 201.103C204.719 199.743 205.896 197.96 205.896 196.177C205.896 194.394 205.906 192.997 205.906 192.997L182.213 179.622C180.957 178.896 179.939 177.131 179.939 175.68V147.494L140.053 170.568L140.052 198.753C140.052 200.204 141.069 201.969 142.325 202.695L162.48 214.321C167.188 217.043 174.821 217.043 179.53 214.322Z" fill="black"/>
</g>
<path opacity="0.3" d="M149.63 203.745V206.911L142.32 202.694C141.072 201.971 140.049 200.211 140.049 198.752V170.569L147.648 166.181C147.805 168.112 147.976 170.109 148.134 172.054L142.805 175.142V197.163C142.805 198.621 143.816 200.381 145.076 201.104L149.63 203.745Z" fill="black"/>
<path d="M142.804 197.168C142.804 198.619 143.821 200.384 145.077 201.11L162.478 211.144C167.186 213.865 174.82 213.866 179.528 211.146L202.375 197.929C207.084 195.209 207.085 190.798 202.377 188.076L184.965 178.035C183.709 177.31 182.691 175.545 182.691 174.094L182.691 152.07L142.804 175.144V197.168Z" fill="#F2935C"/>
<path opacity="0.3" d="M142.804 197.168C142.804 198.619 143.821 200.384 145.077 201.11L162.478 211.144C167.186 213.865 174.82 213.866 179.528 211.146L202.375 197.929C207.084 195.209 207.085 190.798 202.377 188.076L184.965 178.035C183.709 177.31 182.691 175.545 182.691 174.094L182.691 152.07L142.804 175.144V197.168Z" fill="black"/>
<path opacity="0.5" d="M189.594 180.714V180.711L184.964 178.034C183.708 177.309 182.69 175.544 182.69 174.093V152.069L142.803 175.143V197.168C142.803 198.619 143.82 200.384 145.076 201.109L149.626 203.739L189.594 180.714Z" fill="black"/>
<path d="M205.902 192.999C205.902 192.999 205.902 194.391 205.902 196.178C205.902 197.965 204.721 199.739 202.372 201.106L179.533 214.316C177.275 215.63 174.349 216.287 171.396 216.34V213.173C174.349 213.134 177.275 212.451 179.533 211.15L202.372 197.926C204.721 196.572 205.902 194.786 205.902 192.999Z" fill="#F2935C"/>
<path opacity="0.5" d="M205.902 192.999C205.902 192.999 205.902 194.391 205.902 196.178C205.902 197.965 204.721 199.739 202.372 201.106L179.533 214.316C177.275 215.63 174.349 216.287 171.396 216.34V213.173C174.349 213.134 177.275 212.451 179.533 211.15L202.372 197.926C204.721 196.572 205.902 194.786 205.902 192.999Z" fill="black"/>
<path d="M78.7612 224.542C80.2332 225.392 82.6993 225.347 84.2687 224.44C103.878 213.106 218.916 146.617 238.523 135.285C240.092 134.378 241.364 132.172 241.364 130.358V5.4346C241.364 3.62075 240.17 1.4601 238.698 0.609453C237.226 -0.241197 234.761 -0.196049 233.191 0.711529L78.939 89.8662C77.3696 90.7731 76.0977 92.9789 76.0977 94.7934L76.0957 219.717C76.0957 221.53 77.2886 223.69 78.7612 224.542Z" fill="#F2935C"/>
<path d="M84.2681 224.437L238.522 135.283C240.091 134.376 241.363 132.171 241.363 130.356V5.43218C241.363 3.61833 240.091 2.88285 238.522 3.78977L84.27 92.9444C82.7007 93.8514 81.4287 96.0572 81.4287 97.8717L81.4268 222.795C81.4268 224.609 82.6994 225.344 84.2681 224.437Z" fill="#F2935C"/>
<path opacity="0.5" d="M84.2681 224.437L238.522 135.283C240.091 134.376 241.363 132.171 241.363 130.356V5.43218C241.363 3.61833 240.091 2.88285 238.522 3.78977L84.27 92.9444C82.7007 93.8514 81.4287 96.0572 81.4287 97.8717L81.4268 222.795C81.4268 224.609 82.6994 225.344 84.2681 224.437Z" fill="black"/>
<path d="M83.8497 227.684C82.2751 228.38 80.0966 228.354 78.7579 227.579C77.2879 226.725 76.0938 224.57 76.0938 222.744V211.369L81.4221 214.457V225.831C81.4221 227.487 82.4719 228.236 83.8497 227.684Z" fill="#F2935C"/>
<path opacity="0.5" d="M83.8497 227.684C82.2751 228.38 80.0966 228.354 78.7579 227.579C77.2879 226.725 76.0938 224.57 76.0938 222.744V211.369L81.4221 214.457V225.831C81.4221 227.487 82.4719 228.236 83.8497 227.684Z" fill="black"/>
<path d="M81.4219 214.456L81.4265 225.827C81.4265 227.641 82.6991 228.376 84.2678 227.469L238.521 138.315C240.091 137.408 241.363 135.202 241.363 133.388V121.993L81.4219 214.456Z" fill="#F2935C"/>
<path opacity="0.3" d="M81.4268 214.433V225.827C81.4268 227.641 82.6994 228.376 84.2681 227.469L238.522 138.315C240.091 137.408 241.363 135.202 241.363 133.388V121.993L81.4268 214.433Z" fill="black"/>
<path d="M86.7568 200.186L86.7581 99.6429C86.7581 98.5547 87.5216 97.2309 88.4628 96.6865L234.324 12.3806C235.266 11.8362 236.029 12.2779 236.029 13.366L236.034 113.912C236.034 115 235.27 116.324 234.329 116.869L88.4622 201.172C87.5203 201.716 86.7568 201.275 86.7568 200.186Z" fill="#F2935C"/>
<path d="M86.7568 200.186L86.7581 99.6429C86.7581 98.5547 87.5216 97.231 88.4628 96.6865L234.324 12.3806C235.266 11.8362 236.029 12.2779 236.029 13.366L236.034 113.912C236.034 115 235.27 116.324 234.329 116.869L88.4622 201.172C87.5203 201.716 86.7568 201.275 86.7568 200.186Z" fill="#2D3B40"/>
<path d="M161.393 171.843C159.92 172.694 158.727 174.764 158.727 176.466C158.727 178.168 159.921 178.857 161.393 178.006C162.866 177.155 164.06 175.085 164.06 173.383C164.059 171.682 162.865 170.992 161.393 171.843Z" fill="#F2935C"/>
<path opacity="0.7" d="M82.262 95.0565C81.7502 95.9497 81.4352 96.9613 81.4221 97.8683V214.456L76.0938 211.369L76.097 94.7935C76.097 93.8872 76.4219 92.8756 76.9337 91.9824L82.262 95.0565Z" fill="black"/>
<path opacity="0.3" d="M241.334 4.96389C241.133 3.4975 239.95 2.96617 238.519 3.78672L84.2699 92.9466C83.4901 93.3974 82.7849 94.1643 82.2607 95.0588L76.9316 91.9782C77.4493 91.0968 78.1546 90.3168 78.9409 89.8659L233.19 0.712601C234.763 -0.195631 237.222 -0.242745 238.7 0.611831C240.044 1.38527 241.152 3.26193 241.334 4.96389Z" fill="black"/>
<path d="M249.658 20.3362C249.287 20.113 248.78 20.1209 248.209 20.4513L102.654 104.591C101.554 105.227 100.662 106.771 100.662 108.043L100.663 207.974C100.663 208.749 100.995 209.433 101.503 209.706C101.828 209.881 103.539 210.877 104.047 211.151C104.372 211.326 104.77 211.332 105.2 211.084L250.75 126.911C251.851 126.277 252.743 124.733 252.743 123.461V23.0458C252.743 22.3902 252.506 21.9361 252.126 21.7365C251.768 21.5493 250.025 20.556 249.658 20.3362Z" fill="#F2935C"/>
<path d="M104.543 210.95C103.987 210.95 103.535 210.263 103.535 209.419V109.488C103.535 108.343 104.372 106.892 105.363 106.318L250.916 22.1786C251.175 22.0287 251.425 21.9502 251.641 21.9502C252.127 21.9502 252.417 22.3598 252.417 23.0462V123.462C252.417 124.607 251.579 126.057 250.588 126.628L105.037 210.801C104.866 210.9 104.7 210.95 104.543 210.95Z" fill="#FAFAFA"/>
<path d="M251.642 22.2774C252.031 22.2774 252.089 22.759 252.089 23.0463V123.462C252.089 124.505 251.327 125.824 250.423 126.345L104.875 210.518C104.753 210.588 104.641 210.623 104.543 210.623C104.179 210.623 103.861 210.06 103.861 209.419V109.488C103.861 108.445 104.623 107.124 105.525 106.602L251.079 22.4619C251.343 22.3095 251.531 22.2774 251.642 22.2774ZM251.642 21.623C251.374 21.623 251.072 21.7107 250.752 21.8953L105.199 106.036C104.1 106.671 103.208 108.217 103.208 109.488V209.419C103.208 210.424 103.766 211.277 104.543 211.277C104.749 211.277 104.971 211.218 105.201 211.085L250.751 126.912C251.852 126.278 252.744 124.734 252.744 123.462V23.0463C252.744 22.1446 252.295 21.623 251.642 21.623Z" fill="#E0E0E0"/>
<path d="M101.5 209.706C101.716 209.82 103.265 210.704 103.943 211.091C103.485 210.765 103.244 210.204 103.21 209.417V116.009L100.661 114.516V207.975C100.661 208.747 100.993 209.436 101.5 209.706Z" fill="#F0F0F0"/>
<path d="M252.742 23.0308C252.735 21.7719 251.848 21.2621 250.753 21.8949L105.199 106.035C104.1 106.671 103.208 108.217 103.208 109.488L103.21 116.008L252.742 29.573V23.0308Z" fill="#F2935C"/>
<g opacity="0.4">
<path d="M250.752 21.8947L105.201 106.034C104.656 106.354 104.156 106.894 103.799 107.514L101.269 106.047C101.625 105.432 102.116 104.898 102.654 104.591L248.209 20.4512C248.779 20.1188 249.287 20.1136 249.656 20.3334C250.013 20.5526 251.667 21.4936 252.087 21.7187C251.735 21.5498 251.266 21.6002 250.752 21.8947Z" fill="white"/>
</g>
<path opacity="0.15" d="M100.661 114.522L100.662 108.041C100.662 107.395 100.899 106.68 101.268 106.047L103.804 107.507C103.435 108.134 103.21 108.843 103.21 109.488V116.007L100.661 114.522Z" fill="black"/>
<path d="M222.048 98.3585L134.871 148.745C134.068 149.21 133.416 150.339 133.416 151.268V176.287C133.416 177.216 134.068 178.344 134.872 178.808L137.419 180.275C138.223 180.738 139.527 180.737 140.33 180.273L227.495 129.893C228.299 129.428 228.95 128.299 228.951 127.37L228.961 102.343C228.962 101.415 228.31 100.286 227.506 99.823L224.959 98.3559C224.155 97.8933 222.851 97.8946 222.048 98.3585Z" fill="#F2935C"/>
<path opacity="0.5" d="M228.95 102.108C228.849 101.355 228.237 101.078 227.505 101.502L140.331 151.888C139.928 152.117 139.565 152.52 139.303 152.977L133.847 149.822C134.109 149.371 134.472 148.975 134.868 148.746L222.049 98.3603C222.849 97.8963 224.152 97.8891 224.958 98.3537L227.505 99.8201C228.244 100.244 228.855 101.234 228.95 102.108Z" fill="white"/>
<path d="M140.083 180.389C139.276 180.732 138.147 180.692 137.422 180.275L134.875 178.808C134.069 178.345 133.417 177.214 133.417 176.286V151.268C133.417 150.797 133.585 150.28 133.847 149.822L139.304 152.978C139.035 153.435 138.873 153.946 138.873 154.411V179.435C138.873 180.268 139.397 180.652 140.083 180.389Z" fill="#263238"/>
<path d="M140.329 151.89L227.506 101.503C228.309 101.038 228.96 101.415 228.96 102.343L228.95 127.37C228.949 128.299 228.298 129.428 227.494 129.893L140.329 180.273C139.526 180.737 138.874 180.361 138.874 179.432V154.412C138.875 153.483 139.526 152.354 140.329 151.89Z" fill="#F2935C"/>
<path d="M198.938 111.718L134.867 148.747C134.471 148.976 134.108 149.372 133.846 149.823L139.302 152.978C139.564 152.521 139.927 152.117 140.33 151.889L204.384 114.866L198.938 111.718Z" fill="#455A64"/>
<path d="M204.385 114.867L140.329 151.89C139.526 152.355 138.874 153.484 138.874 154.413V179.432C138.874 180.361 139.525 180.738 140.329 180.273L204.385 143.25V114.867Z" fill="#37474F"/>
<path d="M155.103 148.842L188.155 129.738C189.525 128.946 190.636 129.508 190.636 130.995C190.636 132.481 189.525 134.328 188.154 135.121L155.105 154.223C153.734 155.015 152.622 154.453 152.622 152.967C152.621 151.481 153.732 149.635 155.103 148.842Z" fill="#F2935C"/>
<path d="M161.876 155.164C161.913 155.143 161.946 155.148 161.972 155.181C162 155.214 162.014 155.263 162.014 155.33V159.056C162.014 159.432 161.983 159.788 161.921 160.127C161.861 160.464 161.768 160.778 161.645 161.068C161.523 161.357 161.369 161.613 161.186 161.838C161.002 162.062 160.789 162.244 160.547 162.383C160.302 162.525 160.088 162.589 159.906 162.577C159.724 162.564 159.572 162.484 159.449 162.337C159.326 162.19 159.236 161.981 159.175 161.713C159.117 161.445 159.086 161.123 159.086 160.747V157.021C159.086 156.954 159.1 156.89 159.127 156.826C159.154 156.761 159.186 156.718 159.224 156.697L159.638 156.457C159.676 156.435 159.708 156.441 159.736 156.473C159.762 156.506 159.776 156.555 159.776 156.622V160.303C159.776 160.551 159.795 160.752 159.832 160.906C159.869 161.061 159.923 161.174 159.99 161.246C160.058 161.32 160.14 161.354 160.236 161.351C160.331 161.347 160.435 161.312 160.547 161.248C160.66 161.183 160.764 161.096 160.861 160.988C160.959 160.88 161.041 160.752 161.11 160.6C161.178 160.449 161.231 160.274 161.27 160.076C161.31 159.877 161.329 159.654 161.329 159.406V155.726C161.329 155.659 161.342 155.594 161.369 155.53C161.397 155.466 161.429 155.422 161.467 155.4L161.876 155.164Z" fill="#FAFAFA"/>
<path d="M164.439 158.69C164.439 158.624 164.428 158.576 164.403 158.547C164.38 158.518 164.338 158.503 164.279 158.501C164.219 158.499 164.139 158.509 164.041 158.53C163.942 158.551 163.817 158.575 163.664 158.603C163.513 158.629 163.39 158.624 163.291 158.591C163.192 158.557 163.113 158.496 163.054 158.41C162.994 158.323 162.952 158.21 162.928 158.068C162.905 157.928 162.893 157.767 162.893 157.585C162.893 157.403 162.916 157.211 162.964 157.007C163.012 156.804 163.081 156.608 163.171 156.42C163.262 156.232 163.371 156.057 163.5 155.898C163.63 155.739 163.778 155.611 163.945 155.514C164.111 155.418 164.26 155.365 164.392 155.357C164.523 155.347 164.634 155.37 164.726 155.426C164.818 155.482 164.889 155.567 164.94 155.68C164.991 155.793 165.02 155.919 165.027 156.061C165.03 156.126 165.017 156.191 164.988 156.256C164.96 156.321 164.926 156.364 164.888 156.385L164.496 156.612C164.445 156.642 164.406 156.648 164.381 156.629C164.355 156.611 164.328 156.589 164.297 156.564C164.266 156.54 164.226 156.526 164.174 156.522C164.124 156.518 164.047 156.546 163.945 156.604C163.842 156.663 163.752 156.743 163.674 156.842C163.596 156.942 163.556 157.062 163.556 157.201C163.556 157.267 163.566 157.318 163.584 157.353C163.603 157.387 163.638 157.408 163.691 157.413C163.744 157.42 163.818 157.415 163.911 157.4C164.005 157.386 164.126 157.362 164.276 157.331C164.579 157.271 164.792 157.327 164.917 157.5C165.041 157.674 165.104 157.943 165.104 158.306C165.104 158.488 165.078 158.679 165.027 158.882C164.976 159.084 164.902 159.281 164.805 159.474C164.707 159.666 164.589 159.844 164.447 160.008C164.306 160.171 164.147 160.304 163.97 160.406C163.789 160.51 163.631 160.564 163.492 160.568C163.354 160.572 163.237 160.541 163.143 160.474C163.047 160.409 162.975 160.315 162.924 160.192C162.873 160.071 162.845 159.938 162.841 159.795C162.838 159.73 162.851 159.665 162.88 159.6C162.909 159.535 162.941 159.491 162.979 159.469L163.373 159.242C163.424 159.213 163.462 159.212 163.488 159.24C163.513 159.268 163.542 159.298 163.574 159.335C163.606 159.371 163.651 159.393 163.709 159.402C163.767 159.411 163.854 159.382 163.97 159.315C164.021 159.285 164.074 159.249 164.128 159.205C164.183 159.162 164.234 159.113 164.279 159.059C164.324 159.005 164.363 158.946 164.394 158.884C164.424 158.821 164.439 158.757 164.439 158.69Z" fill="#FAFAFA"/>
<path d="M165.771 156.911C165.771 156.572 165.799 156.237 165.857 155.903C165.916 155.57 165.999 155.261 166.108 154.976C166.217 154.692 166.348 154.442 166.503 154.225C166.658 154.008 166.831 153.846 167.022 153.735C167.212 153.624 167.384 153.586 167.54 153.62C167.694 153.656 167.826 153.747 167.935 153.893C168.044 154.039 168.128 154.236 168.188 154.482C168.247 154.73 168.278 155.008 168.278 155.317V155.725C168.278 155.792 168.264 155.858 168.237 155.921C168.21 155.985 168.178 156.029 168.139 156.051L166.434 157.037C166.434 157.176 166.451 157.289 166.483 157.376C166.515 157.464 166.558 157.528 166.613 157.569C166.667 157.61 166.731 157.628 166.802 157.623C166.873 157.618 166.947 157.594 167.022 157.55C167.13 157.488 167.218 157.418 167.287 157.338C167.355 157.26 167.411 157.178 167.456 157.091C167.493 157.022 167.524 156.97 167.548 156.938C167.571 156.906 167.604 156.879 167.645 156.856L168.054 156.619C168.09 156.598 168.124 156.603 168.153 156.634C168.182 156.666 168.195 156.716 168.191 156.785C168.188 156.872 168.161 156.996 168.112 157.158C168.063 157.319 167.989 157.492 167.89 157.677C167.792 157.861 167.67 158.041 167.526 158.215C167.381 158.389 167.213 158.531 167.023 158.641C166.832 158.752 166.659 158.792 166.505 158.765C166.35 158.736 166.218 158.644 166.109 158.489C166 158.334 165.917 158.123 165.859 157.856C165.8 157.59 165.771 157.275 165.771 156.911ZM167.022 154.824C166.923 154.882 166.839 154.957 166.769 155.048C166.699 155.141 166.64 155.241 166.593 155.35C166.545 155.46 166.509 155.571 166.483 155.686C166.457 155.801 166.441 155.905 166.434 156L167.588 155.334C167.582 155.247 167.569 155.159 167.55 155.069C167.532 154.98 167.501 154.908 167.458 154.85C167.416 154.794 167.359 154.76 167.29 154.748C167.22 154.737 167.131 154.762 167.022 154.824Z" fill="#FAFAFA"/>
<path d="M170.331 153.003C170.127 153.121 169.98 153.287 169.889 153.499C169.799 153.712 169.754 154 169.754 154.363V156.726C169.754 156.792 169.74 156.858 169.713 156.922C169.686 156.986 169.654 157.03 169.615 157.051L169.228 157.275C169.191 157.296 169.158 157.291 169.131 157.258C169.104 157.226 169.09 157.176 169.09 157.11V152.875C169.09 152.809 169.104 152.743 169.131 152.679C169.158 152.615 169.191 152.572 169.228 152.55L169.615 152.326C169.653 152.304 169.685 152.31 169.713 152.343C169.74 152.375 169.754 152.425 169.754 152.491V152.701C169.842 152.504 169.937 152.338 170.038 152.2C170.138 152.063 170.269 151.948 170.433 151.853L170.662 151.72C170.7 151.7 170.732 151.705 170.76 151.738C170.787 151.77 170.8 151.82 170.8 151.886V152.486C170.8 152.553 170.787 152.618 170.76 152.682C170.732 152.747 170.7 152.79 170.662 152.811L170.331 153.003Z" fill="#FAFAFA"/>
<path d="M175.207 152.685C175.244 152.663 175.276 152.669 175.304 152.702C175.331 152.734 175.345 152.784 175.345 152.85V153.496C175.345 153.562 175.331 153.628 175.304 153.692C175.277 153.756 175.245 153.799 175.207 153.82L172.97 155.113C172.932 155.135 172.901 155.129 172.873 155.096C172.846 155.064 172.832 155.015 172.832 154.948V149.077C172.832 149.011 172.846 148.946 172.873 148.881C172.9 148.817 172.931 148.774 172.97 148.753L173.384 148.514C173.421 148.492 173.454 148.498 173.481 148.531C173.509 148.563 173.522 148.612 173.522 148.679V153.659L175.207 152.685Z" fill="#FAFAFA"/>
<path d="M177.213 147.844C177.401 147.736 177.57 147.689 177.722 147.705C177.874 147.72 178.005 147.787 178.115 147.905C178.226 148.022 178.314 148.183 178.38 148.388C178.447 148.591 178.486 148.83 178.496 149.102C178.499 149.154 178.501 149.223 178.501 149.308C178.501 149.392 178.501 149.478 178.501 149.562C178.501 149.647 178.501 149.73 178.501 149.813C178.501 149.894 178.499 149.963 178.496 150.02C178.482 150.306 178.444 150.589 178.378 150.869C178.314 151.149 178.226 151.41 178.115 151.653C178.004 151.895 177.873 152.112 177.722 152.303C177.57 152.493 177.401 152.642 177.213 152.751C177.027 152.859 176.857 152.906 176.706 152.89C176.555 152.874 176.423 152.81 176.313 152.695C176.202 152.58 176.115 152.42 176.05 152.216C175.985 152.011 175.945 151.772 175.932 151.502C175.928 151.449 175.926 151.382 175.924 151.302C175.923 151.22 175.922 151.139 175.922 151.054C175.922 150.968 175.923 150.883 175.924 150.798C175.926 150.712 175.928 150.641 175.932 150.585C175.942 150.3 175.981 150.018 176.047 149.736C176.113 149.456 176.202 149.192 176.313 148.946C176.424 148.7 176.555 148.483 176.706 148.293C176.857 148.102 177.027 147.953 177.213 147.844ZM177.832 149.532C177.822 149.35 177.797 149.209 177.757 149.107C177.718 149.005 177.67 148.935 177.612 148.895C177.554 148.856 177.491 148.843 177.423 148.855C177.355 148.867 177.285 148.893 177.213 148.935C177.143 148.975 177.073 149.03 177.005 149.097C176.937 149.163 176.874 149.25 176.816 149.356C176.759 149.463 176.709 149.589 176.67 149.736C176.632 149.882 176.607 150.053 176.596 150.246C176.593 150.297 176.591 150.359 176.589 150.432C176.587 150.506 176.586 150.582 176.586 150.661C176.586 150.739 176.587 150.816 176.589 150.89C176.591 150.966 176.593 151.023 176.596 151.064C176.607 151.245 176.632 151.387 176.67 151.488C176.709 151.59 176.759 151.66 176.816 151.699C176.874 151.739 176.937 151.752 177.005 151.74C177.073 151.728 177.143 151.701 177.213 151.66C177.285 151.619 177.355 151.565 177.423 151.498C177.491 151.432 177.554 151.346 177.612 151.239C177.67 151.133 177.718 151.006 177.757 150.86C177.796 150.712 177.821 150.542 177.832 150.349C177.835 150.306 177.837 150.245 177.837 150.169C177.837 150.093 177.837 150.015 177.837 149.936C177.837 149.859 177.837 149.783 177.837 149.711C177.837 149.637 177.835 149.579 177.832 149.532Z" fill="#FAFAFA"/>
<path d="M180.497 151.671C180.569 151.63 180.642 151.568 180.717 151.485C180.791 151.403 180.859 151.302 180.92 151.181C180.982 151.061 181.032 150.924 181.071 150.771C181.11 150.618 181.13 150.454 181.13 150.278V149.942C181.103 150.012 181.067 150.091 181.022 150.18C180.978 150.27 180.924 150.36 180.861 150.451C180.799 150.542 180.725 150.63 180.642 150.714C180.559 150.8 180.464 150.872 180.359 150.932C180.188 151.031 180.034 151.061 179.897 151.023C179.758 150.985 179.641 150.894 179.544 150.754C179.447 150.613 179.37 150.43 179.315 150.205C179.259 149.98 179.227 149.73 179.219 149.455C179.216 149.366 179.215 149.262 179.215 149.14C179.215 149.019 179.216 148.913 179.219 148.819C179.227 148.537 179.258 148.251 179.315 147.96C179.37 147.67 179.448 147.399 179.544 147.146C179.642 146.893 179.758 146.667 179.897 146.47C180.034 146.272 180.188 146.125 180.359 146.026C180.464 145.965 180.559 145.927 180.642 145.916C180.725 145.904 180.799 145.907 180.861 145.925C180.924 145.943 180.978 145.972 181.022 146.01C181.067 146.048 181.102 146.087 181.13 146.125V145.916C181.13 145.85 181.143 145.784 181.171 145.72C181.197 145.656 181.229 145.613 181.268 145.591L181.655 145.367C181.693 145.346 181.725 145.351 181.753 145.384C181.78 145.416 181.794 145.466 181.794 145.533V149.795C181.794 150.528 181.678 151.147 181.449 151.653C181.22 152.158 180.902 152.527 180.496 152.762C180.323 152.863 180.162 152.914 180.014 152.919C179.866 152.922 179.737 152.887 179.629 152.814C179.519 152.741 179.433 152.636 179.368 152.501C179.304 152.365 179.267 152.208 179.261 152.031C179.257 151.967 179.27 151.901 179.299 151.836C179.327 151.771 179.361 151.727 179.399 151.706L179.746 151.505C179.793 151.478 179.834 151.483 179.868 151.521C179.902 151.558 179.931 151.594 179.955 151.63C179.999 151.708 180.059 151.758 180.136 151.78C180.214 151.802 180.334 151.766 180.497 151.671ZM179.884 148.499C179.874 148.675 179.874 148.845 179.884 149.009C179.904 149.39 179.973 149.635 180.089 149.739C180.204 149.846 180.346 149.85 180.512 149.754C180.678 149.657 180.819 149.488 180.933 149.247C181.048 149.006 181.113 148.716 181.13 148.379C181.137 148.284 181.14 148.168 181.14 148.028C181.14 147.888 181.137 147.776 181.13 147.689C181.113 147.383 181.048 147.173 180.933 147.056C180.819 146.941 180.678 146.931 180.512 147.028C180.345 147.123 180.203 147.293 180.089 147.532C179.973 147.772 179.905 148.095 179.884 148.499Z" fill="#FAFAFA"/>
<path d="M183.305 142.688C183.342 142.666 183.375 142.672 183.401 142.704C183.429 142.737 183.443 142.787 183.443 142.853V143.562C183.443 143.628 183.429 143.694 183.401 143.758C183.375 143.822 183.342 143.865 183.305 143.888L182.866 144.141C182.829 144.162 182.796 144.156 182.769 144.124C182.741 144.091 182.728 144.041 182.728 143.975V143.266C182.728 143.2 182.741 143.134 182.769 143.07C182.796 143.006 182.828 142.962 182.866 142.941L183.305 142.688ZM183.418 148.829C183.418 148.896 183.404 148.962 183.377 149.025C183.35 149.089 183.317 149.133 183.279 149.154L182.892 149.378C182.855 149.4 182.822 149.394 182.795 149.361C182.767 149.33 182.754 149.279 182.754 149.213V144.978C182.754 144.912 182.767 144.846 182.795 144.783C182.822 144.719 182.854 144.675 182.892 144.653L183.279 144.429C183.316 144.408 183.349 144.414 183.377 144.446C183.404 144.478 183.418 144.527 183.418 144.595V148.829Z" fill="#FAFAFA"/>
<path d="M186.869 146.835C186.869 146.901 186.855 146.967 186.829 147.03C186.801 147.094 186.769 147.138 186.731 147.159L186.343 147.384C186.306 147.404 186.274 147.399 186.246 147.367C186.218 147.334 186.205 147.285 186.205 147.218V144.909C186.205 144.546 186.158 144.283 186.062 144.12C185.967 143.957 185.821 143.932 185.623 144.046C185.442 144.15 185.301 144.342 185.197 144.62C185.093 144.898 185.041 145.219 185.041 145.582V147.891C185.041 147.957 185.027 148.023 185.001 148.086C184.973 148.15 184.941 148.194 184.903 148.215L184.516 148.44C184.478 148.461 184.445 148.455 184.418 148.423C184.391 148.391 184.377 148.34 184.377 148.274V144.039C184.377 143.973 184.391 143.907 184.418 143.844C184.445 143.779 184.478 143.736 184.516 143.714L184.903 143.491C184.94 143.469 184.972 143.474 185.001 143.507C185.027 143.539 185.041 143.59 185.041 143.656V143.865C185.13 143.656 185.233 143.467 185.353 143.295C185.472 143.122 185.613 142.99 185.777 142.895C185.984 142.775 186.158 142.732 186.297 142.766C186.437 142.801 186.549 142.891 186.634 143.035C186.72 143.18 186.78 143.372 186.816 143.608C186.851 143.845 186.869 144.106 186.869 144.391V146.835Z" fill="#FAFAFA"/>
<path d="M219.842 127.79L213.493 131.459L214.477 122.544C213.717 122.143 213.233 121.153 213.233 119.733C213.233 117.202 214.771 114.261 216.668 113.164C218.564 112.068 220.101 113.232 220.101 115.763C220.101 117.183 219.617 118.732 218.858 120.012L219.842 127.79Z" fill="#455A64"/>
<path d="M219.842 127.79L214.255 124.561L213.493 131.459L219.842 127.79Z" fill="#37474F"/>
<path d="M216.668 113.164C215.427 113.881 214.344 115.39 213.74 117.055L218.859 120.014V120.013C219.619 118.733 220.103 117.185 220.103 115.764C220.102 113.232 218.565 112.068 216.668 113.164Z" fill="#37474F"/>
<path d="M185.802 83.4922C183.63 82.2339 180.63 82.4125 177.314 84.3291C170.687 88.1603 165.315 97.4762 165.316 105.137C165.317 108.982 166.671 111.677 168.856 112.925C169.425 113.251 172.512 115.048 173.085 115.38C175.256 116.636 178.255 116.457 181.569 114.542C188.195 110.711 193.567 101.395 193.567 93.7334C193.567 89.9048 192.224 87.2161 190.055 85.961" fill="#F2935C"/>
<path d="M181.566 86.7975C174.94 90.63 169.567 99.9446 169.568 107.605C169.569 115.266 174.942 118.372 181.568 114.541C188.195 110.711 193.573 101.395 193.566 93.7329C193.56 86.0731 188.187 82.9676 181.566 86.7975Z" fill="#F2935C"/>
<path d="M188.192 103.795V104.669C186.483 107.589 184.144 110.131 181.567 111.617C178.984 113.108 176.651 113.271 174.941 112.319V110.508C174.941 107.01 177.313 102.896 180.34 101.142L182.082 100.139C183.628 99.2447 185.127 99.1302 186.306 99.8133C187.509 100.508 188.192 101.956 188.192 103.795Z" fill="#F2935C"/>
<path opacity="0.4" d="M185.801 83.4921L190.055 85.9596C187.882 84.7007 184.882 84.8787 181.568 86.7959C177.228 89.3066 173.427 94.1684 171.32 99.3763L167.066 96.9062C169.174 91.6982 172.973 86.8365 177.315 84.3277C180.63 82.4131 183.631 82.2338 185.801 83.4921Z" fill="white"/>
<path opacity="0.2" d="M172.924 115.287C172.175 114.853 169.38 113.224 168.855 112.924C166.669 111.677 165.314 108.981 165.314 105.138L169.568 107.608C169.57 111.342 170.849 113.994 172.924 115.287Z" fill="black"/>
<path opacity="0.1" d="M167.066 96.9072L171.32 99.3774C170.208 102.123 169.569 104.964 169.569 107.605V107.607L165.315 105.137C165.315 102.493 165.957 99.6509 167.066 96.9072Z" fill="black"/>
<path d="M180.058 99.7306C179.643 99.7306 179.255 99.6305 178.904 99.4296C178.096 98.9618 177.65 98.0359 177.65 96.8234C177.65 94.6032 179.155 91.993 181.077 90.8826V90.8806C182.123 90.274 183.143 90.1988 183.958 90.666C184.766 91.1338 185.212 92.0597 185.212 93.2722C185.212 95.4924 183.707 98.1026 181.787 99.213C181.19 99.5566 180.603 99.7306 180.058 99.7306Z" fill="white"/>
<path d="M186.306 99.8133C185.127 99.1302 183.628 99.2447 182.082 100.139L180.34 101.142C177.313 102.896 174.941 107.01 174.941 110.508V112.319C176.65 113.27 178.984 113.108 181.567 111.617C184.144 110.131 186.483 107.589 188.192 104.669V103.795C188.192 101.954 187.509 100.506 186.306 99.8133Z" fill="white"/>
<path d="M320.684 213.016C320.684 213.016 321.552 205.374 325.349 199.443C329.146 193.512 334.363 189.81 339.232 189.425C344.1 189.039 348.032 193.523 342.823 196.602C337.614 199.682 328.359 202.824 324.1 214.34L320.684 213.016Z" fill="#F2935C"/>
<path opacity="0.1" d="M320.684 213.016C320.684 213.016 321.552 205.374 325.349 199.443C329.146 193.512 334.363 189.81 339.232 189.425C344.1 189.039 348.032 193.523 342.823 196.602C337.614 199.682 328.359 202.824 324.1 214.34L320.684 213.016Z" fill="black"/>
<path d="M322.112 211.031C322.094 211.028 322.077 211.024 322.06 211.016C321.927 210.963 321.863 210.811 321.917 210.677C327.054 198.011 336.835 192.722 341.288 191.695C341.428 191.662 341.567 191.751 341.6 191.89C341.632 192.031 341.545 192.171 341.405 192.203C337.042 193.208 327.456 198.406 322.398 210.873C322.351 210.99 322.23 211.053 322.112 211.031Z" fill="white"/>
<path d="M348.116 211.181C347.676 212.176 346.591 212.694 345.581 213.101C344.577 213.504 343.476 213.945 342.931 214.886C341.833 216.786 343.637 219.457 342.457 221.307C341.961 222.083 341.041 222.492 340.136 222.654C339.383 222.795 338.618 222.794 337.855 222.858C337.488 222.85 337.125 222.824 336.771 222.774C335.724 222.622 334.589 222.573 333.63 223.109C332.122 223.957 331.658 225.864 330.742 227.334C329.644 229.095 327.702 230.248 325.661 230.525C324.983 230.615 323.722 230.737 323.032 230.352C322.977 230.322 322.933 230.293 322.889 230.261C322.884 230.26 322.881 230.254 322.877 230.248C322.782 230.141 322.663 230.005 322.611 229.931C322.598 229.918 322.592 229.903 322.584 229.886C322.317 228.901 322.754 227.876 322.771 226.858C322.773 226.794 322.773 226.734 322.769 226.674C322.728 225.491 322.694 224.314 322.666 223.134C322.611 220.963 322.586 218.787 322.601 216.614C322.617 215.202 322.447 213.657 323.043 212.327C323.704 210.865 325.347 210.833 325.968 209.398C326.217 208.826 326.349 208.213 326.589 207.634C327.308 205.938 329.048 204.719 330.89 204.629C333.758 204.483 336.332 206.807 339.196 206.596C339.938 206.537 340.661 206.312 341.391 206.177C343.714 205.742 346.399 206.403 347.705 208.372C348.252 209.194 348.516 210.278 348.116 211.181Z" fill="#F2935C"/>
<path d="M322.35 225.364C322.344 225.363 322.337 225.362 322.331 225.36C322.201 225.325 322.123 225.191 322.158 225.06C326.12 210.178 341.783 208.027 345.448 208.292C345.581 208.302 345.684 208.419 345.675 208.554C345.665 208.688 345.548 208.79 345.413 208.78C341.829 208.521 326.508 210.625 322.63 225.186C322.598 225.311 322.475 225.387 322.35 225.364Z" fill="white"/>
<path d="M339.754 217.822C339.706 217.814 339.661 217.791 339.624 217.754C339.585 217.714 335.59 213.771 328.965 214.748C328.832 214.765 328.707 214.675 328.687 214.541C328.668 214.407 328.76 214.282 328.894 214.263C335.775 213.25 339.931 217.367 339.973 217.409C340.068 217.505 340.067 217.66 339.971 217.755C339.911 217.814 339.83 217.836 339.754 217.822Z" fill="white"/>
<g opacity="0.3">
<path d="M257.921 48.5493L260 49.3502V44.7626C260 41.1257 262.898 40.2541 266.044 42.0719C269.19 43.8903 271.74 48.3124 271.74 51.9493V52.6154C272.454 52.3301 273.376 52.4407 274.383 53.0237C276.648 54.3324 278.482 57.5145 278.482 60.1312V60.4342L281.383 62.1106C282.873 62.9724 284.082 65.0682 284.082 66.7911C284.082 68.5147 282.873 69.2129 281.383 68.3511L257.919 54.7898C256.428 53.928 255.22 51.8328 255.22 50.1092C255.221 48.3857 256.43 47.6875 257.921 48.5493Z" fill="#E6E6E6"/>
<path d="M285.759 44.9232L289.53 47.1028C289.511 46.934 289.498 46.7672 289.498 46.6029V45.5095C289.498 43.5635 290.862 42.7743 292.546 43.7473C293.228 44.1413 293.855 44.7662 294.363 45.4964C294.639 43.0492 296.557 42.1377 298.886 43.4843C301.406 44.9402 303.447 48.4809 303.447 51.3921V53.0286C303.447 53.7831 303.308 54.4178 303.061 54.9242L306.193 56.7348C307.127 57.2746 307.884 58.5873 307.884 59.6669C307.884 60.7466 307.127 61.1844 306.193 60.6445L285.758 48.8336C284.824 48.2937 284.067 46.9811 284.067 45.9015C284.068 44.8211 284.825 44.3834 285.759 44.9232Z" fill="#E6E6E6"/>
</g>
<path d="M297.945 128.988C295.2 133.634 292.559 137.671 290.704 139.606C287.183 141.245 278.909 143.766 275.672 144.188C275.098 144.263 274.522 144.116 274.047 143.805C272.775 142.97 271.79 142.835 270.448 142.37C269.398 142.006 268.953 141.503 268.755 141.694C268.502 141.94 268.225 142.638 268.865 143.361C269.187 143.724 269.773 144.121 270.528 144.606C270.528 144.606 268.214 145.225 266.146 144.681C263.344 143.945 262.021 145.294 263.916 148.34C264.594 149.431 267.266 151.177 272.681 150.705C274.241 150.57 276.492 150.439 278.434 150.024C283.628 148.914 289.401 147.839 292.95 146.778C293.846 146.51 295.445 145.473 296.397 144.386C302.368 137.573 304.345 132.719 306.962 128.308L306.736 121.099C302.505 120.967 300.242 125.099 297.945 128.988Z" fill="#FEF6F2"/>
<path d="M307.466 120.968C307.466 120.968 303.771 120.181 300.993 123.738C298.087 127.461 292.949 136.401 292.949 136.401C292.949 136.401 294.635 140.884 299.17 141.621L306.457 131.767C306.457 131.767 309.908 124.947 307.466 120.968Z" fill="#455A64"/>
<path d="M323.22 221.449H318.47V229.928H323.22V221.449Z" fill="#FEF6F2"/>
<path d="M306.751 220.996L302.004 221.167L301.766 212.194L306.751 212.023V220.996Z" fill="#FEF6F2"/>
<path d="M323.889 148.039C323.889 152.768 323.194 190.832 323.194 190.832C323.304 192.193 324.528 194.702 324.263 199.929C323.903 207.03 323.423 225.689 323.423 225.689C323.423 225.689 321.117 227.094 318.134 225.798C318.134 225.798 314.283 199.65 313.432 192.613C312.689 186.472 310.786 166.099 310.786 166.099L308.212 190.141C308.212 190.141 309.088 193.803 308.801 198.012C308.579 201.266 307.051 218.217 307.051 218.217C307.051 218.217 304.815 219.799 301.566 218.655C301.566 218.655 298.864 193.127 298.809 190.141C298.747 186.736 300.389 147.988 300.389 147.988L323.889 148.039Z" fill="#37474F"/>
<path d="M318.47 227.484V226.776C318.016 226.982 316.959 231.183 315.074 232.976C313.576 234.401 311.532 236.047 311.012 237.635C310.471 239.288 313.859 240.2 315.258 239.941C316.884 239.641 319.704 238.447 320.411 237.34C321.119 236.232 321.45 234.599 322.025 233.788C322.6 232.977 323.926 232.071 324.237 231.132C324.407 230.617 324.205 229.487 323.965 228.533C323.745 227.657 323.506 226.694 323.219 226.776C323.218 226.883 323.219 227.316 323.219 227.316C322.874 227.715 321.92 228.11 320.845 228.153C320.15 228.18 318.464 228.036 318.47 227.484Z" fill="#263238"/>
<path d="M301.953 219.639C301.706 219.649 301.505 220.011 300.961 220.626C300.304 221.368 299.228 222.168 298.167 222.722C296.388 223.651 292.93 225.078 291.365 225.814C290.388 226.273 290.433 227.505 291.444 228.205C292.454 228.906 294.894 229.411 297.825 228.728C299.421 228.355 301.499 226.818 302.814 226.901C304.129 226.984 306.59 226.965 307.56 226.267C308.531 225.569 308.143 224.079 307.868 222.799C307.569 221.401 307.194 219.222 306.75 219.317V219.799C306.179 220.701 303.232 221.068 301.978 220.404L301.953 219.639Z" fill="#263238"/>
<path d="M310.788 166.098C310.788 166.098 306.991 164.983 304.173 162.144C304.173 162.144 305.449 164.635 309.245 166.954L308.433 188.424L310.788 166.098Z" fill="#263238"/>
<path d="M321.23 121.677C321.23 121.677 325.135 122.582 324.871 129.671L324.049 140.964L324.072 157.911C320.579 161.873 305.094 161.583 299.792 157.593C299.792 157.593 300.393 137.537 300.751 129.82C301.005 124.333 302.267 121.571 307.653 120.967L314.276 121.259L321.23 121.677Z" fill="#F2935C"/>
<path d="M316.239 106.938C316.239 111.011 313.073 114.312 309.167 114.312C305.262 114.312 302.95 110.92 302.096 106.938C300.532 99.6561 305.262 99.5645 309.167 99.5645C313.073 99.5645 316.239 102.866 316.239 106.938Z" fill="#263238"/>
<path d="M319.847 109.921C319.847 109.921 318.763 115.234 318.327 116.107C317.893 116.98 316.993 117.228 316.993 117.228L317.069 113.49L319.847 109.921Z" fill="#263238"/>
<path d="M318.485 102.309C318.485 102.309 319.263 102.114 320.089 103.407C320.798 104.514 320.959 107.003 319.847 109.921L317.804 110.166L318.485 102.309Z" fill="#263238"/>
<path d="M319.237 103.385L321.743 103.431C321.804 102.711 321.293 102.118 320.601 102.105C319.909 102.092 319.299 102.665 319.237 103.385Z" fill="#263238"/>
<path d="M319.544 102.791L321.4 101.004C320.942 100.472 320.155 100.441 319.643 100.935C319.13 101.428 319.086 102.259 319.544 102.791Z" fill="#263238"/>
<path d="M317.191 110.168C317.601 110.423 318.185 109.602 318.69 109.051C319.196 108.5 320.782 107.979 321.605 109.787C322.444 111.629 321.026 113.38 319.847 113.967C317.739 115.016 317.069 113.491 317.069 113.491L316.898 121.907C313.927 126.507 307.198 126.342 309.617 121.685L309.624 119.123C309.624 119.123 307.596 119.444 306.607 119.285C304.962 119.019 303.926 117.666 303.427 115.808C302.625 112.825 302.32 110.415 303.001 104.549C303.747 98.1177 310.92 98.051 314.794 100.593C318.668 103.136 317.191 110.168 317.191 110.168Z" fill="#FEF6F2"/>
<path d="M308.249 103.545C309.962 103.373 311.657 103.024 313.374 102.897C313.746 102.87 314.125 102.854 314.485 102.951C315.801 103.307 315.631 104.838 315.84 105.908C316.2 107.75 316.499 110.873 317.191 110.886C317.397 110.89 318.18 109.535 318.69 109.051C319.02 108.737 319.077 108.062 319.148 107.643C319.279 106.88 319.349 106.106 319.407 105.334C319.457 104.681 319.522 104.016 319.52 103.361C319.516 102.625 319.531 101.877 319.348 101.158C319.182 100.506 318.878 100.018 318.432 99.5092C318.389 99.4602 318.345 99.4117 318.301 99.364C317.456 98.4518 316.378 97.768 315.234 97.2956C313.591 96.6177 311.811 96.3474 310.044 96.1662C308.277 95.9849 306.496 95.8868 304.755 95.5282C304.654 95.5072 304.545 95.4863 304.448 95.5229C304.297 95.5812 304.231 95.7572 304.2 95.9162C304.046 96.7237 304.409 97.607 305.087 98.0723C303.903 98.1665 302.543 97.5488 301.402 97.2393C301.21 97.1869 300.991 97.1379 300.821 97.2413C300.703 97.3126 300.634 97.4435 300.592 97.5743C300.495 97.8779 300.517 98.2058 300.56 98.5218C300.687 99.4556 301.005 100.378 301.58 101.124C302.408 102.198 303.77 103.166 305.113 103.436C306.174 103.65 307.164 103.653 308.249 103.545Z" fill="#263238"/>
<path d="M309.624 119.124C309.624 119.124 313.297 118.352 314.582 117.64C315.441 117.164 316.149 116.338 316.357 115.809C316.357 115.809 316.117 116.945 315.349 117.969C314.409 119.22 309.624 120.142 309.624 120.142V119.124Z" fill="#F2935C"/>
<path d="M310.507 109.211C310.507 109.651 310.837 110.007 311.243 110.006C311.649 110.005 311.979 109.647 311.979 109.207C311.979 108.766 311.649 108.41 311.243 108.411C310.837 108.412 310.507 108.77 310.507 109.211Z" fill="#263238"/>
<path d="M311.689 106.032L313.265 106.939C313.497 106.467 313.333 105.881 312.897 105.631C312.462 105.381 311.921 105.561 311.689 106.032Z" fill="#263238"/>
<path d="M309.957 114.513L308.276 115.17C308.442 115.673 308.954 115.933 309.418 115.751C309.882 115.569 310.124 115.015 309.957 114.513Z" fill="#F2935C"/>
<path d="M303.754 106.707L305.19 105.555C304.897 105.126 304.338 105.036 303.941 105.355C303.545 105.673 303.461 106.279 303.754 106.707Z" fill="#263238"/>
<path d="M304.385 108.992C304.385 109.432 304.714 109.788 305.121 109.787C305.527 109.785 305.857 109.427 305.857 108.987C305.857 108.547 305.527 108.191 305.121 108.191C304.714 108.193 304.385 108.551 304.385 108.992Z" fill="#263238"/>
<path d="M308.324 108.375L308.238 113.03L305.6 112.424L308.324 108.375Z" fill="#F2935C"/>
<path d="M245.62 147.339L249.714 144.973L251.337 143.005L247.243 145.372L245.62 147.339Z" fill="#F2935C"/>
<path opacity="0.4" d="M245.62 147.339L249.714 144.973L251.337 143.005L247.243 145.372L245.62 147.339Z" fill="black"/>
<path d="M256.762 153.778L260.856 151.412L264.278 148.38L260.183 150.746L256.762 153.778Z" fill="#F2935C"/>
<path opacity="0.4" d="M256.762 153.778L260.856 151.412L264.278 148.38L260.183 150.746L256.762 153.778Z" fill="black"/>
<path d="M291.576 161.956C292.473 163.099 293.128 164.778 293.269 166.416C292.37 165.273 291.716 163.593 291.576 161.956ZM301.094 162.079C299.717 152.688 294.677 143.398 288.67 139.927C285.787 138.258 283.119 138.198 280.982 139.449C280.357 139.813 278.039 141.151 277.125 141.676C277.051 141.717 276.977 141.757 276.91 141.804C276.742 141.898 276.574 142.005 276.413 142.12C276.104 142.335 275.808 142.577 275.526 142.853C275.485 142.887 275.445 142.934 275.398 142.974C275.277 143.095 275.156 143.23 275.042 143.364C274.901 143.526 274.76 143.694 274.632 143.869C274.364 144.225 274.108 144.609 273.88 145.026C273.766 145.227 273.651 145.443 273.544 145.665L239.872 126.204L235.779 128.565V131.175L236.128 131.377L236.451 131.565V132.117L235.779 132.507V134.027L240.725 144.507L245.616 147.339L247.243 145.369L251.557 147.952L254.036 152.203L256.764 153.778L260.184 150.744L264.384 153.172L265.795 158.998L272.831 163.061C273.187 164.555 273.637 166.015 274.162 167.441C274.209 167.589 274.262 167.737 274.323 167.898C276.662 174.054 280.384 179.321 284.577 181.749C285.115 182.058 285.639 182.314 286.156 182.509C286.452 182.63 286.748 182.725 287.037 182.805C287.299 182.879 287.561 182.94 287.823 182.98C288.69 183.134 289.53 183.128 290.316 182.973C290.43 182.946 290.545 182.92 290.659 182.893C290.82 182.859 290.981 182.812 291.136 182.751C291.257 182.704 291.378 182.657 291.498 182.61C291.626 182.563 291.754 182.502 291.875 182.435C291.996 182.382 292.11 182.321 292.225 182.253C292.285 182.22 292.346 182.186 292.399 182.153C292.426 182.146 292.453 182.126 292.48 182.106C293.414 181.568 295.719 180.235 296.344 179.879C299.455 178.076 301.471 173.508 301.471 167.05C301.47 165.409 301.343 163.741 301.094 162.079Z" fill="#F2935C"/>
<path d="M290.375 169.877C288.76 168.943 287.45 166.168 287.45 163.678C287.45 161.188 288.76 159.927 290.375 160.861C291.99 161.794 293.3 164.57 293.3 167.059C293.3 169.549 291.99 170.811 290.375 169.877ZM297.002 164.441C295.625 155.057 290.585 145.766 284.578 142.296C281.796 140.688 279.222 140.567 277.126 141.677C277.052 141.717 276.978 141.757 276.91 141.804C276.742 141.898 276.574 142.006 276.413 142.12C276.104 142.335 275.808 142.578 275.526 142.854C275.486 142.887 275.445 142.934 275.399 142.975C275.278 143.096 275.157 143.231 275.042 143.365C274.901 143.526 274.76 143.695 274.633 143.869C274.364 144.226 274.108 144.609 273.88 145.026C273.766 145.228 273.651 145.443 273.544 145.665C272.987 146.809 272.543 148.141 272.247 149.648L235.78 128.565V131.176L236.129 131.377L236.452 131.566V132.117L235.78 132.507V134.027L240.726 144.508L245.617 147.34L247.244 145.369L251.558 147.952L254.037 152.204L256.765 153.778L260.185 150.744L264.385 153.173L265.796 158.998L272.832 163.062C273.188 164.555 273.638 166.015 274.163 167.441C274.21 167.589 274.263 167.737 274.324 167.899C276.663 174.054 280.385 179.321 284.578 181.749C285.116 182.059 285.64 182.315 286.157 182.51C286.453 182.631 286.749 182.725 287.038 182.805C287.3 182.879 287.562 182.94 287.824 182.98C288.691 183.135 289.531 183.128 290.317 182.974C290.431 182.947 290.546 182.92 290.66 182.893C290.821 182.86 290.982 182.813 291.137 182.752C291.258 182.705 291.379 182.658 291.499 182.61C291.627 182.563 291.755 182.503 291.876 182.436C291.997 182.382 292.111 182.321 292.226 182.254C292.286 182.22 292.347 182.186 292.4 182.153C292.427 182.147 292.454 182.126 292.481 182.106C295.464 180.223 297.38 175.722 297.38 169.419C297.379 167.777 297.244 166.109 297.002 164.441Z" fill="#F2935C"/>
<path opacity="0.4" d="M293.299 167.058C293.299 169.547 291.988 170.812 290.376 169.876C288.756 168.941 287.446 166.17 287.446 163.681C287.446 161.193 288.757 159.928 290.376 160.863C290.806 161.112 291.216 161.488 291.572 161.96C291.713 163.594 292.371 165.276 293.266 166.42C293.292 166.634 293.299 166.849 293.299 167.058Z" fill="black"/>
<path opacity="0.4" d="M301.47 167.051C301.47 173.508 299.454 178.076 296.343 179.879C295.718 180.236 293.413 181.567 292.479 182.106C295.463 180.223 297.378 175.722 297.378 169.419C297.378 167.778 297.244 166.109 297.002 164.441C295.625 155.057 290.584 145.767 284.577 142.296C281.795 140.688 279.222 140.567 277.125 141.677C278.039 141.152 280.357 139.813 280.982 139.45C283.119 138.199 285.787 138.259 288.669 139.928C294.677 143.399 299.716 152.689 301.094 162.08C301.343 163.741 301.47 165.409 301.47 167.051Z" fill="white"/>
<path d="M297.378 169.418C297.378 175.721 295.463 180.222 292.479 182.105C293.414 181.567 295.718 180.235 296.343 179.878C299.454 178.076 301.47 173.508 301.47 167.05C301.47 166.812 301.462 166.572 301.456 166.332C300.05 167.145 298.629 167.966 297.363 168.698C297.369 168.938 297.378 169.179 297.378 169.418Z" fill="#F2935C"/>
<path opacity="0.1" d="M297.378 169.418C297.378 175.721 295.463 180.222 292.479 182.105C293.414 181.567 295.718 180.235 296.343 179.878C299.454 178.076 301.47 173.508 301.47 167.05C301.47 166.812 301.462 166.572 301.456 166.332C300.05 167.145 298.629 167.966 297.363 168.698C297.369 168.938 297.378 169.179 297.378 169.418Z" fill="black"/>
<path opacity="0.15" d="M272.395 152.338V153.671L235.78 132.507L236.452 132.117V131.565L272.395 152.338Z" fill="black"/>
<path opacity="0.15" d="M272.395 152.89V153.67L235.78 132.507L236.452 132.117V132.11L272.395 152.89Z" fill="black"/>
<path opacity="0.15" d="M289.884 179.344C294.988 177.776 296.75 168.753 293.818 159.19C290.887 149.628 284.372 143.148 279.268 144.716C274.163 146.284 272.402 155.307 275.333 164.87C278.265 174.432 284.779 180.913 289.884 179.344Z" stroke="black" stroke-miterlimit="10"/>
<path opacity="0.4" d="M273.544 145.666C272.987 146.81 272.543 148.141 272.247 149.648L235.78 128.566L239.873 126.205L273.544 145.666Z" fill="white"/>
<path d="M320.912 147.716C322.825 144.095 325.005 135.968 326.09 131.867C327.632 126.041 325.137 122.376 322.304 122.229C320.527 122.499 314.694 143.749 314.694 143.749C314.048 144.267 305.17 148.771 302.317 149.903C301.812 150.104 301.249 150.095 300.738 149.909C299.368 149.408 298.435 149.503 297.095 149.368C296.045 149.263 295.514 148.889 295.381 149.114C295.211 149.404 295.132 150.125 295.896 150.663C296.28 150.934 296.915 151.175 297.725 151.463C297.725 151.463 296.208 151.989 294.186 151.944C291.444 151.883 290.457 153.076 292.583 155.859C293.916 157.602 296.059 158.151 300.885 156.481C302.275 155.999 304.159 155.064 305.912 154.426C309.537 153.108 310.467 152.965 313.25 152.027C317.265 150.674 320.063 149.322 320.912 147.716Z" fill="#FEF6F2"/>
<path d="M321.23 121.677C322.898 121.905 324.515 122.283 325.485 123.632C326.455 124.981 327.263 126.884 326.293 132.111C325.323 137.338 323.328 142.891 323.328 142.891C323.328 142.891 319.448 144.551 315.32 140.339L318.154 129.36C318.154 129.36 318.639 122.228 321.23 121.677Z" fill="#455A64"/>
<path d="M24.9429 350.2C23.6496 350.2 22.5296 349.92 21.5829 349.36C20.6496 348.787 19.9296 347.987 19.4229 346.96C18.9296 345.92 18.6829 344.7 18.6829 343.3C18.6829 341.9 18.9296 340.687 19.4229 339.66C19.9296 338.62 20.6496 337.82 21.5829 337.26C22.5296 336.687 23.6496 336.4 24.9429 336.4C26.1562 336.4 27.1896 336.613 28.0429 337.04C28.8962 337.467 29.5562 338.067 30.0229 338.84C30.4896 339.613 30.7229 340.54 30.7229 341.62V341.74H28.4429V341.62C28.4429 340.527 28.1629 339.733 27.6029 339.24C27.0562 338.733 26.1496 338.48 24.8829 338.48C23.9629 338.48 23.2162 338.64 22.6429 338.96C22.0696 339.28 21.6496 339.793 21.3829 340.5C21.1162 341.207 20.9829 342.14 20.9829 343.3C20.9829 344.447 21.1162 345.38 21.3829 346.1C21.6496 346.807 22.0696 347.32 22.6429 347.64C23.2162 347.947 23.9629 348.1 24.8829 348.1C26.1496 348.1 27.0562 347.853 27.6029 347.36C28.1629 346.867 28.4429 346.073 28.4429 344.98V344.86H30.7229V344.98C30.7229 346.047 30.4896 346.973 30.0229 347.76C29.5562 348.533 28.8962 349.133 28.0429 349.56C27.1896 349.987 26.1562 350.2 24.9429 350.2ZM34.6595 350H32.4995V340H34.4795V342.78L34.6595 342.88V350ZM34.6595 343.52H34.1595V341.58H34.5795C34.7795 341.113 35.1061 340.713 35.5595 340.38C36.0261 340.033 36.6261 339.86 37.3595 339.86C38.0661 339.86 38.6261 340.013 39.0395 340.32C39.4661 340.627 39.7728 341.033 39.9595 341.54C40.1461 342.047 40.2395 342.613 40.2395 343.24V343.9H38.0795V343.5C38.0795 342.833 37.9661 342.367 37.7395 342.1C37.5128 341.833 37.0861 341.7 36.4595 341.7C35.8061 341.7 35.3395 341.84 35.0595 342.12C34.7928 342.387 34.6595 342.853 34.6595 343.52ZM46.0405 350.2C44.9605 350.2 44.0605 349.987 43.3405 349.56C42.6205 349.12 42.0872 348.513 41.7405 347.74C41.3939 346.953 41.2205 346.047 41.2205 345.02C41.2205 343.993 41.4139 343.093 41.8005 342.32C42.2005 341.547 42.7605 340.947 43.4805 340.52C44.2005 340.08 45.0539 339.86 46.0405 339.86C46.9339 339.86 47.7205 340.033 48.4005 340.38C49.0939 340.713 49.6272 341.2 50.0005 341.84C50.3872 342.48 50.5805 343.253 50.5805 344.16C50.5805 344.427 50.5672 344.687 50.5405 344.94C50.5272 345.18 50.5072 345.38 50.4805 345.54H42.2405V344.1H48.7205L48.5005 344.3C48.5539 343.687 48.4872 343.187 48.3005 342.8C48.1272 342.413 47.8405 342.127 47.4405 341.94C47.0539 341.753 46.5672 341.66 45.9805 341.66C44.9272 341.66 44.2072 341.927 43.8205 342.46C43.4339 342.98 43.2405 343.7 43.2405 344.62V345.22C43.2405 345.887 43.3205 346.453 43.4805 346.92C43.6539 347.373 43.9472 347.713 44.3605 347.94C44.7739 348.167 45.3405 348.28 46.0605 348.28C46.9005 348.28 47.4939 348.147 47.8405 347.88C48.1872 347.613 48.3605 347.26 48.3605 346.82V346.66H50.5005V346.84C50.5005 347.52 50.3139 348.113 49.9405 348.62C49.5672 349.113 49.0472 349.5 48.3805 349.78C47.7272 350.06 46.9472 350.2 46.0405 350.2ZM60.8023 350H58.8023V348.04L58.7423 347.5V343.68C58.7423 342.933 58.5623 342.427 58.2023 342.16C57.8556 341.893 57.2889 341.76 56.5023 341.76C55.7156 341.76 55.1489 341.9 54.8023 342.18C54.4689 342.46 54.3023 342.927 54.3023 343.58V343.88H52.2223V343.68C52.2223 342.933 52.4023 342.273 52.7623 341.7C53.1356 341.127 53.6489 340.68 54.3023 340.36C54.9689 340.027 55.7423 339.86 56.6223 339.86C57.5556 339.86 58.3289 340.033 58.9423 340.38C59.5556 340.727 60.0156 341.207 60.3223 341.82C60.6423 342.42 60.8023 343.133 60.8023 343.96V350ZM55.1023 350.2C54.2089 350.2 53.4556 349.973 52.8423 349.52C52.2423 349.053 51.9423 348.393 51.9423 347.54C51.9423 346.98 52.0689 346.513 52.3223 346.14C52.5889 345.767 52.9689 345.46 53.4623 345.22C53.9556 344.98 54.5556 344.813 55.2623 344.72L58.9423 344.2V345.72L55.5823 346.22C55.0089 346.3 54.6089 346.42 54.3823 346.58C54.1556 346.74 54.0423 347.007 54.0423 347.38C54.0423 347.767 54.1756 348.047 54.4423 348.22C54.7223 348.393 55.1756 348.48 55.8023 348.48C56.2823 348.48 56.7423 348.407 57.1823 348.26C57.6356 348.1 58.0089 347.84 58.3023 347.48C58.5956 347.107 58.7423 346.587 58.7423 345.92L59.0223 348.46L58.7023 348.44C58.5156 348.747 58.2556 349.033 57.9223 349.3C57.6023 349.567 57.2089 349.787 56.7423 349.96C56.2756 350.12 55.7289 350.2 55.1023 350.2ZM66.9134 350C65.82 350 64.98 349.767 64.3934 349.3C63.82 348.833 63.5334 348.047 63.5334 346.94V340.28L64.0334 337.6H65.6934V346.84C65.6934 347.36 65.82 347.693 66.0734 347.84C66.34 347.973 66.8134 348.04 67.4934 348.04H68.6934V349.82C68.4934 349.873 68.2334 349.92 67.9134 349.96C67.5934 349.987 67.26 350 66.9134 350ZM68.6934 341.86H61.8734V340.06H68.6934V341.86ZM74.2241 350.2C73.1441 350.2 72.2441 349.987 71.5241 349.56C70.8041 349.12 70.2708 348.513 69.9241 347.74C69.5775 346.953 69.4041 346.047 69.4041 345.02C69.4041 343.993 69.5975 343.093 69.9841 342.32C70.3841 341.547 70.9441 340.947 71.6641 340.52C72.3841 340.08 73.2375 339.86 74.2241 339.86C75.1175 339.86 75.9041 340.033 76.5841 340.38C77.2775 340.713 77.8108 341.2 78.1841 341.84C78.5708 342.48 78.7641 343.253 78.7641 344.16C78.7641 344.427 78.7508 344.687 78.7241 344.94C78.7108 345.18 78.6908 345.38 78.6641 345.54H70.4241V344.1H76.9041L76.6841 344.3C76.7375 343.687 76.6708 343.187 76.4841 342.8C76.3108 342.413 76.0241 342.127 75.6241 341.94C75.2375 341.753 74.7508 341.66 74.1641 341.66C73.1108 341.66 72.3908 341.927 72.0041 342.46C71.6175 342.98 71.4241 343.7 71.4241 344.62V345.22C71.4241 345.887 71.5041 346.453 71.6641 346.92C71.8375 347.373 72.1308 347.713 72.5441 347.94C72.9575 348.167 73.5241 348.28 74.2441 348.28C75.0841 348.28 75.6775 348.147 76.0241 347.88C76.3708 347.613 76.5441 347.26 76.5441 346.82V346.66H78.6841V346.84C78.6841 347.52 78.4975 348.113 78.1241 348.62C77.7508 349.113 77.2308 349.5 76.5641 349.78C75.9108 350.06 75.1308 350.2 74.2241 350.2ZM92.7749 350H90.7749V348.04L90.7149 347.5V343.68C90.7149 342.933 90.5349 342.427 90.1749 342.16C89.8283 341.893 89.2616 341.76 88.4749 341.76C87.6883 341.76 87.1216 341.9 86.7749 342.18C86.4416 342.46 86.2749 342.927 86.2749 343.58V343.88H84.1949V343.68C84.1949 342.933 84.3749 342.273 84.7349 341.7C85.1083 341.127 85.6216 340.68 86.2749 340.36C86.9416 340.027 87.7149 339.86 88.5949 339.86C89.5283 339.86 90.3016 340.033 90.9149 340.38C91.5283 340.727 91.9883 341.207 92.2949 341.82C92.6149 342.42 92.7749 343.133 92.7749 343.96V350ZM87.0749 350.2C86.1816 350.2 85.4283 349.973 84.8149 349.52C84.2149 349.053 83.9149 348.393 83.9149 347.54C83.9149 346.98 84.0416 346.513 84.2949 346.14C84.5616 345.767 84.9416 345.46 85.4349 345.22C85.9283 344.98 86.5283 344.813 87.2349 344.72L90.9149 344.2V345.72L87.5549 346.22C86.9816 346.3 86.5816 346.42 86.3549 346.58C86.1283 346.74 86.0149 347.007 86.0149 347.38C86.0149 347.767 86.1483 348.047 86.4149 348.22C86.6949 348.393 87.1483 348.48 87.7749 348.48C88.2549 348.48 88.7149 348.407 89.1549 348.26C89.6083 348.1 89.9816 347.84 90.2749 347.48C90.5683 347.107 90.7149 346.587 90.7149 345.92L90.9949 348.46L90.6749 348.44C90.4883 348.747 90.2283 349.033 89.8949 349.3C89.5749 349.567 89.1816 349.787 88.7149 349.96C88.2483 350.12 87.7016 350.2 87.0749 350.2ZM102.793 350.2C101.339 350.2 100.239 349.913 99.4927 349.34C98.7461 348.753 98.3727 347.853 98.3727 346.64V346.6H100.453V346.96C100.453 347.307 100.519 347.593 100.653 347.82C100.799 348.033 101.039 348.193 101.373 348.3C101.719 348.393 102.206 348.44 102.833 348.44C103.366 348.44 103.766 348.4 104.033 348.32C104.313 348.227 104.499 348.1 104.593 347.94C104.686 347.78 104.733 347.58 104.733 347.34C104.733 346.94 104.593 346.66 104.313 346.5C104.033 346.327 103.533 346.173 102.813 346.04L101.253 345.78C100.666 345.66 100.153 345.493 99.7127 345.28C99.2861 345.053 98.9527 344.747 98.7127 344.36C98.4861 343.96 98.3727 343.46 98.3727 342.86C98.3727 341.967 98.7261 341.247 99.4327 340.7C100.139 340.14 101.139 339.86 102.433 339.86C103.219 339.86 103.919 339.987 104.533 340.24C105.146 340.493 105.633 340.873 105.993 341.38C106.353 341.887 106.533 342.52 106.533 343.28V343.46H104.473V343.22C104.473 342.9 104.419 342.627 104.313 342.4C104.206 342.16 104.006 341.973 103.713 341.84C103.419 341.707 102.973 341.64 102.373 341.64C101.586 341.64 101.066 341.74 100.813 341.94C100.559 342.14 100.433 342.433 100.433 342.82C100.433 343.207 100.546 343.48 100.773 343.64C101.013 343.787 101.479 343.933 102.173 344.08L103.873 344.4C104.513 344.52 105.046 344.7 105.473 344.94C105.899 345.18 106.219 345.493 106.433 345.88C106.659 346.267 106.773 346.727 106.773 347.26C106.773 348.193 106.419 348.92 105.713 349.44C105.019 349.947 104.046 350.2 102.793 350.2ZM112.558 350C111.465 350 110.625 349.767 110.038 349.3C109.465 348.833 109.178 348.047 109.178 346.94V340.28L109.678 337.6H111.338V346.84C111.338 347.36 111.465 347.693 111.718 347.84C111.985 347.973 112.458 348.04 113.138 348.04H114.338V349.82C114.138 349.873 113.878 349.92 113.558 349.96C113.238 349.987 112.905 350 112.558 350ZM114.338 341.86H107.518V340.06H114.338V341.86ZM117.98 350H115.82V340H117.8V342.78L117.98 342.88V350ZM117.98 343.52H117.48V341.58H117.9C118.1 341.113 118.426 340.713 118.88 340.38C119.346 340.033 119.946 339.86 120.68 339.86C121.386 339.86 121.946 340.013 122.36 340.32C122.786 340.627 123.093 341.033 123.28 341.54C123.466 342.047 123.56 342.613 123.56 343.24V343.9H121.4V343.5C121.4 342.833 121.286 342.367 121.06 342.1C120.833 341.833 120.406 341.7 119.78 341.7C119.126 341.7 118.66 341.84 118.38 342.12C118.113 342.387 117.98 342.853 117.98 343.52ZM129.501 350.2C128.488 350.2 127.608 349.987 126.861 349.56C126.114 349.12 125.541 348.513 125.141 347.74C124.741 346.953 124.541 346.047 124.541 345.02C124.541 343.993 124.741 343.093 125.141 342.32C125.541 341.547 126.114 340.947 126.861 340.52C127.608 340.08 128.488 339.86 129.501 339.86C130.514 339.86 131.381 340.08 132.101 340.52C132.834 340.947 133.394 341.547 133.781 342.32C134.181 343.093 134.381 343.993 134.381 345.02C134.381 346.047 134.181 346.953 133.781 347.74C133.394 348.513 132.834 349.12 132.101 349.56C131.381 349.987 130.514 350.2 129.501 350.2ZM129.501 348.28C130.541 348.28 131.268 348.02 131.681 347.5C132.094 346.967 132.301 346.14 132.301 345.02C132.301 343.9 132.094 343.08 131.681 342.56C131.268 342.04 130.541 341.78 129.501 341.78C128.448 341.78 127.714 342.04 127.301 342.56C126.888 343.08 126.681 343.9 126.681 345.02C126.681 346.14 126.888 346.967 127.301 347.5C127.714 348.02 128.448 348.28 129.501 348.28ZM145.256 350H143.096V344.22C143.096 343.34 142.929 342.707 142.596 342.32C142.262 341.92 141.636 341.72 140.716 341.72C140.129 341.72 139.649 341.807 139.276 341.98C138.902 342.14 138.622 342.407 138.436 342.78C138.249 343.14 138.156 343.633 138.156 344.26H137.776L137.596 341.92H138.076C138.222 341.56 138.442 341.227 138.736 340.92C139.029 340.613 139.402 340.36 139.856 340.16C140.322 339.96 140.876 339.86 141.516 339.86C142.382 339.86 143.089 340.027 143.636 340.36C144.182 340.693 144.589 341.153 144.856 341.74C145.122 342.327 145.256 343 145.256 343.76V350ZM138.156 350H135.996V340.06H137.976V343.04L138.156 343.14V350ZM151.985 353.6C151.051 353.6 150.238 353.453 149.545 353.16C148.865 352.867 148.338 352.44 147.965 351.88C147.591 351.333 147.405 350.66 147.405 349.86H149.565C149.565 350.313 149.631 350.673 149.765 350.94C149.898 351.207 150.145 351.393 150.505 351.5C150.865 351.62 151.378 351.68 152.045 351.68C152.698 351.68 153.198 351.607 153.545 351.46C153.891 351.313 154.131 351.067 154.265 350.72C154.398 350.373 154.465 349.893 154.465 349.28V342.68L154.625 342.42V340.06H156.625V349.28C156.625 350.253 156.438 351.053 156.065 351.68C155.691 352.32 155.158 352.8 154.465 353.12C153.785 353.44 152.958 353.6 151.985 353.6ZM151.145 349.06C149.771 349.06 148.718 348.647 147.985 347.82C147.251 346.98 146.885 345.86 146.885 344.46C146.885 343.06 147.258 341.947 148.005 341.12C148.751 340.28 149.825 339.86 151.225 339.86C152.038 339.86 152.738 340.027 153.325 340.36C153.911 340.68 154.318 341.127 154.545 341.7H154.945L154.845 344.14H154.465C154.465 343.58 154.351 343.12 154.125 342.76C153.898 342.4 153.578 342.133 153.165 341.96C152.751 341.787 152.271 341.7 151.725 341.7C151.098 341.7 150.585 341.787 150.185 341.96C149.798 342.133 149.511 342.427 149.325 342.84C149.138 343.24 149.045 343.78 149.045 344.46C149.045 344.967 149.098 345.4 149.205 345.76C149.311 346.107 149.478 346.387 149.705 346.6C149.931 346.813 150.218 346.973 150.565 347.08C150.911 347.173 151.311 347.22 151.765 347.22C152.311 347.22 152.785 347.133 153.185 346.96C153.585 346.773 153.898 346.5 154.125 346.14C154.351 345.78 154.465 345.32 154.465 344.76H154.905V347.3H154.385C154.158 347.78 153.765 348.193 153.205 348.54C152.645 348.887 151.958 349.06 151.145 349.06ZM167.959 350.2C167.066 350.2 166.339 350.027 165.779 349.68C165.232 349.32 164.852 348.913 164.639 348.46H164.099L164.199 345.92H164.579C164.579 346.467 164.679 346.92 164.879 347.28C165.092 347.64 165.406 347.913 165.819 348.1C166.232 348.273 166.726 348.36 167.299 348.36C167.766 348.36 168.172 348.3 168.519 348.18C168.866 348.06 169.146 347.873 169.359 347.62C169.586 347.367 169.746 347.027 169.839 346.6C169.946 346.16 169.999 345.633 169.999 345.02C169.999 344.407 169.946 343.893 169.839 343.48C169.746 343.053 169.586 342.707 169.359 342.44C169.146 342.173 168.866 341.987 168.519 341.88C168.186 341.76 167.779 341.7 167.299 341.7C166.726 341.7 166.232 341.793 165.819 341.98C165.406 342.153 165.092 342.42 164.879 342.78C164.679 343.127 164.579 343.58 164.579 344.14H164.199L164.099 341.7H164.499C164.739 341.127 165.132 340.68 165.679 340.36C166.239 340.027 166.952 339.86 167.819 339.86C169.219 339.86 170.292 340.327 171.039 341.26C171.786 342.193 172.159 343.447 172.159 345.02C172.159 346.593 171.799 347.853 171.079 348.8C170.359 349.733 169.319 350.2 167.959 350.2ZM164.579 353.46H162.439V340.06H164.399V342.42L164.579 342.68V353.46ZM182.384 350H180.384V348.04L180.324 347.5V343.68C180.324 342.933 180.144 342.427 179.784 342.16C179.438 341.893 178.871 341.76 178.084 341.76C177.298 341.76 176.731 341.9 176.384 342.18C176.051 342.46 175.884 342.927 175.884 343.58V343.88H173.804V343.68C173.804 342.933 173.984 342.273 174.344 341.7C174.718 341.127 175.231 340.68 175.884 340.36C176.551 340.027 177.324 339.86 178.204 339.86C179.138 339.86 179.911 340.033 180.524 340.38C181.138 340.727 181.598 341.207 181.904 341.82C182.224 342.42 182.384 343.133 182.384 343.96V350ZM176.684 350.2C175.791 350.2 175.038 349.973 174.424 349.52C173.824 349.053 173.524 348.393 173.524 347.54C173.524 346.98 173.651 346.513 173.904 346.14C174.171 345.767 174.551 345.46 175.044 345.22C175.538 344.98 176.138 344.813 176.844 344.72L180.524 344.2V345.72L177.164 346.22C176.591 346.3 176.191 346.42 175.964 346.58C175.738 346.74 175.624 347.007 175.624 347.38C175.624 347.767 175.758 348.047 176.024 348.22C176.304 348.393 176.758 348.48 177.384 348.48C177.864 348.48 178.324 348.407 178.764 348.26C179.218 348.1 179.591 347.84 179.884 347.48C180.178 347.107 180.324 346.587 180.324 345.92L180.604 348.46L180.284 348.44C180.098 348.747 179.838 349.033 179.504 349.3C179.184 349.567 178.791 349.787 178.324 349.96C177.858 350.12 177.311 350.2 176.684 350.2ZM188.574 350.2C187.121 350.2 186.021 349.913 185.274 349.34C184.527 348.753 184.154 347.853 184.154 346.64V346.6H186.234V346.96C186.234 347.307 186.301 347.593 186.434 347.82C186.581 348.033 186.821 348.193 187.154 348.3C187.501 348.393 187.987 348.44 188.614 348.44C189.147 348.44 189.547 348.4 189.814 348.32C190.094 348.227 190.281 348.1 190.374 347.94C190.467 347.78 190.514 347.58 190.514 347.34C190.514 346.94 190.374 346.66 190.094 346.5C189.814 346.327 189.314 346.173 188.594 346.04L187.034 345.78C186.447 345.66 185.934 345.493 185.494 345.28C185.067 345.053 184.734 344.747 184.494 344.36C184.267 343.96 184.154 343.46 184.154 342.86C184.154 341.967 184.507 341.247 185.214 340.7C185.921 340.14 186.921 339.86 188.214 339.86C189.001 339.86 189.701 339.987 190.314 340.24C190.927 340.493 191.414 340.873 191.774 341.38C192.134 341.887 192.314 342.52 192.314 343.28V343.46H190.254V343.22C190.254 342.9 190.201 342.627 190.094 342.4C189.987 342.16 189.787 341.973 189.494 341.84C189.201 341.707 188.754 341.64 188.154 341.64C187.367 341.64 186.847 341.74 186.594 341.94C186.341 342.14 186.214 342.433 186.214 342.82C186.214 343.207 186.327 343.48 186.554 343.64C186.794 343.787 187.261 343.933 187.954 344.08L189.654 344.4C190.294 344.52 190.827 344.7 191.254 344.94C191.681 345.18 192.001 345.493 192.214 345.88C192.441 346.267 192.554 346.727 192.554 347.26C192.554 348.193 192.201 348.92 191.494 349.44C190.801 349.947 189.827 350.2 188.574 350.2ZM198.418 350.2C196.964 350.2 195.864 349.913 195.118 349.34C194.371 348.753 193.998 347.853 193.998 346.64V346.6H196.078V346.96C196.078 347.307 196.144 347.593 196.278 347.82C196.424 348.033 196.664 348.193 196.998 348.3C197.344 348.393 197.831 348.44 198.458 348.44C198.991 348.44 199.391 348.4 199.658 348.32C199.938 348.227 200.124 348.1 200.218 347.94C200.311 347.78 200.358 347.58 200.358 347.34C200.358 346.94 200.218 346.66 199.938 346.5C199.658 346.327 199.158 346.173 198.438 346.04L196.878 345.78C196.291 345.66 195.778 345.493 195.338 345.28C194.911 345.053 194.578 344.747 194.338 344.36C194.111 343.96 193.998 343.46 193.998 342.86C193.998 341.967 194.351 341.247 195.058 340.7C195.764 340.14 196.764 339.86 198.058 339.86C198.844 339.86 199.544 339.987 200.158 340.24C200.771 340.493 201.258 340.873 201.618 341.38C201.978 341.887 202.158 342.52 202.158 343.28V343.46H200.098V343.22C200.098 342.9 200.044 342.627 199.938 342.4C199.831 342.16 199.631 341.973 199.338 341.84C199.044 341.707 198.598 341.64 197.998 341.64C197.211 341.64 196.691 341.74 196.438 341.94C196.184 342.14 196.058 342.433 196.058 342.82C196.058 343.207 196.171 343.48 196.398 343.64C196.638 343.787 197.104 343.933 197.798 344.08L199.498 344.4C200.138 344.52 200.671 344.7 201.098 344.94C201.524 345.18 201.844 345.493 202.058 345.88C202.284 346.267 202.398 346.727 202.398 347.26C202.398 348.193 202.044 348.92 201.338 349.44C200.644 349.947 199.671 350.2 198.418 350.2ZM208.326 350H205.506L203.046 340.06H205.386L206.526 345.58L206.946 348.2H207.106L207.746 345.58L209.486 340.06H212.286L214.046 345.6L214.686 348.18H214.826L215.246 345.6L216.386 340.06H218.646L216.186 350H213.366L211.586 344.46L210.926 341.96H210.786L210.126 344.46L208.326 350ZM223.934 350.2C222.921 350.2 222.041 349.987 221.294 349.56C220.548 349.12 219.974 348.513 219.574 347.74C219.174 346.953 218.974 346.047 218.974 345.02C218.974 343.993 219.174 343.093 219.574 342.32C219.974 341.547 220.548 340.947 221.294 340.52C222.041 340.08 222.921 339.86 223.934 339.86C224.948 339.86 225.814 340.08 226.534 340.52C227.268 340.947 227.828 341.547 228.214 342.32C228.614 343.093 228.814 343.993 228.814 345.02C228.814 346.047 228.614 346.953 228.214 347.74C227.828 348.513 227.268 349.12 226.534 349.56C225.814 349.987 224.948 350.2 223.934 350.2ZM223.934 348.28C224.974 348.28 225.701 348.02 226.114 347.5C226.528 346.967 226.734 346.14 226.734 345.02C226.734 343.9 226.528 343.08 226.114 342.56C225.701 342.04 224.974 341.78 223.934 341.78C222.881 341.78 222.148 342.04 221.734 342.56C221.321 343.08 221.114 343.9 221.114 345.02C221.114 346.14 221.321 346.967 221.734 347.5C222.148 348.02 222.881 348.28 223.934 348.28ZM232.589 350H230.429V340H232.409V342.78L232.589 342.88V350ZM232.589 343.52H232.089V341.58H232.509C232.709 341.113 233.036 340.713 233.489 340.38C233.956 340.033 234.556 339.86 235.289 339.86C235.996 339.86 236.556 340.013 236.969 340.32C237.396 340.627 237.702 341.033 237.889 341.54C238.076 342.047 238.169 342.613 238.169 343.24V343.9H236.009V343.5C236.009 342.833 235.896 342.367 235.669 342.1C235.442 341.833 235.016 341.7 234.389 341.7C233.736 341.7 233.269 341.84 232.989 342.12C232.722 342.387 232.589 342.853 232.589 343.52ZM243.53 350.2C242.117 350.2 241.03 349.733 240.27 348.8C239.524 347.853 239.15 346.593 239.15 345.02C239.15 343.447 239.517 342.193 240.25 341.26C240.997 340.327 242.05 339.86 243.41 339.86C244.29 339.86 244.997 340.04 245.53 340.4C246.077 340.747 246.457 341.147 246.67 341.6H247.21L247.11 344.14H246.73C246.73 343.58 246.624 343.12 246.41 342.76C246.197 342.4 245.89 342.133 245.49 341.96C245.09 341.787 244.597 341.7 244.01 341.7C243.53 341.7 243.117 341.76 242.77 341.88C242.437 342 242.157 342.187 241.93 342.44C241.717 342.693 241.557 343.033 241.45 343.46C241.357 343.887 241.31 344.407 241.31 345.02C241.31 345.62 241.357 346.14 241.45 346.58C241.557 347.007 241.717 347.353 241.93 347.62C242.157 347.873 242.444 348.06 242.79 348.18C243.137 348.3 243.544 348.36 244.01 348.36C244.597 348.36 245.09 348.273 245.49 348.1C245.89 347.913 246.197 347.64 246.41 347.28C246.624 346.92 246.73 346.467 246.73 345.92H247.11L247.21 348.36H246.81C246.584 348.933 246.19 349.387 245.63 349.72C245.084 350.04 244.384 350.2 243.53 350.2ZM248.89 350H246.89V347.64L246.73 347.38V336.6H248.89V350ZM258.945 350C257.851 350 257.011 349.767 256.425 349.3C255.851 348.833 255.565 348.047 255.565 346.94V340.28L256.065 337.6H257.725V346.84C257.725 347.36 257.851 347.693 258.105 347.84C258.371 347.973 258.845 348.04 259.525 348.04H260.725V349.82C260.525 349.873 260.265 349.92 259.945 349.96C259.625 349.987 259.291 350 258.945 350ZM260.725 341.86H253.905V340.06H260.725V341.86ZM266.395 350.2C265.382 350.2 264.502 349.987 263.755 349.56C263.009 349.12 262.435 348.513 262.035 347.74C261.635 346.953 261.435 346.047 261.435 345.02C261.435 343.993 261.635 343.093 262.035 342.32C262.435 341.547 263.009 340.947 263.755 340.52C264.502 340.08 265.382 339.86 266.395 339.86C267.409 339.86 268.275 340.08 268.995 340.52C269.729 340.947 270.289 341.547 270.675 342.32C271.075 343.093 271.275 343.993 271.275 345.02C271.275 346.047 271.075 346.953 270.675 347.74C270.289 348.513 269.729 349.12 268.995 349.56C268.275 349.987 267.409 350.2 266.395 350.2ZM266.395 348.28C267.435 348.28 268.162 348.02 268.575 347.5C268.989 346.967 269.195 346.14 269.195 345.02C269.195 343.9 268.989 343.08 268.575 342.56C268.162 342.04 267.435 341.78 266.395 341.78C265.342 341.78 264.609 342.04 264.195 342.56C263.782 343.08 263.575 343.9 263.575 345.02C263.575 346.14 263.782 346.967 264.195 347.5C264.609 348.02 265.342 348.28 266.395 348.28ZM280.937 350.2C279.484 350.2 278.384 349.913 277.637 349.34C276.891 348.753 276.517 347.853 276.517 346.64V346.6H278.597V346.96C278.597 347.307 278.664 347.593 278.797 347.82C278.944 348.033 279.184 348.193 279.517 348.3C279.864 348.393 280.351 348.44 280.977 348.44C281.511 348.44 281.911 348.4 282.177 348.32C282.457 348.227 282.644 348.1 282.737 347.94C282.831 347.78 282.877 347.58 282.877 347.34C282.877 346.94 282.737 346.66 282.457 346.5C282.177 346.327 281.677 346.173 280.957 346.04L279.397 345.78C278.811 345.66 278.297 345.493 277.857 345.28C277.431 345.053 277.097 344.747 276.857 344.36C276.631 343.96 276.517 343.46 276.517 342.86C276.517 341.967 276.871 341.247 277.577 340.7C278.284 340.14 279.284 339.86 280.577 339.86C281.364 339.86 282.064 339.987 282.677 340.24C283.291 340.493 283.777 340.873 284.137 341.38C284.497 341.887 284.677 342.52 284.677 343.28V343.46H282.617V343.22C282.617 342.9 282.564 342.627 282.457 342.4C282.351 342.16 282.151 341.973 281.857 341.84C281.564 341.707 281.117 341.64 280.517 341.64C279.731 341.64 279.211 341.74 278.957 341.94C278.704 342.14 278.577 342.433 278.577 342.82C278.577 343.207 278.691 343.48 278.917 343.64C279.157 343.787 279.624 343.933 280.317 344.08L282.017 344.4C282.657 344.52 283.191 344.7 283.617 344.94C284.044 345.18 284.364 345.493 284.577 345.88C284.804 346.267 284.917 346.727 284.917 347.26C284.917 348.193 284.564 348.92 283.857 349.44C283.164 349.947 282.191 350.2 280.937 350.2ZM291.08 350.2C290 350.2 289.1 349.987 288.38 349.56C287.66 349.12 287.126 348.513 286.78 347.74C286.433 346.953 286.26 346.047 286.26 345.02C286.26 343.993 286.453 343.093 286.84 342.32C287.24 341.547 287.8 340.947 288.52 340.52C289.24 340.08 290.093 339.86 291.08 339.86C291.973 339.86 292.76 340.033 293.44 340.38C294.133 340.713 294.666 341.2 295.04 341.84C295.426 342.48 295.62 343.253 295.62 344.16C295.62 344.427 295.606 344.687 295.58 344.94C295.566 345.18 295.546 345.38 295.52 345.54H287.28V344.1H293.76L293.54 344.3C293.593 343.687 293.526 343.187 293.34 342.8C293.166 342.413 292.88 342.127 292.48 341.94C292.093 341.753 291.606 341.66 291.02 341.66C289.966 341.66 289.246 341.927 288.86 342.46C288.473 342.98 288.28 343.7 288.28 344.62V345.22C288.28 345.887 288.36 346.453 288.52 346.92C288.693 347.373 288.986 347.713 289.4 347.94C289.813 348.167 290.38 348.28 291.1 348.28C291.94 348.28 292.533 348.147 292.88 347.88C293.226 347.613 293.4 347.26 293.4 346.82V346.66H295.54V346.84C295.54 347.52 295.353 348.113 294.98 348.62C294.606 349.113 294.086 349.5 293.42 349.78C292.766 350.06 291.986 350.2 291.08 350.2ZM301.901 350.22C300.861 350.22 299.981 350 299.261 349.56C298.541 349.12 297.988 348.513 297.601 347.74C297.228 346.967 297.041 346.067 297.041 345.04C297.041 344.013 297.234 343.113 297.621 342.34C298.021 341.553 298.588 340.947 299.321 340.52C300.054 340.08 300.941 339.86 301.981 339.86C302.861 339.86 303.634 340.027 304.301 340.36C304.968 340.693 305.481 341.16 305.841 341.76C306.214 342.36 306.401 343.06 306.401 343.86V344.04H304.261V343.92C304.261 343.187 304.061 342.653 303.661 342.32C303.274 341.973 302.668 341.8 301.841 341.8C300.881 341.8 300.194 342.073 299.781 342.62C299.381 343.153 299.181 343.953 299.181 345.02C299.181 346.1 299.381 346.913 299.781 347.46C300.194 347.993 300.881 348.26 301.841 348.26C302.668 348.26 303.274 348.093 303.661 347.76C304.061 347.413 304.261 346.88 304.261 346.16V346.04H306.401V346.22C306.401 346.993 306.214 347.687 305.841 348.3C305.468 348.9 304.941 349.373 304.261 349.72C303.594 350.053 302.808 350.22 301.901 350.22ZM311.727 350.2C310.873 350.2 310.167 350.027 309.607 349.68C309.047 349.32 308.633 348.84 308.367 348.24C308.1 347.627 307.967 346.947 307.967 346.2V340.06H310.127V345.8C310.127 346.693 310.313 347.34 310.687 347.74C311.06 348.14 311.673 348.34 312.527 348.34C313.087 348.34 313.56 348.253 313.947 348.08C314.333 347.893 314.627 347.607 314.827 347.22C315.027 346.82 315.127 346.3 315.127 345.66H315.687V348.02H315.207C315.06 348.393 314.833 348.747 314.527 349.08C314.233 349.413 313.853 349.687 313.387 349.9C312.933 350.1 312.38 350.2 311.727 350.2ZM317.287 350H315.287V347.02L315.127 346.92V340.06H317.287V350ZM321.574 350H319.414V340H321.394V342.78L321.574 342.88V350ZM321.574 343.52H321.074V341.58H321.494C321.694 341.113 322.02 340.713 322.474 340.38C322.94 340.033 323.54 339.86 324.274 339.86C324.98 339.86 325.54 340.013 325.954 340.32C326.38 340.627 326.687 341.033 326.874 341.54C327.06 342.047 327.154 342.613 327.154 343.24V343.9H324.994V343.5C324.994 342.833 324.88 342.367 324.654 342.1C324.427 341.833 324 341.7 323.374 341.7C322.72 341.7 322.254 341.84 321.974 342.12C321.707 342.387 321.574 342.853 321.574 343.52ZM332.955 350.2C331.875 350.2 330.975 349.987 330.255 349.56C329.535 349.12 329.001 348.513 328.655 347.74C328.308 346.953 328.135 346.047 328.135 345.02C328.135 343.993 328.328 343.093 328.715 342.32C329.115 341.547 329.675 340.947 330.395 340.52C331.115 340.08 331.968 339.86 332.955 339.86C333.848 339.86 334.635 340.033 335.315 340.38C336.008 340.713 336.541 341.2 336.915 341.84C337.301 342.48 337.495 343.253 337.495 344.16C337.495 344.427 337.481 344.687 337.455 344.94C337.441 345.18 337.421 345.38 337.395 345.54H329.155V344.1H335.635L335.415 344.3C335.468 343.687 335.401 343.187 335.215 342.8C335.041 342.413 334.755 342.127 334.355 341.94C333.968 341.753 333.481 341.66 332.895 341.66C331.841 341.66 331.121 341.927 330.735 342.46C330.348 342.98 330.155 343.7 330.155 344.62V345.22C330.155 345.887 330.235 346.453 330.395 346.92C330.568 347.373 330.861 347.713 331.275 347.94C331.688 348.167 332.255 348.28 332.975 348.28C333.815 348.28 334.408 348.147 334.755 347.88C335.101 347.613 335.275 347.26 335.275 346.82V346.66H337.415V346.84C337.415 347.52 337.228 348.113 336.855 348.62C336.481 349.113 335.961 349.5 335.295 349.78C334.641 350.06 333.861 350.2 332.955 350.2ZM344.785 353.4C344.519 353.4 344.245 353.38 343.965 353.34C343.685 353.313 343.459 353.273 343.285 353.22V351.46H344.665C345.079 351.46 345.385 351.4 345.585 351.28C345.785 351.173 345.972 350.94 346.145 350.58L346.765 349.18L346.585 349.88L342.285 340.06H344.665L346.665 344.88L347.565 347.04H347.745L348.545 344.88L350.365 340.06H352.765L348.045 351.16C347.805 351.76 347.532 352.22 347.225 352.54C346.919 352.86 346.565 353.08 346.165 353.2C345.779 353.333 345.319 353.4 344.785 353.4ZM357.958 350.2C356.945 350.2 356.065 349.987 355.318 349.56C354.571 349.12 353.998 348.513 353.598 347.74C353.198 346.953 352.998 346.047 352.998 345.02C352.998 343.993 353.198 343.093 353.598 342.32C353.998 341.547 354.571 340.947 355.318 340.52C356.065 340.08 356.945 339.86 357.958 339.86C358.971 339.86 359.838 340.08 360.558 340.52C361.291 340.947 361.851 341.547 362.238 342.32C362.638 343.093 362.838 343.993 362.838 345.02C362.838 346.047 362.638 346.953 362.238 347.74C361.851 348.513 361.291 349.12 360.558 349.56C359.838 349.987 358.971 350.2 357.958 350.2ZM357.958 348.28C358.998 348.28 359.725 348.02 360.138 347.5C360.551 346.967 360.758 346.14 360.758 345.02C360.758 343.9 360.551 343.08 360.138 342.56C359.725 342.04 358.998 341.78 357.958 341.78C356.905 341.78 356.171 342.04 355.758 342.56C355.345 343.08 355.138 343.9 355.138 345.02C355.138 346.14 355.345 346.967 355.758 347.5C356.171 348.02 356.905 348.28 357.958 348.28ZM368.153 350.2C367.299 350.2 366.593 350.027 366.033 349.68C365.473 349.32 365.059 348.84 364.793 348.24C364.526 347.627 364.393 346.947 364.393 346.2V340.06H366.553V345.8C366.553 346.693 366.739 347.34 367.113 347.74C367.486 348.14 368.099 348.34 368.953 348.34C369.513 348.34 369.986 348.253 370.373 348.08C370.759 347.893 371.053 347.607 371.253 347.22C371.453 346.82 371.553 346.3 371.553 345.66H372.113V348.02H371.633C371.486 348.393 371.259 348.747 370.953 349.08C370.659 349.413 370.279 349.687 369.813 349.9C369.359 350.1 368.806 350.2 368.153 350.2ZM373.713 350H371.713V347.02L371.553 346.92V340.06H373.713V350ZM377.999 350H375.839V340H377.819V342.78L377.999 342.88V350ZM377.999 343.52H377.499V341.58H377.919C378.119 341.113 378.446 340.713 378.899 340.38C379.366 340.033 379.966 339.86 380.699 339.86C381.406 339.86 381.966 340.013 382.379 340.32C382.806 340.627 383.113 341.033 383.299 341.54C383.486 342.047 383.579 342.613 383.579 343.24V343.9H381.419V343.5C381.419 342.833 381.306 342.367 381.079 342.1C380.853 341.833 380.426 341.7 379.799 341.7C379.146 341.7 378.679 341.84 378.399 342.12C378.133 342.387 377.999 342.853 377.999 343.52ZM171.71 375H169.71V373.04L169.65 372.5V368.68C169.65 367.933 169.47 367.427 169.11 367.16C168.764 366.893 168.197 366.76 167.41 366.76C166.624 366.76 166.057 366.9 165.71 367.18C165.377 367.46 165.21 367.927 165.21 368.58V368.88H163.13V368.68C163.13 367.933 163.31 367.273 163.67 366.7C164.044 366.127 164.557 365.68 165.21 365.36C165.877 365.027 166.65 364.86 167.53 364.86C168.464 364.86 169.237 365.033 169.85 365.38C170.464 365.727 170.924 366.207 171.23 366.82C171.55 367.42 171.71 368.133 171.71 368.96V375ZM166.01 375.2C165.117 375.2 164.364 374.973 163.75 374.52C163.15 374.053 162.85 373.393 162.85 372.54C162.85 371.98 162.977 371.513 163.23 371.14C163.497 370.767 163.877 370.46 164.37 370.22C164.864 369.98 165.464 369.813 166.17 369.72L169.85 369.2V370.72L166.49 371.22C165.917 371.3 165.517 371.42 165.29 371.58C165.064 371.74 164.95 372.007 164.95 372.38C164.95 372.767 165.084 373.047 165.35 373.22C165.63 373.393 166.084 373.48 166.71 373.48C167.19 373.48 167.65 373.407 168.09 373.26C168.544 373.1 168.917 372.84 169.21 372.48C169.504 372.107 169.65 371.587 169.65 370.92L169.93 373.46L169.61 373.44C169.424 373.747 169.164 374.033 168.83 374.3C168.51 374.567 168.117 374.787 167.65 374.96C167.184 375.12 166.637 375.2 166.01 375.2ZM178.2 375.22C177.16 375.22 176.28 375 175.56 374.56C174.84 374.12 174.286 373.513 173.9 372.74C173.526 371.967 173.34 371.067 173.34 370.04C173.34 369.013 173.533 368.113 173.92 367.34C174.32 366.553 174.886 365.947 175.62 365.52C176.353 365.08 177.24 364.86 178.28 364.86C179.16 364.86 179.933 365.027 180.6 365.36C181.266 365.693 181.78 366.16 182.14 366.76C182.513 367.36 182.7 368.06 182.7 368.86V369.04H180.56V368.92C180.56 368.187 180.36 367.653 179.96 367.32C179.573 366.973 178.966 366.8 178.14 366.8C177.18 366.8 176.493 367.073 176.08 367.62C175.68 368.153 175.48 368.953 175.48 370.02C175.48 371.1 175.68 371.913 176.08 372.46C176.493 372.993 177.18 373.26 178.14 373.26C178.966 373.26 179.573 373.093 179.96 372.76C180.36 372.413 180.56 371.88 180.56 371.16V371.04H182.7V371.22C182.7 371.993 182.513 372.687 182.14 373.3C181.766 373.9 181.24 374.373 180.56 374.72C179.893 375.053 179.106 375.22 178.2 375.22ZM188.883 375.22C187.843 375.22 186.963 375 186.243 374.56C185.523 374.12 184.97 373.513 184.583 372.74C184.21 371.967 184.023 371.067 184.023 370.04C184.023 369.013 184.217 368.113 184.603 367.34C185.003 366.553 185.57 365.947 186.303 365.52C187.037 365.08 187.923 364.86 188.963 364.86C189.843 364.86 190.617 365.027 191.283 365.36C191.95 365.693 192.463 366.16 192.823 366.76C193.197 367.36 193.383 368.06 193.383 368.86V369.04H191.243V368.92C191.243 368.187 191.043 367.653 190.643 367.32C190.257 366.973 189.65 366.8 188.823 366.8C187.863 366.8 187.177 367.073 186.763 367.62C186.363 368.153 186.163 368.953 186.163 370.02C186.163 371.1 186.363 371.913 186.763 372.46C187.177 372.993 187.863 373.26 188.823 373.26C189.65 373.26 190.257 373.093 190.643 372.76C191.043 372.413 191.243 371.88 191.243 371.16V371.04H193.383V371.22C193.383 371.993 193.197 372.687 192.823 373.3C192.45 373.9 191.923 374.373 191.243 374.72C190.577 375.053 189.79 375.22 188.883 375.22ZM199.667 375.2C198.654 375.2 197.774 374.987 197.027 374.56C196.28 374.12 195.707 373.513 195.307 372.74C194.907 371.953 194.707 371.047 194.707 370.02C194.707 368.993 194.907 368.093 195.307 367.32C195.707 366.547 196.28 365.947 197.027 365.52C197.774 365.08 198.654 364.86 199.667 364.86C200.68 364.86 201.547 365.08 202.267 365.52C203 365.947 203.56 366.547 203.947 367.32C204.347 368.093 204.547 368.993 204.547 370.02C204.547 371.047 204.347 371.953 203.947 372.74C203.56 373.513 203 374.12 202.267 374.56C201.547 374.987 200.68 375.2 199.667 375.2ZM199.667 373.28C200.707 373.28 201.434 373.02 201.847 372.5C202.26 371.967 202.467 371.14 202.467 370.02C202.467 368.9 202.26 368.08 201.847 367.56C201.434 367.04 200.707 366.78 199.667 366.78C198.614 366.78 197.88 367.04 197.467 367.56C197.054 368.08 196.847 368.9 196.847 370.02C196.847 371.14 197.054 371.967 197.467 372.5C197.88 373.02 198.614 373.28 199.667 373.28ZM209.862 375.2C209.008 375.2 208.302 375.027 207.742 374.68C207.182 374.32 206.768 373.84 206.502 373.24C206.235 372.627 206.102 371.947 206.102 371.2V365.06H208.262V370.8C208.262 371.693 208.448 372.34 208.822 372.74C209.195 373.14 209.808 373.34 210.662 373.34C211.222 373.34 211.695 373.253 212.082 373.08C212.468 372.893 212.762 372.607 212.962 372.22C213.162 371.82 213.262 371.3 213.262 370.66H213.822V373.02H213.342C213.195 373.393 212.968 373.747 212.662 374.08C212.368 374.413 211.988 374.687 211.522 374.9C211.068 375.1 210.515 375.2 209.862 375.2ZM215.422 375H213.422V372.02L213.262 371.92V365.06H215.422V375ZM226.808 375H224.648V369.22C224.648 368.34 224.482 367.707 224.148 367.32C223.815 366.92 223.188 366.72 222.268 366.72C221.682 366.72 221.202 366.807 220.828 366.98C220.455 367.14 220.175 367.407 219.988 367.78C219.802 368.14 219.708 368.633 219.708 369.26H219.328L219.148 366.92H219.628C219.775 366.56 219.995 366.227 220.288 365.92C220.582 365.613 220.955 365.36 221.408 365.16C221.875 364.96 222.428 364.86 223.068 364.86C223.935 364.86 224.642 365.027 225.188 365.36C225.735 365.693 226.142 366.153 226.408 366.74C226.675 367.327 226.808 368 226.808 368.76V375ZM219.708 375H217.548V365.06H219.528V368.04L219.708 368.14V375ZM232.919 375C231.826 375 230.986 374.767 230.399 374.3C229.826 373.833 229.539 373.047 229.539 371.94V365.28L230.039 362.6H231.699V371.84C231.699 372.36 231.826 372.693 232.079 372.84C232.346 372.973 232.819 373.04 233.499 373.04H234.699V374.82C234.499 374.873 234.239 374.92 233.919 374.96C233.599 374.987 233.266 375 232.919 375ZM234.699 366.86H227.879V365.06H234.699V366.86ZM238.501 370.6H236.401C236.401 370.2 236.387 369.74 236.361 369.22C236.347 368.687 236.321 368.127 236.281 367.54C236.254 366.94 236.227 366.353 236.201 365.78C236.174 365.193 236.147 364.66 236.121 364.18C236.094 363.7 236.081 363.307 236.081 363V361.6H238.821V363C238.821 363.307 238.807 363.7 238.781 364.18C238.767 364.66 238.741 365.193 238.701 365.78C238.674 366.353 238.647 366.94 238.621 367.54C238.594 368.14 238.567 368.707 238.541 369.24C238.514 369.76 238.501 370.213 238.501 370.6ZM238.681 375H236.241V372.04H238.681V375Z" fill="white"/>
</svg>
