<svg width="402" height="429" viewBox="0 0 402 429" fill="none" xmlns="http://www.w3.org/2000/svg">
<path opacity="0.3" d="M313.763 315.369C307.69 321.685 301.944 325.758 297.404 328.976C244.037 366.803 180.89 355.776 167.47 353.084C147.652 349.107 109.345 341.421 81.6491 309.246C39.7481 260.568 46.2727 183.877 78.7739 133.253C84.7189 123.993 116.122 72.597 179.949 64.3547C218.576 59.3666 263.603 69.427 296.211 96.4146C364.656 153.064 359.784 267.506 313.763 315.369Z" fill="#636D71"/>
<path opacity="0.81" d="M202.291 344.584C202.291 344.584 260.566 197.368 347.137 181.287C348.673 181.001 350.072 182.229 349.997 183.79C349.122 201.949 338.033 298.054 202.291 344.584Z" fill="#626671"/>
<path opacity="0.62" d="M331.584 205.164C327.164 211.472 322.532 217.615 317.836 223.712C316.663 225.237 315.465 226.741 314.281 228.257C313.087 229.766 311.919 231.295 310.704 232.787L307.074 237.273C305.859 238.763 304.669 240.276 303.423 241.742C300.95 244.689 298.5 247.656 296.007 250.586L288.45 259.311C283.323 265.049 278.2 270.792 272.915 276.387L268.983 280.613C267.687 282.036 266.314 283.385 264.984 284.775L256.957 293.075L248.723 301.172C247.348 302.519 245.985 303.88 244.583 305.198L240.336 309.111C237.499 311.714 234.691 314.35 231.806 316.899L223.034 324.414L220.832 326.281C220.091 326.896 219.372 327.536 218.614 328.13L214.083 331.711C212.577 332.91 211.05 334.082 209.534 335.268C208.017 336.452 206.498 337.633 204.971 338.802C204.854 338.892 204.686 338.869 204.597 338.752C204.511 338.64 204.528 338.48 204.634 338.389L204.642 338.382C206.101 337.129 207.57 335.889 209.041 334.651C210.512 333.415 211.973 332.166 213.454 330.943L217.885 327.259C219.346 326.011 220.762 324.711 222.211 323.451L230.888 315.867L239.386 308.084L243.638 304.196C244.349 303.549 245.026 302.867 245.722 302.206L247.807 300.217L256.144 292.257C261.567 286.813 267.08 281.453 272.316 275.823C274.961 273.034 277.637 270.274 280.192 267.401C282.768 264.548 285.368 261.717 287.925 258.847L295.508 250.159C298.01 247.241 300.469 244.286 302.952 241.351C304.202 239.891 305.397 238.385 306.617 236.899L310.261 232.431C311.481 230.945 312.653 229.422 313.852 227.919C315.041 226.409 316.244 224.91 317.422 223.39C322.113 217.302 326.739 211.154 331.144 204.862L331.147 204.858C331.232 204.737 331.398 204.708 331.519 204.793C331.639 204.877 331.669 205.043 331.584 205.164Z" fill="white"/>
<g opacity="0.79">
<path d="M188.169 260.155C188.169 260.155 216.498 130.156 302.019 62.767C303.134 61.8883 304.785 62.4441 305.125 63.8223C310.505 85.5906 338.513 224.434 188.169 260.155Z" fill="#697276"/>
<path opacity="0.62" d="M292.94 100.269C291.958 104.04 290.815 107.755 289.61 111.454C288.402 115.15 287.133 118.828 285.784 122.476C283.079 129.77 280.134 136.975 276.959 144.079C276.172 145.858 275.341 147.618 274.534 149.388C273.723 151.156 272.846 152.893 272.004 154.647C271.169 156.405 270.266 158.129 269.389 159.865L268.063 162.465L266.691 165.041C263.035 171.911 259.184 178.682 255.034 185.27C250.871 191.847 246.544 198.328 241.877 204.561C241.299 205.344 240.732 206.135 240.145 206.912L238.354 209.218L236.564 211.525C235.963 212.29 235.381 213.07 234.752 213.814L231.033 218.316L230.099 219.439L229.132 220.532L227.198 222.72C216.933 234.431 205.444 245.062 193.022 254.421C192.92 254.498 192.774 254.478 192.697 254.375C192.622 254.275 192.639 254.134 192.735 254.056L192.741 254.052L197.251 250.373L199.509 248.54L201.695 246.62L206.061 242.778L210.282 238.778C210.981 238.106 211.7 237.457 212.389 236.774L214.433 234.707C215.789 233.322 217.173 231.966 218.506 230.559C221.125 227.701 223.805 224.901 226.298 221.932L228.199 219.733L229.15 218.634L230.067 217.506L233.744 213.005C234.367 212.263 234.944 211.484 235.539 210.72L237.313 208.417L239.087 206.115C239.668 205.34 240.23 204.55 240.802 203.769C245.425 197.547 249.709 191.079 253.829 184.516C257.972 177.964 261.844 171.241 265.508 164.409L266.885 161.848L268.216 159.263C269.095 157.536 270.002 155.822 270.84 154.074C272.562 150.599 274.223 147.096 275.859 143.58C279.105 136.536 282.121 129.385 284.905 122.144C286.318 118.531 287.652 114.888 288.926 111.224C289.565 109.392 290.181 107.552 290.776 105.706C291.38 103.864 291.957 102.009 292.491 100.15L292.492 100.146C292.528 100.023 292.656 99.9511 292.78 99.9867C292.901 100.022 292.972 100.148 292.94 100.269Z" fill="white"/>
</g>
<g opacity="0.76">
<path d="M143.727 253.176C143.727 253.176 132.679 137.856 65.7114 70.7502C64.8384 69.8753 63.354 70.1851 62.917 71.3414C56.0149 89.6048 17.4408 206.746 143.727 253.176Z" fill="#697276"/>
<path opacity="0.62" d="M70.1121 104.053C71.2554 110.702 72.7341 117.305 74.4249 123.842C76.089 130.387 77.962 136.878 80.045 143.3C81.0986 146.508 82.1741 149.707 83.3027 152.887C83.8474 154.485 84.454 156.06 85.0363 157.644L85.9198 160.015L86.8458 162.371C89.3081 168.654 91.9617 174.864 94.8652 180.954C97.7464 187.053 100.778 193.087 104.129 198.943C104.543 199.678 104.946 200.419 105.368 201.149L106.663 203.322L107.957 205.496C108.392 206.218 108.81 206.951 109.272 207.657L111.983 211.928L112.658 212.998L113.364 214.047L114.778 216.145C116.624 218.97 118.649 221.669 120.615 224.412C121.619 225.766 122.675 227.083 123.702 228.421L125.254 230.42C125.777 231.081 126.332 231.717 126.865 232.371L130.095 236.269L133.466 240.046L135.154 241.934L136.914 243.754L140.426 247.407L140.43 247.412C140.519 247.504 140.516 247.651 140.424 247.74C140.334 247.826 140.192 247.826 140.102 247.74C130.311 238.381 121.465 228.005 113.792 216.821L112.343 214.73L111.619 213.685L110.927 212.618L108.175 208.34C107.707 207.633 107.284 206.898 106.844 206.173L105.533 203.994L104.223 201.814C103.795 201.082 103.387 200.339 102.968 199.602C99.5742 193.73 96.5013 187.678 93.5795 181.56C90.6725 175.433 88.0448 169.178 85.5958 162.858L84.676 160.488L83.799 158.103C83.221 156.51 82.6189 154.925 82.0789 153.319C81.5332 151.715 80.955 150.121 80.4362 148.508C79.9229 146.893 79.3881 145.286 78.8928 143.665C74.9116 130.714 71.6038 117.538 69.6519 104.117C69.6334 103.99 69.7214 103.872 69.8482 103.854C69.973 103.836 70.0891 103.921 70.1105 104.044L70.1121 104.053Z" fill="white"/>
</g>
<path d="M84.3407 77.6098C83.3818 122.864 80.2717 278.962 81.7563 334.278C81.9136 340.138 85.9293 344.842 90.9386 345.034C115.714 345.982 206.54 348.386 247.064 346.397C255.504 345.983 262.217 337.985 262.392 328.104C263.234 280.604 265.092 147.005 260.676 85.8034C260.147 78.4707 255.227 72.6311 248.968 71.8985C221.986 68.7408 130.77 61.0222 95.7593 63.6802C89.4453 64.1595 84.4976 70.2099 84.3407 77.6098Z" fill="#B5B9D3"/>
<path d="M95.396 91.4938C94.0624 128.021 89.856 249.536 91.191 294.47C91.3863 301.038 95.8109 306.348 101.419 306.732C124.508 308.313 203.284 311.798 237.151 308.626C243.249 308.055 248.034 302.285 248.363 295.138C250.08 257.874 255.007 144.725 253.728 100.295C253.523 93.2072 248.83 87.4186 242.792 86.7845C217.813 84.1607 134.105 77.9179 105.326 79.7548C99.9238 80.0998 95.6268 85.1702 95.396 91.4938Z" fill="#494C4D"/>
<path opacity="0.61" d="M157.332 72.6555C157.332 74.0441 158.257 75.1894 159.442 75.2619C165.294 75.6204 181.779 76.6348 189.146 77.1348C190.599 77.2336 191.739 75.7061 191.463 74.0347L191.416 73.7494C191.228 72.609 190.42 71.7506 189.431 71.6447C184.451 71.1108 169.425 69.6306 159.469 70.0463C158.273 70.0963 157.332 71.2555 157.332 72.6555Z" fill="#F2935C"/>
<path d="M168.846 168.103C187.931 168.103 203.403 152.631 203.403 133.546C203.403 114.46 187.931 98.9883 168.846 98.9883C149.76 98.9883 134.288 114.46 134.288 133.546C134.288 152.631 149.76 168.103 168.846 168.103Z" fill="white" fill-opacity="0.18"/>
<path d="M179.426 120.487C179.426 126.339 174.683 132.656 168.831 132.656C162.98 132.656 158.236 126.339 158.236 120.487C158.236 114.636 162.98 110.484 168.831 110.484C174.683 110.484 179.426 114.636 179.426 120.487Z" fill="white"/>
<path d="M155.682 155.184H181.546C184.269 155.184 186.679 153.425 187.509 150.832L188.901 146.482C189.92 143.297 188.263 139.848 185.122 138.7C174.596 134.851 163.712 135.345 152.563 139.055C149.44 140.094 147.706 143.435 148.568 146.612L149.64 150.563C150.38 153.291 152.856 155.184 155.682 155.184Z" fill="white"/>
<g opacity="0.71">
<path opacity="0.65" d="M235.108 223.293H109.022C108.627 223.293 108.307 222.972 108.307 222.577V204.391C108.307 203.995 108.627 203.675 109.022 203.675H235.108C235.503 203.675 235.824 203.995 235.824 204.391V222.577C235.824 222.972 235.503 223.293 235.108 223.293Z" fill="white"/>
<path opacity="0.65" d="M234.42 255.302H108.334C107.939 255.302 107.618 254.981 107.618 254.586V236.399C107.618 236.004 107.939 235.684 108.334 235.684H234.42C234.815 235.684 235.135 236.004 235.135 236.399V254.586C235.135 254.981 234.815 255.302 234.42 255.302Z" fill="white"/>
<path opacity="0.65" d="M209.79 293.477H129.18C128.692 293.477 128.297 293.082 128.297 292.594V269.349C128.297 268.861 128.692 268.466 129.18 268.466H209.79C210.278 268.466 210.674 268.861 210.674 269.349V292.594C210.674 293.082 210.278 293.477 209.79 293.477Z" fill="white"/>
</g>
<path opacity="0.75" d="M188.635 219.019H115.227C114.525 219.019 113.955 218.449 113.955 217.746V209.391C113.955 208.689 114.525 208.119 115.227 208.119H188.635C189.337 208.119 189.907 208.689 189.907 209.391V217.746C189.907 218.449 189.337 219.019 188.635 219.019Z" fill="white"/>
<g opacity="0.75">
<path d="M118.312 249.082C120.595 248.136 121.679 245.519 120.733 243.236C119.788 240.952 117.17 239.868 114.887 240.814C112.604 241.76 111.52 244.377 112.465 246.66C113.411 248.943 116.029 250.028 118.312 249.082Z" fill="white"/>
<path d="M130.59 249.311C132.873 248.366 133.957 245.748 133.012 243.465C132.066 241.182 129.448 240.098 127.165 241.043C124.882 241.989 123.798 244.607 124.744 246.89C125.689 249.173 128.307 250.257 130.59 249.311Z" fill="white"/>
<path d="M142.405 249.885C144.689 248.939 145.773 246.321 144.827 244.038C143.881 241.755 141.264 240.671 138.981 241.617C136.698 242.562 135.613 245.18 136.559 247.463C137.505 249.746 140.122 250.83 142.405 249.885Z" fill="white"/>
<path d="M156.126 249.141C157.873 247.394 157.873 244.561 156.126 242.814C154.378 241.066 151.545 241.066 149.798 242.814C148.05 244.561 148.05 247.394 149.798 249.141C151.545 250.889 154.378 250.889 156.126 249.141Z" fill="white"/>
<path d="M169.59 246.91C170.158 244.505 168.669 242.095 166.264 241.527C163.859 240.959 161.449 242.448 160.881 244.853C160.313 247.258 161.802 249.668 164.207 250.236C166.612 250.804 169.022 249.315 169.59 246.91Z" fill="white"/>
<path d="M181.939 246.811C182.335 244.371 180.678 242.073 178.239 241.677C175.8 241.281 173.501 242.938 173.105 245.377C172.71 247.816 174.366 250.115 176.805 250.511C179.245 250.907 181.543 249.25 181.939 246.811Z" fill="white"/>
</g>
<path d="M228.612 260.7L242.32 264.127L238.893 289.83C238.893 289.83 244.034 294.97 245.747 301.824C247.461 308.678 249.041 337.457 249.041 337.457L252.293 339.423L252.689 341.065L243.226 353.789L244.795 343.662C245.044 342.054 244.613 338.794 244.749 338.726C239.608 325.018 228.612 286.403 228.612 286.403V260.7Z" fill="#FEF6F2"/>
<path d="M224.607 341.24C224.756 341.238 224.901 341.249 225.051 341.24C224.388 332.976 221.361 296.606 218.332 282.974C214.905 267.553 223.472 236.71 223.472 236.71L238.894 252.131L230.326 281.261C236.197 290.068 229.368 341.643 229.515 341.62L229.506 341.735L231.742 344.809L231.47 346.475L217.813 354.534L223.187 345.808C224.04 344.423 224.511 342.853 224.607 341.24Z" fill="#FEF6F2"/>
<path d="M241.953 168.314C241.953 168.314 271.979 202.155 241.953 219.506L238.894 217.291C238.894 217.291 253.8 203.017 238.894 185.543L241.953 168.314Z" fill="#FEF6F2"/>
<path d="M216.914 355.799H221.272C222.088 355.799 222.857 355.424 223.355 354.778C224.714 353.012 227.528 349.568 228.874 349.478C230.686 349.357 230.455 355.799 230.455 355.799H231.47L232.757 347.794C233.08 345.78 232.079 343.785 230.27 342.842C230.27 342.842 229.856 345.905 227.61 347.26C225.365 348.615 218.471 353.467 218.471 353.467C218.471 353.467 217.627 353.347 216.7 353.514C215.325 353.762 215.517 355.799 216.914 355.799Z" fill="#F2935C"/>
<path d="M242.887 355.302L246.904 353.612C247.656 353.296 248.22 352.652 248.428 351.863C248.996 349.709 250.255 345.443 251.46 344.838C253.084 344.024 255.368 350.051 255.368 350.051L256.304 349.658L254.386 341.781C253.904 339.799 252.207 338.348 250.174 338.18C250.174 338.18 250.98 341.164 249.435 343.283C247.89 345.403 243.418 352.549 243.418 352.549C243.418 352.549 242.593 352.765 241.804 353.279C240.632 354.041 241.599 355.844 242.887 355.302Z" fill="#F2935C"/>
<path d="M219.544 210.634C219.544 210.634 220.048 213.723 219.31 222.214C218.572 230.705 215.042 250.64 215.761 269.714C215.761 269.714 225.794 272.052 243.226 270.945C243.226 270.945 250.582 241.165 248.79 229.843C246.998 218.522 237.277 210.4 237.277 210.4L219.544 210.634Z" fill="black"/>
<path d="M226.958 153.896L225.731 168.315H237.382L234.485 146.305L226.958 153.896Z" fill="#FEF6F2"/>
<path d="M240.834 166.321C236.813 166.099 227.823 165.688 221.454 166.036C218.101 166.218 215.292 168.624 214.606 171.911L213.053 179.355C212.474 182.128 212.561 184.998 213.305 187.731L219.544 210.634C219.544 210.634 225.094 213.969 237.277 210.4C237.277 210.4 247.975 184.887 243.596 168.566C243.256 167.299 242.144 166.393 240.834 166.321Z" fill="#F2935C"/>
<path d="M214.911 170.576C213.195 175.097 211.645 179.837 209.98 184.277C209.133 186.499 208.274 188.677 207.355 190.677C206.891 191.673 206.38 192.589 205.912 193.419C205.443 194.241 204.914 194.924 204.639 195.239C204.585 195.285 204.766 195.321 204.826 195.324C204.863 195.328 203.666 195.52 203.299 195.582L201.865 195.573C199.809 195.467 197.481 195.105 195.146 194.651C190.435 193.773 185.538 192.54 180.509 191.607L180.47 191.6C179.508 191.421 178.583 192.056 178.405 193.019C178.287 193.653 178.526 194.273 178.976 194.672C181.004 196.457 183.153 197.923 185.383 199.35C186.505 200.037 187.647 200.709 188.807 201.355C189.991 201.958 191.177 202.566 192.41 203.128C194.892 204.21 197.455 205.206 200.409 205.846C201.185 205.976 201.951 206.112 202.75 206.219C203.645 206.25 204.459 206.329 205.437 206.273C205.957 206.221 206.479 206.157 206.999 206.082C207.277 206.033 207.481 206.027 207.817 205.935C208.174 205.828 208.53 205.708 208.881 205.576C209.614 205.313 210.088 204.994 210.684 204.663C211.179 204.337 211.63 203.996 212.067 203.646C213.682 202.271 214.685 200.906 215.568 199.595C216.45 198.286 217.148 196.974 217.775 195.688C219.033 193.12 220.015 190.576 220.812 188.014C222.427 182.879 223.521 177.833 223.983 172.473C224.204 169.905 222.302 167.645 219.734 167.424C217.609 167.241 215.695 168.512 214.972 170.411L214.911 170.576Z" fill="#FEF6F2"/>
<path d="M182.092 193.911L180.013 188.976L169.071 186.249C169.071 186.249 168.195 188.146 172.791 188.976C172.791 188.976 171.15 190.79 172.025 192.924C172.9 195.058 182.201 197.195 182.092 193.911Z" fill="#FEF6F2"/>
<path d="M222.026 137.243C221.61 137.488 218.332 149.049 221.079 153.896C223.825 158.743 232.213 153.314 234.486 146.305C236.759 139.296 233.107 130.708 222.026 137.243Z" fill="#FEF6F2"/>
<path d="M243.765 146.304C245.646 155.521 251.88 152.999 256.295 157.1C263.451 163.746 273.688 156.895 283.639 163.193C290.824 167.74 294.285 179.374 290.838 188.766C286.062 201.775 269.744 207.125 261.287 203.163C253.205 199.376 254.356 188.035 243.481 183.652C238.864 181.791 236.585 183 233.82 180.242C228.98 175.414 230.286 166.045 230.789 162.436C231.881 154.604 234.507 153.186 233.252 149.744C230.811 143.049 219.425 144.431 218.477 139.704C217.613 135.401 225.865 127.243 233.631 128.528C245.646 130.517 242.927 142.197 243.765 146.304Z" fill="#363740"/>
<path opacity="0.6" d="M287.248 186.563C287.391 186.563 287.519 186.467 287.554 186.322C289.093 179.936 288.395 174.698 285.479 170.755C280.64 164.21 271.236 163.562 271.141 163.556C270.993 163.532 270.819 163.677 270.808 163.851C270.798 164.025 270.929 164.174 271.103 164.184C271.195 164.19 280.315 164.823 284.976 171.132C287.774 174.919 288.435 179.98 286.942 186.175C286.902 186.344 287.006 186.514 287.175 186.555C287.199 186.56 287.224 186.563 287.248 186.563Z" fill="white"/>
<path opacity="0.72" d="M256.448 192.41C256.461 192.41 256.474 192.408 256.488 192.405C256.571 192.383 256.622 192.297 256.6 192.212C255.102 186.463 252.472 182.47 248.786 180.344C246.104 178.797 243.593 178.653 241.377 178.526C239.241 178.403 237.396 178.297 235.911 176.976C232.841 174.247 233.019 167.684 236.439 157.47C236.467 157.388 236.422 157.299 236.34 157.271C236.257 157.243 236.168 157.288 236.141 157.37C232.677 167.715 232.529 174.39 235.702 177.211C237.269 178.605 239.164 178.714 241.359 178.84C243.54 178.965 246.011 179.107 248.629 180.617C252.239 182.699 254.819 186.627 256.295 192.292C256.314 192.363 256.378 192.41 256.448 192.41Z" fill="white"/>
<path opacity="0.72" d="M239.314 144.017C239.331 144.017 239.347 144.015 239.365 144.009C239.447 143.982 239.491 143.892 239.463 143.809C238.272 140.266 234.84 140.792 231.204 141.351C228.902 141.705 226.523 142.07 224.505 141.472C222.999 141.026 222.104 140.334 221.845 139.415C221.404 137.852 222.951 136.108 222.966 136.09C223.024 136.026 223.019 135.926 222.954 135.869C222.89 135.81 222.79 135.816 222.733 135.88C222.664 135.956 221.055 137.768 221.542 139.5C221.832 140.529 222.798 141.294 224.415 141.773C226.502 142.392 228.916 142.021 231.252 141.662C234.902 141.102 238.058 140.616 239.165 143.91C239.187 143.976 239.248 144.017 239.314 144.017Z" fill="white"/>
<path d="M273.992 108.219C273.992 91.9968 287.734 78.8475 304.225 78.8496C320.228 78.8515 332.858 91.3084 332.858 106.673C332.858 122.037 320.228 135.158 304.225 136.001C287.734 136.869 273.992 124.442 273.992 108.219Z" fill="#F2935C"/>
<path d="M276.751 108.146C276.751 93.4434 289.205 81.5265 304.15 81.5283C318.654 81.5302 330.1 92.8196 330.1 106.744C330.1 120.668 318.654 132.559 304.15 133.323C289.205 134.11 276.751 122.848 276.751 108.146Z" fill="#F2935C"/>
<path d="M295.272 106.479H292.816V96.6933C292.816 92.8499 295.694 89.602 299.509 89.1383L304.529 88.5282C306.69 88.2655 308.864 88.9428 310.494 90.3863C312.123 91.8298 313.058 93.9062 313.058 96.0832V104.626H310.602V96.0832C310.602 94.6086 309.969 93.2021 308.866 92.2244C307.762 91.2467 306.289 90.7879 304.825 90.9658L299.805 91.5759C297.22 91.89 295.272 94.0899 295.272 96.6933V106.479H295.272Z" fill="white"/>
<path d="M292.09 104.282L313.615 103.089C314.489 103.041 315.225 103.737 315.225 104.612V121.664C315.225 122.507 314.542 123.19 313.699 123.19H292.692C291.869 123.19 291.194 122.537 291.167 121.714L290.65 105.855C290.623 105.026 291.263 104.328 292.09 104.282Z" fill="white"/>
<path d="M306.448 118.305L305.145 114.56C304.988 114.109 305.095 113.606 305.43 113.267C306.098 112.59 306.495 111.647 306.448 110.611C306.365 108.784 304.873 107.302 303.045 107.232C301.023 107.154 299.358 108.771 299.358 110.776C299.358 111.889 299.871 112.881 300.672 113.531C301.088 113.868 301.259 114.423 301.083 114.928L299.908 118.305C299.623 119.127 300.232 119.984 301.102 119.984H305.254C306.124 119.984 306.733 119.127 306.448 118.305Z" fill="#F2935C"/>
<g opacity="0.3">
<path d="M125.121 324.246C125.381 324.795 125.209 325.471 124.706 325.806C123.606 326.537 122.46 327.23 121.298 327.863C120.733 328.171 120.036 327.94 119.741 327.346C119.738 327.338 119.735 327.331 119.731 327.324C119.452 326.734 119.672 326.016 120.231 325.712C121.334 325.11 122.423 324.452 123.468 323.757C124.006 323.4 124.719 323.568 125.061 324.134C125.083 324.17 125.103 324.208 125.121 324.246ZM116.089 328.857C116.109 328.899 116.127 328.944 116.143 328.99C116.358 329.62 116.046 330.313 115.446 330.538C114.214 330.998 112.951 331.408 111.691 331.755C111.075 331.925 110.446 331.54 110.28 330.891C110.117 330.243 110.484 329.581 111.1 329.411C112.297 329.081 113.497 328.692 114.668 328.254C115.224 328.046 115.832 328.314 116.089 328.857ZM106.311 331.263C106.368 331.384 106.407 331.517 106.423 331.658C106.499 332.323 106.048 332.926 105.415 333.004C104.118 333.164 102.798 333.268 101.492 333.311C100.855 333.331 100.322 332.805 100.3 332.137C100.279 331.468 100.778 330.909 101.415 330.888C102.655 330.847 103.908 330.749 105.14 330.597C105.637 330.535 106.099 330.816 106.311 331.263ZM96.2581 331.31C96.3527 331.51 96.3959 331.74 96.3719 331.978C96.3046 332.643 95.7362 333.124 95.1027 333.051C93.8028 332.903 92.4935 332.694 91.2108 332.429C90.5858 332.3 90.177 331.663 90.2975 331.007C90.4187 330.35 91.0242 329.922 91.6499 330.051C92.8679 330.302 94.1116 330.501 95.3468 330.642C95.7536 330.688 96.0883 330.951 96.2581 331.31ZM86.4427 329.002C86.5754 329.282 86.6054 329.616 86.5013 329.934C86.2951 330.567 85.639 330.903 85.0363 330.685C83.8027 330.239 82.5695 329.73 81.372 329.174C80.7884 328.904 80.5231 328.188 80.7798 327.576C81.0363 326.964 81.7169 326.687 82.3005 326.958C83.4388 327.487 84.6108 327.97 85.7832 328.394C86.0824 328.502 86.3122 328.726 86.4427 329.002ZM77.3533 324.472C77.5251 324.835 77.5203 325.28 77.3031 325.649C76.9684 326.218 76.2578 326.393 75.7153 326.041C74.6039 325.318 73.5076 324.536 72.458 323.717C71.9457 323.317 71.8384 322.558 72.2179 322.021C72.597 321.484 73.3197 321.373 73.8317 321.773C74.8293 322.551 75.8704 323.294 76.9266 323.981C77.1169 324.104 77.2606 324.277 77.3533 324.472ZM56.0546 285.95C56.1258 286.1 56.1682 286.269 56.1742 286.447C56.2179 287.748 56.3163 289.065 56.4671 290.361C56.5443 291.026 56.0942 291.629 55.4619 291.708C54.8294 291.788 54.254 291.314 54.1767 290.649C54.018 289.285 53.914 287.897 53.8679 286.527C53.8454 285.858 54.3436 285.298 54.9804 285.276C55.4473 285.26 55.8592 285.537 56.0546 285.95ZM69.4461 317.946C69.6593 318.397 69.59 318.958 69.2356 319.335C68.7887 319.812 68.0582 319.816 67.6039 319.346C66.6725 318.382 65.7696 317.364 64.9203 316.32C64.5082 315.808 64.562 315.045 65.0464 314.611C65.5304 314.177 66.2589 314.238 66.6734 314.748C67.4798 315.74 68.3372 316.707 69.2215 317.622C69.3155 317.719 69.3905 317.829 69.4461 317.946ZM57.5399 296.395C57.5738 296.466 57.6018 296.543 57.6222 296.623C57.9424 297.882 58.3188 299.144 58.7401 300.373C58.956 301.004 58.6452 301.697 58.0459 301.923C57.4465 302.148 56.7828 301.822 56.5691 301.19C56.1259 299.896 55.7299 298.569 55.3927 297.244C55.2282 296.597 55.5939 295.933 56.2095 295.762C56.7484 295.612 57.3004 295.889 57.5399 296.395ZM63.1208 309.732C63.3803 310.28 63.2099 310.956 62.7082 311.291C62.1711 311.65 61.4578 311.483 61.1144 310.918C60.4125 309.761 59.7485 308.557 59.1417 307.339C59.1377 307.331 59.134 307.323 59.1303 307.316C58.8514 306.726 59.0708 306.01 59.6276 305.704C60.1923 305.395 60.8895 305.625 61.1853 306.219C61.7621 307.376 62.3929 308.52 63.0599 309.619C63.0821 309.656 63.1027 309.694 63.1208 309.732Z" fill="#B37CFF"/>
<path d="M56.5022 277.456C56.6034 277.67 56.646 277.917 56.6104 278.171C56.5238 278.789 56.4484 279.419 56.3852 280.044C56.3184 280.71 55.7503 281.191 55.1168 281.119C54.4831 281.047 54.0227 280.45 54.0906 279.784C54.1566 279.126 54.2361 278.464 54.3271 277.813C54.4197 277.152 55.006 276.695 55.6361 276.794C56.0249 276.855 56.3395 277.112 56.5022 277.456Z" fill="#B37CFF"/>
</g>
<g opacity="0.3">
<path d="M74.7977 245.945C75.0458 246.47 74.9026 247.119 74.4352 247.469C73.9513 247.831 73.4664 248.21 72.9946 248.595C72.4918 249.005 71.7668 248.909 71.3752 248.38C70.982 247.849 71.0737 247.09 71.5762 246.68C72.0731 246.274 72.5837 245.875 73.0932 245.494C73.6116 245.106 74.3322 245.234 74.703 245.779C74.7391 245.833 74.7706 245.888 74.7977 245.945Z" fill="#B37CFF"/>
<path d="M141.172 263.412C141.408 263.911 141.638 264.417 141.86 264.929C142.124 265.539 141.869 266.257 141.289 266.533C140.709 266.81 140.022 266.538 139.76 265.93C139.247 264.749 138.69 263.592 138.097 262.48C137.786 261.894 137.983 261.157 138.539 260.831C139.095 260.505 139.799 260.715 140.11 261.299C140.477 261.988 140.834 262.699 141.172 263.412ZM144.004 270.923C144.033 270.983 144.057 271.048 144.077 271.115C144.448 272.41 144.771 273.737 145.037 275.057C145.169 275.712 144.771 276.354 144.147 276.491C143.524 276.628 142.91 276.208 142.78 275.553C142.527 274.299 142.22 273.039 141.867 271.808C141.684 271.167 142.029 270.492 142.639 270.3C143.186 270.129 143.758 270.403 144.004 270.923ZM136.781 255.958C137.024 256.47 136.894 257.106 136.444 257.462C135.936 257.865 135.212 257.757 134.827 257.223C134.092 256.2 133.305 255.197 132.487 254.24C132.061 253.74 132.099 252.975 132.573 252.529C133.047 252.082 133.776 252.125 134.203 252.623C135.064 253.631 135.893 254.688 136.668 255.765C136.712 255.826 136.75 255.891 136.781 255.958ZM145.797 281.147C145.862 281.285 145.903 281.438 145.914 281.601C146.006 282.948 146.043 284.316 146.026 285.666C146.017 286.336 145.494 286.869 144.857 286.859C144.219 286.848 143.71 286.298 143.719 285.628C143.735 284.346 143.699 283.047 143.613 281.767C143.567 281.1 144.046 280.521 144.681 280.475C145.162 280.44 145.595 280.72 145.797 281.147ZM129.979 248.407C130.177 248.827 130.134 249.348 129.827 249.729C129.416 250.239 128.688 250.302 128.201 249.869C127.27 249.041 126.293 248.244 125.295 247.498C124.775 247.11 124.652 246.353 125.021 245.808C125.39 245.263 126.11 245.136 126.63 245.525C127.68 246.309 128.71 247.149 129.69 248.021C129.814 248.131 129.911 248.263 129.979 248.407ZM121.767 242.602C121.926 242.938 121.935 243.346 121.757 243.703C121.463 244.296 120.766 244.525 120.201 244.214C119.117 243.618 117.997 243.063 116.872 242.564C116.284 242.304 116.007 241.594 116.254 240.976C116.501 240.359 117.177 240.071 117.765 240.331C118.949 240.856 120.127 241.44 121.268 242.068C121.492 242.191 121.662 242.381 121.767 242.602ZM112.55 238.813C112.671 239.069 112.707 239.369 112.631 239.666C112.467 240.312 111.834 240.695 111.219 240.52C110.037 240.185 108.829 239.899 107.629 239.67C107.002 239.55 106.584 238.92 106.697 238.261C106.81 237.602 107.409 237.166 108.037 237.285C109.3 237.527 110.571 237.828 111.815 238.18C112.148 238.275 112.407 238.513 112.55 238.813ZM102.771 237.224C102.855 237.401 102.898 237.601 102.89 237.813C102.864 238.481 102.327 239 101.691 238.971C100.469 238.915 99.2319 238.914 98.013 238.967C97.3764 238.995 96.8374 238.475 96.8095 237.807C96.7816 237.138 97.2751 236.573 97.9118 236.546C99.1957 236.49 100.499 236.491 101.784 236.55C102.22 236.569 102.59 236.841 102.771 237.224ZM92.8997 237.927C92.9468 238.027 92.9813 238.135 93.0014 238.25C93.1164 238.908 92.7015 239.539 92.0748 239.658C90.8755 239.886 89.6697 240.171 88.4904 240.505C87.8754 240.68 87.2412 240.295 87.0741 239.651C86.9066 239.005 87.2695 238.339 87.8845 238.165C89.126 237.813 90.3954 237.513 91.658 237.273C92.1757 237.175 92.6764 237.456 92.8997 237.927ZM83.4283 240.89C83.4388 240.912 83.4486 240.935 83.4581 240.958C83.7067 241.575 83.4327 242.285 82.846 242.545C82.0178 242.912 81.1909 243.309 80.3871 243.728C80.0962 243.879 79.8074 244.034 79.5212 244.191C78.9568 244.5 78.2592 244.271 77.9633 243.677C77.6522 243.083 77.8842 242.352 78.4481 242.042C78.7494 241.877 79.0527 241.714 79.359 241.555C80.2043 241.115 81.0747 240.697 81.9458 240.311C82.5102 240.061 83.1587 240.32 83.4283 240.89Z" fill="#B37CFF"/>
<path d="M145.398 291.557C145.5 291.773 145.542 292.023 145.505 292.279C145.411 292.927 145.303 293.586 145.182 294.236C145.06 294.893 144.455 295.32 143.829 295.191C143.204 295.061 142.795 294.425 142.917 293.768C143.031 293.15 143.135 292.524 143.224 291.909C143.319 291.248 143.907 290.794 144.538 290.896C144.924 290.959 145.236 291.216 145.398 291.557Z" fill="#B37CFF"/>
</g>
<path d="M132.724 296.325C132.819 296.105 132.77 295.846 132.603 295.679L127.83 290.936C128.422 287.778 128.539 284.498 128.128 281.212L133.174 276.824C133.351 276.67 133.415 276.415 133.334 276.189L130.554 268.446C130.473 268.22 130.264 268.072 130.034 268.078L123.478 268.26C121.72 265.505 119.569 263.118 117.137 261.152L117.743 254.29C117.765 254.049 117.638 253.82 117.429 253.72L110.255 250.297C110.045 250.196 109.798 250.247 109.64 250.422L105.135 255.424C102.128 254.794 99.0041 254.664 95.8767 255.088L91.6866 249.777C91.5396 249.591 91.2966 249.523 91.0814 249.607L83.7157 252.508C83.5004 252.593 83.3605 252.812 83.3671 253.054L83.5561 259.941C80.9366 261.78 78.6693 264.034 76.8033 266.583L70.2677 265.93C70.0388 265.907 69.8214 266.039 69.7266 266.259L66.484 273.786C66.3891 274.006 66.4379 274.265 66.6052 274.431L71.3781 279.175C70.7857 282.332 70.6688 285.613 71.0802 288.898L66.0337 293.287C65.8567 293.44 65.7924 293.696 65.8736 293.922L68.6535 301.665C68.7348 301.891 68.9435 302.039 69.1736 302.032L75.7301 301.85C77.4876 304.606 79.6391 306.993 82.0707 308.959L81.4647 315.821C81.4434 316.062 81.5699 316.291 81.7795 316.391L88.9535 319.814C89.1631 319.914 89.4098 319.864 89.5677 319.688L94.0731 314.687C97.0804 315.317 100.204 315.447 103.331 315.023L107.521 320.334C107.668 320.52 107.911 320.588 108.127 320.503L115.492 317.602C115.707 317.518 115.848 317.299 115.841 317.057L115.652 310.17C118.271 308.331 120.539 306.077 122.405 303.528L128.94 304.181C129.169 304.204 129.387 304.071 129.481 303.852L132.724 296.325Z" fill="#F2935C"/>
<path opacity="0.56" d="M106.692 281.375C108.411 285.006 107.384 289.514 104.126 291.888C100.544 294.498 95.603 293.556 93.1097 289.788C91.9014 287.963 91.4419 285.755 91.8146 283.571C92.1871 281.387 93.3478 279.487 95.0828 278.223C98.6643 275.614 103.606 276.556 106.099 280.323C106.324 280.663 106.521 281.015 106.692 281.375ZM94.1659 287.87C94.2987 288.151 94.4515 288.423 94.6248 288.685C96.5362 291.573 100.325 292.295 103.071 290.295C105.817 288.294 106.497 284.316 104.584 281.427C102.673 278.539 98.8833 277.817 96.1378 279.817C94.8075 280.787 93.9177 282.243 93.6319 283.917C93.3998 285.279 93.5894 286.652 94.1659 287.87Z" fill="white"/>
<path opacity="0.56" d="M116.852 275.9C117.147 276.524 117.414 277.167 117.651 277.827C117.726 278.035 117.797 278.244 117.866 278.454C118.202 279.492 118.46 280.555 118.634 281.628C118.637 281.643 118.639 281.657 118.641 281.672C118.648 281.714 118.655 281.755 118.661 281.797C118.673 281.878 118.685 281.959 118.697 282.04C118.727 282.253 118.621 282.454 118.447 282.545C118.404 282.567 118.358 282.582 118.308 282.59C118.056 282.629 117.822 282.445 117.784 282.181C117.59 280.818 117.255 279.468 116.787 278.168C114.469 271.707 109.215 267.288 103.219 265.953C99.8842 265.21 96.3192 265.422 92.9015 266.768C92.302 267.004 91.7185 267.27 91.153 267.564C87.3458 269.546 84.3316 272.816 82.5565 276.937C80.5172 281.67 80.3569 286.959 82.1049 291.828C85.7162 301.884 96.4294 306.994 105.991 303.227C106.58 302.995 107.157 302.733 107.717 302.441C110.145 301.177 112.282 299.368 113.968 297.137C114.012 297.079 114.065 297.035 114.124 297.004C114.279 296.924 114.471 296.939 114.616 297.059C114.816 297.227 114.85 297.531 114.691 297.741C112.921 300.083 110.678 301.983 108.129 303.31C107.541 303.616 106.936 303.892 106.317 304.135C96.2784 308.09 85.0289 302.718 81.2413 292.168C79.406 287.056 79.5746 281.505 81.7154 276.536C83.5788 272.21 86.7434 268.776 90.74 266.696C91.3339 266.387 91.9464 266.108 92.5753 265.86C97.4384 263.945 102.725 264.135 107.461 266.395C111.585 268.363 114.862 271.696 116.852 275.9Z" fill="white"/>
<g opacity="0.3">
<path d="M169.886 347.15C170.023 347.44 169.97 347.802 169.732 348.032C169.288 348.463 168.826 348.886 168.358 349.288C168.054 349.549 167.605 349.502 167.355 349.182C167.104 348.862 167.149 348.39 167.453 348.129C167.899 347.745 168.34 347.343 168.764 346.932C169.052 346.651 169.503 346.671 169.771 346.974C169.818 347.028 169.856 347.088 169.886 347.15Z" fill="#B37CFF"/>
<path d="M165.54 350.648C165.701 350.988 165.594 351.407 165.282 351.613C164.401 352.195 163.482 352.736 162.55 353.221C162.354 353.323 162.156 353.423 161.956 353.522C161.6 353.697 161.179 353.509 161.007 353.162C160.839 352.787 160.992 352.342 161.347 352.166C161.538 352.072 161.727 351.977 161.915 351.879C162.804 351.416 163.681 350.9 164.521 350.345C164.854 350.125 165.293 350.231 165.504 350.58C165.517 350.603 165.529 350.625 165.54 350.648ZM158.847 353.946C158.862 353.978 158.876 354.011 158.886 354.045C159.01 354.438 158.807 354.861 158.433 354.99C157.234 355.403 156 355.742 154.765 355.996C154.379 356.075 154.004 355.809 153.927 355.405C153.851 354.999 154.101 354.606 154.487 354.527C155.665 354.284 156.843 353.961 157.986 353.567C158.327 353.45 158.692 353.618 158.847 353.946ZM151.589 355.439C151.629 355.524 151.655 355.619 151.662 355.719C151.69 356.131 151.394 356.489 151.002 356.517C149.744 356.608 148.467 356.618 147.206 356.545C146.813 356.522 146.512 356.17 146.532 355.756C146.553 355.343 146.889 355.027 147.281 355.05C148.483 355.12 149.701 355.111 150.9 355.024C151.197 355.002 151.464 355.175 151.589 355.439ZM144.199 355.011C144.265 355.15 144.29 355.311 144.263 355.475C144.194 355.882 143.823 356.153 143.436 356.079C142.192 355.843 140.952 355.524 139.748 355.131C139.372 355.007 139.163 354.587 139.278 354.193C139.394 353.799 139.793 353.578 140.17 353.701C141.316 354.077 142.5 354.381 143.686 354.606C143.917 354.65 144.102 354.806 144.199 355.011ZM137.129 352.701C137.221 352.895 137.232 353.13 137.141 353.342C136.98 353.719 136.558 353.886 136.199 353.716C135.048 353.17 133.918 352.544 132.841 351.856C132.504 351.642 132.396 351.181 132.6 350.828C132.804 350.475 133.243 350.363 133.579 350.578C134.607 351.234 135.685 351.831 136.783 352.351C136.939 352.426 137.058 352.552 137.129 352.701ZM130.803 348.661C130.922 348.912 130.901 349.224 130.725 349.458C130.481 349.782 130.033 349.836 129.724 349.58C128.733 348.757 127.782 347.862 126.898 346.918C126.621 346.622 126.625 346.149 126.904 345.859C127.184 345.57 127.636 345.574 127.912 345.869C128.756 346.768 129.662 347.622 130.606 348.406C130.692 348.478 130.757 348.565 130.803 348.661ZM125.607 343.123C125.756 343.437 125.678 343.828 125.404 344.048C125.091 344.299 124.644 344.237 124.404 343.908C123.638 342.859 122.925 341.746 122.283 340.599C122.089 340.238 122.198 339.783 122.537 339.575C122.876 339.366 123.313 339.487 123.512 339.843C124.124 340.937 124.804 341.999 125.534 342.999C125.563 343.039 125.587 343.08 125.607 343.123ZM120.596 332.749C120.615 332.788 120.63 332.829 120.642 332.872C120.935 333.92 121.288 334.969 121.691 335.991C121.752 336.146 121.813 336.298 121.875 336.448C122.032 336.828 121.867 337.268 121.506 337.432C121.144 337.597 120.713 337.424 120.568 337.042C120.502 336.881 120.436 336.72 120.373 336.557C119.953 335.49 119.583 334.39 119.275 333.291C119.164 332.894 119.38 332.479 119.758 332.363C120.094 332.26 120.445 332.43 120.596 332.749Z" fill="#B37CFF"/>
</g>
<g opacity="0.3">
<path d="M176.176 309.532C176.349 309.898 176.211 310.343 175.864 310.53C175.514 310.718 175.084 310.572 174.904 310.204C174.363 309.096 173.752 308.013 173.089 306.985C172.873 306.642 172.953 306.177 173.279 305.946C173.605 305.714 174.048 305.805 174.269 306.147C174.963 307.226 175.604 308.361 176.172 309.522C176.172 309.522 176.175 309.529 176.176 309.532ZM177.645 313.04C177.656 313.064 177.666 313.089 177.676 313.115C178.107 314.337 178.472 315.6 178.76 316.867C178.851 317.27 178.616 317.673 178.233 317.768C177.85 317.864 177.466 317.612 177.374 317.212C177.099 316.003 176.75 314.798 176.339 313.631C176.202 313.243 176.391 312.813 176.76 312.671C177.105 312.537 177.485 312.702 177.645 313.04ZM172.091 303.197C172.231 303.495 172.171 303.865 171.922 304.093C171.626 304.364 171.176 304.332 170.916 304.02C170.135 303.082 169.294 302.185 168.414 301.355C168.122 301.076 168.096 300.605 168.359 300.298C168.622 299.991 169.073 299.966 169.366 300.243C170.288 301.113 171.17 302.053 171.989 303.037C172.03 303.087 172.064 303.141 172.091 303.197ZM179.334 320.482C179.37 320.559 179.394 320.643 179.404 320.733C179.543 322.029 179.607 323.347 179.594 324.649C179.59 325.063 179.268 325.394 178.874 325.389C178.481 325.383 178.166 325.044 178.169 324.631C178.181 323.388 178.12 322.132 177.987 320.896C177.943 320.485 178.225 320.115 178.616 320.07C178.922 320.035 179.204 320.209 179.334 320.482ZM166.671 298.085C166.784 298.322 166.773 298.615 166.618 298.847C166.393 299.186 165.949 299.267 165.626 299.03C164.656 298.317 163.635 297.659 162.589 297.074C162.241 296.879 162.109 296.425 162.294 296.061C162.479 295.696 162.91 295.558 163.258 295.753C164.354 296.367 165.425 297.057 166.442 297.804C166.543 297.879 166.62 297.976 166.671 298.085ZM160.245 294.484C160.331 294.666 160.347 294.883 160.273 295.086C160.131 295.472 159.719 295.663 159.352 295.514C158.245 295.064 157.103 294.681 155.958 294.375C155.576 294.273 155.345 293.865 155.441 293.465C155.538 293.064 155.925 292.822 156.306 292.924C157.507 293.245 158.704 293.647 159.863 294.118C160.036 294.188 160.169 294.322 160.245 294.484ZM153.186 292.601C153.247 292.729 153.273 292.876 153.255 293.028C153.206 293.438 152.849 293.728 152.458 293.675C151.283 293.515 150.087 293.431 148.906 293.424C148.513 293.421 148.195 293.084 148.196 292.671C148.198 292.257 148.518 291.924 148.912 291.927C150.15 291.935 151.404 292.023 152.637 292.19C152.883 292.223 153.083 292.384 153.186 292.601Z" fill="#B37CFF"/>
<path d="M179.255 328.162C179.316 328.292 179.342 328.441 179.323 328.595C179.242 329.23 179.143 329.865 179.029 330.483C178.953 330.888 178.579 331.152 178.193 331.073C177.808 330.992 177.555 330.599 177.629 330.193C177.739 329.604 177.833 328.998 177.91 328.393C177.963 327.983 178.321 327.696 178.711 327.752C178.955 327.787 179.153 327.947 179.255 328.162Z" fill="#B37CFF"/>
</g>
<path d="M170.751 331.895C170.814 331.748 170.781 331.574 170.67 331.463L167.476 328.288C167.872 326.176 167.95 323.981 167.675 321.782L171.052 318.846C171.17 318.743 171.213 318.572 171.159 318.421L169.299 313.239C169.244 313.088 169.105 312.989 168.951 312.994L164.563 313.115C163.387 311.271 161.948 309.674 160.321 308.359L160.726 303.767C160.74 303.606 160.656 303.453 160.515 303.386L155.715 301.095C155.575 301.028 155.41 301.061 155.304 301.179L152.289 304.526C150.277 304.104 148.187 304.017 146.094 304.301L143.29 300.747C143.192 300.622 143.029 300.577 142.885 300.633L137.956 302.575C137.812 302.632 137.719 302.778 137.723 302.94L137.85 307.548C136.097 308.779 134.58 310.287 133.331 311.993L128.958 311.556C128.804 311.541 128.659 311.629 128.596 311.776L126.426 316.813C126.362 316.96 126.395 317.133 126.507 317.245L129.701 320.419C129.304 322.532 129.226 324.727 129.501 326.925L126.125 329.862C126.006 329.965 125.963 330.135 126.017 330.287L127.878 335.468C127.932 335.62 128.072 335.718 128.226 335.714L132.613 335.592C133.789 337.436 135.229 339.033 136.856 340.349L136.45 344.941C136.436 345.102 136.521 345.255 136.661 345.322L141.461 347.613C141.602 347.68 141.767 347.646 141.872 347.529L144.887 344.182C146.9 344.604 148.99 344.691 151.082 344.407L153.886 347.961C153.984 348.085 154.147 348.131 154.291 348.074L159.22 346.133C159.364 346.076 159.458 345.93 159.453 345.768L159.327 341.16C161.079 339.929 162.597 338.421 163.845 336.715L168.219 337.152C168.372 337.167 168.517 337.078 168.581 336.931L170.751 331.895Z" fill="#F2935C"/>
<path opacity="0.56" d="M153.418 321.852C153.931 322.934 154.099 324.155 153.893 325.364C153.639 326.852 152.848 328.146 151.666 329.007C149.228 330.784 145.862 330.143 144.163 327.577C142.467 325.004 143.068 321.476 145.507 319.699C146.689 318.837 148.12 318.512 149.537 318.782C150.955 319.052 152.189 319.886 153.011 321.129C153.165 321.362 153.301 321.604 153.418 321.852ZM145.036 326.197C145.121 326.378 145.22 326.554 145.333 326.724C146.582 328.612 149.058 329.084 150.852 327.776C151.721 327.143 152.303 326.191 152.49 325.097C152.676 324.002 152.445 322.897 151.841 321.981C151.236 321.067 150.328 320.454 149.286 320.255C148.243 320.056 147.191 320.296 146.321 320.929C144.689 322.118 144.175 324.378 145.036 326.197Z" fill="white"/>
<path opacity="0.56" d="M160.496 318.051C160.697 318.475 160.879 318.914 161.042 319.366C161.365 320.265 161.601 321.199 161.744 322.144C161.75 322.187 161.757 322.229 161.763 322.272C161.81 322.601 161.645 322.912 161.377 323.052C161.311 323.086 161.239 323.11 161.163 323.122C160.774 323.182 160.413 322.898 160.353 322.49C160.228 321.606 160.01 320.732 159.709 319.892L159.708 319.892C159.692 319.846 159.675 319.799 159.658 319.754C158.926 317.773 157.752 316.058 156.249 314.718C155.432 313.991 154.518 313.375 153.523 312.889C153.515 312.885 153.507 312.881 153.499 312.877C153.474 312.865 153.449 312.853 153.425 312.842C150.504 311.448 147.244 311.331 144.245 312.512C143.857 312.664 143.48 312.836 143.114 313.027C140.649 314.31 138.698 316.427 137.548 319.095C136.228 322.159 136.125 325.583 137.256 328.734C138.389 331.884 140.62 334.39 143.54 335.785C146.461 337.178 149.721 337.296 152.719 336.114C153.101 335.964 153.474 335.794 153.836 335.606C155.409 334.787 156.792 333.616 157.883 332.172C157.95 332.083 158.033 332.014 158.124 331.967C158.363 331.843 158.661 331.866 158.884 332.052C159.192 332.311 159.245 332.78 159 333.105C157.779 334.721 156.231 336.031 154.473 336.947C154.067 337.158 153.65 337.348 153.223 337.516C149.868 338.838 146.221 338.707 142.953 337.147C139.686 335.588 137.187 332.789 135.923 329.26C134.657 325.733 134.772 321.903 136.25 318.475C137.535 315.49 139.719 313.122 142.476 311.687C142.885 311.474 143.308 311.281 143.742 311.11C150.237 308.552 157.467 311.65 160.496 318.051Z" fill="white"/>
<path d="M99.7301 404.939C99.21 404.939 98.7479 404.865 98.3439 404.715C97.9399 404.566 97.5968 404.356 97.3146 404.084C97.0324 403.813 96.811 403.495 96.6505 403.13C96.4901 402.765 96.3932 402.366 96.36 401.935L96.3517 401.818H97.8459L97.8542 401.901C97.8874 402.2 97.9759 402.477 98.1198 402.731C98.2637 402.98 98.4684 403.182 98.734 403.337C98.9997 403.487 99.3289 403.562 99.7218 403.562C100.386 403.562 100.892 403.371 101.241 402.989C101.59 402.601 101.764 402.042 101.764 401.312V392.679H103.258V401.329C103.258 402.081 103.117 402.729 102.835 403.271C102.558 403.808 102.157 404.22 101.631 404.508C101.105 404.796 100.472 404.939 99.7301 404.939ZM109.467 404.815C108.621 404.815 107.887 404.63 107.268 404.259C106.653 403.882 106.177 403.348 105.84 402.657C105.508 401.965 105.342 401.143 105.342 400.191V400.175C105.342 399.217 105.508 398.393 105.84 397.701C106.177 397.009 106.653 396.478 107.268 396.107C107.887 395.737 108.621 395.551 109.467 395.551C110.319 395.551 111.053 395.737 111.667 396.107C112.281 396.478 112.754 397.009 113.086 397.701C113.424 398.393 113.593 399.217 113.593 400.175V400.191C113.593 401.143 113.424 401.965 113.086 402.657C112.754 403.348 112.281 403.882 111.667 404.259C111.053 404.63 110.319 404.815 109.467 404.815ZM109.467 403.537C110.032 403.537 110.51 403.404 110.903 403.138C111.296 402.873 111.595 402.491 111.8 401.993C112.01 401.495 112.115 400.894 112.115 400.191V400.175C112.115 399.466 112.01 398.863 111.8 398.365C111.595 397.867 111.296 397.488 110.903 397.228C110.51 396.962 110.032 396.83 109.467 396.83C108.903 396.83 108.424 396.962 108.031 397.228C107.638 397.488 107.337 397.867 107.126 398.365C106.922 398.863 106.819 399.466 106.819 400.175V400.191C106.819 400.894 106.922 401.495 107.126 401.993C107.337 402.491 107.638 402.873 108.031 403.138C108.424 403.404 108.903 403.537 109.467 403.537ZM115.527 404.657V395.709H116.972V404.657H115.527ZM116.258 393.982C115.986 393.982 115.751 393.886 115.552 393.692C115.358 393.493 115.262 393.257 115.262 392.986C115.262 392.71 115.358 392.474 115.552 392.281C115.751 392.087 115.986 391.99 116.258 391.99C116.534 391.99 116.77 392.087 116.963 392.281C117.157 392.474 117.254 392.71 117.254 392.986C117.254 393.257 117.157 393.493 116.963 393.692C116.77 393.886 116.534 393.982 116.258 393.982ZM119.354 404.657V395.709H120.799V397.054H120.931C121.158 396.578 121.485 396.21 121.911 395.95C122.337 395.684 122.879 395.551 123.538 395.551C124.545 395.551 125.317 395.839 125.854 396.415C126.396 396.985 126.667 397.801 126.667 398.863V404.657H125.223V399.212C125.223 398.404 125.051 397.806 124.708 397.419C124.371 397.026 123.845 396.83 123.131 396.83C122.655 396.83 122.243 396.932 121.894 397.137C121.546 397.341 121.274 397.632 121.081 398.008C120.893 398.385 120.799 398.836 120.799 399.361V404.657H119.354ZM133.383 404.657V395.709H134.827V397.054H134.96C135.187 396.578 135.514 396.21 135.94 395.95C136.366 395.684 136.908 395.551 137.567 395.551C138.574 395.551 139.346 395.839 139.883 396.415C140.425 396.985 140.696 397.801 140.696 398.863V404.657H139.252V399.212C139.252 398.404 139.08 397.806 138.737 397.419C138.4 397.026 137.874 396.83 137.16 396.83C136.684 396.83 136.272 396.932 135.923 397.137C135.575 397.341 135.303 397.632 135.11 398.008C134.922 398.385 134.827 398.836 134.827 399.361V404.657H133.383ZM146.648 404.815C145.801 404.815 145.068 404.63 144.448 404.259C143.834 403.882 143.358 403.348 143.021 402.657C142.689 401.965 142.523 401.143 142.523 400.191V400.175C142.523 399.217 142.689 398.393 143.021 397.701C143.358 397.009 143.834 396.478 144.448 396.107C145.068 395.737 145.801 395.551 146.648 395.551C147.5 395.551 148.234 395.737 148.848 396.107C149.462 396.478 149.935 397.009 150.267 397.701C150.605 398.393 150.774 399.217 150.774 400.175V400.191C150.774 401.143 150.605 401.965 150.267 402.657C149.935 403.348 149.462 403.882 148.848 404.259C148.234 404.63 147.5 404.815 146.648 404.815ZM146.648 403.537C147.213 403.537 147.691 403.404 148.084 403.138C148.477 402.873 148.776 402.491 148.981 401.993C149.191 401.495 149.296 400.894 149.296 400.191V400.175C149.296 399.466 149.191 398.863 148.981 398.365C148.776 397.867 148.477 397.488 148.084 397.228C147.691 396.962 147.213 396.83 146.648 396.83C146.084 396.83 145.605 396.962 145.212 397.228C144.819 397.488 144.518 397.867 144.307 398.365C144.103 398.863 144 399.466 144 400.175V400.191C144 400.894 144.103 401.495 144.307 401.993C144.518 402.491 144.819 402.873 145.212 403.138C145.605 403.404 146.084 403.537 146.648 403.537ZM154.069 404.657L151.563 395.709H153.007L154.767 402.864H154.899L156.9 395.709H158.27L160.27 402.864H160.403L162.163 395.709H163.599L161.092 404.657H159.639L157.639 397.734H157.506L155.514 404.657H154.069ZM172.788 404.724C171.87 404.724 171.203 404.538 170.788 404.167C170.378 403.797 170.174 403.185 170.174 402.333V396.904H168.762V395.709H170.174V393.393H171.668V395.709H173.627V396.904H171.668V401.968C171.668 402.493 171.767 402.873 171.967 403.105C172.166 403.332 172.498 403.445 172.963 403.445C173.09 403.445 173.198 403.443 173.286 403.437C173.38 403.431 173.494 403.423 173.627 403.412V404.641C173.488 404.663 173.35 404.682 173.212 404.699C173.073 404.715 172.932 404.724 172.788 404.724ZM179.006 404.815C178.159 404.815 177.426 404.63 176.806 404.259C176.192 403.882 175.716 403.348 175.378 402.657C175.046 401.965 174.88 401.143 174.88 400.191V400.175C174.88 399.217 175.046 398.393 175.378 397.701C175.716 397.009 176.192 396.478 176.806 396.107C177.426 395.737 178.159 395.551 179.006 395.551C179.858 395.551 180.591 395.737 181.206 396.107C181.82 396.478 182.293 397.009 182.625 397.701C182.963 398.393 183.131 399.217 183.131 400.175V400.191C183.131 401.143 182.963 401.965 182.625 402.657C182.293 403.348 181.82 403.882 181.206 404.259C180.591 404.63 179.858 404.815 179.006 404.815ZM179.006 403.537C179.57 403.537 180.049 403.404 180.442 403.138C180.835 402.873 181.134 402.491 181.338 401.993C181.549 401.495 181.654 400.894 181.654 400.191V400.175C181.654 399.466 181.549 398.863 181.338 398.365C181.134 397.867 180.835 397.488 180.442 397.228C180.049 396.962 179.57 396.83 179.006 396.83C178.441 396.83 177.963 396.962 177.57 397.228C177.177 397.488 176.875 397.867 176.665 398.365C176.46 398.863 176.358 399.466 176.358 400.175V400.191C176.358 400.894 176.46 401.495 176.665 401.993C176.875 402.491 177.177 402.873 177.57 403.138C177.963 403.404 178.441 403.537 179.006 403.537ZM192.778 404.815C192.025 404.815 191.366 404.624 190.802 404.242C190.238 403.86 189.8 403.324 189.49 402.632C189.181 401.935 189.026 401.121 189.026 400.191V400.175C189.026 399.24 189.181 398.426 189.49 397.734C189.8 397.043 190.235 396.506 190.794 396.124C191.358 395.742 192.019 395.551 192.778 395.551C193.187 395.551 193.572 395.618 193.931 395.75C194.297 395.878 194.62 396.058 194.903 396.29C195.185 396.522 195.406 396.799 195.567 397.12H195.699V392.156H197.144V404.657H195.699V403.229H195.567C195.384 403.562 195.154 403.847 194.878 404.084C194.601 404.317 194.286 404.497 193.931 404.624C193.577 404.751 193.193 404.815 192.778 404.815ZM193.11 403.537C193.652 403.537 194.12 403.401 194.512 403.13C194.905 402.859 195.207 402.474 195.417 401.976C195.628 401.472 195.733 400.878 195.733 400.191V400.175C195.733 399.483 195.628 398.888 195.417 398.39C195.207 397.892 194.905 397.507 194.512 397.236C194.12 396.965 193.652 396.83 193.11 396.83C192.567 396.83 192.1 396.965 191.707 397.236C191.319 397.502 191.021 397.884 190.81 398.382C190.606 398.88 190.503 399.478 190.503 400.175V400.191C190.503 400.883 190.606 401.481 190.81 401.984C191.021 402.482 191.319 402.867 191.707 403.138C192.1 403.404 192.567 403.537 193.11 403.537ZM199.609 404.657V395.709H201.054V404.657H199.609ZM200.34 393.982C200.069 393.982 199.834 393.886 199.634 393.692C199.441 393.493 199.344 393.257 199.344 392.986C199.344 392.71 199.441 392.474 199.634 392.281C199.834 392.087 200.069 391.99 200.34 391.99C200.617 391.99 200.852 392.087 201.045 392.281C201.239 392.474 201.336 392.71 201.336 392.986C201.336 393.257 201.239 393.493 201.045 393.692C200.852 393.886 200.617 393.982 200.34 393.982ZM206.508 404.815C205.844 404.815 205.257 404.715 204.748 404.516C204.239 404.311 203.829 404.026 203.519 403.661C203.215 403.296 203.035 402.867 202.98 402.375H204.457C204.579 402.745 204.817 403.044 205.171 403.271C205.525 403.498 205.988 403.611 206.558 403.611C206.961 403.611 207.316 403.553 207.62 403.437C207.93 403.315 208.173 403.152 208.35 402.947C208.528 402.737 208.616 402.496 208.616 402.225V402.208C208.616 401.904 208.494 401.647 208.251 401.437C208.007 401.221 207.609 401.046 207.056 400.914L205.669 400.582C205.11 400.449 204.651 400.277 204.291 400.067C203.932 399.851 203.666 399.588 203.495 399.278C203.323 398.963 203.237 398.592 203.237 398.166V398.158C203.237 397.66 203.381 397.214 203.669 396.821C203.962 396.428 204.361 396.118 204.864 395.892C205.368 395.665 205.935 395.551 206.566 395.551C207.191 395.551 207.745 395.651 208.226 395.85C208.713 396.044 209.103 396.32 209.396 396.68C209.695 397.04 209.878 397.463 209.944 397.95H208.525C208.431 397.596 208.215 397.308 207.877 397.087C207.54 396.866 207.1 396.755 206.558 396.755C206.203 396.755 205.888 396.813 205.611 396.929C205.335 397.04 205.116 397.195 204.955 397.394C204.795 397.593 204.715 397.826 204.715 398.091V398.108C204.715 398.307 204.767 398.484 204.872 398.639C204.978 398.794 205.141 398.93 205.362 399.046C205.584 399.162 205.869 399.264 206.217 399.353L207.595 399.685C208.436 399.89 209.062 400.183 209.471 400.565C209.886 400.947 210.094 401.459 210.094 402.101V402.117C210.094 402.648 209.936 403.119 209.621 403.528C209.305 403.932 208.876 404.248 208.334 404.475C207.797 404.701 207.188 404.815 206.508 404.815ZM215.656 404.815C214.82 404.815 214.095 404.624 213.481 404.242C212.866 403.86 212.391 403.321 212.053 402.624C211.715 401.926 211.547 401.104 211.547 400.158V400.142C211.547 399.212 211.713 398.404 212.045 397.718C212.382 397.032 212.858 396.5 213.472 396.124C214.087 395.742 214.812 395.551 215.647 395.551C216.372 395.551 216.997 395.679 217.523 395.933C218.049 396.188 218.469 396.531 218.785 396.962C219.1 397.389 219.302 397.867 219.391 398.398L219.399 398.448H217.963L217.955 398.423C217.844 397.981 217.592 397.604 217.199 397.294C216.807 396.985 216.289 396.83 215.647 396.83C215.11 396.83 214.646 396.965 214.253 397.236C213.86 397.507 213.555 397.892 213.34 398.39C213.129 398.883 213.024 399.466 213.024 400.142V400.158C213.024 400.844 213.132 401.442 213.348 401.951C213.564 402.455 213.868 402.845 214.261 403.122C214.654 403.398 215.116 403.537 215.647 403.537C216.25 403.537 216.743 403.407 217.125 403.146C217.507 402.886 217.781 402.507 217.947 402.009L217.963 401.959L219.391 401.951L219.374 402.042C219.253 402.579 219.037 403.058 218.727 403.479C218.417 403.894 218.007 404.22 217.498 404.458C216.989 404.696 216.375 404.815 215.656 404.815ZM224.845 404.815C223.998 404.815 223.265 404.63 222.645 404.259C222.031 403.882 221.555 403.348 221.217 402.657C220.885 401.965 220.719 401.143 220.719 400.191V400.175C220.719 399.217 220.885 398.393 221.217 397.701C221.555 397.009 222.031 396.478 222.645 396.107C223.265 395.737 223.998 395.551 224.845 395.551C225.697 395.551 226.43 395.737 227.045 396.107C227.659 396.478 228.132 397.009 228.464 397.701C228.802 398.393 228.97 399.217 228.97 400.175V400.191C228.97 401.143 228.802 401.965 228.464 402.657C228.132 403.348 227.659 403.882 227.045 404.259C226.43 404.63 225.697 404.815 224.845 404.815ZM224.845 403.537C225.409 403.537 225.888 403.404 226.281 403.138C226.674 402.873 226.973 402.491 227.177 401.993C227.388 401.495 227.493 400.894 227.493 400.191V400.175C227.493 399.466 227.388 398.863 227.177 398.365C226.973 397.867 226.674 397.488 226.281 397.228C225.888 396.962 225.409 396.83 224.845 396.83C224.28 396.83 223.802 396.962 223.409 397.228C223.016 397.488 222.714 397.867 222.504 398.365C222.299 398.863 222.197 399.466 222.197 400.175V400.191C222.197 400.894 222.299 401.495 222.504 401.993C222.714 402.491 223.016 402.873 223.409 403.138C223.802 403.404 224.28 403.537 224.845 403.537ZM233.071 404.657L229.759 395.709H231.287L233.735 403.08H233.868L236.317 395.709H237.844L234.532 404.657H233.071ZM242.734 404.815C241.881 404.815 241.148 404.627 240.534 404.25C239.925 403.874 239.455 403.343 239.123 402.657C238.796 401.965 238.633 401.152 238.633 400.216V400.208C238.633 399.284 238.796 398.473 239.123 397.776C239.455 397.079 239.922 396.534 240.526 396.141C241.129 395.748 241.834 395.551 242.642 395.551C243.456 395.551 244.153 395.739 244.734 396.116C245.321 396.492 245.769 397.018 246.079 397.693C246.394 398.362 246.552 399.143 246.552 400.034V400.598H239.38V399.444H245.813L245.099 400.499V399.926C245.099 399.223 244.994 398.645 244.784 398.191C244.574 397.737 244.283 397.4 243.912 397.178C243.542 396.951 243.116 396.838 242.634 396.838C242.153 396.838 241.721 396.957 241.339 397.195C240.963 397.427 240.664 397.773 240.443 398.232C240.221 398.692 240.111 399.256 240.111 399.926V400.499C240.111 401.135 240.219 401.68 240.434 402.134C240.65 402.582 240.957 402.928 241.356 403.171C241.754 403.409 242.225 403.528 242.767 403.528C243.171 403.528 243.522 403.473 243.821 403.362C244.12 403.252 244.366 403.111 244.56 402.939C244.754 402.767 244.889 402.593 244.967 402.416L245 402.341H246.444L246.428 402.408C246.35 402.712 246.212 403.008 246.012 403.296C245.819 403.578 245.567 403.835 245.257 404.068C244.947 404.295 244.579 404.477 244.153 404.616C243.733 404.749 243.259 404.815 242.734 404.815ZM248.453 404.657V395.709H249.898V397.037H250.03C250.202 396.567 250.492 396.201 250.902 395.941C251.311 395.681 251.818 395.551 252.421 395.551C252.559 395.551 252.695 395.56 252.828 395.576C252.966 395.587 253.071 395.598 253.143 395.609V397.012C252.994 396.985 252.847 396.965 252.703 396.954C252.565 396.938 252.415 396.929 252.255 396.929C251.796 396.929 251.389 397.021 251.035 397.203C250.681 397.386 250.401 397.64 250.196 397.967C249.997 398.293 249.898 398.675 249.898 399.112V404.657H248.453ZM262.208 404.724C261.29 404.724 260.623 404.538 260.208 404.167C259.798 403.797 259.594 403.185 259.594 402.333V396.904H258.182V395.709H259.594V393.393H261.088V395.709H263.047V396.904H261.088V401.968C261.088 402.493 261.187 402.873 261.387 403.105C261.586 403.332 261.918 403.445 262.383 403.445C262.51 403.445 262.618 403.443 262.706 403.437C262.8 403.431 262.914 403.423 263.047 403.412V404.641C262.908 404.663 262.77 404.682 262.632 404.699C262.493 404.715 262.352 404.724 262.208 404.724ZM267.322 404.815C266.757 404.815 266.248 404.707 265.795 404.491C265.346 404.275 264.989 403.968 264.724 403.57C264.464 403.171 264.334 402.701 264.334 402.159V402.142C264.334 401.611 264.461 401.157 264.715 400.781C264.97 400.399 265.341 400.1 265.828 399.884C266.315 399.668 266.904 399.541 267.596 399.502L270.883 399.303V400.457L267.77 400.656C267.089 400.695 266.591 400.836 266.276 401.08C265.966 401.323 265.811 401.666 265.811 402.109V402.125C265.811 402.579 265.983 402.933 266.326 403.188C266.669 403.437 267.101 403.562 267.621 403.562C268.113 403.562 268.55 403.465 268.932 403.271C269.314 403.072 269.613 402.803 269.829 402.466C270.05 402.128 270.161 401.746 270.161 401.32V398.531C270.161 397.978 269.992 397.557 269.654 397.27C269.322 396.976 268.822 396.83 268.152 396.83C267.615 396.83 267.175 396.926 266.832 397.12C266.489 397.308 266.259 397.577 266.143 397.925L266.135 397.95H264.691L264.699 397.9C264.776 397.43 264.97 397.021 265.28 396.672C265.595 396.318 266.002 396.044 266.5 395.85C266.998 395.651 267.565 395.551 268.202 395.551C268.932 395.551 269.549 395.67 270.053 395.908C270.562 396.146 270.947 396.489 271.207 396.938C271.472 397.38 271.605 397.911 271.605 398.531V404.657H270.161V403.337H270.028C269.84 403.653 269.61 403.921 269.339 404.143C269.073 404.364 268.772 404.533 268.434 404.649C268.097 404.76 267.726 404.815 267.322 404.815ZM273.988 404.657V392.156H275.432V404.657H273.988ZM281.517 404.815C280.665 404.815 279.931 404.627 279.317 404.25C278.708 403.874 278.238 403.343 277.906 402.657C277.58 401.965 277.416 401.152 277.416 400.216V400.208C277.416 399.284 277.58 398.473 277.906 397.776C278.238 397.079 278.706 396.534 279.309 396.141C279.912 395.748 280.618 395.551 281.426 395.551C282.239 395.551 282.936 395.739 283.517 396.116C284.104 396.492 284.552 397.018 284.862 397.693C285.178 398.362 285.335 399.143 285.335 400.034V400.598H278.163V399.444H284.596L283.883 400.499V399.926C283.883 399.223 283.777 398.645 283.567 398.191C283.357 397.737 283.066 397.4 282.696 397.178C282.325 396.951 281.899 396.838 281.417 396.838C280.936 396.838 280.504 396.957 280.122 397.195C279.746 397.427 279.447 397.773 279.226 398.232C279.005 398.692 278.894 399.256 278.894 399.926V400.499C278.894 401.135 279.002 401.68 279.218 402.134C279.433 402.582 279.741 402.928 280.139 403.171C280.537 403.409 281.008 403.528 281.55 403.528C281.954 403.528 282.305 403.473 282.604 403.362C282.903 403.252 283.149 403.111 283.343 402.939C283.537 402.767 283.672 402.593 283.75 402.416L283.783 402.341H285.227L285.211 402.408C285.133 402.712 284.995 403.008 284.796 403.296C284.602 403.578 284.35 403.835 284.04 404.068C283.73 404.295 283.362 404.477 282.936 404.616C282.516 404.749 282.043 404.815 281.517 404.815ZM287.236 404.657V395.709H288.681V397.054H288.814C289.041 396.578 289.367 396.21 289.793 395.95C290.219 395.684 290.762 395.551 291.42 395.551C292.427 395.551 293.199 395.839 293.736 396.415C294.278 396.985 294.549 397.801 294.549 398.863V404.657H293.105V399.212C293.105 398.404 292.934 397.806 292.59 397.419C292.253 397.026 291.727 396.83 291.013 396.83C290.537 396.83 290.125 396.932 289.777 397.137C289.428 397.341 289.157 397.632 288.963 398.008C288.775 398.385 288.681 398.836 288.681 399.361V404.657H287.236ZM300.003 404.724C299.085 404.724 298.418 404.538 298.003 404.167C297.593 403.797 297.389 403.185 297.389 402.333V396.904H295.978V395.709H297.389V393.393H298.883V395.709H300.842V396.904H298.883V401.968C298.883 402.493 298.982 402.873 299.182 403.105C299.381 403.332 299.713 403.445 300.178 403.445C300.305 403.445 300.413 403.443 300.501 403.437C300.596 403.431 300.709 403.423 300.842 403.412V404.641C300.703 404.663 300.565 404.682 300.427 404.699C300.288 404.715 300.147 404.724 300.003 404.724ZM302.295 407.704L303.017 402.98H304.669L303.366 407.704H302.295ZM121.425 427.646V415.709H122.87V417.137H123.003C123.185 416.805 123.415 416.522 123.692 416.29C123.968 416.052 124.284 415.869 124.638 415.742C124.992 415.615 125.377 415.551 125.792 415.551C126.55 415.551 127.208 415.745 127.767 416.132C128.332 416.514 128.769 417.051 129.079 417.743C129.389 418.434 129.544 419.245 129.544 420.175V420.191C129.544 421.127 129.389 421.94 129.079 422.632C128.769 423.324 128.332 423.86 127.767 424.242C127.208 424.624 126.55 424.815 125.792 424.815C125.382 424.815 124.995 424.751 124.629 424.624C124.27 424.491 123.949 424.309 123.667 424.076C123.39 423.844 123.169 423.567 123.003 423.246H122.87V427.646H121.425ZM125.46 423.537C126.007 423.537 126.475 423.404 126.862 423.138C127.25 422.867 127.546 422.482 127.751 421.984C127.961 421.481 128.066 420.883 128.066 420.191V420.175C128.066 419.478 127.961 418.88 127.751 418.382C127.546 417.884 127.25 417.502 126.862 417.236C126.475 416.965 126.007 416.83 125.46 416.83C124.917 416.83 124.45 416.965 124.057 417.236C123.664 417.507 123.362 417.892 123.152 418.39C122.942 418.888 122.837 419.483 122.837 420.175V420.191C122.837 420.878 122.942 421.472 123.152 421.976C123.362 422.474 123.664 422.859 124.057 423.13C124.45 423.401 124.917 423.537 125.46 423.537ZM133.918 424.815C133.354 424.815 132.845 424.707 132.391 424.491C131.943 424.275 131.586 423.968 131.32 423.57C131.06 423.171 130.93 422.701 130.93 422.159V422.142C130.93 421.611 131.057 421.157 131.312 420.781C131.567 420.399 131.937 420.1 132.424 419.884C132.911 419.668 133.501 419.541 134.192 419.502L137.479 419.303V420.457L134.367 420.656C133.686 420.695 133.188 420.836 132.872 421.08C132.563 421.323 132.408 421.666 132.408 422.109V422.125C132.408 422.579 132.579 422.933 132.922 423.188C133.265 423.437 133.697 423.562 134.217 423.562C134.71 423.562 135.147 423.465 135.529 423.271C135.911 423.072 136.209 422.803 136.425 422.466C136.647 422.128 136.757 421.746 136.757 421.32V418.531C136.757 417.978 136.588 417.557 136.251 417.27C135.919 416.976 135.418 416.83 134.748 416.83C134.212 416.83 133.772 416.926 133.429 417.12C133.086 417.308 132.856 417.577 132.74 417.925L132.731 417.95H131.287L131.295 417.9C131.373 417.43 131.567 417.021 131.876 416.672C132.192 416.318 132.599 416.044 133.097 415.85C133.595 415.651 134.162 415.551 134.798 415.551C135.529 415.551 136.146 415.67 136.649 415.908C137.158 416.146 137.543 416.489 137.803 416.938C138.069 417.38 138.202 417.911 138.202 418.531V424.657H136.757V423.337H136.624C136.436 423.653 136.207 423.921 135.935 424.143C135.67 424.364 135.368 424.533 135.031 424.649C134.693 424.76 134.322 424.815 133.918 424.815ZM140.501 424.657V415.709H141.946V417.037H142.078C142.25 416.567 142.54 416.201 142.95 415.941C143.359 415.681 143.866 415.551 144.469 415.551C144.607 415.551 144.743 415.56 144.876 415.576C145.014 415.587 145.119 415.598 145.191 415.609V417.012C145.042 416.985 144.895 416.965 144.751 416.954C144.613 416.938 144.463 416.929 144.303 416.929C143.844 416.929 143.437 417.021 143.083 417.203C142.729 417.386 142.449 417.64 142.244 417.967C142.045 418.293 141.946 418.675 141.946 419.112V424.657H140.501ZM149.981 424.724C149.062 424.724 148.396 424.538 147.981 424.167C147.571 423.797 147.366 423.185 147.366 422.333V416.904H145.955V415.709H147.366V413.393H148.86V415.709H150.819V416.904H148.86V421.968C148.86 422.493 148.96 422.873 149.159 423.105C149.359 423.332 149.691 423.445 150.155 423.445C150.283 423.445 150.391 423.443 150.479 423.437C150.573 423.431 150.687 423.423 150.819 423.412V424.641C150.681 424.663 150.543 424.682 150.404 424.699C150.266 424.715 150.125 424.724 149.981 424.724ZM152.638 424.657V415.709H154.082V417.054H154.215C154.442 416.578 154.768 416.21 155.194 415.95C155.62 415.684 156.163 415.551 156.821 415.551C157.828 415.551 158.6 415.839 159.137 416.415C159.679 416.985 159.951 417.801 159.951 418.863V424.657H158.506V419.212C158.506 418.404 158.335 417.806 157.992 417.419C157.654 417.026 157.128 416.83 156.415 416.83C155.939 416.83 155.526 416.932 155.178 417.137C154.829 417.341 154.558 417.632 154.364 418.008C154.176 418.385 154.082 418.836 154.082 419.361V424.657H152.638ZM165.878 424.815C165.026 424.815 164.292 424.627 163.678 424.25C163.069 423.874 162.599 423.343 162.267 422.657C161.94 421.965 161.777 421.152 161.777 420.216V420.208C161.777 419.284 161.94 418.473 162.267 417.776C162.599 417.079 163.067 416.534 163.67 416.141C164.273 415.748 164.978 415.551 165.786 415.551C166.6 415.551 167.297 415.739 167.878 416.116C168.465 416.492 168.913 417.018 169.223 417.693C169.538 418.362 169.696 419.143 169.696 420.034V420.598H162.524V419.444H168.957L168.243 420.499V419.926C168.243 419.223 168.138 418.645 167.928 418.191C167.718 417.737 167.427 417.4 167.056 417.178C166.686 416.951 166.26 416.838 165.778 416.838C165.297 416.838 164.865 416.957 164.483 417.195C164.107 417.427 163.808 417.773 163.587 418.232C163.365 418.692 163.255 419.256 163.255 419.926V420.499C163.255 421.135 163.363 421.68 163.578 422.134C163.794 422.582 164.101 422.928 164.5 423.171C164.898 423.409 165.369 423.528 165.911 423.528C166.315 423.528 166.666 423.473 166.965 423.362C167.264 423.252 167.51 423.111 167.704 422.939C167.898 422.767 168.033 422.593 168.111 422.416L168.144 422.341H169.588L169.572 422.408C169.494 422.712 169.356 423.008 169.157 423.296C168.963 423.578 168.711 423.835 168.401 424.068C168.091 424.295 167.723 424.477 167.297 424.616C166.877 424.749 166.403 424.815 165.878 424.815ZM171.597 424.657V415.709H173.042V417.037H173.174C173.346 416.567 173.637 416.201 174.046 415.941C174.456 415.681 174.962 415.551 175.565 415.551C175.703 415.551 175.839 415.56 175.972 415.576C176.11 415.587 176.215 415.598 176.287 415.609V417.012C176.138 416.985 175.991 416.965 175.847 416.954C175.709 416.938 175.56 416.929 175.399 416.929C174.94 416.929 174.533 417.021 174.179 417.203C173.825 417.386 173.545 417.64 173.34 417.967C173.141 418.293 173.042 418.675 173.042 419.112V424.657H171.597ZM183.9 424.657L181.393 415.709H182.837L184.597 422.864H184.73L186.73 415.709H188.1L190.1 422.864H190.233L191.993 415.709H193.429L190.922 424.657H189.47L187.469 417.734H187.336L185.344 424.657H183.9ZM195.031 424.657V415.709H196.476V424.657H195.031ZM195.762 413.982C195.491 413.982 195.256 413.886 195.056 413.692C194.863 413.493 194.766 413.257 194.766 412.986C194.766 412.71 194.863 412.474 195.056 412.281C195.256 412.087 195.491 411.99 195.762 411.99C196.039 411.99 196.274 412.087 196.467 412.281C196.661 412.474 196.758 412.71 196.758 412.986C196.758 413.257 196.661 413.493 196.467 413.692C196.274 413.886 196.039 413.982 195.762 413.982ZM202.038 424.724C201.119 424.724 200.452 424.538 200.037 424.167C199.628 423.797 199.423 423.185 199.423 422.333V416.904H198.012V415.709H199.423V413.393H200.917V415.709H202.876V416.904H200.917V421.968C200.917 422.493 201.017 422.873 201.216 423.105C201.415 423.332 201.747 423.445 202.212 423.445C202.339 423.445 202.447 423.443 202.536 423.437C202.63 423.431 202.743 423.423 202.876 423.412V424.641C202.738 424.663 202.599 424.682 202.461 424.699C202.323 424.715 202.181 424.724 202.038 424.724ZM204.777 424.657V412.156H206.222V417.054H206.354C206.581 416.578 206.908 416.21 207.334 415.95C207.76 415.684 208.302 415.551 208.961 415.551C209.63 415.551 210.198 415.681 210.662 415.941C211.127 416.196 211.481 416.569 211.725 417.062C211.968 417.555 212.09 418.155 212.09 418.863V424.657H210.646V419.212C210.646 418.404 210.474 417.806 210.131 417.419C209.794 417.026 209.268 416.83 208.554 416.83C208.078 416.83 207.666 416.932 207.317 417.137C206.969 417.341 206.697 417.632 206.504 418.008C206.316 418.385 206.222 418.836 206.222 419.361V424.657H204.777ZM222.467 424.815C221.631 424.815 220.906 424.624 220.292 424.242C219.678 423.86 219.202 423.321 218.864 422.624C218.527 421.926 218.358 421.104 218.358 420.158V420.142C218.358 419.212 218.524 418.404 218.856 417.718C219.194 417.032 219.669 416.5 220.284 416.124C220.898 415.742 221.623 415.551 222.459 415.551C223.183 415.551 223.809 415.679 224.335 415.933C224.86 416.188 225.281 416.531 225.596 416.962C225.912 417.389 226.114 417.867 226.202 418.398L226.21 418.448H224.774L224.766 418.423C224.655 417.981 224.404 417.604 224.011 417.294C223.618 416.985 223.1 416.83 222.459 416.83C221.922 416.83 221.457 416.965 221.064 417.236C220.671 417.507 220.367 417.892 220.151 418.39C219.941 418.883 219.835 419.466 219.835 420.142V420.158C219.835 420.844 219.943 421.442 220.159 421.951C220.375 422.455 220.679 422.845 221.072 423.122C221.465 423.398 221.927 423.537 222.459 423.537C223.062 423.537 223.554 423.407 223.936 423.146C224.318 422.886 224.592 422.507 224.758 422.009L224.774 421.959L226.202 421.951L226.186 422.042C226.064 422.579 225.848 423.058 225.538 423.479C225.228 423.894 224.819 424.22 224.31 424.458C223.8 424.696 223.186 424.815 222.467 424.815ZM231.656 424.815C230.809 424.815 230.076 424.63 229.456 424.259C228.842 423.882 228.366 423.348 228.029 422.657C227.697 421.965 227.531 421.143 227.531 420.191V420.175C227.531 419.217 227.697 418.393 228.029 417.701C228.366 417.009 228.842 416.478 229.456 416.107C230.076 415.737 230.809 415.551 231.656 415.551C232.508 415.551 233.242 415.737 233.856 416.107C234.47 416.478 234.943 417.009 235.275 417.701C235.613 418.393 235.782 419.217 235.782 420.175V420.191C235.782 421.143 235.613 421.965 235.275 422.657C234.943 423.348 234.47 423.882 233.856 424.259C233.242 424.63 232.508 424.815 231.656 424.815ZM231.656 423.537C232.221 423.537 232.699 423.404 233.092 423.138C233.485 422.873 233.784 422.491 233.989 421.993C234.199 421.495 234.304 420.894 234.304 420.191V420.175C234.304 419.466 234.199 418.863 233.989 418.365C233.784 417.867 233.485 417.488 233.092 417.228C232.699 416.962 232.221 416.83 231.656 416.83C231.092 416.83 230.613 416.962 230.22 417.228C229.827 417.488 229.526 417.867 229.315 418.365C229.111 418.863 229.008 419.466 229.008 420.175V420.191C229.008 420.894 229.111 421.495 229.315 421.993C229.526 422.491 229.827 422.873 230.22 423.138C230.613 423.404 231.092 423.537 231.656 423.537ZM237.766 424.657V412.156H239.21V424.657H237.766ZM241.726 424.657V412.156H243.17V424.657H241.726ZM249.255 424.815C248.403 424.815 247.669 424.627 247.055 424.25C246.446 423.874 245.976 423.343 245.644 422.657C245.317 421.965 245.154 421.152 245.154 420.216V420.208C245.154 419.284 245.317 418.473 245.644 417.776C245.976 417.079 246.444 416.534 247.047 416.141C247.65 415.748 248.356 415.551 249.163 415.551C249.977 415.551 250.674 415.739 251.255 416.116C251.842 416.492 252.29 417.018 252.6 417.693C252.915 418.362 253.073 419.143 253.073 420.034V420.598H245.901V419.444H252.334L251.62 420.499V419.926C251.62 419.223 251.515 418.645 251.305 418.191C251.095 417.737 250.804 417.4 250.433 417.178C250.063 416.951 249.637 416.838 249.155 416.838C248.674 416.838 248.242 416.957 247.86 417.195C247.484 417.427 247.185 417.773 246.964 418.232C246.742 418.692 246.632 419.256 246.632 419.926V420.499C246.632 421.135 246.74 421.68 246.955 422.134C247.171 422.582 247.478 422.928 247.877 423.171C248.275 423.409 248.746 423.528 249.288 423.528C249.692 423.528 250.043 423.473 250.342 423.362C250.641 423.252 250.887 423.111 251.081 422.939C251.275 422.767 251.41 422.593 251.488 422.416L251.521 422.341H252.965L252.949 422.408C252.871 422.712 252.733 423.008 252.534 423.296C252.34 423.578 252.088 423.835 251.778 424.068C251.468 424.295 251.1 424.477 250.674 424.616C250.254 424.749 249.78 424.815 249.255 424.815ZM258.66 427.812C257.94 427.812 257.312 427.709 256.776 427.504C256.239 427.305 255.81 427.02 255.489 426.649C255.174 426.284 254.977 425.858 254.9 425.371L254.916 425.363H256.41L256.419 425.371C256.496 425.709 256.729 425.985 257.116 426.201C257.503 426.423 258.018 426.533 258.66 426.533C259.462 426.533 260.088 426.351 260.536 425.985C260.99 425.626 261.217 425.117 261.217 424.458V422.648H261.084C260.896 422.975 260.66 423.254 260.378 423.487C260.096 423.719 259.778 423.896 259.424 424.018C259.069 424.134 258.688 424.192 258.278 424.192C257.509 424.192 256.842 424.01 256.278 423.645C255.719 423.274 255.287 422.765 254.983 422.117C254.678 421.47 254.526 420.728 254.526 419.893V419.876C254.526 419.04 254.678 418.299 254.983 417.651C255.293 416.998 255.73 416.486 256.294 416.116C256.859 415.739 257.531 415.551 258.311 415.551C258.732 415.551 259.119 415.618 259.473 415.75C259.828 415.883 260.14 416.071 260.411 416.315C260.688 416.558 260.918 416.849 261.1 417.187H261.2V415.709H262.644V424.533C262.644 425.197 262.481 425.775 262.155 426.268C261.834 426.76 261.374 427.139 260.777 427.405C260.179 427.676 259.473 427.812 258.66 427.812ZM258.593 422.914C259.147 422.914 259.62 422.787 260.013 422.532C260.411 422.272 260.716 421.915 260.926 421.461C261.142 421.008 261.25 420.485 261.25 419.893V419.876C261.25 419.284 261.142 418.758 260.926 418.299C260.716 417.84 260.411 417.48 260.013 417.22C259.62 416.96 259.147 416.83 258.593 416.83C258.04 416.83 257.57 416.96 257.182 417.22C256.801 417.48 256.507 417.84 256.302 418.299C256.103 418.758 256.004 419.284 256.004 419.876V419.893C256.004 420.485 256.103 421.008 256.302 421.461C256.507 421.915 256.801 422.272 257.182 422.532C257.57 422.787 258.04 422.914 258.593 422.914ZM268.646 424.815C267.794 424.815 267.061 424.627 266.446 424.25C265.838 423.874 265.367 423.343 265.035 422.657C264.709 421.965 264.545 421.152 264.545 420.216V420.208C264.545 419.284 264.709 418.473 265.035 417.776C265.367 417.079 265.835 416.534 266.438 416.141C267.041 415.748 267.747 415.551 268.555 415.551C269.368 415.551 270.065 415.739 270.647 416.116C271.233 416.492 271.681 417.018 271.991 417.693C272.307 418.362 272.464 419.143 272.464 420.034V420.598H265.293V419.444H271.726L271.012 420.499V419.926C271.012 419.223 270.907 418.645 270.696 418.191C270.486 417.737 270.196 417.4 269.825 417.178C269.454 416.951 269.028 416.838 268.546 416.838C268.065 416.838 267.633 416.957 267.252 417.195C266.875 417.427 266.576 417.773 266.355 418.232C266.134 418.692 266.023 419.256 266.023 419.926V420.499C266.023 421.135 266.131 421.68 266.347 422.134C266.563 422.582 266.87 422.928 267.268 423.171C267.667 423.409 268.137 423.528 268.679 423.528C269.083 423.528 269.435 423.473 269.733 423.362C270.032 423.252 270.279 423.111 270.472 422.939C270.666 422.767 270.801 422.593 270.879 422.416L270.912 422.341H272.357L272.34 422.408C272.262 422.712 272.124 423.008 271.925 423.296C271.731 423.578 271.479 423.835 271.169 424.068C270.86 424.295 270.492 424.477 270.065 424.616C269.645 424.749 269.172 424.815 268.646 424.815ZM277.437 424.815C276.773 424.815 276.186 424.715 275.677 424.516C275.168 424.311 274.759 424.026 274.449 423.661C274.144 423.296 273.964 422.867 273.909 422.375H275.387C275.508 422.745 275.746 423.044 276.1 423.271C276.455 423.498 276.917 423.611 277.487 423.611C277.891 423.611 278.245 423.553 278.549 423.437C278.859 423.315 279.103 423.152 279.28 422.947C279.457 422.737 279.545 422.496 279.545 422.225V422.208C279.545 421.904 279.424 421.647 279.18 421.437C278.937 421.221 278.538 421.046 277.985 420.914L276.599 420.582C276.04 420.449 275.58 420.277 275.221 420.067C274.861 419.851 274.595 419.588 274.424 419.278C274.252 418.963 274.166 418.592 274.166 418.166V418.158C274.166 417.66 274.31 417.214 274.598 416.821C274.891 416.428 275.29 416.118 275.793 415.892C276.297 415.665 276.864 415.551 277.495 415.551C278.12 415.551 278.674 415.651 279.155 415.85C279.642 416.044 280.032 416.32 280.326 416.68C280.624 417.04 280.807 417.463 280.873 417.95H279.454C279.36 417.596 279.144 417.308 278.807 417.087C278.469 416.866 278.029 416.755 277.487 416.755C277.133 416.755 276.817 416.813 276.54 416.929C276.264 417.04 276.045 417.195 275.885 417.394C275.724 417.593 275.644 417.826 275.644 418.091V418.108C275.644 418.307 275.697 418.484 275.802 418.639C275.907 418.794 276.07 418.93 276.291 419.046C276.513 419.162 276.798 419.264 277.146 419.353L278.524 419.685C279.365 419.89 279.991 420.183 280.4 420.565C280.815 420.947 281.023 421.459 281.023 422.101V422.117C281.023 422.648 280.865 423.119 280.55 423.528C280.234 423.932 279.805 424.248 279.263 424.475C278.726 424.701 278.118 424.815 277.437 424.815Z" fill="white"/>
</svg>
