<svg width="402" height="305" viewBox="0 0 402 305" fill="none" xmlns="http://www.w3.org/2000/svg">
<g opacity="0.2">
<path d="M318.614 161.296C314.53 152.008 306.688 144.257 297.268 140.442C287.456 136.468 276.189 137.915 265.854 136.584C256.878 135.428 250.401 131.421 245.041 124.296C239.906 117.47 235.301 109.91 226.905 106.752C220.27 104.257 212.727 104.948 206.133 107.548C193.982 112.339 184.805 122.526 177.076 132.674C170.019 141.94 164.263 152.085 151.211 152.416C138.15 152.748 125.715 145.297 112.565 147.271C95.1839 149.881 80.7094 164.35 77.6761 181.575C74.8334 197.719 81.9667 213.376 94.2214 222.576H304.86C320.302 206.194 328.405 183.565 318.614 161.296Z" fill="#F7F0E3"/>
<path d="M128.2 222.576H128.779C132.803 218.153 135.956 212.786 137.959 206.829C141.203 197.186 141.066 187.067 137.575 178.334C135.81 173.921 133.262 169.808 130.798 165.831C128.298 161.797 125.714 157.626 123.96 153.156C123.235 151.307 122.7 149.323 122.377 147.298C122.232 147.279 122.087 147.264 121.941 147.246C122.265 149.343 122.816 151.398 123.566 153.31C125.334 157.816 127.928 162.004 130.437 166.054C132.892 170.016 135.43 174.113 137.181 178.491C140.635 187.131 140.769 197.147 137.558 206.694C135.529 212.725 132.311 218.143 128.2 222.576Z" fill="white"/>
<path d="M303.842 204.207C308.182 205.131 312.364 205.961 316.409 206.482C316.478 206.349 316.546 206.215 316.614 206.081C312.536 205.562 308.314 204.726 303.93 203.792C297.255 202.37 290.03 200.831 282.864 200.831C278.427 200.831 274.013 201.421 269.767 202.994C268.158 203.59 266.608 204.347 265.132 205.247C261.298 203.613 257.444 201.83 253.625 199.871C256.396 197.784 259.195 195.74 262.025 193.764C283.031 179.096 302.417 170.781 321.146 168.421C321.108 168.284 321.069 168.146 321.03 168.009C302.251 170.389 282.823 178.725 261.783 193.417C258.893 195.435 256.035 197.523 253.207 199.656C248.913 197.437 244.671 194.999 240.565 192.309C233.117 187.429 224.259 180.464 216.522 171.209C246.502 167.846 277.026 163.608 301.952 146.949C302.898 146.316 303.947 145.57 305.033 144.724C304.913 144.638 304.792 144.554 304.67 144.47C303.629 145.277 302.626 145.989 301.717 146.596C276.797 163.251 246.217 167.456 216.198 170.819C210.731 164.207 205.846 156.44 202.452 147.448C197.165 133.441 197.444 119.696 203.218 109.737C203.469 109.304 203.734 108.879 204.007 108.457C203.765 108.568 203.526 108.683 203.288 108.797C203.139 109.038 202.993 109.28 202.851 109.524C197.013 119.594 196.723 133.471 202.056 147.598C205.432 156.541 210.273 164.277 215.695 170.875C213.958 171.069 212.219 171.261 210.487 171.453C204.236 172.142 197.771 172.856 191.495 173.664C189.203 173.959 186.874 174.303 184.555 174.734C179.585 164.245 174.126 154.012 167.069 145.237C166.969 145.337 166.866 145.435 166.764 145.534C173.76 154.243 179.185 164.4 184.125 174.815C174.013 176.743 164.195 180.369 158.952 188.807C154.056 196.687 154.06 207.579 158.965 221.182C159.135 221.652 159.31 222.116 159.487 222.577H159.94C159.746 222.073 159.553 221.564 159.364 221.038C154.505 207.563 154.488 196.795 159.312 189.03C164.492 180.693 174.257 177.116 184.312 175.21C186.067 178.922 187.762 182.664 189.446 186.382L189.629 186.787C195.479 199.701 201.53 212.163 209.452 222.577H209.98C201.986 212.144 195.902 199.607 190.015 186.612L189.832 186.208C188.162 182.521 186.481 178.811 184.743 175.13C187.017 174.71 189.301 174.373 191.549 174.084C197.822 173.277 204.284 172.563 210.533 171.874C212.358 171.672 214.187 171.47 216.018 171.266C223.828 180.665 232.8 187.728 240.332 192.663C244.394 195.324 248.588 197.74 252.833 199.939C245.627 205.389 238.619 211.123 231.776 216.722C229.406 218.66 227.009 220.619 224.594 222.577H225.265C227.544 220.728 229.807 218.88 232.044 217.049C238.935 211.412 245.993 205.637 253.25 200.155C257.047 202.108 260.88 203.889 264.693 205.521C259.476 208.839 255.225 213.976 252.654 220.216C252.332 220.997 252.051 221.785 251.79 222.577H252.236C252.482 221.84 252.745 221.105 253.045 220.377C255.623 214.121 259.911 208.988 265.168 205.723C275.828 210.252 286.305 213.614 295.307 216.277L295.646 216.377C299.439 217.499 303.32 218.649 306.752 220.495C306.848 220.386 306.944 220.277 307.039 220.167C303.551 218.274 299.614 217.109 295.766 215.971L295.427 215.871C286.516 213.234 276.16 209.914 265.614 205.452C266.988 204.634 268.426 203.943 269.914 203.392C280.904 199.319 293.09 201.916 303.842 204.207Z" fill="white"/>
<path d="M95.2825 176.769C97.1534 184.427 96.3188 192.697 92.9924 199.46C90.8137 203.889 87.6674 207.899 83.792 211.342C83.8691 211.462 83.9479 211.581 84.0261 211.7C87.9644 208.211 91.1608 204.143 93.3726 199.647C96.7422 192.797 97.5883 184.421 95.6939 176.669C94.214 170.611 91.2388 165.481 87.1282 161.769C87.0366 161.876 86.9456 161.985 86.8551 162.093C90.8972 165.748 93.8244 170.801 95.2825 176.769Z" fill="white"/>
<path d="M191.149 79.7612C194.839 83.5319 196.493 89.8842 194.459 95.7408C192.489 101.412 188.17 106.109 182.982 109.129C178.807 111.558 173.361 112.899 169.256 110.354C166.188 108.453 164.597 104.723 164.508 101.114C164.42 97.5061 165.633 93.9896 167.133 90.7066C169.247 86.0788 172.093 81.5911 176.331 78.7769C182.174 74.8978 187.602 76.1368 191.149 79.7612Z" fill="#F7F0E3"/>
</g>
<path d="M142.237 13.6499H111.682V0H142.237V13.6499ZM112.317 13.0146H141.601V0.635361H112.317V13.0146Z" fill="#E9DDCA"/>
<path d="M122.359 26.7037H91.8037V13.0537H122.359V26.7037ZM92.4391 26.0683H121.723V13.6891H92.4391V26.0683Z" fill="#E9DDCA"/>
<path d="M316.088 41.2484C314.11 34.6696 310.63 28.6296 305.648 23.1076C300.657 17.5855 293.849 13.027 285.225 9.4217C276.601 5.81624 265.644 4.01367 252.354 4.01367C241.751 4.01367 230.946 5.44332 219.938 8.30278C208.92 11.1726 199.363 15.2545 191.257 20.559L201.808 49.5279L196.153 54.1091L204.355 56.5194C212.451 52.282 219.827 49.2051 226.482 47.2884C233.128 45.3821 240.189 44.4289 247.676 44.4289C255.154 44.4289 260.815 46.2317 264.66 49.8369C268.505 53.4527 270.423 57.7935 270.423 62.8908C270.423 69.0449 268.444 74.5047 264.508 79.2808C260.551 84.0568 256.188 88.8847 251.41 93.7645C248.092 97.1522 244.866 100.654 241.751 104.259C238.637 107.875 235.877 111.74 233.493 115.884C231.098 120.017 229.181 124.472 227.73 129.248C226.269 134.025 225.549 139.381 225.549 145.317C225.549 147.234 225.589 149.513 225.701 152.165C225.72 152.655 225.745 153.132 225.775 153.602H218.021L226.482 159.324H267.623C267.41 158.05 267.308 156.568 267.308 154.869C267.308 153.17 267.308 151.896 267.308 151.046C267.308 147.441 268.039 143.888 269.49 140.386C270.94 136.884 272.767 133.548 274.948 130.357C277.129 127.177 279.564 124.151 282.273 121.292C284.972 118.422 287.569 115.718 290.065 113.169C293.383 109.782 296.812 106.176 300.342 102.353C303.873 98.5305 306.998 94.5106 309.697 90.263C312.395 86.0154 314.627 81.4051 316.393 76.4113C318.158 71.4281 319.051 65.9682 319.051 60.0214C319.051 54.0847 318.056 47.8272 316.088 41.2484Z" fill="#F2935C"/>
<path d="M238.967 42.4084C231.567 42.4084 224.589 43.3308 218.021 45.1757C211.444 47.0307 204.155 50.0086 196.153 54.1094L183.209 19.3074C191.22 14.1738 200.665 10.2234 211.554 7.44595C222.433 4.67865 233.111 3.29492 243.589 3.29492C256.724 3.29492 267.552 5.03954 276.075 8.52878C284.597 12.018 291.325 16.4296 296.258 21.7738C301.181 27.1179 304.62 32.9634 306.575 39.3302C308.521 45.6971 309.503 51.7532 309.503 57.4984C309.503 63.2535 308.621 68.5376 306.876 73.3604C305.132 78.1932 302.926 82.6549 300.259 86.7658C297.592 90.8767 294.504 94.767 291.014 98.4668C287.525 102.167 284.136 105.656 280.857 108.935C278.391 111.401 275.824 114.018 273.157 116.795C270.48 119.563 268.074 122.49 265.918 125.569C263.762 128.657 261.957 131.885 260.523 135.274C259.09 138.663 258.368 142.102 258.368 145.591C258.368 146.414 258.368 147.647 258.368 149.291C258.368 150.936 258.468 152.369 258.679 153.603H218.021C217.6 151.547 217.349 149.241 217.249 146.674C217.139 144.108 217.099 141.902 217.099 140.047C217.099 134.302 217.811 129.118 219.254 124.496C220.688 119.874 222.583 115.562 224.949 111.562C227.306 107.551 230.033 103.811 233.111 100.312C236.189 96.8225 239.377 93.4335 242.656 90.1549C247.379 85.4324 251.69 80.76 255.601 76.1378C259.491 71.5156 261.446 66.2316 261.446 60.2758C261.446 55.3427 259.551 51.1417 255.751 47.6425C251.951 44.1531 246.356 42.4084 238.967 42.4084Z" fill="#F2935C"/>
<path d="M270.439 199.257C270.439 206.675 268.038 212.398 263.236 216.436C258.433 220.481 253.006 222.496 246.946 222.496C240.877 222.496 235.45 220.481 230.647 216.436C225.853 212.398 223.452 206.675 223.452 199.257C223.452 191.849 225.853 186.125 230.647 182.079C238.04 175.841 248.976 174.451 257.631 178.829C265.311 182.715 270.439 190.604 270.439 199.257Z" fill="#F2935C"/>
<path d="M262.39 199.258C262.39 206.675 259.989 212.399 255.187 216.436C250.384 220.482 244.957 222.497 238.897 222.497C232.828 222.497 227.401 220.482 222.598 216.436C217.804 212.399 215.403 206.675 215.403 199.258C215.403 191.849 217.804 186.126 222.598 182.08C227.401 178.043 232.828 176.02 238.897 176.02C244.957 176.02 250.384 178.042 255.187 182.08C259.989 186.126 262.39 191.849 262.39 199.258Z" fill="#F2935C"/>
<path d="M140.596 94.1006C141.047 91.6955 139.462 89.3804 137.057 88.9297C134.652 88.479 132.337 90.0633 131.886 92.4684C131.436 94.8735 133.02 97.1886 135.425 97.6394C137.83 98.0901 140.145 96.5057 140.596 94.1006Z" fill="#E8CCBC"/>
<path d="M142.716 102.429C142.969 101.077 142.07 99.773 140.708 99.5177C139.346 99.2624 138.036 100.152 137.782 101.505C137.529 102.857 138.428 104.161 139.79 104.416C141.152 104.672 142.462 103.782 142.716 102.429Z" fill="#E8CCBC"/>
<path d="M137.642 83.3166C144.455 76.5041 144.455 65.4588 137.642 58.6463C130.83 51.8338 119.784 51.8338 112.972 58.6463C106.159 65.4588 106.159 76.5041 112.972 83.3166C119.784 90.1291 130.83 90.1291 137.642 83.3166Z" fill="#E8CCBC"/>
<path d="M118.61 73.1789C119.824 73.1789 120.808 72.1949 120.808 70.9811C120.808 69.7672 119.824 68.7832 118.61 68.7832C117.396 68.7832 116.412 69.7672 116.412 70.9811C116.412 72.1949 117.396 73.1789 118.61 73.1789Z" fill="white"/>
<path d="M125.309 73.1789C126.523 73.1789 127.507 72.1949 127.507 70.9811C127.507 69.7672 126.523 68.7832 125.309 68.7832C124.095 68.7832 123.111 69.7672 123.111 70.9811C123.111 72.1949 124.095 73.1789 125.309 73.1789Z" fill="white"/>
<path d="M132.007 73.1789C133.221 73.1789 134.205 72.1949 134.205 70.9811C134.205 69.7672 133.221 68.7832 132.007 68.7832C130.794 68.7832 129.81 69.7672 129.81 70.9811C129.81 72.1949 130.794 73.1789 132.007 73.1789Z" fill="white"/>
<path d="M112.812 213.764L114.442 220.048C114.867 221.687 116.451 222.794 118.204 222.675C123.548 222.311 134.652 221.002 141.026 216.305L139.214 207.249C130.451 206.754 122.256 207.241 115.161 209.63C113.384 210.228 112.356 212.009 112.812 213.764Z" fill="#102048"/>
<path d="M123.024 218.766C122.932 218.766 122.847 218.704 122.82 218.611L120.632 210.775C120.6 210.662 120.666 210.545 120.779 210.514C120.892 210.482 121.009 210.548 121.04 210.661L123.229 218.497C123.26 218.609 123.194 218.726 123.082 218.758C123.062 218.763 123.043 218.766 123.024 218.766Z" fill="white"/>
<path d="M127.755 217.706C127.662 217.706 127.577 217.645 127.551 217.551L125.362 209.715C125.331 209.602 125.397 209.486 125.509 209.454C125.623 209.423 125.739 209.489 125.77 209.601L127.959 217.437C127.99 217.55 127.925 217.667 127.812 217.698C127.793 217.704 127.774 217.706 127.755 217.706Z" fill="white"/>
<path d="M133.248 179.797L112.882 185.842L128.007 206.565L149.72 208.292L179.67 195.628L168.289 178.502L133.248 179.797Z" fill="#F2935C"/>
<path d="M158.355 182.675C203.081 169.435 210.269 208.964 140.485 216.159C138.02 213.386 135.14 208.573 133.996 204.55L170.848 187.52L158.355 182.675Z" fill="#F2935C"/>
<path d="M160.256 211.005C158.164 210.335 156.16 209.012 156.16 209.012L148.972 211.266L150.619 219.086L158.086 220.603C160.361 216.442 160.494 213.026 160.256 211.005Z" fill="#F9B384"/>
<path d="M134.157 204.825L133.838 204.276C141.526 199.808 161.218 189.074 177.996 185.908L178.114 186.533C161.433 189.68 141.817 200.374 134.157 204.825Z" fill="#F2935C"/>
<path d="M133.248 179.797C91.6171 171.882 80.8351 211.89 150.619 219.086C153.084 216.312 155.016 213.035 156.159 209.012C145.44 201.839 133.455 195.022 120.319 188.528L133.248 179.797Z" fill="#F2935C"/>
<path d="M155.989 209.279C154.009 208.019 151.945 206.687 149.761 205.276C138.794 198.195 126.364 190.17 115.804 185.594L116.056 185.011C126.665 189.608 139.118 197.648 150.105 204.742C152.289 206.152 154.352 207.484 156.33 208.743L155.989 209.279Z" fill="#F2935C"/>
<path d="M102.705 199.635L102.148 199.328C103.711 196.499 106.214 194.59 109.588 193.656L109.757 194.268C106.509 195.168 104.202 196.924 102.705 199.635Z" fill="#F2935C"/>
<path d="M189.593 197.226C188.095 194.514 185.788 192.759 182.54 191.859L182.71 191.247C186.083 192.181 188.586 194.09 190.149 196.919L189.593 197.226Z" fill="#F2935C"/>
<path d="M146.72 218.734L146.256 218.301C149.586 214.734 151.631 210.969 152.509 206.79L153.13 206.921C152.229 211.216 150.132 215.081 146.72 218.734Z" fill="#F2935C"/>
<path d="M181.019 208.675C175.685 205.38 165.345 211.074 162.75 211.362C161.993 211.446 161.117 211.28 160.257 211.005C160.494 213.026 160.362 216.442 158.087 220.602L159.355 220.86C159.355 220.86 168.124 224.074 177.425 222.203C186.011 220.476 185.212 211.266 181.019 208.675Z" fill="#102048"/>
<path d="M173.748 219.454C173.727 219.454 173.705 219.451 173.684 219.444C173.573 219.409 173.511 219.29 173.546 219.179C174.18 217.172 174.456 213.225 172.621 210.574C172.554 210.478 172.578 210.346 172.674 210.279C172.77 210.212 172.902 210.236 172.969 210.333C174.891 213.109 174.608 217.22 173.95 219.306C173.921 219.396 173.838 219.454 173.748 219.454Z" fill="white"/>
<path d="M169.565 220.248C169.544 220.248 169.523 220.245 169.501 220.238C169.39 220.203 169.328 220.084 169.363 219.972C169.997 217.966 170.273 214.019 168.438 211.368C168.371 211.271 168.396 211.139 168.492 211.073C168.587 211.006 168.719 211.03 168.786 211.126C170.708 213.903 170.426 218.014 169.767 220.1C169.739 220.19 169.655 220.248 169.565 220.248Z" fill="white"/>
<path d="M125.883 128.212C125.883 128.212 136.368 119.296 135.98 117.602C135.702 116.391 132.732 118.167 132.732 118.167C132.732 118.167 136.897 113.225 136.686 112.625C136.307 111.553 133.427 113.552 133.427 113.552C133.427 113.552 135.374 110.749 134.443 110.292C133.512 109.836 131.482 111.563 131.482 111.563C131.482 111.563 132.668 110.007 132.111 109.599C131.554 109.19 129.151 110.869 129.151 110.869C129.151 110.869 130.013 108.907 128.181 109.651C126.349 110.395 113.503 122.183 113.503 122.183L125.883 128.212Z" fill="#F9B384"/>
<path d="M130.172 117.638C130.121 117.638 130.07 117.619 130.029 117.582C128.229 115.938 127.436 115.539 125.45 114.928C125.339 114.894 125.276 114.775 125.31 114.663C125.345 114.552 125.463 114.488 125.575 114.523C127.632 115.156 128.454 115.569 130.315 117.27C130.401 117.348 130.407 117.482 130.329 117.569C130.287 117.614 130.229 117.638 130.172 117.638Z" fill="#E28B6D"/>
<path d="M127.014 122.473C127.004 122.473 126.994 122.473 126.984 122.471C126.868 122.455 126.788 122.348 126.804 122.232C127.01 120.758 127.474 119.837 128.223 119.416C128.863 119.056 129.695 119.093 130.698 119.526C130.805 119.572 130.855 119.697 130.808 119.804C130.762 119.911 130.637 119.961 130.53 119.914C129.656 119.537 128.949 119.493 128.43 119.785C127.813 120.132 127.407 120.975 127.223 122.291C127.208 122.397 127.118 122.473 127.014 122.473Z" fill="#E28B6D"/>
<path d="M126.519 113.561C126.463 113.561 126.407 113.538 126.365 113.494C126.285 113.409 126.289 113.275 126.374 113.195L129.005 110.715C129.09 110.634 129.224 110.639 129.304 110.724C129.385 110.809 129.381 110.943 129.296 111.023L126.665 113.503C126.624 113.542 126.572 113.561 126.519 113.561Z" fill="#E28B6D"/>
<path d="M128.955 114.407C128.902 114.407 128.849 114.388 128.808 114.348C128.724 114.267 128.721 114.133 128.802 114.049L131.329 111.416C131.41 111.331 131.544 111.329 131.629 111.41C131.713 111.491 131.716 111.625 131.635 111.709L129.108 114.342C129.066 114.386 129.011 114.407 128.955 114.407Z" fill="#E28B6D"/>
<path d="M131.443 115.89C131.392 115.89 131.34 115.871 131.299 115.833C131.213 115.753 131.209 115.619 131.288 115.534L133.271 113.407C133.351 113.322 133.485 113.317 133.57 113.397C133.656 113.476 133.661 113.61 133.581 113.696L131.598 115.823C131.556 115.868 131.5 115.89 131.443 115.89Z" fill="#E28B6D"/>
<path d="M165.488 187.843L127.155 189.326L122.919 154.381C122.919 154.381 135.752 142.209 140.689 137.726L149.024 137.299C174.885 149.054 170.65 163.735 165.488 187.843Z" fill="#263238"/>
<path d="M149.024 137.299C149.024 137.299 178.61 139.829 187.938 160.099C197.064 179.933 159.558 186.996 159.558 186.996L149.024 137.299Z" fill="#263238"/>
<path d="M115.206 141.643L127.432 126.765L115.999 119.836C111.23 123.152 102.007 130.663 94.1918 139.168C92.4667 141.046 91.1192 143.238 90.4405 145.653C89.8614 147.713 89.7561 149.748 90.0816 151.741C90.93 156.935 95.0156 160.943 100.469 161.582C105.127 162.127 122.919 160.735 137.32 156.499L141.556 140.151C139.38 138.916 123.203 138.701 115.206 141.643Z" fill="#263238"/>
<g opacity="0.8">
<path d="M173.715 145.344C173.779 145.329 173.842 145.315 173.906 145.3C173.772 145.221 173.638 145.144 173.504 145.066C171.336 145.565 169.099 146.075 166.894 146.341C165.569 146.501 161.141 146.793 159.847 143.843C159.203 142.376 159.69 140.743 160.418 139.598C160.312 139.567 160.207 139.537 160.101 139.507C159.355 140.72 158.877 142.423 159.556 143.971C160.937 147.122 165.551 146.823 166.932 146.657C169.201 146.383 171.496 145.855 173.715 145.344Z" fill="white"/>
<path d="M187.523 168.205C186.109 167.659 184.649 167.094 183.114 167.239C180.421 167.493 178.117 170.156 177.977 173.174C177.882 175.232 178.668 177.389 180.167 179.286C180.258 179.23 180.347 179.173 180.437 179.116C178.972 177.273 178.203 175.18 178.295 173.189C178.428 170.323 180.603 167.795 183.144 167.555C184.603 167.42 185.966 167.944 187.408 168.501C187.923 168.7 188.446 168.9 188.978 169.071C189.006 168.968 189.032 168.866 189.057 168.762C188.539 168.595 188.027 168.399 187.523 168.205Z" fill="white"/>
<path d="M112.847 158.102C111 156.575 108.13 156.166 104.974 156.982C102.162 157.71 99.7485 159.15 98.0908 161.057C98.1998 161.092 98.3062 161.132 98.4166 161.164C100.029 159.355 102.352 157.988 105.053 157.29C108.109 156.499 110.876 156.885 112.644 158.347C113.485 159.042 114.079 159.944 114.511 160.918C114.62 160.905 114.729 160.893 114.839 160.88C114.387 159.833 113.757 158.855 112.847 158.102Z" fill="white"/>
<path d="M96.1475 137.091C99.6086 136.231 102.986 135.023 106.101 133.228C107.278 132.55 108.607 131.686 109.542 130.417C110.536 129.066 110.867 127.458 110.426 126.116C110.253 125.59 109.947 125.127 109.564 124.757C109.483 124.823 109.401 124.89 109.32 124.957C109.677 125.297 109.963 125.726 110.124 126.215C110.533 127.46 110.22 128.96 109.286 130.228C108.387 131.45 107.091 132.292 105.943 132.953C103.004 134.646 99.8263 135.816 96.5617 136.662C96.4233 136.804 96.2854 136.947 96.1475 137.091Z" fill="white"/>
</g>
<path d="M151.732 129.53L151.727 130.073L151.641 138.499L151.63 139.411C151.614 140.84 151.029 142.134 150.084 143.074C149.144 144.008 147.85 144.594 146.416 144.604C143.527 144.62 141.164 142.3 141.137 139.406L141.035 128.993L151.732 129.53Z" fill="#F9B384"/>
<path d="M151.727 130.072L151.641 138.498C146.958 136.592 145.03 131.522 145.03 131.522L151.727 130.072Z" fill="#102048"/>
<path d="M153.579 115.369C155.257 117.383 160.157 128.795 155.19 132.688C149.6 137.069 141.093 129.869 141.093 129.869L139.952 116.578L147.336 114.631L153.579 115.369Z" fill="#F9B384"/>
<path d="M136.191 114.637C136.191 114.637 119.813 123.179 133.167 147.802C134.882 150.965 138.681 152.345 141.931 150.802C145.418 149.147 146.738 144.888 144.845 141.524C142.66 137.644 140.552 132.647 141.452 128.928L136.191 114.637Z" fill="#102048"/>
<path d="M140.869 121.812C142.599 120.082 142.599 117.277 140.869 115.547C139.139 113.817 136.334 113.817 134.603 115.547C132.873 117.277 132.873 120.082 134.603 121.812C136.334 123.543 139.139 123.543 140.869 121.812Z" fill="#F2935C"/>
<path d="M143.187 124.004C142.708 121.24 142.417 119.344 145.21 117.92C145.21 117.92 155.055 119.71 156.935 115.995C158.815 112.281 155.95 106.419 149.954 110.491C134.604 107.492 132.546 121.858 137.2 126.646L141.793 125.941C142.718 125.799 143.346 124.925 143.187 124.004Z" fill="#102048"/>
<path d="M150.811 124.666C151.172 124.666 151.465 124.373 151.465 124.012C151.465 123.65 151.172 123.357 150.811 123.357C150.449 123.357 150.156 123.65 150.156 124.012C150.156 124.373 150.449 124.666 150.811 124.666Z" fill="#102048"/>
<path d="M155.241 122.484C155.603 122.484 155.896 122.191 155.896 121.829C155.896 121.468 155.603 121.175 155.241 121.175C154.88 121.175 154.587 121.468 154.587 121.829C154.587 122.191 154.88 122.484 155.241 122.484Z" fill="#102048"/>
<path d="M154.788 126.026C154.742 126.026 154.697 126.009 154.661 125.975C154.587 125.905 154.584 125.788 154.654 125.713C154.917 125.437 155.204 125.048 155.083 124.767C154.958 124.474 154.427 124.348 154.184 124.348C153.662 124.348 153.411 123.419 153.367 123.233C153.343 123.133 153.404 123.033 153.503 123.009C153.602 122.985 153.703 123.046 153.727 123.146C153.822 123.538 154.038 123.977 154.184 123.977C154.434 123.977 155.199 124.096 155.424 124.621C155.585 124.996 155.416 125.449 154.923 125.968C154.886 126.007 154.837 126.026 154.788 126.026Z" fill="#102048"/>
<path d="M154.821 128.51C154.785 128.51 154.749 128.499 154.717 128.478C153.485 127.646 152.241 128.344 152.228 128.351C152.14 128.402 152.026 128.371 151.975 128.282C151.924 128.194 151.954 128.08 152.043 128.029C152.102 127.996 153.502 127.211 154.924 128.171C155.009 128.228 155.032 128.343 154.974 128.428C154.939 128.481 154.88 128.51 154.821 128.51Z" fill="#102048"/>
<path d="M150.524 121.177C150.896 121.878 150.247 122.019 149.487 122.423C148.727 122.827 147.948 122.975 147.771 122.64C147.593 122.306 148.065 121.708 148.826 121.304C149.586 120.9 150.235 120.635 150.524 121.177Z" fill="#102048"/>
<path d="M153.296 119.912C153.46 120.538 153.926 120.264 154.605 120.086C155.283 119.908 155.831 119.567 155.753 119.269C155.675 118.971 155.062 118.873 154.383 119.05C153.705 119.228 153.169 119.428 153.296 119.912Z" fill="#102048"/>
<path opacity="0.4" d="M149.105 128.484C149.889 127.761 149.938 126.54 149.215 125.757C148.493 124.973 147.272 124.924 146.488 125.647C145.705 126.369 145.655 127.59 146.378 128.374C147.101 129.157 148.322 129.207 149.105 128.484Z" fill="#EB5D60"/>
<path d="M142.811 128.877C143.693 127.734 143.355 125.995 142.057 124.993C140.758 123.991 138.99 124.105 138.108 125.248C137.227 126.391 137.564 128.13 138.863 129.132C140.162 130.134 141.929 130.02 142.811 128.877Z" fill="#F9B384"/>
<path d="M141.609 128.041C141.507 128.041 141.424 127.959 141.424 127.856C141.424 127.309 141.157 126.803 140.711 126.503C140.329 126.246 139.873 126.186 139.493 126.341C139.398 126.379 139.29 126.334 139.251 126.239C139.212 126.145 139.258 126.037 139.353 125.998C139.848 125.796 140.433 125.87 140.917 126.196C141.467 126.565 141.795 127.185 141.795 127.856C141.794 127.959 141.712 128.041 141.609 128.041Z" fill="#102048"/>
<path d="M115.048 141.493L108.36 148.727L108.671 149.014L115.359 141.78L115.048 141.493Z" fill="#102048"/>
<path d="M162.161 172.586L162.037 172.181C166.905 170.698 171.63 168.923 175.911 163.568L176.242 163.833C171.885 169.282 167.095 171.083 162.161 172.586Z" fill="#102048"/>
<path d="M165.122 156.184H123.71C122.221 156.184 121.014 157.49 121.014 159.101V188.667C121.014 190.279 122.221 191.585 123.71 191.585H165.122C166.611 191.585 167.819 190.279 167.819 188.667V159.101C167.819 157.49 166.611 156.184 165.122 156.184Z" fill="#E8CCBC"/>
<path d="M146.602 172.016C146.759 172.016 146.886 172.154 146.886 172.324V175.446C146.886 175.616 146.759 175.754 146.602 175.754H142.229C142.072 175.754 141.945 175.616 141.945 175.446V172.324C141.945 172.154 142.072 172.016 142.229 172.016H146.602ZM146.602 171.169H142.229C141.605 171.169 141.098 171.687 141.098 172.324V175.446C141.098 176.083 141.605 176.601 142.229 176.601H146.602C147.226 176.601 147.734 176.083 147.734 175.446V172.324C147.734 171.687 147.226 171.169 146.602 171.169Z" fill="#1F3C88"/>
<path d="M325.843 222.153H76.1582V223H325.843V222.153Z" fill="#102048"/>
<path d="M91.4384 274.2C90.1717 274.2 89.0917 273.92 88.1984 273.36C87.3184 272.8 86.645 272.007 86.1784 270.98C85.7117 269.94 85.4784 268.713 85.4784 267.3C85.4784 265.9 85.7317 264.687 86.2384 263.66C86.7584 262.62 87.4917 261.82 88.4384 261.26C89.3984 260.687 90.5384 260.4 91.8584 260.4C93.0584 260.4 94.085 260.607 94.9384 261.02C95.7917 261.42 96.4517 261.993 96.9184 262.74C97.385 263.473 97.6184 264.36 97.6184 265.4V265.54H95.3384V265.4C95.3384 264.373 95.0584 263.633 94.4984 263.18C93.9517 262.713 93.0384 262.48 91.7584 262.48C90.825 262.48 90.0584 262.64 89.4584 262.96C88.8717 263.28 88.445 263.793 88.1784 264.5C87.9117 265.207 87.7784 266.14 87.7784 267.3C87.7784 268.46 87.9184 269.393 88.1984 270.1C88.4784 270.793 88.925 271.3 89.5384 271.62C90.165 271.94 90.965 272.1 91.9384 272.1C92.765 272.1 93.445 272.013 93.9784 271.84C94.5117 271.667 94.9117 271.373 95.1784 270.96C95.445 270.547 95.5784 269.993 95.5784 269.3V268.68H97.6584V268.98L95.8584 271.9H95.5784C95.4184 272.313 95.1517 272.693 94.7784 273.04C94.4184 273.387 93.9584 273.667 93.3984 273.88C92.8517 274.093 92.1984 274.2 91.4384 274.2ZM97.6584 274H95.6784V270.6L95.5784 270.4V267.5H97.6584V274ZM97.6584 268.98H91.3784V267.12H97.6584V268.98ZM104.244 274.2C103.164 274.2 102.264 273.987 101.544 273.56C100.824 273.12 100.29 272.513 99.9437 271.74C99.597 270.953 99.4237 270.047 99.4237 269.02C99.4237 267.993 99.617 267.093 100.004 266.32C100.404 265.547 100.964 264.947 101.684 264.52C102.404 264.08 103.257 263.86 104.244 263.86C105.137 263.86 105.924 264.033 106.604 264.38C107.297 264.713 107.83 265.2 108.204 265.84C108.59 266.48 108.784 267.253 108.784 268.16C108.784 268.427 108.77 268.687 108.744 268.94C108.73 269.18 108.71 269.38 108.684 269.54H100.444V268.1H106.924L106.704 268.3C106.757 267.687 106.69 267.187 106.504 266.8C106.33 266.413 106.044 266.127 105.644 265.94C105.257 265.753 104.77 265.66 104.184 265.66C103.13 265.66 102.41 265.927 102.024 266.46C101.637 266.98 101.444 267.7 101.444 268.62V269.22C101.444 269.887 101.524 270.453 101.684 270.92C101.857 271.373 102.15 271.713 102.564 271.94C102.977 272.167 103.544 272.28 104.264 272.28C105.104 272.28 105.697 272.147 106.044 271.88C106.39 271.613 106.564 271.26 106.564 270.82V270.66H108.704V270.84C108.704 271.52 108.517 272.113 108.144 272.62C107.77 273.113 107.25 273.5 106.584 273.78C105.93 274.06 105.15 274.2 104.244 274.2ZM114.57 274C113.476 274 112.636 273.767 112.05 273.3C111.476 272.833 111.19 272.047 111.19 270.94V264.28L111.69 261.6H113.35V270.84C113.35 271.36 113.476 271.693 113.73 271.84C113.996 271.973 114.47 272.04 115.15 272.04H116.35V273.82C116.15 273.873 115.89 273.92 115.57 273.96C115.25 273.987 114.916 274 114.57 274ZM116.35 265.86H109.53V264.06H116.35V265.86ZM130.021 274H128.021V272.04L127.961 271.5V267.68C127.961 266.933 127.781 266.427 127.421 266.16C127.074 265.893 126.508 265.76 125.721 265.76C124.934 265.76 124.368 265.9 124.021 266.18C123.688 266.46 123.521 266.927 123.521 267.58V267.88H121.441V267.68C121.441 266.933 121.621 266.273 121.981 265.7C122.354 265.127 122.868 264.68 123.521 264.36C124.188 264.027 124.961 263.86 125.841 263.86C126.774 263.86 127.548 264.033 128.161 264.38C128.774 264.727 129.234 265.207 129.541 265.82C129.861 266.42 130.021 267.133 130.021 267.96V274ZM124.321 274.2C123.428 274.2 122.674 273.973 122.061 273.52C121.461 273.053 121.161 272.393 121.161 271.54C121.161 270.98 121.288 270.513 121.541 270.14C121.808 269.767 122.188 269.46 122.681 269.22C123.174 268.98 123.774 268.813 124.481 268.72L128.161 268.2V269.72L124.801 270.22C124.228 270.3 123.828 270.42 123.601 270.58C123.374 270.74 123.261 271.007 123.261 271.38C123.261 271.767 123.394 272.047 123.661 272.22C123.941 272.393 124.394 272.48 125.021 272.48C125.501 272.48 125.961 272.407 126.401 272.26C126.854 272.1 127.228 271.84 127.521 271.48C127.814 271.107 127.961 270.587 127.961 269.92L128.241 272.46L127.921 272.44C127.734 272.747 127.474 273.033 127.141 273.3C126.821 273.567 126.428 273.787 125.961 273.96C125.494 274.12 124.948 274.2 124.321 274.2ZM141.349 274H139.189V268.22C139.189 267.34 139.023 266.707 138.689 266.32C138.356 265.92 137.729 265.72 136.809 265.72C136.223 265.72 135.743 265.807 135.369 265.98C134.996 266.14 134.716 266.407 134.529 266.78C134.343 267.14 134.249 267.633 134.249 268.26H133.869L133.689 265.92H134.169C134.316 265.56 134.536 265.227 134.829 264.92C135.123 264.613 135.496 264.36 135.949 264.16C136.416 263.96 136.969 263.86 137.609 263.86C138.476 263.86 139.183 264.027 139.729 264.36C140.276 264.693 140.683 265.153 140.949 265.74C141.216 266.327 141.349 267 141.349 267.76V274ZM134.249 274H132.089V264.06H134.069V267.04L134.249 267.14V274ZM147.539 274.2C146.085 274.2 144.985 273.913 144.239 273.34C143.492 272.753 143.119 271.853 143.119 270.64V270.6H145.199V270.96C145.199 271.307 145.265 271.593 145.399 271.82C145.545 272.033 145.785 272.193 146.119 272.3C146.465 272.393 146.952 272.44 147.579 272.44C148.112 272.44 148.512 272.4 148.779 272.32C149.059 272.227 149.245 272.1 149.339 271.94C149.432 271.78 149.479 271.58 149.479 271.34C149.479 270.94 149.339 270.66 149.059 270.5C148.779 270.327 148.279 270.173 147.559 270.04L145.999 269.78C145.412 269.66 144.899 269.493 144.459 269.28C144.032 269.053 143.699 268.747 143.459 268.36C143.232 267.96 143.119 267.46 143.119 266.86C143.119 265.967 143.472 265.247 144.179 264.7C144.885 264.14 145.885 263.86 147.179 263.86C147.965 263.86 148.665 263.987 149.279 264.24C149.892 264.493 150.379 264.873 150.739 265.38C151.099 265.887 151.279 266.52 151.279 267.28V267.46H149.219V267.22C149.219 266.9 149.165 266.627 149.059 266.4C148.952 266.16 148.752 265.973 148.459 265.84C148.165 265.707 147.719 265.64 147.119 265.64C146.332 265.64 145.812 265.74 145.559 265.94C145.305 266.14 145.179 266.433 145.179 266.82C145.179 267.207 145.292 267.48 145.519 267.64C145.759 267.787 146.225 267.933 146.919 268.08L148.619 268.4C149.259 268.52 149.792 268.7 150.219 268.94C150.645 269.18 150.965 269.493 151.179 269.88C151.405 270.267 151.519 270.727 151.519 271.26C151.519 272.193 151.165 272.92 150.459 273.44C149.765 273.947 148.792 274.2 147.539 274.2ZM157.447 274H154.627L152.167 264.06H154.507L155.647 269.58L156.067 272.2H156.227L156.867 269.58L158.607 264.06H161.407L163.167 269.6L163.807 272.18H163.947L164.367 269.6L165.507 264.06H167.767L165.307 274H162.487L160.707 268.46L160.047 265.96H159.907L159.247 268.46L157.447 274ZM172.916 274.2C171.836 274.2 170.936 273.987 170.216 273.56C169.496 273.12 168.962 272.513 168.616 271.74C168.269 270.953 168.096 270.047 168.096 269.02C168.096 267.993 168.289 267.093 168.676 266.32C169.076 265.547 169.636 264.947 170.356 264.52C171.076 264.08 171.929 263.86 172.916 263.86C173.809 263.86 174.596 264.033 175.276 264.38C175.969 264.713 176.502 265.2 176.876 265.84C177.262 266.48 177.456 267.253 177.456 268.16C177.456 268.427 177.442 268.687 177.416 268.94C177.402 269.18 177.382 269.38 177.356 269.54H169.116V268.1H175.596L175.376 268.3C175.429 267.687 175.362 267.187 175.176 266.8C175.002 266.413 174.716 266.127 174.316 265.94C173.929 265.753 173.442 265.66 172.856 265.66C171.802 265.66 171.082 265.927 170.696 266.46C170.309 266.98 170.116 267.7 170.116 268.62V269.22C170.116 269.887 170.196 270.453 170.356 270.92C170.529 271.373 170.822 271.713 171.236 271.94C171.649 272.167 172.216 272.28 172.936 272.28C173.776 272.28 174.369 272.147 174.716 271.88C175.062 271.613 175.236 271.26 175.236 270.82V270.66H177.376V270.84C177.376 271.52 177.189 272.113 176.816 272.62C176.442 273.113 175.922 273.5 175.256 273.78C174.602 274.06 173.822 274.2 172.916 274.2ZM181.339 274H179.179V264H181.159V266.78L181.339 266.88V274ZM181.339 267.52H180.839V265.58H181.259C181.459 265.113 181.786 264.713 182.239 264.38C182.706 264.033 183.306 263.86 184.039 263.86C184.746 263.86 185.306 264.013 185.719 264.32C186.146 264.627 186.452 265.033 186.639 265.54C186.826 266.047 186.919 266.613 186.919 267.24V267.9H184.759V267.5C184.759 266.833 184.646 266.367 184.419 266.1C184.192 265.833 183.766 265.7 183.139 265.7C182.486 265.7 182.019 265.84 181.739 266.12C181.472 266.387 181.339 266.853 181.339 267.52ZM192.617 274.2C191.164 274.2 190.064 273.913 189.317 273.34C188.57 272.753 188.197 271.853 188.197 270.64V270.6H190.277V270.96C190.277 271.307 190.344 271.593 190.477 271.82C190.624 272.033 190.864 272.193 191.197 272.3C191.544 272.393 192.03 272.44 192.657 272.44C193.19 272.44 193.59 272.4 193.857 272.32C194.137 272.227 194.324 272.1 194.417 271.94C194.51 271.78 194.557 271.58 194.557 271.34C194.557 270.94 194.417 270.66 194.137 270.5C193.857 270.327 193.357 270.173 192.637 270.04L191.077 269.78C190.49 269.66 189.977 269.493 189.537 269.28C189.11 269.053 188.777 268.747 188.537 268.36C188.31 267.96 188.197 267.46 188.197 266.86C188.197 265.967 188.55 265.247 189.257 264.7C189.964 264.14 190.964 263.86 192.257 263.86C193.044 263.86 193.744 263.987 194.357 264.24C194.97 264.493 195.457 264.873 195.817 265.38C196.177 265.887 196.357 266.52 196.357 267.28V267.46H194.297V267.22C194.297 266.9 194.244 266.627 194.137 266.4C194.03 266.16 193.83 265.973 193.537 265.84C193.244 265.707 192.797 265.64 192.197 265.64C191.41 265.64 190.89 265.74 190.637 265.94C190.384 266.14 190.257 266.433 190.257 266.82C190.257 267.207 190.37 267.48 190.597 267.64C190.837 267.787 191.304 267.933 191.997 268.08L193.697 268.4C194.337 268.52 194.87 268.7 195.297 268.94C195.724 269.18 196.044 269.493 196.257 269.88C196.484 270.267 196.597 270.727 196.597 271.26C196.597 272.193 196.244 272.92 195.537 273.44C194.844 273.947 193.87 274.2 192.617 274.2ZM204.789 274H202.629V264.14C202.629 263.367 202.775 262.72 203.069 262.2C203.362 261.68 203.795 261.287 204.369 261.02C204.955 260.74 205.675 260.6 206.529 260.6C206.662 260.6 206.795 260.6 206.929 260.6C207.062 260.6 207.195 260.6 207.329 260.6V262.32H206.129C205.649 262.32 205.295 262.413 205.069 262.6C204.842 262.787 204.729 263.093 204.729 263.52V264.4L204.789 264.92V274ZM207.329 265.86H201.169V264.06H207.329V265.86ZM212.645 274.2C211.632 274.2 210.752 273.987 210.005 273.56C209.259 273.12 208.685 272.513 208.285 271.74C207.885 270.953 207.685 270.047 207.685 269.02C207.685 267.993 207.885 267.093 208.285 266.32C208.685 265.547 209.259 264.947 210.005 264.52C210.752 264.08 211.632 263.86 212.645 263.86C213.659 263.86 214.525 264.08 215.245 264.52C215.979 264.947 216.539 265.547 216.925 266.32C217.325 267.093 217.525 267.993 217.525 269.02C217.525 270.047 217.325 270.953 216.925 271.74C216.539 272.513 215.979 273.12 215.245 273.56C214.525 273.987 213.659 274.2 212.645 274.2ZM212.645 272.28C213.685 272.28 214.412 272.02 214.825 271.5C215.239 270.967 215.445 270.14 215.445 269.02C215.445 267.9 215.239 267.08 214.825 266.56C214.412 266.04 213.685 265.78 212.645 265.78C211.592 265.78 210.859 266.04 210.445 266.56C210.032 267.08 209.825 267.9 209.825 269.02C209.825 270.14 210.032 270.967 210.445 271.5C210.859 272.02 211.592 272.28 212.645 272.28ZM221.3 274H219.14V264H221.12V266.78L221.3 266.88V274ZM221.3 267.52H220.8V265.58H221.22C221.42 265.113 221.747 264.713 222.2 264.38C222.667 264.033 223.267 263.86 224 263.86C224.707 263.86 225.267 264.013 225.68 264.32C226.107 264.627 226.413 265.033 226.6 265.54C226.787 266.047 226.88 266.613 226.88 267.24V267.9H224.72V267.5C224.72 266.833 224.607 266.367 224.38 266.1C224.153 265.833 223.727 265.7 223.1 265.7C222.447 265.7 221.98 265.84 221.7 266.12C221.433 266.387 221.3 266.853 221.3 267.52ZM240.587 274H238.587V272.04L238.527 271.5V267.68C238.527 266.933 238.347 266.427 237.987 266.16C237.641 265.893 237.074 265.76 236.287 265.76C235.501 265.76 234.934 265.9 234.587 266.18C234.254 266.46 234.087 266.927 234.087 267.58V267.88H232.007V267.68C232.007 266.933 232.187 266.273 232.547 265.7C232.921 265.127 233.434 264.68 234.087 264.36C234.754 264.027 235.527 263.86 236.407 263.86C237.341 263.86 238.114 264.033 238.727 264.38C239.341 264.727 239.801 265.207 240.107 265.82C240.427 266.42 240.587 267.133 240.587 267.96V274ZM234.887 274.2C233.994 274.2 233.241 273.973 232.627 273.52C232.027 273.053 231.727 272.393 231.727 271.54C231.727 270.98 231.854 270.513 232.107 270.14C232.374 269.767 232.754 269.46 233.247 269.22C233.741 268.98 234.341 268.813 235.047 268.72L238.727 268.2V269.72L235.367 270.22C234.794 270.3 234.394 270.42 234.167 270.58C233.941 270.74 233.827 271.007 233.827 271.38C233.827 271.767 233.961 272.047 234.227 272.22C234.507 272.393 234.961 272.48 235.587 272.48C236.067 272.48 236.527 272.407 236.967 272.26C237.421 272.1 237.794 271.84 238.087 271.48C238.381 271.107 238.527 270.587 238.527 269.92L238.807 272.46L238.487 272.44C238.301 272.747 238.041 273.033 237.707 273.3C237.387 273.567 236.994 273.787 236.527 273.96C236.061 274.12 235.514 274.2 234.887 274.2ZM244.816 274H242.656V260.6H244.816V274ZM249.191 274H247.031V260.6H249.191V274ZM259.638 274.2C258.624 274.2 257.744 273.987 256.998 273.56C256.251 273.12 255.678 272.513 255.278 271.74C254.878 270.953 254.678 270.047 254.678 269.02C254.678 267.993 254.878 267.093 255.278 266.32C255.678 265.547 256.251 264.947 256.998 264.52C257.744 264.08 258.624 263.86 259.638 263.86C260.651 263.86 261.518 264.08 262.238 264.52C262.971 264.947 263.531 265.547 263.918 266.32C264.318 267.093 264.518 267.993 264.518 269.02C264.518 270.047 264.318 270.953 263.918 271.74C263.531 272.513 262.971 273.12 262.238 273.56C261.518 273.987 260.651 274.2 259.638 274.2ZM259.638 272.28C260.678 272.28 261.404 272.02 261.818 271.5C262.231 270.967 262.438 270.14 262.438 269.02C262.438 267.9 262.231 267.08 261.818 266.56C261.404 266.04 260.678 265.78 259.638 265.78C258.584 265.78 257.851 266.04 257.438 266.56C257.024 267.08 256.818 267.9 256.818 269.02C256.818 270.14 257.024 270.967 257.438 271.5C257.851 272.02 258.584 272.28 259.638 272.28ZM268.715 274H266.555V264.14C266.555 263.367 266.701 262.72 266.995 262.2C267.288 261.68 267.721 261.287 268.295 261.02C268.881 260.74 269.601 260.6 270.455 260.6C270.588 260.6 270.721 260.6 270.855 260.6C270.988 260.6 271.121 260.6 271.255 260.6V262.32H270.055C269.575 262.32 269.221 262.413 268.995 262.6C268.768 262.787 268.655 263.093 268.655 263.52V264.4L268.715 264.92V274ZM271.255 265.86H265.095V264.06H271.255V265.86ZM277.93 277.4C277.663 277.4 277.39 277.38 277.11 277.34C276.83 277.313 276.603 277.273 276.43 277.22V275.46H277.81C278.223 275.46 278.53 275.4 278.73 275.28C278.93 275.173 279.117 274.94 279.29 274.58L279.91 273.18L279.73 273.88L275.43 264.06H277.81L279.81 268.88L280.71 271.04H280.89L281.69 268.88L283.51 264.06H285.91L281.19 275.16C280.95 275.76 280.677 276.22 280.37 276.54C280.063 276.86 279.71 277.08 279.31 277.2C278.923 277.333 278.463 277.4 277.93 277.4ZM291.102 274.2C290.089 274.2 289.209 273.987 288.462 273.56C287.716 273.12 287.142 272.513 286.742 271.74C286.342 270.953 286.142 270.047 286.142 269.02C286.142 267.993 286.342 267.093 286.742 266.32C287.142 265.547 287.716 264.947 288.462 264.52C289.209 264.08 290.089 263.86 291.102 263.86C292.116 263.86 292.982 264.08 293.702 264.52C294.436 264.947 294.996 265.547 295.382 266.32C295.782 267.093 295.982 267.993 295.982 269.02C295.982 270.047 295.782 270.953 295.382 271.74C294.996 272.513 294.436 273.12 293.702 273.56C292.982 273.987 292.116 274.2 291.102 274.2ZM291.102 272.28C292.142 272.28 292.869 272.02 293.282 271.5C293.696 270.967 293.902 270.14 293.902 269.02C293.902 267.9 293.696 267.08 293.282 266.56C292.869 266.04 292.142 265.78 291.102 265.78C290.049 265.78 289.316 266.04 288.902 266.56C288.489 267.08 288.282 267.9 288.282 269.02C288.282 270.14 288.489 270.967 288.902 271.5C289.316 272.02 290.049 272.28 291.102 272.28ZM301.297 274.2C300.444 274.2 299.737 274.027 299.177 273.68C298.617 273.32 298.204 272.84 297.937 272.24C297.67 271.627 297.537 270.947 297.537 270.2V264.06H299.697V269.8C299.697 270.693 299.884 271.34 300.257 271.74C300.63 272.14 301.244 272.34 302.097 272.34C302.657 272.34 303.13 272.253 303.517 272.08C303.904 271.893 304.197 271.607 304.397 271.22C304.597 270.82 304.697 270.3 304.697 269.66H305.257V272.02H304.777C304.63 272.393 304.404 272.747 304.097 273.08C303.804 273.413 303.424 273.687 302.957 273.9C302.504 274.1 301.95 274.2 301.297 274.2ZM306.857 274H304.857V271.02L304.697 270.92V264.06H306.857V274ZM311.144 274H308.984V264H310.964V266.78L311.144 266.88V274ZM311.144 267.52H310.644V265.58H311.064C311.264 265.113 311.59 264.713 312.044 264.38C312.51 264.033 313.11 263.86 313.844 263.86C314.55 263.86 315.11 264.013 315.524 264.32C315.95 264.627 316.257 265.033 316.444 265.54C316.63 266.047 316.724 266.613 316.724 267.24V267.9H314.564V267.5C314.564 266.833 314.45 266.367 314.224 266.1C313.997 265.833 313.57 265.7 312.944 265.7C312.29 265.7 311.824 265.84 311.544 266.12C311.277 266.387 311.144 266.853 311.144 267.52ZM162.483 299.2C161.083 299.2 160.023 298.733 159.303 297.8C158.583 296.853 158.222 295.593 158.222 294.02C158.222 292.447 158.589 291.193 159.323 290.26C160.069 289.327 161.143 288.86 162.543 288.86C163.409 288.86 164.123 289.027 164.683 289.36C165.256 289.68 165.656 290.127 165.883 290.7H166.283L166.183 293.14H165.803C165.803 292.58 165.696 292.127 165.483 291.78C165.269 291.42 164.963 291.153 164.563 290.98C164.163 290.793 163.669 290.7 163.083 290.7C162.616 290.7 162.209 290.76 161.863 290.88C161.516 290.987 161.229 291.173 161.003 291.44C160.789 291.707 160.629 292.053 160.523 292.48C160.429 292.893 160.383 293.407 160.383 294.02C160.383 294.633 160.429 295.16 160.523 295.6C160.629 296.027 160.789 296.367 161.003 296.62C161.229 296.873 161.509 297.06 161.843 297.18C162.189 297.3 162.603 297.36 163.083 297.36C163.669 297.36 164.163 297.273 164.563 297.1C164.963 296.913 165.269 296.64 165.483 296.28C165.696 295.92 165.803 295.467 165.803 294.92H166.183L166.283 297.46H165.743C165.529 297.913 165.143 298.32 164.583 298.68C164.036 299.027 163.336 299.2 162.483 299.2ZM167.963 302.46H165.803V291.68L165.963 291.42V289.06H167.963V302.46ZM173.787 299.2C172.934 299.2 172.227 299.027 171.667 298.68C171.107 298.32 170.694 297.84 170.427 297.24C170.161 296.627 170.027 295.947 170.027 295.2V289.06H172.187V294.8C172.187 295.693 172.374 296.34 172.747 296.74C173.121 297.14 173.734 297.34 174.587 297.34C175.147 297.34 175.621 297.253 176.007 297.08C176.394 296.893 176.687 296.607 176.887 296.22C177.087 295.82 177.187 295.3 177.187 294.66H177.747V297.02H177.267C177.121 297.393 176.894 297.747 176.587 298.08C176.294 298.413 175.914 298.687 175.447 298.9C174.994 299.1 174.441 299.2 173.787 299.2ZM179.347 299H177.347V296.02L177.187 295.92V289.06H179.347V299ZM185.855 299.2C184.775 299.2 183.875 298.987 183.155 298.56C182.435 298.12 181.902 297.513 181.555 296.74C181.208 295.953 181.035 295.047 181.035 294.02C181.035 292.993 181.228 292.093 181.615 291.32C182.015 290.547 182.575 289.947 183.295 289.52C184.015 289.08 184.868 288.86 185.855 288.86C186.748 288.86 187.535 289.033 188.215 289.38C188.908 289.713 189.442 290.2 189.815 290.84C190.202 291.48 190.395 292.253 190.395 293.16C190.395 293.427 190.382 293.687 190.355 293.94C190.342 294.18 190.322 294.38 190.295 294.54H182.055V293.1H188.535L188.315 293.3C188.368 292.687 188.302 292.187 188.115 291.8C187.942 291.413 187.655 291.127 187.255 290.94C186.868 290.753 186.382 290.66 185.795 290.66C184.742 290.66 184.022 290.927 183.635 291.46C183.248 291.98 183.055 292.7 183.055 293.62V294.22C183.055 294.887 183.135 295.453 183.295 295.92C183.468 296.373 183.762 296.713 184.175 296.94C184.588 297.167 185.155 297.28 185.875 297.28C186.715 297.28 187.308 297.147 187.655 296.88C188.002 296.613 188.175 296.26 188.175 295.82V295.66H190.315V295.84C190.315 296.52 190.128 297.113 189.755 297.62C189.382 298.113 188.862 298.5 188.195 298.78C187.542 299.06 186.762 299.2 185.855 299.2ZM196.396 299.2C194.943 299.2 193.843 298.913 193.096 298.34C192.35 297.753 191.976 296.853 191.976 295.64V295.6H194.056V295.96C194.056 296.307 194.123 296.593 194.256 296.82C194.403 297.033 194.643 297.193 194.976 297.3C195.323 297.393 195.81 297.44 196.436 297.44C196.97 297.44 197.37 297.4 197.636 297.32C197.916 297.227 198.103 297.1 198.196 296.94C198.29 296.78 198.336 296.58 198.336 296.34C198.336 295.94 198.196 295.66 197.916 295.5C197.636 295.327 197.136 295.173 196.416 295.04L194.856 294.78C194.27 294.66 193.756 294.493 193.316 294.28C192.89 294.053 192.556 293.747 192.316 293.36C192.09 292.96 191.976 292.46 191.976 291.86C191.976 290.967 192.33 290.247 193.036 289.7C193.743 289.14 194.743 288.86 196.036 288.86C196.823 288.86 197.523 288.987 198.136 289.24C198.75 289.493 199.236 289.873 199.596 290.38C199.956 290.887 200.136 291.52 200.136 292.28V292.46H198.076V292.22C198.076 291.9 198.023 291.627 197.916 291.4C197.81 291.16 197.61 290.973 197.316 290.84C197.023 290.707 196.576 290.64 195.976 290.64C195.19 290.64 194.67 290.74 194.416 290.94C194.163 291.14 194.036 291.433 194.036 291.82C194.036 292.207 194.15 292.48 194.376 292.64C194.616 292.787 195.083 292.933 195.776 293.08L197.476 293.4C198.116 293.52 198.65 293.7 199.076 293.94C199.503 294.18 199.823 294.493 200.036 294.88C200.263 295.267 200.376 295.727 200.376 296.26C200.376 297.193 200.023 297.92 199.316 298.44C198.623 298.947 197.65 299.2 196.396 299.2ZM206.161 299C205.068 299 204.228 298.767 203.641 298.3C203.068 297.833 202.781 297.047 202.781 295.94V289.28L203.281 286.6H204.941V295.84C204.941 296.36 205.068 296.693 205.321 296.84C205.588 296.973 206.061 297.04 206.741 297.04H207.941V298.82C207.741 298.873 207.481 298.92 207.161 298.96C206.841 298.987 206.508 299 206.161 299ZM207.941 290.86H201.121V289.06H207.941V290.86ZM211.365 287.8H209.225L209.205 285.6H211.365V287.8ZM211.385 299H209.225V289H211.385V299ZM217.831 299.2C216.818 299.2 215.938 298.987 215.191 298.56C214.444 298.12 213.871 297.513 213.471 296.74C213.071 295.953 212.871 295.047 212.871 294.02C212.871 292.993 213.071 292.093 213.471 291.32C213.871 290.547 214.444 289.947 215.191 289.52C215.938 289.08 216.818 288.86 217.831 288.86C218.844 288.86 219.711 289.08 220.431 289.52C221.164 289.947 221.724 290.547 222.111 291.32C222.511 292.093 222.711 292.993 222.711 294.02C222.711 295.047 222.511 295.953 222.111 296.74C221.724 297.513 221.164 298.12 220.431 298.56C219.711 298.987 218.844 299.2 217.831 299.2ZM217.831 297.28C218.871 297.28 219.598 297.02 220.011 296.5C220.424 295.967 220.631 295.14 220.631 294.02C220.631 292.9 220.424 292.08 220.011 291.56C219.598 291.04 218.871 290.78 217.831 290.78C216.778 290.78 216.044 291.04 215.631 291.56C215.218 292.08 215.011 292.9 215.011 294.02C215.011 295.14 215.218 295.967 215.631 296.5C216.044 297.02 216.778 297.28 217.831 297.28ZM233.586 299H231.426V293.22C231.426 292.34 231.259 291.707 230.926 291.32C230.592 290.92 229.966 290.72 229.046 290.72C228.459 290.72 227.979 290.807 227.606 290.98C227.232 291.14 226.952 291.407 226.766 291.78C226.579 292.14 226.486 292.633 226.486 293.26H226.106L225.926 290.92H226.406C226.552 290.56 226.772 290.227 227.066 289.92C227.359 289.613 227.732 289.36 228.186 289.16C228.652 288.96 229.206 288.86 229.846 288.86C230.712 288.86 231.419 289.027 231.966 289.36C232.512 289.693 232.919 290.153 233.186 290.74C233.452 291.327 233.586 292 233.586 292.76V299ZM226.486 299H224.326V289.06H226.306V292.04L226.486 292.14V299ZM239.775 299.2C238.322 299.2 237.222 298.913 236.475 298.34C235.728 297.753 235.355 296.853 235.355 295.64V295.6H237.435V295.96C237.435 296.307 237.502 296.593 237.635 296.82C237.782 297.033 238.022 297.193 238.355 297.3C238.702 297.393 239.188 297.44 239.815 297.44C240.348 297.44 240.748 297.4 241.015 297.32C241.295 297.227 241.482 297.1 241.575 296.94C241.668 296.78 241.715 296.58 241.715 296.34C241.715 295.94 241.575 295.66 241.295 295.5C241.015 295.327 240.515 295.173 239.795 295.04L238.235 294.78C237.648 294.66 237.135 294.493 236.695 294.28C236.268 294.053 235.935 293.747 235.695 293.36C235.468 292.96 235.355 292.46 235.355 291.86C235.355 290.967 235.708 290.247 236.415 289.7C237.122 289.14 238.122 288.86 239.415 288.86C240.202 288.86 240.902 288.987 241.515 289.24C242.128 289.493 242.615 289.873 242.975 290.38C243.335 290.887 243.515 291.52 243.515 292.28V292.46H241.455V292.22C241.455 291.9 241.402 291.627 241.295 291.4C241.188 291.16 240.988 290.973 240.695 290.84C240.402 290.707 239.955 290.64 239.355 290.64C238.568 290.64 238.048 290.74 237.795 290.94C237.542 291.14 237.415 291.433 237.415 291.82C237.415 292.207 237.528 292.48 237.755 292.64C237.995 292.787 238.462 292.933 239.155 293.08L240.855 293.4C241.495 293.52 242.028 293.7 242.455 293.94C242.882 294.18 243.202 294.493 243.415 294.88C243.642 295.267 243.755 295.727 243.755 296.26C243.755 297.193 243.402 297.92 242.695 298.44C242.002 298.947 241.028 299.2 239.775 299.2Z" fill="white"/>
</svg>
