<svg width="402" height="347" viewBox="0 0 402 347" fill="none" xmlns="http://www.w3.org/2000/svg">
<path opacity="0.3" d="M313.763 253.369C307.69 259.685 301.944 263.758 297.404 266.976C244.037 304.803 180.89 293.776 167.47 291.084C147.652 287.107 109.345 279.421 81.6491 247.246C39.7481 198.568 46.2727 121.877 78.7739 71.2529C84.7189 61.9928 116.122 10.597 179.949 2.35468C218.576 -2.63344 263.603 7.42699 296.211 34.4146C364.656 91.064 359.784 205.506 313.763 253.369Z" fill="#636D71"/>
<path opacity="0.81" d="M202.291 282.584C202.291 282.584 260.566 135.368 347.137 119.287C348.673 119.001 350.072 120.229 349.997 121.79C349.122 139.949 338.033 236.054 202.291 282.584Z" fill="#626671"/>
<path opacity="0.62" d="M331.584 143.164C327.164 149.472 322.532 155.615 317.836 161.712C316.663 163.237 315.465 164.741 314.281 166.257C313.087 167.766 311.919 169.295 310.704 170.787L307.074 175.273C305.859 176.763 304.669 178.276 303.423 179.742C300.95 182.689 298.5 185.656 296.007 188.586L288.45 197.311C283.323 203.049 278.2 208.792 272.915 214.387L268.983 218.613C267.687 220.036 266.314 221.385 264.984 222.775L256.957 231.075L248.723 239.172C247.348 240.519 245.985 241.88 244.583 243.198L240.336 247.111C237.499 249.714 234.691 252.35 231.806 254.899L223.034 262.414L220.832 264.281C220.091 264.896 219.372 265.536 218.614 266.13L214.083 269.711C212.577 270.91 211.05 272.082 209.534 273.268C208.017 274.452 206.498 275.633 204.971 276.802C204.854 276.892 204.686 276.869 204.597 276.752C204.511 276.64 204.528 276.48 204.634 276.389L204.642 276.382C206.101 275.129 207.57 273.889 209.041 272.651C210.512 271.415 211.973 270.166 213.454 268.943L217.885 265.259C219.346 264.011 220.762 262.711 222.211 261.451L230.888 253.867L239.386 246.084L243.638 242.196C244.349 241.549 245.026 240.867 245.722 240.206L247.807 238.217L256.144 230.257C261.567 224.813 267.08 219.453 272.316 213.823C274.961 211.034 277.637 208.274 280.192 205.401C282.768 202.548 285.368 199.717 287.925 196.847L295.508 188.159C298.01 185.241 300.469 182.286 302.952 179.351C304.202 177.891 305.397 176.385 306.617 174.899L310.261 170.431C311.481 168.945 312.653 167.422 313.852 165.919C315.041 164.409 316.244 162.91 317.422 161.39C322.113 155.302 326.739 149.154 331.144 142.862L331.147 142.858C331.232 142.737 331.398 142.708 331.519 142.793C331.639 142.877 331.669 143.043 331.584 143.164Z" fill="white"/>
<g opacity="0.79">
<path d="M188.169 198.155C188.169 198.155 216.498 68.1558 302.019 0.767028C303.134 -0.111669 304.785 0.44405 305.125 1.82227C310.505 23.5906 338.513 162.434 188.169 198.155Z" fill="#697276"/>
<path opacity="0.62" d="M292.94 38.2691C291.958 42.0401 290.815 45.7554 289.61 49.4539C288.402 53.1505 287.133 56.8281 285.784 60.4762C283.079 67.77 280.134 74.9751 276.959 82.0791C276.172 83.8579 275.341 85.6175 274.534 87.3877C273.723 89.1557 272.846 90.8931 272.004 92.6471C271.169 94.4047 270.266 96.1285 269.389 97.8652L268.063 100.465L266.691 103.041C263.035 109.911 259.184 116.682 255.034 123.27C250.871 129.847 246.544 136.328 241.877 142.561C241.299 143.344 240.732 144.135 240.145 144.912L238.354 147.218L236.564 149.525C235.963 150.29 235.381 151.07 234.752 151.814L231.033 156.316L230.099 157.439L229.132 158.532L227.198 160.72C216.933 172.431 205.444 183.062 193.022 192.421C192.92 192.498 192.774 192.478 192.697 192.375C192.622 192.275 192.639 192.134 192.735 192.056L192.741 192.052L197.251 188.373L199.509 186.54L201.695 184.62L206.061 180.778L210.282 176.778C210.981 176.106 211.7 175.457 212.389 174.774L214.433 172.707C215.789 171.322 217.173 169.966 218.506 168.559C221.125 165.701 223.805 162.901 226.298 159.932L228.199 157.733L229.15 156.634L230.067 155.506L233.744 151.005C234.367 150.263 234.944 149.484 235.539 148.72L237.313 146.417L239.087 144.115C239.668 143.34 240.23 142.55 240.802 141.769C245.425 135.547 249.709 129.079 253.829 122.516C257.972 115.964 261.844 109.241 265.508 102.409L266.885 99.8481L268.216 97.263C269.095 95.5357 270.002 93.8215 270.84 92.0737C272.562 88.5993 274.223 85.0955 275.859 81.5797C279.105 74.5358 282.121 67.385 284.905 60.1441C286.318 56.5315 287.652 52.8879 288.926 49.2237C289.565 47.392 290.181 45.5523 290.776 43.7063C291.38 41.8642 291.957 40.0091 292.491 38.1503L292.492 38.1457C292.528 38.0225 292.656 37.9511 292.78 37.9867C292.901 38.0221 292.972 38.1477 292.94 38.2691Z" fill="white"/>
</g>
<g opacity="0.76">
<path d="M143.727 191.176C143.727 191.176 132.679 75.8557 65.7114 8.75025C64.8384 7.87526 63.354 8.18509 62.917 9.34138C56.0149 27.6048 17.4408 144.746 143.727 191.176Z" fill="#697276"/>
<path opacity="0.62" d="M70.1121 42.053C71.2554 48.7023 72.7341 55.3052 74.4249 61.8417C76.089 68.3868 77.962 74.8784 80.045 81.3004C81.0986 84.5076 82.1741 87.7067 83.3027 90.8874C83.8474 92.4849 84.454 94.0601 85.0363 95.6436L85.9198 98.0155L86.8458 100.371C89.3081 106.654 91.9617 112.864 94.8652 118.954C97.7464 125.053 100.778 131.087 104.129 136.943C104.543 137.678 104.946 138.419 105.368 139.149L106.663 141.322L107.957 143.496C108.392 144.218 108.81 144.951 109.272 145.657L111.983 149.928L112.658 150.998L113.364 152.047L114.778 154.145C116.624 156.97 118.649 159.669 120.615 162.412C121.619 163.766 122.675 165.083 123.702 166.421L125.254 168.42C125.777 169.081 126.332 169.717 126.865 170.371L130.095 174.269L133.466 178.046L135.154 179.934L136.914 181.754L140.426 185.407L140.43 185.412C140.519 185.504 140.516 185.651 140.424 185.74C140.334 185.826 140.192 185.826 140.102 185.74C130.311 176.381 121.465 166.005 113.792 154.821L112.343 152.73L111.619 151.685L110.927 150.618L108.175 146.34C107.707 145.633 107.284 144.898 106.844 144.173L105.533 141.994L104.223 139.814C103.795 139.082 103.387 138.339 102.968 137.602C99.5742 131.73 96.5013 125.678 93.5795 119.56C90.6725 113.433 88.0448 107.178 85.5958 100.858L84.676 98.4884L83.799 96.1026C83.221 94.5097 82.6189 92.925 82.0789 91.3188C81.5332 89.7147 80.955 88.1214 80.4362 86.5083C79.9229 84.8934 79.3881 83.2858 78.8928 81.6654C74.9116 68.7136 71.6038 55.5377 69.6519 42.1175C69.6334 41.9905 69.7214 41.8725 69.8482 41.854C69.973 41.8359 70.0891 41.9208 70.1105 42.0443L70.1121 42.053Z" fill="white"/>
</g>
<path d="M84.3407 15.6098C83.3818 60.8639 80.2717 216.962 81.7563 272.278C81.9136 278.138 85.9293 282.842 90.9386 283.034C115.714 283.982 206.54 286.386 247.064 284.397C255.504 283.983 262.217 275.985 262.392 266.104C263.234 218.604 265.092 85.0052 260.676 23.8034C260.147 16.4707 255.227 10.6311 248.968 9.8985C221.986 6.74083 130.77 -0.977755 95.7593 1.68018C89.4453 2.15945 84.4976 8.20992 84.3407 15.6098Z" fill="#B5B9D3"/>
<path d="M95.396 29.4938C94.0624 66.0205 89.856 187.536 91.191 232.47C91.3863 239.038 95.8109 244.348 101.419 244.732C124.508 246.313 203.284 249.798 237.151 246.626C243.249 246.055 248.034 240.285 248.363 233.138C250.08 195.874 255.007 82.7254 253.728 38.295C253.523 31.2072 248.83 25.4186 242.792 24.7845C217.813 22.1607 134.105 15.9179 105.326 17.7548C99.9238 18.0998 95.6268 23.1702 95.396 29.4938Z" fill="#494C4D"/>
<path opacity="0.61" d="M157.332 10.6555C157.332 12.0441 158.257 13.1894 159.442 13.2619C165.294 13.6204 181.779 14.6348 189.146 15.1348C190.599 15.2336 191.739 13.7061 191.463 12.0347L191.416 11.7494C191.228 10.609 190.42 9.75058 189.431 9.64466C184.451 9.11078 169.425 7.63056 159.469 8.04631C158.273 8.09625 157.332 9.25552 157.332 10.6555Z" fill="#F2935C"/>
<path d="M168.846 106.103C187.931 106.103 203.403 90.6314 203.403 71.5458C203.403 52.4602 187.931 36.9883 168.846 36.9883C149.76 36.9883 134.288 52.4602 134.288 71.5458C134.288 90.6314 149.76 106.103 168.846 106.103Z" fill="white" fill-opacity="0.18"/>
<path d="M179.426 58.4871C179.426 64.3386 174.683 70.6556 168.831 70.6556C162.98 70.6556 158.236 64.3386 158.236 58.4871C158.236 52.6357 162.98 48.4844 168.831 48.4844C174.683 48.4844 179.426 52.6357 179.426 58.4871Z" fill="white"/>
<path d="M155.682 93.1844H181.546C184.269 93.1844 186.679 91.4248 187.509 88.8316L188.901 84.4816C189.92 81.2966 188.263 77.8483 185.122 76.6999C174.596 72.8514 163.712 73.3451 152.563 77.055C149.44 78.0944 147.706 81.4354 148.568 84.6123L149.64 88.5629C150.38 91.2907 152.856 93.1844 155.682 93.1844Z" fill="white"/>
<g opacity="0.71">
<path opacity="0.65" d="M235.108 161.293H109.022C108.627 161.293 108.307 160.972 108.307 160.577V142.391C108.307 141.995 108.627 141.675 109.022 141.675H235.108C235.503 141.675 235.824 141.995 235.824 142.391V160.577C235.824 160.972 235.503 161.293 235.108 161.293Z" fill="white"/>
<path opacity="0.65" d="M234.42 193.302H108.334C107.939 193.302 107.618 192.981 107.618 192.586V174.399C107.618 174.004 107.939 173.684 108.334 173.684H234.42C234.815 173.684 235.135 174.004 235.135 174.399V192.586C235.135 192.981 234.815 193.302 234.42 193.302Z" fill="white"/>
<path opacity="0.65" d="M209.79 231.477H129.18C128.692 231.477 128.297 231.082 128.297 230.594V207.349C128.297 206.861 128.692 206.466 129.18 206.466H209.79C210.278 206.466 210.674 206.861 210.674 207.349V230.594C210.674 231.082 210.278 231.477 209.79 231.477Z" fill="white"/>
</g>
<path opacity="0.75" d="M188.635 157.019H115.227C114.525 157.019 113.955 156.449 113.955 155.746V147.391C113.955 146.689 114.525 146.119 115.227 146.119H188.635C189.337 146.119 189.907 146.689 189.907 147.391V155.746C189.907 156.449 189.337 157.019 188.635 157.019Z" fill="white"/>
<g opacity="0.75">
<path d="M118.312 187.082C120.595 186.136 121.679 183.519 120.733 181.236C119.788 178.952 117.17 177.868 114.887 178.814C112.604 179.76 111.52 182.377 112.465 184.66C113.411 186.943 116.029 188.028 118.312 187.082Z" fill="white"/>
<path d="M130.59 187.311C132.873 186.366 133.957 183.748 133.012 181.465C132.066 179.182 129.448 178.098 127.165 179.043C124.882 179.989 123.798 182.607 124.744 184.89C125.689 187.173 128.307 188.257 130.59 187.311Z" fill="white"/>
<path d="M142.405 187.885C144.689 186.939 145.773 184.321 144.827 182.038C143.881 179.755 141.264 178.671 138.981 179.617C136.698 180.562 135.613 183.18 136.559 185.463C137.505 187.746 140.122 188.83 142.405 187.885Z" fill="white"/>
<path d="M156.126 187.141C157.873 185.394 157.873 182.561 156.126 180.814C154.378 179.066 151.545 179.066 149.798 180.814C148.05 182.561 148.05 185.394 149.798 187.141C151.545 188.889 154.378 188.889 156.126 187.141Z" fill="white"/>
<path d="M169.59 184.91C170.158 182.505 168.669 180.095 166.264 179.527C163.859 178.959 161.449 180.448 160.881 182.853C160.313 185.258 161.802 187.668 164.207 188.236C166.612 188.804 169.022 187.315 169.59 184.91Z" fill="white"/>
<path d="M181.939 184.811C182.335 182.371 180.678 180.073 178.239 179.677C175.8 179.281 173.501 180.938 173.105 183.377C172.71 185.816 174.366 188.115 176.805 188.511C179.245 188.907 181.543 187.25 181.939 184.811Z" fill="white"/>
</g>
<path d="M228.612 198.7L242.32 202.127L238.893 227.83C238.893 227.83 244.034 232.97 245.747 239.824C247.461 246.678 249.041 275.457 249.041 275.457L252.293 277.423L252.689 279.065L243.226 291.789L244.795 281.662C245.044 280.054 244.613 276.794 244.749 276.726C239.608 263.018 228.612 224.403 228.612 224.403V198.7Z" fill="#FEF6F2"/>
<path d="M224.607 279.24C224.756 279.238 224.901 279.249 225.051 279.24C224.388 270.976 221.361 234.606 218.332 220.974C214.905 205.553 223.472 174.71 223.472 174.71L238.894 190.131L230.326 219.261C236.197 228.068 229.368 279.643 229.515 279.62L229.506 279.735L231.742 282.809L231.47 284.475L217.813 292.534L223.187 283.808C224.04 282.423 224.511 280.853 224.607 279.24Z" fill="#FEF6F2"/>
<path d="M241.953 106.314C241.953 106.314 271.979 140.155 241.953 157.506L238.894 155.291C238.894 155.291 253.8 141.017 238.894 123.543L241.953 106.314Z" fill="#FEF6F2"/>
<path d="M216.914 293.799H221.272C222.088 293.799 222.857 293.424 223.355 292.778C224.714 291.012 227.528 287.568 228.874 287.478C230.686 287.357 230.455 293.799 230.455 293.799H231.47L232.757 285.794C233.08 283.78 232.079 281.785 230.27 280.842C230.27 280.842 229.856 283.905 227.61 285.26C225.365 286.615 218.471 291.467 218.471 291.467C218.471 291.467 217.627 291.347 216.7 291.514C215.325 291.762 215.517 293.799 216.914 293.799Z" fill="#F2935C"/>
<path d="M242.887 293.302L246.904 291.612C247.656 291.296 248.22 290.652 248.428 289.863C248.996 287.709 250.255 283.443 251.46 282.838C253.084 282.024 255.368 288.051 255.368 288.051L256.304 287.658L254.386 279.781C253.904 277.799 252.207 276.348 250.174 276.18C250.174 276.18 250.98 279.164 249.435 281.283C247.89 283.403 243.418 290.549 243.418 290.549C243.418 290.549 242.593 290.765 241.804 291.279C240.632 292.041 241.599 293.844 242.887 293.302Z" fill="#F2935C"/>
<path d="M219.544 148.634C219.544 148.634 220.048 151.723 219.31 160.214C218.572 168.705 215.042 188.64 215.761 207.714C215.761 207.714 225.794 210.052 243.226 208.945C243.226 208.945 250.582 179.165 248.79 167.843C246.998 156.522 237.277 148.4 237.277 148.4L219.544 148.634Z" fill="black"/>
<path d="M226.958 91.8956L225.731 106.315H237.382L234.485 84.3047L226.958 91.8956Z" fill="#FEF6F2"/>
<path d="M240.834 104.321C236.813 104.099 227.823 103.688 221.454 104.036C218.101 104.218 215.292 106.624 214.606 109.911L213.053 117.355C212.474 120.128 212.561 122.998 213.305 125.731L219.544 148.634C219.544 148.634 225.094 151.969 237.277 148.4C237.277 148.4 247.975 122.887 243.596 106.566C243.256 105.299 242.144 104.393 240.834 104.321Z" fill="#F2935C"/>
<path d="M214.911 108.576C213.195 113.097 211.645 117.837 209.98 122.277C209.133 124.499 208.274 126.677 207.355 128.677C206.891 129.673 206.38 130.589 205.912 131.419C205.443 132.241 204.914 132.924 204.639 133.239C204.585 133.285 204.766 133.321 204.826 133.324C204.863 133.328 203.666 133.52 203.299 133.582L201.865 133.573C199.809 133.467 197.481 133.105 195.146 132.651C190.435 131.773 185.538 130.54 180.509 129.607L180.47 129.6C179.508 129.421 178.583 130.056 178.405 131.019C178.287 131.653 178.526 132.273 178.976 132.672C181.004 134.457 183.153 135.923 185.383 137.35C186.505 138.037 187.647 138.709 188.807 139.355C189.991 139.958 191.177 140.566 192.41 141.128C194.892 142.21 197.455 143.206 200.409 143.846C201.185 143.976 201.951 144.112 202.75 144.219C203.645 144.25 204.459 144.329 205.437 144.273C205.957 144.221 206.479 144.157 206.999 144.082C207.277 144.033 207.481 144.027 207.817 143.935C208.174 143.828 208.53 143.708 208.881 143.576C209.614 143.313 210.088 142.994 210.684 142.663C211.179 142.337 211.63 141.996 212.067 141.646C213.682 140.271 214.685 138.906 215.568 137.595C216.45 136.286 217.148 134.974 217.775 133.688C219.033 131.12 220.015 128.576 220.812 126.014C222.427 120.879 223.521 115.833 223.983 110.473C224.204 107.905 222.302 105.645 219.734 105.424C217.609 105.241 215.695 106.512 214.972 108.411L214.911 108.576Z" fill="#FEF6F2"/>
<path d="M182.092 131.911L180.013 126.976L169.071 124.249C169.071 124.249 168.195 126.146 172.791 126.976C172.791 126.976 171.15 128.79 172.025 130.924C172.9 133.058 182.201 135.195 182.092 131.911Z" fill="#FEF6F2"/>
<path d="M222.026 75.2428C221.61 75.4881 218.332 87.0487 221.079 91.8956C223.825 96.7427 232.213 91.3137 234.486 84.3048C236.759 77.2959 233.107 68.7075 222.026 75.2428Z" fill="#FEF6F2"/>
<path d="M243.765 84.3038C245.646 93.5215 251.88 90.9988 256.295 95.0998C263.451 101.746 273.688 94.8947 283.639 101.193C290.824 105.74 294.285 117.374 290.838 126.766C286.062 139.775 269.744 145.125 261.287 141.163C253.205 137.376 254.356 126.035 243.481 121.652C238.864 119.791 236.585 121 233.82 118.242C228.98 113.414 230.286 104.045 230.789 100.436C231.881 92.604 234.507 91.1861 233.252 87.7441C230.811 81.0494 219.425 82.4307 218.477 77.7045C217.613 73.4006 225.865 65.2427 233.631 66.5284C245.646 68.5171 242.927 80.1971 243.765 84.3038Z" fill="#363740"/>
<path opacity="0.6" d="M287.248 124.563C287.391 124.563 287.519 124.467 287.554 124.322C289.093 117.936 288.395 112.698 285.479 108.755C280.64 102.21 271.236 101.562 271.141 101.556C270.993 101.532 270.819 101.677 270.808 101.851C270.798 102.025 270.929 102.174 271.103 102.184C271.195 102.19 280.315 102.823 284.976 109.132C287.774 112.919 288.435 117.98 286.942 124.175C286.902 124.344 287.006 124.514 287.175 124.555C287.199 124.56 287.224 124.563 287.248 124.563Z" fill="white"/>
<path opacity="0.72" d="M256.448 130.41C256.461 130.41 256.474 130.408 256.488 130.405C256.571 130.383 256.622 130.297 256.6 130.212C255.102 124.463 252.472 120.47 248.786 118.344C246.104 116.797 243.593 116.653 241.377 116.526C239.241 116.403 237.396 116.297 235.911 114.976C232.841 112.247 233.019 105.684 236.439 95.4699C236.467 95.3875 236.422 95.2986 236.34 95.2709C236.257 95.2432 236.168 95.2881 236.141 95.3705C232.677 105.715 232.529 112.39 235.702 115.211C237.269 116.605 239.164 116.714 241.359 116.84C243.54 116.965 246.011 117.107 248.629 118.617C252.239 120.699 254.819 124.627 256.295 130.292C256.314 130.363 256.378 130.41 256.448 130.41Z" fill="white"/>
<path opacity="0.72" d="M239.314 82.0171C239.331 82.0171 239.347 82.0148 239.365 82.0092C239.447 81.9816 239.491 81.8918 239.463 81.8095C238.272 78.2657 234.84 78.7923 231.204 79.3513C228.902 79.7053 226.523 80.0696 224.505 79.4724C222.999 79.0258 222.104 78.3341 221.845 77.4155C221.404 75.8519 222.951 74.1082 222.966 74.0904C223.024 74.0259 223.019 73.9264 222.954 73.8686C222.89 73.8102 222.79 73.8158 222.733 73.8802C222.664 73.9565 221.055 75.7683 221.542 77.5003C221.832 78.5294 222.798 79.2943 224.415 79.7734C226.502 80.3915 228.916 80.021 231.252 79.6623C234.902 79.1019 238.058 78.616 239.165 81.9103C239.187 81.9761 239.248 82.0171 239.314 82.0171Z" fill="white"/>
<path d="M273.992 46.2193C273.992 29.9968 287.734 16.8475 304.225 16.8496C320.228 16.8515 332.858 29.3084 332.858 44.6728C332.858 60.0373 320.228 73.1577 304.225 74.0006C287.734 74.8691 273.992 62.4418 273.992 46.2193Z" fill="#F2935C"/>
<path d="M276.751 46.1456C276.751 31.4434 289.205 19.5265 304.15 19.5283C318.654 19.5302 330.1 30.8196 330.1 44.744C330.1 58.6685 318.654 70.5594 304.15 71.3232C289.205 72.1104 276.751 60.8479 276.751 46.1456Z" fill="#F2935C"/>
<path d="M295.272 44.4785H292.816V34.6933C292.816 30.8499 295.694 27.602 299.509 27.1383L304.529 26.5282C306.69 26.2655 308.864 26.9428 310.494 28.3863C312.123 29.8298 313.058 31.9062 313.058 34.0832V42.6258H310.602V34.0832C310.602 32.6086 309.969 31.2021 308.866 30.2244C307.762 29.2467 306.289 28.7879 304.825 28.9658L299.805 29.5759C297.22 29.89 295.272 32.0899 295.272 34.6933V44.4785H295.272Z" fill="white"/>
<path d="M292.09 42.2819L313.615 41.0893C314.489 41.0408 315.225 41.7367 315.225 42.6123V59.6643C315.225 60.5067 314.542 61.1896 313.699 61.1896H292.692C291.869 61.1896 291.194 60.5366 291.167 59.714L290.65 43.8545C290.623 43.026 291.263 42.3277 292.09 42.2819Z" fill="white"/>
<path d="M306.448 56.3053L305.145 52.5598C304.988 52.1095 305.095 51.6061 305.43 51.2666C306.098 50.5901 306.495 49.6469 306.448 48.6108C306.365 46.7838 304.873 45.3024 303.045 45.2322C301.023 45.1545 299.358 46.771 299.358 48.7763C299.358 49.8887 299.871 50.8812 300.672 51.5313C301.088 51.8685 301.259 52.4226 301.083 52.9282L299.908 56.3053C299.623 57.1267 300.232 57.9844 301.102 57.9844H305.254C306.124 57.9844 306.733 57.1267 306.448 56.3053Z" fill="#F2935C"/>
<g opacity="0.3">
<path d="M125.121 262.246C125.381 262.795 125.209 263.471 124.706 263.806C123.606 264.537 122.46 265.23 121.298 265.863C120.733 266.171 120.036 265.94 119.741 265.346C119.738 265.338 119.735 265.331 119.731 265.324C119.452 264.734 119.672 264.016 120.231 263.712C121.334 263.11 122.423 262.452 123.468 261.757C124.006 261.4 124.719 261.568 125.061 262.134C125.083 262.17 125.103 262.208 125.121 262.246ZM116.089 266.857C116.109 266.899 116.127 266.944 116.143 266.99C116.358 267.62 116.046 268.313 115.446 268.538C114.214 268.998 112.951 269.408 111.691 269.755C111.075 269.925 110.446 269.54 110.28 268.891C110.117 268.243 110.484 267.581 111.1 267.411C112.297 267.081 113.497 266.692 114.668 266.254C115.224 266.046 115.832 266.314 116.089 266.857ZM106.311 269.263C106.368 269.384 106.407 269.517 106.423 269.658C106.499 270.323 106.048 270.926 105.415 271.004C104.118 271.164 102.798 271.268 101.492 271.311C100.855 271.331 100.322 270.805 100.3 270.137C100.279 269.468 100.778 268.909 101.415 268.888C102.655 268.847 103.908 268.749 105.14 268.597C105.637 268.535 106.099 268.816 106.311 269.263ZM96.2581 269.31C96.3527 269.51 96.3959 269.74 96.3719 269.978C96.3046 270.643 95.7362 271.124 95.1027 271.051C93.8028 270.903 92.4935 270.694 91.2108 270.429C90.5858 270.3 90.177 269.663 90.2975 269.007C90.4187 268.35 91.0242 267.922 91.6499 268.051C92.8679 268.302 94.1116 268.501 95.3468 268.642C95.7536 268.688 96.0883 268.951 96.2581 269.31ZM86.4427 267.002C86.5754 267.282 86.6054 267.616 86.5013 267.934C86.2951 268.567 85.639 268.903 85.0363 268.685C83.8027 268.239 82.5695 267.73 81.372 267.174C80.7884 266.904 80.5231 266.188 80.7798 265.576C81.0363 264.964 81.7169 264.687 82.3005 264.958C83.4388 265.487 84.6108 265.97 85.7832 266.394C86.0824 266.502 86.3122 266.726 86.4427 267.002ZM77.3533 262.472C77.5251 262.835 77.5203 263.28 77.3031 263.649C76.9684 264.218 76.2578 264.393 75.7153 264.041C74.6039 263.318 73.5076 262.536 72.458 261.717C71.9457 261.317 71.8384 260.558 72.2179 260.021C72.597 259.484 73.3197 259.373 73.8317 259.773C74.8293 260.551 75.8704 261.294 76.9266 261.981C77.1169 262.104 77.2606 262.277 77.3533 262.472ZM56.0546 223.95C56.1258 224.1 56.1682 224.269 56.1742 224.447C56.2179 225.748 56.3163 227.065 56.4671 228.361C56.5443 229.026 56.0942 229.629 55.4619 229.708C54.8294 229.788 54.254 229.314 54.1767 228.649C54.018 227.285 53.914 225.897 53.8679 224.527C53.8454 223.858 54.3436 223.298 54.9804 223.276C55.4473 223.26 55.8592 223.537 56.0546 223.95ZM69.4461 255.946C69.6593 256.397 69.59 256.958 69.2356 257.335C68.7887 257.812 68.0582 257.816 67.6039 257.346C66.6725 256.382 65.7696 255.364 64.9203 254.32C64.5082 253.808 64.562 253.045 65.0464 252.611C65.5304 252.177 66.2589 252.238 66.6734 252.748C67.4798 253.74 68.3372 254.707 69.2215 255.622C69.3155 255.719 69.3905 255.829 69.4461 255.946ZM57.5399 234.395C57.5738 234.466 57.6018 234.543 57.6222 234.623C57.9424 235.882 58.3188 237.144 58.7401 238.373C58.956 239.004 58.6452 239.697 58.0459 239.923C57.4465 240.148 56.7828 239.822 56.5691 239.19C56.1259 237.896 55.7299 236.569 55.3927 235.244C55.2282 234.597 55.5939 233.933 56.2095 233.762C56.7484 233.612 57.3004 233.889 57.5399 234.395ZM63.1208 247.732C63.3803 248.28 63.2099 248.956 62.7082 249.291C62.1711 249.65 61.4578 249.483 61.1144 248.918C60.4125 247.761 59.7485 246.557 59.1417 245.339C59.1377 245.331 59.134 245.323 59.1303 245.316C58.8514 244.726 59.0708 244.01 59.6276 243.704C60.1923 243.395 60.8895 243.625 61.1853 244.219C61.7621 245.376 62.3929 246.52 63.0599 247.619C63.0821 247.656 63.1027 247.694 63.1208 247.732Z" fill="#B37CFF"/>
<path d="M56.5022 215.456C56.6034 215.67 56.646 215.917 56.6104 216.171C56.5238 216.789 56.4484 217.419 56.3852 218.044C56.3184 218.71 55.7503 219.191 55.1168 219.119C54.4831 219.047 54.0227 218.45 54.0906 217.784C54.1566 217.126 54.2361 216.464 54.3271 215.813C54.4197 215.152 55.006 214.695 55.6361 214.794C56.0249 214.855 56.3395 215.112 56.5022 215.456Z" fill="#B37CFF"/>
</g>
<g opacity="0.3">
<path d="M74.7977 183.945C75.0458 184.47 74.9026 185.119 74.4352 185.469C73.9513 185.831 73.4664 186.21 72.9946 186.595C72.4918 187.005 71.7668 186.909 71.3752 186.38C70.982 185.849 71.0737 185.09 71.5762 184.68C72.0731 184.274 72.5837 183.875 73.0932 183.494C73.6116 183.106 74.3322 183.234 74.703 183.779C74.7391 183.833 74.7706 183.888 74.7977 183.945Z" fill="#B37CFF"/>
<path d="M141.172 201.412C141.408 201.911 141.638 202.417 141.86 202.929C142.124 203.539 141.869 204.257 141.289 204.533C140.709 204.81 140.022 204.538 139.76 203.93C139.247 202.749 138.69 201.592 138.097 200.48C137.786 199.894 137.983 199.157 138.539 198.831C139.095 198.505 139.799 198.715 140.11 199.299C140.477 199.988 140.834 200.699 141.172 201.412ZM144.004 208.923C144.033 208.983 144.057 209.048 144.077 209.115C144.448 210.41 144.771 211.737 145.037 213.057C145.169 213.712 144.771 214.354 144.147 214.491C143.524 214.628 142.91 214.208 142.78 213.553C142.527 212.299 142.22 211.039 141.867 209.808C141.684 209.167 142.029 208.492 142.639 208.3C143.186 208.129 143.758 208.403 144.004 208.923ZM136.781 193.958C137.024 194.47 136.894 195.106 136.444 195.462C135.936 195.865 135.212 195.757 134.827 195.223C134.092 194.2 133.305 193.197 132.487 192.24C132.061 191.74 132.099 190.975 132.573 190.529C133.047 190.082 133.776 190.125 134.203 190.623C135.064 191.631 135.893 192.688 136.668 193.765C136.712 193.826 136.75 193.891 136.781 193.958ZM145.797 219.147C145.862 219.285 145.903 219.438 145.914 219.601C146.006 220.948 146.043 222.316 146.026 223.666C146.017 224.336 145.494 224.869 144.857 224.859C144.219 224.848 143.71 224.298 143.719 223.628C143.735 222.346 143.699 221.047 143.613 219.767C143.567 219.1 144.046 218.521 144.681 218.475C145.162 218.44 145.595 218.72 145.797 219.147ZM129.979 186.407C130.177 186.827 130.134 187.348 129.827 187.729C129.416 188.239 128.688 188.302 128.201 187.869C127.27 187.041 126.293 186.244 125.295 185.498C124.775 185.11 124.652 184.353 125.021 183.808C125.39 183.263 126.11 183.136 126.63 183.525C127.68 184.309 128.71 185.149 129.69 186.021C129.814 186.131 129.911 186.263 129.979 186.407ZM121.767 180.602C121.926 180.938 121.935 181.346 121.757 181.703C121.463 182.296 120.766 182.525 120.201 182.214C119.117 181.618 117.997 181.063 116.872 180.564C116.284 180.304 116.007 179.594 116.254 178.976C116.501 178.359 117.177 178.071 117.765 178.331C118.949 178.856 120.127 179.44 121.268 180.068C121.492 180.191 121.662 180.381 121.767 180.602ZM112.55 176.813C112.671 177.069 112.707 177.369 112.631 177.666C112.467 178.312 111.834 178.695 111.219 178.52C110.037 178.185 108.829 177.899 107.629 177.67C107.002 177.55 106.584 176.92 106.697 176.261C106.81 175.602 107.409 175.166 108.037 175.285C109.3 175.527 110.571 175.828 111.815 176.18C112.148 176.275 112.407 176.513 112.55 176.813ZM102.771 175.224C102.855 175.401 102.898 175.601 102.89 175.813C102.864 176.481 102.327 177 101.691 176.971C100.469 176.915 99.2319 176.914 98.013 176.967C97.3764 176.995 96.8374 176.475 96.8095 175.807C96.7816 175.138 97.2751 174.573 97.9118 174.546C99.1957 174.49 100.499 174.491 101.784 174.55C102.22 174.569 102.59 174.841 102.771 175.224ZM92.8997 175.927C92.9468 176.027 92.9813 176.135 93.0014 176.25C93.1164 176.908 92.7015 177.539 92.0748 177.658C90.8755 177.886 89.6697 178.171 88.4904 178.505C87.8754 178.68 87.2412 178.295 87.0741 177.651C86.9066 177.005 87.2695 176.339 87.8845 176.165C89.126 175.813 90.3954 175.513 91.658 175.273C92.1757 175.175 92.6764 175.456 92.8997 175.927ZM83.4283 178.89C83.4388 178.912 83.4486 178.935 83.4581 178.958C83.7067 179.575 83.4327 180.285 82.846 180.545C82.0178 180.912 81.1909 181.309 80.3871 181.728C80.0962 181.879 79.8074 182.034 79.5212 182.191C78.9568 182.5 78.2592 182.271 77.9633 181.677C77.6522 181.083 77.8842 180.352 78.4481 180.042C78.7494 179.877 79.0527 179.714 79.359 179.555C80.2043 179.115 81.0747 178.697 81.9458 178.311C82.5102 178.061 83.1587 178.32 83.4283 178.89Z" fill="#B37CFF"/>
<path d="M145.398 229.557C145.5 229.773 145.542 230.023 145.505 230.279C145.411 230.927 145.303 231.586 145.182 232.236C145.06 232.893 144.455 233.32 143.829 233.191C143.204 233.061 142.795 232.425 142.917 231.768C143.031 231.15 143.135 230.524 143.224 229.909C143.319 229.248 143.907 228.794 144.538 228.896C144.924 228.959 145.236 229.216 145.398 229.557Z" fill="#B37CFF"/>
</g>
<path d="M132.724 234.325C132.819 234.105 132.77 233.846 132.603 233.679L127.83 228.936C128.422 225.778 128.539 222.498 128.128 219.212L133.174 214.824C133.351 214.67 133.415 214.415 133.334 214.189L130.554 206.446C130.473 206.22 130.264 206.072 130.034 206.078L123.478 206.26C121.72 203.505 119.569 201.118 117.137 199.152L117.743 192.29C117.765 192.049 117.638 191.82 117.429 191.72L110.255 188.297C110.045 188.196 109.798 188.247 109.64 188.422L105.135 193.424C102.128 192.794 99.0041 192.664 95.8767 193.088L91.6866 187.777C91.5396 187.591 91.2966 187.523 91.0814 187.607L83.7157 190.508C83.5004 190.593 83.3605 190.812 83.3671 191.054L83.5561 197.941C80.9366 199.78 78.6693 202.034 76.8033 204.583L70.2677 203.93C70.0388 203.907 69.8214 204.039 69.7266 204.259L66.484 211.786C66.3891 212.006 66.4379 212.265 66.6052 212.431L71.3781 217.175C70.7857 220.332 70.6688 223.613 71.0802 226.898L66.0337 231.287C65.8567 231.44 65.7924 231.696 65.8736 231.922L68.6535 239.665C68.7348 239.891 68.9435 240.039 69.1736 240.032L75.7301 239.85C77.4876 242.606 79.6391 244.993 82.0707 246.959L81.4647 253.821C81.4434 254.062 81.5699 254.291 81.7795 254.391L88.9535 257.814C89.1631 257.914 89.4098 257.864 89.5677 257.688L94.0731 252.687C97.0804 253.317 100.204 253.447 103.331 253.023L107.521 258.334C107.668 258.52 107.911 258.588 108.127 258.503L115.492 255.602C115.707 255.518 115.848 255.299 115.841 255.057L115.652 248.17C118.271 246.331 120.539 244.077 122.405 241.528L128.94 242.181C129.169 242.204 129.387 242.071 129.481 241.852L132.724 234.325Z" fill="#F2935C"/>
<path opacity="0.56" d="M106.692 219.375C108.411 223.006 107.384 227.514 104.126 229.888C100.544 232.498 95.603 231.556 93.1097 227.788C91.9014 225.963 91.4419 223.755 91.8146 221.571C92.1871 219.387 93.3478 217.487 95.0828 216.223C98.6643 213.614 103.606 214.556 106.099 218.323C106.324 218.663 106.521 219.015 106.692 219.375ZM94.1659 225.87C94.2987 226.151 94.4515 226.423 94.6248 226.685C96.5362 229.573 100.325 230.295 103.071 228.295C105.817 226.294 106.497 222.316 104.584 219.427C102.673 216.539 98.8833 215.817 96.1378 217.817C94.8075 218.787 93.9177 220.243 93.6319 221.917C93.3998 223.279 93.5894 224.652 94.1659 225.87Z" fill="white"/>
<path opacity="0.56" d="M116.852 213.9C117.147 214.524 117.414 215.167 117.651 215.827C117.726 216.035 117.797 216.244 117.866 216.454C118.202 217.492 118.46 218.555 118.634 219.628C118.637 219.643 118.639 219.657 118.641 219.672C118.648 219.714 118.655 219.755 118.661 219.797C118.673 219.878 118.685 219.959 118.697 220.04C118.727 220.253 118.621 220.454 118.447 220.545C118.404 220.567 118.358 220.582 118.308 220.59C118.056 220.629 117.822 220.445 117.784 220.181C117.59 218.818 117.255 217.468 116.787 216.168C114.469 209.707 109.215 205.288 103.219 203.953C99.8842 203.21 96.3192 203.422 92.9015 204.768C92.302 205.004 91.7185 205.27 91.153 205.564C87.3458 207.546 84.3316 210.816 82.5565 214.937C80.5172 219.67 80.3569 224.959 82.1049 229.828C85.7162 239.884 96.4294 244.994 105.991 241.227C106.58 240.995 107.157 240.733 107.717 240.441C110.145 239.177 112.282 237.368 113.968 235.137C114.012 235.079 114.065 235.035 114.124 235.004C114.279 234.924 114.471 234.939 114.616 235.059C114.816 235.227 114.85 235.531 114.691 235.741C112.921 238.083 110.678 239.983 108.129 241.31C107.541 241.616 106.936 241.892 106.317 242.135C96.2784 246.09 85.0289 240.718 81.2413 230.168C79.406 225.056 79.5746 219.505 81.7154 214.536C83.5788 210.21 86.7434 206.776 90.74 204.696C91.3339 204.387 91.9464 204.108 92.5753 203.86C97.4384 201.945 102.725 202.135 107.461 204.395C111.585 206.363 114.862 209.696 116.852 213.9Z" fill="white"/>
<g opacity="0.3">
<path d="M169.886 285.15C170.023 285.44 169.97 285.802 169.732 286.032C169.288 286.463 168.826 286.886 168.358 287.288C168.054 287.549 167.605 287.502 167.355 287.182C167.104 286.862 167.149 286.39 167.453 286.129C167.899 285.745 168.34 285.343 168.764 284.932C169.052 284.651 169.503 284.671 169.771 284.974C169.818 285.028 169.856 285.088 169.886 285.15Z" fill="#B37CFF"/>
<path d="M165.54 288.648C165.701 288.988 165.594 289.407 165.282 289.613C164.401 290.195 163.482 290.736 162.55 291.221C162.354 291.323 162.156 291.423 161.956 291.522C161.6 291.697 161.179 291.509 161.007 291.162C160.839 290.787 160.992 290.342 161.347 290.166C161.538 290.072 161.727 289.977 161.915 289.879C162.804 289.416 163.681 288.9 164.521 288.345C164.854 288.125 165.293 288.231 165.504 288.58C165.517 288.603 165.529 288.625 165.54 288.648ZM158.847 291.946C158.862 291.978 158.876 292.011 158.886 292.045C159.01 292.438 158.807 292.861 158.433 292.99C157.234 293.403 156 293.742 154.765 293.996C154.379 294.075 154.004 293.809 153.927 293.405C153.851 292.999 154.101 292.606 154.487 292.527C155.665 292.284 156.843 291.961 157.986 291.567C158.327 291.45 158.692 291.618 158.847 291.946ZM151.589 293.439C151.629 293.524 151.655 293.619 151.662 293.719C151.69 294.131 151.394 294.489 151.002 294.517C149.744 294.608 148.467 294.618 147.206 294.545C146.813 294.522 146.512 294.17 146.532 293.756C146.553 293.343 146.889 293.027 147.281 293.05C148.483 293.12 149.701 293.111 150.9 293.024C151.197 293.002 151.464 293.175 151.589 293.439ZM144.199 293.011C144.265 293.15 144.29 293.311 144.263 293.475C144.194 293.882 143.823 294.153 143.436 294.079C142.192 293.843 140.952 293.524 139.748 293.131C139.372 293.007 139.163 292.587 139.278 292.193C139.394 291.799 139.793 291.578 140.17 291.701C141.316 292.077 142.5 292.381 143.686 292.606C143.917 292.65 144.102 292.806 144.199 293.011ZM137.129 290.701C137.221 290.895 137.232 291.13 137.141 291.342C136.98 291.719 136.558 291.886 136.199 291.716C135.048 291.17 133.918 290.544 132.841 289.856C132.504 289.642 132.396 289.181 132.6 288.828C132.804 288.475 133.243 288.363 133.579 288.578C134.607 289.234 135.685 289.831 136.783 290.351C136.939 290.426 137.058 290.552 137.129 290.701ZM130.803 286.661C130.922 286.912 130.901 287.224 130.725 287.458C130.481 287.782 130.033 287.836 129.724 287.58C128.733 286.757 127.782 285.862 126.898 284.918C126.621 284.622 126.625 284.149 126.904 283.859C127.184 283.57 127.636 283.574 127.912 283.869C128.756 284.768 129.662 285.622 130.606 286.406C130.692 286.478 130.757 286.565 130.803 286.661ZM125.607 281.123C125.756 281.437 125.678 281.828 125.404 282.048C125.091 282.299 124.644 282.237 124.404 281.908C123.638 280.859 122.925 279.746 122.283 278.599C122.089 278.238 122.198 277.783 122.537 277.575C122.876 277.366 123.313 277.487 123.512 277.843C124.124 278.937 124.804 279.999 125.534 280.999C125.563 281.039 125.587 281.08 125.607 281.123ZM120.596 270.749C120.615 270.788 120.63 270.829 120.642 270.872C120.935 271.92 121.288 272.969 121.691 273.991C121.752 274.146 121.813 274.298 121.875 274.448C122.032 274.828 121.867 275.268 121.506 275.432C121.144 275.597 120.713 275.424 120.568 275.042C120.502 274.881 120.436 274.72 120.373 274.557C119.953 273.49 119.583 272.39 119.275 271.291C119.164 270.894 119.38 270.479 119.758 270.363C120.094 270.26 120.445 270.43 120.596 270.749Z" fill="#B37CFF"/>
</g>
<g opacity="0.3">
<path d="M176.176 247.532C176.349 247.898 176.211 248.343 175.864 248.53C175.514 248.718 175.084 248.572 174.904 248.204C174.363 247.096 173.752 246.013 173.089 244.985C172.873 244.642 172.953 244.177 173.279 243.946C173.605 243.714 174.048 243.805 174.269 244.147C174.963 245.226 175.604 246.361 176.172 247.522C176.172 247.522 176.175 247.529 176.176 247.532ZM177.645 251.04C177.656 251.064 177.666 251.089 177.676 251.115C178.107 252.337 178.472 253.6 178.76 254.867C178.851 255.27 178.616 255.673 178.233 255.768C177.85 255.864 177.466 255.612 177.374 255.212C177.099 254.003 176.75 252.798 176.339 251.631C176.202 251.243 176.391 250.813 176.76 250.671C177.105 250.537 177.485 250.702 177.645 251.04ZM172.091 241.197C172.231 241.495 172.171 241.865 171.922 242.093C171.626 242.364 171.176 242.332 170.916 242.02C170.135 241.082 169.294 240.185 168.414 239.355C168.122 239.076 168.096 238.605 168.359 238.298C168.622 237.991 169.073 237.966 169.366 238.243C170.288 239.113 171.17 240.053 171.989 241.037C172.03 241.087 172.064 241.141 172.091 241.197ZM179.334 258.482C179.37 258.559 179.394 258.643 179.404 258.733C179.543 260.029 179.607 261.347 179.594 262.649C179.59 263.063 179.268 263.394 178.874 263.389C178.481 263.383 178.166 263.044 178.169 262.631C178.181 261.388 178.12 260.132 177.987 258.896C177.943 258.485 178.225 258.115 178.616 258.07C178.922 258.035 179.204 258.209 179.334 258.482ZM166.671 236.085C166.784 236.322 166.773 236.615 166.618 236.847C166.393 237.186 165.949 237.267 165.626 237.03C164.656 236.317 163.635 235.659 162.589 235.074C162.241 234.879 162.109 234.425 162.294 234.061C162.479 233.696 162.91 233.558 163.258 233.753C164.354 234.367 165.425 235.057 166.442 235.804C166.543 235.879 166.62 235.976 166.671 236.085ZM160.245 232.484C160.331 232.666 160.347 232.883 160.273 233.086C160.131 233.472 159.719 233.663 159.352 233.514C158.245 233.064 157.103 232.681 155.958 232.375C155.576 232.273 155.345 231.865 155.441 231.465C155.538 231.064 155.925 230.822 156.306 230.924C157.507 231.245 158.704 231.647 159.863 232.118C160.036 232.188 160.169 232.322 160.245 232.484ZM153.186 230.601C153.247 230.729 153.273 230.876 153.255 231.028C153.206 231.438 152.849 231.728 152.458 231.675C151.283 231.515 150.087 231.431 148.906 231.424C148.513 231.421 148.195 231.084 148.196 230.671C148.198 230.257 148.518 229.924 148.912 229.927C150.15 229.935 151.404 230.023 152.637 230.19C152.883 230.223 153.083 230.384 153.186 230.601Z" fill="#B37CFF"/>
<path d="M179.255 266.162C179.316 266.292 179.342 266.441 179.323 266.595C179.242 267.23 179.143 267.865 179.029 268.483C178.953 268.888 178.579 269.152 178.193 269.073C177.808 268.992 177.555 268.599 177.629 268.193C177.739 267.604 177.833 266.998 177.91 266.393C177.963 265.983 178.321 265.696 178.711 265.752C178.955 265.787 179.153 265.947 179.255 266.162Z" fill="#B37CFF"/>
</g>
<path d="M170.751 269.895C170.814 269.748 170.781 269.574 170.67 269.463L167.476 266.288C167.872 264.176 167.95 261.981 167.675 259.782L171.052 256.846C171.17 256.743 171.213 256.572 171.159 256.421L169.299 251.239C169.244 251.088 169.105 250.989 168.951 250.994L164.563 251.115C163.387 249.271 161.948 247.674 160.321 246.359L160.726 241.767C160.74 241.606 160.656 241.453 160.515 241.386L155.715 239.095C155.575 239.028 155.41 239.061 155.304 239.179L152.289 242.526C150.277 242.104 148.187 242.017 146.094 242.301L143.29 238.747C143.192 238.622 143.029 238.577 142.885 238.633L137.956 240.575C137.812 240.632 137.719 240.778 137.723 240.94L137.85 245.548C136.097 246.779 134.58 248.287 133.331 249.993L128.958 249.556C128.804 249.541 128.659 249.629 128.596 249.776L126.426 254.813C126.362 254.96 126.395 255.133 126.507 255.245L129.701 258.419C129.304 260.532 129.226 262.727 129.501 264.925L126.125 267.862C126.006 267.965 125.963 268.135 126.017 268.287L127.878 273.468C127.932 273.62 128.072 273.718 128.226 273.714L132.613 273.592C133.789 275.436 135.229 277.033 136.856 278.349L136.45 282.941C136.436 283.102 136.521 283.255 136.661 283.322L141.461 285.613C141.602 285.68 141.767 285.646 141.872 285.529L144.887 282.182C146.9 282.604 148.99 282.691 151.082 282.407L153.886 285.961C153.984 286.085 154.147 286.131 154.291 286.074L159.22 284.133C159.364 284.076 159.458 283.93 159.453 283.768L159.327 279.16C161.079 277.929 162.597 276.421 163.845 274.715L168.219 275.152C168.372 275.167 168.517 275.078 168.581 274.931L170.751 269.895Z" fill="#F2935C"/>
<path opacity="0.56" d="M153.418 259.852C153.931 260.934 154.099 262.155 153.893 263.364C153.639 264.852 152.848 266.146 151.666 267.007C149.228 268.784 145.862 268.143 144.163 265.577C142.467 263.004 143.068 259.476 145.507 257.699C146.689 256.837 148.12 256.512 149.537 256.782C150.955 257.052 152.189 257.886 153.011 259.129C153.165 259.362 153.301 259.604 153.418 259.852ZM145.036 264.197C145.121 264.378 145.22 264.554 145.333 264.724C146.582 266.612 149.058 267.084 150.852 265.776C151.721 265.143 152.303 264.191 152.49 263.097C152.676 262.002 152.445 260.897 151.841 259.981C151.236 259.067 150.328 258.454 149.286 258.255C148.243 258.056 147.191 258.296 146.321 258.929C144.689 260.118 144.175 262.378 145.036 264.197Z" fill="white"/>
<path opacity="0.56" d="M160.496 256.051C160.697 256.475 160.879 256.914 161.042 257.366C161.365 258.265 161.601 259.199 161.744 260.144C161.75 260.187 161.757 260.229 161.763 260.272C161.81 260.601 161.645 260.912 161.377 261.052C161.311 261.086 161.239 261.11 161.163 261.122C160.774 261.182 160.413 260.898 160.353 260.49C160.228 259.606 160.01 258.732 159.709 257.892L159.708 257.892C159.692 257.846 159.675 257.799 159.658 257.754C158.926 255.773 157.752 254.058 156.249 252.718C155.432 251.991 154.518 251.375 153.523 250.889C153.515 250.885 153.507 250.881 153.499 250.877C153.474 250.865 153.449 250.853 153.425 250.842C150.504 249.448 147.244 249.331 144.245 250.512C143.857 250.664 143.48 250.836 143.114 251.027C140.649 252.31 138.698 254.427 137.548 257.095C136.228 260.159 136.125 263.583 137.256 266.734C138.389 269.884 140.62 272.39 143.54 273.785C146.461 275.178 149.721 275.296 152.719 274.114C153.101 273.964 153.474 273.794 153.836 273.606C155.409 272.787 156.792 271.616 157.883 270.172C157.95 270.083 158.033 270.014 158.124 269.967C158.363 269.843 158.661 269.866 158.884 270.052C159.192 270.311 159.245 270.78 159 271.105C157.779 272.721 156.231 274.031 154.473 274.947C154.067 275.158 153.65 275.348 153.223 275.516C149.868 276.838 146.221 276.707 142.953 275.147C139.686 273.588 137.187 270.789 135.923 267.26C134.657 263.733 134.772 259.903 136.25 256.475C137.535 253.49 139.719 251.122 142.476 249.687C142.885 249.474 143.308 249.281 143.742 249.11C150.237 246.552 157.467 249.65 160.496 256.051Z" fill="white"/>
<path d="M6.5957 342.657V330.679H14.0166V332.024H8.08984V335.867H13.7095V337.195H8.08984V341.312H14.0166V342.657H6.5957ZM16.2 342.657V333.709H17.6444V335.054H17.7772C18.0041 334.578 18.3306 334.21 18.7567 333.95C19.1828 333.684 19.7251 333.551 20.3836 333.551C21.3908 333.551 22.1628 333.839 22.6996 334.415C23.2419 334.985 23.513 335.801 23.513 336.863V342.657H22.0687V337.212C22.0687 336.404 21.8971 335.806 21.554 335.419C21.2165 335.026 20.6908 334.83 19.9769 334.83C19.501 334.83 19.0887 334.932 18.7401 335.137C18.3914 335.341 18.1203 335.632 17.9266 336.008C17.7385 336.385 17.6444 336.836 17.6444 337.361V342.657H16.2ZM28.967 342.724C28.0484 342.724 27.3815 342.538 26.9665 342.167C26.557 341.797 26.3522 341.185 26.3522 340.333V334.904H24.9411V333.709H26.3522V331.393H27.8464V333.709H29.8054V334.904H27.8464V339.968C27.8464 340.493 27.946 340.873 28.1452 341.105C28.3444 341.332 28.6764 341.445 29.1413 341.445C29.2686 341.445 29.3765 341.443 29.465 341.437C29.5591 341.431 29.6725 341.423 29.8054 341.412V342.641C29.667 342.663 29.5287 342.682 29.3903 342.699C29.252 342.715 29.1109 342.724 28.967 342.724ZM35.1597 342.815C34.3075 342.815 33.5742 342.627 32.96 342.25C32.3513 341.874 31.8809 341.343 31.5488 340.657C31.2223 339.965 31.0591 339.152 31.0591 338.216V338.208C31.0591 337.284 31.2223 336.473 31.5488 335.776C31.8809 335.079 32.3485 334.534 32.9517 334.141C33.5549 333.748 34.2604 333.551 35.0684 333.551C35.8819 333.551 36.5791 333.739 37.1602 334.116C37.7468 334.492 38.195 335.018 38.5049 335.693C38.8203 336.362 38.978 337.143 38.978 338.034V338.598H31.8062V337.444H38.2393L37.5254 338.499V337.926C37.5254 337.223 37.4203 336.645 37.21 336.191C36.9997 335.737 36.7092 335.4 36.3384 335.178C35.9676 334.951 35.5415 334.838 35.0601 334.838C34.5786 334.838 34.147 334.957 33.7652 335.195C33.3889 335.427 33.09 335.773 32.8687 336.232C32.6473 336.692 32.5366 337.256 32.5366 337.926V338.499C32.5366 339.135 32.6446 339.68 32.8604 340.134C33.0762 340.582 33.3833 340.928 33.7818 341.171C34.1802 341.409 34.6506 341.528 35.1929 341.528C35.5969 341.528 35.9483 341.473 36.2471 341.362C36.5459 341.252 36.7922 341.111 36.9859 340.939C37.1795 340.767 37.3151 340.593 37.3926 340.416L37.4258 340.341H38.8701L38.8535 340.408C38.7761 340.712 38.6377 341.008 38.4385 341.296C38.2448 341.578 37.993 341.835 37.6831 342.068C37.3732 342.295 37.0052 342.477 36.5791 342.616C36.1585 342.749 35.6854 342.815 35.1597 342.815ZM40.8793 342.657V333.709H42.3236V335.037H42.4564C42.628 334.567 42.9185 334.201 43.328 333.941C43.7375 333.681 44.2438 333.551 44.847 333.551C44.9854 333.551 45.121 333.56 45.2538 333.576C45.3921 333.587 45.4973 333.598 45.5692 333.609V335.012C45.4198 334.985 45.2731 334.965 45.1293 334.954C44.9909 334.938 44.8415 334.929 44.681 334.929C44.2217 334.929 43.815 335.021 43.4608 335.203C43.1066 335.386 42.8272 335.64 42.6224 335.967C42.4232 336.293 42.3236 336.675 42.3236 337.112V342.657H40.8793ZM52.2188 345.795C52.1247 345.795 52.0196 345.789 51.9034 345.778C51.7871 345.773 51.6792 345.762 51.5796 345.745V344.558C51.6682 344.575 51.765 344.586 51.8702 344.591C51.9753 344.597 52.0777 344.6 52.1773 344.6C52.5868 344.6 52.9216 344.494 53.1817 344.284C53.4473 344.074 53.6604 343.711 53.8208 343.197L53.9869 342.666L50.6748 333.709H52.2188L54.9746 341.977L54.4019 341.072H55.0826L54.5098 341.977L57.2574 333.709H58.7764L55.2818 343.205C55.0383 343.875 54.781 344.398 54.5098 344.774C54.2386 345.15 53.9204 345.413 53.5552 345.562C53.1955 345.717 52.75 345.795 52.2188 345.795ZM63.6908 342.815C62.8441 342.815 62.1109 342.63 61.4911 342.259C60.8768 341.882 60.4009 341.348 60.0634 340.657C59.7313 339.965 59.5653 339.143 59.5653 338.191V338.175C59.5653 337.217 59.7313 336.393 60.0634 335.701C60.4009 335.009 60.8768 334.478 61.4911 334.107C62.1109 333.737 62.8441 333.551 63.6908 333.551C64.543 333.551 65.2762 333.737 65.8905 334.107C66.5048 334.478 66.9779 335.009 67.3099 335.701C67.6475 336.393 67.8163 337.217 67.8163 338.175V338.191C67.8163 339.143 67.6475 339.965 67.3099 340.657C66.9779 341.348 66.5048 341.882 65.8905 342.259C65.2762 342.63 64.543 342.815 63.6908 342.815ZM63.6908 341.537C64.2553 341.537 64.7339 341.404 65.1268 341.138C65.5197 340.873 65.8186 340.491 66.0233 339.993C66.2336 339.495 66.3387 338.894 66.3387 338.191V338.175C66.3387 337.466 66.2336 336.863 66.0233 336.365C65.8186 335.867 65.5197 335.488 65.1268 335.228C64.7339 334.962 64.2553 334.83 63.6908 334.83C63.1263 334.83 62.6477 334.962 62.2548 335.228C61.8619 335.488 61.5603 335.867 61.35 336.365C61.1452 336.863 61.0429 337.466 61.0429 338.175V338.191C61.0429 338.894 61.1452 339.495 61.35 339.993C61.5603 340.491 61.8619 340.873 62.2548 341.138C62.6477 341.404 63.1263 341.537 63.6908 341.537ZM72.7141 342.815C72.039 342.815 71.4717 342.688 71.0124 342.433C70.5531 342.173 70.2072 341.797 69.9748 341.304C69.7479 340.806 69.6345 340.206 69.6345 339.503V333.709H71.0788V339.154C71.0788 339.957 71.2338 340.554 71.5437 340.947C71.8591 341.34 72.3737 341.537 73.0876 341.537C73.4805 341.537 73.8264 341.479 74.1252 341.362C74.4296 341.246 74.6841 341.08 74.8889 340.864C75.0936 340.643 75.2458 340.377 75.3454 340.067C75.4506 339.752 75.5031 339.398 75.5031 339.005V333.709H76.9475V342.657H75.5031V341.321H75.3703C75.2265 341.636 75.03 341.907 74.781 342.134C74.532 342.356 74.2331 342.524 73.8845 342.641C73.5414 342.757 73.1513 342.815 72.7141 342.815ZM79.3052 342.657V333.709H80.7496V335.037H80.8824C81.0539 334.567 81.3445 334.201 81.754 333.941C82.1635 333.681 82.6698 333.551 83.273 333.551C83.4114 333.551 83.5469 333.56 83.6797 333.576C83.8181 333.587 83.9232 333.598 83.9952 333.609V335.012C83.8458 334.985 83.6991 334.965 83.5552 334.954C83.4169 334.938 83.2675 334.929 83.107 334.929C82.6477 334.929 82.2409 335.021 81.8868 335.203C81.5326 335.386 81.2532 335.64 81.0484 335.967C80.8492 336.293 80.7496 336.675 80.7496 337.112V342.657H79.3052ZM89.8811 342.657V333.709H91.3254V335.037H91.4582C91.6298 334.567 91.9203 334.201 92.3298 333.941C92.7393 333.681 93.2457 333.551 93.8489 333.551C93.9872 333.551 94.1228 333.56 94.2556 333.576C94.394 333.587 94.4991 333.598 94.571 333.609V335.012C94.4216 334.985 94.275 334.965 94.1311 334.954C93.9927 334.938 93.8433 334.929 93.6829 334.929C93.2235 334.929 92.8168 335.021 92.4626 335.203C92.1085 335.386 91.829 335.64 91.6243 335.967C91.425 336.293 91.3254 336.675 91.3254 337.112V342.657H89.8811ZM99.419 342.815C98.5668 342.815 97.8336 342.627 97.2193 342.25C96.6106 341.874 96.1402 341.343 95.8082 340.657C95.4817 339.965 95.3184 339.152 95.3184 338.216V338.208C95.3184 337.284 95.4817 336.473 95.8082 335.776C96.1402 335.079 96.6078 334.534 97.211 334.141C97.8142 333.748 98.5198 333.551 99.3277 333.551C100.141 333.551 100.838 333.739 101.42 334.116C102.006 334.492 102.454 335.018 102.764 335.693C103.08 336.362 103.237 337.143 103.237 338.034V338.598H96.0655V337.444H102.499L101.785 338.499V337.926C101.785 337.223 101.68 336.645 101.469 336.191C101.259 335.737 100.969 335.4 100.598 335.178C100.227 334.951 99.8009 334.838 99.3194 334.838C98.838 334.838 98.4063 334.957 98.0245 335.195C97.6482 335.427 97.3494 335.773 97.128 336.232C96.9067 336.692 96.796 337.256 96.796 337.926V338.499C96.796 339.135 96.9039 339.68 97.1197 340.134C97.3355 340.582 97.6427 340.928 98.0411 341.171C98.4395 341.409 98.9099 341.528 99.4522 341.528C99.8562 341.528 100.208 341.473 100.506 341.362C100.805 341.252 101.052 341.111 101.245 340.939C101.439 340.767 101.574 340.593 101.652 340.416L101.685 340.341H103.129L103.113 340.408C103.035 340.712 102.897 341.008 102.698 341.296C102.504 341.578 102.252 341.835 101.942 342.068C101.633 342.295 101.265 342.477 100.838 342.616C100.418 342.749 99.9447 342.815 99.419 342.815ZM108.824 345.812C108.105 345.812 107.477 345.709 106.94 345.504C106.403 345.305 105.974 345.02 105.653 344.649C105.338 344.284 105.141 343.858 105.064 343.371L105.08 343.363H106.575L106.583 343.371C106.66 343.709 106.893 343.985 107.28 344.201C107.668 344.423 108.182 344.533 108.824 344.533C109.627 344.533 110.252 344.351 110.7 343.985C111.154 343.626 111.381 343.117 111.381 342.458V340.648H111.248C111.06 340.975 110.825 341.254 110.542 341.487C110.26 341.719 109.942 341.896 109.588 342.018C109.234 342.134 108.852 342.192 108.442 342.192C107.673 342.192 107.006 342.01 106.442 341.645C105.883 341.274 105.451 340.765 105.147 340.117C104.843 339.47 104.69 338.728 104.69 337.893V337.876C104.69 337.04 104.843 336.299 105.147 335.651C105.457 334.998 105.894 334.486 106.458 334.116C107.023 333.739 107.695 333.551 108.476 333.551C108.896 333.551 109.283 333.618 109.638 333.75C109.992 333.883 110.304 334.071 110.576 334.315C110.852 334.558 111.082 334.849 111.265 335.187H111.364V333.709H112.809V342.533C112.809 343.197 112.645 343.775 112.319 344.268C111.998 344.76 111.538 345.139 110.941 345.405C110.343 345.676 109.638 345.812 108.824 345.812ZM108.758 340.914C109.311 340.914 109.784 340.787 110.177 340.532C110.576 340.272 110.88 339.915 111.09 339.461C111.306 339.008 111.414 338.485 111.414 337.893V337.876C111.414 337.284 111.306 336.758 111.09 336.299C110.88 335.84 110.576 335.48 110.177 335.22C109.784 334.96 109.311 334.83 108.758 334.83C108.204 334.83 107.734 334.96 107.347 335.22C106.965 335.48 106.671 335.84 106.467 336.299C106.268 336.758 106.168 337.284 106.168 337.876V337.893C106.168 338.485 106.268 339.008 106.467 339.461C106.671 339.915 106.965 340.272 107.347 340.532C107.734 340.787 108.204 340.914 108.758 340.914ZM115.191 342.657V333.709H116.636V342.657H115.191ZM115.922 331.982C115.65 331.982 115.415 331.886 115.216 331.692C115.022 331.493 114.926 331.257 114.926 330.986C114.926 330.71 115.022 330.474 115.216 330.281C115.415 330.087 115.65 329.99 115.922 329.99C116.198 329.99 116.434 330.087 116.627 330.281C116.821 330.474 116.918 330.71 116.918 330.986C116.918 331.257 116.821 331.493 116.627 331.692C116.434 331.886 116.198 331.982 115.922 331.982ZM122.089 342.815C121.425 342.815 120.839 342.715 120.33 342.516C119.821 342.311 119.411 342.026 119.101 341.661C118.797 341.296 118.617 340.867 118.562 340.375H120.039C120.161 340.745 120.399 341.044 120.753 341.271C121.107 341.498 121.569 341.611 122.139 341.611C122.543 341.611 122.897 341.553 123.202 341.437C123.512 341.315 123.755 341.152 123.932 340.947C124.109 340.737 124.198 340.496 124.198 340.225V340.208C124.198 339.904 124.076 339.647 123.833 339.437C123.589 339.221 123.191 339.046 122.637 338.914L121.251 338.582C120.692 338.449 120.233 338.277 119.873 338.067C119.513 337.851 119.248 337.588 119.076 337.278C118.905 336.963 118.819 336.592 118.819 336.166V336.158C118.819 335.66 118.963 335.214 119.251 334.821C119.544 334.428 119.942 334.118 120.446 333.892C120.949 333.665 121.517 333.551 122.148 333.551C122.773 333.551 123.326 333.651 123.808 333.85C124.295 334.044 124.685 334.32 124.978 334.68C125.277 335.04 125.46 335.463 125.526 335.95H124.107C124.012 335.596 123.797 335.308 123.459 335.087C123.122 334.866 122.682 334.755 122.139 334.755C121.785 334.755 121.47 334.813 121.193 334.929C120.916 335.04 120.698 335.195 120.537 335.394C120.377 335.593 120.296 335.826 120.296 336.091V336.108C120.296 336.307 120.349 336.484 120.454 336.639C120.559 336.794 120.723 336.93 120.944 337.046C121.165 337.162 121.45 337.264 121.799 337.353L123.177 337.685C124.018 337.89 124.643 338.183 125.053 338.565C125.468 338.947 125.675 339.459 125.675 340.101V340.117C125.675 340.648 125.518 341.119 125.202 341.528C124.887 341.932 124.458 342.248 123.916 342.475C123.379 342.701 122.77 342.815 122.089 342.815ZM130.673 342.724C129.754 342.724 129.087 342.538 128.672 342.167C128.263 341.797 128.058 341.185 128.058 340.333V334.904H126.647V333.709H128.058V331.393H129.552V333.709H131.511V334.904H129.552V339.968C129.552 340.493 129.652 340.873 129.851 341.105C130.05 341.332 130.382 341.445 130.847 341.445C130.974 341.445 131.082 341.443 131.171 341.437C131.265 341.431 131.378 341.423 131.511 341.412V342.641C131.373 342.663 131.234 342.682 131.096 342.699C130.958 342.715 130.817 342.724 130.673 342.724ZM136.866 342.815C136.013 342.815 135.28 342.627 134.666 342.25C134.057 341.874 133.587 341.343 133.255 340.657C132.928 339.965 132.765 339.152 132.765 338.216V338.208C132.765 337.284 132.928 336.473 133.255 335.776C133.587 335.079 134.054 334.534 134.658 334.141C135.261 333.748 135.966 333.551 136.774 333.551C137.588 333.551 138.285 333.739 138.866 334.116C139.453 334.492 139.901 335.018 140.211 335.693C140.526 336.362 140.684 337.143 140.684 338.034V338.598H133.512V337.444H139.945L139.231 338.499V337.926C139.231 337.223 139.126 336.645 138.916 336.191C138.706 335.737 138.415 335.4 138.044 335.178C137.673 334.951 137.247 334.838 136.766 334.838C136.284 334.838 135.853 334.957 135.471 335.195C135.095 335.427 134.796 335.773 134.574 336.232C134.353 336.692 134.242 337.256 134.242 337.926V338.499C134.242 339.135 134.35 339.68 134.566 340.134C134.782 340.582 135.089 340.928 135.488 341.171C135.886 341.409 136.356 341.528 136.899 341.528C137.303 341.528 137.654 341.473 137.953 341.362C138.252 341.252 138.498 341.111 138.692 340.939C138.885 340.767 139.021 340.593 139.098 340.416L139.132 340.341H140.576L140.559 340.408C140.482 340.712 140.344 341.008 140.144 341.296C139.951 341.578 139.699 341.835 139.389 342.068C139.079 342.295 138.711 342.477 138.285 342.616C137.864 342.749 137.391 342.815 136.866 342.815ZM142.585 342.657V333.709H144.029V335.037H144.162C144.334 334.567 144.624 334.201 145.034 333.941C145.443 333.681 145.95 333.551 146.553 333.551C146.691 333.551 146.827 333.56 146.96 333.576C147.098 333.587 147.203 333.598 147.275 333.609V335.012C147.126 334.985 146.979 334.965 146.835 334.954C146.697 334.938 146.547 334.929 146.387 334.929C145.928 334.929 145.521 335.021 145.167 335.203C144.812 335.386 144.533 335.64 144.328 335.967C144.129 336.293 144.029 336.675 144.029 337.112V342.657H142.585ZM152.123 342.815C151.271 342.815 150.538 342.627 149.923 342.25C149.315 341.874 148.844 341.343 148.512 340.657C148.186 339.965 148.022 339.152 148.022 338.216V338.208C148.022 337.284 148.186 336.473 148.512 335.776C148.844 335.079 149.312 334.534 149.915 334.141C150.518 333.748 151.224 333.551 152.032 333.551C152.845 333.551 153.542 333.739 154.123 334.116C154.71 334.492 155.158 335.018 155.468 335.693C155.784 336.362 155.941 337.143 155.941 338.034V338.598H148.769V337.444H155.203L154.489 338.499V337.926C154.489 337.223 154.384 336.645 154.173 336.191C153.963 335.737 153.672 335.4 153.302 335.178C152.931 334.951 152.505 334.838 152.023 334.838C151.542 334.838 151.11 334.957 150.728 335.195C150.352 335.427 150.053 335.773 149.832 336.232C149.611 336.692 149.5 337.256 149.5 337.926V338.499C149.5 339.135 149.608 339.68 149.824 340.134C150.04 340.582 150.347 340.928 150.745 341.171C151.144 341.409 151.614 341.528 152.156 341.528C152.56 341.528 152.912 341.473 153.21 341.362C153.509 341.252 153.755 341.111 153.949 340.939C154.143 340.767 154.278 340.593 154.356 340.416L154.389 340.341H155.833L155.817 340.408C155.739 340.712 155.601 341.008 155.402 341.296C155.208 341.578 154.956 341.835 154.646 342.068C154.337 342.295 153.969 342.477 153.542 342.616C153.122 342.749 152.649 342.815 152.123 342.815ZM161.146 342.815C160.394 342.815 159.735 342.624 159.171 342.242C158.606 341.86 158.169 341.324 157.859 340.632C157.549 339.935 157.394 339.121 157.394 338.191V338.175C157.394 337.24 157.549 336.426 157.859 335.734C158.169 335.043 158.603 334.506 159.162 334.124C159.727 333.742 160.388 333.551 161.146 333.551C161.556 333.551 161.94 333.618 162.3 333.75C162.665 333.878 162.989 334.058 163.271 334.29C163.554 334.522 163.775 334.799 163.935 335.12H164.068V330.156H165.512V342.657H164.068V341.229H163.935C163.753 341.562 163.523 341.847 163.246 342.084C162.97 342.317 162.654 342.497 162.3 342.624C161.946 342.751 161.561 342.815 161.146 342.815ZM161.478 341.537C162.021 341.537 162.488 341.401 162.881 341.13C163.274 340.859 163.576 340.474 163.786 339.976C163.996 339.472 164.101 338.878 164.101 338.191V338.175C164.101 337.483 163.996 336.888 163.786 336.39C163.576 335.892 163.274 335.507 162.881 335.236C162.488 334.965 162.021 334.83 161.478 334.83C160.936 334.83 160.468 334.965 160.075 335.236C159.688 335.502 159.389 335.884 159.179 336.382C158.974 336.88 158.872 337.478 158.872 338.175V338.191C158.872 338.883 158.974 339.481 159.179 339.984C159.389 340.482 159.688 340.867 160.075 341.138C160.468 341.404 160.936 341.537 161.478 341.537ZM176.039 342.815C175.186 342.815 174.453 342.627 173.839 342.25C173.23 341.874 172.76 341.343 172.428 340.657C172.101 339.965 171.938 339.152 171.938 338.216V338.208C171.938 337.284 172.101 336.473 172.428 335.776C172.76 335.079 173.227 334.534 173.831 334.141C174.434 333.748 175.139 333.551 175.947 333.551C176.761 333.551 177.458 333.739 178.039 334.116C178.626 334.492 179.074 335.018 179.384 335.693C179.699 336.362 179.857 337.143 179.857 338.034V338.598H172.685V337.444H179.118L178.404 338.499V337.926C178.404 337.223 178.299 336.645 178.089 336.191C177.879 335.737 177.588 335.4 177.217 335.178C176.847 334.951 176.42 334.838 175.939 334.838C175.458 334.838 175.026 334.957 174.644 335.195C174.268 335.427 173.969 335.773 173.748 336.232C173.526 336.692 173.416 337.256 173.416 337.926V338.499C173.416 339.135 173.523 339.68 173.739 340.134C173.955 340.582 174.262 340.928 174.661 341.171C175.059 341.409 175.529 341.528 176.072 341.528C176.476 341.528 176.827 341.473 177.126 341.362C177.425 341.252 177.671 341.111 177.865 340.939C178.058 340.767 178.194 340.593 178.271 340.416L178.305 340.341H179.749L179.732 340.408C179.655 340.712 179.517 341.008 179.317 341.296C179.124 341.578 178.872 341.835 178.562 342.068C178.252 342.295 177.884 342.477 177.458 342.616C177.037 342.749 176.564 342.815 176.039 342.815ZM181.758 342.657V333.709H183.202V335.07H183.335C183.534 334.589 183.839 334.215 184.248 333.95C184.663 333.684 185.164 333.551 185.751 333.551C186.155 333.551 186.517 333.618 186.838 333.75C187.159 333.883 187.436 334.069 187.668 334.307C187.901 334.539 188.086 334.81 188.224 335.12H188.357C188.518 334.805 188.734 334.531 189.005 334.298C189.276 334.06 189.589 333.878 189.943 333.75C190.302 333.618 190.687 333.551 191.096 333.551C191.705 333.551 192.22 333.665 192.64 333.892C193.067 334.118 193.39 334.451 193.612 334.888C193.833 335.319 193.944 335.848 193.944 336.473V342.657H192.499V336.805C192.499 336.362 192.43 335.997 192.292 335.709C192.159 335.416 191.954 335.198 191.678 335.054C191.401 334.904 191.052 334.83 190.632 334.83C190.217 334.83 189.854 334.924 189.544 335.112C189.234 335.3 188.994 335.552 188.822 335.867C188.651 336.177 188.565 336.523 188.565 336.905V342.657H187.12V336.581C187.12 336.227 187.043 335.92 186.888 335.66C186.739 335.394 186.523 335.189 186.241 335.045C185.964 334.902 185.637 334.83 185.261 334.83C184.874 334.83 184.522 334.932 184.207 335.137C183.897 335.341 183.651 335.618 183.468 335.967C183.291 336.31 183.202 336.692 183.202 337.112V342.657H181.758ZM198.667 342.815C198.103 342.815 197.594 342.707 197.14 342.491C196.692 342.275 196.335 341.968 196.069 341.57C195.809 341.171 195.679 340.701 195.679 340.159V340.142C195.679 339.611 195.806 339.157 196.061 338.781C196.315 338.399 196.686 338.1 197.173 337.884C197.66 337.668 198.249 337.541 198.941 337.502L202.228 337.303V338.457L199.115 338.656C198.435 338.695 197.937 338.836 197.621 339.08C197.311 339.323 197.156 339.666 197.156 340.109V340.125C197.156 340.579 197.328 340.933 197.671 341.188C198.014 341.437 198.446 341.562 198.966 341.562C199.458 341.562 199.896 341.465 200.277 341.271C200.659 341.072 200.958 340.803 201.174 340.466C201.395 340.128 201.506 339.746 201.506 339.32V336.531C201.506 335.978 201.337 335.557 201 335.27C200.668 334.976 200.167 334.83 199.497 334.83C198.96 334.83 198.52 334.926 198.177 335.12C197.834 335.308 197.605 335.577 197.488 335.925L197.48 335.95H196.036L196.044 335.9C196.122 335.43 196.315 335.021 196.625 334.672C196.941 334.318 197.347 334.044 197.845 333.85C198.343 333.651 198.911 333.551 199.547 333.551C200.277 333.551 200.895 333.67 201.398 333.908C201.907 334.146 202.292 334.489 202.552 334.938C202.818 335.38 202.95 335.911 202.95 336.531V342.657H201.506V341.337H201.373C201.185 341.653 200.955 341.921 200.684 342.143C200.419 342.364 200.117 342.533 199.779 342.649C199.442 342.76 199.071 342.815 198.667 342.815ZM205.283 342.657V333.709H206.728V342.657H205.283ZM206.014 331.982C205.743 331.982 205.507 331.886 205.308 331.692C205.114 331.493 205.018 331.257 205.018 330.986C205.018 330.71 205.114 330.474 205.308 330.281C205.507 330.087 205.743 329.99 206.014 329.99C206.29 329.99 206.526 330.087 206.719 330.281C206.913 330.474 207.01 330.71 207.01 330.986C207.01 331.257 206.913 331.493 206.719 331.692C206.526 331.886 206.29 331.982 206.014 331.982ZM209.193 342.657V330.156H210.638V342.657H209.193ZM220.69 342.724C219.772 342.724 219.105 342.538 218.69 342.167C218.28 341.797 218.076 341.185 218.076 340.333V334.904H216.665V333.709H218.076V331.393H219.57V333.709H221.529V334.904H219.57V339.968C219.57 340.493 219.669 340.873 219.869 341.105C220.068 341.332 220.4 341.445 220.865 341.445C220.992 341.445 221.1 341.443 221.188 341.437C221.283 341.431 221.396 341.423 221.529 341.412V342.641C221.39 342.663 221.252 342.682 221.114 342.699C220.975 342.715 220.834 342.724 220.69 342.724ZM226.908 342.815C226.061 342.815 225.328 342.63 224.708 342.259C224.094 341.882 223.618 341.348 223.281 340.657C222.949 339.965 222.783 339.143 222.783 338.191V338.175C222.783 337.217 222.949 336.393 223.281 335.701C223.618 335.009 224.094 334.478 224.708 334.107C225.328 333.737 226.061 333.551 226.908 333.551C227.76 333.551 228.494 333.737 229.108 334.107C229.722 334.478 230.195 335.009 230.527 335.701C230.865 336.393 231.034 337.217 231.034 338.175V338.191C231.034 339.143 230.865 339.965 230.527 340.657C230.195 341.348 229.722 341.882 229.108 342.259C228.494 342.63 227.76 342.815 226.908 342.815ZM226.908 341.537C227.473 341.537 227.951 341.404 228.344 341.138C228.737 340.873 229.036 340.491 229.241 339.993C229.451 339.495 229.556 338.894 229.556 338.191V338.175C229.556 337.466 229.451 336.863 229.241 336.365C229.036 335.867 228.737 335.488 228.344 335.228C227.951 334.962 227.473 334.83 226.908 334.83C226.344 334.83 225.865 334.962 225.472 335.228C225.079 335.488 224.778 335.867 224.567 336.365C224.362 336.863 224.26 337.466 224.26 338.175V338.191C224.26 338.894 224.362 339.495 224.567 339.993C224.778 340.491 225.079 340.873 225.472 341.138C225.865 341.404 226.344 341.537 226.908 341.537ZM237.376 342.657V333.709H238.82V335.037H238.953C239.125 334.567 239.415 334.201 239.825 333.941C240.234 333.681 240.741 333.551 241.344 333.551C241.482 333.551 241.618 333.56 241.751 333.576C241.889 333.587 241.994 333.598 242.066 333.609V335.012C241.917 334.985 241.77 334.965 241.626 334.954C241.488 334.938 241.338 334.929 241.178 334.929C240.718 334.929 240.312 335.021 239.958 335.203C239.603 335.386 239.324 335.64 239.119 335.967C238.92 336.293 238.82 336.675 238.82 337.112V342.657H237.376ZM246.914 342.815C246.062 342.815 245.328 342.627 244.714 342.25C244.106 341.874 243.635 341.343 243.303 340.657C242.977 339.965 242.813 339.152 242.813 338.216V338.208C242.813 337.284 242.977 336.473 243.303 335.776C243.635 335.079 244.103 334.534 244.706 334.141C245.309 333.748 246.015 333.551 246.823 333.551C247.636 333.551 248.333 333.739 248.914 334.116C249.501 334.492 249.949 335.018 250.259 335.693C250.575 336.362 250.732 337.143 250.732 338.034V338.598H243.56V337.444H249.994L249.28 338.499V337.926C249.28 337.223 249.175 336.645 248.964 336.191C248.754 335.737 248.463 335.4 248.093 335.178C247.722 334.951 247.296 334.838 246.814 334.838C246.333 334.838 245.901 334.957 245.519 335.195C245.143 335.427 244.844 335.773 244.623 336.232C244.402 336.692 244.291 337.256 244.291 337.926V338.499C244.291 339.135 244.399 339.68 244.615 340.134C244.83 340.582 245.138 340.928 245.536 341.171C245.934 341.409 246.405 341.528 246.947 341.528C247.351 341.528 247.703 341.473 248.001 341.362C248.3 341.252 248.546 341.111 248.74 340.939C248.934 340.767 249.069 340.593 249.147 340.416L249.18 340.341H250.624L250.608 340.408C250.53 340.712 250.392 341.008 250.193 341.296C249.999 341.578 249.747 341.835 249.437 342.068C249.127 342.295 248.759 342.477 248.333 342.616C247.913 342.749 247.44 342.815 246.914 342.815ZM255.705 342.815C255.041 342.815 254.454 342.715 253.945 342.516C253.436 342.311 253.026 342.026 252.717 341.661C252.412 341.296 252.232 340.867 252.177 340.375H253.655C253.776 340.745 254.014 341.044 254.368 341.271C254.723 341.498 255.185 341.611 255.755 341.611C256.159 341.611 256.513 341.553 256.817 341.437C257.127 341.315 257.37 341.152 257.548 340.947C257.725 340.737 257.813 340.496 257.813 340.225V340.208C257.813 339.904 257.691 339.647 257.448 339.437C257.204 339.221 256.806 339.046 256.253 338.914L254.866 338.582C254.308 338.449 253.848 338.277 253.488 338.067C253.129 337.851 252.863 337.588 252.692 337.278C252.52 336.963 252.434 336.592 252.434 336.166V336.158C252.434 335.66 252.578 335.214 252.866 334.821C253.159 334.428 253.558 334.118 254.061 333.892C254.565 333.665 255.132 333.551 255.763 333.551C256.388 333.551 256.942 333.651 257.423 333.85C257.91 334.044 258.3 334.32 258.593 334.68C258.892 335.04 259.075 335.463 259.141 335.95H257.722C257.628 335.596 257.412 335.308 257.074 335.087C256.737 334.866 256.297 334.755 255.755 334.755C255.4 334.755 255.085 334.813 254.808 334.929C254.532 335.04 254.313 335.195 254.153 335.394C253.992 335.593 253.912 335.826 253.912 336.091V336.108C253.912 336.307 253.964 336.484 254.07 336.639C254.175 336.794 254.338 336.93 254.559 337.046C254.781 337.162 255.066 337.264 255.414 337.353L256.792 337.685C257.633 337.89 258.259 338.183 258.668 338.565C259.083 338.947 259.291 339.459 259.291 340.101V340.117C259.291 340.648 259.133 341.119 258.818 341.528C258.502 341.932 258.073 342.248 257.531 342.475C256.994 342.701 256.385 342.815 255.705 342.815ZM264.844 342.815C263.992 342.815 263.259 342.627 262.645 342.25C262.036 341.874 261.565 341.343 261.233 340.657C260.907 339.965 260.744 339.152 260.744 338.216V338.208C260.744 337.284 260.907 336.473 261.233 335.776C261.565 335.079 262.033 334.534 262.636 334.141C263.239 333.748 263.945 333.551 264.753 333.551C265.566 333.551 266.264 333.739 266.845 334.116C267.431 334.492 267.88 335.018 268.19 335.693C268.505 336.362 268.663 337.143 268.663 338.034V338.598H261.491V337.444H267.924L267.21 338.499V337.926C267.21 337.223 267.105 336.645 266.895 336.191C266.684 335.737 266.394 335.4 266.023 335.178C265.652 334.951 265.226 334.838 264.745 334.838C264.263 334.838 263.832 334.957 263.45 335.195C263.073 335.427 262.775 335.773 262.553 336.232C262.332 336.692 262.221 337.256 262.221 337.926V338.499C262.221 339.135 262.329 339.68 262.545 340.134C262.761 340.582 263.068 340.928 263.466 341.171C263.865 341.409 264.335 341.528 264.878 341.528C265.281 341.528 265.633 341.473 265.932 341.362C266.231 341.252 266.477 341.111 266.67 340.939C266.864 340.767 267 340.593 267.077 340.416L267.11 340.341H268.555L268.538 340.408C268.461 340.712 268.322 341.008 268.123 341.296C267.929 341.578 267.678 341.835 267.368 342.068C267.058 342.295 266.69 342.477 266.264 342.616C265.843 342.749 265.37 342.815 264.844 342.815ZM273.743 342.724C272.824 342.724 272.158 342.538 271.743 342.167C271.333 341.797 271.128 341.185 271.128 340.333V334.904H269.717V333.709H271.128V331.393H272.622V333.709H274.581V334.904H272.622V339.968C272.622 340.493 272.722 340.873 272.921 341.105C273.121 341.332 273.453 341.445 273.917 341.445C274.045 341.445 274.153 341.443 274.241 341.437C274.335 341.431 274.449 341.423 274.581 341.412V342.641C274.443 342.663 274.305 342.682 274.166 342.699C274.028 342.715 273.887 342.724 273.743 342.724ZM281.605 345.795C281.511 345.795 281.405 345.789 281.289 345.778C281.173 345.773 281.065 345.762 280.965 345.745V344.558C281.054 344.575 281.151 344.586 281.256 344.591C281.361 344.597 281.463 344.6 281.563 344.6C281.973 344.6 282.307 344.494 282.567 344.284C282.833 344.074 283.046 343.711 283.207 343.197L283.373 342.666L280.061 333.709H281.605L284.36 341.977L283.788 341.072H284.468L283.896 341.977L286.643 333.709H288.162L284.668 343.205C284.424 343.875 284.167 344.398 283.896 344.774C283.624 345.15 283.306 345.413 282.941 345.562C282.581 345.717 282.136 345.795 281.605 345.795ZM293.077 342.815C292.23 342.815 291.497 342.63 290.877 342.259C290.263 341.882 289.787 341.348 289.449 340.657C289.117 339.965 288.951 339.143 288.951 338.191V338.175C288.951 337.217 289.117 336.393 289.449 335.701C289.787 335.009 290.263 334.478 290.877 334.107C291.497 333.737 292.23 333.551 293.077 333.551C293.929 333.551 294.662 333.737 295.276 334.107C295.891 334.478 296.364 335.009 296.696 335.701C297.033 336.393 297.202 337.217 297.202 338.175V338.191C297.202 339.143 297.033 339.965 296.696 340.657C296.364 341.348 295.891 341.882 295.276 342.259C294.662 342.63 293.929 342.815 293.077 342.815ZM293.077 341.537C293.641 341.537 294.12 341.404 294.513 341.138C294.906 340.873 295.204 340.491 295.409 339.993C295.619 339.495 295.725 338.894 295.725 338.191V338.175C295.725 337.466 295.619 336.863 295.409 336.365C295.204 335.867 294.906 335.488 294.513 335.228C294.12 334.962 293.641 334.83 293.077 334.83C292.512 334.83 292.033 334.962 291.641 335.228C291.248 335.488 290.946 335.867 290.736 336.365C290.531 336.863 290.429 337.466 290.429 338.175V338.191C290.429 338.894 290.531 339.495 290.736 339.993C290.946 340.491 291.248 340.873 291.641 341.138C292.033 341.404 292.512 341.537 293.077 341.537ZM302.1 342.815C301.425 342.815 300.858 342.688 300.398 342.433C299.939 342.173 299.593 341.797 299.361 341.304C299.134 340.806 299.02 340.206 299.02 339.503V333.709H300.465V339.154C300.465 339.957 300.62 340.554 300.929 340.947C301.245 341.34 301.76 341.537 302.473 341.537C302.866 341.537 303.212 341.479 303.511 341.362C303.815 341.246 304.07 341.08 304.275 340.864C304.479 340.643 304.632 340.377 304.731 340.067C304.836 339.752 304.889 339.398 304.889 339.005V333.709H306.333V342.657H304.889V341.321H304.756C304.612 341.636 304.416 341.907 304.167 342.134C303.918 342.356 303.619 342.524 303.27 342.641C302.927 342.757 302.537 342.815 302.1 342.815ZM308.691 342.657V333.709H310.135V335.037H310.268C310.44 334.567 310.73 334.201 311.14 333.941C311.549 333.681 312.056 333.551 312.659 333.551C312.797 333.551 312.933 333.56 313.066 333.576C313.204 333.587 313.309 333.598 313.381 333.609V335.012C313.232 334.985 313.085 334.965 312.941 334.954C312.803 334.938 312.653 334.929 312.493 334.929C312.033 334.929 311.627 335.021 311.273 335.203C310.918 335.386 310.639 335.64 310.434 335.967C310.235 336.293 310.135 336.675 310.135 337.112V342.657H308.691ZM319.267 345.646V333.709H320.711V335.137H320.844C321.027 334.805 321.256 334.522 321.533 334.29C321.81 334.052 322.125 333.869 322.479 333.742C322.833 333.615 323.218 333.551 323.633 333.551C324.391 333.551 325.05 333.745 325.609 334.132C326.173 334.514 326.61 335.051 326.92 335.743C327.23 336.434 327.385 337.245 327.385 338.175V338.191C327.385 339.127 327.23 339.94 326.92 340.632C326.61 341.324 326.173 341.86 325.609 342.242C325.05 342.624 324.391 342.815 323.633 342.815C323.224 342.815 322.836 342.751 322.471 342.624C322.111 342.491 321.79 342.309 321.508 342.076C321.231 341.844 321.01 341.567 320.844 341.246H320.711V345.646H319.267ZM323.301 341.537C323.849 341.537 324.317 341.404 324.704 341.138C325.091 340.867 325.387 340.482 325.592 339.984C325.802 339.481 325.908 338.883 325.908 338.191V338.175C325.908 337.478 325.802 336.88 325.592 336.382C325.387 335.884 325.091 335.502 324.704 335.236C324.317 334.965 323.849 334.83 323.301 334.83C322.759 334.83 322.291 334.965 321.898 335.236C321.505 335.507 321.204 335.892 320.993 336.39C320.783 336.888 320.678 337.483 320.678 338.175V338.191C320.678 338.878 320.783 339.472 320.993 339.976C321.204 340.474 321.505 340.859 321.898 341.13C322.291 341.401 322.759 341.537 323.301 341.537ZM331.76 342.815C331.195 342.815 330.686 342.707 330.233 342.491C329.784 342.275 329.427 341.968 329.162 341.57C328.902 341.171 328.772 340.701 328.772 340.159V340.142C328.772 339.611 328.899 339.157 329.153 338.781C329.408 338.399 329.779 338.1 330.266 337.884C330.753 337.668 331.342 337.541 332.034 337.502L335.321 337.303V338.457L332.208 338.656C331.527 338.695 331.029 338.836 330.714 339.08C330.404 339.323 330.249 339.666 330.249 340.109V340.125C330.249 340.579 330.421 340.933 330.764 341.188C331.107 341.437 331.539 341.562 332.059 341.562C332.551 341.562 332.988 341.465 333.37 341.271C333.752 341.072 334.051 340.803 334.267 340.466C334.488 340.128 334.599 339.746 334.599 339.32V336.531C334.599 335.978 334.43 335.557 334.092 335.27C333.76 334.976 333.26 334.83 332.59 334.83C332.053 334.83 331.613 334.926 331.27 335.12C330.927 335.308 330.697 335.577 330.581 335.925L330.573 335.95H329.129L329.137 335.9C329.214 335.43 329.408 335.021 329.718 334.672C330.033 334.318 330.44 334.044 330.938 333.85C331.436 333.651 332.003 333.551 332.64 333.551C333.37 333.551 333.987 333.67 334.491 333.908C335 334.146 335.385 334.489 335.645 334.938C335.91 335.38 336.043 335.911 336.043 336.531V342.657H334.599V341.337H334.466C334.278 341.653 334.048 341.921 333.777 342.143C333.511 342.364 333.21 342.533 332.872 342.649C332.535 342.76 332.164 342.815 331.76 342.815ZM341.414 342.815C340.75 342.815 340.163 342.715 339.654 342.516C339.145 342.311 338.736 342.026 338.426 341.661C338.121 341.296 337.942 340.867 337.886 340.375H339.364C339.485 340.745 339.723 341.044 340.078 341.271C340.432 341.498 340.894 341.611 341.464 341.611C341.868 341.611 342.222 341.553 342.526 341.437C342.836 341.315 343.08 341.152 343.257 340.947C343.434 340.737 343.522 340.496 343.522 340.225V340.208C343.522 339.904 343.401 339.647 343.157 339.437C342.914 339.221 342.515 339.046 341.962 338.914L340.576 338.582C340.017 338.449 339.557 338.277 339.198 338.067C338.838 337.851 338.572 337.588 338.401 337.278C338.229 336.963 338.144 336.592 338.144 336.166V336.158C338.144 335.66 338.287 335.214 338.575 334.821C338.868 334.428 339.267 334.118 339.77 333.892C340.274 333.665 340.841 333.551 341.472 333.551C342.097 333.551 342.651 333.651 343.132 333.85C343.619 334.044 344.009 334.32 344.303 334.68C344.602 335.04 344.784 335.463 344.851 335.95H343.431C343.337 335.596 343.121 335.308 342.784 335.087C342.446 334.866 342.006 334.755 341.464 334.755C341.11 334.755 340.794 334.813 340.518 334.929C340.241 335.04 340.022 335.195 339.862 335.394C339.701 335.593 339.621 335.826 339.621 336.091V336.108C339.621 336.307 339.674 336.484 339.779 336.639C339.884 336.794 340.047 336.93 340.269 337.046C340.49 337.162 340.775 337.264 341.124 337.353L342.501 337.685C343.343 337.89 343.968 338.183 344.377 338.565C344.792 338.947 345 339.459 345 340.101V340.117C345 340.648 344.842 341.119 344.527 341.528C344.211 341.932 343.783 342.248 343.24 342.475C342.703 342.701 342.095 342.815 341.414 342.815ZM349.806 342.815C349.142 342.815 348.556 342.715 348.047 342.516C347.538 342.311 347.128 342.026 346.818 341.661C346.514 341.296 346.334 340.867 346.279 340.375H347.756C347.878 340.745 348.116 341.044 348.47 341.271C348.824 341.498 349.286 341.611 349.856 341.611C350.26 341.611 350.614 341.553 350.919 341.437C351.229 341.315 351.472 341.152 351.649 340.947C351.826 340.737 351.915 340.496 351.915 340.225V340.208C351.915 339.904 351.793 339.647 351.55 339.437C351.306 339.221 350.908 339.046 350.354 338.914L348.968 338.582C348.409 338.449 347.95 338.277 347.59 338.067C347.23 337.851 346.965 337.588 346.793 337.278C346.622 336.963 346.536 336.592 346.536 336.166V336.158C346.536 335.66 346.68 335.214 346.968 334.821C347.261 334.428 347.659 334.118 348.163 333.892C348.666 333.665 349.234 333.551 349.865 333.551C350.49 333.551 351.043 333.651 351.525 333.85C352.012 334.044 352.402 334.32 352.695 334.68C352.994 335.04 353.177 335.463 353.243 335.95H351.824C351.729 335.596 351.514 335.308 351.176 335.087C350.839 334.866 350.399 334.755 349.856 334.755C349.502 334.755 349.187 334.813 348.91 334.929C348.633 335.04 348.415 335.195 348.254 335.394C348.094 335.593 348.013 335.826 348.013 336.091V336.108C348.013 336.307 348.066 336.484 348.171 336.639C348.276 336.794 348.44 336.93 348.661 337.046C348.882 337.162 349.167 337.264 349.516 337.353L350.894 337.685C351.735 337.89 352.36 338.183 352.77 338.565C353.185 338.947 353.392 339.459 353.392 340.101V340.117C353.392 340.648 353.235 341.119 352.919 341.528C352.604 341.932 352.175 342.248 351.633 342.475C351.096 342.701 350.487 342.815 349.806 342.815ZM356.771 342.657L354.264 333.709H355.709L357.468 340.864H357.601L359.602 333.709H360.971L362.972 340.864H363.105L364.864 333.709H366.3L363.794 342.657H362.341L360.34 335.734H360.208L358.215 342.657H356.771ZM371.215 342.815C370.368 342.815 369.635 342.63 369.015 342.259C368.401 341.882 367.925 341.348 367.587 340.657C367.255 339.965 367.089 339.143 367.089 338.191V338.175C367.089 337.217 367.255 336.393 367.587 335.701C367.925 335.009 368.401 334.478 369.015 334.107C369.635 333.737 370.368 333.551 371.215 333.551C372.067 333.551 372.8 333.737 373.415 334.107C374.029 334.478 374.502 335.009 374.834 335.701C375.172 336.393 375.34 337.217 375.34 338.175V338.191C375.34 339.143 375.172 339.965 374.834 340.657C374.502 341.348 374.029 341.882 373.415 342.259C372.8 342.63 372.067 342.815 371.215 342.815ZM371.215 341.537C371.779 341.537 372.258 341.404 372.651 341.138C373.044 340.873 373.343 340.491 373.547 339.993C373.758 339.495 373.863 338.894 373.863 338.191V338.175C373.863 337.466 373.758 336.863 373.547 336.365C373.343 335.867 373.044 335.488 372.651 335.228C372.258 334.962 371.779 334.83 371.215 334.83C370.65 334.83 370.172 334.962 369.779 335.228C369.386 335.488 369.084 335.867 368.874 336.365C368.669 336.863 368.567 337.466 368.567 338.175V338.191C368.567 338.894 368.669 339.495 368.874 339.993C369.084 340.491 369.386 340.873 369.779 341.138C370.172 341.404 370.65 341.537 371.215 341.537ZM377.242 342.657V333.709H378.686V335.037H378.819C378.99 334.567 379.281 334.201 379.69 333.941C380.1 333.681 380.606 333.551 381.209 333.551C381.348 333.551 381.483 333.56 381.616 333.576C381.754 333.587 381.86 333.598 381.931 333.609V335.012C381.782 334.985 381.635 334.965 381.492 334.954C381.353 334.938 381.204 334.929 381.043 334.929C380.584 334.929 380.177 335.021 379.823 335.203C379.469 335.386 379.189 335.64 378.985 335.967C378.785 336.293 378.686 336.675 378.686 337.112V342.657H377.242ZM386.431 342.815C385.678 342.815 385.02 342.624 384.455 342.242C383.891 341.86 383.454 341.324 383.144 340.632C382.834 339.935 382.679 339.121 382.679 338.191V338.175C382.679 337.24 382.834 336.426 383.144 335.734C383.454 335.043 383.888 334.506 384.447 334.124C385.011 333.742 385.673 333.551 386.431 333.551C386.84 333.551 387.225 333.618 387.585 333.75C387.95 333.878 388.274 334.058 388.556 334.29C388.838 334.522 389.059 334.799 389.22 335.12H389.353V330.156H390.797V342.657H389.353V341.229H389.22C389.037 341.562 388.808 341.847 388.531 342.084C388.254 342.317 387.939 342.497 387.585 342.624C387.23 342.751 386.846 342.815 386.431 342.815ZM386.763 341.537C387.305 341.537 387.773 341.401 388.166 341.13C388.559 340.859 388.86 340.474 389.07 339.976C389.281 339.472 389.386 338.878 389.386 338.191V338.175C389.386 337.483 389.281 336.888 389.07 336.39C388.86 335.892 388.559 335.507 388.166 335.236C387.773 334.965 387.305 334.83 386.763 334.83C386.221 334.83 385.753 334.965 385.36 335.236C384.973 335.502 384.674 335.884 384.464 336.382C384.259 336.88 384.156 337.478 384.156 338.175V338.191C384.156 338.883 384.259 339.481 384.464 339.984C384.674 340.482 384.973 340.867 385.36 341.138C385.753 341.404 386.221 341.537 386.763 341.537ZM394.408 342.74C394.115 342.74 393.86 342.635 393.645 342.425C393.434 342.209 393.329 341.954 393.329 341.661C393.329 341.362 393.434 341.108 393.645 340.897C393.86 340.687 394.115 340.582 394.408 340.582C394.707 340.582 394.962 340.687 395.172 340.897C395.382 341.108 395.487 341.362 395.487 341.661C395.487 341.954 395.382 342.209 395.172 342.425C394.962 342.635 394.707 342.74 394.408 342.74Z" fill="white"/>
</svg>
