<svg width="402" height="411" viewBox="0 0 402 411" fill="none" xmlns="http://www.w3.org/2000/svg">
<g opacity="0.3">
<path opacity="0.7" d="M102.081 284.989C156.367 314.434 244.382 314.436 298.667 284.99C352.954 255.544 352.954 207.804 298.667 178.359C244.381 148.913 156.366 148.913 102.08 178.358C47.7936 207.803 47.7936 255.545 102.081 284.989Z" fill="#F0F0F0"/>
</g>
<path d="M161.992 213.699C147.337 220.685 123.579 220.685 108.925 213.699C94.271 206.716 94.271 195.392 108.925 188.406C123.58 181.423 147.337 181.423 161.992 188.406C176.646 195.392 176.646 206.717 161.992 213.699Z" fill="#E0E0E0"/>
<path d="M88.2995 199.89L92.5172 197.48C92.5172 197.48 94.5399 186.332 93.0272 176.75C90.9005 163.277 81.7267 158.63 78.3952 159.969C75.0638 161.308 74.2808 165.299 80.2975 173.084C83.8468 177.677 88.4133 187.386 88.2995 199.89Z" fill="#F2935C"/>
<g opacity="0.1">
<path d="M88.2995 199.89L92.5172 197.48C92.5172 197.48 94.5399 186.332 93.0272 176.75C90.9005 163.277 81.7267 158.63 78.3952 159.969C75.0638 161.308 74.2808 165.299 80.2975 173.084C83.8468 177.677 88.4133 187.386 88.2995 199.89Z" fill="black"/>
</g>
<path d="M89.828 194.539C89.8142 194.539 89.8004 194.538 89.7866 194.536C89.6221 194.513 89.5069 194.362 89.53 194.197C91.273 181.584 86.2005 167.765 80.5015 162.196C80.3831 162.08 80.3805 161.889 80.4969 161.771C80.6134 161.653 80.8036 161.65 80.922 161.766C86.7249 167.437 91.8948 181.481 90.1255 194.28C90.1044 194.43 89.9754 194.539 89.828 194.539Z" fill="white"/>
<path d="M76.598 206.649C75.9314 207.032 74.5582 206.195 74.0318 205.843C73.131 205.239 72.4012 204.383 71.917 203.415C71.3531 202.288 71.2109 201.081 71.3873 199.835C71.4787 199.189 71.6597 198.559 71.84 197.931C72.017 197.316 72.194 196.7 72.371 196.084C72.5454 195.476 72.7224 194.847 72.6421 194.22C72.4802 192.957 71.359 192.071 70.3391 191.308C69.2113 190.464 68.0374 189.349 68.044 187.828C68.0492 186.654 68.6566 185.564 69.3843 184.643C70.1114 183.722 70.9747 182.908 71.632 181.935C72.1051 181.235 72.4743 180.414 72.398 179.572C72.3499 179.049 72.1334 178.557 71.8834 178.095C71.3465 177.105 70.6378 176.198 70.2674 175.134C69.8969 174.07 69.9495 172.747 70.7799 171.985C71.4616 171.36 72.4749 171.273 73.3975 171.334C74.2509 171.39 75.0852 171.775 75.8321 172.191C78.2469 173.533 79.6254 176.394 82.1883 177.427C83.1767 177.826 84.2597 177.912 85.2902 178.185C86.3206 178.457 87.3708 178.984 87.8485 179.936C88.7894 181.815 87.0431 184.131 87.705 186.126C88.29 187.89 90.0054 188.566 90.9687 190.157C91.3898 190.852 91.4872 191.657 91.4194 192.467C91.3043 193.839 91.1036 194.846 90.4449 196.372C89.9008 197.633 88.3018 199.889 88.3018 199.889C88.2597 199.929 76.7 206.591 76.598 206.649Z" fill="#F2935C"/>
<path d="M83.4445 203.002C83.4406 203.002 83.436 203.002 83.436 203.002C83.2656 202.995 83.1372 202.855 83.1438 202.689C83.6406 190.75 78.0154 177.57 73.9252 173.741C73.8042 173.627 73.7976 173.437 73.9114 173.316C74.0253 173.195 74.2148 173.189 74.3365 173.302C78.5089 177.208 84.2493 190.607 83.7452 202.714C83.738 202.876 83.6051 203.002 83.4445 203.002Z" fill="white"/>
<path d="M81.6554 188.897C81.6258 188.897 81.5962 188.893 81.5666 188.883C77.7311 187.697 72.9501 187.488 72.9027 187.487C72.7362 187.479 72.6079 187.339 72.6145 187.173C72.6217 187.008 72.7474 186.877 72.9277 186.885C72.9764 186.888 77.8331 187.1 81.7443 188.309C81.9028 188.358 81.9923 188.526 81.943 188.685C81.9028 188.814 81.7844 188.897 81.6554 188.897Z" fill="white"/>
<path d="M294.288 260.638C296.553 255.706 304.812 247.126 312.871 243.072C320.931 239.017 331.129 238.03 335.948 242.61C340.436 246.876 336.652 253.596 328.066 255.259C319.481 256.921 307.1 258.277 300.586 264.974L290.118 272.054L294.288 260.638Z" fill="#F2935C"/>
<path opacity="0.1" d="M294.288 260.638C296.553 255.706 304.812 247.126 312.871 243.072C320.931 239.017 331.129 238.03 335.948 242.61C340.436 246.876 336.652 253.596 328.066 255.259C319.481 256.921 307.1 258.277 300.586 264.974L290.118 272.054L294.288 260.638Z" fill="black"/>
<path d="M290.825 267.221C290.988 267.281 291.177 267.227 291.283 267.08C302.318 251.759 322.223 244.327 331.765 245.046C331.983 245.062 332.174 244.898 332.19 244.68C332.207 244.463 332.049 244.27 331.824 244.255C322.101 243.521 301.841 251.063 290.639 266.616C290.511 266.794 290.552 267.041 290.729 267.169C290.759 267.192 290.791 267.209 290.825 267.221Z" fill="white"/>
<path d="M288.387 279.152C290.452 276.743 295.94 273.722 303.153 272.458C311.132 271.059 319.684 272.657 322.946 270.215C326.865 267.281 325.266 262.074 318.686 259.988C312.108 257.901 297.264 261.369 289.643 273.352L288.387 279.152Z" fill="#F2935C"/>
<path d="M288.519 275.689C288.661 275.741 288.825 275.709 288.938 275.594C300.726 263.539 314.056 263.53 319.458 265.209C319.666 265.274 319.889 265.157 319.955 264.947C320.02 264.738 319.911 264.519 319.693 264.451C313.72 262.594 300.402 262.735 288.371 275.039C288.218 275.195 288.22 275.447 288.377 275.6C288.419 275.641 288.467 275.671 288.519 275.689Z" fill="white"/>
<path d="M168.919 217.289L176.641 221.747L174.067 223.233H184.362V217.289L181.788 218.775L174.067 214.316L168.919 217.289Z" fill="#F2935C"/>
<path d="M188.857 226.461C188.749 226.461 188.64 226.434 188.541 226.376L186.62 225.267C186.317 225.092 186.213 224.705 186.388 224.401C186.563 224.098 186.951 223.994 187.254 224.169L189.174 225.278C189.478 225.453 189.582 225.84 189.407 226.144C189.288 226.347 189.075 226.461 188.857 226.461Z" fill="#F2935C"/>
<path d="M269.809 273.2C269.701 273.2 269.592 273.173 269.493 273.115L265.789 270.977C265.486 270.802 265.382 270.414 265.557 270.111C265.732 269.808 266.12 269.703 266.423 269.879L270.127 272.017C270.43 272.192 270.534 272.58 270.359 272.883C270.241 273.087 270.028 273.2 269.809 273.2ZM260.815 268.007C260.707 268.007 260.598 267.98 260.498 267.922L256.794 265.784C256.491 265.609 256.387 265.221 256.562 264.918C256.737 264.615 257.125 264.51 257.428 264.686L261.132 266.824C261.435 266.999 261.539 267.386 261.364 267.689C261.246 267.893 261.034 268.007 260.815 268.007ZM251.82 262.814C251.712 262.814 251.603 262.787 251.504 262.729L247.8 260.59C247.497 260.415 247.393 260.028 247.568 259.724C247.743 259.421 248.131 259.318 248.434 259.492L252.138 261.631C252.441 261.806 252.545 262.193 252.37 262.497C252.251 262.7 252.039 262.814 251.82 262.814ZM242.824 257.62C242.716 257.62 242.608 257.593 242.508 257.535L238.805 255.397C238.502 255.222 238.398 254.835 238.573 254.531C238.748 254.229 239.136 254.125 239.439 254.299L243.142 256.437C243.445 256.612 243.549 257 243.374 257.303C243.257 257.506 243.043 257.62 242.824 257.62ZM233.83 252.427C233.722 252.427 233.614 252.4 233.514 252.342L229.81 250.204C229.507 250.029 229.403 249.641 229.578 249.338C229.753 249.034 230.141 248.931 230.444 249.106L234.147 251.244C234.451 251.419 234.555 251.807 234.38 252.11C234.262 252.314 234.049 252.427 233.83 252.427ZM224.835 247.234C224.727 247.234 224.619 247.207 224.519 247.149L220.816 245.012C220.513 244.836 220.409 244.449 220.584 244.146C220.759 243.842 221.147 243.738 221.45 243.913L225.153 246.051C225.456 246.226 225.56 246.614 225.385 246.917C225.267 247.12 225.054 247.234 224.835 247.234ZM215.84 242.041C215.732 242.041 215.624 242.014 215.525 241.956L211.821 239.818C211.517 239.643 211.413 239.255 211.588 238.952C211.763 238.649 212.152 238.545 212.454 238.72L216.158 240.858C216.462 241.033 216.565 241.421 216.39 241.724C216.273 241.927 216.059 242.041 215.84 242.041ZM206.846 236.848C206.738 236.848 206.63 236.821 206.53 236.763L202.826 234.625C202.522 234.45 202.418 234.062 202.594 233.759C202.769 233.456 203.156 233.352 203.459 233.527L207.163 235.665C207.467 235.84 207.571 236.227 207.396 236.531C207.278 236.734 207.065 236.848 206.846 236.848ZM197.851 231.655C197.743 231.655 197.634 231.628 197.534 231.57L193.831 229.431C193.528 229.256 193.424 228.869 193.599 228.565C193.774 228.261 194.162 228.158 194.465 228.333L198.168 230.472C198.471 230.647 198.575 231.034 198.4 231.338C198.283 231.542 198.07 231.655 197.851 231.655Z" fill="#F2935C"/>
<path d="M277.021 277.363C276.913 277.363 276.804 277.336 276.705 277.278L274.785 276.169C274.482 275.994 274.378 275.607 274.553 275.303C274.728 274.999 275.116 274.897 275.419 275.071L277.339 276.18C277.642 276.355 277.746 276.742 277.571 277.046C277.453 277.25 277.24 277.363 277.021 277.363Z" fill="#F2935C"/>
<path d="M318.976 111.415C318.976 111.408 318.969 111.408 318.969 111.408C318.786 111.3 318.57 111.167 318.38 111.059L299.999 100.503C295.874 97.7402 291.026 96.2959 285.64 96.2959C279.209 96.2959 272.72 98.6278 265.085 102.854C238.39 117.643 215.579 160.293 215.579 188.299V196.049C215.579 229.992 260.218 271.414 260.218 271.414L278.727 282.109C278.752 282.14 278.777 282.14 278.809 282.14C278.188 281.412 298.477 251.814 317.607 194.084C338.784 130.184 319.375 111.783 318.976 111.415ZM287.738 212.892C272.626 221.623 259.953 217.048 256.367 202.962C249.435 201.986 244.423 196.676 242.883 187.926C240.938 159.66 255.955 137.134 277.46 127.997C286.654 124.651 294.359 127.04 298.478 133.96C311.113 131.793 320.148 140.448 320.148 156.758C320.148 177.414 305.644 202.563 287.738 212.892Z" fill="#A7A7A7"/>
<path d="M320.148 156.758C320.148 177.414 305.644 202.563 287.738 212.891C272.625 221.623 259.953 217.048 256.366 202.962C260.909 203.615 266.282 202.398 272.048 199.065C288.447 189.612 301.728 166.592 301.728 147.677C301.728 142.063 300.556 137.438 298.478 133.959C311.112 131.793 320.148 140.449 320.148 156.758Z" fill="#9F9F9F"/>
<path d="M262.48 200.986L272.771 206.925V187.003L262.48 181.063V200.986Z" fill="#F2935C"/>
<path opacity="0.2" d="M262.48 200.986L272.771 206.925V187.003L262.48 181.063V200.986Z" fill="white"/>
<path d="M311.563 164.604L287.723 153.429L263.884 192.132L272.77 187.003V206.925L284.031 200.422V187.391L291.407 183.133V196.164L302.686 189.646V169.723L311.563 164.604Z" fill="#F2935C"/>
<path d="M277.433 147.489L287.724 153.429L263.884 192.132L253.594 186.193L277.433 147.489Z" fill="#F2935C"/>
<path opacity="0.1" d="M277.433 147.489L287.724 153.429L263.884 192.132L253.594 186.193L277.433 147.489Z" fill="white"/>
<path d="M277.433 147.489L287.723 153.429L311.563 164.604L301.272 158.665L277.433 147.489Z" fill="#F2935C"/>
<path opacity="0.4" d="M277.433 147.489L287.723 153.429L311.563 164.604L301.272 158.665L277.433 147.489Z" fill="white"/>
<path d="M284.031 200.422L291.407 196.164V183.133L284.031 187.391V200.422Z" fill="#F2935C"/>
<path opacity="0.2" d="M284.031 200.422L291.407 196.164V183.133L284.031 187.391V200.422Z" fill="white"/>
<path d="M318.976 111.415C318.976 111.408 318.969 111.408 318.969 111.408C318.786 111.3 318.57 111.167 318.38 111.059C309.458 106.047 297.533 106.719 284.437 114.272C264.686 125.69 247.591 149.667 239.499 174.828C236.287 184.795 234.931 190.073 234.931 199.717V207.46C234.931 233.616 264.097 268.795 277.733 281.36C278.056 281.658 278.379 281.899 278.728 282.108C278.753 282.139 278.778 282.139 278.81 282.139C282.105 284.173 286.578 283.021 288.346 279.377C300.107 255.292 334.38 182.76 334.38 154.652V146.911C334.379 129.474 328.481 117.124 318.976 111.415ZM256.366 202.962C256.176 202.24 256.012 201.492 255.878 200.719C255.498 198.698 255.321 196.512 255.321 194.18C255.321 173.523 269.824 148.381 287.737 138.053C289.752 136.899 291.735 135.961 293.649 135.265C295.309 134.663 296.919 134.226 298.478 133.959C311.113 131.792 320.148 140.448 320.148 156.758C320.148 177.414 305.645 202.563 287.738 212.891C272.626 221.623 259.953 217.048 256.366 202.962Z" fill="white"/>
<path d="M155.333 83.9479H141.527C135.283 83.9479 130.223 78.8865 130.223 72.6428V69.4508C130.223 62.5168 135.844 56.8955 142.777 56.8955C149.711 56.8955 155.333 62.5168 155.333 69.4508V83.9479Z" fill="#263238"/>
<path d="M132.216 63.2021L129.305 61.6394C129.718 60.805 130.704 60.4786 131.508 60.9103C132.312 61.3419 132.629 62.3678 132.216 63.2021Z" fill="#263238"/>
<path d="M132.463 63.5325L129.368 64.6899C129.013 63.8293 129.418 62.8725 130.273 62.5527C131.128 62.2329 132.108 62.6718 132.463 63.5325Z" fill="#263238"/>
<path d="M159.917 99.9717L163.718 106.94L158.434 111.469L153.15 103.279L159.917 99.9717Z" fill="#F2935C"/>
<path d="M149.282 85.0234C151.272 85.1886 153.333 86.0381 154.761 88.9945C156.189 91.9502 160.654 101.156 160.654 101.156C160.654 101.156 159.649 105.156 154.444 105.686L152.375 102.518L149.282 85.0234Z" fill="#F2935C"/>
<path opacity="0.1" d="M149.282 85.0234C151.272 85.1886 153.333 86.0381 154.761 88.9945C156.189 91.9502 160.654 101.156 160.654 101.156C160.654 101.156 159.649 105.156 154.444 105.686L152.375 102.518L149.282 85.0234Z" fill="black"/>
<path d="M114.149 180.684C113.158 180.174 112.529 181.432 111.631 182.441C111.001 183.149 110.018 184.27 109.872 185.076C109.657 186.269 110.733 188.149 111.925 189.185C113.116 190.221 114.499 190.963 114.932 193.234C115.365 195.506 116.248 196.856 118.602 197.871C121.181 198.984 124.637 198.628 125.809 197.871C127.197 196.974 125.93 195.99 123.984 193.205C121.445 189.573 119.467 186.977 119.467 183.587L114.149 180.684Z" fill="#263238"/>
<path d="M116.179 177.709L114.095 180.765C113.192 182.089 113.473 183.934 114.799 184.835C114.82 184.85 114.842 184.864 114.863 184.878C116.132 185.701 117.833 185.373 118.855 184.258L122.109 180.707L116.179 177.709Z" fill="#E5E5D4"/>
<path d="M153.663 119.702C153.795 123.597 154.482 137.798 151.64 145.251C148.98 152.227 146.573 155.96 145.726 157.409C144.879 158.857 120.484 182.607 120.484 182.607C120.484 182.607 116.344 182.304 115.686 178.289C115.686 178.289 125.681 161.297 127.845 157.812C130.01 154.327 137.677 148.983 137.677 148.983L136.979 116.314L153.663 119.702Z" fill="#37474F"/>
<path d="M149.098 201.058L154.255 199.886L152.547 192.375L147.39 193.548L149.098 201.058Z" fill="#E5E5D4"/>
<path d="M145.065 131.592C145.065 131.592 147.071 129.904 149.781 126.161C153.723 120.714 153.117 115.877 153.117 115.877H151.502L130.169 116.314C128.055 119.78 127.594 125.036 128.309 130.156C129.791 140.783 138.594 159.177 138.594 159.177C138.471 160.63 137.856 166.739 139.243 172.155C141.43 180.699 147.39 195.158 147.39 195.158C147.39 195.158 151.124 195.691 152.978 193.53C152.978 193.53 149.678 164.175 148.789 156.654C147.827 148.516 145.065 131.592 145.065 131.592Z" fill="#37474F"/>
<path d="M153.676 197.334L153.508 196.597C154.05 196.699 156.365 200.544 158.662 202.215C161.178 204.044 163.361 205.125 164.484 205.95C165.988 207.053 163.811 209.312 160.111 209.513C158.274 209.613 154.93 209.055 153.9 208.076C152.869 207.098 152.123 205.48 151.306 204.776C150.49 204.074 148.836 203.457 148.276 202.556C147.969 202.061 147.922 200.835 147.956 199.781C147.987 198.815 148.019 197.753 148.35 197.768C148.376 197.879 148.478 198.331 148.478 198.331C148.947 198.66 150.417 199.078 151.614 199.022C152.485 198.983 154.106 198.781 153.676 197.334Z" fill="#263238"/>
<path d="M148.138 151.673C148.138 151.673 145.652 134.011 145.065 131.592C145.065 131.592 149.448 129.923 150.795 128.393C150.795 128.393 149.833 130.534 146.699 132.437L148.138 151.673Z" fill="#263238"/>
<path d="M134.966 150.99C134.966 150.99 137.529 157.725 138.594 159.178C138.594 159.178 138.328 164.184 138.366 165.196L136.979 166.405C136.979 166.405 136.914 162.2 137.6 159.651C137.6 159.651 135.868 156.17 134.966 150.99Z" fill="#263238"/>
<path d="M152.467 103.895C152.801 106.985 153.663 119.703 153.663 119.703C143.458 125.149 130.801 121.541 128.863 119.296C130.618 113.521 133.15 111.08 134.594 109.543L131.287 100.318C131.287 100.318 130.893 99.3742 130.901 99.3663C131.102 99.0222 136.04 94.5761 133.607 87.544C133.229 86.4531 134.002 85.3009 135.152 85.2068L138.083 84.9673L146.029 84.7344C147.929 84.841 149.283 85.0239 149.283 85.0239C150.501 86.1629 152.42 89.2937 153.664 92.4784C154.465 94.5313 155.333 97.8115 152.467 103.895Z" fill="#F2935C"/>
<path opacity="0.1" d="M133.421 103.648L134.58 99.1377L136.02 109.551L133.106 111.172L134.594 109.543L133.086 105.337L133.421 103.648Z" fill="black"/>
<path d="M150.848 62.3643C152.174 63.1479 153.813 66.4833 153.652 73.4759C153.515 79.4019 151.594 80.8659 150.629 81.2877C149.665 81.7095 147.804 81.4528 145.996 81.1515V84.708C145.996 84.708 148.689 89.6897 148.08 91.6808C146.802 91.9039 145.116 91.0281 142.777 89.435C140.438 87.842 138.081 84.9666 138.081 84.9666L138.122 76.7889C138.122 76.7889 137.057 77.8227 135.253 76.2448C133.763 74.9419 133.261 72.7455 134.423 71.567C135.583 70.3886 137.73 70.7097 138.552 72.3895C138.552 72.3895 141.436 72.4948 145.277 70.3853C149.117 68.2757 150.593 64.662 150.848 62.3643Z" fill="#E5E5D4"/>
<path d="M147.035 71.9871C147.057 72.4142 146.741 72.7761 146.33 72.7958C145.919 72.8155 145.568 72.4846 145.547 72.0575C145.525 71.6305 145.841 71.2686 146.252 71.2488C146.664 71.2298 147.014 71.5601 147.035 71.9871Z" fill="#263238"/>
<g opacity="0.5">
<path d="M147.234 77.0107L148.964 77.5628C148.821 78.0583 148.317 78.336 147.838 78.184C147.361 78.0313 147.09 77.5062 147.234 77.0107Z" fill="#F2935C"/>
</g>
<path d="M153.145 69.6982L151.638 68.6533C151.913 68.2223 152.473 68.1078 152.89 68.3967C153.306 68.6849 153.42 69.2685 153.145 69.6982Z" fill="#263238"/>
<path d="M152.798 71.4484C152.82 71.8755 152.503 72.2374 152.093 72.2571C151.681 72.2768 151.331 71.9459 151.31 71.5195C151.288 71.0924 151.604 70.7305 152.015 70.7108C152.426 70.6911 152.776 71.022 152.798 71.4484Z" fill="#263238"/>
<g opacity="0.5">
<path d="M149.281 71.0215L149.4 75.5077L151.761 74.776L149.281 71.0215Z" fill="#F2935C"/>
</g>
<g opacity="0.5">
<path d="M145.996 81.1524C144.09 80.9023 140.169 79.7758 139.559 78.2256C139.559 78.2256 139.762 79.2001 140.933 80.2035C142.104 81.207 145.996 82.3387 145.996 82.3387V81.1524H145.996Z" fill="#F2935C"/>
</g>
<path d="M122.556 115.099C122.602 114.458 123.802 107.619 124.628 103.793L132.67 106.257L131.379 111.617L124.689 118.085C122.567 117.664 122.51 115.74 122.556 115.099Z" fill="#E5E5D4"/>
<path d="M135.151 85.2061C132.066 85.4765 127.999 85.9351 126.065 94.7168C124.251 102.948 123.803 105.826 123.803 105.826C123.803 105.826 126.179 108.837 132.323 108.505L134.58 99.1379C138.691 93.7285 137.368 89.8496 135.151 85.2061Z" fill="#F2935C"/>
<path d="M161.153 108.729C162.258 106.672 162.532 106.582 163.188 106.131C163.844 105.681 167.874 105.079 169.546 104.938C171.513 104.772 172.212 105.134 171.665 106.825C170.494 110.445 166.944 118.133 166.149 119.194C165.628 119.89 165.521 120.536 163.31 120.751C161.243 120.953 158.653 121.066 157.89 121.112C157.127 121.158 156.072 121.348 156.756 119.104C157.439 116.859 159.053 113.215 159.776 111.647C160.626 109.801 161.153 108.729 161.153 108.729Z" fill="#263238"/>
<path d="M131.38 111.617C131.38 111.617 149.248 113.506 151.561 112.788C153.874 112.07 156.985 109.757 158.659 108.8C160.334 107.844 161.53 107.763 161.53 108.163C161.53 108.562 160.1 110.746 159.776 111.648C159.451 112.549 161.315 112.555 163.763 111.991C166.21 111.427 167.192 110.002 167.83 110.837C168.468 111.672 166.474 115.739 162.407 117.254C158.34 118.77 155.322 117.77 151.967 117.911C148.611 118.052 129.356 119.554 124.689 118.086C124.689 118.086 124.149 115.903 126.302 114.114C128.455 112.325 131.38 111.617 131.38 111.617Z" fill="#E5E5D4"/>
<g opacity="0.3">
<path d="M245.609 47.9229L250.507 45.0948C250.482 44.904 250.465 44.7066 250.465 44.4941V43.0748C250.465 40.5494 252.238 37.4785 254.425 36.2158C255.311 35.7045 256.125 35.5736 256.785 35.7605C257.143 32.1717 259.635 28.1119 262.661 26.3649C265.933 24.4758 268.585 26.0069 268.585 29.7852V31.9079C268.585 32.8863 268.404 33.9194 268.084 34.9465L272.153 32.5975C273.366 31.8973 274.349 32.4652 274.349 33.8654C274.349 35.2663 273.366 36.9692 272.153 37.67L245.609 52.9955C244.395 53.6956 243.412 53.1284 243.412 51.7275C243.412 50.3266 244.396 48.623 245.609 47.9229Z" fill="#F0F0F0"/>
<path d="M222.135 80.8261L225.832 78.6915C225.814 78.5474 225.801 78.3987 225.801 78.2382V77.1669C225.801 75.2614 227.139 72.9432 228.79 71.9905C229.458 71.6042 230.073 71.5062 230.571 71.6463C230.841 68.9373 232.721 65.8737 235.005 64.5551C237.475 63.1292 239.476 64.2853 239.476 67.1364V68.7386C239.476 69.4776 239.339 70.2573 239.098 71.0317L242.169 69.2591C243.085 68.7307 243.826 69.1591 243.826 70.2158C243.826 71.2732 243.084 72.5583 242.169 73.0873L222.136 84.6537C221.221 85.182 220.479 84.7537 220.479 83.6969C220.478 82.6402 221.22 81.3551 222.135 80.8261Z" fill="#F0F0F0"/>
</g>
<path d="M5.69602 380H3.53602V366.6H5.69602V380ZM13.116 380H4.19602V378.04H13.116V380ZM12.816 374.24H4.19602V372.28H12.816V374.24ZM13.116 368.54H4.19602V366.6H13.116V368.54ZM24.2399 380H22.0799V374.22C22.0799 373.34 21.9133 372.707 21.5799 372.32C21.2466 371.92 20.6199 371.72 19.6999 371.72C19.1133 371.72 18.6333 371.807 18.2599 371.98C17.8866 372.14 17.6066 372.407 17.4199 372.78C17.2333 373.14 17.1399 373.633 17.1399 374.26H16.7599L16.5799 371.92H17.0599C17.2066 371.56 17.4266 371.227 17.7199 370.92C18.0133 370.613 18.3866 370.36 18.8399 370.16C19.3066 369.96 19.8599 369.86 20.4999 369.86C21.3666 369.86 22.0733 370.027 22.6199 370.36C23.1666 370.693 23.5733 371.153 23.8399 371.74C24.1066 372.327 24.2399 373 24.2399 373.76V380ZM17.1399 380H14.9799V370.06H16.9599V373.04L17.1399 373.14V380ZM30.4295 380.2C28.9761 380.2 27.8761 379.913 27.1295 379.34C26.3828 378.753 26.0095 377.853 26.0095 376.64V376.6H28.0895V376.96C28.0895 377.307 28.1561 377.593 28.2895 377.82C28.4361 378.033 28.6761 378.193 29.0095 378.3C29.3561 378.393 29.8428 378.44 30.4695 378.44C31.0028 378.44 31.4028 378.4 31.6695 378.32C31.9495 378.227 32.1361 378.1 32.2295 377.94C32.3228 377.78 32.3695 377.58 32.3695 377.34C32.3695 376.94 32.2295 376.66 31.9495 376.5C31.6695 376.327 31.1695 376.173 30.4495 376.04L28.8895 375.78C28.3028 375.66 27.7895 375.493 27.3495 375.28C26.9228 375.053 26.5895 374.747 26.3495 374.36C26.1228 373.96 26.0095 373.46 26.0095 372.86C26.0095 371.967 26.3628 371.247 27.0695 370.7C27.7761 370.14 28.7761 369.86 30.0695 369.86C30.8561 369.86 31.5561 369.987 32.1695 370.24C32.7828 370.493 33.2695 370.873 33.6295 371.38C33.9895 371.887 34.1695 372.52 34.1695 373.28V373.46H32.1095V373.22C32.1095 372.9 32.0561 372.627 31.9495 372.4C31.8428 372.16 31.6428 371.973 31.3495 371.84C31.0561 371.707 30.6095 371.64 30.0095 371.64C29.2228 371.64 28.7028 371.74 28.4495 371.94C28.1961 372.14 28.0695 372.433 28.0695 372.82C28.0695 373.207 28.1828 373.48 28.4095 373.64C28.6495 373.787 29.1161 373.933 29.8095 374.08L31.5095 374.4C32.1495 374.52 32.6828 374.7 33.1095 374.94C33.5361 375.18 33.8561 375.493 34.0695 375.88C34.2961 376.267 34.4095 376.727 34.4095 377.26C34.4095 378.193 34.0561 378.92 33.3495 379.44C32.6561 379.947 31.6828 380.2 30.4295 380.2ZM39.7932 380.2C38.9399 380.2 38.2332 380.027 37.6732 379.68C37.1132 379.32 36.6999 378.84 36.4332 378.24C36.1665 377.627 36.0332 376.947 36.0332 376.2V370.06H38.1932V375.8C38.1932 376.693 38.3799 377.34 38.7532 377.74C39.1265 378.14 39.7399 378.34 40.5932 378.34C41.1532 378.34 41.6265 378.253 42.0132 378.08C42.3999 377.893 42.6932 377.607 42.8932 377.22C43.0932 376.82 43.1932 376.3 43.1932 375.66H43.7532V378.02H43.2732C43.1265 378.393 42.8999 378.747 42.5932 379.08C42.2999 379.413 41.9199 379.687 41.4532 379.9C40.9999 380.1 40.4465 380.2 39.7932 380.2ZM45.3532 380H43.3532V377.02L43.1932 376.92V370.06H45.3532V380ZM49.6399 380H47.4799V370H49.4599V372.78L49.6399 372.88V380ZM49.6399 373.52H49.1399V371.58H49.5599C49.7599 371.113 50.0866 370.713 50.5399 370.38C51.0066 370.033 51.6066 369.86 52.3399 369.86C53.0466 369.86 53.6066 370.013 54.0199 370.32C54.4466 370.627 54.7533 371.033 54.9399 371.54C55.1266 372.047 55.2199 372.613 55.2199 373.24V373.9H53.0599V373.5C53.0599 372.833 52.9466 372.367 52.7199 372.1C52.4933 371.833 52.0666 371.7 51.4399 371.7C50.7866 371.7 50.3199 371.84 50.0399 372.12C49.7733 372.387 49.6399 372.853 49.6399 373.52ZM61.021 380.2C59.941 380.2 59.041 379.987 58.321 379.56C57.601 379.12 57.0677 378.513 56.721 377.74C56.3743 376.953 56.201 376.047 56.201 375.02C56.201 373.993 56.3943 373.093 56.781 372.32C57.181 371.547 57.741 370.947 58.461 370.52C59.181 370.08 60.0343 369.86 61.021 369.86C61.9143 369.86 62.701 370.033 63.381 370.38C64.0743 370.713 64.6077 371.2 64.981 371.84C65.3677 372.48 65.561 373.253 65.561 374.16C65.561 374.427 65.5477 374.687 65.521 374.94C65.5077 375.18 65.4877 375.38 65.461 375.54H57.221V374.1H63.701L63.481 374.3C63.5343 373.687 63.4677 373.187 63.281 372.8C63.1077 372.413 62.821 372.127 62.421 371.94C62.0343 371.753 61.5477 371.66 60.961 371.66C59.9077 371.66 59.1877 371.927 58.801 372.46C58.4143 372.98 58.221 373.7 58.221 374.62V375.22C58.221 375.887 58.301 376.453 58.461 376.92C58.6343 377.373 58.9277 377.713 59.341 377.94C59.7543 378.167 60.321 378.28 61.041 378.28C61.881 378.28 62.4743 378.147 62.821 377.88C63.1677 377.613 63.341 377.26 63.341 376.82V376.66H65.481V376.84C65.481 377.52 65.2943 378.113 64.921 378.62C64.5477 379.113 64.0277 379.5 63.361 379.78C62.7077 380.06 61.9277 380.2 61.021 380.2ZM79.5718 380H77.5718V378.04L77.5118 377.5V373.68C77.5118 372.933 77.3318 372.427 76.9718 372.16C76.6251 371.893 76.0585 371.76 75.2718 371.76C74.4851 371.76 73.9185 371.9 73.5718 372.18C73.2385 372.46 73.0718 372.927 73.0718 373.58V373.88H70.9918V373.68C70.9918 372.933 71.1718 372.273 71.5318 371.7C71.9051 371.127 72.4185 370.68 73.0718 370.36C73.7385 370.027 74.5118 369.86 75.3918 369.86C76.3251 369.86 77.0985 370.033 77.7118 370.38C78.3251 370.727 78.7851 371.207 79.0918 371.82C79.4118 372.42 79.5718 373.133 79.5718 373.96V380ZM73.8718 380.2C72.9785 380.2 72.2251 379.973 71.6118 379.52C71.0118 379.053 70.7118 378.393 70.7118 377.54C70.7118 376.98 70.8385 376.513 71.0918 376.14C71.3585 375.767 71.7385 375.46 72.2318 375.22C72.7251 374.98 73.3251 374.813 74.0318 374.72L77.7118 374.2V375.72L74.3518 376.22C73.7785 376.3 73.3785 376.42 73.1518 376.58C72.9251 376.74 72.8118 377.007 72.8118 377.38C72.8118 377.767 72.9451 378.047 73.2118 378.22C73.4918 378.393 73.9451 378.48 74.5718 378.48C75.0518 378.48 75.5118 378.407 75.9518 378.26C76.4051 378.1 76.7785 377.84 77.0718 377.48C77.3651 377.107 77.5118 376.587 77.5118 375.92L77.7918 378.46L77.4718 378.44C77.2851 378.747 77.0251 379.033 76.6918 379.3C76.3718 379.567 75.9785 379.787 75.5118 379.96C75.0451 380.12 74.4985 380.2 73.8718 380.2ZM86.061 380.22C85.021 380.22 84.141 380 83.421 379.56C82.701 379.12 82.1477 378.513 81.761 377.74C81.3877 376.967 81.201 376.067 81.201 375.04C81.201 374.013 81.3943 373.113 81.781 372.34C82.181 371.553 82.7477 370.947 83.481 370.52C84.2143 370.08 85.101 369.86 86.141 369.86C87.021 369.86 87.7943 370.027 88.461 370.36C89.1277 370.693 89.641 371.16 90.001 371.76C90.3743 372.36 90.561 373.06 90.561 373.86V374.04H88.421V373.92C88.421 373.187 88.221 372.653 87.821 372.32C87.4343 371.973 86.8277 371.8 86.001 371.8C85.041 371.8 84.3543 372.073 83.941 372.62C83.541 373.153 83.341 373.953 83.341 375.02C83.341 376.1 83.541 376.913 83.941 377.46C84.3543 377.993 85.041 378.26 86.001 378.26C86.8277 378.26 87.4343 378.093 87.821 377.76C88.221 377.413 88.421 376.88 88.421 376.16V376.04H90.561V376.22C90.561 376.993 90.3743 377.687 90.001 378.3C89.6277 378.9 89.101 379.373 88.421 379.72C87.7543 380.053 86.9677 380.22 86.061 380.22ZM96.7446 380.22C95.7046 380.22 94.8246 380 94.1046 379.56C93.3846 379.12 92.8313 378.513 92.4446 377.74C92.0713 376.967 91.8846 376.067 91.8846 375.04C91.8846 374.013 92.0779 373.113 92.4646 372.34C92.8646 371.553 93.4313 370.947 94.1646 370.52C94.8979 370.08 95.7846 369.86 96.8246 369.86C97.7046 369.86 98.4779 370.027 99.1446 370.36C99.8113 370.693 100.325 371.16 100.685 371.76C101.058 372.36 101.245 373.06 101.245 373.86V374.04H99.1046V373.92C99.1046 373.187 98.9046 372.653 98.5046 372.32C98.1179 371.973 97.5113 371.8 96.6846 371.8C95.7246 371.8 95.0379 372.073 94.6246 372.62C94.2246 373.153 94.0246 373.953 94.0246 375.02C94.0246 376.1 94.2246 376.913 94.6246 377.46C95.0379 377.993 95.7246 378.26 96.6846 378.26C97.5113 378.26 98.1179 378.093 98.5046 377.76C98.9046 377.413 99.1046 376.88 99.1046 376.16V376.04H101.245V376.22C101.245 376.993 101.058 377.687 100.685 378.3C100.311 378.9 99.7846 379.373 99.1046 379.72C98.4379 380.053 97.6513 380.22 96.7446 380.22ZM106.571 380.2C105.717 380.2 105.011 380.027 104.451 379.68C103.891 379.32 103.477 378.84 103.211 378.24C102.944 377.627 102.811 376.947 102.811 376.2V370.06H104.971V375.8C104.971 376.693 105.157 377.34 105.531 377.74C105.904 378.14 106.517 378.34 107.371 378.34C107.931 378.34 108.404 378.253 108.791 378.08C109.177 377.893 109.471 377.607 109.671 377.22C109.871 376.82 109.971 376.3 109.971 375.66H110.531V378.02H110.051C109.904 378.393 109.677 378.747 109.371 379.08C109.077 379.413 108.697 379.687 108.231 379.9C107.777 380.1 107.224 380.2 106.571 380.2ZM112.131 380H110.131V377.02L109.971 376.92V370.06H112.131V380ZM116.417 380H114.257V370H116.237V372.78L116.417 372.88V380ZM116.417 373.52H115.917V371.58H116.337C116.537 371.113 116.864 370.713 117.317 370.38C117.784 370.033 118.384 369.86 119.117 369.86C119.824 369.86 120.384 370.013 120.797 370.32C121.224 370.627 121.531 371.033 121.717 371.54C121.904 372.047 121.997 372.613 121.997 373.24V373.9H119.837V373.5C119.837 372.833 119.724 372.367 119.497 372.1C119.271 371.833 118.844 371.7 118.217 371.7C117.564 371.7 117.097 371.84 116.817 372.12C116.551 372.387 116.417 372.853 116.417 373.52ZM131.564 380H129.564V378.04L129.504 377.5V373.68C129.504 372.933 129.324 372.427 128.964 372.16C128.617 371.893 128.051 371.76 127.264 371.76C126.477 371.76 125.911 371.9 125.564 372.18C125.231 372.46 125.064 372.927 125.064 373.58V373.88H122.984V373.68C122.984 372.933 123.164 372.273 123.524 371.7C123.897 371.127 124.411 370.68 125.064 370.36C125.731 370.027 126.504 369.86 127.384 369.86C128.317 369.86 129.091 370.033 129.704 370.38C130.317 370.727 130.777 371.207 131.084 371.82C131.404 372.42 131.564 373.133 131.564 373.96V380ZM125.864 380.2C124.971 380.2 124.217 379.973 123.604 379.52C123.004 379.053 122.704 378.393 122.704 377.54C122.704 376.98 122.831 376.513 123.084 376.14C123.351 375.767 123.731 375.46 124.224 375.22C124.717 374.98 125.317 374.813 126.024 374.72L129.704 374.2V375.72L126.344 376.22C125.771 376.3 125.371 376.42 125.144 376.58C124.917 376.74 124.804 377.007 124.804 377.38C124.804 377.767 124.937 378.047 125.204 378.22C125.484 378.393 125.937 378.48 126.564 378.48C127.044 378.48 127.504 378.407 127.944 378.26C128.397 378.1 128.771 377.84 129.064 377.48C129.357 377.107 129.504 376.587 129.504 375.92L129.784 378.46L129.464 378.44C129.277 378.747 129.017 379.033 128.684 379.3C128.364 379.567 127.971 379.787 127.504 379.96C127.037 380.12 126.491 380.2 125.864 380.2ZM137.675 380C136.582 380 135.742 379.767 135.155 379.3C134.582 378.833 134.295 378.047 134.295 376.94V370.28L134.795 367.6H136.455V376.84C136.455 377.36 136.582 377.693 136.835 377.84C137.102 377.973 137.575 378.04 138.255 378.04H139.455V379.82C139.255 379.873 138.995 379.92 138.675 379.96C138.355 379.987 138.022 380 137.675 380ZM139.455 371.86H132.635V370.06H139.455V371.86ZM144.986 380.2C143.906 380.2 143.006 379.987 142.286 379.56C141.566 379.12 141.033 378.513 140.686 377.74C140.339 376.953 140.166 376.047 140.166 375.02C140.166 373.993 140.359 373.093 140.746 372.32C141.146 371.547 141.706 370.947 142.426 370.52C143.146 370.08 143.999 369.86 144.986 369.86C145.879 369.86 146.666 370.033 147.346 370.38C148.039 370.713 148.573 371.2 148.946 371.84C149.333 372.48 149.526 373.253 149.526 374.16C149.526 374.427 149.513 374.687 149.486 374.94C149.473 375.18 149.453 375.38 149.426 375.54H141.186V374.1H147.666L147.446 374.3C147.499 373.687 147.433 373.187 147.246 372.8C147.073 372.413 146.786 372.127 146.386 371.94C145.999 371.753 145.513 371.66 144.926 371.66C143.873 371.66 143.153 371.927 142.766 372.46C142.379 372.98 142.186 373.7 142.186 374.62V375.22C142.186 375.887 142.266 376.453 142.426 376.92C142.599 377.373 142.893 377.713 143.306 377.94C143.719 378.167 144.286 378.28 145.006 378.28C145.846 378.28 146.439 378.147 146.786 377.88C147.133 377.613 147.306 377.26 147.306 376.82V376.66H149.446V376.84C149.446 377.52 149.259 378.113 148.886 378.62C148.513 379.113 147.993 379.5 147.326 379.78C146.673 380.06 145.893 380.2 144.986 380.2ZM161.037 380.2C159.743 380.2 158.623 379.92 157.677 379.36C156.743 378.787 156.023 377.987 155.517 376.96C155.023 375.92 154.777 374.7 154.777 373.3C154.777 371.9 155.023 370.687 155.517 369.66C156.023 368.62 156.743 367.82 157.677 367.26C158.623 366.687 159.743 366.4 161.037 366.4C162.25 366.4 163.283 366.613 164.137 367.04C164.99 367.467 165.65 368.067 166.117 368.84C166.583 369.613 166.817 370.54 166.817 371.62V371.74H164.537V371.62C164.537 370.527 164.257 369.733 163.697 369.24C163.15 368.733 162.243 368.48 160.977 368.48C160.057 368.48 159.31 368.64 158.737 368.96C158.163 369.28 157.743 369.793 157.477 370.5C157.21 371.207 157.077 372.14 157.077 373.3C157.077 374.447 157.21 375.38 157.477 376.1C157.743 376.807 158.163 377.32 158.737 377.64C159.31 377.947 160.057 378.1 160.977 378.1C162.243 378.1 163.15 377.853 163.697 377.36C164.257 376.867 164.537 376.073 164.537 374.98V374.86H166.817V374.98C166.817 376.047 166.583 376.973 166.117 377.76C165.65 378.533 164.99 379.133 164.137 379.56C163.283 379.987 162.25 380.2 161.037 380.2ZM173.153 380.2C172.14 380.2 171.26 379.987 170.513 379.56C169.767 379.12 169.193 378.513 168.793 377.74C168.393 376.953 168.193 376.047 168.193 375.02C168.193 373.993 168.393 373.093 168.793 372.32C169.193 371.547 169.767 370.947 170.513 370.52C171.26 370.08 172.14 369.86 173.153 369.86C174.167 369.86 175.033 370.08 175.753 370.52C176.487 370.947 177.047 371.547 177.433 372.32C177.833 373.093 178.033 373.993 178.033 375.02C178.033 376.047 177.833 376.953 177.433 377.74C177.047 378.513 176.487 379.12 175.753 379.56C175.033 379.987 174.167 380.2 173.153 380.2ZM173.153 378.28C174.193 378.28 174.92 378.02 175.333 377.5C175.747 376.967 175.953 376.14 175.953 375.02C175.953 373.9 175.747 373.08 175.333 372.56C174.92 372.04 174.193 371.78 173.153 371.78C172.1 371.78 171.367 372.04 170.953 372.56C170.54 373.08 170.333 373.9 170.333 375.02C170.333 376.14 170.54 376.967 170.953 377.5C171.367 378.02 172.1 378.28 173.153 378.28ZM181.827 380H179.667V366.6H181.827V380ZM186.202 380H184.042V366.6H186.202V380ZM192.662 380.2C191.582 380.2 190.682 379.987 189.962 379.56C189.242 379.12 188.708 378.513 188.362 377.74C188.015 376.953 187.842 376.047 187.842 375.02C187.842 373.993 188.035 373.093 188.422 372.32C188.822 371.547 189.382 370.947 190.102 370.52C190.822 370.08 191.675 369.86 192.662 369.86C193.555 369.86 194.342 370.033 195.022 370.38C195.715 370.713 196.248 371.2 196.622 371.84C197.008 372.48 197.202 373.253 197.202 374.16C197.202 374.427 197.188 374.687 197.162 374.94C197.148 375.18 197.128 375.38 197.102 375.54H188.862V374.1H195.342L195.122 374.3C195.175 373.687 195.108 373.187 194.922 372.8C194.748 372.413 194.462 372.127 194.062 371.94C193.675 371.753 193.188 371.66 192.602 371.66C191.548 371.66 190.828 371.927 190.442 372.46C190.055 372.98 189.862 373.7 189.862 374.62V375.22C189.862 375.887 189.942 376.453 190.102 376.92C190.275 377.373 190.568 377.713 190.982 377.94C191.395 378.167 191.962 378.28 192.682 378.28C193.522 378.28 194.115 378.147 194.462 377.88C194.808 377.613 194.982 377.26 194.982 376.82V376.66H197.122V376.84C197.122 377.52 196.935 378.113 196.562 378.62C196.188 379.113 195.668 379.5 195.002 379.78C194.348 380.06 193.568 380.2 192.662 380.2ZM203.723 383.6C202.79 383.6 201.976 383.453 201.283 383.16C200.603 382.867 200.076 382.44 199.703 381.88C199.33 381.333 199.143 380.66 199.143 379.86H201.303C201.303 380.313 201.37 380.673 201.503 380.94C201.636 381.207 201.883 381.393 202.243 381.5C202.603 381.62 203.116 381.68 203.783 381.68C204.436 381.68 204.936 381.607 205.283 381.46C205.63 381.313 205.87 381.067 206.003 380.72C206.136 380.373 206.203 379.893 206.203 379.28V372.68L206.363 372.42V370.06H208.363V379.28C208.363 380.253 208.176 381.053 207.803 381.68C207.43 382.32 206.896 382.8 206.203 383.12C205.523 383.44 204.696 383.6 203.723 383.6ZM202.883 379.06C201.51 379.06 200.456 378.647 199.723 377.82C198.99 376.98 198.623 375.86 198.623 374.46C198.623 373.06 198.996 371.947 199.743 371.12C200.49 370.28 201.563 369.86 202.963 369.86C203.776 369.86 204.476 370.027 205.063 370.36C205.65 370.68 206.056 371.127 206.283 371.7H206.683L206.583 374.14H206.203C206.203 373.58 206.09 373.12 205.863 372.76C205.636 372.4 205.316 372.133 204.903 371.96C204.49 371.787 204.01 371.7 203.463 371.7C202.836 371.7 202.323 371.787 201.923 371.96C201.536 372.133 201.25 372.427 201.063 372.84C200.876 373.24 200.783 373.78 200.783 374.46C200.783 374.967 200.836 375.4 200.943 375.76C201.05 376.107 201.216 376.387 201.443 376.6C201.67 376.813 201.956 376.973 202.303 377.08C202.65 377.173 203.05 377.22 203.503 377.22C204.05 377.22 204.523 377.133 204.923 376.96C205.323 376.773 205.636 376.5 205.863 376.14C206.09 375.78 206.203 375.32 206.203 374.76H206.643V377.3H206.123C205.896 377.78 205.503 378.193 204.943 378.54C204.383 378.887 203.696 379.06 202.883 379.06ZM214.81 380.2C213.73 380.2 212.83 379.987 212.11 379.56C211.39 379.12 210.857 378.513 210.51 377.74C210.163 376.953 209.99 376.047 209.99 375.02C209.99 373.993 210.183 373.093 210.57 372.32C210.97 371.547 211.53 370.947 212.25 370.52C212.97 370.08 213.823 369.86 214.81 369.86C215.703 369.86 216.49 370.033 217.17 370.38C217.863 370.713 218.397 371.2 218.77 371.84C219.157 372.48 219.35 373.253 219.35 374.16C219.35 374.427 219.337 374.687 219.31 374.94C219.297 375.18 219.277 375.38 219.25 375.54H211.01V374.1H217.49L217.27 374.3C217.323 373.687 217.257 373.187 217.07 372.8C216.897 372.413 216.61 372.127 216.21 371.94C215.823 371.753 215.337 371.66 214.75 371.66C213.697 371.66 212.977 371.927 212.59 372.46C212.203 372.98 212.01 373.7 212.01 374.62V375.22C212.01 375.887 212.09 376.453 212.25 376.92C212.423 377.373 212.717 377.713 213.13 377.94C213.543 378.167 214.11 378.28 214.83 378.28C215.67 378.28 216.263 378.147 216.61 377.88C216.957 377.613 217.13 377.26 217.13 376.82V376.66H219.27V376.84C219.27 377.52 219.083 378.113 218.71 378.62C218.337 379.113 217.817 379.5 217.15 379.78C216.497 380.06 215.717 380.2 214.81 380.2ZM228.921 380.2C227.508 380.2 226.421 379.733 225.661 378.8C224.914 377.853 224.541 376.593 224.541 375.02C224.541 373.447 224.908 372.193 225.641 371.26C226.388 370.327 227.441 369.86 228.801 369.86C229.681 369.86 230.388 370.04 230.921 370.4C231.468 370.747 231.848 371.147 232.061 371.6H232.601L232.501 374.14H232.121C232.121 373.58 232.014 373.12 231.801 372.76C231.588 372.4 231.281 372.133 230.881 371.96C230.481 371.787 229.988 371.7 229.401 371.7C228.921 371.7 228.508 371.76 228.161 371.88C227.828 372 227.548 372.187 227.321 372.44C227.108 372.693 226.948 373.033 226.841 373.46C226.748 373.887 226.701 374.407 226.701 375.02C226.701 375.62 226.748 376.14 226.841 376.58C226.948 377.007 227.108 377.353 227.321 377.62C227.548 377.873 227.834 378.06 228.181 378.18C228.528 378.3 228.934 378.36 229.401 378.36C229.988 378.36 230.481 378.273 230.881 378.1C231.281 377.913 231.588 377.64 231.801 377.28C232.014 376.92 232.121 376.467 232.121 375.92H232.501L232.601 378.36H232.201C231.974 378.933 231.581 379.387 231.021 379.72C230.474 380.04 229.774 380.2 228.921 380.2ZM234.281 380H232.281V377.64L232.121 377.38V366.6H234.281V380ZM240.748 380.2C239.668 380.2 238.768 379.987 238.048 379.56C237.328 379.12 236.794 378.513 236.448 377.74C236.101 376.953 235.928 376.047 235.928 375.02C235.928 373.993 236.121 373.093 236.508 372.32C236.908 371.547 237.468 370.947 238.188 370.52C238.908 370.08 239.761 369.86 240.748 369.86C241.641 369.86 242.428 370.033 243.108 370.38C243.801 370.713 244.334 371.2 244.708 371.84C245.094 372.48 245.288 373.253 245.288 374.16C245.288 374.427 245.274 374.687 245.248 374.94C245.234 375.18 245.214 375.38 245.188 375.54H236.948V374.1H243.428L243.208 374.3C243.261 373.687 243.194 373.187 243.008 372.8C242.834 372.413 242.548 372.127 242.148 371.94C241.761 371.753 241.274 371.66 240.688 371.66C239.634 371.66 238.914 371.927 238.528 372.46C238.141 372.98 237.948 373.7 237.948 374.62V375.22C237.948 375.887 238.028 376.453 238.188 376.92C238.361 377.373 238.654 377.713 239.068 377.94C239.481 378.167 240.048 378.28 240.768 378.28C241.608 378.28 242.201 378.147 242.548 377.88C242.894 377.613 243.068 377.26 243.068 376.82V376.66H245.208V376.84C245.208 377.52 245.021 378.113 244.648 378.62C244.274 379.113 243.754 379.5 243.088 379.78C242.434 380.06 241.654 380.2 240.748 380.2ZM251.074 380C249.98 380 249.14 379.767 248.554 379.3C247.98 378.833 247.694 378.047 247.694 376.94V370.28L248.194 367.6H249.854V376.84C249.854 377.36 249.98 377.693 250.234 377.84C250.5 377.973 250.974 378.04 251.654 378.04H252.854V379.82C252.654 379.873 252.394 379.92 252.074 379.96C251.754 379.987 251.42 380 251.074 380ZM252.854 371.86H246.034V370.06H252.854V371.86ZM262.697 380H260.697V378.04L260.637 377.5V373.68C260.637 372.933 260.457 372.427 260.097 372.16C259.75 371.893 259.183 371.76 258.397 371.76C257.61 371.76 257.043 371.9 256.697 372.18C256.363 372.46 256.197 372.927 256.197 373.58V373.88H254.117V373.68C254.117 372.933 254.297 372.273 254.657 371.7C255.03 371.127 255.543 370.68 256.197 370.36C256.863 370.027 257.637 369.86 258.517 369.86C259.45 369.86 260.223 370.033 260.837 370.38C261.45 370.727 261.91 371.207 262.217 371.82C262.537 372.42 262.697 373.133 262.697 373.96V380ZM256.997 380.2C256.103 380.2 255.35 379.973 254.737 379.52C254.137 379.053 253.837 378.393 253.837 377.54C253.837 376.98 253.963 376.513 254.217 376.14C254.483 375.767 254.863 375.46 255.357 375.22C255.85 374.98 256.45 374.813 257.157 374.72L260.837 374.2V375.72L257.477 376.22C256.903 376.3 256.503 376.42 256.277 376.58C256.05 376.74 255.937 377.007 255.937 377.38C255.937 377.767 256.07 378.047 256.337 378.22C256.617 378.393 257.07 378.48 257.697 378.48C258.177 378.48 258.637 378.407 259.077 378.26C259.53 378.1 259.903 377.84 260.197 377.48C260.49 377.107 260.637 376.587 260.637 375.92L260.917 378.46L260.597 378.44C260.41 378.747 260.15 379.033 259.817 379.3C259.497 379.567 259.103 379.787 258.637 379.96C258.17 380.12 257.623 380.2 256.997 380.2ZM266.785 368.8H264.645L264.625 366.6H266.785V368.8ZM266.805 380H264.645V370H266.805V380ZM270.949 380H268.789V366.6H270.949V380ZM277.187 380.2C275.734 380.2 274.634 379.913 273.887 379.34C273.141 378.753 272.767 377.853 272.767 376.64V376.6H274.847V376.96C274.847 377.307 274.914 377.593 275.047 377.82C275.194 378.033 275.434 378.193 275.767 378.3C276.114 378.393 276.601 378.44 277.227 378.44C277.761 378.44 278.161 378.4 278.427 378.32C278.707 378.227 278.894 378.1 278.987 377.94C279.081 377.78 279.127 377.58 279.127 377.34C279.127 376.94 278.987 376.66 278.707 376.5C278.427 376.327 277.927 376.173 277.207 376.04L275.647 375.78C275.061 375.66 274.547 375.493 274.107 375.28C273.681 375.053 273.347 374.747 273.107 374.36C272.881 373.96 272.767 373.46 272.767 372.86C272.767 371.967 273.121 371.247 273.827 370.7C274.534 370.14 275.534 369.86 276.827 369.86C277.614 369.86 278.314 369.987 278.927 370.24C279.541 370.493 280.027 370.873 280.387 371.38C280.747 371.887 280.927 372.52 280.927 373.28V373.46H278.867V373.22C278.867 372.9 278.814 372.627 278.707 372.4C278.601 372.16 278.401 371.973 278.107 371.84C277.814 371.707 277.367 371.64 276.767 371.64C275.981 371.64 275.461 371.74 275.207 371.94C274.954 372.14 274.827 372.433 274.827 372.82C274.827 373.207 274.941 373.48 275.167 373.64C275.407 373.787 275.874 373.933 276.567 374.08L278.267 374.4C278.907 374.52 279.441 374.7 279.867 374.94C280.294 375.18 280.614 375.493 280.827 375.88C281.054 376.267 281.167 376.727 281.167 377.26C281.167 378.193 280.814 378.92 280.107 379.44C279.414 379.947 278.441 380.2 277.187 380.2ZM289.359 380H287.199V370.14C287.199 369.367 287.346 368.72 287.639 368.2C287.932 367.68 288.366 367.287 288.939 367.02C289.526 366.74 290.246 366.6 291.099 366.6C291.232 366.6 291.366 366.6 291.499 366.6C291.632 366.6 291.766 366.6 291.899 366.6V368.32H290.699C290.219 368.32 289.866 368.413 289.639 368.6C289.412 368.787 289.299 369.093 289.299 369.52V370.4L289.359 370.92V380ZM291.899 371.86H285.739V370.06H291.899V371.86ZM297.216 380.2C296.202 380.2 295.322 379.987 294.576 379.56C293.829 379.12 293.256 378.513 292.856 377.74C292.456 376.953 292.256 376.047 292.256 375.02C292.256 373.993 292.456 373.093 292.856 372.32C293.256 371.547 293.829 370.947 294.576 370.52C295.322 370.08 296.202 369.86 297.216 369.86C298.229 369.86 299.096 370.08 299.816 370.52C300.549 370.947 301.109 371.547 301.496 372.32C301.896 373.093 302.096 373.993 302.096 375.02C302.096 376.047 301.896 376.953 301.496 377.74C301.109 378.513 300.549 379.12 299.816 379.56C299.096 379.987 298.229 380.2 297.216 380.2ZM297.216 378.28C298.256 378.28 298.982 378.02 299.396 377.5C299.809 376.967 300.016 376.14 300.016 375.02C300.016 373.9 299.809 373.08 299.396 372.56C298.982 372.04 298.256 371.78 297.216 371.78C296.162 371.78 295.429 372.04 295.016 372.56C294.602 373.08 294.396 373.9 294.396 375.02C294.396 376.14 294.602 376.967 295.016 377.5C295.429 378.02 296.162 378.28 297.216 378.28ZM305.87 380H303.71V370H305.69V372.78L305.87 372.88V380ZM305.87 373.52H305.37V371.58H305.79C305.99 371.113 306.317 370.713 306.77 370.38C307.237 370.033 307.837 369.86 308.57 369.86C309.277 369.86 309.837 370.013 310.25 370.32C310.677 370.627 310.984 371.033 311.17 371.54C311.357 372.047 311.45 372.613 311.45 373.24V373.9H309.29V373.5C309.29 372.833 309.177 372.367 308.95 372.1C308.724 371.833 308.297 371.7 307.67 371.7C307.017 371.7 306.55 371.84 306.27 372.12C306.004 372.387 305.87 372.853 305.87 373.52ZM320.918 380.2C319.464 380.2 318.364 379.913 317.618 379.34C316.871 378.753 316.498 377.853 316.498 376.64V376.6H318.578V376.96C318.578 377.307 318.644 377.593 318.778 377.82C318.924 378.033 319.164 378.193 319.498 378.3C319.844 378.393 320.331 378.44 320.958 378.44C321.491 378.44 321.891 378.4 322.158 378.32C322.438 378.227 322.624 378.1 322.718 377.94C322.811 377.78 322.858 377.58 322.858 377.34C322.858 376.94 322.718 376.66 322.438 376.5C322.158 376.327 321.658 376.173 320.938 376.04L319.378 375.78C318.791 375.66 318.278 375.493 317.838 375.28C317.411 375.053 317.078 374.747 316.838 374.36C316.611 373.96 316.498 373.46 316.498 372.86C316.498 371.967 316.851 371.247 317.558 370.7C318.264 370.14 319.264 369.86 320.558 369.86C321.344 369.86 322.044 369.987 322.658 370.24C323.271 370.493 323.758 370.873 324.118 371.38C324.478 371.887 324.658 372.52 324.658 373.28V373.46H322.598V373.22C322.598 372.9 322.544 372.627 322.438 372.4C322.331 372.16 322.131 371.973 321.838 371.84C321.544 371.707 321.098 371.64 320.498 371.64C319.711 371.64 319.191 371.74 318.938 371.94C318.684 372.14 318.558 372.433 318.558 372.82C318.558 373.207 318.671 373.48 318.898 373.64C319.138 373.787 319.604 373.933 320.298 374.08L321.998 374.4C322.638 374.52 323.171 374.7 323.598 374.94C324.024 375.18 324.344 375.493 324.558 375.88C324.784 376.267 324.898 376.727 324.898 377.26C324.898 378.193 324.544 378.92 323.838 379.44C323.144 379.947 322.171 380.2 320.918 380.2ZM331.06 380.2C329.98 380.2 329.08 379.987 328.36 379.56C327.64 379.12 327.107 378.513 326.76 377.74C326.413 376.953 326.24 376.047 326.24 375.02C326.24 373.993 326.433 373.093 326.82 372.32C327.22 371.547 327.78 370.947 328.5 370.52C329.22 370.08 330.073 369.86 331.06 369.86C331.953 369.86 332.74 370.033 333.42 370.38C334.113 370.713 334.647 371.2 335.02 371.84C335.407 372.48 335.6 373.253 335.6 374.16C335.6 374.427 335.587 374.687 335.56 374.94C335.547 375.18 335.527 375.38 335.5 375.54H327.26V374.1H333.74L333.52 374.3C333.573 373.687 333.507 373.187 333.32 372.8C333.147 372.413 332.86 372.127 332.46 371.94C332.073 371.753 331.587 371.66 331 371.66C329.947 371.66 329.227 371.927 328.84 372.46C328.453 372.98 328.26 373.7 328.26 374.62V375.22C328.26 375.887 328.34 376.453 328.5 376.92C328.673 377.373 328.967 377.713 329.38 377.94C329.793 378.167 330.36 378.28 331.08 378.28C331.92 378.28 332.513 378.147 332.86 377.88C333.207 377.613 333.38 377.26 333.38 376.82V376.66H335.52V376.84C335.52 377.52 335.333 378.113 334.96 378.62C334.587 379.113 334.067 379.5 333.4 379.78C332.747 380.06 331.967 380.2 331.06 380.2ZM345.822 380H343.822V378.04L343.762 377.5V373.68C343.762 372.933 343.582 372.427 343.222 372.16C342.875 371.893 342.308 371.76 341.522 371.76C340.735 371.76 340.168 371.9 339.822 372.18C339.488 372.46 339.322 372.927 339.322 373.58V373.88H337.242V373.68C337.242 372.933 337.422 372.273 337.782 371.7C338.155 371.127 338.668 370.68 339.322 370.36C339.988 370.027 340.762 369.86 341.642 369.86C342.575 369.86 343.348 370.033 343.962 370.38C344.575 370.727 345.035 371.207 345.342 371.82C345.662 372.42 345.822 373.133 345.822 373.96V380ZM340.122 380.2C339.228 380.2 338.475 379.973 337.862 379.52C337.262 379.053 336.962 378.393 336.962 377.54C336.962 376.98 337.088 376.513 337.342 376.14C337.608 375.767 337.988 375.46 338.482 375.22C338.975 374.98 339.575 374.813 340.282 374.72L343.962 374.2V375.72L340.602 376.22C340.028 376.3 339.628 376.42 339.402 376.58C339.175 376.74 339.062 377.007 339.062 377.38C339.062 377.767 339.195 378.047 339.462 378.22C339.742 378.393 340.195 378.48 340.822 378.48C341.302 378.48 341.762 378.407 342.202 378.26C342.655 378.1 343.028 377.84 343.322 377.48C343.615 377.107 343.762 376.587 343.762 375.92L344.042 378.46L343.722 378.44C343.535 378.747 343.275 379.033 342.942 379.3C342.622 379.567 342.228 379.787 341.762 379.96C341.295 380.12 340.748 380.2 340.122 380.2ZM363.85 380H361.69V374.22C361.69 373.34 361.523 372.707 361.19 372.32C360.87 371.92 360.257 371.72 359.35 371.72C358.537 371.72 357.93 371.913 357.53 372.3C357.143 372.673 356.95 373.313 356.95 374.22L356.57 374.26L356.39 371.92H356.71C356.87 371.573 357.09 371.247 357.37 370.94C357.663 370.62 358.037 370.36 358.49 370.16C358.943 369.96 359.497 369.86 360.15 369.86C361.017 369.86 361.717 370.027 362.25 370.36C362.797 370.693 363.197 371.153 363.45 371.74C363.717 372.327 363.85 373 363.85 373.76V380ZM350.05 380H347.89V370.06H349.87V373.04L350.05 373.14V380ZM356.95 380H354.79V374.22C354.79 373.34 354.623 372.707 354.29 372.32C353.97 371.92 353.357 371.72 352.45 371.72C351.637 371.72 351.03 371.907 350.63 372.28C350.243 372.653 350.05 373.293 350.05 374.2L349.67 374.26L349.49 371.92H349.97C350.117 371.56 350.33 371.227 350.61 370.92C350.903 370.613 351.277 370.36 351.73 370.16C352.183 369.96 352.723 369.86 353.35 369.86C354.19 369.86 354.87 370.027 355.39 370.36C355.923 370.693 356.317 371.153 356.57 371.74C356.823 372.327 356.95 373 356.95 373.76V380ZM368.077 380H365.917V366.6H368.077V380ZM374.537 380.2C373.457 380.2 372.557 379.987 371.837 379.56C371.117 379.12 370.583 378.513 370.237 377.74C369.89 376.953 369.717 376.047 369.717 375.02C369.717 373.993 369.91 373.093 370.297 372.32C370.697 371.547 371.257 370.947 371.977 370.52C372.697 370.08 373.55 369.86 374.537 369.86C375.43 369.86 376.217 370.033 376.897 370.38C377.59 370.713 378.123 371.2 378.497 371.84C378.883 372.48 379.077 373.253 379.077 374.16C379.077 374.427 379.063 374.687 379.037 374.94C379.023 375.18 379.003 375.38 378.977 375.54H370.737V374.1H377.217L376.997 374.3C377.05 373.687 376.983 373.187 376.797 372.8C376.623 372.413 376.337 372.127 375.937 371.94C375.55 371.753 375.063 371.66 374.477 371.66C373.423 371.66 372.703 371.927 372.317 372.46C371.93 372.98 371.737 373.7 371.737 374.62V375.22C371.737 375.887 371.817 376.453 371.977 376.92C372.15 377.373 372.443 377.713 372.857 377.94C373.27 378.167 373.837 378.28 374.557 378.28C375.397 378.28 375.99 378.147 376.337 377.88C376.683 377.613 376.857 377.26 376.857 376.82V376.66H378.997V376.84C378.997 377.52 378.81 378.113 378.437 378.62C378.063 379.113 377.543 379.5 376.877 379.78C376.223 380.06 375.443 380.2 374.537 380.2ZM385.078 380.2C383.625 380.2 382.525 379.913 381.778 379.34C381.031 378.753 380.658 377.853 380.658 376.64V376.6H382.738V376.96C382.738 377.307 382.805 377.593 382.938 377.82C383.085 378.033 383.325 378.193 383.658 378.3C384.005 378.393 384.491 378.44 385.118 378.44C385.651 378.44 386.051 378.4 386.318 378.32C386.598 378.227 386.785 378.1 386.878 377.94C386.971 377.78 387.018 377.58 387.018 377.34C387.018 376.94 386.878 376.66 386.598 376.5C386.318 376.327 385.818 376.173 385.098 376.04L383.538 375.78C382.951 375.66 382.438 375.493 381.998 375.28C381.571 375.053 381.238 374.747 380.998 374.36C380.771 373.96 380.658 373.46 380.658 372.86C380.658 371.967 381.011 371.247 381.718 370.7C382.425 370.14 383.425 369.86 384.718 369.86C385.505 369.86 386.205 369.987 386.818 370.24C387.431 370.493 387.918 370.873 388.278 371.38C388.638 371.887 388.818 372.52 388.818 373.28V373.46H386.758V373.22C386.758 372.9 386.705 372.627 386.598 372.4C386.491 372.16 386.291 371.973 385.998 371.84C385.705 371.707 385.258 371.64 384.658 371.64C383.871 371.64 383.351 371.74 383.098 371.94C382.845 372.14 382.718 372.433 382.718 372.82C382.718 373.207 382.831 373.48 383.058 373.64C383.298 373.787 383.765 373.933 384.458 374.08L386.158 374.4C386.798 374.52 387.331 374.7 387.758 374.94C388.185 375.18 388.505 375.493 388.718 375.88C388.945 376.267 389.058 376.727 389.058 377.26C389.058 378.193 388.705 378.92 387.998 379.44C387.305 379.947 386.331 380.2 385.078 380.2ZM394.922 380.2C393.468 380.2 392.368 379.913 391.622 379.34C390.875 378.753 390.502 377.853 390.502 376.64V376.6H392.582V376.96C392.582 377.307 392.648 377.593 392.782 377.82C392.928 378.033 393.168 378.193 393.502 378.3C393.848 378.393 394.335 378.44 394.962 378.44C395.495 378.44 395.895 378.4 396.162 378.32C396.442 378.227 396.628 378.1 396.722 377.94C396.815 377.78 396.862 377.58 396.862 377.34C396.862 376.94 396.722 376.66 396.442 376.5C396.162 376.327 395.662 376.173 394.942 376.04L393.382 375.78C392.795 375.66 392.282 375.493 391.842 375.28C391.415 375.053 391.082 374.747 390.842 374.36C390.615 373.96 390.502 373.46 390.502 372.86C390.502 371.967 390.855 371.247 391.562 370.7C392.268 370.14 393.268 369.86 394.562 369.86C395.348 369.86 396.048 369.987 396.662 370.24C397.275 370.493 397.762 370.873 398.122 371.38C398.482 371.887 398.662 372.52 398.662 373.28V373.46H396.602V373.22C396.602 372.9 396.548 372.627 396.442 372.4C396.335 372.16 396.135 371.973 395.842 371.84C395.548 371.707 395.102 371.64 394.502 371.64C393.715 371.64 393.195 371.74 392.942 371.94C392.688 372.14 392.562 372.433 392.562 372.82C392.562 373.207 392.675 373.48 392.902 373.64C393.142 373.787 393.608 373.933 394.302 374.08L396.002 374.4C396.642 374.52 397.175 374.7 397.602 374.94C398.028 375.18 398.348 375.493 398.562 375.88C398.788 376.267 398.902 376.727 398.902 377.26C398.902 378.193 398.548 378.92 397.842 379.44C397.148 379.947 396.175 380.2 394.922 380.2ZM87.4036 405H85.2436V395H87.2236V397.78L87.4036 397.88V405ZM87.4036 398.52H86.9036V396.58H87.3236C87.5236 396.113 87.8503 395.713 88.3036 395.38C88.7703 395.033 89.3703 394.86 90.1036 394.86C90.8103 394.86 91.3703 395.013 91.7836 395.32C92.2103 395.627 92.5169 396.033 92.7036 396.54C92.8903 397.047 92.9836 397.613 92.9836 398.24V398.9H90.8236V398.5C90.8236 397.833 90.7103 397.367 90.4836 397.1C90.2569 396.833 89.8303 396.7 89.2036 396.7C88.5503 396.7 88.0836 396.84 87.8036 397.12C87.5369 397.387 87.4036 397.853 87.4036 398.52ZM98.7847 405.2C97.7047 405.2 96.8047 404.987 96.0847 404.56C95.3647 404.12 94.8314 403.513 94.4847 402.74C94.138 401.953 93.9647 401.047 93.9647 400.02C93.9647 398.993 94.158 398.093 94.5447 397.32C94.9447 396.547 95.5047 395.947 96.2247 395.52C96.9447 395.08 97.798 394.86 98.7847 394.86C99.678 394.86 100.465 395.033 101.145 395.38C101.838 395.713 102.371 396.2 102.745 396.84C103.131 397.48 103.325 398.253 103.325 399.16C103.325 399.427 103.311 399.687 103.285 399.94C103.271 400.18 103.251 400.38 103.225 400.54H94.9847V399.1H101.465L101.245 399.3C101.298 398.687 101.231 398.187 101.045 397.8C100.871 397.413 100.585 397.127 100.185 396.94C99.798 396.753 99.3114 396.66 98.7247 396.66C97.6714 396.66 96.9514 396.927 96.5647 397.46C96.178 397.98 95.9847 398.7 95.9847 399.62V400.22C95.9847 400.887 96.0647 401.453 96.2247 401.92C96.398 402.373 96.6914 402.713 97.1047 402.94C97.518 403.167 98.0847 403.28 98.8047 403.28C99.6447 403.28 100.238 403.147 100.585 402.88C100.931 402.613 101.105 402.26 101.105 401.82V401.66H103.245V401.84C103.245 402.52 103.058 403.113 102.685 403.62C102.311 404.113 101.791 404.5 101.125 404.78C100.471 405.06 99.6914 405.2 98.7847 405.2ZM109.606 405.22C108.566 405.22 107.686 405 106.966 404.56C106.246 404.12 105.693 403.513 105.306 402.74C104.933 401.967 104.746 401.067 104.746 400.04C104.746 399.013 104.939 398.113 105.326 397.34C105.726 396.553 106.293 395.947 107.026 395.52C107.759 395.08 108.646 394.86 109.686 394.86C110.566 394.86 111.339 395.027 112.006 395.36C112.673 395.693 113.186 396.16 113.546 396.76C113.919 397.36 114.106 398.06 114.106 398.86V399.04H111.966V398.92C111.966 398.187 111.766 397.653 111.366 397.32C110.979 396.973 110.373 396.8 109.546 396.8C108.586 396.8 107.899 397.073 107.486 397.62C107.086 398.153 106.886 398.953 106.886 400.02C106.886 401.1 107.086 401.913 107.486 402.46C107.899 402.993 108.586 403.26 109.546 403.26C110.373 403.26 110.979 403.093 111.366 402.76C111.766 402.413 111.966 401.88 111.966 401.16V401.04H114.106V401.22C114.106 401.993 113.919 402.687 113.546 403.3C113.173 403.9 112.646 404.373 111.966 404.72C111.299 405.053 110.513 405.22 109.606 405.22ZM117.892 405H115.732V395H117.712V397.78L117.892 397.88V405ZM117.892 398.52H117.392V396.58H117.812C118.012 396.113 118.339 395.713 118.792 395.38C119.259 395.033 119.859 394.86 120.592 394.86C121.299 394.86 121.859 395.013 122.272 395.32C122.699 395.627 123.005 396.033 123.192 396.54C123.379 397.047 123.472 397.613 123.472 398.24V398.9H121.312V398.5C121.312 397.833 121.199 397.367 120.972 397.1C120.745 396.833 120.319 396.7 119.692 396.7C119.039 396.7 118.572 396.84 118.292 397.12C118.025 397.387 117.892 397.853 117.892 398.52ZM128.514 405.2C127.661 405.2 126.954 405.027 126.394 404.68C125.834 404.32 125.421 403.84 125.154 403.24C124.887 402.627 124.754 401.947 124.754 401.2V395.06H126.914V400.8C126.914 401.693 127.101 402.34 127.474 402.74C127.847 403.14 128.461 403.34 129.314 403.34C129.874 403.34 130.347 403.253 130.734 403.08C131.121 402.893 131.414 402.607 131.614 402.22C131.814 401.82 131.914 401.3 131.914 400.66H132.474V403.02H131.994C131.847 403.393 131.621 403.747 131.314 404.08C131.021 404.413 130.641 404.687 130.174 404.9C129.721 405.1 129.167 405.2 128.514 405.2ZM134.074 405H132.074V402.02L131.914 401.92V395.06H134.074V405ZM138.221 393.8H136.081L136.061 391.6H138.221V393.8ZM138.241 405H136.081V395H138.241V405ZM144.306 405C143.213 405 142.373 404.767 141.786 404.3C141.213 403.833 140.926 403.047 140.926 401.94V395.28L141.426 392.6H143.086V401.84C143.086 402.36 143.213 402.693 143.466 402.84C143.733 402.973 144.206 403.04 144.886 403.04H146.086V404.82C145.886 404.873 145.626 404.92 145.306 404.96C144.986 404.987 144.653 405 144.306 405ZM146.086 396.86H139.266V395.06H146.086V396.86ZM163.528 405H161.368V399.22C161.368 398.34 161.201 397.707 160.868 397.32C160.548 396.92 159.934 396.72 159.028 396.72C158.214 396.72 157.608 396.913 157.208 397.3C156.821 397.673 156.628 398.313 156.628 399.22L156.248 399.26L156.068 396.92H156.388C156.548 396.573 156.768 396.247 157.048 395.94C157.341 395.62 157.714 395.36 158.168 395.16C158.621 394.96 159.174 394.86 159.828 394.86C160.694 394.86 161.394 395.027 161.928 395.36C162.474 395.693 162.874 396.153 163.128 396.74C163.394 397.327 163.528 398 163.528 398.76V405ZM149.728 405H147.568V395.06H149.548V398.04L149.728 398.14V405ZM156.628 405H154.468V399.22C154.468 398.34 154.301 397.707 153.968 397.32C153.648 396.92 153.034 396.72 152.128 396.72C151.314 396.72 150.708 396.907 150.308 397.28C149.921 397.653 149.728 398.293 149.728 399.2L149.348 399.26L149.168 396.92H149.648C149.794 396.56 150.008 396.227 150.288 395.92C150.581 395.613 150.954 395.36 151.408 395.16C151.861 394.96 152.401 394.86 153.028 394.86C153.868 394.86 154.548 395.027 155.068 395.36C155.601 395.693 155.994 396.153 156.248 396.74C156.501 397.327 156.628 398 156.628 398.76V405ZM169.976 405.2C168.896 405.2 167.996 404.987 167.276 404.56C166.556 404.12 166.023 403.513 165.676 402.74C165.329 401.953 165.156 401.047 165.156 400.02C165.156 398.993 165.349 398.093 165.736 397.32C166.136 396.547 166.696 395.947 167.416 395.52C168.136 395.08 168.989 394.86 169.976 394.86C170.869 394.86 171.656 395.033 172.336 395.38C173.029 395.713 173.563 396.2 173.936 396.84C174.323 397.48 174.516 398.253 174.516 399.16C174.516 399.427 174.503 399.687 174.476 399.94C174.463 400.18 174.443 400.38 174.416 400.54H166.176V399.1H172.656L172.436 399.3C172.489 398.687 172.423 398.187 172.236 397.8C172.063 397.413 171.776 397.127 171.376 396.94C170.989 396.753 170.503 396.66 169.916 396.66C168.863 396.66 168.143 396.927 167.756 397.46C167.369 397.98 167.176 398.7 167.176 399.62V400.22C167.176 400.887 167.256 401.453 167.416 401.92C167.589 402.373 167.883 402.713 168.296 402.94C168.709 403.167 169.276 403.28 169.996 403.28C170.836 403.28 171.429 403.147 171.776 402.88C172.123 402.613 172.296 402.26 172.296 401.82V401.66H174.436V401.84C174.436 402.52 174.249 403.113 173.876 403.62C173.503 404.113 172.983 404.5 172.316 404.78C171.663 405.06 170.883 405.2 169.976 405.2ZM185.5 405H183.34V399.22C183.34 398.34 183.173 397.707 182.84 397.32C182.506 396.92 181.88 396.72 180.96 396.72C180.373 396.72 179.893 396.807 179.52 396.98C179.146 397.14 178.866 397.407 178.68 397.78C178.493 398.14 178.4 398.633 178.4 399.26H178.02L177.84 396.92H178.32C178.466 396.56 178.686 396.227 178.98 395.92C179.273 395.613 179.646 395.36 180.1 395.16C180.566 394.96 181.12 394.86 181.76 394.86C182.626 394.86 183.333 395.027 183.88 395.36C184.426 395.693 184.833 396.153 185.1 396.74C185.366 397.327 185.5 398 185.5 398.76V405ZM178.4 405H176.24V395.06H178.22V398.04L178.4 398.14V405ZM191.611 405C190.517 405 189.677 404.767 189.091 404.3C188.517 403.833 188.231 403.047 188.231 401.94V395.28L188.731 392.6H190.391V401.84C190.391 402.36 190.517 402.693 190.771 402.84C191.037 402.973 191.511 403.04 192.191 403.04H193.391V404.82C193.191 404.873 192.931 404.92 192.611 404.96C192.291 404.987 191.957 405 191.611 405ZM193.391 396.86H186.571V395.06H193.391V396.86ZM203.102 405.22C202.062 405.22 201.182 405 200.462 404.56C199.742 404.12 199.189 403.513 198.802 402.74C198.429 401.967 198.242 401.067 198.242 400.04C198.242 399.013 198.435 398.113 198.822 397.34C199.222 396.553 199.789 395.947 200.522 395.52C201.255 395.08 202.142 394.86 203.182 394.86C204.062 394.86 204.835 395.027 205.502 395.36C206.169 395.693 206.682 396.16 207.042 396.76C207.415 397.36 207.602 398.06 207.602 398.86V399.04H205.462V398.92C205.462 398.187 205.262 397.653 204.862 397.32C204.475 396.973 203.869 396.8 203.042 396.8C202.082 396.8 201.395 397.073 200.982 397.62C200.582 398.153 200.382 398.953 200.382 400.02C200.382 401.1 200.582 401.913 200.982 402.46C201.395 402.993 202.082 403.26 203.042 403.26C203.869 403.26 204.475 403.093 204.862 402.76C205.262 402.413 205.462 401.88 205.462 401.16V401.04H207.602V401.22C207.602 401.993 207.415 402.687 207.042 403.3C206.669 403.9 206.142 404.373 205.462 404.72C204.795 405.053 204.009 405.22 203.102 405.22ZM213.886 405.2C212.872 405.2 211.992 404.987 211.246 404.56C210.499 404.12 209.926 403.513 209.526 402.74C209.126 401.953 208.926 401.047 208.926 400.02C208.926 398.993 209.126 398.093 209.526 397.32C209.926 396.547 210.499 395.947 211.246 395.52C211.992 395.08 212.872 394.86 213.886 394.86C214.899 394.86 215.766 395.08 216.486 395.52C217.219 395.947 217.779 396.547 218.166 397.32C218.566 398.093 218.766 398.993 218.766 400.02C218.766 401.047 218.566 401.953 218.166 402.74C217.779 403.513 217.219 404.12 216.486 404.56C215.766 404.987 214.899 405.2 213.886 405.2ZM213.886 403.28C214.926 403.28 215.652 403.02 216.066 402.5C216.479 401.967 216.686 401.14 216.686 400.02C216.686 398.9 216.479 398.08 216.066 397.56C215.652 397.04 214.926 396.78 213.886 396.78C212.832 396.78 212.099 397.04 211.686 397.56C211.272 398.08 211.066 398.9 211.066 400.02C211.066 401.14 211.272 401.967 211.686 402.5C212.099 403.02 212.832 403.28 213.886 403.28ZM222.56 405H220.4V391.6H222.56V405ZM226.935 405H224.775V391.6H226.935V405ZM237.375 405H235.375V403.04L235.315 402.5V398.68C235.315 397.933 235.135 397.427 234.775 397.16C234.428 396.893 233.861 396.76 233.075 396.76C232.288 396.76 231.721 396.9 231.375 397.18C231.041 397.46 230.875 397.927 230.875 398.58V398.88H228.795V398.68C228.795 397.933 228.975 397.273 229.335 396.7C229.708 396.127 230.221 395.68 230.875 395.36C231.541 395.027 232.315 394.86 233.195 394.86C234.128 394.86 234.901 395.033 235.515 395.38C236.128 395.727 236.588 396.207 236.895 396.82C237.215 397.42 237.375 398.133 237.375 398.96V405ZM231.675 405.2C230.781 405.2 230.028 404.973 229.415 404.52C228.815 404.053 228.515 403.393 228.515 402.54C228.515 401.98 228.641 401.513 228.895 401.14C229.161 400.767 229.541 400.46 230.035 400.22C230.528 399.98 231.128 399.813 231.835 399.72L235.515 399.2V400.72L232.155 401.22C231.581 401.3 231.181 401.42 230.955 401.58C230.728 401.74 230.615 402.007 230.615 402.38C230.615 402.767 230.748 403.047 231.015 403.22C231.295 403.393 231.748 403.48 232.375 403.48C232.855 403.48 233.315 403.407 233.755 403.26C234.208 403.1 234.581 402.84 234.875 402.48C235.168 402.107 235.315 401.587 235.315 400.92L235.595 403.46L235.275 403.44C235.088 403.747 234.828 404.033 234.495 404.3C234.175 404.567 233.781 404.787 233.315 404.96C232.848 405.12 232.301 405.2 231.675 405.2ZM244.863 405.2C243.996 405.2 243.283 405.04 242.723 404.72C242.163 404.387 241.756 403.933 241.503 403.36H241.103L241.223 400.92H241.603C241.603 401.467 241.703 401.92 241.903 402.28C242.116 402.64 242.423 402.913 242.823 403.1C243.236 403.273 243.729 403.36 244.303 403.36C244.783 403.36 245.189 403.3 245.523 403.18C245.869 403.06 246.156 402.873 246.383 402.62C246.609 402.353 246.769 402.007 246.863 401.58C246.969 401.14 247.023 400.62 247.023 400.02C247.023 399.407 246.969 398.887 246.863 398.46C246.769 398.033 246.609 397.693 246.383 397.44C246.169 397.187 245.889 397 245.543 396.88C245.196 396.76 244.783 396.7 244.303 396.7C243.729 396.7 243.236 396.787 242.823 396.96C242.423 397.133 242.116 397.4 241.903 397.76C241.703 398.12 241.603 398.58 241.603 399.14H241.223L241.103 396.64H241.663C241.876 396.187 242.263 395.78 242.823 395.42C243.396 395.047 244.116 394.86 244.983 394.86C246.356 394.86 247.396 395.327 248.103 396.26C248.823 397.193 249.183 398.447 249.183 400.02C249.183 401.593 248.809 402.853 248.063 403.8C247.329 404.733 246.263 405.2 244.863 405.2ZM241.423 405H239.443V391.6H241.603V402.38L241.423 402.64V405ZM255.468 405.2C254.454 405.2 253.574 404.987 252.828 404.56C252.081 404.12 251.508 403.513 251.108 402.74C250.708 401.953 250.508 401.047 250.508 400.02C250.508 398.993 250.708 398.093 251.108 397.32C251.508 396.547 252.081 395.947 252.828 395.52C253.574 395.08 254.454 394.86 255.468 394.86C256.481 394.86 257.348 395.08 258.068 395.52C258.801 395.947 259.361 396.547 259.748 397.32C260.148 398.093 260.348 398.993 260.348 400.02C260.348 401.047 260.148 401.953 259.748 402.74C259.361 403.513 258.801 404.12 258.068 404.56C257.348 404.987 256.481 405.2 255.468 405.2ZM255.468 403.28C256.508 403.28 257.234 403.02 257.648 402.5C258.061 401.967 258.268 401.14 258.268 400.02C258.268 398.9 258.061 398.08 257.648 397.56C257.234 397.04 256.508 396.78 255.468 396.78C254.414 396.78 253.681 397.04 253.268 397.56C252.854 398.08 252.648 398.9 252.648 400.02C252.648 401.14 252.854 401.967 253.268 402.5C253.681 403.02 254.414 403.28 255.468 403.28ZM264.122 405H261.962V395H263.942V397.78L264.122 397.88V405ZM264.122 398.52H263.622V396.58H264.042C264.242 396.113 264.569 395.713 265.022 395.38C265.489 395.033 266.089 394.86 266.822 394.86C267.529 394.86 268.089 395.013 268.502 395.32C268.929 395.627 269.236 396.033 269.422 396.54C269.609 397.047 269.702 397.613 269.702 398.24V398.9H267.542V398.5C267.542 397.833 267.429 397.367 267.202 397.1C266.976 396.833 266.549 396.7 265.922 396.7C265.269 396.7 264.802 396.84 264.522 397.12C264.256 397.387 264.122 397.853 264.122 398.52ZM279.269 405H277.269V403.04L277.209 402.5V398.68C277.209 397.933 277.029 397.427 276.669 397.16C276.322 396.893 275.756 396.76 274.969 396.76C274.182 396.76 273.616 396.9 273.269 397.18C272.936 397.46 272.769 397.927 272.769 398.58V398.88H270.689V398.68C270.689 397.933 270.869 397.273 271.229 396.7C271.602 396.127 272.116 395.68 272.769 395.36C273.436 395.027 274.209 394.86 275.089 394.86C276.022 394.86 276.796 395.033 277.409 395.38C278.022 395.727 278.482 396.207 278.789 396.82C279.109 397.42 279.269 398.133 279.269 398.96V405ZM273.569 405.2C272.676 405.2 271.922 404.973 271.309 404.52C270.709 404.053 270.409 403.393 270.409 402.54C270.409 401.98 270.536 401.513 270.789 401.14C271.056 400.767 271.436 400.46 271.929 400.22C272.422 399.98 273.022 399.813 273.729 399.72L277.409 399.2V400.72L274.049 401.22C273.476 401.3 273.076 401.42 272.849 401.58C272.622 401.74 272.509 402.007 272.509 402.38C272.509 402.767 272.642 403.047 272.909 403.22C273.189 403.393 273.642 403.48 274.269 403.48C274.749 403.48 275.209 403.407 275.649 403.26C276.102 403.1 276.476 402.84 276.769 402.48C277.062 402.107 277.209 401.587 277.209 400.92L277.489 403.46L277.169 403.44C276.982 403.747 276.722 404.033 276.389 404.3C276.069 404.567 275.676 404.787 275.209 404.96C274.742 405.12 274.196 405.2 273.569 405.2ZM285.38 405C284.287 405 283.447 404.767 282.86 404.3C282.287 403.833 282 403.047 282 401.94V395.28L282.5 392.6H284.16V401.84C284.16 402.36 284.287 402.693 284.54 402.84C284.807 402.973 285.28 403.04 285.96 403.04H287.16V404.82C286.96 404.873 286.7 404.92 286.38 404.96C286.06 404.987 285.727 405 285.38 405ZM287.16 396.86H280.34V395.06H287.16V396.86ZM290.584 393.8H288.444L288.424 391.6H290.584V393.8ZM290.604 405H288.444V395H290.604V405ZM297.05 405.2C296.036 405.2 295.156 404.987 294.41 404.56C293.663 404.12 293.09 403.513 292.69 402.74C292.29 401.953 292.09 401.047 292.09 400.02C292.09 398.993 292.29 398.093 292.69 397.32C293.09 396.547 293.663 395.947 294.41 395.52C295.156 395.08 296.036 394.86 297.05 394.86C298.063 394.86 298.93 395.08 299.65 395.52C300.383 395.947 300.943 396.547 301.33 397.32C301.73 398.093 301.93 398.993 301.93 400.02C301.93 401.047 301.73 401.953 301.33 402.74C300.943 403.513 300.383 404.12 299.65 404.56C298.93 404.987 298.063 405.2 297.05 405.2ZM297.05 403.28C298.09 403.28 298.816 403.02 299.23 402.5C299.643 401.967 299.85 401.14 299.85 400.02C299.85 398.9 299.643 398.08 299.23 397.56C298.816 397.04 298.09 396.78 297.05 396.78C295.996 396.78 295.263 397.04 294.85 397.56C294.436 398.08 294.23 398.9 294.23 400.02C294.23 401.14 294.436 401.967 294.85 402.5C295.263 403.02 295.996 403.28 297.05 403.28ZM312.804 405H310.644V399.22C310.644 398.34 310.478 397.707 310.144 397.32C309.811 396.92 309.184 396.72 308.264 396.72C307.678 396.72 307.198 396.807 306.824 396.98C306.451 397.14 306.171 397.407 305.984 397.78C305.798 398.14 305.704 398.633 305.704 399.26H305.324L305.144 396.92H305.624C305.771 396.56 305.991 396.227 306.284 395.92C306.578 395.613 306.951 395.36 307.404 395.16C307.871 394.96 308.424 394.86 309.064 394.86C309.931 394.86 310.638 395.027 311.184 395.36C311.731 395.693 312.138 396.153 312.404 396.74C312.671 397.327 312.804 398 312.804 398.76V405ZM305.704 405H303.544V395.06H305.524V398.04L305.704 398.14V405ZM317.173 405H314.433V401.9H317.173V405Z" fill="white"/>
</svg>
