<svg xmlns="http://www.w3.org/2000/svg" width="198" height="198" viewBox="0 0 198 198" fill="none">
  <path d="M198 151.429H0V151.528H198V151.429Z" fill="#E0E0E0"/>
  <path d="M149.556 155.624H135.932V155.723H149.556V155.624Z" fill="#E0E0E0"/>
  <path d="M43.9728 155.673H36.3066V155.772H43.9728V155.673Z" fill="#E0E0E0"/>
  <path d="M99.3961 155.441H83.8574V155.54H99.3961V155.441Z" fill="#E0E0E0"/>
  <path d="M83.4619 154.033H76.5156V154.132H83.4619V154.033Z" fill="#E0E0E0"/>
  <path d="M168.125 154.082H147.143V154.181H168.125V154.082Z" fill="#E0E0E0"/>
  <path d="M93.8584 133.769H17.3912C16.145 133.769 15.1309 132.754 15.1309 131.508V24.0211C15.1309 22.7749 16.145 21.7607 17.3912 21.7607H93.8584C95.1042 21.7607 96.1184 22.7749 96.1184 24.0211V131.508C96.1184 132.754 95.1042 133.769 93.8584 133.769ZM17.3912 21.8601C16.1993 21.8601 15.2299 22.8295 15.2299 24.0215V131.509C15.2299 132.701 16.1993 133.67 17.3912 133.67H93.8584C95.05 133.67 96.0194 132.701 96.0194 131.509V24.0211C96.0194 22.8295 95.05 21.8597 93.8584 21.8597L17.3912 21.8601Z" fill="#E0E0E0"/>
  <path d="M179.51 133.769H103.043C101.797 133.769 100.783 132.754 100.783 131.508V24.0211C100.783 22.7749 101.797 21.7607 103.043 21.7607H179.51C180.757 21.7607 181.77 22.7749 181.77 24.0211V131.508C181.771 132.754 180.757 133.769 179.51 133.769ZM103.043 21.8601C101.852 21.8601 100.882 22.8295 100.882 24.0215V131.509C100.882 132.701 101.852 133.67 103.043 133.67H179.51C180.702 133.67 181.671 132.701 181.671 131.509V24.0211C181.671 22.8295 180.702 21.8597 179.51 21.8597L103.043 21.8601Z" fill="#E0E0E0"/>
  <path d="M173.966 101.573C169.093 94.1571 173.543 86.1832 172.801 77.9337C172.059 69.6843 164.22 67.8833 165.703 60.8911C167.423 52.7838 162.843 45 157.652 45C152.46 45 147.88 52.7838 149.6 60.8911C151.083 67.8833 143.243 69.6843 142.502 77.9337C141.76 86.1832 146.21 94.1567 141.336 101.573C136.463 108.989 137.742 118.812 140.489 123.687C141.246 125.03 142.136 126.219 143.108 127.271C150.901 135.711 164.402 135.711 172.196 127.271C173.167 126.219 174.058 125.03 174.815 123.687C177.561 118.812 178.84 108.989 173.966 101.573Z" fill="#F5F5F5"/>
  <path d="M160.114 151.14H155.188V109.665C155.188 108.311 156.296 107.202 157.651 107.202C159.005 107.202 160.114 108.311 160.114 109.665V151.14Z" fill="#F0F0F0"/>
  <path d="M126.683 151.429H119.977V109.958C119.977 108.113 121.486 106.604 123.33 106.604C125.174 106.604 126.683 108.114 126.683 109.958V151.429Z" fill="#E0E0E0"/>
  <path d="M123.33 140.242C134.74 140.242 143.989 130.993 143.989 119.583C143.989 108.174 134.74 98.9248 123.33 98.9248C111.921 98.9248 102.672 108.174 102.672 119.583C102.672 130.993 111.921 140.242 123.33 140.242Z" fill="#F0F0F0"/>
  <path d="M147.606 113.39C148.69 109.026 146.032 104.61 141.668 103.526C137.305 102.442 132.889 105.1 131.805 109.464C130.721 113.827 133.379 118.244 137.743 119.328C142.106 120.412 146.522 117.753 147.606 113.39Z" fill="#F0F0F0"/>
  <path d="M111.385 107.379C111.813 104.751 110.029 102.274 107.402 101.846C104.774 101.418 102.297 103.201 101.869 105.828C101.441 108.456 103.224 110.933 105.852 111.361C108.479 111.789 110.956 110.006 111.385 107.379Z" fill="#F0F0F0"/>
  <path d="M111.863 107.492C113.732 107.492 115.247 105.977 115.247 104.109C115.247 102.24 113.732 100.726 111.863 100.726C109.995 100.726 108.48 102.24 108.48 104.109C108.48 105.977 109.995 107.492 111.863 107.492Z" fill="#F0F0F0"/>
  <path d="M80.7715 126.677C77.3319 127.188 74.3504 128.435 71.776 130.109C71.7514 126.975 71.1776 123.998 69.7045 121.594C67.462 123.779 65.6455 126.606 64.1783 129.646C63.6287 123.93 62.1282 118.393 58.8054 114.893C53.8269 118.025 51.2608 123.244 50.0403 128.772C48.0568 125.23 45.32 121.96 41.541 119.583C38.495 122.792 37.5224 127.228 37.6032 131.771C34.1429 127.742 30.2997 124.597 26.554 124.228C25.6317 130.609 27.5958 136.626 30.0918 141.37C33.366 147.592 39.8794 151.43 46.9107 151.43H63.1804C70.1148 151.43 76.6159 147.73 79.8694 141.606C81.9298 137.728 82.9099 132.733 80.7715 126.677Z" fill="#F5F5F5"/>
  <path d="M76.1325 44.4066C78.143 38.5176 76.5472 34.3252 71.6324 34.3252C68.5503 34.3252 64.7285 35.9753 61.0069 38.6622C60.5864 37.1305 59.4023 36.2125 57.4972 36.2125C54.1447 36.2125 49.5233 39.0487 45.8979 43.0503C45.0208 42.1581 43.7512 41.6116 42.1201 41.5237C38.9117 41.3431 35.0254 42.9726 31.6467 45.6235C31.3541 45.1799 30.8523 44.9016 30.1597 44.8604C28.3108 44.7574 25.8081 46.4024 24.5646 48.5321C24.487 48.6663 24.4185 48.795 24.3496 48.9241H28.19H31.2456H41.8595H47.0828H51.1442H57.3998H58.5351H74.0528H77.1083C77.2663 47.0673 76.938 45.515 76.1325 44.4066Z" fill="#F0F0F0"/>
  <path d="M76.2961 80.1629C77.2781 77.2864 76.4984 75.2383 74.0979 75.2383C72.5923 75.2383 70.7255 76.0445 68.9079 77.3569C68.7028 76.6088 68.1242 76.1606 67.1936 76.1606C65.5557 76.1606 63.2985 77.5458 61.5276 79.5008C61.0992 79.0652 60.479 78.7979 59.6823 78.7552C58.1149 78.6668 56.2169 79.4632 54.5663 80.7577C54.4234 80.5411 54.1783 80.4049 53.8401 80.3851C52.9368 80.3348 51.7144 81.1383 51.1069 82.1786C51.0689 82.2439 51.0356 82.3069 51.002 82.3702H52.8778H54.3703H59.5552H62.1066H64.0905H67.1465H67.7009H75.2807H76.7732C76.8497 81.4626 76.6893 80.7043 76.2961 80.1629Z" fill="#F0F0F0"/>
  <path d="M135.734 58.4071C135.534 58.3778 135.33 58.3628 135.123 58.3628C135.313 55.4894 134.214 53.6547 131.868 53.6547C130.175 53.6547 128.098 54.6127 125.981 56.2335C126.586 50.6562 124.646 47.0312 120.254 47.0312C116.71 47.0312 112.224 49.389 107.793 53.235C107.405 51.0467 106.099 49.7351 103.905 49.7351C100.051 49.7351 94.5754 53.7874 90.1846 59.5049C90.1846 59.5049 90.183 59.5124 90.179 59.5049C89.2306 58.2301 87.805 57.4417 85.9315 57.3166C82.2622 57.0588 77.7058 59.3868 73.6662 63.1813C73.3589 62.5402 72.7994 62.1426 71.9991 62.0907C69.9925 61.9506 67.2273 64.043 65.6211 66.8431H70.3022H73.4758H85.6797H91.3952H96.4845H103.713H117.37H122.694H124.588H132.165H138.964C140.686 62.5996 139.314 58.8863 135.734 58.4071Z" fill="#F0F0F0"/>
  <path d="M99.0008 169.314C141.405 169.314 175.781 167.306 175.781 164.83C175.781 162.354 141.405 160.346 99.0008 160.346C56.5963 160.346 22.2207 162.354 22.2207 164.83C22.2207 167.306 56.5963 169.314 99.0008 169.314Z" fill="#F5F5F5"/>
  <path d="M19.3477 59.623L109.624 72.6178L121.74 84.8443L19.3477 59.623Z" fill="#66805D"/>
  <path opacity="0.6" d="M19.3477 59.623L109.624 72.6178L121.74 84.8443L19.3477 59.623Z" fill="white"/>
  <path d="M19.3477 59.623L109.624 72.6178L105.435 90.2972L19.3477 59.623Z" fill="#66805D"/>
  <path opacity="0.2" d="M19.3477 59.623L109.624 72.6178L105.435 90.2972L19.3477 59.623Z" fill="black"/>
  <path d="M103.58 39.156L108.822 63.7187C109.106 65.0488 108.25 66.3695 106.92 66.6534L60.1607 76.6322C58.8305 76.9162 57.5098 76.06 57.2259 74.7298L51.9841 50.1672C51.8356 49.4718 51.9991 48.7772 52.3785 48.2327C52.7262 47.7393 53.2517 47.3678 53.8864 47.2324L100.646 37.2536C101.281 37.1182 101.912 37.2425 102.431 37.551C102.999 37.8931 103.432 38.4606 103.58 39.156Z" fill="#66805D"/>
  <path opacity="0.4" d="M103.58 39.156L108.822 63.7187C109.106 65.0488 108.25 66.3695 106.92 66.6534L60.1607 76.6322C58.8305 76.9162 57.5098 76.06 57.2259 74.7298L51.9841 50.1672C51.8356 49.4718 51.9991 48.7772 52.3785 48.2327C52.7262 47.7393 53.2517 47.3678 53.8864 47.2324L100.646 37.2536C101.281 37.1182 101.912 37.2425 102.431 37.551C102.999 37.8931 103.432 38.4606 103.58 39.156Z" fill="black"/>
  <path d="M102.432 37.5503L86.8067 56.7294C83.8229 60.3924 78.6911 61.4873 74.4718 59.3616L52.3789 48.2316C52.7266 47.7382 53.2521 47.3668 53.8869 47.2313L100.646 37.2525C101.282 37.1171 101.913 37.2419 102.432 37.5503Z" fill="#66805D"/>
  <path d="M19.3477 59.623L93.8087 77.3183L105.435 90.2972L19.3477 59.623Z" fill="#66805D"/>
  <path opacity="0.6" d="M19.3477 59.623L93.8087 77.3183L105.435 90.2972L19.3477 59.623Z" fill="white"/>
  <path d="M46.507 76.6863L46.3066 77.0283L54.5911 81.882L54.7915 81.54L46.507 76.6863Z" fill="#66805D"/>
  <path d="M58.4523 83.6824L58.252 84.0244L61.2323 85.7706L61.4327 85.4286L58.4523 83.6824Z" fill="#66805D"/>
  <path d="M19.3477 59.623L93.8087 77.3183L79.3353 94.7645L19.3477 59.623Z" fill="#66805D"/>
  <path d="M118.942 101.084C118.846 101.084 118.747 101.066 118.651 101.028L106.52 96.2252C106.113 96.0644 105.914 95.6043 106.075 95.1972C106.236 94.7909 106.694 94.5905 107.103 94.7525L119.235 99.5552C119.641 99.7159 119.84 100.176 119.679 100.583C119.556 100.894 119.258 101.084 118.942 101.084Z" fill="#66805D"/>
  <path opacity="0.3" d="M118.942 101.084C118.846 101.084 118.747 101.066 118.651 101.028L106.52 96.2252C106.113 96.0644 105.914 95.6043 106.075 95.1972C106.236 94.7909 106.694 94.5905 107.103 94.7525L119.235 99.5552C119.641 99.7159 119.84 100.176 119.679 100.583C119.556 100.894 119.258 101.084 118.942 101.084Z" fill="black"/>
  <path d="M118.229 94.1272C118.132 94.1272 118.033 94.1094 117.937 94.0713L111.422 91.4918C111.016 91.331 110.817 90.8709 110.978 90.4638C111.138 90.0575 111.597 89.8571 112.006 90.0191L118.521 92.5986C118.927 92.7594 119.127 93.2195 118.965 93.6266C118.842 93.9375 118.544 94.1272 118.229 94.1272Z" fill="#66805D"/>
  <path opacity="0.5" d="M118.229 94.1272C118.132 94.1272 118.033 94.1094 117.937 94.0713L111.422 91.4918C111.016 91.331 110.817 90.8709 110.978 90.4638C111.138 90.0575 111.597 89.8571 112.006 90.0191L118.521 92.5986C118.927 92.7594 119.127 93.2195 118.965 93.6266C118.842 93.9375 118.544 94.1272 118.229 94.1272Z" fill="white"/>
  <path d="M104.608 100.963C104.511 100.963 104.413 100.945 104.317 100.907L92.4889 96.2239C92.0822 96.0632 91.883 95.6026 92.0442 95.1959C92.205 94.7892 92.6647 94.59 93.0722 94.7512L104.9 99.4343C105.307 99.5951 105.506 100.055 105.345 100.462C105.222 100.774 104.924 100.963 104.608 100.963Z" fill="#66805D"/>
  <path opacity="0.3" d="M104.608 100.963C104.511 100.963 104.413 100.945 104.317 100.907L92.4889 96.2239C92.0822 96.0632 91.883 95.6026 92.0442 95.1959C92.205 94.7892 92.6647 94.59 93.0722 94.7512L104.9 99.4343C105.307 99.5951 105.506 100.055 105.345 100.462C105.222 100.774 104.924 100.963 104.608 100.963Z" fill="black"/>
  <path d="M147.431 65.2695C148.479 67.3184 149.442 69.3677 150.356 71.4685C151.263 73.5693 152.125 75.6919 152.866 77.9198L153.137 78.7644C153.183 78.9145 153.253 79.1612 153.29 79.3366C153.327 79.5196 153.367 79.7085 153.388 79.876C153.493 80.5658 153.511 81.1891 153.523 81.8021C153.543 83.0234 153.46 84.188 153.359 85.3463C153.137 87.6594 152.776 89.9098 152.28 92.1666L150.109 91.9259C150.081 89.6952 150.06 87.4428 149.983 85.2454C149.944 84.1488 149.881 83.0547 149.77 82.0231C149.714 81.5107 149.631 81.0082 149.535 80.5876C149.512 80.4763 149.483 80.3916 149.457 80.2997C149.426 80.2015 149.412 80.1785 149.37 80.0609L149.071 79.3121C148.244 77.3083 147.312 75.2867 146.363 73.2755L143.488 67.2432L147.431 65.2695Z" fill="#CFD5CD"/>
  <path d="M150.141 91.2461L149.127 93.1421L152.365 94.0454C152.365 94.0454 152.981 92.52 152.247 91.3174L150.141 91.2461Z" fill="#CFD5CD"/>
  <path d="M147.887 95.8762L150.864 96.1114L152.366 94.0463L149.128 93.1426L147.887 95.8762Z" fill="#CFD5CD"/>
  <path d="M133.798 51.5847C133.751 51.8148 133.591 51.9763 133.441 51.9459C133.29 51.9154 133.206 51.7043 133.253 51.4742C133.3 51.2441 133.459 51.0826 133.61 51.1131C133.76 51.144 133.844 51.355 133.798 51.5847Z" fill="#263238"/>
  <path d="M133.613 51.9805C133.613 51.9805 132.821 53.2009 132.115 53.7237C132.445 54.1862 133.172 54.1533 133.172 54.1533L133.613 51.9805Z" fill="#66805D"/>
  <path d="M134.9 50.4788C134.863 50.4788 134.826 50.4638 134.799 50.4345C134.386 49.9878 133.896 50.0606 133.875 50.063C133.802 50.0761 133.729 50.0246 133.717 49.9494C133.704 49.8745 133.755 49.8036 133.829 49.791C133.855 49.7862 134.483 49.6868 135.001 50.2468C135.053 50.3026 135.049 50.3897 134.993 50.4416C134.967 50.4665 134.934 50.4788 134.9 50.4788Z" fill="#263238"/>
  <path d="M140.348 54.8193C139.931 56.9474 139.515 60.8472 141.004 62.2673C141.004 62.2673 140.422 64.4263 136.467 64.4263C132.119 64.4263 134.389 62.2677 134.389 62.2677C136.762 61.701 136.701 59.94 136.288 58.2867L140.348 54.8193Z" fill="#CFD5CD"/>
  <path d="M141.6 63.6114C141.914 62.5683 142.26 61.3748 141.545 61.0009C140.758 60.5895 136.452 60.1701 134.967 60.9423C133.482 61.7145 133.903 63.83 133.903 63.83L141.6 63.6114Z" fill="#263238"/>
  <path d="M150.735 162.369C150.437 162.369 150.149 162.323 150.036 162.176C149.989 162.115 149.951 162.008 150.039 161.849C150.084 161.766 150.158 161.712 150.255 161.689C150.682 161.591 151.483 162.14 151.518 162.163C151.54 162.178 151.551 162.205 151.546 162.232C151.541 162.259 151.521 162.28 151.495 162.287C151.345 162.322 151.035 162.369 150.735 162.369ZM150.371 161.814C150.341 161.814 150.313 161.817 150.287 161.823C150.228 161.837 150.186 161.867 150.16 161.916C150.097 162.029 150.134 162.077 150.146 162.093C150.271 162.256 150.865 162.258 151.299 162.185C151.049 162.031 150.636 161.814 150.371 161.814Z" fill="#66805D"/>
  <path d="M151.478 162.288C151.467 162.288 151.456 162.285 151.445 162.279C151.144 162.116 150.562 161.479 150.624 161.154C150.635 161.096 150.678 160.994 150.843 160.973C150.948 160.961 151.049 160.99 151.136 161.062C151.475 161.338 151.544 162.178 151.547 162.213C151.549 162.238 151.537 162.263 151.516 162.276C151.504 162.284 151.491 162.288 151.478 162.288ZM150.891 161.109C150.881 161.109 150.87 161.109 150.86 161.111C150.77 161.121 150.762 161.163 150.759 161.18C150.723 161.372 151.093 161.854 151.393 162.081C151.359 161.835 151.266 161.346 151.049 161.169C150.999 161.129 150.948 161.109 150.891 161.109Z" fill="#66805D"/>
  <path d="M133.265 162.369C132.892 162.369 132.532 162.317 132.411 162.149C132.369 162.091 132.336 161.99 132.417 161.848C132.462 161.768 132.536 161.714 132.636 161.687C133.117 161.558 134.137 162.135 134.179 162.159C134.204 162.173 134.218 162.201 134.213 162.23C134.208 162.258 134.187 162.281 134.158 162.287C133.973 162.323 133.614 162.369 133.265 162.369ZM132.805 161.804C132.756 161.804 132.711 161.809 132.671 161.82C132.608 161.837 132.564 161.868 132.536 161.916C132.487 162.002 132.505 162.044 132.523 162.068C132.654 162.25 133.389 162.26 133.934 162.184C133.665 162.046 133.145 161.804 132.805 161.804Z" fill="#66805D"/>
  <path d="M134.146 162.288C134.136 162.288 134.126 162.286 134.117 162.282C133.767 162.125 133.071 161.496 133.124 161.166C133.137 161.089 133.191 160.993 133.381 160.974C133.521 160.96 133.65 160.999 133.763 161.092C134.133 161.396 134.211 162.179 134.214 162.212C134.216 162.237 134.206 162.261 134.186 162.275C134.174 162.284 134.16 162.288 134.146 162.288ZM133.436 161.109C133.423 161.109 133.409 161.11 133.394 161.111C133.27 161.123 133.263 161.172 133.26 161.188C133.228 161.386 133.7 161.88 134.059 162.095C134.022 161.867 133.918 161.398 133.675 161.198C133.602 161.138 133.523 161.109 133.436 161.109Z" fill="#66805D"/>
  <path d="M137.343 162.219H134.434L134.145 155.482H137.054L137.343 162.219Z" fill="#CFD5CD"/>
  <path d="M154.811 162.219H151.901L150.439 155.482H153.348L154.811 162.219Z" fill="#CFD5CD"/>
  <path d="M151.695 161.882H154.964C155.082 161.882 155.185 161.965 155.211 162.081L155.786 164.667C155.846 164.935 155.635 165.189 155.36 165.184C154.219 165.165 153.665 165.097 152.227 165.097C151.343 165.097 149.521 165.189 148.3 165.189C147.106 165.189 146.92 163.982 147.419 163.873C149.661 163.382 150.505 162.706 151.223 162.061C151.352 161.945 151.522 161.882 151.695 161.882Z" fill="#263238"/>
  <path d="M134.453 161.882H137.631C137.749 161.882 137.852 161.965 137.878 162.081L138.453 164.667C138.512 164.935 138.309 165.189 138.034 165.185C136.888 165.165 135.232 165.098 133.792 165.098C132.108 165.098 130.653 165.19 128.678 165.19C127.484 165.19 127.152 163.982 127.652 163.873C129.928 163.375 131.786 163.322 133.753 162.109C133.966 161.977 134.202 161.882 134.453 161.882Z" fill="#263238"/>
  <path d="M133.049 67.3775C130.583 67.1847 128.211 66.8655 125.8 66.4137C124.6 66.1832 123.397 65.9254 122.195 65.6019C120.991 65.2791 119.785 64.9132 118.566 64.4043C118.262 64.2792 117.954 64.1386 117.647 63.9925C117.262 63.802 116.941 63.604 116.659 63.4163C116.087 63.0385 115.598 62.6489 115.11 62.2604C114.142 61.4846 113.24 60.6784 112.35 59.8634C110.58 58.2256 108.899 56.5303 107.281 54.7467L108.738 53.1191L114.484 57.2482C115.432 57.9321 116.389 58.5998 117.331 59.2298C117.8 59.5415 118.28 59.8373 118.716 60.0836C118.938 60.2091 119.134 60.303 119.286 60.3632C119.522 60.4554 119.76 60.5465 120.011 60.6301C122.022 61.3009 124.296 61.7317 126.555 62.0957C128.817 62.4537 131.153 62.7483 133.41 62.9823L133.049 67.3775Z" fill="#CFD5CD"/>
  <path d="M146.212 62.9249C148.938 63.5502 151.695 71.5221 151.695 71.5221L146.083 75.5478C146.083 75.5478 144.515 71.8349 142.973 68.5877C141.356 65.1853 143.424 62.2858 146.212 62.9249Z" fill="#66805D"/>
  <path opacity="0.4" d="M146.212 62.9249C148.938 63.5502 151.695 71.5221 151.695 71.5221L146.083 75.5478C146.083 75.5478 144.515 71.8349 142.973 68.5877C141.356 65.1853 143.424 62.2858 146.212 62.9249Z" fill="black"/>
  <path d="M144.64 67.2803L143.527 69.7711C144.68 72.258 145.733 74.7211 146.014 75.3785C145.975 72.4362 145.416 68.7851 144.64 67.2803Z" fill="#66805D"/>
  <path opacity="0.6" d="M144.64 67.2803L143.527 69.7711C144.68 72.258 145.733 74.7211 146.014 75.3785C145.975 72.4362 145.416 68.7851 144.64 67.2803Z" fill="black"/>
  <path d="M129.915 63.0748C129.915 63.0748 126.819 66.5722 129.743 88.2196C134.431 88.2196 143.021 88.2196 145.303 88.2196C145.41 85.8309 143.909 74.179 146.213 62.9247C146.213 62.9247 143.546 62.3893 141.004 62.2669C139.015 62.1711 136.137 62.1077 134.389 62.2673C132.085 62.4776 129.915 63.0748 129.915 63.0748Z" fill="#66805D"/>
  <path opacity="0.4" d="M129.915 63.0748C129.915 63.0748 126.819 66.5722 129.743 88.2196C134.431 88.2196 143.021 88.2196 145.303 88.2196C145.41 85.8309 143.909 74.179 146.213 62.9247C146.213 62.9247 143.546 62.3893 141.004 62.2669C139.015 62.1711 136.137 62.1077 134.389 62.2673C132.085 62.4776 129.915 63.0748 129.915 63.0748Z" fill="black"/>
  <path d="M128.763 67.2803C128.66 68.1 128.581 69.0702 128.529 70.2146C129.816 69.8147 131.416 69.1732 132.862 68.1792L128.763 67.2803Z" fill="#66805D"/>
  <path opacity="0.6" d="M128.763 67.2803C128.66 68.1 128.581 69.0702 128.529 70.2146C129.816 69.8147 131.416 69.1732 132.862 68.1792L128.763 67.2803Z" fill="black"/>
  <path d="M135.419 67.7047C133.338 69.5492 125.385 69.3647 125.385 69.3647L125.123 61.6768C125.123 61.6768 129.632 62.3377 133.229 62.2644C137.673 62.1745 137.704 65.6803 135.419 67.7047Z" fill="#66805D"/>
  <path opacity="0.4" d="M135.419 67.7047C133.338 69.5492 125.385 69.3647 125.385 69.3647L125.123 61.6768C125.123 61.6768 129.632 62.3377 133.229 62.2644C137.673 62.1745 137.704 65.6803 135.419 67.7047Z" fill="black"/>
  <path d="M108.808 53.1584L106.811 50.8271L104.68 53.1881C104.68 53.1881 105.992 55.3958 108.082 55.0473L108.808 53.1584Z" fill="#CFD5CD"/>
  <path d="M103.993 48.1084L103.225 51.1505L104.68 53.1887L106.812 50.8273L103.993 48.1084Z" fill="#CFD5CD"/>
  <path d="M134.146 155.484L134.295 158.956H137.206L137.057 155.484H134.146Z" fill="#CE6F64"/>
  <path d="M153.35 155.484H150.439L151.195 158.956H154.105L153.35 155.484Z" fill="#CE6F64"/>
  <path d="M135.898 48.6931C133.288 47.4873 132.463 42.2236 139.971 43.5273C139.971 43.5273 138.839 44.7814 141.138 45.5734C143.436 46.365 141.512 51.2877 135.898 48.6931Z" fill="#263238"/>
  <path d="M141.566 52.6562C140.819 55.4448 140.523 57.1151 138.802 58.275C136.213 60.0194 132.99 58.0176 132.889 55.0615C132.799 52.4007 134.036 48.2871 137.029 47.7252C139.977 47.1716 142.314 49.8675 141.566 52.6562Z" fill="#CFD5CD"/>
  <path d="M139.869 44.9442C141.645 45.9378 144.053 46.5302 143.812 47.9388C143.516 49.6606 145.268 48.5835 144.86 51.1488C144.593 52.8238 141.504 57.8998 139.329 57.6519C136.059 57.2792 136.474 52.2853 136.463 49.661C136.456 48.1142 136.384 42.9955 139.869 44.9442Z" fill="#263238"/>
  <path d="M136.07 47.168C135.278 47.3549 134.228 51.92 137.296 52.3381C140.827 52.8193 136.07 47.168 136.07 47.168Z" fill="#263238"/>
  <path d="M136.15 48.7889C135.18 48.8745 132.991 47.7063 133.252 45.9492C133.252 45.9492 134.647 48.0053 136.15 48.7889Z" fill="#263238"/>
  <path d="M137.589 52.7033C137.285 53.3959 136.71 53.9408 136.154 54.2307C135.317 54.6663 134.847 54.0291 135.036 53.192C135.206 52.4384 135.847 51.3035 136.708 51.2104C137.556 51.1185 137.936 51.9113 137.589 52.7033Z" fill="#CFD5CD"/>
  <path d="M141.945 49.4804C142.533 49.1814 143.871 48.5035 144.236 46.5801C144.236 46.5801 145.543 50.2292 141.945 49.4804Z" fill="#263238"/>
  <path d="M145.251 49.4413C144.957 49.2694 144.291 48.8778 143.355 49.2544C143.355 49.2544 144.575 47.6723 145.251 49.4413Z" fill="#263238"/>
  <path d="M135.262 88.2197C135.262 88.2197 138.563 110.452 140.376 118.781C142.36 127.902 149.838 158.284 149.838 158.284H155.166C155.166 158.284 150.236 128.638 149.103 119.608C147.874 109.807 145.302 88.2197 145.302 88.2197H135.262Z" fill="#66805D"/>
  <path opacity="0.5" d="M135.262 88.2197C135.262 88.2197 138.563 110.452 140.376 118.781C142.36 127.902 149.838 158.284 149.838 158.284H155.166C155.166 158.284 150.236 128.638 149.103 119.608C147.874 109.807 145.302 88.2197 145.302 88.2197H135.262Z" fill="white"/>
  <path d="M148.987 156.321C148.964 156.321 149.537 158.367 149.537 158.367H155.532L155.422 156.541L148.987 156.321Z" fill="#66805D"/>
  <path opacity="0.1" d="M148.987 156.321C148.964 156.321 149.537 158.367 149.537 158.367H155.532L155.422 156.541L148.987 156.321Z" fill="black"/>
  <path d="M137.35 96.1411C141.167 96.8895 140.763 111.126 140.304 118.448C139.203 113.272 137.591 103.313 136.49 96.244C136.744 96.1173 137.029 96.0777 137.35 96.1411Z" fill="#66805D"/>
  <path opacity="0.4" d="M137.35 96.1411C141.167 96.8895 140.763 111.126 140.304 118.448C139.203 113.272 137.591 103.313 136.49 96.244C136.744 96.1173 137.029 96.0777 137.35 96.1411Z" fill="white"/>
  <path d="M129.743 88.2197C129.743 88.2197 129.342 109.971 129.659 118.842C129.988 128.07 133.211 158.284 133.211 158.284H138.139C138.139 158.284 138.32 128.609 138.539 119.547C138.778 109.667 139.971 88.2201 139.971 88.2201H129.743V88.2197Z" fill="#66805D"/>
  <path opacity="0.5" d="M129.743 88.2197C129.743 88.2197 129.342 109.971 129.659 118.842C129.988 128.07 133.211 158.284 133.211 158.284H138.139C138.139 158.284 138.32 128.609 138.539 119.547C138.778 109.667 139.971 88.2201 139.971 88.2201H129.743V88.2197Z" fill="white"/>
  <path d="M134.237 154.744C134.212 154.744 134.19 154.725 134.188 154.7C133.319 146.338 131.271 126.103 131.011 118.844C130.747 111.435 130.987 94.8112 131.067 89.8925C131.068 89.8655 131.09 89.8438 131.117 89.8438H131.117C131.145 89.8441 131.167 89.8667 131.166 89.894C131.086 94.812 130.846 111.434 131.11 118.84C131.369 126.097 133.417 146.328 134.286 154.69C134.289 154.716 134.269 154.741 134.242 154.744C134.24 154.744 134.238 154.744 134.237 154.744Z" fill="#66805D"/>
  <path opacity="0.4" d="M134.237 154.744C134.212 154.744 134.19 154.725 134.188 154.7C133.319 146.338 131.271 126.103 131.011 118.844C130.747 111.435 130.987 94.8112 131.067 89.8925C131.068 89.8655 131.09 89.8438 131.117 89.8438H131.117C131.145 89.8441 131.167 89.8667 131.166 89.894C131.086 94.812 130.846 111.434 131.11 118.84C131.369 126.097 133.417 146.328 134.286 154.69C134.289 154.716 134.269 154.741 134.242 154.744C134.24 154.744 134.238 154.744 134.237 154.744Z" fill="white"/>
  <path d="M132.263 156.321C132.24 156.321 132.541 158.367 132.541 158.367H138.536L138.698 156.541L132.263 156.321Z" fill="#66805D"/>
  <path opacity="0.1" d="M132.263 156.321C132.24 156.321 132.541 158.367 132.541 158.367H138.536L138.698 156.541L132.263 156.321Z" fill="black"/>
</svg>