<svg width="28" height="31" viewBox="0 0 28 31" fill="none" xmlns="http://www.w3.org/2000/svg">
<path d="M22.4154 4.58373C21.8317 4.24616 21.1016 4.66731 21.1016 5.34152V11.1977C21.1016 11.5102 21.2682 11.799 21.5387 11.9555L26.5987 14.8822C27.1823 15.2198 27.9124 14.7986 27.9124 14.1244V8.26822C27.9124 7.95571 27.7458 7.6669 27.4753 7.51043L22.4154 4.58373Z" fill="white"/>
<path d="M21.5409 19.3283C21.2701 19.4849 20.9362 19.4851 20.6651 19.3288L15.5878 16.3995C15.0041 16.0628 14.2749 16.484 14.2749 17.1578V29.883C14.2749 30.557 15.0046 30.9781 15.5882 30.641L27.4764 23.7736C27.7472 23.6172 27.9139 23.3283 27.9139 23.0156V17.1597C27.9139 16.4855 27.1838 16.0644 26.6002 16.4019L21.5409 19.3283Z" fill="white"/>
<path d="M6.1773 26.7004C6.76091 27.038 7.49103 26.6168 7.49103 25.9426V20.0864C7.49103 19.7739 7.32444 19.4851 7.05392 19.3286L1.99399 16.4019C1.41038 16.0644 0.680256 16.4855 0.680256 17.1597V23.0159C0.680256 23.3284 0.846849 23.6172 1.11737 23.7737L6.1773 26.7004Z" fill="white"/>
<path d="M7.05174 11.9559C7.3226 11.7992 7.65648 11.799 7.92752 11.9554L13.0049 14.8846C13.5885 15.2213 14.3178 14.8001 14.3178 14.1263V1.40114C14.3178 0.727151 13.5881 0.305975 13.0045 0.643108L1.11624 7.51051C0.845488 7.66692 0.678711 7.95586 0.678711 8.26855V14.1244C0.678711 14.7986 1.40883 15.2198 1.99245 14.8822L7.05174 11.9559Z" fill="white"/>
</svg>
