<svg width="394" height="118" viewBox="0 0 394 118" fill="none" xmlns="http://www.w3.org/2000/svg">
<path d="M0 19C0 8.50659 8.50659 0 19 0H375C385.493 0 394 8.50659 394 19V118H0V19Z" fill="white"/>
<path d="M164.5 56.5312H229.5C230.362 56.5312 231.189 56.2185 231.798 55.6617C232.408 55.105 232.75 54.3499 232.75 53.5625V44.6562C232.75 44.2663 232.667 43.8801 232.503 43.5197C232.34 43.1593 232.101 42.8318 231.799 42.5559L209.049 21.7746C208.747 21.499 208.389 21.2805 207.994 21.1315C207.6 20.9825 207.177 20.9059 206.75 20.9063H167.75C166.026 20.9063 164.373 21.5318 163.154 22.6453C161.935 23.7588 161.25 25.269 161.25 26.8438V53.5625C161.25 54.3499 161.592 55.105 162.202 55.6617C162.811 56.2185 163.638 56.5312 164.5 56.5312ZM206.75 28.3281L224.625 44.6562H206.75V28.3281ZM236 68.4062C236 69.1936 235.658 69.9487 235.048 70.5055C234.439 71.0622 233.612 71.375 232.75 71.375H223V77.3125H229.5C230.362 77.3125 231.189 77.6253 231.798 78.182C232.408 78.7388 232.75 79.4939 232.75 80.2812C232.75 81.0686 232.408 81.8237 231.798 82.3805C231.189 82.9372 230.362 83.25 229.5 83.25H223V89.1875C223 89.9749 222.658 90.73 222.048 91.2867C221.439 91.8435 220.612 92.1562 219.75 92.1562C218.888 92.1562 218.061 91.8435 217.452 91.2867C216.842 90.73 216.5 89.9749 216.5 89.1875V68.4062C216.5 67.6189 216.842 66.8638 217.452 66.307C218.061 65.7503 218.888 65.4375 219.75 65.4375H232.75C233.612 65.4375 234.439 65.7503 235.048 66.307C235.658 66.8638 236 67.6189 236 68.4062ZM171 65.4375H164.5C163.638 65.4375 162.811 65.7503 162.202 66.307C161.592 66.8638 161.25 67.6189 161.25 68.4062V89.1875C161.25 89.9749 161.592 90.73 162.202 91.2867C162.811 91.8435 163.638 92.1562 164.5 92.1562C165.362 92.1562 166.189 91.8435 166.798 91.2867C167.408 90.73 167.75 89.9749 167.75 89.1875V86.2188H171C174.017 86.2188 176.91 85.124 179.043 83.1754C181.177 81.2268 182.375 78.5839 182.375 75.8281C182.375 73.0724 181.177 70.4295 179.043 68.4808C176.91 66.5322 174.017 65.4375 171 65.4375ZM171 80.2812H167.75V71.375H171C172.293 71.375 173.533 71.8442 174.447 72.6793C175.361 73.5144 175.875 74.6471 175.875 75.8281C175.875 77.0092 175.361 78.1418 174.447 78.977C173.533 79.8121 172.293 80.2812 171 80.2812ZM197 65.4375H190.5C189.638 65.4375 188.811 65.7503 188.202 66.307C187.592 66.8638 187.25 67.6189 187.25 68.4062V89.1875C187.25 89.9749 187.592 90.73 188.202 91.2867C188.811 91.8435 189.638 92.1562 190.5 92.1562H197C200.879 92.1562 204.599 90.7487 207.341 88.2434C210.084 85.738 211.625 82.34 211.625 78.7969C211.625 75.2537 210.084 71.8557 207.341 69.3504C204.599 66.845 200.879 65.4375 197 65.4375ZM197 86.2188H193.75V71.375H197C199.155 71.375 201.222 72.1569 202.745 73.5488C204.269 74.9407 205.125 76.8285 205.125 78.7969C205.125 80.7653 204.269 82.6531 202.745 84.0449C201.222 85.4368 199.155 86.2188 197 86.2188Z" fill="#707A7B"/>
</svg>
