<svg width="59" height="63" viewBox="0 0 59 63" fill="none" xmlns="http://www.w3.org/2000/svg">
<path d="M47.0884 8.45822C45.8241 7.75485 44.2424 8.63238 44.2424 10.0372V22.2395C44.2424 22.8906 44.6033 23.4924 45.1893 23.8184L56.1507 29.9167C57.415 30.6201 58.9967 29.7425 58.9967 28.3377V16.1354C58.9967 15.4843 58.6358 14.8825 58.0498 14.5565L47.0884 8.45822Z" fill="black"/>
<path d="M45.194 39.1808C44.6073 39.5072 43.884 39.5076 43.2968 39.1818L32.2976 33.0782C31.0333 32.3767 29.4535 33.2543 29.4535 34.6582V61.1732C29.4535 62.5776 31.0343 63.4552 32.2985 62.7527L58.0522 48.4434C58.6387 48.1175 59 47.5154 59 46.8639V34.6623C59 33.2575 57.4183 32.3799 56.154 33.0833L45.194 39.1808Z" fill="black"/>
<path d="M11.9117 54.5418C13.1759 55.2451 14.7576 54.3676 14.7576 52.9628V40.7605C14.7576 40.1094 14.3967 39.5076 13.8107 39.1816L2.84931 33.0833C1.58501 32.3799 0.00334769 33.2575 0.00334769 34.6623V46.8646C0.00334769 47.5157 0.364239 48.1175 0.950266 48.4435L11.9117 54.5418Z" fill="black"/>
<path d="M13.806 23.8192C14.3927 23.4928 15.116 23.4924 15.7032 23.8182L26.7024 29.9218C27.9667 30.6233 29.5465 29.7457 29.5465 28.3418V1.8268C29.5465 0.422435 27.9657 -0.455153 26.7015 0.247318L0.947834 14.5566C0.361291 14.8825 0 15.4846 0 16.1361V28.3377C0 29.7425 1.58167 30.6201 2.84596 29.9167L13.806 23.8192Z" fill="black"/>
</svg>
