<svg width="727" height="1272" viewBox="0 0 727 1272" fill="none" xmlns="http://www.w3.org/2000/svg">
<g clip-path="url(#clip0_18934_20094)">
<rect width="728" height="1273" rx="20.1569" fill="#F2935C"/>
<path d="M169.03 101.4C166.444 101.4 164.204 100.84 162.31 99.72C160.444 98.5733 159.004 96.9733 157.99 94.92C157.004 92.84 156.51 90.4 156.51 87.6C156.51 84.8 157.004 82.3733 157.99 80.32C159.004 78.24 160.444 76.64 162.31 75.52C164.204 74.3733 166.444 73.8 169.03 73.8C171.457 73.8 173.524 74.2267 175.23 75.08C176.937 75.9333 178.257 77.1333 179.19 78.68C180.124 80.2267 180.59 82.08 180.59 84.24V84.48H176.03V84.24C176.03 82.0533 175.47 80.4667 174.35 79.48C173.257 78.4667 171.444 77.96 168.91 77.96C167.07 77.96 165.577 78.28 164.43 78.92C163.284 79.56 162.444 80.5867 161.91 82C161.377 83.4133 161.11 85.28 161.11 87.6C161.11 89.8933 161.377 91.76 161.91 93.2C162.444 94.6133 163.284 95.64 164.43 96.28C165.577 96.8933 167.07 97.2 168.91 97.2C171.444 97.2 173.257 96.7067 174.35 95.72C175.47 94.7333 176.03 93.1467 176.03 90.96V90.72H180.59V90.96C180.59 93.0933 180.124 94.9467 179.19 96.52C178.257 98.0667 176.937 99.2667 175.23 100.12C173.524 100.973 171.457 101.4 169.03 101.4ZM188.463 101H184.143V81H188.103V86.56L188.463 86.76V101ZM188.463 88.04H187.463V84.16H188.303C188.703 83.2267 189.357 82.4267 190.263 81.76C191.197 81.0667 192.397 80.72 193.863 80.72C195.277 80.72 196.397 81.0267 197.223 81.64C198.077 82.2533 198.69 83.0667 199.063 84.08C199.437 85.0933 199.623 86.2267 199.623 87.48V88.8H195.303V88C195.303 86.6667 195.077 85.7333 194.623 85.2C194.17 84.6667 193.317 84.4 192.063 84.4C190.757 84.4 189.823 84.68 189.263 85.24C188.73 85.7733 188.463 86.7067 188.463 88.04ZM211.226 101.4C209.066 101.4 207.266 100.973 205.826 100.12C204.386 99.24 203.319 98.0267 202.626 96.48C201.932 94.9067 201.586 93.0933 201.586 91.04C201.586 88.9867 201.972 87.1867 202.746 85.64C203.546 84.0933 204.666 82.8933 206.106 82.04C207.546 81.16 209.252 80.72 211.226 80.72C213.012 80.72 214.586 81.0667 215.946 81.76C217.332 82.4267 218.399 83.4 219.146 84.68C219.919 85.96 220.306 87.5067 220.306 89.32C220.306 89.8533 220.279 90.3733 220.226 90.88C220.199 91.36 220.159 91.76 220.106 92.08H203.626V89.2H216.586L216.146 89.6C216.252 88.3733 216.119 87.3733 215.746 86.6C215.399 85.8267 214.826 85.2533 214.026 84.88C213.252 84.5067 212.279 84.32 211.106 84.32C208.999 84.32 207.559 84.8533 206.786 85.92C206.012 86.96 205.626 88.4 205.626 90.24V91.44C205.626 92.7733 205.786 93.9067 206.106 94.84C206.452 95.7467 207.039 96.4267 207.866 96.88C208.692 97.3333 209.826 97.56 211.266 97.56C212.946 97.56 214.132 97.2933 214.826 96.76C215.519 96.2267 215.866 95.52 215.866 94.64V94.32H220.146V94.68C220.146 96.04 219.772 97.2267 219.026 98.24C218.279 99.2267 217.239 100 215.906 100.56C214.599 101.12 213.039 101.4 211.226 101.4ZM240.749 101H236.749V97.08L236.629 96V88.36C236.629 86.8667 236.269 85.8533 235.549 85.32C234.856 84.7867 233.722 84.52 232.149 84.52C230.576 84.52 229.442 84.8 228.749 85.36C228.082 85.92 227.749 86.8533 227.749 88.16V88.76H223.589V88.36C223.589 86.8667 223.949 85.5467 224.669 84.4C225.416 83.2533 226.442 82.36 227.749 81.72C229.082 81.0533 230.629 80.72 232.389 80.72C234.256 80.72 235.802 81.0667 237.029 81.76C238.256 82.4533 239.176 83.4133 239.789 84.64C240.429 85.84 240.749 87.2667 240.749 88.92V101ZM229.349 101.4C227.562 101.4 226.056 100.947 224.829 100.04C223.629 99.1067 223.029 97.7867 223.029 96.08C223.029 94.96 223.282 94.0267 223.789 93.28C224.322 92.5333 225.082 91.92 226.069 91.44C227.056 90.96 228.256 90.6267 229.669 90.44L237.029 89.4V92.44L230.309 93.44C229.162 93.6 228.362 93.84 227.909 94.16C227.456 94.48 227.229 95.0133 227.229 95.76C227.229 96.5333 227.496 97.0933 228.029 97.44C228.589 97.7867 229.496 97.96 230.749 97.96C231.709 97.96 232.629 97.8133 233.509 97.52C234.416 97.2 235.162 96.68 235.749 95.96C236.336 95.2133 236.629 94.1733 236.629 92.84L237.189 97.92L236.549 97.88C236.176 98.4933 235.656 99.0667 234.989 99.6C234.349 100.133 233.562 100.573 232.629 100.92C231.696 101.24 230.602 101.4 229.349 101.4ZM252.971 101C250.785 101 249.105 100.533 247.931 99.6C246.785 98.6667 246.211 97.0933 246.211 94.88V81.56L247.211 76.2H250.531V94.68C250.531 95.72 250.785 96.3867 251.291 96.68C251.825 96.9467 252.771 97.08 254.131 97.08H256.531V100.64C256.131 100.747 255.611 100.84 254.971 100.92C254.331 100.973 253.665 101 252.971 101ZM256.531 84.72H242.891V81.12H256.531V84.72ZM267.593 101.4C265.433 101.4 263.633 100.973 262.193 100.12C260.753 99.24 259.686 98.0267 258.993 96.48C258.299 94.9067 257.953 93.0933 257.953 91.04C257.953 88.9867 258.339 87.1867 259.113 85.64C259.913 84.0933 261.033 82.8933 262.473 82.04C263.913 81.16 265.619 80.72 267.593 80.72C269.379 80.72 270.953 81.0667 272.313 81.76C273.699 82.4267 274.766 83.4 275.513 84.68C276.286 85.96 276.673 87.5067 276.673 89.32C276.673 89.8533 276.646 90.3733 276.593 90.88C276.566 91.36 276.526 91.76 276.473 92.08H259.993V89.2H272.953L272.513 89.6C272.619 88.3733 272.486 87.3733 272.113 86.6C271.766 85.8267 271.193 85.2533 270.393 84.88C269.619 84.5067 268.646 84.32 267.473 84.32C265.366 84.32 263.926 84.8533 263.153 85.92C262.379 86.96 261.993 88.4 261.993 90.24V91.44C261.993 92.7733 262.153 93.9067 262.473 94.84C262.819 95.7467 263.406 96.4267 264.233 96.88C265.059 97.3333 266.193 97.56 267.633 97.56C269.313 97.56 270.499 97.2933 271.193 96.76C271.886 96.2267 272.233 95.52 272.233 94.64V94.32H276.513V94.68C276.513 96.04 276.139 97.2267 275.393 98.24C274.646 99.2267 273.606 100 272.273 100.56C270.966 101.12 269.406 101.4 267.593 101.4ZM304.694 101H300.694V97.08L300.574 96V88.36C300.574 86.8667 300.214 85.8533 299.494 85.32C298.801 84.7867 297.668 84.52 296.094 84.52C294.521 84.52 293.388 84.8 292.694 85.36C292.028 85.92 291.694 86.8533 291.694 88.16V88.76H287.534V88.36C287.534 86.8667 287.894 85.5467 288.614 84.4C289.361 83.2533 290.388 82.36 291.694 81.72C293.028 81.0533 294.574 80.72 296.334 80.72C298.201 80.72 299.748 81.0667 300.974 81.76C302.201 82.4533 303.121 83.4133 303.734 84.64C304.374 85.84 304.694 87.2667 304.694 88.92V101ZM293.294 101.4C291.508 101.4 290.001 100.947 288.774 100.04C287.574 99.1067 286.974 97.7867 286.974 96.08C286.974 94.96 287.228 94.0267 287.734 93.28C288.268 92.5333 289.028 91.92 290.014 91.44C291.001 90.96 292.201 90.6267 293.614 90.44L300.974 89.4V92.44L294.254 93.44C293.108 93.6 292.308 93.84 291.854 94.16C291.401 94.48 291.174 95.0133 291.174 95.76C291.174 96.5333 291.441 97.0933 291.974 97.44C292.534 97.7867 293.441 97.96 294.694 97.96C295.654 97.96 296.574 97.8133 297.454 97.52C298.361 97.2 299.108 96.68 299.694 95.96C300.281 95.2133 300.574 94.1733 300.574 92.84L301.134 97.92L300.494 97.88C300.121 98.4933 299.601 99.0667 298.934 99.6C298.294 100.133 297.508 100.573 296.574 100.92C295.641 101.24 294.548 101.4 293.294 101.4ZM324.73 101.4C321.823 101.4 319.623 100.827 318.13 99.68C316.637 98.5067 315.89 96.7067 315.89 94.28V94.2H320.05V94.92C320.05 95.6133 320.183 96.1867 320.45 96.64C320.743 97.0667 321.223 97.3867 321.89 97.6C322.583 97.7867 323.557 97.88 324.81 97.88C325.877 97.88 326.677 97.8 327.21 97.64C327.77 97.4533 328.143 97.2 328.33 96.88C328.517 96.56 328.61 96.16 328.61 95.68C328.61 94.88 328.33 94.32 327.77 94C327.21 93.6533 326.21 93.3467 324.77 93.08L321.65 92.56C320.477 92.32 319.45 91.9867 318.57 91.56C317.717 91.1067 317.05 90.4933 316.57 89.72C316.117 88.92 315.89 87.92 315.89 86.72C315.89 84.9333 316.597 83.4933 318.01 82.4C319.423 81.28 321.423 80.72 324.01 80.72C325.583 80.72 326.983 80.9733 328.21 81.48C329.437 81.9867 330.41 82.7467 331.13 83.76C331.85 84.7733 332.21 86.04 332.21 87.56V87.92H328.09V87.44C328.09 86.8 327.983 86.2533 327.77 85.8C327.557 85.32 327.157 84.9467 326.57 84.68C325.983 84.4133 325.09 84.28 323.89 84.28C322.317 84.28 321.277 84.48 320.77 84.88C320.263 85.28 320.01 85.8667 320.01 86.64C320.01 87.4133 320.237 87.96 320.69 88.28C321.17 88.5733 322.103 88.8667 323.49 89.16L326.89 89.8C328.17 90.04 329.237 90.4 330.09 90.88C330.943 91.36 331.583 91.9867 332.01 92.76C332.463 93.5333 332.69 94.4533 332.69 95.52C332.69 97.3867 331.983 98.84 330.57 99.88C329.183 100.893 327.237 101.4 324.73 101.4ZM344.26 101C342.074 101 340.394 100.533 339.22 99.6C338.074 98.6667 337.5 97.0933 337.5 94.88V81.56L338.5 76.2H341.82V94.68C341.82 95.72 342.074 96.3867 342.58 96.68C343.114 96.9467 344.06 97.08 345.42 97.08H347.82V100.64C347.42 100.747 346.9 100.84 346.26 100.92C345.62 100.973 344.954 101 344.26 101ZM347.82 84.72H334.18V81.12H347.82V84.72ZM355.104 101H350.784V81H354.744V86.56L355.104 86.76V101ZM355.104 88.04H354.104V84.16H354.944C355.344 83.2267 355.997 82.4267 356.904 81.76C357.837 81.0667 359.037 80.72 360.504 80.72C361.917 80.72 363.037 81.0267 363.864 81.64C364.717 82.2533 365.331 83.0667 365.704 84.08C366.077 85.0933 366.264 86.2267 366.264 87.48V88.8H361.944V88C361.944 86.6667 361.717 85.7333 361.264 85.2C360.811 84.6667 359.957 84.4 358.704 84.4C357.397 84.4 356.464 84.68 355.904 85.24C355.371 85.7733 355.104 86.7067 355.104 88.04ZM378.146 101.4C376.12 101.4 374.36 100.973 372.866 100.12C371.373 99.24 370.226 98.0267 369.426 96.48C368.626 94.9067 368.226 93.0933 368.226 91.04C368.226 88.9867 368.626 87.1867 369.426 85.64C370.226 84.0933 371.373 82.8933 372.866 82.04C374.36 81.16 376.12 80.72 378.146 80.72C380.173 80.72 381.906 81.16 383.346 82.04C384.813 82.8933 385.933 84.0933 386.706 85.64C387.506 87.1867 387.906 88.9867 387.906 91.04C387.906 93.0933 387.506 94.9067 386.706 96.48C385.933 98.0267 384.813 99.24 383.346 100.12C381.906 100.973 380.173 101.4 378.146 101.4ZM378.146 97.56C380.226 97.56 381.68 97.04 382.506 96C383.333 94.9333 383.746 93.28 383.746 91.04C383.746 88.8 383.333 87.16 382.506 86.12C381.68 85.08 380.226 84.56 378.146 84.56C376.04 84.56 374.573 85.08 373.746 86.12C372.92 87.16 372.506 88.8 372.506 91.04C372.506 93.28 372.92 94.9333 373.746 96C374.573 97.04 376.04 97.56 378.146 97.56ZM409.656 101H405.336V89.44C405.336 87.68 405.002 86.4133 404.336 85.64C403.669 84.84 402.416 84.44 400.576 84.44C399.402 84.44 398.442 84.6133 397.696 84.96C396.949 85.28 396.389 85.8133 396.016 86.56C395.642 87.28 395.456 88.2667 395.456 89.52H394.696L394.336 84.84H395.296C395.589 84.12 396.029 83.4533 396.616 82.84C397.202 82.2267 397.949 81.72 398.856 81.32C399.789 80.92 400.896 80.72 402.176 80.72C403.909 80.72 405.322 81.0533 406.416 81.72C407.509 82.3867 408.322 83.3067 408.856 84.48C409.389 85.6533 409.656 87 409.656 88.52V101ZM395.456 101H391.136V81.12H395.096V87.08L395.456 87.28V101ZM423.114 108.2C421.247 108.2 419.62 107.907 418.234 107.32C416.874 106.733 415.82 105.88 415.074 104.76C414.327 103.667 413.954 102.32 413.954 100.72H418.274C418.274 101.627 418.407 102.347 418.674 102.88C418.94 103.413 419.434 103.787 420.154 104C420.874 104.24 421.9 104.36 423.234 104.36C424.54 104.36 425.54 104.213 426.234 103.92C426.927 103.627 427.407 103.133 427.674 102.44C427.94 101.747 428.074 100.787 428.074 99.56V86.36L428.394 85.84V81.12H432.394V99.56C432.394 101.507 432.02 103.107 431.274 104.36C430.527 105.64 429.46 106.6 428.074 107.24C426.714 107.88 425.06 108.2 423.114 108.2ZM421.434 99.12C418.687 99.12 416.58 98.2933 415.114 96.64C413.647 94.96 412.914 92.72 412.914 89.92C412.914 87.12 413.66 84.8933 415.154 83.24C416.647 81.56 418.794 80.72 421.594 80.72C423.22 80.72 424.62 81.0533 425.794 81.72C426.967 82.36 427.78 83.2533 428.234 84.4H429.034L428.834 89.28H428.074C428.074 88.16 427.847 87.24 427.394 86.52C426.94 85.8 426.3 85.2667 425.474 84.92C424.647 84.5733 423.687 84.4 422.594 84.4C421.34 84.4 420.314 84.5733 419.514 84.92C418.74 85.2667 418.167 85.8533 417.794 86.68C417.42 87.48 417.234 88.56 417.234 89.92C417.234 90.9333 417.34 91.8 417.554 92.52C417.767 93.2133 418.1 93.7733 418.554 94.2C419.007 94.6267 419.58 94.9467 420.274 95.16C420.967 95.3467 421.767 95.44 422.674 95.44C423.767 95.44 424.714 95.2667 425.514 94.92C426.314 94.5467 426.94 94 427.394 93.28C427.847 92.56 428.074 91.64 428.074 90.52H428.954V95.6H427.914C427.46 96.56 426.674 97.3867 425.554 98.08C424.434 98.7733 423.06 99.12 421.434 99.12ZM455.063 101.4C453.276 101.4 451.823 101.053 450.703 100.36C449.609 99.64 448.849 98.8267 448.423 97.92H447.342L447.543 92.84H448.303C448.303 93.9333 448.503 94.84 448.903 95.56C449.329 96.28 449.956 96.8267 450.783 97.2C451.609 97.5467 452.596 97.72 453.743 97.72C454.676 97.72 455.489 97.6 456.183 97.36C456.876 97.12 457.436 96.7467 457.863 96.24C458.316 95.7333 458.636 95.0533 458.823 94.2C459.036 93.32 459.143 92.2667 459.143 91.04C459.143 89.8133 459.036 88.7867 458.823 87.96C458.636 87.1067 458.316 86.4133 457.863 85.88C457.436 85.3467 456.876 84.9733 456.183 84.76C455.516 84.52 454.703 84.4 453.743 84.4C452.596 84.4 451.609 84.5867 450.783 84.96C449.956 85.3067 449.329 85.84 448.903 86.56C448.503 87.2533 448.303 88.16 448.303 89.28H447.543L447.342 84.4H448.143C448.623 83.2533 449.409 82.36 450.503 81.72C451.623 81.0533 453.049 80.72 454.783 80.72C457.583 80.72 459.729 81.6533 461.223 83.52C462.716 85.3867 463.463 87.8933 463.463 91.04C463.463 94.1867 462.743 96.7067 461.303 98.6C459.863 100.467 457.783 101.4 455.063 101.4ZM448.303 107.92H444.023V81.12H447.942V85.84L448.303 86.36V107.92ZM483.913 101H479.913V97.08L479.793 96V88.36C479.793 86.8667 479.433 85.8533 478.713 85.32C478.02 84.7867 476.886 84.52 475.313 84.52C473.74 84.52 472.606 84.8 471.913 85.36C471.246 85.92 470.913 86.8533 470.913 88.16V88.76H466.753V88.36C466.753 86.8667 467.113 85.5467 467.833 84.4C468.58 83.2533 469.606 82.36 470.913 81.72C472.246 81.0533 473.793 80.72 475.553 80.72C477.42 80.72 478.966 81.0667 480.193 81.76C481.42 82.4533 482.34 83.4133 482.953 84.64C483.593 85.84 483.913 87.2667 483.913 88.92V101ZM472.513 101.4C470.726 101.4 469.22 100.947 467.993 100.04C466.793 99.1067 466.193 97.7867 466.193 96.08C466.193 94.96 466.446 94.0267 466.953 93.28C467.486 92.5333 468.246 91.92 469.233 91.44C470.22 90.96 471.42 90.6267 472.833 90.44L480.193 89.4V92.44L473.473 93.44C472.326 93.6 471.526 93.84 471.073 94.16C470.62 94.48 470.393 95.0133 470.393 95.76C470.393 96.5333 470.66 97.0933 471.193 97.44C471.753 97.7867 472.66 97.96 473.913 97.96C474.873 97.96 475.793 97.8133 476.673 97.52C477.58 97.2 478.326 96.68 478.913 95.96C479.5 95.2133 479.793 94.1733 479.793 92.84L480.353 97.92L479.713 97.88C479.34 98.4933 478.82 99.0667 478.153 99.6C477.513 100.133 476.726 100.573 475.793 100.92C474.86 101.24 473.766 101.4 472.513 101.4ZM496.293 101.4C493.386 101.4 491.186 100.827 489.693 99.68C488.199 98.5067 487.453 96.7067 487.453 94.28V94.2H491.613V94.92C491.613 95.6133 491.746 96.1867 492.013 96.64C492.306 97.0667 492.786 97.3867 493.453 97.6C494.146 97.7867 495.119 97.88 496.372 97.88C497.439 97.88 498.239 97.8 498.773 97.64C499.333 97.4533 499.706 97.2 499.893 96.88C500.079 96.56 500.173 96.16 500.173 95.68C500.173 94.88 499.893 94.32 499.333 94C498.773 93.6533 497.773 93.3467 496.333 93.08L493.213 92.56C492.039 92.32 491.013 91.9867 490.133 91.56C489.279 91.1067 488.613 90.4933 488.133 89.72C487.679 88.92 487.453 87.92 487.453 86.72C487.453 84.9333 488.159 83.4933 489.573 82.4C490.986 81.28 492.986 80.72 495.573 80.72C497.146 80.72 498.546 80.9733 499.773 81.48C500.999 81.9867 501.973 82.7467 502.693 83.76C503.413 84.7733 503.773 86.04 503.773 87.56V87.92H499.653V87.44C499.653 86.8 499.546 86.2533 499.333 85.8C499.119 85.32 498.719 84.9467 498.133 84.68C497.546 84.4133 496.653 84.28 495.453 84.28C493.879 84.28 492.839 84.48 492.333 84.88C491.826 85.28 491.573 85.8667 491.573 86.64C491.573 87.4133 491.799 87.96 492.253 88.28C492.733 88.5733 493.666 88.8667 495.053 89.16L498.453 89.8C499.733 90.04 500.799 90.4 501.653 90.88C502.506 91.36 503.146 91.9867 503.573 92.76C504.026 93.5333 504.253 94.4533 504.253 95.52C504.253 97.3867 503.546 98.84 502.133 99.88C500.746 100.893 498.799 101.4 496.293 101.4ZM515.98 101.4C513.073 101.4 510.873 100.827 509.38 99.68C507.887 98.5067 507.14 96.7067 507.14 94.28V94.2H511.3V94.92C511.3 95.6133 511.433 96.1867 511.7 96.64C511.993 97.0667 512.473 97.3867 513.14 97.6C513.833 97.7867 514.807 97.88 516.06 97.88C517.127 97.88 517.927 97.8 518.46 97.64C519.02 97.4533 519.393 97.2 519.58 96.88C519.767 96.56 519.86 96.16 519.86 95.68C519.86 94.88 519.58 94.32 519.02 94C518.46 93.6533 517.46 93.3467 516.02 93.08L512.9 92.56C511.727 92.32 510.7 91.9867 509.82 91.56C508.967 91.1067 508.3 90.4933 507.82 89.72C507.367 88.92 507.14 87.92 507.14 86.72C507.14 84.9333 507.847 83.4933 509.26 82.4C510.673 81.28 512.673 80.72 515.26 80.72C516.833 80.72 518.233 80.9733 519.46 81.48C520.687 81.9867 521.66 82.7467 522.38 83.76C523.1 84.7733 523.46 86.04 523.46 87.56V87.92H519.34V87.44C519.34 86.8 519.233 86.2533 519.02 85.8C518.807 85.32 518.407 84.9467 517.82 84.68C517.233 84.4133 516.34 84.28 515.14 84.28C513.567 84.28 512.527 84.48 512.02 84.88C511.513 85.28 511.26 85.8667 511.26 86.64C511.26 87.4133 511.487 87.96 511.94 88.28C512.42 88.5733 513.353 88.8667 514.74 89.16L518.14 89.8C519.42 90.04 520.487 90.4 521.34 90.88C522.193 91.36 522.833 91.9867 523.26 92.76C523.713 93.5333 523.94 94.4533 523.94 95.52C523.94 97.3867 523.233 98.84 521.82 99.88C520.433 100.893 518.487 101.4 515.98 101.4ZM535.797 101H530.157L525.237 81.12H529.917L532.197 92.16L533.037 97.4H533.357L534.637 92.16L538.117 81.12H543.717L547.237 92.2L548.517 97.36H548.797L549.637 92.2L551.917 81.12H556.437L551.517 101H545.877L542.317 89.92L540.997 84.92H540.717L539.397 89.92L535.797 101ZM567.013 101.4C564.987 101.4 563.227 100.973 561.733 100.12C560.24 99.24 559.093 98.0267 558.293 96.48C557.493 94.9067 557.093 93.0933 557.093 91.04C557.093 88.9867 557.493 87.1867 558.293 85.64C559.093 84.0933 560.24 82.8933 561.733 82.04C563.227 81.16 564.987 80.72 567.013 80.72C569.04 80.72 570.773 81.16 572.213 82.04C573.68 82.8933 574.8 84.0933 575.573 85.64C576.373 87.1867 576.773 88.9867 576.773 91.04C576.773 93.0933 576.373 94.9067 575.573 96.48C574.8 98.0267 573.68 99.24 572.213 100.12C570.773 100.973 569.04 101.4 567.013 101.4ZM567.013 97.56C569.093 97.56 570.547 97.04 571.373 96C572.2 94.9333 572.613 93.28 572.613 91.04C572.613 88.8 572.2 87.16 571.373 86.12C570.547 85.08 569.093 84.56 567.013 84.56C564.907 84.56 563.44 85.08 562.613 86.12C561.787 87.16 561.373 88.8 561.373 91.04C561.373 93.28 561.787 94.9333 562.613 96C563.44 97.04 564.907 97.56 567.013 97.56ZM584.323 101H580.003V81H583.963V86.56L584.323 86.76V101ZM584.323 88.04H583.323V84.16H584.163C584.563 83.2267 585.216 82.4267 586.123 81.76C587.056 81.0667 588.256 80.72 589.723 80.72C591.136 80.72 592.256 81.0267 593.083 81.64C593.936 82.2533 594.549 83.0667 594.923 84.08C595.296 85.0933 595.483 86.2267 595.483 87.48V88.8H591.163V88C591.163 86.6667 590.936 85.7333 590.483 85.2C590.029 84.6667 589.176 84.4 587.923 84.4C586.616 84.4 585.683 84.68 585.123 85.24C584.589 85.7733 584.323 86.7067 584.323 88.04ZM606.205 101.4C603.378 101.4 601.205 100.467 599.685 98.6C598.192 96.7067 597.445 94.1867 597.445 91.04C597.445 87.8933 598.178 85.3867 599.645 83.52C601.138 81.6533 603.245 80.72 605.965 80.72C607.725 80.72 609.138 81.08 610.205 81.8C611.298 82.4933 612.058 83.2933 612.485 84.2H613.565L613.365 89.28H612.605C612.605 88.16 612.392 87.24 611.965 86.52C611.538 85.8 610.925 85.2667 610.125 84.92C609.325 84.5733 608.338 84.4 607.165 84.4C606.205 84.4 605.378 84.52 604.685 84.76C604.018 85 603.458 85.3733 603.005 85.88C602.578 86.3867 602.258 87.0667 602.045 87.92C601.858 88.7733 601.765 89.8133 601.765 91.04C601.765 92.24 601.858 93.28 602.045 94.16C602.258 95.0133 602.578 95.7067 603.005 96.24C603.458 96.7467 604.032 97.12 604.725 97.36C605.418 97.6 606.232 97.72 607.165 97.72C608.338 97.72 609.325 97.5467 610.125 97.2C610.925 96.8267 611.538 96.28 611.965 95.56C612.392 94.84 612.605 93.9333 612.605 92.84H613.365L613.565 97.72H612.765C612.312 98.8667 611.525 99.7733 610.405 100.44C609.312 101.08 607.912 101.4 606.205 101.4ZM616.925 101H612.925V96.28L612.605 95.76V74.2H616.925V101ZM637.034 101C634.847 101 633.167 100.533 631.994 99.6C630.847 98.6667 630.274 97.0933 630.274 94.88V81.56L631.274 76.2H634.594V94.68C634.594 95.72 634.847 96.3867 635.354 96.68C635.887 96.9467 636.834 97.08 638.194 97.08H640.594V100.64C640.194 100.747 639.674 100.84 639.034 100.92C638.394 100.973 637.727 101 637.034 101ZM640.594 84.72H626.954V81.12H640.594V84.72ZM651.935 101.4C649.909 101.4 648.149 100.973 646.655 100.12C645.162 99.24 644.015 98.0267 643.215 96.48C642.415 94.9067 642.015 93.0933 642.015 91.04C642.015 88.9867 642.415 87.1867 643.215 85.64C644.015 84.0933 645.162 82.8933 646.655 82.04C648.149 81.16 649.909 80.72 651.935 80.72C653.962 80.72 655.695 81.16 657.135 82.04C658.602 82.8933 659.722 84.0933 660.495 85.64C661.295 87.1867 661.695 88.9867 661.695 91.04C661.695 93.0933 661.295 94.9067 660.495 96.48C659.722 98.0267 658.602 99.24 657.135 100.12C655.695 100.973 653.962 101.4 651.935 101.4ZM651.935 97.56C654.015 97.56 655.469 97.04 656.295 96C657.122 94.9333 657.535 93.28 657.535 91.04C657.535 88.8 657.122 87.16 656.295 86.12C655.469 85.08 654.015 84.56 651.935 84.56C649.829 84.56 648.362 85.08 647.535 86.12C646.709 87.16 646.295 88.8 646.295 91.04C646.295 93.28 646.709 94.9333 647.535 96C648.362 97.04 649.829 97.56 651.935 97.56ZM220.438 150H215.358L210.158 141.84H203.798V138H210.118L215.478 130.12H220.518L213.598 139.52L220.438 150ZM206.198 150H201.878V123.2H206.198V150ZM230.562 150.4C228.402 150.4 226.602 149.973 225.162 149.12C223.722 148.24 222.655 147.027 221.962 145.48C221.268 143.907 220.922 142.093 220.922 140.04C220.922 137.987 221.308 136.187 222.082 134.64C222.882 133.093 224.002 131.893 225.442 131.04C226.882 130.16 228.588 129.72 230.562 129.72C232.348 129.72 233.922 130.067 235.282 130.76C236.668 131.427 237.735 132.4 238.482 133.68C239.255 134.96 239.642 136.507 239.642 138.32C239.642 138.853 239.615 139.373 239.562 139.88C239.535 140.36 239.495 140.76 239.442 141.08H222.962V138.2H235.922L235.482 138.6C235.588 137.373 235.455 136.373 235.082 135.6C234.735 134.827 234.162 134.253 233.362 133.88C232.588 133.507 231.615 133.32 230.442 133.32C228.335 133.32 226.895 133.853 226.122 134.92C225.348 135.96 224.962 137.4 224.962 139.24V140.44C224.962 141.773 225.122 142.907 225.442 143.84C225.788 144.747 226.375 145.427 227.202 145.88C228.028 146.333 229.162 146.56 230.602 146.56C232.282 146.56 233.468 146.293 234.162 145.76C234.855 145.227 235.202 144.52 235.202 143.64V143.32H239.482V143.68C239.482 145.04 239.108 146.227 238.362 147.24C237.615 148.227 236.575 149 235.242 149.56C233.935 150.12 232.375 150.4 230.562 150.4ZM252.124 150.4C249.964 150.4 248.164 149.973 246.724 149.12C245.284 148.24 244.217 147.027 243.524 145.48C242.831 143.907 242.484 142.093 242.484 140.04C242.484 137.987 242.871 136.187 243.644 134.64C244.444 133.093 245.564 131.893 247.004 131.04C248.444 130.16 250.151 129.72 252.124 129.72C253.911 129.72 255.484 130.067 256.844 130.76C258.231 131.427 259.297 132.4 260.044 133.68C260.817 134.96 261.204 136.507 261.204 138.32C261.204 138.853 261.177 139.373 261.124 139.88C261.097 140.36 261.057 140.76 261.004 141.08H244.524V138.2H257.484L257.044 138.6C257.151 137.373 257.017 136.373 256.644 135.6C256.297 134.827 255.724 134.253 254.924 133.88C254.151 133.507 253.177 133.32 252.004 133.32C249.897 133.32 248.457 133.853 247.684 134.92C246.911 135.96 246.524 137.4 246.524 139.24V140.44C246.524 141.773 246.684 142.907 247.004 143.84C247.351 144.747 247.937 145.427 248.764 145.88C249.591 146.333 250.724 146.56 252.164 146.56C253.844 146.56 255.031 146.293 255.724 145.76C256.417 145.227 256.764 144.52 256.764 143.64V143.32H261.044V143.68C261.044 145.04 260.671 146.227 259.924 147.24C259.177 148.227 258.137 149 256.804 149.56C255.497 150.12 253.937 150.4 252.124 150.4ZM275.531 150.4C273.745 150.4 272.291 150.053 271.171 149.36C270.078 148.64 269.318 147.827 268.891 146.92H267.811L268.011 141.84H268.771C268.771 142.933 268.971 143.84 269.371 144.56C269.798 145.28 270.425 145.827 271.251 146.2C272.078 146.547 273.065 146.72 274.211 146.72C275.145 146.72 275.958 146.6 276.651 146.36C277.345 146.12 277.905 145.747 278.331 145.24C278.785 144.733 279.105 144.053 279.291 143.2C279.505 142.32 279.611 141.267 279.611 140.04C279.611 138.813 279.505 137.787 279.291 136.96C279.105 136.107 278.785 135.413 278.331 134.88C277.905 134.347 277.345 133.973 276.651 133.76C275.985 133.52 275.171 133.4 274.211 133.4C273.065 133.4 272.078 133.587 271.251 133.96C270.425 134.307 269.798 134.84 269.371 135.56C268.971 136.253 268.771 137.16 268.771 138.28H268.011L267.811 133.4H268.611C269.091 132.253 269.878 131.36 270.971 130.72C272.091 130.053 273.518 129.72 275.251 129.72C278.051 129.72 280.198 130.653 281.691 132.52C283.185 134.387 283.931 136.893 283.931 140.04C283.931 143.187 283.211 145.707 281.771 147.6C280.331 149.467 278.251 150.4 275.531 150.4ZM268.771 156.92H264.491V130.12H268.411V134.84L268.771 135.36V156.92ZM298.52 156.8C297.987 156.8 297.44 156.76 296.88 156.68C296.32 156.627 295.867 156.547 295.52 156.44V152.92H298.28C299.107 152.92 299.72 152.8 300.12 152.56C300.52 152.347 300.893 151.88 301.24 151.16L302.48 148.36L302.12 149.76L293.52 130.12H298.28L302.28 139.76L304.08 144.08H304.44L306.04 139.76L309.68 130.12H314.48L305.04 152.32C304.56 153.52 304.013 154.44 303.4 155.08C302.787 155.72 302.08 156.16 301.28 156.4C300.507 156.667 299.587 156.8 298.52 156.8ZM324.865 150.4C322.838 150.4 321.078 149.973 319.585 149.12C318.092 148.24 316.945 147.027 316.145 145.48C315.345 143.907 314.945 142.093 314.945 140.04C314.945 137.987 315.345 136.187 316.145 134.64C316.945 133.093 318.092 131.893 319.585 131.04C321.078 130.16 322.838 129.72 324.865 129.72C326.892 129.72 328.625 130.16 330.065 131.04C331.532 131.893 332.652 133.093 333.425 134.64C334.225 136.187 334.625 137.987 334.625 140.04C334.625 142.093 334.225 143.907 333.425 145.48C332.652 147.027 331.532 148.24 330.065 149.12C328.625 149.973 326.892 150.4 324.865 150.4ZM324.865 146.56C326.945 146.56 328.398 146.04 329.225 145C330.052 143.933 330.465 142.28 330.465 140.04C330.465 137.8 330.052 136.16 329.225 135.12C328.398 134.08 326.945 133.56 324.865 133.56C322.758 133.56 321.292 134.08 320.465 135.12C319.638 136.16 319.225 137.8 319.225 140.04C319.225 142.28 319.638 143.933 320.465 145C321.292 146.04 322.758 146.56 324.865 146.56ZM345.254 150.4C343.548 150.4 342.134 150.053 341.014 149.36C339.894 148.64 339.068 147.68 338.534 146.48C338.001 145.253 337.734 143.893 337.734 142.4V130.12H342.054V141.6C342.054 143.387 342.428 144.68 343.174 145.48C343.921 146.28 345.148 146.68 346.854 146.68C347.974 146.68 348.921 146.507 349.694 146.16C350.468 145.787 351.054 145.213 351.454 144.44C351.854 143.64 352.054 142.6 352.054 141.32H353.174V146.04H352.214C351.921 146.787 351.468 147.493 350.854 148.16C350.268 148.827 349.508 149.373 348.574 149.8C347.668 150.2 346.561 150.4 345.254 150.4ZM356.374 150H352.374V144.04L352.054 143.84V130.12H356.374V150ZM364.948 150H360.628V130H364.588V135.56L364.948 135.76V150ZM364.948 137.04H363.948V133.16H364.788C365.188 132.227 365.841 131.427 366.748 130.76C367.681 130.067 368.881 129.72 370.348 129.72C371.761 129.72 372.881 130.027 373.708 130.64C374.561 131.253 375.174 132.067 375.548 133.08C375.921 134.093 376.108 135.227 376.108 136.48V137.8H371.788V137C371.788 135.667 371.561 134.733 371.108 134.2C370.654 133.667 369.801 133.4 368.548 133.4C367.241 133.4 366.308 133.68 365.748 134.24C365.214 134.773 364.948 135.707 364.948 137.04ZM403.523 150H399.523V146.08L399.403 145V137.36C399.403 135.867 399.043 134.853 398.323 134.32C397.629 133.787 396.496 133.52 394.923 133.52C393.349 133.52 392.216 133.8 391.523 134.36C390.856 134.92 390.523 135.853 390.523 137.16V137.76H386.363V137.36C386.363 135.867 386.723 134.547 387.443 133.4C388.189 132.253 389.216 131.36 390.523 130.72C391.856 130.053 393.403 129.72 395.163 129.72C397.029 129.72 398.576 130.067 399.803 130.76C401.029 131.453 401.949 132.413 402.563 133.64C403.203 134.84 403.523 136.267 403.523 137.92V150ZM392.123 150.4C390.336 150.4 388.829 149.947 387.603 149.04C386.403 148.107 385.803 146.787 385.803 145.08C385.803 143.96 386.056 143.027 386.563 142.28C387.096 141.533 387.856 140.92 388.843 140.44C389.829 139.96 391.029 139.627 392.443 139.44L399.803 138.4V141.44L393.083 142.44C391.936 142.6 391.136 142.84 390.683 143.16C390.229 143.48 390.003 144.013 390.003 144.76C390.003 145.533 390.269 146.093 390.803 146.44C391.363 146.787 392.269 146.96 393.523 146.96C394.483 146.96 395.403 146.813 396.283 146.52C397.189 146.2 397.936 145.68 398.523 144.96C399.109 144.213 399.403 143.173 399.403 141.84L399.963 146.92L399.323 146.88C398.949 147.493 398.429 148.067 397.763 148.6C397.123 149.133 396.336 149.573 395.403 149.92C394.469 150.24 393.376 150.4 392.123 150.4ZM416.501 150.44C414.421 150.44 412.661 150 411.221 149.12C409.781 148.24 408.674 147.027 407.901 145.48C407.154 143.933 406.781 142.133 406.781 140.08C406.781 138.027 407.168 136.227 407.941 134.68C408.741 133.107 409.874 131.893 411.341 131.04C412.808 130.16 414.581 129.72 416.661 129.72C418.421 129.72 419.968 130.053 421.301 130.72C422.634 131.387 423.661 132.32 424.381 133.52C425.128 134.72 425.501 136.12 425.501 137.72V138.08H421.221V137.84C421.221 136.373 420.821 135.307 420.021 134.64C419.248 133.947 418.034 133.6 416.381 133.6C414.461 133.6 413.088 134.147 412.261 135.24C411.461 136.307 411.061 137.907 411.061 140.04C411.061 142.2 411.461 143.827 412.261 144.92C413.088 145.987 414.461 146.52 416.381 146.52C418.034 146.52 419.248 146.187 420.021 145.52C420.821 144.827 421.221 143.76 421.221 142.32V142.08H425.501V142.44C425.501 143.987 425.128 145.373 424.381 146.6C423.634 147.8 422.581 148.747 421.221 149.44C419.888 150.107 418.314 150.44 416.501 150.44ZM437.868 150.44C435.788 150.44 434.028 150 432.588 149.12C431.148 148.24 430.041 147.027 429.268 145.48C428.521 143.933 428.148 142.133 428.148 140.08C428.148 138.027 428.535 136.227 429.308 134.68C430.108 133.107 431.241 131.893 432.708 131.04C434.175 130.16 435.948 129.72 438.028 129.72C439.788 129.72 441.335 130.053 442.668 130.72C444.001 131.387 445.028 132.32 445.748 133.52C446.495 134.72 446.868 136.12 446.868 137.72V138.08H442.588V137.84C442.588 136.373 442.188 135.307 441.388 134.64C440.615 133.947 439.401 133.6 437.748 133.6C435.828 133.6 434.455 134.147 433.628 135.24C432.828 136.307 432.428 137.907 432.428 140.04C432.428 142.2 432.828 143.827 433.628 144.92C434.455 145.987 435.828 146.52 437.748 146.52C439.401 146.52 440.615 146.187 441.388 145.52C442.188 144.827 442.588 143.76 442.588 142.32V142.08H446.868V142.44C446.868 143.987 446.495 145.373 445.748 146.6C445.001 147.8 443.948 148.747 442.588 149.44C441.255 150.107 439.681 150.44 437.868 150.44ZM459.435 150.4C457.409 150.4 455.649 149.973 454.155 149.12C452.662 148.24 451.515 147.027 450.715 145.48C449.915 143.907 449.515 142.093 449.515 140.04C449.515 137.987 449.915 136.187 450.715 134.64C451.515 133.093 452.662 131.893 454.155 131.04C455.649 130.16 457.409 129.72 459.435 129.72C461.462 129.72 463.195 130.16 464.635 131.04C466.102 131.893 467.222 133.093 467.995 134.64C468.795 136.187 469.195 137.987 469.195 140.04C469.195 142.093 468.795 143.907 467.995 145.48C467.222 147.027 466.102 148.24 464.635 149.12C463.195 149.973 461.462 150.4 459.435 150.4ZM459.435 146.56C461.515 146.56 462.969 146.04 463.795 145C464.622 143.933 465.035 142.28 465.035 140.04C465.035 137.8 464.622 136.16 463.795 135.12C462.969 134.08 461.515 133.56 459.435 133.56C457.329 133.56 455.862 134.08 455.035 135.12C454.209 136.16 453.795 137.8 453.795 140.04C453.795 142.28 454.209 143.933 455.035 145C455.862 146.04 457.329 146.56 459.435 146.56ZM479.825 150.4C478.118 150.4 476.705 150.053 475.585 149.36C474.465 148.64 473.638 147.68 473.105 146.48C472.571 145.253 472.305 143.893 472.305 142.4V130.12H476.625V141.6C476.625 143.387 476.998 144.68 477.745 145.48C478.491 146.28 479.718 146.68 481.425 146.68C482.545 146.68 483.491 146.507 484.265 146.16C485.038 145.787 485.625 145.213 486.025 144.44C486.425 143.64 486.625 142.6 486.625 141.32H487.745V146.04H486.785C486.491 146.787 486.038 147.493 485.425 148.16C484.838 148.827 484.078 149.373 483.145 149.8C482.238 150.2 481.131 150.4 479.825 150.4ZM490.945 150H486.945V144.04L486.625 143.84V130.12H490.945V150ZM513.718 150H509.398V138.44C509.398 136.68 509.065 135.413 508.398 134.64C507.731 133.84 506.478 133.44 504.638 133.44C503.465 133.44 502.505 133.613 501.758 133.96C501.011 134.28 500.451 134.813 500.078 135.56C499.705 136.28 499.518 137.267 499.518 138.52H498.758L498.398 133.84H499.358C499.651 133.12 500.091 132.453 500.678 131.84C501.265 131.227 502.011 130.72 502.918 130.32C503.851 129.92 504.958 129.72 506.238 129.72C507.971 129.72 509.385 130.053 510.478 130.72C511.571 131.387 512.385 132.307 512.918 133.48C513.451 134.653 513.718 136 513.718 137.52V150ZM499.518 150H495.198V130.12H499.158V136.08L499.518 136.28V150ZM525.94 150C523.753 150 522.073 149.533 520.9 148.6C519.753 147.667 519.18 146.093 519.18 143.88V130.56L520.18 125.2H523.5V143.68C523.5 144.72 523.753 145.387 524.26 145.68C524.793 145.947 525.74 146.08 527.1 146.08H529.5V149.64C529.1 149.747 528.58 149.84 527.94 149.92C527.3 149.973 526.633 150 525.94 150ZM529.5 133.72H515.86V130.12H529.5V133.72ZM548.363 150.4C545.456 150.4 543.256 149.827 541.763 148.68C540.269 147.507 539.523 145.707 539.523 143.28V143.2H543.683V143.92C543.683 144.613 543.816 145.187 544.083 145.64C544.376 146.067 544.856 146.387 545.523 146.6C546.216 146.787 547.189 146.88 548.443 146.88C549.509 146.88 550.309 146.8 550.843 146.64C551.403 146.453 551.776 146.2 551.963 145.88C552.149 145.56 552.243 145.16 552.243 144.68C552.243 143.88 551.963 143.32 551.403 143C550.843 142.653 549.843 142.347 548.403 142.08L545.283 141.56C544.109 141.32 543.083 140.987 542.203 140.56C541.349 140.107 540.683 139.493 540.203 138.72C539.749 137.92 539.523 136.92 539.523 135.72C539.523 133.933 540.229 132.493 541.643 131.4C543.056 130.28 545.056 129.72 547.643 129.72C549.216 129.72 550.616 129.973 551.843 130.48C553.069 130.987 554.043 131.747 554.763 132.76C555.483 133.773 555.843 135.04 555.843 136.56V136.92H551.723V136.44C551.723 135.8 551.616 135.253 551.403 134.8C551.189 134.32 550.789 133.947 550.203 133.68C549.616 133.413 548.723 133.28 547.523 133.28C545.949 133.28 544.909 133.48 544.403 133.88C543.896 134.28 543.643 134.867 543.643 135.64C543.643 136.413 543.869 136.96 544.323 137.28C544.803 137.573 545.736 137.867 547.123 138.16L550.523 138.8C551.803 139.04 552.869 139.4 553.723 139.88C554.576 140.36 555.216 140.987 555.643 141.76C556.096 142.533 556.323 143.453 556.323 144.52C556.323 146.387 555.616 147.84 554.203 148.88C552.816 149.893 550.869 150.4 548.363 150.4ZM568.648 150.4C566.488 150.4 564.688 149.973 563.248 149.12C561.808 148.24 560.741 147.027 560.048 145.48C559.354 143.907 559.007 142.093 559.007 140.04C559.007 137.987 559.394 136.187 560.168 134.64C560.968 133.093 562.088 131.893 563.528 131.04C564.968 130.16 566.674 129.72 568.648 129.72C570.434 129.72 572.008 130.067 573.368 130.76C574.754 131.427 575.821 132.4 576.568 133.68C577.341 134.96 577.728 136.507 577.728 138.32C577.728 138.853 577.701 139.373 577.648 139.88C577.621 140.36 577.581 140.76 577.528 141.08H561.048V138.2H574.008L573.568 138.6C573.674 137.373 573.541 136.373 573.168 135.6C572.821 134.827 572.248 134.253 571.448 133.88C570.674 133.507 569.701 133.32 568.528 133.32C566.421 133.32 564.981 133.853 564.208 134.92C563.434 135.96 563.048 137.4 563.048 139.24V140.44C563.048 141.773 563.208 142.907 563.528 143.84C563.874 144.747 564.461 145.427 565.288 145.88C566.114 146.333 567.248 146.56 568.688 146.56C570.368 146.56 571.554 146.293 572.248 145.76C572.941 145.227 573.288 144.52 573.288 143.64V143.32H577.568V143.68C577.568 145.04 577.194 146.227 576.448 147.24C575.701 148.227 574.661 149 573.328 149.56C572.021 150.12 570.461 150.4 568.648 150.4ZM590.29 150.44C588.21 150.44 586.45 150 585.01 149.12C583.57 148.24 582.463 147.027 581.69 145.48C580.943 143.933 580.57 142.133 580.57 140.08C580.57 138.027 580.957 136.227 581.73 134.68C582.53 133.107 583.663 131.893 585.13 131.04C586.597 130.16 588.37 129.72 590.45 129.72C592.21 129.72 593.757 130.053 595.09 130.72C596.423 131.387 597.45 132.32 598.17 133.52C598.917 134.72 599.29 136.12 599.29 137.72V138.08H595.01V137.84C595.01 136.373 594.61 135.307 593.81 134.64C593.037 133.947 591.823 133.6 590.17 133.6C588.25 133.6 586.877 134.147 586.05 135.24C585.25 136.307 584.85 137.907 584.85 140.04C584.85 142.2 585.25 143.827 586.05 144.92C586.877 145.987 588.25 146.52 590.17 146.52C591.823 146.52 593.037 146.187 593.81 145.52C594.61 144.827 595.01 143.76 595.01 142.32V142.08H599.29V142.44C599.29 143.987 598.917 145.373 598.17 146.6C597.423 147.8 596.37 148.747 595.01 149.44C593.677 150.107 592.103 150.44 590.29 150.44ZM609.942 150.4C608.235 150.4 606.822 150.053 605.702 149.36C604.582 148.64 603.755 147.68 603.222 146.48C602.689 145.253 602.422 143.893 602.422 142.4V130.12H606.742V141.6C606.742 143.387 607.115 144.68 607.862 145.48C608.609 146.28 609.835 146.68 611.542 146.68C612.662 146.68 613.609 146.507 614.382 146.16C615.155 145.787 615.742 145.213 616.142 144.44C616.542 143.64 616.742 142.6 616.742 141.32H617.862V146.04H616.902C616.609 146.787 616.155 147.493 615.542 148.16C614.955 148.827 614.195 149.373 613.262 149.8C612.355 150.2 611.249 150.4 609.942 150.4ZM621.062 150H617.062V144.04L616.742 143.84V130.12H621.062V150ZM629.635 150H625.315V130H629.275V135.56L629.635 135.76V150ZM629.635 137.04H628.635V133.16H629.475C629.875 132.227 630.529 131.427 631.435 130.76C632.369 130.067 633.569 129.72 635.035 129.72C636.449 129.72 637.569 130.027 638.395 130.64C639.249 131.253 639.862 132.067 640.235 133.08C640.609 134.093 640.795 135.227 640.795 136.48V137.8H636.475V137C636.475 135.667 636.249 134.733 635.795 134.2C635.342 133.667 634.489 133.4 633.235 133.4C631.929 133.4 630.995 133.68 630.435 134.24C629.902 134.773 629.635 135.707 629.635 137.04ZM652.398 150.4C650.238 150.4 648.438 149.973 646.998 149.12C645.558 148.24 644.491 147.027 643.798 145.48C643.104 143.907 642.757 142.093 642.757 140.04C642.757 137.987 643.144 136.187 643.918 134.64C644.718 133.093 645.838 131.893 647.278 131.04C648.718 130.16 650.424 129.72 652.398 129.72C654.184 129.72 655.758 130.067 657.118 130.76C658.504 131.427 659.571 132.4 660.318 133.68C661.091 134.96 661.478 136.507 661.478 138.32C661.478 138.853 661.451 139.373 661.398 139.88C661.371 140.36 661.331 140.76 661.278 141.08H644.798V138.2H657.758L657.318 138.6C657.424 137.373 657.291 136.373 656.918 135.6C656.571 134.827 655.998 134.253 655.198 133.88C654.424 133.507 653.451 133.32 652.278 133.32C650.171 133.32 648.731 133.853 647.958 134.92C647.184 135.96 646.798 137.4 646.798 139.24V140.44C646.798 141.773 646.958 142.907 647.278 143.84C647.624 144.747 648.211 145.427 649.038 145.88C649.864 146.333 650.998 146.56 652.438 146.56C654.118 146.56 655.304 146.293 655.998 145.76C656.691 145.227 657.038 144.52 657.038 143.64V143.32H661.318V143.68C661.318 145.04 660.944 146.227 660.198 147.24C659.451 148.227 658.411 149 657.078 149.56C655.771 150.12 654.211 150.4 652.398 150.4ZM289.226 199H285.226V195.08L285.106 194V186.36C285.106 184.867 284.746 183.853 284.026 183.32C283.332 182.787 282.199 182.52 280.626 182.52C279.052 182.52 277.919 182.8 277.226 183.36C276.559 183.92 276.226 184.853 276.226 186.16V186.76H272.066V186.36C272.066 184.867 272.426 183.547 273.146 182.4C273.892 181.253 274.919 180.36 276.226 179.72C277.559 179.053 279.106 178.72 280.866 178.72C282.732 178.72 284.279 179.067 285.506 179.76C286.732 180.453 287.652 181.413 288.266 182.64C288.906 183.84 289.226 185.267 289.226 186.92V199ZM277.826 199.4C276.039 199.4 274.532 198.947 273.306 198.04C272.106 197.107 271.506 195.787 271.506 194.08C271.506 192.96 271.759 192.027 272.266 191.28C272.799 190.533 273.559 189.92 274.546 189.44C275.532 188.96 276.732 188.627 278.146 188.44L285.506 187.4V190.44L278.786 191.44C277.639 191.6 276.839 191.84 276.386 192.16C275.932 192.48 275.706 193.013 275.706 193.76C275.706 194.533 275.972 195.093 276.506 195.44C277.066 195.787 277.972 195.96 279.226 195.96C280.186 195.96 281.106 195.813 281.986 195.52C282.892 195.2 283.639 194.68 284.226 193.96C284.812 193.213 285.106 192.173 285.106 190.84L285.666 195.92L285.026 195.88C284.652 196.493 284.132 197.067 283.466 197.6C282.826 198.133 282.039 198.573 281.106 198.92C280.172 199.24 279.079 199.4 277.826 199.4ZM311.882 199H307.562V187.44C307.562 185.68 307.229 184.413 306.562 183.64C305.896 182.84 304.642 182.44 302.802 182.44C301.629 182.44 300.669 182.613 299.922 182.96C299.176 183.28 298.616 183.813 298.242 184.56C297.869 185.28 297.682 186.267 297.682 187.52H296.922L296.562 182.84H297.522C297.816 182.12 298.256 181.453 298.842 180.84C299.429 180.227 300.176 179.72 301.082 179.32C302.016 178.92 303.122 178.72 304.402 178.72C306.136 178.72 307.549 179.053 308.642 179.72C309.736 180.387 310.549 181.307 311.082 182.48C311.616 183.653 311.882 185 311.882 186.52V199ZM297.682 199H293.362V179.12H297.322V185.08L297.682 185.28V199ZM323.9 199.4C321.074 199.4 318.9 198.467 317.38 196.6C315.887 194.707 315.14 192.187 315.14 189.04C315.14 185.893 315.874 183.387 317.34 181.52C318.834 179.653 320.94 178.72 323.66 178.72C325.42 178.72 326.834 179.08 327.9 179.8C328.994 180.493 329.754 181.293 330.18 182.2H331.26L331.06 187.28H330.3C330.3 186.16 330.087 185.24 329.66 184.52C329.234 183.8 328.62 183.267 327.82 182.92C327.02 182.573 326.034 182.4 324.86 182.4C323.9 182.4 323.074 182.52 322.38 182.76C321.714 183 321.154 183.373 320.7 183.88C320.274 184.387 319.954 185.067 319.74 185.92C319.554 186.773 319.46 187.813 319.46 189.04C319.46 190.24 319.554 191.28 319.74 192.16C319.954 193.013 320.274 193.707 320.7 194.24C321.154 194.747 321.727 195.12 322.42 195.36C323.114 195.6 323.927 195.72 324.86 195.72C326.034 195.72 327.02 195.547 327.82 195.2C328.62 194.827 329.234 194.28 329.66 193.56C330.087 192.84 330.3 191.933 330.3 190.84H331.06L331.26 195.72H330.46C330.007 196.867 329.22 197.773 328.1 198.44C327.007 199.08 325.607 199.4 323.9 199.4ZM334.62 199H330.62V194.28L330.3 193.76V172.2H334.62V199ZM349.809 205.8C349.276 205.8 348.729 205.76 348.169 205.68C347.609 205.627 347.156 205.547 346.809 205.44V201.92H349.569C350.396 201.92 351.009 201.8 351.409 201.56C351.809 201.347 352.182 200.88 352.529 200.16L353.769 197.36L353.409 198.76L344.809 179.12H349.569L353.569 188.76L355.369 193.08H355.729L357.329 188.76L360.969 179.12H365.769L356.329 201.32C355.849 202.52 355.302 203.44 354.689 204.08C354.076 204.72 353.369 205.16 352.569 205.4C351.796 205.667 350.876 205.8 349.809 205.8ZM376.154 199.4C374.127 199.4 372.367 198.973 370.874 198.12C369.381 197.24 368.234 196.027 367.434 194.48C366.634 192.907 366.234 191.093 366.234 189.04C366.234 186.987 366.634 185.187 367.434 183.64C368.234 182.093 369.381 180.893 370.874 180.04C372.367 179.16 374.127 178.72 376.154 178.72C378.181 178.72 379.914 179.16 381.354 180.04C382.821 180.893 383.941 182.093 384.714 183.64C385.514 185.187 385.914 186.987 385.914 189.04C385.914 191.093 385.514 192.907 384.714 194.48C383.941 196.027 382.821 197.24 381.354 198.12C379.914 198.973 378.181 199.4 376.154 199.4ZM376.154 195.56C378.234 195.56 379.687 195.04 380.514 194C381.341 192.933 381.754 191.28 381.754 189.04C381.754 186.8 381.341 185.16 380.514 184.12C379.687 183.08 378.234 182.56 376.154 182.56C374.047 182.56 372.581 183.08 371.754 184.12C370.927 185.16 370.514 186.8 370.514 189.04C370.514 191.28 370.927 192.933 371.754 194C372.581 195.04 374.047 195.56 376.154 195.56ZM396.543 199.4C394.837 199.4 393.423 199.053 392.303 198.36C391.183 197.64 390.357 196.68 389.823 195.48C389.29 194.253 389.023 192.893 389.023 191.4V179.12H393.343V190.6C393.343 192.387 393.717 193.68 394.463 194.48C395.21 195.28 396.437 195.68 398.143 195.68C399.263 195.68 400.21 195.507 400.983 195.16C401.757 194.787 402.343 194.213 402.743 193.44C403.143 192.64 403.343 191.6 403.343 190.32H404.463V195.04H403.503C403.21 195.787 402.757 196.493 402.143 197.16C401.557 197.827 400.797 198.373 399.863 198.8C398.957 199.2 397.85 199.4 396.543 199.4ZM407.663 199H403.663V193.04L403.343 192.84V179.12H407.663V199ZM416.237 199H411.917V179H415.877V184.56L416.237 184.76V199ZM416.237 186.04H415.237V182.16H416.077C416.477 181.227 417.13 180.427 418.037 179.76C418.97 179.067 420.17 178.72 421.637 178.72C423.05 178.72 424.17 179.027 424.997 179.64C425.85 180.253 426.464 181.067 426.837 182.08C427.21 183.093 427.397 184.227 427.397 185.48V186.8H423.077V186C423.077 184.667 422.85 183.733 422.397 183.2C421.944 182.667 421.09 182.4 419.837 182.4C418.53 182.4 417.597 182.68 417.037 183.24C416.504 183.773 416.237 184.707 416.237 186.04ZM442.372 176.6H438.092V172.2H442.372V176.6ZM434.052 205.8V201.88H435.612C436.652 201.88 437.318 201.747 437.612 201.48C437.932 201.24 438.092 200.72 438.092 199.92V179.12H442.372V199C442.372 200.76 442.078 202.133 441.492 203.12C440.905 204.107 440.092 204.8 439.052 205.2C438.012 205.6 436.758 205.8 435.292 205.8C435.105 205.8 434.918 205.8 434.732 205.8C434.518 205.8 434.292 205.8 434.052 205.8ZM455.529 199.4C453.502 199.4 451.742 198.973 450.249 198.12C448.756 197.24 447.609 196.027 446.809 194.48C446.009 192.907 445.609 191.093 445.609 189.04C445.609 186.987 446.009 185.187 446.809 183.64C447.609 182.093 448.756 180.893 450.249 180.04C451.742 179.16 453.502 178.72 455.529 178.72C457.556 178.72 459.289 179.16 460.729 180.04C462.196 180.893 463.316 182.093 464.089 183.64C464.889 185.187 465.289 186.987 465.289 189.04C465.289 191.093 464.889 192.907 464.089 194.48C463.316 196.027 462.196 197.24 460.729 198.12C459.289 198.973 457.556 199.4 455.529 199.4ZM455.529 195.56C457.609 195.56 459.062 195.04 459.889 194C460.716 192.933 461.129 191.28 461.129 189.04C461.129 186.8 460.716 185.16 459.889 184.12C459.062 183.08 457.609 182.56 455.529 182.56C453.422 182.56 451.956 183.08 451.129 184.12C450.302 185.16 449.889 186.8 449.889 189.04C449.889 191.28 450.302 192.933 451.129 194C451.956 195.04 453.422 195.56 455.529 195.56ZM475.918 199.4C474.212 199.4 472.798 199.053 471.678 198.36C470.558 197.64 469.732 196.68 469.198 195.48C468.665 194.253 468.398 192.893 468.398 191.4V179.12H472.718V190.6C472.718 192.387 473.092 193.68 473.838 194.48C474.585 195.28 475.812 195.68 477.518 195.68C478.638 195.68 479.585 195.507 480.358 195.16C481.132 194.787 481.718 194.213 482.118 193.44C482.518 192.64 482.718 191.6 482.718 190.32H483.838V195.04H482.878C482.585 195.787 482.132 196.493 481.518 197.16C480.932 197.827 480.172 198.373 479.238 198.8C478.332 199.2 477.225 199.4 475.918 199.4ZM487.038 199H483.038V193.04L482.718 192.84V179.12H487.038V199ZM495.612 199H491.292V179H495.252V184.56L495.612 184.76V199ZM495.612 186.04H494.612V182.16H495.452C495.852 181.227 496.505 180.427 497.412 179.76C498.345 179.067 499.545 178.72 501.012 178.72C502.425 178.72 503.545 179.027 504.372 179.64C505.225 180.253 505.839 181.067 506.212 182.08C506.585 183.093 506.772 184.227 506.772 185.48V186.8H502.452V186C502.452 184.667 502.225 183.733 501.772 183.2C501.319 182.667 500.465 182.4 499.212 182.4C497.905 182.4 496.972 182.68 496.412 183.24C495.879 183.773 495.612 184.707 495.612 186.04ZM527.976 199H523.656V187.44C523.656 185.68 523.323 184.413 522.656 183.64C521.989 182.84 520.736 182.44 518.896 182.44C517.723 182.44 516.763 182.613 516.016 182.96C515.269 183.28 514.709 183.813 514.336 184.56C513.963 185.28 513.776 186.267 513.776 187.52H513.016L512.656 182.84H513.616C513.909 182.12 514.349 181.453 514.936 180.84C515.523 180.227 516.269 179.72 517.176 179.32C518.109 178.92 519.216 178.72 520.496 178.72C522.229 178.72 523.643 179.053 524.736 179.72C525.829 180.387 526.643 181.307 527.176 182.48C527.709 183.653 527.976 185 527.976 186.52V199ZM513.776 199H509.456V179.12H513.416V185.08L513.776 185.28V199ZM540.874 199.4C538.714 199.4 536.914 198.973 535.474 198.12C534.034 197.24 532.967 196.027 532.274 194.48C531.581 192.907 531.234 191.093 531.234 189.04C531.234 186.987 531.621 185.187 532.394 183.64C533.194 182.093 534.314 180.893 535.754 180.04C537.194 179.16 538.901 178.72 540.874 178.72C542.661 178.72 544.234 179.067 545.594 179.76C546.981 180.427 548.047 181.4 548.794 182.68C549.567 183.96 549.954 185.507 549.954 187.32C549.954 187.853 549.927 188.373 549.874 188.88C549.847 189.36 549.807 189.76 549.754 190.08H533.274V187.2H546.234L545.794 187.6C545.901 186.373 545.767 185.373 545.394 184.6C545.047 183.827 544.474 183.253 543.674 182.88C542.901 182.507 541.927 182.32 540.754 182.32C538.647 182.32 537.207 182.853 536.434 183.92C535.661 184.96 535.274 186.4 535.274 188.24V189.44C535.274 190.773 535.434 191.907 535.754 192.84C536.101 193.747 536.687 194.427 537.514 194.88C538.341 195.333 539.474 195.56 540.914 195.56C542.594 195.56 543.781 195.293 544.474 194.76C545.167 194.227 545.514 193.52 545.514 192.64V192.32H549.794V192.68C549.794 194.04 549.421 195.227 548.674 196.24C547.927 197.227 546.887 198 545.554 198.56C544.247 199.12 542.687 199.4 540.874 199.4ZM555.747 205.8C555.213 205.8 554.667 205.76 554.107 205.68C553.547 205.627 553.093 205.547 552.747 205.44V201.92H555.507C556.333 201.92 556.947 201.8 557.347 201.56C557.747 201.347 558.12 200.88 558.467 200.16L559.707 197.36L559.347 198.76L550.747 179.12H555.507L559.507 188.76L561.307 193.08H561.667L563.267 188.76L566.907 179.12H571.707L562.267 201.32C561.787 202.52 561.24 203.44 560.627 204.08C560.013 204.72 559.307 205.16 558.507 205.4C557.733 205.667 556.813 205.8 555.747 205.8ZM590.121 199.4C587.214 199.4 585.014 198.827 583.521 197.68C582.027 196.507 581.281 194.707 581.281 192.28V192.2H585.441V192.92C585.441 193.613 585.574 194.187 585.841 194.64C586.134 195.067 586.614 195.387 587.281 195.6C587.974 195.787 588.947 195.88 590.201 195.88C591.267 195.88 592.067 195.8 592.601 195.64C593.161 195.453 593.534 195.2 593.721 194.88C593.907 194.56 594.001 194.16 594.001 193.68C594.001 192.88 593.721 192.32 593.161 192C592.601 191.653 591.601 191.347 590.161 191.08L587.041 190.56C585.867 190.32 584.841 189.987 583.961 189.56C583.107 189.107 582.441 188.493 581.961 187.72C581.507 186.92 581.281 185.92 581.281 184.72C581.281 182.933 581.987 181.493 583.401 180.4C584.814 179.28 586.814 178.72 589.401 178.72C590.974 178.72 592.374 178.973 593.601 179.48C594.827 179.987 595.801 180.747 596.521 181.76C597.241 182.773 597.601 184.04 597.601 185.56V185.92H593.481V185.44C593.481 184.8 593.374 184.253 593.161 183.8C592.947 183.32 592.547 182.947 591.961 182.68C591.374 182.413 590.481 182.28 589.281 182.28C587.707 182.28 586.667 182.48 586.161 182.88C585.654 183.28 585.401 183.867 585.401 184.64C585.401 185.413 585.627 185.96 586.081 186.28C586.561 186.573 587.494 186.867 588.881 187.16L592.281 187.8C593.561 188.04 594.627 188.4 595.481 188.88C596.334 189.36 596.974 189.987 597.401 190.76C597.854 191.533 598.081 192.453 598.081 193.52C598.081 195.387 597.374 196.84 595.961 197.88C594.574 198.893 592.627 199.4 590.121 199.4ZM618.444 199H614.444V195.08L614.324 194V186.36C614.324 184.867 613.964 183.853 613.244 183.32C612.551 182.787 611.418 182.52 609.844 182.52C608.271 182.52 607.138 182.8 606.444 183.36C605.778 183.92 605.444 184.853 605.444 186.16V186.76H601.284V186.36C601.284 184.867 601.644 183.547 602.364 182.4C603.111 181.253 604.138 180.36 605.444 179.72C606.778 179.053 608.324 178.72 610.084 178.72C611.951 178.72 613.498 179.067 614.724 179.76C615.951 180.453 616.871 181.413 617.484 182.64C618.124 183.84 618.444 185.267 618.444 186.92V199ZM607.044 199.4C605.258 199.4 603.751 198.947 602.524 198.04C601.324 197.107 600.724 195.787 600.724 194.08C600.724 192.96 600.978 192.027 601.484 191.28C602.018 190.533 602.778 189.92 603.764 189.44C604.751 188.96 605.951 188.627 607.364 188.44L614.724 187.4V190.44L608.004 191.44C606.858 191.6 606.058 191.84 605.604 192.16C605.151 192.48 604.924 193.013 604.924 193.76C604.924 194.533 605.191 195.093 605.724 195.44C606.284 195.787 607.191 195.96 608.444 195.96C609.404 195.96 610.324 195.813 611.204 195.52C612.111 195.2 612.858 194.68 613.444 193.96C614.031 193.213 614.324 192.173 614.324 190.84L614.884 195.92L614.244 195.88C613.871 196.493 613.351 197.067 612.684 197.6C612.044 198.133 611.258 198.573 610.324 198.92C609.391 199.24 608.298 199.4 607.044 199.4ZM627.707 199H623.387V179.28C623.387 177.733 623.68 176.44 624.267 175.4C624.853 174.36 625.72 173.573 626.867 173.04C628.04 172.48 629.48 172.2 631.187 172.2C631.453 172.2 631.72 172.2 631.987 172.2C632.253 172.2 632.52 172.2 632.787 172.2V175.64H630.387C629.427 175.64 628.72 175.827 628.267 176.2C627.813 176.573 627.587 177.187 627.587 178.04V179.8L627.707 180.84V199ZM632.787 182.72H620.467V179.12H632.787V182.72ZM643.14 199.4C640.98 199.4 639.18 198.973 637.74 198.12C636.3 197.24 635.233 196.027 634.54 194.48C633.846 192.907 633.5 191.093 633.5 189.04C633.5 186.987 633.886 185.187 634.66 183.64C635.46 182.093 636.58 180.893 638.02 180.04C639.46 179.16 641.166 178.72 643.14 178.72C644.926 178.72 646.5 179.067 647.86 179.76C649.246 180.427 650.313 181.4 651.06 182.68C651.833 183.96 652.22 185.507 652.22 187.32C652.22 187.853 652.193 188.373 652.14 188.88C652.113 189.36 652.073 189.76 652.02 190.08H635.54V187.2H648.5L648.06 187.6C648.166 186.373 648.033 185.373 647.66 184.6C647.313 183.827 646.74 183.253 645.94 182.88C645.166 182.507 644.193 182.32 643.02 182.32C640.913 182.32 639.473 182.853 638.7 183.92C637.926 184.96 637.54 186.4 637.54 188.24V189.44C637.54 190.773 637.7 191.907 638.02 192.84C638.366 193.747 638.953 194.427 639.78 194.88C640.606 195.333 641.74 195.56 643.18 195.56C644.86 195.56 646.046 195.293 646.74 194.76C647.433 194.227 647.78 193.52 647.78 192.64V192.32H652.06V192.68C652.06 194.04 651.686 195.227 650.94 196.24C650.193 197.227 649.153 198 647.82 198.56C646.513 199.12 644.953 199.4 643.14 199.4ZM660.462 190.2H656.262C656.262 189.4 656.236 188.48 656.182 187.44C656.156 186.373 656.102 185.253 656.022 184.08C655.969 182.88 655.916 181.707 655.862 180.56C655.809 179.387 655.756 178.32 655.702 177.36C655.649 176.4 655.622 175.613 655.622 175V172.2H661.102V175C661.102 175.613 661.076 176.4 661.022 177.36C660.996 178.32 660.942 179.387 660.862 180.56C660.809 181.707 660.756 182.88 660.702 184.08C660.649 185.28 660.596 186.413 660.542 187.48C660.489 188.52 660.462 189.427 660.462 190.2ZM660.822 199H655.942V193.08H660.822V199Z" fill="white"/>
<path d="M550 547.667H333V501.111C333 484.648 339.532 468.859 351.159 457.218C362.787 445.577 378.557 439.037 395 439.037C424.779 439.037 451.575 460.375 457.31 488.677C458.161 492.676 460.555 496.177 463.971 498.419C467.386 500.662 471.547 501.463 475.55 500.651C479.553 499.838 483.074 497.476 485.347 494.079C487.62 490.682 488.462 486.524 487.69 482.508C478.932 439.328 439.95 408 395 408C370.343 408.026 346.703 417.844 329.267 435.3C311.832 452.756 302.026 476.424 302 501.111V547.667H240C231.778 547.667 223.893 550.937 218.08 556.757C212.266 562.578 209 570.472 209 578.704V795.963C209 804.194 212.266 812.089 218.08 817.909C223.893 823.73 231.778 827 240 827H550C558.222 827 566.107 823.73 571.92 817.909C577.734 812.089 581 804.194 581 795.963V578.704C581 570.472 577.734 562.578 571.92 556.757C566.107 550.937 558.222 547.667 550 547.667ZM410.5 700.194V749.407C410.5 753.523 408.867 757.47 405.96 760.381C403.053 763.291 399.111 764.926 395 764.926C390.889 764.926 386.947 763.291 384.04 760.381C381.133 757.47 379.5 753.523 379.5 749.407V700.194C369.158 696.534 360.442 689.33 354.892 679.858C349.342 670.385 347.315 659.253 349.17 648.429C351.025 637.605 356.642 627.785 365.028 620.707C373.415 613.628 384.031 609.746 395 609.746C405.969 609.746 416.585 613.628 424.972 620.707C433.358 627.785 438.975 637.605 440.83 648.429C442.685 659.253 440.658 670.385 435.108 679.858C429.558 689.33 420.842 696.534 410.5 700.194Z" fill="#2D3B40"/>
<rect x="106.1" y="681.1" width="298.8" height="50.8" rx="4.9" fill="#2D3B40"/>
<rect x="106.1" y="681.1" width="298.8" height="50.8" rx="4.9" stroke="#F2935C" stroke-width="0.2"/>
<circle cx="170.5" cy="706.5" r="13.5" fill="white"/>
<circle cx="170.5" cy="706.5" r="13.5" fill="white"/>
<circle cx="204.5" cy="706.5" r="13.5" fill="white"/>
<circle cx="204.5" cy="706.5" r="13.5" fill="white"/>
<circle cx="238.5" cy="706.5" r="13.5" fill="white"/>
<circle cx="238.5" cy="706.5" r="13.5" fill="white"/>
<circle cx="272.5" cy="706.5" r="13.5" fill="white"/>
<circle cx="272.5" cy="706.5" r="13.5" fill="white"/>
<circle cx="306.5" cy="706.5" r="13.5" fill="white"/>
<circle cx="306.5" cy="706.5" r="13.5" fill="white"/>
<circle cx="340.5" cy="706.5" r="13.5" fill="white"/>
<circle cx="340.5" cy="706.5" r="13.5" fill="white"/>
<rect x="528" y="774" width="93" height="91" rx="12" fill="#2D3B40"/>
<path d="M528 786C528 779.373 533.373 774 540 774H581V812C581 820.284 574.284 827 566 827H528V786Z" fill="white"/>
<path d="M554 787.764C553.192 787.914 552.242 788.239 550.784 788.739L550.02 789C546.011 790.372 544.007 791.059 543.503 791.776C543.011 792.477 543 794.532 543 798.612L554 794.945V787.764Z" fill="#F2935C"/>
<path d="M554 797.053L543 800.72V800.988C543 808.505 548.652 812.153 552.198 813.702C552.879 814 553.319 814.192 554 814.279V797.053Z" fill="#F2935C"/>
<path d="M556 814.279V797.053L567 800.72V800.988C567 808.505 561.348 812.153 557.802 813.702C557.121 814 556.681 814.192 556 814.279Z" fill="#F2935C"/>
<path d="M556 794.945V787.764C556.808 787.914 557.758 788.239 559.216 788.739L559.98 789C563.989 790.372 565.993 791.059 566.497 791.776C566.989 792.477 567 794.532 567 798.612L556 794.945Z" fill="#F2935C"/>
</g>
<path d="M673.014 1226.11C673.014 1226.82 672.439 1227.4 671.73 1227.4H657.783C656.47 1227.4 656.004 1229.15 657.142 1229.8L662.36 1232.83C662.757 1233.06 663.246 1233.06 663.643 1232.83L682.358 1221.97C682.755 1221.74 683 1221.32 683 1220.86V1212.23C683 1211.24 681.929 1210.62 681.074 1211.12L673.655 1215.43C673.258 1215.66 673.014 1216.08 673.014 1216.54V1226.11Z" fill="white"/>
<path d="M643 1220.86C643 1221.32 643.244 1221.74 643.641 1221.97L651.06 1226.28C651.916 1226.78 652.986 1226.16 652.986 1225.17V1216.54C652.986 1216.08 652.742 1215.66 652.345 1215.43L644.926 1211.12C644.071 1210.62 643 1211.24 643 1212.23V1220.86Z" fill="white"/>
<path d="M650.594 1196.77C651.25 1195.63 649.976 1194.35 648.84 1195.01L643.641 1198.03C643.244 1198.26 643 1198.68 643 1199.14V1205.18C643 1206.5 644.74 1206.97 645.396 1205.83L650.594 1196.77Z" fill="white"/>
<path d="M663.643 1198.77C663.246 1198.54 662.757 1198.54 662.36 1198.77L653.632 1203.83C653.235 1204.06 652.99 1204.48 652.99 1204.94V1215.06C652.99 1215.52 653.235 1215.94 653.632 1216.17L662.36 1221.23C662.757 1221.46 663.246 1221.46 663.643 1221.23L672.372 1216.17C672.769 1215.94 673.014 1215.52 673.014 1215.06V1204.94C673.014 1204.48 672.769 1204.06 672.372 1203.83L663.643 1198.77Z" fill="white"/>
<path d="M677.156 1195.01C676.019 1194.35 674.745 1195.63 675.401 1196.77L680.6 1205.83C681.256 1206.97 682.996 1206.5 682.996 1205.18V1199.14C682.996 1198.68 682.751 1198.26 682.355 1198.03L677.156 1195.01Z" fill="white"/>
<path d="M663.643 1187.17C663.246 1186.94 662.757 1186.94 662.36 1187.17L654.917 1191.48C654.061 1191.98 654.061 1193.22 654.917 1193.72L662.36 1198.03C662.757 1198.26 663.246 1198.26 663.643 1198.03L671.087 1193.72C671.943 1193.22 671.943 1191.98 671.087 1191.48L663.643 1187.17Z" fill="white"/>
<defs>
<clipPath id="clip0_18934_20094">
<rect width="727" height="1272" rx="20.1569" fill="white"/>
</clipPath>
</defs>
</svg>
