<svg width="727" height="1272" viewBox="0 0 727 1272" fill="none" xmlns="http://www.w3.org/2000/svg">
<g clip-path="url(#clip0_18960_20622)">
<rect width="728" height="1273" rx="20.1569" fill="#F2935C"/>
<rect x="-122" y="743" width="632" height="632" rx="316" fill="#2D3B40"/>
<path d="M104.912 101H100.592V74.2H104.912V101ZM119.752 101H101.912V97.08H119.752V101ZM119.152 89.48H101.912V85.56H119.152V89.48ZM119.752 78.08H101.912V74.2H119.752V78.08ZM141.999 101H137.679V89.44C137.679 87.68 137.346 86.4133 136.679 85.64C136.013 84.84 134.759 84.44 132.919 84.44C131.746 84.44 130.786 84.6133 130.039 84.96C129.293 85.28 128.733 85.8133 128.359 86.56C127.986 87.28 127.799 88.2667 127.799 89.52H127.039L126.679 84.84H127.639C127.933 84.12 128.373 83.4533 128.959 82.84C129.546 82.2267 130.293 81.72 131.199 81.32C132.133 80.92 133.239 80.72 134.519 80.72C136.253 80.72 137.666 81.0533 138.759 81.72C139.853 82.3867 140.666 83.3067 141.199 84.48C141.733 85.6533 141.999 87 141.999 88.52V101ZM127.799 101H123.479V81.12H127.439V87.08L127.799 87.28V101ZM154.221 101C152.035 101 150.355 100.533 149.181 99.6C148.035 98.6667 147.461 97.0933 147.461 94.88V81.56L148.461 76.2H151.781V94.68C151.781 95.72 152.035 96.3867 152.541 96.68C153.075 96.9467 154.021 97.08 155.381 97.08H157.781V100.64C157.381 100.747 156.861 100.84 156.221 100.92C155.581 100.973 154.915 101 154.221 101ZM157.781 84.72H144.141V81.12H157.781V84.72ZM168.843 101.4C166.683 101.4 164.883 100.973 163.443 100.12C162.003 99.24 160.936 98.0267 160.243 96.48C159.549 94.9067 159.203 93.0933 159.203 91.04C159.203 88.9867 159.589 87.1867 160.363 85.64C161.163 84.0933 162.283 82.8933 163.723 82.04C165.163 81.16 166.869 80.72 168.843 80.72C170.629 80.72 172.203 81.0667 173.563 81.76C174.949 82.4267 176.016 83.4 176.763 84.68C177.536 85.96 177.923 87.5067 177.923 89.32C177.923 89.8533 177.896 90.3733 177.843 90.88C177.816 91.36 177.776 91.76 177.723 92.08H161.243V89.2H174.203L173.763 89.6C173.869 88.3733 173.736 87.3733 173.363 86.6C173.016 85.8267 172.443 85.2533 171.643 84.88C170.869 84.5067 169.896 84.32 168.723 84.32C166.616 84.32 165.176 84.8533 164.403 85.92C163.629 86.96 163.243 88.4 163.243 90.24V91.44C163.243 92.7733 163.403 93.9067 163.723 94.84C164.069 95.7467 164.656 96.4267 165.483 96.88C166.309 97.3333 167.443 97.56 168.883 97.56C170.563 97.56 171.749 97.2933 172.443 96.76C173.136 96.2267 173.483 95.52 173.483 94.64V94.32H177.763V94.68C177.763 96.04 177.389 97.2267 176.643 98.24C175.896 99.2267 174.856 100 173.523 100.56C172.216 101.12 170.656 101.4 168.843 101.4ZM185.69 101H181.37V81H185.33V86.56L185.69 86.76V101ZM185.69 88.04H184.69V84.16H185.53C185.93 83.2267 186.583 82.4267 187.49 81.76C188.423 81.0667 189.623 80.72 191.09 80.72C192.503 80.72 193.623 81.0267 194.45 81.64C195.303 82.2533 195.917 83.0667 196.29 84.08C196.663 85.0933 196.85 86.2267 196.85 87.48V88.8H192.53V88C192.53 86.6667 192.303 85.7333 191.85 85.2C191.397 84.6667 190.543 84.4 189.29 84.4C187.983 84.4 187.05 84.68 186.49 85.24C185.957 85.7733 185.69 86.7067 185.69 88.04ZM210.825 107.8C210.291 107.8 209.745 107.76 209.185 107.68C208.625 107.627 208.171 107.547 207.825 107.44V103.92H210.585C211.411 103.92 212.025 103.8 212.425 103.56C212.825 103.347 213.198 102.88 213.545 102.16L214.785 99.36L214.425 100.76L205.825 81.12H210.585L214.585 90.76L216.385 95.08H216.745L218.345 90.76L221.985 81.12H226.785L217.345 103.32C216.865 104.52 216.318 105.44 215.705 106.08C215.091 106.72 214.385 107.16 213.585 107.4C212.811 107.667 211.891 107.8 210.825 107.8ZM237.17 101.4C235.143 101.4 233.383 100.973 231.89 100.12C230.396 99.24 229.25 98.0267 228.45 96.48C227.65 94.9067 227.25 93.0933 227.25 91.04C227.25 88.9867 227.65 87.1867 228.45 85.64C229.25 84.0933 230.396 82.8933 231.89 82.04C233.383 81.16 235.143 80.72 237.17 80.72C239.196 80.72 240.93 81.16 242.37 82.04C243.836 82.8933 244.956 84.0933 245.73 85.64C246.53 87.1867 246.93 88.9867 246.93 91.04C246.93 93.0933 246.53 94.9067 245.73 96.48C244.956 98.0267 243.836 99.24 242.37 100.12C240.93 100.973 239.196 101.4 237.17 101.4ZM237.17 97.56C239.25 97.56 240.703 97.04 241.53 96C242.356 94.9333 242.77 93.28 242.77 91.04C242.77 88.8 242.356 87.16 241.53 86.12C240.703 85.08 239.25 84.56 237.17 84.56C235.063 84.56 233.596 85.08 232.77 86.12C231.943 87.16 231.53 88.8 231.53 91.04C231.53 93.28 231.943 94.9333 232.77 96C233.596 97.04 235.063 97.56 237.17 97.56ZM257.559 101.4C255.852 101.4 254.439 101.053 253.319 100.36C252.199 99.64 251.372 98.68 250.839 97.48C250.306 96.2533 250.039 94.8933 250.039 93.4V81.12H254.359V92.6C254.359 94.3867 254.732 95.68 255.479 96.48C256.226 97.28 257.452 97.68 259.159 97.68C260.279 97.68 261.226 97.5067 261.999 97.16C262.772 96.7867 263.359 96.2133 263.759 95.44C264.159 94.64 264.359 93.6 264.359 92.32H265.479V97.04H264.519C264.226 97.7867 263.772 98.4933 263.159 99.16C262.572 99.8267 261.812 100.373 260.879 100.8C259.972 101.2 258.866 101.4 257.559 101.4ZM268.679 101H264.679V95.04L264.359 94.84V81.12H268.679V101ZM277.253 101H272.933V81H276.893V86.56L277.253 86.76V101ZM277.253 88.04H276.253V84.16H277.093C277.493 83.2267 278.146 82.4267 279.053 81.76C279.986 81.0667 281.186 80.72 282.653 80.72C284.066 80.72 285.186 81.0267 286.013 81.64C286.866 82.2533 287.479 83.0667 287.853 84.08C288.226 85.0933 288.413 86.2267 288.413 87.48V88.8H284.093V88C284.093 86.6667 283.866 85.7333 283.413 85.2C282.959 84.6667 282.106 84.4 280.853 84.4C279.546 84.4 278.613 84.68 278.053 85.24C277.519 85.7733 277.253 86.7067 277.253 88.04ZM306.947 101.4C304.121 101.4 301.947 100.467 300.427 98.6C298.934 96.7067 298.187 94.1867 298.187 91.04C298.187 87.8933 298.921 85.3867 300.387 83.52C301.881 81.6533 303.987 80.72 306.707 80.72C308.467 80.72 309.881 81.08 310.947 81.8C312.041 82.4933 312.801 83.2933 313.227 84.2H314.307L314.107 89.28H313.347C313.347 88.16 313.134 87.24 312.707 86.52C312.281 85.8 311.667 85.2667 310.867 84.92C310.067 84.5733 309.081 84.4 307.907 84.4C306.947 84.4 306.121 84.52 305.427 84.76C304.761 85 304.201 85.3733 303.747 85.88C303.321 86.3867 303.001 87.0667 302.787 87.92C302.601 88.7733 302.507 89.8133 302.507 91.04C302.507 92.24 302.601 93.28 302.787 94.16C303.001 95.0133 303.321 95.7067 303.747 96.24C304.201 96.7467 304.774 97.12 305.467 97.36C306.161 97.6 306.974 97.72 307.907 97.72C309.081 97.72 310.067 97.5467 310.867 97.2C311.667 96.8267 312.281 96.28 312.707 95.56C313.134 94.84 313.347 93.9333 313.347 92.84H314.107L314.307 97.72H313.507C313.054 98.8667 312.267 99.7733 311.147 100.44C310.054 101.08 308.654 101.4 306.947 101.4ZM317.667 101H313.667V96.28L313.347 95.76V74.2H317.667V101ZM330.601 101.4C328.441 101.4 326.641 100.973 325.201 100.12C323.761 99.24 322.694 98.0267 322.001 96.48C321.307 94.9067 320.961 93.0933 320.961 91.04C320.961 88.9867 321.347 87.1867 322.121 85.64C322.921 84.0933 324.041 82.8933 325.481 82.04C326.921 81.16 328.627 80.72 330.601 80.72C332.387 80.72 333.961 81.0667 335.321 81.76C336.707 82.4267 337.774 83.4 338.521 84.68C339.294 85.96 339.681 87.5067 339.681 89.32C339.681 89.8533 339.654 90.3733 339.601 90.88C339.574 91.36 339.534 91.76 339.481 92.08H323.001V89.2H335.961L335.521 89.6C335.627 88.3733 335.494 87.3733 335.121 86.6C334.774 85.8267 334.201 85.2533 333.401 84.88C332.627 84.5067 331.654 84.32 330.481 84.32C328.374 84.32 326.934 84.8533 326.161 85.92C325.387 86.96 325.001 88.4 325.001 90.24V91.44C325.001 92.7733 325.161 93.9067 325.481 94.84C325.827 95.7467 326.414 96.4267 327.241 96.88C328.067 97.3333 329.201 97.56 330.641 97.56C332.321 97.56 333.507 97.2933 334.201 96.76C334.894 96.2267 335.241 95.52 335.241 94.64V94.32H339.521V94.68C339.521 96.04 339.147 97.2267 338.401 98.24C337.654 99.2267 336.614 100 335.281 100.56C333.974 101.12 332.414 101.4 330.601 101.4ZM351.253 101C349.066 101 347.386 100.533 346.213 99.6C345.066 98.6667 344.493 97.0933 344.493 94.88V81.56L345.493 76.2H348.813V94.68C348.813 95.72 349.066 96.3867 349.573 96.68C350.106 96.9467 351.053 97.08 352.413 97.08H354.813V100.64C354.413 100.747 353.893 100.84 353.253 100.92C352.613 100.973 351.946 101 351.253 101ZM354.813 84.72H341.173V81.12H354.813V84.72ZM374.499 101H370.499V97.08L370.379 96V88.36C370.379 86.8667 370.019 85.8533 369.299 85.32C368.606 84.7867 367.472 84.52 365.899 84.52C364.326 84.52 363.192 84.8 362.499 85.36C361.832 85.92 361.499 86.8533 361.499 88.16V88.76H357.339V88.36C357.339 86.8667 357.699 85.5467 358.419 84.4C359.166 83.2533 360.192 82.36 361.499 81.72C362.832 81.0533 364.379 80.72 366.139 80.72C368.006 80.72 369.552 81.0667 370.779 81.76C372.006 82.4533 372.926 83.4133 373.539 84.64C374.179 85.84 374.499 87.2667 374.499 88.92V101ZM363.099 101.4C361.312 101.4 359.806 100.947 358.579 100.04C357.379 99.1067 356.779 97.7867 356.779 96.08C356.779 94.96 357.032 94.0267 357.539 93.28C358.072 92.5333 358.832 91.92 359.819 91.44C360.806 90.96 362.006 90.6267 363.419 90.44L370.779 89.4V92.44L364.059 93.44C362.912 93.6 362.112 93.84 361.659 94.16C361.206 94.48 360.979 95.0133 360.979 95.76C360.979 96.5333 361.246 97.0933 361.779 97.44C362.339 97.7867 363.246 97.96 364.499 97.96C365.459 97.96 366.379 97.8133 367.259 97.52C368.166 97.2 368.912 96.68 369.499 95.96C370.086 95.2133 370.379 94.1733 370.379 92.84L370.939 97.92L370.299 97.88C369.926 98.4933 369.406 99.0667 368.739 99.6C368.099 100.133 367.312 100.573 366.379 100.92C365.446 101.24 364.352 101.4 363.099 101.4ZM382.676 78.6H378.396L378.356 74.2H382.676V78.6ZM382.716 101H378.396V81H382.716V101ZM391.003 101H386.683V74.2H391.003V101ZM403.48 101.4C400.573 101.4 398.373 100.827 396.88 99.68C395.387 98.5067 394.64 96.7067 394.64 94.28V94.2H398.8V94.92C398.8 95.6133 398.933 96.1867 399.2 96.64C399.493 97.0667 399.973 97.3867 400.64 97.6C401.333 97.7867 402.307 97.88 403.56 97.88C404.627 97.88 405.427 97.8 405.96 97.64C406.52 97.4533 406.893 97.2 407.08 96.88C407.267 96.56 407.36 96.16 407.36 95.68C407.36 94.88 407.08 94.32 406.52 94C405.96 93.6533 404.96 93.3467 403.52 93.08L400.4 92.56C399.227 92.32 398.2 91.9867 397.32 91.56C396.467 91.1067 395.8 90.4933 395.32 89.72C394.867 88.92 394.64 87.92 394.64 86.72C394.64 84.9333 395.347 83.4933 396.76 82.4C398.173 81.28 400.173 80.72 402.76 80.72C404.333 80.72 405.733 80.9733 406.96 81.48C408.187 81.9867 409.16 82.7467 409.88 83.76C410.6 84.7733 410.96 86.04 410.96 87.56V87.92H406.84V87.44C406.84 86.8 406.733 86.2533 406.52 85.8C406.307 85.32 405.907 84.9467 405.32 84.68C404.733 84.4133 403.84 84.28 402.64 84.28C401.067 84.28 400.027 84.48 399.52 84.88C399.013 85.28 398.76 85.8667 398.76 86.64C398.76 87.4133 398.987 87.96 399.44 88.28C399.92 88.5733 400.853 88.8667 402.24 89.16L405.64 89.8C406.92 90.04 407.987 90.4 408.84 90.88C409.693 91.36 410.333 91.9867 410.76 92.76C411.213 93.5333 411.44 94.4533 411.44 95.52C411.44 97.3867 410.733 98.84 409.32 99.88C407.933 100.893 405.987 101.4 403.48 101.4ZM430.784 101C428.597 101 426.917 100.533 425.744 99.6C424.597 98.6667 424.024 97.0933 424.024 94.88V81.56L425.024 76.2H428.344V94.68C428.344 95.72 428.597 96.3867 429.104 96.68C429.637 96.9467 430.584 97.08 431.944 97.08H434.344V100.64C433.944 100.747 433.424 100.84 432.784 100.92C432.144 100.973 431.477 101 430.784 101ZM434.344 84.72H420.704V81.12H434.344V84.72ZM445.685 101.4C443.659 101.4 441.899 100.973 440.405 100.12C438.912 99.24 437.765 98.0267 436.965 96.48C436.165 94.9067 435.765 93.0933 435.765 91.04C435.765 88.9867 436.165 87.1867 436.965 85.64C437.765 84.0933 438.912 82.8933 440.405 82.04C441.899 81.16 443.659 80.72 445.685 80.72C447.712 80.72 449.445 81.16 450.885 82.04C452.352 82.8933 453.472 84.0933 454.245 85.64C455.045 87.1867 455.445 88.9867 455.445 91.04C455.445 93.0933 455.045 94.9067 454.245 96.48C453.472 98.0267 452.352 99.24 450.885 100.12C449.445 100.973 447.712 101.4 445.685 101.4ZM445.685 97.56C447.765 97.56 449.219 97.04 450.045 96C450.872 94.9333 451.285 93.28 451.285 91.04C451.285 88.8 450.872 87.16 450.045 86.12C449.219 85.08 447.765 84.56 445.685 84.56C443.579 84.56 442.112 85.08 441.285 86.12C440.459 87.16 440.045 88.8 440.045 91.04C440.045 93.28 440.459 94.9333 441.285 96C442.112 97.04 443.579 97.56 445.685 97.56ZM475.809 108.2C473.942 108.2 472.316 107.907 470.929 107.32C469.569 106.733 468.516 105.88 467.769 104.76C467.022 103.667 466.649 102.32 466.649 100.72H470.969C470.969 101.627 471.102 102.347 471.369 102.88C471.636 103.413 472.129 103.787 472.849 104C473.569 104.24 474.596 104.36 475.929 104.36C477.236 104.36 478.236 104.213 478.929 103.92C479.622 103.627 480.102 103.133 480.369 102.44C480.636 101.747 480.769 100.787 480.769 99.56V86.36L481.089 85.84V81.12H485.089V99.56C485.089 101.507 484.716 103.107 483.969 104.36C483.222 105.64 482.156 106.6 480.769 107.24C479.409 107.88 477.756 108.2 475.809 108.2ZM474.129 99.12C471.382 99.12 469.276 98.2933 467.809 96.64C466.342 94.96 465.609 92.72 465.609 89.92C465.609 87.12 466.356 84.8933 467.849 83.24C469.342 81.56 471.489 80.72 474.289 80.72C475.916 80.72 477.316 81.0533 478.489 81.72C479.662 82.36 480.476 83.2533 480.929 84.4H481.729L481.529 89.28H480.769C480.769 88.16 480.542 87.24 480.089 86.52C479.636 85.8 478.996 85.2667 478.169 84.92C477.342 84.5733 476.382 84.4 475.289 84.4C474.036 84.4 473.009 84.5733 472.209 84.92C471.436 85.2667 470.862 85.8533 470.489 86.68C470.116 87.48 469.929 88.56 469.929 89.92C469.929 90.9333 470.036 91.8 470.249 92.52C470.462 93.2133 470.796 93.7733 471.249 94.2C471.702 94.6267 472.276 94.9467 472.969 95.16C473.662 95.3467 474.462 95.44 475.369 95.44C476.462 95.44 477.409 95.2667 478.209 94.92C479.009 94.5467 479.636 94 480.089 93.28C480.542 92.56 480.769 91.64 480.769 90.52H481.649V95.6H480.609C480.156 96.56 479.369 97.3867 478.249 98.08C477.129 98.7733 475.756 99.12 474.129 99.12ZM497.983 101.4C495.823 101.4 494.023 100.973 492.583 100.12C491.143 99.24 490.077 98.0267 489.383 96.48C488.69 94.9067 488.343 93.0933 488.343 91.04C488.343 88.9867 488.73 87.1867 489.503 85.64C490.303 84.0933 491.423 82.8933 492.863 82.04C494.303 81.16 496.01 80.72 497.983 80.72C499.77 80.72 501.343 81.0667 502.703 81.76C504.09 82.4267 505.157 83.4 505.903 84.68C506.677 85.96 507.063 87.5067 507.063 89.32C507.063 89.8533 507.037 90.3733 506.983 90.88C506.957 91.36 506.917 91.76 506.863 92.08H490.383V89.2H503.343L502.903 89.6C503.01 88.3733 502.877 87.3733 502.503 86.6C502.157 85.8267 501.583 85.2533 500.783 84.88C500.01 84.5067 499.037 84.32 497.863 84.32C495.757 84.32 494.317 84.8533 493.543 85.92C492.77 86.96 492.383 88.4 492.383 90.24V91.44C492.383 92.7733 492.543 93.9067 492.863 94.84C493.21 95.7467 493.797 96.4267 494.623 96.88C495.45 97.3333 496.583 97.56 498.023 97.56C499.703 97.56 500.89 97.2933 501.583 96.76C502.277 96.2267 502.623 95.52 502.623 94.64V94.32H506.903V94.68C506.903 96.04 506.53 97.2267 505.783 98.24C505.037 99.2267 503.997 100 502.663 100.56C501.357 101.12 499.797 101.4 497.983 101.4ZM518.635 101C516.449 101 514.769 100.533 513.595 99.6C512.449 98.6667 511.875 97.0933 511.875 94.88V81.56L512.875 76.2H516.195V94.68C516.195 95.72 516.449 96.3867 516.955 96.68C517.489 96.9467 518.435 97.08 519.795 97.08H522.195V100.64C521.795 100.747 521.275 100.84 520.635 100.92C519.995 100.973 519.329 101 518.635 101ZM522.195 84.72H508.555V81.12H522.195V84.72ZM541.058 101.4C538.151 101.4 535.951 100.827 534.458 99.68C532.965 98.5067 532.218 96.7067 532.218 94.28V94.2H536.378V94.92C536.378 95.6133 536.511 96.1867 536.778 96.64C537.071 97.0667 537.551 97.3867 538.218 97.6C538.911 97.7867 539.885 97.88 541.138 97.88C542.205 97.88 543.005 97.8 543.538 97.64C544.098 97.4533 544.471 97.2 544.658 96.88C544.845 96.56 544.938 96.16 544.938 95.68C544.938 94.88 544.658 94.32 544.098 94C543.538 93.6533 542.538 93.3467 541.098 93.08L537.978 92.56C536.805 92.32 535.778 91.9867 534.898 91.56C534.045 91.1067 533.378 90.4933 532.898 89.72C532.445 88.92 532.218 87.92 532.218 86.72C532.218 84.9333 532.925 83.4933 534.338 82.4C535.751 81.28 537.751 80.72 540.338 80.72C541.911 80.72 543.311 80.9733 544.538 81.48C545.765 81.9867 546.738 82.7467 547.458 83.76C548.178 84.7733 548.538 86.04 548.538 87.56V87.92H544.418V87.44C544.418 86.8 544.311 86.2533 544.098 85.8C543.885 85.32 543.485 84.9467 542.898 84.68C542.311 84.4133 541.418 84.28 540.218 84.28C538.645 84.28 537.605 84.48 537.098 84.88C536.591 85.28 536.338 85.8667 536.338 86.64C536.338 87.4133 536.565 87.96 537.018 88.28C537.498 88.5733 538.431 88.8667 539.818 89.16L543.218 89.8C544.498 90.04 545.565 90.4 546.418 90.88C547.271 91.36 547.911 91.9867 548.338 92.76C548.791 93.5333 549.018 94.4533 549.018 95.52C549.018 97.3867 548.311 98.84 546.898 99.88C545.511 100.893 543.565 101.4 541.058 101.4ZM560.588 101C558.402 101 556.722 100.533 555.548 99.6C554.402 98.6667 553.828 97.0933 553.828 94.88V81.56L554.828 76.2H558.148V94.68C558.148 95.72 558.402 96.3867 558.908 96.68C559.442 96.9467 560.388 97.08 561.748 97.08H564.148V100.64C563.748 100.747 563.228 100.84 562.588 100.92C561.948 100.973 561.282 101 560.588 101ZM564.148 84.72H550.508V81.12H564.148V84.72ZM583.835 101H579.835V97.08L579.715 96V88.36C579.715 86.8667 579.355 85.8533 578.635 85.32C577.942 84.7867 576.808 84.52 575.235 84.52C573.662 84.52 572.528 84.8 571.835 85.36C571.168 85.92 570.835 86.8533 570.835 88.16V88.76H566.675V88.36C566.675 86.8667 567.035 85.5467 567.755 84.4C568.502 83.2533 569.528 82.36 570.835 81.72C572.168 81.0533 573.715 80.72 575.475 80.72C577.342 80.72 578.888 81.0667 580.115 81.76C581.342 82.4533 582.262 83.4133 582.875 84.64C583.515 85.84 583.835 87.2667 583.835 88.92V101ZM572.435 101.4C570.648 101.4 569.142 100.947 567.915 100.04C566.715 99.1067 566.115 97.7867 566.115 96.08C566.115 94.96 566.368 94.0267 566.875 93.28C567.408 92.5333 568.168 91.92 569.155 91.44C570.142 90.96 571.342 90.6267 572.755 90.44L580.115 89.4V92.44L573.395 93.44C572.248 93.6 571.448 93.84 570.995 94.16C570.542 94.48 570.315 95.0133 570.315 95.76C570.315 96.5333 570.582 97.0933 571.115 97.44C571.675 97.7867 572.582 97.96 573.835 97.96C574.795 97.96 575.715 97.8133 576.595 97.52C577.502 97.2 578.248 96.68 578.835 95.96C579.422 95.2133 579.715 94.1733 579.715 92.84L580.275 97.92L579.635 97.88C579.262 98.4933 578.742 99.0667 578.075 99.6C577.435 100.133 576.648 100.573 575.715 100.92C574.782 101.24 573.688 101.4 572.435 101.4ZM592.292 101H587.972V81H591.932V86.56L592.292 86.76V101ZM592.292 88.04H591.292V84.16H592.132C592.532 83.2267 593.185 82.4267 594.092 81.76C595.025 81.0667 596.225 80.72 597.692 80.72C599.105 80.72 600.225 81.0267 601.052 81.64C601.905 82.2533 602.518 83.0667 602.892 84.08C603.265 85.0933 603.452 86.2267 603.452 87.48V88.8H599.132V88C599.132 86.6667 598.905 85.7333 598.452 85.2C597.998 84.6667 597.145 84.4 595.892 84.4C594.585 84.4 593.652 84.68 593.092 85.24C592.558 85.7733 592.292 86.7067 592.292 88.04ZM614.846 101C612.66 101 610.98 100.533 609.806 99.6C608.66 98.6667 608.086 97.0933 608.086 94.88V81.56L609.086 76.2H612.406V94.68C612.406 95.72 612.66 96.3867 613.166 96.68C613.7 96.9467 614.646 97.08 616.006 97.08H618.406V100.64C618.006 100.747 617.486 100.84 616.846 100.92C616.206 100.973 615.54 101 614.846 101ZM618.406 84.72H604.766V81.12H618.406V84.72ZM629.468 101.4C627.308 101.4 625.508 100.973 624.068 100.12C622.628 99.24 621.561 98.0267 620.868 96.48C620.174 94.9067 619.828 93.0933 619.828 91.04C619.828 88.9867 620.214 87.1867 620.988 85.64C621.788 84.0933 622.908 82.8933 624.348 82.04C625.788 81.16 627.494 80.72 629.468 80.72C631.254 80.72 632.828 81.0667 634.188 81.76C635.574 82.4267 636.641 83.4 637.388 84.68C638.161 85.96 638.548 87.5067 638.548 89.32C638.548 89.8533 638.521 90.3733 638.468 90.88C638.441 91.36 638.401 91.76 638.348 92.08H621.868V89.2H634.828L634.388 89.6C634.494 88.3733 634.361 87.3733 633.988 86.6C633.641 85.8267 633.068 85.2533 632.268 84.88C631.494 84.5067 630.521 84.32 629.348 84.32C627.241 84.32 625.801 84.8533 625.028 85.92C624.254 86.96 623.868 88.4 623.868 90.24V91.44C623.868 92.7733 624.028 93.9067 624.348 94.84C624.694 95.7467 625.281 96.4267 626.108 96.88C626.934 97.3333 628.068 97.56 629.508 97.56C631.188 97.56 632.374 97.2933 633.068 96.76C633.761 96.2267 634.108 95.52 634.108 94.64V94.32H638.388V94.68C638.388 96.04 638.014 97.2267 637.268 98.24C636.521 99.2267 635.481 100 634.148 100.56C632.841 101.12 631.281 101.4 629.468 101.4ZM650.15 101.4C647.324 101.4 645.15 100.467 643.63 98.6C642.137 96.7067 641.39 94.1867 641.39 91.04C641.39 87.8933 642.124 85.3867 643.59 83.52C645.084 81.6533 647.19 80.72 649.91 80.72C651.67 80.72 653.084 81.08 654.15 81.8C655.244 82.4933 656.004 83.2933 656.43 84.2H657.51L657.31 89.28H656.55C656.55 88.16 656.337 87.24 655.91 86.52C655.484 85.8 654.87 85.2667 654.07 84.92C653.27 84.5733 652.284 84.4 651.11 84.4C650.15 84.4 649.324 84.52 648.63 84.76C647.964 85 647.404 85.3733 646.95 85.88C646.524 86.3867 646.204 87.0667 645.99 87.92C645.804 88.7733 645.71 89.8133 645.71 91.04C645.71 92.24 645.804 93.28 645.99 94.16C646.204 95.0133 646.524 95.7067 646.95 96.24C647.404 96.7467 647.977 97.12 648.67 97.36C649.364 97.6 650.177 97.72 651.11 97.72C652.284 97.72 653.27 97.5467 654.07 97.2C654.87 96.8267 655.484 96.28 655.91 95.56C656.337 94.84 656.55 93.9333 656.55 92.84H657.31L657.51 97.72H656.71C656.257 98.8667 655.47 99.7733 654.35 100.44C653.257 101.08 651.857 101.4 650.15 101.4ZM660.87 101H656.87V96.28L656.55 95.76V74.2H660.87V101ZM209.773 150H205.773V146.08L205.653 145V137.36C205.653 135.867 205.293 134.853 204.573 134.32C203.879 133.787 202.746 133.52 201.173 133.52C199.599 133.52 198.466 133.8 197.773 134.36C197.106 134.92 196.773 135.853 196.773 137.16V137.76H192.613V137.36C192.613 135.867 192.973 134.547 193.693 133.4C194.439 132.253 195.466 131.36 196.773 130.72C198.106 130.053 199.653 129.72 201.413 129.72C203.279 129.72 204.826 130.067 206.053 130.76C207.279 131.453 208.199 132.413 208.813 133.64C209.453 134.84 209.773 136.267 209.773 137.92V150ZM198.373 150.4C196.586 150.4 195.079 149.947 193.853 149.04C192.653 148.107 192.053 146.787 192.053 145.08C192.053 143.96 192.306 143.027 192.813 142.28C193.346 141.533 194.106 140.92 195.093 140.44C196.079 139.96 197.279 139.627 198.693 139.44L206.053 138.4V141.44L199.333 142.44C198.186 142.6 197.386 142.84 196.933 143.16C196.479 143.48 196.253 144.013 196.253 144.76C196.253 145.533 196.519 146.093 197.053 146.44C197.613 146.787 198.519 146.96 199.773 146.96C200.733 146.96 201.653 146.813 202.533 146.52C203.439 146.2 204.186 145.68 204.773 144.96C205.359 144.213 205.653 143.173 205.653 141.84L206.213 146.92L205.573 146.88C205.199 147.493 204.679 148.067 204.013 148.6C203.373 149.133 202.586 149.573 201.653 149.92C200.719 150.24 199.626 150.4 198.373 150.4ZM232.429 150H228.109V138.44C228.109 136.68 227.776 135.413 227.109 134.64C226.442 133.84 225.189 133.44 223.349 133.44C222.176 133.44 221.216 133.613 220.469 133.96C219.722 134.28 219.162 134.813 218.789 135.56C218.416 136.28 218.229 137.267 218.229 138.52H217.469L217.109 133.84H218.069C218.362 133.12 218.802 132.453 219.389 131.84C219.976 131.227 220.722 130.72 221.629 130.32C222.562 129.92 223.669 129.72 224.949 129.72C226.682 129.72 228.096 130.053 229.189 130.72C230.282 131.387 231.096 132.307 231.629 133.48C232.162 134.653 232.429 136 232.429 137.52V150ZM218.229 150H213.909V130.12H217.869V136.08L218.229 136.28V150ZM244.447 150.4C241.621 150.4 239.447 149.467 237.927 147.6C236.434 145.707 235.687 143.187 235.687 140.04C235.687 136.893 236.421 134.387 237.887 132.52C239.381 130.653 241.487 129.72 244.207 129.72C245.967 129.72 247.381 130.08 248.447 130.8C249.541 131.493 250.301 132.293 250.727 133.2H251.807L251.607 138.28H250.847C250.847 137.16 250.634 136.24 250.207 135.52C249.781 134.8 249.167 134.267 248.367 133.92C247.567 133.573 246.581 133.4 245.407 133.4C244.447 133.4 243.621 133.52 242.927 133.76C242.261 134 241.701 134.373 241.247 134.88C240.821 135.387 240.501 136.067 240.287 136.92C240.101 137.773 240.007 138.813 240.007 140.04C240.007 141.24 240.101 142.28 240.287 143.16C240.501 144.013 240.821 144.707 241.247 145.24C241.701 145.747 242.274 146.12 242.967 146.36C243.661 146.6 244.474 146.72 245.407 146.72C246.581 146.72 247.567 146.547 248.367 146.2C249.167 145.827 249.781 145.28 250.207 144.56C250.634 143.84 250.847 142.933 250.847 141.84H251.607L251.807 146.72H251.007C250.554 147.867 249.767 148.773 248.647 149.44C247.554 150.08 246.154 150.4 244.447 150.4ZM255.167 150H251.167V145.28L250.847 144.76V123.2H255.167V150ZM298.876 150H294.556V138.44C294.556 136.68 294.223 135.413 293.556 134.64C292.916 133.84 291.689 133.44 289.876 133.44C288.249 133.44 287.036 133.827 286.236 134.6C285.463 135.347 285.076 136.627 285.076 138.44L284.316 138.52L283.956 133.84H284.596C284.916 133.147 285.356 132.493 285.916 131.88C286.503 131.24 287.249 130.72 288.156 130.32C289.063 129.92 290.169 129.72 291.476 129.72C293.209 129.72 294.609 130.053 295.676 130.72C296.769 131.387 297.569 132.307 298.076 133.48C298.609 134.653 298.876 136 298.876 137.52V150ZM271.276 150H266.956V130.12H270.916V136.08L271.276 136.28V150ZM285.076 150H280.756V138.44C280.756 136.68 280.423 135.413 279.756 134.64C279.116 133.84 277.889 133.44 276.076 133.44C274.449 133.44 273.236 133.813 272.436 134.56C271.663 135.307 271.276 136.587 271.276 138.4L270.516 138.52L270.156 133.84H271.116C271.409 133.12 271.836 132.453 272.396 131.84C272.983 131.227 273.729 130.72 274.636 130.32C275.543 129.92 276.623 129.72 277.876 129.72C279.556 129.72 280.916 130.053 281.956 130.72C283.023 131.387 283.809 132.307 284.316 133.48C284.823 134.653 285.076 136 285.076 137.52V150ZM319.773 150H315.773V146.08L315.653 145V137.36C315.653 135.867 315.293 134.853 314.573 134.32C313.879 133.787 312.746 133.52 311.173 133.52C309.599 133.52 308.466 133.8 307.773 134.36C307.106 134.92 306.773 135.853 306.773 137.16V137.76H302.613V137.36C302.613 135.867 302.973 134.547 303.693 133.4C304.439 132.253 305.466 131.36 306.773 130.72C308.106 130.053 309.653 129.72 311.413 129.72C313.279 129.72 314.826 130.067 316.053 130.76C317.279 131.453 318.199 132.413 318.813 133.64C319.453 134.84 319.773 136.267 319.773 137.92V150ZM308.373 150.4C306.586 150.4 305.079 149.947 303.853 149.04C302.653 148.107 302.053 146.787 302.053 145.08C302.053 143.96 302.306 143.027 302.813 142.28C303.346 141.533 304.106 140.92 305.093 140.44C306.079 139.96 307.279 139.627 308.693 139.44L316.053 138.4V141.44L309.333 142.44C308.186 142.6 307.386 142.84 306.933 143.16C306.479 143.48 306.253 144.013 306.253 144.76C306.253 145.533 306.519 146.093 307.053 146.44C307.613 146.787 308.519 146.96 309.773 146.96C310.733 146.96 311.653 146.813 312.533 146.52C313.439 146.2 314.186 145.68 314.773 144.96C315.359 144.213 315.653 143.173 315.653 141.84L316.213 146.92L315.573 146.88C315.199 147.493 314.679 148.067 314.013 148.6C313.373 149.133 312.586 149.573 311.653 149.92C310.719 150.24 309.626 150.4 308.373 150.4ZM342.429 150H338.109V138.44C338.109 136.68 337.776 135.413 337.109 134.64C336.442 133.84 335.189 133.44 333.349 133.44C332.176 133.44 331.216 133.613 330.469 133.96C329.722 134.28 329.162 134.813 328.789 135.56C328.416 136.28 328.229 137.267 328.229 138.52H327.469L327.109 133.84H328.069C328.362 133.12 328.802 132.453 329.389 131.84C329.976 131.227 330.722 130.72 331.629 130.32C332.562 129.92 333.669 129.72 334.949 129.72C336.682 129.72 338.096 130.053 339.189 130.72C340.282 131.387 341.096 132.307 341.629 133.48C342.162 134.653 342.429 136 342.429 137.52V150ZM328.229 150H323.909V130.12H327.869V136.08L328.229 136.28V150ZM363.327 150H359.327V146.08L359.207 145V137.36C359.207 135.867 358.847 134.853 358.127 134.32C357.434 133.787 356.301 133.52 354.727 133.52C353.154 133.52 352.021 133.8 351.327 134.36C350.661 134.92 350.327 135.853 350.327 137.16V137.76H346.167V137.36C346.167 135.867 346.527 134.547 347.247 133.4C347.994 132.253 349.021 131.36 350.327 130.72C351.661 130.053 353.207 129.72 354.967 129.72C356.834 129.72 358.381 130.067 359.607 130.76C360.834 131.453 361.754 132.413 362.367 133.64C363.007 134.84 363.327 136.267 363.327 137.92V150ZM351.927 150.4C350.141 150.4 348.634 149.947 347.407 149.04C346.207 148.107 345.607 146.787 345.607 145.08C345.607 143.96 345.861 143.027 346.367 142.28C346.901 141.533 347.661 140.92 348.647 140.44C349.634 139.96 350.834 139.627 352.247 139.44L359.607 138.4V141.44L352.887 142.44C351.741 142.6 350.941 142.84 350.487 143.16C350.034 143.48 349.807 144.013 349.807 144.76C349.807 145.533 350.074 146.093 350.607 146.44C351.167 146.787 352.074 146.96 353.327 146.96C354.287 146.96 355.207 146.813 356.087 146.52C356.994 146.2 357.741 145.68 358.327 144.96C358.914 144.213 359.207 143.173 359.207 141.84L359.767 146.92L359.127 146.88C358.754 147.493 358.234 148.067 357.567 148.6C356.927 149.133 356.141 149.573 355.207 149.92C354.274 150.24 353.181 150.4 351.927 150.4ZM376.786 157.2C374.919 157.2 373.292 156.907 371.906 156.32C370.546 155.733 369.492 154.88 368.746 153.76C367.999 152.667 367.626 151.32 367.626 149.72H371.946C371.946 150.627 372.079 151.347 372.346 151.88C372.612 152.413 373.106 152.787 373.826 153C374.546 153.24 375.572 153.36 376.906 153.36C378.212 153.36 379.212 153.213 379.906 152.92C380.599 152.627 381.079 152.133 381.346 151.44C381.612 150.747 381.746 149.787 381.746 148.56V135.36L382.066 134.84V130.12H386.066V148.56C386.066 150.507 385.692 152.107 384.946 153.36C384.199 154.64 383.132 155.6 381.746 156.24C380.386 156.88 378.732 157.2 376.786 157.2ZM375.106 148.12C372.359 148.12 370.252 147.293 368.786 145.64C367.319 143.96 366.586 141.72 366.586 138.92C366.586 136.12 367.332 133.893 368.826 132.24C370.319 130.56 372.466 129.72 375.266 129.72C376.892 129.72 378.292 130.053 379.466 130.72C380.639 131.36 381.452 132.253 381.906 133.4H382.706L382.506 138.28H381.746C381.746 137.16 381.519 136.24 381.066 135.52C380.612 134.8 379.972 134.267 379.146 133.92C378.319 133.573 377.359 133.4 376.266 133.4C375.012 133.4 373.986 133.573 373.186 133.92C372.412 134.267 371.839 134.853 371.466 135.68C371.092 136.48 370.906 137.56 370.906 138.92C370.906 139.933 371.012 140.8 371.226 141.52C371.439 142.213 371.772 142.773 372.226 143.2C372.679 143.627 373.252 143.947 373.946 144.16C374.639 144.347 375.439 144.44 376.346 144.44C377.439 144.44 378.386 144.267 379.186 143.92C379.986 143.547 380.612 143 381.066 142.28C381.519 141.56 381.746 140.64 381.746 139.52H382.626V144.6H381.586C381.132 145.56 380.346 146.387 379.226 147.08C378.106 147.773 376.732 148.12 375.106 148.12ZM398.96 150.4C396.8 150.4 395 149.973 393.56 149.12C392.12 148.24 391.053 147.027 390.36 145.48C389.667 143.907 389.32 142.093 389.32 140.04C389.32 137.987 389.707 136.187 390.48 134.64C391.28 133.093 392.4 131.893 393.84 131.04C395.28 130.16 396.987 129.72 398.96 129.72C400.747 129.72 402.32 130.067 403.68 130.76C405.067 131.427 406.133 132.4 406.88 133.68C407.653 134.96 408.04 136.507 408.04 138.32C408.04 138.853 408.013 139.373 407.96 139.88C407.933 140.36 407.893 140.76 407.84 141.08H391.36V138.2H404.32L403.88 138.6C403.987 137.373 403.853 136.373 403.48 135.6C403.133 134.827 402.56 134.253 401.76 133.88C400.987 133.507 400.013 133.32 398.84 133.32C396.733 133.32 395.293 133.853 394.52 134.92C393.747 135.96 393.36 137.4 393.36 139.24V140.44C393.36 141.773 393.52 142.907 393.84 143.84C394.187 144.747 394.773 145.427 395.6 145.88C396.427 146.333 397.56 146.56 399 146.56C400.68 146.56 401.867 146.293 402.56 145.76C403.253 145.227 403.6 144.52 403.6 143.64V143.32H407.88V143.68C407.88 145.04 407.507 146.227 406.76 147.24C406.013 148.227 404.973 149 403.64 149.56C402.333 150.12 400.773 150.4 398.96 150.4ZM422.622 156.8C422.088 156.8 421.542 156.76 420.982 156.68C420.422 156.627 419.968 156.547 419.622 156.44V152.92H422.382C423.208 152.92 423.822 152.8 424.222 152.56C424.622 152.347 424.995 151.88 425.342 151.16L426.582 148.36L426.222 149.76L417.622 130.12H422.382L426.382 139.76L428.182 144.08H428.542L430.142 139.76L433.782 130.12H438.582L429.142 152.32C428.662 153.52 428.115 154.44 427.502 155.08C426.888 155.72 426.182 156.16 425.382 156.4C424.608 156.667 423.688 156.8 422.622 156.8ZM448.967 150.4C446.94 150.4 445.18 149.973 443.687 149.12C442.193 148.24 441.047 147.027 440.247 145.48C439.447 143.907 439.047 142.093 439.047 140.04C439.047 137.987 439.447 136.187 440.247 134.64C441.047 133.093 442.193 131.893 443.687 131.04C445.18 130.16 446.94 129.72 448.967 129.72C450.993 129.72 452.727 130.16 454.167 131.04C455.633 131.893 456.753 133.093 457.527 134.64C458.327 136.187 458.727 137.987 458.727 140.04C458.727 142.093 458.327 143.907 457.527 145.48C456.753 147.027 455.633 148.24 454.167 149.12C452.727 149.973 450.993 150.4 448.967 150.4ZM448.967 146.56C451.047 146.56 452.5 146.04 453.327 145C454.153 143.933 454.567 142.28 454.567 140.04C454.567 137.8 454.153 136.16 453.327 135.12C452.5 134.08 451.047 133.56 448.967 133.56C446.86 133.56 445.393 134.08 444.567 135.12C443.74 136.16 443.327 137.8 443.327 140.04C443.327 142.28 443.74 143.933 444.567 145C445.393 146.04 446.86 146.56 448.967 146.56ZM469.356 150.4C467.649 150.4 466.236 150.053 465.116 149.36C463.996 148.64 463.169 147.68 462.636 146.48C462.103 145.253 461.836 143.893 461.836 142.4V130.12H466.156V141.6C466.156 143.387 466.529 144.68 467.276 145.48C468.023 146.28 469.249 146.68 470.956 146.68C472.076 146.68 473.023 146.507 473.796 146.16C474.569 145.787 475.156 145.213 475.556 144.44C475.956 143.64 476.156 142.6 476.156 141.32H477.276V146.04H476.316C476.023 146.787 475.569 147.493 474.956 148.16C474.369 148.827 473.609 149.373 472.676 149.8C471.769 150.2 470.663 150.4 469.356 150.4ZM480.476 150H476.476V144.04L476.156 143.84V130.12H480.476V150ZM489.049 150H484.729V130H488.689V135.56L489.049 135.76V150ZM489.049 137.04H488.049V133.16H488.889C489.289 132.227 489.943 131.427 490.849 130.76C491.783 130.067 492.983 129.72 494.449 129.72C495.863 129.72 496.983 130.027 497.809 130.64C498.663 131.253 499.276 132.067 499.649 133.08C500.023 134.093 500.209 135.227 500.209 136.48V137.8H495.889V137C495.889 135.667 495.663 134.733 495.209 134.2C494.756 133.667 493.903 133.4 492.649 133.4C491.343 133.4 490.409 133.68 489.849 134.24C489.316 134.773 489.049 135.707 489.049 137.04ZM519.704 150.44C517.624 150.44 515.864 150 514.424 149.12C512.984 148.24 511.877 147.027 511.104 145.48C510.357 143.933 509.984 142.133 509.984 140.08C509.984 138.027 510.371 136.227 511.144 134.68C511.944 133.107 513.077 131.893 514.544 131.04C516.011 130.16 517.784 129.72 519.864 129.72C521.624 129.72 523.171 130.053 524.504 130.72C525.837 131.387 526.864 132.32 527.584 133.52C528.331 134.72 528.704 136.12 528.704 137.72V138.08H524.424V137.84C524.424 136.373 524.024 135.307 523.224 134.64C522.451 133.947 521.237 133.6 519.584 133.6C517.664 133.6 516.291 134.147 515.464 135.24C514.664 136.307 514.264 137.907 514.264 140.04C514.264 142.2 514.664 143.827 515.464 144.92C516.291 145.987 517.664 146.52 519.584 146.52C521.237 146.52 522.451 146.187 523.224 145.52C524.024 144.827 524.424 143.76 524.424 142.32V142.08H528.704V142.44C528.704 143.987 528.331 145.373 527.584 146.6C526.837 147.8 525.784 148.747 524.424 149.44C523.091 150.107 521.517 150.44 519.704 150.44ZM541.271 150.4C539.245 150.4 537.485 149.973 535.991 149.12C534.498 148.24 533.351 147.027 532.551 145.48C531.751 143.907 531.351 142.093 531.351 140.04C531.351 137.987 531.751 136.187 532.551 134.64C533.351 133.093 534.498 131.893 535.991 131.04C537.485 130.16 539.245 129.72 541.271 129.72C543.298 129.72 545.031 130.16 546.471 131.04C547.938 131.893 549.058 133.093 549.831 134.64C550.631 136.187 551.031 137.987 551.031 140.04C551.031 142.093 550.631 143.907 549.831 145.48C549.058 147.027 547.938 148.24 546.471 149.12C545.031 149.973 543.298 150.4 541.271 150.4ZM541.271 146.56C543.351 146.56 544.805 146.04 545.631 145C546.458 143.933 546.871 142.28 546.871 140.04C546.871 137.8 546.458 136.16 545.631 135.12C544.805 134.08 543.351 133.56 541.271 133.56C539.165 133.56 537.698 134.08 536.871 135.12C536.045 136.16 535.631 137.8 535.631 140.04C535.631 142.28 536.045 143.933 536.871 145C537.698 146.04 539.165 146.56 541.271 146.56ZM558.62 150H554.3V123.2H558.62V150ZM567.37 150H563.05V123.2H567.37V150ZM580.288 150.4C578.128 150.4 576.328 149.973 574.888 149.12C573.448 148.24 572.381 147.027 571.688 145.48C570.995 143.907 570.648 142.093 570.648 140.04C570.648 137.987 571.035 136.187 571.808 134.64C572.608 133.093 573.728 131.893 575.168 131.04C576.608 130.16 578.315 129.72 580.288 129.72C582.075 129.72 583.648 130.067 585.008 130.76C586.395 131.427 587.461 132.4 588.208 133.68C588.981 134.96 589.368 136.507 589.368 138.32C589.368 138.853 589.341 139.373 589.288 139.88C589.261 140.36 589.221 140.76 589.168 141.08H572.688V138.2H585.648L585.208 138.6C585.315 137.373 585.181 136.373 584.808 135.6C584.461 134.827 583.888 134.253 583.088 133.88C582.315 133.507 581.341 133.32 580.168 133.32C578.061 133.32 576.621 133.853 575.848 134.92C575.075 135.96 574.688 137.4 574.688 139.24V140.44C574.688 141.773 574.848 142.907 575.168 143.84C575.515 144.747 576.101 145.427 576.928 145.88C577.755 146.333 578.888 146.56 580.328 146.56C582.008 146.56 583.195 146.293 583.888 145.76C584.581 145.227 584.928 144.52 584.928 143.64V143.32H589.208V143.68C589.208 145.04 588.835 146.227 588.088 147.24C587.341 148.227 586.301 149 584.968 149.56C583.661 150.12 582.101 150.4 580.288 150.4ZM602.411 157.2C600.544 157.2 598.917 156.907 597.531 156.32C596.171 155.733 595.117 154.88 594.371 153.76C593.624 152.667 593.251 151.32 593.251 149.72H597.571C597.571 150.627 597.704 151.347 597.971 151.88C598.237 152.413 598.731 152.787 599.451 153C600.171 153.24 601.197 153.36 602.531 153.36C603.837 153.36 604.837 153.213 605.531 152.92C606.224 152.627 606.704 152.133 606.971 151.44C607.237 150.747 607.371 149.787 607.371 148.56V135.36L607.691 134.84V130.12H611.691V148.56C611.691 150.507 611.317 152.107 610.571 153.36C609.824 154.64 608.757 155.6 607.371 156.24C606.011 156.88 604.357 157.2 602.411 157.2ZM600.731 148.12C597.984 148.12 595.877 147.293 594.411 145.64C592.944 143.96 592.211 141.72 592.211 138.92C592.211 136.12 592.957 133.893 594.451 132.24C595.944 130.56 598.091 129.72 600.891 129.72C602.517 129.72 603.917 130.053 605.091 130.72C606.264 131.36 607.077 132.253 607.531 133.4H608.331L608.131 138.28H607.371C607.371 137.16 607.144 136.24 606.691 135.52C606.237 134.8 605.597 134.267 604.771 133.92C603.944 133.573 602.984 133.4 601.891 133.4C600.637 133.4 599.611 133.573 598.811 133.92C598.037 134.267 597.464 134.853 597.091 135.68C596.717 136.48 596.531 137.56 596.531 138.92C596.531 139.933 596.637 140.8 596.851 141.52C597.064 142.213 597.397 142.773 597.851 143.2C598.304 143.627 598.877 143.947 599.571 144.16C600.264 144.347 601.064 144.44 601.971 144.44C603.064 144.44 604.011 144.267 604.811 143.92C605.611 143.547 606.237 143 606.691 142.28C607.144 141.56 607.371 140.64 607.371 139.52H608.251V144.6H607.211C606.757 145.56 605.971 146.387 604.851 147.08C603.731 147.773 602.357 148.12 600.731 148.12ZM624.585 150.4C622.425 150.4 620.625 149.973 619.185 149.12C617.745 148.24 616.678 147.027 615.985 145.48C615.292 143.907 614.945 142.093 614.945 140.04C614.945 137.987 615.332 136.187 616.105 134.64C616.905 133.093 618.025 131.893 619.465 131.04C620.905 130.16 622.612 129.72 624.585 129.72C626.372 129.72 627.945 130.067 629.305 130.76C630.692 131.427 631.758 132.4 632.505 133.68C633.278 134.96 633.665 136.507 633.665 138.32C633.665 138.853 633.638 139.373 633.585 139.88C633.558 140.36 633.518 140.76 633.465 141.08H616.985V138.2H629.945L629.505 138.6C629.612 137.373 629.478 136.373 629.105 135.6C628.758 134.827 628.185 134.253 627.385 133.88C626.612 133.507 625.638 133.32 624.465 133.32C622.358 133.32 620.918 133.853 620.145 134.92C619.372 135.96 618.985 137.4 618.985 139.24V140.44C618.985 141.773 619.145 142.907 619.465 143.84C619.812 144.747 620.398 145.427 621.225 145.88C622.052 146.333 623.185 146.56 624.625 146.56C626.305 146.56 627.492 146.293 628.185 145.76C628.878 145.227 629.225 144.52 629.225 143.64V143.32H633.505V143.68C633.505 145.04 633.132 146.227 632.385 147.24C631.638 148.227 630.598 149 629.265 149.56C627.958 150.12 626.398 150.4 624.585 150.4ZM641.828 129.4H636.348V123.2H641.828V129.4ZM637.868 134.08H636.468V131.28H637.748C638.094 131.28 638.348 131.227 638.508 131.12C638.694 130.987 638.788 130.693 638.788 130.24V128.48H641.828V130.16C641.828 131.493 641.481 132.48 640.788 133.12C640.094 133.76 639.121 134.08 637.868 134.08ZM653.675 150.4C650.769 150.4 648.569 149.827 647.075 148.68C645.582 147.507 644.835 145.707 644.835 143.28V143.2H648.995V143.92C648.995 144.613 649.129 145.187 649.395 145.64C649.689 146.067 650.169 146.387 650.835 146.6C651.529 146.787 652.502 146.88 653.755 146.88C654.822 146.88 655.622 146.8 656.155 146.64C656.715 146.453 657.089 146.2 657.275 145.88C657.462 145.56 657.555 145.16 657.555 144.68C657.555 143.88 657.275 143.32 656.715 143C656.155 142.653 655.155 142.347 653.715 142.08L650.595 141.56C649.422 141.32 648.395 140.987 647.515 140.56C646.662 140.107 645.995 139.493 645.515 138.72C645.062 137.92 644.835 136.92 644.835 135.72C644.835 133.933 645.542 132.493 646.955 131.4C648.369 130.28 650.369 129.72 652.955 129.72C654.529 129.72 655.929 129.973 657.155 130.48C658.382 130.987 659.355 131.747 660.075 132.76C660.795 133.773 661.155 135.04 661.155 136.56V136.92H657.035V136.44C657.035 135.8 656.929 135.253 656.715 134.8C656.502 134.32 656.102 133.947 655.515 133.68C654.929 133.413 654.035 133.28 652.835 133.28C651.262 133.28 650.222 133.48 649.715 133.88C649.209 134.28 648.955 134.867 648.955 135.64C648.955 136.413 649.182 136.96 649.635 137.28C650.115 137.573 651.049 137.867 652.435 138.16L655.835 138.8C657.115 139.04 658.182 139.4 659.035 139.88C659.889 140.36 660.529 140.987 660.955 141.76C661.409 142.533 661.635 143.453 661.635 144.52C661.635 146.387 660.929 147.84 659.515 148.88C658.129 149.893 656.182 150.4 653.675 150.4ZM256.547 199.4C254.76 199.4 253.307 199.053 252.187 198.36C251.094 197.64 250.334 196.827 249.907 195.92H248.827L249.027 190.84H249.787C249.787 191.933 249.987 192.84 250.387 193.56C250.814 194.28 251.44 194.827 252.267 195.2C253.094 195.547 254.08 195.72 255.227 195.72C256.16 195.72 256.974 195.6 257.667 195.36C258.36 195.12 258.92 194.747 259.347 194.24C259.8 193.733 260.12 193.053 260.307 192.2C260.52 191.32 260.627 190.267 260.627 189.04C260.627 187.813 260.52 186.787 260.307 185.96C260.12 185.107 259.8 184.413 259.347 183.88C258.92 183.347 258.36 182.973 257.667 182.76C257 182.52 256.187 182.4 255.227 182.4C254.08 182.4 253.094 182.587 252.267 182.96C251.44 183.307 250.814 183.84 250.387 184.56C249.987 185.253 249.787 186.16 249.787 187.28H249.027L248.827 182.4H249.627C250.107 181.253 250.894 180.36 251.987 179.72C253.107 179.053 254.534 178.72 256.267 178.72C259.067 178.72 261.214 179.653 262.707 181.52C264.2 183.387 264.947 185.893 264.947 189.04C264.947 192.187 264.227 194.707 262.787 196.6C261.347 198.467 259.267 199.4 256.547 199.4ZM249.787 205.92H245.507V179.12H249.427V183.84L249.787 184.36V205.92ZM272.76 199H268.44V172.2H272.76V199ZM293.64 199H289.64V195.08L289.52 194V186.36C289.52 184.867 289.16 183.853 288.44 183.32C287.746 182.787 286.613 182.52 285.04 182.52C283.466 182.52 282.333 182.8 281.64 183.36C280.973 183.92 280.64 184.853 280.64 186.16V186.76H276.48V186.36C276.48 184.867 276.84 183.547 277.56 182.4C278.306 181.253 279.333 180.36 280.64 179.72C281.973 179.053 283.52 178.72 285.28 178.72C287.146 178.72 288.693 179.067 289.92 179.76C291.146 180.453 292.066 181.413 292.68 182.64C293.32 183.84 293.64 185.267 293.64 186.92V199ZM282.24 199.4C280.453 199.4 278.946 198.947 277.72 198.04C276.52 197.107 275.92 195.787 275.92 194.08C275.92 192.96 276.173 192.027 276.68 191.28C277.213 190.533 277.973 189.92 278.96 189.44C279.946 188.96 281.146 188.627 282.56 188.44L289.92 187.4V190.44L283.2 191.44C282.053 191.6 281.253 191.84 280.8 192.16C280.346 192.48 280.12 193.013 280.12 193.76C280.12 194.533 280.386 195.093 280.92 195.44C281.48 195.787 282.386 195.96 283.64 195.96C284.6 195.96 285.52 195.813 286.4 195.52C287.306 195.2 288.053 194.68 288.64 193.96C289.226 193.213 289.52 192.173 289.52 190.84L290.08 195.92L289.44 195.88C289.066 196.493 288.546 197.067 287.88 197.6C287.24 198.133 286.453 198.573 285.52 198.92C284.586 199.24 283.493 199.4 282.24 199.4ZM306.618 199.44C304.538 199.44 302.778 199 301.338 198.12C299.898 197.24 298.791 196.027 298.018 194.48C297.271 192.933 296.898 191.133 296.898 189.08C296.898 187.027 297.285 185.227 298.058 183.68C298.858 182.107 299.991 180.893 301.458 180.04C302.925 179.16 304.698 178.72 306.778 178.72C308.538 178.72 310.085 179.053 311.418 179.72C312.751 180.387 313.778 181.32 314.498 182.52C315.245 183.72 315.618 185.12 315.618 186.72V187.08H311.338V186.84C311.338 185.373 310.938 184.307 310.138 183.64C309.365 182.947 308.151 182.6 306.498 182.6C304.578 182.6 303.205 183.147 302.378 184.24C301.578 185.307 301.178 186.907 301.178 189.04C301.178 191.2 301.578 192.827 302.378 193.92C303.205 194.987 304.578 195.52 306.498 195.52C308.151 195.52 309.365 195.187 310.138 194.52C310.938 193.827 311.338 192.76 311.338 191.32V191.08H315.618V191.44C315.618 192.987 315.245 194.373 314.498 195.6C313.751 196.8 312.698 197.747 311.338 198.44C310.005 199.107 308.431 199.44 306.618 199.44ZM327.905 199.4C325.745 199.4 323.945 198.973 322.505 198.12C321.065 197.24 319.999 196.027 319.305 194.48C318.612 192.907 318.265 191.093 318.265 189.04C318.265 186.987 318.652 185.187 319.425 183.64C320.225 182.093 321.345 180.893 322.785 180.04C324.225 179.16 325.932 178.72 327.905 178.72C329.692 178.72 331.265 179.067 332.625 179.76C334.012 180.427 335.079 181.4 335.825 182.68C336.599 183.96 336.985 185.507 336.985 187.32C336.985 187.853 336.959 188.373 336.905 188.88C336.879 189.36 336.839 189.76 336.785 190.08H320.305V187.2H333.265L332.825 187.6C332.932 186.373 332.799 185.373 332.425 184.6C332.079 183.827 331.505 183.253 330.705 182.88C329.932 182.507 328.959 182.32 327.785 182.32C325.679 182.32 324.239 182.853 323.465 183.92C322.692 184.96 322.305 186.4 322.305 188.24V189.44C322.305 190.773 322.465 191.907 322.785 192.84C323.132 193.747 323.719 194.427 324.545 194.88C325.372 195.333 326.505 195.56 327.945 195.56C329.625 195.56 330.812 195.293 331.505 194.76C332.199 194.227 332.545 193.52 332.545 192.64V192.32H336.825V192.68C336.825 194.04 336.452 195.227 335.705 196.24C334.959 197.227 333.919 198 332.585 198.56C331.279 199.12 329.719 199.4 327.905 199.4ZM372.353 199H368.033V187.44C368.033 185.68 367.699 184.413 367.033 183.64C366.393 182.84 365.166 182.44 363.353 182.44C361.726 182.44 360.513 182.827 359.713 183.6C358.939 184.347 358.553 185.627 358.553 187.44L357.793 187.52L357.433 182.84H358.073C358.393 182.147 358.833 181.493 359.393 180.88C359.979 180.24 360.726 179.72 361.633 179.32C362.539 178.92 363.646 178.72 364.953 178.72C366.686 178.72 368.086 179.053 369.153 179.72C370.246 180.387 371.046 181.307 371.553 182.48C372.086 183.653 372.353 185 372.353 186.52V199ZM344.753 199H340.433V179.12H344.393V185.08L344.753 185.28V199ZM358.553 199H354.233V187.44C354.233 185.68 353.899 184.413 353.233 183.64C352.593 182.84 351.366 182.44 349.553 182.44C347.926 182.44 346.713 182.813 345.913 183.56C345.139 184.307 344.753 185.587 344.753 187.4L343.993 187.52L343.633 182.84H344.593C344.886 182.12 345.313 181.453 345.873 180.84C346.459 180.227 347.206 179.72 348.113 179.32C349.019 178.92 350.099 178.72 351.353 178.72C353.033 178.72 354.393 179.053 355.433 179.72C356.499 180.387 357.286 181.307 357.793 182.48C358.299 183.653 358.553 185 358.553 186.52V199ZM385.249 199.4C383.089 199.4 381.289 198.973 379.849 198.12C378.409 197.24 377.342 196.027 376.649 194.48C375.956 192.907 375.609 191.093 375.609 189.04C375.609 186.987 375.996 185.187 376.769 183.64C377.569 182.093 378.689 180.893 380.129 180.04C381.569 179.16 383.276 178.72 385.249 178.72C387.036 178.72 388.609 179.067 389.969 179.76C391.356 180.427 392.422 181.4 393.169 182.68C393.942 183.96 394.329 185.507 394.329 187.32C394.329 187.853 394.302 188.373 394.249 188.88C394.222 189.36 394.182 189.76 394.129 190.08H377.649V187.2H390.609L390.169 187.6C390.276 186.373 390.142 185.373 389.769 184.6C389.422 183.827 388.849 183.253 388.049 182.88C387.276 182.507 386.302 182.32 385.129 182.32C383.022 182.32 381.582 182.853 380.809 183.92C380.036 184.96 379.649 186.4 379.649 188.24V189.44C379.649 190.773 379.809 191.907 380.129 192.84C380.476 193.747 381.062 194.427 381.889 194.88C382.716 195.333 383.849 195.56 385.289 195.56C386.969 195.56 388.156 195.293 388.849 194.76C389.542 194.227 389.889 193.52 389.889 192.64V192.32H394.169V192.68C394.169 194.04 393.796 195.227 393.049 196.24C392.302 197.227 391.262 198 389.929 198.56C388.622 199.12 387.062 199.4 385.249 199.4ZM416.296 199H411.976V187.44C411.976 185.68 411.643 184.413 410.976 183.64C410.31 182.84 409.056 182.44 407.216 182.44C406.043 182.44 405.083 182.613 404.336 182.96C403.59 183.28 403.03 183.813 402.656 184.56C402.283 185.28 402.096 186.267 402.096 187.52H401.336L400.976 182.84H401.936C402.23 182.12 402.67 181.453 403.256 180.84C403.843 180.227 404.59 179.72 405.496 179.32C406.43 178.92 407.536 178.72 408.816 178.72C410.55 178.72 411.963 179.053 413.056 179.72C414.15 180.387 414.963 181.307 415.496 182.48C416.03 183.653 416.296 185 416.296 186.52V199ZM402.096 199H397.776V179.12H401.736V185.08L402.096 185.28V199ZM428.518 199C426.331 199 424.651 198.533 423.478 197.6C422.331 196.667 421.758 195.093 421.758 192.88V179.56L422.758 174.2H426.078V192.68C426.078 193.72 426.331 194.387 426.838 194.68C427.371 194.947 428.318 195.08 429.678 195.08H432.078V198.64C431.678 198.747 431.158 198.84 430.518 198.92C429.878 198.973 429.211 199 428.518 199ZM432.078 182.72H418.438V179.12H432.078V182.72ZM443.089 199.4C440.183 199.4 437.983 198.827 436.489 197.68C434.996 196.507 434.249 194.707 434.249 192.28V192.2H438.409V192.92C438.409 193.613 438.543 194.187 438.809 194.64C439.103 195.067 439.583 195.387 440.249 195.6C440.943 195.787 441.916 195.88 443.169 195.88C444.236 195.88 445.036 195.8 445.569 195.64C446.129 195.453 446.503 195.2 446.689 194.88C446.876 194.56 446.969 194.16 446.969 193.68C446.969 192.88 446.689 192.32 446.129 192C445.569 191.653 444.569 191.347 443.129 191.08L440.009 190.56C438.836 190.32 437.809 189.987 436.929 189.56C436.076 189.107 435.409 188.493 434.929 187.72C434.476 186.92 434.249 185.92 434.249 184.72C434.249 182.933 434.956 181.493 436.369 180.4C437.783 179.28 439.783 178.72 442.369 178.72C443.943 178.72 445.343 178.973 446.569 179.48C447.796 179.987 448.769 180.747 449.489 181.76C450.209 182.773 450.569 184.04 450.569 185.56V185.92H446.449V185.44C446.449 184.8 446.343 184.253 446.129 183.8C445.916 183.32 445.516 182.947 444.929 182.68C444.343 182.413 443.449 182.28 442.249 182.28C440.676 182.28 439.636 182.48 439.129 182.88C438.623 183.28 438.369 183.867 438.369 184.64C438.369 185.413 438.596 185.96 439.049 186.28C439.529 186.573 440.463 186.867 441.849 187.16L445.249 187.8C446.529 188.04 447.596 188.4 448.449 188.88C449.303 189.36 449.943 189.987 450.369 190.76C450.823 191.533 451.049 192.453 451.049 193.52C451.049 195.387 450.343 196.84 448.929 197.88C447.543 198.893 445.596 199.4 443.089 199.4ZM470.433 199.4C467.526 199.4 465.326 198.827 463.833 197.68C462.34 196.507 461.593 194.707 461.593 192.28V192.2H465.753V192.92C465.753 193.613 465.886 194.187 466.153 194.64C466.446 195.067 466.926 195.387 467.593 195.6C468.286 195.787 469.26 195.88 470.513 195.88C471.58 195.88 472.38 195.8 472.913 195.64C473.473 195.453 473.846 195.2 474.033 194.88C474.22 194.56 474.313 194.16 474.313 193.68C474.313 192.88 474.033 192.32 473.473 192C472.913 191.653 471.913 191.347 470.473 191.08L467.353 190.56C466.18 190.32 465.153 189.987 464.273 189.56C463.42 189.107 462.753 188.493 462.273 187.72C461.82 186.92 461.593 185.92 461.593 184.72C461.593 182.933 462.3 181.493 463.713 180.4C465.126 179.28 467.126 178.72 469.713 178.72C471.286 178.72 472.686 178.973 473.913 179.48C475.14 179.987 476.113 180.747 476.833 181.76C477.553 182.773 477.913 184.04 477.913 185.56V185.92H473.793V185.44C473.793 184.8 473.686 184.253 473.473 183.8C473.26 183.32 472.86 182.947 472.273 182.68C471.686 182.413 470.793 182.28 469.593 182.28C468.02 182.28 466.98 182.48 466.473 182.88C465.966 183.28 465.713 183.867 465.713 184.64C465.713 185.413 465.94 185.96 466.393 186.28C466.873 186.573 467.806 186.867 469.193 187.16L472.593 187.8C473.873 188.04 474.94 188.4 475.793 188.88C476.646 189.36 477.286 189.987 477.713 190.76C478.166 191.533 478.393 192.453 478.393 193.52C478.393 195.387 477.686 196.84 476.273 197.88C474.886 198.893 472.94 199.4 470.433 199.4ZM490.718 199.4C488.558 199.4 486.758 198.973 485.318 198.12C483.878 197.24 482.811 196.027 482.118 194.48C481.424 192.907 481.078 191.093 481.078 189.04C481.078 186.987 481.464 185.187 482.238 183.64C483.038 182.093 484.158 180.893 485.598 180.04C487.038 179.16 488.744 178.72 490.718 178.72C492.504 178.72 494.078 179.067 495.438 179.76C496.824 180.427 497.891 181.4 498.638 182.68C499.411 183.96 499.798 185.507 499.798 187.32C499.798 187.853 499.771 188.373 499.718 188.88C499.691 189.36 499.651 189.76 499.598 190.08H483.118V187.2H496.078L495.638 187.6C495.744 186.373 495.611 185.373 495.238 184.6C494.891 183.827 494.318 183.253 493.518 182.88C492.744 182.507 491.771 182.32 490.598 182.32C488.491 182.32 487.051 182.853 486.278 183.92C485.504 184.96 485.118 186.4 485.118 188.24V189.44C485.118 190.773 485.278 191.907 485.598 192.84C485.944 193.747 486.531 194.427 487.358 194.88C488.184 195.333 489.318 195.56 490.758 195.56C492.438 195.56 493.624 195.293 494.318 194.76C495.011 194.227 495.358 193.52 495.358 192.64V192.32H499.638V192.68C499.638 194.04 499.264 195.227 498.518 196.24C497.771 197.227 496.731 198 495.398 198.56C494.091 199.12 492.531 199.4 490.718 199.4ZM520.241 199H516.241V195.08L516.121 194V186.36C516.121 184.867 515.761 183.853 515.041 183.32C514.348 182.787 513.215 182.52 511.641 182.52C510.068 182.52 508.935 182.8 508.241 183.36C507.575 183.92 507.241 184.853 507.241 186.16V186.76H503.081V186.36C503.081 184.867 503.441 183.547 504.161 182.4C504.908 181.253 505.935 180.36 507.241 179.72C508.575 179.053 510.121 178.72 511.881 178.72C513.748 178.72 515.295 179.067 516.521 179.76C517.748 180.453 518.668 181.413 519.281 182.64C519.921 183.84 520.241 185.267 520.241 186.92V199ZM508.841 199.4C507.055 199.4 505.548 198.947 504.321 198.04C503.121 197.107 502.521 195.787 502.521 194.08C502.521 192.96 502.775 192.027 503.281 191.28C503.815 190.533 504.575 189.92 505.561 189.44C506.548 188.96 507.748 188.627 509.161 188.44L516.521 187.4V190.44L509.801 191.44C508.655 191.6 507.855 191.84 507.401 192.16C506.948 192.48 506.721 193.013 506.721 193.76C506.721 194.533 506.988 195.093 507.521 195.44C508.081 195.787 508.988 195.96 510.241 195.96C511.201 195.96 512.121 195.813 513.001 195.52C513.908 195.2 514.655 194.68 515.241 193.96C515.828 193.213 516.121 192.173 516.121 190.84L516.681 195.92L516.041 195.88C515.668 196.493 515.148 197.067 514.481 197.6C513.841 198.133 513.055 198.573 512.121 198.92C511.188 199.24 510.095 199.4 508.841 199.4ZM556.298 199H551.978V187.44C551.978 185.68 551.644 184.413 550.978 183.64C550.338 182.84 549.111 182.44 547.298 182.44C545.671 182.44 544.458 182.827 543.658 183.6C542.884 184.347 542.498 185.627 542.498 187.44L541.738 187.52L541.378 182.84H542.018C542.338 182.147 542.778 181.493 543.338 180.88C543.924 180.24 544.671 179.72 545.578 179.32C546.484 178.92 547.591 178.72 548.898 178.72C550.631 178.72 552.031 179.053 553.098 179.72C554.191 180.387 554.991 181.307 555.498 182.48C556.031 183.653 556.298 185 556.298 186.52V199ZM528.698 199H524.378V179.12H528.338V185.08L528.698 185.28V199ZM542.498 199H538.178V187.44C538.178 185.68 537.844 184.413 537.178 183.64C536.538 182.84 535.311 182.44 533.498 182.44C531.871 182.44 530.658 182.813 529.858 183.56C529.084 184.307 528.698 185.587 528.698 187.4L527.938 187.52L527.578 182.84H528.538C528.831 182.12 529.258 181.453 529.818 180.84C530.404 180.227 531.151 179.72 532.058 179.32C532.964 178.92 534.044 178.72 535.298 178.72C536.978 178.72 538.338 179.053 539.378 179.72C540.444 180.387 541.231 181.307 541.738 182.48C542.244 183.653 542.498 185 542.498 186.52V199ZM564.753 199H560.433V172.2H564.753V199ZM577.671 199.4C575.511 199.4 573.711 198.973 572.271 198.12C570.831 197.24 569.764 196.027 569.071 194.48C568.378 192.907 568.031 191.093 568.031 189.04C568.031 186.987 568.418 185.187 569.191 183.64C569.991 182.093 571.111 180.893 572.551 180.04C573.991 179.16 575.698 178.72 577.671 178.72C579.458 178.72 581.031 179.067 582.391 179.76C583.778 180.427 584.844 181.4 585.591 182.68C586.364 183.96 586.751 185.507 586.751 187.32C586.751 187.853 586.724 188.373 586.671 188.88C586.644 189.36 586.604 189.76 586.551 190.08H570.071V187.2H583.031L582.591 187.6C582.698 186.373 582.564 185.373 582.191 184.6C581.844 183.827 581.271 183.253 580.471 182.88C579.698 182.507 578.724 182.32 577.551 182.32C575.444 182.32 574.004 182.853 573.231 183.92C572.458 184.96 572.071 186.4 572.071 188.24V189.44C572.071 190.773 572.231 191.907 572.551 192.84C572.898 193.747 573.484 194.427 574.311 194.88C575.138 195.333 576.271 195.56 577.711 195.56C579.391 195.56 580.578 195.293 581.271 194.76C581.964 194.227 582.311 193.52 582.311 192.64V192.32H586.591V192.68C586.591 194.04 586.218 195.227 585.471 196.24C584.724 197.227 583.684 198 582.351 198.56C581.044 199.12 579.484 199.4 577.671 199.4ZM598.753 199.4C595.847 199.4 593.647 198.827 592.153 197.68C590.66 196.507 589.913 194.707 589.913 192.28V192.2H594.073V192.92C594.073 193.613 594.207 194.187 594.473 194.64C594.767 195.067 595.247 195.387 595.913 195.6C596.607 195.787 597.58 195.88 598.833 195.88C599.9 195.88 600.7 195.8 601.233 195.64C601.793 195.453 602.167 195.2 602.353 194.88C602.54 194.56 602.633 194.16 602.633 193.68C602.633 192.88 602.353 192.32 601.793 192C601.233 191.653 600.233 191.347 598.793 191.08L595.673 190.56C594.5 190.32 593.473 189.987 592.593 189.56C591.74 189.107 591.073 188.493 590.593 187.72C590.14 186.92 589.913 185.92 589.913 184.72C589.913 182.933 590.62 181.493 592.033 180.4C593.447 179.28 595.447 178.72 598.033 178.72C599.607 178.72 601.007 178.973 602.233 179.48C603.46 179.987 604.433 180.747 605.153 181.76C605.873 182.773 606.233 184.04 606.233 185.56V185.92H602.113V185.44C602.113 184.8 602.007 184.253 601.793 183.8C601.58 183.32 601.18 182.947 600.593 182.68C600.007 182.413 599.113 182.28 597.913 182.28C596.34 182.28 595.3 182.48 594.793 182.88C594.287 183.28 594.033 183.867 594.033 184.64C594.033 185.413 594.26 185.96 594.713 186.28C595.193 186.573 596.127 186.867 597.513 187.16L600.913 187.8C602.193 188.04 603.26 188.4 604.113 188.88C604.967 189.36 605.607 189.987 606.033 190.76C606.487 191.533 606.713 192.453 606.713 193.52C606.713 195.387 606.007 196.84 604.593 197.88C603.207 198.893 601.26 199.4 598.753 199.4ZM618.441 199.4C615.534 199.4 613.334 198.827 611.841 197.68C610.348 196.507 609.601 194.707 609.601 192.28V192.2H613.761V192.92C613.761 193.613 613.894 194.187 614.161 194.64C614.454 195.067 614.934 195.387 615.601 195.6C616.294 195.787 617.268 195.88 618.521 195.88C619.588 195.88 620.388 195.8 620.921 195.64C621.481 195.453 621.854 195.2 622.041 194.88C622.228 194.56 622.321 194.16 622.321 193.68C622.321 192.88 622.041 192.32 621.481 192C620.921 191.653 619.921 191.347 618.481 191.08L615.361 190.56C614.188 190.32 613.161 189.987 612.281 189.56C611.428 189.107 610.761 188.493 610.281 187.72C609.828 186.92 609.601 185.92 609.601 184.72C609.601 182.933 610.308 181.493 611.721 180.4C613.134 179.28 615.134 178.72 617.721 178.72C619.294 178.72 620.694 178.973 621.921 179.48C623.148 179.987 624.121 180.747 624.841 181.76C625.561 182.773 625.921 184.04 625.921 185.56V185.92H621.801V185.44C621.801 184.8 621.694 184.253 621.481 183.8C621.268 183.32 620.868 182.947 620.281 182.68C619.694 182.413 618.801 182.28 617.601 182.28C616.028 182.28 614.988 182.48 614.481 182.88C613.974 183.28 613.721 183.867 613.721 184.64C613.721 185.413 613.948 185.96 614.401 186.28C614.881 186.573 615.814 186.867 617.201 187.16L620.601 187.8C621.881 188.04 622.948 188.4 623.801 188.88C624.654 189.36 625.294 189.987 625.721 190.76C626.174 191.533 626.401 192.453 626.401 193.52C626.401 195.387 625.694 196.84 624.281 197.88C622.894 198.893 620.948 199.4 618.441 199.4ZM634.088 199H629.768V172.2H634.088V199ZM641.372 205.8C640.838 205.8 640.292 205.76 639.732 205.68C639.172 205.627 638.718 205.547 638.372 205.44V201.92H641.132C641.958 201.92 642.572 201.8 642.972 201.56C643.372 201.347 643.745 200.88 644.092 200.16L645.332 197.36L644.972 198.76L636.372 179.12H641.132L645.132 188.76L646.932 193.08H647.292L648.892 188.76L652.532 179.12H657.332L647.892 201.32C647.412 202.52 646.865 203.44 646.252 204.08C645.638 204.72 644.932 205.16 644.132 205.4C643.358 205.667 642.438 205.8 641.372 205.8ZM661.712 199H656.232V192.8H661.712V199Z" fill="white"/>
<rect x="51" y="432" width="293" height="293" rx="146.5" fill="#2D3B40"/>
<path d="M176.487 675.596C173.542 681.309 175.77 688.415 181.844 690.518C193.302 694.483 205.549 695.859 217.694 694.48C233.71 692.661 248.827 686.135 261.134 675.724C273.441 665.314 282.385 651.489 286.834 635.996C290.207 624.248 290.882 611.942 288.872 599.985C287.806 593.647 281.167 590.271 275.045 592.228C268.923 594.185 265.673 600.748 266.375 607.137C267.199 614.632 266.564 622.253 264.462 629.571C261.284 640.639 254.894 650.517 246.102 657.954C237.31 665.391 226.51 670.053 215.068 671.352C207.503 672.211 199.881 671.574 192.627 669.519C186.443 667.766 179.432 669.883 176.487 675.596Z" fill="white"/>
</g>
<path d="M679.014 1235.11C679.014 1235.82 678.439 1236.4 677.73 1236.4H663.783C662.47 1236.4 662.004 1238.15 663.142 1238.8L668.36 1241.83C668.757 1242.06 669.246 1242.06 669.643 1241.83L688.358 1230.97C688.755 1230.74 689 1230.32 689 1229.86V1221.23C689 1220.24 687.929 1219.62 687.074 1220.12L679.655 1224.43C679.258 1224.66 679.014 1225.08 679.014 1225.54V1235.11Z" fill="white"/>
<path d="M649 1229.86C649 1230.32 649.244 1230.74 649.641 1230.97L657.06 1235.28C657.916 1235.78 658.986 1235.16 658.986 1234.17V1225.54C658.986 1225.08 658.742 1224.66 658.345 1224.43L650.926 1220.12C650.071 1219.62 649 1220.24 649 1221.23V1229.86Z" fill="white"/>
<path d="M656.594 1205.77C657.25 1204.63 655.976 1203.35 654.84 1204.01L649.641 1207.03C649.244 1207.26 649 1207.68 649 1208.14V1214.18C649 1215.5 650.74 1215.97 651.396 1214.83L656.594 1205.77Z" fill="white"/>
<path d="M669.643 1207.77C669.246 1207.54 668.757 1207.54 668.36 1207.77L659.632 1212.83C659.235 1213.06 658.99 1213.48 658.99 1213.94V1224.06C658.99 1224.52 659.235 1224.94 659.632 1225.17L668.36 1230.23C668.757 1230.46 669.246 1230.46 669.643 1230.23L678.372 1225.17C678.769 1224.94 679.014 1224.52 679.014 1224.06V1213.94C679.014 1213.48 678.769 1213.06 678.372 1212.83L669.643 1207.77Z" fill="white"/>
<path d="M683.156 1204.01C682.019 1203.35 680.745 1204.63 681.401 1205.77L686.6 1214.83C687.256 1215.97 688.996 1215.5 688.996 1214.18V1208.14C688.996 1207.68 688.751 1207.26 688.355 1207.03L683.156 1204.01Z" fill="white"/>
<path d="M669.643 1196.17C669.246 1195.94 668.757 1195.94 668.36 1196.17L660.917 1200.48C660.061 1200.98 660.061 1202.22 660.917 1202.72L668.36 1207.03C668.757 1207.26 669.246 1207.26 669.643 1207.03L677.087 1202.72C677.943 1202.22 677.943 1200.98 677.087 1200.48L669.643 1196.17Z" fill="white"/>
<defs>
<clipPath id="clip0_18960_20622">
<rect width="727" height="1272" rx="20.1569" fill="white"/>
</clipPath>
</defs>
</svg>
