<svg width="727" height="1272" viewBox="0 0 727 1272" fill="none" xmlns="http://www.w3.org/2000/svg">
<g clip-path="url(#clip0_18934_20054)">
<rect width="728" height="1273" rx="20.1569" fill="#F2935C"/>
<rect x="-122" y="743" width="632" height="632" rx="316" fill="#2D3B40"/>
<path d="M305.398 101.4C302.811 101.4 300.571 100.84 298.678 99.72C296.811 98.5733 295.371 96.9733 294.358 94.92C293.371 92.84 292.878 90.4 292.878 87.6C292.878 84.8 293.371 82.3733 294.358 80.32C295.371 78.24 296.811 76.64 298.678 75.52C300.571 74.3733 302.811 73.8 305.398 73.8C307.824 73.8 309.891 74.2267 311.598 75.08C313.304 75.9333 314.624 77.1333 315.558 78.68C316.491 80.2267 316.958 82.08 316.958 84.24V84.48H312.398V84.24C312.398 82.0533 311.838 80.4667 310.718 79.48C309.624 78.4667 307.811 77.96 305.278 77.96C303.438 77.96 301.944 78.28 300.798 78.92C299.651 79.56 298.811 80.5867 298.278 82C297.744 83.4133 297.478 85.28 297.478 87.6C297.478 89.8933 297.744 91.76 298.278 93.2C298.811 94.6133 299.651 95.64 300.798 96.28C301.944 96.8933 303.438 97.2 305.278 97.2C307.811 97.2 309.624 96.7067 310.718 95.72C311.838 94.7333 312.398 93.1467 312.398 90.96V90.72H316.958V90.96C316.958 93.0933 316.491 94.9467 315.558 96.52C314.624 98.0667 313.304 99.2667 311.598 100.12C309.891 100.973 307.824 101.4 305.398 101.4ZM324.831 101H320.511V81H324.471V86.56L324.831 86.76V101ZM324.831 88.04H323.831V84.16H324.671C325.071 83.2267 325.724 82.4267 326.631 81.76C327.564 81.0667 328.764 80.72 330.231 80.72C331.644 80.72 332.764 81.0267 333.591 81.64C334.444 82.2533 335.057 83.0667 335.431 84.08C335.804 85.0933 335.991 86.2267 335.991 87.48V88.8H331.671V88C331.671 86.6667 331.444 85.7333 330.991 85.2C330.537 84.6667 329.684 84.4 328.431 84.4C327.124 84.4 326.191 84.68 325.631 85.24C325.097 85.7733 324.831 86.7067 324.831 88.04ZM347.593 101.4C345.433 101.4 343.633 100.973 342.193 100.12C340.753 99.24 339.686 98.0267 338.993 96.48C338.299 94.9067 337.953 93.0933 337.953 91.04C337.953 88.9867 338.339 87.1867 339.113 85.64C339.913 84.0933 341.033 82.8933 342.473 82.04C343.913 81.16 345.619 80.72 347.593 80.72C349.379 80.72 350.953 81.0667 352.313 81.76C353.699 82.4267 354.766 83.4 355.513 84.68C356.286 85.96 356.673 87.5067 356.673 89.32C356.673 89.8533 356.646 90.3733 356.593 90.88C356.566 91.36 356.526 91.76 356.473 92.08H339.993V89.2H352.953L352.513 89.6C352.619 88.3733 352.486 87.3733 352.113 86.6C351.766 85.8267 351.193 85.2533 350.393 84.88C349.619 84.5067 348.646 84.32 347.473 84.32C345.366 84.32 343.926 84.8533 343.153 85.92C342.379 86.96 341.993 88.4 341.993 90.24V91.44C341.993 92.7733 342.153 93.9067 342.473 94.84C342.819 95.7467 343.406 96.4267 344.233 96.88C345.059 97.3333 346.193 97.56 347.633 97.56C349.313 97.56 350.499 97.2933 351.193 96.76C351.886 96.2267 352.233 95.52 352.233 94.64V94.32H356.513V94.68C356.513 96.04 356.139 97.2267 355.393 98.24C354.646 99.2267 353.606 100 352.273 100.56C350.966 101.12 349.406 101.4 347.593 101.4ZM377.116 101H373.116V97.08L372.996 96V88.36C372.996 86.8667 372.636 85.8533 371.916 85.32C371.223 84.7867 370.09 84.52 368.516 84.52C366.943 84.52 365.81 84.8 365.116 85.36C364.45 85.92 364.116 86.8533 364.116 88.16V88.76H359.956V88.36C359.956 86.8667 360.316 85.5467 361.036 84.4C361.783 83.2533 362.81 82.36 364.116 81.72C365.45 81.0533 366.996 80.72 368.756 80.72C370.623 80.72 372.17 81.0667 373.396 81.76C374.623 82.4533 375.543 83.4133 376.156 84.64C376.796 85.84 377.116 87.2667 377.116 88.92V101ZM365.716 101.4C363.93 101.4 362.423 100.947 361.196 100.04C359.996 99.1067 359.396 97.7867 359.396 96.08C359.396 94.96 359.65 94.0267 360.156 93.28C360.69 92.5333 361.45 91.92 362.436 91.44C363.423 90.96 364.623 90.6267 366.036 90.44L373.396 89.4V92.44L366.676 93.44C365.53 93.6 364.73 93.84 364.276 94.16C363.823 94.48 363.596 95.0133 363.596 95.76C363.596 96.5333 363.863 97.0933 364.396 97.44C364.956 97.7867 365.863 97.96 367.116 97.96C368.076 97.96 368.996 97.8133 369.876 97.52C370.783 97.2 371.53 96.68 372.116 95.96C372.703 95.2133 372.996 94.1733 372.996 92.84L373.556 97.92L372.916 97.88C372.543 98.4933 372.023 99.0667 371.356 99.6C370.716 100.133 369.93 100.573 368.996 100.92C368.063 101.24 366.97 101.4 365.716 101.4ZM389.338 101C387.152 101 385.472 100.533 384.298 99.6C383.152 98.6667 382.578 97.0933 382.578 94.88V81.56L383.578 76.2H386.898V94.68C386.898 95.72 387.152 96.3867 387.658 96.68C388.192 96.9467 389.138 97.08 390.498 97.08H392.898V100.64C392.498 100.747 391.978 100.84 391.338 100.92C390.698 100.973 390.032 101 389.338 101ZM392.898 84.72H379.258V81.12H392.898V84.72ZM403.96 101.4C401.8 101.4 400 100.973 398.56 100.12C397.12 99.24 396.053 98.0267 395.36 96.48C394.667 94.9067 394.32 93.0933 394.32 91.04C394.32 88.9867 394.707 87.1867 395.48 85.64C396.28 84.0933 397.4 82.8933 398.84 82.04C400.28 81.16 401.987 80.72 403.96 80.72C405.747 80.72 407.32 81.0667 408.68 81.76C410.067 82.4267 411.133 83.4 411.88 84.68C412.653 85.96 413.04 87.5067 413.04 89.32C413.04 89.8533 413.013 90.3733 412.96 90.88C412.933 91.36 412.893 91.76 412.84 92.08H396.36V89.2H409.32L408.88 89.6C408.987 88.3733 408.853 87.3733 408.48 86.6C408.133 85.8267 407.56 85.2533 406.76 84.88C405.987 84.5067 405.013 84.32 403.84 84.32C401.733 84.32 400.293 84.8533 399.52 85.92C398.747 86.96 398.36 88.4 398.36 90.24V91.44C398.36 92.7733 398.52 93.9067 398.84 94.84C399.187 95.7467 399.773 96.4267 400.6 96.88C401.427 97.3333 402.56 97.56 404 97.56C405.68 97.56 406.867 97.2933 407.56 96.76C408.253 96.2267 408.6 95.52 408.6 94.64V94.32H412.88V94.68C412.88 96.04 412.507 97.2267 411.76 98.24C411.013 99.2267 409.973 100 408.64 100.56C407.333 101.12 405.773 101.4 403.96 101.4ZM441.062 101H437.062V97.08L436.942 96V88.36C436.942 86.8667 436.582 85.8533 435.862 85.32C435.168 84.7867 434.035 84.52 432.462 84.52C430.888 84.52 429.755 84.8 429.062 85.36C428.395 85.92 428.062 86.8533 428.062 88.16V88.76H423.902V88.36C423.902 86.8667 424.262 85.5467 424.982 84.4C425.728 83.2533 426.755 82.36 428.062 81.72C429.395 81.0533 430.942 80.72 432.702 80.72C434.568 80.72 436.115 81.0667 437.342 81.76C438.568 82.4533 439.488 83.4133 440.102 84.64C440.742 85.84 441.062 87.2667 441.062 88.92V101ZM429.662 101.4C427.875 101.4 426.368 100.947 425.142 100.04C423.942 99.1067 423.342 97.7867 423.342 96.08C423.342 94.96 423.595 94.0267 424.102 93.28C424.635 92.5333 425.395 91.92 426.382 91.44C427.368 90.96 428.568 90.6267 429.982 90.44L437.342 89.4V92.44L430.622 93.44C429.475 93.6 428.675 93.84 428.222 94.16C427.768 94.48 427.542 95.0133 427.542 95.76C427.542 96.5333 427.808 97.0933 428.342 97.44C428.902 97.7867 429.808 97.96 431.062 97.96C432.022 97.96 432.942 97.8133 433.822 97.52C434.728 97.2 435.475 96.68 436.062 95.96C436.648 95.2133 436.942 94.1733 436.942 92.84L437.502 97.92L436.862 97.88C436.488 98.4933 435.968 99.0667 435.302 99.6C434.662 100.133 433.875 100.573 432.942 100.92C432.008 101.24 430.915 101.4 429.662 101.4ZM463.718 101H459.398V89.44C459.398 87.68 459.065 86.4133 458.398 85.64C457.731 84.84 456.478 84.44 454.638 84.44C453.465 84.44 452.505 84.6133 451.758 84.96C451.011 85.28 450.451 85.8133 450.078 86.56C449.705 87.28 449.518 88.2667 449.518 89.52H448.758L448.398 84.84H449.358C449.651 84.12 450.091 83.4533 450.678 82.84C451.265 82.2267 452.011 81.72 452.918 81.32C453.851 80.92 454.958 80.72 456.238 80.72C457.971 80.72 459.385 81.0533 460.478 81.72C461.571 82.3867 462.385 83.3067 462.918 84.48C463.451 85.6533 463.718 87 463.718 88.52V101ZM449.518 101H445.198V81.12H449.158V87.08L449.518 87.28V101ZM492.233 101H488.233V97.08L488.113 96V88.36C488.113 86.8667 487.753 85.8533 487.033 85.32C486.34 84.7867 485.207 84.52 483.633 84.52C482.06 84.52 480.927 84.8 480.233 85.36C479.567 85.92 479.233 86.8533 479.233 88.16V88.76H475.073V88.36C475.073 86.8667 475.433 85.5467 476.153 84.4C476.9 83.2533 477.927 82.36 479.233 81.72C480.567 81.0533 482.113 80.72 483.873 80.72C485.74 80.72 487.287 81.0667 488.513 81.76C489.74 82.4533 490.66 83.4133 491.273 84.64C491.913 85.84 492.233 87.2667 492.233 88.92V101ZM480.833 101.4C479.047 101.4 477.54 100.947 476.313 100.04C475.113 99.1067 474.513 97.7867 474.513 96.08C474.513 94.96 474.767 94.0267 475.273 93.28C475.807 92.5333 476.567 91.92 477.553 91.44C478.54 90.96 479.74 90.6267 481.153 90.44L488.513 89.4V92.44L481.793 93.44C480.647 93.6 479.847 93.84 479.393 94.16C478.94 94.48 478.713 95.0133 478.713 95.76C478.713 96.5333 478.98 97.0933 479.513 97.44C480.073 97.7867 480.98 97.96 482.233 97.96C483.193 97.96 484.113 97.8133 484.993 97.52C485.9 97.2 486.647 96.68 487.233 95.96C487.82 95.2133 488.113 94.1733 488.113 92.84L488.673 97.92L488.033 97.88C487.66 98.4933 487.14 99.0667 486.473 99.6C485.833 100.133 485.047 100.573 484.113 100.92C483.18 101.24 482.087 101.4 480.833 101.4ZM505.212 101.44C503.132 101.44 501.372 101 499.932 100.12C498.492 99.24 497.385 98.0267 496.612 96.48C495.865 94.9333 495.492 93.1333 495.492 91.08C495.492 89.0267 495.879 87.2267 496.652 85.68C497.452 84.1067 498.585 82.8933 500.052 82.04C501.519 81.16 503.292 80.72 505.372 80.72C507.132 80.72 508.679 81.0533 510.012 81.72C511.345 82.3867 512.372 83.32 513.092 84.52C513.839 85.72 514.212 87.12 514.212 88.72V89.08H509.932V88.84C509.932 87.3733 509.532 86.3067 508.732 85.64C507.959 84.9467 506.745 84.6 505.092 84.6C503.172 84.6 501.799 85.1467 500.972 86.24C500.172 87.3067 499.772 88.9067 499.772 91.04C499.772 93.2 500.172 94.8267 500.972 95.92C501.799 96.9867 503.172 97.52 505.092 97.52C506.745 97.52 507.959 97.1867 508.732 96.52C509.532 95.8267 509.932 94.76 509.932 93.32V93.08H514.212V93.44C514.212 94.9867 513.839 96.3733 513.092 97.6C512.345 98.8 511.292 99.7467 509.932 100.44C508.599 101.107 507.025 101.44 505.212 101.44ZM526.579 101.44C524.499 101.44 522.739 101 521.299 100.12C519.859 99.24 518.752 98.0267 517.979 96.48C517.232 94.9333 516.859 93.1333 516.859 91.08C516.859 89.0267 517.246 87.2267 518.019 85.68C518.819 84.1067 519.952 82.8933 521.419 82.04C522.886 81.16 524.659 80.72 526.739 80.72C528.499 80.72 530.046 81.0533 531.379 81.72C532.712 82.3867 533.739 83.32 534.459 84.52C535.206 85.72 535.579 87.12 535.579 88.72V89.08H531.299V88.84C531.299 87.3733 530.899 86.3067 530.099 85.64C529.326 84.9467 528.112 84.6 526.459 84.6C524.539 84.6 523.166 85.1467 522.339 86.24C521.539 87.3067 521.139 88.9067 521.139 91.04C521.139 93.2 521.539 94.8267 522.339 95.92C523.166 96.9867 524.539 97.52 526.459 97.52C528.112 97.52 529.326 97.1867 530.099 96.52C530.899 95.8267 531.299 94.76 531.299 93.32V93.08H535.579V93.44C535.579 94.9867 535.206 96.3733 534.459 97.6C533.712 98.8 532.659 99.7467 531.299 100.44C529.966 101.107 528.392 101.44 526.579 101.44ZM548.146 101.4C546.12 101.4 544.36 100.973 542.866 100.12C541.373 99.24 540.226 98.0267 539.426 96.48C538.626 94.9067 538.226 93.0933 538.226 91.04C538.226 88.9867 538.626 87.1867 539.426 85.64C540.226 84.0933 541.373 82.8933 542.866 82.04C544.36 81.16 546.12 80.72 548.146 80.72C550.173 80.72 551.906 81.16 553.346 82.04C554.813 82.8933 555.933 84.0933 556.706 85.64C557.506 87.1867 557.906 88.9867 557.906 91.04C557.906 93.0933 557.506 94.9067 556.706 96.48C555.933 98.0267 554.813 99.24 553.346 100.12C551.906 100.973 550.173 101.4 548.146 101.4ZM548.146 97.56C550.226 97.56 551.68 97.04 552.506 96C553.333 94.9333 553.746 93.28 553.746 91.04C553.746 88.8 553.333 87.16 552.506 86.12C551.68 85.08 550.226 84.56 548.146 84.56C546.04 84.56 544.573 85.08 543.746 86.12C542.92 87.16 542.506 88.8 542.506 91.04C542.506 93.28 542.92 94.9333 543.746 96C544.573 97.04 546.04 97.56 548.146 97.56ZM568.536 101.4C566.829 101.4 565.416 101.053 564.296 100.36C563.176 99.64 562.349 98.68 561.816 97.48C561.282 96.2533 561.016 94.8933 561.016 93.4V81.12H565.336V92.6C565.336 94.3867 565.709 95.68 566.456 96.48C567.202 97.28 568.429 97.68 570.136 97.68C571.256 97.68 572.202 97.5067 572.976 97.16C573.749 96.7867 574.336 96.2133 574.736 95.44C575.136 94.64 575.336 93.6 575.336 92.32H576.456V97.04H575.496C575.202 97.7867 574.749 98.4933 574.136 99.16C573.549 99.8267 572.789 100.373 571.856 100.8C570.949 101.2 569.842 101.4 568.536 101.4ZM579.656 101H575.656V95.04L575.336 94.84V81.12H579.656V101ZM602.429 101H598.109V89.44C598.109 87.68 597.776 86.4133 597.109 85.64C596.442 84.84 595.189 84.44 593.349 84.44C592.176 84.44 591.216 84.6133 590.469 84.96C589.722 85.28 589.162 85.8133 588.789 86.56C588.416 87.28 588.229 88.2667 588.229 89.52H587.469L587.109 84.84H588.069C588.362 84.12 588.802 83.4533 589.389 82.84C589.976 82.2267 590.722 81.72 591.629 81.32C592.562 80.92 593.669 80.72 594.949 80.72C596.682 80.72 598.096 81.0533 599.189 81.72C600.282 82.3867 601.096 83.3067 601.629 84.48C602.162 85.6533 602.429 87 602.429 88.52V101ZM588.229 101H583.909V81.12H587.869V87.08L588.229 87.28V101ZM614.651 101C612.464 101 610.784 100.533 609.611 99.6C608.464 98.6667 607.891 97.0933 607.891 94.88V81.56L608.891 76.2H612.211V94.68C612.211 95.72 612.464 96.3867 612.971 96.68C613.504 96.9467 614.451 97.08 615.811 97.08H618.211V100.64C617.811 100.747 617.291 100.84 616.651 100.92C616.011 100.973 615.344 101 614.651 101ZM618.211 84.72H604.571V81.12H618.211V84.72ZM637.034 101C634.847 101 633.167 100.533 631.994 99.6C630.847 98.6667 630.274 97.0933 630.274 94.88V81.56L631.274 76.2H634.594V94.68C634.594 95.72 634.847 96.3867 635.354 96.68C635.887 96.9467 636.834 97.08 638.194 97.08H640.594V100.64C640.194 100.747 639.674 100.84 639.034 100.92C638.394 100.973 637.727 101 637.034 101ZM640.594 84.72H626.954V81.12H640.594V84.72ZM651.935 101.4C649.909 101.4 648.149 100.973 646.655 100.12C645.162 99.24 644.015 98.0267 643.215 96.48C642.415 94.9067 642.015 93.0933 642.015 91.04C642.015 88.9867 642.415 87.1867 643.215 85.64C644.015 84.0933 645.162 82.8933 646.655 82.04C648.149 81.16 649.909 80.72 651.935 80.72C653.962 80.72 655.695 81.16 657.135 82.04C658.602 82.8933 659.722 84.0933 660.495 85.64C661.295 87.1867 661.695 88.9867 661.695 91.04C661.695 93.0933 661.295 94.9067 660.495 96.48C659.722 98.0267 658.602 99.24 657.135 100.12C655.695 100.973 653.962 101.4 651.935 101.4ZM651.935 97.56C654.015 97.56 655.469 97.04 656.295 96C657.122 94.9333 657.535 93.28 657.535 91.04C657.535 88.8 657.122 87.16 656.295 86.12C655.469 85.08 654.015 84.56 651.935 84.56C649.829 84.56 648.362 85.08 647.535 86.12C646.709 87.16 646.295 88.8 646.295 91.04C646.295 93.28 646.709 94.9333 647.535 96C648.362 97.04 649.829 97.56 651.935 97.56ZM287.392 150H283.072V138.44C283.072 136.68 282.738 135.413 282.072 134.64C281.432 133.84 280.205 133.44 278.392 133.44C276.765 133.44 275.552 133.827 274.752 134.6C273.978 135.347 273.592 136.627 273.592 138.44L272.832 138.52L272.472 133.84H273.112C273.432 133.147 273.872 132.493 274.432 131.88C275.018 131.24 275.765 130.72 276.672 130.32C277.578 129.92 278.685 129.72 279.992 129.72C281.725 129.72 283.125 130.053 284.192 130.72C285.285 131.387 286.085 132.307 286.592 133.48C287.125 134.653 287.392 136 287.392 137.52V150ZM259.792 150H255.472V130.12H259.432V136.08L259.792 136.28V150ZM273.592 150H269.272V138.44C269.272 136.68 268.938 135.413 268.272 134.64C267.632 133.84 266.405 133.44 264.592 133.44C262.965 133.44 261.752 133.813 260.952 134.56C260.178 135.307 259.792 136.587 259.792 138.4L259.032 138.52L258.672 133.84H259.632C259.925 133.12 260.352 132.453 260.912 131.84C261.498 131.227 262.245 130.72 263.152 130.32C264.058 129.92 265.138 129.72 266.392 129.72C268.072 129.72 269.432 130.053 270.472 130.72C271.538 131.387 272.325 132.307 272.832 133.48C273.338 134.653 273.592 136 273.592 137.52V150ZM308.288 150H304.288V146.08L304.168 145V137.36C304.168 135.867 303.808 134.853 303.088 134.32C302.395 133.787 301.261 133.52 299.688 133.52C298.115 133.52 296.981 133.8 296.288 134.36C295.621 134.92 295.288 135.853 295.288 137.16V137.76H291.128V137.36C291.128 135.867 291.488 134.547 292.208 133.4C292.955 132.253 293.981 131.36 295.288 130.72C296.621 130.053 298.168 129.72 299.928 129.72C301.795 129.72 303.341 130.067 304.568 130.76C305.795 131.453 306.715 132.413 307.328 133.64C307.968 134.84 308.288 136.267 308.288 137.92V150ZM296.888 150.4C295.101 150.4 293.595 149.947 292.368 149.04C291.168 148.107 290.568 146.787 290.568 145.08C290.568 143.96 290.821 143.027 291.328 142.28C291.861 141.533 292.621 140.92 293.608 140.44C294.595 139.96 295.795 139.627 297.208 139.44L304.568 138.4V141.44L297.848 142.44C296.701 142.6 295.901 142.84 295.448 143.16C294.995 143.48 294.768 144.013 294.768 144.76C294.768 145.533 295.035 146.093 295.568 146.44C296.128 146.787 297.035 146.96 298.288 146.96C299.248 146.96 300.168 146.813 301.048 146.52C301.955 146.2 302.701 145.68 303.288 144.96C303.875 144.213 304.168 143.173 304.168 141.84L304.728 146.92L304.088 146.88C303.715 147.493 303.195 148.067 302.528 148.6C301.888 149.133 301.101 149.573 300.168 149.92C299.235 150.24 298.141 150.4 296.888 150.4ZM330.945 150H326.625V138.44C326.625 136.68 326.291 135.413 325.625 134.64C324.958 133.84 323.705 133.44 321.865 133.44C320.691 133.44 319.731 133.613 318.985 133.96C318.238 134.28 317.678 134.813 317.305 135.56C316.931 136.28 316.745 137.267 316.745 138.52H315.985L315.625 133.84H316.585C316.878 133.12 317.318 132.453 317.905 131.84C318.491 131.227 319.238 130.72 320.145 130.32C321.078 129.92 322.185 129.72 323.465 129.72C325.198 129.72 326.611 130.053 327.705 130.72C328.798 131.387 329.611 132.307 330.145 133.48C330.678 134.653 330.945 136 330.945 137.52V150ZM316.745 150H312.425V130.12H316.385V136.08L316.745 136.28V150ZM351.843 150H347.843V146.08L347.723 145V137.36C347.723 135.867 347.363 134.853 346.643 134.32C345.949 133.787 344.816 133.52 343.243 133.52C341.669 133.52 340.536 133.8 339.843 134.36C339.176 134.92 338.843 135.853 338.843 137.16V137.76H334.683V137.36C334.683 135.867 335.043 134.547 335.763 133.4C336.509 132.253 337.536 131.36 338.843 130.72C340.176 130.053 341.723 129.72 343.483 129.72C345.349 129.72 346.896 130.067 348.123 130.76C349.349 131.453 350.269 132.413 350.883 133.64C351.523 134.84 351.843 136.267 351.843 137.92V150ZM340.443 150.4C338.656 150.4 337.149 149.947 335.923 149.04C334.723 148.107 334.123 146.787 334.123 145.08C334.123 143.96 334.376 143.027 334.883 142.28C335.416 141.533 336.176 140.92 337.163 140.44C338.149 139.96 339.349 139.627 340.763 139.44L348.123 138.4V141.44L341.403 142.44C340.256 142.6 339.456 142.84 339.003 143.16C338.549 143.48 338.323 144.013 338.323 144.76C338.323 145.533 338.589 146.093 339.123 146.44C339.683 146.787 340.589 146.96 341.843 146.96C342.803 146.96 343.723 146.813 344.603 146.52C345.509 146.2 346.256 145.68 346.843 144.96C347.429 144.213 347.723 143.173 347.723 141.84L348.283 146.92L347.643 146.88C347.269 147.493 346.749 148.067 346.083 148.6C345.443 149.133 344.656 149.573 343.723 149.92C342.789 150.24 341.696 150.4 340.443 150.4ZM365.301 157.2C363.435 157.2 361.808 156.907 360.421 156.32C359.061 155.733 358.008 154.88 357.261 153.76C356.515 152.667 356.141 151.32 356.141 149.72H360.461C360.461 150.627 360.595 151.347 360.861 151.88C361.128 152.413 361.621 152.787 362.341 153C363.061 153.24 364.088 153.36 365.421 153.36C366.728 153.36 367.728 153.213 368.421 152.92C369.115 152.627 369.595 152.133 369.861 151.44C370.128 150.747 370.261 149.787 370.261 148.56V135.36L370.581 134.84V130.12H374.581V148.56C374.581 150.507 374.208 152.107 373.461 153.36C372.715 154.64 371.648 155.6 370.261 156.24C368.901 156.88 367.248 157.2 365.301 157.2ZM363.621 148.12C360.875 148.12 358.768 147.293 357.301 145.64C355.835 143.96 355.101 141.72 355.101 138.92C355.101 136.12 355.848 133.893 357.341 132.24C358.835 130.56 360.981 129.72 363.781 129.72C365.408 129.72 366.808 130.053 367.981 130.72C369.155 131.36 369.968 132.253 370.421 133.4H371.221L371.021 138.28H370.261C370.261 137.16 370.035 136.24 369.581 135.52C369.128 134.8 368.488 134.267 367.661 133.92C366.835 133.573 365.875 133.4 364.781 133.4C363.528 133.4 362.501 133.573 361.701 133.92C360.928 134.267 360.355 134.853 359.981 135.68C359.608 136.48 359.421 137.56 359.421 138.92C359.421 139.933 359.528 140.8 359.741 141.52C359.955 142.213 360.288 142.773 360.741 143.2C361.195 143.627 361.768 143.947 362.461 144.16C363.155 144.347 363.955 144.44 364.861 144.44C365.955 144.44 366.901 144.267 367.701 143.92C368.501 143.547 369.128 143 369.581 142.28C370.035 141.56 370.261 140.64 370.261 139.52H371.141V144.6H370.101C369.648 145.56 368.861 146.387 367.741 147.08C366.621 147.773 365.248 148.12 363.621 148.12ZM387.476 150.4C385.316 150.4 383.516 149.973 382.076 149.12C380.636 148.24 379.569 147.027 378.876 145.48C378.182 143.907 377.836 142.093 377.836 140.04C377.836 137.987 378.222 136.187 378.996 134.64C379.796 133.093 380.916 131.893 382.356 131.04C383.796 130.16 385.502 129.72 387.476 129.72C389.262 129.72 390.836 130.067 392.196 130.76C393.582 131.427 394.649 132.4 395.396 133.68C396.169 134.96 396.556 136.507 396.556 138.32C396.556 138.853 396.529 139.373 396.476 139.88C396.449 140.36 396.409 140.76 396.356 141.08H379.876V138.2H392.836L392.396 138.6C392.502 137.373 392.369 136.373 391.996 135.6C391.649 134.827 391.076 134.253 390.276 133.88C389.502 133.507 388.529 133.32 387.356 133.32C385.249 133.32 383.809 133.853 383.036 134.92C382.262 135.96 381.876 137.4 381.876 139.24V140.44C381.876 141.773 382.036 142.907 382.356 143.84C382.702 144.747 383.289 145.427 384.116 145.88C384.942 146.333 386.076 146.56 387.516 146.56C389.196 146.56 390.382 146.293 391.076 145.76C391.769 145.227 392.116 144.52 392.116 143.64V143.32H396.396V143.68C396.396 145.04 396.022 146.227 395.276 147.24C394.529 148.227 393.489 149 392.156 149.56C390.849 150.12 389.289 150.4 387.476 150.4ZM416.097 150.4C413.191 150.4 410.991 149.827 409.497 148.68C408.004 147.507 407.257 145.707 407.257 143.28V143.2H411.417V143.92C411.417 144.613 411.551 145.187 411.817 145.64C412.111 146.067 412.591 146.387 413.257 146.6C413.951 146.787 414.924 146.88 416.177 146.88C417.244 146.88 418.044 146.8 418.577 146.64C419.137 146.453 419.511 146.2 419.697 145.88C419.884 145.56 419.977 145.16 419.977 144.68C419.977 143.88 419.697 143.32 419.137 143C418.577 142.653 417.577 142.347 416.137 142.08L413.017 141.56C411.844 141.32 410.817 140.987 409.937 140.56C409.084 140.107 408.417 139.493 407.937 138.72C407.484 137.92 407.257 136.92 407.257 135.72C407.257 133.933 407.964 132.493 409.377 131.4C410.791 130.28 412.791 129.72 415.377 129.72C416.951 129.72 418.351 129.973 419.577 130.48C420.804 130.987 421.777 131.747 422.497 132.76C423.217 133.773 423.577 135.04 423.577 136.56V136.92H419.457V136.44C419.457 135.8 419.351 135.253 419.137 134.8C418.924 134.32 418.524 133.947 417.937 133.68C417.351 133.413 416.457 133.28 415.257 133.28C413.684 133.28 412.644 133.48 412.137 133.88C411.631 134.28 411.377 134.867 411.377 135.64C411.377 136.413 411.604 136.96 412.057 137.28C412.537 137.573 413.471 137.867 414.857 138.16L418.257 138.8C419.537 139.04 420.604 139.4 421.457 139.88C422.311 140.36 422.951 140.987 423.377 141.76C423.831 142.533 424.057 143.453 424.057 144.52C424.057 146.387 423.351 147.84 421.937 148.88C420.551 149.893 418.604 150.4 416.097 150.4ZM435.628 150C433.441 150 431.761 149.533 430.588 148.6C429.441 147.667 428.868 146.093 428.868 143.88V130.56L429.868 125.2H433.188V143.68C433.188 144.72 433.441 145.387 433.948 145.68C434.481 145.947 435.428 146.08 436.788 146.08H439.188V149.64C438.788 149.747 438.268 149.84 437.628 149.92C436.988 149.973 436.321 150 435.628 150ZM439.188 133.72H425.548V130.12H439.188V133.72ZM449.551 150.4C447.845 150.4 446.431 150.053 445.311 149.36C444.191 148.64 443.365 147.68 442.831 146.48C442.298 145.253 442.031 143.893 442.031 142.4V130.12H446.351V141.6C446.351 143.387 446.725 144.68 447.471 145.48C448.218 146.28 449.445 146.68 451.151 146.68C452.271 146.68 453.218 146.507 453.991 146.16C454.765 145.787 455.351 145.213 455.751 144.44C456.151 143.64 456.351 142.6 456.351 141.32H457.471V146.04H456.511C456.218 146.787 455.765 147.493 455.151 148.16C454.565 148.827 453.805 149.373 452.871 149.8C451.965 150.2 450.858 150.4 449.551 150.4ZM460.671 150H456.671V144.04L456.351 143.84V130.12H460.671V150ZM472.807 150.4C469.98 150.4 467.807 149.467 466.287 147.6C464.793 145.707 464.047 143.187 464.047 140.04C464.047 136.893 464.78 134.387 466.247 132.52C467.74 130.653 469.847 129.72 472.567 129.72C474.327 129.72 475.74 130.08 476.807 130.8C477.9 131.493 478.66 132.293 479.087 133.2H480.167L479.967 138.28H479.207C479.207 137.16 478.993 136.24 478.567 135.52C478.14 134.8 477.527 134.267 476.727 133.92C475.927 133.573 474.94 133.4 473.767 133.4C472.807 133.4 471.98 133.52 471.287 133.76C470.62 134 470.06 134.373 469.607 134.88C469.18 135.387 468.86 136.067 468.647 136.92C468.46 137.773 468.367 138.813 468.367 140.04C468.367 141.24 468.46 142.28 468.647 143.16C468.86 144.013 469.18 144.707 469.607 145.24C470.06 145.747 470.633 146.12 471.327 146.36C472.02 146.6 472.833 146.72 473.767 146.72C474.94 146.72 475.927 146.547 476.727 146.2C477.527 145.827 478.14 145.28 478.567 144.56C478.993 143.84 479.207 142.933 479.207 141.84H479.967L480.167 146.72H479.367C478.913 147.867 478.127 148.773 477.007 149.44C475.913 150.08 474.513 150.4 472.807 150.4ZM483.527 150H479.527V145.28L479.207 144.76V123.2H483.527V150ZM496.46 150.4C494.3 150.4 492.5 149.973 491.06 149.12C489.62 148.24 488.553 147.027 487.86 145.48C487.167 143.907 486.82 142.093 486.82 140.04C486.82 137.987 487.207 136.187 487.98 134.64C488.78 133.093 489.9 131.893 491.34 131.04C492.78 130.16 494.487 129.72 496.46 129.72C498.247 129.72 499.82 130.067 501.18 130.76C502.567 131.427 503.633 132.4 504.38 133.68C505.153 134.96 505.54 136.507 505.54 138.32C505.54 138.853 505.513 139.373 505.46 139.88C505.433 140.36 505.393 140.76 505.34 141.08H488.86V138.2H501.82L501.38 138.6C501.487 137.373 501.353 136.373 500.98 135.6C500.633 134.827 500.06 134.253 499.26 133.88C498.487 133.507 497.513 133.32 496.34 133.32C494.233 133.32 492.793 133.853 492.02 134.92C491.247 135.96 490.86 137.4 490.86 139.24V140.44C490.86 141.773 491.02 142.907 491.34 143.84C491.687 144.747 492.273 145.427 493.1 145.88C493.927 146.333 495.06 146.56 496.5 146.56C498.18 146.56 499.367 146.293 500.06 145.76C500.753 145.227 501.1 144.52 501.1 143.64V143.32H505.38V143.68C505.38 145.04 505.007 146.227 504.26 147.24C503.513 148.227 502.473 149 501.14 149.56C499.833 150.12 498.273 150.4 496.46 150.4ZM527.507 150H523.187V138.44C523.187 136.68 522.854 135.413 522.187 134.64C521.521 133.84 520.267 133.44 518.427 133.44C517.254 133.44 516.294 133.613 515.547 133.96C514.801 134.28 514.241 134.813 513.867 135.56C513.494 136.28 513.307 137.267 513.307 138.52H512.547L512.187 133.84H513.147C513.441 133.12 513.881 132.453 514.467 131.84C515.054 131.227 515.801 130.72 516.707 130.32C517.641 129.92 518.747 129.72 520.027 129.72C521.761 129.72 523.174 130.053 524.267 130.72C525.361 131.387 526.174 132.307 526.707 133.48C527.241 134.653 527.507 136 527.507 137.52V150ZM513.307 150H508.987V130.12H512.947V136.08L513.307 136.28V150ZM539.729 150C537.542 150 535.862 149.533 534.689 148.6C533.542 147.667 532.969 146.093 532.969 143.88V130.56L533.969 125.2H537.289V143.68C537.289 144.72 537.542 145.387 538.049 145.68C538.582 145.947 539.529 146.08 540.889 146.08H543.289V149.64C542.889 149.747 542.369 149.84 541.729 149.92C541.089 149.973 540.422 150 539.729 150ZM543.289 133.72H529.649V130.12H543.289V133.72ZM562.112 150C559.925 150 558.245 149.533 557.072 148.6C555.925 147.667 555.352 146.093 555.352 143.88V130.56L556.352 125.2H559.672V143.68C559.672 144.72 559.925 145.387 560.432 145.68C560.965 145.947 561.912 146.08 563.272 146.08H565.672V149.64C565.272 149.747 564.752 149.84 564.112 149.92C563.472 149.973 562.805 150 562.112 150ZM565.672 133.72H552.032V130.12H565.672V133.72ZM585.358 150H581.358V146.08L581.238 145V137.36C581.238 135.867 580.878 134.853 580.158 134.32C579.465 133.787 578.332 133.52 576.758 133.52C575.185 133.52 574.052 133.8 573.358 134.36C572.692 134.92 572.358 135.853 572.358 137.16V137.76H568.198V137.36C568.198 135.867 568.558 134.547 569.278 133.4C570.025 132.253 571.052 131.36 572.358 130.72C573.692 130.053 575.238 129.72 576.998 129.72C578.865 129.72 580.412 130.067 581.638 130.76C582.865 131.453 583.785 132.413 584.398 133.64C585.038 134.84 585.358 136.267 585.358 137.92V150ZM573.958 150.4C572.172 150.4 570.665 149.947 569.438 149.04C568.238 148.107 567.638 146.787 567.638 145.08C567.638 143.96 567.892 143.027 568.398 142.28C568.932 141.533 569.692 140.92 570.678 140.44C571.665 139.96 572.865 139.627 574.278 139.44L581.638 138.4V141.44L574.918 142.44C573.772 142.6 572.972 142.84 572.518 143.16C572.065 143.48 571.838 144.013 571.838 144.76C571.838 145.533 572.105 146.093 572.638 146.44C573.198 146.787 574.105 146.96 575.358 146.96C576.318 146.96 577.238 146.813 578.118 146.52C579.025 146.2 579.772 145.68 580.358 144.96C580.945 144.213 581.238 143.173 581.238 141.84L581.798 146.92L581.158 146.88C580.785 147.493 580.265 148.067 579.598 148.6C578.958 149.133 578.172 149.573 577.238 149.92C576.305 150.24 575.212 150.4 573.958 150.4ZM593.815 150H589.495V123.2H593.815V150ZM606.733 150.4C604.573 150.4 602.773 149.973 601.333 149.12C599.893 148.24 598.827 147.027 598.133 145.48C597.44 143.907 597.093 142.093 597.093 140.04C597.093 137.987 597.48 136.187 598.253 134.64C599.053 133.093 600.173 131.893 601.613 131.04C603.053 130.16 604.76 129.72 606.733 129.72C608.52 129.72 610.093 130.067 611.453 130.76C612.84 131.427 613.907 132.4 614.653 133.68C615.427 134.96 615.813 136.507 615.813 138.32C615.813 138.853 615.787 139.373 615.733 139.88C615.707 140.36 615.667 140.76 615.613 141.08H599.133V138.2H612.093L611.653 138.6C611.76 137.373 611.627 136.373 611.253 135.6C610.907 134.827 610.333 134.253 609.533 133.88C608.76 133.507 607.787 133.32 606.613 133.32C604.507 133.32 603.067 133.853 602.293 134.92C601.52 135.96 601.133 137.4 601.133 139.24V140.44C601.133 141.773 601.293 142.907 601.613 143.84C601.96 144.747 602.547 145.427 603.373 145.88C604.2 146.333 605.333 146.56 606.773 146.56C608.453 146.56 609.64 146.293 610.333 145.76C611.027 145.227 611.373 144.52 611.373 143.64V143.32H615.653V143.68C615.653 145.04 615.28 146.227 614.533 147.24C613.787 148.227 612.747 149 611.413 149.56C610.107 150.12 608.547 150.4 606.733 150.4ZM637.781 150H633.461V138.44C633.461 136.68 633.127 135.413 632.461 134.64C631.794 133.84 630.541 133.44 628.701 133.44C627.527 133.44 626.567 133.613 625.821 133.96C625.074 134.28 624.514 134.813 624.141 135.56C623.767 136.28 623.581 137.267 623.581 138.52H622.821L622.461 133.84H623.421C623.714 133.12 624.154 132.453 624.741 131.84C625.327 131.227 626.074 130.72 626.981 130.32C627.914 129.92 629.021 129.72 630.301 129.72C632.034 129.72 633.447 130.053 634.541 130.72C635.634 131.387 636.447 132.307 636.981 133.48C637.514 134.653 637.781 136 637.781 137.52V150ZM623.581 150H619.261V130.12H623.221V136.08L623.581 136.28V150ZM650.003 150C647.816 150 646.136 149.533 644.963 148.6C643.816 147.667 643.243 146.093 643.243 143.88V130.56L644.243 125.2H647.563V143.68C647.563 144.72 647.816 145.387 648.323 145.68C648.856 145.947 649.803 146.08 651.163 146.08H653.563V149.64C653.163 149.747 652.643 149.84 652.003 149.92C651.363 149.973 650.696 150 650.003 150ZM653.563 133.72H639.923V130.12H653.563V133.72ZM661.712 150H656.232V143.8H661.712V150ZM657.752 154.68H656.352V151.88H657.632C657.979 151.88 658.232 151.813 658.392 151.68C658.579 151.573 658.672 151.293 658.672 150.84V149.08H661.712V150.76C661.712 152.093 661.366 153.08 660.672 153.72C659.979 154.36 659.006 154.68 657.752 154.68ZM240.368 199.44C238.288 199.44 236.528 199 235.088 198.12C233.648 197.24 232.541 196.027 231.768 194.48C231.021 192.933 230.648 191.133 230.648 189.08C230.648 187.027 231.035 185.227 231.808 183.68C232.608 182.107 233.741 180.893 235.208 180.04C236.675 179.16 238.448 178.72 240.528 178.72C242.288 178.72 243.835 179.053 245.168 179.72C246.501 180.387 247.528 181.32 248.248 182.52C248.995 183.72 249.368 185.12 249.368 186.72V187.08H245.088V186.84C245.088 185.373 244.688 184.307 243.888 183.64C243.115 182.947 241.901 182.6 240.248 182.6C238.328 182.6 236.955 183.147 236.128 184.24C235.328 185.307 234.928 186.907 234.928 189.04C234.928 191.2 235.328 192.827 236.128 193.92C236.955 194.987 238.328 195.52 240.248 195.52C241.901 195.52 243.115 195.187 243.888 194.52C244.688 193.827 245.088 192.76 245.088 191.32V191.08H249.368V191.44C249.368 192.987 248.995 194.373 248.248 195.6C247.501 196.8 246.448 197.747 245.088 198.44C243.755 199.107 242.181 199.44 240.368 199.44ZM261.935 199.4C259.909 199.4 258.149 198.973 256.655 198.12C255.162 197.24 254.015 196.027 253.215 194.48C252.415 192.907 252.015 191.093 252.015 189.04C252.015 186.987 252.415 185.187 253.215 183.64C254.015 182.093 255.162 180.893 256.655 180.04C258.149 179.16 259.909 178.72 261.935 178.72C263.962 178.72 265.695 179.16 267.135 180.04C268.602 180.893 269.722 182.093 270.495 183.64C271.295 185.187 271.695 186.987 271.695 189.04C271.695 191.093 271.295 192.907 270.495 194.48C269.722 196.027 268.602 197.24 267.135 198.12C265.695 198.973 263.962 199.4 261.935 199.4ZM261.935 195.56C264.015 195.56 265.469 195.04 266.295 194C267.122 192.933 267.535 191.28 267.535 189.04C267.535 186.8 267.122 185.16 266.295 184.12C265.469 183.08 264.015 182.56 261.935 182.56C259.829 182.56 258.362 183.08 257.535 184.12C256.709 185.16 256.295 186.8 256.295 189.04C256.295 191.28 256.709 192.933 257.535 194C258.362 195.04 259.829 195.56 261.935 195.56ZM293.445 199H289.125V187.44C289.125 185.68 288.791 184.413 288.125 183.64C287.458 182.84 286.205 182.44 284.365 182.44C283.191 182.44 282.231 182.613 281.485 182.96C280.738 183.28 280.178 183.813 279.805 184.56C279.431 185.28 279.245 186.267 279.245 187.52H278.485L278.125 182.84H279.085C279.378 182.12 279.818 181.453 280.405 180.84C280.991 180.227 281.738 179.72 282.645 179.32C283.578 178.92 284.685 178.72 285.965 178.72C287.698 178.72 289.111 179.053 290.205 179.72C291.298 180.387 292.111 181.307 292.645 182.48C293.178 183.653 293.445 185 293.445 186.52V199ZM279.245 199H274.925V179.12H278.885V185.08L279.245 185.28V199ZM316.101 199H311.781V187.44C311.781 185.68 311.448 184.413 310.781 183.64C310.114 182.84 308.861 182.44 307.021 182.44C305.848 182.44 304.888 182.613 304.141 182.96C303.394 183.28 302.834 183.813 302.461 184.56C302.088 185.28 301.901 186.267 301.901 187.52H301.141L300.781 182.84H301.741C302.034 182.12 302.474 181.453 303.061 180.84C303.648 180.227 304.394 179.72 305.301 179.32C306.234 178.92 307.341 178.72 308.621 178.72C310.354 178.72 311.768 179.053 312.861 179.72C313.954 180.387 314.768 181.307 315.301 182.48C315.834 183.653 316.101 185 316.101 186.52V199ZM301.901 199H297.581V179.12H301.541V185.08L301.901 185.28V199ZM328.999 199.4C326.839 199.4 325.039 198.973 323.599 198.12C322.159 197.24 321.092 196.027 320.399 194.48C319.706 192.907 319.359 191.093 319.359 189.04C319.359 186.987 319.746 185.187 320.519 183.64C321.319 182.093 322.439 180.893 323.879 180.04C325.319 179.16 327.026 178.72 328.999 178.72C330.786 178.72 332.359 179.067 333.719 179.76C335.106 180.427 336.172 181.4 336.919 182.68C337.692 183.96 338.079 185.507 338.079 187.32C338.079 187.853 338.052 188.373 337.999 188.88C337.972 189.36 337.932 189.76 337.879 190.08H321.399V187.2H334.359L333.919 187.6C334.026 186.373 333.892 185.373 333.519 184.6C333.172 183.827 332.599 183.253 331.799 182.88C331.026 182.507 330.052 182.32 328.879 182.32C326.772 182.32 325.332 182.853 324.559 183.92C323.786 184.96 323.399 186.4 323.399 188.24V189.44C323.399 190.773 323.559 191.907 323.879 192.84C324.226 193.747 324.812 194.427 325.639 194.88C326.466 195.333 327.599 195.56 329.039 195.56C330.719 195.56 331.906 195.293 332.599 194.76C333.292 194.227 333.639 193.52 333.639 192.64V192.32H337.919V192.68C337.919 194.04 337.546 195.227 336.799 196.24C336.052 197.227 335.012 198 333.679 198.56C332.372 199.12 330.812 199.4 328.999 199.4ZM350.642 199.44C348.562 199.44 346.802 199 345.362 198.12C343.922 197.24 342.815 196.027 342.042 194.48C341.295 192.933 340.922 191.133 340.922 189.08C340.922 187.027 341.308 185.227 342.082 183.68C342.882 182.107 344.015 180.893 345.482 180.04C346.948 179.16 348.722 178.72 350.802 178.72C352.562 178.72 354.108 179.053 355.442 179.72C356.775 180.387 357.802 181.32 358.522 182.52C359.268 183.72 359.642 185.12 359.642 186.72V187.08H355.362V186.84C355.362 185.373 354.962 184.307 354.162 183.64C353.388 182.947 352.175 182.6 350.522 182.6C348.602 182.6 347.228 183.147 346.402 184.24C345.602 185.307 345.202 186.907 345.202 189.04C345.202 191.2 345.602 192.827 346.402 193.92C347.228 194.987 348.602 195.52 350.522 195.52C352.175 195.52 353.388 195.187 354.162 194.52C354.962 193.827 355.362 192.76 355.362 191.32V191.08H359.642V191.44C359.642 192.987 359.268 194.373 358.522 195.6C357.775 196.8 356.722 197.747 355.362 198.44C354.028 199.107 352.455 199.44 350.642 199.44ZM371.018 199C368.831 199 367.151 198.533 365.978 197.6C364.831 196.667 364.258 195.093 364.258 192.88V179.56L365.258 174.2H368.578V192.68C368.578 193.72 368.831 194.387 369.338 194.68C369.871 194.947 370.818 195.08 372.178 195.08H374.578V198.64C374.178 198.747 373.658 198.84 373.018 198.92C372.378 198.973 371.711 199 371.018 199ZM374.578 182.72H360.938V179.12H374.578V182.72ZM393.961 199H388.321L383.401 179.12H388.081L390.361 190.16L391.201 195.4H391.521L392.801 190.16L396.281 179.12H401.881L405.401 190.2L406.681 195.36H406.961L407.801 190.2L410.081 179.12H414.601L409.681 199H404.041L400.481 187.92L399.161 182.92H398.881L397.561 187.92L393.961 199ZM420.723 176.6H416.443L416.403 172.2H420.723V176.6ZM420.763 199H416.443V179H420.763V199ZM432.893 199C430.706 199 429.026 198.533 427.853 197.6C426.706 196.667 426.133 195.093 426.133 192.88V179.56L427.133 174.2H430.453V192.68C430.453 193.72 430.706 194.387 431.213 194.68C431.746 194.947 432.693 195.08 434.053 195.08H436.453V198.64C436.053 198.747 435.533 198.84 434.893 198.92C434.253 198.973 433.586 199 432.893 199ZM436.453 182.72H422.813V179.12H436.453V182.72ZM458.054 199H453.734V187.44C453.734 185.68 453.387 184.413 452.694 183.64C452.027 182.84 450.787 182.44 448.974 182.44C447.241 182.44 445.947 182.827 445.094 183.6C444.267 184.347 443.854 185.667 443.854 187.56H443.094L443.054 182.44H444.014C444.334 181.827 444.774 181.24 445.334 180.68C445.921 180.093 446.654 179.627 447.534 179.28C448.441 178.907 449.481 178.72 450.654 178.72C452.414 178.72 453.827 179.067 454.894 179.76C455.987 180.427 456.787 181.347 457.294 182.52C457.801 183.693 458.054 185.013 458.054 186.48V199ZM443.854 199H439.534V172.2H443.854V199ZM478.767 199.44C476.687 199.44 474.927 199 473.487 198.12C472.047 197.24 470.94 196.027 470.167 194.48C469.42 192.933 469.047 191.133 469.047 189.08C469.047 187.027 469.433 185.227 470.207 183.68C471.007 182.107 472.14 180.893 473.607 180.04C475.073 179.16 476.847 178.72 478.927 178.72C480.687 178.72 482.233 179.053 483.567 179.72C484.9 180.387 485.927 181.32 486.647 182.52C487.393 183.72 487.767 185.12 487.767 186.72V187.08H483.487V186.84C483.487 185.373 483.087 184.307 482.287 183.64C481.513 182.947 480.3 182.6 478.647 182.6C476.727 182.6 475.353 183.147 474.527 184.24C473.727 185.307 473.327 186.907 473.327 189.04C473.327 191.2 473.727 192.827 474.527 193.92C475.353 194.987 476.727 195.52 478.647 195.52C480.3 195.52 481.513 195.187 482.287 194.52C483.087 193.827 483.487 192.76 483.487 191.32V191.08H487.767V191.44C487.767 192.987 487.393 194.373 486.647 195.6C485.9 196.8 484.847 197.747 483.487 198.44C482.153 199.107 480.58 199.44 478.767 199.44ZM500.334 199.4C498.307 199.4 496.547 198.973 495.054 198.12C493.56 197.24 492.414 196.027 491.614 194.48C490.814 192.907 490.414 191.093 490.414 189.04C490.414 186.987 490.814 185.187 491.614 183.64C492.414 182.093 493.56 180.893 495.054 180.04C496.547 179.16 498.307 178.72 500.334 178.72C502.36 178.72 504.094 179.16 505.534 180.04C507 180.893 508.12 182.093 508.894 183.64C509.694 185.187 510.094 186.987 510.094 189.04C510.094 191.093 509.694 192.907 508.894 194.48C508.12 196.027 507 197.24 505.534 198.12C504.094 198.973 502.36 199.4 500.334 199.4ZM500.334 195.56C502.414 195.56 503.867 195.04 504.694 194C505.52 192.933 505.934 191.28 505.934 189.04C505.934 186.8 505.52 185.16 504.694 184.12C503.867 183.08 502.414 182.56 500.334 182.56C498.227 182.56 496.76 183.08 495.934 184.12C495.107 185.16 494.694 186.8 494.694 189.04C494.694 191.28 495.107 192.933 495.934 194C496.76 195.04 498.227 195.56 500.334 195.56ZM545.243 199H540.923V187.44C540.923 185.68 540.59 184.413 539.923 183.64C539.283 182.84 538.056 182.44 536.243 182.44C534.616 182.44 533.403 182.827 532.603 183.6C531.83 184.347 531.443 185.627 531.443 187.44L530.683 187.52L530.323 182.84H530.963C531.283 182.147 531.723 181.493 532.283 180.88C532.87 180.24 533.616 179.72 534.523 179.32C535.43 178.92 536.536 178.72 537.843 178.72C539.576 178.72 540.976 179.053 542.043 179.72C543.136 180.387 543.936 181.307 544.443 182.48C544.976 183.653 545.243 185 545.243 186.52V199ZM517.643 199H513.323V179.12H517.283V185.08L517.643 185.28V199ZM531.443 199H527.123V187.44C527.123 185.68 526.79 184.413 526.123 183.64C525.483 182.84 524.256 182.44 522.443 182.44C520.816 182.44 519.603 182.813 518.803 183.56C518.03 184.307 517.643 185.587 517.643 187.4L516.883 187.52L516.523 182.84H517.483C517.776 182.12 518.203 181.453 518.763 180.84C519.35 180.227 520.096 179.72 521.003 179.32C521.91 178.92 522.99 178.72 524.243 178.72C525.923 178.72 527.283 179.053 528.323 179.72C529.39 180.387 530.176 181.307 530.683 182.48C531.19 183.653 531.443 185 531.443 186.52V199ZM560.258 199.4C558.471 199.4 557.018 199.053 555.898 198.36C554.804 197.64 554.044 196.827 553.618 195.92H552.538L552.738 190.84H553.498C553.498 191.933 553.698 192.84 554.098 193.56C554.524 194.28 555.151 194.827 555.978 195.2C556.804 195.547 557.791 195.72 558.938 195.72C559.871 195.72 560.684 195.6 561.378 195.36C562.071 195.12 562.631 194.747 563.058 194.24C563.511 193.733 563.831 193.053 564.018 192.2C564.231 191.32 564.338 190.267 564.338 189.04C564.338 187.813 564.231 186.787 564.018 185.96C563.831 185.107 563.511 184.413 563.058 183.88C562.631 183.347 562.071 182.973 561.378 182.76C560.711 182.52 559.898 182.4 558.938 182.4C557.791 182.4 556.804 182.587 555.978 182.96C555.151 183.307 554.524 183.84 554.098 184.56C553.698 185.253 553.498 186.16 553.498 187.28H552.738L552.538 182.4H553.338C553.818 181.253 554.604 180.36 555.698 179.72C556.818 179.053 558.244 178.72 559.978 178.72C562.778 178.72 564.924 179.653 566.418 181.52C567.911 183.387 568.658 185.893 568.658 189.04C568.658 192.187 567.938 194.707 566.498 196.6C565.058 198.467 562.978 199.4 560.258 199.4ZM553.498 205.92H549.218V179.12H553.138V183.84L553.498 184.36V205.92ZM589.108 199H585.108V195.08L584.988 194V186.36C584.988 184.867 584.628 183.853 583.908 183.32C583.215 182.787 582.082 182.52 580.508 182.52C578.935 182.52 577.802 182.8 577.108 183.36C576.442 183.92 576.108 184.853 576.108 186.16V186.76H571.948V186.36C571.948 184.867 572.308 183.547 573.028 182.4C573.775 181.253 574.802 180.36 576.108 179.72C577.442 179.053 578.988 178.72 580.748 178.72C582.615 178.72 584.162 179.067 585.388 179.76C586.615 180.453 587.535 181.413 588.148 182.64C588.788 183.84 589.108 185.267 589.108 186.92V199ZM577.708 199.4C575.922 199.4 574.415 198.947 573.188 198.04C571.988 197.107 571.388 195.787 571.388 194.08C571.388 192.96 571.642 192.027 572.148 191.28C572.682 190.533 573.442 189.92 574.428 189.44C575.415 188.96 576.615 188.627 578.028 188.44L585.388 187.4V190.44L578.668 191.44C577.522 191.6 576.722 191.84 576.268 192.16C575.815 192.48 575.588 193.013 575.588 193.76C575.588 194.533 575.855 195.093 576.388 195.44C576.948 195.787 577.855 195.96 579.108 195.96C580.068 195.96 580.988 195.813 581.868 195.52C582.775 195.2 583.522 194.68 584.108 193.96C584.695 193.213 584.988 192.173 584.988 190.84L585.548 195.92L584.908 195.88C584.535 196.493 584.015 197.067 583.348 197.6C582.708 198.133 581.922 198.573 580.988 198.92C580.055 199.24 578.962 199.4 577.708 199.4ZM611.765 199H607.445V187.44C607.445 185.68 607.112 184.413 606.445 183.64C605.778 182.84 604.525 182.44 602.685 182.44C601.512 182.44 600.552 182.613 599.805 182.96C599.058 183.28 598.498 183.813 598.125 184.56C597.752 185.28 597.565 186.267 597.565 187.52H596.805L596.445 182.84H597.405C597.698 182.12 598.138 181.453 598.725 180.84C599.312 180.227 600.058 179.72 600.965 179.32C601.898 178.92 603.005 178.72 604.285 178.72C606.018 178.72 607.432 179.053 608.525 179.72C609.618 180.387 610.432 181.307 610.965 182.48C611.498 183.653 611.765 185 611.765 186.52V199ZM597.565 199H593.245V179.12H597.205V185.08L597.565 185.28V199ZM619.941 176.6H615.661L615.621 172.2H619.941V176.6ZM619.981 199H615.661V179H619.981V199ZM632.593 199.4C630.433 199.4 628.633 198.973 627.193 198.12C625.753 197.24 624.686 196.027 623.993 194.48C623.299 192.907 622.953 191.093 622.953 189.04C622.953 186.987 623.339 185.187 624.113 183.64C624.913 182.093 626.033 180.893 627.473 180.04C628.913 179.16 630.619 178.72 632.593 178.72C634.379 178.72 635.953 179.067 637.313 179.76C638.699 180.427 639.766 181.4 640.513 182.68C641.286 183.96 641.673 185.507 641.673 187.32C641.673 187.853 641.646 188.373 641.593 188.88C641.566 189.36 641.526 189.76 641.473 190.08H624.993V187.2H637.953L637.513 187.6C637.619 186.373 637.486 185.373 637.113 184.6C636.766 183.827 636.193 183.253 635.393 182.88C634.619 182.507 633.646 182.32 632.473 182.32C630.366 182.32 628.926 182.853 628.153 183.92C627.379 184.96 626.993 186.4 626.993 188.24V189.44C626.993 190.773 627.153 191.907 627.473 192.84C627.819 193.747 628.406 194.427 629.233 194.88C630.059 195.333 631.193 195.56 632.633 195.56C634.313 195.56 635.499 195.293 636.193 194.76C636.886 194.227 637.233 193.52 637.233 192.64V192.32H641.513V192.68C641.513 194.04 641.139 195.227 640.393 196.24C639.646 197.227 638.606 198 637.273 198.56C635.966 199.12 634.406 199.4 632.593 199.4ZM653.675 199.4C650.769 199.4 648.569 198.827 647.075 197.68C645.582 196.507 644.835 194.707 644.835 192.28V192.2H648.995V192.92C648.995 193.613 649.129 194.187 649.395 194.64C649.689 195.067 650.169 195.387 650.835 195.6C651.529 195.787 652.502 195.88 653.755 195.88C654.822 195.88 655.622 195.8 656.155 195.64C656.715 195.453 657.089 195.2 657.275 194.88C657.462 194.56 657.555 194.16 657.555 193.68C657.555 192.88 657.275 192.32 656.715 192C656.155 191.653 655.155 191.347 653.715 191.08L650.595 190.56C649.422 190.32 648.395 189.987 647.515 189.56C646.662 189.107 645.995 188.493 645.515 187.72C645.062 186.92 644.835 185.92 644.835 184.72C644.835 182.933 645.542 181.493 646.955 180.4C648.369 179.28 650.369 178.72 652.955 178.72C654.529 178.72 655.929 178.973 657.155 179.48C658.382 179.987 659.355 180.747 660.075 181.76C660.795 182.773 661.155 184.04 661.155 185.56V185.92H657.035V185.44C657.035 184.8 656.929 184.253 656.715 183.8C656.502 183.32 656.102 182.947 655.515 182.68C654.929 182.413 654.035 182.28 652.835 182.28C651.262 182.28 650.222 182.48 649.715 182.88C649.209 183.28 648.955 183.867 648.955 184.64C648.955 185.413 649.182 185.96 649.635 186.28C650.115 186.573 651.049 186.867 652.435 187.16L655.835 187.8C657.115 188.04 658.182 188.4 659.035 188.88C659.889 189.36 660.529 189.987 660.955 190.76C661.409 191.533 661.635 192.453 661.635 193.52C661.635 195.387 660.929 196.84 659.515 197.88C658.129 198.893 656.182 199.4 653.675 199.4Z" fill="white"/>
<rect x="51" y="432" width="293" height="293" rx="146.5" fill="#2D3B40"/>
<path d="M176.487 675.596C173.542 681.309 175.77 688.415 181.844 690.518C193.302 694.483 205.549 695.859 217.694 694.48C233.71 692.661 248.827 686.135 261.134 675.724C273.441 665.314 282.385 651.489 286.834 635.996C290.207 624.248 290.882 611.942 288.872 599.985C287.806 593.647 281.167 590.271 275.045 592.228C268.923 594.185 265.673 600.748 266.375 607.137C267.199 614.632 266.564 622.253 264.462 629.571C261.284 640.639 254.894 650.517 246.102 657.954C237.31 665.391 226.51 670.053 215.068 671.352C207.503 672.211 199.881 671.574 192.627 669.519C186.443 667.766 179.432 669.883 176.487 675.596Z" fill="white"/>
</g>
<path d="M679.014 1235.11C679.014 1235.82 678.439 1236.4 677.73 1236.4H663.783C662.47 1236.4 662.004 1238.15 663.142 1238.8L668.36 1241.83C668.757 1242.06 669.246 1242.06 669.643 1241.83L688.358 1230.97C688.755 1230.74 689 1230.32 689 1229.86V1221.23C689 1220.24 687.929 1219.62 687.074 1220.12L679.655 1224.43C679.258 1224.66 679.014 1225.08 679.014 1225.54V1235.11Z" fill="white"/>
<path d="M649 1229.86C649 1230.32 649.244 1230.74 649.641 1230.97L657.06 1235.28C657.916 1235.78 658.986 1235.16 658.986 1234.17V1225.54C658.986 1225.08 658.742 1224.66 658.345 1224.43L650.926 1220.12C650.071 1219.62 649 1220.24 649 1221.23V1229.86Z" fill="white"/>
<path d="M656.594 1205.77C657.25 1204.63 655.976 1203.35 654.84 1204.01L649.641 1207.03C649.244 1207.26 649 1207.68 649 1208.14V1214.18C649 1215.5 650.74 1215.97 651.396 1214.83L656.594 1205.77Z" fill="white"/>
<path d="M669.643 1207.77C669.246 1207.54 668.757 1207.54 668.36 1207.77L659.632 1212.83C659.235 1213.06 658.99 1213.48 658.99 1213.94V1224.06C658.99 1224.52 659.235 1224.94 659.632 1225.17L668.36 1230.23C668.757 1230.46 669.246 1230.46 669.643 1230.23L678.372 1225.17C678.769 1224.94 679.014 1224.52 679.014 1224.06V1213.94C679.014 1213.48 678.769 1213.06 678.372 1212.83L669.643 1207.77Z" fill="white"/>
<path d="M683.156 1204.01C682.019 1203.35 680.745 1204.63 681.401 1205.77L686.6 1214.83C687.256 1215.97 688.996 1215.5 688.996 1214.18V1208.14C688.996 1207.68 688.751 1207.26 688.355 1207.03L683.156 1204.01Z" fill="white"/>
<path d="M669.643 1196.17C669.246 1195.94 668.757 1195.94 668.36 1196.17L660.917 1200.48C660.061 1200.98 660.061 1202.22 660.917 1202.72L668.36 1207.03C668.757 1207.26 669.246 1207.26 669.643 1207.03L677.087 1202.72C677.943 1202.22 677.943 1200.98 677.087 1200.48L669.643 1196.17Z" fill="white"/>
<defs>
<clipPath id="clip0_18934_20054">
<rect width="727" height="1272" rx="20.1569" fill="white"/>
</clipPath>
</defs>
</svg>
