<svg width="727" height="1272" viewBox="0 0 727 1272" fill="none" xmlns="http://www.w3.org/2000/svg">
<g clip-path="url(#clip0_18960_20692)">
<rect width="728" height="1273" rx="20.1569" fill="#F2935C"/>
<line x1="217.338" y1="817.436" x2="296.774" y2="747.251" stroke="white" stroke-width="2" stroke-dasharray="4 4"/>
<ellipse cx="365.606" cy="738.126" rx="120.786" ry="31.2673" transform="rotate(6.69033 365.606 738.126)" fill="white"/>
<line x1="365" y1="584" x2="365" y2="478" stroke="white" stroke-width="2" stroke-dasharray="4 4"/>
<path d="M362.764 465.363C362.62 465.937 362.289 466.447 361.822 466.812C361.355 467.177 360.78 467.375 360.187 467.375C359.964 467.376 359.74 467.349 359.523 467.295L348.898 464.639C348.603 464.564 348.322 464.44 348.068 464.27L340.099 458.958C339.513 458.567 339.107 457.959 338.969 457.268C338.831 456.577 338.973 455.86 339.364 455.274C339.755 454.688 340.363 454.281 341.054 454.143C341.745 454.005 342.462 454.147 343.048 454.538L350.632 459.595L360.812 462.142C361.152 462.224 361.472 462.373 361.755 462.58C362.037 462.787 362.276 463.047 362.457 463.346C362.639 463.646 362.759 463.978 362.812 464.324C362.864 464.67 362.848 465.023 362.764 465.363ZM406.821 433.335C406.603 433.997 406.256 434.609 405.8 435.136C405.344 435.663 404.789 436.095 404.165 436.406L396.302 440.337L391.295 445.348L378.014 458.629C377.69 458.953 377.286 459.188 376.844 459.31C376.402 459.432 375.936 459.438 375.491 459.326L354.241 454.014C353.918 453.933 353.612 453.792 353.341 453.599L334.907 440.437L326.845 436.406C325.585 435.776 324.627 434.672 324.181 433.336C323.735 431.999 323.838 430.541 324.467 429.281L332.718 412.782C333.348 411.522 334.453 410.564 335.789 410.118C337.125 409.672 338.584 409.775 339.844 410.405L347.168 414.057L364.766 409.03C365.243 408.894 365.75 408.894 366.227 409.03L383.825 414.057L391.149 410.405C392.409 409.775 393.868 409.672 395.204 410.118C396.54 410.564 397.645 411.522 398.275 412.782L406.526 429.281C406.84 429.903 407.029 430.582 407.079 431.278C407.13 431.974 407.042 432.673 406.821 433.335ZM385.422 443.688L376.221 436.32C369.733 441.632 361.496 442.333 354.669 437.98C353.997 437.553 353.431 436.98 353.01 436.305C352.589 435.629 352.326 434.867 352.239 434.076C352.153 433.285 352.245 432.485 352.509 431.734C352.773 430.983 353.203 430.301 353.766 429.739C353.774 429.729 353.783 429.72 353.792 429.712L368.687 415.266L365.5 414.356L348.759 419.141L339.671 437.313L356.007 448.983L375.311 453.808L385.422 443.688ZM391.478 437.631L382.453 419.562H371.888L357.531 433.507C361.735 436.194 368.325 436.934 374.239 430.974C374.701 430.509 375.318 430.23 375.973 430.193C376.628 430.156 377.273 430.362 377.785 430.772L389.21 439.926L391.478 437.631Z" fill="#2D3B40"/>
<path fill-rule="evenodd" clip-rule="evenodd" d="M393 572H411C427.971 572 436.456 572 441.728 577.272C447 582.544 447 591.029 447 608V745.25H456C459.728 745.25 462.75 748.272 462.75 752C462.75 755.728 459.728 758.75 456 758.75H276C272.272 758.75 269.25 755.728 269.25 752C269.25 748.272 272.272 745.25 276 745.25H285V635C285 618.029 285 609.544 290.272 604.272C295.544 599 304.029 599 321 599H357C373.971 599 382.456 599 387.728 604.272C393 609.544 393 618.029 393 635V745.25H406.5V635L406.5 634.195C406.501 626.404 406.502 619.261 405.721 613.45C404.86 607.052 402.836 600.289 397.274 594.726C391.711 589.164 384.948 587.14 378.55 586.279C372.821 585.509 365.797 585.499 358.134 585.5C358.893 582.015 360.159 579.385 362.272 577.272C367.544 572 376.029 572 393 572ZM305.25 626C305.25 622.272 308.272 619.25 312 619.25H366C369.728 619.25 372.75 622.272 372.75 626C372.75 629.728 369.728 632.75 366 632.75H312C308.272 632.75 305.25 629.728 305.25 626ZM305.25 653C305.25 649.272 308.272 646.25 312 646.25H366C369.728 646.25 372.75 649.272 372.75 653C372.75 656.728 369.728 659.75 366 659.75H312C308.272 659.75 305.25 656.728 305.25 653ZM305.25 680C305.25 676.272 308.272 673.25 312 673.25H366C369.728 673.25 372.75 676.272 372.75 680C372.75 683.728 369.728 686.75 366 686.75H312C308.272 686.75 305.25 683.728 305.25 680ZM339 718.25C342.728 718.25 345.75 721.272 345.75 725V745.25H332.25V725C332.25 721.272 335.272 718.25 339 718.25Z" fill="#2D3B40"/>
<path d="M227.598 852.063H222.375V814.875C222.375 813.466 221.815 812.115 220.819 811.119C219.823 810.123 218.471 809.563 217.062 809.563H202.453C202.101 809.563 201.763 809.703 201.514 809.952C201.265 810.201 201.125 810.539 201.125 810.891V852.063H195.812V793.762C195.821 792.934 195.642 792.115 195.287 791.368C194.933 790.62 194.413 789.962 193.767 789.445C192.887 788.759 191.812 788.367 190.696 788.326C189.581 788.285 188.48 788.596 187.552 789.216L160.989 806.907C160.26 807.393 159.663 808.052 159.251 808.824C158.838 809.597 158.623 810.46 158.625 811.336V852.063H153.402C152.716 852.053 152.051 852.303 151.541 852.763C151.032 853.223 150.716 853.859 150.656 854.543C150.632 854.907 150.683 855.271 150.806 855.614C150.928 855.957 151.12 856.271 151.369 856.536C151.618 856.802 151.919 857.013 152.254 857.158C152.588 857.302 152.948 857.376 153.312 857.375H227.687C228.052 857.376 228.412 857.302 228.746 857.158C229.081 857.013 229.382 856.802 229.631 856.536C229.88 856.271 230.072 855.957 230.194 855.614C230.317 855.271 230.368 854.907 230.344 854.543C230.284 853.859 229.968 853.223 229.458 852.763C228.949 852.303 228.284 852.053 227.598 852.063ZM173.234 844.094C173.235 844.458 173.161 844.819 173.017 845.153C172.872 845.487 172.661 845.788 172.395 846.037C172.13 846.287 171.816 846.478 171.473 846.601C171.13 846.724 170.765 846.775 170.402 846.75C169.718 846.691 169.081 846.374 168.621 845.864C168.161 845.354 167.911 844.688 167.922 844.001V838.871C167.912 838.185 168.163 837.521 168.623 837.011C169.083 836.502 169.719 836.186 170.402 836.125C170.765 836.101 171.13 836.152 171.473 836.275C171.816 836.397 172.13 836.589 172.395 836.838C172.661 837.087 172.872 837.389 173.017 837.723C173.161 838.057 173.235 838.418 173.234 838.782V844.094ZM173.234 825.5C173.235 825.865 173.161 826.225 173.017 826.559C172.872 826.894 172.661 827.195 172.395 827.444C172.13 827.693 171.816 827.885 171.473 828.007C171.13 828.13 170.765 828.181 170.402 828.157C169.718 828.096 169.082 827.779 168.622 827.269C168.162 826.759 167.912 826.094 167.922 825.407V820.278C167.912 819.591 168.163 818.927 168.623 818.418C169.083 817.908 169.719 817.592 170.402 817.532C170.765 817.508 171.13 817.558 171.473 817.681C171.816 817.804 172.13 817.996 172.395 818.245C172.661 818.494 172.872 818.795 173.017 819.129C173.161 819.463 173.235 819.824 173.234 820.188V825.5ZM186.516 844.094C186.516 844.458 186.442 844.819 186.298 845.153C186.154 845.487 185.942 845.788 185.676 846.037C185.411 846.287 185.097 846.478 184.754 846.601C184.411 846.724 184.047 846.775 183.683 846.75C183 846.691 182.365 846.375 181.904 845.866C181.444 845.358 181.194 844.694 181.203 844.008V838.871C181.195 838.186 181.445 837.522 181.905 837.014C182.365 836.505 183 836.189 183.683 836.129C184.047 836.105 184.411 836.155 184.754 836.278C185.097 836.401 185.411 836.593 185.676 836.842C185.942 837.091 186.154 837.392 186.298 837.726C186.442 838.06 186.516 838.421 186.516 838.785V844.094ZM186.516 825.5C186.516 825.865 186.442 826.225 186.298 826.559C186.154 826.894 185.942 827.195 185.676 827.444C185.411 827.693 185.097 827.885 184.754 828.007C184.411 828.13 184.047 828.181 183.683 828.157C183 828.096 182.365 827.78 181.905 827.272C181.445 826.763 181.195 826.1 181.203 825.414V820.278C181.195 819.592 181.445 818.928 181.905 818.42C182.365 817.911 183 817.595 183.683 817.535C184.047 817.511 184.411 817.562 184.754 817.684C185.097 817.807 185.411 817.999 185.676 818.248C185.942 818.497 186.154 818.798 186.298 819.132C186.442 819.467 186.516 819.827 186.516 820.191V825.5Z" fill="#2D3B40"/>
<line x1="432.616" y1="769.212" x2="502.335" y2="823.694" stroke="white" stroke-width="2" stroke-dasharray="4 4"/>
<path d="M569.215 812.73L537.34 802.105C536.795 801.923 536.205 801.923 535.66 802.105L503.785 812.73C503.256 812.906 502.796 813.245 502.47 813.697C502.144 814.149 501.969 814.693 501.969 815.25V841.813C501.969 842.517 502.249 843.193 502.747 843.691C503.245 844.189 503.921 844.469 504.625 844.469C505.329 844.469 506.005 844.189 506.503 843.691C507.001 843.193 507.281 842.517 507.281 841.813V818.936L518.434 822.651C515.471 827.438 514.529 833.206 515.814 838.687C517.1 844.169 520.508 848.916 525.291 851.887C519.314 854.231 514.148 858.471 510.369 864.268C510.173 864.56 510.036 864.888 509.968 865.234C509.899 865.579 509.9 865.934 509.97 866.279C510.04 866.624 510.178 866.952 510.376 867.243C510.573 867.534 510.827 867.783 511.122 867.976C511.417 868.168 511.747 868.3 512.093 868.363C512.439 868.427 512.795 868.421 513.139 868.346C513.483 868.271 513.808 868.129 514.097 867.927C514.385 867.725 514.63 867.467 514.818 867.17C519.822 859.493 527.724 855.094 536.5 855.094C545.276 855.094 553.178 859.493 558.182 867.17C558.571 867.749 559.173 868.151 559.857 868.29C560.541 868.429 561.252 868.293 561.837 867.912C562.421 867.531 562.832 866.935 562.981 866.253C563.129 865.571 563.004 864.858 562.631 864.268C558.852 858.471 553.666 854.231 547.709 851.887C552.487 848.916 555.892 844.172 557.178 838.695C558.463 833.217 557.524 827.454 554.566 822.668L569.215 817.787C569.744 817.611 570.204 817.272 570.53 816.82C570.856 816.368 571.032 815.824 571.032 815.267C571.032 814.709 570.856 814.166 570.53 813.713C570.204 813.261 569.744 812.923 569.215 812.747V812.73ZM552.438 833.844C552.438 836.364 551.842 838.847 550.696 841.092C549.551 843.336 547.89 845.277 545.85 846.755C543.809 848.233 541.447 849.207 538.958 849.595C536.468 849.984 533.922 849.777 531.528 848.991C529.134 848.205 526.961 846.862 525.186 845.074C523.412 843.285 522.086 841.101 521.319 838.701C520.552 836.301 520.365 833.753 520.773 831.267C521.181 828.781 522.173 826.426 523.667 824.398L535.66 828.382C536.205 828.564 536.795 828.564 537.34 828.382L549.333 824.398C551.351 827.134 552.439 830.444 552.438 833.844Z" fill="#2D3B40"/>
<path d="M564.98 869.038C564.786 869.375 564.506 869.654 564.17 869.848C563.833 870.043 563.451 870.145 563.063 870.145H509.938C509.549 870.145 509.168 870.042 508.832 869.847C508.496 869.653 508.217 869.374 508.023 869.037C507.829 868.701 507.726 868.319 507.727 867.931C507.727 867.542 507.829 867.161 508.023 866.825C512.237 859.539 518.731 854.315 526.31 851.839C522.561 849.607 519.648 846.207 518.019 842.16C516.39 838.112 516.135 833.642 517.292 829.436C518.449 825.23 520.956 821.519 524.426 818.875C527.896 816.231 532.138 814.799 536.5 814.799C540.863 814.799 545.105 816.231 548.575 818.875C552.045 821.519 554.551 825.23 555.709 829.436C556.866 833.642 556.61 838.112 554.981 842.16C553.352 846.207 550.44 849.607 546.691 851.839C554.27 854.315 560.764 859.539 564.978 866.825C565.172 867.161 565.275 867.542 565.275 867.931C565.276 868.32 565.174 868.701 564.98 869.038Z" fill="#2D3B40"/>
<path d="M169.83 125.4C167.27 125.4 165.177 125.04 163.55 124.32C161.923 123.573 160.71 122.547 159.91 121.24C159.137 119.907 158.75 118.387 158.75 116.68V116H162.99V116.44C162.99 117.533 163.177 118.453 163.55 119.2C163.95 119.947 164.657 120.507 165.67 120.88C166.683 121.253 168.137 121.44 170.03 121.44C172.003 121.44 173.39 121.16 174.19 120.6C174.99 120.013 175.39 119.107 175.39 117.88C175.39 117.053 175.27 116.387 175.03 115.88C174.79 115.373 174.31 114.96 173.59 114.64C172.897 114.293 171.857 113.987 170.47 113.72L165.91 112.8C164.363 112.507 163.07 112.053 162.03 111.44C160.99 110.8 160.19 109.987 159.63 109C159.097 108.013 158.83 106.827 158.83 105.44C158.83 104.107 159.177 102.867 159.87 101.72C160.59 100.547 161.683 99.6 163.15 98.88C164.643 98.16 166.537 97.8 168.83 97.8C171.283 97.8 173.27 98.2133 174.79 99.04C176.337 99.8667 177.457 100.96 178.15 102.32C178.87 103.653 179.23 105.12 179.23 106.72V107.2H174.95V106.76C174.95 105.64 174.763 104.72 174.39 104C174.043 103.253 173.403 102.693 172.47 102.32C171.563 101.92 170.323 101.72 168.75 101.72C166.777 101.72 165.35 102.013 164.47 102.6C163.59 103.187 163.15 104.067 163.15 105.24C163.15 106.04 163.283 106.68 163.55 107.16C163.843 107.64 164.337 108.027 165.03 108.32C165.75 108.587 166.71 108.867 167.91 109.16L172.47 110.12C174.177 110.44 175.55 110.947 176.59 111.64C177.657 112.333 178.443 113.187 178.95 114.2C179.457 115.187 179.71 116.36 179.71 117.72C179.71 119.107 179.363 120.387 178.67 121.56C177.977 122.733 176.897 123.667 175.43 124.36C173.99 125.053 172.123 125.4 169.83 125.4ZM201.531 125H197.211V113.44C197.211 111.68 196.864 110.413 196.171 109.64C195.504 108.84 194.264 108.44 192.451 108.44C190.717 108.44 189.424 108.827 188.571 109.6C187.744 110.347 187.331 111.667 187.331 113.56H186.571L186.531 108.44H187.491C187.811 107.827 188.251 107.24 188.811 106.68C189.397 106.093 190.131 105.627 191.011 105.28C191.917 104.907 192.957 104.72 194.131 104.72C195.891 104.72 197.304 105.067 198.371 105.76C199.464 106.427 200.264 107.347 200.771 108.52C201.277 109.693 201.531 111.013 201.531 112.48V125ZM187.331 125H183.011V98.2H187.331V125ZM222.546 125H218.546V121.08L218.426 120V112.36C218.426 110.867 218.066 109.853 217.346 109.32C216.653 108.787 215.519 108.52 213.946 108.52C212.373 108.52 211.239 108.8 210.546 109.36C209.879 109.92 209.546 110.853 209.546 112.16V112.76H205.386V112.36C205.386 110.867 205.746 109.547 206.466 108.4C207.213 107.253 208.239 106.36 209.546 105.72C210.879 105.053 212.426 104.72 214.186 104.72C216.053 104.72 217.599 105.067 218.826 105.76C220.053 106.453 220.973 107.413 221.586 108.64C222.226 109.84 222.546 111.267 222.546 112.92V125ZM211.146 125.4C209.359 125.4 207.853 124.947 206.626 124.04C205.426 123.107 204.826 121.787 204.826 120.08C204.826 118.96 205.079 118.027 205.586 117.28C206.119 116.533 206.879 115.92 207.866 115.44C208.853 114.96 210.053 114.627 211.466 114.44L218.826 113.4V116.44L212.106 117.44C210.959 117.6 210.159 117.84 209.706 118.16C209.253 118.48 209.026 119.013 209.026 119.76C209.026 120.533 209.293 121.093 209.826 121.44C210.386 121.787 211.293 121.96 212.546 121.96C213.506 121.96 214.426 121.813 215.306 121.52C216.213 121.2 216.959 120.68 217.546 119.96C218.133 119.213 218.426 118.173 218.426 116.84L218.986 121.92L218.346 121.88C217.973 122.493 217.453 123.067 216.786 123.6C216.146 124.133 215.359 124.573 214.426 124.92C213.493 125.24 212.399 125.4 211.146 125.4ZM231.003 125H226.683V105H230.643V110.56L231.003 110.76V125ZM231.003 112.04H230.003V108.16H230.843C231.243 107.227 231.896 106.427 232.803 105.76C233.736 105.067 234.936 104.72 236.403 104.72C237.816 104.72 238.936 105.027 239.763 105.64C240.616 106.253 241.229 107.067 241.603 108.08C241.976 109.093 242.163 110.227 242.163 111.48V112.8H237.843V112C237.843 110.667 237.616 109.733 237.163 109.2C236.709 108.667 235.856 108.4 234.603 108.4C233.296 108.4 232.363 108.68 231.803 109.24C231.269 109.773 231.003 110.707 231.003 112.04ZM253.765 125.4C251.605 125.4 249.805 124.973 248.365 124.12C246.925 123.24 245.858 122.027 245.165 120.48C244.471 118.907 244.125 117.093 244.125 115.04C244.125 112.987 244.511 111.187 245.285 109.64C246.085 108.093 247.205 106.893 248.645 106.04C250.085 105.16 251.791 104.72 253.765 104.72C255.551 104.72 257.125 105.067 258.485 105.76C259.871 106.427 260.938 107.4 261.685 108.68C262.458 109.96 262.845 111.507 262.845 113.32C262.845 113.853 262.818 114.373 262.765 114.88C262.738 115.36 262.698 115.76 262.645 116.08H246.165V113.2H259.125L258.685 113.6C258.791 112.373 258.658 111.373 258.285 110.6C257.938 109.827 257.365 109.253 256.565 108.88C255.791 108.507 254.818 108.32 253.645 108.32C251.538 108.32 250.098 108.853 249.325 109.92C248.551 110.96 248.165 112.4 248.165 114.24V115.44C248.165 116.773 248.325 117.907 248.645 118.84C248.991 119.747 249.578 120.427 250.405 120.88C251.231 121.333 252.365 121.56 253.805 121.56C255.485 121.56 256.671 121.293 257.365 120.76C258.058 120.227 258.405 119.52 258.405 118.64V118.32H262.685V118.68C262.685 120.04 262.311 121.227 261.565 122.24C260.818 123.227 259.778 124 258.445 124.56C257.138 125.12 255.578 125.4 253.765 125.4ZM277.426 131.8C276.893 131.8 276.346 131.76 275.786 131.68C275.226 131.627 274.773 131.547 274.426 131.44V127.92H277.186C278.013 127.92 278.626 127.8 279.026 127.56C279.426 127.347 279.8 126.88 280.146 126.16L281.386 123.36L281.026 124.76L272.426 105.12H277.186L281.186 114.76L282.986 119.08H283.346L284.946 114.76L288.586 105.12H293.386L283.946 127.32C283.466 128.52 282.92 129.44 282.306 130.08C281.693 130.72 280.986 131.16 280.186 131.4C279.413 131.667 278.493 131.8 277.426 131.8ZM303.771 125.4C301.745 125.4 299.985 124.973 298.491 124.12C296.998 123.24 295.851 122.027 295.051 120.48C294.251 118.907 293.851 117.093 293.851 115.04C293.851 112.987 294.251 111.187 295.051 109.64C295.851 108.093 296.998 106.893 298.491 106.04C299.985 105.16 301.745 104.72 303.771 104.72C305.798 104.72 307.531 105.16 308.971 106.04C310.438 106.893 311.558 108.093 312.331 109.64C313.131 111.187 313.531 112.987 313.531 115.04C313.531 117.093 313.131 118.907 312.331 120.48C311.558 122.027 310.438 123.24 308.971 124.12C307.531 124.973 305.798 125.4 303.771 125.4ZM303.771 121.56C305.851 121.56 307.305 121.04 308.131 120C308.958 118.933 309.371 117.28 309.371 115.04C309.371 112.8 308.958 111.16 308.131 110.12C307.305 109.08 305.851 108.56 303.771 108.56C301.665 108.56 300.198 109.08 299.371 110.12C298.545 111.16 298.131 112.8 298.131 115.04C298.131 117.28 298.545 118.933 299.371 120C300.198 121.04 301.665 121.56 303.771 121.56ZM324.161 125.4C322.454 125.4 321.041 125.053 319.921 124.36C318.801 123.64 317.974 122.68 317.441 121.48C316.907 120.253 316.641 118.893 316.641 117.4V105.12H320.961V116.6C320.961 118.387 321.334 119.68 322.081 120.48C322.827 121.28 324.054 121.68 325.761 121.68C326.881 121.68 327.827 121.507 328.601 121.16C329.374 120.787 329.961 120.213 330.361 119.44C330.761 118.64 330.961 117.6 330.961 116.32H332.081V121.04H331.121C330.827 121.787 330.374 122.493 329.761 123.16C329.174 123.827 328.414 124.373 327.481 124.8C326.574 125.2 325.467 125.4 324.161 125.4ZM335.281 125H331.281V119.04L330.961 118.84V105.12H335.281V125ZM343.854 125H339.534V105H343.494V110.56L343.854 110.76V125ZM343.854 112.04H342.854V108.16H343.694C344.094 107.227 344.747 106.427 345.654 105.76C346.587 105.067 347.787 104.72 349.254 104.72C350.667 104.72 351.787 105.027 352.614 105.64C353.467 106.253 354.081 107.067 354.454 108.08C354.827 109.093 355.014 110.227 355.014 111.48V112.8H350.694V112C350.694 110.667 350.467 109.733 350.014 109.2C349.561 108.667 348.707 108.4 347.454 108.4C346.147 108.4 345.214 108.68 344.654 109.24C344.121 109.773 343.854 110.707 343.854 112.04ZM377.429 125.4C374.842 125.4 372.602 124.84 370.709 123.72C368.842 122.573 367.402 120.973 366.389 118.92C365.402 116.84 364.909 114.4 364.909 111.6C364.909 108.8 365.402 106.373 366.389 104.32C367.402 102.24 368.842 100.64 370.709 99.52C372.602 98.3733 374.842 97.8 377.429 97.8C379.855 97.8 381.922 98.2267 383.629 99.08C385.335 99.9333 386.655 101.133 387.589 102.68C388.522 104.227 388.989 106.08 388.989 108.24V108.48H384.429V108.24C384.429 106.053 383.869 104.467 382.749 103.48C381.655 102.467 379.842 101.96 377.309 101.96C375.469 101.96 373.975 102.28 372.829 102.92C371.682 103.56 370.842 104.587 370.309 106C369.775 107.413 369.509 109.28 369.509 111.6C369.509 113.893 369.775 115.76 370.309 117.2C370.842 118.613 371.682 119.64 372.829 120.28C373.975 120.893 375.469 121.2 377.309 121.2C379.842 121.2 381.655 120.707 382.749 119.72C383.869 118.733 384.429 117.147 384.429 114.96V114.72H388.989V114.96C388.989 117.093 388.522 118.947 387.589 120.52C386.655 122.067 385.335 123.267 383.629 124.12C381.922 124.973 379.855 125.4 377.429 125.4ZM401.662 125.4C399.635 125.4 397.875 124.973 396.382 124.12C394.889 123.24 393.742 122.027 392.942 120.48C392.142 118.907 391.742 117.093 391.742 115.04C391.742 112.987 392.142 111.187 392.942 109.64C393.742 108.093 394.889 106.893 396.382 106.04C397.875 105.16 399.635 104.72 401.662 104.72C403.689 104.72 405.422 105.16 406.862 106.04C408.329 106.893 409.449 108.093 410.222 109.64C411.022 111.187 411.422 112.987 411.422 115.04C411.422 117.093 411.022 118.907 410.222 120.48C409.449 122.027 408.329 123.24 406.862 124.12C405.422 124.973 403.689 125.4 401.662 125.4ZM401.662 121.56C403.742 121.56 405.195 121.04 406.022 120C406.849 118.933 407.262 117.28 407.262 115.04C407.262 112.8 406.849 111.16 406.022 110.12C405.195 109.08 403.742 108.56 401.662 108.56C399.555 108.56 398.089 109.08 397.262 110.12C396.435 111.16 396.022 112.8 396.022 115.04C396.022 117.28 396.435 118.933 397.262 120C398.089 121.04 399.555 121.56 401.662 121.56ZM419.01 125H414.69V98.2H419.01V125ZM427.76 125H423.44V98.2H427.76V125ZM440.679 125.4C438.519 125.4 436.719 124.973 435.279 124.12C433.839 123.24 432.772 122.027 432.079 120.48C431.385 118.907 431.039 117.093 431.039 115.04C431.039 112.987 431.425 111.187 432.199 109.64C432.999 108.093 434.119 106.893 435.559 106.04C436.999 105.16 438.705 104.72 440.679 104.72C442.465 104.72 444.039 105.067 445.399 105.76C446.785 106.427 447.852 107.4 448.599 108.68C449.372 109.96 449.759 111.507 449.759 113.32C449.759 113.853 449.732 114.373 449.679 114.88C449.652 115.36 449.612 115.76 449.559 116.08H433.079V113.2H446.039L445.599 113.6C445.705 112.373 445.572 111.373 445.199 110.6C444.852 109.827 444.279 109.253 443.479 108.88C442.705 108.507 441.732 108.32 440.559 108.32C438.452 108.32 437.012 108.853 436.239 109.92C435.465 110.96 435.079 112.4 435.079 114.24V115.44C435.079 116.773 435.239 117.907 435.559 118.84C435.905 119.747 436.492 120.427 437.319 120.88C438.145 121.333 439.279 121.56 440.719 121.56C442.399 121.56 443.585 121.293 444.279 120.76C444.972 120.227 445.319 119.52 445.319 118.64V118.32H449.599V118.68C449.599 120.04 449.225 121.227 448.479 122.24C447.732 123.227 446.692 124 445.359 124.56C444.052 125.12 442.492 125.4 440.679 125.4ZM462.801 132.2C460.935 132.2 459.308 131.907 457.921 131.32C456.561 130.733 455.508 129.88 454.761 128.76C454.015 127.667 453.641 126.32 453.641 124.72H457.961C457.961 125.627 458.095 126.347 458.361 126.88C458.628 127.413 459.121 127.787 459.841 128C460.561 128.24 461.588 128.36 462.921 128.36C464.228 128.36 465.228 128.213 465.921 127.92C466.615 127.627 467.095 127.133 467.361 126.44C467.628 125.747 467.761 124.787 467.761 123.56V110.36L468.081 109.84V105.12H472.081V123.56C472.081 125.507 471.708 127.107 470.961 128.36C470.215 129.64 469.148 130.6 467.761 131.24C466.401 131.88 464.748 132.2 462.801 132.2ZM461.121 123.12C458.375 123.12 456.268 122.293 454.801 120.64C453.335 118.96 452.601 116.72 452.601 113.92C452.601 111.12 453.348 108.893 454.841 107.24C456.335 105.56 458.481 104.72 461.281 104.72C462.908 104.72 464.308 105.053 465.481 105.72C466.655 106.36 467.468 107.253 467.921 108.4H468.721L468.521 113.28H467.761C467.761 112.16 467.535 111.24 467.081 110.52C466.628 109.8 465.988 109.267 465.161 108.92C464.335 108.573 463.375 108.4 462.281 108.4C461.028 108.4 460.001 108.573 459.201 108.92C458.428 109.267 457.855 109.853 457.481 110.68C457.108 111.48 456.921 112.56 456.921 113.92C456.921 114.933 457.028 115.8 457.241 116.52C457.455 117.213 457.788 117.773 458.241 118.2C458.695 118.627 459.268 118.947 459.961 119.16C460.655 119.347 461.455 119.44 462.361 119.44C463.455 119.44 464.401 119.267 465.201 118.92C466.001 118.547 466.628 118 467.081 117.28C467.535 116.56 467.761 115.64 467.761 114.52H468.641V119.6H467.601C467.148 120.56 466.361 121.387 465.241 122.08C464.121 122.773 462.748 123.12 461.121 123.12ZM484.976 125.4C482.816 125.4 481.016 124.973 479.576 124.12C478.136 123.24 477.069 122.027 476.376 120.48C475.682 118.907 475.336 117.093 475.336 115.04C475.336 112.987 475.722 111.187 476.496 109.64C477.296 108.093 478.416 106.893 479.856 106.04C481.296 105.16 483.002 104.72 484.976 104.72C486.762 104.72 488.336 105.067 489.696 105.76C491.082 106.427 492.149 107.4 492.896 108.68C493.669 109.96 494.056 111.507 494.056 113.32C494.056 113.853 494.029 114.373 493.976 114.88C493.949 115.36 493.909 115.76 493.856 116.08H477.376V113.2H490.336L489.896 113.6C490.002 112.373 489.869 111.373 489.496 110.6C489.149 109.827 488.576 109.253 487.776 108.88C487.002 108.507 486.029 108.32 484.856 108.32C482.749 108.32 481.309 108.853 480.536 109.92C479.762 110.96 479.376 112.4 479.376 114.24V115.44C479.376 116.773 479.536 117.907 479.856 118.84C480.202 119.747 480.789 120.427 481.616 120.88C482.442 121.333 483.576 121.56 485.016 121.56C486.696 121.56 487.882 121.293 488.576 120.76C489.269 120.227 489.616 119.52 489.616 118.64V118.32H493.896V118.68C493.896 120.04 493.522 121.227 492.776 122.24C492.029 123.227 490.989 124 489.656 124.56C488.349 125.12 486.789 125.4 484.976 125.4ZM513.197 125.4C510.371 125.4 508.197 124.467 506.677 122.6C505.184 120.707 504.437 118.187 504.437 115.04C504.437 111.893 505.171 109.387 506.637 107.52C508.131 105.653 510.237 104.72 512.957 104.72C514.717 104.72 516.131 105.08 517.197 105.8C518.291 106.493 519.051 107.293 519.477 108.2H520.557L520.357 113.28H519.597C519.597 112.16 519.384 111.24 518.957 110.52C518.531 109.8 517.917 109.267 517.117 108.92C516.317 108.573 515.331 108.4 514.157 108.4C513.197 108.4 512.371 108.52 511.677 108.76C511.011 109 510.451 109.373 509.997 109.88C509.571 110.387 509.251 111.067 509.037 111.92C508.851 112.773 508.757 113.813 508.757 115.04C508.757 116.24 508.851 117.28 509.037 118.16C509.251 119.013 509.571 119.707 509.997 120.24C510.451 120.747 511.024 121.12 511.717 121.36C512.411 121.6 513.224 121.72 514.157 121.72C515.331 121.72 516.317 121.547 517.117 121.2C517.917 120.827 518.531 120.28 518.957 119.56C519.384 118.84 519.597 117.933 519.597 116.84H520.357L520.557 121.72H519.757C519.304 122.867 518.517 123.773 517.397 124.44C516.304 125.08 514.904 125.4 513.197 125.4ZM523.917 125H519.917V120.28L519.597 119.76V98.2H523.917V125ZM536.851 125.4C534.691 125.4 532.891 124.973 531.451 124.12C530.011 123.24 528.944 122.027 528.251 120.48C527.557 118.907 527.211 117.093 527.211 115.04C527.211 112.987 527.597 111.187 528.371 109.64C529.171 108.093 530.291 106.893 531.731 106.04C533.171 105.16 534.877 104.72 536.851 104.72C538.637 104.72 540.211 105.067 541.571 105.76C542.957 106.427 544.024 107.4 544.771 108.68C545.544 109.96 545.931 111.507 545.931 113.32C545.931 113.853 545.904 114.373 545.851 114.88C545.824 115.36 545.784 115.76 545.731 116.08H529.251V113.2H542.211L541.771 113.6C541.877 112.373 541.744 111.373 541.371 110.6C541.024 109.827 540.451 109.253 539.651 108.88C538.877 108.507 537.904 108.32 536.731 108.32C534.624 108.32 533.184 108.853 532.411 109.92C531.637 110.96 531.251 112.4 531.251 114.24V115.44C531.251 116.773 531.411 117.907 531.731 118.84C532.077 119.747 532.664 120.427 533.491 120.88C534.317 121.333 535.451 121.56 536.891 121.56C538.571 121.56 539.757 121.293 540.451 120.76C541.144 120.227 541.491 119.52 541.491 118.64V118.32H545.771V118.68C545.771 120.04 545.397 121.227 544.651 122.24C543.904 123.227 542.864 124 541.531 124.56C540.224 125.12 538.664 125.4 536.851 125.4ZM557.503 125C555.316 125 553.636 124.533 552.463 123.6C551.316 122.667 550.743 121.093 550.743 118.88V105.56L551.743 100.2H555.063V118.68C555.063 119.72 555.316 120.387 555.823 120.68C556.356 120.947 557.303 121.08 558.663 121.08H561.063V124.64C560.663 124.747 560.143 124.84 559.503 124.92C558.863 124.973 558.196 125 557.503 125ZM561.063 108.72H547.423V105.12H561.063V108.72ZM580.749 125H576.749V121.08L576.629 120V112.36C576.629 110.867 576.269 109.853 575.549 109.32C574.856 108.787 573.722 108.52 572.149 108.52C570.576 108.52 569.442 108.8 568.749 109.36C568.082 109.92 567.749 110.853 567.749 112.16V112.76H563.589V112.36C563.589 110.867 563.949 109.547 564.669 108.4C565.416 107.253 566.442 106.36 567.749 105.72C569.082 105.053 570.629 104.72 572.389 104.72C574.256 104.72 575.802 105.067 577.029 105.76C578.256 106.453 579.176 107.413 579.789 108.64C580.429 109.84 580.749 111.267 580.749 112.92V125ZM569.349 125.4C567.562 125.4 566.056 124.947 564.829 124.04C563.629 123.107 563.029 121.787 563.029 120.08C563.029 118.96 563.282 118.027 563.789 117.28C564.322 116.533 565.082 115.92 566.069 115.44C567.056 114.96 568.256 114.627 569.669 114.44L577.029 113.4V116.44L570.309 117.44C569.162 117.6 568.362 117.84 567.909 118.16C567.456 118.48 567.229 119.013 567.229 119.76C567.229 120.533 567.496 121.093 568.029 121.44C568.589 121.787 569.496 121.96 570.749 121.96C571.709 121.96 572.629 121.813 573.509 121.52C574.416 121.2 575.162 120.68 575.749 119.96C576.336 119.213 576.629 118.173 576.629 116.84L577.189 121.92L576.549 121.88C576.176 122.493 575.656 123.067 574.989 123.6C574.349 124.133 573.562 124.573 572.629 124.92C571.696 125.24 570.602 125.4 569.349 125.4ZM588.926 102.6H584.646L584.606 98.2H588.926V102.6ZM588.966 125H584.646V105H588.966V125ZM597.253 125H592.933V98.2H597.253V125ZM609.73 125.4C606.823 125.4 604.623 124.827 603.13 123.68C601.637 122.507 600.89 120.707 600.89 118.28V118.2H605.05V118.92C605.05 119.613 605.183 120.187 605.45 120.64C605.743 121.067 606.223 121.387 606.89 121.6C607.583 121.787 608.557 121.88 609.81 121.88C610.877 121.88 611.677 121.8 612.21 121.64C612.77 121.453 613.143 121.2 613.33 120.88C613.517 120.56 613.61 120.16 613.61 119.68C613.61 118.88 613.33 118.32 612.77 118C612.21 117.653 611.21 117.347 609.77 117.08L606.65 116.56C605.477 116.32 604.45 115.987 603.57 115.56C602.717 115.107 602.05 114.493 601.57 113.72C601.117 112.92 600.89 111.92 600.89 110.72C600.89 108.933 601.597 107.493 603.01 106.4C604.423 105.28 606.423 104.72 609.01 104.72C610.583 104.72 611.983 104.973 613.21 105.48C614.437 105.987 615.41 106.747 616.13 107.76C616.85 108.773 617.21 110.04 617.21 111.56V111.92H613.09V111.44C613.09 110.8 612.983 110.253 612.77 109.8C612.557 109.32 612.157 108.947 611.57 108.68C610.983 108.413 610.09 108.28 608.89 108.28C607.317 108.28 606.277 108.48 605.77 108.88C605.263 109.28 605.01 109.867 605.01 110.64C605.01 111.413 605.237 111.96 605.69 112.28C606.17 112.573 607.103 112.867 608.49 113.16L611.89 113.8C613.17 114.04 614.237 114.4 615.09 114.88C615.943 115.36 616.583 115.987 617.01 116.76C617.463 117.533 617.69 118.453 617.69 119.52C617.69 121.387 616.983 122.84 615.57 123.88C614.183 124.893 612.237 125.4 609.73 125.4ZM637.034 125C634.847 125 633.167 124.533 631.994 123.6C630.847 122.667 630.274 121.093 630.274 118.88V105.56L631.274 100.2H634.594V118.68C634.594 119.72 634.847 120.387 635.354 120.68C635.887 120.947 636.834 121.08 638.194 121.08H640.594V124.64C640.194 124.747 639.674 124.84 639.034 124.92C638.394 124.973 637.727 125 637.034 125ZM640.594 108.72H626.954V105.12H640.594V108.72ZM651.935 125.4C649.909 125.4 648.149 124.973 646.655 124.12C645.162 123.24 644.015 122.027 643.215 120.48C642.415 118.907 642.015 117.093 642.015 115.04C642.015 112.987 642.415 111.187 643.215 109.64C644.015 108.093 645.162 106.893 646.655 106.04C648.149 105.16 649.909 104.72 651.935 104.72C653.962 104.72 655.695 105.16 657.135 106.04C658.602 106.893 659.722 108.093 660.495 109.64C661.295 111.187 661.695 112.987 661.695 115.04C661.695 117.093 661.295 118.907 660.495 120.48C659.722 122.027 658.602 123.24 657.135 124.12C655.695 124.973 653.962 125.4 651.935 125.4ZM651.935 121.56C654.015 121.56 655.469 121.04 656.295 120C657.122 118.933 657.535 117.28 657.535 115.04C657.535 112.8 657.122 111.16 656.295 110.12C655.469 109.08 654.015 108.56 651.935 108.56C649.829 108.56 648.362 109.08 647.535 110.12C646.709 111.16 646.295 112.8 646.295 115.04C646.295 117.28 646.709 118.933 647.535 120C648.362 121.04 649.829 121.56 651.935 121.56ZM225.485 174.44C223.405 174.44 221.645 174 220.205 173.12C218.765 172.24 217.659 171.027 216.885 169.48C216.139 167.933 215.765 166.133 215.765 164.08C215.765 162.027 216.152 160.227 216.925 158.68C217.725 157.107 218.859 155.893 220.325 155.04C221.792 154.16 223.565 153.72 225.645 153.72C227.405 153.72 228.952 154.053 230.285 154.72C231.619 155.387 232.645 156.32 233.365 157.52C234.112 158.72 234.485 160.12 234.485 161.72V162.08H230.205V161.84C230.205 160.373 229.805 159.307 229.005 158.64C228.232 157.947 227.019 157.6 225.365 157.6C223.445 157.6 222.072 158.147 221.245 159.24C220.445 160.307 220.045 161.907 220.045 164.04C220.045 166.2 220.445 167.827 221.245 168.92C222.072 169.987 223.445 170.52 225.365 170.52C227.019 170.52 228.232 170.187 229.005 169.52C229.805 168.827 230.205 167.76 230.205 166.32V166.08H234.485V166.44C234.485 167.987 234.112 169.373 233.365 170.6C232.619 171.8 231.565 172.747 230.205 173.44C228.872 174.107 227.299 174.44 225.485 174.44ZM247.053 174.4C245.026 174.4 243.266 173.973 241.773 173.12C240.279 172.24 239.133 171.027 238.333 169.48C237.533 167.907 237.132 166.093 237.132 164.04C237.132 161.987 237.533 160.187 238.333 158.64C239.133 157.093 240.279 155.893 241.773 155.04C243.266 154.16 245.026 153.72 247.053 153.72C249.079 153.72 250.813 154.16 252.253 155.04C253.719 155.893 254.839 157.093 255.613 158.64C256.413 160.187 256.813 161.987 256.813 164.04C256.813 166.093 256.413 167.907 255.613 169.48C254.839 171.027 253.719 172.24 252.253 173.12C250.813 173.973 249.079 174.4 247.053 174.4ZM247.053 170.56C249.133 170.56 250.586 170.04 251.413 169C252.239 167.933 252.653 166.28 252.653 164.04C252.653 161.8 252.239 160.16 251.413 159.12C250.586 158.08 249.133 157.56 247.053 157.56C244.946 157.56 243.479 158.08 242.653 159.12C241.826 160.16 241.413 161.8 241.413 164.04C241.413 166.28 241.826 167.933 242.653 169C243.479 170.04 244.946 170.56 247.053 170.56ZM278.562 174H274.242V162.44C274.242 160.68 273.909 159.413 273.242 158.64C272.575 157.84 271.322 157.44 269.482 157.44C268.309 157.44 267.349 157.613 266.602 157.96C265.855 158.28 265.295 158.813 264.922 159.56C264.549 160.28 264.362 161.267 264.362 162.52H263.602L263.242 157.84H264.202C264.495 157.12 264.935 156.453 265.522 155.84C266.109 155.227 266.855 154.72 267.762 154.32C268.695 153.92 269.802 153.72 271.082 153.72C272.815 153.72 274.229 154.053 275.322 154.72C276.415 155.387 277.229 156.307 277.762 157.48C278.295 158.653 278.562 160 278.562 161.52V174ZM264.362 174H260.042V154.12H264.002V160.08L264.362 160.28V174ZM301.218 174H296.898V162.44C296.898 160.68 296.565 159.413 295.898 158.64C295.231 157.84 293.978 157.44 292.138 157.44C290.965 157.44 290.005 157.613 289.258 157.96C288.511 158.28 287.951 158.813 287.578 159.56C287.205 160.28 287.018 161.267 287.018 162.52H286.258L285.898 157.84H286.858C287.151 157.12 287.591 156.453 288.178 155.84C288.765 155.227 289.511 154.72 290.418 154.32C291.351 153.92 292.458 153.72 293.738 153.72C295.471 153.72 296.885 154.053 297.978 154.72C299.071 155.387 299.885 156.307 300.418 157.48C300.951 158.653 301.218 160 301.218 161.52V174ZM287.018 174H282.698V154.12H286.658V160.08L287.018 160.28V174ZM314.116 174.4C311.956 174.4 310.156 173.973 308.716 173.12C307.276 172.24 306.21 171.027 305.516 169.48C304.823 167.907 304.476 166.093 304.476 164.04C304.476 161.987 304.863 160.187 305.636 158.64C306.436 157.093 307.556 155.893 308.996 155.04C310.436 154.16 312.143 153.72 314.116 153.72C315.903 153.72 317.476 154.067 318.836 154.76C320.223 155.427 321.29 156.4 322.036 157.68C322.81 158.96 323.196 160.507 323.196 162.32C323.196 162.853 323.17 163.373 323.116 163.88C323.09 164.36 323.05 164.76 322.996 165.08H306.516V162.2H319.476L319.036 162.6C319.143 161.373 319.01 160.373 318.636 159.6C318.29 158.827 317.716 158.253 316.916 157.88C316.143 157.507 315.17 157.32 313.996 157.32C311.89 157.32 310.45 157.853 309.676 158.92C308.903 159.96 308.516 161.4 308.516 163.24V164.44C308.516 165.773 308.676 166.907 308.996 167.84C309.343 168.747 309.93 169.427 310.756 169.88C311.583 170.333 312.716 170.56 314.156 170.56C315.836 170.56 317.023 170.293 317.716 169.76C318.41 169.227 318.756 168.52 318.756 167.64V167.32H323.036V167.68C323.036 169.04 322.663 170.227 321.916 171.24C321.17 172.227 320.13 173 318.796 173.56C317.49 174.12 315.93 174.4 314.116 174.4ZM335.759 174.44C333.679 174.44 331.919 174 330.479 173.12C329.039 172.24 327.932 171.027 327.159 169.48C326.412 167.933 326.039 166.133 326.039 164.08C326.039 162.027 326.425 160.227 327.199 158.68C327.999 157.107 329.132 155.893 330.599 155.04C332.065 154.16 333.839 153.72 335.919 153.72C337.679 153.72 339.225 154.053 340.559 154.72C341.892 155.387 342.919 156.32 343.639 157.52C344.385 158.72 344.759 160.12 344.759 161.72V162.08H340.479V161.84C340.479 160.373 340.079 159.307 339.279 158.64C338.505 157.947 337.292 157.6 335.639 157.6C333.719 157.6 332.345 158.147 331.519 159.24C330.719 160.307 330.319 161.907 330.319 164.04C330.319 166.2 330.719 167.827 331.519 168.92C332.345 169.987 333.719 170.52 335.639 170.52C337.292 170.52 338.505 170.187 339.279 169.52C340.079 168.827 340.479 167.76 340.479 166.32V166.08H344.759V166.44C344.759 167.987 344.385 169.373 343.639 170.6C342.892 171.8 341.839 172.747 340.479 173.44C339.145 174.107 337.572 174.44 335.759 174.44ZM356.135 174C353.949 174 352.269 173.533 351.095 172.6C349.949 171.667 349.375 170.093 349.375 167.88V154.56L350.375 149.2H353.695V167.68C353.695 168.72 353.949 169.387 354.455 169.68C354.989 169.947 355.935 170.08 357.295 170.08H359.695V173.64C359.295 173.747 358.775 173.84 358.135 173.92C357.495 173.973 356.829 174 356.135 174ZM359.695 157.72H346.055V154.12H359.695V157.72ZM379.078 174H373.438L368.518 154.12H373.198L375.478 165.16L376.318 170.4H376.638L377.918 165.16L381.398 154.12H386.998L390.518 165.2L391.798 170.36H392.078L392.918 165.2L395.198 154.12H399.718L394.798 174H389.158L385.598 162.92L384.278 157.92H383.998L382.678 162.92L379.078 174ZM405.84 151.6H401.56L401.52 147.2H405.84V151.6ZM405.88 174H401.56V154H405.88V174ZM418.01 174C415.824 174 414.144 173.533 412.97 172.6C411.824 171.667 411.25 170.093 411.25 167.88V154.56L412.25 149.2H415.57V167.68C415.57 168.72 415.824 169.387 416.33 169.68C416.864 169.947 417.81 170.08 419.17 170.08H421.57V173.64C421.17 173.747 420.65 173.84 420.01 173.92C419.37 173.973 418.704 174 418.01 174ZM421.57 157.72H407.93V154.12H421.57V157.72ZM443.171 174H438.851V162.44C438.851 160.68 438.505 159.413 437.811 158.64C437.145 157.84 435.905 157.44 434.091 157.44C432.358 157.44 431.065 157.827 430.211 158.6C429.385 159.347 428.971 160.667 428.971 162.56H428.211L428.171 157.44H429.131C429.451 156.827 429.891 156.24 430.451 155.68C431.038 155.093 431.771 154.627 432.651 154.28C433.558 153.907 434.598 153.72 435.771 153.72C437.531 153.72 438.945 154.067 440.011 154.76C441.105 155.427 441.905 156.347 442.411 157.52C442.918 158.693 443.171 160.013 443.171 161.48V174ZM428.971 174H424.651V147.2H428.971V174ZM466.804 174.4C464.217 174.4 461.977 173.84 460.084 172.72C458.217 171.573 456.777 169.973 455.764 167.92C454.777 165.84 454.284 163.4 454.284 160.6C454.284 157.8 454.777 155.373 455.764 153.32C456.777 151.24 458.217 149.64 460.084 148.52C461.977 147.373 464.217 146.8 466.804 146.8C469.23 146.8 471.297 147.227 473.004 148.08C474.71 148.933 476.03 150.133 476.964 151.68C477.897 153.227 478.364 155.08 478.364 157.24V157.48H473.804V157.24C473.804 155.053 473.244 153.467 472.124 152.48C471.03 151.467 469.217 150.96 466.684 150.96C464.844 150.96 463.35 151.28 462.204 151.92C461.057 152.56 460.217 153.587 459.684 155C459.15 156.413 458.884 158.28 458.884 160.6C458.884 162.893 459.15 164.76 459.684 166.2C460.217 167.613 461.057 168.64 462.204 169.28C463.35 169.893 464.844 170.2 466.684 170.2C469.217 170.2 471.03 169.707 472.124 168.72C473.244 167.733 473.804 166.147 473.804 163.96V163.72H478.364V163.96C478.364 166.093 477.897 167.947 476.964 169.52C476.03 171.067 474.71 172.267 473.004 173.12C471.297 173.973 469.23 174.4 466.804 174.4ZM491.037 174.4C489.01 174.4 487.25 173.973 485.757 173.12C484.264 172.24 483.117 171.027 482.317 169.48C481.517 167.907 481.117 166.093 481.117 164.04C481.117 161.987 481.517 160.187 482.317 158.64C483.117 157.093 484.264 155.893 485.757 155.04C487.25 154.16 489.01 153.72 491.037 153.72C493.064 153.72 494.797 154.16 496.237 155.04C497.704 155.893 498.824 157.093 499.597 158.64C500.397 160.187 500.797 161.987 500.797 164.04C500.797 166.093 500.397 167.907 499.597 169.48C498.824 171.027 497.704 172.24 496.237 173.12C494.797 173.973 493.064 174.4 491.037 174.4ZM491.037 170.56C493.117 170.56 494.57 170.04 495.397 169C496.224 167.933 496.637 166.28 496.637 164.04C496.637 161.8 496.224 160.16 495.397 159.12C494.57 158.08 493.117 157.56 491.037 157.56C488.93 157.56 487.464 158.08 486.637 159.12C485.81 160.16 485.397 161.8 485.397 164.04C485.397 166.28 485.81 167.933 486.637 169C487.464 170.04 488.93 170.56 491.037 170.56ZM535.946 174H531.626V162.44C531.626 160.68 531.293 159.413 530.626 158.64C529.986 157.84 528.76 157.44 526.946 157.44C525.32 157.44 524.106 157.827 523.306 158.6C522.533 159.347 522.146 160.627 522.146 162.44L521.386 162.52L521.026 157.84H521.666C521.986 157.147 522.426 156.493 522.986 155.88C523.573 155.24 524.32 154.72 525.226 154.32C526.133 153.92 527.24 153.72 528.546 153.72C530.28 153.72 531.68 154.053 532.746 154.72C533.84 155.387 534.64 156.307 535.146 157.48C535.68 158.653 535.946 160 535.946 161.52V174ZM508.346 174H504.026V154.12H507.986V160.08L508.346 160.28V174ZM522.146 174H517.826V162.44C517.826 160.68 517.493 159.413 516.826 158.64C516.186 157.84 514.96 157.44 513.146 157.44C511.52 157.44 510.306 157.813 509.506 158.56C508.733 159.307 508.346 160.587 508.346 162.4L507.586 162.52L507.226 157.84H508.186C508.48 157.12 508.906 156.453 509.466 155.84C510.053 155.227 510.8 154.72 511.706 154.32C512.613 153.92 513.693 153.72 514.946 153.72C516.626 153.72 517.986 154.053 519.026 154.72C520.093 155.387 520.88 156.307 521.386 157.48C521.893 158.653 522.146 160 522.146 161.52V174ZM550.961 174.4C549.174 174.4 547.721 174.053 546.601 173.36C545.508 172.64 544.748 171.827 544.321 170.92H543.241L543.441 165.84H544.201C544.201 166.933 544.401 167.84 544.801 168.56C545.228 169.28 545.854 169.827 546.681 170.2C547.508 170.547 548.494 170.72 549.641 170.72C550.574 170.72 551.388 170.6 552.081 170.36C552.774 170.12 553.334 169.747 553.761 169.24C554.214 168.733 554.534 168.053 554.721 167.2C554.934 166.32 555.041 165.267 555.041 164.04C555.041 162.813 554.934 161.787 554.721 160.96C554.534 160.107 554.214 159.413 553.761 158.88C553.334 158.347 552.774 157.973 552.081 157.76C551.414 157.52 550.601 157.4 549.641 157.4C548.494 157.4 547.508 157.587 546.681 157.96C545.854 158.307 545.228 158.84 544.801 159.56C544.401 160.253 544.201 161.16 544.201 162.28H543.441L543.241 157.4H544.041C544.521 156.253 545.308 155.36 546.401 154.72C547.521 154.053 548.948 153.72 550.681 153.72C553.481 153.72 555.628 154.653 557.121 156.52C558.614 158.387 559.361 160.893 559.361 164.04C559.361 167.187 558.641 169.707 557.201 171.6C555.761 173.467 553.681 174.4 550.961 174.4ZM544.201 180.92H539.921V154.12H543.841V158.84L544.201 159.36V180.92ZM579.812 174H575.812V170.08L575.692 169V161.36C575.692 159.867 575.332 158.853 574.612 158.32C573.918 157.787 572.785 157.52 571.212 157.52C569.638 157.52 568.505 157.8 567.812 158.36C567.145 158.92 566.812 159.853 566.812 161.16V161.76H562.652V161.36C562.652 159.867 563.012 158.547 563.732 157.4C564.478 156.253 565.505 155.36 566.812 154.72C568.145 154.053 569.692 153.72 571.452 153.72C573.318 153.72 574.865 154.067 576.092 154.76C577.318 155.453 578.238 156.413 578.852 157.64C579.492 158.84 579.812 160.267 579.812 161.92V174ZM568.412 174.4C566.625 174.4 565.118 173.947 563.892 173.04C562.692 172.107 562.092 170.787 562.092 169.08C562.092 167.96 562.345 167.027 562.852 166.28C563.385 165.533 564.145 164.92 565.132 164.44C566.118 163.96 567.318 163.627 568.732 163.44L576.092 162.4V165.44L569.372 166.44C568.225 166.6 567.425 166.84 566.972 167.16C566.518 167.48 566.292 168.013 566.292 168.76C566.292 169.533 566.558 170.093 567.092 170.44C567.652 170.787 568.558 170.96 569.812 170.96C570.772 170.96 571.692 170.813 572.572 170.52C573.478 170.2 574.225 169.68 574.812 168.96C575.398 168.213 575.692 167.173 575.692 165.84L576.252 170.92L575.612 170.88C575.238 171.493 574.718 172.067 574.052 172.6C573.412 173.133 572.625 173.573 571.692 173.92C570.758 174.24 569.665 174.4 568.412 174.4ZM602.468 174H598.148V162.44C598.148 160.68 597.815 159.413 597.148 158.64C596.481 157.84 595.228 157.44 593.388 157.44C592.215 157.44 591.255 157.613 590.508 157.96C589.761 158.28 589.201 158.813 588.828 159.56C588.455 160.28 588.268 161.267 588.268 162.52H587.508L587.148 157.84H588.108C588.401 157.12 588.841 156.453 589.428 155.84C590.015 155.227 590.761 154.72 591.668 154.32C592.601 153.92 593.708 153.72 594.988 153.72C596.721 153.72 598.135 154.053 599.228 154.72C600.321 155.387 601.135 156.307 601.668 157.48C602.201 158.653 602.468 160 602.468 161.52V174ZM588.268 174H583.948V154.12H587.908V160.08L588.268 160.28V174ZM610.644 151.6H606.364L606.324 147.2H610.644V151.6ZM610.684 174H606.364V154H610.684V174ZM623.296 174.4C621.136 174.4 619.336 173.973 617.896 173.12C616.456 172.24 615.389 171.027 614.696 169.48C614.003 167.907 613.656 166.093 613.656 164.04C613.656 161.987 614.043 160.187 614.816 158.64C615.616 157.093 616.736 155.893 618.176 155.04C619.616 154.16 621.323 153.72 623.296 153.72C625.083 153.72 626.656 154.067 628.016 154.76C629.403 155.427 630.469 156.4 631.216 157.68C631.989 158.96 632.376 160.507 632.376 162.32C632.376 162.853 632.349 163.373 632.296 163.88C632.269 164.36 632.229 164.76 632.176 165.08H615.696V162.2H628.656L628.216 162.6C628.323 161.373 628.189 160.373 627.816 159.6C627.469 158.827 626.896 158.253 626.096 157.88C625.323 157.507 624.349 157.32 623.176 157.32C621.069 157.32 619.629 157.853 618.856 158.92C618.083 159.96 617.696 161.4 617.696 163.24V164.44C617.696 165.773 617.856 166.907 618.176 167.84C618.523 168.747 619.109 169.427 619.936 169.88C620.763 170.333 621.896 170.56 623.336 170.56C625.016 170.56 626.203 170.293 626.896 169.76C627.589 169.227 627.936 168.52 627.936 167.64V167.32H632.216V167.68C632.216 169.04 631.843 170.227 631.096 171.24C630.349 172.227 629.309 173 627.976 173.56C626.669 174.12 625.109 174.4 623.296 174.4ZM644.378 174.4C641.472 174.4 639.272 173.827 637.778 172.68C636.285 171.507 635.538 169.707 635.538 167.28V167.2H639.698V167.92C639.698 168.613 639.832 169.187 640.098 169.64C640.392 170.067 640.872 170.387 641.538 170.6C642.232 170.787 643.205 170.88 644.458 170.88C645.525 170.88 646.325 170.8 646.858 170.64C647.418 170.453 647.792 170.2 647.978 169.88C648.165 169.56 648.258 169.16 648.258 168.68C648.258 167.88 647.978 167.32 647.418 167C646.858 166.653 645.858 166.347 644.418 166.08L641.298 165.56C640.125 165.32 639.098 164.987 638.218 164.56C637.365 164.107 636.698 163.493 636.218 162.72C635.765 161.92 635.538 160.92 635.538 159.72C635.538 157.933 636.245 156.493 637.658 155.4C639.072 154.28 641.072 153.72 643.658 153.72C645.232 153.72 646.632 153.973 647.858 154.48C649.085 154.987 650.058 155.747 650.778 156.76C651.498 157.773 651.858 159.04 651.858 160.56V160.92H647.738V160.44C647.738 159.8 647.632 159.253 647.418 158.8C647.205 158.32 646.805 157.947 646.218 157.68C645.632 157.413 644.738 157.28 643.538 157.28C641.965 157.28 640.925 157.48 640.418 157.88C639.912 158.28 639.658 158.867 639.658 159.64C639.658 160.413 639.885 160.96 640.338 161.28C640.818 161.573 641.752 161.867 643.138 162.16L646.538 162.8C647.818 163.04 648.885 163.4 649.738 163.88C650.592 164.36 651.232 164.987 651.658 165.76C652.112 166.533 652.338 167.453 652.338 168.52C652.338 170.387 651.632 171.84 650.218 172.88C648.832 173.893 646.885 174.4 644.378 174.4ZM660.462 165.2H656.262C656.262 164.4 656.236 163.48 656.182 162.44C656.156 161.373 656.102 160.253 656.022 159.08C655.969 157.88 655.916 156.707 655.862 155.56C655.809 154.387 655.756 153.32 655.702 152.36C655.649 151.4 655.622 150.613 655.622 150V147.2H661.102V150C661.102 150.613 661.076 151.4 661.022 152.36C660.996 153.32 660.942 154.387 660.862 155.56C660.809 156.707 660.756 157.88 660.702 159.08C660.649 160.28 660.596 161.413 660.542 162.48C660.489 163.52 660.462 164.427 660.462 165.2ZM660.822 174H655.942V168.08H660.822V174Z" fill="white"/>
</g>
<path d="M672.014 1227.11C672.014 1227.82 671.439 1228.4 670.73 1228.4H656.783C655.47 1228.4 655.004 1230.15 656.142 1230.8L661.36 1233.83C661.757 1234.06 662.246 1234.06 662.643 1233.83L681.358 1222.97C681.755 1222.74 682 1222.32 682 1221.86V1213.23C682 1212.24 680.929 1211.62 680.074 1212.12L672.655 1216.43C672.258 1216.66 672.014 1217.08 672.014 1217.54V1227.11Z" fill="white"/>
<path d="M642 1221.86C642 1222.32 642.244 1222.74 642.641 1222.97L650.06 1227.28C650.916 1227.78 651.986 1227.16 651.986 1226.17V1217.54C651.986 1217.08 651.742 1216.66 651.345 1216.43L643.926 1212.12C643.071 1211.62 642 1212.24 642 1213.23V1221.86Z" fill="white"/>
<path d="M649.594 1197.77C650.25 1196.63 648.976 1195.35 647.84 1196.01L642.641 1199.03C642.244 1199.26 642 1199.68 642 1200.14V1206.18C642 1207.5 643.74 1207.97 644.396 1206.83L649.594 1197.77Z" fill="white"/>
<path d="M662.643 1199.77C662.246 1199.54 661.757 1199.54 661.36 1199.77L652.632 1204.83C652.235 1205.06 651.99 1205.48 651.99 1205.94V1216.06C651.99 1216.52 652.235 1216.94 652.632 1217.17L661.36 1222.23C661.757 1222.46 662.246 1222.46 662.643 1222.23L671.372 1217.17C671.769 1216.94 672.014 1216.52 672.014 1216.06V1205.94C672.014 1205.48 671.769 1205.06 671.372 1204.83L662.643 1199.77Z" fill="white"/>
<path d="M676.156 1196.01C675.019 1195.35 673.745 1196.63 674.401 1197.77L679.6 1206.83C680.256 1207.97 681.996 1207.5 681.996 1206.18V1200.14C681.996 1199.68 681.751 1199.26 681.355 1199.03L676.156 1196.01Z" fill="white"/>
<path d="M662.643 1188.17C662.246 1187.94 661.757 1187.94 661.36 1188.17L653.917 1192.48C653.061 1192.98 653.061 1194.22 653.917 1194.72L661.36 1199.03C661.757 1199.26 662.246 1199.26 662.643 1199.03L670.087 1194.72C670.943 1194.22 670.943 1192.98 670.087 1192.48L662.643 1188.17Z" fill="white"/>
<defs>
<clipPath id="clip0_18960_20692">
<rect width="727" height="1272" rx="20.1569" fill="white"/>
</clipPath>
</defs>
</svg>
