<svg width="727" height="1272" viewBox="0 0 727 1272" fill="none" xmlns="http://www.w3.org/2000/svg">
<g clip-path="url(#clip0_18940_20482)">
<rect width="728" height="1273" rx="20.1569" fill="#F2935C"/>
<rect x="-122" y="743" width="632" height="632" rx="316" fill="#2D3B40"/>
<path d="M246.282 101H240.002L233.802 74.2H238.762L242.122 89.28L243.242 96.68H243.562L245.282 89.28L249.722 74.2H255.762L260.202 89.28L261.962 96.68H262.242L263.402 89.28L266.762 74.2H271.642L265.402 101H259.122L255.082 87.36L252.882 79.04H252.522L250.362 87.36L246.282 101ZM281.187 101.4C279.027 101.4 277.227 100.973 275.787 100.12C274.347 99.24 273.28 98.0267 272.587 96.48C271.893 94.9067 271.547 93.0933 271.547 91.04C271.547 88.9867 271.933 87.1867 272.707 85.64C273.507 84.0933 274.627 82.8933 276.067 82.04C277.507 81.16 279.213 80.72 281.187 80.72C282.973 80.72 284.547 81.0667 285.907 81.76C287.293 82.4267 288.36 83.4 289.107 84.68C289.88 85.96 290.267 87.5067 290.267 89.32C290.267 89.8533 290.24 90.3733 290.187 90.88C290.16 91.36 290.12 91.76 290.067 92.08H273.587V89.2H286.547L286.107 89.6C286.213 88.3733 286.08 87.3733 285.707 86.6C285.36 85.8267 284.787 85.2533 283.987 84.88C283.213 84.5067 282.24 84.32 281.067 84.32C278.96 84.32 277.52 84.8533 276.747 85.92C275.973 86.96 275.587 88.4 275.587 90.24V91.44C275.587 92.7733 275.747 93.9067 276.067 94.84C276.413 95.7467 277 96.4267 277.827 96.88C278.653 97.3333 279.787 97.56 281.227 97.56C282.907 97.56 284.093 97.2933 284.787 96.76C285.48 96.2267 285.827 95.52 285.827 94.64V94.32H290.107V94.68C290.107 96.04 289.733 97.2267 288.987 98.24C288.24 99.2267 287.2 100 285.867 100.56C284.56 101.12 283 101.4 281.187 101.4ZM298.073 101H293.753V74.2H298.073V101ZM311.071 101.44C308.991 101.44 307.231 101 305.791 100.12C304.351 99.24 303.245 98.0267 302.471 96.48C301.725 94.9333 301.351 93.1333 301.351 91.08C301.351 89.0267 301.738 87.2267 302.511 85.68C303.311 84.1067 304.445 82.8933 305.911 82.04C307.378 81.16 309.151 80.72 311.231 80.72C312.991 80.72 314.538 81.0533 315.871 81.72C317.205 82.3867 318.231 83.32 318.951 84.52C319.698 85.72 320.071 87.12 320.071 88.72V89.08H315.791V88.84C315.791 87.3733 315.391 86.3067 314.591 85.64C313.818 84.9467 312.605 84.6 310.951 84.6C309.031 84.6 307.658 85.1467 306.831 86.24C306.031 87.3067 305.631 88.9067 305.631 91.04C305.631 93.2 306.031 94.8267 306.831 95.92C307.658 96.9867 309.031 97.52 310.951 97.52C312.605 97.52 313.818 97.1867 314.591 96.52C315.391 95.8267 315.791 94.76 315.791 93.32V93.08H320.071V93.44C320.071 94.9867 319.698 96.3733 318.951 97.6C318.205 98.8 317.151 99.7467 315.791 100.44C314.458 101.107 312.885 101.44 311.071 101.44ZM332.638 101.4C330.612 101.4 328.852 100.973 327.358 100.12C325.865 99.24 324.718 98.0267 323.918 96.48C323.118 94.9067 322.718 93.0933 322.718 91.04C322.718 88.9867 323.118 87.1867 323.918 85.64C324.718 84.0933 325.865 82.8933 327.358 82.04C328.852 81.16 330.612 80.72 332.638 80.72C334.665 80.72 336.398 81.16 337.838 82.04C339.305 82.8933 340.425 84.0933 341.198 85.64C341.998 87.1867 342.398 88.9867 342.398 91.04C342.398 93.0933 341.998 94.9067 341.198 96.48C340.425 98.0267 339.305 99.24 337.838 100.12C336.398 100.973 334.665 101.4 332.638 101.4ZM332.638 97.56C334.718 97.56 336.172 97.04 336.998 96C337.825 94.9333 338.238 93.28 338.238 91.04C338.238 88.8 337.825 87.16 336.998 86.12C336.172 85.08 334.718 84.56 332.638 84.56C330.532 84.56 329.065 85.08 328.238 86.12C327.412 87.16 326.998 88.8 326.998 91.04C326.998 93.28 327.412 94.9333 328.238 96C329.065 97.04 330.532 97.56 332.638 97.56ZM377.548 101H373.228V89.44C373.228 87.68 372.894 86.4133 372.228 85.64C371.588 84.84 370.361 84.44 368.548 84.44C366.921 84.44 365.708 84.8267 364.908 85.6C364.134 86.3467 363.748 87.6267 363.748 89.44L362.988 89.52L362.628 84.84H363.268C363.588 84.1467 364.028 83.4933 364.588 82.88C365.174 82.24 365.921 81.72 366.828 81.32C367.734 80.92 368.841 80.72 370.148 80.72C371.881 80.72 373.281 81.0533 374.348 81.72C375.441 82.3867 376.241 83.3067 376.748 84.48C377.281 85.6533 377.548 87 377.548 88.52V101ZM349.948 101H345.628V81.12H349.588V87.08L349.948 87.28V101ZM363.748 101H359.428V89.44C359.428 87.68 359.094 86.4133 358.428 85.64C357.788 84.84 356.561 84.44 354.748 84.44C353.121 84.44 351.908 84.8133 351.108 85.56C350.334 86.3067 349.948 87.5867 349.948 89.4L349.188 89.52L348.828 84.84H349.788C350.081 84.12 350.508 83.4533 351.068 82.84C351.654 82.2267 352.401 81.72 353.308 81.32C354.214 80.92 355.294 80.72 356.548 80.72C358.228 80.72 359.588 81.0533 360.628 81.72C361.694 82.3867 362.481 83.3067 362.988 84.48C363.494 85.6533 363.748 87 363.748 88.52V101ZM390.444 101.4C388.284 101.4 386.484 100.973 385.044 100.12C383.604 99.24 382.538 98.0267 381.844 96.48C381.151 94.9067 380.804 93.0933 380.804 91.04C380.804 88.9867 381.191 87.1867 381.964 85.64C382.764 84.0933 383.884 82.8933 385.324 82.04C386.764 81.16 388.471 80.72 390.444 80.72C392.231 80.72 393.804 81.0667 395.164 81.76C396.551 82.4267 397.618 83.4 398.364 84.68C399.138 85.96 399.524 87.5067 399.524 89.32C399.524 89.8533 399.498 90.3733 399.444 90.88C399.418 91.36 399.378 91.76 399.324 92.08H382.844V89.2H395.804L395.364 89.6C395.471 88.3733 395.338 87.3733 394.964 86.6C394.618 85.8267 394.044 85.2533 393.244 84.88C392.471 84.5067 391.498 84.32 390.324 84.32C388.218 84.32 386.778 84.8533 386.004 85.92C385.231 86.96 384.844 88.4 384.844 90.24V91.44C384.844 92.7733 385.004 93.9067 385.324 94.84C385.671 95.7467 386.258 96.4267 387.084 96.88C387.911 97.3333 389.044 97.56 390.484 97.56C392.164 97.56 393.351 97.2933 394.044 96.76C394.738 96.2267 395.084 95.52 395.084 94.64V94.32H399.364V94.68C399.364 96.04 398.991 97.2267 398.244 98.24C397.498 99.2267 396.458 100 395.124 100.56C393.818 101.12 392.258 101.4 390.444 101.4ZM421.546 101.4C419.813 101.4 418.386 101.08 417.266 100.44C416.146 99.7733 415.333 98.8667 414.826 97.72H414.026L414.266 92.84H415.026C415.026 93.9333 415.226 94.84 415.626 95.56C416.053 96.28 416.666 96.8267 417.466 97.2C418.293 97.5467 419.279 97.72 420.426 97.72C421.386 97.72 422.199 97.6 422.866 97.36C423.559 97.12 424.133 96.7467 424.586 96.24C425.039 95.7067 425.359 95.0133 425.546 94.16C425.759 93.28 425.866 92.24 425.866 91.04C425.866 89.8133 425.759 88.7733 425.546 87.92C425.359 87.0667 425.039 86.3867 424.586 85.88C424.159 85.3733 423.599 85 422.906 84.76C422.213 84.52 421.386 84.4 420.426 84.4C419.279 84.4 418.293 84.5733 417.466 84.92C416.666 85.2667 416.053 85.8 415.626 86.52C415.226 87.24 415.026 88.16 415.026 89.28H414.266L414.026 84.28H415.146C415.573 83.3733 416.346 82.56 417.466 81.84C418.613 81.0933 420.053 80.72 421.786 80.72C424.533 80.72 426.613 81.6533 428.026 83.52C429.466 85.3867 430.186 87.8933 430.186 91.04C430.186 94.1867 429.439 96.7067 427.946 98.6C426.479 100.467 424.346 101.4 421.546 101.4ZM414.666 101H410.706V74.2H415.026V95.76L414.666 96.28V101ZM450.437 101H446.437V97.08L446.317 96V88.36C446.317 86.8667 445.957 85.8533 445.237 85.32C444.543 84.7867 443.41 84.52 441.837 84.52C440.263 84.52 439.13 84.8 438.437 85.36C437.77 85.92 437.437 86.8533 437.437 88.16V88.76H433.277V88.36C433.277 86.8667 433.637 85.5467 434.357 84.4C435.103 83.2533 436.13 82.36 437.437 81.72C438.77 81.0533 440.317 80.72 442.077 80.72C443.943 80.72 445.49 81.0667 446.717 81.76C447.943 82.4533 448.863 83.4133 449.477 84.64C450.117 85.84 450.437 87.2667 450.437 88.92V101ZM439.037 101.4C437.25 101.4 435.743 100.947 434.517 100.04C433.317 99.1067 432.717 97.7867 432.717 96.08C432.717 94.96 432.97 94.0267 433.477 93.28C434.01 92.5333 434.77 91.92 435.757 91.44C436.743 90.96 437.943 90.6267 439.357 90.44L446.717 89.4V92.44L439.997 93.44C438.85 93.6 438.05 93.84 437.597 94.16C437.143 94.48 436.917 95.0133 436.917 95.76C436.917 96.5333 437.183 97.0933 437.717 97.44C438.277 97.7867 439.183 97.96 440.437 97.96C441.397 97.96 442.317 97.8133 443.197 97.52C444.103 97.2 444.85 96.68 445.437 95.96C446.023 95.2133 446.317 94.1733 446.317 92.84L446.877 97.92L446.237 97.88C445.863 98.4933 445.343 99.0667 444.677 99.6C444.037 100.133 443.25 100.573 442.317 100.92C441.383 101.24 440.29 101.4 439.037 101.4ZM463.415 101.44C461.335 101.44 459.575 101 458.135 100.12C456.695 99.24 455.588 98.0267 454.815 96.48C454.068 94.9333 453.695 93.1333 453.695 91.08C453.695 89.0267 454.082 87.2267 454.855 85.68C455.655 84.1067 456.788 82.8933 458.255 82.04C459.722 81.16 461.495 80.72 463.575 80.72C465.335 80.72 466.882 81.0533 468.215 81.72C469.548 82.3867 470.575 83.32 471.295 84.52C472.042 85.72 472.415 87.12 472.415 88.72V89.08H468.135V88.84C468.135 87.3733 467.735 86.3067 466.935 85.64C466.162 84.9467 464.948 84.6 463.295 84.6C461.375 84.6 460.002 85.1467 459.175 86.24C458.375 87.3067 457.975 88.9067 457.975 91.04C457.975 93.2 458.375 94.8267 459.175 95.92C460.002 96.9867 461.375 97.52 463.295 97.52C464.948 97.52 466.162 97.1867 466.935 96.52C467.735 95.8267 468.135 94.76 468.135 93.32V93.08H472.415V93.44C472.415 94.9867 472.042 96.3733 471.295 97.6C470.548 98.8 469.495 99.7467 468.135 100.44C466.802 101.107 465.228 101.44 463.415 101.44ZM494.266 101H489.186L483.986 92.84H477.626V89H483.946L489.306 81.12H494.346L487.426 90.52L494.266 101ZM480.026 101H475.706V74.2H480.026V101ZM501.556 92.2H497.356C497.356 91.4 497.329 90.48 497.276 89.44C497.249 88.3733 497.196 87.2533 497.116 86.08C497.063 84.88 497.009 83.7067 496.956 82.56C496.903 81.3867 496.849 80.32 496.796 79.36C496.743 78.4 496.716 77.6133 496.716 77V74.2H502.196V77C502.196 77.6133 502.169 78.4 502.116 79.36C502.089 80.32 502.036 81.3867 501.956 82.56C501.903 83.7067 501.849 84.88 501.796 86.08C501.743 87.28 501.689 88.4133 501.636 89.48C501.583 90.52 501.556 91.4267 501.556 92.2ZM501.916 101H497.036V95.08H501.916V101ZM525.593 101.4C523.059 101.4 520.846 100.84 518.953 99.72C517.086 98.5733 515.633 96.9733 514.593 94.92C513.579 92.84 513.073 90.4 513.073 87.6C513.073 84.8 513.579 82.3733 514.593 80.32C515.633 78.24 517.086 76.64 518.953 75.52C520.846 74.3733 523.059 73.8 525.593 73.8C528.153 73.8 530.366 74.3733 532.233 75.52C534.099 76.64 535.539 78.24 536.553 80.32C537.566 82.3733 538.073 84.8 538.073 87.6C538.073 90.4 537.566 92.84 536.553 94.92C535.539 96.9733 534.099 98.5733 532.233 99.72C530.366 100.84 528.153 101.4 525.593 101.4ZM525.593 97.2C527.459 97.2 528.966 96.8933 530.113 96.28C531.259 95.64 532.099 94.6133 532.633 93.2C533.193 91.7867 533.473 89.92 533.473 87.6C533.473 85.2533 533.193 83.3867 532.633 82C532.099 80.5867 531.259 79.56 530.113 78.92C528.966 78.28 527.459 77.96 525.593 77.96C523.753 77.96 522.246 78.28 521.073 78.92C519.899 79.56 519.033 80.5867 518.473 82C517.939 83.3867 517.673 85.2533 517.673 87.6C517.673 89.92 517.939 91.7867 518.473 93.2C519.033 94.6133 519.899 95.64 521.073 96.28C522.246 96.8933 523.753 97.2 525.593 97.2ZM553.086 101H547.606L539.646 81.12H544.446L550.246 96.88H550.526L556.366 81.12H561.046L553.086 101ZM571.148 101.4C568.988 101.4 567.188 100.973 565.748 100.12C564.308 99.24 563.241 98.0267 562.548 96.48C561.854 94.9067 561.507 93.0933 561.507 91.04C561.507 88.9867 561.894 87.1867 562.668 85.64C563.468 84.0933 564.588 82.8933 566.028 82.04C567.468 81.16 569.174 80.72 571.148 80.72C572.934 80.72 574.508 81.0667 575.868 81.76C577.254 82.4267 578.321 83.4 579.068 84.68C579.841 85.96 580.228 87.5067 580.228 89.32C580.228 89.8533 580.201 90.3733 580.148 90.88C580.121 91.36 580.081 91.76 580.028 92.08H563.548V89.2H576.508L576.068 89.6C576.174 88.3733 576.041 87.3733 575.668 86.6C575.321 85.8267 574.748 85.2533 573.948 84.88C573.174 84.5067 572.201 84.32 571.028 84.32C568.921 84.32 567.481 84.8533 566.708 85.92C565.934 86.96 565.548 88.4 565.548 90.24V91.44C565.548 92.7733 565.708 93.9067 566.028 94.84C566.374 95.7467 566.961 96.4267 567.788 96.88C568.614 97.3333 569.748 97.56 571.188 97.56C572.868 97.56 574.054 97.2933 574.748 96.76C575.441 96.2267 575.788 95.52 575.788 94.64V94.32H580.068V94.68C580.068 96.04 579.694 97.2267 578.948 98.24C578.201 99.2267 577.161 100 575.828 100.56C574.521 101.12 572.961 101.4 571.148 101.4ZM587.995 101H583.675V81H587.635V86.56L587.995 86.76V101ZM587.995 88.04H586.995V84.16H587.835C588.235 83.2267 588.888 82.4267 589.795 81.76C590.728 81.0667 591.928 80.72 593.395 80.72C594.808 80.72 595.928 81.0267 596.755 81.64C597.608 82.2533 598.221 83.0667 598.595 84.08C598.968 85.0933 599.155 86.2267 599.155 87.48V88.8H594.835V88C594.835 86.6667 594.608 85.7333 594.155 85.2C593.701 84.6667 592.848 84.4 591.595 84.4C590.288 84.4 589.355 84.68 588.795 85.24C588.261 85.7733 587.995 86.7067 587.995 88.04ZM610.55 101.4C607.644 101.4 605.444 100.827 603.95 99.68C602.457 98.5067 601.71 96.7067 601.71 94.28V94.2H605.87V94.92C605.87 95.6133 606.004 96.1867 606.27 96.64C606.564 97.0667 607.044 97.3867 607.71 97.6C608.404 97.7867 609.377 97.88 610.63 97.88C611.697 97.88 612.497 97.8 613.03 97.64C613.59 97.4533 613.964 97.2 614.15 96.88C614.337 96.56 614.43 96.16 614.43 95.68C614.43 94.88 614.15 94.32 613.59 94C613.03 93.6533 612.03 93.3467 610.59 93.08L607.47 92.56C606.297 92.32 605.27 91.9867 604.39 91.56C603.537 91.1067 602.87 90.4933 602.39 89.72C601.937 88.92 601.71 87.92 601.71 86.72C601.71 84.9333 602.417 83.4933 603.83 82.4C605.244 81.28 607.244 80.72 609.83 80.72C611.404 80.72 612.804 80.9733 614.03 81.48C615.257 81.9867 616.23 82.7467 616.95 83.76C617.67 84.7733 618.03 86.04 618.03 87.56V87.92H613.91V87.44C613.91 86.8 613.804 86.2533 613.59 85.8C613.377 85.32 612.977 84.9467 612.39 84.68C611.804 84.4133 610.91 84.28 609.71 84.28C608.137 84.28 607.097 84.48 606.59 84.88C606.084 85.28 605.83 85.8667 605.83 86.64C605.83 87.4133 606.057 87.96 606.51 88.28C606.99 88.5733 607.924 88.8667 609.31 89.16L612.71 89.8C613.99 90.04 615.057 90.4 615.91 90.88C616.764 91.36 617.404 91.9867 617.83 92.76C618.284 93.5333 618.51 94.4533 618.51 95.52C618.51 97.3867 617.804 98.84 616.39 99.88C615.004 100.893 613.057 101.4 610.55 101.4ZM630.835 101.4C628.675 101.4 626.875 100.973 625.435 100.12C623.995 99.24 622.928 98.0267 622.235 96.48C621.542 94.9067 621.195 93.0933 621.195 91.04C621.195 88.9867 621.582 87.1867 622.355 85.64C623.155 84.0933 624.275 82.8933 625.715 82.04C627.155 81.16 628.862 80.72 630.835 80.72C632.622 80.72 634.195 81.0667 635.555 81.76C636.942 82.4267 638.008 83.4 638.755 84.68C639.528 85.96 639.915 87.5067 639.915 89.32C639.915 89.8533 639.888 90.3733 639.835 90.88C639.808 91.36 639.768 91.76 639.715 92.08H623.235V89.2H636.195L635.755 89.6C635.862 88.3733 635.728 87.3733 635.355 86.6C635.008 85.8267 634.435 85.2533 633.635 84.88C632.862 84.5067 631.888 84.32 630.715 84.32C628.608 84.32 627.168 84.8533 626.395 85.92C625.622 86.96 625.235 88.4 625.235 90.24V91.44C625.235 92.7733 625.395 93.9067 625.715 94.84C626.062 95.7467 626.648 96.4267 627.475 96.88C628.302 97.3333 629.435 97.56 630.875 97.56C632.555 97.56 633.742 97.2933 634.435 96.76C635.128 96.2267 635.475 95.52 635.475 94.64V94.32H639.755V94.68C639.755 96.04 639.382 97.2267 638.635 98.24C637.888 99.2267 636.848 100 635.515 100.56C634.208 101.12 632.648 101.4 630.835 101.4ZM652.398 101.4C650.238 101.4 648.438 100.973 646.998 100.12C645.558 99.24 644.491 98.0267 643.798 96.48C643.104 94.9067 642.757 93.0933 642.757 91.04C642.757 88.9867 643.144 87.1867 643.918 85.64C644.718 84.0933 645.838 82.8933 647.278 82.04C648.718 81.16 650.424 80.72 652.398 80.72C654.184 80.72 655.758 81.0667 657.118 81.76C658.504 82.4267 659.571 83.4 660.318 84.68C661.091 85.96 661.478 87.5067 661.478 89.32C661.478 89.8533 661.451 90.3733 661.398 90.88C661.371 91.36 661.331 91.76 661.278 92.08H644.798V89.2H657.758L657.318 89.6C657.424 88.3733 657.291 87.3733 656.918 86.6C656.571 85.8267 655.998 85.2533 655.198 84.88C654.424 84.5067 653.451 84.32 652.278 84.32C650.171 84.32 648.731 84.8533 647.958 85.92C647.184 86.96 646.798 88.4 646.798 90.24V91.44C646.798 92.7733 646.958 93.9067 647.278 94.84C647.624 95.7467 648.211 96.4267 649.038 96.88C649.864 97.3333 650.998 97.56 652.438 97.56C654.118 97.56 655.304 97.2933 655.998 96.76C656.691 96.2267 657.038 95.52 657.038 94.64V94.32H661.318V94.68C661.318 96.04 660.944 97.2267 660.198 98.24C659.451 99.2267 658.411 100 657.078 100.56C655.771 101.12 654.211 101.4 652.398 101.4ZM333.597 150.4C330.691 150.4 328.491 149.827 326.997 148.68C325.504 147.507 324.757 145.707 324.757 143.28V143.2H328.917V143.92C328.917 144.613 329.051 145.187 329.317 145.64C329.611 146.067 330.091 146.387 330.757 146.6C331.451 146.787 332.424 146.88 333.677 146.88C334.744 146.88 335.544 146.8 336.077 146.64C336.637 146.453 337.011 146.2 337.197 145.88C337.384 145.56 337.477 145.16 337.477 144.68C337.477 143.88 337.197 143.32 336.637 143C336.077 142.653 335.077 142.347 333.637 142.08L330.517 141.56C329.344 141.32 328.317 140.987 327.437 140.56C326.584 140.107 325.917 139.493 325.437 138.72C324.984 137.92 324.757 136.92 324.757 135.72C324.757 133.933 325.464 132.493 326.877 131.4C328.291 130.28 330.291 129.72 332.877 129.72C334.451 129.72 335.851 129.973 337.077 130.48C338.304 130.987 339.277 131.747 339.997 132.76C340.717 133.773 341.077 135.04 341.077 136.56V136.92H336.957V136.44C336.957 135.8 336.851 135.253 336.637 134.8C336.424 134.32 336.024 133.947 335.437 133.68C334.851 133.413 333.957 133.28 332.757 133.28C331.184 133.28 330.144 133.48 329.637 133.88C329.131 134.28 328.877 134.867 328.877 135.64C328.877 136.413 329.104 136.96 329.557 137.28C330.037 137.573 330.971 137.867 332.357 138.16L335.757 138.8C337.037 139.04 338.104 139.4 338.957 139.88C339.811 140.36 340.451 140.987 340.877 141.76C341.331 142.533 341.557 143.453 341.557 144.52C341.557 146.387 340.851 147.84 339.437 148.88C338.051 149.893 336.104 150.4 333.597 150.4ZM353.128 150C350.941 150 349.261 149.533 348.088 148.6C346.941 147.667 346.368 146.093 346.368 143.88V130.56L347.368 125.2H350.688V143.68C350.688 144.72 350.941 145.387 351.448 145.68C351.981 145.947 352.928 146.08 354.288 146.08H356.688V149.64C356.288 149.747 355.768 149.84 355.128 149.92C354.488 149.973 353.821 150 353.128 150ZM356.688 133.72H343.048V130.12H356.688V133.72ZM367.051 150.4C365.345 150.4 363.931 150.053 362.811 149.36C361.691 148.64 360.865 147.68 360.331 146.48C359.798 145.253 359.531 143.893 359.531 142.4V130.12H363.851V141.6C363.851 143.387 364.225 144.68 364.971 145.48C365.718 146.28 366.945 146.68 368.651 146.68C369.771 146.68 370.718 146.507 371.491 146.16C372.265 145.787 372.851 145.213 373.251 144.44C373.651 143.64 373.851 142.6 373.851 141.32H374.971V146.04H374.011C373.718 146.787 373.265 147.493 372.651 148.16C372.065 148.827 371.305 149.373 370.371 149.8C369.465 150.2 368.358 150.4 367.051 150.4ZM378.171 150H374.171V144.04L373.851 143.84V130.12H378.171V150ZM390.307 150.4C387.48 150.4 385.307 149.467 383.787 147.6C382.293 145.707 381.547 143.187 381.547 140.04C381.547 136.893 382.28 134.387 383.747 132.52C385.24 130.653 387.347 129.72 390.067 129.72C391.827 129.72 393.24 130.08 394.307 130.8C395.4 131.493 396.16 132.293 396.587 133.2H397.667L397.467 138.28H396.707C396.707 137.16 396.493 136.24 396.067 135.52C395.64 134.8 395.027 134.267 394.227 133.92C393.427 133.573 392.44 133.4 391.267 133.4C390.307 133.4 389.48 133.52 388.787 133.76C388.12 134 387.56 134.373 387.107 134.88C386.68 135.387 386.36 136.067 386.147 136.92C385.96 137.773 385.867 138.813 385.867 140.04C385.867 141.24 385.96 142.28 386.147 143.16C386.36 144.013 386.68 144.707 387.107 145.24C387.56 145.747 388.133 146.12 388.827 146.36C389.52 146.6 390.333 146.72 391.267 146.72C392.44 146.72 393.427 146.547 394.227 146.2C395.027 145.827 395.64 145.28 396.067 144.56C396.493 143.84 396.707 142.933 396.707 141.84H397.467L397.667 146.72H396.867C396.413 147.867 395.627 148.773 394.507 149.44C393.413 150.08 392.013 150.4 390.307 150.4ZM401.027 150H397.027V145.28L396.707 144.76V123.2H401.027V150ZM413.96 150.4C411.8 150.4 410 149.973 408.56 149.12C407.12 148.24 406.053 147.027 405.36 145.48C404.667 143.907 404.32 142.093 404.32 140.04C404.32 137.987 404.707 136.187 405.48 134.64C406.28 133.093 407.4 131.893 408.84 131.04C410.28 130.16 411.987 129.72 413.96 129.72C415.747 129.72 417.32 130.067 418.68 130.76C420.067 131.427 421.133 132.4 421.88 133.68C422.653 134.96 423.04 136.507 423.04 138.32C423.04 138.853 423.013 139.373 422.96 139.88C422.933 140.36 422.893 140.76 422.84 141.08H406.36V138.2H419.32L418.88 138.6C418.987 137.373 418.853 136.373 418.48 135.6C418.133 134.827 417.56 134.253 416.76 133.88C415.987 133.507 415.013 133.32 413.84 133.32C411.733 133.32 410.293 133.853 409.52 134.92C408.747 135.96 408.36 137.4 408.36 139.24V140.44C408.36 141.773 408.52 142.907 408.84 143.84C409.187 144.747 409.773 145.427 410.6 145.88C411.427 146.333 412.56 146.56 414 146.56C415.68 146.56 416.867 146.293 417.56 145.76C418.253 145.227 418.6 144.52 418.6 143.64V143.32H422.88V143.68C422.88 145.04 422.507 146.227 421.76 147.24C421.013 148.227 419.973 149 418.64 149.56C417.333 150.12 415.773 150.4 413.96 150.4ZM445.007 150H440.687V138.44C440.687 136.68 440.354 135.413 439.687 134.64C439.021 133.84 437.767 133.44 435.927 133.44C434.754 133.44 433.794 133.613 433.047 133.96C432.301 134.28 431.741 134.813 431.367 135.56C430.994 136.28 430.807 137.267 430.807 138.52H430.047L429.687 133.84H430.647C430.941 133.12 431.381 132.453 431.967 131.84C432.554 131.227 433.301 130.72 434.207 130.32C435.141 129.92 436.247 129.72 437.527 129.72C439.261 129.72 440.674 130.053 441.767 130.72C442.861 131.387 443.674 132.307 444.207 133.48C444.741 134.653 445.007 136 445.007 137.52V150ZM430.807 150H426.487V130.12H430.447V136.08L430.807 136.28V150ZM457.229 150C455.042 150 453.362 149.533 452.189 148.6C451.042 147.667 450.469 146.093 450.469 143.88V130.56L451.469 125.2H454.789V143.68C454.789 144.72 455.042 145.387 455.549 145.68C456.082 145.947 457.029 146.08 458.389 146.08H460.789V149.64C460.389 149.747 459.869 149.84 459.229 149.92C458.589 149.973 457.922 150 457.229 150ZM460.789 133.72H447.149V130.12H460.789V133.72ZM480.932 150H472.812V146.08H480.932C483.065 146.08 484.785 145.773 486.092 145.16C487.425 144.547 488.385 143.547 488.972 142.16C489.585 140.747 489.892 138.893 489.892 136.6C489.892 134.307 489.585 132.467 488.972 131.08C488.385 129.667 487.425 128.653 486.092 128.04C484.785 127.4 483.065 127.08 480.932 127.08H472.812V123.2H480.932C483.705 123.2 486.105 123.747 488.132 124.84C490.185 125.907 491.759 127.44 492.852 129.44C493.945 131.44 494.492 133.827 494.492 136.6C494.492 139.373 493.945 141.76 492.852 143.76C491.759 145.76 490.185 147.307 488.132 148.4C486.105 149.467 483.705 150 480.932 150ZM475.732 150H471.412V123.2H475.732V150ZM506.773 150.4C504.613 150.4 502.813 149.973 501.373 149.12C499.933 148.24 498.866 147.027 498.173 145.48C497.479 143.907 497.132 142.093 497.132 140.04C497.132 137.987 497.519 136.187 498.293 134.64C499.093 133.093 500.213 131.893 501.653 131.04C503.093 130.16 504.799 129.72 506.773 129.72C508.559 129.72 510.133 130.067 511.493 130.76C512.879 131.427 513.946 132.4 514.693 133.68C515.466 134.96 515.853 136.507 515.853 138.32C515.853 138.853 515.826 139.373 515.773 139.88C515.746 140.36 515.706 140.76 515.653 141.08H499.173V138.2H512.133L511.693 138.6C511.799 137.373 511.666 136.373 511.293 135.6C510.946 134.827 510.373 134.253 509.573 133.88C508.799 133.507 507.826 133.32 506.653 133.32C504.546 133.32 503.106 133.853 502.333 134.92C501.559 135.96 501.173 137.4 501.173 139.24V140.44C501.173 141.773 501.333 142.907 501.653 143.84C501.999 144.747 502.586 145.427 503.413 145.88C504.239 146.333 505.373 146.56 506.813 146.56C508.493 146.56 509.679 146.293 510.373 145.76C511.066 145.227 511.413 144.52 511.413 143.64V143.32H515.693V143.68C515.693 145.04 515.319 146.227 514.573 147.24C513.826 148.227 512.786 149 511.453 149.56C510.146 150.12 508.586 150.4 506.773 150.4ZM527.424 150C525.238 150 523.558 149.533 522.384 148.6C521.238 147.667 520.664 146.093 520.664 143.88V130.56L521.664 125.2H524.984V143.68C524.984 144.72 525.238 145.387 525.744 145.68C526.278 145.947 527.224 146.08 528.584 146.08H530.984V149.64C530.584 149.747 530.064 149.84 529.424 149.92C528.784 149.973 528.118 150 527.424 150ZM530.984 133.72H517.344V130.12H530.984V133.72ZM550.671 150H546.671V146.08L546.551 145V137.36C546.551 135.867 546.191 134.853 545.471 134.32C544.778 133.787 543.644 133.52 542.071 133.52C540.498 133.52 539.364 133.8 538.671 134.36C538.004 134.92 537.671 135.853 537.671 137.16V137.76H533.511V137.36C533.511 135.867 533.871 134.547 534.591 133.4C535.338 132.253 536.364 131.36 537.671 130.72C539.004 130.053 540.551 129.72 542.311 129.72C544.178 129.72 545.724 130.067 546.951 130.76C548.178 131.453 549.098 132.413 549.711 133.64C550.351 134.84 550.671 136.267 550.671 137.92V150ZM539.271 150.4C537.484 150.4 535.978 149.947 534.751 149.04C533.551 148.107 532.951 146.787 532.951 145.08C532.951 143.96 533.204 143.027 533.711 142.28C534.244 141.533 535.004 140.92 535.991 140.44C536.978 139.96 538.178 139.627 539.591 139.44L546.951 138.4V141.44L540.231 142.44C539.084 142.6 538.284 142.84 537.831 143.16C537.378 143.48 537.151 144.013 537.151 144.76C537.151 145.533 537.418 146.093 537.951 146.44C538.511 146.787 539.418 146.96 540.671 146.96C541.631 146.96 542.551 146.813 543.431 146.52C544.338 146.2 545.084 145.68 545.671 144.96C546.258 144.213 546.551 143.173 546.551 141.84L547.111 146.92L546.471 146.88C546.098 147.493 545.578 148.067 544.911 148.6C544.271 149.133 543.484 149.573 542.551 149.92C541.618 150.24 540.524 150.4 539.271 150.4ZM558.848 127.6H554.568L554.528 123.2H558.848V127.6ZM558.888 150H554.568V130H558.888V150ZM567.174 150H562.854V123.2H567.174V150ZM579.652 150.4C576.745 150.4 574.545 149.827 573.052 148.68C571.559 147.507 570.812 145.707 570.812 143.28V143.2H574.972V143.92C574.972 144.613 575.105 145.187 575.372 145.64C575.665 146.067 576.145 146.387 576.812 146.6C577.505 146.787 578.479 146.88 579.732 146.88C580.799 146.88 581.599 146.8 582.132 146.64C582.692 146.453 583.065 146.2 583.252 145.88C583.439 145.56 583.532 145.16 583.532 144.68C583.532 143.88 583.252 143.32 582.692 143C582.132 142.653 581.132 142.347 579.692 142.08L576.572 141.56C575.399 141.32 574.372 140.987 573.492 140.56C572.639 140.107 571.972 139.493 571.492 138.72C571.039 137.92 570.812 136.92 570.812 135.72C570.812 133.933 571.519 132.493 572.932 131.4C574.345 130.28 576.345 129.72 578.932 129.72C580.505 129.72 581.905 129.973 583.132 130.48C584.359 130.987 585.332 131.747 586.052 132.76C586.772 133.773 587.132 135.04 587.132 136.56V136.92H583.012V136.44C583.012 135.8 582.905 135.253 582.692 134.8C582.479 134.32 582.079 133.947 581.492 133.68C580.905 133.413 580.012 133.28 578.812 133.28C577.239 133.28 576.199 133.48 575.692 133.88C575.185 134.28 574.932 134.867 574.932 135.64C574.932 136.413 575.159 136.96 575.612 137.28C576.092 137.573 577.025 137.867 578.412 138.16L581.812 138.8C583.092 139.04 584.159 139.4 585.012 139.88C585.865 140.36 586.505 140.987 586.932 141.76C587.385 142.533 587.612 143.453 587.612 144.52C587.612 146.387 586.905 147.84 585.492 148.88C584.105 149.893 582.159 150.4 579.652 150.4ZM615.476 150H611.476V146.08L611.356 145V137.36C611.356 135.867 610.996 134.853 610.276 134.32C609.582 133.787 608.449 133.52 606.876 133.52C605.302 133.52 604.169 133.8 603.476 134.36C602.809 134.92 602.476 135.853 602.476 137.16V137.76H598.316V137.36C598.316 135.867 598.676 134.547 599.396 133.4C600.142 132.253 601.169 131.36 602.476 130.72C603.809 130.053 605.356 129.72 607.116 129.72C608.982 129.72 610.529 130.067 611.756 130.76C612.982 131.453 613.902 132.413 614.516 133.64C615.156 134.84 615.476 136.267 615.476 137.92V150ZM604.076 150.4C602.289 150.4 600.782 149.947 599.556 149.04C598.356 148.107 597.756 146.787 597.756 145.08C597.756 143.96 598.009 143.027 598.516 142.28C599.049 141.533 599.809 140.92 600.796 140.44C601.782 139.96 602.982 139.627 604.396 139.44L611.756 138.4V141.44L605.036 142.44C603.889 142.6 603.089 142.84 602.636 143.16C602.182 143.48 601.956 144.013 601.956 144.76C601.956 145.533 602.222 146.093 602.756 146.44C603.316 146.787 604.222 146.96 605.476 146.96C606.436 146.96 607.356 146.813 608.236 146.52C609.142 146.2 609.889 145.68 610.476 144.96C611.062 144.213 611.356 143.173 611.356 141.84L611.916 146.92L611.276 146.88C610.902 147.493 610.382 148.067 609.716 148.6C609.076 149.133 608.289 149.573 607.356 149.92C606.422 150.24 605.329 150.4 604.076 150.4ZM638.132 150H633.812V138.44C633.812 136.68 633.479 135.413 632.812 134.64C632.146 133.84 630.892 133.44 629.052 133.44C627.879 133.44 626.919 133.613 626.172 133.96C625.426 134.28 624.866 134.813 624.492 135.56C624.119 136.28 623.932 137.267 623.932 138.52H623.172L622.812 133.84H623.772C624.066 133.12 624.506 132.453 625.092 131.84C625.679 131.227 626.426 130.72 627.332 130.32C628.266 129.92 629.372 129.72 630.652 129.72C632.386 129.72 633.799 130.053 634.892 130.72C635.986 131.387 636.799 132.307 637.332 133.48C637.866 134.653 638.132 136 638.132 137.52V150ZM623.932 150H619.612V130.12H623.572V136.08L623.932 136.28V150ZM650.15 150.4C647.324 150.4 645.15 149.467 643.63 147.6C642.137 145.707 641.39 143.187 641.39 140.04C641.39 136.893 642.124 134.387 643.59 132.52C645.084 130.653 647.19 129.72 649.91 129.72C651.67 129.72 653.084 130.08 654.15 130.8C655.244 131.493 656.004 132.293 656.43 133.2H657.51L657.31 138.28H656.55C656.55 137.16 656.337 136.24 655.91 135.52C655.484 134.8 654.87 134.267 654.07 133.92C653.27 133.573 652.284 133.4 651.11 133.4C650.15 133.4 649.324 133.52 648.63 133.76C647.964 134 647.404 134.373 646.95 134.88C646.524 135.387 646.204 136.067 645.99 136.92C645.804 137.773 645.71 138.813 645.71 140.04C645.71 141.24 645.804 142.28 645.99 143.16C646.204 144.013 646.524 144.707 646.95 145.24C647.404 145.747 647.977 146.12 648.67 146.36C649.364 146.6 650.177 146.72 651.11 146.72C652.284 146.72 653.27 146.547 654.07 146.2C654.87 145.827 655.484 145.28 655.91 144.56C656.337 143.84 656.55 142.933 656.55 141.84H657.31L657.51 146.72H656.71C656.257 147.867 655.47 148.773 654.35 149.44C653.257 150.08 651.857 150.4 650.15 150.4ZM660.87 150H656.87V145.28L656.55 144.76V123.2H660.87V150ZM388.454 199.44C386.374 199.44 384.614 199 383.174 198.12C381.734 197.24 380.627 196.027 379.854 194.48C379.107 192.933 378.734 191.133 378.734 189.08C378.734 187.027 379.121 185.227 379.894 183.68C380.694 182.107 381.827 180.893 383.294 180.04C384.761 179.16 386.534 178.72 388.614 178.72C390.374 178.72 391.921 179.053 393.254 179.72C394.587 180.387 395.614 181.32 396.334 182.52C397.081 183.72 397.454 185.12 397.454 186.72V187.08H393.174V186.84C393.174 185.373 392.774 184.307 391.974 183.64C391.201 182.947 389.987 182.6 388.334 182.6C386.414 182.6 385.041 183.147 384.214 184.24C383.414 185.307 383.014 186.907 383.014 189.04C383.014 191.2 383.414 192.827 384.214 193.92C385.041 194.987 386.414 195.52 388.334 195.52C389.987 195.52 391.201 195.187 391.974 194.52C392.774 193.827 393.174 192.76 393.174 191.32V191.08H397.454V191.44C397.454 192.987 397.081 194.373 396.334 195.6C395.587 196.8 394.534 197.747 393.174 198.44C391.841 199.107 390.267 199.44 388.454 199.44ZM410.021 199.4C407.995 199.4 406.235 198.973 404.741 198.12C403.248 197.24 402.101 196.027 401.301 194.48C400.501 192.907 400.101 191.093 400.101 189.04C400.101 186.987 400.501 185.187 401.301 183.64C402.101 182.093 403.248 180.893 404.741 180.04C406.235 179.16 407.995 178.72 410.021 178.72C412.048 178.72 413.781 179.16 415.221 180.04C416.688 180.893 417.808 182.093 418.581 183.64C419.381 185.187 419.781 186.987 419.781 189.04C419.781 191.093 419.381 192.907 418.581 194.48C417.808 196.027 416.688 197.24 415.221 198.12C413.781 198.973 412.048 199.4 410.021 199.4ZM410.021 195.56C412.101 195.56 413.555 195.04 414.381 194C415.208 192.933 415.621 191.28 415.621 189.04C415.621 186.8 415.208 185.16 414.381 184.12C413.555 183.08 412.101 182.56 410.021 182.56C407.915 182.56 406.448 183.08 405.621 184.12C404.795 185.16 404.381 186.8 404.381 189.04C404.381 191.28 404.795 192.933 405.621 194C406.448 195.04 407.915 195.56 410.021 195.56ZM427.37 199H423.05V172.2H427.37V199ZM436.12 199H431.8V172.2H436.12V199ZM456.999 199H452.999V195.08L452.879 194V186.36C452.879 184.867 452.519 183.853 451.799 183.32C451.106 182.787 449.972 182.52 448.399 182.52C446.826 182.52 445.692 182.8 444.999 183.36C444.332 183.92 443.999 184.853 443.999 186.16V186.76H439.839V186.36C439.839 184.867 440.199 183.547 440.919 182.4C441.666 181.253 442.692 180.36 443.999 179.72C445.332 179.053 446.879 178.72 448.639 178.72C450.506 178.72 452.052 179.067 453.279 179.76C454.506 180.453 455.426 181.413 456.039 182.64C456.679 183.84 456.999 185.267 456.999 186.92V199ZM445.599 199.4C443.812 199.4 442.306 198.947 441.079 198.04C439.879 197.107 439.279 195.787 439.279 194.08C439.279 192.96 439.532 192.027 440.039 191.28C440.572 190.533 441.332 189.92 442.319 189.44C443.306 188.96 444.506 188.627 445.919 188.44L453.279 187.4V190.44L446.559 191.44C445.412 191.6 444.612 191.84 444.159 192.16C443.706 192.48 443.479 193.013 443.479 193.76C443.479 194.533 443.746 195.093 444.279 195.44C444.839 195.787 445.746 195.96 446.999 195.96C447.959 195.96 448.879 195.813 449.759 195.52C450.666 195.2 451.412 194.68 451.999 193.96C452.586 193.213 452.879 192.173 452.879 190.84L453.439 195.92L452.799 195.88C452.426 196.493 451.906 197.067 451.239 197.6C450.599 198.133 449.812 198.573 448.879 198.92C447.946 199.24 446.852 199.4 445.599 199.4ZM471.976 199.4C470.242 199.4 468.816 199.08 467.696 198.44C466.576 197.773 465.762 196.867 465.256 195.72H464.456L464.696 190.84H465.456C465.456 191.933 465.656 192.84 466.056 193.56C466.482 194.28 467.096 194.827 467.896 195.2C468.722 195.547 469.709 195.72 470.856 195.72C471.816 195.72 472.629 195.6 473.296 195.36C473.989 195.12 474.562 194.747 475.016 194.24C475.469 193.707 475.789 193.013 475.976 192.16C476.189 191.28 476.296 190.24 476.296 189.04C476.296 187.813 476.189 186.773 475.976 185.92C475.789 185.067 475.469 184.387 475.016 183.88C474.589 183.373 474.029 183 473.336 182.76C472.642 182.52 471.816 182.4 470.856 182.4C469.709 182.4 468.722 182.573 467.896 182.92C467.096 183.267 466.482 183.8 466.056 184.52C465.656 185.24 465.456 186.16 465.456 187.28H464.696L464.456 182.28H465.576C466.002 181.373 466.776 180.56 467.896 179.84C469.042 179.093 470.482 178.72 472.216 178.72C474.962 178.72 477.042 179.653 478.456 181.52C479.896 183.387 480.616 185.893 480.616 189.04C480.616 192.187 479.869 194.707 478.376 196.6C476.909 198.467 474.776 199.4 471.976 199.4ZM465.096 199H461.136V172.2H465.456V193.76L465.096 194.28V199ZM493.185 199.4C491.159 199.4 489.399 198.973 487.905 198.12C486.412 197.24 485.265 196.027 484.465 194.48C483.665 192.907 483.265 191.093 483.265 189.04C483.265 186.987 483.665 185.187 484.465 183.64C485.265 182.093 486.412 180.893 487.905 180.04C489.399 179.16 491.159 178.72 493.185 178.72C495.212 178.72 496.945 179.16 498.385 180.04C499.852 180.893 500.972 182.093 501.745 183.64C502.545 185.187 502.945 186.987 502.945 189.04C502.945 191.093 502.545 192.907 501.745 194.48C500.972 196.027 499.852 197.24 498.385 198.12C496.945 198.973 495.212 199.4 493.185 199.4ZM493.185 195.56C495.265 195.56 496.719 195.04 497.545 194C498.372 192.933 498.785 191.28 498.785 189.04C498.785 186.8 498.372 185.16 497.545 184.12C496.719 183.08 495.265 182.56 493.185 182.56C491.079 182.56 489.612 183.08 488.785 184.12C487.959 185.16 487.545 186.8 487.545 189.04C487.545 191.28 487.959 192.933 488.785 194C489.612 195.04 491.079 195.56 493.185 195.56ZM510.495 199H506.175V179H510.135V184.56L510.495 184.76V199ZM510.495 186.04H509.495V182.16H510.335C510.735 181.227 511.388 180.427 512.295 179.76C513.228 179.067 514.428 178.72 515.895 178.72C517.308 178.72 518.428 179.027 519.255 179.64C520.108 180.253 520.721 181.067 521.095 182.08C521.468 183.093 521.655 184.227 521.655 185.48V186.8H517.335V186C517.335 184.667 517.108 183.733 516.655 183.2C516.201 182.667 515.348 182.4 514.095 182.4C512.788 182.4 511.855 182.68 511.295 183.24C510.761 183.773 510.495 184.707 510.495 186.04ZM540.788 199H536.788V195.08L536.668 194V186.36C536.668 184.867 536.308 183.853 535.588 183.32C534.895 182.787 533.761 182.52 532.188 182.52C530.615 182.52 529.481 182.8 528.788 183.36C528.121 183.92 527.788 184.853 527.788 186.16V186.76H523.628V186.36C523.628 184.867 523.988 183.547 524.708 182.4C525.455 181.253 526.481 180.36 527.788 179.72C529.121 179.053 530.668 178.72 532.428 178.72C534.295 178.72 535.841 179.067 537.068 179.76C538.295 180.453 539.215 181.413 539.828 182.64C540.468 183.84 540.788 185.267 540.788 186.92V199ZM529.388 199.4C527.601 199.4 526.095 198.947 524.868 198.04C523.668 197.107 523.068 195.787 523.068 194.08C523.068 192.96 523.321 192.027 523.828 191.28C524.361 190.533 525.121 189.92 526.108 189.44C527.095 188.96 528.295 188.627 529.708 188.44L537.068 187.4V190.44L530.348 191.44C529.201 191.6 528.401 191.84 527.948 192.16C527.495 192.48 527.268 193.013 527.268 193.76C527.268 194.533 527.535 195.093 528.068 195.44C528.628 195.787 529.535 195.96 530.788 195.96C531.748 195.96 532.668 195.813 533.548 195.52C534.455 195.2 535.201 194.68 535.788 193.96C536.375 193.213 536.668 192.173 536.668 190.84L537.228 195.92L536.588 195.88C536.215 196.493 535.695 197.067 535.028 197.6C534.388 198.133 533.601 198.573 532.668 198.92C531.735 199.24 530.641 199.4 529.388 199.4ZM553.01 199C550.824 199 549.144 198.533 547.97 197.6C546.824 196.667 546.25 195.093 546.25 192.88V179.56L547.25 174.2H550.57V192.68C550.57 193.72 550.824 194.387 551.33 194.68C551.864 194.947 552.81 195.08 554.17 195.08H556.57V198.64C556.17 198.747 555.65 198.84 555.01 198.92C554.37 198.973 553.704 199 553.01 199ZM556.57 182.72H542.93V179.12H556.57V182.72ZM567.632 199.4C565.472 199.4 563.672 198.973 562.232 198.12C560.792 197.24 559.725 196.027 559.032 194.48C558.339 192.907 557.992 191.093 557.992 189.04C557.992 186.987 558.379 185.187 559.152 183.64C559.952 182.093 561.072 180.893 562.512 180.04C563.952 179.16 565.659 178.72 567.632 178.72C569.419 178.72 570.992 179.067 572.352 179.76C573.739 180.427 574.805 181.4 575.552 182.68C576.325 183.96 576.712 185.507 576.712 187.32C576.712 187.853 576.685 188.373 576.632 188.88C576.605 189.36 576.565 189.76 576.512 190.08H560.032V187.2H572.992L572.552 187.6C572.659 186.373 572.525 185.373 572.152 184.6C571.805 183.827 571.232 183.253 570.432 182.88C569.659 182.507 568.685 182.32 567.512 182.32C565.405 182.32 563.965 182.853 563.192 183.92C562.419 184.96 562.032 186.4 562.032 188.24V189.44C562.032 190.773 562.192 191.907 562.512 192.84C562.859 193.747 563.445 194.427 564.272 194.88C565.099 195.333 566.232 195.56 567.672 195.56C569.352 195.56 570.539 195.293 571.232 194.76C571.925 194.227 572.272 193.52 572.272 192.64V192.32H576.552V192.68C576.552 194.04 576.179 195.227 575.432 196.24C574.685 197.227 573.645 198 572.312 198.56C571.005 199.12 569.445 199.4 567.632 199.4ZM596.773 199H591.133L586.213 179.12H590.893L593.173 190.16L594.013 195.4H594.333L595.613 190.16L599.093 179.12H604.693L608.213 190.2L609.493 195.36H609.773L610.613 190.2L612.893 179.12H617.413L612.493 199H606.853L603.293 187.92L601.973 182.92H601.693L600.373 187.92L596.773 199ZM623.535 176.6H619.255L619.215 172.2H623.535V176.6ZM623.575 199H619.255V179H623.575V199ZM635.706 199C633.519 199 631.839 198.533 630.666 197.6C629.519 196.667 628.946 195.093 628.946 192.88V179.56L629.946 174.2H633.266V192.68C633.266 193.72 633.519 194.387 634.026 194.68C634.559 194.947 635.506 195.08 636.866 195.08H639.266V198.64C638.866 198.747 638.346 198.84 637.706 198.92C637.066 198.973 636.399 199 635.706 199ZM639.266 182.72H625.626V179.12H639.266V182.72ZM660.867 199H656.547V187.44C656.547 185.68 656.2 184.413 655.507 183.64C654.84 182.84 653.6 182.44 651.787 182.44C650.053 182.44 648.76 182.827 647.907 183.6C647.08 184.347 646.667 185.667 646.667 187.56H645.907L645.867 182.44H646.827C647.147 181.827 647.587 181.24 648.147 180.68C648.733 180.093 649.467 179.627 650.347 179.28C651.253 178.907 652.293 178.72 653.467 178.72C655.227 178.72 656.64 179.067 657.707 179.76C658.8 180.427 659.6 181.347 660.107 182.52C660.613 183.693 660.867 185.013 660.867 186.48V199ZM646.667 199H642.347V172.2H646.667V199ZM478.767 248.44C476.687 248.44 474.927 248 473.487 247.12C472.047 246.24 470.94 245.027 470.167 243.48C469.42 241.933 469.047 240.133 469.047 238.08C469.047 236.027 469.433 234.227 470.207 232.68C471.007 231.107 472.14 229.893 473.607 229.04C475.073 228.16 476.847 227.72 478.927 227.72C480.687 227.72 482.233 228.053 483.567 228.72C484.9 229.387 485.927 230.32 486.647 231.52C487.393 232.72 487.767 234.12 487.767 235.72V236.08H483.487V235.84C483.487 234.373 483.087 233.307 482.287 232.64C481.513 231.947 480.3 231.6 478.647 231.6C476.727 231.6 475.353 232.147 474.527 233.24C473.727 234.307 473.327 235.907 473.327 238.04C473.327 240.2 473.727 241.827 474.527 242.92C475.353 243.987 476.727 244.52 478.647 244.52C480.3 244.52 481.513 244.187 482.287 243.52C483.087 242.827 483.487 241.76 483.487 240.32V240.08H487.767V240.44C487.767 241.987 487.393 243.373 486.647 244.6C485.9 245.8 484.847 246.747 483.487 247.44C482.153 248.107 480.58 248.44 478.767 248.44ZM500.334 248.4C498.307 248.4 496.547 247.973 495.054 247.12C493.56 246.24 492.414 245.027 491.614 243.48C490.814 241.907 490.414 240.093 490.414 238.04C490.414 235.987 490.814 234.187 491.614 232.64C492.414 231.093 493.56 229.893 495.054 229.04C496.547 228.16 498.307 227.72 500.334 227.72C502.36 227.72 504.094 228.16 505.534 229.04C507 229.893 508.12 231.093 508.894 232.64C509.694 234.187 510.094 235.987 510.094 238.04C510.094 240.093 509.694 241.907 508.894 243.48C508.12 245.027 507 246.24 505.534 247.12C504.094 247.973 502.36 248.4 500.334 248.4ZM500.334 244.56C502.414 244.56 503.867 244.04 504.694 243C505.52 241.933 505.934 240.28 505.934 238.04C505.934 235.8 505.52 234.16 504.694 233.12C503.867 232.08 502.414 231.56 500.334 231.56C498.227 231.56 496.76 232.08 495.934 233.12C495.107 234.16 494.694 235.8 494.694 238.04C494.694 240.28 495.107 241.933 495.934 243C496.76 244.04 498.227 244.56 500.334 244.56ZM545.243 248H540.923V236.44C540.923 234.68 540.59 233.413 539.923 232.64C539.283 231.84 538.056 231.44 536.243 231.44C534.616 231.44 533.403 231.827 532.603 232.6C531.83 233.347 531.443 234.627 531.443 236.44L530.683 236.52L530.323 231.84H530.963C531.283 231.147 531.723 230.493 532.283 229.88C532.87 229.24 533.616 228.72 534.523 228.32C535.43 227.92 536.536 227.72 537.843 227.72C539.576 227.72 540.976 228.053 542.043 228.72C543.136 229.387 543.936 230.307 544.443 231.48C544.976 232.653 545.243 234 545.243 235.52V248ZM517.643 248H513.323V228.12H517.283V234.08L517.643 234.28V248ZM531.443 248H527.123V236.44C527.123 234.68 526.79 233.413 526.123 232.64C525.483 231.84 524.256 231.44 522.443 231.44C520.816 231.44 519.603 231.813 518.803 232.56C518.03 233.307 517.643 234.587 517.643 236.4L516.883 236.52L516.523 231.84H517.483C517.776 231.12 518.203 230.453 518.763 229.84C519.35 229.227 520.096 228.72 521.003 228.32C521.91 227.92 522.99 227.72 524.243 227.72C525.923 227.72 527.283 228.053 528.323 228.72C529.39 229.387 530.176 230.307 530.683 231.48C531.19 232.653 531.443 234 531.443 235.52V248ZM560.258 248.4C558.471 248.4 557.018 248.053 555.898 247.36C554.804 246.64 554.044 245.827 553.618 244.92H552.538L552.738 239.84H553.498C553.498 240.933 553.698 241.84 554.098 242.56C554.524 243.28 555.151 243.827 555.978 244.2C556.804 244.547 557.791 244.72 558.938 244.72C559.871 244.72 560.684 244.6 561.378 244.36C562.071 244.12 562.631 243.747 563.058 243.24C563.511 242.733 563.831 242.053 564.018 241.2C564.231 240.32 564.338 239.267 564.338 238.04C564.338 236.813 564.231 235.787 564.018 234.96C563.831 234.107 563.511 233.413 563.058 232.88C562.631 232.347 562.071 231.973 561.378 231.76C560.711 231.52 559.898 231.4 558.938 231.4C557.791 231.4 556.804 231.587 555.978 231.96C555.151 232.307 554.524 232.84 554.098 233.56C553.698 234.253 553.498 235.16 553.498 236.28H552.738L552.538 231.4H553.338C553.818 230.253 554.604 229.36 555.698 228.72C556.818 228.053 558.244 227.72 559.978 227.72C562.778 227.72 564.924 228.653 566.418 230.52C567.911 232.387 568.658 234.893 568.658 238.04C568.658 241.187 567.938 243.707 566.498 245.6C565.058 247.467 562.978 248.4 560.258 248.4ZM553.498 254.92H549.218V228.12H553.138V232.84L553.498 233.36V254.92ZM589.108 248H585.108V244.08L584.988 243V235.36C584.988 233.867 584.628 232.853 583.908 232.32C583.215 231.787 582.082 231.52 580.508 231.52C578.935 231.52 577.802 231.8 577.108 232.36C576.442 232.92 576.108 233.853 576.108 235.16V235.76H571.948V235.36C571.948 233.867 572.308 232.547 573.028 231.4C573.775 230.253 574.802 229.36 576.108 228.72C577.442 228.053 578.988 227.72 580.748 227.72C582.615 227.72 584.162 228.067 585.388 228.76C586.615 229.453 587.535 230.413 588.148 231.64C588.788 232.84 589.108 234.267 589.108 235.92V248ZM577.708 248.4C575.922 248.4 574.415 247.947 573.188 247.04C571.988 246.107 571.388 244.787 571.388 243.08C571.388 241.96 571.642 241.027 572.148 240.28C572.682 239.533 573.442 238.92 574.428 238.44C575.415 237.96 576.615 237.627 578.028 237.44L585.388 236.4V239.44L578.668 240.44C577.522 240.6 576.722 240.84 576.268 241.16C575.815 241.48 575.588 242.013 575.588 242.76C575.588 243.533 575.855 244.093 576.388 244.44C576.948 244.787 577.855 244.96 579.108 244.96C580.068 244.96 580.988 244.813 581.868 244.52C582.775 244.2 583.522 243.68 584.108 242.96C584.695 242.213 584.988 241.173 584.988 239.84L585.548 244.92L584.908 244.88C584.535 245.493 584.015 246.067 583.348 246.6C582.708 247.133 581.922 247.573 580.988 247.92C580.055 248.24 578.962 248.4 577.708 248.4ZM611.765 248H607.445V236.44C607.445 234.68 607.112 233.413 606.445 232.64C605.778 231.84 604.525 231.44 602.685 231.44C601.512 231.44 600.552 231.613 599.805 231.96C599.058 232.28 598.498 232.813 598.125 233.56C597.752 234.28 597.565 235.267 597.565 236.52H596.805L596.445 231.84H597.405C597.698 231.12 598.138 230.453 598.725 229.84C599.312 229.227 600.058 228.72 600.965 228.32C601.898 227.92 603.005 227.72 604.285 227.72C606.018 227.72 607.432 228.053 608.525 228.72C609.618 229.387 610.432 230.307 610.965 231.48C611.498 232.653 611.765 234 611.765 235.52V248ZM597.565 248H593.245V228.12H597.205V234.08L597.565 234.28V248ZM619.941 225.6H615.661L615.621 221.2H619.941V225.6ZM619.981 248H615.661V228H619.981V248ZM632.593 248.4C630.433 248.4 628.633 247.973 627.193 247.12C625.753 246.24 624.686 245.027 623.993 243.48C623.299 241.907 622.953 240.093 622.953 238.04C622.953 235.987 623.339 234.187 624.113 232.64C624.913 231.093 626.033 229.893 627.473 229.04C628.913 228.16 630.619 227.72 632.593 227.72C634.379 227.72 635.953 228.067 637.313 228.76C638.699 229.427 639.766 230.4 640.513 231.68C641.286 232.96 641.673 234.507 641.673 236.32C641.673 236.853 641.646 237.373 641.593 237.88C641.566 238.36 641.526 238.76 641.473 239.08H624.993V236.2H637.953L637.513 236.6C637.619 235.373 637.486 234.373 637.113 233.6C636.766 232.827 636.193 232.253 635.393 231.88C634.619 231.507 633.646 231.32 632.473 231.32C630.366 231.32 628.926 231.853 628.153 232.92C627.379 233.96 626.993 235.4 626.993 237.24V238.44C626.993 239.773 627.153 240.907 627.473 241.84C627.819 242.747 628.406 243.427 629.233 243.88C630.059 244.333 631.193 244.56 632.633 244.56C634.313 244.56 635.499 244.293 636.193 243.76C636.886 243.227 637.233 242.52 637.233 241.64V241.32H641.513V241.68C641.513 243.04 641.139 244.227 640.393 245.24C639.646 246.227 638.606 247 637.273 247.56C635.966 248.12 634.406 248.4 632.593 248.4ZM653.675 248.4C650.769 248.4 648.569 247.827 647.075 246.68C645.582 245.507 644.835 243.707 644.835 241.28V241.2H648.995V241.92C648.995 242.613 649.129 243.187 649.395 243.64C649.689 244.067 650.169 244.387 650.835 244.6C651.529 244.787 652.502 244.88 653.755 244.88C654.822 244.88 655.622 244.8 656.155 244.64C656.715 244.453 657.089 244.2 657.275 243.88C657.462 243.56 657.555 243.16 657.555 242.68C657.555 241.88 657.275 241.32 656.715 241C656.155 240.653 655.155 240.347 653.715 240.08L650.595 239.56C649.422 239.32 648.395 238.987 647.515 238.56C646.662 238.107 645.995 237.493 645.515 236.72C645.062 235.92 644.835 234.92 644.835 233.72C644.835 231.933 645.542 230.493 646.955 229.4C648.369 228.28 650.369 227.72 652.955 227.72C654.529 227.72 655.929 227.973 657.155 228.48C658.382 228.987 659.355 229.747 660.075 230.76C660.795 231.773 661.155 233.04 661.155 234.56V234.92H657.035V234.44C657.035 233.8 656.929 233.253 656.715 232.8C656.502 232.32 656.102 231.947 655.515 231.68C654.929 231.413 654.035 231.28 652.835 231.28C651.262 231.28 650.222 231.48 649.715 231.88C649.209 232.28 648.955 232.867 648.955 233.64C648.955 234.413 649.182 234.96 649.635 235.28C650.115 235.573 651.049 235.867 652.435 236.16L655.835 236.8C657.115 237.04 658.182 237.4 659.035 237.88C659.889 238.36 660.529 238.987 660.955 239.76C661.409 240.533 661.635 241.453 661.635 242.52C661.635 244.387 660.929 245.84 659.515 246.88C658.129 247.893 656.182 248.4 653.675 248.4Z" fill="white"/>
<rect x="51" y="432" width="293" height="293" rx="146.5" fill="#2D3B40"/>
<path d="M176.487 675.596C173.542 681.309 175.77 688.415 181.844 690.518C193.302 694.483 205.549 695.859 217.694 694.48C233.71 692.661 248.827 686.135 261.134 675.724C273.441 665.314 282.385 651.489 286.834 635.996C290.207 624.248 290.882 611.942 288.872 599.985C287.806 593.647 281.167 590.271 275.045 592.228C268.923 594.185 265.673 600.748 266.375 607.137C267.199 614.632 266.564 622.253 264.462 629.571C261.284 640.639 254.894 650.517 246.102 657.954C237.31 665.391 226.51 670.053 215.068 671.352C207.503 672.211 199.881 671.574 192.627 669.519C186.443 667.766 179.432 669.883 176.487 675.596Z" fill="white"/>
</g>
<defs>
<clipPath id="clip0_18940_20482">
<rect width="727" height="1272" rx="20.1569" fill="white"/>
</clipPath>
</defs>
</svg>
