<svg width="727" height="1272" viewBox="0 0 727 1272" fill="none" xmlns="http://www.w3.org/2000/svg">
<g clip-path="url(#clip0_18960_20692)">
<rect width="728" height="1273" rx="20.1569" fill="#F2935C"/>
<line x1="217.338" y1="817.436" x2="296.774" y2="747.251" stroke="white" stroke-width="2" stroke-dasharray="4 4"/>
<ellipse cx="365.606" cy="738.126" rx="120.786" ry="31.2673" transform="rotate(6.69033 365.606 738.126)" fill="white"/>
<line x1="365" y1="584" x2="365" y2="478" stroke="white" stroke-width="2" stroke-dasharray="4 4"/>
<path d="M362.764 465.363C362.62 465.937 362.289 466.447 361.822 466.812C361.355 467.177 360.78 467.375 360.187 467.375C359.964 467.376 359.74 467.349 359.523 467.295L348.898 464.639C348.603 464.564 348.322 464.44 348.068 464.27L340.099 458.958C339.513 458.567 339.107 457.959 338.969 457.268C338.831 456.577 338.973 455.86 339.364 455.274C339.755 454.688 340.363 454.281 341.054 454.143C341.745 454.005 342.462 454.147 343.048 454.538L350.632 459.595L360.812 462.142C361.152 462.224 361.472 462.373 361.755 462.58C362.037 462.787 362.276 463.047 362.457 463.346C362.639 463.646 362.759 463.978 362.812 464.324C362.864 464.67 362.848 465.023 362.764 465.363ZM406.821 433.335C406.603 433.997 406.256 434.609 405.8 435.136C405.344 435.663 404.789 436.095 404.165 436.406L396.302 440.337L391.295 445.348L378.014 458.629C377.69 458.953 377.286 459.188 376.844 459.31C376.402 459.432 375.936 459.438 375.491 459.326L354.241 454.014C353.918 453.933 353.612 453.792 353.341 453.599L334.907 440.437L326.845 436.406C325.585 435.776 324.627 434.672 324.181 433.336C323.735 431.999 323.838 430.541 324.467 429.281L332.718 412.782C333.348 411.522 334.453 410.564 335.789 410.118C337.125 409.672 338.584 409.775 339.844 410.405L347.168 414.057L364.766 409.03C365.243 408.894 365.75 408.894 366.227 409.03L383.825 414.057L391.149 410.405C392.409 409.775 393.868 409.672 395.204 410.118C396.54 410.564 397.645 411.522 398.275 412.782L406.526 429.281C406.84 429.903 407.029 430.582 407.079 431.278C407.13 431.974 407.042 432.673 406.821 433.335ZM385.422 443.688L376.221 436.32C369.733 441.632 361.496 442.333 354.669 437.98C353.997 437.553 353.431 436.98 353.01 436.305C352.589 435.629 352.326 434.867 352.239 434.076C352.153 433.285 352.245 432.485 352.509 431.734C352.773 430.983 353.203 430.301 353.766 429.739C353.774 429.729 353.783 429.72 353.792 429.712L368.687 415.266L365.5 414.356L348.759 419.141L339.671 437.313L356.007 448.983L375.311 453.808L385.422 443.688ZM391.478 437.631L382.453 419.562H371.888L357.531 433.507C361.735 436.194 368.325 436.934 374.239 430.974C374.701 430.509 375.318 430.23 375.973 430.193C376.628 430.156 377.273 430.362 377.785 430.772L389.21 439.926L391.478 437.631Z" fill="#2D3B40"/>
<path fill-rule="evenodd" clip-rule="evenodd" d="M393 572H411C427.971 572 436.456 572 441.728 577.272C447 582.544 447 591.029 447 608V745.25H456C459.728 745.25 462.75 748.272 462.75 752C462.75 755.728 459.728 758.75 456 758.75H276C272.272 758.75 269.25 755.728 269.25 752C269.25 748.272 272.272 745.25 276 745.25H285V635C285 618.029 285 609.544 290.272 604.272C295.544 599 304.029 599 321 599H357C373.971 599 382.456 599 387.728 604.272C393 609.544 393 618.029 393 635V745.25H406.5V635L406.5 634.195C406.501 626.404 406.502 619.261 405.721 613.45C404.86 607.052 402.836 600.289 397.274 594.726C391.711 589.164 384.948 587.14 378.55 586.279C372.821 585.509 365.797 585.499 358.134 585.5C358.893 582.015 360.159 579.385 362.272 577.272C367.544 572 376.029 572 393 572ZM305.25 626C305.25 622.272 308.272 619.25 312 619.25H366C369.728 619.25 372.75 622.272 372.75 626C372.75 629.728 369.728 632.75 366 632.75H312C308.272 632.75 305.25 629.728 305.25 626ZM305.25 653C305.25 649.272 308.272 646.25 312 646.25H366C369.728 646.25 372.75 649.272 372.75 653C372.75 656.728 369.728 659.75 366 659.75H312C308.272 659.75 305.25 656.728 305.25 653ZM305.25 680C305.25 676.272 308.272 673.25 312 673.25H366C369.728 673.25 372.75 676.272 372.75 680C372.75 683.728 369.728 686.75 366 686.75H312C308.272 686.75 305.25 683.728 305.25 680ZM339 718.25C342.728 718.25 345.75 721.272 345.75 725V745.25H332.25V725C332.25 721.272 335.272 718.25 339 718.25Z" fill="#2D3B40"/>
<path d="M227.598 852.063H222.375V814.875C222.375 813.466 221.815 812.115 220.819 811.119C219.823 810.123 218.471 809.563 217.062 809.563H202.453C202.101 809.563 201.763 809.703 201.514 809.952C201.265 810.201 201.125 810.539 201.125 810.891V852.063H195.812V793.762C195.821 792.934 195.642 792.115 195.287 791.368C194.933 790.62 194.413 789.962 193.767 789.445C192.887 788.759 191.812 788.367 190.696 788.326C189.581 788.285 188.48 788.596 187.552 789.216L160.989 806.907C160.26 807.393 159.663 808.052 159.251 808.824C158.838 809.597 158.623 810.46 158.625 811.336V852.063H153.402C152.716 852.053 152.051 852.303 151.541 852.763C151.032 853.223 150.716 853.859 150.656 854.543C150.632 854.907 150.683 855.271 150.806 855.614C150.928 855.957 151.12 856.271 151.369 856.536C151.618 856.802 151.919 857.013 152.254 857.158C152.588 857.302 152.948 857.376 153.312 857.375H227.687C228.052 857.376 228.412 857.302 228.746 857.158C229.081 857.013 229.382 856.802 229.631 856.536C229.88 856.271 230.072 855.957 230.194 855.614C230.317 855.271 230.368 854.907 230.344 854.543C230.284 853.859 229.968 853.223 229.458 852.763C228.949 852.303 228.284 852.053 227.598 852.063ZM173.234 844.094C173.235 844.458 173.161 844.819 173.017 845.153C172.872 845.487 172.661 845.788 172.395 846.037C172.13 846.287 171.816 846.478 171.473 846.601C171.13 846.724 170.765 846.775 170.402 846.75C169.718 846.691 169.081 846.374 168.621 845.864C168.161 845.354 167.911 844.688 167.922 844.001V838.871C167.912 838.185 168.163 837.521 168.623 837.011C169.083 836.502 169.719 836.186 170.402 836.125C170.765 836.101 171.13 836.152 171.473 836.275C171.816 836.397 172.13 836.589 172.395 836.838C172.661 837.087 172.872 837.389 173.017 837.723C173.161 838.057 173.235 838.418 173.234 838.782V844.094ZM173.234 825.5C173.235 825.865 173.161 826.225 173.017 826.559C172.872 826.894 172.661 827.195 172.395 827.444C172.13 827.693 171.816 827.885 171.473 828.007C171.13 828.13 170.765 828.181 170.402 828.157C169.718 828.096 169.082 827.779 168.622 827.269C168.162 826.759 167.912 826.094 167.922 825.407V820.278C167.912 819.591 168.163 818.927 168.623 818.418C169.083 817.908 169.719 817.592 170.402 817.532C170.765 817.508 171.13 817.558 171.473 817.681C171.816 817.804 172.13 817.996 172.395 818.245C172.661 818.494 172.872 818.795 173.017 819.129C173.161 819.463 173.235 819.824 173.234 820.188V825.5ZM186.516 844.094C186.516 844.458 186.442 844.819 186.298 845.153C186.154 845.487 185.942 845.788 185.676 846.037C185.411 846.287 185.097 846.478 184.754 846.601C184.411 846.724 184.047 846.775 183.683 846.75C183 846.691 182.365 846.375 181.904 845.866C181.444 845.358 181.194 844.694 181.203 844.008V838.871C181.195 838.186 181.445 837.522 181.905 837.014C182.365 836.505 183 836.189 183.683 836.129C184.047 836.105 184.411 836.155 184.754 836.278C185.097 836.401 185.411 836.593 185.676 836.842C185.942 837.091 186.154 837.392 186.298 837.726C186.442 838.06 186.516 838.421 186.516 838.785V844.094ZM186.516 825.5C186.516 825.865 186.442 826.225 186.298 826.559C186.154 826.894 185.942 827.195 185.676 827.444C185.411 827.693 185.097 827.885 184.754 828.007C184.411 828.13 184.047 828.181 183.683 828.157C183 828.096 182.365 827.78 181.905 827.272C181.445 826.763 181.195 826.1 181.203 825.414V820.278C181.195 819.592 181.445 818.928 181.905 818.42C182.365 817.911 183 817.595 183.683 817.535C184.047 817.511 184.411 817.562 184.754 817.684C185.097 817.807 185.411 817.999 185.676 818.248C185.942 818.497 186.154 818.798 186.298 819.132C186.442 819.467 186.516 819.827 186.516 820.191V825.5Z" fill="#2D3B40"/>
<line x1="432.616" y1="769.212" x2="502.335" y2="823.694" stroke="white" stroke-width="2" stroke-dasharray="4 4"/>
<path d="M569.215 812.73L537.34 802.105C536.795 801.923 536.205 801.923 535.66 802.105L503.785 812.73C503.256 812.906 502.796 813.245 502.47 813.697C502.144 814.149 501.969 814.693 501.969 815.25V841.813C501.969 842.517 502.249 843.193 502.747 843.691C503.245 844.189 503.921 844.469 504.625 844.469C505.329 844.469 506.005 844.189 506.503 843.691C507.001 843.193 507.281 842.517 507.281 841.813V818.936L518.434 822.651C515.471 827.438 514.529 833.206 515.814 838.687C517.1 844.169 520.508 848.916 525.291 851.887C519.314 854.231 514.148 858.471 510.369 864.268C510.173 864.56 510.036 864.888 509.968 865.234C509.899 865.579 509.9 865.934 509.97 866.279C510.04 866.624 510.178 866.952 510.376 867.243C510.573 867.534 510.827 867.783 511.122 867.976C511.417 868.168 511.747 868.3 512.093 868.363C512.439 868.427 512.795 868.421 513.139 868.346C513.483 868.271 513.808 868.129 514.097 867.927C514.385 867.725 514.63 867.467 514.818 867.17C519.822 859.493 527.724 855.094 536.5 855.094C545.276 855.094 553.178 859.493 558.182 867.17C558.571 867.749 559.173 868.151 559.857 868.29C560.541 868.429 561.252 868.293 561.837 867.912C562.421 867.531 562.832 866.935 562.981 866.253C563.129 865.571 563.004 864.858 562.631 864.268C558.852 858.471 553.666 854.231 547.709 851.887C552.487 848.916 555.892 844.172 557.178 838.695C558.463 833.217 557.524 827.454 554.566 822.668L569.215 817.787C569.744 817.611 570.204 817.272 570.53 816.82C570.856 816.368 571.032 815.824 571.032 815.267C571.032 814.709 570.856 814.166 570.53 813.713C570.204 813.261 569.744 812.923 569.215 812.747V812.73ZM552.438 833.844C552.438 836.364 551.842 838.847 550.696 841.092C549.551 843.336 547.89 845.277 545.85 846.755C543.809 848.233 541.447 849.207 538.958 849.595C536.468 849.984 533.922 849.777 531.528 848.991C529.134 848.205 526.961 846.862 525.186 845.074C523.412 843.285 522.086 841.101 521.319 838.701C520.552 836.301 520.365 833.753 520.773 831.267C521.181 828.781 522.173 826.426 523.667 824.398L535.66 828.382C536.205 828.564 536.795 828.564 537.34 828.382L549.333 824.398C551.351 827.134 552.439 830.444 552.438 833.844Z" fill="#2D3B40"/>
<path d="M564.98 869.038C564.786 869.375 564.506 869.654 564.17 869.848C563.833 870.043 563.451 870.145 563.063 870.145H509.938C509.549 870.145 509.168 870.042 508.832 869.847C508.496 869.653 508.217 869.374 508.023 869.037C507.829 868.701 507.726 868.319 507.727 867.931C507.727 867.542 507.829 867.161 508.023 866.825C512.237 859.539 518.731 854.315 526.31 851.839C522.561 849.607 519.648 846.207 518.019 842.16C516.39 838.112 516.135 833.642 517.292 829.436C518.449 825.23 520.956 821.519 524.426 818.875C527.896 816.231 532.138 814.799 536.5 814.799C540.863 814.799 545.105 816.231 548.575 818.875C552.045 821.519 554.551 825.23 555.709 829.436C556.866 833.642 556.61 838.112 554.981 842.16C553.352 846.207 550.44 849.607 546.691 851.839C554.27 854.315 560.764 859.539 564.978 866.825C565.172 867.161 565.275 867.542 565.275 867.931C565.276 868.32 565.174 868.701 564.98 869.038Z" fill="#2D3B40"/>
<path d="M179.049 125.4C176.489 125.4 174.395 125.04 172.769 124.32C171.142 123.573 169.929 122.547 169.129 121.24C168.355 119.907 167.969 118.387 167.969 116.68V116H172.209V116.44C172.209 117.533 172.395 118.453 172.769 119.2C173.169 119.947 173.875 120.507 174.889 120.88C175.902 121.253 177.355 121.44 179.249 121.44C181.222 121.44 182.609 121.16 183.409 120.6C184.209 120.013 184.609 119.107 184.609 117.88C184.609 117.053 184.489 116.387 184.249 115.88C184.009 115.373 183.529 114.96 182.809 114.64C182.115 114.293 181.075 113.987 179.689 113.72L175.129 112.8C173.582 112.507 172.289 112.053 171.249 111.44C170.209 110.8 169.409 109.987 168.849 109C168.315 108.013 168.049 106.827 168.049 105.44C168.049 104.107 168.395 102.867 169.089 101.72C169.809 100.547 170.902 99.6 172.369 98.88C173.862 98.16 175.755 97.8 178.049 97.8C180.502 97.8 182.489 98.2133 184.009 99.04C185.555 99.8667 186.675 100.96 187.369 102.32C188.089 103.653 188.449 105.12 188.449 106.72V107.2H184.169V106.76C184.169 105.64 183.982 104.72 183.609 104C183.262 103.253 182.622 102.693 181.689 102.32C180.782 101.92 179.542 101.72 177.969 101.72C175.995 101.72 174.569 102.013 173.689 102.6C172.809 103.187 172.369 104.067 172.369 105.24C172.369 106.04 172.502 106.68 172.769 107.16C173.062 107.64 173.555 108.027 174.249 108.32C174.969 108.587 175.929 108.867 177.129 109.16L181.689 110.12C183.395 110.44 184.769 110.947 185.809 111.64C186.875 112.333 187.662 113.187 188.169 114.2C188.675 115.187 188.929 116.36 188.929 117.72C188.929 119.107 188.582 120.387 187.889 121.56C187.195 122.733 186.115 123.667 184.649 124.36C183.209 125.053 181.342 125.4 179.049 125.4ZM210.749 125H206.429V113.44C206.429 111.68 206.083 110.413 205.389 109.64C204.723 108.84 203.483 108.44 201.669 108.44C199.936 108.44 198.643 108.827 197.789 109.6C196.963 110.347 196.549 111.667 196.549 113.56H195.789L195.749 108.44H196.709C197.029 107.827 197.469 107.24 198.029 106.68C198.616 106.093 199.349 105.627 200.229 105.28C201.136 104.907 202.176 104.72 203.349 104.72C205.109 104.72 206.523 105.067 207.589 105.76C208.683 106.427 209.483 107.347 209.989 108.52C210.496 109.693 210.749 111.013 210.749 112.48V125ZM196.549 125H192.229V98.2H196.549V125ZM231.765 125H227.765V121.08L227.645 120V112.36C227.645 110.867 227.285 109.853 226.565 109.32C225.871 108.787 224.738 108.52 223.165 108.52C221.591 108.52 220.458 108.8 219.765 109.36C219.098 109.92 218.765 110.853 218.765 112.16V112.76H214.605V112.36C214.605 110.867 214.965 109.547 215.685 108.4C216.431 107.253 217.458 106.36 218.765 105.72C220.098 105.053 221.645 104.72 223.405 104.72C225.271 104.72 226.818 105.067 228.045 105.76C229.271 106.453 230.191 107.413 230.805 108.64C231.445 109.84 231.765 111.267 231.765 112.92V125ZM220.365 125.4C218.578 125.4 217.071 124.947 215.845 124.04C214.645 123.107 214.045 121.787 214.045 120.08C214.045 118.96 214.298 118.027 214.805 117.28C215.338 116.533 216.098 115.92 217.085 115.44C218.071 114.96 219.271 114.627 220.685 114.44L228.045 113.4V116.44L221.325 117.44C220.178 117.6 219.378 117.84 218.925 118.16C218.471 118.48 218.245 119.013 218.245 119.76C218.245 120.533 218.511 121.093 219.045 121.44C219.605 121.787 220.511 121.96 221.765 121.96C222.725 121.96 223.645 121.813 224.525 121.52C225.431 121.2 226.178 120.68 226.765 119.96C227.351 119.213 227.645 118.173 227.645 116.84L228.205 121.92L227.565 121.88C227.191 122.493 226.671 123.067 226.005 123.6C225.365 124.133 224.578 124.573 223.645 124.92C222.711 125.24 221.618 125.4 220.365 125.4ZM240.221 125H235.901V105H239.861V110.56L240.221 110.76V125ZM240.221 112.04H239.221V108.16H240.061C240.461 107.227 241.115 106.427 242.021 105.76C242.955 105.067 244.155 104.72 245.621 104.72C247.035 104.72 248.155 105.027 248.981 105.64C249.835 106.253 250.448 107.067 250.821 108.08C251.195 109.093 251.381 110.227 251.381 111.48V112.8H247.061V112C247.061 110.667 246.835 109.733 246.381 109.2C245.928 108.667 245.075 108.4 243.821 108.4C242.515 108.4 241.581 108.68 241.021 109.24C240.488 109.773 240.221 110.707 240.221 112.04ZM262.983 125.4C260.823 125.4 259.023 124.973 257.583 124.12C256.143 123.24 255.077 122.027 254.383 120.48C253.69 118.907 253.343 117.093 253.343 115.04C253.343 112.987 253.73 111.187 254.503 109.64C255.303 108.093 256.423 106.893 257.863 106.04C259.303 105.16 261.01 104.72 262.983 104.72C264.77 104.72 266.343 105.067 267.703 105.76C269.09 106.427 270.157 107.4 270.903 108.68C271.677 109.96 272.063 111.507 272.063 113.32C272.063 113.853 272.037 114.373 271.983 114.88C271.957 115.36 271.917 115.76 271.863 116.08H255.383V113.2H268.343L267.903 113.6C268.01 112.373 267.877 111.373 267.503 110.6C267.157 109.827 266.583 109.253 265.783 108.88C265.01 108.507 264.037 108.32 262.863 108.32C260.757 108.32 259.317 108.853 258.543 109.92C257.77 110.96 257.383 112.4 257.383 114.24V115.44C257.383 116.773 257.543 117.907 257.863 118.84C258.21 119.747 258.797 120.427 259.623 120.88C260.45 121.333 261.583 121.56 263.023 121.56C264.703 121.56 265.89 121.293 266.583 120.76C267.277 120.227 267.623 119.52 267.623 118.64V118.32H271.903V118.68C271.903 120.04 271.53 121.227 270.783 122.24C270.037 123.227 268.997 124 267.663 124.56C266.357 125.12 264.797 125.4 262.983 125.4ZM286.645 131.8C286.112 131.8 285.565 131.76 285.005 131.68C284.445 131.627 283.992 131.547 283.645 131.44V127.92H286.405C287.232 127.92 287.845 127.8 288.245 127.56C288.645 127.347 289.018 126.88 289.365 126.16L290.605 123.36L290.245 124.76L281.645 105.12H286.405L290.405 114.76L292.205 119.08H292.565L294.165 114.76L297.805 105.12H302.605L293.165 127.32C292.685 128.52 292.138 129.44 291.525 130.08C290.912 130.72 290.205 131.16 289.405 131.4C288.632 131.667 287.712 131.8 286.645 131.8ZM312.99 125.4C310.963 125.4 309.203 124.973 307.71 124.12C306.217 123.24 305.07 122.027 304.27 120.48C303.47 118.907 303.07 117.093 303.07 115.04C303.07 112.987 303.47 111.187 304.27 109.64C305.07 108.093 306.217 106.893 307.71 106.04C309.203 105.16 310.963 104.72 312.99 104.72C315.017 104.72 316.75 105.16 318.19 106.04C319.657 106.893 320.777 108.093 321.55 109.64C322.35 111.187 322.75 112.987 322.75 115.04C322.75 117.093 322.35 118.907 321.55 120.48C320.777 122.027 319.657 123.24 318.19 124.12C316.75 124.973 315.017 125.4 312.99 125.4ZM312.99 121.56C315.07 121.56 316.523 121.04 317.35 120C318.177 118.933 318.59 117.28 318.59 115.04C318.59 112.8 318.177 111.16 317.35 110.12C316.523 109.08 315.07 108.56 312.99 108.56C310.883 108.56 309.417 109.08 308.59 110.12C307.763 111.16 307.35 112.8 307.35 115.04C307.35 117.28 307.763 118.933 308.59 120C309.417 121.04 310.883 121.56 312.99 121.56ZM333.379 125.4C331.673 125.4 330.259 125.053 329.139 124.36C328.019 123.64 327.193 122.68 326.659 121.48C326.126 120.253 325.859 118.893 325.859 117.4V105.12H330.179V116.6C330.179 118.387 330.553 119.68 331.299 120.48C332.046 121.28 333.273 121.68 334.979 121.68C336.099 121.68 337.046 121.507 337.819 121.16C338.593 120.787 339.179 120.213 339.579 119.44C339.979 118.64 340.179 117.6 340.179 116.32H341.299V121.04H340.339C340.046 121.787 339.593 122.493 338.979 123.16C338.393 123.827 337.633 124.373 336.699 124.8C335.793 125.2 334.686 125.4 333.379 125.4ZM344.499 125H340.499V119.04L340.179 118.84V105.12H344.499V125ZM353.073 125H348.753V105H352.713V110.56L353.073 110.76V125ZM353.073 112.04H352.073V108.16H352.913C353.313 107.227 353.966 106.427 354.873 105.76C355.806 105.067 357.006 104.72 358.473 104.72C359.886 104.72 361.006 105.027 361.833 105.64C362.686 106.253 363.299 107.067 363.673 108.08C364.046 109.093 364.233 110.227 364.233 111.48V112.8H359.913V112C359.913 110.667 359.686 109.733 359.233 109.2C358.779 108.667 357.926 108.4 356.673 108.4C355.366 108.4 354.433 108.68 353.873 109.24C353.339 109.773 353.073 110.707 353.073 112.04ZM383.728 125.44C381.648 125.44 379.888 125 378.448 124.12C377.008 123.24 375.901 122.027 375.128 120.48C374.381 118.933 374.007 117.133 374.007 115.08C374.007 113.027 374.394 111.227 375.168 109.68C375.968 108.107 377.101 106.893 378.567 106.04C380.034 105.16 381.808 104.72 383.888 104.72C385.648 104.72 387.194 105.053 388.528 105.72C389.861 106.387 390.888 107.32 391.608 108.52C392.354 109.72 392.728 111.12 392.728 112.72V113.08H388.448V112.84C388.448 111.373 388.048 110.307 387.248 109.64C386.474 108.947 385.261 108.6 383.608 108.6C381.688 108.6 380.314 109.147 379.488 110.24C378.688 111.307 378.288 112.907 378.288 115.04C378.288 117.2 378.688 118.827 379.488 119.92C380.314 120.987 381.688 121.52 383.608 121.52C385.261 121.52 386.474 121.187 387.248 120.52C388.048 119.827 388.448 118.76 388.448 117.32V117.08H392.728V117.44C392.728 118.987 392.354 120.373 391.608 121.6C390.861 122.8 389.808 123.747 388.448 124.44C387.114 125.107 385.541 125.44 383.728 125.44ZM405.295 125.4C403.268 125.4 401.508 124.973 400.015 124.12C398.521 123.24 397.375 122.027 396.575 120.48C395.775 118.907 395.375 117.093 395.375 115.04C395.375 112.987 395.775 111.187 396.575 109.64C397.375 108.093 398.521 106.893 400.015 106.04C401.508 105.16 403.268 104.72 405.295 104.72C407.321 104.72 409.055 105.16 410.495 106.04C411.961 106.893 413.081 108.093 413.855 109.64C414.655 111.187 415.055 112.987 415.055 115.04C415.055 117.093 414.655 118.907 413.855 120.48C413.081 122.027 411.961 123.24 410.495 124.12C409.055 124.973 407.321 125.4 405.295 125.4ZM405.295 121.56C407.375 121.56 408.828 121.04 409.655 120C410.481 118.933 410.895 117.28 410.895 115.04C410.895 112.8 410.481 111.16 409.655 110.12C408.828 109.08 407.375 108.56 405.295 108.56C403.188 108.56 401.721 109.08 400.895 110.12C400.068 111.16 399.655 112.8 399.655 115.04C399.655 117.28 400.068 118.933 400.895 120C401.721 121.04 403.188 121.56 405.295 121.56ZM450.204 125H445.884V113.44C445.884 111.68 445.551 110.413 444.884 109.64C444.244 108.84 443.017 108.44 441.204 108.44C439.577 108.44 438.364 108.827 437.564 109.6C436.791 110.347 436.404 111.627 436.404 113.44L435.644 113.52L435.284 108.84H435.924C436.244 108.147 436.684 107.493 437.244 106.88C437.831 106.24 438.577 105.72 439.484 105.32C440.391 104.92 441.497 104.72 442.804 104.72C444.537 104.72 445.937 105.053 447.004 105.72C448.097 106.387 448.897 107.307 449.404 108.48C449.937 109.653 450.204 111 450.204 112.52V125ZM422.604 125H418.284V105.12H422.244V111.08L422.604 111.28V125ZM436.404 125H432.084V113.44C432.084 111.68 431.751 110.413 431.084 109.64C430.444 108.84 429.217 108.44 427.404 108.44C425.777 108.44 424.564 108.813 423.764 109.56C422.991 110.307 422.604 111.587 422.604 113.4L421.844 113.52L421.484 108.84H422.444C422.737 108.12 423.164 107.453 423.724 106.84C424.311 106.227 425.057 105.72 425.964 105.32C426.871 104.92 427.951 104.72 429.204 104.72C430.884 104.72 432.244 105.053 433.284 105.72C434.351 106.387 435.137 107.307 435.644 108.48C436.151 109.653 436.404 111 436.404 112.52V125ZM465.219 125.4C463.432 125.4 461.979 125.053 460.859 124.36C459.765 123.64 459.005 122.827 458.579 121.92H457.499L457.699 116.84H458.459C458.459 117.933 458.659 118.84 459.059 119.56C459.485 120.28 460.112 120.827 460.939 121.2C461.765 121.547 462.752 121.72 463.899 121.72C464.832 121.72 465.645 121.6 466.339 121.36C467.032 121.12 467.592 120.747 468.019 120.24C468.472 119.733 468.792 119.053 468.979 118.2C469.192 117.32 469.299 116.267 469.299 115.04C469.299 113.813 469.192 112.787 468.979 111.96C468.792 111.107 468.472 110.413 468.019 109.88C467.592 109.347 467.032 108.973 466.339 108.76C465.672 108.52 464.859 108.4 463.899 108.4C462.752 108.4 461.765 108.587 460.939 108.96C460.112 109.307 459.485 109.84 459.059 110.56C458.659 111.253 458.459 112.16 458.459 113.28H457.699L457.499 108.4H458.299C458.779 107.253 459.565 106.36 460.659 105.72C461.779 105.053 463.205 104.72 464.939 104.72C467.739 104.72 469.885 105.653 471.379 107.52C472.872 109.387 473.619 111.893 473.619 115.04C473.619 118.187 472.899 120.707 471.459 122.6C470.019 124.467 467.939 125.4 465.219 125.4ZM458.459 131.92H454.179V105.12H458.099V109.84L458.459 110.36V131.92ZM494.069 125H490.069V121.08L489.949 120V112.36C489.949 110.867 489.589 109.853 488.869 109.32C488.176 108.787 487.043 108.52 485.469 108.52C483.896 108.52 482.763 108.8 482.069 109.36C481.403 109.92 481.069 110.853 481.069 112.16V112.76H476.909V112.36C476.909 110.867 477.269 109.547 477.989 108.4C478.736 107.253 479.763 106.36 481.069 105.72C482.403 105.053 483.949 104.72 485.709 104.72C487.576 104.72 489.123 105.067 490.349 105.76C491.576 106.453 492.496 107.413 493.109 108.64C493.749 109.84 494.069 111.267 494.069 112.92V125ZM482.669 125.4C480.883 125.4 479.376 124.947 478.149 124.04C476.949 123.107 476.349 121.787 476.349 120.08C476.349 118.96 476.603 118.027 477.109 117.28C477.643 116.533 478.403 115.92 479.389 115.44C480.376 114.96 481.576 114.627 482.989 114.44L490.349 113.4V116.44L483.629 117.44C482.483 117.6 481.683 117.84 481.229 118.16C480.776 118.48 480.549 119.013 480.549 119.76C480.549 120.533 480.816 121.093 481.349 121.44C481.909 121.787 482.816 121.96 484.069 121.96C485.029 121.96 485.949 121.813 486.829 121.52C487.736 121.2 488.483 120.68 489.069 119.96C489.656 119.213 489.949 118.173 489.949 116.84L490.509 121.92L489.869 121.88C489.496 122.493 488.976 123.067 488.309 123.6C487.669 124.133 486.883 124.573 485.949 124.92C485.016 125.24 483.923 125.4 482.669 125.4ZM516.726 125H512.406V113.44C512.406 111.68 512.073 110.413 511.406 109.64C510.739 108.84 509.486 108.44 507.646 108.44C506.473 108.44 505.513 108.613 504.766 108.96C504.019 109.28 503.459 109.813 503.086 110.56C502.713 111.28 502.526 112.267 502.526 113.52H501.766L501.406 108.84H502.366C502.659 108.12 503.099 107.453 503.686 106.84C504.273 106.227 505.019 105.72 505.926 105.32C506.859 104.92 507.966 104.72 509.246 104.72C510.979 104.72 512.393 105.053 513.486 105.72C514.579 106.387 515.393 107.307 515.926 108.48C516.459 109.653 516.726 111 516.726 112.52V125ZM502.526 125H498.206V105.12H502.166V111.08L502.526 111.28V125ZM523.168 131.8C522.635 131.8 522.088 131.76 521.528 131.68C520.968 131.627 520.515 131.547 520.168 131.44V127.92H522.928C523.755 127.92 524.368 127.8 524.768 127.56C525.168 127.347 525.542 126.88 525.888 126.16L527.128 123.36L526.768 124.76L518.168 105.12H522.928L526.928 114.76L528.728 119.08H529.088L530.688 114.76L534.328 105.12H539.128L529.688 127.32C529.208 128.52 528.662 129.44 528.048 130.08C527.435 130.72 526.728 131.16 525.928 131.4C525.155 131.667 524.235 131.8 523.168 131.8ZM557.143 125.4C554.316 125.4 552.143 124.467 550.623 122.6C549.129 120.707 548.382 118.187 548.382 115.04C548.382 111.893 549.116 109.387 550.583 107.52C552.076 105.653 554.183 104.72 556.903 104.72C558.663 104.72 560.076 105.08 561.143 105.8C562.236 106.493 562.996 107.293 563.423 108.2H564.503L564.303 113.28H563.543C563.543 112.16 563.329 111.24 562.903 110.52C562.476 109.8 561.863 109.267 561.063 108.92C560.263 108.573 559.276 108.4 558.103 108.4C557.143 108.4 556.316 108.52 555.623 108.76C554.956 109 554.396 109.373 553.943 109.88C553.516 110.387 553.196 111.067 552.983 111.92C552.796 112.773 552.703 113.813 552.703 115.04C552.703 116.24 552.796 117.28 552.983 118.16C553.196 119.013 553.516 119.707 553.943 120.24C554.396 120.747 554.969 121.12 555.663 121.36C556.356 121.6 557.169 121.72 558.103 121.72C559.276 121.72 560.263 121.547 561.063 121.2C561.863 120.827 562.476 120.28 562.903 119.56C563.329 118.84 563.543 117.933 563.543 116.84H564.303L564.503 121.72H563.703C563.249 122.867 562.463 123.773 561.343 124.44C560.249 125.08 558.849 125.4 557.143 125.4ZM567.863 125H563.863V120.28L563.543 119.76V98.2H567.863V125ZM580.796 125.4C578.636 125.4 576.836 124.973 575.396 124.12C573.956 123.24 572.889 122.027 572.196 120.48C571.503 118.907 571.156 117.093 571.156 115.04C571.156 112.987 571.543 111.187 572.316 109.64C573.116 108.093 574.236 106.893 575.676 106.04C577.116 105.16 578.823 104.72 580.796 104.72C582.583 104.72 584.156 105.067 585.516 105.76C586.903 106.427 587.969 107.4 588.716 108.68C589.489 109.96 589.876 111.507 589.876 113.32C589.876 113.853 589.849 114.373 589.796 114.88C589.769 115.36 589.729 115.76 589.676 116.08H573.196V113.2H586.156L585.716 113.6C585.823 112.373 585.689 111.373 585.316 110.6C584.969 109.827 584.396 109.253 583.596 108.88C582.823 108.507 581.849 108.32 580.676 108.32C578.569 108.32 577.129 108.853 576.356 109.92C575.583 110.96 575.196 112.4 575.196 114.24V115.44C575.196 116.773 575.356 117.907 575.676 118.84C576.023 119.747 576.609 120.427 577.436 120.88C578.263 121.333 579.396 121.56 580.836 121.56C582.516 121.56 583.703 121.293 584.396 120.76C585.089 120.227 585.436 119.52 585.436 118.64V118.32H589.716V118.68C589.716 120.04 589.343 121.227 588.596 122.24C587.849 123.227 586.809 124 585.476 124.56C584.169 125.12 582.609 125.4 580.796 125.4ZM601.448 125C599.261 125 597.581 124.533 596.408 123.6C595.261 122.667 594.688 121.093 594.688 118.88V105.56L595.688 100.2H599.008V118.68C599.008 119.72 599.261 120.387 599.768 120.68C600.301 120.947 601.248 121.08 602.608 121.08H605.008V124.64C604.608 124.747 604.088 124.84 603.448 124.92C602.808 124.973 602.141 125 601.448 125ZM605.008 108.72H591.368V105.12H605.008V108.72ZM624.694 125H620.694V121.08L620.574 120V112.36C620.574 110.867 620.214 109.853 619.494 109.32C618.801 108.787 617.668 108.52 616.094 108.52C614.521 108.52 613.388 108.8 612.694 109.36C612.028 109.92 611.694 110.853 611.694 112.16V112.76H607.534V112.36C607.534 110.867 607.894 109.547 608.614 108.4C609.361 107.253 610.388 106.36 611.694 105.72C613.028 105.053 614.574 104.72 616.334 104.72C618.201 104.72 619.748 105.067 620.974 105.76C622.201 106.453 623.121 107.413 623.734 108.64C624.374 109.84 624.694 111.267 624.694 112.92V125ZM613.294 125.4C611.508 125.4 610.001 124.947 608.774 124.04C607.574 123.107 606.974 121.787 606.974 120.08C606.974 118.96 607.228 118.027 607.734 117.28C608.268 116.533 609.028 115.92 610.014 115.44C611.001 114.96 612.201 114.627 613.614 114.44L620.974 113.4V116.44L614.254 117.44C613.108 117.6 612.308 117.84 611.854 118.16C611.401 118.48 611.174 119.013 611.174 119.76C611.174 120.533 611.441 121.093 611.974 121.44C612.534 121.787 613.441 121.96 614.694 121.96C615.654 121.96 616.574 121.813 617.454 121.52C618.361 121.2 619.108 120.68 619.694 119.96C620.281 119.213 620.574 118.173 620.574 116.84L621.134 121.92L620.494 121.88C620.121 122.493 619.601 123.067 618.934 123.6C618.294 124.133 617.508 124.573 616.574 124.92C615.641 125.24 614.548 125.4 613.294 125.4ZM632.871 102.6H628.591L628.551 98.2H632.871V102.6ZM632.911 125H628.591V105H632.911V125ZM641.198 125H636.878V98.2H641.198V125ZM653.675 125.4C650.769 125.4 648.569 124.827 647.075 123.68C645.582 122.507 644.835 120.707 644.835 118.28V118.2H648.995V118.92C648.995 119.613 649.129 120.187 649.395 120.64C649.689 121.067 650.169 121.387 650.835 121.6C651.529 121.787 652.502 121.88 653.755 121.88C654.822 121.88 655.622 121.8 656.155 121.64C656.715 121.453 657.089 121.2 657.275 120.88C657.462 120.56 657.555 120.16 657.555 119.68C657.555 118.88 657.275 118.32 656.715 118C656.155 117.653 655.155 117.347 653.715 117.08L650.595 116.56C649.422 116.32 648.395 115.987 647.515 115.56C646.662 115.107 645.995 114.493 645.515 113.72C645.062 112.92 644.835 111.92 644.835 110.72C644.835 108.933 645.542 107.493 646.955 106.4C648.369 105.28 650.369 104.72 652.955 104.72C654.529 104.72 655.929 104.973 657.155 105.48C658.382 105.987 659.355 106.747 660.075 107.76C660.795 108.773 661.155 110.04 661.155 111.56V111.92H657.035V111.44C657.035 110.8 656.929 110.253 656.715 109.8C656.502 109.32 656.102 108.947 655.515 108.68C654.929 108.413 654.035 108.28 652.835 108.28C651.262 108.28 650.222 108.48 649.715 108.88C649.209 109.28 648.955 109.867 648.955 110.64C648.955 111.413 649.182 111.96 649.635 112.28C650.115 112.573 651.049 112.867 652.435 113.16L655.835 113.8C657.115 114.04 658.182 114.4 659.035 114.88C659.889 115.36 660.529 115.987 660.955 116.76C661.409 117.533 661.635 118.453 661.635 119.52C661.635 121.387 660.929 122.84 659.515 123.88C658.129 124.893 656.182 125.4 653.675 125.4ZM212.385 174C210.199 174 208.519 173.533 207.345 172.6C206.199 171.667 205.625 170.093 205.625 167.88V154.56L206.625 149.2H209.945V167.68C209.945 168.72 210.199 169.387 210.705 169.68C211.239 169.947 212.185 170.08 213.545 170.08H215.945V173.64C215.545 173.747 215.025 173.84 214.385 173.92C213.745 173.973 213.079 174 212.385 174ZM215.945 157.72H202.305V154.12H215.945V157.72ZM227.287 174.4C225.26 174.4 223.5 173.973 222.007 173.12C220.514 172.24 219.367 171.027 218.567 169.48C217.767 167.907 217.367 166.093 217.367 164.04C217.367 161.987 217.767 160.187 218.567 158.64C219.367 157.093 220.514 155.893 222.007 155.04C223.5 154.16 225.26 153.72 227.287 153.72C229.314 153.72 231.047 154.16 232.487 155.04C233.954 155.893 235.074 157.093 235.847 158.64C236.647 160.187 237.047 161.987 237.047 164.04C237.047 166.093 236.647 167.907 235.847 169.48C235.074 171.027 233.954 172.24 232.487 173.12C231.047 173.973 229.314 174.4 227.287 174.4ZM227.287 170.56C229.367 170.56 230.82 170.04 231.647 169C232.474 167.933 232.887 166.28 232.887 164.04C232.887 161.8 232.474 160.16 231.647 159.12C230.82 158.08 229.367 157.56 227.287 157.56C225.18 157.56 223.714 158.08 222.887 159.12C222.06 160.16 221.647 161.8 221.647 164.04C221.647 166.28 222.06 167.933 222.887 169C223.714 170.04 225.18 170.56 227.287 170.56ZM256.931 174.44C254.851 174.44 253.091 174 251.651 173.12C250.211 172.24 249.104 171.027 248.331 169.48C247.584 167.933 247.211 166.133 247.211 164.08C247.211 162.027 247.597 160.227 248.371 158.68C249.171 157.107 250.304 155.893 251.771 155.04C253.237 154.16 255.011 153.72 257.091 153.72C258.851 153.72 260.397 154.053 261.731 154.72C263.064 155.387 264.091 156.32 264.811 157.52C265.557 158.72 265.931 160.12 265.931 161.72V162.08H261.651V161.84C261.651 160.373 261.251 159.307 260.451 158.64C259.677 157.947 258.464 157.6 256.811 157.6C254.891 157.6 253.517 158.147 252.691 159.24C251.891 160.307 251.491 161.907 251.491 164.04C251.491 166.2 251.891 167.827 252.691 168.92C253.517 169.987 254.891 170.52 256.811 170.52C258.464 170.52 259.677 170.187 260.451 169.52C261.251 168.827 261.651 167.76 261.651 166.32V166.08H265.931V166.44C265.931 167.987 265.557 169.373 264.811 170.6C264.064 171.8 263.011 172.747 261.651 173.44C260.317 174.107 258.744 174.44 256.931 174.44ZM278.498 174.4C276.471 174.4 274.711 173.973 273.218 173.12C271.724 172.24 270.578 171.027 269.778 169.48C268.978 167.907 268.578 166.093 268.578 164.04C268.578 161.987 268.978 160.187 269.778 158.64C270.578 157.093 271.724 155.893 273.218 155.04C274.711 154.16 276.471 153.72 278.498 153.72C280.524 153.72 282.258 154.16 283.698 155.04C285.164 155.893 286.284 157.093 287.058 158.64C287.858 160.187 288.258 161.987 288.258 164.04C288.258 166.093 287.858 167.907 287.058 169.48C286.284 171.027 285.164 172.24 283.698 173.12C282.258 173.973 280.524 174.4 278.498 174.4ZM278.498 170.56C280.578 170.56 282.031 170.04 282.858 169C283.684 167.933 284.098 166.28 284.098 164.04C284.098 161.8 283.684 160.16 282.858 159.12C282.031 158.08 280.578 157.56 278.498 157.56C276.391 157.56 274.924 158.08 274.098 159.12C273.271 160.16 272.858 161.8 272.858 164.04C272.858 166.28 273.271 167.933 274.098 169C274.924 170.04 276.391 170.56 278.498 170.56ZM310.007 174H305.687V162.44C305.687 160.68 305.354 159.413 304.687 158.64C304.021 157.84 302.767 157.44 300.927 157.44C299.754 157.44 298.794 157.613 298.047 157.96C297.301 158.28 296.741 158.813 296.367 159.56C295.994 160.28 295.807 161.267 295.807 162.52H295.047L294.687 157.84H295.647C295.941 157.12 296.381 156.453 296.967 155.84C297.554 155.227 298.301 154.72 299.207 154.32C300.141 153.92 301.247 153.72 302.527 153.72C304.261 153.72 305.674 154.053 306.767 154.72C307.861 155.387 308.674 156.307 309.207 157.48C309.741 158.653 310.007 160 310.007 161.52V174ZM295.807 174H291.487V154.12H295.447V160.08L295.807 160.28V174ZM332.663 174H328.343V162.44C328.343 160.68 328.01 159.413 327.343 158.64C326.677 157.84 325.423 157.44 323.583 157.44C322.41 157.44 321.45 157.613 320.703 157.96C319.957 158.28 319.397 158.813 319.023 159.56C318.65 160.28 318.463 161.267 318.463 162.52H317.703L317.343 157.84H318.303C318.597 157.12 319.037 156.453 319.623 155.84C320.21 155.227 320.957 154.72 321.863 154.32C322.797 153.92 323.903 153.72 325.183 153.72C326.917 153.72 328.33 154.053 329.423 154.72C330.517 155.387 331.33 156.307 331.863 157.48C332.397 158.653 332.663 160 332.663 161.52V174ZM318.463 174H314.143V154.12H318.103V160.08L318.463 160.28V174ZM345.562 174.4C343.402 174.4 341.602 173.973 340.162 173.12C338.722 172.24 337.655 171.027 336.962 169.48C336.268 167.907 335.922 166.093 335.922 164.04C335.922 161.987 336.308 160.187 337.082 158.64C337.882 157.093 339.002 155.893 340.442 155.04C341.882 154.16 343.588 153.72 345.562 153.72C347.348 153.72 348.922 154.067 350.282 154.76C351.668 155.427 352.735 156.4 353.482 157.68C354.255 158.96 354.642 160.507 354.642 162.32C354.642 162.853 354.615 163.373 354.562 163.88C354.535 164.36 354.495 164.76 354.442 165.08H337.962V162.2H350.922L350.482 162.6C350.588 161.373 350.455 160.373 350.082 159.6C349.735 158.827 349.162 158.253 348.362 157.88C347.588 157.507 346.615 157.32 345.442 157.32C343.335 157.32 341.895 157.853 341.122 158.92C340.348 159.96 339.962 161.4 339.962 163.24V164.44C339.962 165.773 340.122 166.907 340.442 167.84C340.788 168.747 341.375 169.427 342.202 169.88C343.028 170.333 344.162 170.56 345.602 170.56C347.282 170.56 348.468 170.293 349.162 169.76C349.855 169.227 350.202 168.52 350.202 167.64V167.32H354.482V167.68C354.482 169.04 354.108 170.227 353.362 171.24C352.615 172.227 351.575 173 350.242 173.56C348.935 174.12 347.375 174.4 345.562 174.4ZM367.204 174.44C365.124 174.44 363.364 174 361.924 173.12C360.484 172.24 359.377 171.027 358.604 169.48C357.857 167.933 357.484 166.133 357.484 164.08C357.484 162.027 357.871 160.227 358.644 158.68C359.444 157.107 360.577 155.893 362.044 155.04C363.511 154.16 365.284 153.72 367.364 153.72C369.124 153.72 370.671 154.053 372.004 154.72C373.337 155.387 374.364 156.32 375.084 157.52C375.831 158.72 376.204 160.12 376.204 161.72V162.08H371.924V161.84C371.924 160.373 371.524 159.307 370.724 158.64C369.951 157.947 368.737 157.6 367.084 157.6C365.164 157.6 363.791 158.147 362.964 159.24C362.164 160.307 361.764 161.907 361.764 164.04C361.764 166.2 362.164 167.827 362.964 168.92C363.791 169.987 365.164 170.52 367.084 170.52C368.737 170.52 369.951 170.187 370.724 169.52C371.524 168.827 371.924 167.76 371.924 166.32V166.08H376.204V166.44C376.204 167.987 375.831 169.373 375.084 170.6C374.337 171.8 373.284 172.747 371.924 173.44C370.591 174.107 369.017 174.44 367.204 174.44ZM387.581 174C385.394 174 383.714 173.533 382.541 172.6C381.394 171.667 380.821 170.093 380.821 167.88V154.56L381.821 149.2H385.141V167.68C385.141 168.72 385.394 169.387 385.901 169.68C386.434 169.947 387.381 170.08 388.741 170.08H391.141V173.64C390.741 173.747 390.221 173.84 389.581 173.92C388.941 173.973 388.274 174 387.581 174ZM391.141 157.72H377.501V154.12H391.141V157.72ZM410.523 174H404.883L399.963 154.12H404.643L406.923 165.16L407.763 170.4H408.083L409.363 165.16L412.843 154.12H418.443L421.963 165.2L423.243 170.36H423.523L424.363 165.2L426.643 154.12H431.163L426.243 174H420.603L417.043 162.92L415.723 157.92H415.443L414.123 162.92L410.523 174ZM437.285 151.6H433.005L432.965 147.2H437.285V151.6ZM437.325 174H433.005V154H437.325V174ZM449.456 174C447.269 174 445.589 173.533 444.416 172.6C443.269 171.667 442.696 170.093 442.696 167.88V154.56L443.696 149.2H447.016V167.68C447.016 168.72 447.269 169.387 447.776 169.68C448.309 169.947 449.256 170.08 450.616 170.08H453.016V173.64C452.616 173.747 452.096 173.84 451.456 173.92C450.816 173.973 450.149 174 449.456 174ZM453.016 157.72H439.376V154.12H453.016V157.72ZM474.617 174H470.297V162.44C470.297 160.68 469.95 159.413 469.257 158.64C468.59 157.84 467.35 157.44 465.537 157.44C463.803 157.44 462.51 157.827 461.657 158.6C460.83 159.347 460.417 160.667 460.417 162.56H459.657L459.617 157.44H460.577C460.897 156.827 461.337 156.24 461.897 155.68C462.483 155.093 463.217 154.627 464.097 154.28C465.003 153.907 466.043 153.72 467.217 153.72C468.977 153.72 470.39 154.067 471.457 154.76C472.55 155.427 473.35 156.347 473.857 157.52C474.363 158.693 474.617 160.013 474.617 161.48V174ZM460.417 174H456.097V147.2H460.417V174ZM494.729 174C492.542 174 490.862 173.533 489.689 172.6C488.542 171.667 487.969 170.093 487.969 167.88V154.56L488.969 149.2H492.289V167.68C492.289 168.72 492.542 169.387 493.049 169.68C493.582 169.947 494.529 170.08 495.889 170.08H498.289V173.64C497.889 173.747 497.369 173.84 496.729 173.92C496.089 173.973 495.422 174 494.729 174ZM498.289 157.72H484.649V154.12H498.289V157.72ZM509.631 174.4C507.604 174.4 505.844 173.973 504.351 173.12C502.857 172.24 501.711 171.027 500.911 169.48C500.111 167.907 499.711 166.093 499.711 164.04C499.711 161.987 500.111 160.187 500.911 158.64C501.711 157.093 502.857 155.893 504.351 155.04C505.844 154.16 507.604 153.72 509.631 153.72C511.657 153.72 513.391 154.16 514.831 155.04C516.297 155.893 517.417 157.093 518.191 158.64C518.991 160.187 519.391 161.987 519.391 164.04C519.391 166.093 518.991 167.907 518.191 169.48C517.417 171.027 516.297 172.24 514.831 173.12C513.391 173.973 511.657 174.4 509.631 174.4ZM509.631 170.56C511.711 170.56 513.164 170.04 513.991 169C514.817 167.933 515.231 166.28 515.231 164.04C515.231 161.8 514.817 160.16 513.991 159.12C513.164 158.08 511.711 157.56 509.631 157.56C507.524 157.56 506.057 158.08 505.231 159.12C504.404 160.16 503.991 161.8 503.991 164.04C503.991 166.28 504.404 167.933 505.231 169C506.057 170.04 507.524 170.56 509.631 170.56ZM533.5 174.4C531.713 174.4 530.26 174.053 529.14 173.36C528.047 172.64 527.287 171.827 526.86 170.92H525.78L525.98 165.84H526.74C526.74 166.933 526.94 167.84 527.34 168.56C527.767 169.28 528.393 169.827 529.22 170.2C530.047 170.547 531.033 170.72 532.18 170.72C533.113 170.72 533.927 170.6 534.62 170.36C535.313 170.12 535.873 169.747 536.3 169.24C536.753 168.733 537.073 168.053 537.26 167.2C537.473 166.32 537.58 165.267 537.58 164.04C537.58 162.813 537.473 161.787 537.26 160.96C537.073 160.107 536.753 159.413 536.3 158.88C535.873 158.347 535.313 157.973 534.62 157.76C533.953 157.52 533.14 157.4 532.18 157.4C531.033 157.4 530.047 157.587 529.22 157.96C528.393 158.307 527.767 158.84 527.34 159.56C526.94 160.253 526.74 161.16 526.74 162.28H525.98L525.78 157.4H526.58C527.06 156.253 527.847 155.36 528.94 154.72C530.06 154.053 531.487 153.72 533.22 153.72C536.02 153.72 538.167 154.653 539.66 156.52C541.153 158.387 541.9 160.893 541.9 164.04C541.9 167.187 541.18 169.707 539.74 171.6C538.3 173.467 536.22 174.4 533.5 174.4ZM526.74 180.92H522.46V154.12H526.38V158.84L526.74 159.36V180.92ZM561.409 174C559.222 174 557.542 173.533 556.369 172.6C555.222 171.667 554.649 170.093 554.649 167.88V154.56L555.649 149.2H558.969V167.68C558.969 168.72 559.222 169.387 559.729 169.68C560.262 169.947 561.209 170.08 562.569 170.08H564.969V173.64C564.569 173.747 564.049 173.84 563.409 173.92C562.769 173.973 562.102 174 561.409 174ZM564.969 157.72H551.329V154.12H564.969V157.72ZM584.655 174H580.655V170.08L580.535 169V161.36C580.535 159.867 580.175 158.853 579.455 158.32C578.762 157.787 577.629 157.52 576.055 157.52C574.482 157.52 573.349 157.8 572.655 158.36C571.989 158.92 571.655 159.853 571.655 161.16V161.76H567.495V161.36C567.495 159.867 567.855 158.547 568.575 157.4C569.322 156.253 570.349 155.36 571.655 154.72C572.989 154.053 574.535 153.72 576.295 153.72C578.162 153.72 579.709 154.067 580.935 154.76C582.162 155.453 583.082 156.413 583.695 157.64C584.335 158.84 584.655 160.267 584.655 161.92V174ZM573.255 174.4C571.469 174.4 569.962 173.947 568.735 173.04C567.535 172.107 566.935 170.787 566.935 169.08C566.935 167.96 567.189 167.027 567.695 166.28C568.229 165.533 568.989 164.92 569.975 164.44C570.962 163.96 572.162 163.627 573.575 163.44L580.935 162.4V165.44L574.215 166.44C573.069 166.6 572.269 166.84 571.815 167.16C571.362 167.48 571.135 168.013 571.135 168.76C571.135 169.533 571.402 170.093 571.935 170.44C572.495 170.787 573.402 170.96 574.655 170.96C575.615 170.96 576.535 170.813 577.415 170.52C578.322 170.2 579.069 169.68 579.655 168.96C580.242 168.213 580.535 167.173 580.535 165.84L581.095 170.92L580.455 170.88C580.082 171.493 579.562 172.067 578.895 172.6C578.255 173.133 577.469 173.573 576.535 173.92C575.602 174.24 574.509 174.4 573.255 174.4ZM593.112 174H588.792V147.2H593.112V174ZM606.03 174.4C603.87 174.4 602.07 173.973 600.63 173.12C599.19 172.24 598.124 171.027 597.43 169.48C596.737 167.907 596.39 166.093 596.39 164.04C596.39 161.987 596.777 160.187 597.55 158.64C598.35 157.093 599.47 155.893 600.91 155.04C602.35 154.16 604.057 153.72 606.03 153.72C607.817 153.72 609.39 154.067 610.75 154.76C612.137 155.427 613.204 156.4 613.95 157.68C614.724 158.96 615.11 160.507 615.11 162.32C615.11 162.853 615.084 163.373 615.03 163.88C615.004 164.36 614.964 164.76 614.91 165.08H598.43V162.2H611.39L610.95 162.6C611.057 161.373 610.924 160.373 610.55 159.6C610.204 158.827 609.63 158.253 608.83 157.88C608.057 157.507 607.084 157.32 605.91 157.32C603.804 157.32 602.364 157.853 601.59 158.92C600.817 159.96 600.43 161.4 600.43 163.24V164.44C600.43 165.773 600.59 166.907 600.91 167.84C601.257 168.747 601.844 169.427 602.67 169.88C603.497 170.333 604.63 170.56 606.07 170.56C607.75 170.56 608.937 170.293 609.63 169.76C610.324 169.227 610.67 168.52 610.67 167.64V167.32H614.95V167.68C614.95 169.04 614.577 170.227 613.83 171.24C613.084 172.227 612.044 173 610.71 173.56C609.404 174.12 607.844 174.4 606.03 174.4ZM637.078 174H632.758V162.44C632.758 160.68 632.424 159.413 631.758 158.64C631.091 157.84 629.838 157.44 627.998 157.44C626.824 157.44 625.864 157.613 625.118 157.96C624.371 158.28 623.811 158.813 623.438 159.56C623.064 160.28 622.878 161.267 622.878 162.52H622.118L621.758 157.84H622.718C623.011 157.12 623.451 156.453 624.038 155.84C624.624 155.227 625.371 154.72 626.278 154.32C627.211 153.92 628.318 153.72 629.598 153.72C631.331 153.72 632.744 154.053 633.838 154.72C634.931 155.387 635.744 156.307 636.278 157.48C636.811 158.653 637.078 160 637.078 161.52V174ZM622.878 174H618.558V154.12H622.518V160.08L622.878 160.28V174ZM649.299 174C647.113 174 645.433 173.533 644.259 172.6C643.113 171.667 642.539 170.093 642.539 167.88V154.56L643.539 149.2H646.859V167.68C646.859 168.72 647.113 169.387 647.619 169.68C648.153 169.947 649.099 170.08 650.459 170.08H652.859V173.64C652.459 173.747 651.939 173.84 651.299 173.92C650.659 173.973 649.993 174 649.299 174ZM652.859 157.72H639.219V154.12H652.859V157.72ZM660.462 165.2H656.262C656.262 164.4 656.236 163.48 656.182 162.44C656.156 161.373 656.102 160.253 656.022 159.08C655.969 157.88 655.916 156.707 655.862 155.56C655.809 154.387 655.756 153.32 655.702 152.36C655.649 151.4 655.622 150.613 655.622 150V147.2H661.102V150C661.102 150.613 661.076 151.4 661.022 152.36C660.996 153.32 660.942 154.387 660.862 155.56C660.809 156.707 660.756 157.88 660.702 159.08C660.649 160.28 660.596 161.413 660.542 162.48C660.489 163.52 660.462 164.427 660.462 165.2ZM660.822 174H655.942V168.08H660.822V174Z" fill="white"/>
</g>
<path d="M672.014 1227.11C672.014 1227.82 671.439 1228.4 670.73 1228.4H656.783C655.47 1228.4 655.004 1230.15 656.142 1230.8L661.36 1233.83C661.757 1234.06 662.246 1234.06 662.643 1233.83L681.358 1222.97C681.755 1222.74 682 1222.32 682 1221.86V1213.23C682 1212.24 680.929 1211.62 680.074 1212.12L672.655 1216.43C672.258 1216.66 672.014 1217.08 672.014 1217.54V1227.11Z" fill="white"/>
<path d="M642 1221.86C642 1222.32 642.244 1222.74 642.641 1222.97L650.06 1227.28C650.916 1227.78 651.986 1227.16 651.986 1226.17V1217.54C651.986 1217.08 651.742 1216.66 651.345 1216.43L643.926 1212.12C643.071 1211.62 642 1212.24 642 1213.23V1221.86Z" fill="white"/>
<path d="M649.594 1197.77C650.25 1196.63 648.976 1195.35 647.84 1196.01L642.641 1199.03C642.244 1199.26 642 1199.68 642 1200.14V1206.18C642 1207.5 643.74 1207.97 644.396 1206.83L649.594 1197.77Z" fill="white"/>
<path d="M662.643 1199.77C662.246 1199.54 661.757 1199.54 661.36 1199.77L652.632 1204.83C652.235 1205.06 651.99 1205.48 651.99 1205.94V1216.06C651.99 1216.52 652.235 1216.94 652.632 1217.17L661.36 1222.23C661.757 1222.46 662.246 1222.46 662.643 1222.23L671.372 1217.17C671.769 1216.94 672.014 1216.52 672.014 1216.06V1205.94C672.014 1205.48 671.769 1205.06 671.372 1204.83L662.643 1199.77Z" fill="white"/>
<path d="M676.156 1196.01C675.019 1195.35 673.745 1196.63 674.401 1197.77L679.6 1206.83C680.256 1207.97 681.996 1207.5 681.996 1206.18V1200.14C681.996 1199.68 681.751 1199.26 681.355 1199.03L676.156 1196.01Z" fill="white"/>
<path d="M662.643 1188.17C662.246 1187.94 661.757 1187.94 661.36 1188.17L653.917 1192.48C653.061 1192.98 653.061 1194.22 653.917 1194.72L661.36 1199.03C661.757 1199.26 662.246 1199.26 662.643 1199.03L670.087 1194.72C670.943 1194.22 670.943 1192.98 670.087 1192.48L662.643 1188.17Z" fill="white"/>
<defs>
<clipPath id="clip0_18960_20692">
<rect width="727" height="1272" rx="20.1569" fill="white"/>
</clipPath>
</defs>
</svg>
