<svg width="727" height="1272" viewBox="0 0 727 1272" fill="none" xmlns="http://www.w3.org/2000/svg">
<g clip-path="url(#clip0_18960_20634)">
<rect width="728" height="1273" rx="20.1569" fill="#F2935C"/>
<path d="M152 653.715L193.567 600.72L360.169 521.229L427.856 521.229L477.925 490L575.23 712.387L490.206 743.616L355.113 736.045L238.913 825L152 653.715Z" fill="#2D3B40" stroke="#2D3B40" stroke-width="8"/>
<path d="M188 651.985L205.683 629.926L258.588 595.735L299.622 552.721H340.513C343.829 552.721 372.121 548.971 432.242 564.853L488.606 545L552.706 693.897L495.237 714.853L340.513 693.897L238.838 770L188 651.985Z" fill="#F2935C"/>
<path d="M340.513 693.897L238.838 770L188 651.985L205.683 629.926L258.588 595.735L299.622 552.721M340.513 693.897L495.237 714.853M340.513 693.897L299.622 552.721M495.237 714.853L432.242 564.853M495.237 714.853L552.706 693.897L488.606 545L432.242 564.853M432.242 564.853C372.121 548.971 343.829 552.721 340.513 552.721H299.622" stroke="#2D3B40" stroke-width="4"/>
<path d="M359.991 540.702C350.082 580.495 313.491 629.702 313.491 629.702C313.491 629.702 258.581 579.995 238.991 537.702C229.6 517.429 231.375 495.926 243.43 477.114C251.261 464.894 261.342 458.942 274.582 452.995C294.759 443.932 313.763 445.239 332.931 456.279C347.448 464.641 353.834 475.534 359.992 491.114C366.882 508.547 364.521 522.512 359.991 540.702Z" fill="#2D3B40" stroke="#2D3B40" stroke-width="4"/>
<circle cx="298.431" cy="503.367" r="36" fill="#F2935C"/>
<path d="M185.234 92.36H175.474V88.48H185.754C187.514 88.48 188.767 88.0933 189.514 87.32C190.287 86.5467 190.674 85.2 190.674 83.28C190.674 81.36 190.287 80.0133 189.514 79.24C188.767 78.4667 187.514 78.08 185.754 78.08H175.474V74.2H185.234C187.1 74.2 188.767 74.56 190.234 75.28C191.7 76 192.847 77.04 193.674 78.4C194.527 79.7333 194.954 81.36 194.954 83.28C194.954 85.2 194.527 86.84 193.674 88.2C192.847 89.56 191.7 90.6 190.234 91.32C188.767 92.0133 187.1 92.36 185.234 92.36ZM178.154 101H173.834V74.2H178.154V101ZM202.135 101H197.815V81H201.775V86.56L202.135 86.76V101ZM202.135 88.04H201.135V84.16H201.975C202.375 83.2267 203.029 82.4267 203.935 81.76C204.869 81.0667 206.069 80.72 207.535 80.72C208.949 80.72 210.069 81.0267 210.895 81.64C211.749 82.2533 212.362 83.0667 212.735 84.08C213.109 85.0933 213.295 86.2267 213.295 87.48V88.8H208.975V88C208.975 86.6667 208.749 85.7333 208.295 85.2C207.842 84.6667 206.989 84.4 205.735 84.4C204.429 84.4 203.495 84.68 202.935 85.24C202.402 85.7733 202.135 86.7067 202.135 88.04ZM225.178 101.4C223.151 101.4 221.391 100.973 219.898 100.12C218.404 99.24 217.258 98.0267 216.458 96.48C215.658 94.9067 215.257 93.0933 215.257 91.04C215.257 88.9867 215.658 87.1867 216.458 85.64C217.258 84.0933 218.404 82.8933 219.898 82.04C221.391 81.16 223.151 80.72 225.178 80.72C227.204 80.72 228.938 81.16 230.378 82.04C231.844 82.8933 232.964 84.0933 233.738 85.64C234.538 87.1867 234.938 88.9867 234.938 91.04C234.938 93.0933 234.538 94.9067 233.738 96.48C232.964 98.0267 231.844 99.24 230.378 100.12C228.938 100.973 227.204 101.4 225.178 101.4ZM225.178 97.56C227.258 97.56 228.711 97.04 229.538 96C230.364 94.9333 230.778 93.28 230.778 91.04C230.778 88.8 230.364 87.16 229.538 86.12C228.711 85.08 227.258 84.56 225.178 84.56C223.071 84.56 221.604 85.08 220.778 86.12C219.951 87.16 219.538 88.8 219.538 91.04C219.538 93.28 219.951 94.9333 220.778 96C221.604 97.04 223.071 97.56 225.178 97.56ZM248.907 101H243.427L235.467 81.12H240.267L246.067 96.88H246.347L252.187 81.12H256.867L248.907 101ZM262.793 78.6H258.513L258.473 74.2H262.793V78.6ZM262.833 101H258.513V81H262.833V101ZM274.564 101.4C271.738 101.4 269.564 100.467 268.044 98.6C266.551 96.7067 265.804 94.1867 265.804 91.04C265.804 87.8933 266.538 85.3867 268.004 83.52C269.498 81.6533 271.604 80.72 274.324 80.72C276.084 80.72 277.498 81.08 278.564 81.8C279.658 82.4933 280.418 83.2933 280.844 84.2H281.924L281.724 89.28H280.964C280.964 88.16 280.751 87.24 280.324 86.52C279.898 85.8 279.284 85.2667 278.484 84.92C277.684 84.5733 276.698 84.4 275.524 84.4C274.564 84.4 273.738 84.52 273.044 84.76C272.378 85 271.818 85.3733 271.364 85.88C270.938 86.3867 270.618 87.0667 270.404 87.92C270.218 88.7733 270.124 89.8133 270.124 91.04C270.124 92.24 270.218 93.28 270.404 94.16C270.618 95.0133 270.938 95.7067 271.364 96.24C271.818 96.7467 272.391 97.12 273.084 97.36C273.778 97.6 274.591 97.72 275.524 97.72C276.698 97.72 277.684 97.5467 278.484 97.2C279.284 96.8267 279.898 96.28 280.324 95.56C280.751 94.84 280.964 93.9333 280.964 92.84H281.724L281.924 97.72H281.124C280.671 98.8667 279.884 99.7733 278.764 100.44C277.671 101.08 276.271 101.4 274.564 101.4ZM285.284 101H281.284V96.28L280.964 95.76V74.2H285.284V101ZM298.218 101.4C296.058 101.4 294.258 100.973 292.818 100.12C291.378 99.24 290.311 98.0267 289.618 96.48C288.924 94.9067 288.578 93.0933 288.578 91.04C288.578 88.9867 288.964 87.1867 289.738 85.64C290.538 84.0933 291.658 82.8933 293.098 82.04C294.538 81.16 296.244 80.72 298.218 80.72C300.004 80.72 301.578 81.0667 302.938 81.76C304.324 82.4267 305.391 83.4 306.138 84.68C306.911 85.96 307.298 87.5067 307.298 89.32C307.298 89.8533 307.271 90.3733 307.218 90.88C307.191 91.36 307.151 91.76 307.098 92.08H290.618V89.2H303.578L303.138 89.6C303.244 88.3733 303.111 87.3733 302.738 86.6C302.391 85.8267 301.818 85.2533 301.018 84.88C300.244 84.5067 299.271 84.32 298.098 84.32C295.991 84.32 294.551 84.8533 293.778 85.92C293.004 86.96 292.618 88.4 292.618 90.24V91.44C292.618 92.7733 292.778 93.9067 293.098 94.84C293.444 95.7467 294.031 96.4267 294.858 96.88C295.684 97.3333 296.818 97.56 298.258 97.56C299.938 97.56 301.124 97.2933 301.818 96.76C302.511 96.2267 302.858 95.52 302.858 94.64V94.32H307.138V94.68C307.138 96.04 306.764 97.2267 306.018 98.24C305.271 99.2267 304.231 100 302.898 100.56C301.591 101.12 300.031 101.4 298.218 101.4ZM321.879 107.8C321.346 107.8 320.799 107.76 320.239 107.68C319.679 107.627 319.226 107.547 318.879 107.44V103.92H321.639C322.466 103.92 323.079 103.8 323.479 103.56C323.879 103.347 324.253 102.88 324.599 102.16L325.839 99.36L325.479 100.76L316.879 81.12H321.639L325.639 90.76L327.439 95.08H327.799L329.399 90.76L333.039 81.12H337.839L328.399 103.32C327.919 104.52 327.373 105.44 326.759 106.08C326.146 106.72 325.439 107.16 324.639 107.4C323.866 107.667 322.946 107.8 321.879 107.8ZM348.224 101.4C346.198 101.4 344.438 100.973 342.944 100.12C341.451 99.24 340.304 98.0267 339.504 96.48C338.704 94.9067 338.304 93.0933 338.304 91.04C338.304 88.9867 338.704 87.1867 339.504 85.64C340.304 84.0933 341.451 82.8933 342.944 82.04C344.438 81.16 346.198 80.72 348.224 80.72C350.251 80.72 351.984 81.16 353.424 82.04C354.891 82.8933 356.011 84.0933 356.784 85.64C357.584 87.1867 357.984 88.9867 357.984 91.04C357.984 93.0933 357.584 94.9067 356.784 96.48C356.011 98.0267 354.891 99.24 353.424 100.12C351.984 100.973 350.251 101.4 348.224 101.4ZM348.224 97.56C350.304 97.56 351.758 97.04 352.584 96C353.411 94.9333 353.824 93.28 353.824 91.04C353.824 88.8 353.411 87.16 352.584 86.12C351.758 85.08 350.304 84.56 348.224 84.56C346.118 84.56 344.651 85.08 343.824 86.12C342.998 87.16 342.584 88.8 342.584 91.04C342.584 93.28 342.998 94.9333 343.824 96C344.651 97.04 346.118 97.56 348.224 97.56ZM368.614 101.4C366.907 101.4 365.494 101.053 364.374 100.36C363.254 99.64 362.427 98.68 361.894 97.48C361.36 96.2533 361.094 94.8933 361.094 93.4V81.12H365.414V92.6C365.414 94.3867 365.787 95.68 366.534 96.48C367.28 97.28 368.507 97.68 370.214 97.68C371.334 97.68 372.28 97.5067 373.054 97.16C373.827 96.7867 374.414 96.2133 374.814 95.44C375.214 94.64 375.414 93.6 375.414 92.32H376.534V97.04H375.574C375.28 97.7867 374.827 98.4933 374.214 99.16C373.627 99.8267 372.867 100.373 371.934 100.8C371.027 101.2 369.92 101.4 368.614 101.4ZM379.734 101H375.734V95.04L375.414 94.84V81.12H379.734V101ZM388.307 101H383.987V81H387.947V86.56L388.307 86.76V101ZM388.307 88.04H387.307V84.16H388.147C388.547 83.2267 389.201 82.4267 390.107 81.76C391.041 81.0667 392.241 80.72 393.707 80.72C395.121 80.72 396.241 81.0267 397.067 81.64C397.921 82.2533 398.534 83.0667 398.907 84.08C399.281 85.0933 399.467 86.2267 399.467 87.48V88.8H395.147V88C395.147 86.6667 394.921 85.7333 394.467 85.2C394.014 84.6667 393.161 84.4 391.907 84.4C390.601 84.4 389.667 84.68 389.107 85.24C388.574 85.7733 388.307 86.7067 388.307 88.04ZM420.882 101.4C419.149 101.4 417.722 101.08 416.602 100.44C415.482 99.7733 414.669 98.8667 414.162 97.72H413.362L413.602 92.84H414.362C414.362 93.9333 414.562 94.84 414.962 95.56C415.389 96.28 416.002 96.8267 416.802 97.2C417.629 97.5467 418.615 97.72 419.762 97.72C420.722 97.72 421.535 97.6 422.202 97.36C422.895 97.12 423.469 96.7467 423.922 96.24C424.375 95.7067 424.695 95.0133 424.882 94.16C425.095 93.28 425.202 92.24 425.202 91.04C425.202 89.8133 425.095 88.7733 424.882 87.92C424.695 87.0667 424.375 86.3867 423.922 85.88C423.495 85.3733 422.935 85 422.242 84.76C421.549 84.52 420.722 84.4 419.762 84.4C418.615 84.4 417.629 84.5733 416.802 84.92C416.002 85.2667 415.389 85.8 414.962 86.52C414.562 87.24 414.362 88.16 414.362 89.28H413.602L413.362 84.28H414.482C414.909 83.3733 415.682 82.56 416.802 81.84C417.949 81.0933 419.389 80.72 421.122 80.72C423.869 80.72 425.949 81.6533 427.362 83.52C428.802 85.3867 429.522 87.8933 429.522 91.04C429.522 94.1867 428.775 96.7067 427.282 98.6C425.815 100.467 423.682 101.4 420.882 101.4ZM414.002 101H410.042V74.2H414.362V95.76L414.002 96.28V101ZM436.816 78.6H432.536L432.496 74.2H436.816V78.6ZM436.856 101H432.536V81H436.856V101ZM445.143 101H440.823V74.2H445.143V101ZM453.893 101H449.573V74.2H453.893V101ZM462.168 78.6H457.888L457.848 74.2H462.168V78.6ZM462.208 101H457.888V81H462.208V101ZM484.695 101H480.375V89.44C480.375 87.68 480.041 86.4133 479.375 85.64C478.708 84.84 477.455 84.44 475.615 84.44C474.441 84.44 473.481 84.6133 472.735 84.96C471.988 85.28 471.428 85.8133 471.055 86.56C470.681 87.28 470.495 88.2667 470.495 89.52H469.735L469.375 84.84H470.335C470.628 84.12 471.068 83.4533 471.655 82.84C472.241 82.2267 472.988 81.72 473.895 81.32C474.828 80.92 475.935 80.72 477.215 80.72C478.948 80.72 480.361 81.0533 481.455 81.72C482.548 82.3867 483.361 83.3067 483.895 84.48C484.428 85.6533 484.695 87 484.695 88.52V101ZM470.495 101H466.175V81.12H470.135V87.08L470.495 87.28V101ZM498.153 108.2C496.286 108.2 494.659 107.907 493.273 107.32C491.913 106.733 490.859 105.88 490.113 104.76C489.366 103.667 488.993 102.32 488.993 100.72H493.313C493.313 101.627 493.446 102.347 493.713 102.88C493.979 103.413 494.473 103.787 495.193 104C495.913 104.24 496.939 104.36 498.273 104.36C499.579 104.36 500.579 104.213 501.273 103.92C501.966 103.627 502.446 103.133 502.713 102.44C502.979 101.747 503.113 100.787 503.113 99.56V86.36L503.433 85.84V81.12H507.433V99.56C507.433 101.507 507.059 103.107 506.313 104.36C505.566 105.64 504.499 106.6 503.113 107.24C501.753 107.88 500.099 108.2 498.153 108.2ZM496.473 99.12C493.726 99.12 491.619 98.2933 490.153 96.64C488.686 94.96 487.953 92.72 487.953 89.92C487.953 87.12 488.699 84.8933 490.193 83.24C491.686 81.56 493.833 80.72 496.633 80.72C498.259 80.72 499.659 81.0533 500.833 81.72C502.006 82.36 502.819 83.2533 503.273 84.4H504.073L503.873 89.28H503.113C503.113 88.16 502.886 87.24 502.433 86.52C501.979 85.8 501.339 85.2667 500.513 84.92C499.686 84.5733 498.726 84.4 497.633 84.4C496.379 84.4 495.353 84.5733 494.553 84.92C493.779 85.2667 493.206 85.8533 492.833 86.68C492.459 87.48 492.273 88.56 492.273 89.92C492.273 90.9333 492.379 91.8 492.593 92.52C492.806 93.2133 493.139 93.7733 493.593 94.2C494.046 94.6267 494.619 94.9467 495.313 95.16C496.006 95.3467 496.806 95.44 497.713 95.44C498.806 95.44 499.753 95.2667 500.553 94.92C501.353 94.5467 501.979 94 502.433 93.28C502.886 92.56 503.113 91.64 503.113 90.52H503.993V95.6H502.953C502.499 96.56 501.713 97.3867 500.593 98.08C499.473 98.7733 498.099 99.12 496.473 99.12ZM536.062 101H532.062V97.08L531.942 96V88.36C531.942 86.8667 531.582 85.8533 530.862 85.32C530.168 84.7867 529.035 84.52 527.462 84.52C525.888 84.52 524.755 84.8 524.062 85.36C523.395 85.92 523.062 86.8533 523.062 88.16V88.76H518.902V88.36C518.902 86.8667 519.262 85.5467 519.982 84.4C520.728 83.2533 521.755 82.36 523.062 81.72C524.395 81.0533 525.942 80.72 527.702 80.72C529.568 80.72 531.115 81.0667 532.342 81.76C533.568 82.4533 534.488 83.4133 535.102 84.64C535.742 85.84 536.062 87.2667 536.062 88.92V101ZM524.662 101.4C522.875 101.4 521.368 100.947 520.142 100.04C518.942 99.1067 518.342 97.7867 518.342 96.08C518.342 94.96 518.595 94.0267 519.102 93.28C519.635 92.5333 520.395 91.92 521.382 91.44C522.368 90.96 523.568 90.6267 524.982 90.44L532.342 89.4V92.44L525.622 93.44C524.475 93.6 523.675 93.84 523.222 94.16C522.768 94.48 522.542 95.0133 522.542 95.76C522.542 96.5333 522.808 97.0933 523.342 97.44C523.902 97.7867 524.808 97.96 526.062 97.96C527.022 97.96 527.942 97.8133 528.822 97.52C529.728 97.2 530.475 96.68 531.062 95.96C531.648 95.2133 531.942 94.1733 531.942 92.84L532.502 97.92L531.862 97.88C531.488 98.4933 530.968 99.0667 530.302 99.6C529.662 100.133 528.875 100.573 527.942 100.92C527.008 101.24 525.915 101.4 524.662 101.4ZM548.08 101.4C545.253 101.4 543.08 100.467 541.56 98.6C540.067 96.7067 539.32 94.1867 539.32 91.04C539.32 87.8933 540.053 85.3867 541.52 83.52C543.013 81.6533 545.12 80.72 547.84 80.72C549.6 80.72 551.013 81.08 552.08 81.8C553.173 82.4933 553.933 83.2933 554.36 84.2H555.44L555.24 89.28H554.48C554.48 88.16 554.267 87.24 553.84 86.52C553.413 85.8 552.8 85.2667 552 84.92C551.2 84.5733 550.213 84.4 549.04 84.4C548.08 84.4 547.253 84.52 546.56 84.76C545.893 85 545.333 85.3733 544.88 85.88C544.453 86.3867 544.133 87.0667 543.92 87.92C543.733 88.7733 543.64 89.8133 543.64 91.04C543.64 92.24 543.733 93.28 543.92 94.16C544.133 95.0133 544.453 95.7067 544.88 96.24C545.333 96.7467 545.907 97.12 546.6 97.36C547.293 97.6 548.107 97.72 549.04 97.72C550.213 97.72 551.2 97.5467 552 97.2C552.8 96.8267 553.413 96.28 553.84 95.56C554.267 94.84 554.48 93.9333 554.48 92.84H555.24L555.44 97.72H554.64C554.187 98.8667 553.4 99.7733 552.28 100.44C551.187 101.08 549.787 101.4 548.08 101.4ZM558.8 101H554.8V96.28L554.48 95.76V74.2H558.8V101ZM570.853 101.4C568.027 101.4 565.853 100.467 564.333 98.6C562.84 96.7067 562.093 94.1867 562.093 91.04C562.093 87.8933 562.827 85.3867 564.293 83.52C565.787 81.6533 567.893 80.72 570.613 80.72C572.373 80.72 573.787 81.08 574.853 81.8C575.947 82.4933 576.707 83.2933 577.133 84.2H578.213L578.013 89.28H577.253C577.253 88.16 577.04 87.24 576.613 86.52C576.187 85.8 575.573 85.2667 574.773 84.92C573.973 84.5733 572.987 84.4 571.813 84.4C570.853 84.4 570.027 84.52 569.333 84.76C568.667 85 568.107 85.3733 567.653 85.88C567.227 86.3867 566.907 87.0667 566.693 87.92C566.507 88.7733 566.413 89.8133 566.413 91.04C566.413 92.24 566.507 93.28 566.693 94.16C566.907 95.0133 567.227 95.7067 567.653 96.24C568.107 96.7467 568.68 97.12 569.373 97.36C570.067 97.6 570.88 97.72 571.813 97.72C572.987 97.72 573.973 97.5467 574.773 97.2C575.573 96.8267 576.187 96.28 576.613 95.56C577.04 94.84 577.253 93.9333 577.253 92.84H578.013L578.213 97.72H577.413C576.96 98.8667 576.173 99.7733 575.053 100.44C573.96 101.08 572.56 101.4 570.853 101.4ZM581.573 101H577.573V96.28L577.253 95.76V74.2H581.573V101ZM590.143 101H585.823V81H589.783V86.56L590.143 86.76V101ZM590.143 88.04H589.143V84.16H589.983C590.383 83.2267 591.036 82.4267 591.943 81.76C592.876 81.0667 594.076 80.72 595.543 80.72C596.956 80.72 598.076 81.0267 598.903 81.64C599.756 82.2533 600.37 83.0667 600.743 84.08C601.116 85.0933 601.303 86.2267 601.303 87.48V88.8H596.983V88C596.983 86.6667 596.756 85.7333 596.303 85.2C595.85 84.6667 594.996 84.4 593.743 84.4C592.436 84.4 591.503 84.68 590.943 85.24C590.41 85.7733 590.143 86.7067 590.143 88.04ZM612.905 101.4C610.745 101.4 608.945 100.973 607.505 100.12C606.065 99.24 604.999 98.0267 604.305 96.48C603.612 94.9067 603.265 93.0933 603.265 91.04C603.265 88.9867 603.652 87.1867 604.425 85.64C605.225 84.0933 606.345 82.8933 607.785 82.04C609.225 81.16 610.932 80.72 612.905 80.72C614.692 80.72 616.265 81.0667 617.625 81.76C619.012 82.4267 620.079 83.4 620.825 84.68C621.599 85.96 621.985 87.5067 621.985 89.32C621.985 89.8533 621.959 90.3733 621.905 90.88C621.879 91.36 621.839 91.76 621.785 92.08H605.305V89.2H618.265L617.825 89.6C617.932 88.3733 617.799 87.3733 617.425 86.6C617.079 85.8267 616.505 85.2533 615.705 84.88C614.932 84.5067 613.959 84.32 612.785 84.32C610.679 84.32 609.239 84.8533 608.465 85.92C607.692 86.96 607.305 88.4 607.305 90.24V91.44C607.305 92.7733 607.465 93.9067 607.785 94.84C608.132 95.7467 608.719 96.4267 609.545 96.88C610.372 97.3333 611.505 97.56 612.945 97.56C614.625 97.56 615.812 97.2933 616.505 96.76C617.199 96.2267 617.545 95.52 617.545 94.64V94.32H621.825V94.68C621.825 96.04 621.452 97.2267 620.705 98.24C619.959 99.2267 618.919 100 617.585 100.56C616.279 101.12 614.719 101.4 612.905 101.4ZM633.988 101.4C631.081 101.4 628.881 100.827 627.388 99.68C625.894 98.5067 625.148 96.7067 625.148 94.28V94.2H629.308V94.92C629.308 95.6133 629.441 96.1867 629.708 96.64C630.001 97.0667 630.481 97.3867 631.148 97.6C631.841 97.7867 632.814 97.88 634.068 97.88C635.134 97.88 635.934 97.8 636.468 97.64C637.028 97.4533 637.401 97.2 637.588 96.88C637.774 96.56 637.868 96.16 637.868 95.68C637.868 94.88 637.588 94.32 637.028 94C636.468 93.6533 635.468 93.3467 634.028 93.08L630.908 92.56C629.734 92.32 628.708 91.9867 627.828 91.56C626.974 91.1067 626.308 90.4933 625.828 89.72C625.374 88.92 625.148 87.92 625.148 86.72C625.148 84.9333 625.854 83.4933 627.268 82.4C628.681 81.28 630.681 80.72 633.268 80.72C634.841 80.72 636.241 80.9733 637.468 81.48C638.694 81.9867 639.668 82.7467 640.388 83.76C641.108 84.7733 641.468 86.04 641.468 87.56V87.92H637.348V87.44C637.348 86.8 637.241 86.2533 637.028 85.8C636.814 85.32 636.414 84.9467 635.828 84.68C635.241 84.4133 634.348 84.28 633.148 84.28C631.574 84.28 630.534 84.48 630.028 84.88C629.521 85.28 629.268 85.8667 629.268 86.64C629.268 87.4133 629.494 87.96 629.948 88.28C630.428 88.5733 631.361 88.8667 632.748 89.16L636.148 89.8C637.428 90.04 638.494 90.4 639.348 90.88C640.201 91.36 640.841 91.9867 641.268 92.76C641.721 93.5333 641.948 94.4533 641.948 95.52C641.948 97.3867 641.241 98.84 639.828 99.88C638.441 100.893 636.494 101.4 633.988 101.4ZM653.675 101.4C650.769 101.4 648.569 100.827 647.075 99.68C645.582 98.5067 644.835 96.7067 644.835 94.28V94.2H648.995V94.92C648.995 95.6133 649.129 96.1867 649.395 96.64C649.689 97.0667 650.169 97.3867 650.835 97.6C651.529 97.7867 652.502 97.88 653.755 97.88C654.822 97.88 655.622 97.8 656.155 97.64C656.715 97.4533 657.089 97.2 657.275 96.88C657.462 96.56 657.555 96.16 657.555 95.68C657.555 94.88 657.275 94.32 656.715 94C656.155 93.6533 655.155 93.3467 653.715 93.08L650.595 92.56C649.422 92.32 648.395 91.9867 647.515 91.56C646.662 91.1067 645.995 90.4933 645.515 89.72C645.062 88.92 644.835 87.92 644.835 86.72C644.835 84.9333 645.542 83.4933 646.955 82.4C648.369 81.28 650.369 80.72 652.955 80.72C654.529 80.72 655.929 80.9733 657.155 81.48C658.382 81.9867 659.355 82.7467 660.075 83.76C660.795 84.7733 661.155 86.04 661.155 87.56V87.92H657.035V87.44C657.035 86.8 656.929 86.2533 656.715 85.8C656.502 85.32 656.102 84.9467 655.515 84.68C654.929 84.4133 654.035 84.28 652.835 84.28C651.262 84.28 650.222 84.48 649.715 84.88C649.209 85.28 648.955 85.8667 648.955 86.64C648.955 87.4133 649.182 87.96 649.635 88.28C650.115 88.5733 651.049 88.8667 652.435 89.16L655.835 89.8C657.115 90.04 658.182 90.4 659.035 90.88C659.889 91.36 660.529 91.9867 660.955 92.76C661.409 93.5333 661.635 94.4533 661.635 95.52C661.635 97.3867 660.929 98.84 659.515 99.88C658.129 100.893 656.182 101.4 653.675 101.4ZM210.168 150H205.848V130.28C205.848 128.733 206.141 127.44 206.728 126.4C207.314 125.36 208.181 124.573 209.328 124.04C210.501 123.48 211.941 123.2 213.648 123.2C213.914 123.2 214.181 123.2 214.447 123.2C214.714 123.2 214.981 123.2 215.248 123.2V126.64H212.848C211.888 126.64 211.181 126.827 210.728 127.2C210.274 127.573 210.048 128.187 210.048 129.04V130.8L210.168 131.84V150ZM215.248 133.72H202.928V130.12H215.248V133.72ZM225.881 150.4C223.854 150.4 222.094 149.973 220.601 149.12C219.107 148.24 217.961 147.027 217.161 145.48C216.361 143.907 215.961 142.093 215.961 140.04C215.961 137.987 216.361 136.187 217.161 134.64C217.961 133.093 219.107 131.893 220.601 131.04C222.094 130.16 223.854 129.72 225.881 129.72C227.907 129.72 229.641 130.16 231.081 131.04C232.547 131.893 233.667 133.093 234.441 134.64C235.241 136.187 235.641 137.987 235.641 140.04C235.641 142.093 235.241 143.907 234.441 145.48C233.667 147.027 232.547 148.24 231.081 149.12C229.641 149.973 227.907 150.4 225.881 150.4ZM225.881 146.56C227.961 146.56 229.414 146.04 230.241 145C231.067 143.933 231.481 142.28 231.481 140.04C231.481 137.8 231.067 136.16 230.241 135.12C229.414 134.08 227.961 133.56 225.881 133.56C223.774 133.56 222.307 134.08 221.481 135.12C220.654 136.16 220.241 137.8 220.241 140.04C220.241 142.28 220.654 143.933 221.481 145C222.307 146.04 223.774 146.56 225.881 146.56ZM243.19 150H238.87V130H242.83V135.56L243.19 135.76V150ZM243.19 137.04H242.19V133.16H243.03C243.43 132.227 244.083 131.427 244.99 130.76C245.923 130.067 247.123 129.72 248.59 129.72C250.003 129.72 251.123 130.027 251.95 130.64C252.803 131.253 253.417 132.067 253.79 133.08C254.163 134.093 254.35 135.227 254.35 136.48V137.8H250.03V137C250.03 135.667 249.803 134.733 249.35 134.2C248.897 133.667 248.043 133.4 246.79 133.4C245.483 133.4 244.55 133.68 243.99 134.24C243.457 134.773 243.19 135.707 243.19 137.04ZM273.285 150.4C270.378 150.4 268.178 149.827 266.685 148.68C265.191 147.507 264.445 145.707 264.445 143.28V143.2H268.605V143.92C268.605 144.613 268.738 145.187 269.005 145.64C269.298 146.067 269.778 146.387 270.445 146.6C271.138 146.787 272.111 146.88 273.365 146.88C274.431 146.88 275.231 146.8 275.765 146.64C276.325 146.453 276.698 146.2 276.885 145.88C277.071 145.56 277.165 145.16 277.165 144.68C277.165 143.88 276.885 143.32 276.325 143C275.765 142.653 274.765 142.347 273.325 142.08L270.205 141.56C269.031 141.32 268.005 140.987 267.125 140.56C266.271 140.107 265.605 139.493 265.125 138.72C264.671 137.92 264.445 136.92 264.445 135.72C264.445 133.933 265.151 132.493 266.565 131.4C267.978 130.28 269.978 129.72 272.565 129.72C274.138 129.72 275.538 129.973 276.765 130.48C277.991 130.987 278.965 131.747 279.685 132.76C280.405 133.773 280.765 135.04 280.765 136.56V136.92H276.645V136.44C276.645 135.8 276.538 135.253 276.325 134.8C276.111 134.32 275.711 133.947 275.125 133.68C274.538 133.413 273.645 133.28 272.445 133.28C270.871 133.28 269.831 133.48 269.325 133.88C268.818 134.28 268.565 134.867 268.565 135.64C268.565 136.413 268.791 136.96 269.245 137.28C269.725 137.573 270.658 137.867 272.045 138.16L275.445 138.8C276.725 139.04 277.791 139.4 278.645 139.88C279.498 140.36 280.138 140.987 280.565 141.76C281.018 142.533 281.245 143.453 281.245 144.52C281.245 146.387 280.538 147.84 279.125 148.88C277.738 149.893 275.791 150.4 273.285 150.4ZM293.569 150.4C291.409 150.4 289.609 149.973 288.169 149.12C286.729 148.24 285.663 147.027 284.969 145.48C284.276 143.907 283.929 142.093 283.929 140.04C283.929 137.987 284.316 136.187 285.089 134.64C285.889 133.093 287.009 131.893 288.449 131.04C289.889 130.16 291.596 129.72 293.569 129.72C295.356 129.72 296.929 130.067 298.289 130.76C299.676 131.427 300.743 132.4 301.489 133.68C302.263 134.96 302.649 136.507 302.649 138.32C302.649 138.853 302.623 139.373 302.569 139.88C302.543 140.36 302.503 140.76 302.449 141.08H285.969V138.2H298.929L298.489 138.6C298.596 137.373 298.463 136.373 298.089 135.6C297.743 134.827 297.169 134.253 296.369 133.88C295.596 133.507 294.623 133.32 293.449 133.32C291.343 133.32 289.903 133.853 289.129 134.92C288.356 135.96 287.969 137.4 287.969 139.24V140.44C287.969 141.773 288.129 142.907 288.449 143.84C288.796 144.747 289.383 145.427 290.209 145.88C291.036 146.333 292.169 146.56 293.609 146.56C295.289 146.56 296.476 146.293 297.169 145.76C297.863 145.227 298.209 144.52 298.209 143.64V143.32H302.489V143.68C302.489 145.04 302.116 146.227 301.369 147.24C300.623 148.227 299.583 149 298.249 149.56C296.943 150.12 295.383 150.4 293.569 150.4ZM323.093 150H319.093V146.08L318.973 145V137.36C318.973 135.867 318.613 134.853 317.893 134.32C317.199 133.787 316.066 133.52 314.493 133.52C312.919 133.52 311.786 133.8 311.093 134.36C310.426 134.92 310.093 135.853 310.093 137.16V137.76H305.933V137.36C305.933 135.867 306.293 134.547 307.013 133.4C307.759 132.253 308.786 131.36 310.093 130.72C311.426 130.053 312.973 129.72 314.733 129.72C316.599 129.72 318.146 130.067 319.373 130.76C320.599 131.453 321.519 132.413 322.133 133.64C322.773 134.84 323.093 136.267 323.093 137.92V150ZM311.693 150.4C309.906 150.4 308.399 149.947 307.173 149.04C305.973 148.107 305.373 146.787 305.373 145.08C305.373 143.96 305.626 143.027 306.133 142.28C306.666 141.533 307.426 140.92 308.413 140.44C309.399 139.96 310.599 139.627 312.013 139.44L319.373 138.4V141.44L312.653 142.44C311.506 142.6 310.706 142.84 310.253 143.16C309.799 143.48 309.573 144.013 309.573 144.76C309.573 145.533 309.839 146.093 310.373 146.44C310.933 146.787 311.839 146.96 313.093 146.96C314.053 146.96 314.973 146.813 315.853 146.52C316.759 146.2 317.506 145.68 318.093 144.96C318.679 144.213 318.973 143.173 318.973 141.84L319.533 146.92L318.893 146.88C318.519 147.493 317.999 148.067 317.333 148.6C316.693 149.133 315.906 149.573 314.973 149.92C314.039 150.24 312.946 150.4 311.693 150.4ZM359.149 150H354.829V138.44C354.829 136.68 354.496 135.413 353.829 134.64C353.189 133.84 351.963 133.44 350.149 133.44C348.523 133.44 347.309 133.827 346.509 134.6C345.736 135.347 345.349 136.627 345.349 138.44L344.589 138.52L344.229 133.84H344.869C345.189 133.147 345.629 132.493 346.189 131.88C346.776 131.24 347.523 130.72 348.429 130.32C349.336 129.92 350.443 129.72 351.749 129.72C353.483 129.72 354.883 130.053 355.949 130.72C357.043 131.387 357.843 132.307 358.349 133.48C358.883 134.653 359.149 136 359.149 137.52V150ZM331.549 150H327.229V130.12H331.189V136.08L331.549 136.28V150ZM345.349 150H341.029V138.44C341.029 136.68 340.696 135.413 340.029 134.64C339.389 133.84 338.163 133.44 336.349 133.44C334.723 133.44 333.509 133.813 332.709 134.56C331.936 135.307 331.549 136.587 331.549 138.4L330.789 138.52L330.429 133.84H331.389C331.683 133.12 332.109 132.453 332.669 131.84C333.256 131.227 334.003 130.72 334.909 130.32C335.816 129.92 336.896 129.72 338.149 129.72C339.829 129.72 341.189 130.053 342.229 130.72C343.296 131.387 344.083 132.307 344.589 133.48C345.096 134.653 345.349 136 345.349 137.52V150ZM367.604 150H363.284V123.2H367.604V150ZM380.523 150.4C378.363 150.4 376.563 149.973 375.123 149.12C373.683 148.24 372.616 147.027 371.923 145.48C371.229 143.907 370.882 142.093 370.882 140.04C370.882 137.987 371.269 136.187 372.043 134.64C372.843 133.093 373.963 131.893 375.403 131.04C376.843 130.16 378.549 129.72 380.523 129.72C382.309 129.72 383.883 130.067 385.243 130.76C386.629 131.427 387.696 132.4 388.443 133.68C389.216 134.96 389.603 136.507 389.603 138.32C389.603 138.853 389.576 139.373 389.523 139.88C389.496 140.36 389.456 140.76 389.403 141.08H372.923V138.2H385.883L385.443 138.6C385.549 137.373 385.416 136.373 385.043 135.6C384.696 134.827 384.123 134.253 383.323 133.88C382.549 133.507 381.576 133.32 380.403 133.32C378.296 133.32 376.856 133.853 376.083 134.92C375.309 135.96 374.923 137.4 374.923 139.24V140.44C374.923 141.773 375.083 142.907 375.403 143.84C375.749 144.747 376.336 145.427 377.163 145.88C377.989 146.333 379.123 146.56 380.563 146.56C382.243 146.56 383.429 146.293 384.123 145.76C384.816 145.227 385.163 144.52 385.163 143.64V143.32H389.443V143.68C389.443 145.04 389.069 146.227 388.323 147.24C387.576 148.227 386.536 149 385.203 149.56C383.896 150.12 382.336 150.4 380.523 150.4ZM401.605 150.4C398.698 150.4 396.498 149.827 395.005 148.68C393.512 147.507 392.765 145.707 392.765 143.28V143.2H396.925V143.92C396.925 144.613 397.058 145.187 397.325 145.64C397.618 146.067 398.098 146.387 398.765 146.6C399.458 146.787 400.432 146.88 401.685 146.88C402.752 146.88 403.552 146.8 404.085 146.64C404.645 146.453 405.018 146.2 405.205 145.88C405.392 145.56 405.485 145.16 405.485 144.68C405.485 143.88 405.205 143.32 404.645 143C404.085 142.653 403.085 142.347 401.645 142.08L398.525 141.56C397.352 141.32 396.325 140.987 395.445 140.56C394.592 140.107 393.925 139.493 393.445 138.72C392.992 137.92 392.765 136.92 392.765 135.72C392.765 133.933 393.472 132.493 394.885 131.4C396.298 130.28 398.298 129.72 400.885 129.72C402.458 129.72 403.858 129.973 405.085 130.48C406.312 130.987 407.285 131.747 408.005 132.76C408.725 133.773 409.085 135.04 409.085 136.56V136.92H404.965V136.44C404.965 135.8 404.858 135.253 404.645 134.8C404.432 134.32 404.032 133.947 403.445 133.68C402.858 133.413 401.965 133.28 400.765 133.28C399.192 133.28 398.152 133.48 397.645 133.88C397.138 134.28 396.885 134.867 396.885 135.64C396.885 136.413 397.112 136.96 397.565 137.28C398.045 137.573 398.978 137.867 400.365 138.16L403.765 138.8C405.045 139.04 406.112 139.4 406.965 139.88C407.818 140.36 408.458 140.987 408.885 141.76C409.338 142.533 409.565 143.453 409.565 144.52C409.565 146.387 408.858 147.84 407.445 148.88C406.058 149.893 404.112 150.4 401.605 150.4ZM421.293 150.4C418.386 150.4 416.186 149.827 414.693 148.68C413.199 147.507 412.453 145.707 412.453 143.28V143.2H416.613V143.92C416.613 144.613 416.746 145.187 417.013 145.64C417.306 146.067 417.786 146.387 418.453 146.6C419.146 146.787 420.119 146.88 421.372 146.88C422.439 146.88 423.239 146.8 423.773 146.64C424.333 146.453 424.706 146.2 424.893 145.88C425.079 145.56 425.173 145.16 425.173 144.68C425.173 143.88 424.893 143.32 424.333 143C423.773 142.653 422.773 142.347 421.333 142.08L418.213 141.56C417.039 141.32 416.013 140.987 415.133 140.56C414.279 140.107 413.613 139.493 413.133 138.72C412.679 137.92 412.453 136.92 412.453 135.72C412.453 133.933 413.159 132.493 414.573 131.4C415.986 130.28 417.986 129.72 420.573 129.72C422.146 129.72 423.546 129.973 424.773 130.48C425.999 130.987 426.973 131.747 427.693 132.76C428.413 133.773 428.773 135.04 428.773 136.56V136.92H424.653V136.44C424.653 135.8 424.546 135.253 424.333 134.8C424.119 134.32 423.719 133.947 423.133 133.68C422.546 133.413 421.653 133.28 420.453 133.28C418.879 133.28 417.839 133.48 417.333 133.88C416.826 134.28 416.573 134.867 416.573 135.64C416.573 136.413 416.799 136.96 417.253 137.28C417.733 137.573 418.666 137.867 420.053 138.16L423.453 138.8C424.733 139.04 425.799 139.4 426.653 139.88C427.506 140.36 428.146 140.987 428.573 141.76C429.026 142.533 429.253 143.453 429.253 144.52C429.253 146.387 428.546 147.84 427.133 148.88C425.746 149.893 423.799 150.4 421.293 150.4ZM448.596 150C446.41 150 444.73 149.533 443.556 148.6C442.41 147.667 441.836 146.093 441.836 143.88V130.56L442.836 125.2H446.156V143.68C446.156 144.72 446.41 145.387 446.916 145.68C447.45 145.947 448.396 146.08 449.756 146.08H452.156V149.64C451.756 149.747 451.236 149.84 450.596 149.92C449.956 149.973 449.29 150 448.596 150ZM452.156 133.72H438.516V130.12H452.156V133.72ZM459.44 150H455.12V130H459.08V135.56L459.44 135.76V150ZM459.44 137.04H458.44V133.16H459.28C459.68 132.227 460.333 131.427 461.24 130.76C462.173 130.067 463.373 129.72 464.84 129.72C466.253 129.72 467.373 130.027 468.2 130.64C469.053 131.253 469.667 132.067 470.04 133.08C470.413 134.093 470.6 135.227 470.6 136.48V137.8H466.28V137C466.28 135.667 466.053 134.733 465.6 134.2C465.147 133.667 464.293 133.4 463.04 133.4C461.733 133.4 460.8 133.68 460.24 134.24C459.707 134.773 459.44 135.707 459.44 137.04ZM489.733 150H485.733V146.08L485.613 145V137.36C485.613 135.867 485.253 134.853 484.533 134.32C483.84 133.787 482.707 133.52 481.133 133.52C479.56 133.52 478.427 133.8 477.733 134.36C477.067 134.92 476.733 135.853 476.733 137.16V137.76H472.573V137.36C472.573 135.867 472.933 134.547 473.653 133.4C474.4 132.253 475.427 131.36 476.733 130.72C478.067 130.053 479.613 129.72 481.373 129.72C483.24 129.72 484.787 130.067 486.013 130.76C487.24 131.453 488.16 132.413 488.773 133.64C489.413 134.84 489.733 136.267 489.733 137.92V150ZM478.333 150.4C476.547 150.4 475.04 149.947 473.813 149.04C472.613 148.107 472.013 146.787 472.013 145.08C472.013 143.96 472.267 143.027 472.773 142.28C473.307 141.533 474.067 140.92 475.053 140.44C476.04 139.96 477.24 139.627 478.653 139.44L486.013 138.4V141.44L479.293 142.44C478.147 142.6 477.347 142.84 476.893 143.16C476.44 143.48 476.213 144.013 476.213 144.76C476.213 145.533 476.48 146.093 477.013 146.44C477.573 146.787 478.48 146.96 479.733 146.96C480.693 146.96 481.613 146.813 482.493 146.52C483.4 146.2 484.147 145.68 484.733 144.96C485.32 144.213 485.613 143.173 485.613 141.84L486.173 146.92L485.533 146.88C485.16 147.493 484.64 148.067 483.973 148.6C483.333 149.133 482.547 149.573 481.613 149.92C480.68 150.24 479.587 150.4 478.333 150.4ZM512.39 150H508.07V138.44C508.07 136.68 507.737 135.413 507.07 134.64C506.403 133.84 505.15 133.44 503.31 133.44C502.137 133.44 501.177 133.613 500.43 133.96C499.683 134.28 499.123 134.813 498.75 135.56C498.377 136.28 498.19 137.267 498.19 138.52H497.43L497.07 133.84H498.03C498.323 133.12 498.763 132.453 499.35 131.84C499.937 131.227 500.683 130.72 501.59 130.32C502.523 129.92 503.63 129.72 504.91 129.72C506.643 129.72 508.057 130.053 509.15 130.72C510.243 131.387 511.057 132.307 511.59 133.48C512.123 134.653 512.39 136 512.39 137.52V150ZM498.19 150H493.87V130.12H497.83V136.08L498.19 136.28V150ZM524.769 150.4C521.862 150.4 519.662 149.827 518.169 148.68C516.676 147.507 515.929 145.707 515.929 143.28V143.2H520.089V143.92C520.089 144.613 520.222 145.187 520.489 145.64C520.782 146.067 521.262 146.387 521.929 146.6C522.622 146.787 523.596 146.88 524.849 146.88C525.916 146.88 526.716 146.8 527.249 146.64C527.809 146.453 528.182 146.2 528.369 145.88C528.556 145.56 528.649 145.16 528.649 144.68C528.649 143.88 528.369 143.32 527.809 143C527.249 142.653 526.249 142.347 524.809 142.08L521.689 141.56C520.516 141.32 519.489 140.987 518.609 140.56C517.756 140.107 517.089 139.493 516.609 138.72C516.156 137.92 515.929 136.92 515.929 135.72C515.929 133.933 516.636 132.493 518.049 131.4C519.462 130.28 521.462 129.72 524.049 129.72C525.622 129.72 527.022 129.973 528.249 130.48C529.476 130.987 530.449 131.747 531.169 132.76C531.889 133.773 532.249 135.04 532.249 136.56V136.92H528.129V136.44C528.129 135.8 528.022 135.253 527.809 134.8C527.596 134.32 527.196 133.947 526.609 133.68C526.022 133.413 525.129 133.28 523.929 133.28C522.356 133.28 521.316 133.48 520.809 133.88C520.302 134.28 520.049 134.867 520.049 135.64C520.049 136.413 520.276 136.96 520.729 137.28C521.209 137.573 522.142 137.867 523.529 138.16L526.929 138.8C528.209 139.04 529.276 139.4 530.129 139.88C530.982 140.36 531.622 140.987 532.049 141.76C532.502 142.533 532.729 143.453 532.729 144.52C532.729 146.387 532.022 147.84 530.609 148.88C529.222 149.893 527.276 150.4 524.769 150.4ZM553.093 150H549.093V146.08L548.973 145V137.36C548.973 135.867 548.613 134.853 547.893 134.32C547.199 133.787 546.066 133.52 544.493 133.52C542.919 133.52 541.786 133.8 541.093 134.36C540.426 134.92 540.093 135.853 540.093 137.16V137.76H535.933V137.36C535.933 135.867 536.293 134.547 537.013 133.4C537.759 132.253 538.786 131.36 540.093 130.72C541.426 130.053 542.973 129.72 544.733 129.72C546.599 129.72 548.146 130.067 549.373 130.76C550.599 131.453 551.519 132.413 552.133 133.64C552.773 134.84 553.093 136.267 553.093 137.92V150ZM541.693 150.4C539.906 150.4 538.399 149.947 537.173 149.04C535.973 148.107 535.373 146.787 535.373 145.08C535.373 143.96 535.626 143.027 536.133 142.28C536.666 141.533 537.426 140.92 538.413 140.44C539.399 139.96 540.599 139.627 542.013 139.44L549.373 138.4V141.44L542.653 142.44C541.506 142.6 540.706 142.84 540.253 143.16C539.799 143.48 539.573 144.013 539.573 144.76C539.573 145.533 539.839 146.093 540.373 146.44C540.933 146.787 541.839 146.96 543.093 146.96C544.053 146.96 544.973 146.813 545.853 146.52C546.759 146.2 547.506 145.68 548.093 144.96C548.679 144.213 548.973 143.173 548.973 141.84L549.533 146.92L548.893 146.88C548.519 147.493 547.999 148.067 547.333 148.6C546.693 149.133 545.906 149.573 544.973 149.92C544.039 150.24 542.946 150.4 541.693 150.4ZM566.071 150.44C563.991 150.44 562.231 150 560.791 149.12C559.351 148.24 558.245 147.027 557.471 145.48C556.725 143.933 556.351 142.133 556.351 140.08C556.351 138.027 556.738 136.227 557.511 134.68C558.311 133.107 559.445 131.893 560.911 131.04C562.378 130.16 564.151 129.72 566.231 129.72C567.991 129.72 569.538 130.053 570.871 130.72C572.205 131.387 573.231 132.32 573.951 133.52C574.698 134.72 575.071 136.12 575.071 137.72V138.08H570.791V137.84C570.791 136.373 570.391 135.307 569.591 134.64C568.818 133.947 567.605 133.6 565.951 133.6C564.031 133.6 562.658 134.147 561.831 135.24C561.031 136.307 560.631 137.907 560.631 140.04C560.631 142.2 561.031 143.827 561.831 144.92C562.658 145.987 564.031 146.52 565.951 146.52C567.605 146.52 568.818 146.187 569.591 145.52C570.391 144.827 570.791 143.76 570.791 142.32V142.08H575.071V142.44C575.071 143.987 574.698 145.373 573.951 146.6C573.205 147.8 572.151 148.747 570.791 149.44C569.458 150.107 567.885 150.44 566.071 150.44ZM586.448 150C584.261 150 582.581 149.533 581.408 148.6C580.261 147.667 579.688 146.093 579.688 143.88V130.56L580.688 125.2H584.008V143.68C584.008 144.72 584.261 145.387 584.768 145.68C585.301 145.947 586.248 146.08 587.608 146.08H590.008V149.64C589.608 149.747 589.088 149.84 588.448 149.92C587.808 149.973 587.141 150 586.448 150ZM590.008 133.72H576.368V130.12H590.008V133.72ZM596.855 127.6H592.575L592.535 123.2H596.855V127.6ZM596.895 150H592.575V130H596.895V150ZM609.787 150.4C607.76 150.4 606 149.973 604.507 149.12C603.014 148.24 601.867 147.027 601.067 145.48C600.267 143.907 599.867 142.093 599.867 140.04C599.867 137.987 600.267 136.187 601.067 134.64C601.867 133.093 603.014 131.893 604.507 131.04C606 130.16 607.76 129.72 609.787 129.72C611.814 129.72 613.547 130.16 614.987 131.04C616.454 131.893 617.574 133.093 618.347 134.64C619.147 136.187 619.547 137.987 619.547 140.04C619.547 142.093 619.147 143.907 618.347 145.48C617.574 147.027 616.454 148.24 614.987 149.12C613.547 149.973 611.814 150.4 609.787 150.4ZM609.787 146.56C611.867 146.56 613.32 146.04 614.147 145C614.974 143.933 615.387 142.28 615.387 140.04C615.387 137.8 614.974 136.16 614.147 135.12C613.32 134.08 611.867 133.56 609.787 133.56C607.68 133.56 606.214 134.08 605.387 135.12C604.56 136.16 604.147 137.8 604.147 140.04C604.147 142.28 604.56 143.933 605.387 145C606.214 146.04 607.68 146.56 609.787 146.56ZM641.296 150H636.976V138.44C636.976 136.68 636.643 135.413 635.976 134.64C635.31 133.84 634.056 133.44 632.216 133.44C631.043 133.44 630.083 133.613 629.336 133.96C628.59 134.28 628.03 134.813 627.656 135.56C627.283 136.28 627.096 137.267 627.096 138.52H626.336L625.976 133.84H626.936C627.23 133.12 627.67 132.453 628.256 131.84C628.843 131.227 629.59 130.72 630.496 130.32C631.43 129.92 632.536 129.72 633.816 129.72C635.55 129.72 636.963 130.053 638.056 130.72C639.15 131.387 639.963 132.307 640.496 133.48C641.03 134.653 641.296 136 641.296 137.52V150ZM627.096 150H622.776V130.12H626.736V136.08L627.096 136.28V150ZM653.675 150.4C650.769 150.4 648.569 149.827 647.075 148.68C645.582 147.507 644.835 145.707 644.835 143.28V143.2H648.995V143.92C648.995 144.613 649.129 145.187 649.395 145.64C649.689 146.067 650.169 146.387 650.835 146.6C651.529 146.787 652.502 146.88 653.755 146.88C654.822 146.88 655.622 146.8 656.155 146.64C656.715 146.453 657.089 146.2 657.275 145.88C657.462 145.56 657.555 145.16 657.555 144.68C657.555 143.88 657.275 143.32 656.715 143C656.155 142.653 655.155 142.347 653.715 142.08L650.595 141.56C649.422 141.32 648.395 140.987 647.515 140.56C646.662 140.107 645.995 139.493 645.515 138.72C645.062 137.92 644.835 136.92 644.835 135.72C644.835 133.933 645.542 132.493 646.955 131.4C648.369 130.28 650.369 129.72 652.955 129.72C654.529 129.72 655.929 129.973 657.155 130.48C658.382 130.987 659.355 131.747 660.075 132.76C660.795 133.773 661.155 135.04 661.155 136.56V136.92H657.035V136.44C657.035 135.8 656.929 135.253 656.715 134.8C656.502 134.32 656.102 133.947 655.515 133.68C654.929 133.413 654.035 133.28 652.835 133.28C651.262 133.28 650.222 133.48 649.715 133.88C649.209 134.28 648.955 134.867 648.955 135.64C648.955 136.413 649.182 136.96 649.635 137.28C650.115 137.573 651.049 137.867 652.435 138.16L655.835 138.8C657.115 139.04 658.182 139.4 659.035 139.88C659.889 140.36 660.529 140.987 660.955 141.76C661.409 142.533 661.635 143.453 661.635 144.52C661.635 146.387 660.929 147.84 659.515 148.88C658.129 149.893 656.182 150.4 653.675 150.4ZM311.999 199H307.999V195.08L307.879 194V186.36C307.879 184.867 307.519 183.853 306.799 183.32C306.106 182.787 304.972 182.52 303.399 182.52C301.826 182.52 300.692 182.8 299.999 183.36C299.332 183.92 298.999 184.853 298.999 186.16V186.76H294.839V186.36C294.839 184.867 295.199 183.547 295.919 182.4C296.666 181.253 297.692 180.36 298.999 179.72C300.332 179.053 301.879 178.72 303.639 178.72C305.506 178.72 307.052 179.067 308.279 179.76C309.506 180.453 310.426 181.413 311.039 182.64C311.679 183.84 311.999 185.267 311.999 186.92V199ZM300.599 199.4C298.812 199.4 297.306 198.947 296.079 198.04C294.879 197.107 294.279 195.787 294.279 194.08C294.279 192.96 294.532 192.027 295.039 191.28C295.572 190.533 296.332 189.92 297.319 189.44C298.306 188.96 299.506 188.627 300.919 188.44L308.279 187.4V190.44L301.559 191.44C300.412 191.6 299.612 191.84 299.159 192.16C298.706 192.48 298.479 193.013 298.479 193.76C298.479 194.533 298.746 195.093 299.279 195.44C299.839 195.787 300.746 195.96 301.999 195.96C302.959 195.96 303.879 195.813 304.759 195.52C305.666 195.2 306.412 194.68 306.999 193.96C307.586 193.213 307.879 192.173 307.879 190.84L308.439 195.92L307.799 195.88C307.426 196.493 306.906 197.067 306.239 197.6C305.599 198.133 304.812 198.573 303.879 198.92C302.946 199.24 301.852 199.4 300.599 199.4ZM334.656 199H330.336V187.44C330.336 185.68 330.002 184.413 329.336 183.64C328.669 182.84 327.416 182.44 325.576 182.44C324.402 182.44 323.442 182.613 322.696 182.96C321.949 183.28 321.389 183.813 321.016 184.56C320.642 185.28 320.456 186.267 320.456 187.52H319.696L319.336 182.84H320.296C320.589 182.12 321.029 181.453 321.616 180.84C322.202 180.227 322.949 179.72 323.856 179.32C324.789 178.92 325.896 178.72 327.176 178.72C328.909 178.72 330.322 179.053 331.416 179.72C332.509 180.387 333.322 181.307 333.856 182.48C334.389 183.653 334.656 185 334.656 186.52V199ZM320.456 199H316.136V179.12H320.096V185.08L320.456 185.28V199ZM346.674 199.4C343.847 199.4 341.674 198.467 340.154 196.6C338.66 194.707 337.914 192.187 337.914 189.04C337.914 185.893 338.647 183.387 340.114 181.52C341.607 179.653 343.714 178.72 346.434 178.72C348.194 178.72 349.607 179.08 350.674 179.8C351.767 180.493 352.527 181.293 352.954 182.2H354.034L353.834 187.28H353.074C353.074 186.16 352.86 185.24 352.434 184.52C352.007 183.8 351.394 183.267 350.594 182.92C349.794 182.573 348.807 182.4 347.634 182.4C346.674 182.4 345.847 182.52 345.154 182.76C344.487 183 343.927 183.373 343.474 183.88C343.047 184.387 342.727 185.067 342.514 185.92C342.327 186.773 342.234 187.813 342.234 189.04C342.234 190.24 342.327 191.28 342.514 192.16C342.727 193.013 343.047 193.707 343.474 194.24C343.927 194.747 344.5 195.12 345.194 195.36C345.887 195.6 346.7 195.72 347.634 195.72C348.807 195.72 349.794 195.547 350.594 195.2C351.394 194.827 352.007 194.28 352.434 193.56C352.86 192.84 353.074 191.933 353.074 190.84H353.834L354.034 195.72H353.234C352.78 196.867 351.994 197.773 350.874 198.44C349.78 199.08 348.38 199.4 346.674 199.4ZM357.394 199H353.394V194.28L353.074 193.76V172.2H357.394V199ZM380.063 199.4C378.276 199.4 376.823 199.053 375.703 198.36C374.609 197.64 373.849 196.827 373.423 195.92H372.342L372.543 190.84H373.303C373.303 191.933 373.503 192.84 373.903 193.56C374.329 194.28 374.956 194.827 375.783 195.2C376.609 195.547 377.596 195.72 378.743 195.72C379.676 195.72 380.489 195.6 381.183 195.36C381.876 195.12 382.436 194.747 382.863 194.24C383.316 193.733 383.636 193.053 383.823 192.2C384.036 191.32 384.143 190.267 384.143 189.04C384.143 187.813 384.036 186.787 383.823 185.96C383.636 185.107 383.316 184.413 382.863 183.88C382.436 183.347 381.876 182.973 381.183 182.76C380.516 182.52 379.703 182.4 378.743 182.4C377.596 182.4 376.609 182.587 375.783 182.96C374.956 183.307 374.329 183.84 373.903 184.56C373.503 185.253 373.303 186.16 373.303 187.28H372.543L372.342 182.4H373.143C373.623 181.253 374.409 180.36 375.503 179.72C376.623 179.053 378.049 178.72 379.783 178.72C382.583 178.72 384.729 179.653 386.223 181.52C387.716 183.387 388.463 185.893 388.463 189.04C388.463 192.187 387.743 194.707 386.303 196.6C384.863 198.467 382.783 199.4 380.063 199.4ZM373.303 205.92H369.023V179.12H372.942V183.84L373.303 184.36V205.92ZM396.237 199H391.917V179H395.877V184.56L396.237 184.76V199ZM396.237 186.04H395.237V182.16H396.077C396.477 181.227 397.13 180.427 398.037 179.76C398.97 179.067 400.17 178.72 401.637 178.72C403.05 178.72 404.17 179.027 404.997 179.64C405.85 180.253 406.464 181.067 406.837 182.08C407.21 183.093 407.397 184.227 407.397 185.48V186.8H403.077V186C403.077 184.667 402.85 183.733 402.397 183.2C401.944 182.667 401.09 182.4 399.837 182.4C398.53 182.4 397.597 182.68 397.037 183.24C396.504 183.773 396.237 184.707 396.237 186.04ZM418.999 199.4C416.839 199.4 415.039 198.973 413.599 198.12C412.159 197.24 411.092 196.027 410.399 194.48C409.706 192.907 409.359 191.093 409.359 189.04C409.359 186.987 409.746 185.187 410.519 183.64C411.319 182.093 412.439 180.893 413.879 180.04C415.319 179.16 417.026 178.72 418.999 178.72C420.786 178.72 422.359 179.067 423.719 179.76C425.106 180.427 426.172 181.4 426.919 182.68C427.692 183.96 428.079 185.507 428.079 187.32C428.079 187.853 428.052 188.373 427.999 188.88C427.972 189.36 427.932 189.76 427.879 190.08H411.399V187.2H424.359L423.919 187.6C424.026 186.373 423.892 185.373 423.519 184.6C423.172 183.827 422.599 183.253 421.799 182.88C421.026 182.507 420.052 182.32 418.879 182.32C416.772 182.32 415.332 182.853 414.559 183.92C413.786 184.96 413.399 186.4 413.399 188.24V189.44C413.399 190.773 413.559 191.907 413.879 192.84C414.226 193.747 414.812 194.427 415.639 194.88C416.466 195.333 417.599 195.56 419.039 195.56C420.719 195.56 421.906 195.293 422.599 194.76C423.292 194.227 423.639 193.52 423.639 192.64V192.32H427.919V192.68C427.919 194.04 427.546 195.227 426.799 196.24C426.052 197.227 425.012 198 423.679 198.56C422.372 199.12 420.812 199.4 418.999 199.4ZM440.642 199.44C438.562 199.44 436.802 199 435.362 198.12C433.922 197.24 432.815 196.027 432.042 194.48C431.295 192.933 430.922 191.133 430.922 189.08C430.922 187.027 431.308 185.227 432.082 183.68C432.882 182.107 434.015 180.893 435.482 180.04C436.948 179.16 438.722 178.72 440.802 178.72C442.562 178.72 444.108 179.053 445.442 179.72C446.775 180.387 447.802 181.32 448.522 182.52C449.268 183.72 449.642 185.12 449.642 186.72V187.08H445.362V186.84C445.362 185.373 444.962 184.307 444.162 183.64C443.388 182.947 442.175 182.6 440.522 182.6C438.602 182.6 437.228 183.147 436.402 184.24C435.602 185.307 435.202 186.907 435.202 189.04C435.202 191.2 435.602 192.827 436.402 193.92C437.228 194.987 438.602 195.52 440.522 195.52C442.175 195.52 443.388 195.187 444.162 194.52C444.962 193.827 445.362 192.76 445.362 191.32V191.08H449.642V191.44C449.642 192.987 449.268 194.373 448.522 195.6C447.775 196.8 446.722 197.747 445.362 198.44C444.028 199.107 442.455 199.44 440.642 199.44ZM456.933 176.6H452.653L452.613 172.2H456.933V176.6ZM456.973 199H452.653V179H456.973V199ZM469.183 199.4C466.276 199.4 464.076 198.827 462.583 197.68C461.09 196.507 460.343 194.707 460.343 192.28V192.2H464.503V192.92C464.503 193.613 464.636 194.187 464.903 194.64C465.196 195.067 465.676 195.387 466.343 195.6C467.036 195.787 468.01 195.88 469.263 195.88C470.33 195.88 471.13 195.8 471.663 195.64C472.223 195.453 472.596 195.2 472.783 194.88C472.97 194.56 473.063 194.16 473.063 193.68C473.063 192.88 472.783 192.32 472.223 192C471.663 191.653 470.663 191.347 469.223 191.08L466.103 190.56C464.93 190.32 463.903 189.987 463.023 189.56C462.17 189.107 461.503 188.493 461.023 187.72C460.57 186.92 460.343 185.92 460.343 184.72C460.343 182.933 461.05 181.493 462.463 180.4C463.876 179.28 465.876 178.72 468.463 178.72C470.036 178.72 471.436 178.973 472.663 179.48C473.89 179.987 474.863 180.747 475.583 181.76C476.303 182.773 476.663 184.04 476.663 185.56V185.92H472.543V185.44C472.543 184.8 472.436 184.253 472.223 183.8C472.01 183.32 471.61 182.947 471.023 182.68C470.436 182.413 469.543 182.28 468.343 182.28C466.77 182.28 465.73 182.48 465.223 182.88C464.716 183.28 464.463 183.867 464.463 184.64C464.463 185.413 464.69 185.96 465.143 186.28C465.623 186.573 466.556 186.867 467.943 187.16L471.343 187.8C472.623 188.04 473.69 188.4 474.543 188.88C475.396 189.36 476.036 189.987 476.463 190.76C476.916 191.533 477.143 192.453 477.143 193.52C477.143 195.387 476.436 196.84 475.023 197.88C473.636 198.893 471.69 199.4 469.183 199.4ZM489.468 199.4C487.308 199.4 485.508 198.973 484.068 198.12C482.628 197.24 481.561 196.027 480.868 194.48C480.174 192.907 479.828 191.093 479.828 189.04C479.828 186.987 480.214 185.187 480.988 183.64C481.788 182.093 482.908 180.893 484.348 180.04C485.788 179.16 487.494 178.72 489.468 178.72C491.254 178.72 492.828 179.067 494.188 179.76C495.574 180.427 496.641 181.4 497.388 182.68C498.161 183.96 498.548 185.507 498.548 187.32C498.548 187.853 498.521 188.373 498.468 188.88C498.441 189.36 498.401 189.76 498.348 190.08H481.868V187.2H494.828L494.388 187.6C494.494 186.373 494.361 185.373 493.988 184.6C493.641 183.827 493.068 183.253 492.268 182.88C491.494 182.507 490.521 182.32 489.348 182.32C487.241 182.32 485.801 182.853 485.028 183.92C484.254 184.96 483.868 186.4 483.868 188.24V189.44C483.868 190.773 484.028 191.907 484.348 192.84C484.694 193.747 485.281 194.427 486.108 194.88C486.934 195.333 488.068 195.56 489.508 195.56C491.188 195.56 492.374 195.293 493.068 194.76C493.761 194.227 494.108 193.52 494.108 192.64V192.32H498.388V192.68C498.388 194.04 498.014 195.227 497.268 196.24C496.521 197.227 495.481 198 494.148 198.56C492.841 199.12 491.281 199.4 489.468 199.4ZM513.769 176.6H509.489L509.449 172.2H513.769V176.6ZM513.809 199H509.489V179H513.809V199ZM536.296 199H531.976V187.44C531.976 185.68 531.643 184.413 530.976 183.64C530.31 182.84 529.056 182.44 527.216 182.44C526.043 182.44 525.083 182.613 524.336 182.96C523.59 183.28 523.03 183.813 522.656 184.56C522.283 185.28 522.096 186.267 522.096 187.52H521.336L520.976 182.84H521.936C522.23 182.12 522.67 181.453 523.256 180.84C523.843 180.227 524.59 179.72 525.496 179.32C526.43 178.92 527.536 178.72 528.816 178.72C530.55 178.72 531.963 179.053 533.056 179.72C534.15 180.387 534.963 181.307 535.496 182.48C536.03 183.653 536.296 185 536.296 186.52V199ZM522.096 199H517.776V179.12H521.736V185.08L522.096 185.28V199ZM551.211 199H545.731L537.771 179.12H542.571L548.371 194.88H548.651L554.491 179.12H559.171L551.211 199ZM569.553 199.4C567.526 199.4 565.766 198.973 564.273 198.12C562.779 197.24 561.633 196.027 560.833 194.48C560.033 192.907 559.632 191.093 559.632 189.04C559.632 186.987 560.033 185.187 560.833 183.64C561.633 182.093 562.779 180.893 564.273 180.04C565.766 179.16 567.526 178.72 569.553 178.72C571.579 178.72 573.313 179.16 574.753 180.04C576.219 180.893 577.339 182.093 578.113 183.64C578.913 185.187 579.313 186.987 579.313 189.04C579.313 191.093 578.913 192.907 578.113 194.48C577.339 196.027 576.219 197.24 574.753 198.12C573.313 198.973 571.579 199.4 569.553 199.4ZM569.553 195.56C571.633 195.56 573.086 195.04 573.913 194C574.739 192.933 575.153 191.28 575.153 189.04C575.153 186.8 574.739 185.16 573.913 184.12C573.086 183.08 571.633 182.56 569.553 182.56C567.446 182.56 565.979 183.08 565.153 184.12C564.326 185.16 563.913 186.8 563.913 189.04C563.913 191.28 564.326 192.933 565.153 194C565.979 195.04 567.446 195.56 569.553 195.56ZM586.582 176.6H582.302L582.262 172.2H586.582V176.6ZM586.622 199H582.302V179H586.622V199ZM599.313 199.44C597.233 199.44 595.473 199 594.033 198.12C592.593 197.24 591.487 196.027 590.713 194.48C589.967 192.933 589.593 191.133 589.593 189.08C589.593 187.027 589.98 185.227 590.753 183.68C591.553 182.107 592.687 180.893 594.153 180.04C595.62 179.16 597.393 178.72 599.473 178.72C601.233 178.72 602.78 179.053 604.113 179.72C605.447 180.387 606.473 181.32 607.193 182.52C607.94 183.72 608.313 185.12 608.313 186.72V187.08H604.033V186.84C604.033 185.373 603.633 184.307 602.833 183.64C602.06 182.947 600.847 182.6 599.193 182.6C597.273 182.6 595.9 183.147 595.073 184.24C594.273 185.307 593.873 186.907 593.873 189.04C593.873 191.2 594.273 192.827 595.073 193.92C595.9 194.987 597.273 195.52 599.193 195.52C600.847 195.52 602.06 195.187 602.833 194.52C603.633 193.827 604.033 192.76 604.033 191.32V191.08H608.313V191.44C608.313 192.987 607.94 194.373 607.193 195.6C606.447 196.8 605.393 197.747 604.033 198.44C602.7 199.107 601.127 199.44 599.313 199.44ZM615.605 176.6H611.325L611.285 172.2H615.605V176.6ZM615.645 199H611.325V179H615.645V199ZM638.132 199H633.812V187.44C633.812 185.68 633.479 184.413 632.812 183.64C632.146 182.84 630.892 182.44 629.052 182.44C627.879 182.44 626.919 182.613 626.172 182.96C625.426 183.28 624.866 183.813 624.492 184.56C624.119 185.28 623.932 186.267 623.932 187.52H623.172L622.812 182.84H623.772C624.066 182.12 624.506 181.453 625.092 180.84C625.679 180.227 626.426 179.72 627.332 179.32C628.266 178.92 629.372 178.72 630.652 178.72C632.386 178.72 633.799 179.053 634.892 179.72C635.986 180.387 636.799 181.307 637.332 182.48C637.866 183.653 638.132 185 638.132 186.52V199ZM623.932 199H619.612V179.12H623.572V185.08L623.932 185.28V199ZM651.59 206.2C649.724 206.2 648.097 205.907 646.71 205.32C645.35 204.733 644.297 203.88 643.55 202.76C642.804 201.667 642.43 200.32 642.43 198.72H646.75C646.75 199.627 646.884 200.347 647.15 200.88C647.417 201.413 647.91 201.787 648.63 202C649.35 202.24 650.377 202.36 651.71 202.36C653.017 202.36 654.017 202.213 654.71 201.92C655.404 201.627 655.884 201.133 656.15 200.44C656.417 199.747 656.55 198.787 656.55 197.56V184.36L656.87 183.84V179.12H660.87V197.56C660.87 199.507 660.497 201.107 659.75 202.36C659.004 203.64 657.937 204.6 656.55 205.24C655.19 205.88 653.537 206.2 651.59 206.2ZM649.91 197.12C647.164 197.12 645.057 196.293 643.59 194.64C642.124 192.96 641.39 190.72 641.39 187.92C641.39 185.12 642.137 182.893 643.63 181.24C645.124 179.56 647.27 178.72 650.07 178.72C651.697 178.72 653.097 179.053 654.27 179.72C655.444 180.36 656.257 181.253 656.71 182.4H657.51L657.31 187.28H656.55C656.55 186.16 656.324 185.24 655.87 184.52C655.417 183.8 654.777 183.267 653.95 182.92C653.124 182.573 652.164 182.4 651.07 182.4C649.817 182.4 648.79 182.573 647.99 182.92C647.217 183.267 646.644 183.853 646.27 184.68C645.897 185.48 645.71 186.56 645.71 187.92C645.71 188.933 645.817 189.8 646.03 190.52C646.244 191.213 646.577 191.773 647.03 192.2C647.484 192.627 648.057 192.947 648.75 193.16C649.444 193.347 650.244 193.44 651.15 193.44C652.244 193.44 653.19 193.267 653.99 192.92C654.79 192.547 655.417 192 655.87 191.28C656.324 190.56 656.55 189.64 656.55 188.52H657.43V193.6H656.39C655.937 194.56 655.15 195.387 654.03 196.08C652.91 196.773 651.537 197.12 649.91 197.12Z" fill="white"/>
<path d="M673.014 1226.11C673.014 1226.82 672.439 1227.4 671.73 1227.4H657.783C656.47 1227.4 656.004 1229.15 657.142 1229.8L662.36 1232.83C662.757 1233.06 663.246 1233.06 663.643 1232.83L682.358 1221.97C682.755 1221.74 683 1221.32 683 1220.86V1212.23C683 1211.24 681.929 1210.62 681.074 1211.12L673.655 1215.43C673.258 1215.66 673.014 1216.08 673.014 1216.54V1226.11Z" fill="white"/>
<path d="M643 1220.86C643 1221.32 643.244 1221.74 643.641 1221.97L651.06 1226.28C651.916 1226.78 652.986 1226.16 652.986 1225.17V1216.54C652.986 1216.08 652.742 1215.66 652.345 1215.43L644.926 1211.12C644.071 1210.62 643 1211.24 643 1212.23V1220.86Z" fill="white"/>
<path d="M650.594 1196.77C651.25 1195.63 649.976 1194.35 648.84 1195.01L643.641 1198.03C643.244 1198.26 643 1198.68 643 1199.14V1205.18C643 1206.5 644.74 1206.97 645.396 1205.83L650.594 1196.77Z" fill="white"/>
<path d="M663.643 1198.77C663.246 1198.54 662.757 1198.54 662.36 1198.77L653.632 1203.83C653.235 1204.06 652.99 1204.48 652.99 1204.94V1215.06C652.99 1215.52 653.235 1215.94 653.632 1216.17L662.36 1221.23C662.757 1221.46 663.246 1221.46 663.643 1221.23L672.372 1216.17C672.769 1215.94 673.014 1215.52 673.014 1215.06V1204.94C673.014 1204.48 672.769 1204.06 672.372 1203.83L663.643 1198.77Z" fill="white"/>
<path d="M677.156 1195.01C676.019 1194.35 674.745 1195.63 675.401 1196.77L680.6 1205.83C681.256 1206.97 682.996 1206.5 682.996 1205.18V1199.14C682.996 1198.68 682.751 1198.26 682.355 1198.03L677.156 1195.01Z" fill="white"/>
<path d="M663.643 1187.17C663.246 1186.94 662.757 1186.94 662.36 1187.17L654.917 1191.48C654.061 1191.98 654.061 1193.22 654.917 1193.72L662.36 1198.03C662.757 1198.26 663.246 1198.26 663.643 1198.03L671.087 1193.72C671.943 1193.22 671.943 1191.98 671.087 1191.48L663.643 1187.17Z" fill="white"/>
</g>
<defs>
<clipPath id="clip0_18960_20634">
<rect width="727" height="1272" rx="20.1569" fill="white"/>
</clipPath>
</defs>
</svg>
