<svg width="727" height="1272" viewBox="0 0 727 1272" fill="none" xmlns="http://www.w3.org/2000/svg">
<g clip-path="url(#clip0_18934_20071)">
<rect width="728" height="1273" rx="20.1569" fill="#F2935C"/>
<path d="M201.513 101H197.193V74.2H201.513V101ZM216.353 101H198.513V97.08H216.353V101ZM215.753 89.48H198.513V85.56H215.753V89.48ZM216.353 78.08H198.513V74.2H216.353V78.08ZM238.601 101H234.281V89.44C234.281 87.68 233.948 86.4133 233.281 85.64C232.614 84.84 231.361 84.44 229.521 84.44C228.348 84.44 227.388 84.6133 226.641 84.96C225.894 85.28 225.334 85.8133 224.961 86.56C224.588 87.28 224.401 88.2667 224.401 89.52H223.641L223.281 84.84H224.241C224.534 84.12 224.974 83.4533 225.561 82.84C226.148 82.2267 226.894 81.72 227.801 81.32C228.734 80.92 229.841 80.72 231.121 80.72C232.854 80.72 234.268 81.0533 235.361 81.72C236.454 82.3867 237.268 83.3067 237.801 84.48C238.334 85.6533 238.601 87 238.601 88.52V101ZM224.401 101H220.081V81.12H224.041V87.08L224.401 87.28V101ZM250.823 101C248.636 101 246.956 100.533 245.783 99.6C244.636 98.6667 244.063 97.0933 244.063 94.88V81.56L245.063 76.2H248.383V94.68C248.383 95.72 248.636 96.3867 249.143 96.68C249.676 96.9467 250.623 97.08 251.983 97.08H254.383V100.64C253.983 100.747 253.463 100.84 252.823 100.92C252.183 100.973 251.516 101 250.823 101ZM254.383 84.72H240.743V81.12H254.383V84.72ZM265.444 101.4C263.284 101.4 261.484 100.973 260.044 100.12C258.604 99.24 257.538 98.0267 256.844 96.48C256.151 94.9067 255.804 93.0933 255.804 91.04C255.804 88.9867 256.191 87.1867 256.964 85.64C257.764 84.0933 258.884 82.8933 260.324 82.04C261.764 81.16 263.471 80.72 265.444 80.72C267.231 80.72 268.804 81.0667 270.164 81.76C271.551 82.4267 272.618 83.4 273.364 84.68C274.138 85.96 274.524 87.5067 274.524 89.32C274.524 89.8533 274.498 90.3733 274.444 90.88C274.418 91.36 274.378 91.76 274.324 92.08H257.844V89.2H270.804L270.364 89.6C270.471 88.3733 270.338 87.3733 269.964 86.6C269.618 85.8267 269.044 85.2533 268.244 84.88C267.471 84.5067 266.498 84.32 265.324 84.32C263.218 84.32 261.778 84.8533 261.004 85.92C260.231 86.96 259.844 88.4 259.844 90.24V91.44C259.844 92.7733 260.004 93.9067 260.324 94.84C260.671 95.7467 261.258 96.4267 262.084 96.88C262.911 97.3333 264.044 97.56 265.484 97.56C267.164 97.56 268.351 97.2933 269.044 96.76C269.738 96.2267 270.084 95.52 270.084 94.64V94.32H274.364V94.68C274.364 96.04 273.991 97.2267 273.244 98.24C272.498 99.2267 271.458 100 270.124 100.56C268.818 101.12 267.258 101.4 265.444 101.4ZM282.292 101H277.972V81H281.932V86.56L282.292 86.76V101ZM282.292 88.04H281.292V84.16H282.132C282.532 83.2267 283.185 82.4267 284.092 81.76C285.025 81.0667 286.225 80.72 287.692 80.72C289.105 80.72 290.225 81.0267 291.052 81.64C291.905 82.2533 292.518 83.0667 292.892 84.08C293.265 85.0933 293.452 86.2267 293.452 87.48V88.8H289.132V88C289.132 86.6667 288.905 85.7333 288.452 85.2C287.998 84.6667 287.145 84.4 285.892 84.4C284.585 84.4 283.652 84.68 283.092 85.24C282.558 85.7733 282.292 86.7067 282.292 88.04ZM312.346 101C310.16 101 308.48 100.533 307.306 99.6C306.16 98.6667 305.586 97.0933 305.586 94.88V81.56L306.586 76.2H309.906V94.68C309.906 95.72 310.16 96.3867 310.666 96.68C311.2 96.9467 312.146 97.08 313.506 97.08H315.906V100.64C315.506 100.747 314.986 100.84 314.346 100.92C313.706 100.973 313.04 101 312.346 101ZM315.906 84.72H302.266V81.12H315.906V84.72ZM337.507 101H333.187V89.44C333.187 87.68 332.841 86.4133 332.147 85.64C331.481 84.84 330.241 84.44 328.427 84.44C326.694 84.44 325.401 84.8267 324.547 85.6C323.721 86.3467 323.307 87.6667 323.307 89.56H322.547L322.507 84.44H323.467C323.787 83.8267 324.227 83.24 324.787 82.68C325.374 82.0933 326.107 81.6267 326.987 81.28C327.894 80.9067 328.934 80.72 330.107 80.72C331.867 80.72 333.281 81.0667 334.347 81.76C335.441 82.4267 336.241 83.3467 336.747 84.52C337.254 85.6933 337.507 87.0133 337.507 88.48V101ZM323.307 101H318.987V74.2H323.307V101ZM350.523 101.4C348.363 101.4 346.563 100.973 345.123 100.12C343.683 99.24 342.616 98.0267 341.923 96.48C341.229 94.9067 340.882 93.0933 340.882 91.04C340.882 88.9867 341.269 87.1867 342.043 85.64C342.843 84.0933 343.963 82.8933 345.403 82.04C346.843 81.16 348.549 80.72 350.523 80.72C352.309 80.72 353.883 81.0667 355.243 81.76C356.629 82.4267 357.696 83.4 358.443 84.68C359.216 85.96 359.603 87.5067 359.603 89.32C359.603 89.8533 359.576 90.3733 359.523 90.88C359.496 91.36 359.456 91.76 359.403 92.08H342.923V89.2H355.883L355.443 89.6C355.549 88.3733 355.416 87.3733 355.043 86.6C354.696 85.8267 354.123 85.2533 353.323 84.88C352.549 84.5067 351.576 84.32 350.403 84.32C348.296 84.32 346.856 84.8533 346.083 85.92C345.309 86.96 344.923 88.4 344.923 90.24V91.44C344.923 92.7733 345.083 93.9067 345.403 94.84C345.749 95.7467 346.336 96.4267 347.163 96.88C347.989 97.3333 349.123 97.56 350.563 97.56C352.243 97.56 353.429 97.2933 354.123 96.76C354.816 96.2267 355.163 95.52 355.163 94.64V94.32H359.443V94.68C359.443 96.04 359.069 97.2267 358.323 98.24C357.576 99.2267 356.536 100 355.203 100.56C353.896 101.12 352.336 101.4 350.523 101.4ZM382.624 101.4C380.091 101.4 377.877 100.84 375.984 99.72C374.117 98.5733 372.664 96.9733 371.624 94.92C370.611 92.84 370.104 90.4 370.104 87.6C370.104 84.8 370.611 82.3733 371.624 80.32C372.664 78.24 374.117 76.64 375.984 75.52C377.877 74.3733 380.091 73.8 382.624 73.8C385.184 73.8 387.397 74.3733 389.264 75.52C391.131 76.64 392.571 78.24 393.584 80.32C394.597 82.3733 395.104 84.8 395.104 87.6C395.104 90.4 394.597 92.84 393.584 94.92C392.571 96.9733 391.131 98.5733 389.264 99.72C387.397 100.84 385.184 101.4 382.624 101.4ZM382.624 97.2C384.491 97.2 385.997 96.8933 387.144 96.28C388.291 95.64 389.131 94.6133 389.664 93.2C390.224 91.7867 390.504 89.92 390.504 87.6C390.504 85.2533 390.224 83.3867 389.664 82C389.131 80.5867 388.291 79.56 387.144 78.92C385.997 78.28 384.491 77.96 382.624 77.96C380.784 77.96 379.277 78.28 378.104 78.92C376.931 79.56 376.064 80.5867 375.504 82C374.971 83.3867 374.704 85.2533 374.704 87.6C374.704 89.92 374.971 91.7867 375.504 93.2C376.064 94.6133 376.931 95.64 378.104 96.28C379.277 96.8933 380.784 97.2 382.624 97.2ZM408.593 101H404.313V74.2H408.593V101ZM417.713 78.08H395.193V74.2H417.713V78.08ZM430.859 92.36H421.099V88.48H431.379C433.139 88.48 434.392 88.0933 435.139 87.32C435.912 86.5467 436.299 85.2 436.299 83.28C436.299 81.36 435.912 80.0133 435.139 79.24C434.392 78.4667 433.139 78.08 431.379 78.08H421.099V74.2H430.859C432.725 74.2 434.392 74.56 435.859 75.28C437.325 76 438.472 77.04 439.299 78.4C440.152 79.7333 440.579 81.36 440.579 83.28C440.579 85.2 440.152 86.84 439.299 88.2C438.472 89.56 437.325 90.6 435.859 91.32C434.392 92.0133 432.725 92.36 430.859 92.36ZM423.779 101H419.459V74.2H423.779V101ZM459.535 101.4C456.628 101.4 454.428 100.827 452.935 99.68C451.441 98.5067 450.695 96.7067 450.695 94.28V94.2H454.855V94.92C454.855 95.6133 454.988 96.1867 455.255 96.64C455.548 97.0667 456.028 97.3867 456.695 97.6C457.388 97.7867 458.361 97.88 459.615 97.88C460.681 97.88 461.481 97.8 462.015 97.64C462.575 97.4533 462.948 97.2 463.135 96.88C463.321 96.56 463.415 96.16 463.415 95.68C463.415 94.88 463.135 94.32 462.575 94C462.015 93.6533 461.015 93.3467 459.575 93.08L456.455 92.56C455.281 92.32 454.255 91.9867 453.375 91.56C452.521 91.1067 451.855 90.4933 451.375 89.72C450.921 88.92 450.695 87.92 450.695 86.72C450.695 84.9333 451.401 83.4933 452.815 82.4C454.228 81.28 456.228 80.72 458.815 80.72C460.388 80.72 461.788 80.9733 463.015 81.48C464.241 81.9867 465.215 82.7467 465.935 83.76C466.655 84.7733 467.015 86.04 467.015 87.56V87.92H462.895V87.44C462.895 86.8 462.788 86.2533 462.575 85.8C462.361 85.32 461.961 84.9467 461.375 84.68C460.788 84.4133 459.895 84.28 458.695 84.28C457.121 84.28 456.081 84.48 455.575 84.88C455.068 85.28 454.815 85.8667 454.815 86.64C454.815 87.4133 455.041 87.96 455.495 88.28C455.975 88.5733 456.908 88.8667 458.295 89.16L461.695 89.8C462.975 90.04 464.041 90.4 464.895 90.88C465.748 91.36 466.388 91.9867 466.815 92.76C467.268 93.5333 467.495 94.4533 467.495 95.52C467.495 97.3867 466.788 98.84 465.375 99.88C463.988 100.893 462.041 101.4 459.535 101.4ZM479.819 101.4C477.659 101.4 475.859 100.973 474.419 100.12C472.979 99.24 471.913 98.0267 471.219 96.48C470.526 94.9067 470.179 93.0933 470.179 91.04C470.179 88.9867 470.566 87.1867 471.339 85.64C472.139 84.0933 473.259 82.8933 474.699 82.04C476.139 81.16 477.846 80.72 479.819 80.72C481.606 80.72 483.179 81.0667 484.539 81.76C485.926 82.4267 486.993 83.4 487.739 84.68C488.513 85.96 488.899 87.5067 488.899 89.32C488.899 89.8533 488.873 90.3733 488.819 90.88C488.793 91.36 488.753 91.76 488.699 92.08H472.219V89.2H485.179L484.739 89.6C484.846 88.3733 484.713 87.3733 484.339 86.6C483.993 85.8267 483.419 85.2533 482.619 84.88C481.846 84.5067 480.873 84.32 479.699 84.32C477.593 84.32 476.153 84.8533 475.379 85.92C474.606 86.96 474.219 88.4 474.219 90.24V91.44C474.219 92.7733 474.379 93.9067 474.699 94.84C475.046 95.7467 475.633 96.4267 476.459 96.88C477.286 97.3333 478.419 97.56 479.859 97.56C481.539 97.56 482.726 97.2933 483.419 96.76C484.113 96.2267 484.459 95.52 484.459 94.64V94.32H488.739V94.68C488.739 96.04 488.366 97.2267 487.619 98.24C486.873 99.2267 485.833 100 484.499 100.56C483.193 101.12 481.633 101.4 479.819 101.4ZM510.867 101H506.547V89.44C506.547 87.68 506.213 86.4133 505.547 85.64C504.88 84.84 503.627 84.44 501.787 84.44C500.613 84.44 499.653 84.6133 498.907 84.96C498.16 85.28 497.6 85.8133 497.227 86.56C496.853 87.28 496.667 88.2667 496.667 89.52H495.907L495.547 84.84H496.507C496.8 84.12 497.24 83.4533 497.827 82.84C498.413 82.2267 499.16 81.72 500.067 81.32C501 80.92 502.107 80.72 503.387 80.72C505.12 80.72 506.533 81.0533 507.627 81.72C508.72 82.3867 509.533 83.3067 510.067 84.48C510.6 85.6533 510.867 87 510.867 88.52V101ZM496.667 101H492.347V81.12H496.307V87.08L496.667 87.28V101ZM523.088 101C520.902 101 519.222 100.533 518.048 99.6C516.902 98.6667 516.328 97.0933 516.328 94.88V81.56L517.328 76.2H520.648V94.68C520.648 95.72 520.902 96.3867 521.408 96.68C521.942 96.9467 522.888 97.08 524.248 97.08H526.648V100.64C526.248 100.747 525.728 100.84 525.088 100.92C524.448 100.973 523.782 101 523.088 101ZM526.648 84.72H513.008V81.12H526.648V84.72ZM545.471 101C543.285 101 541.605 100.533 540.431 99.6C539.285 98.6667 538.711 97.0933 538.711 94.88V81.56L539.711 76.2H543.031V94.68C543.031 95.72 543.285 96.3867 543.791 96.68C544.325 96.9467 545.271 97.08 546.631 97.08H549.031V100.64C548.631 100.747 548.111 100.84 547.471 100.92C546.831 100.973 546.165 101 545.471 101ZM549.031 84.72H535.391V81.12H549.031V84.72ZM560.373 101.4C558.346 101.4 556.586 100.973 555.093 100.12C553.599 99.24 552.453 98.0267 551.653 96.48C550.853 94.9067 550.453 93.0933 550.453 91.04C550.453 88.9867 550.853 87.1867 551.653 85.64C552.453 84.0933 553.599 82.8933 555.093 82.04C556.586 81.16 558.346 80.72 560.373 80.72C562.399 80.72 564.133 81.16 565.573 82.04C567.039 82.8933 568.159 84.0933 568.933 85.64C569.733 87.1867 570.133 88.9867 570.133 91.04C570.133 93.0933 569.733 94.9067 568.933 96.48C568.159 98.0267 567.039 99.24 565.573 100.12C564.133 100.973 562.399 101.4 560.373 101.4ZM560.373 97.56C562.453 97.56 563.906 97.04 564.733 96C565.559 94.9333 565.973 93.28 565.973 91.04C565.973 88.8 565.559 87.16 564.733 86.12C563.906 85.08 562.453 84.56 560.373 84.56C558.266 84.56 556.799 85.08 555.973 86.12C555.146 87.16 554.733 88.8 554.733 91.04C554.733 93.28 555.146 94.9333 555.973 96C556.799 97.04 558.266 97.56 560.373 97.56ZM584.497 107.8C583.963 107.8 583.417 107.76 582.857 107.68C582.297 107.627 581.843 107.547 581.497 107.44V103.92H584.257C585.083 103.92 585.697 103.8 586.097 103.56C586.497 103.347 586.87 102.88 587.217 102.16L588.457 99.36L588.097 100.76L579.497 81.12H584.257L588.257 90.76L590.057 95.08H590.417L592.017 90.76L595.657 81.12H600.457L591.017 103.32C590.537 104.52 589.99 105.44 589.377 106.08C588.763 106.72 588.057 107.16 587.257 107.4C586.483 107.667 585.563 107.8 584.497 107.8ZM610.842 101.4C608.815 101.4 607.055 100.973 605.562 100.12C604.068 99.24 602.922 98.0267 602.122 96.48C601.322 94.9067 600.922 93.0933 600.922 91.04C600.922 88.9867 601.322 87.1867 602.122 85.64C602.922 84.0933 604.068 82.8933 605.562 82.04C607.055 81.16 608.815 80.72 610.842 80.72C612.868 80.72 614.602 81.16 616.042 82.04C617.508 82.8933 618.628 84.0933 619.402 85.64C620.202 87.1867 620.602 88.9867 620.602 91.04C620.602 93.0933 620.202 94.9067 619.402 96.48C618.628 98.0267 617.508 99.24 616.042 100.12C614.602 100.973 612.868 101.4 610.842 101.4ZM610.842 97.56C612.922 97.56 614.375 97.04 615.202 96C616.028 94.9333 616.442 93.28 616.442 91.04C616.442 88.8 616.028 87.16 615.202 86.12C614.375 85.08 612.922 84.56 610.842 84.56C608.735 84.56 607.268 85.08 606.442 86.12C605.615 87.16 605.202 88.8 605.202 91.04C605.202 93.28 605.615 94.9333 606.442 96C607.268 97.04 608.735 97.56 610.842 97.56ZM631.231 101.4C629.524 101.4 628.111 101.053 626.991 100.36C625.871 99.64 625.044 98.68 624.511 97.48C623.978 96.2533 623.711 94.8933 623.711 93.4V81.12H628.031V92.6C628.031 94.3867 628.404 95.68 629.151 96.48C629.898 97.28 631.124 97.68 632.831 97.68C633.951 97.68 634.898 97.5067 635.671 97.16C636.444 96.7867 637.031 96.2133 637.431 95.44C637.831 94.64 638.031 93.6 638.031 92.32H639.151V97.04H638.191C637.898 97.7867 637.444 98.4933 636.831 99.16C636.244 99.8267 635.484 100.373 634.551 100.8C633.644 101.2 632.538 101.4 631.231 101.4ZM642.351 101H638.351V95.04L638.031 94.84V81.12H642.351V101ZM650.924 101H646.604V81H650.564V86.56L650.924 86.76V101ZM650.924 88.04H649.924V84.16H650.764C651.164 83.2267 651.818 82.4267 652.724 81.76C653.658 81.0667 654.858 80.72 656.324 80.72C657.738 80.72 658.858 81.0267 659.684 81.64C660.538 82.2533 661.151 83.0667 661.524 84.08C661.898 85.0933 662.084 86.2267 662.084 87.48V88.8H657.764V88C657.764 86.6667 657.538 85.7333 657.084 85.2C656.631 84.6667 655.778 84.4 654.524 84.4C653.218 84.4 652.284 84.68 651.724 85.24C651.191 85.7733 650.924 86.7067 650.924 88.04ZM224.323 150H220.003V130H223.963V135.56L224.323 135.76V150ZM224.323 137.04H223.323V133.16H224.163C224.563 132.227 225.216 131.427 226.123 130.76C227.056 130.067 228.256 129.72 229.723 129.72C231.136 129.72 232.256 130.027 233.083 130.64C233.936 131.253 234.549 132.067 234.923 133.08C235.296 134.093 235.483 135.227 235.483 136.48V137.8H231.163V137C231.163 135.667 230.936 134.733 230.483 134.2C230.029 133.667 229.176 133.4 227.923 133.4C226.616 133.4 225.683 133.68 225.123 134.24C224.589 134.773 224.323 135.707 224.323 137.04ZM247.085 150.4C244.925 150.4 243.125 149.973 241.685 149.12C240.245 148.24 239.178 147.027 238.485 145.48C237.792 143.907 237.445 142.093 237.445 140.04C237.445 137.987 237.832 136.187 238.605 134.64C239.405 133.093 240.525 131.893 241.965 131.04C243.405 130.16 245.112 129.72 247.085 129.72C248.872 129.72 250.445 130.067 251.805 130.76C253.192 131.427 254.258 132.4 255.005 133.68C255.778 134.96 256.165 136.507 256.165 138.32C256.165 138.853 256.138 139.373 256.085 139.88C256.058 140.36 256.018 140.76 255.965 141.08H239.485V138.2H252.445L252.005 138.6C252.112 137.373 251.978 136.373 251.605 135.6C251.258 134.827 250.685 134.253 249.885 133.88C249.112 133.507 248.138 133.32 246.965 133.32C244.858 133.32 243.418 133.853 242.645 134.92C241.872 135.96 241.485 137.4 241.485 139.24V140.44C241.485 141.773 241.645 142.907 241.965 143.84C242.312 144.747 242.898 145.427 243.725 145.88C244.552 146.333 245.685 146.56 247.125 146.56C248.805 146.56 249.992 146.293 250.685 145.76C251.378 145.227 251.725 144.52 251.725 143.64V143.32H256.005V143.68C256.005 145.04 255.632 146.227 254.885 147.24C254.138 148.227 253.098 149 251.765 149.56C250.458 150.12 248.898 150.4 247.085 150.4ZM269.208 157.2C267.341 157.2 265.714 156.907 264.328 156.32C262.968 155.733 261.914 154.88 261.168 153.76C260.421 152.667 260.048 151.32 260.048 149.72H264.368C264.368 150.627 264.501 151.347 264.768 151.88C265.034 152.413 265.528 152.787 266.248 153C266.968 153.24 267.994 153.36 269.328 153.36C270.634 153.36 271.634 153.213 272.328 152.92C273.021 152.627 273.501 152.133 273.768 151.44C274.034 150.747 274.168 149.787 274.168 148.56V135.36L274.488 134.84V130.12H278.488V148.56C278.488 150.507 278.114 152.107 277.368 153.36C276.621 154.64 275.554 155.6 274.168 156.24C272.808 156.88 271.154 157.2 269.208 157.2ZM267.528 148.12C264.781 148.12 262.674 147.293 261.208 145.64C259.741 143.96 259.007 141.72 259.007 138.92C259.007 136.12 259.754 133.893 261.248 132.24C262.741 130.56 264.888 129.72 267.688 129.72C269.314 129.72 270.714 130.053 271.888 130.72C273.061 131.36 273.874 132.253 274.328 133.4H275.128L274.928 138.28H274.168C274.168 137.16 273.941 136.24 273.488 135.52C273.034 134.8 272.394 134.267 271.568 133.92C270.741 133.573 269.781 133.4 268.688 133.4C267.434 133.4 266.408 133.573 265.608 133.92C264.834 134.267 264.261 134.853 263.888 135.68C263.514 136.48 263.328 137.56 263.328 138.92C263.328 139.933 263.434 140.8 263.648 141.52C263.861 142.213 264.194 142.773 264.648 143.2C265.101 143.627 265.674 143.947 266.368 144.16C267.061 144.347 267.861 144.44 268.768 144.44C269.861 144.44 270.808 144.267 271.608 143.92C272.408 143.547 273.034 143 273.488 142.28C273.941 141.56 274.168 140.64 274.168 139.52H275.048V144.6H274.008C273.554 145.56 272.768 146.387 271.648 147.08C270.528 147.773 269.154 148.12 267.528 148.12ZM286.777 127.6H282.497L282.457 123.2H286.777V127.6ZM286.817 150H282.497V130H286.817V150ZM299.027 150.4C296.12 150.4 293.92 149.827 292.427 148.68C290.934 147.507 290.187 145.707 290.187 143.28V143.2H294.347V143.92C294.347 144.613 294.48 145.187 294.747 145.64C295.04 146.067 295.52 146.387 296.187 146.6C296.88 146.787 297.854 146.88 299.107 146.88C300.174 146.88 300.974 146.8 301.507 146.64C302.067 146.453 302.44 146.2 302.627 145.88C302.814 145.56 302.907 145.16 302.907 144.68C302.907 143.88 302.627 143.32 302.067 143C301.507 142.653 300.507 142.347 299.067 142.08L295.947 141.56C294.774 141.32 293.747 140.987 292.867 140.56C292.014 140.107 291.347 139.493 290.867 138.72C290.414 137.92 290.187 136.92 290.187 135.72C290.187 133.933 290.894 132.493 292.307 131.4C293.72 130.28 295.72 129.72 298.307 129.72C299.88 129.72 301.28 129.973 302.507 130.48C303.734 130.987 304.707 131.747 305.427 132.76C306.147 133.773 306.507 135.04 306.507 136.56V136.92H302.387V136.44C302.387 135.8 302.28 135.253 302.067 134.8C301.854 134.32 301.454 133.947 300.867 133.68C300.28 133.413 299.387 133.28 298.187 133.28C296.614 133.28 295.574 133.48 295.067 133.88C294.56 134.28 294.307 134.867 294.307 135.64C294.307 136.413 294.534 136.96 294.987 137.28C295.467 137.573 296.4 137.867 297.787 138.16L301.187 138.8C302.467 139.04 303.534 139.4 304.387 139.88C305.24 140.36 305.88 140.987 306.307 141.76C306.76 142.533 306.987 143.453 306.987 144.52C306.987 146.387 306.28 147.84 304.867 148.88C303.48 149.893 301.534 150.4 299.027 150.4ZM318.557 150C316.371 150 314.691 149.533 313.517 148.6C312.371 147.667 311.797 146.093 311.797 143.88V130.56L312.797 125.2H316.117V143.68C316.117 144.72 316.371 145.387 316.877 145.68C317.411 145.947 318.357 146.08 319.717 146.08H322.117V149.64C321.717 149.747 321.197 149.84 320.557 149.92C319.917 149.973 319.251 150 318.557 150ZM322.117 133.72H308.477V130.12H322.117V133.72ZM333.179 150.4C331.019 150.4 329.219 149.973 327.779 149.12C326.339 148.24 325.272 147.027 324.579 145.48C323.885 143.907 323.539 142.093 323.539 140.04C323.539 137.987 323.925 136.187 324.699 134.64C325.499 133.093 326.619 131.893 328.059 131.04C329.499 130.16 331.205 129.72 333.179 129.72C334.965 129.72 336.539 130.067 337.899 130.76C339.285 131.427 340.352 132.4 341.099 133.68C341.872 134.96 342.259 136.507 342.259 138.32C342.259 138.853 342.232 139.373 342.179 139.88C342.152 140.36 342.112 140.76 342.059 141.08H325.579V138.2H338.539L338.099 138.6C338.205 137.373 338.072 136.373 337.699 135.6C337.352 134.827 336.779 134.253 335.979 133.88C335.205 133.507 334.232 133.32 333.059 133.32C330.952 133.32 329.512 133.853 328.739 134.92C327.965 135.96 327.579 137.4 327.579 139.24V140.44C327.579 141.773 327.739 142.907 328.059 143.84C328.405 144.747 328.992 145.427 329.819 145.88C330.645 146.333 331.779 146.56 333.219 146.56C334.899 146.56 336.085 146.293 336.779 145.76C337.472 145.227 337.819 144.52 337.819 143.64V143.32H342.099V143.68C342.099 145.04 341.725 146.227 340.979 147.24C340.232 148.227 339.192 149 337.859 149.56C336.552 150.12 334.992 150.4 333.179 150.4ZM350.026 150H345.706V130H349.666V135.56L350.026 135.76V150ZM350.026 137.04H349.026V133.16H349.866C350.266 132.227 350.919 131.427 351.826 130.76C352.759 130.067 353.959 129.72 355.426 129.72C356.839 129.72 357.959 130.027 358.786 130.64C359.639 131.253 360.253 132.067 360.626 133.08C360.999 134.093 361.186 135.227 361.186 136.48V137.8H356.866V137C356.866 135.667 356.639 134.733 356.186 134.2C355.733 133.667 354.879 133.4 353.626 133.4C352.319 133.4 351.386 133.68 350.826 134.24C350.293 134.773 350.026 135.707 350.026 137.04ZM372.788 150.4C370.628 150.4 368.828 149.973 367.388 149.12C365.948 148.24 364.881 147.027 364.188 145.48C363.495 143.907 363.148 142.093 363.148 140.04C363.148 137.987 363.535 136.187 364.308 134.64C365.108 133.093 366.228 131.893 367.668 131.04C369.108 130.16 370.815 129.72 372.788 129.72C374.575 129.72 376.148 130.067 377.508 130.76C378.895 131.427 379.961 132.4 380.708 133.68C381.481 134.96 381.868 136.507 381.868 138.32C381.868 138.853 381.841 139.373 381.788 139.88C381.761 140.36 381.721 140.76 381.668 141.08H365.188V138.2H378.148L377.708 138.6C377.815 137.373 377.681 136.373 377.308 135.6C376.961 134.827 376.388 134.253 375.588 133.88C374.815 133.507 373.841 133.32 372.668 133.32C370.561 133.32 369.121 133.853 368.348 134.92C367.575 135.96 367.188 137.4 367.188 139.24V140.44C367.188 141.773 367.348 142.907 367.668 143.84C368.015 144.747 368.601 145.427 369.428 145.88C370.255 146.333 371.388 146.56 372.828 146.56C374.508 146.56 375.695 146.293 376.388 145.76C377.081 145.227 377.428 144.52 377.428 143.64V143.32H381.708V143.68C381.708 145.04 381.335 146.227 380.588 147.24C379.841 148.227 378.801 149 377.468 149.56C376.161 150.12 374.601 150.4 372.788 150.4ZM393.471 150.4C390.644 150.4 388.471 149.467 386.951 147.6C385.457 145.707 384.711 143.187 384.711 140.04C384.711 136.893 385.444 134.387 386.911 132.52C388.404 130.653 390.511 129.72 393.231 129.72C394.991 129.72 396.404 130.08 397.471 130.8C398.564 131.493 399.324 132.293 399.751 133.2H400.831L400.631 138.28H399.871C399.871 137.16 399.657 136.24 399.231 135.52C398.804 134.8 398.191 134.267 397.391 133.92C396.591 133.573 395.604 133.4 394.431 133.4C393.471 133.4 392.644 133.52 391.951 133.76C391.284 134 390.724 134.373 390.271 134.88C389.844 135.387 389.524 136.067 389.311 136.92C389.124 137.773 389.031 138.813 389.031 140.04C389.031 141.24 389.124 142.28 389.311 143.16C389.524 144.013 389.844 144.707 390.271 145.24C390.724 145.747 391.297 146.12 391.991 146.36C392.684 146.6 393.497 146.72 394.431 146.72C395.604 146.72 396.591 146.547 397.391 146.2C398.191 145.827 398.804 145.28 399.231 144.56C399.657 143.84 399.871 142.933 399.871 141.84H400.631L400.831 146.72H400.031C399.577 147.867 398.791 148.773 397.671 149.44C396.577 150.08 395.177 150.4 393.471 150.4ZM404.191 150H400.191V145.28L399.871 144.76V123.2H404.191V150ZM424.819 150.4C422.659 150.4 420.859 149.973 419.419 149.12C417.979 148.24 416.913 147.027 416.219 145.48C415.526 143.907 415.179 142.093 415.179 140.04C415.179 137.987 415.566 136.187 416.339 134.64C417.139 133.093 418.259 131.893 419.699 131.04C421.139 130.16 422.846 129.72 424.819 129.72C426.606 129.72 428.179 130.067 429.539 130.76C430.926 131.427 431.993 132.4 432.739 133.68C433.513 134.96 433.899 136.507 433.899 138.32C433.899 138.853 433.873 139.373 433.819 139.88C433.793 140.36 433.753 140.76 433.699 141.08H417.219V138.2H430.179L429.739 138.6C429.846 137.373 429.713 136.373 429.339 135.6C428.993 134.827 428.419 134.253 427.619 133.88C426.846 133.507 425.873 133.32 424.699 133.32C422.593 133.32 421.153 133.853 420.379 134.92C419.606 135.96 419.219 137.4 419.219 139.24V140.44C419.219 141.773 419.379 142.907 419.699 143.84C420.046 144.747 420.633 145.427 421.459 145.88C422.286 146.333 423.419 146.56 424.859 146.56C426.539 146.56 427.726 146.293 428.419 145.76C429.113 145.227 429.459 144.52 429.459 143.64V143.32H433.739V143.68C433.739 145.04 433.366 146.227 432.619 147.24C431.873 148.227 430.833 149 429.499 149.56C428.193 150.12 426.633 150.4 424.819 150.4ZM469.267 150H464.947V138.44C464.947 136.68 464.613 135.413 463.947 134.64C463.307 133.84 462.08 133.44 460.267 133.44C458.64 133.44 457.427 133.827 456.627 134.6C455.853 135.347 455.467 136.627 455.467 138.44L454.707 138.52L454.347 133.84H454.987C455.307 133.147 455.747 132.493 456.307 131.88C456.893 131.24 457.64 130.72 458.547 130.32C459.453 129.92 460.56 129.72 461.867 129.72C463.6 129.72 465 130.053 466.067 130.72C467.16 131.387 467.96 132.307 468.467 133.48C469 134.653 469.267 136 469.267 137.52V150ZM441.667 150H437.347V130.12H441.307V136.08L441.667 136.28V150ZM455.467 150H451.147V138.44C451.147 136.68 450.813 135.413 450.147 134.64C449.507 133.84 448.28 133.44 446.467 133.44C444.84 133.44 443.627 133.813 442.827 134.56C442.053 135.307 441.667 136.587 441.667 138.4L440.907 138.52L440.547 133.84H441.507C441.8 133.12 442.227 132.453 442.787 131.84C443.373 131.227 444.12 130.72 445.027 130.32C445.933 129.92 447.013 129.72 448.267 129.72C449.947 129.72 451.307 130.053 452.347 130.72C453.413 131.387 454.2 132.307 454.707 133.48C455.213 134.653 455.467 136 455.467 137.52V150ZM490.163 150H486.163V146.08L486.043 145V137.36C486.043 135.867 485.683 134.853 484.963 134.32C484.27 133.787 483.136 133.52 481.563 133.52C479.99 133.52 478.856 133.8 478.163 134.36C477.496 134.92 477.163 135.853 477.163 137.16V137.76H473.003V137.36C473.003 135.867 473.363 134.547 474.083 133.4C474.83 132.253 475.856 131.36 477.163 130.72C478.496 130.053 480.043 129.72 481.803 129.72C483.67 129.72 485.216 130.067 486.443 130.76C487.67 131.453 488.59 132.413 489.203 133.64C489.843 134.84 490.163 136.267 490.163 137.92V150ZM478.763 150.4C476.976 150.4 475.47 149.947 474.243 149.04C473.043 148.107 472.443 146.787 472.443 145.08C472.443 143.96 472.696 143.027 473.203 142.28C473.736 141.533 474.496 140.92 475.483 140.44C476.47 139.96 477.67 139.627 479.083 139.44L486.443 138.4V141.44L479.723 142.44C478.576 142.6 477.776 142.84 477.323 143.16C476.87 143.48 476.643 144.013 476.643 144.76C476.643 145.533 476.91 146.093 477.443 146.44C478.003 146.787 478.91 146.96 480.163 146.96C481.123 146.96 482.043 146.813 482.923 146.52C483.83 146.2 484.576 145.68 485.163 144.96C485.75 144.213 486.043 143.173 486.043 141.84L486.603 146.92L485.963 146.88C485.59 147.493 485.07 148.067 484.403 148.6C483.763 149.133 482.976 149.573 482.043 149.92C481.11 150.24 480.016 150.4 478.763 150.4ZM498.34 127.6H494.06L494.02 123.2H498.34V127.6ZM498.38 150H494.06V130H498.38V150ZM506.667 150H502.347V123.2H506.667V150ZM526.76 150C524.574 150 522.894 149.533 521.72 148.6C520.574 147.667 520 146.093 520 143.88V130.56L521 125.2H524.32V143.68C524.32 144.72 524.574 145.387 525.08 145.68C525.614 145.947 526.56 146.08 527.92 146.08H530.32V149.64C529.92 149.747 529.4 149.84 528.76 149.92C528.12 149.973 527.454 150 526.76 150ZM530.32 133.72H516.68V130.12H530.32V133.72ZM541.662 150.4C539.635 150.4 537.875 149.973 536.382 149.12C534.889 148.24 533.742 147.027 532.942 145.48C532.142 143.907 531.742 142.093 531.742 140.04C531.742 137.987 532.142 136.187 532.942 134.64C533.742 133.093 534.889 131.893 536.382 131.04C537.875 130.16 539.635 129.72 541.662 129.72C543.689 129.72 545.422 130.16 546.862 131.04C548.329 131.893 549.449 133.093 550.222 134.64C551.022 136.187 551.422 137.987 551.422 140.04C551.422 142.093 551.022 143.907 550.222 145.48C549.449 147.027 548.329 148.24 546.862 149.12C545.422 149.973 543.689 150.4 541.662 150.4ZM541.662 146.56C543.742 146.56 545.195 146.04 546.022 145C546.849 143.933 547.262 142.28 547.262 140.04C547.262 137.8 546.849 136.16 546.022 135.12C545.195 134.08 543.742 133.56 541.662 133.56C539.555 133.56 538.089 134.08 537.262 135.12C536.435 136.16 536.022 137.8 536.022 140.04C536.022 142.28 536.435 143.933 537.262 145C538.089 146.04 539.555 146.56 541.662 146.56ZM573.946 150H568.466L560.506 130.12H565.306L571.106 145.88H571.386L577.226 130.12H581.906L573.946 150ZM592.007 150.4C589.847 150.4 588.047 149.973 586.607 149.12C585.167 148.24 584.1 147.027 583.407 145.48C582.714 143.907 582.367 142.093 582.367 140.04C582.367 137.987 582.754 136.187 583.527 134.64C584.327 133.093 585.447 131.893 586.887 131.04C588.327 130.16 590.034 129.72 592.007 129.72C593.794 129.72 595.367 130.067 596.727 130.76C598.114 131.427 599.18 132.4 599.927 133.68C600.7 134.96 601.087 136.507 601.087 138.32C601.087 138.853 601.06 139.373 601.007 139.88C600.98 140.36 600.94 140.76 600.887 141.08H584.407V138.2H597.367L596.927 138.6C597.034 137.373 596.9 136.373 596.527 135.6C596.18 134.827 595.607 134.253 594.807 133.88C594.034 133.507 593.06 133.32 591.887 133.32C589.78 133.32 588.34 133.853 587.567 134.92C586.794 135.96 586.407 137.4 586.407 139.24V140.44C586.407 141.773 586.567 142.907 586.887 143.84C587.234 144.747 587.82 145.427 588.647 145.88C589.474 146.333 590.607 146.56 592.047 146.56C593.727 146.56 594.914 146.293 595.607 145.76C596.3 145.227 596.647 144.52 596.647 143.64V143.32H600.927V143.68C600.927 145.04 600.554 146.227 599.807 147.24C599.06 148.227 598.02 149 596.687 149.56C595.38 150.12 593.82 150.4 592.007 150.4ZM608.854 150H604.534V130H608.494V135.56L608.854 135.76V150ZM608.854 137.04H607.854V133.16H608.694C609.094 132.227 609.747 131.427 610.654 130.76C611.587 130.067 612.787 129.72 614.254 129.72C615.667 129.72 616.787 130.027 617.614 130.64C618.467 131.253 619.081 132.067 619.454 133.08C619.827 134.093 620.014 135.227 620.014 136.48V137.8H615.694V137C615.694 135.667 615.467 134.733 615.014 134.2C614.561 133.667 613.707 133.4 612.454 133.4C611.147 133.4 610.214 133.68 609.654 134.24C609.121 134.773 608.854 135.707 608.854 137.04ZM626.582 127.6H622.302L622.262 123.2H626.582V127.6ZM626.622 150H622.302V130H626.622V150ZM635.793 150H631.473V130.28C631.473 128.733 631.766 127.44 632.353 126.4C632.939 125.36 633.806 124.573 634.953 124.04C636.126 123.48 637.566 123.2 639.273 123.2C639.539 123.2 639.806 123.2 640.072 123.2C640.339 123.2 640.606 123.2 640.873 123.2V126.64H638.473C637.513 126.64 636.806 126.827 636.353 127.2C635.899 127.573 635.673 128.187 635.673 129.04V130.8L635.793 131.84V150ZM640.873 133.72H628.553V130.12H640.873V133.72ZM646.645 156.8C646.112 156.8 645.565 156.76 645.005 156.68C644.445 156.627 643.992 156.547 643.645 156.44V152.92H646.405C647.232 152.92 647.845 152.8 648.245 152.56C648.645 152.347 649.018 151.88 649.365 151.16L650.605 148.36L650.245 149.76L641.645 130.12H646.405L650.405 139.76L652.205 144.08H652.565L654.165 139.76L657.805 130.12H662.605L653.165 152.32C652.685 153.52 652.138 154.44 651.525 155.08C650.912 155.72 650.205 156.16 649.405 156.4C648.632 156.667 647.712 156.8 646.645 156.8ZM457.233 199H453.233V195.08L453.113 194V186.36C453.113 184.867 452.753 183.853 452.033 183.32C451.34 182.787 450.207 182.52 448.633 182.52C447.06 182.52 445.927 182.8 445.233 183.36C444.567 183.92 444.233 184.853 444.233 186.16V186.76H440.073V186.36C440.073 184.867 440.433 183.547 441.153 182.4C441.9 181.253 442.927 180.36 444.233 179.72C445.567 179.053 447.113 178.72 448.873 178.72C450.74 178.72 452.287 179.067 453.513 179.76C454.74 180.453 455.66 181.413 456.273 182.64C456.913 183.84 457.233 185.267 457.233 186.92V199ZM445.833 199.4C444.047 199.4 442.54 198.947 441.313 198.04C440.113 197.107 439.513 195.787 439.513 194.08C439.513 192.96 439.767 192.027 440.273 191.28C440.807 190.533 441.567 189.92 442.553 189.44C443.54 188.96 444.74 188.627 446.153 188.44L453.513 187.4V190.44L446.793 191.44C445.647 191.6 444.847 191.84 444.393 192.16C443.94 192.48 443.713 193.013 443.713 193.76C443.713 194.533 443.98 195.093 444.513 195.44C445.073 195.787 445.98 195.96 447.233 195.96C448.193 195.96 449.113 195.813 449.993 195.52C450.9 195.2 451.647 194.68 452.233 193.96C452.82 193.213 453.113 192.173 453.113 190.84L453.673 195.92L453.033 195.88C452.66 196.493 452.14 197.067 451.473 197.6C450.833 198.133 450.047 198.573 449.113 198.92C448.18 199.24 447.087 199.4 445.833 199.4ZM479.89 199H475.57V187.44C475.57 185.68 475.237 184.413 474.57 183.64C473.903 182.84 472.65 182.44 470.81 182.44C469.637 182.44 468.677 182.613 467.93 182.96C467.183 183.28 466.623 183.813 466.25 184.56C465.877 185.28 465.69 186.267 465.69 187.52H464.93L464.57 182.84H465.53C465.823 182.12 466.263 181.453 466.85 180.84C467.437 180.227 468.183 179.72 469.09 179.32C470.023 178.92 471.13 178.72 472.41 178.72C474.143 178.72 475.557 179.053 476.65 179.72C477.743 180.387 478.557 181.307 479.09 182.48C479.623 183.653 479.89 185 479.89 186.52V199ZM465.69 199H461.37V179.12H465.33V185.08L465.69 185.28V199ZM491.908 199.4C489.081 199.4 486.908 198.467 485.388 196.6C483.895 194.707 483.148 192.187 483.148 189.04C483.148 185.893 483.881 183.387 485.348 181.52C486.841 179.653 488.948 178.72 491.668 178.72C493.428 178.72 494.841 179.08 495.908 179.8C497.001 180.493 497.761 181.293 498.188 182.2H499.268L499.068 187.28H498.308C498.308 186.16 498.095 185.24 497.668 184.52C497.241 183.8 496.628 183.267 495.828 182.92C495.028 182.573 494.041 182.4 492.868 182.4C491.908 182.4 491.081 182.52 490.388 182.76C489.721 183 489.161 183.373 488.708 183.88C488.281 184.387 487.961 185.067 487.748 185.92C487.561 186.773 487.468 187.813 487.468 189.04C487.468 190.24 487.561 191.28 487.748 192.16C487.961 193.013 488.281 193.707 488.708 194.24C489.161 194.747 489.735 195.12 490.428 195.36C491.121 195.6 491.935 195.72 492.868 195.72C494.041 195.72 495.028 195.547 495.828 195.2C496.628 194.827 497.241 194.28 497.668 193.56C498.095 192.84 498.308 191.933 498.308 190.84H499.068L499.268 195.72H498.468C498.015 196.867 497.228 197.773 496.108 198.44C495.015 199.08 493.615 199.4 491.908 199.4ZM502.628 199H498.628V194.28L498.308 193.76V172.2H502.628V199ZM525.297 199.4C523.51 199.4 522.057 199.053 520.937 198.36C519.844 197.64 519.084 196.827 518.657 195.92H517.577L517.777 190.84H518.537C518.537 191.933 518.737 192.84 519.137 193.56C519.564 194.28 520.19 194.827 521.017 195.2C521.844 195.547 522.83 195.72 523.977 195.72C524.91 195.72 525.724 195.6 526.417 195.36C527.11 195.12 527.67 194.747 528.097 194.24C528.55 193.733 528.87 193.053 529.057 192.2C529.27 191.32 529.377 190.267 529.377 189.04C529.377 187.813 529.27 186.787 529.057 185.96C528.87 185.107 528.55 184.413 528.097 183.88C527.67 183.347 527.11 182.973 526.417 182.76C525.75 182.52 524.937 182.4 523.977 182.4C522.83 182.4 521.844 182.587 521.017 182.96C520.19 183.307 519.564 183.84 519.137 184.56C518.737 185.253 518.537 186.16 518.537 187.28H517.777L517.577 182.4H518.377C518.857 181.253 519.644 180.36 520.737 179.72C521.857 179.053 523.284 178.72 525.017 178.72C527.817 178.72 529.964 179.653 531.457 181.52C532.95 183.387 533.697 185.893 533.697 189.04C533.697 192.187 532.977 194.707 531.537 196.6C530.097 198.467 528.017 199.4 525.297 199.4ZM518.537 205.92H514.257V179.12H518.177V183.84L518.537 184.36V205.92ZM541.471 199H537.151V179H541.111V184.56L541.471 184.76V199ZM541.471 186.04H540.471V182.16H541.311C541.711 181.227 542.365 180.427 543.271 179.76C544.205 179.067 545.405 178.72 546.871 178.72C548.285 178.72 549.405 179.027 550.231 179.64C551.085 180.253 551.698 181.067 552.071 182.08C552.445 183.093 552.631 184.227 552.631 185.48V186.8H548.311V186C548.311 184.667 548.085 183.733 547.631 183.2C547.178 182.667 546.325 182.4 545.071 182.4C543.765 182.4 542.831 182.68 542.271 183.24C541.738 183.773 541.471 184.707 541.471 186.04ZM564.513 199.4C562.487 199.4 560.727 198.973 559.233 198.12C557.74 197.24 556.593 196.027 555.793 194.48C554.993 192.907 554.593 191.093 554.593 189.04C554.593 186.987 554.993 185.187 555.793 183.64C556.593 182.093 557.74 180.893 559.233 180.04C560.727 179.16 562.487 178.72 564.513 178.72C566.54 178.72 568.273 179.16 569.713 180.04C571.18 180.893 572.3 182.093 573.073 183.64C573.873 185.187 574.273 186.987 574.273 189.04C574.273 191.093 573.873 192.907 573.073 194.48C572.3 196.027 571.18 197.24 569.713 198.12C568.273 198.973 566.54 199.4 564.513 199.4ZM564.513 195.56C566.593 195.56 568.047 195.04 568.873 194C569.7 192.933 570.113 191.28 570.113 189.04C570.113 186.8 569.7 185.16 568.873 184.12C568.047 183.08 566.593 182.56 564.513 182.56C562.407 182.56 560.94 183.08 560.113 184.12C559.287 185.16 558.873 186.8 558.873 189.04C558.873 191.28 559.287 192.933 560.113 194C560.94 195.04 562.407 195.56 564.513 195.56ZM586.618 199.44C584.538 199.44 582.778 199 581.338 198.12C579.898 197.24 578.791 196.027 578.018 194.48C577.271 192.933 576.898 191.133 576.898 189.08C576.898 187.027 577.285 185.227 578.058 183.68C578.858 182.107 579.991 180.893 581.458 180.04C582.925 179.16 584.698 178.72 586.778 178.72C588.538 178.72 590.085 179.053 591.418 179.72C592.751 180.387 593.778 181.32 594.498 182.52C595.245 183.72 595.618 185.12 595.618 186.72V187.08H591.338V186.84C591.338 185.373 590.938 184.307 590.138 183.64C589.365 182.947 588.151 182.6 586.498 182.6C584.578 182.6 583.205 183.147 582.378 184.24C581.578 185.307 581.178 186.907 581.178 189.04C581.178 191.2 581.578 192.827 582.378 193.92C583.205 194.987 584.578 195.52 586.498 195.52C588.151 195.52 589.365 195.187 590.138 194.52C590.938 193.827 591.338 192.76 591.338 191.32V191.08H595.618V191.44C595.618 192.987 595.245 194.373 594.498 195.6C593.751 196.8 592.698 197.747 591.338 198.44C590.005 199.107 588.431 199.44 586.618 199.44ZM607.905 199.4C605.745 199.4 603.945 198.973 602.505 198.12C601.065 197.24 599.999 196.027 599.305 194.48C598.612 192.907 598.265 191.093 598.265 189.04C598.265 186.987 598.652 185.187 599.425 183.64C600.225 182.093 601.345 180.893 602.785 180.04C604.225 179.16 605.932 178.72 607.905 178.72C609.692 178.72 611.265 179.067 612.625 179.76C614.012 180.427 615.079 181.4 615.825 182.68C616.599 183.96 616.985 185.507 616.985 187.32C616.985 187.853 616.959 188.373 616.905 188.88C616.879 189.36 616.839 189.76 616.785 190.08H600.305V187.2H613.265L612.825 187.6C612.932 186.373 612.799 185.373 612.425 184.6C612.079 183.827 611.505 183.253 610.705 182.88C609.932 182.507 608.959 182.32 607.785 182.32C605.679 182.32 604.239 182.853 603.465 183.92C602.692 184.96 602.305 186.4 602.305 188.24V189.44C602.305 190.773 602.465 191.907 602.785 192.84C603.132 193.747 603.719 194.427 604.545 194.88C605.372 195.333 606.505 195.56 607.945 195.56C609.625 195.56 610.812 195.293 611.505 194.76C612.199 194.227 612.545 193.52 612.545 192.64V192.32H616.825V192.68C616.825 194.04 616.452 195.227 615.705 196.24C614.959 197.227 613.919 198 612.585 198.56C611.279 199.12 609.719 199.4 607.905 199.4ZM629.468 199.4C627.308 199.4 625.508 198.973 624.068 198.12C622.628 197.24 621.561 196.027 620.868 194.48C620.174 192.907 619.828 191.093 619.828 189.04C619.828 186.987 620.214 185.187 620.988 183.64C621.788 182.093 622.908 180.893 624.348 180.04C625.788 179.16 627.494 178.72 629.468 178.72C631.254 178.72 632.828 179.067 634.188 179.76C635.574 180.427 636.641 181.4 637.388 182.68C638.161 183.96 638.548 185.507 638.548 187.32C638.548 187.853 638.521 188.373 638.468 188.88C638.441 189.36 638.401 189.76 638.348 190.08H621.868V187.2H634.828L634.388 187.6C634.494 186.373 634.361 185.373 633.988 184.6C633.641 183.827 633.068 183.253 632.268 182.88C631.494 182.507 630.521 182.32 629.348 182.32C627.241 182.32 625.801 182.853 625.028 183.92C624.254 184.96 623.868 186.4 623.868 188.24V189.44C623.868 190.773 624.028 191.907 624.348 192.84C624.694 193.747 625.281 194.427 626.108 194.88C626.934 195.333 628.068 195.56 629.508 195.56C631.188 195.56 632.374 195.293 633.068 194.76C633.761 194.227 634.108 193.52 634.108 192.64V192.32H638.388V192.68C638.388 194.04 638.014 195.227 637.268 196.24C636.521 197.227 635.481 198 634.148 198.56C632.841 199.12 631.281 199.4 629.468 199.4ZM650.15 199.4C647.324 199.4 645.15 198.467 643.63 196.6C642.137 194.707 641.39 192.187 641.39 189.04C641.39 185.893 642.124 183.387 643.59 181.52C645.084 179.653 647.19 178.72 649.91 178.72C651.67 178.72 653.084 179.08 654.15 179.8C655.244 180.493 656.004 181.293 656.43 182.2H657.51L657.31 187.28H656.55C656.55 186.16 656.337 185.24 655.91 184.52C655.484 183.8 654.87 183.267 654.07 182.92C653.27 182.573 652.284 182.4 651.11 182.4C650.15 182.4 649.324 182.52 648.63 182.76C647.964 183 647.404 183.373 646.95 183.88C646.524 184.387 646.204 185.067 645.99 185.92C645.804 186.773 645.71 187.813 645.71 189.04C645.71 190.24 645.804 191.28 645.99 192.16C646.204 193.013 646.524 193.707 646.95 194.24C647.404 194.747 647.977 195.12 648.67 195.36C649.364 195.6 650.177 195.72 651.11 195.72C652.284 195.72 653.27 195.547 654.07 195.2C654.87 194.827 655.484 194.28 655.91 193.56C656.337 192.84 656.55 191.933 656.55 190.84H657.31L657.51 195.72H656.71C656.257 196.867 655.47 197.773 654.35 198.44C653.257 199.08 651.857 199.4 650.15 199.4ZM660.87 199H656.87V194.28L656.55 193.76V172.2H660.87V199Z" fill="white"/>
<path d="M550 547.667H333V501.111C333 484.648 339.532 468.859 351.159 457.218C362.787 445.577 378.557 439.037 395 439.037C424.779 439.037 451.575 460.375 457.31 488.677C458.161 492.676 460.555 496.177 463.971 498.419C467.386 500.662 471.547 501.463 475.55 500.651C479.553 499.838 483.074 497.476 485.347 494.079C487.62 490.682 488.462 486.524 487.69 482.508C478.932 439.328 439.95 408 395 408C370.343 408.026 346.703 417.844 329.267 435.3C311.832 452.756 302.026 476.424 302 501.111V547.667H240C231.778 547.667 223.893 550.937 218.08 556.757C212.266 562.578 209 570.472 209 578.704V795.963C209 804.194 212.266 812.089 218.08 817.909C223.893 823.73 231.778 827 240 827H550C558.222 827 566.107 823.73 571.92 817.909C577.734 812.089 581 804.194 581 795.963V578.704C581 570.472 577.734 562.578 571.92 556.757C566.107 550.937 558.222 547.667 550 547.667ZM410.5 700.194V749.407C410.5 753.523 408.867 757.47 405.96 760.381C403.053 763.291 399.111 764.926 395 764.926C390.889 764.926 386.947 763.291 384.04 760.381C381.133 757.47 379.5 753.523 379.5 749.407V700.194C369.158 696.534 360.442 689.33 354.892 679.858C349.342 670.385 347.315 659.253 349.17 648.429C351.025 637.605 356.642 627.785 365.028 620.707C373.415 613.628 384.031 609.746 395 609.746C405.969 609.746 416.585 613.628 424.972 620.707C433.358 627.785 438.975 637.605 440.83 648.429C442.685 659.253 440.658 670.385 435.108 679.858C429.558 689.33 420.842 696.534 410.5 700.194Z" fill="#2D3B40"/>
<rect x="106.1" y="681.1" width="298.8" height="50.8" rx="4.9" fill="#2D3B40"/>
<rect x="106.1" y="681.1" width="298.8" height="50.8" rx="4.9" stroke="#F2935C" stroke-width="0.2"/>
<circle cx="170.5" cy="706.5" r="13.5" fill="white"/>
<circle cx="170.5" cy="706.5" r="13.5" fill="white"/>
<circle cx="204.5" cy="706.5" r="13.5" fill="white"/>
<circle cx="204.5" cy="706.5" r="13.5" fill="white"/>
<circle cx="238.5" cy="706.5" r="13.5" fill="white"/>
<circle cx="238.5" cy="706.5" r="13.5" fill="white"/>
<circle cx="272.5" cy="706.5" r="13.5" fill="white"/>
<circle cx="272.5" cy="706.5" r="13.5" fill="white"/>
<circle cx="306.5" cy="706.5" r="13.5" fill="white"/>
<circle cx="306.5" cy="706.5" r="13.5" fill="white"/>
<circle cx="340.5" cy="706.5" r="13.5" fill="white"/>
<circle cx="340.5" cy="706.5" r="13.5" fill="white"/>
<rect x="528" y="774" width="93" height="91" rx="12" fill="#2D3B40"/>
<path d="M528 786C528 779.373 533.373 774 540 774H581V812C581 820.284 574.284 827 566 827H528V786Z" fill="white"/>
<path d="M554 787.764C553.192 787.914 552.242 788.239 550.784 788.739L550.02 789C546.011 790.372 544.007 791.059 543.503 791.776C543.011 792.477 543 794.532 543 798.612L554 794.945V787.764Z" fill="#F2935C"/>
<path d="M554 797.053L543 800.72V800.988C543 808.505 548.652 812.153 552.198 813.702C552.879 814 553.319 814.192 554 814.279V797.053Z" fill="#F2935C"/>
<path d="M556 814.279V797.053L567 800.72V800.988C567 808.505 561.348 812.153 557.802 813.702C557.121 814 556.681 814.192 556 814.279Z" fill="#F2935C"/>
<path d="M556 794.945V787.764C556.808 787.914 557.758 788.239 559.216 788.739L559.98 789C563.989 790.372 565.993 791.059 566.497 791.776C566.989 792.477 567 794.532 567 798.612L556 794.945Z" fill="#F2935C"/>
</g>
<path d="M673.014 1226.11C673.014 1226.82 672.439 1227.4 671.73 1227.4H657.783C656.47 1227.4 656.004 1229.15 657.142 1229.8L662.36 1232.83C662.757 1233.06 663.246 1233.06 663.643 1232.83L682.358 1221.97C682.755 1221.74 683 1221.32 683 1220.86V1212.23C683 1211.24 681.929 1210.62 681.074 1211.12L673.655 1215.43C673.258 1215.66 673.014 1216.08 673.014 1216.54V1226.11Z" fill="white"/>
<path d="M643 1220.86C643 1221.32 643.244 1221.74 643.641 1221.97L651.06 1226.28C651.916 1226.78 652.986 1226.16 652.986 1225.17V1216.54C652.986 1216.08 652.742 1215.66 652.345 1215.43L644.926 1211.12C644.071 1210.62 643 1211.24 643 1212.23V1220.86Z" fill="white"/>
<path d="M650.594 1196.77C651.25 1195.63 649.976 1194.35 648.84 1195.01L643.641 1198.03C643.244 1198.26 643 1198.68 643 1199.14V1205.18C643 1206.5 644.74 1206.97 645.396 1205.83L650.594 1196.77Z" fill="white"/>
<path d="M663.643 1198.77C663.246 1198.54 662.757 1198.54 662.36 1198.77L653.632 1203.83C653.235 1204.06 652.99 1204.48 652.99 1204.94V1215.06C652.99 1215.52 653.235 1215.94 653.632 1216.17L662.36 1221.23C662.757 1221.46 663.246 1221.46 663.643 1221.23L672.372 1216.17C672.769 1215.94 673.014 1215.52 673.014 1215.06V1204.94C673.014 1204.48 672.769 1204.06 672.372 1203.83L663.643 1198.77Z" fill="white"/>
<path d="M677.156 1195.01C676.019 1194.35 674.745 1195.63 675.401 1196.77L680.6 1205.83C681.256 1206.97 682.996 1206.5 682.996 1205.18V1199.14C682.996 1198.68 682.751 1198.26 682.355 1198.03L677.156 1195.01Z" fill="white"/>
<path d="M663.643 1187.17C663.246 1186.94 662.757 1186.94 662.36 1187.17L654.917 1191.48C654.061 1191.98 654.061 1193.22 654.917 1193.72L662.36 1198.03C662.757 1198.26 663.246 1198.26 663.643 1198.03L671.087 1193.72C671.943 1193.22 671.943 1191.98 671.087 1191.48L663.643 1187.17Z" fill="white"/>
<defs>
<clipPath id="clip0_18934_20071">
<rect width="727" height="1272" rx="20.1569" fill="white"/>
</clipPath>
</defs>
</svg>
