<svg width="727" height="1272" viewBox="0 0 727 1272" fill="none" xmlns="http://www.w3.org/2000/svg">
<g clip-path="url(#clip0_18934_20115)">
<rect width="728" height="1273" rx="20.1569" fill="#F2935C"/>
<path d="M152 653.715L193.567 600.72L360.169 521.229L427.856 521.229L477.925 490L575.23 712.387L490.206 743.616L355.113 736.045L238.913 825L152 653.715Z" fill="#2D3B40" stroke="#2D3B40" stroke-width="8"/>
<path d="M188 651.985L205.683 629.926L258.588 595.735L299.622 552.721H340.513C343.829 552.721 372.121 548.971 432.242 564.853L488.606 545L552.706 693.897L495.237 714.853L340.513 693.897L238.838 770L188 651.985Z" fill="#F2935C"/>
<path d="M340.513 693.897L238.838 770L188 651.985L205.683 629.926L258.588 595.735L299.622 552.721M340.513 693.897L495.237 714.853M340.513 693.897L299.622 552.721M495.237 714.853L432.242 564.853M495.237 714.853L552.706 693.897L488.606 545L432.242 564.853M432.242 564.853C372.121 548.971 343.829 552.721 340.513 552.721H299.622" stroke="#2D3B40" stroke-width="4"/>
<path d="M359.991 540.702C350.082 580.495 313.491 629.702 313.491 629.702C313.491 629.702 258.581 579.995 238.991 537.702C229.6 517.429 231.375 495.926 243.43 477.114C251.261 464.894 261.342 458.942 274.582 452.995C294.759 443.932 313.763 445.239 332.931 456.279C347.448 464.641 353.834 475.534 359.992 491.114C366.882 508.547 364.521 522.512 359.991 540.702Z" fill="#2D3B40" stroke="#2D3B40" stroke-width="4"/>
<circle cx="298.431" cy="503.367" r="36" fill="#F2935C"/>
<path d="M234.169 101H229.849V74.2H234.169V101ZM249.009 101H231.169V97.08H249.009V101ZM248.409 89.48H231.169V85.56H248.409V89.48ZM249.009 78.08H231.169V74.2H249.009V78.08ZM271.257 101H266.937V89.44C266.937 87.68 266.604 86.4133 265.937 85.64C265.271 84.84 264.017 84.44 262.177 84.44C261.004 84.44 260.044 84.6133 259.297 84.96C258.551 85.28 257.991 85.8133 257.617 86.56C257.244 87.28 257.057 88.2667 257.057 89.52H256.297L255.937 84.84H256.897C257.191 84.12 257.631 83.4533 258.217 82.84C258.804 82.2267 259.551 81.72 260.457 81.32C261.391 80.92 262.497 80.72 263.777 80.72C265.511 80.72 266.924 81.0533 268.017 81.72C269.111 82.3867 269.924 83.3067 270.457 84.48C270.991 85.6533 271.257 87 271.257 88.52V101ZM257.057 101H252.737V81.12H256.697V87.08L257.057 87.28V101ZM283.636 101.4C280.73 101.4 278.53 100.827 277.036 99.68C275.543 98.5067 274.796 96.7067 274.796 94.28V94.2H278.956V94.92C278.956 95.6133 279.09 96.1867 279.356 96.64C279.65 97.0667 280.13 97.3867 280.796 97.6C281.49 97.7867 282.463 97.88 283.716 97.88C284.783 97.88 285.583 97.8 286.116 97.64C286.676 97.4533 287.05 97.2 287.236 96.88C287.423 96.56 287.516 96.16 287.516 95.68C287.516 94.88 287.236 94.32 286.676 94C286.116 93.6533 285.116 93.3467 283.676 93.08L280.556 92.56C279.383 92.32 278.356 91.9867 277.476 91.56C276.623 91.1067 275.956 90.4933 275.476 89.72C275.023 88.92 274.796 87.92 274.796 86.72C274.796 84.9333 275.503 83.4933 276.916 82.4C278.33 81.28 280.33 80.72 282.916 80.72C284.49 80.72 285.89 80.9733 287.116 81.48C288.343 81.9867 289.316 82.7467 290.036 83.76C290.756 84.7733 291.116 86.04 291.116 87.56V87.92H286.996V87.44C286.996 86.8 286.89 86.2533 286.676 85.8C286.463 85.32 286.063 84.9467 285.476 84.68C284.89 84.4133 283.996 84.28 282.796 84.28C281.223 84.28 280.183 84.48 279.676 84.88C279.17 85.28 278.916 85.8667 278.916 86.64C278.916 87.4133 279.143 87.96 279.596 88.28C280.076 88.5733 281.01 88.8667 282.396 89.16L285.796 89.8C287.076 90.04 288.143 90.4 288.996 90.88C289.85 91.36 290.49 91.9867 290.916 92.76C291.37 93.5333 291.596 94.4533 291.596 95.52C291.596 97.3867 290.89 98.84 289.476 99.88C288.09 100.893 286.143 101.4 283.636 101.4ZM302.364 101.4C300.657 101.4 299.244 101.053 298.124 100.36C297.004 99.64 296.177 98.68 295.644 97.48C295.11 96.2533 294.844 94.8933 294.844 93.4V81.12H299.164V92.6C299.164 94.3867 299.537 95.68 300.284 96.48C301.03 97.28 302.257 97.68 303.964 97.68C305.084 97.68 306.03 97.5067 306.804 97.16C307.577 96.7867 308.164 96.2133 308.564 95.44C308.964 94.64 309.164 93.6 309.164 92.32H310.284V97.04H309.324C309.03 97.7867 308.577 98.4933 307.964 99.16C307.377 99.8267 306.617 100.373 305.684 100.8C304.777 101.2 303.67 101.4 302.364 101.4ZM313.484 101H309.484V95.04L309.164 94.84V81.12H313.484V101ZM322.057 101H317.737V81H321.697V86.56L322.057 86.76V101ZM322.057 88.04H321.057V84.16H321.897C322.297 83.2267 322.951 82.4267 323.857 81.76C324.791 81.0667 325.991 80.72 327.457 80.72C328.871 80.72 329.991 81.0267 330.817 81.64C331.671 82.2533 332.284 83.0667 332.657 84.08C333.031 85.0933 333.217 86.2267 333.217 87.48V88.8H328.897V88C328.897 86.6667 328.671 85.7333 328.217 85.2C327.764 84.6667 326.911 84.4 325.657 84.4C324.351 84.4 323.417 84.68 322.857 85.24C322.324 85.7733 322.057 86.7067 322.057 88.04ZM344.819 101.4C342.659 101.4 340.859 100.973 339.419 100.12C337.979 99.24 336.913 98.0267 336.219 96.48C335.526 94.9067 335.179 93.0933 335.179 91.04C335.179 88.9867 335.566 87.1867 336.339 85.64C337.139 84.0933 338.259 82.8933 339.699 82.04C341.139 81.16 342.846 80.72 344.819 80.72C346.606 80.72 348.179 81.0667 349.539 81.76C350.926 82.4267 351.993 83.4 352.739 84.68C353.513 85.96 353.899 87.5067 353.899 89.32C353.899 89.8533 353.873 90.3733 353.819 90.88C353.793 91.36 353.753 91.76 353.699 92.08H337.219V89.2H350.179L349.739 89.6C349.846 88.3733 349.713 87.3733 349.339 86.6C348.993 85.8267 348.419 85.2533 347.619 84.88C346.846 84.5067 345.873 84.32 344.699 84.32C342.593 84.32 341.153 84.8533 340.379 85.92C339.606 86.96 339.219 88.4 339.219 90.24V91.44C339.219 92.7733 339.379 93.9067 339.699 94.84C340.046 95.7467 340.633 96.4267 341.459 96.88C342.286 97.3333 343.419 97.56 344.859 97.56C346.539 97.56 347.726 97.2933 348.419 96.76C349.113 96.2267 349.459 95.52 349.459 94.64V94.32H353.739V94.68C353.739 96.04 353.366 97.2267 352.619 98.24C351.873 99.2267 350.833 100 349.499 100.56C348.193 101.12 346.633 101.4 344.819 101.4ZM381.921 101H377.921V97.08L377.801 96V88.36C377.801 86.8667 377.441 85.8533 376.721 85.32C376.028 84.7867 374.894 84.52 373.321 84.52C371.748 84.52 370.614 84.8 369.921 85.36C369.254 85.92 368.921 86.8533 368.921 88.16V88.76H364.761V88.36C364.761 86.8667 365.121 85.5467 365.841 84.4C366.588 83.2533 367.614 82.36 368.921 81.72C370.254 81.0533 371.801 80.72 373.561 80.72C375.428 80.72 376.974 81.0667 378.201 81.76C379.428 82.4533 380.348 83.4133 380.961 84.64C381.601 85.84 381.921 87.2667 381.921 88.92V101ZM370.521 101.4C368.734 101.4 367.228 100.947 366.001 100.04C364.801 99.1067 364.201 97.7867 364.201 96.08C364.201 94.96 364.454 94.0267 364.961 93.28C365.494 92.5333 366.254 91.92 367.241 91.44C368.228 90.96 369.428 90.6267 370.841 90.44L378.201 89.4V92.44L371.481 93.44C370.334 93.6 369.534 93.84 369.081 94.16C368.628 94.48 368.401 95.0133 368.401 95.76C368.401 96.5333 368.668 97.0933 369.201 97.44C369.761 97.7867 370.668 97.96 371.921 97.96C372.881 97.96 373.801 97.8133 374.681 97.52C375.588 97.2 376.334 96.68 376.921 95.96C377.508 95.2133 377.801 94.1733 377.801 92.84L378.361 97.92L377.721 97.88C377.348 98.4933 376.828 99.0667 376.161 99.6C375.521 100.133 374.734 100.573 373.801 100.92C372.868 101.24 371.774 101.4 370.521 101.4ZM394.899 101.44C392.819 101.44 391.059 101 389.619 100.12C388.179 99.24 387.073 98.0267 386.299 96.48C385.553 94.9333 385.179 93.1333 385.179 91.08C385.179 89.0267 385.566 87.2267 386.339 85.68C387.139 84.1067 388.273 82.8933 389.739 82.04C391.206 81.16 392.979 80.72 395.059 80.72C396.819 80.72 398.366 81.0533 399.699 81.72C401.033 82.3867 402.059 83.32 402.779 84.52C403.526 85.72 403.899 87.12 403.899 88.72V89.08H399.619V88.84C399.619 87.3733 399.219 86.3067 398.419 85.64C397.646 84.9467 396.433 84.6 394.779 84.6C392.859 84.6 391.486 85.1467 390.659 86.24C389.859 87.3067 389.459 88.9067 389.459 91.04C389.459 93.2 389.859 94.8267 390.659 95.92C391.486 96.9867 392.859 97.52 394.779 97.52C396.433 97.52 397.646 97.1867 398.419 96.52C399.219 95.8267 399.619 94.76 399.619 93.32V93.08H403.899V93.44C403.899 94.9867 403.526 96.3733 402.779 97.6C402.033 98.8 400.979 99.7467 399.619 100.44C398.286 101.107 396.713 101.44 394.899 101.44ZM416.267 101.44C414.187 101.44 412.427 101 410.987 100.12C409.547 99.24 408.44 98.0267 407.667 96.48C406.92 94.9333 406.547 93.1333 406.547 91.08C406.547 89.0267 406.933 87.2267 407.707 85.68C408.507 84.1067 409.64 82.8933 411.107 82.04C412.573 81.16 414.347 80.72 416.427 80.72C418.187 80.72 419.733 81.0533 421.067 81.72C422.4 82.3867 423.427 83.32 424.147 84.52C424.893 85.72 425.267 87.12 425.267 88.72V89.08H420.987V88.84C420.987 87.3733 420.587 86.3067 419.787 85.64C419.013 84.9467 417.8 84.6 416.147 84.6C414.227 84.6 412.853 85.1467 412.027 86.24C411.227 87.3067 410.827 88.9067 410.827 91.04C410.827 93.2 411.227 94.8267 412.027 95.92C412.853 96.9867 414.227 97.52 416.147 97.52C417.8 97.52 419.013 97.1867 419.787 96.52C420.587 95.8267 420.987 94.76 420.987 93.32V93.08H425.267V93.44C425.267 94.9867 424.893 96.3733 424.147 97.6C423.4 98.8 422.347 99.7467 420.987 100.44C419.653 101.107 418.08 101.44 416.267 101.44ZM435.918 101.4C434.212 101.4 432.798 101.053 431.678 100.36C430.558 99.64 429.732 98.68 429.198 97.48C428.665 96.2533 428.398 94.8933 428.398 93.4V81.12H432.718V92.6C432.718 94.3867 433.092 95.68 433.838 96.48C434.585 97.28 435.812 97.68 437.518 97.68C438.638 97.68 439.585 97.5067 440.358 97.16C441.132 96.7867 441.718 96.2133 442.118 95.44C442.518 94.64 442.718 93.6 442.718 92.32H443.838V97.04H442.878C442.585 97.7867 442.132 98.4933 441.518 99.16C440.932 99.8267 440.172 100.373 439.238 100.8C438.332 101.2 437.225 101.4 435.918 101.4ZM447.038 101H443.038V95.04L442.718 94.84V81.12H447.038V101ZM455.612 101H451.292V81H455.252V86.56L455.612 86.76V101ZM455.612 88.04H454.612V84.16H455.452C455.852 83.2267 456.505 82.4267 457.412 81.76C458.345 81.0667 459.545 80.72 461.012 80.72C462.425 80.72 463.545 81.0267 464.372 81.64C465.225 82.2533 465.839 83.0667 466.212 84.08C466.585 85.0933 466.772 86.2267 466.772 87.48V88.8H462.452V88C462.452 86.6667 462.225 85.7333 461.772 85.2C461.319 84.6667 460.465 84.4 459.212 84.4C457.905 84.4 456.972 84.68 456.412 85.24C455.879 85.7733 455.612 86.7067 455.612 88.04ZM485.905 101H481.905V97.08L481.785 96V88.36C481.785 86.8667 481.425 85.8533 480.705 85.32C480.012 84.7867 478.879 84.52 477.305 84.52C475.732 84.52 474.599 84.8 473.905 85.36C473.239 85.92 472.905 86.8533 472.905 88.16V88.76H468.745V88.36C468.745 86.8667 469.105 85.5467 469.825 84.4C470.572 83.2533 471.599 82.36 472.905 81.72C474.239 81.0533 475.785 80.72 477.545 80.72C479.412 80.72 480.959 81.0667 482.185 81.76C483.412 82.4533 484.332 83.4133 484.945 84.64C485.585 85.84 485.905 87.2667 485.905 88.92V101ZM474.505 101.4C472.719 101.4 471.212 100.947 469.985 100.04C468.785 99.1067 468.185 97.7867 468.185 96.08C468.185 94.96 468.439 94.0267 468.945 93.28C469.479 92.5333 470.239 91.92 471.225 91.44C472.212 90.96 473.412 90.6267 474.825 90.44L482.185 89.4V92.44L475.465 93.44C474.319 93.6 473.519 93.84 473.065 94.16C472.612 94.48 472.385 95.0133 472.385 95.76C472.385 96.5333 472.652 97.0933 473.185 97.44C473.745 97.7867 474.652 97.96 475.905 97.96C476.865 97.96 477.785 97.8133 478.665 97.52C479.572 97.2 480.319 96.68 480.905 95.96C481.492 95.2133 481.785 94.1733 481.785 92.84L482.345 97.92L481.705 97.88C481.332 98.4933 480.812 99.0667 480.145 99.6C479.505 100.133 478.719 100.573 477.785 100.92C476.852 101.24 475.759 101.4 474.505 101.4ZM498.128 101C495.941 101 494.261 100.533 493.088 99.6C491.941 98.6667 491.368 97.0933 491.368 94.88V81.56L492.368 76.2H495.688V94.68C495.688 95.72 495.941 96.3867 496.448 96.68C496.981 96.9467 497.928 97.08 499.288 97.08H501.688V100.64C501.288 100.747 500.768 100.84 500.128 100.92C499.488 100.973 498.821 101 498.128 101ZM501.688 84.72H488.048V81.12H501.688V84.72ZM512.749 101.4C510.589 101.4 508.789 100.973 507.349 100.12C505.909 99.24 504.842 98.0267 504.149 96.48C503.456 94.9067 503.109 93.0933 503.109 91.04C503.109 88.9867 503.496 87.1867 504.269 85.64C505.069 84.0933 506.189 82.8933 507.629 82.04C509.069 81.16 510.776 80.72 512.749 80.72C514.536 80.72 516.109 81.0667 517.469 81.76C518.856 82.4267 519.922 83.4 520.669 84.68C521.442 85.96 521.829 87.5067 521.829 89.32C521.829 89.8533 521.802 90.3733 521.749 90.88C521.722 91.36 521.682 91.76 521.629 92.08H505.149V89.2H518.109L517.669 89.6C517.776 88.3733 517.642 87.3733 517.269 86.6C516.922 85.8267 516.349 85.2533 515.549 84.88C514.776 84.5067 513.802 84.32 512.629 84.32C510.522 84.32 509.082 84.8533 508.309 85.92C507.536 86.96 507.149 88.4 507.149 90.24V91.44C507.149 92.7733 507.309 93.9067 507.629 94.84C507.976 95.7467 508.562 96.4267 509.389 96.88C510.216 97.3333 511.349 97.56 512.789 97.56C514.469 97.56 515.656 97.2933 516.349 96.76C517.042 96.2267 517.389 95.52 517.389 94.64V94.32H521.669V94.68C521.669 96.04 521.296 97.2267 520.549 98.24C519.802 99.2267 518.762 100 517.429 100.56C516.122 101.12 514.562 101.4 512.749 101.4ZM544.851 101.4C542.264 101.4 540.024 100.84 538.131 99.72C536.264 98.5733 534.824 96.9733 533.811 94.92C532.824 92.84 532.331 90.4 532.331 87.6C532.331 84.8 532.824 82.3733 533.811 80.32C534.824 78.24 536.264 76.64 538.131 75.52C540.024 74.3733 542.264 73.8 544.851 73.8C547.277 73.8 549.344 74.2267 551.051 75.08C552.757 75.9333 554.077 77.1333 555.011 78.68C555.944 80.2267 556.411 82.08 556.411 84.24V84.48H551.851V84.24C551.851 82.0533 551.291 80.4667 550.171 79.48C549.077 78.4667 547.264 77.96 544.731 77.96C542.891 77.96 541.397 78.28 540.251 78.92C539.104 79.56 538.264 80.5867 537.731 82C537.197 83.4133 536.931 85.28 536.931 87.6C536.931 89.8933 537.197 91.76 537.731 93.2C538.264 94.6133 539.104 95.64 540.251 96.28C541.397 96.8933 542.891 97.2 544.731 97.2C547.264 97.2 549.077 96.7067 550.171 95.72C551.291 94.7333 551.851 93.1467 551.851 90.96V90.72H556.411V90.96C556.411 93.0933 555.944 94.9467 555.011 96.52C554.077 98.0667 552.757 99.2667 551.051 100.12C549.344 100.973 547.277 101.4 544.851 101.4ZM569.084 101.4C567.057 101.4 565.297 100.973 563.804 100.12C562.31 99.24 561.164 98.0267 560.364 96.48C559.564 94.9067 559.164 93.0933 559.164 91.04C559.164 88.9867 559.564 87.1867 560.364 85.64C561.164 84.0933 562.31 82.8933 563.804 82.04C565.297 81.16 567.057 80.72 569.084 80.72C571.11 80.72 572.844 81.16 574.284 82.04C575.75 82.8933 576.87 84.0933 577.644 85.64C578.444 87.1867 578.844 88.9867 578.844 91.04C578.844 93.0933 578.444 94.9067 577.644 96.48C576.87 98.0267 575.75 99.24 574.284 100.12C572.844 100.973 571.11 101.4 569.084 101.4ZM569.084 97.56C571.164 97.56 572.617 97.04 573.444 96C574.27 94.9333 574.684 93.28 574.684 91.04C574.684 88.8 574.27 87.16 573.444 86.12C572.617 85.08 571.164 84.56 569.084 84.56C566.977 84.56 565.51 85.08 564.684 86.12C563.857 87.16 563.444 88.8 563.444 91.04C563.444 93.28 563.857 94.9333 564.684 96C565.51 97.04 566.977 97.56 569.084 97.56ZM586.432 101H582.112V74.2H586.432V101ZM595.182 101H590.862V74.2H595.182V101ZM608.101 101.4C605.941 101.4 604.141 100.973 602.701 100.12C601.261 99.24 600.194 98.0267 599.501 96.48C598.807 94.9067 598.461 93.0933 598.461 91.04C598.461 88.9867 598.847 87.1867 599.621 85.64C600.421 84.0933 601.541 82.8933 602.981 82.04C604.421 81.16 606.127 80.72 608.101 80.72C609.887 80.72 611.461 81.0667 612.821 81.76C614.207 82.4267 615.274 83.4 616.021 84.68C616.794 85.96 617.181 87.5067 617.181 89.32C617.181 89.8533 617.154 90.3733 617.101 90.88C617.074 91.36 617.034 91.76 616.981 92.08H600.501V89.2H613.461L613.021 89.6C613.127 88.3733 612.994 87.3733 612.621 86.6C612.274 85.8267 611.701 85.2533 610.901 84.88C610.127 84.5067 609.154 84.32 607.981 84.32C605.874 84.32 604.434 84.8533 603.661 85.92C602.887 86.96 602.501 88.4 602.501 90.24V91.44C602.501 92.7733 602.661 93.9067 602.981 94.84C603.327 95.7467 603.914 96.4267 604.741 96.88C605.567 97.3333 606.701 97.56 608.141 97.56C609.821 97.56 611.007 97.2933 611.701 96.76C612.394 96.2267 612.741 95.52 612.741 94.64V94.32H617.021V94.68C617.021 96.04 616.647 97.2267 615.901 98.24C615.154 99.2267 614.114 100 612.781 100.56C611.474 101.12 609.914 101.4 608.101 101.4ZM630.223 108.2C628.356 108.2 626.73 107.907 625.343 107.32C623.983 106.733 622.93 105.88 622.183 104.76C621.436 103.667 621.063 102.32 621.063 100.72H625.383C625.383 101.627 625.516 102.347 625.783 102.88C626.05 103.413 626.543 103.787 627.263 104C627.983 104.24 629.01 104.36 630.343 104.36C631.65 104.36 632.65 104.213 633.343 103.92C634.036 103.627 634.516 103.133 634.783 102.44C635.05 101.747 635.183 100.787 635.183 99.56V86.36L635.503 85.84V81.12H639.503V99.56C639.503 101.507 639.13 103.107 638.383 104.36C637.636 105.64 636.57 106.6 635.183 107.24C633.823 107.88 632.17 108.2 630.223 108.2ZM628.543 99.12C625.796 99.12 623.69 98.2933 622.223 96.64C620.756 94.96 620.023 92.72 620.023 89.92C620.023 87.12 620.77 84.8933 622.263 83.24C623.756 81.56 625.903 80.72 628.703 80.72C630.33 80.72 631.73 81.0533 632.903 81.72C634.076 82.36 634.89 83.2533 635.343 84.4H636.143L635.943 89.28H635.183C635.183 88.16 634.956 87.24 634.503 86.52C634.05 85.8 633.41 85.2667 632.583 84.92C631.756 84.5733 630.796 84.4 629.703 84.4C628.45 84.4 627.423 84.5733 626.623 84.92C625.85 85.2667 625.276 85.8533 624.903 86.68C624.53 87.48 624.343 88.56 624.343 89.92C624.343 90.9333 624.45 91.8 624.663 92.52C624.876 93.2133 625.21 93.7733 625.663 94.2C626.116 94.6267 626.69 94.9467 627.383 95.16C628.076 95.3467 628.876 95.44 629.783 95.44C630.876 95.44 631.823 95.2667 632.623 94.92C633.423 94.5467 634.05 94 634.503 93.28C634.956 92.56 635.183 91.64 635.183 90.52H636.063V95.6H635.023C634.57 96.56 633.783 97.3867 632.663 98.08C631.543 98.7733 630.17 99.12 628.543 99.12ZM652.398 101.4C650.238 101.4 648.438 100.973 646.998 100.12C645.558 99.24 644.491 98.0267 643.798 96.48C643.104 94.9067 642.757 93.0933 642.757 91.04C642.757 88.9867 643.144 87.1867 643.918 85.64C644.718 84.0933 645.838 82.8933 647.278 82.04C648.718 81.16 650.424 80.72 652.398 80.72C654.184 80.72 655.758 81.0667 657.118 81.76C658.504 82.4267 659.571 83.4 660.318 84.68C661.091 85.96 661.478 87.5067 661.478 89.32C661.478 89.8533 661.451 90.3733 661.398 90.88C661.371 91.36 661.331 91.76 661.278 92.08H644.798V89.2H657.758L657.318 89.6C657.424 88.3733 657.291 87.3733 656.918 86.6C656.571 85.8267 655.998 85.2533 655.198 84.88C654.424 84.5067 653.451 84.32 652.278 84.32C650.171 84.32 648.731 84.8533 647.958 85.92C647.184 86.96 646.798 88.4 646.798 90.24V91.44C646.798 92.7733 646.958 93.9067 647.278 94.84C647.624 95.7467 648.211 96.4267 649.038 96.88C649.864 97.3333 650.998 97.56 652.438 97.56C654.118 97.56 655.304 97.2933 655.998 96.76C656.691 96.2267 657.038 95.52 657.038 94.64V94.32H661.318V94.68C661.318 96.04 660.944 97.2267 660.198 98.24C659.451 99.2267 658.411 100 657.078 100.56C655.771 101.12 654.211 101.4 652.398 101.4ZM262.65 150.4C259.824 150.4 257.65 149.467 256.13 147.6C254.637 145.707 253.89 143.187 253.89 140.04C253.89 136.893 254.624 134.387 256.09 132.52C257.584 130.653 259.69 129.72 262.41 129.72C264.17 129.72 265.584 130.08 266.65 130.8C267.744 131.493 268.504 132.293 268.93 133.2H270.01L269.81 138.28H269.05C269.05 137.16 268.837 136.24 268.41 135.52C267.984 134.8 267.37 134.267 266.57 133.92C265.77 133.573 264.784 133.4 263.61 133.4C262.65 133.4 261.824 133.52 261.13 133.76C260.464 134 259.904 134.373 259.45 134.88C259.024 135.387 258.704 136.067 258.49 136.92C258.304 137.773 258.21 138.813 258.21 140.04C258.21 141.24 258.304 142.28 258.49 143.16C258.704 144.013 259.024 144.707 259.45 145.24C259.904 145.747 260.477 146.12 261.17 146.36C261.864 146.6 262.677 146.72 263.61 146.72C264.784 146.72 265.77 146.547 266.57 146.2C267.37 145.827 267.984 145.28 268.41 144.56C268.837 143.84 269.05 142.933 269.05 141.84H269.81L270.01 146.72H269.21C268.757 147.867 267.97 148.773 266.85 149.44C265.757 150.08 264.357 150.4 262.65 150.4ZM273.37 150H269.37V145.28L269.05 144.76V123.2H273.37V150ZM286.304 150.4C284.144 150.4 282.344 149.973 280.904 149.12C279.464 148.24 278.397 147.027 277.704 145.48C277.01 143.907 276.664 142.093 276.664 140.04C276.664 137.987 277.05 136.187 277.824 134.64C278.624 133.093 279.744 131.893 281.184 131.04C282.624 130.16 284.33 129.72 286.304 129.72C288.09 129.72 289.664 130.067 291.024 130.76C292.41 131.427 293.477 132.4 294.224 133.68C294.997 134.96 295.384 136.507 295.384 138.32C295.384 138.853 295.357 139.373 295.304 139.88C295.277 140.36 295.237 140.76 295.184 141.08H278.704V138.2H291.664L291.224 138.6C291.33 137.373 291.197 136.373 290.824 135.6C290.477 134.827 289.904 134.253 289.104 133.88C288.33 133.507 287.357 133.32 286.184 133.32C284.077 133.32 282.637 133.853 281.864 134.92C281.09 135.96 280.704 137.4 280.704 139.24V140.44C280.704 141.773 280.864 142.907 281.184 143.84C281.53 144.747 282.117 145.427 282.944 145.88C283.77 146.333 284.904 146.56 286.344 146.56C288.024 146.56 289.21 146.293 289.904 145.76C290.597 145.227 290.944 144.52 290.944 143.64V143.32H295.224V143.68C295.224 145.04 294.85 146.227 294.104 147.24C293.357 148.227 292.317 149 290.984 149.56C289.677 150.12 288.117 150.4 286.304 150.4ZM306.956 150C304.769 150 303.089 149.533 301.916 148.6C300.769 147.667 300.196 146.093 300.196 143.88V130.56L301.196 125.2H304.516V143.68C304.516 144.72 304.769 145.387 305.276 145.68C305.809 145.947 306.756 146.08 308.116 146.08H310.516V149.64C310.116 149.747 309.596 149.84 308.956 149.92C308.316 149.973 307.649 150 306.956 150ZM310.516 133.72H296.876V130.12H310.516V133.72ZM330.202 150H326.202V146.08L326.082 145V137.36C326.082 135.867 325.722 134.853 325.002 134.32C324.309 133.787 323.176 133.52 321.602 133.52C320.029 133.52 318.896 133.8 318.202 134.36C317.536 134.92 317.202 135.853 317.202 137.16V137.76H313.042V137.36C313.042 135.867 313.402 134.547 314.122 133.4C314.869 132.253 315.896 131.36 317.202 130.72C318.536 130.053 320.082 129.72 321.842 129.72C323.709 129.72 325.256 130.067 326.482 130.76C327.709 131.453 328.629 132.413 329.242 133.64C329.882 134.84 330.202 136.267 330.202 137.92V150ZM318.802 150.4C317.016 150.4 315.509 149.947 314.282 149.04C313.082 148.107 312.482 146.787 312.482 145.08C312.482 143.96 312.736 143.027 313.242 142.28C313.776 141.533 314.536 140.92 315.522 140.44C316.509 139.96 317.709 139.627 319.122 139.44L326.482 138.4V141.44L319.762 142.44C318.616 142.6 317.816 142.84 317.362 143.16C316.909 143.48 316.682 144.013 316.682 144.76C316.682 145.533 316.949 146.093 317.482 146.44C318.042 146.787 318.949 146.96 320.202 146.96C321.162 146.96 322.082 146.813 322.962 146.52C323.869 146.2 324.616 145.68 325.202 144.96C325.789 144.213 326.082 143.173 326.082 141.84L326.642 146.92L326.002 146.88C325.629 147.493 325.109 148.067 324.442 148.6C323.802 149.133 323.016 149.573 322.082 149.92C321.149 150.24 320.056 150.4 318.802 150.4ZM338.379 127.6H334.099L334.059 123.2H338.379V127.6ZM338.419 150H334.099V130H338.419V150ZM346.706 150H342.386V123.2H346.706V150ZM359.183 150.4C356.276 150.4 354.076 149.827 352.583 148.68C351.09 147.507 350.343 145.707 350.343 143.28V143.2H354.503V143.92C354.503 144.613 354.636 145.187 354.903 145.64C355.196 146.067 355.676 146.387 356.343 146.6C357.036 146.787 358.01 146.88 359.263 146.88C360.33 146.88 361.13 146.8 361.663 146.64C362.223 146.453 362.596 146.2 362.783 145.88C362.97 145.56 363.063 145.16 363.063 144.68C363.063 143.88 362.783 143.32 362.223 143C361.663 142.653 360.663 142.347 359.223 142.08L356.103 141.56C354.93 141.32 353.903 140.987 353.023 140.56C352.17 140.107 351.503 139.493 351.023 138.72C350.57 137.92 350.343 136.92 350.343 135.72C350.343 133.933 351.05 132.493 352.463 131.4C353.876 130.28 355.876 129.72 358.463 129.72C360.036 129.72 361.436 129.973 362.663 130.48C363.89 130.987 364.863 131.747 365.583 132.76C366.303 133.773 366.663 135.04 366.663 136.56V136.92H362.543V136.44C362.543 135.8 362.436 135.253 362.223 134.8C362.01 134.32 361.61 133.947 361.023 133.68C360.436 133.413 359.543 133.28 358.343 133.28C356.77 133.28 355.73 133.48 355.223 133.88C354.716 134.28 354.463 134.867 354.463 135.64C354.463 136.413 354.69 136.96 355.143 137.28C355.623 137.573 356.556 137.867 357.943 138.16L361.343 138.8C362.623 139.04 363.69 139.4 364.543 139.88C365.396 140.36 366.036 140.987 366.463 141.76C366.916 142.533 367.143 143.453 367.143 144.52C367.143 146.387 366.436 147.84 365.023 148.88C363.636 149.893 361.69 150.4 359.183 150.4ZM383.527 150H379.207V130.28C379.207 128.733 379.5 127.44 380.087 126.4C380.674 125.36 381.54 124.573 382.687 124.04C383.86 123.48 385.3 123.2 387.007 123.2C387.274 123.2 387.54 123.2 387.807 123.2C388.074 123.2 388.34 123.2 388.607 123.2V126.64H386.207C385.247 126.64 384.54 126.827 384.087 127.2C383.634 127.573 383.407 128.187 383.407 129.04V130.8L383.527 131.84V150ZM388.607 133.72H376.287V130.12H388.607V133.72ZM399.24 150.4C397.213 150.4 395.453 149.973 393.96 149.12C392.467 148.24 391.32 147.027 390.52 145.48C389.72 143.907 389.32 142.093 389.32 140.04C389.32 137.987 389.72 136.187 390.52 134.64C391.32 133.093 392.467 131.893 393.96 131.04C395.453 130.16 397.213 129.72 399.24 129.72C401.267 129.72 403 130.16 404.44 131.04C405.907 131.893 407.027 133.093 407.8 134.64C408.6 136.187 409 137.987 409 140.04C409 142.093 408.6 143.907 407.8 145.48C407.027 147.027 405.907 148.24 404.44 149.12C403 149.973 401.267 150.4 399.24 150.4ZM399.24 146.56C401.32 146.56 402.773 146.04 403.6 145C404.427 143.933 404.84 142.28 404.84 140.04C404.84 137.8 404.427 136.16 403.6 135.12C402.773 134.08 401.32 133.56 399.24 133.56C397.133 133.56 395.667 134.08 394.84 135.12C394.013 136.16 393.6 137.8 393.6 140.04C393.6 142.28 394.013 143.933 394.84 145C395.667 146.04 397.133 146.56 399.24 146.56ZM416.549 150H412.229V130H416.189V135.56L416.549 135.76V150ZM416.549 137.04H415.549V133.16H416.389C416.789 132.227 417.443 131.427 418.349 130.76C419.283 130.067 420.483 129.72 421.949 129.72C423.363 129.72 424.483 130.027 425.309 130.64C426.163 131.253 426.776 132.067 427.149 133.08C427.523 134.093 427.709 135.227 427.709 136.48V137.8H423.389V137C423.389 135.667 423.163 134.733 422.709 134.2C422.256 133.667 421.403 133.4 420.149 133.4C418.843 133.4 417.909 133.68 417.349 134.24C416.816 134.773 416.549 135.707 416.549 137.04ZM446.644 150.4C443.737 150.4 441.537 149.827 440.044 148.68C438.551 147.507 437.804 145.707 437.804 143.28V143.2H441.964V143.92C441.964 144.613 442.097 145.187 442.364 145.64C442.657 146.067 443.137 146.387 443.804 146.6C444.497 146.787 445.471 146.88 446.724 146.88C447.791 146.88 448.591 146.8 449.124 146.64C449.684 146.453 450.057 146.2 450.244 145.88C450.431 145.56 450.524 145.16 450.524 144.68C450.524 143.88 450.244 143.32 449.684 143C449.124 142.653 448.124 142.347 446.684 142.08L443.564 141.56C442.391 141.32 441.364 140.987 440.484 140.56C439.631 140.107 438.964 139.493 438.484 138.72C438.031 137.92 437.804 136.92 437.804 135.72C437.804 133.933 438.511 132.493 439.924 131.4C441.337 130.28 443.337 129.72 445.924 129.72C447.497 129.72 448.897 129.973 450.124 130.48C451.351 130.987 452.324 131.747 453.044 132.76C453.764 133.773 454.124 135.04 454.124 136.56V136.92H450.004V136.44C450.004 135.8 449.897 135.253 449.684 134.8C449.471 134.32 449.071 133.947 448.484 133.68C447.897 133.413 447.004 133.28 445.804 133.28C444.231 133.28 443.191 133.48 442.684 133.88C442.177 134.28 441.924 134.867 441.924 135.64C441.924 136.413 442.151 136.96 442.604 137.28C443.084 137.573 444.017 137.867 445.404 138.16L448.804 138.8C450.084 139.04 451.151 139.4 452.004 139.88C452.857 140.36 453.497 140.987 453.924 141.76C454.377 142.533 454.604 143.453 454.604 144.52C454.604 146.387 453.897 147.84 452.484 148.88C451.097 149.893 449.151 150.4 446.644 150.4ZM466.929 150.4C464.769 150.4 462.969 149.973 461.529 149.12C460.089 148.24 459.022 147.027 458.329 145.48C457.635 143.907 457.289 142.093 457.289 140.04C457.289 137.987 457.675 136.187 458.449 134.64C459.249 133.093 460.369 131.893 461.809 131.04C463.249 130.16 464.955 129.72 466.929 129.72C468.715 129.72 470.289 130.067 471.649 130.76C473.035 131.427 474.102 132.4 474.849 133.68C475.622 134.96 476.009 136.507 476.009 138.32C476.009 138.853 475.982 139.373 475.929 139.88C475.902 140.36 475.862 140.76 475.809 141.08H459.329V138.2H472.289L471.849 138.6C471.955 137.373 471.822 136.373 471.449 135.6C471.102 134.827 470.529 134.253 469.729 133.88C468.955 133.507 467.982 133.32 466.809 133.32C464.702 133.32 463.262 133.853 462.489 134.92C461.715 135.96 461.329 137.4 461.329 139.24V140.44C461.329 141.773 461.489 142.907 461.809 143.84C462.155 144.747 462.742 145.427 463.569 145.88C464.395 146.333 465.529 146.56 466.969 146.56C468.649 146.56 469.835 146.293 470.529 145.76C471.222 145.227 471.569 144.52 471.569 143.64V143.32H475.849V143.68C475.849 145.04 475.475 146.227 474.729 147.24C473.982 148.227 472.942 149 471.609 149.56C470.302 150.12 468.742 150.4 466.929 150.4ZM496.452 150H492.452V146.08L492.332 145V137.36C492.332 135.867 491.972 134.853 491.252 134.32C490.559 133.787 489.426 133.52 487.852 133.52C486.279 133.52 485.146 133.8 484.452 134.36C483.786 134.92 483.452 135.853 483.452 137.16V137.76H479.292V137.36C479.292 135.867 479.652 134.547 480.372 133.4C481.119 132.253 482.146 131.36 483.452 130.72C484.786 130.053 486.332 129.72 488.092 129.72C489.959 129.72 491.506 130.067 492.732 130.76C493.959 131.453 494.879 132.413 495.492 133.64C496.132 134.84 496.452 136.267 496.452 137.92V150ZM485.052 150.4C483.266 150.4 481.759 149.947 480.532 149.04C479.332 148.107 478.732 146.787 478.732 145.08C478.732 143.96 478.986 143.027 479.492 142.28C480.026 141.533 480.786 140.92 481.772 140.44C482.759 139.96 483.959 139.627 485.372 139.44L492.732 138.4V141.44L486.012 142.44C484.866 142.6 484.066 142.84 483.612 143.16C483.159 143.48 482.932 144.013 482.932 144.76C482.932 145.533 483.199 146.093 483.732 146.44C484.292 146.787 485.199 146.96 486.452 146.96C487.412 146.96 488.332 146.813 489.212 146.52C490.119 146.2 490.866 145.68 491.452 144.96C492.039 144.213 492.332 143.173 492.332 141.84L492.892 146.92L492.252 146.88C491.879 147.493 491.359 148.067 490.692 148.6C490.052 149.133 489.266 149.573 488.332 149.92C487.399 150.24 486.306 150.4 485.052 150.4ZM532.509 150H528.189V138.44C528.189 136.68 527.855 135.413 527.189 134.64C526.549 133.84 525.322 133.44 523.509 133.44C521.882 133.44 520.669 133.827 519.869 134.6C519.095 135.347 518.709 136.627 518.709 138.44L517.949 138.52L517.589 133.84H518.229C518.549 133.147 518.989 132.493 519.549 131.88C520.135 131.24 520.882 130.72 521.789 130.32C522.695 129.92 523.802 129.72 525.109 129.72C526.842 129.72 528.242 130.053 529.309 130.72C530.402 131.387 531.202 132.307 531.709 133.48C532.242 134.653 532.509 136 532.509 137.52V150ZM504.909 150H500.589V130.12H504.549V136.08L504.909 136.28V150ZM518.709 150H514.389V138.44C514.389 136.68 514.055 135.413 513.389 134.64C512.749 133.84 511.522 133.44 509.709 133.44C508.082 133.44 506.869 133.813 506.069 134.56C505.295 135.307 504.909 136.587 504.909 138.4L504.149 138.52L503.789 133.84H504.749C505.042 133.12 505.469 132.453 506.029 131.84C506.615 131.227 507.362 130.72 508.269 130.32C509.175 129.92 510.255 129.72 511.509 129.72C513.189 129.72 514.549 130.053 515.589 130.72C516.655 131.387 517.442 132.307 517.949 133.48C518.455 134.653 518.709 136 518.709 137.52V150ZM540.963 150H536.643V123.2H540.963V150ZM553.882 150.4C551.722 150.4 549.922 149.973 548.482 149.12C547.042 148.24 545.975 147.027 545.282 145.48C544.589 143.907 544.242 142.093 544.242 140.04C544.242 137.987 544.629 136.187 545.402 134.64C546.202 133.093 547.322 131.893 548.762 131.04C550.202 130.16 551.909 129.72 553.882 129.72C555.669 129.72 557.242 130.067 558.602 130.76C559.989 131.427 561.055 132.4 561.802 133.68C562.575 134.96 562.962 136.507 562.962 138.32C562.962 138.853 562.935 139.373 562.882 139.88C562.855 140.36 562.815 140.76 562.762 141.08H546.282V138.2H559.242L558.802 138.6C558.909 137.373 558.775 136.373 558.402 135.6C558.055 134.827 557.482 134.253 556.682 133.88C555.909 133.507 554.935 133.32 553.762 133.32C551.655 133.32 550.215 133.853 549.442 134.92C548.669 135.96 548.282 137.4 548.282 139.24V140.44C548.282 141.773 548.442 142.907 548.762 143.84C549.109 144.747 549.695 145.427 550.522 145.88C551.349 146.333 552.482 146.56 553.922 146.56C555.602 146.56 556.789 146.293 557.482 145.76C558.175 145.227 558.522 144.52 558.522 143.64V143.32H562.802V143.68C562.802 145.04 562.429 146.227 561.682 147.24C560.935 148.227 559.895 149 558.562 149.56C557.255 150.12 555.695 150.4 553.882 150.4ZM574.964 150.4C572.058 150.4 569.858 149.827 568.364 148.68C566.871 147.507 566.124 145.707 566.124 143.28V143.2H570.284V143.92C570.284 144.613 570.418 145.187 570.684 145.64C570.978 146.067 571.458 146.387 572.124 146.6C572.818 146.787 573.791 146.88 575.044 146.88C576.111 146.88 576.911 146.8 577.444 146.64C578.004 146.453 578.378 146.2 578.564 145.88C578.751 145.56 578.844 145.16 578.844 144.68C578.844 143.88 578.564 143.32 578.004 143C577.444 142.653 576.444 142.347 575.004 142.08L571.884 141.56C570.711 141.32 569.684 140.987 568.804 140.56C567.951 140.107 567.284 139.493 566.804 138.72C566.351 137.92 566.124 136.92 566.124 135.72C566.124 133.933 566.831 132.493 568.244 131.4C569.658 130.28 571.658 129.72 574.244 129.72C575.818 129.72 577.218 129.973 578.444 130.48C579.671 130.987 580.644 131.747 581.364 132.76C582.084 133.773 582.444 135.04 582.444 136.56V136.92H578.324V136.44C578.324 135.8 578.218 135.253 578.004 134.8C577.791 134.32 577.391 133.947 576.804 133.68C576.218 133.413 575.324 133.28 574.124 133.28C572.551 133.28 571.511 133.48 571.004 133.88C570.498 134.28 570.244 134.867 570.244 135.64C570.244 136.413 570.471 136.96 570.924 137.28C571.404 137.573 572.338 137.867 573.724 138.16L577.124 138.8C578.404 139.04 579.471 139.4 580.324 139.88C581.178 140.36 581.818 140.987 582.244 141.76C582.698 142.533 582.924 143.453 582.924 144.52C582.924 146.387 582.218 147.84 580.804 148.88C579.418 149.893 577.471 150.4 574.964 150.4ZM594.652 150.4C591.745 150.4 589.545 149.827 588.052 148.68C586.559 147.507 585.812 145.707 585.812 143.28V143.2H589.972V143.92C589.972 144.613 590.105 145.187 590.372 145.64C590.665 146.067 591.145 146.387 591.812 146.6C592.505 146.787 593.479 146.88 594.732 146.88C595.799 146.88 596.599 146.8 597.132 146.64C597.692 146.453 598.065 146.2 598.252 145.88C598.439 145.56 598.532 145.16 598.532 144.68C598.532 143.88 598.252 143.32 597.692 143C597.132 142.653 596.132 142.347 594.692 142.08L591.572 141.56C590.399 141.32 589.372 140.987 588.492 140.56C587.639 140.107 586.972 139.493 586.492 138.72C586.039 137.92 585.812 136.92 585.812 135.72C585.812 133.933 586.519 132.493 587.932 131.4C589.345 130.28 591.345 129.72 593.932 129.72C595.505 129.72 596.905 129.973 598.132 130.48C599.359 130.987 600.332 131.747 601.052 132.76C601.772 133.773 602.132 135.04 602.132 136.56V136.92H598.012V136.44C598.012 135.8 597.905 135.253 597.692 134.8C597.479 134.32 597.079 133.947 596.492 133.68C595.905 133.413 595.012 133.28 593.812 133.28C592.239 133.28 591.199 133.48 590.692 133.88C590.185 134.28 589.932 134.867 589.932 135.64C589.932 136.413 590.159 136.96 590.612 137.28C591.092 137.573 592.025 137.867 593.412 138.16L596.812 138.8C598.092 139.04 599.159 139.4 600.012 139.88C600.865 140.36 601.505 140.987 601.932 141.76C602.385 142.533 602.612 143.453 602.612 144.52C602.612 146.387 601.905 147.84 600.492 148.88C599.105 149.893 597.159 150.4 594.652 150.4ZM635.916 150H631.596V123.2H635.916V150ZM618.076 150H613.756V123.2H618.076V150ZM633.716 138.44H615.116V134.56H633.716V138.44ZM644.794 150H640.474V123.2H651.994C653.968 123.2 655.674 123.52 657.114 124.16C658.554 124.773 659.661 125.68 660.434 126.88C661.234 128.053 661.634 129.493 661.634 131.2C661.634 132.667 661.341 133.947 660.754 135.04C660.194 136.107 659.354 136.947 658.234 137.56C657.141 138.147 655.794 138.48 654.194 138.56V138.88C655.181 139.2 655.994 139.667 656.634 140.28C657.274 140.893 657.834 141.653 658.314 142.56L662.354 150H657.314L653.514 143.08C653.114 142.307 652.688 141.667 652.234 141.16C651.781 140.653 651.221 140.28 650.554 140.04C649.888 139.8 649.034 139.68 647.994 139.68H644.794V150ZM644.794 127.08V136.12H652.514C654.248 136.12 655.488 135.773 656.234 135.08C656.981 134.387 657.354 133.227 657.354 131.6C657.354 130 656.981 128.853 656.234 128.16C655.488 127.44 654.248 127.08 652.514 127.08H644.794ZM433.571 199.44C431.491 199.44 429.731 199 428.291 198.12C426.851 197.24 425.745 196.027 424.971 194.48C424.225 192.933 423.851 191.133 423.851 189.08C423.851 187.027 424.238 185.227 425.011 183.68C425.811 182.107 426.945 180.893 428.411 180.04C429.878 179.16 431.651 178.72 433.731 178.72C435.491 178.72 437.038 179.053 438.371 179.72C439.705 180.387 440.731 181.32 441.451 182.52C442.198 183.72 442.571 185.12 442.571 186.72V187.08H438.291V186.84C438.291 185.373 437.891 184.307 437.091 183.64C436.318 182.947 435.105 182.6 433.451 182.6C431.531 182.6 430.158 183.147 429.331 184.24C428.531 185.307 428.131 186.907 428.131 189.04C428.131 191.2 428.531 192.827 429.331 193.92C430.158 194.987 431.531 195.52 433.451 195.52C435.105 195.52 436.318 195.187 437.091 194.52C437.891 193.827 438.291 192.76 438.291 191.32V191.08H442.571V191.44C442.571 192.987 442.198 194.373 441.451 195.6C440.705 196.8 439.651 197.747 438.291 198.44C436.958 199.107 435.385 199.44 433.571 199.44ZM455.138 199.4C453.112 199.4 451.352 198.973 449.858 198.12C448.365 197.24 447.218 196.027 446.418 194.48C445.618 192.907 445.218 191.093 445.218 189.04C445.218 186.987 445.618 185.187 446.418 183.64C447.218 182.093 448.365 180.893 449.858 180.04C451.352 179.16 453.112 178.72 455.138 178.72C457.165 178.72 458.898 179.16 460.338 180.04C461.805 180.893 462.925 182.093 463.698 183.64C464.498 185.187 464.898 186.987 464.898 189.04C464.898 191.093 464.498 192.907 463.698 194.48C462.925 196.027 461.805 197.24 460.338 198.12C458.898 198.973 457.165 199.4 455.138 199.4ZM455.138 195.56C457.218 195.56 458.672 195.04 459.498 194C460.325 192.933 460.738 191.28 460.738 189.04C460.738 186.8 460.325 185.16 459.498 184.12C458.672 183.08 457.218 182.56 455.138 182.56C453.032 182.56 451.565 183.08 450.738 184.12C449.912 185.16 449.498 186.8 449.498 189.04C449.498 191.28 449.912 192.933 450.738 194C451.565 195.04 453.032 195.56 455.138 195.56ZM472.487 199H468.167V172.2H472.487V199ZM481.237 199H476.917V172.2H481.237V199ZM502.116 199H498.116V195.08L497.996 194V186.36C497.996 184.867 497.636 183.853 496.916 183.32C496.223 182.787 495.09 182.52 493.516 182.52C491.943 182.52 490.81 182.8 490.116 183.36C489.45 183.92 489.116 184.853 489.116 186.16V186.76H484.956V186.36C484.956 184.867 485.316 183.547 486.036 182.4C486.783 181.253 487.81 180.36 489.116 179.72C490.45 179.053 491.996 178.72 493.756 178.72C495.623 178.72 497.17 179.067 498.396 179.76C499.623 180.453 500.543 181.413 501.156 182.64C501.796 183.84 502.116 185.267 502.116 186.92V199ZM490.716 199.4C488.93 199.4 487.423 198.947 486.196 198.04C484.996 197.107 484.396 195.787 484.396 194.08C484.396 192.96 484.65 192.027 485.156 191.28C485.69 190.533 486.45 189.92 487.436 189.44C488.423 188.96 489.623 188.627 491.036 188.44L498.396 187.4V190.44L491.676 191.44C490.53 191.6 489.73 191.84 489.276 192.16C488.823 192.48 488.596 193.013 488.596 193.76C488.596 194.533 488.863 195.093 489.396 195.44C489.956 195.787 490.863 195.96 492.116 195.96C493.076 195.96 493.996 195.813 494.876 195.52C495.783 195.2 496.53 194.68 497.116 193.96C497.703 193.213 497.996 192.173 497.996 190.84L498.556 195.92L497.916 195.88C497.543 196.493 497.023 197.067 496.356 197.6C495.716 198.133 494.93 198.573 493.996 198.92C493.063 199.24 491.97 199.4 490.716 199.4ZM517.093 199.4C515.359 199.4 513.933 199.08 512.813 198.44C511.693 197.773 510.879 196.867 510.373 195.72H509.573L509.813 190.84H510.573C510.573 191.933 510.773 192.84 511.173 193.56C511.599 194.28 512.213 194.827 513.013 195.2C513.839 195.547 514.826 195.72 515.973 195.72C516.933 195.72 517.746 195.6 518.413 195.36C519.106 195.12 519.679 194.747 520.133 194.24C520.586 193.707 520.906 193.013 521.093 192.16C521.306 191.28 521.413 190.24 521.413 189.04C521.413 187.813 521.306 186.773 521.093 185.92C520.906 185.067 520.586 184.387 520.133 183.88C519.706 183.373 519.146 183 518.453 182.76C517.759 182.52 516.933 182.4 515.973 182.4C514.826 182.4 513.839 182.573 513.013 182.92C512.213 183.267 511.599 183.8 511.173 184.52C510.773 185.24 510.573 186.16 510.573 187.28H509.813L509.573 182.28H510.693C511.119 181.373 511.893 180.56 513.013 179.84C514.159 179.093 515.599 178.72 517.333 178.72C520.079 178.72 522.159 179.653 523.573 181.52C525.013 183.387 525.733 185.893 525.733 189.04C525.733 192.187 524.986 194.707 523.493 196.6C522.026 198.467 519.893 199.4 517.093 199.4ZM510.213 199H506.253V172.2H510.573V193.76L510.213 194.28V199ZM538.303 199.4C536.276 199.4 534.516 198.973 533.023 198.12C531.529 197.24 530.383 196.027 529.583 194.48C528.783 192.907 528.382 191.093 528.382 189.04C528.382 186.987 528.783 185.187 529.583 183.64C530.383 182.093 531.529 180.893 533.023 180.04C534.516 179.16 536.276 178.72 538.303 178.72C540.329 178.72 542.063 179.16 543.503 180.04C544.969 180.893 546.089 182.093 546.863 183.64C547.663 185.187 548.063 186.987 548.063 189.04C548.063 191.093 547.663 192.907 546.863 194.48C546.089 196.027 544.969 197.24 543.503 198.12C542.063 198.973 540.329 199.4 538.303 199.4ZM538.303 195.56C540.383 195.56 541.836 195.04 542.663 194C543.489 192.933 543.903 191.28 543.903 189.04C543.903 186.8 543.489 185.16 542.663 184.12C541.836 183.08 540.383 182.56 538.303 182.56C536.196 182.56 534.729 183.08 533.903 184.12C533.076 185.16 532.663 186.8 532.663 189.04C532.663 191.28 533.076 192.933 533.903 194C534.729 195.04 536.196 195.56 538.303 195.56ZM555.612 199H551.292V179H555.252V184.56L555.612 184.76V199ZM555.612 186.04H554.612V182.16H555.452C555.852 181.227 556.505 180.427 557.412 179.76C558.345 179.067 559.545 178.72 561.012 178.72C562.425 178.72 563.545 179.027 564.372 179.64C565.225 180.253 565.839 181.067 566.212 182.08C566.585 183.093 566.772 184.227 566.772 185.48V186.8H562.452V186C562.452 184.667 562.225 183.733 561.772 183.2C561.319 182.667 560.465 182.4 559.212 182.4C557.905 182.4 556.972 182.68 556.412 183.24C555.879 183.773 555.612 184.707 555.612 186.04ZM585.905 199H581.905V195.08L581.785 194V186.36C581.785 184.867 581.425 183.853 580.705 183.32C580.012 182.787 578.879 182.52 577.305 182.52C575.732 182.52 574.599 182.8 573.905 183.36C573.239 183.92 572.905 184.853 572.905 186.16V186.76H568.745V186.36C568.745 184.867 569.105 183.547 569.825 182.4C570.572 181.253 571.599 180.36 572.905 179.72C574.239 179.053 575.785 178.72 577.545 178.72C579.412 178.72 580.959 179.067 582.185 179.76C583.412 180.453 584.332 181.413 584.945 182.64C585.585 183.84 585.905 185.267 585.905 186.92V199ZM574.505 199.4C572.719 199.4 571.212 198.947 569.985 198.04C568.785 197.107 568.185 195.787 568.185 194.08C568.185 192.96 568.439 192.027 568.945 191.28C569.479 190.533 570.239 189.92 571.225 189.44C572.212 188.96 573.412 188.627 574.825 188.44L582.185 187.4V190.44L575.465 191.44C574.319 191.6 573.519 191.84 573.065 192.16C572.612 192.48 572.385 193.013 572.385 193.76C572.385 194.533 572.652 195.093 573.185 195.44C573.745 195.787 574.652 195.96 575.905 195.96C576.865 195.96 577.785 195.813 578.665 195.52C579.572 195.2 580.319 194.68 580.905 193.96C581.492 193.213 581.785 192.173 581.785 190.84L582.345 195.92L581.705 195.88C581.332 196.493 580.812 197.067 580.145 197.6C579.505 198.133 578.719 198.573 577.785 198.92C576.852 199.24 575.759 199.4 574.505 199.4ZM598.128 199C595.941 199 594.261 198.533 593.088 197.6C591.941 196.667 591.368 195.093 591.368 192.88V179.56L592.368 174.2H595.688V192.68C595.688 193.72 595.941 194.387 596.448 194.68C596.981 194.947 597.928 195.08 599.288 195.08H601.688V198.64C601.288 198.747 600.768 198.84 600.128 198.92C599.488 198.973 598.821 199 598.128 199ZM601.688 182.72H588.048V179.12H601.688V182.72ZM608.535 176.6H604.255L604.215 172.2H608.535V176.6ZM608.575 199H604.255V179H608.575V199ZM621.467 199.4C619.44 199.4 617.68 198.973 616.187 198.12C614.693 197.24 613.547 196.027 612.747 194.48C611.947 192.907 611.547 191.093 611.547 189.04C611.547 186.987 611.947 185.187 612.747 183.64C613.547 182.093 614.693 180.893 616.187 180.04C617.68 179.16 619.44 178.72 621.467 178.72C623.493 178.72 625.227 179.16 626.667 180.04C628.133 180.893 629.253 182.093 630.027 183.64C630.827 185.187 631.227 186.987 631.227 189.04C631.227 191.093 630.827 192.907 630.027 194.48C629.253 196.027 628.133 197.24 626.667 198.12C625.227 198.973 623.493 199.4 621.467 199.4ZM621.467 195.56C623.547 195.56 625 195.04 625.827 194C626.653 192.933 627.067 191.28 627.067 189.04C627.067 186.8 626.653 185.16 625.827 184.12C625 183.08 623.547 182.56 621.467 182.56C619.36 182.56 617.893 183.08 617.067 184.12C616.24 185.16 615.827 186.8 615.827 189.04C615.827 191.28 616.24 192.933 617.067 194C617.893 195.04 619.36 195.56 621.467 195.56ZM652.976 199H648.656V187.44C648.656 185.68 648.323 184.413 647.656 183.64C646.989 182.84 645.736 182.44 643.896 182.44C642.723 182.44 641.763 182.613 641.016 182.96C640.269 183.28 639.709 183.813 639.336 184.56C638.963 185.28 638.776 186.267 638.776 187.52H638.016L637.656 182.84H638.616C638.909 182.12 639.349 181.453 639.936 180.84C640.523 180.227 641.269 179.72 642.176 179.32C643.109 178.92 644.216 178.72 645.496 178.72C647.229 178.72 648.643 179.053 649.736 179.72C650.829 180.387 651.643 181.307 652.176 182.48C652.709 183.653 652.976 185 652.976 186.52V199ZM638.776 199H634.456V179.12H638.416V185.08L638.776 185.28V199ZM661.712 199H656.232V192.8H661.712V199Z" fill="white"/>
<path d="M673.014 1226.11C673.014 1226.82 672.439 1227.4 671.73 1227.4H657.783C656.47 1227.4 656.004 1229.15 657.142 1229.8L662.36 1232.83C662.757 1233.06 663.246 1233.06 663.643 1232.83L682.358 1221.97C682.755 1221.74 683 1221.32 683 1220.86V1212.23C683 1211.24 681.929 1210.62 681.074 1211.12L673.655 1215.43C673.258 1215.66 673.014 1216.08 673.014 1216.54V1226.11Z" fill="white"/>
<path d="M643 1220.86C643 1221.32 643.244 1221.74 643.641 1221.97L651.06 1226.28C651.916 1226.78 652.986 1226.16 652.986 1225.17V1216.54C652.986 1216.08 652.742 1215.66 652.345 1215.43L644.926 1211.12C644.071 1210.62 643 1211.24 643 1212.23V1220.86Z" fill="white"/>
<path d="M650.594 1196.77C651.25 1195.63 649.976 1194.35 648.84 1195.01L643.641 1198.03C643.244 1198.26 643 1198.68 643 1199.14V1205.18C643 1206.5 644.74 1206.97 645.396 1205.83L650.594 1196.77Z" fill="white"/>
<path d="M663.643 1198.77C663.246 1198.54 662.757 1198.54 662.36 1198.77L653.632 1203.83C653.235 1204.06 652.99 1204.48 652.99 1204.94V1215.06C652.99 1215.52 653.235 1215.94 653.632 1216.17L662.36 1221.23C662.757 1221.46 663.246 1221.46 663.643 1221.23L672.372 1216.17C672.769 1215.94 673.014 1215.52 673.014 1215.06V1204.94C673.014 1204.48 672.769 1204.06 672.372 1203.83L663.643 1198.77Z" fill="white"/>
<path d="M677.156 1195.01C676.019 1194.35 674.745 1195.63 675.401 1196.77L680.6 1205.83C681.256 1206.97 682.996 1206.5 682.996 1205.18V1199.14C682.996 1198.68 682.751 1198.26 682.355 1198.03L677.156 1195.01Z" fill="white"/>
<path d="M663.643 1187.17C663.246 1186.94 662.757 1186.94 662.36 1187.17L654.917 1191.48C654.061 1191.98 654.061 1193.22 654.917 1193.72L662.36 1198.03C662.757 1198.26 663.246 1198.26 663.643 1198.03L671.087 1193.72C671.943 1193.22 671.943 1191.98 671.087 1191.48L663.643 1187.17Z" fill="white"/>
</g>
<defs>
<clipPath id="clip0_18934_20115">
<rect width="727" height="1272" rx="20.1569" fill="white"/>
</clipPath>
</defs>
</svg>
