<svg width="309" height="316" viewBox="0 0 309 316" fill="none" xmlns="http://www.w3.org/2000/svg">
<path opacity="0.3" d="M181.212 112.009H120.787C116.013 112.009 112.143 108.138 112.143 103.363V42.9233C112.143 38.1484 116.013 34.2773 120.787 34.2773H181.212C185.986 34.2773 189.856 38.1484 189.856 42.9233V103.363C189.856 108.138 185.986 112.009 181.212 112.009Z" fill="white"/>
<path d="M168.989 94.3105H133.009V96.0884H168.989V94.3105Z" fill="#66805D"/>
<path d="M163.893 99.9121H138.105V101.69H163.893V99.9121Z" fill="#66805D"/>
<path opacity="0.3" d="M298.817 186.107H212.824C207.2 186.107 202.641 181.547 202.641 175.921V71.4217C202.641 65.7963 207.2 61.2363 212.824 61.2363H298.817C304.441 61.2363 309 65.7963 309 71.4217V175.921C309 181.547 304.441 186.107 298.817 186.107Z" fill="#F5F5F5"/>
<path d="M267.925 149.221H218.839V152.246H267.925V149.221Z" fill="#66805D"/>
<path d="M258.533 163.746H218.839V166.772H258.533V163.746Z" fill="#66805D"/>
<path d="M242.109 156.484H218.839V159.51H242.109V156.484Z" fill="#66805D"/>
<path d="M280.766 73.6875V75.2156H289.762V83.6594H291.289V73.6875H280.766ZM219.684 83.6594H221.211V75.2156H230.206V73.6875H219.684V83.6594ZM289.762 127.23V135.677H280.766V137.205H291.289V127.23H289.762V127.23ZM221.211 127.23H219.684V137.205H230.206V135.677H221.211V127.23Z" fill="#66805D"/>
<path d="M286.527 166.994C281.567 166.994 277.531 162.957 277.531 157.996C277.531 153.034 281.567 148.998 286.527 148.998C291.487 148.998 295.523 153.034 295.523 157.996C295.523 162.957 291.487 166.994 286.527 166.994ZM286.527 150.739C282.527 150.739 279.272 153.995 279.272 157.996C279.272 161.997 282.527 165.252 286.527 165.252C290.527 165.252 293.782 161.997 293.782 157.996C293.782 153.995 290.527 150.739 286.527 150.739Z" fill="#66805D"/>
<path d="M285.953 161.537L281.866 157.449L283.097 156.218L285.953 159.074L289.956 155.07L291.187 156.302L285.953 161.537Z" fill="#66805D"/>
<path d="M291.937 237.167C291.937 240.941 226.584 244 145.968 244C65.3522 244 0 240.941 0 237.167C0 233.393 65.3522 230.334 145.968 230.334C226.584 230.334 291.937 233.393 291.937 237.167Z" fill="#515457"/>
<path d="M171.007 64.5482C169.282 59.9834 165.137 57.8877 163.181 57.2344C162.484 57.0031 161.239 56.5968 159.928 56.1724C157.566 55.4087 154.984 54.5781 154.984 54.5781H146.831C146.831 54.5781 144.009 55.5245 141.008 56.5763C141.008 56.5789 141.006 56.5789 141.006 56.5789C138.242 57.5483 135.331 58.6054 134.349 59.0992C132.3 60.1225 128.852 67.4388 128.156 68.2771C127.796 68.7092 126.197 71.5586 124.623 74.7422H133.406C134.334 73.1478 135.048 71.9108 135.048 71.9108C135.048 71.9108 135.604 73.1298 136.277 74.7422H164.415C164.86 72.87 165.137 70.5118 165.137 70.5118C165.137 70.5118 166.644 72.5614 168.289 74.7422H176.398C174.426 71.4323 171.978 67.1247 171.007 64.5482Z" fill="#66805D"/>
<path d="M151.879 32.1714C151.879 32.1714 158.254 33.1758 157.283 43.1517C156.313 53.1276 150.686 52.31 150.31 52.2999C149.934 52.2899 144.662 52.4817 144.251 40.3018C144.251 40.3018 144.072 31.2951 151.879 32.1714Z" fill="#E5E5D4"/>
<path d="M157.382 40.3326C157.382 40.3326 158.08 39.5869 158.336 40.3419C158.592 41.0968 157.384 44.4642 157.341 44.6216C157.341 44.6216 157.213 44.9144 157.046 44.7533C156.878 44.5921 157.382 40.3326 157.382 40.3326Z" fill="#66805D"/>
<path d="M144.423 40.2073C144.423 40.2073 143.739 39.4482 143.468 40.198C143.198 40.948 144.33 44.3375 144.381 44.4963C144.381 44.4963 144.503 44.7915 144.674 44.6337C144.844 44.4757 144.423 40.2073 144.423 40.2073Z" fill="#66805D"/>
<path d="M157.379 41.8635L156.467 43.0839C156.467 43.0839 156.492 40.4084 156.346 39.9889C156.2 39.5695 155.976 38.2878 155.853 37.9856C155.731 37.6835 150.379 36.1832 145.652 38.4237C145.652 38.4237 145.86 40.3476 145.407 40.5188C144.954 40.6899 145.176 43.6521 145.176 43.6521L144.426 42.8052C144.426 42.8052 143.277 35.1302 143.561 34.3302C143.844 33.5302 144.748 28.7207 154.446 31.5758C154.446 31.5758 157.47 30.9353 158.076 33.0232C158.683 35.111 157.379 41.8635 157.379 41.8635Z" fill="#434343"/>
<path d="M155.775 54.3986C155.772 54.3896 154.957 53.9967 154.957 53.9967C154.56 53.1085 154.855 49.361 154.855 49.361C154.855 49.361 146.736 47.2941 146.968 48.8745C147.2 50.4549 146.269 54.1268 146.269 54.1268L142.104 56.1954C142.104 56.1954 146.541 68.1138 151.641 66.5762C156.742 65.0388 158.668 55.7657 158.668 55.7657L155.775 54.3986Z" fill="#E5E5D4"/>
<path d="M147.085 50.6299C147.085 50.6299 148.393 52.319 150.664 52.319C152.157 52.319 153.229 51.9002 154.717 50.4492C154.717 50.4492 154.072 53.2049 150.673 53.4613C150.673 53.4613 148.209 53.7746 147.085 50.6299Z" fill="#66805D"/>
<path d="M80.1608 222.986C84.5219 219.918 89.626 198.54 89.9304 185.806C90.0865 179.283 92.014 176.566 93.7147 174.169C95.3404 171.877 96.7445 169.898 95.9266 165.353C94.3637 156.668 98.4729 152.919 98.5147 152.882L98.039 152.34C97.8561 152.5 93.5767 156.367 95.2168 165.481C95.981 169.727 94.7213 171.503 93.1267 173.751C91.4533 176.11 89.3709 179.046 89.2095 185.789C88.8827 199.454 83.6646 219.639 79.7461 222.396L80.1608 222.986Z" fill="white"/>
<path d="M71.0199 216.749C70.6081 215.816 70.1823 214.85 69.7001 213.832C67.2087 208.572 65.0019 207.706 61.3455 206.271C60.4521 205.92 59.4394 205.522 58.328 205.023C53.0905 202.668 54.1045 199.199 54.9992 196.138C55.1243 195.71 55.2491 195.283 55.3574 194.86C55.818 193.06 54.9331 192.157 53.5934 190.79C52.5978 189.773 51.3586 188.509 50.4034 186.511C49.3581 184.325 49.8909 183.153 50.522 182.555C51.8507 181.295 54.9144 181.527 57.807 183.107C58.7056 183.598 59.4453 184.373 60.2284 185.193C62.0725 187.124 64.3672 189.528 70.1713 189.555C73.4807 189.57 75.2935 190.027 76.2323 191.083C77.2977 192.28 77.097 194.073 76.8188 196.554C76.7226 197.412 76.6136 198.385 76.5476 199.436C76.1527 205.706 79.8533 210.229 79.8899 210.274C82.1008 212.907 84.8247 218.37 83.649 221.733C83.1563 223.142 82.0542 224.029 80.3734 224.369C79.7038 224.505 79.0919 224.569 78.5294 224.569C74.4696 224.569 72.984 221.202 71.0199 216.749ZM57.461 183.74C54.878 182.33 52.1081 182.045 51.018 183.079C50.1895 183.864 50.5801 185.21 51.0539 186.2C51.9574 188.089 53.1002 189.256 54.1085 190.285C55.5102 191.715 56.6173 192.845 56.0559 195.039C55.9457 195.47 55.8189 195.904 55.6913 196.34C54.8003 199.389 53.9589 202.268 58.6235 204.365C59.7191 204.857 60.723 205.252 61.6089 205.599C65.2998 207.048 67.7382 208.005 70.3519 213.523C70.8383 214.55 71.266 215.52 71.6797 216.458C73.9358 221.572 75.2976 224.66 80.2302 223.662C81.644 223.377 82.5652 222.647 82.9681 221.495C84.004 218.531 81.5253 213.343 79.3368 210.737C79.1765 210.545 75.4142 205.957 75.8277 199.391C75.8951 198.323 76.0051 197.341 76.1021 196.474C76.3593 194.178 76.5451 192.52 75.6935 191.563C74.9148 190.687 73.2106 190.291 70.1677 190.277C64.057 190.248 61.6449 187.721 59.7066 185.691C58.9311 184.879 58.2614 184.177 57.461 183.74Z" fill="white"/>
<path d="M80.295 228.735L81.0154 228.697C80.9798 228.02 80.0712 212.065 73.6668 207.396C66.6405 202.273 64.4252 196.768 63.3703 193.073C62.1271 188.719 55.7995 187.555 55.5307 187.508L55.4053 188.218C55.4666 188.229 61.5577 189.352 62.6767 193.271C63.761 197.069 66.0359 202.725 73.2419 207.979C79.3717 212.448 80.2865 228.572 80.295 228.735Z" fill="white"/>
<path d="M79.0761 232.323C77.5692 231.572 77.6238 228.554 77.7065 223.986C77.8109 218.213 77.9542 210.307 74.9329 203.035C71.7234 195.31 74.5858 193.052 77.3541 190.869C80.4546 188.423 83.3828 186.113 77.7626 175.687C75.1813 170.899 74.3617 167.66 75.1835 165.495C75.9956 163.354 78.2743 162.52 80.6869 161.637C84.851 160.112 89.5709 158.385 88.9612 149.569C88.7744 146.867 89.0919 145.205 89.9609 144.339C90.905 143.399 92.2961 143.501 93.9066 143.618C96.3401 143.797 99.0968 143.998 101.498 140.864C101.748 140.081 104.044 133.092 106.79 131.895C107.366 131.644 107.932 131.647 108.47 131.904C110.366 132.811 111.466 133.887 111.833 135.193C112.473 137.464 110.809 140.026 108.883 142.993C105.856 147.655 102.425 152.939 105.984 159.226C110.688 167.54 108.203 170.449 104.764 174.476C102.794 176.783 100.561 179.398 99.0674 183.663C97.8667 187.093 99.9151 190.363 101.896 193.526C104.381 197.494 106.95 201.596 101.54 205.156C92.5961 211.042 83.7631 230.254 83.675 230.448L83.6385 230.528L83.5694 230.582C81.9216 231.874 80.722 232.49 79.8187 232.49C79.5455 232.49 79.2995 232.434 79.0761 232.323ZM101.144 204.554C105.964 201.382 103.796 197.919 101.285 193.91C99.3097 190.756 97.0712 187.182 98.3868 183.425C99.9245 179.032 102.204 176.363 104.216 174.008C107.586 170.063 109.812 167.456 105.356 159.582C101.582 152.913 105.295 147.195 108.278 142.6C110.109 139.781 111.69 137.346 111.139 135.389C110.831 134.294 109.856 133.368 108.159 132.555C107.813 132.39 107.46 132.39 107.078 132.557C104.53 133.667 102.19 141.066 102.167 141.141L102.148 141.201L102.11 141.251C99.4639 144.749 96.3535 144.521 93.8539 144.338C92.3603 144.229 91.1808 144.142 90.4699 144.851C89.7698 145.548 89.5116 147.075 89.6806 149.52C90.3279 158.876 85.1196 160.783 80.9347 162.314C78.5836 163.175 76.553 163.919 75.8579 165.751C75.1161 167.706 75.923 170.755 78.3975 175.345C84.3054 186.304 80.9987 188.913 77.8008 191.435C75.1259 193.545 72.5993 195.538 75.599 202.758C78.6782 210.169 78.5336 218.162 78.4278 223.999C78.3556 227.983 78.2988 231.13 79.3977 231.677C80.041 231.998 81.2714 231.456 83.0556 230.068C83.7708 228.513 92.2305 210.419 101.144 204.554Z" fill="white"/>
<path d="M64.959 148.583C69.5111 147.022 68.5653 155.797 70.4888 162.29C72.4122 168.784 91.8866 165.123 83.7122 181.382C75.5378 197.641 94.0505 186.819 88.5207 201.008C82.991 215.196 88.0398 230.371 82.0292 226.511C76.0185 222.651 78.6524 204.784 72.4013 202.661C66.1502 200.538 65.1302 198.062 71.3193 192.29C77.5085 186.519 55.1015 180.789 60.6312 169.135C66.1611 157.481 59.6999 150.387 64.959 148.583Z" fill="white"/>
<path d="M79.9338 225.578C80.5062 223.149 85.3951 201.774 80.8333 199.19C76.813 196.913 76.912 188.056 77.5392 179.692C78.0944 172.288 68.5876 168.827 68.1826 168.684L67.9414 169.363C68.0354 169.397 77.3338 172.785 76.8199 179.638C76.1759 188.227 76.1068 197.342 80.4779 199.818C83.9415 201.78 80.7526 218.959 79.2316 225.413L79.9338 225.578Z" fill="white"/>
<path d="M97.1083 217.967L90.6091 242.629H76.085L69.5859 217.967H97.1083Z" fill="#4F575D"/>
<path d="M97.1081 217.967C97.1081 217.967 82.8005 220.654 82.8005 242.629H76.085L69.5859 217.967H97.1081Z" fill="#4F575D"/>
<path opacity="0.3" d="M247.479 56.9262H204.596C200.671 56.9262 197.489 53.7438 197.489 49.8182V12.6002C197.489 8.67445 200.671 5.49219 204.596 5.49219H247.479C251.404 5.49219 254.586 8.6746 254.586 12.6002V49.8182C254.586 53.7439 251.404 56.9262 247.479 56.9262Z" fill="#ECECEC"/>
<path d="M229.916 0.986605C229.916 0.986605 233.565 2.99051 232.406 7.91805C231.248 12.8456 230.807 13.4962 231.749 15.4873C232.69 17.4785 233.517 25.8223 232.513 27.3488C231.509 28.8752 221.332 19.9032 220.201 12.7255C219.071 5.54779 221.616 2.49934 222.519 1.36166C223.422 0.223978 226.698 -0.843114 229.916 0.986605Z" fill="#344052"/>
<path d="M236.767 41.7125H232.861C232.672 39.7852 232.497 38.4437 232.533 38.2452C232.591 37.9176 228.646 27.5685 228.278 26.7125C227.907 25.8588 226.461 23.5634 226.272 21.4016C226.081 19.24 228.899 18.3672 228.899 18.3672C232.703 19.0488 233.991 24.3117 233.991 24.3117C233.991 24.3117 235.589 34.9836 236.397 37.987C236.605 38.7568 236.717 40.1175 236.767 41.7125Z" fill="#E5E5D4"/>
<path d="M234.8 26.8816L228.983 29.3347C228.983 29.3347 223.636 16.0634 228.118 17.5451C232.586 19.0224 234.596 21.7995 234.8 26.8816Z" fill="#1C2818"/>
<path d="M233.506 33.1316C233.337 34.4491 232.641 39.1167 232.796 40.3769C232.823 40.5849 232.909 41.0632 233.038 41.7136H219.012C219.385 40.3817 219.724 39.2027 219.93 38.5166C220.611 36.2568 219.959 35.6519 219.614 33.8443C219.48 33.1365 219.01 31.7925 218.495 30.274C218.323 29.767 218.146 29.2387 217.977 28.7079C217.36 26.7949 217.073 24.8389 216.896 23.7007C216.05 18.3038 220.2 17.7847 220.2 17.7847C221.742 17.5002 224.436 16.668 224.436 16.668L228.656 17.5457C228.656 17.5457 229.057 17.6963 229.643 18.1291C229.643 18.1291 229.645 18.1291 229.645 18.1316C229.927 18.3396 230.253 18.6122 230.594 18.9637C231.056 19.4372 231.974 20.7928 232.889 22.2825C233.169 22.7394 233.451 23.2079 233.717 23.6694C234.575 25.1543 235.185 26.3522 235.165 27.7033C235.149 29.0333 233.676 31.8141 233.506 33.1316Z" fill="#1C2818"/>
<path d="M228.656 17.547C228.656 17.547 231.299 22.066 230.316 22.4035C229.333 22.7408 224.152 21.5999 222.128 17.3304C222.128 17.3304 225.529 15.7842 228.656 17.547Z" fill="#E5E5D4"/>
<path d="M228.277 19.6104C228.277 19.6104 225.929 20.6042 223.803 17.3325C223.803 17.3325 224.374 13.6174 223.167 11.4683C221.959 9.31998 228.446 14.0443 228.446 14.0443C228.446 14.0443 228.341 14.4873 228.232 15.1413C228.177 15.476 228.119 15.8653 228.076 16.2785C228.039 16.6228 228.011 16.9844 227.999 17.3446C227.972 18.1803 228.031 19.0097 228.277 19.6104Z" fill="#E5E5D4"/>
<path d="M222.446 24.6719C221.963 27.1587 218.495 30.2742 218.495 30.2742C218.323 29.7659 218.146 29.2387 217.977 28.7086C220.369 27.1814 222.446 24.6719 222.446 24.6719Z" fill="#393D63"/>
<path d="M221.576 26.6517C221.356 27.558 220.345 36.7377 220.455 37.0508C220.52 37.2303 221.01 39.3537 221.5 41.7138H216.972C216.508 40.1931 216.233 38.9303 216.3 38.2155C216.589 35.119 215.54 25.2481 215.54 25.2481C215.54 25.2481 214.6 19.2772 219.554 18.5312C219.554 18.5312 222.48 18.9163 222.657 21.0779C222.834 23.2417 221.796 25.7479 221.576 26.6517Z" fill="#E5E5D4"/>
<path d="M215.175 27.9196L221.322 29.3559C221.322 29.3559 226.199 19.8854 221.807 18.1564C217.177 16.3337 214.065 22.7537 215.175 27.9196Z" fill="#1C2818"/>
<path d="M229.348 1.51256C229.348 1.51256 234.691 3.47373 231.304 12.6953C227.918 21.9168 221.005 11.1211 222.05 5.45435C223.094 -0.21209 229.348 1.51256 229.348 1.51256Z" fill="#E5E5D4"/>
<path d="M232.123 7.11816C232.123 7.11816 229.303 9.63579 224.778 9.75324C224.778 9.75324 223.721 12.3317 223.55 13.1231C223.55 13.1231 219.079 5.44524 224.219 1.56696C229.359 -2.31117 234.021 5.50964 232.123 7.11816Z" fill="#344052"/>
<path d="M225.39 10.3061C225.387 9.62324 225.041 8.05303 224.008 8.43914C222.975 8.82524 223.9 12.0333 224.581 11.8707C224.581 11.8707 225.396 11.922 225.39 10.3061Z" fill="#66805D"/>
<path d="M228.004 17.1876C225.494 16.4931 224.523 14.0996 224.493 14.0195C226.535 16.6583 228.075 16.2793 228.075 16.2793C228.038 16.6235 228.036 16.8385 228.004 17.1876Z" fill="#66805D"/>
<path d="M239.608 14.7988V15.6191H244.437V20.152H245.257V14.7988H239.608ZM206.818 20.152H207.638V15.6191H212.466V14.7988H206.817L206.818 20.152ZM244.437 43.5416V48.0761H239.608V48.8963H245.257V43.5416H244.437ZM207.638 43.5416H206.818V48.8963H212.466V48.0761H207.638L207.638 43.5416Z" fill="#66805D"/>
<path d="M169.126 42.3517V43.4474H175.575V49.502H176.671V42.3517H169.126ZM125.327 49.5019H126.423V43.4472H132.872V42.3516H125.327V49.5019ZM175.576 80.7431V86.8001H169.126V87.8957H176.671V80.7432L175.576 80.7431ZM126.423 80.7431H125.327V87.8956H132.872V86.7999H126.423V80.7431Z" fill="#66805D"/>
<path d="M286.111 126.531H280.995C280.902 126.326 280.826 126.148 280.764 126.005C279.245 122.42 271.422 114.198 271.422 114.198C271.422 114.198 271.422 114.203 271.422 114.216C271.422 114.216 271.417 114.221 271.417 114.225C271.417 114.225 271.417 114.23 271.417 114.234C271.413 114.247 271.408 114.256 271.404 114.27C271.4 114.287 271.395 114.31 271.386 114.337C271.382 114.35 271.377 114.368 271.377 114.381C271.373 114.394 271.368 114.403 271.364 114.417C271.043 115.615 269.467 121.583 268.679 126.531H234.059C233.979 126.072 233.885 125.636 233.778 125.231C233.462 124.001 233.248 122.785 233.11 121.65C233.106 121.592 233.097 121.538 233.092 121.48C233.066 121.271 233.043 121.062 233.026 120.857C232.727 117.748 232.95 115.365 232.968 115.125C232.87 115.334 232.171 117.9 231.253 121.066C230.75 122.803 230.18 124.723 229.615 126.531H221.439L231.699 96.9266C231.926 96.7484 234.588 95.4615 236.53 94.535C238.511 93.5908 240.903 92.2054 243.062 91.0209C244.166 90.4152 245.208 89.8673 246.112 89.453L246.25 89.3907V89.3864C247.742 88.7048 248.735 88.2549 248.735 88.2549C248.735 88.2549 248.735 88.2549 248.739 88.2549C248.775 88.2506 249.011 88.2281 249.385 88.1926C251.469 87.9921 257.934 87.3865 260.099 87.2619C260.277 87.2484 260.428 87.2441 260.544 87.2395C260.642 87.2353 260.717 87.2353 260.762 87.2395C261.033 87.2574 262.369 87.7207 264.119 88.3887C264.186 88.411 264.253 88.4376 264.319 88.4645C264.404 88.4957 264.484 88.5268 264.569 88.5579C264.72 88.6161 264.876 88.6739 265.032 88.7362C265.344 88.8609 265.669 88.9855 265.994 89.1146C266.105 89.1593 266.221 89.2037 266.336 89.2483C269.841 90.638 273.857 92.3615 274.81 93.0473C275.442 93.4972 277.406 97.1984 279.681 101.777C282.131 109.624 285.127 120.946 286.111 126.531Z" fill="#DECBC4"/>
<path d="M260.706 86.232C260.614 90.8869 251.603 93.4333 251.603 93.4333C251.603 93.4333 247.834 88.707 248.735 88.2545C249.088 88.0766 249.232 87.3711 249.276 86.5802C249.317 85.8273 249.269 84.9966 249.225 84.469C249.198 84.1398 249.172 83.928 249.172 83.928C249.172 83.928 250.46 82.5693 252.098 80.9508C254.96 78.1201 258.894 74.4941 258.9 75.9367C258.901 76.0131 258.89 76.1044 258.867 76.2101C258.176 79.4563 260.706 86.232 260.706 86.232Z" fill="#E5E5D4"/>
<path d="M257.235 79.4121C257.235 79.4121 257.235 79.4121 257.235 79.413C257.217 79.4401 256.835 80.012 256.182 80.8327C254.799 82.5732 252.199 85.4321 249.275 86.5805C249.316 85.8276 249.268 84.9969 249.224 84.4693C248.925 84.4618 248.626 84.427 248.329 84.3615C249.131 82.9609 250.288 81.4922 250.288 81.4922L252.097 80.9509L257.235 79.4121Z" fill="#66805D"/>
<path d="M258.966 76.0006C258.186 77.6967 257.446 78.926 257.236 79.4129C257.236 79.4129 257.236 79.4129 257.235 79.4138C257.099 79.731 256.727 80.2481 256.183 80.8336C254.698 82.4337 251.938 84.5441 249.225 84.4702C248.925 84.4626 248.626 84.4279 248.33 84.3623C247.234 84.1228 245.94 83.6137 245.228 82.2196C239.607 71.211 243.677 62.2092 243.677 62.2092C243.677 62.2092 259.048 57.8616 261.452 62.4897C263.14 65.736 260.797 72.0155 258.966 76.0006Z" fill="#E5E5D4"/>
<path d="M243.677 62.2086C243.677 62.2086 242.25 62.1295 241.897 59.4225C241.548 56.7481 242.253 56.0068 242.253 56.0068C242.253 56.0068 248.599 53.3499 250.877 53.0043C253.156 52.6588 258.759 52.327 260.073 53.8294C260.073 53.8294 263.264 53.0877 264.133 58.3865C265.513 66.7927 259.434 74.9552 259.434 74.9552C259.434 74.9552 259.485 69.4634 258.275 68.7358C257.064 68.0081 256.019 69.7387 256.019 69.7387L253.542 70.1824C253.542 70.1824 257.304 62.0576 252.791 61.7566C248.278 61.4556 246.261 62.6798 243.677 62.2086Z" fill="#51565C"/>
<path d="M256.086 67.5497C256.322 65.1303 260.696 64.2067 260.403 66.7423C260.11 69.2784 257.956 71.7146 256.961 71.6289C255.966 71.5433 255.907 69.3939 256.086 67.5497Z" fill="#66805D"/>
<path d="M281.69 102.004C280.265 97.4387 279.032 93.8267 278.484 93.4347C277.527 92.7488 269.939 90.6601 266.337 89.2483C266.221 89.2036 266.106 89.1593 265.994 89.1146C265.669 88.9855 265.344 88.8607 265.033 88.7362C264.877 88.6738 264.721 88.6161 264.569 88.5579C264.485 88.5268 264.405 88.4957 264.32 88.4644C264.254 88.4376 264.187 88.4111 264.12 88.3887C264.115 88.3931 264.111 88.4021 264.102 88.4064C263.781 88.7671 262.116 90.6601 260.126 93.4928C256.403 98.7837 251.554 107.357 252.298 115.272C252.538 117.81 252.832 121.458 253.326 125.551C253.362 125.876 253.402 126.201 253.447 126.531H270.242C270.447 122.246 270.812 116.603 271.364 114.416C271.369 114.403 271.373 114.394 271.378 114.381C271.378 114.368 271.382 114.35 271.387 114.336C271.391 114.314 271.4 114.292 271.405 114.269C271.409 114.256 271.414 114.247 271.418 114.234C271.418 114.229 271.418 114.225 271.418 114.225C271.418 114.22 271.422 114.216 271.422 114.216C271.422 114.216 275.488 120.572 275.697 126.531H286.268C285.751 120.995 284.135 109.838 281.69 102.004Z" fill="#66805D"/>
<path d="M246.184 89.5066C246.184 89.5066 244.915 93.7287 243.276 104.271C243.276 104.271 243.276 104.271 243.276 104.275C243.218 104.627 243.165 104.988 243.107 105.357C243.103 105.398 243.094 105.442 243.089 105.487C243.049 105.727 243.014 105.977 242.978 106.226C242.973 106.257 242.969 106.284 242.965 106.315C242.938 106.48 242.911 106.649 242.889 106.823C242.826 107.237 242.764 107.665 242.702 108.097C242.087 112.399 241.268 119.236 240.435 126.531H233.796C233.435 124.504 233.097 122.66 233.124 121.395C233.11 121.422 233.101 121.454 233.092 121.48C232.563 122.95 231.979 124.549 231.387 126.103C231.334 126.246 231.28 126.388 231.227 126.531H219.783L231.182 96.7038C231.409 96.5256 234.344 94.9445 236.285 94.0227C238.311 93.0561 240.871 91.8669 243.142 90.8204C244.229 90.3171 245.249 89.8495 246.112 89.4531L246.184 89.5066Z" fill="#66805D"/>
<path d="M261.622 99.9371L257.235 102.414L259.11 104.324L254.996 126.531H253.446C252.876 122.041 252.551 118.011 252.297 115.272C251.153 103.033 263.362 89.2304 264.119 88.3887C264.707 88.6113 265.339 88.8564 265.994 89.1146L261.622 99.9371Z" fill="#51565C"/>
<path d="M246.251 89.3906C246.251 89.3906 244.612 94.7396 242.706 108.097C242.092 112.394 241.268 119.236 240.436 126.531H239.79L238.939 105.549L241.028 103.286L239.171 100.966L243.143 90.8202C244.229 90.317 245.249 89.8494 246.113 89.453L246.251 89.3906Z" fill="#51565C"/>
<path d="M264.341 88.4403L260.706 86.2324C260.706 86.2324 260.605 88.226 251.604 93.4337L254.16 100.635L264.341 88.4403Z" fill="#F5E2D9"/>
<path d="M249.209 87.2363C249.209 87.2363 249.351 89.3882 251.603 93.4333L246.615 99.9383L246.251 89.3882L249.209 87.2363Z" fill="#F5E2D9"/>
<path d="M251.617 93.4336C251.617 93.4336 252.584 97.3017 252.236 98.3847C252.236 98.3847 250.11 99.1582 248.582 98.1912C248.582 98.1912 249.664 95.4836 251.617 93.4336Z" fill="#66805D"/>
<path d="M250.445 106.587C249.425 113.535 249.425 120.563 249.803 126.531H245.542C245.484 125.689 245.431 124.812 245.377 123.894C244.585 110.137 249.447 97.8441 249.447 97.8441L251.616 97.3008C251.616 97.3008 250.917 103.38 250.445 106.587Z" fill="#66805D"/>
<path d="M233.262 115.16C233.1 118.461 233.124 121.392 233.124 121.392C233.124 121.392 233.124 121.393 233.124 121.395C233.122 121.411 233.119 121.5 233.112 121.647C233.105 121.591 233.099 121.536 233.092 121.481C232.564 122.951 231.978 124.548 231.388 126.103C231.251 124.301 231.216 122.621 231.256 121.066C231.492 111.811 234.403 106.957 234.403 106.957C233.735 108.57 233.415 112.031 233.262 115.16Z" fill="#2D3133"/>
<path d="M169.124 125.599L155.509 133.085L141.836 111.564L158.373 105.818L169.124 125.599Z" fill="#2D332B"/>
<path d="M168.26 124.952L155.528 131.952L142.741 111.826L158.206 106.453L168.26 124.952Z" fill="white"/>
<path d="M172.923 121.19C172.923 121.19 170.554 120.056 169.513 119.463C168.473 118.871 165.797 118.057 165.581 117.864C165.365 117.671 157.65 117.195 157.182 116.791C156.714 116.387 156.259 117.738 158.259 118.176C160.258 118.614 163.041 119.685 163.193 120.467C163.345 121.249 161.139 121.434 160.916 122.078C160.692 122.722 160.978 122.577 161.295 122.715C161.611 122.854 163.919 121.575 164.934 121.938C165.948 122.301 167.5 121.798 168.278 122.065C169.055 122.331 172.838 123.604 172.838 123.604L172.923 121.19Z" fill="#E5E5D4"/>
<path d="M154.845 130.385C154.845 130.385 152.855 128.593 151.891 127.843C150.928 127.093 149.12 124.888 148.854 124.759C148.587 124.631 145.135 117.544 144.572 117.26C144.009 116.976 145.104 116.021 146.296 117.736C147.487 119.45 149.58 121.656 150.376 121.495C151.171 121.334 150.487 119.182 151.006 118.721C151.526 118.26 151.501 118.586 151.755 118.83C152.008 119.074 151.702 121.747 152.439 122.563C153.176 123.378 153.307 125.036 153.861 125.665C154.414 126.295 157.087 129.364 157.087 129.364L154.845 130.385Z" fill="#E5E5D4"/>
<path d="M197.72 226.177C197.72 226.177 198.15 229.167 198.204 229.616C198.258 230.065 202.995 229.351 202.995 229.351L203.378 225.792C203.378 225.792 198.312 225.755 197.72 226.177Z" fill="#66805D"/>
<path d="M198.154 229.236C198.154 229.236 196.653 231.037 195.201 231.823C193.749 232.608 191.469 232.919 190.61 233.732C189.991 234.319 188.354 236.845 194.382 236.794C200.411 236.743 203.318 237.15 203.963 236.182C204.609 235.214 203.029 229.033 203.029 229.033C203.029 229.033 201.601 229.547 198.154 229.236Z" fill="#2D332B"/>
<path d="M163.78 226.177C163.78 226.177 164.211 229.167 164.265 229.616C164.318 230.065 169.055 229.351 169.055 229.351L169.439 225.792C169.439 225.792 164.373 225.755 163.78 226.177Z" fill="#66805D"/>
<path d="M164.215 229.236C164.215 229.236 162.714 231.037 161.262 231.822C159.811 232.608 154.469 233.253 153.611 234.066C152.991 234.652 151.961 237.014 160.443 236.794C166.47 236.637 169.379 237.15 170.024 236.182C170.67 235.214 169.09 229.033 169.09 229.033C169.09 229.033 167.745 229.582 164.215 229.236Z" fill="#2D332B"/>
<path d="M193.798 149.352C193.798 149.352 198.249 156.425 197.916 162.818C197.584 169.212 199.53 176.192 200.199 182.871C200.944 190.317 203.995 207.944 204.105 211.927C204.216 215.91 203.632 228.628 203.632 228.628L197.526 228.767C197.526 228.767 192.397 197.951 191.069 194.807C189.741 191.662 183.154 169.245 182.933 166.73C182.712 164.214 193.798 149.352 193.798 149.352Z" fill="#2D332B"/>
<path d="M170.368 150.31C170.368 150.31 167.014 167.833 166.571 171.746C166.128 175.66 165.833 190.684 165.612 193.129C165.39 195.575 164.136 225.134 162.955 228.767H170.761C170.761 228.767 176.754 207.279 176.754 197.112C176.754 186.946 181.383 175.01 184.372 168.302C187.36 161.594 194.2 161.435 196.038 148.989C196.038 148.989 172.855 146.362 170.368 150.31Z" fill="#2D332B"/>
<path d="M186.37 89.8854C186.37 89.8854 180.396 87.6535 177.642 92.202C174.887 96.7505 175.152 105.857 178.164 106.977C181.175 108.097 185.699 107.511 187.24 104.665C188.782 101.819 190.174 97.704 190.107 94.954C190.04 92.2043 187.939 90.6794 186.37 89.8854Z" fill="#E5E5D4"/>
<path d="M178.812 107.185C178.812 107.185 179.061 108.798 178.65 109.593C178.239 110.388 186.389 110.409 186.389 110.409C186.389 110.409 187.051 106.086 188.305 102.433C189.56 98.7811 178.812 107.185 178.812 107.185Z" fill="#E5E5D4"/>
<path d="M188.306 102.434C188.306 102.434 187.744 103.362 185.447 103.002C183.151 102.642 180.35 99.5861 179.391 99.2507C178.432 98.9153 178.423 98.3519 178.423 98.3519L177.823 99.2289L176.805 99.2933C176.805 99.2933 177.733 96.5599 176.332 95.4451C174.931 94.3303 177.786 86.5976 185.151 89.1721C185.151 89.1721 190.807 90.7315 190.601 93.9492C190.395 97.1667 189.572 100.832 188.306 102.434Z" fill="#3A3F47"/>
<path d="M178.166 109.497C178.166 109.497 178.192 107.979 178.88 107.833C179.568 107.688 186.476 107.023 187.32 107.356V109.124C187.32 109.124 185.693 110.126 178.166 109.497Z" fill="#E2D2CA"/>
<path d="M178.575 97.1826C178.704 96.6429 180.076 95.1007 180.602 96.752C181.127 98.4033 179.808 100.624 179.072 100.434C178.336 100.244 178.249 98.5509 178.575 97.1826Z" fill="#E5E5D4"/>
<path d="M150.755 127.439C150.758 127.438 150.762 127.437 150.766 127.438C150.717 127.46 150.709 127.462 150.755 127.439Z" fill="#66805D"/>
<path d="M198.819 166.202C198.819 166.202 195.155 167.281 188.907 167.97C182.66 168.659 167.05 167.721 166.952 166.983C166.853 166.245 170.309 139.493 170.113 138.115C169.916 136.737 169.811 131.828 169.811 131.828C169.733 133.174 168.363 138.668 166.71 141.662C166.112 142.745 164.108 146.136 163.142 145.365C158.465 141.63 151.224 127.557 150.765 127.438C151.151 127.27 154.197 125.867 154.624 125.725C154.998 125.6 158.372 129.173 160.416 131.388C161.327 132.375 161.975 133.092 161.975 133.092C162.565 131.764 164.715 123.395 165.383 120.499C166.89 113.967 166.658 113.695 166.658 113.695C171.229 112.313 178.166 109.498 178.166 109.498L187.32 109.125C187.32 109.125 195.722 110.975 199.03 112.47C199.344 112.611 199.346 119.966 200.207 121.895L197.464 127.683C197.464 127.683 195.879 139.15 195.55 144.25C195.4 146.591 198.819 166.202 198.819 166.202Z" fill="#66805D"/>
<path d="M200.587 131.445C200.348 132.216 199.263 132.868 198.558 133.154C198.107 133.336 197.601 133.395 197.093 133.301L196.734 133.235V133.234L190.461 132.071C190.461 132.071 189.088 116.259 199.031 112.471C199.293 112.557 202.783 124.365 200.587 131.445Z" fill="#66805D"/>
<path d="M198.558 133.153V133.153C198.106 133.336 197.601 133.395 197.092 133.301L196.733 133.235V133.234L197.352 125.154L198.558 133.153Z" fill="#91A28B"/>
<path d="M161.975 133.093L161.208 136.341C161.208 136.341 160.376 133.082 160.416 131.389C161.328 132.376 161.975 133.093 161.975 133.093Z" fill="#91A28B"/>
<path d="M188.071 90.4229C188.071 90.4229 195.901 89.4422 188.204 102.523L188.071 90.4229Z" fill="#3A3F47"/>
<path d="M148.13 110.41L147.334 109.042L153.603 106.879L154.398 108.239L148.13 110.41Z" fill="#2D332B"/>
<path d="M53.2301 292.282C52.71 292.282 52.2479 292.208 51.8439 292.058C51.4399 291.909 51.0968 291.698 50.8146 291.427C50.5324 291.156 50.311 290.838 50.1505 290.473C49.9901 290.107 49.8932 289.709 49.86 289.277L49.8517 289.161H51.3459L51.3542 289.244C51.3874 289.543 51.4759 289.82 51.6198 290.074C51.7637 290.323 51.9684 290.525 52.234 290.68C52.4997 290.83 52.8289 290.904 53.2218 290.904C53.8859 290.904 54.3922 290.713 54.7409 290.332C55.0895 289.944 55.2638 289.385 55.2638 288.655V280.022H56.758V288.671C56.758 289.424 56.6169 290.071 56.3346 290.614C56.0579 291.151 55.6567 291.563 55.131 291.851C54.6053 292.138 53.9717 292.282 53.2301 292.282ZM62.9673 292.158C62.1206 292.158 61.3874 291.972 60.7676 291.602C60.1533 291.225 59.6774 290.691 59.3398 290C59.0078 289.308 58.8418 288.486 58.8418 287.534V287.518C58.8418 286.56 59.0078 285.736 59.3398 285.044C59.6774 284.352 60.1533 283.821 60.7676 283.45C61.3874 283.079 62.1206 282.894 62.9673 282.894C63.8195 282.894 64.5527 283.079 65.167 283.45C65.7812 283.821 66.2544 284.352 66.5864 285.044C66.924 285.736 67.0928 286.56 67.0928 287.518V287.534C67.0928 288.486 66.924 289.308 66.5864 290C66.2544 290.691 65.7812 291.225 65.167 291.602C64.5527 291.972 63.8195 292.158 62.9673 292.158ZM62.9673 290.879C63.5317 290.879 64.0104 290.747 64.4033 290.481C64.7962 290.215 65.095 289.833 65.2998 289.335C65.5101 288.837 65.6152 288.237 65.6152 287.534V287.518C65.6152 286.809 65.5101 286.206 65.2998 285.708C65.095 285.21 64.7962 284.831 64.4033 284.571C64.0104 284.305 63.5317 284.172 62.9673 284.172C62.4028 284.172 61.9241 284.305 61.5312 284.571C61.1383 284.831 60.8367 285.21 60.6265 285.708C60.4217 286.206 60.3193 286.809 60.3193 287.518V287.534C60.3193 288.237 60.4217 288.837 60.6265 289.335C60.8367 289.833 61.1383 290.215 61.5312 290.481C61.9241 290.747 62.4028 290.879 62.9673 290.879ZM69.0272 292V283.052H70.4715V292H69.0272ZM69.7577 281.325C69.4865 281.325 69.2513 281.228 69.0521 281.035C68.8584 280.835 68.7616 280.6 68.7616 280.329C68.7616 280.052 68.8584 279.817 69.0521 279.624C69.2513 279.43 69.4865 279.333 69.7577 279.333C70.0343 279.333 70.2695 279.43 70.4632 279.624C70.6569 279.817 70.7537 280.052 70.7537 280.329C70.7537 280.6 70.6569 280.835 70.4632 281.035C70.2695 281.228 70.0343 281.325 69.7577 281.325ZM72.8542 292V283.052H74.2985V284.396H74.4313C74.6582 283.921 74.9847 283.553 75.4108 283.292C75.8369 283.027 76.3792 282.894 77.0378 282.894C78.0449 282.894 78.8169 283.182 79.3537 283.757C79.896 284.327 80.1672 285.144 80.1672 286.206V292H78.7228V286.555C78.7228 285.747 78.5513 285.149 78.2082 284.762C77.8706 284.369 77.3449 284.172 76.631 284.172C76.1551 284.172 75.7428 284.275 75.3942 284.479C75.0456 284.684 74.7744 284.975 74.5807 285.351C74.3926 285.727 74.2985 286.178 74.2985 286.704V292H72.8542ZM86.8832 292V283.052H88.3275V284.396H88.4603C88.6872 283.921 89.0137 283.553 89.4398 283.292C89.8659 283.027 90.4082 282.894 91.0668 282.894C92.0739 282.894 92.8459 283.182 93.3827 283.757C93.925 284.327 94.1962 285.144 94.1962 286.206V292H92.7518V286.555C92.7518 285.747 92.5803 285.149 92.2372 284.762C91.8996 284.369 91.3739 284.172 90.66 284.172C90.1841 284.172 89.7718 284.275 89.4232 284.479C89.0746 284.684 88.8034 284.975 88.6097 285.351C88.4216 285.727 88.3275 286.178 88.3275 286.704V292H86.8832ZM100.148 292.158C99.3015 292.158 98.5682 291.972 97.9484 291.602C97.3342 291.225 96.8583 290.691 96.5207 290C96.1887 289.308 96.0227 288.486 96.0227 287.534V287.518C96.0227 286.56 96.1887 285.736 96.5207 285.044C96.8583 284.352 97.3342 283.821 97.9484 283.45C98.5682 283.079 99.3015 282.894 100.148 282.894C101 282.894 101.734 283.079 102.348 283.45C102.962 283.821 103.435 284.352 103.767 285.044C104.105 285.736 104.274 286.56 104.274 287.518V287.534C104.274 288.486 104.105 289.308 103.767 290C103.435 290.691 102.962 291.225 102.348 291.602C101.734 291.972 101 292.158 100.148 292.158ZM100.148 290.879C100.713 290.879 101.191 290.747 101.584 290.481C101.977 290.215 102.276 289.833 102.481 289.335C102.691 288.837 102.796 288.237 102.796 287.534V287.518C102.796 286.809 102.691 286.206 102.481 285.708C102.276 285.21 101.977 284.831 101.584 284.571C101.191 284.305 100.713 284.172 100.148 284.172C99.5837 284.172 99.105 284.305 98.7121 284.571C98.3192 284.831 98.0176 285.21 97.8073 285.708C97.6026 286.206 97.5002 286.809 97.5002 287.518V287.534C97.5002 288.237 97.6026 288.837 97.8073 289.335C98.0176 289.833 98.3192 290.215 98.7121 290.481C99.105 290.747 99.5837 290.879 100.148 290.879ZM107.569 292L105.063 283.052H106.507L108.267 290.207H108.399L110.4 283.052H111.77L113.77 290.207H113.903L115.663 283.052H117.099L114.592 292H113.139L111.139 285.077H111.006L109.014 292H107.569ZM126.288 292.066C125.37 292.066 124.703 291.881 124.288 291.51C123.878 291.139 123.674 290.528 123.674 289.676V284.247H122.262V283.052H123.674V280.736H125.168V283.052H127.127V284.247H125.168V289.311C125.168 289.836 125.267 290.215 125.467 290.448C125.666 290.675 125.998 290.788 126.463 290.788C126.59 290.788 126.698 290.785 126.786 290.78C126.88 290.774 126.994 290.766 127.127 290.755V291.983C126.988 292.006 126.85 292.025 126.712 292.042C126.573 292.058 126.432 292.066 126.288 292.066ZM132.506 292.158C131.659 292.158 130.926 291.972 130.306 291.602C129.692 291.225 129.216 290.691 128.878 290C128.546 289.308 128.38 288.486 128.38 287.534V287.518C128.38 286.56 128.546 285.736 128.878 285.044C129.216 284.352 129.692 283.821 130.306 283.45C130.926 283.079 131.659 282.894 132.506 282.894C133.358 282.894 134.091 283.079 134.706 283.45C135.32 283.821 135.793 284.352 136.125 285.044C136.463 285.736 136.631 286.56 136.631 287.518V287.534C136.631 288.486 136.463 289.308 136.125 290C135.793 290.691 135.32 291.225 134.706 291.602C134.091 291.972 133.358 292.158 132.506 292.158ZM132.506 290.879C133.07 290.879 133.549 290.747 133.942 290.481C134.335 290.215 134.634 289.833 134.838 289.335C135.049 288.837 135.154 288.237 135.154 287.534V287.518C135.154 286.809 135.049 286.206 134.838 285.708C134.634 285.21 134.335 284.831 133.942 284.571C133.549 284.305 133.07 284.172 132.506 284.172C131.941 284.172 131.463 284.305 131.07 284.571C130.677 284.831 130.375 285.21 130.165 285.708C129.96 286.206 129.858 286.809 129.858 287.518V287.534C129.858 288.237 129.96 288.837 130.165 289.335C130.375 289.833 130.677 290.215 131.07 290.481C131.463 290.747 131.941 290.879 132.506 290.879ZM146.278 292.158C145.525 292.158 144.866 291.967 144.302 291.585C143.738 291.203 143.3 290.666 142.99 289.975C142.681 289.277 142.526 288.464 142.526 287.534V287.518C142.526 286.582 142.681 285.769 142.99 285.077C143.3 284.385 143.735 283.849 144.294 283.467C144.858 283.085 145.519 282.894 146.278 282.894C146.687 282.894 147.072 282.96 147.431 283.093C147.797 283.221 148.12 283.4 148.403 283.633C148.685 283.865 148.906 284.142 149.067 284.463H149.199V279.499H150.644V292H149.199V290.572H149.067C148.884 290.904 148.654 291.189 148.378 291.427C148.101 291.66 147.786 291.84 147.431 291.967C147.077 292.094 146.693 292.158 146.278 292.158ZM146.61 290.879C147.152 290.879 147.62 290.744 148.012 290.473C148.405 290.201 148.707 289.817 148.917 289.319C149.128 288.815 149.233 288.22 149.233 287.534V287.518C149.233 286.826 149.128 286.231 148.917 285.733C148.707 285.235 148.405 284.85 148.012 284.579C147.62 284.308 147.152 284.172 146.61 284.172C146.067 284.172 145.6 284.308 145.207 284.579C144.819 284.845 144.521 285.227 144.31 285.725C144.106 286.223 144.003 286.82 144.003 287.518V287.534C144.003 288.226 144.106 288.824 144.31 289.327C144.521 289.825 144.819 290.21 145.207 290.481C145.6 290.747 146.067 290.879 146.61 290.879ZM153.109 292V283.052H154.554V292H153.109ZM153.84 281.325C153.569 281.325 153.334 281.228 153.134 281.035C152.941 280.835 152.844 280.6 152.844 280.329C152.844 280.052 152.941 279.817 153.134 279.624C153.334 279.43 153.569 279.333 153.84 279.333C154.117 279.333 154.352 279.43 154.545 279.624C154.739 279.817 154.836 280.052 154.836 280.329C154.836 280.6 154.739 280.835 154.545 281.035C154.352 281.228 154.117 281.325 153.84 281.325ZM160.008 292.158C159.344 292.158 158.757 292.058 158.248 291.859C157.739 291.654 157.329 291.369 157.019 291.004C156.715 290.639 156.535 290.21 156.48 289.717H157.957C158.079 290.088 158.317 290.387 158.671 290.614C159.025 290.841 159.488 290.954 160.058 290.954C160.461 290.954 160.816 290.896 161.12 290.78C161.43 290.658 161.673 290.495 161.85 290.29C162.028 290.08 162.116 289.839 162.116 289.568V289.551C162.116 289.247 161.994 288.99 161.751 288.779C161.507 288.563 161.109 288.389 160.556 288.256L159.169 287.924C158.61 287.792 158.151 287.62 157.791 287.41C157.432 287.194 157.166 286.931 156.995 286.621C156.823 286.306 156.737 285.935 156.737 285.509V285.5C156.737 285.002 156.881 284.557 157.169 284.164C157.462 283.771 157.861 283.461 158.364 283.234C158.868 283.007 159.435 282.894 160.066 282.894C160.691 282.894 161.245 282.994 161.726 283.193C162.213 283.387 162.603 283.663 162.896 284.023C163.195 284.383 163.378 284.806 163.444 285.293H162.025C161.931 284.939 161.715 284.651 161.377 284.43C161.04 284.208 160.6 284.098 160.058 284.098C159.703 284.098 159.388 284.156 159.111 284.272C158.835 284.383 158.616 284.538 158.455 284.737C158.295 284.936 158.215 285.168 158.215 285.434V285.451C158.215 285.65 158.267 285.827 158.372 285.982C158.478 286.137 158.641 286.272 158.862 286.389C159.084 286.505 159.369 286.607 159.717 286.696L161.095 287.028C161.936 287.233 162.562 287.526 162.971 287.908C163.386 288.29 163.594 288.801 163.594 289.443V289.46C163.594 289.991 163.436 290.462 163.121 290.871C162.805 291.275 162.376 291.59 161.834 291.817C161.297 292.044 160.688 292.158 160.008 292.158ZM169.156 292.158C168.32 292.158 167.595 291.967 166.981 291.585C166.366 291.203 165.891 290.664 165.553 289.966C165.215 289.269 165.047 288.447 165.047 287.501V287.484C165.047 286.555 165.213 285.747 165.545 285.061C165.882 284.374 166.358 283.843 166.972 283.467C167.587 283.085 168.312 282.894 169.147 282.894C169.872 282.894 170.497 283.021 171.023 283.276C171.549 283.53 171.969 283.874 172.285 284.305C172.6 284.731 172.802 285.21 172.891 285.741L172.899 285.791H171.463L171.455 285.766C171.344 285.323 171.092 284.947 170.699 284.637C170.307 284.327 169.789 284.172 169.147 284.172C168.61 284.172 168.146 284.308 167.753 284.579C167.36 284.85 167.055 285.235 166.84 285.733C166.629 286.225 166.524 286.809 166.524 287.484V287.501C166.524 288.187 166.632 288.785 166.848 289.294C167.064 289.798 167.368 290.188 167.761 290.464C168.154 290.741 168.616 290.879 169.147 290.879C169.75 290.879 170.243 290.749 170.625 290.489C171.007 290.229 171.281 289.85 171.447 289.352L171.463 289.302L172.891 289.294L172.874 289.385C172.753 289.922 172.537 290.401 172.227 290.821C171.917 291.236 171.507 291.563 170.998 291.801C170.489 292.039 169.875 292.158 169.156 292.158ZM178.345 292.158C177.498 292.158 176.765 291.972 176.145 291.602C175.531 291.225 175.055 290.691 174.717 290C174.385 289.308 174.219 288.486 174.219 287.534V287.518C174.219 286.56 174.385 285.736 174.717 285.044C175.055 284.352 175.531 283.821 176.145 283.45C176.765 283.079 177.498 282.894 178.345 282.894C179.197 282.894 179.93 283.079 180.545 283.45C181.159 283.821 181.632 284.352 181.964 285.044C182.302 285.736 182.47 286.56 182.47 287.518V287.534C182.47 288.486 182.302 289.308 181.964 290C181.632 290.691 181.159 291.225 180.545 291.602C179.93 291.972 179.197 292.158 178.345 292.158ZM178.345 290.879C178.909 290.879 179.388 290.747 179.781 290.481C180.174 290.215 180.473 289.833 180.677 289.335C180.888 288.837 180.993 288.237 180.993 287.534V287.518C180.993 286.809 180.888 286.206 180.677 285.708C180.473 285.21 180.174 284.831 179.781 284.571C179.388 284.305 178.909 284.172 178.345 284.172C177.78 284.172 177.302 284.305 176.909 284.571C176.516 284.831 176.214 285.21 176.004 285.708C175.799 286.206 175.697 286.809 175.697 287.518V287.534C175.697 288.237 175.799 288.837 176.004 289.335C176.214 289.833 176.516 290.215 176.909 290.481C177.302 290.747 177.78 290.879 178.345 290.879ZM186.571 292L183.259 283.052H184.787L187.235 290.423H187.368L189.817 283.052H191.344L188.032 292H186.571ZM196.234 292.158C195.381 292.158 194.648 291.97 194.034 291.593C193.425 291.217 192.955 290.686 192.623 290C192.296 289.308 192.133 288.494 192.133 287.559V287.551C192.133 286.627 192.296 285.816 192.623 285.119C192.955 284.421 193.422 283.876 194.026 283.483C194.629 283.09 195.334 282.894 196.142 282.894C196.956 282.894 197.653 283.082 198.234 283.458C198.821 283.835 199.269 284.361 199.579 285.036C199.894 285.705 200.052 286.486 200.052 287.376V287.941H192.88V286.787H199.313L198.599 287.841V287.269C198.599 286.566 198.494 285.987 198.284 285.534C198.074 285.08 197.783 284.742 197.412 284.521C197.042 284.294 196.616 284.181 196.134 284.181C195.653 284.181 195.221 284.3 194.839 284.538C194.463 284.77 194.164 285.116 193.943 285.575C193.721 286.035 193.611 286.599 193.611 287.269V287.841C193.611 288.478 193.719 289.023 193.934 289.477C194.15 289.925 194.457 290.271 194.856 290.514C195.254 290.752 195.725 290.871 196.267 290.871C196.671 290.871 197.022 290.816 197.321 290.705C197.62 290.594 197.866 290.453 198.06 290.282C198.254 290.11 198.389 289.936 198.467 289.759L198.5 289.684H199.944L199.928 289.75C199.85 290.055 199.712 290.351 199.512 290.639C199.319 290.921 199.067 291.178 198.757 291.411C198.447 291.638 198.079 291.82 197.653 291.958C197.233 292.091 196.759 292.158 196.234 292.158ZM201.953 292V283.052H203.398V284.38H203.53C203.702 283.91 203.992 283.544 204.402 283.284C204.811 283.024 205.318 282.894 205.921 282.894C206.059 282.894 206.195 282.902 206.328 282.919C206.466 282.93 206.571 282.941 206.643 282.952V284.355C206.494 284.327 206.347 284.308 206.203 284.297C206.065 284.28 205.915 284.272 205.755 284.272C205.296 284.272 204.889 284.363 204.535 284.546C204.181 284.729 203.901 284.983 203.696 285.31C203.497 285.636 203.398 286.018 203.398 286.455V292H201.953ZM215.708 292.066C214.79 292.066 214.123 291.881 213.708 291.51C213.298 291.139 213.094 290.528 213.094 289.676V284.247H211.682V283.052H213.094V280.736H214.588V283.052H216.547V284.247H214.588V289.311C214.588 289.836 214.687 290.215 214.887 290.448C215.086 290.675 215.418 290.788 215.883 290.788C216.01 290.788 216.118 290.785 216.206 290.78C216.3 290.774 216.414 290.766 216.547 290.755V291.983C216.408 292.006 216.27 292.025 216.132 292.042C215.993 292.058 215.852 292.066 215.708 292.066ZM220.822 292.158C220.257 292.158 219.748 292.05 219.295 291.834C218.846 291.618 218.489 291.311 218.224 290.913C217.964 290.514 217.834 290.044 217.834 289.501V289.485C217.834 288.954 217.961 288.5 218.215 288.124C218.47 287.742 218.841 287.443 219.328 287.227C219.815 287.011 220.404 286.884 221.096 286.845L224.383 286.646V287.8L221.27 287.999C220.589 288.038 220.091 288.179 219.776 288.422C219.466 288.666 219.311 289.009 219.311 289.452V289.468C219.311 289.922 219.483 290.276 219.826 290.531C220.169 290.78 220.601 290.904 221.121 290.904C221.613 290.904 222.05 290.807 222.432 290.614C222.814 290.415 223.113 290.146 223.329 289.809C223.55 289.471 223.661 289.089 223.661 288.663V285.874C223.661 285.321 223.492 284.9 223.154 284.612C222.822 284.319 222.322 284.172 221.652 284.172C221.115 284.172 220.675 284.269 220.332 284.463C219.989 284.651 219.759 284.919 219.643 285.268L219.635 285.293H218.191L218.199 285.243C218.276 284.773 218.47 284.363 218.78 284.015C219.095 283.66 219.502 283.387 220 283.193C220.498 282.994 221.065 282.894 221.702 282.894C222.432 282.894 223.049 283.013 223.553 283.251C224.062 283.489 224.447 283.832 224.707 284.28C224.972 284.723 225.105 285.254 225.105 285.874V292H223.661V290.68H223.528C223.34 290.996 223.11 291.264 222.839 291.485C222.573 291.707 222.272 291.875 221.934 291.992C221.597 292.102 221.226 292.158 220.822 292.158ZM227.488 292V279.499H228.932V292H227.488ZM235.017 292.158C234.165 292.158 233.431 291.97 232.817 291.593C232.208 291.217 231.738 290.686 231.406 290C231.08 289.308 230.916 288.494 230.916 287.559V287.551C230.916 286.627 231.08 285.816 231.406 285.119C231.738 284.421 232.206 283.876 232.809 283.483C233.412 283.09 234.118 282.894 234.926 282.894C235.739 282.894 236.436 283.082 237.017 283.458C237.604 283.835 238.052 284.361 238.362 285.036C238.678 285.705 238.835 286.486 238.835 287.376V287.941H231.663V286.787H238.096L237.383 287.841V287.269C237.383 286.566 237.277 285.987 237.067 285.534C236.857 285.08 236.566 284.742 236.196 284.521C235.825 284.294 235.399 284.181 234.917 284.181C234.436 284.181 234.004 284.3 233.622 284.538C233.246 284.77 232.947 285.116 232.726 285.575C232.505 286.035 232.394 286.599 232.394 287.269V287.841C232.394 288.478 232.502 289.023 232.718 289.477C232.933 289.925 233.241 290.271 233.639 290.514C234.037 290.752 234.508 290.871 235.05 290.871C235.454 290.871 235.805 290.816 236.104 290.705C236.403 290.594 236.649 290.453 236.843 290.282C237.037 290.11 237.172 289.936 237.25 289.759L237.283 289.684H238.727L238.711 289.75C238.633 290.055 238.495 290.351 238.296 290.639C238.102 290.921 237.85 291.178 237.54 291.411C237.23 291.638 236.862 291.82 236.436 291.958C236.016 292.091 235.543 292.158 235.017 292.158ZM240.736 292V283.052H242.181V284.396H242.314C242.541 283.921 242.867 283.553 243.293 283.292C243.719 283.027 244.262 282.894 244.92 282.894C245.927 282.894 246.699 283.182 247.236 283.757C247.778 284.327 248.049 285.144 248.049 286.206V292H246.605V286.555C246.605 285.747 246.434 285.149 246.09 284.762C245.753 284.369 245.227 284.172 244.513 284.172C244.037 284.172 243.625 284.275 243.277 284.479C242.928 284.684 242.657 284.975 242.463 285.351C242.275 285.727 242.181 286.178 242.181 286.704V292H240.736ZM253.503 292.066C252.585 292.066 251.918 291.881 251.503 291.51C251.093 291.139 250.889 290.528 250.889 289.676V284.247H249.478V283.052H250.889V280.736H252.383V283.052H254.342V284.247H252.383V289.311C252.383 289.836 252.482 290.215 252.682 290.448C252.881 290.675 253.213 290.788 253.678 290.788C253.805 290.788 253.913 290.785 254.001 290.78C254.096 290.774 254.209 290.766 254.342 290.755V291.983C254.203 292.006 254.065 292.025 253.927 292.042C253.788 292.058 253.647 292.066 253.503 292.066ZM255.795 295.046L256.517 290.323H258.169L256.866 295.046H255.795ZM74.9254 314.988V303.052H76.3697V304.479H76.5025C76.6852 304.147 76.9148 303.865 77.1915 303.633C77.4682 303.395 77.7836 303.212 78.1378 303.085C78.492 302.958 78.8766 302.894 79.2916 302.894C80.0497 302.894 80.7083 303.088 81.2672 303.475C81.8316 303.857 82.2688 304.394 82.5787 305.085C82.8886 305.777 83.0436 306.588 83.0436 307.518V307.534C83.0436 308.469 82.8886 309.283 82.5787 309.975C82.2688 310.666 81.8316 311.203 81.2672 311.585C80.7083 311.967 80.0497 312.158 79.2916 312.158C78.8821 312.158 78.4947 312.094 78.1295 311.967C77.7698 311.834 77.4488 311.651 77.1666 311.419C76.8899 311.187 76.6686 310.91 76.5025 310.589H76.3697V314.988H74.9254ZM78.9596 310.879C79.5074 310.879 79.975 310.747 80.3624 310.481C80.7498 310.21 81.0458 309.825 81.2506 309.327C81.4609 308.824 81.566 308.226 81.566 307.534V307.518C81.566 306.82 81.4609 306.223 81.2506 305.725C81.0458 305.227 80.7498 304.845 80.3624 304.579C79.975 304.308 79.5074 304.172 78.9596 304.172C78.4173 304.172 77.9496 304.308 77.5567 304.579C77.1638 304.85 76.8622 305.235 76.652 305.733C76.4417 306.231 76.3365 306.826 76.3365 307.518V307.534C76.3365 308.22 76.4417 308.815 76.652 309.319C76.8622 309.817 77.1638 310.201 77.5567 310.473C77.9496 310.744 78.4173 310.879 78.9596 310.879ZM87.4184 312.158C86.8539 312.158 86.3448 312.05 85.8911 311.834C85.4428 311.618 85.0859 311.311 84.8203 310.913C84.5602 310.514 84.4301 310.044 84.4301 309.501V309.485C84.4301 308.954 84.5574 308.5 84.812 308.124C85.0665 307.742 85.4373 307.443 85.9243 307.227C86.4112 307.011 87.0006 306.884 87.6923 306.845L90.9794 306.646V307.8L87.8666 307.999C87.186 308.038 86.6879 308.179 86.3725 308.422C86.0626 308.666 85.9077 309.009 85.9077 309.452V309.468C85.9077 309.922 86.0792 310.276 86.4223 310.531C86.7654 310.78 87.197 310.904 87.7172 310.904C88.2097 310.904 88.6469 310.807 89.0287 310.614C89.4106 310.415 89.7094 310.146 89.9252 309.809C90.1466 309.471 90.2573 309.089 90.2573 308.663V305.874C90.2573 305.321 90.0885 304.9 89.7509 304.612C89.4189 304.319 88.9181 304.172 88.2485 304.172C87.7117 304.172 87.2717 304.269 86.9286 304.463C86.5856 304.651 86.3559 304.919 86.2397 305.268L86.2314 305.293H84.787L84.7953 305.243C84.8728 304.773 85.0665 304.363 85.3764 304.015C85.6918 303.66 86.0986 303.387 86.5966 303.193C87.0947 302.994 87.6619 302.894 88.2983 302.894C89.0287 302.894 89.6458 303.013 90.1494 303.251C90.6585 303.489 91.0431 303.832 91.3032 304.28C91.5688 304.723 91.7016 305.254 91.7016 305.874V312H90.2573V310.68H90.1245C89.9363 310.996 89.7066 311.264 89.4355 311.485C89.1699 311.707 88.8683 311.875 88.5307 311.992C88.1931 312.102 87.8224 312.158 87.4184 312.158ZM94.0013 312V303.052H95.4456V304.38H95.5784C95.7499 303.91 96.0405 303.544 96.45 303.284C96.8595 303.024 97.3658 302.894 97.969 302.894C98.1074 302.894 98.243 302.902 98.3758 302.919C98.5141 302.93 98.6193 302.941 98.6912 302.952V304.355C98.5418 304.327 98.3951 304.308 98.2513 304.297C98.1129 304.28 97.9635 304.272 97.803 304.272C97.3437 304.272 96.937 304.363 96.5828 304.546C96.2286 304.729 95.9492 304.983 95.7444 305.31C95.5452 305.636 95.4456 306.018 95.4456 306.455V312H94.0013ZM103.481 312.066C102.562 312.066 101.896 311.881 101.481 311.51C101.071 311.139 100.866 310.528 100.866 309.676V304.247H99.4552V303.052H100.866V300.736H102.36V303.052H104.319V304.247H102.36V309.311C102.36 309.836 102.46 310.215 102.659 310.448C102.859 310.675 103.191 310.788 103.655 310.788C103.783 310.788 103.891 310.785 103.979 310.78C104.073 310.774 104.187 310.766 104.319 310.755V311.983C104.181 312.006 104.043 312.025 103.904 312.042C103.766 312.058 103.625 312.066 103.481 312.066ZM106.138 312V303.052H107.582V304.396H107.715C107.942 303.921 108.268 303.553 108.694 303.292C109.12 303.027 109.663 302.894 110.321 302.894C111.328 302.894 112.1 303.182 112.637 303.757C113.179 304.327 113.451 305.144 113.451 306.206V312H112.006V306.555C112.006 305.747 111.835 305.149 111.492 304.762C111.154 304.369 110.628 304.172 109.915 304.172C109.439 304.172 109.026 304.275 108.678 304.479C108.329 304.684 108.058 304.975 107.864 305.351C107.676 305.727 107.582 306.178 107.582 306.704V312H106.138ZM119.378 312.158C118.526 312.158 117.792 311.97 117.178 311.593C116.569 311.217 116.099 310.686 115.767 310C115.44 309.308 115.277 308.494 115.277 307.559V307.551C115.277 306.627 115.44 305.816 115.767 305.119C116.099 304.421 116.567 303.876 117.17 303.483C117.773 303.09 118.478 302.894 119.286 302.894C120.1 302.894 120.797 303.082 121.378 303.458C121.965 303.835 122.413 304.361 122.723 305.036C123.038 305.705 123.196 306.486 123.196 307.376V307.941H116.024V306.787H122.457L121.743 307.841V307.269C121.743 306.566 121.638 305.987 121.428 305.534C121.218 305.08 120.927 304.742 120.556 304.521C120.186 304.294 119.76 304.181 119.278 304.181C118.797 304.181 118.365 304.3 117.983 304.538C117.607 304.77 117.308 305.116 117.087 305.575C116.865 306.035 116.755 306.599 116.755 307.269V307.841C116.755 308.478 116.863 309.023 117.078 309.477C117.294 309.925 117.601 310.271 118 310.514C118.398 310.752 118.869 310.871 119.411 310.871C119.815 310.871 120.166 310.816 120.465 310.705C120.764 310.594 121.01 310.453 121.204 310.282C121.398 310.11 121.533 309.936 121.611 309.759L121.644 309.684H123.088L123.072 309.75C122.994 310.055 122.856 310.351 122.657 310.639C122.463 310.921 122.211 311.178 121.901 311.411C121.591 311.638 121.223 311.82 120.797 311.958C120.377 312.091 119.903 312.158 119.378 312.158ZM125.097 312V303.052H126.542V304.38H126.674C126.846 303.91 127.137 303.544 127.546 303.284C127.956 303.024 128.462 302.894 129.065 302.894C129.203 302.894 129.339 302.902 129.472 302.919C129.61 302.93 129.715 302.941 129.787 302.952V304.355C129.638 304.327 129.491 304.308 129.347 304.297C129.209 304.28 129.06 304.272 128.899 304.272C128.44 304.272 128.033 304.363 127.679 304.546C127.325 304.729 127.045 304.983 126.84 305.31C126.641 305.636 126.542 306.018 126.542 306.455V312H125.097ZM137.4 312L134.893 303.052H136.337L138.097 310.207H138.23L140.23 303.052H141.6L143.6 310.207H143.733L145.493 303.052H146.929L144.422 312H142.97L140.969 305.077H140.836L138.844 312H137.4ZM148.531 312V303.052H149.976V312H148.531ZM149.262 301.325C148.991 301.325 148.756 301.228 148.556 301.035C148.363 300.835 148.266 300.6 148.266 300.329C148.266 300.052 148.363 299.817 148.556 299.624C148.756 299.43 148.991 299.333 149.262 299.333C149.539 299.333 149.774 299.43 149.967 299.624C150.161 299.817 150.258 300.052 150.258 300.329C150.258 300.6 150.161 300.835 149.967 301.035C149.774 301.228 149.539 301.325 149.262 301.325ZM155.538 312.066C154.619 312.066 153.952 311.881 153.537 311.51C153.128 311.139 152.923 310.528 152.923 309.676V304.247H151.512V303.052H152.923V300.736H154.417V303.052H156.376V304.247H154.417V309.311C154.417 309.836 154.517 310.215 154.716 310.448C154.915 310.675 155.247 310.788 155.712 310.788C155.839 310.788 155.947 310.785 156.036 310.78C156.13 310.774 156.243 310.766 156.376 310.755V311.983C156.238 312.006 156.099 312.025 155.961 312.042C155.823 312.058 155.681 312.066 155.538 312.066ZM158.277 312V299.499H159.722V304.396H159.854C160.081 303.921 160.408 303.553 160.834 303.292C161.26 303.027 161.802 302.894 162.461 302.894C163.13 302.894 163.698 303.024 164.162 303.284C164.627 303.539 164.981 303.912 165.225 304.405C165.468 304.897 165.59 305.498 165.59 306.206V312H164.146V306.555C164.146 305.747 163.974 305.149 163.631 304.762C163.294 304.369 162.768 304.172 162.054 304.172C161.578 304.172 161.166 304.275 160.817 304.479C160.469 304.684 160.197 304.975 160.004 305.351C159.816 305.727 159.722 306.178 159.722 306.704V312H158.277ZM175.967 312.158C175.131 312.158 174.406 311.967 173.792 311.585C173.178 311.203 172.702 310.664 172.364 309.966C172.027 309.269 171.858 308.447 171.858 307.501V307.484C171.858 306.555 172.024 305.747 172.356 305.061C172.694 304.374 173.169 303.843 173.784 303.467C174.398 303.085 175.123 302.894 175.959 302.894C176.683 302.894 177.309 303.021 177.835 303.276C178.36 303.53 178.781 303.874 179.096 304.305C179.412 304.731 179.614 305.21 179.702 305.741L179.71 305.791H178.274L178.266 305.766C178.155 305.323 177.904 304.947 177.511 304.637C177.118 304.327 176.6 304.172 175.959 304.172C175.422 304.172 174.957 304.308 174.564 304.579C174.171 304.85 173.867 305.235 173.651 305.733C173.441 306.225 173.335 306.809 173.335 307.484V307.501C173.335 308.187 173.443 308.785 173.659 309.294C173.875 309.798 174.179 310.188 174.572 310.464C174.965 310.741 175.427 310.879 175.959 310.879C176.562 310.879 177.054 310.749 177.436 310.489C177.818 310.229 178.092 309.85 178.258 309.352L178.274 309.302L179.702 309.294L179.686 309.385C179.564 309.922 179.348 310.401 179.038 310.821C178.728 311.236 178.319 311.563 177.81 311.801C177.3 312.039 176.686 312.158 175.967 312.158ZM185.156 312.158C184.309 312.158 183.576 311.972 182.956 311.602C182.342 311.225 181.866 310.691 181.529 310C181.197 309.308 181.031 308.486 181.031 307.534V307.518C181.031 306.56 181.197 305.736 181.529 305.044C181.866 304.352 182.342 303.821 182.956 303.45C183.576 303.079 184.309 302.894 185.156 302.894C186.008 302.894 186.742 303.079 187.356 303.45C187.97 303.821 188.443 304.352 188.775 305.044C189.113 305.736 189.282 306.56 189.282 307.518V307.534C189.282 308.486 189.113 309.308 188.775 310C188.443 310.691 187.97 311.225 187.356 311.602C186.742 311.972 186.008 312.158 185.156 312.158ZM185.156 310.879C185.721 310.879 186.199 310.747 186.592 310.481C186.985 310.215 187.284 309.833 187.489 309.335C187.699 308.837 187.804 308.237 187.804 307.534V307.518C187.804 306.809 187.699 306.206 187.489 305.708C187.284 305.21 186.985 304.831 186.592 304.571C186.199 304.305 185.721 304.172 185.156 304.172C184.592 304.172 184.113 304.305 183.72 304.571C183.327 304.831 183.026 305.21 182.815 305.708C182.611 306.206 182.508 306.809 182.508 307.518V307.534C182.508 308.237 182.611 308.837 182.815 309.335C183.026 309.833 183.327 310.215 183.72 310.481C184.113 310.747 184.592 310.879 185.156 310.879ZM191.266 312V299.499H192.71V312H191.266ZM195.226 312V299.499H196.67V312H195.226ZM202.755 312.158C201.903 312.158 201.169 311.97 200.555 311.593C199.946 311.217 199.476 310.686 199.144 310C198.817 309.308 198.654 308.494 198.654 307.559V307.551C198.654 306.627 198.817 305.816 199.144 305.119C199.476 304.421 199.944 303.876 200.547 303.483C201.15 303.09 201.856 302.894 202.663 302.894C203.477 302.894 204.174 303.082 204.755 303.458C205.342 303.835 205.79 304.361 206.1 305.036C206.415 305.705 206.573 306.486 206.573 307.376V307.941H199.401V306.787H205.834L205.12 307.841V307.269C205.12 306.566 205.015 305.987 204.805 305.534C204.595 305.08 204.304 304.742 203.933 304.521C203.563 304.294 203.137 304.181 202.655 304.181C202.174 304.181 201.742 304.3 201.36 304.538C200.984 304.77 200.685 305.116 200.464 305.575C200.242 306.035 200.132 306.599 200.132 307.269V307.841C200.132 308.478 200.24 309.023 200.455 309.477C200.671 309.925 200.978 310.271 201.377 310.514C201.775 310.752 202.246 310.871 202.788 310.871C203.192 310.871 203.543 310.816 203.842 310.705C204.141 310.594 204.387 310.453 204.581 310.282C204.775 310.11 204.91 309.936 204.988 309.759L205.021 309.684H206.465L206.449 309.75C206.371 310.055 206.233 310.351 206.034 310.639C205.84 310.921 205.588 311.178 205.278 311.411C204.968 311.638 204.6 311.82 204.174 311.958C203.754 312.091 203.28 312.158 202.755 312.158ZM212.16 315.154C211.44 315.154 210.812 315.052 210.276 314.847C209.739 314.648 209.31 314.363 208.989 313.992C208.674 313.627 208.477 313.201 208.4 312.714L208.416 312.706H209.91L209.919 312.714C209.996 313.051 210.229 313.328 210.616 313.544C211.003 313.765 211.518 313.876 212.16 313.876C212.962 313.876 213.588 313.693 214.036 313.328C214.49 312.968 214.717 312.459 214.717 311.801V309.991H214.584C214.396 310.318 214.16 310.597 213.878 310.83C213.596 311.062 213.278 311.239 212.924 311.361C212.569 311.477 212.188 311.535 211.778 311.535C211.009 311.535 210.342 311.353 209.778 310.987C209.219 310.617 208.787 310.107 208.483 309.46C208.178 308.812 208.026 308.071 208.026 307.235V307.219C208.026 306.383 208.178 305.642 208.483 304.994C208.793 304.341 209.23 303.829 209.794 303.458C210.359 303.082 211.031 302.894 211.811 302.894C212.232 302.894 212.619 302.96 212.973 303.093C213.328 303.226 213.64 303.414 213.911 303.658C214.188 303.901 214.418 304.192 214.6 304.529H214.7V303.052H216.144V311.875C216.144 312.54 215.981 313.118 215.655 313.61C215.334 314.103 214.874 314.482 214.277 314.748C213.679 315.019 212.973 315.154 212.16 315.154ZM212.093 310.257C212.647 310.257 213.12 310.13 213.513 309.875C213.911 309.615 214.216 309.258 214.426 308.804C214.642 308.35 214.75 307.827 214.75 307.235V307.219C214.75 306.627 214.642 306.101 214.426 305.642C214.216 305.182 213.911 304.823 213.513 304.562C213.12 304.302 212.647 304.172 212.093 304.172C211.54 304.172 211.07 304.302 210.682 304.562C210.301 304.823 210.007 305.182 209.802 305.642C209.603 306.101 209.504 306.627 209.504 307.219V307.235C209.504 307.827 209.603 308.35 209.802 308.804C210.007 309.258 210.301 309.615 210.682 309.875C211.07 310.13 211.54 310.257 212.093 310.257ZM222.146 312.158C221.294 312.158 220.561 311.97 219.946 311.593C219.338 311.217 218.867 310.686 218.535 310C218.209 309.308 218.045 308.494 218.045 307.559V307.551C218.045 306.627 218.209 305.816 218.535 305.119C218.867 304.421 219.335 303.876 219.938 303.483C220.541 303.09 221.247 302.894 222.055 302.894C222.868 302.894 223.565 303.082 224.147 303.458C224.733 303.835 225.181 304.361 225.491 305.036C225.807 305.705 225.964 306.486 225.964 307.376V307.941H218.793V306.787H225.226L224.512 307.841V307.269C224.512 306.566 224.407 305.987 224.196 305.534C223.986 305.08 223.696 304.742 223.325 304.521C222.954 304.294 222.528 304.181 222.046 304.181C221.565 304.181 221.133 304.3 220.752 304.538C220.375 304.77 220.076 305.116 219.855 305.575C219.634 306.035 219.523 306.599 219.523 307.269V307.841C219.523 308.478 219.631 309.023 219.847 309.477C220.063 309.925 220.37 310.271 220.768 310.514C221.167 310.752 221.637 310.871 222.179 310.871C222.583 310.871 222.935 310.816 223.233 310.705C223.532 310.594 223.779 310.453 223.972 310.282C224.166 310.11 224.301 309.936 224.379 309.759L224.412 309.684H225.857L225.84 309.75C225.762 310.055 225.624 310.351 225.425 310.639C225.231 310.921 224.979 311.178 224.669 311.411C224.36 311.638 223.992 311.82 223.565 311.958C223.145 312.091 222.672 312.158 222.146 312.158ZM230.937 312.158C230.273 312.158 229.686 312.058 229.177 311.859C228.668 311.654 228.259 311.369 227.949 311.004C227.644 310.639 227.464 310.21 227.409 309.717H228.887C229.008 310.088 229.246 310.387 229.6 310.614C229.955 310.841 230.417 310.954 230.987 310.954C231.391 310.954 231.745 310.896 232.049 310.78C232.359 310.658 232.603 310.495 232.78 310.29C232.957 310.08 233.045 309.839 233.045 309.568V309.551C233.045 309.247 232.924 308.99 232.68 308.779C232.437 308.563 232.038 308.389 231.485 308.256L230.099 307.924C229.54 307.792 229.08 307.62 228.721 307.41C228.361 307.194 228.095 306.931 227.924 306.621C227.752 306.306 227.666 305.935 227.666 305.509V305.5C227.666 305.002 227.81 304.557 228.098 304.164C228.391 303.771 228.79 303.461 229.293 303.234C229.797 303.007 230.364 302.894 230.995 302.894C231.62 302.894 232.174 302.994 232.655 303.193C233.142 303.387 233.532 303.663 233.826 304.023C234.124 304.383 234.307 304.806 234.373 305.293H232.954C232.86 304.939 232.644 304.651 232.307 304.43C231.969 304.208 231.529 304.098 230.987 304.098C230.633 304.098 230.317 304.156 230.04 304.272C229.764 304.383 229.545 304.538 229.385 304.737C229.224 304.936 229.144 305.168 229.144 305.434V305.451C229.144 305.65 229.197 305.827 229.302 305.982C229.407 306.137 229.57 306.272 229.791 306.389C230.013 306.505 230.298 306.607 230.646 306.696L232.024 307.028C232.865 307.233 233.491 307.526 233.9 307.908C234.315 308.29 234.523 308.801 234.523 309.443V309.46C234.523 309.991 234.365 310.462 234.05 310.871C233.734 311.275 233.305 311.59 232.763 311.817C232.226 312.044 231.618 312.158 230.937 312.158Z" fill="white"/>
</svg>
