<svg width="402" height="411" viewBox="0 0 402 411" fill="none" xmlns="http://www.w3.org/2000/svg">
<g opacity="0.3">
<path opacity="0.7" d="M102.081 284.99C156.367 314.435 244.383 314.437 298.668 284.991C352.954 255.545 352.954 207.805 298.668 178.36C244.381 148.914 156.366 148.914 102.08 178.359C47.7938 207.804 47.7938 255.546 102.081 284.99Z" fill="#F0F0F0"/>
</g>
<path d="M161.992 213.698C147.337 220.684 123.579 220.684 108.925 213.698C94.271 206.715 94.271 195.391 108.925 188.405C123.58 181.422 147.337 181.422 161.992 188.405C176.646 195.391 176.646 206.716 161.992 213.698Z" fill="#E0E0E0"/>
<path d="M88.2999 199.89L92.5177 197.48C92.5177 197.48 94.5404 186.332 93.0277 176.75C90.901 163.277 81.7272 158.63 78.3957 159.969C75.0643 161.308 74.2813 165.299 80.298 173.084C83.8473 177.677 88.4138 187.386 88.2999 199.89Z" fill="#66805D"/>
<g opacity="0.1">
<path d="M88.2999 199.89L92.5177 197.48C92.5177 197.48 94.5404 186.332 93.0277 176.75C90.901 163.277 81.7272 158.63 78.3957 159.969C75.0643 161.308 74.2813 165.299 80.298 173.084C83.8473 177.677 88.4138 187.386 88.2999 199.89Z" fill="black"/>
</g>
<path d="M89.8285 194.538C89.8147 194.538 89.8009 194.537 89.7871 194.535C89.6226 194.512 89.5074 194.361 89.5305 194.197C91.2735 181.583 86.201 167.764 80.502 162.195C80.3836 162.079 80.381 161.888 80.4974 161.77C80.6139 161.652 80.8041 161.649 80.9225 161.765C86.7254 167.436 91.8953 181.48 90.1259 194.279C90.1049 194.429 89.9759 194.538 89.8285 194.538Z" fill="white"/>
<path d="M76.598 206.65C75.9314 207.033 74.5582 206.196 74.0318 205.844C73.131 205.24 72.4012 204.383 71.917 203.416C71.3531 202.289 71.2109 201.082 71.3873 199.836C71.4787 199.19 71.6597 198.56 71.84 197.932C72.017 197.317 72.194 196.701 72.371 196.085C72.5454 195.477 72.7224 194.848 72.6421 194.221C72.4802 192.958 71.359 192.072 70.3391 191.309C69.2113 190.465 68.0374 189.35 68.044 187.829C68.0492 186.655 68.6566 185.565 69.3843 184.644C70.1114 183.723 70.9747 182.909 71.632 181.936C72.1051 181.236 72.4743 180.415 72.398 179.573C72.3499 179.05 72.1334 178.558 71.8834 178.096C71.3465 177.106 70.6378 176.199 70.2674 175.135C69.8969 174.071 69.9495 172.747 70.7799 171.986C71.4616 171.361 72.4749 171.274 73.3975 171.335C74.2509 171.391 75.0852 171.776 75.8321 172.191C78.2469 173.534 79.6254 176.395 82.1883 177.428C83.1767 177.827 84.2597 177.913 85.2902 178.186C86.3206 178.458 87.3708 178.985 87.8485 179.937C88.7894 181.816 87.0431 184.132 87.705 186.127C88.29 187.891 90.0054 188.567 90.9687 190.158C91.3898 190.853 91.4872 191.658 91.4194 192.468C91.3043 193.84 91.1036 194.847 90.4449 196.373C89.9008 197.634 88.3018 199.89 88.3018 199.89C88.2597 199.93 76.7 206.592 76.598 206.65Z" fill="#66805D"/>
<path d="M83.4445 203.004C83.4406 203.004 83.436 203.004 83.436 203.004C83.2656 202.997 83.1372 202.856 83.1438 202.691C83.6406 190.752 78.0154 177.572 73.9252 173.743C73.8042 173.629 73.7976 173.439 73.9114 173.318C74.0253 173.196 74.2148 173.191 74.3365 173.304C78.5089 177.21 84.2493 190.609 83.7452 202.716C83.738 202.878 83.6051 203.004 83.4445 203.004Z" fill="white"/>
<path d="M81.6554 188.899C81.6258 188.899 81.5962 188.895 81.5666 188.885C77.7311 187.699 72.9501 187.49 72.9027 187.489C72.7362 187.481 72.6079 187.341 72.6145 187.175C72.6217 187.01 72.7474 186.879 72.9277 186.887C72.9764 186.89 77.8331 187.102 81.7443 188.311C81.9028 188.36 81.9923 188.528 81.943 188.687C81.9028 188.816 81.7844 188.899 81.6554 188.899Z" fill="white"/>
<path d="M294.288 260.638C296.553 255.706 304.812 247.126 312.871 243.072C320.931 239.017 331.129 238.03 335.948 242.61C340.436 246.876 336.652 253.596 328.067 255.259C319.481 256.921 307.101 258.277 300.587 264.974L290.118 272.054L294.288 260.638Z" fill="#66805D"/>
<path opacity="0.1" d="M294.288 260.638C296.553 255.706 304.812 247.126 312.871 243.072C320.931 239.017 331.129 238.03 335.948 242.61C340.436 246.876 336.652 253.596 328.067 255.259C319.481 256.921 307.101 258.277 300.587 264.974L290.118 272.054L294.288 260.638Z" fill="black"/>
<path d="M290.825 267.22C290.988 267.28 291.177 267.226 291.283 267.079C302.318 251.758 322.224 244.326 331.765 245.045C331.984 245.061 332.174 244.897 332.19 244.679C332.207 244.462 332.049 244.269 331.825 244.254C322.101 243.52 301.841 251.062 290.64 266.615C290.511 266.793 290.552 267.04 290.729 267.168C290.759 267.191 290.792 267.208 290.825 267.22Z" fill="white"/>
<path d="M288.387 279.152C290.453 276.743 295.94 273.722 303.153 272.458C311.133 271.059 319.684 272.657 322.947 270.215C326.865 267.281 325.266 262.074 318.687 259.988C312.108 257.901 297.264 261.369 289.643 273.352L288.387 279.152Z" fill="#66805D"/>
<path d="M288.519 275.689C288.661 275.741 288.825 275.709 288.939 275.594C300.726 263.539 314.056 263.53 319.458 265.209C319.667 265.274 319.889 265.157 319.955 264.947C320.02 264.738 319.911 264.519 319.694 264.451C313.72 262.594 300.402 262.735 288.371 275.039C288.218 275.195 288.221 275.447 288.377 275.6C288.419 275.641 288.467 275.671 288.519 275.689Z" fill="white"/>
<path d="M168.918 217.289L176.64 221.747L174.067 223.233H184.362V217.289L181.788 218.775L174.067 214.316L168.918 217.289Z" fill="#66805D"/>
<path d="M188.856 226.461C188.748 226.461 188.639 226.434 188.54 226.376L186.619 225.267C186.316 225.092 186.212 224.705 186.387 224.401C186.562 224.098 186.95 223.994 187.253 224.169L189.174 225.278C189.477 225.453 189.581 225.84 189.406 226.144C189.287 226.347 189.074 226.461 188.856 226.461Z" fill="#66805D"/>
<path d="M269.808 273.2C269.7 273.2 269.592 273.173 269.492 273.115L265.788 270.977C265.485 270.802 265.381 270.414 265.556 270.111C265.731 269.808 266.119 269.703 266.422 269.879L270.126 272.017C270.429 272.192 270.533 272.58 270.358 272.883C270.24 273.087 270.027 273.2 269.808 273.2ZM260.814 268.007C260.706 268.007 260.597 267.98 260.497 267.922L256.794 265.784C256.49 265.609 256.386 265.221 256.561 264.918C256.736 264.615 257.124 264.51 257.427 264.686L261.131 266.824C261.434 266.999 261.538 267.386 261.363 267.689C261.246 267.893 261.033 268.007 260.814 268.007ZM251.819 262.814C251.711 262.814 251.603 262.787 251.503 262.729L247.799 260.59C247.496 260.415 247.392 260.028 247.567 259.724C247.742 259.421 248.13 259.318 248.433 259.492L252.137 261.631C252.44 261.806 252.544 262.193 252.369 262.497C252.251 262.7 252.038 262.814 251.819 262.814ZM242.824 257.62C242.716 257.62 242.607 257.593 242.508 257.535L238.805 255.397C238.501 255.222 238.397 254.835 238.572 254.531C238.747 254.229 239.135 254.125 239.438 254.299L243.141 256.437C243.445 256.612 243.549 257 243.374 257.303C243.256 257.506 243.043 257.62 242.824 257.62ZM233.829 252.427C233.721 252.427 233.613 252.4 233.513 252.342L229.81 250.204C229.506 250.029 229.402 249.641 229.577 249.338C229.752 249.034 230.141 248.931 230.443 249.106L234.147 251.244C234.45 251.419 234.554 251.807 234.379 252.11C234.261 252.314 234.048 252.427 233.829 252.427ZM224.834 247.234C224.727 247.234 224.618 247.207 224.519 247.149L220.815 245.012C220.512 244.836 220.408 244.449 220.583 244.146C220.758 243.842 221.146 243.738 221.449 243.913L225.152 246.051C225.456 246.226 225.56 246.614 225.385 246.917C225.266 247.12 225.054 247.234 224.834 247.234ZM215.84 242.041C215.732 242.041 215.623 242.014 215.524 241.956L211.82 239.818C211.517 239.643 211.413 239.255 211.588 238.952C211.762 238.649 212.151 238.545 212.454 238.72L216.157 240.858C216.461 241.033 216.565 241.421 216.39 241.724C216.272 241.927 216.059 242.041 215.84 242.041ZM206.845 236.848C206.738 236.848 206.629 236.821 206.529 236.763L202.825 234.625C202.522 234.45 202.418 234.062 202.593 233.759C202.768 233.456 203.155 233.352 203.459 233.527L207.163 235.665C207.466 235.84 207.57 236.227 207.395 236.531C207.277 236.734 207.065 236.848 206.845 236.848ZM197.85 231.655C197.742 231.655 197.633 231.628 197.533 231.57L193.83 229.431C193.527 229.256 193.423 228.869 193.598 228.565C193.773 228.261 194.161 228.158 194.464 228.333L198.167 230.472C198.47 230.647 198.574 231.034 198.399 231.338C198.282 231.542 198.069 231.655 197.85 231.655Z" fill="#66805D"/>
<path d="M277.02 277.363C276.912 277.363 276.803 277.336 276.704 277.278L274.784 276.169C274.481 275.994 274.377 275.607 274.552 275.303C274.727 274.999 275.115 274.897 275.418 275.071L277.338 276.18C277.641 276.355 277.745 276.742 277.57 277.046C277.452 277.25 277.239 277.363 277.02 277.363Z" fill="#66805D"/>
<path d="M318.976 111.416C318.976 111.409 318.97 111.409 318.97 111.409C318.786 111.301 318.57 111.168 318.381 111.06L299.999 100.504C295.874 97.7412 291.026 96.2969 285.641 96.2969C279.209 96.2969 272.721 98.6288 265.085 102.855C238.39 117.644 215.579 160.294 215.579 188.3V196.05C215.579 229.993 260.218 271.415 260.218 271.415L278.727 282.109C278.753 282.141 278.778 282.141 278.809 282.141C278.188 281.413 298.477 251.815 317.607 194.085C338.784 130.185 319.376 111.784 318.976 111.416ZM287.738 212.893C272.626 221.624 259.954 217.049 256.367 202.963C249.435 201.987 244.423 196.677 242.883 187.927C240.938 159.661 255.955 137.135 277.46 127.998C286.655 124.652 294.359 127.041 298.478 133.961C311.113 131.794 320.149 140.449 320.149 156.759C320.149 177.415 305.644 202.564 287.738 212.893Z" fill="#A7A7A7"/>
<path d="M320.149 156.758C320.149 177.414 305.645 202.563 287.738 212.891C272.626 221.623 259.953 217.048 256.367 202.962C260.91 203.615 266.283 202.398 272.049 199.065C288.447 189.612 301.729 166.592 301.729 147.677C301.729 142.063 300.556 137.438 298.478 133.959C311.113 131.793 320.149 140.449 320.149 156.758Z" fill="#9F9F9F"/>
<path d="M262.48 200.987L272.771 206.926V187.004L262.48 181.064V200.987Z" fill="#66805D"/>
<path opacity="0.2" d="M262.48 200.987L272.771 206.926V187.004L262.48 181.064V200.987Z" fill="white"/>
<path d="M311.564 164.605L287.724 153.43L263.885 192.133L272.771 187.004V206.926L284.032 200.423V187.392L291.407 183.134V196.165L302.687 189.647V169.724L311.564 164.605Z" fill="#66805D"/>
<path d="M277.433 147.49L287.724 153.43L263.884 192.133L253.594 186.194L277.433 147.49Z" fill="#66805D"/>
<path opacity="0.1" d="M277.433 147.49L287.724 153.43L263.884 192.133L253.594 186.194L277.433 147.49Z" fill="white"/>
<path d="M277.433 147.49L287.724 153.43L311.564 164.605L301.273 158.666L277.433 147.49Z" fill="#66805D"/>
<path opacity="0.4" d="M277.433 147.49L287.724 153.43L311.564 164.605L301.273 158.666L277.433 147.49Z" fill="white"/>
<path d="M284.032 200.424L291.407 196.166V183.135L284.032 187.393V200.424Z" fill="#66805D"/>
<path opacity="0.2" d="M284.032 200.424L291.407 196.166V183.135L284.032 187.393V200.424Z" fill="white"/>
<path d="M318.976 111.416C318.976 111.409 318.97 111.409 318.97 111.409C318.786 111.301 318.57 111.168 318.381 111.06C309.459 106.048 297.534 106.72 284.437 114.273C264.687 125.691 247.591 149.668 239.5 174.829C236.287 184.796 234.931 190.074 234.931 199.718V207.461C234.931 233.617 264.098 268.796 277.733 281.361C278.056 281.659 278.38 281.9 278.728 282.109C278.754 282.14 278.779 282.14 278.811 282.14C282.106 284.174 286.579 283.021 288.347 279.377C300.107 255.293 334.381 182.761 334.381 154.653V146.912C334.38 129.475 328.481 117.125 318.976 111.416ZM256.367 202.963C256.177 202.241 256.012 201.493 255.879 200.72C255.498 198.699 255.321 196.513 255.321 194.181C255.321 173.524 269.825 148.382 287.738 138.054C289.752 136.9 291.736 135.962 293.65 135.266C295.31 134.664 296.919 134.227 298.478 133.96C311.113 131.793 320.149 140.449 320.149 156.759C320.149 177.415 305.645 202.564 287.738 212.892C272.626 221.624 259.954 217.049 256.367 202.963Z" fill="white"/>
<path d="M155.332 83.9469H141.527C135.283 83.9469 130.222 78.8855 130.222 72.6418V69.4498C130.222 62.5158 135.844 56.8945 142.777 56.8945C149.711 56.8945 155.332 62.5158 155.332 69.4498V83.9469Z" fill="#263238"/>
<path d="M132.216 63.2011L129.305 61.6384C129.718 60.804 130.705 60.4777 131.509 60.9093C132.313 61.341 132.629 62.3668 132.216 63.2011Z" fill="#263238"/>
<path d="M132.463 63.5315L129.368 64.6889C129.013 63.8283 129.418 62.8715 130.273 62.5518C131.128 62.232 132.108 62.6709 132.463 63.5315Z" fill="#263238"/>
<path d="M159.916 99.9707L163.717 106.939L158.433 111.468L153.15 103.278L159.916 99.9707Z" fill="#66805D"/>
<path d="M149.282 85.0215C151.272 85.1866 153.333 86.0361 154.76 88.9925C156.188 91.9482 160.654 101.154 160.654 101.154C160.654 101.154 159.649 105.154 154.443 105.684L152.375 102.516L149.282 85.0215Z" fill="#66805D"/>
<path opacity="0.1" d="M149.282 85.0215C151.272 85.1866 153.333 86.0361 154.76 88.9925C156.188 91.9482 160.654 101.154 160.654 101.154C160.654 101.154 159.649 105.154 154.443 105.684L152.375 102.516L149.282 85.0215Z" fill="black"/>
<path d="M114.149 180.684C113.158 180.174 112.529 181.432 111.631 182.441C111.001 183.149 110.018 184.27 109.872 185.076C109.657 186.269 110.733 188.149 111.925 189.185C113.116 190.221 114.499 190.963 114.932 193.234C115.365 195.506 116.248 196.856 118.602 197.871C121.181 198.984 124.637 198.628 125.809 197.871C127.197 196.974 125.93 195.99 123.984 193.205C121.445 189.573 119.467 186.977 119.467 183.587L114.149 180.684Z" fill="#263238"/>
<path d="M116.179 177.709L114.095 180.765C113.191 182.089 113.473 183.934 114.799 184.835C114.82 184.85 114.842 184.864 114.863 184.878C116.132 185.701 117.833 185.373 118.855 184.258L122.108 180.707L116.179 177.709Z" fill="#E5E5D4"/>
<path d="M153.663 119.702C153.794 123.597 154.481 137.798 151.639 145.251C148.979 152.227 146.572 155.96 145.725 157.409C144.879 158.857 120.483 182.607 120.483 182.607C120.483 182.607 116.344 182.304 115.685 178.289C115.685 178.289 125.681 161.297 127.845 157.812C130.009 154.327 137.676 148.983 137.676 148.983L136.979 116.314L153.663 119.702Z" fill="#37474F"/>
<path d="M149.098 201.057L154.255 199.885L152.547 192.374L147.39 193.547L149.098 201.057Z" fill="#E5E5D4"/>
<path d="M145.066 131.592C145.066 131.592 147.071 129.904 149.781 126.161C153.723 120.714 153.117 115.877 153.117 115.877H151.502L130.17 116.314C128.055 119.78 127.594 125.036 128.309 130.156C129.791 140.783 138.594 159.177 138.594 159.177C138.471 160.63 137.856 166.739 139.243 172.155C141.43 180.699 147.39 195.158 147.39 195.158C147.39 195.158 151.124 195.691 152.979 193.53C152.979 193.53 149.678 164.175 148.789 156.654C147.827 148.516 145.066 131.592 145.066 131.592Z" fill="#37474F"/>
<path d="M153.676 197.335L153.508 196.598C154.05 196.7 156.365 200.545 158.662 202.216C161.178 204.045 163.361 205.126 164.484 205.951C165.988 207.054 163.811 209.313 160.111 209.514C158.274 209.614 154.93 209.056 153.9 208.077C152.869 207.099 152.123 205.481 151.307 204.777C150.49 204.075 148.836 203.458 148.276 202.557C147.969 202.062 147.922 200.836 147.956 199.782C147.988 198.816 148.019 197.754 148.35 197.769C148.377 197.88 148.478 198.331 148.478 198.331C148.947 198.661 150.417 199.079 151.615 199.023C152.486 198.984 154.106 198.782 153.676 197.335Z" fill="#263238"/>
<path d="M148.138 151.673C148.138 151.673 145.652 134.011 145.065 131.592C145.065 131.592 149.448 129.923 150.795 128.393C150.795 128.393 149.833 130.534 146.699 132.437L148.138 151.673Z" fill="#263238"/>
<path d="M134.966 150.99C134.966 150.99 137.529 157.725 138.594 159.178C138.594 159.178 138.328 164.184 138.366 165.196L136.979 166.405C136.979 166.405 136.914 162.2 137.6 159.651C137.6 159.651 135.868 156.17 134.966 150.99Z" fill="#263238"/>
<path d="M152.467 103.893C152.8 106.983 153.663 119.701 153.663 119.701C143.457 125.147 130.801 121.539 128.863 119.294C130.618 113.519 133.15 111.078 134.593 109.541L131.287 100.316C131.287 100.316 130.892 99.3723 130.901 99.3644C131.101 99.0202 136.04 94.5741 133.606 87.5421C133.229 86.4511 134.001 85.299 135.152 85.2049L138.082 84.9654L146.029 84.7324C147.929 84.839 149.282 85.0219 149.282 85.0219C150.5 86.1609 152.419 89.2917 153.663 92.4764C154.465 94.5294 155.332 97.8095 152.467 103.893Z" fill="#66805D"/>
<path opacity="0.1" d="M133.42 103.647L134.58 99.1367L136.019 109.55L133.106 111.171L134.593 109.542L133.085 105.336L133.42 103.647Z" fill="black"/>
<path d="M150.849 62.3633C152.174 63.147 153.814 66.4824 153.652 73.4749C153.515 79.4009 151.594 80.8649 150.629 81.2867C149.665 81.7085 147.805 81.4519 145.996 81.1505V84.707C145.996 84.707 148.689 89.6887 148.08 91.6798C146.803 91.9029 145.116 91.0271 142.778 89.4341C140.438 87.841 138.081 84.9656 138.081 84.9656L138.122 76.788C138.122 76.788 137.058 77.8217 135.253 76.2438C133.764 74.941 133.262 72.7445 134.423 71.5661C135.584 70.3876 137.73 70.7087 138.553 72.3886C138.553 72.3886 141.437 72.4939 145.277 70.3843C149.117 68.2748 150.593 64.661 150.849 62.3633Z" fill="#E5E5D4"/>
<path d="M147.036 71.9852C147.057 72.4122 146.741 72.7741 146.33 72.7938C145.919 72.8136 145.568 72.4826 145.547 72.0556C145.525 71.6285 145.841 71.2666 146.253 71.2469C146.664 71.2278 147.014 71.5581 147.036 71.9852Z" fill="#263238"/>
<g opacity="0.5">
<path d="M147.234 77.0098L148.965 77.5618C148.821 78.0573 148.317 78.335 147.839 78.183C147.361 78.0303 147.091 77.5052 147.234 77.0098Z" fill="#66805D"/>
</g>
<path d="M153.146 69.6972L151.638 68.6523C151.913 68.2213 152.474 68.1069 152.89 68.3957C153.306 68.6839 153.421 69.2676 153.146 69.6972Z" fill="#263238"/>
<path d="M152.798 71.4474C152.82 71.8745 152.504 72.2364 152.093 72.2561C151.682 72.2759 151.331 71.9449 151.31 71.5185C151.288 71.0915 151.604 70.7296 152.015 70.7098C152.426 70.6901 152.777 71.0211 152.798 71.4474Z" fill="#263238"/>
<g opacity="0.5">
<path d="M149.282 71.0215L149.401 75.5077L151.762 74.776L149.282 71.0215Z" fill="#66805D"/>
</g>
<g opacity="0.5">
<path d="M145.996 81.1514C144.09 80.9014 140.169 79.7749 139.559 78.2246C139.559 78.2246 139.762 79.1991 140.933 80.2026C142.104 81.206 145.996 82.3378 145.996 82.3378V81.1514H145.996Z" fill="#66805D"/>
</g>
<path d="M122.556 115.099C122.602 114.458 123.802 107.619 124.629 103.793L132.67 106.257L131.38 111.617L124.689 118.085C122.567 117.664 122.511 115.74 122.556 115.099Z" fill="#E5E5D4"/>
<path d="M135.152 85.2051C132.066 85.4755 128 85.9341 126.065 94.7158C124.252 102.947 123.803 105.825 123.803 105.825C123.803 105.825 126.18 108.836 132.323 108.504L134.58 99.1369C138.692 93.7275 137.368 89.8486 135.152 85.2051Z" fill="#66805D"/>
<path d="M161.153 108.728C162.258 106.671 162.531 106.581 163.187 106.13C163.844 105.68 167.874 105.078 169.546 104.937C171.513 104.771 172.211 105.133 171.664 106.824C170.494 110.444 166.944 118.132 166.149 119.193C165.628 119.889 165.521 120.535 163.31 120.751C161.243 120.952 158.653 121.065 157.89 121.111C157.127 121.157 156.072 121.347 156.755 119.103C157.439 116.858 159.053 113.214 159.776 111.646C160.626 109.8 161.153 108.728 161.153 108.728Z" fill="#263238"/>
<path d="M131.38 111.616C131.38 111.616 149.248 113.505 151.561 112.787C153.874 112.069 156.985 109.756 158.659 108.8C160.334 107.843 161.53 107.762 161.53 108.162C161.53 108.561 160.1 110.745 159.776 111.647C159.451 112.548 161.315 112.554 163.763 111.99C166.21 111.426 167.192 110.001 167.83 110.836C168.468 111.671 166.474 115.738 162.407 117.253C158.34 118.769 155.322 117.769 151.967 117.91C148.611 118.051 129.356 119.553 124.689 118.085C124.689 118.085 124.149 115.902 126.302 114.114C128.455 112.324 131.38 111.616 131.38 111.616Z" fill="#E5E5D4"/>
<g opacity="0.3">
<path d="M245.609 47.922L250.507 45.0939C250.482 44.903 250.465 44.7057 250.465 44.4931V43.0738C250.465 40.5484 252.238 37.4775 254.425 36.2148C255.311 35.7036 256.125 35.5726 256.785 35.7595C257.143 32.1708 259.635 28.1109 262.661 26.3639C265.933 24.4748 268.585 26.0059 268.585 29.7842V31.9069C268.585 32.8853 268.404 33.9184 268.084 34.9455L272.153 32.5965C273.366 31.8964 274.349 32.4642 274.349 33.8644C274.349 35.2653 273.366 36.9682 272.153 37.669L245.609 52.9945C244.395 53.6946 243.412 53.1274 243.412 51.7265C243.412 50.3256 244.396 48.6221 245.609 47.922Z" fill="#F0F0F0"/>
<path d="M222.136 80.8251L225.832 78.6906C225.814 78.5465 225.801 78.3977 225.801 78.2372V77.166C225.801 75.2604 227.14 72.9423 228.79 71.9895C229.458 71.6032 230.073 71.5052 230.571 71.6453C230.842 68.9364 232.722 65.8727 235.005 64.5541C237.475 63.1282 239.477 64.2843 239.477 67.1354V68.7376C239.477 69.4766 239.34 70.2563 239.098 71.0308L242.169 69.2581C243.085 68.7297 243.827 69.1581 243.827 70.2149C243.827 71.2723 243.084 72.5573 242.169 73.0864L222.136 84.6527C221.221 85.1811 220.479 84.7527 220.479 83.696C220.478 82.6392 221.22 81.3541 222.136 80.8251Z" fill="#F0F0F0"/>
</g>
<path d="M40.8523 380H38.6923V366.6H40.8523V380ZM48.2723 380H39.3523V378.04H48.2723V380ZM47.9723 374.24H39.3523V372.28H47.9723V374.24ZM48.2723 368.54H39.3523V366.6H48.2723V368.54ZM59.3962 380H57.2362V374.22C57.2362 373.34 57.0695 372.707 56.7362 372.32C56.4028 371.92 55.7762 371.72 54.8562 371.72C54.2695 371.72 53.7895 371.807 53.4162 371.98C53.0428 372.14 52.7628 372.407 52.5762 372.78C52.3895 373.14 52.2962 373.633 52.2962 374.26H51.9162L51.7362 371.92H52.2162C52.3628 371.56 52.5828 371.227 52.8762 370.92C53.1695 370.613 53.5428 370.36 53.9962 370.16C54.4628 369.96 55.0162 369.86 55.6562 369.86C56.5228 369.86 57.2295 370.027 57.7762 370.36C58.3228 370.693 58.7295 371.153 58.9962 371.74C59.2628 372.327 59.3962 373 59.3962 373.76V380ZM52.2962 380H50.1362V370.06H52.1162V373.04L52.2962 373.14V380ZM65.5857 380.2C64.1324 380.2 63.0324 379.913 62.2857 379.34C61.539 378.753 61.1657 377.853 61.1657 376.64V376.6H63.2457V376.96C63.2457 377.307 63.3124 377.593 63.4457 377.82C63.5924 378.033 63.8324 378.193 64.1657 378.3C64.5124 378.393 64.999 378.44 65.6257 378.44C66.159 378.44 66.559 378.4 66.8257 378.32C67.1057 378.227 67.2924 378.1 67.3857 377.94C67.479 377.78 67.5257 377.58 67.5257 377.34C67.5257 376.94 67.3857 376.66 67.1057 376.5C66.8257 376.327 66.3257 376.173 65.6057 376.04L64.0457 375.78C63.459 375.66 62.9457 375.493 62.5057 375.28C62.079 375.053 61.7457 374.747 61.5057 374.36C61.279 373.96 61.1657 373.46 61.1657 372.86C61.1657 371.967 61.519 371.247 62.2257 370.7C62.9324 370.14 63.9324 369.86 65.2257 369.86C66.0124 369.86 66.7124 369.987 67.3257 370.24C67.939 370.493 68.4257 370.873 68.7857 371.38C69.1457 371.887 69.3257 372.52 69.3257 373.28V373.46H67.2657V373.22C67.2657 372.9 67.2124 372.627 67.1057 372.4C66.999 372.16 66.799 371.973 66.5057 371.84C66.2124 371.707 65.7657 371.64 65.1657 371.64C64.379 371.64 63.859 371.74 63.6057 371.94C63.3524 372.14 63.2257 372.433 63.2257 372.82C63.2257 373.207 63.339 373.48 63.5657 373.64C63.8057 373.787 64.2724 373.933 64.9657 374.08L66.6657 374.4C67.3057 374.52 67.839 374.7 68.2657 374.94C68.6924 375.18 69.0124 375.493 69.2257 375.88C69.4524 376.267 69.5657 376.727 69.5657 377.26C69.5657 378.193 69.2124 378.92 68.5057 379.44C67.8124 379.947 66.839 380.2 65.5857 380.2ZM74.9495 380.2C74.0961 380.2 73.3895 380.027 72.8295 379.68C72.2695 379.32 71.8561 378.84 71.5895 378.24C71.3228 377.627 71.1895 376.947 71.1895 376.2V370.06H73.3495V375.8C73.3495 376.693 73.5361 377.34 73.9095 377.74C74.2828 378.14 74.8961 378.34 75.7495 378.34C76.3095 378.34 76.7828 378.253 77.1695 378.08C77.5561 377.893 77.8495 377.607 78.0495 377.22C78.2495 376.82 78.3495 376.3 78.3495 375.66H78.9095V378.02H78.4295C78.2828 378.393 78.0561 378.747 77.7495 379.08C77.4561 379.413 77.0761 379.687 76.6095 379.9C76.1561 380.1 75.6028 380.2 74.9495 380.2ZM80.5095 380H78.5095V377.02L78.3495 376.92V370.06H80.5095V380ZM84.7962 380H82.6362V370H84.6162V372.78L84.7962 372.88V380ZM84.7962 373.52H84.2962V371.58H84.7162C84.9162 371.113 85.2428 370.713 85.6962 370.38C86.1628 370.033 86.7628 369.86 87.4962 369.86C88.2028 369.86 88.7628 370.013 89.1762 370.32C89.6028 370.627 89.9095 371.033 90.0962 371.54C90.2828 372.047 90.3762 372.613 90.3762 373.24V373.9H88.2162V373.5C88.2162 372.833 88.1028 372.367 87.8762 372.1C87.6495 371.833 87.2228 371.7 86.5962 371.7C85.9428 371.7 85.4762 371.84 85.1962 372.12C84.9295 372.387 84.7962 372.853 84.7962 373.52ZM96.1773 380.2C95.0973 380.2 94.1973 379.987 93.4773 379.56C92.7573 379.12 92.2239 378.513 91.8773 377.74C91.5306 376.953 91.3573 376.047 91.3573 375.02C91.3573 373.993 91.5506 373.093 91.9373 372.32C92.3373 371.547 92.8973 370.947 93.6173 370.52C94.3373 370.08 95.1906 369.86 96.1773 369.86C97.0706 369.86 97.8573 370.033 98.5373 370.38C99.2306 370.713 99.7639 371.2 100.137 371.84C100.524 372.48 100.717 373.253 100.717 374.16C100.717 374.427 100.704 374.687 100.677 374.94C100.664 375.18 100.644 375.38 100.617 375.54H92.3773V374.1H98.8573L98.6373 374.3C98.6906 373.687 98.6239 373.187 98.4373 372.8C98.2639 372.413 97.9773 372.127 97.5773 371.94C97.1906 371.753 96.7039 371.66 96.1173 371.66C95.0639 371.66 94.3439 371.927 93.9573 372.46C93.5706 372.98 93.3773 373.7 93.3773 374.62V375.22C93.3773 375.887 93.4573 376.453 93.6173 376.92C93.7906 377.373 94.0839 377.713 94.4973 377.94C94.9106 378.167 95.4773 378.28 96.1973 378.28C97.0373 378.28 97.6306 378.147 97.9773 377.88C98.3239 377.613 98.4973 377.26 98.4973 376.82V376.66H100.637V376.84C100.637 377.52 100.451 378.113 100.077 378.62C99.7039 379.113 99.1839 379.5 98.5173 379.78C97.8639 380.06 97.0839 380.2 96.1773 380.2ZM114.728 380H112.728V378.04L112.668 377.5V373.68C112.668 372.933 112.488 372.427 112.128 372.16C111.781 371.893 111.215 371.76 110.428 371.76C109.641 371.76 109.075 371.9 108.728 372.18C108.395 372.46 108.228 372.927 108.228 373.58V373.88H106.148V373.68C106.148 372.933 106.328 372.273 106.688 371.7C107.061 371.127 107.575 370.68 108.228 370.36C108.895 370.027 109.668 369.86 110.548 369.86C111.481 369.86 112.255 370.033 112.868 370.38C113.481 370.727 113.941 371.207 114.248 371.82C114.568 372.42 114.728 373.133 114.728 373.96V380ZM109.028 380.2C108.135 380.2 107.381 379.973 106.768 379.52C106.168 379.053 105.868 378.393 105.868 377.54C105.868 376.98 105.995 376.513 106.248 376.14C106.515 375.767 106.895 375.46 107.388 375.22C107.881 374.98 108.481 374.813 109.188 374.72L112.868 374.2V375.72L109.508 376.22C108.935 376.3 108.535 376.42 108.308 376.58C108.081 376.74 107.968 377.007 107.968 377.38C107.968 377.767 108.101 378.047 108.368 378.22C108.648 378.393 109.101 378.48 109.728 378.48C110.208 378.48 110.668 378.407 111.108 378.26C111.561 378.1 111.935 377.84 112.228 377.48C112.521 377.107 112.668 376.587 112.668 375.92L112.948 378.46L112.628 378.44C112.441 378.747 112.181 379.033 111.848 379.3C111.528 379.567 111.135 379.787 110.668 379.96C110.201 380.12 109.655 380.2 109.028 380.2ZM121.217 380.22C120.177 380.22 119.297 380 118.577 379.56C117.857 379.12 117.304 378.513 116.917 377.74C116.544 376.967 116.357 376.067 116.357 375.04C116.357 374.013 116.551 373.113 116.937 372.34C117.337 371.553 117.904 370.947 118.637 370.52C119.371 370.08 120.257 369.86 121.297 369.86C122.177 369.86 122.951 370.027 123.617 370.36C124.284 370.693 124.797 371.16 125.157 371.76C125.531 372.36 125.717 373.06 125.717 373.86V374.04H123.577V373.92C123.577 373.187 123.377 372.653 122.977 372.32C122.591 371.973 121.984 371.8 121.157 371.8C120.197 371.8 119.511 372.073 119.097 372.62C118.697 373.153 118.497 373.953 118.497 375.02C118.497 376.1 118.697 376.913 119.097 377.46C119.511 377.993 120.197 378.26 121.157 378.26C121.984 378.26 122.591 378.093 122.977 377.76C123.377 377.413 123.577 376.88 123.577 376.16V376.04H125.717V376.22C125.717 376.993 125.531 377.687 125.157 378.3C124.784 378.9 124.257 379.373 123.577 379.72C122.911 380.053 122.124 380.22 121.217 380.22ZM131.901 380.22C130.861 380.22 129.981 380 129.261 379.56C128.541 379.12 127.988 378.513 127.601 377.74C127.228 376.967 127.041 376.067 127.041 375.04C127.041 374.013 127.234 373.113 127.621 372.34C128.021 371.553 128.588 370.947 129.321 370.52C130.054 370.08 130.941 369.86 131.981 369.86C132.861 369.86 133.634 370.027 134.301 370.36C134.968 370.693 135.481 371.16 135.841 371.76C136.214 372.36 136.401 373.06 136.401 373.86V374.04H134.261V373.92C134.261 373.187 134.061 372.653 133.661 372.32C133.274 371.973 132.668 371.8 131.841 371.8C130.881 371.8 130.194 372.073 129.781 372.62C129.381 373.153 129.181 373.953 129.181 375.02C129.181 376.1 129.381 376.913 129.781 377.46C130.194 377.993 130.881 378.26 131.841 378.26C132.668 378.26 133.274 378.093 133.661 377.76C134.061 377.413 134.261 376.88 134.261 376.16V376.04H136.401V376.22C136.401 376.993 136.214 377.687 135.841 378.3C135.468 378.9 134.941 379.373 134.261 379.72C133.594 380.053 132.808 380.22 131.901 380.22ZM141.727 380.2C140.873 380.2 140.167 380.027 139.607 379.68C139.047 379.32 138.633 378.84 138.367 378.24C138.1 377.627 137.967 376.947 137.967 376.2V370.06H140.127V375.8C140.127 376.693 140.313 377.34 140.687 377.74C141.06 378.14 141.673 378.34 142.527 378.34C143.087 378.34 143.56 378.253 143.947 378.08C144.333 377.893 144.627 377.607 144.827 377.22C145.027 376.82 145.127 376.3 145.127 375.66H145.687V378.02H145.207C145.06 378.393 144.833 378.747 144.527 379.08C144.233 379.413 143.853 379.687 143.387 379.9C142.933 380.1 142.38 380.2 141.727 380.2ZM147.287 380H145.287V377.02L145.127 376.92V370.06H147.287V380ZM151.574 380H149.414V370H151.394V372.78L151.574 372.88V380ZM151.574 373.52H151.074V371.58H151.494C151.694 371.113 152.02 370.713 152.474 370.38C152.94 370.033 153.54 369.86 154.274 369.86C154.98 369.86 155.54 370.013 155.954 370.32C156.38 370.627 156.687 371.033 156.874 371.54C157.06 372.047 157.154 372.613 157.154 373.24V373.9H154.994V373.5C154.994 372.833 154.88 372.367 154.654 372.1C154.427 371.833 154 371.7 153.374 371.7C152.72 371.7 152.254 371.84 151.974 372.12C151.707 372.387 151.574 372.853 151.574 373.52ZM166.72 380H164.72V378.04L164.66 377.5V373.68C164.66 372.933 164.48 372.427 164.12 372.16C163.774 371.893 163.207 371.76 162.42 371.76C161.634 371.76 161.067 371.9 160.72 372.18C160.387 372.46 160.22 372.927 160.22 373.58V373.88H158.14V373.68C158.14 372.933 158.32 372.273 158.68 371.7C159.054 371.127 159.567 370.68 160.22 370.36C160.887 370.027 161.66 369.86 162.54 369.86C163.474 369.86 164.247 370.033 164.86 370.38C165.474 370.727 165.934 371.207 166.24 371.82C166.56 372.42 166.72 373.133 166.72 373.96V380ZM161.02 380.2C160.127 380.2 159.374 379.973 158.76 379.52C158.16 379.053 157.86 378.393 157.86 377.54C157.86 376.98 157.987 376.513 158.24 376.14C158.507 375.767 158.887 375.46 159.38 375.22C159.874 374.98 160.474 374.813 161.18 374.72L164.86 374.2V375.72L161.5 376.22C160.927 376.3 160.527 376.42 160.3 376.58C160.074 376.74 159.96 377.007 159.96 377.38C159.96 377.767 160.094 378.047 160.36 378.22C160.64 378.393 161.094 378.48 161.72 378.48C162.2 378.48 162.66 378.407 163.1 378.26C163.554 378.1 163.927 377.84 164.22 377.48C164.514 377.107 164.66 376.587 164.66 375.92L164.94 378.46L164.62 378.44C164.434 378.747 164.174 379.033 163.84 379.3C163.52 379.567 163.127 379.787 162.66 379.96C162.194 380.12 161.647 380.2 161.02 380.2ZM172.831 380C171.738 380 170.898 379.767 170.311 379.3C169.738 378.833 169.451 378.047 169.451 376.94V370.28L169.951 367.6H171.611V376.84C171.611 377.36 171.738 377.693 171.991 377.84C172.258 377.973 172.731 378.04 173.411 378.04H174.611V379.82C174.411 379.873 174.151 379.92 173.831 379.96C173.511 379.987 173.178 380 172.831 380ZM174.611 371.86H167.791V370.06H174.611V371.86ZM180.142 380.2C179.062 380.2 178.162 379.987 177.442 379.56C176.722 379.12 176.189 378.513 175.842 377.74C175.495 376.953 175.322 376.047 175.322 375.02C175.322 373.993 175.515 373.093 175.902 372.32C176.302 371.547 176.862 370.947 177.582 370.52C178.302 370.08 179.155 369.86 180.142 369.86C181.035 369.86 181.822 370.033 182.502 370.38C183.195 370.713 183.729 371.2 184.102 371.84C184.489 372.48 184.682 373.253 184.682 374.16C184.682 374.427 184.669 374.687 184.642 374.94C184.629 375.18 184.609 375.38 184.582 375.54H176.342V374.1H182.822L182.602 374.3C182.655 373.687 182.589 373.187 182.402 372.8C182.229 372.413 181.942 372.127 181.542 371.94C181.155 371.753 180.669 371.66 180.082 371.66C179.029 371.66 178.309 371.927 177.922 372.46C177.535 372.98 177.342 373.7 177.342 374.62V375.22C177.342 375.887 177.422 376.453 177.582 376.92C177.755 377.373 178.049 377.713 178.462 377.94C178.875 378.167 179.442 378.28 180.162 378.28C181.002 378.28 181.595 378.147 181.942 377.88C182.289 377.613 182.462 377.26 182.462 376.82V376.66H184.602V376.84C184.602 377.52 184.415 378.113 184.042 378.62C183.669 379.113 183.149 379.5 182.482 379.78C181.829 380.06 181.049 380.2 180.142 380.2ZM194.733 380.22C193.693 380.22 192.813 380 192.093 379.56C191.373 379.12 190.82 378.513 190.433 377.74C190.06 376.967 189.873 376.067 189.873 375.04C189.873 374.013 190.066 373.113 190.453 372.34C190.853 371.553 191.42 370.947 192.153 370.52C192.886 370.08 193.773 369.86 194.813 369.86C195.693 369.86 196.466 370.027 197.133 370.36C197.8 370.693 198.313 371.16 198.673 371.76C199.046 372.36 199.233 373.06 199.233 373.86V374.04H197.093V373.92C197.093 373.187 196.893 372.653 196.493 372.32C196.106 371.973 195.5 371.8 194.673 371.8C193.713 371.8 193.026 372.073 192.613 372.62C192.213 373.153 192.013 373.953 192.013 375.02C192.013 376.1 192.213 376.913 192.613 377.46C193.026 377.993 193.713 378.26 194.673 378.26C195.5 378.26 196.106 378.093 196.493 377.76C196.893 377.413 197.093 376.88 197.093 376.16V376.04H199.233V376.22C199.233 376.993 199.046 377.687 198.673 378.3C198.3 378.9 197.773 379.373 197.093 379.72C196.426 380.053 195.64 380.22 194.733 380.22ZM205.516 380.2C204.503 380.2 203.623 379.987 202.876 379.56C202.13 379.12 201.556 378.513 201.156 377.74C200.756 376.953 200.556 376.047 200.556 375.02C200.556 373.993 200.756 373.093 201.156 372.32C201.556 371.547 202.13 370.947 202.876 370.52C203.623 370.08 204.503 369.86 205.516 369.86C206.53 369.86 207.396 370.08 208.116 370.52C208.85 370.947 209.41 371.547 209.796 372.32C210.196 373.093 210.396 373.993 210.396 375.02C210.396 376.047 210.196 376.953 209.796 377.74C209.41 378.513 208.85 379.12 208.116 379.56C207.396 379.987 206.53 380.2 205.516 380.2ZM205.516 378.28C206.556 378.28 207.283 378.02 207.696 377.5C208.11 376.967 208.316 376.14 208.316 375.02C208.316 373.9 208.11 373.08 207.696 372.56C207.283 372.04 206.556 371.78 205.516 371.78C204.463 371.78 203.73 372.04 203.316 372.56C202.903 373.08 202.696 373.9 202.696 375.02C202.696 376.14 202.903 376.967 203.316 377.5C203.73 378.02 204.463 378.28 205.516 378.28ZM227.971 380H225.811V374.22C225.811 373.34 225.645 372.707 225.311 372.32C224.991 371.92 224.378 371.72 223.471 371.72C222.658 371.72 222.051 371.913 221.651 372.3C221.265 372.673 221.071 373.313 221.071 374.22L220.691 374.26L220.511 371.92H220.831C220.991 371.573 221.211 371.247 221.491 370.94C221.785 370.62 222.158 370.36 222.611 370.16C223.065 369.96 223.618 369.86 224.271 369.86C225.138 369.86 225.838 370.027 226.371 370.36C226.918 370.693 227.318 371.153 227.571 371.74C227.838 372.327 227.971 373 227.971 373.76V380ZM214.171 380H212.011V370.06H213.991V373.04L214.171 373.14V380ZM221.071 380H218.911V374.22C218.911 373.34 218.745 372.707 218.411 372.32C218.091 371.92 217.478 371.72 216.571 371.72C215.758 371.72 215.151 371.907 214.751 372.28C214.365 372.653 214.171 373.293 214.171 374.2L213.791 374.26L213.611 371.92H214.091C214.238 371.56 214.451 371.227 214.731 370.92C215.025 370.613 215.398 370.36 215.851 370.16C216.305 369.96 216.845 369.86 217.471 369.86C218.311 369.86 218.991 370.027 219.511 370.36C220.045 370.693 220.438 371.153 220.691 371.74C220.945 372.327 221.071 373 221.071 373.76V380ZM235.479 380.2C234.585 380.2 233.859 380.027 233.299 379.68C232.752 379.32 232.372 378.913 232.159 378.46H231.619L231.719 375.92H232.099C232.099 376.467 232.199 376.92 232.399 377.28C232.612 377.64 232.925 377.913 233.339 378.1C233.752 378.273 234.245 378.36 234.819 378.36C235.285 378.36 235.692 378.3 236.039 378.18C236.385 378.06 236.665 377.873 236.879 377.62C237.105 377.367 237.265 377.027 237.359 376.6C237.465 376.16 237.519 375.633 237.519 375.02C237.519 374.407 237.465 373.893 237.359 373.48C237.265 373.053 237.105 372.707 236.879 372.44C236.665 372.173 236.385 371.987 236.039 371.88C235.705 371.76 235.299 371.7 234.819 371.7C234.245 371.7 233.752 371.793 233.339 371.98C232.925 372.153 232.612 372.42 232.399 372.78C232.199 373.127 232.099 373.58 232.099 374.14H231.719L231.619 371.7H232.019C232.259 371.127 232.652 370.68 233.199 370.36C233.759 370.027 234.472 369.86 235.339 369.86C236.739 369.86 237.812 370.327 238.559 371.26C239.305 372.193 239.679 373.447 239.679 375.02C239.679 376.593 239.319 377.853 238.599 378.8C237.879 379.733 236.839 380.2 235.479 380.2ZM232.099 383.46H229.959V370.06H231.919V372.42L232.099 372.68V383.46ZM249.904 380H247.904V378.04L247.844 377.5V373.68C247.844 372.933 247.664 372.427 247.304 372.16C246.957 371.893 246.39 371.76 245.604 371.76C244.817 371.76 244.25 371.9 243.904 372.18C243.57 372.46 243.404 372.927 243.404 373.58V373.88H241.324V373.68C241.324 372.933 241.504 372.273 241.864 371.7C242.237 371.127 242.75 370.68 243.404 370.36C244.07 370.027 244.844 369.86 245.724 369.86C246.657 369.86 247.43 370.033 248.044 370.38C248.657 370.727 249.117 371.207 249.424 371.82C249.744 372.42 249.904 373.133 249.904 373.96V380ZM244.204 380.2C243.31 380.2 242.557 379.973 241.944 379.52C241.344 379.053 241.044 378.393 241.044 377.54C241.044 376.98 241.17 376.513 241.424 376.14C241.69 375.767 242.07 375.46 242.564 375.22C243.057 374.98 243.657 374.813 244.364 374.72L248.044 374.2V375.72L244.684 376.22C244.11 376.3 243.71 376.42 243.484 376.58C243.257 376.74 243.144 377.007 243.144 377.38C243.144 377.767 243.277 378.047 243.544 378.22C243.824 378.393 244.277 378.48 244.904 378.48C245.384 378.48 245.844 378.407 246.284 378.26C246.737 378.1 247.11 377.84 247.404 377.48C247.697 377.107 247.844 376.587 247.844 375.92L248.124 378.46L247.804 378.44C247.617 378.747 247.357 379.033 247.024 379.3C246.704 379.567 246.31 379.787 245.844 379.96C245.377 380.12 244.83 380.2 244.204 380.2ZM261.232 380H259.072V374.22C259.072 373.34 258.905 372.707 258.572 372.32C258.239 371.92 257.612 371.72 256.692 371.72C256.105 371.72 255.625 371.807 255.252 371.98C254.879 372.14 254.599 372.407 254.412 372.78C254.225 373.14 254.132 373.633 254.132 374.26H253.752L253.572 371.92H254.052C254.199 371.56 254.419 371.227 254.712 370.92C255.005 370.613 255.379 370.36 255.832 370.16C256.299 369.96 256.852 369.86 257.492 369.86C258.359 369.86 259.065 370.027 259.612 370.36C260.159 370.693 260.565 371.153 260.832 371.74C261.099 372.327 261.232 373 261.232 373.76V380ZM254.132 380H251.972V370.06H253.952V373.04L254.132 373.14V380ZM264.453 383.4C264.187 383.4 263.913 383.38 263.633 383.34C263.353 383.313 263.127 383.273 262.953 383.22V381.46H264.333C264.747 381.46 265.053 381.4 265.253 381.28C265.453 381.173 265.64 380.94 265.813 380.58L266.433 379.18L266.253 379.88L261.953 370.06H264.333L266.333 374.88L267.233 377.04H267.413L268.213 374.88L270.033 370.06H272.433L267.713 381.16C267.473 381.76 267.2 382.22 266.893 382.54C266.587 382.86 266.233 383.08 265.833 383.2C265.447 383.333 264.987 383.4 264.453 383.4ZM281.44 380.2C280.027 380.2 278.94 379.733 278.18 378.8C277.434 377.853 277.06 376.593 277.06 375.02C277.06 373.447 277.427 372.193 278.16 371.26C278.907 370.327 279.96 369.86 281.32 369.86C282.2 369.86 282.907 370.04 283.44 370.4C283.987 370.747 284.367 371.147 284.58 371.6H285.12L285.02 374.14H284.64C284.64 373.58 284.534 373.12 284.32 372.76C284.107 372.4 283.8 372.133 283.4 371.96C283 371.787 282.507 371.7 281.92 371.7C281.44 371.7 281.027 371.76 280.68 371.88C280.347 372 280.067 372.187 279.84 372.44C279.627 372.693 279.467 373.033 279.36 373.46C279.267 373.887 279.22 374.407 279.22 375.02C279.22 375.62 279.267 376.14 279.36 376.58C279.467 377.007 279.627 377.353 279.84 377.62C280.067 377.873 280.354 378.06 280.7 378.18C281.047 378.3 281.454 378.36 281.92 378.36C282.507 378.36 283 378.273 283.4 378.1C283.8 377.913 284.107 377.64 284.32 377.28C284.534 376.92 284.64 376.467 284.64 375.92H285.02L285.12 378.36H284.72C284.494 378.933 284.1 379.387 283.54 379.72C282.994 380.04 282.294 380.2 281.44 380.2ZM286.8 380H284.8V377.64L284.64 377.38V366.6H286.8V380ZM293.267 380.2C292.187 380.2 291.287 379.987 290.567 379.56C289.847 379.12 289.314 378.513 288.967 377.74C288.62 376.953 288.447 376.047 288.447 375.02C288.447 373.993 288.64 373.093 289.027 372.32C289.427 371.547 289.987 370.947 290.707 370.52C291.427 370.08 292.28 369.86 293.267 369.86C294.16 369.86 294.947 370.033 295.627 370.38C296.32 370.713 296.854 371.2 297.227 371.84C297.614 372.48 297.807 373.253 297.807 374.16C297.807 374.427 297.794 374.687 297.767 374.94C297.754 375.18 297.734 375.38 297.707 375.54H289.467V374.1H295.947L295.727 374.3C295.78 373.687 295.714 373.187 295.527 372.8C295.354 372.413 295.067 372.127 294.667 371.94C294.28 371.753 293.794 371.66 293.207 371.66C292.154 371.66 291.434 371.927 291.047 372.46C290.66 372.98 290.467 373.7 290.467 374.62V375.22C290.467 375.887 290.547 376.453 290.707 376.92C290.88 377.373 291.174 377.713 291.587 377.94C292 378.167 292.567 378.28 293.287 378.28C294.127 378.28 294.72 378.147 295.067 377.88C295.414 377.613 295.587 377.26 295.587 376.82V376.66H297.727V376.84C297.727 377.52 297.54 378.113 297.167 378.62C296.794 379.113 296.274 379.5 295.607 379.78C294.954 380.06 294.174 380.2 293.267 380.2ZM303.593 380C302.5 380 301.66 379.767 301.073 379.3C300.5 378.833 300.213 378.047 300.213 376.94V370.28L300.713 367.6H302.373V376.84C302.373 377.36 302.5 377.693 302.753 377.84C303.02 377.973 303.493 378.04 304.173 378.04H305.373V379.82C305.173 379.873 304.913 379.92 304.593 379.96C304.273 379.987 303.94 380 303.593 380ZM305.373 371.86H298.553V370.06H305.373V371.86ZM315.216 380H313.216V378.04L313.156 377.5V373.68C313.156 372.933 312.976 372.427 312.616 372.16C312.27 371.893 311.703 371.76 310.916 371.76C310.13 371.76 309.563 371.9 309.216 372.18C308.883 372.46 308.716 372.927 308.716 373.58V373.88H306.636V373.68C306.636 372.933 306.816 372.273 307.176 371.7C307.55 371.127 308.063 370.68 308.716 370.36C309.383 370.027 310.156 369.86 311.036 369.86C311.97 369.86 312.743 370.033 313.356 370.38C313.97 370.727 314.43 371.207 314.736 371.82C315.056 372.42 315.216 373.133 315.216 373.96V380ZM309.516 380.2C308.623 380.2 307.87 379.973 307.256 379.52C306.656 379.053 306.356 378.393 306.356 377.54C306.356 376.98 306.483 376.513 306.736 376.14C307.003 375.767 307.383 375.46 307.876 375.22C308.37 374.98 308.97 374.813 309.676 374.72L313.356 374.2V375.72L309.996 376.22C309.423 376.3 309.023 376.42 308.796 376.58C308.57 376.74 308.456 377.007 308.456 377.38C308.456 377.767 308.59 378.047 308.856 378.22C309.136 378.393 309.59 378.48 310.216 378.48C310.696 378.48 311.156 378.407 311.596 378.26C312.05 378.1 312.423 377.84 312.716 377.48C313.01 377.107 313.156 376.587 313.156 375.92L313.436 378.46L313.116 378.44C312.93 378.747 312.67 379.033 312.336 379.3C312.016 379.567 311.623 379.787 311.156 379.96C310.69 380.12 310.143 380.2 309.516 380.2ZM319.305 368.8H317.165L317.145 366.6H319.305V368.8ZM319.325 380H317.165V370H319.325V380ZM323.468 380H321.308V366.6H323.468V380ZM329.707 380.2C328.253 380.2 327.153 379.913 326.407 379.34C325.66 378.753 325.287 377.853 325.287 376.64V376.6H327.367V376.96C327.367 377.307 327.433 377.593 327.567 377.82C327.713 378.033 327.953 378.193 328.287 378.3C328.633 378.393 329.12 378.44 329.747 378.44C330.28 378.44 330.68 378.4 330.947 378.32C331.227 378.227 331.413 378.1 331.507 377.94C331.6 377.78 331.647 377.58 331.647 377.34C331.647 376.94 331.507 376.66 331.227 376.5C330.947 376.327 330.447 376.173 329.727 376.04L328.167 375.78C327.58 375.66 327.067 375.493 326.627 375.28C326.2 375.053 325.867 374.747 325.627 374.36C325.4 373.96 325.287 373.46 325.287 372.86C325.287 371.967 325.64 371.247 326.347 370.7C327.053 370.14 328.053 369.86 329.347 369.86C330.133 369.86 330.833 369.987 331.447 370.24C332.06 370.493 332.547 370.873 332.907 371.38C333.267 371.887 333.447 372.52 333.447 373.28V373.46H331.387V373.22C331.387 372.9 331.333 372.627 331.227 372.4C331.12 372.16 330.92 371.973 330.627 371.84C330.333 371.707 329.887 371.64 329.287 371.64C328.5 371.64 327.98 371.74 327.727 371.94C327.473 372.14 327.347 372.433 327.347 372.82C327.347 373.207 327.46 373.48 327.687 373.64C327.927 373.787 328.393 373.933 329.087 374.08L330.787 374.4C331.427 374.52 331.96 374.7 332.387 374.94C332.813 375.18 333.133 375.493 333.347 375.88C333.573 376.267 333.687 376.727 333.687 377.26C333.687 378.193 333.333 378.92 332.627 379.44C331.933 379.947 330.96 380.2 329.707 380.2ZM341.879 380H339.719V370.14C339.719 369.367 339.865 368.72 340.159 368.2C340.452 367.68 340.885 367.287 341.459 367.02C342.045 366.74 342.765 366.6 343.619 366.6C343.752 366.6 343.885 366.6 344.019 366.6C344.152 366.6 344.285 366.6 344.419 366.6V368.32H343.219C342.739 368.32 342.385 368.413 342.159 368.6C341.932 368.787 341.819 369.093 341.819 369.52V370.4L341.879 370.92V380ZM344.419 371.86H338.259V370.06H344.419V371.86ZM349.735 380.2C348.722 380.2 347.842 379.987 347.095 379.56C346.349 379.12 345.775 378.513 345.375 377.74C344.975 376.953 344.775 376.047 344.775 375.02C344.775 373.993 344.975 373.093 345.375 372.32C345.775 371.547 346.349 370.947 347.095 370.52C347.842 370.08 348.722 369.86 349.735 369.86C350.749 369.86 351.615 370.08 352.335 370.52C353.069 370.947 353.629 371.547 354.015 372.32C354.415 373.093 354.615 373.993 354.615 375.02C354.615 376.047 354.415 376.953 354.015 377.74C353.629 378.513 353.069 379.12 352.335 379.56C351.615 379.987 350.749 380.2 349.735 380.2ZM349.735 378.28C350.775 378.28 351.502 378.02 351.915 377.5C352.329 376.967 352.535 376.14 352.535 375.02C352.535 373.9 352.329 373.08 351.915 372.56C351.502 372.04 350.775 371.78 349.735 371.78C348.682 371.78 347.949 372.04 347.535 372.56C347.122 373.08 346.915 373.9 346.915 375.02C346.915 376.14 347.122 376.967 347.535 377.5C347.949 378.02 348.682 378.28 349.735 378.28ZM358.39 380H356.23V370H358.21V372.78L358.39 372.88V380ZM358.39 373.52H357.89V371.58H358.31C358.51 371.113 358.837 370.713 359.29 370.38C359.757 370.033 360.357 369.86 361.09 369.86C361.797 369.86 362.357 370.013 362.77 370.32C363.197 370.627 363.503 371.033 363.69 371.54C363.877 372.047 363.97 372.613 363.97 373.24V373.9H361.81V373.5C361.81 372.833 361.697 372.367 361.47 372.1C361.243 371.833 360.817 371.7 360.19 371.7C359.537 371.7 359.07 371.84 358.79 372.12C358.523 372.387 358.39 372.853 358.39 373.52ZM87.3533 405.2C85.8999 405.2 84.7999 404.913 84.0533 404.34C83.3066 403.753 82.9333 402.853 82.9333 401.64V401.6H85.0133V401.96C85.0133 402.307 85.0799 402.593 85.2133 402.82C85.3599 403.033 85.5999 403.193 85.9333 403.3C86.2799 403.393 86.7666 403.44 87.3933 403.44C87.9266 403.44 88.3266 403.4 88.5933 403.32C88.8733 403.227 89.0599 403.1 89.1533 402.94C89.2466 402.78 89.2933 402.58 89.2933 402.34C89.2933 401.94 89.1533 401.66 88.8733 401.5C88.5933 401.327 88.0933 401.173 87.3733 401.04L85.8133 400.78C85.2266 400.66 84.7133 400.493 84.2733 400.28C83.8466 400.053 83.5133 399.747 83.2733 399.36C83.0466 398.96 82.9333 398.46 82.9333 397.86C82.9333 396.967 83.2866 396.247 83.9933 395.7C84.6999 395.14 85.6999 394.86 86.9933 394.86C87.7799 394.86 88.4799 394.987 89.0933 395.24C89.7066 395.493 90.1933 395.873 90.5533 396.38C90.9133 396.887 91.0933 397.52 91.0933 398.28V398.46H89.0333V398.22C89.0333 397.9 88.9799 397.627 88.8733 397.4C88.7666 397.16 88.5666 396.973 88.2733 396.84C87.9799 396.707 87.5333 396.64 86.9333 396.64C86.1466 396.64 85.6266 396.74 85.3733 396.94C85.1199 397.14 84.9933 397.433 84.9933 397.82C84.9933 398.207 85.1066 398.48 85.3333 398.64C85.5733 398.787 86.0399 398.933 86.7333 399.08L88.4333 399.4C89.0733 399.52 89.6066 399.7 90.0333 399.94C90.4599 400.18 90.7799 400.493 90.9933 400.88C91.2199 401.267 91.3333 401.727 91.3333 402.26C91.3333 403.193 90.9799 403.92 90.2733 404.44C89.5799 404.947 88.6066 405.2 87.3533 405.2ZM97.4956 405.2C96.4156 405.2 95.5156 404.987 94.7956 404.56C94.0756 404.12 93.5423 403.513 93.1956 402.74C92.849 401.953 92.6756 401.047 92.6756 400.02C92.6756 398.993 92.869 398.093 93.2556 397.32C93.6556 396.547 94.2156 395.947 94.9356 395.52C95.6556 395.08 96.509 394.86 97.4956 394.86C98.389 394.86 99.1756 395.033 99.8556 395.38C100.549 395.713 101.082 396.2 101.456 396.84C101.842 397.48 102.036 398.253 102.036 399.16C102.036 399.427 102.022 399.687 101.996 399.94C101.982 400.18 101.962 400.38 101.936 400.54H93.6956V399.1H100.176L99.9556 399.3C100.009 398.687 99.9423 398.187 99.7556 397.8C99.5823 397.413 99.2956 397.127 98.8956 396.94C98.509 396.753 98.0223 396.66 97.4356 396.66C96.3823 396.66 95.6623 396.927 95.2756 397.46C94.889 397.98 94.6956 398.7 94.6956 399.62V400.22C94.6956 400.887 94.7756 401.453 94.9356 401.92C95.109 402.373 95.4023 402.713 95.8156 402.94C96.229 403.167 96.7956 403.28 97.5156 403.28C98.3556 403.28 98.949 403.147 99.2956 402.88C99.6423 402.613 99.8156 402.26 99.8156 401.82V401.66H101.956V401.84C101.956 402.52 101.769 403.113 101.396 403.62C101.022 404.113 100.502 404.5 99.8356 404.78C99.1823 405.06 98.4023 405.2 97.4956 405.2ZM112.257 405H110.257V403.04L110.197 402.5V398.68C110.197 397.933 110.017 397.427 109.657 397.16C109.311 396.893 108.744 396.76 107.957 396.76C107.171 396.76 106.604 396.9 106.257 397.18C105.924 397.46 105.757 397.927 105.757 398.58V398.88H103.677V398.68C103.677 397.933 103.857 397.273 104.217 396.7C104.591 396.127 105.104 395.68 105.757 395.36C106.424 395.027 107.197 394.86 108.077 394.86C109.011 394.86 109.784 395.033 110.397 395.38C111.011 395.727 111.471 396.207 111.777 396.82C112.097 397.42 112.257 398.133 112.257 398.96V405ZM106.557 405.2C105.664 405.2 104.911 404.973 104.297 404.52C103.697 404.053 103.397 403.393 103.397 402.54C103.397 401.98 103.524 401.513 103.777 401.14C104.044 400.767 104.424 400.46 104.917 400.22C105.411 399.98 106.011 399.813 106.717 399.72L110.397 399.2V400.72L107.037 401.22C106.464 401.3 106.064 401.42 105.837 401.58C105.611 401.74 105.497 402.007 105.497 402.38C105.497 402.767 105.631 403.047 105.897 403.22C106.177 403.393 106.631 403.48 107.257 403.48C107.737 403.48 108.197 403.407 108.637 403.26C109.091 403.1 109.464 402.84 109.757 402.48C110.051 402.107 110.197 401.587 110.197 400.92L110.477 403.46L110.157 403.44C109.971 403.747 109.711 404.033 109.377 404.3C109.057 404.567 108.664 404.787 108.197 404.96C107.731 405.12 107.184 405.2 106.557 405.2ZM130.286 405H128.126V399.22C128.126 398.34 127.959 397.707 127.626 397.32C127.306 396.92 126.692 396.72 125.786 396.72C124.972 396.72 124.366 396.913 123.966 397.3C123.579 397.673 123.386 398.313 123.386 399.22L123.006 399.26L122.826 396.92H123.146C123.306 396.573 123.526 396.247 123.806 395.94C124.099 395.62 124.472 395.36 124.926 395.16C125.379 394.96 125.932 394.86 126.586 394.86C127.452 394.86 128.152 395.027 128.686 395.36C129.232 395.693 129.632 396.153 129.886 396.74C130.152 397.327 130.286 398 130.286 398.76V405ZM116.486 405H114.326V395.06H116.306V398.04L116.486 398.14V405ZM123.386 405H121.226V399.22C121.226 398.34 121.059 397.707 120.726 397.32C120.406 396.92 119.792 396.72 118.886 396.72C118.072 396.72 117.466 396.907 117.066 397.28C116.679 397.653 116.486 398.293 116.486 399.2L116.106 399.26L115.926 396.92H116.406C116.552 396.56 116.766 396.227 117.046 395.92C117.339 395.613 117.712 395.36 118.166 395.16C118.619 394.96 119.159 394.86 119.786 394.86C120.626 394.86 121.306 395.027 121.826 395.36C122.359 395.693 122.752 396.153 123.006 396.74C123.259 397.327 123.386 398 123.386 398.76V405ZM134.513 405H132.353V391.6H134.513V405ZM140.972 405.2C139.892 405.2 138.992 404.987 138.272 404.56C137.552 404.12 137.019 403.513 136.672 402.74C136.326 401.953 136.152 401.047 136.152 400.02C136.152 398.993 136.346 398.093 136.732 397.32C137.132 396.547 137.692 395.947 138.412 395.52C139.132 395.08 139.986 394.86 140.972 394.86C141.866 394.86 142.652 395.033 143.332 395.38C144.026 395.713 144.559 396.2 144.932 396.84C145.319 397.48 145.512 398.253 145.512 399.16C145.512 399.427 145.499 399.687 145.472 399.94C145.459 400.18 145.439 400.38 145.412 400.54H137.172V399.1H143.652L143.432 399.3C143.486 398.687 143.419 398.187 143.232 397.8C143.059 397.413 142.772 397.127 142.372 396.94C141.986 396.753 141.499 396.66 140.912 396.66C139.859 396.66 139.139 396.927 138.752 397.46C138.366 397.98 138.172 398.7 138.172 399.62V400.22C138.172 400.887 138.252 401.453 138.412 401.92C138.586 402.373 138.879 402.713 139.292 402.94C139.706 403.167 140.272 403.28 140.992 403.28C141.832 403.28 142.426 403.147 142.772 402.88C143.119 402.613 143.292 402.26 143.292 401.82V401.66H145.432V401.84C145.432 402.52 145.246 403.113 144.872 403.62C144.499 404.113 143.979 404.5 143.312 404.78C142.659 405.06 141.879 405.2 140.972 405.2ZM151.513 405.2C150.06 405.2 148.96 404.913 148.213 404.34C147.467 403.753 147.093 402.853 147.093 401.64V401.6H149.173V401.96C149.173 402.307 149.24 402.593 149.373 402.82C149.52 403.033 149.76 403.193 150.093 403.3C150.44 403.393 150.927 403.44 151.553 403.44C152.087 403.44 152.487 403.4 152.753 403.32C153.033 403.227 153.22 403.1 153.313 402.94C153.407 402.78 153.453 402.58 153.453 402.34C153.453 401.94 153.313 401.66 153.033 401.5C152.753 401.327 152.253 401.173 151.533 401.04L149.973 400.78C149.387 400.66 148.873 400.493 148.433 400.28C148.007 400.053 147.673 399.747 147.433 399.36C147.207 398.96 147.093 398.46 147.093 397.86C147.093 396.967 147.447 396.247 148.153 395.7C148.86 395.14 149.86 394.86 151.153 394.86C151.94 394.86 152.64 394.987 153.253 395.24C153.867 395.493 154.353 395.873 154.713 396.38C155.073 396.887 155.253 397.52 155.253 398.28V398.46H153.193V398.22C153.193 397.9 153.14 397.627 153.033 397.4C152.927 397.16 152.727 396.973 152.433 396.84C152.14 396.707 151.693 396.64 151.093 396.64C150.307 396.64 149.787 396.74 149.533 396.94C149.28 397.14 149.153 397.433 149.153 397.82C149.153 398.207 149.267 398.48 149.493 398.64C149.733 398.787 150.2 398.933 150.893 399.08L152.593 399.4C153.233 399.52 153.767 399.7 154.193 399.94C154.62 400.18 154.94 400.493 155.153 400.88C155.38 401.267 155.493 401.727 155.493 402.26C155.493 403.193 155.14 403.92 154.433 404.44C153.74 404.947 152.767 405.2 151.513 405.2ZM161.357 405.2C159.904 405.2 158.804 404.913 158.057 404.34C157.311 403.753 156.937 402.853 156.937 401.64V401.6H159.017V401.96C159.017 402.307 159.084 402.593 159.217 402.82C159.364 403.033 159.604 403.193 159.937 403.3C160.284 403.393 160.771 403.44 161.397 403.44C161.931 403.44 162.331 403.4 162.597 403.32C162.877 403.227 163.064 403.1 163.157 402.94C163.251 402.78 163.297 402.58 163.297 402.34C163.297 401.94 163.157 401.66 162.877 401.5C162.597 401.327 162.097 401.173 161.377 401.04L159.817 400.78C159.231 400.66 158.717 400.493 158.277 400.28C157.851 400.053 157.517 399.747 157.277 399.36C157.051 398.96 156.937 398.46 156.937 397.86C156.937 396.967 157.291 396.247 157.997 395.7C158.704 395.14 159.704 394.86 160.997 394.86C161.784 394.86 162.484 394.987 163.097 395.24C163.711 395.493 164.197 395.873 164.557 396.38C164.917 396.887 165.097 397.52 165.097 398.28V398.46H163.037V398.22C163.037 397.9 162.984 397.627 162.877 397.4C162.771 397.16 162.571 396.973 162.277 396.84C161.984 396.707 161.537 396.64 160.937 396.64C160.151 396.64 159.631 396.74 159.377 396.94C159.124 397.14 158.997 397.433 158.997 397.82C158.997 398.207 159.111 398.48 159.337 398.64C159.577 398.787 160.044 398.933 160.737 399.08L162.437 399.4C163.077 399.52 163.611 399.7 164.037 399.94C164.464 400.18 164.784 400.493 164.997 400.88C165.224 401.267 165.337 401.727 165.337 402.26C165.337 403.193 164.984 403.92 164.277 404.44C163.584 404.947 162.611 405.2 161.357 405.2ZM176.609 400.68H171.729V398.74H176.869C177.749 398.74 178.376 398.547 178.749 398.16C179.136 397.773 179.329 397.1 179.329 396.14C179.329 395.18 179.136 394.507 178.749 394.12C178.376 393.733 177.749 393.54 176.869 393.54H171.729V391.6H176.609C177.542 391.6 178.376 391.78 179.109 392.14C179.842 392.5 180.416 393.02 180.829 393.7C181.256 394.367 181.469 395.18 181.469 396.14C181.469 397.1 181.256 397.92 180.829 398.6C180.416 399.28 179.842 399.8 179.109 400.16C178.376 400.507 177.542 400.68 176.609 400.68ZM173.069 405H170.909V391.6H173.069V405ZM188.918 405.2C187.651 405.2 186.544 404.92 185.598 404.36C184.664 403.787 183.938 402.987 183.418 401.96C182.911 400.92 182.658 399.7 182.658 398.3C182.658 396.9 182.911 395.687 183.418 394.66C183.938 393.62 184.664 392.82 185.598 392.26C186.544 391.687 187.651 391.4 188.918 391.4C190.198 391.4 191.304 391.687 192.238 392.26C193.171 392.82 193.891 393.62 194.398 394.66C194.904 395.687 195.158 396.9 195.158 398.3C195.158 399.7 194.904 400.92 194.398 401.96C193.891 402.987 193.171 403.787 192.238 404.36C191.304 404.92 190.198 405.2 188.918 405.2ZM188.918 403.1C189.851 403.1 190.604 402.947 191.178 402.64C191.751 402.32 192.171 401.807 192.438 401.1C192.718 400.393 192.858 399.46 192.858 398.3C192.858 397.127 192.718 396.193 192.438 395.5C192.171 394.793 191.751 394.28 191.178 393.96C190.604 393.64 189.851 393.48 188.918 393.48C187.998 393.48 187.244 393.64 186.658 393.96C186.071 394.28 185.638 394.793 185.358 395.5C185.091 396.193 184.958 397.127 184.958 398.3C184.958 399.46 185.091 400.393 185.358 401.1C185.638 401.807 186.071 402.32 186.658 402.64C187.244 402.947 187.998 403.1 188.918 403.1ZM205.172 405.22C204.132 405.22 203.252 405 202.532 404.56C201.812 404.12 201.259 403.513 200.872 402.74C200.499 401.967 200.312 401.067 200.312 400.04C200.312 399.013 200.506 398.113 200.892 397.34C201.292 396.553 201.859 395.947 202.592 395.52C203.326 395.08 204.212 394.86 205.252 394.86C206.132 394.86 206.906 395.027 207.572 395.36C208.239 395.693 208.752 396.16 209.112 396.76C209.486 397.36 209.672 398.06 209.672 398.86V399.04H207.532V398.92C207.532 398.187 207.332 397.653 206.932 397.32C206.546 396.973 205.939 396.8 205.112 396.8C204.152 396.8 203.466 397.073 203.052 397.62C202.652 398.153 202.452 398.953 202.452 400.02C202.452 401.1 202.652 401.913 203.052 402.46C203.466 402.993 204.152 403.26 205.112 403.26C205.939 403.26 206.546 403.093 206.932 402.76C207.332 402.413 207.532 401.88 207.532 401.16V401.04H209.672V401.22C209.672 401.993 209.486 402.687 209.112 403.3C208.739 403.9 208.212 404.373 207.532 404.72C206.866 405.053 206.079 405.22 205.172 405.22ZM215.956 405.2C214.943 405.2 214.063 404.987 213.316 404.56C212.569 404.12 211.996 403.513 211.596 402.74C211.196 401.953 210.996 401.047 210.996 400.02C210.996 398.993 211.196 398.093 211.596 397.32C211.996 396.547 212.569 395.947 213.316 395.52C214.063 395.08 214.943 394.86 215.956 394.86C216.969 394.86 217.836 395.08 218.556 395.52C219.289 395.947 219.849 396.547 220.236 397.32C220.636 398.093 220.836 398.993 220.836 400.02C220.836 401.047 220.636 401.953 220.236 402.74C219.849 403.513 219.289 404.12 218.556 404.56C217.836 404.987 216.969 405.2 215.956 405.2ZM215.956 403.28C216.996 403.28 217.723 403.02 218.136 402.5C218.549 401.967 218.756 401.14 218.756 400.02C218.756 398.9 218.549 398.08 218.136 397.56C217.723 397.04 216.996 396.78 215.956 396.78C214.903 396.78 214.169 397.04 213.756 397.56C213.343 398.08 213.136 398.9 213.136 400.02C213.136 401.14 213.343 401.967 213.756 402.5C214.169 403.02 214.903 403.28 215.956 403.28ZM224.63 405H222.47V391.6H224.63V405ZM229.005 405H226.845V391.6H229.005V405ZM239.445 405H237.445V403.04L237.385 402.5V398.68C237.385 397.933 237.205 397.427 236.845 397.16C236.498 396.893 235.932 396.76 235.145 396.76C234.358 396.76 233.792 396.9 233.445 397.18C233.112 397.46 232.945 397.927 232.945 398.58V398.88H230.865V398.68C230.865 397.933 231.045 397.273 231.405 396.7C231.778 396.127 232.292 395.68 232.945 395.36C233.612 395.027 234.385 394.86 235.265 394.86C236.198 394.86 236.972 395.033 237.585 395.38C238.198 395.727 238.658 396.207 238.965 396.82C239.285 397.42 239.445 398.133 239.445 398.96V405ZM233.745 405.2C232.852 405.2 232.098 404.973 231.485 404.52C230.885 404.053 230.585 403.393 230.585 402.54C230.585 401.98 230.712 401.513 230.965 401.14C231.232 400.767 231.612 400.46 232.105 400.22C232.598 399.98 233.198 399.813 233.905 399.72L237.585 399.2V400.72L234.225 401.22C233.652 401.3 233.252 401.42 233.025 401.58C232.798 401.74 232.685 402.007 232.685 402.38C232.685 402.767 232.818 403.047 233.085 403.22C233.365 403.393 233.818 403.48 234.445 403.48C234.925 403.48 235.385 403.407 235.825 403.26C236.278 403.1 236.652 402.84 236.945 402.48C237.238 402.107 237.385 401.587 237.385 400.92L237.665 403.46L237.345 403.44C237.158 403.747 236.898 404.033 236.565 404.3C236.245 404.567 235.852 404.787 235.385 404.96C234.918 405.12 234.372 405.2 233.745 405.2ZM246.933 405.2C246.066 405.2 245.353 405.04 244.793 404.72C244.233 404.387 243.826 403.933 243.573 403.36H243.173L243.293 400.92H243.673C243.673 401.467 243.773 401.92 243.973 402.28C244.186 402.64 244.493 402.913 244.893 403.1C245.306 403.273 245.8 403.36 246.373 403.36C246.853 403.36 247.26 403.3 247.593 403.18C247.94 403.06 248.226 402.873 248.453 402.62C248.68 402.353 248.84 402.007 248.933 401.58C249.04 401.14 249.093 400.62 249.093 400.02C249.093 399.407 249.04 398.887 248.933 398.46C248.84 398.033 248.68 397.693 248.453 397.44C248.24 397.187 247.96 397 247.613 396.88C247.266 396.76 246.853 396.7 246.373 396.7C245.8 396.7 245.306 396.787 244.893 396.96C244.493 397.133 244.186 397.4 243.973 397.76C243.773 398.12 243.673 398.58 243.673 399.14H243.293L243.173 396.64H243.733C243.946 396.187 244.333 395.78 244.893 395.42C245.466 395.047 246.186 394.86 247.053 394.86C248.426 394.86 249.466 395.327 250.173 396.26C250.893 397.193 251.253 398.447 251.253 400.02C251.253 401.593 250.88 402.853 250.133 403.8C249.4 404.733 248.333 405.2 246.933 405.2ZM243.493 405H241.513V391.6H243.673V402.38L243.493 402.64V405ZM257.538 405.2C256.525 405.2 255.645 404.987 254.898 404.56C254.151 404.12 253.578 403.513 253.178 402.74C252.778 401.953 252.578 401.047 252.578 400.02C252.578 398.993 252.778 398.093 253.178 397.32C253.578 396.547 254.151 395.947 254.898 395.52C255.645 395.08 256.525 394.86 257.538 394.86C258.551 394.86 259.418 395.08 260.138 395.52C260.871 395.947 261.431 396.547 261.818 397.32C262.218 398.093 262.418 398.993 262.418 400.02C262.418 401.047 262.218 401.953 261.818 402.74C261.431 403.513 260.871 404.12 260.138 404.56C259.418 404.987 258.551 405.2 257.538 405.2ZM257.538 403.28C258.578 403.28 259.305 403.02 259.718 402.5C260.131 401.967 260.338 401.14 260.338 400.02C260.338 398.9 260.131 398.08 259.718 397.56C259.305 397.04 258.578 396.78 257.538 396.78C256.485 396.78 255.751 397.04 255.338 397.56C254.925 398.08 254.718 398.9 254.718 400.02C254.718 401.14 254.925 401.967 255.338 402.5C255.751 403.02 256.485 403.28 257.538 403.28ZM266.193 405H264.033V395H266.013V397.78L266.193 397.88V405ZM266.193 398.52H265.693V396.58H266.113C266.313 396.113 266.639 395.713 267.093 395.38C267.559 395.033 268.159 394.86 268.893 394.86C269.599 394.86 270.159 395.013 270.573 395.32C270.999 395.627 271.306 396.033 271.493 396.54C271.679 397.047 271.773 397.613 271.773 398.24V398.9H269.613V398.5C269.613 397.833 269.499 397.367 269.273 397.1C269.046 396.833 268.619 396.7 267.993 396.7C267.339 396.7 266.873 396.84 266.593 397.12C266.326 397.387 266.193 397.853 266.193 398.52ZM281.339 405H279.339V403.04L279.279 402.5V398.68C279.279 397.933 279.099 397.427 278.739 397.16C278.393 396.893 277.826 396.76 277.039 396.76C276.253 396.76 275.686 396.9 275.339 397.18C275.006 397.46 274.839 397.927 274.839 398.58V398.88H272.759V398.68C272.759 397.933 272.939 397.273 273.299 396.7C273.673 396.127 274.186 395.68 274.839 395.36C275.506 395.027 276.279 394.86 277.159 394.86C278.093 394.86 278.866 395.033 279.479 395.38C280.093 395.727 280.553 396.207 280.859 396.82C281.179 397.42 281.339 398.133 281.339 398.96V405ZM275.639 405.2C274.746 405.2 273.993 404.973 273.379 404.52C272.779 404.053 272.479 403.393 272.479 402.54C272.479 401.98 272.606 401.513 272.859 401.14C273.126 400.767 273.506 400.46 273.999 400.22C274.493 399.98 275.093 399.813 275.799 399.72L279.479 399.2V400.72L276.119 401.22C275.546 401.3 275.146 401.42 274.919 401.58C274.693 401.74 274.579 402.007 274.579 402.38C274.579 402.767 274.713 403.047 274.979 403.22C275.259 403.393 275.713 403.48 276.339 403.48C276.819 403.48 277.279 403.407 277.719 403.26C278.173 403.1 278.546 402.84 278.839 402.48C279.133 402.107 279.279 401.587 279.279 400.92L279.559 403.46L279.239 403.44C279.053 403.747 278.793 404.033 278.459 404.3C278.139 404.567 277.746 404.787 277.279 404.96C276.813 405.12 276.266 405.2 275.639 405.2ZM287.45 405C286.357 405 285.517 404.767 284.93 404.3C284.357 403.833 284.07 403.047 284.07 401.94V395.28L284.57 392.6H286.23V401.84C286.23 402.36 286.357 402.693 286.61 402.84C286.877 402.973 287.35 403.04 288.03 403.04H289.23V404.82C289.03 404.873 288.77 404.92 288.45 404.96C288.13 404.987 287.797 405 287.45 405ZM289.23 396.86H282.41V395.06H289.23V396.86ZM292.654 393.8H290.514L290.494 391.6H292.654V393.8ZM292.674 405H290.514V395H292.674V405ZM299.12 405.2C298.107 405.2 297.227 404.987 296.48 404.56C295.733 404.12 295.16 403.513 294.76 402.74C294.36 401.953 294.16 401.047 294.16 400.02C294.16 398.993 294.36 398.093 294.76 397.32C295.16 396.547 295.733 395.947 296.48 395.52C297.227 395.08 298.107 394.86 299.12 394.86C300.133 394.86 301 395.08 301.72 395.52C302.453 395.947 303.013 396.547 303.4 397.32C303.8 398.093 304 398.993 304 400.02C304 401.047 303.8 401.953 303.4 402.74C303.013 403.513 302.453 404.12 301.72 404.56C301 404.987 300.133 405.2 299.12 405.2ZM299.12 403.28C300.16 403.28 300.887 403.02 301.3 402.5C301.713 401.967 301.92 401.14 301.92 400.02C301.92 398.9 301.713 398.08 301.3 397.56C300.887 397.04 300.16 396.78 299.12 396.78C298.067 396.78 297.333 397.04 296.92 397.56C296.507 398.08 296.3 398.9 296.3 400.02C296.3 401.14 296.507 401.967 296.92 402.5C297.333 403.02 298.067 403.28 299.12 403.28ZM314.875 405H312.715V399.22C312.715 398.34 312.548 397.707 312.215 397.32C311.881 396.92 311.255 396.72 310.335 396.72C309.748 396.72 309.268 396.807 308.895 396.98C308.521 397.14 308.241 397.407 308.055 397.78C307.868 398.14 307.775 398.633 307.775 399.26H307.395L307.215 396.92H307.695C307.841 396.56 308.061 396.227 308.355 395.92C308.648 395.613 309.021 395.36 309.475 395.16C309.941 394.96 310.495 394.86 311.135 394.86C312.001 394.86 312.708 395.027 313.255 395.36C313.801 395.693 314.208 396.153 314.475 396.74C314.741 397.327 314.875 398 314.875 398.76V405ZM307.775 405H305.615V395.06H307.595V398.04L307.775 398.14V405ZM319.243 405H316.503V401.9H319.243V405Z" fill="white"/>
</svg>
