<svg width="402" height="389" viewBox="0 0 402 389" fill="none" xmlns="http://www.w3.org/2000/svg">
<path d="M201 307C288.261 307 359 266.083 359 215.608C359 165.134 288.261 124.217 201 124.217C113.739 124.217 43 165.134 43 215.608C43 266.083 113.739 307 201 307Z" fill="#F0F0F0" fill-opacity="0.28"/>
<path d="M291.743 247.32C281.382 241.327 281.382 231.611 291.743 225.618C302.104 219.625 318.901 219.625 329.262 225.618C339.623 231.611 339.623 241.327 329.262 247.32C318.901 253.313 302.104 253.313 291.743 247.32Z" fill="#E0E0E0"/>
<path d="M81.0092 248.152L53.7558 232.388C52.2194 231.499 52.2194 230.058 53.7558 229.169L212.28 137.475C213.816 136.586 216.307 136.586 217.844 137.475L245.098 153.239C246.635 154.128 246.635 155.569 245.098 156.457L86.5732 248.152C85.0368 249.041 82.5455 249.041 81.0092 248.152Z" fill="#E0E0E0"/>
<path d="M178.972 220.057L202.401 206.485C204.816 205.088 206.024 203.257 206.024 201.427C206.024 199.596 206.034 198.161 206.034 198.161L181.725 184.429C180.437 183.684 179.392 181.872 179.392 180.382V151.441L138.47 175.132L138.469 204.072C138.469 205.562 139.513 207.374 140.801 208.119L161.48 220.056C166.31 222.851 174.142 222.851 178.972 220.057Z" fill="#66805D"/>
<g opacity="0.6">
<path d="M178.972 220.057L202.401 206.485C204.816 205.088 206.024 203.257 206.024 201.427C206.024 199.596 206.034 198.161 206.034 198.161L181.725 184.429C180.437 183.684 179.392 181.872 179.392 180.382V151.441L138.47 175.132L138.469 204.072C138.469 205.562 139.513 207.374 140.801 208.119L161.48 220.056C166.31 222.851 174.142 222.851 178.972 220.057Z" fill="black"/>
</g>
<path opacity="0.3" d="M148.296 209.198V212.449L140.796 208.119C139.516 207.377 138.466 205.569 138.466 204.072V175.135L146.262 170.629C146.424 172.612 146.599 174.663 146.761 176.659L141.294 179.83V202.44C141.294 203.937 142.331 205.745 143.623 206.487L148.296 209.198Z" fill="black"/>
<path d="M141.292 202.445C141.292 203.935 142.336 205.747 143.624 206.492L161.477 216.795C166.308 219.588 174.14 219.59 178.97 216.797L202.411 203.226C207.242 200.433 207.243 195.904 202.412 193.11L184.548 182.8C183.26 182.055 182.216 180.243 182.216 178.753L182.215 156.141L141.292 179.832V202.445Z" fill="#66805D"/>
<path opacity="0.3" d="M141.292 202.445C141.292 203.935 142.336 205.747 143.624 206.492L161.477 216.795C166.308 219.588 174.14 219.59 178.97 216.797L202.411 203.226C207.242 200.433 207.243 195.904 202.412 193.11L184.548 182.8C183.26 182.055 182.216 180.243 182.216 178.753L182.215 156.141L141.292 179.832V202.445Z" fill="black"/>
<path opacity="0.5" d="M189.299 185.55V185.546L184.548 182.799C183.26 182.053 182.216 180.241 182.216 178.751V156.139L141.292 179.83V202.444C141.292 203.934 142.336 205.746 143.624 206.491L148.292 209.191L189.299 185.55Z" fill="black"/>
<path d="M206.03 198.164C206.03 198.164 206.03 199.594 206.03 201.429C206.03 203.263 204.818 205.084 202.408 206.488L178.975 220.052C176.659 221.401 173.657 222.075 170.627 222.129V218.878C173.657 218.838 176.659 218.136 178.975 216.801L202.408 203.222C204.818 201.833 206.03 199.999 206.03 198.164Z" fill="#66805D"/>
<path opacity="0.5" d="M206.03 198.164C206.03 198.164 206.03 199.594 206.03 201.429C206.03 203.263 204.818 205.084 202.408 206.488L178.975 220.052C176.659 221.401 173.657 222.075 170.627 222.129V218.878C173.657 218.838 176.659 218.136 178.975 216.801L202.408 203.222C204.818 201.833 206.03 199.999 206.03 198.164Z" fill="black"/>
<path d="M75.5863 230.55C77.0965 231.423 79.6267 231.376 81.2368 230.445C101.356 218.808 219.382 150.54 239.498 138.905C241.108 137.973 242.412 135.709 242.412 133.846V5.58001C242.412 3.71763 241.188 1.49917 239.677 0.625759C238.167 -0.247651 235.638 -0.201294 234.028 0.730567L75.7687 92.2706C74.1586 93.2018 72.8536 95.4666 72.8536 97.3297L72.8516 225.595C72.8516 227.458 74.0754 229.675 75.5863 230.55Z" fill="#66805D"/>
<path d="M81.2364 230.442L239.497 138.903C241.107 137.971 242.412 135.707 242.412 133.844V5.57734C242.412 3.71496 241.107 2.95979 239.497 3.89098L81.2384 95.4311C79.6283 96.3622 78.3233 98.6271 78.3233 100.49L78.3213 228.756C78.3213 230.618 79.627 231.373 81.2364 230.442Z" fill="#66805D"/>
<path opacity="0.5" d="M81.2364 230.442L239.497 138.903C241.107 137.971 242.412 135.707 242.412 133.844V5.57734C242.412 3.71496 241.107 2.95979 239.497 3.89098L81.2384 95.4311C79.6283 96.3622 78.3233 98.6271 78.3233 100.49L78.3213 228.756C78.3213 230.618 79.627 231.373 81.2364 230.442Z" fill="black"/>
<path d="M80.807 233.775C79.1915 234.49 76.9564 234.463 75.583 233.667C74.0748 232.79 72.8496 230.577 72.8496 228.702V217.023L78.3164 220.194V231.873C78.3164 233.573 79.3934 234.341 80.807 233.775Z" fill="#66805D"/>
<path opacity="0.5" d="M80.807 233.775C79.1915 234.49 76.9564 234.463 75.583 233.667C74.0748 232.79 72.8496 230.577 72.8496 228.702V217.023L78.3164 220.194V231.873C78.3164 233.573 79.3934 234.341 80.807 233.775Z" fill="black"/>
<path d="M78.3164 220.195L78.3211 231.87C78.3211 233.732 79.6268 234.487 81.2362 233.556L239.496 142.017C241.107 141.085 242.412 138.821 242.412 136.957V125.258L78.3164 220.195Z" fill="#66805D"/>
<path opacity="0.3" d="M78.3213 220.171V231.87C78.3213 233.732 79.627 234.487 81.2364 233.556L239.497 142.017C241.107 141.085 242.412 138.821 242.412 136.957V125.258L78.3213 220.171Z" fill="black"/>
<path d="M83.7891 205.543L83.7904 102.309C83.7904 101.192 84.5737 99.8326 85.5393 99.2736L235.19 12.712C236.156 12.153 236.939 12.6065 236.939 13.7238L236.943 116.96C236.943 118.077 236.16 119.437 235.194 119.996L85.5387 206.555C84.5723 207.114 83.7891 206.66 83.7891 205.543Z" fill="#66805D"/>
<path d="M83.7891 205.543L83.7904 102.309C83.7904 101.192 84.5737 99.8326 85.5393 99.2736L235.19 12.712C236.156 12.153 236.939 12.6065 236.939 13.7238L236.943 116.96C236.943 118.077 236.16 119.437 235.194 119.996L85.5387 206.555C84.5723 207.114 83.7891 206.66 83.7891 205.543Z" fill="#263238"/>
<path d="M160.364 176.44C158.853 177.315 157.629 179.44 157.629 181.187C157.629 182.935 158.854 183.643 160.365 182.769C161.876 181.895 163.1 179.77 163.1 178.022C163.1 176.275 161.875 175.567 160.364 176.44Z" fill="#66805D"/>
<path opacity="0.7" d="M79.1781 97.5997C78.653 98.5168 78.3298 99.5555 78.3164 100.487V220.194L72.8496 217.024L72.853 97.3296C72.853 96.3991 73.1863 95.3604 73.7113 94.4434L79.1781 97.5997Z" fill="black"/>
<path opacity="0.3" d="M242.382 5.0967C242.175 3.59108 240.961 3.04553 239.493 3.88804L81.2379 95.4335C80.4378 95.8964 79.7143 96.6838 79.1764 97.6022L73.709 94.4391C74.2401 93.5341 74.9637 92.7333 75.7704 92.2704L234.026 0.731667C235.639 -0.200866 238.162 -0.24924 239.679 0.628201C241.058 1.42233 242.195 3.34921 242.382 5.0967Z" fill="black"/>
<path d="M250.922 20.8813C250.541 20.6522 250.021 20.6602 249.435 20.9995L100.099 107.391C98.9704 108.044 98.0557 109.629 98.0557 110.935L98.057 213.539C98.057 214.335 98.397 215.038 98.9181 215.318C99.252 215.498 101.007 216.52 101.528 216.801C101.862 216.981 102.27 216.987 102.712 216.733L252.042 130.307C253.171 129.656 254.087 128.071 254.087 126.765V23.6634C254.087 22.9902 253.843 22.524 253.454 22.319C253.087 22.1269 251.298 21.107 250.922 20.8813Z" fill="#66805D"/>
<path d="M102.037 216.594C101.466 216.594 101.003 215.889 101.003 215.022V112.417C101.003 111.241 101.861 109.751 102.878 109.163L252.212 22.7716C252.477 22.6177 252.734 22.5371 252.956 22.5371C253.454 22.5371 253.751 22.9577 253.751 23.6625V126.765C253.751 127.941 252.892 129.43 251.875 130.016L102.544 216.441C102.368 216.542 102.198 216.594 102.037 216.594Z" fill="#FAFAFA"/>
<path d="M252.957 22.873C253.357 22.873 253.416 23.3675 253.416 23.6625V126.765C253.416 127.835 252.634 129.191 251.707 129.725L102.378 216.15C102.253 216.222 102.139 216.258 102.037 216.258C101.664 216.258 101.338 215.68 101.338 215.022V112.417C101.338 111.346 102.12 109.99 103.045 109.454L252.38 23.0625C252.651 22.9059 252.843 22.873 252.957 22.873ZM252.957 22.2012C252.683 22.2012 252.372 22.2912 252.044 22.4807L102.711 108.872C101.583 109.525 100.668 111.112 100.668 112.417V215.022C100.668 216.054 101.24 216.93 102.038 216.93C102.249 216.93 102.477 216.869 102.713 216.732L252.043 130.307C253.172 129.656 254.088 128.071 254.088 126.765V23.6625C254.088 22.7366 253.627 22.2012 252.957 22.2012Z" fill="#E0E0E0"/>
<path d="M98.9157 215.315C99.137 215.433 100.726 216.341 101.422 216.738C100.952 216.402 100.705 215.827 100.67 215.019V119.111L98.0547 117.578V213.538C98.0547 214.33 98.3954 215.039 98.9157 215.315Z" fill="#F0F0F0"/>
<path d="M254.086 23.6466C254.078 22.354 253.168 21.8306 252.045 22.4803L102.711 108.872C101.583 109.524 100.668 111.112 100.668 112.417L100.67 119.112L254.086 30.3638V23.6466Z" fill="#66805D"/>
<g opacity="0.4">
<path d="M252.044 22.4805L102.713 108.872C102.153 109.2 101.64 109.754 101.274 110.391L98.6777 108.884C99.0439 108.253 99.5468 107.705 100.099 107.389L249.435 20.9984C250.02 20.6571 250.54 20.6517 250.92 20.8775C251.286 21.1026 252.983 22.0687 253.413 22.2998C253.052 22.1265 252.571 22.1782 252.044 22.4805Z" fill="white"/>
</g>
<path opacity="0.15" d="M98.0547 117.587L98.056 110.932C98.056 110.269 98.2988 109.535 98.6777 108.885L101.28 110.384C100.901 111.028 100.669 111.756 100.669 112.418V119.112L98.0547 117.587Z" fill="black"/>
<path d="M222.594 100.989L133.153 152.724C132.329 153.201 131.66 154.36 131.66 155.314V181.003C131.66 181.956 132.329 183.115 133.154 183.591L135.768 185.097C136.592 185.573 137.93 185.571 138.754 185.095L228.183 133.367C229.007 132.89 229.676 131.73 229.677 130.777L229.687 105.081C229.688 104.127 229.019 102.968 228.194 102.493L225.581 100.986C224.756 100.511 223.418 100.513 222.594 100.989Z" fill="#66805D"/>
<path opacity="0.5" d="M229.676 104.839C229.572 104.066 228.945 103.783 228.194 104.218L138.756 155.951C138.342 156.187 137.97 156.6 137.701 157.07L132.103 153.83C132.371 153.367 132.744 152.96 133.151 152.725L222.595 100.992C223.416 100.515 224.753 100.508 225.581 100.985L228.194 102.491C228.951 102.926 229.579 103.942 229.676 104.839Z" fill="white"/>
<path d="M138.5 185.215C137.672 185.567 136.514 185.526 135.77 185.097L133.157 183.592C132.33 183.116 131.661 181.955 131.661 181.002V155.315C131.661 154.831 131.833 154.3 132.102 153.83L137.701 157.07C137.425 157.539 137.259 158.064 137.259 158.541V184.235C137.259 185.091 137.797 185.484 138.5 185.215Z" fill="#263238"/>
<path d="M138.754 155.953L228.195 104.218C229.019 103.741 229.687 104.128 229.687 105.081L229.676 130.778C229.676 131.731 229.007 132.891 228.183 133.368L138.754 185.096C137.929 185.573 137.261 185.186 137.261 184.232V158.543C137.261 157.589 137.929 156.43 138.754 155.953Z" fill="#66805D"/>
<path d="M198.884 114.707L133.15 152.727C132.743 152.962 132.371 153.369 132.102 153.832L137.7 157.071C137.969 156.602 138.341 156.187 138.755 155.953L204.472 117.94L198.884 114.707Z" fill="#455A64"/>
<path d="M204.473 117.939L138.754 155.953C137.929 156.43 137.261 157.59 137.261 158.543V184.232C137.261 185.185 137.929 185.572 138.754 185.095L204.473 147.082V117.939Z" fill="#37474F"/>
<path d="M153.91 152.824L187.821 133.209C189.227 132.395 190.366 132.973 190.366 134.499C190.366 136.025 189.226 137.922 187.82 138.735L153.912 158.349C152.506 159.162 151.365 158.584 151.365 157.059C151.365 155.534 152.504 153.638 153.91 152.824Z" fill="#66805D"/>
<path d="M160.859 159.316C160.897 159.294 160.931 159.3 160.958 159.333C160.987 159.367 161.001 159.417 161.001 159.486V163.312C161.001 163.698 160.969 164.063 160.905 164.411C160.844 164.758 160.749 165.08 160.622 165.377C160.497 165.674 160.339 165.937 160.152 166.168C159.963 166.398 159.745 166.585 159.497 166.728C159.245 166.874 159.025 166.939 158.839 166.927C158.652 166.914 158.495 166.831 158.37 166.681C158.244 166.53 158.151 166.315 158.089 166.04C158.029 165.764 157.997 165.434 157.997 165.048V161.223C157.997 161.154 158.011 161.088 158.039 161.022C158.067 160.956 158.1 160.911 158.139 160.889L158.564 160.643C158.602 160.621 158.635 160.627 158.664 160.66C158.691 160.694 158.705 160.744 158.705 160.813V164.592C158.705 164.847 158.725 165.053 158.763 165.211C158.8 165.371 158.855 165.487 158.925 165.561C158.994 165.636 159.079 165.672 159.177 165.668C159.275 165.664 159.381 165.629 159.497 165.562C159.612 165.496 159.719 165.407 159.818 165.296C159.918 165.185 160.003 165.053 160.073 164.897C160.143 164.742 160.198 164.562 160.238 164.359C160.278 164.155 160.298 163.925 160.298 163.671V159.892C160.298 159.824 160.312 159.757 160.339 159.691C160.368 159.626 160.401 159.581 160.44 159.558L160.859 159.316Z" fill="#FAFAFA"/>
<path d="M163.49 162.936C163.49 162.869 163.478 162.819 163.453 162.79C163.429 162.76 163.386 162.745 163.325 162.743C163.264 162.741 163.182 162.75 163.081 162.772C162.979 162.793 162.851 162.818 162.694 162.847C162.539 162.874 162.413 162.869 162.311 162.835C162.21 162.8 162.129 162.737 162.068 162.649C162.007 162.559 161.964 162.444 161.939 162.298C161.915 162.154 161.903 161.988 161.903 161.802C161.903 161.616 161.927 161.418 161.976 161.208C162.025 161 162.096 160.799 162.188 160.606C162.281 160.412 162.393 160.233 162.526 160.07C162.659 159.906 162.811 159.775 162.982 159.676C163.153 159.577 163.306 159.522 163.441 159.514C163.576 159.504 163.69 159.528 163.784 159.585C163.878 159.643 163.951 159.73 164.003 159.846C164.056 159.962 164.085 160.092 164.093 160.237C164.096 160.303 164.083 160.371 164.053 160.437C164.024 160.504 163.989 160.549 163.95 160.57L163.547 160.803C163.496 160.833 163.456 160.84 163.429 160.821C163.403 160.802 163.375 160.779 163.344 160.754C163.312 160.729 163.27 160.715 163.217 160.711C163.166 160.706 163.087 160.735 162.982 160.795C162.877 160.856 162.785 160.937 162.704 161.039C162.624 161.142 162.583 161.265 162.583 161.408C162.583 161.476 162.593 161.527 162.613 161.564C162.631 161.599 162.668 161.62 162.722 161.626C162.776 161.632 162.852 161.627 162.948 161.612C163.044 161.597 163.168 161.573 163.322 161.541C163.633 161.479 163.852 161.537 163.979 161.715C164.107 161.893 164.171 162.17 164.171 162.542C164.171 162.729 164.145 162.926 164.093 163.133C164.04 163.341 163.964 163.543 163.865 163.741C163.765 163.939 163.643 164.122 163.498 164.289C163.353 164.457 163.189 164.594 163.008 164.698C162.822 164.805 162.66 164.861 162.518 164.865C162.377 164.869 162.257 164.837 162.16 164.769C162.061 164.701 161.987 164.605 161.935 164.479C161.882 164.354 161.854 164.218 161.85 164.071C161.847 164.005 161.86 163.937 161.89 163.871C161.919 163.804 161.953 163.759 161.992 163.737L162.395 163.503C162.448 163.474 162.487 163.473 162.513 163.501C162.539 163.53 162.569 163.561 162.602 163.599C162.635 163.636 162.681 163.659 162.741 163.668C162.8 163.677 162.889 163.647 163.008 163.578C163.061 163.548 163.115 163.51 163.171 163.465C163.226 163.421 163.279 163.37 163.325 163.315C163.372 163.26 163.411 163.2 163.443 163.135C163.474 163.071 163.49 163.005 163.49 162.936Z" fill="#FAFAFA"/>
<path d="M164.855 161.11C164.855 160.762 164.885 160.417 164.945 160.075C165.004 159.733 165.09 159.415 165.202 159.123C165.313 158.832 165.448 158.575 165.607 158.352C165.766 158.13 165.943 157.962 166.139 157.849C166.334 157.735 166.511 157.696 166.671 157.731C166.829 157.767 166.965 157.861 167.077 158.011C167.188 158.16 167.274 158.363 167.336 158.616C167.396 158.871 167.428 159.156 167.428 159.473V159.892C167.428 159.961 167.414 160.029 167.386 160.093C167.358 160.159 167.325 160.204 167.286 160.226L165.536 161.239C165.536 161.382 165.554 161.498 165.586 161.587C165.619 161.678 165.664 161.743 165.72 161.785C165.776 161.827 165.841 161.846 165.914 161.841C165.987 161.836 166.063 161.811 166.139 161.766C166.25 161.702 166.341 161.63 166.411 161.549C166.481 161.468 166.539 161.384 166.584 161.295C166.623 161.223 166.654 161.17 166.679 161.137C166.703 161.104 166.737 161.077 166.779 161.053L167.198 160.81C167.235 160.789 167.27 160.793 167.3 160.825C167.329 160.858 167.343 160.91 167.339 160.98C167.335 161.07 167.309 161.197 167.258 161.363C167.208 161.529 167.132 161.706 167.03 161.896C166.929 162.085 166.804 162.269 166.656 162.448C166.508 162.627 166.335 162.773 166.14 162.886C165.945 163 165.767 163.041 165.609 163.013C165.45 162.984 165.314 162.889 165.203 162.73C165.091 162.57 165.006 162.354 164.946 162.08C164.886 161.807 164.855 161.483 164.855 161.11ZM166.14 158.967C166.038 159.026 165.952 159.104 165.88 159.197C165.808 159.293 165.748 159.395 165.699 159.507C165.65 159.62 165.613 159.734 165.586 159.852C165.56 159.97 165.544 160.077 165.536 160.175L166.72 159.49C166.714 159.401 166.7 159.311 166.682 159.219C166.663 159.127 166.631 159.053 166.587 158.994C166.543 158.936 166.485 158.901 166.414 158.889C166.342 158.877 166.251 158.904 166.14 158.967Z" fill="#FAFAFA"/>
<path d="M169.534 157.097C169.325 157.219 169.174 157.389 169.081 157.606C168.988 157.826 168.942 158.121 168.942 158.494V160.92C168.942 160.988 168.928 161.056 168.901 161.121C168.872 161.187 168.839 161.232 168.8 161.253L168.403 161.484C168.365 161.505 168.331 161.5 168.303 161.466C168.275 161.433 168.261 161.382 168.261 161.314V156.966C168.261 156.898 168.275 156.83 168.303 156.765C168.33 156.699 168.364 156.654 168.403 156.632L168.8 156.403C168.839 156.38 168.872 156.386 168.901 156.419C168.928 156.452 168.942 156.503 168.942 156.572V156.787C169.033 156.585 169.13 156.414 169.233 156.273C169.336 156.132 169.471 156.014 169.639 155.917L169.874 155.78C169.912 155.759 169.945 155.764 169.974 155.798C170.002 155.831 170.016 155.883 170.016 155.95V156.566C170.016 156.635 170.002 156.702 169.974 156.768C169.946 156.834 169.913 156.879 169.874 156.9L169.534 157.097Z" fill="#FAFAFA"/>
<path d="M174.537 156.77C174.575 156.748 174.608 156.754 174.637 156.788C174.664 156.82 174.678 156.872 174.678 156.94V157.603C174.678 157.671 174.664 157.739 174.637 157.804C174.609 157.87 174.576 157.914 174.537 157.936L172.242 159.264C172.203 159.286 172.171 159.28 172.142 159.247C172.115 159.214 172.101 159.163 172.101 159.094V153.066C172.101 152.998 172.115 152.931 172.142 152.865C172.17 152.799 172.203 152.755 172.242 152.733L172.667 152.488C172.705 152.466 172.738 152.472 172.767 152.505C172.795 152.539 172.809 152.588 172.809 152.658V157.771L174.537 156.77Z" fill="#FAFAFA"/>
<path d="M176.595 151.8C176.787 151.689 176.961 151.641 177.116 151.657C177.272 151.673 177.407 151.741 177.519 151.862C177.633 151.983 177.724 152.148 177.792 152.358C177.86 152.567 177.9 152.812 177.91 153.092C177.914 153.145 177.916 153.216 177.916 153.303C177.916 153.389 177.916 153.477 177.916 153.563C177.916 153.651 177.916 153.736 177.916 153.821C177.916 153.905 177.914 153.976 177.91 154.034C177.896 154.328 177.857 154.618 177.79 154.906C177.723 155.193 177.633 155.461 177.519 155.711C177.406 155.959 177.271 156.182 177.116 156.378C176.961 156.573 176.787 156.726 176.595 156.838C176.403 156.949 176.229 156.997 176.074 156.981C175.919 156.965 175.784 156.899 175.671 156.78C175.557 156.663 175.467 156.498 175.401 156.288C175.335 156.078 175.294 155.833 175.28 155.555C175.276 155.502 175.274 155.433 175.272 155.351C175.271 155.267 175.27 155.183 175.27 155.096C175.27 155.008 175.271 154.921 175.272 154.833C175.274 154.745 175.276 154.672 175.28 154.614C175.29 154.321 175.33 154.032 175.398 153.743C175.466 153.455 175.557 153.184 175.671 152.932C175.785 152.679 175.919 152.456 176.074 152.261C176.229 152.064 176.403 151.912 176.595 151.8ZM177.23 153.533C177.219 153.346 177.194 153.201 177.153 153.096C177.112 152.992 177.063 152.92 177.003 152.879C176.944 152.839 176.88 152.826 176.81 152.838C176.74 152.85 176.668 152.877 176.595 152.92C176.522 152.961 176.45 153.018 176.381 153.086C176.311 153.154 176.246 153.244 176.187 153.352C176.128 153.462 176.077 153.592 176.037 153.742C175.998 153.893 175.972 154.068 175.962 154.266C175.958 154.319 175.956 154.382 175.954 154.458C175.952 154.533 175.951 154.611 175.951 154.692C175.951 154.773 175.952 154.851 175.954 154.928C175.956 155.005 175.958 155.064 175.962 155.106C175.972 155.292 175.998 155.438 176.037 155.541C176.077 155.646 176.128 155.718 176.187 155.758C176.246 155.799 176.311 155.813 176.381 155.8C176.45 155.788 176.522 155.76 176.595 155.718C176.668 155.676 176.74 155.621 176.81 155.552C176.88 155.484 176.944 155.396 177.003 155.286C177.063 155.177 177.112 155.047 177.153 154.896C177.193 154.745 177.218 154.571 177.23 154.372C177.232 154.327 177.234 154.265 177.234 154.187C177.234 154.109 177.234 154.029 177.234 153.948C177.234 153.869 177.234 153.79 177.234 153.717C177.234 153.641 177.232 153.581 177.23 153.533Z" fill="#FAFAFA"/>
<path d="M179.963 155.73C180.038 155.688 180.112 155.623 180.189 155.539C180.266 155.454 180.336 155.351 180.398 155.226C180.461 155.103 180.513 154.963 180.553 154.806C180.593 154.649 180.613 154.48 180.613 154.299V153.954C180.585 154.026 180.549 154.108 180.503 154.199C180.458 154.291 180.402 154.384 180.338 154.477C180.273 154.571 180.198 154.661 180.113 154.747C180.027 154.835 179.93 154.909 179.822 154.971C179.647 155.073 179.489 155.103 179.348 155.064C179.206 155.025 179.086 154.932 178.986 154.788C178.887 154.643 178.808 154.456 178.751 154.225C178.693 153.994 178.661 153.737 178.653 153.455C178.65 153.363 178.648 153.256 178.648 153.131C178.648 153.007 178.65 152.898 178.653 152.802C178.661 152.511 178.693 152.218 178.751 151.92C178.808 151.622 178.887 151.344 178.986 151.084C179.086 150.824 179.206 150.592 179.348 150.389C179.489 150.186 179.647 150.035 179.822 149.934C179.93 149.871 180.027 149.832 180.113 149.821C180.198 149.809 180.273 149.812 180.338 149.83C180.402 149.848 180.458 149.878 180.503 149.917C180.548 149.956 180.584 149.996 180.613 150.036V149.821C180.613 149.753 180.627 149.686 180.655 149.62C180.682 149.554 180.715 149.51 180.755 149.487L181.152 149.257C181.191 149.235 181.224 149.241 181.252 149.274C181.281 149.307 181.295 149.359 181.295 149.427V153.803C181.295 154.556 181.176 155.191 180.941 155.711C180.705 156.23 180.379 156.609 179.963 156.85C179.785 156.953 179.62 157.006 179.468 157.011C179.316 157.014 179.184 156.979 179.073 156.903C178.961 156.828 178.872 156.721 178.805 156.581C178.74 156.442 178.702 156.281 178.695 156.099C178.691 156.033 178.705 155.966 178.735 155.9C178.764 155.832 178.798 155.787 178.837 155.765L179.193 155.56C179.242 155.531 179.283 155.537 179.318 155.576C179.353 155.614 179.383 155.651 179.408 155.688C179.452 155.767 179.515 155.819 179.593 155.841C179.674 155.865 179.797 155.827 179.963 155.73ZM179.335 152.473C179.324 152.654 179.324 152.828 179.335 152.996C179.356 153.388 179.426 153.639 179.545 153.746C179.663 153.856 179.809 153.86 179.979 153.761C180.15 153.662 180.294 153.488 180.411 153.24C180.529 152.993 180.596 152.696 180.613 152.349C180.62 152.252 180.624 152.132 180.624 151.989C180.624 151.846 180.62 151.73 180.613 151.641C180.596 151.327 180.529 151.111 180.411 150.992C180.294 150.873 180.15 150.863 179.979 150.962C179.808 151.06 179.662 151.234 179.545 151.48C179.426 151.726 179.357 152.058 179.335 152.473Z" fill="#FAFAFA"/>
<path d="M182.845 146.506C182.883 146.483 182.917 146.489 182.944 146.522C182.972 146.556 182.987 146.607 182.987 146.675V147.403C182.987 147.471 182.972 147.538 182.944 147.604C182.917 147.67 182.883 147.715 182.845 147.737L182.395 147.997C182.357 148.019 182.323 148.014 182.295 147.98C182.267 147.946 182.253 147.895 182.253 147.827V147.099C182.253 147.031 182.267 146.963 182.295 146.898C182.323 146.832 182.356 146.787 182.395 146.766L182.845 146.506ZM182.961 152.811C182.961 152.88 182.947 152.948 182.919 153.012C182.891 153.078 182.858 153.123 182.819 153.145L182.422 153.375C182.384 153.397 182.35 153.391 182.322 153.357C182.294 153.325 182.28 153.273 182.28 153.205V148.857C182.28 148.789 182.294 148.721 182.322 148.656C182.349 148.591 182.383 148.546 182.422 148.523L182.819 148.294C182.857 148.271 182.891 148.278 182.919 148.311C182.947 148.343 182.961 148.394 182.961 148.464V152.811Z" fill="#FAFAFA"/>
<path d="M186.502 150.763C186.502 150.831 186.488 150.899 186.461 150.964C186.433 151.03 186.4 151.074 186.361 151.096L185.962 151.327C185.924 151.348 185.891 151.343 185.863 151.309C185.834 151.276 185.821 151.225 185.821 151.157V148.786C185.821 148.414 185.773 148.143 185.674 147.976C185.576 147.808 185.427 147.783 185.223 147.9C185.038 148.007 184.893 148.204 184.786 148.489C184.68 148.774 184.627 149.104 184.627 149.477V151.847C184.627 151.915 184.613 151.983 184.585 152.048C184.557 152.114 184.524 152.159 184.485 152.181L184.087 152.411C184.049 152.433 184.015 152.427 183.988 152.394C183.959 152.361 183.945 152.309 183.945 152.241V147.893C183.945 147.825 183.959 147.757 183.988 147.692C184.015 147.626 184.049 147.582 184.087 147.559L184.485 147.33C184.523 147.307 184.556 147.313 184.585 147.347C184.613 147.38 184.627 147.431 184.627 147.499V147.714C184.718 147.5 184.824 147.305 184.947 147.128C185.069 146.952 185.213 146.815 185.382 146.718C185.594 146.595 185.773 146.551 185.916 146.586C186.059 146.622 186.174 146.714 186.261 146.862C186.349 147.011 186.41 147.208 186.447 147.45C186.484 147.693 186.502 147.961 186.502 148.254V150.763Z" fill="#FAFAFA"/>
<path d="M220.331 131.21L213.817 134.977L214.826 125.824C214.047 125.412 213.551 124.396 213.551 122.938C213.551 120.338 215.128 117.319 217.074 116.193C219.02 115.068 220.597 116.262 220.597 118.862C220.597 120.32 220.101 121.91 219.321 123.224L220.331 131.21Z" fill="#455A64"/>
<path d="M220.332 131.21L214.599 127.895L213.817 134.978L220.332 131.21Z" fill="#37474F"/>
<path d="M217.075 116.193C215.801 116.929 214.689 118.478 214.07 120.188L219.322 123.226V123.225C220.102 121.91 220.598 120.321 220.598 118.862C220.597 116.263 219.02 115.068 217.075 116.193Z" fill="#37474F"/>
<path d="M185.407 85.7266C183.179 84.4346 180.101 84.618 176.699 86.5859C169.9 90.5196 164.388 100.085 164.39 107.951C164.39 111.898 165.779 114.665 168.022 115.947C168.605 116.281 171.772 118.127 172.36 118.467C174.588 119.757 177.664 119.573 181.064 117.607C187.863 113.674 193.374 104.108 193.374 96.2417C193.374 92.3107 191.996 89.5501 189.771 88.2615" fill="#66805D"/>
<path d="M181.062 89.1197C174.263 93.0548 168.751 102.619 168.752 110.484C168.753 118.35 174.265 121.539 181.064 117.606C187.862 113.673 193.381 104.107 193.373 96.2407C193.367 88.376 187.854 85.1874 181.062 89.1197Z" fill="#66805D"/>
<path d="M187.859 106.572V107.469C186.106 110.467 183.707 113.077 181.062 114.603C178.412 116.133 176.018 116.301 174.265 115.324V113.464C174.265 109.873 176.698 105.648 179.803 103.848L181.59 102.817C183.177 101.899 184.715 101.782 185.924 102.483C187.159 103.196 187.859 104.683 187.859 106.572Z" fill="#66805D"/>
<path opacity="0.4" d="M185.406 85.7265L189.77 88.26C187.541 86.9674 184.463 87.1501 181.063 89.1186C176.61 91.6965 172.71 96.6884 170.548 102.036L166.185 99.4995C168.347 94.1522 172.245 89.1603 176.699 86.5844C180.101 84.6186 183.179 84.4345 185.406 85.7265Z" fill="white"/>
<path opacity="0.2" d="M172.195 118.372C171.426 117.927 168.559 116.254 168.02 115.946C165.777 114.665 164.388 111.898 164.388 107.951L168.751 110.487C168.754 114.321 170.066 117.044 172.195 118.372Z" fill="black"/>
<path opacity="0.1" d="M166.185 99.5L170.549 102.036C169.408 104.855 168.752 107.772 168.752 110.484V110.486L164.389 107.95C164.389 105.236 165.047 102.317 166.185 99.5Z" fill="black"/>
<path d="M179.514 102.399C179.088 102.399 178.69 102.296 178.33 102.09C177.501 101.61 177.044 100.659 177.044 99.4142C177.044 97.1346 178.588 94.4546 180.56 93.3144V93.3124C181.632 92.6896 182.68 92.6123 183.515 93.092C184.345 93.5724 184.802 94.5231 184.802 95.768C184.802 98.0476 183.258 100.728 181.288 101.868C180.676 102.221 180.074 102.399 179.514 102.399Z" fill="white"/>
<path d="M185.924 102.485C184.715 101.784 183.177 101.901 181.59 102.819L179.803 103.85C176.698 105.65 174.265 109.874 174.265 113.466V115.326C176.018 116.302 178.412 116.135 181.062 114.605C183.706 113.079 186.106 110.469 187.859 107.471V106.573C187.859 104.684 187.159 103.197 185.924 102.485Z" fill="white"/>
<path d="M323.792 218.715C323.792 218.715 324.683 210.868 328.578 204.779C332.474 198.689 337.827 194.888 342.822 194.493C347.816 194.097 351.851 198.7 346.506 201.862C341.162 205.024 331.667 208.25 327.297 220.075L323.792 218.715Z" fill="#66805D"/>
<path opacity="0.1" d="M323.792 218.715C323.792 218.715 324.683 210.868 328.578 204.779C332.474 198.689 337.827 194.888 342.822 194.493C347.816 194.097 351.851 198.7 346.506 201.862C341.162 205.024 331.667 208.25 327.297 220.075L323.792 218.715Z" fill="black"/>
<path d="M325.257 216.677C325.239 216.674 325.221 216.669 325.204 216.661C325.067 216.606 325.001 216.45 325.057 216.313C330.328 203.308 340.362 197.878 344.932 196.824C345.074 196.789 345.218 196.881 345.252 197.024C345.284 197.168 345.195 197.311 345.052 197.344C340.575 198.377 330.74 203.713 325.551 216.514C325.503 216.634 325.378 216.699 325.257 216.677Z" fill="white"/>
<path d="M351.937 216.83C351.485 217.852 350.372 218.384 349.336 218.802C348.306 219.216 347.177 219.668 346.617 220.634C345.49 222.585 347.341 225.327 346.13 227.227C345.622 228.024 344.678 228.443 343.749 228.61C342.977 228.754 342.192 228.754 341.409 228.82C341.033 228.812 340.66 228.785 340.297 228.733C339.223 228.577 338.058 228.527 337.075 229.077C335.527 229.948 335.051 231.906 334.112 233.416C332.985 235.223 330.992 236.407 328.899 236.692C328.203 236.784 326.91 236.909 326.201 236.514C326.145 236.483 326.099 236.454 326.054 236.42C326.05 236.42 326.046 236.414 326.042 236.408C325.945 236.297 325.822 236.158 325.769 236.082C325.756 236.069 325.749 236.053 325.742 236.036C325.468 235.024 325.916 233.971 325.933 232.927C325.935 232.861 325.936 232.8 325.932 232.737C325.889 231.523 325.855 230.315 325.826 229.103C325.769 226.874 325.744 224.64 325.759 222.408C325.775 220.959 325.6 219.372 326.213 218.007C326.891 216.505 328.576 216.472 329.213 214.999C329.469 214.412 329.604 213.782 329.851 213.188C330.588 211.447 332.374 210.195 334.263 210.102C337.205 209.953 339.846 212.339 342.785 212.122C343.546 212.062 344.288 211.831 345.037 211.692C347.421 211.245 350.175 211.925 351.515 213.945C352.076 214.79 352.347 215.903 351.937 216.83Z" fill="#66805D"/>
<path d="M325.502 231.392C325.495 231.391 325.489 231.389 325.482 231.387C325.349 231.352 325.269 231.214 325.304 231.08C329.37 215.799 345.44 213.591 349.2 213.863C349.336 213.873 349.442 213.993 349.432 214.131C349.422 214.27 349.302 214.374 349.164 214.364C345.486 214.098 329.767 216.259 325.789 231.209C325.756 231.337 325.63 231.416 325.502 231.392Z" fill="white"/>
<path d="M343.358 223.65C343.309 223.641 343.262 223.617 343.225 223.579C343.185 223.538 339.086 219.49 332.289 220.493C332.152 220.511 332.024 220.418 332.004 220.28C331.984 220.142 332.079 220.015 332.216 219.995C339.276 218.955 343.539 223.182 343.582 223.225C343.68 223.324 343.679 223.483 343.58 223.58C343.519 223.641 343.435 223.664 343.358 223.65Z" fill="white"/>
<g opacity="0.3">
<path d="M259.399 49.8477L261.533 50.6701V45.9597C261.533 42.2256 264.506 41.3307 267.733 43.1971C270.961 45.0641 273.577 49.6045 273.577 53.3387V54.0226C274.31 53.7297 275.255 53.8433 276.289 54.4419C278.612 55.7856 280.495 59.0528 280.495 61.7396V62.0506L283.47 63.7719C285 64.6567 286.24 66.8087 286.24 68.5777C286.24 70.3473 285 71.0642 283.47 70.1794L259.398 56.2552C257.868 55.3704 256.628 53.2191 256.628 51.4494C256.629 49.6798 257.869 48.9629 259.399 49.8477Z" fill="#E6E6E6"/>
<path d="M287.961 46.1249L291.83 48.3628C291.81 48.1895 291.797 48.0181 291.797 47.8495V46.7268C291.797 44.7287 293.197 43.9185 294.925 44.9175C295.624 45.322 296.268 45.9636 296.789 46.7134C297.072 44.2007 299.04 43.2648 301.43 44.6475C304.014 46.1423 306.109 49.7777 306.109 52.7668V54.4471C306.109 55.2218 305.966 55.8735 305.713 56.3935L308.926 58.2525C309.885 58.8068 310.661 60.1545 310.661 61.2631C310.661 62.3716 309.885 62.8211 308.926 62.2668L287.96 50.1399C287.002 49.5856 286.226 48.2378 286.226 47.1293C286.226 46.02 287.003 45.5706 287.961 46.1249Z" fill="#E6E6E6"/>
</g>
<path d="M300.464 132.439C297.648 137.21 294.938 141.354 293.035 143.341C289.423 145.025 280.934 147.613 277.613 148.046C277.024 148.123 276.433 147.972 275.946 147.653C274.64 146.796 273.63 146.657 272.253 146.179C271.176 145.805 270.719 145.289 270.516 145.486C270.256 145.738 269.973 146.454 270.629 147.197C270.959 147.57 271.561 147.978 272.335 148.475C272.335 148.475 269.96 149.11 267.839 148.553C264.964 147.797 263.607 149.182 265.551 152.309C266.247 153.429 268.989 155.222 274.544 154.738C276.145 154.599 278.454 154.464 280.447 154.038C285.775 152.899 291.698 151.795 295.34 150.705C296.258 150.431 297.899 149.366 298.876 148.25C305.002 141.254 307.03 136.271 309.715 131.741L309.483 124.339C305.142 124.204 302.821 128.446 300.464 132.439Z" fill="#E5E5D4"/>
<path d="M310.232 124.205C310.232 124.205 306.441 123.397 303.592 127.049C300.611 130.872 295.339 140.051 295.339 140.051C295.339 140.051 297.068 144.654 301.722 145.411L309.198 135.294C309.198 135.294 312.738 128.291 310.232 124.205Z" fill="#455A64"/>
<path d="M326.396 227.375H321.522V236.081H326.396V227.375Z" fill="#E5E5D4"/>
<path d="M309.498 226.91L304.628 227.085L304.384 217.872L309.498 217.697V226.91Z" fill="#E5E5D4"/>
<path d="M327.083 152.001C327.083 156.857 326.369 195.939 326.369 195.939C326.482 197.336 327.738 199.913 327.466 205.28C327.097 212.571 326.604 231.729 326.604 231.729C326.604 231.729 324.239 233.172 321.178 231.841C321.178 231.841 317.227 204.993 316.354 197.768C315.592 191.463 313.64 170.545 313.64 170.545L310.998 195.229C310.998 195.229 311.897 198.99 311.602 203.311C311.374 206.653 309.807 224.057 309.807 224.057C309.807 224.057 307.513 225.682 304.18 224.507C304.18 224.507 301.408 198.296 301.351 195.229C301.287 191.734 302.972 151.949 302.972 151.949L327.083 152.001Z" fill="#37474F"/>
<path d="M321.523 233.571V232.844C321.056 233.056 319.973 237.37 318.039 239.21C316.502 240.673 314.405 242.363 313.871 243.994C313.316 245.691 316.791 246.627 318.227 246.362C319.896 246.054 322.789 244.827 323.514 243.691C324.24 242.554 324.58 240.877 325.17 240.045C325.76 239.211 327.12 238.282 327.439 237.317C327.614 236.788 327.406 235.628 327.16 234.648C326.934 233.749 326.69 232.76 326.395 232.845C326.394 232.954 326.395 233.399 326.395 233.399C326.041 233.808 325.063 234.214 323.959 234.259C323.247 234.286 321.516 234.138 321.523 233.571Z" fill="#263238"/>
<path d="M304.576 225.517C304.323 225.527 304.117 225.899 303.559 226.53C302.884 227.292 301.781 228.113 300.692 228.682C298.867 229.636 295.319 231.102 293.714 231.857C292.711 232.329 292.757 233.593 293.794 234.313C294.831 235.032 297.334 235.551 300.341 234.849C301.978 234.466 304.11 232.888 305.459 232.973C306.809 233.059 309.334 233.039 310.329 232.322C311.325 231.606 310.927 230.076 310.645 228.761C310.338 227.326 309.954 225.089 309.498 225.187V225.681C308.912 226.607 305.889 226.984 304.602 226.302L304.576 225.517Z" fill="#263238"/>
<path d="M313.64 170.545C313.64 170.545 309.744 169.4 306.854 166.484C306.854 166.484 308.163 169.043 312.057 171.424L311.225 193.468L313.64 170.545Z" fill="#263238"/>
<path d="M324.353 124.932C324.353 124.932 328.36 125.861 328.089 133.14L327.246 144.735L327.269 162.135C323.686 166.203 307.798 165.906 302.358 161.809C302.358 161.809 302.975 141.217 303.342 133.293C303.603 127.66 304.897 124.824 310.423 124.203L317.219 124.503L324.353 124.932Z" fill="#66805D"/>
<path d="M319.232 109.8C319.232 113.981 315.984 117.371 311.977 117.371C307.97 117.371 305.598 113.888 304.722 109.8C303.118 102.323 307.97 102.229 311.977 102.229C315.984 102.229 319.232 105.618 319.232 109.8Z" fill="#263238"/>
<path d="M322.935 112.863C322.935 112.863 321.822 118.319 321.376 119.215C320.93 120.111 320.007 120.366 320.007 120.366L320.085 116.528L322.935 112.863Z" fill="#263238"/>
<path d="M321.538 105.048C321.538 105.048 322.336 104.848 323.184 106.175C323.911 107.312 324.076 109.867 322.935 112.864L320.839 113.115L321.538 105.048Z" fill="#263238"/>
<path d="M322.31 106.152L324.88 106.2C324.943 105.461 324.419 104.852 323.708 104.838C322.999 104.825 322.373 105.413 322.31 106.152Z" fill="#263238"/>
<path d="M322.624 105.541L324.528 103.706C324.058 103.161 323.251 103.129 322.725 103.636C322.199 104.141 322.154 104.995 322.624 105.541Z" fill="#263238"/>
<path d="M320.21 113.116C320.63 113.378 321.23 112.535 321.748 111.969C322.267 111.403 323.894 110.869 324.739 112.725C325.599 114.616 324.144 116.415 322.935 117.017C320.772 118.094 320.085 116.528 320.085 116.528L319.91 125.17C316.862 129.893 309.958 129.723 312.44 124.941L312.446 122.311C312.446 122.311 310.366 122.64 309.352 122.477C307.663 122.205 306.601 120.815 306.088 118.907C305.266 115.844 304.953 113.37 305.651 107.347C306.416 100.744 313.776 100.675 317.75 103.285C321.726 105.896 320.21 113.116 320.21 113.116Z" fill="#E5E5D4"/>
<path d="M311.035 106.315C312.794 106.139 314.532 105.781 316.293 105.651C316.675 105.623 317.065 105.606 317.434 105.706C318.784 106.072 318.61 107.644 318.824 108.742C319.193 110.633 319.5 113.839 320.21 113.854C320.421 113.858 321.225 112.466 321.748 111.969C322.087 111.647 322.144 110.953 322.218 110.524C322.352 109.74 322.424 108.945 322.484 108.153C322.535 107.482 322.602 106.8 322.599 106.127C322.596 105.371 322.61 104.603 322.423 103.865C322.253 103.195 321.941 102.694 321.483 102.172C321.439 102.122 321.394 102.072 321.349 102.023C320.482 101.086 319.376 100.384 318.202 99.8992C316.517 99.2032 314.691 98.9257 312.877 98.7396C311.064 98.5535 309.237 98.4527 307.451 98.0845C307.347 98.063 307.236 98.0415 307.136 98.0791C306.981 98.1389 306.913 98.3197 306.881 98.4829C306.724 99.312 307.096 100.219 307.791 100.697C306.576 100.793 305.181 100.159 304.011 99.8414C303.813 99.7877 303.589 99.7373 303.414 99.8434C303.294 99.9167 303.223 100.051 303.18 100.185C303.08 100.497 303.103 100.834 303.147 101.158C303.278 102.117 303.604 103.064 304.194 103.83C305.043 104.933 306.44 105.927 307.818 106.204C308.907 106.424 309.923 106.426 311.035 106.315Z" fill="#263238"/>
<path d="M312.446 122.312C312.446 122.312 316.215 121.52 317.533 120.789C318.415 120.3 319.141 119.452 319.354 118.908C319.354 118.908 319.107 120.075 318.319 121.126C317.356 122.411 312.446 123.358 312.446 123.358V122.312Z" fill="#66805D"/>
<path d="M313.352 112.134C313.352 112.586 313.69 112.951 314.107 112.95C314.524 112.949 314.862 112.582 314.862 112.129C314.862 111.677 314.524 111.312 314.107 111.313C313.69 111.314 313.352 111.681 313.352 112.134Z" fill="#263238"/>
<path d="M314.565 108.869L316.182 109.8C316.42 109.316 316.251 108.714 315.805 108.458C315.358 108.201 314.803 108.385 314.565 108.869Z" fill="#263238"/>
<path d="M312.788 117.576L311.063 118.251C311.234 118.767 311.758 119.034 312.234 118.847C312.711 118.661 312.959 118.092 312.788 117.576Z" fill="#66805D"/>
<path d="M306.423 109.563L307.897 108.379C307.596 107.939 307.023 107.847 306.616 108.174C306.209 108.501 306.123 109.123 306.423 109.563Z" fill="#263238"/>
<path d="M307.07 111.91C307.07 112.362 307.408 112.727 307.825 112.726C308.243 112.725 308.581 112.357 308.581 111.905C308.581 111.453 308.243 111.087 307.825 111.088C307.408 111.09 307.07 111.457 307.07 111.91Z" fill="#263238"/>
<path d="M311.112 111.275L311.025 116.055L308.317 115.433L311.112 111.275Z" fill="#66805D"/>
<path d="M246.779 151.28L250.98 148.85L252.645 146.83L248.444 149.26L246.779 151.28Z" fill="#66805D"/>
<path opacity="0.4" d="M246.779 151.28L250.98 148.85L252.645 146.83L248.444 149.26L246.779 151.28Z" fill="black"/>
<path d="M258.211 157.892L262.412 155.463L265.923 152.35L261.722 154.779L258.211 157.892Z" fill="#66805D"/>
<path opacity="0.4" d="M258.211 157.892L262.412 155.463L265.923 152.35L261.722 154.779L258.211 157.892Z" fill="black"/>
<path d="M293.929 166.288C294.85 167.462 295.522 169.187 295.666 170.868C294.745 169.694 294.073 167.97 293.929 166.288ZM303.695 166.415C302.282 156.773 297.111 147.234 290.948 143.67C287.99 141.957 285.253 141.895 283.061 143.18C282.42 143.553 280.041 144.927 279.103 145.466C279.028 145.508 278.952 145.549 278.883 145.597C278.71 145.694 278.538 145.804 278.372 145.922C278.055 146.143 277.752 146.391 277.462 146.675C277.421 146.709 277.379 146.757 277.332 146.799C277.208 146.923 277.084 147.062 276.966 147.199C276.821 147.365 276.676 147.538 276.546 147.717C276.27 148.084 276.008 148.477 275.774 148.905C275.656 149.112 275.539 149.333 275.429 149.562L240.882 129.58L236.684 132.004V134.684L237.042 134.891L237.373 135.085V135.651L236.684 136.051V137.612L241.757 148.373L246.776 151.281L248.445 149.257L252.871 151.91L255.414 156.275L258.213 157.891L261.723 154.777L266.031 157.27L267.479 163.251L274.698 167.424C275.063 168.957 275.525 170.456 276.063 171.92C276.111 172.072 276.166 172.224 276.229 172.39C278.628 178.71 282.447 184.118 286.749 186.611C287.301 186.929 287.838 187.192 288.369 187.392C288.673 187.516 288.976 187.613 289.272 187.695C289.541 187.771 289.81 187.834 290.079 187.875C290.968 188.033 291.83 188.027 292.637 187.868C292.754 187.841 292.872 187.813 292.988 187.785C293.154 187.751 293.319 187.703 293.478 187.64C293.602 187.592 293.726 187.544 293.85 187.495C293.981 187.447 294.112 187.384 294.236 187.316C294.36 187.261 294.478 187.198 294.595 187.129C294.657 187.095 294.719 187.06 294.774 187.026C294.802 187.019 294.829 186.998 294.857 186.977C295.816 186.425 298.18 185.057 298.821 184.691C302.013 182.84 304.081 178.15 304.081 171.519C304.081 169.834 303.95 168.122 303.695 166.415Z" fill="#66805D"/>
<path d="M292.698 174.421C291.04 173.462 289.697 170.613 289.697 168.056C289.697 165.5 291.04 164.204 292.698 165.163C294.355 166.122 295.699 168.971 295.699 171.528C295.698 174.084 294.355 175.379 292.698 174.421ZM299.497 168.839C298.084 159.204 292.913 149.665 286.749 146.101C283.895 144.451 281.255 144.326 279.104 145.466C279.028 145.507 278.952 145.548 278.883 145.597C278.711 145.694 278.538 145.804 278.373 145.921C278.056 146.142 277.752 146.391 277.463 146.675C277.421 146.709 277.38 146.757 277.332 146.799C277.208 146.923 277.084 147.061 276.966 147.199C276.822 147.365 276.677 147.538 276.546 147.717C276.27 148.083 276.008 148.477 275.774 148.905C275.657 149.112 275.539 149.333 275.429 149.561C274.857 150.736 274.402 152.103 274.099 153.65L236.685 132.004V134.684L237.043 134.891L237.374 135.084V135.651L236.685 136.051V137.612L241.758 148.373L246.777 151.281L248.446 149.257L252.872 151.91L255.415 156.275L258.214 157.891L261.724 154.776L266.032 157.27L267.48 163.251L274.699 167.423C275.064 168.957 275.526 170.455 276.064 171.92C276.112 172.072 276.167 172.224 276.229 172.39C278.629 178.71 282.448 184.118 286.75 186.611C287.302 186.929 287.839 187.191 288.37 187.392C288.674 187.516 288.977 187.613 289.273 187.695C289.542 187.771 289.811 187.834 290.08 187.875C290.969 188.033 291.831 188.026 292.638 187.868C292.755 187.84 292.873 187.813 292.989 187.785C293.155 187.751 293.32 187.703 293.479 187.64C293.603 187.592 293.727 187.543 293.851 187.495C293.982 187.447 294.113 187.384 294.237 187.316C294.361 187.261 294.479 187.198 294.596 187.129C294.658 187.095 294.72 187.06 294.775 187.025C294.803 187.019 294.83 186.998 294.858 186.977C297.919 185.043 299.884 180.422 299.884 173.95C299.883 172.265 299.745 170.552 299.497 168.839Z" fill="#66805D"/>
<path opacity="0.4" d="M295.698 171.526C295.698 174.082 294.353 175.381 292.699 174.421C291.037 173.461 289.693 170.615 289.693 168.06C289.693 165.505 291.038 164.206 292.699 165.166C293.14 165.421 293.561 165.808 293.926 166.292C294.071 167.97 294.746 169.697 295.664 170.871C295.691 171.091 295.698 171.312 295.698 171.526Z" fill="black"/>
<path opacity="0.4" d="M304.081 171.52C304.081 178.151 302.013 182.841 298.821 184.692C298.18 185.058 295.815 186.425 294.857 186.978C297.917 185.045 299.883 180.424 299.883 173.952C299.883 172.267 299.745 170.553 299.497 168.841C298.084 159.206 292.913 149.667 286.749 146.103C283.895 144.453 281.255 144.328 279.104 145.468C280.041 144.929 282.42 143.554 283.061 143.181C285.253 141.897 287.99 141.959 290.948 143.672C297.111 147.236 302.282 156.774 303.695 166.417C303.95 168.122 304.081 169.835 304.081 171.52Z" fill="white"/>
<path d="M299.883 173.95C299.883 180.422 297.918 185.043 294.856 186.976C295.815 186.424 298.179 185.056 298.82 184.69C302.012 182.839 304.081 178.149 304.081 171.518C304.081 171.274 304.072 171.027 304.067 170.781C302.624 171.616 301.165 172.459 299.867 173.21C299.873 173.457 299.883 173.704 299.883 173.95Z" fill="#66805D"/>
<path opacity="0.1" d="M299.883 173.95C299.883 180.422 297.918 185.043 294.856 186.976C295.815 186.424 298.179 185.056 298.82 184.69C302.012 182.839 304.081 178.149 304.081 171.518C304.081 171.274 304.072 171.027 304.067 170.781C302.624 171.616 301.165 172.459 299.867 173.21C299.873 173.457 299.883 173.704 299.883 173.95Z" fill="black"/>
<path opacity="0.15" d="M274.251 156.415V157.783L236.685 136.053L237.374 135.652V135.086L274.251 156.415Z" fill="black"/>
<path opacity="0.15" d="M274.251 156.982V157.783L236.685 136.054L237.374 135.653V135.646L274.251 156.982Z" fill="black"/>
<path opacity="0.15" d="M292.192 184.141C297.43 182.531 299.237 173.266 296.229 163.448C293.222 153.63 286.538 146.976 281.301 148.586C276.064 150.197 274.257 159.461 277.264 169.279C280.272 179.097 286.955 185.751 292.192 184.141Z" stroke="black" stroke-miterlimit="10"/>
<path opacity="0.4" d="M275.429 149.562C274.857 150.736 274.402 152.103 274.099 153.651L236.685 132.004L240.883 129.58L275.429 149.562Z" fill="white"/>
<path d="M324.028 151.667C325.99 147.95 328.226 139.606 329.34 135.394C330.922 129.413 328.362 125.649 325.455 125.498C323.633 125.776 317.648 147.595 317.648 147.595C316.985 148.126 307.876 152.75 304.95 153.913C304.431 154.119 303.854 154.11 303.329 153.919C301.924 153.405 300.967 153.502 299.591 153.364C298.514 153.256 297.969 152.872 297.833 153.103C297.659 153.4 297.578 154.141 298.362 154.693C298.756 154.972 299.407 155.22 300.238 155.514C300.238 155.514 298.682 156.055 296.607 156.009C293.793 155.946 292.781 157.171 294.963 160.028C296.33 161.818 298.529 162.382 303.48 160.667C304.906 160.172 306.839 159.212 308.637 158.557C312.356 157.204 313.311 157.057 316.166 156.094C320.286 154.704 323.157 153.317 324.028 151.667Z" fill="#E5E5D4"/>
<path d="M324.353 124.932C326.064 125.166 327.723 125.554 328.719 126.939C329.714 128.324 330.543 130.278 329.548 135.645C328.553 141.012 326.506 146.713 326.506 146.713C326.506 146.713 322.525 148.418 318.29 144.094L321.198 132.821C321.198 132.821 321.695 125.497 324.353 124.932Z" fill="#455A64"/>
<path d="M24.9429 358.2C23.6496 358.2 22.5296 357.92 21.5829 357.36C20.6496 356.787 19.9296 355.987 19.4229 354.96C18.9296 353.92 18.6829 352.7 18.6829 351.3C18.6829 349.9 18.9296 348.687 19.4229 347.66C19.9296 346.62 20.6496 345.82 21.5829 345.26C22.5296 344.687 23.6496 344.4 24.9429 344.4C26.1562 344.4 27.1896 344.613 28.0429 345.04C28.8962 345.467 29.5562 346.067 30.0229 346.84C30.4896 347.613 30.7229 348.54 30.7229 349.62V349.74H28.4429V349.62C28.4429 348.527 28.1629 347.733 27.6029 347.24C27.0562 346.733 26.1496 346.48 24.8829 346.48C23.9629 346.48 23.2162 346.64 22.6429 346.96C22.0696 347.28 21.6496 347.793 21.3829 348.5C21.1162 349.207 20.9829 350.14 20.9829 351.3C20.9829 352.447 21.1162 353.38 21.3829 354.1C21.6496 354.807 22.0696 355.32 22.6429 355.64C23.2162 355.947 23.9629 356.1 24.8829 356.1C26.1496 356.1 27.0562 355.853 27.6029 355.36C28.1629 354.867 28.4429 354.073 28.4429 352.98V352.86H30.7229V352.98C30.7229 354.047 30.4896 354.973 30.0229 355.76C29.5562 356.533 28.8962 357.133 28.0429 357.56C27.1896 357.987 26.1562 358.2 24.9429 358.2ZM34.6595 358H32.4995V348H34.4795V350.78L34.6595 350.88V358ZM34.6595 351.52H34.1595V349.58H34.5795C34.7795 349.113 35.1061 348.713 35.5595 348.38C36.0261 348.033 36.6261 347.86 37.3595 347.86C38.0661 347.86 38.6261 348.013 39.0395 348.32C39.4661 348.627 39.7728 349.033 39.9595 349.54C40.1461 350.047 40.2395 350.613 40.2395 351.24V351.9H38.0795V351.5C38.0795 350.833 37.9661 350.367 37.7395 350.1C37.5128 349.833 37.0861 349.7 36.4595 349.7C35.8061 349.7 35.3395 349.84 35.0595 350.12C34.7928 350.387 34.6595 350.853 34.6595 351.52ZM46.0405 358.2C44.9605 358.2 44.0605 357.987 43.3405 357.56C42.6205 357.12 42.0872 356.513 41.7405 355.74C41.3939 354.953 41.2205 354.047 41.2205 353.02C41.2205 351.993 41.4139 351.093 41.8005 350.32C42.2005 349.547 42.7605 348.947 43.4805 348.52C44.2005 348.08 45.0539 347.86 46.0405 347.86C46.9339 347.86 47.7205 348.033 48.4005 348.38C49.0939 348.713 49.6272 349.2 50.0005 349.84C50.3872 350.48 50.5805 351.253 50.5805 352.16C50.5805 352.427 50.5672 352.687 50.5405 352.94C50.5272 353.18 50.5072 353.38 50.4805 353.54H42.2405V352.1H48.7205L48.5005 352.3C48.5539 351.687 48.4872 351.187 48.3005 350.8C48.1272 350.413 47.8405 350.127 47.4405 349.94C47.0539 349.753 46.5672 349.66 45.9805 349.66C44.9272 349.66 44.2072 349.927 43.8205 350.46C43.4339 350.98 43.2405 351.7 43.2405 352.62V353.22C43.2405 353.887 43.3205 354.453 43.4805 354.92C43.6539 355.373 43.9472 355.713 44.3605 355.94C44.7739 356.167 45.3405 356.28 46.0605 356.28C46.9005 356.28 47.4939 356.147 47.8405 355.88C48.1872 355.613 48.3605 355.26 48.3605 354.82V354.66H50.5005V354.84C50.5005 355.52 50.3139 356.113 49.9405 356.62C49.5672 357.113 49.0472 357.5 48.3805 357.78C47.7272 358.06 46.9472 358.2 46.0405 358.2ZM60.8023 358H58.8023V356.04L58.7423 355.5V351.68C58.7423 350.933 58.5623 350.427 58.2023 350.16C57.8556 349.893 57.2889 349.76 56.5023 349.76C55.7156 349.76 55.1489 349.9 54.8023 350.18C54.4689 350.46 54.3023 350.927 54.3023 351.58V351.88H52.2223V351.68C52.2223 350.933 52.4023 350.273 52.7623 349.7C53.1356 349.127 53.6489 348.68 54.3023 348.36C54.9689 348.027 55.7423 347.86 56.6223 347.86C57.5556 347.86 58.3289 348.033 58.9423 348.38C59.5556 348.727 60.0156 349.207 60.3223 349.82C60.6423 350.42 60.8023 351.133 60.8023 351.96V358ZM55.1023 358.2C54.2089 358.2 53.4556 357.973 52.8423 357.52C52.2423 357.053 51.9423 356.393 51.9423 355.54C51.9423 354.98 52.0689 354.513 52.3223 354.14C52.5889 353.767 52.9689 353.46 53.4623 353.22C53.9556 352.98 54.5556 352.813 55.2623 352.72L58.9423 352.2V353.72L55.5823 354.22C55.0089 354.3 54.6089 354.42 54.3823 354.58C54.1556 354.74 54.0423 355.007 54.0423 355.38C54.0423 355.767 54.1756 356.047 54.4423 356.22C54.7223 356.393 55.1756 356.48 55.8023 356.48C56.2823 356.48 56.7423 356.407 57.1823 356.26C57.6356 356.1 58.0089 355.84 58.3023 355.48C58.5956 355.107 58.7423 354.587 58.7423 353.92L59.0223 356.46L58.7023 356.44C58.5156 356.747 58.2556 357.033 57.9223 357.3C57.6023 357.567 57.2089 357.787 56.7423 357.96C56.2756 358.12 55.7289 358.2 55.1023 358.2ZM66.9134 358C65.82 358 64.98 357.767 64.3934 357.3C63.82 356.833 63.5334 356.047 63.5334 354.94V348.28L64.0334 345.6H65.6934V354.84C65.6934 355.36 65.82 355.693 66.0734 355.84C66.34 355.973 66.8134 356.04 67.4934 356.04H68.6934V357.82C68.4934 357.873 68.2334 357.92 67.9134 357.96C67.5934 357.987 67.26 358 66.9134 358ZM68.6934 349.86H61.8734V348.06H68.6934V349.86ZM74.2241 358.2C73.1441 358.2 72.2441 357.987 71.5241 357.56C70.8041 357.12 70.2708 356.513 69.9241 355.74C69.5775 354.953 69.4041 354.047 69.4041 353.02C69.4041 351.993 69.5975 351.093 69.9841 350.32C70.3841 349.547 70.9441 348.947 71.6641 348.52C72.3841 348.08 73.2375 347.86 74.2241 347.86C75.1175 347.86 75.9041 348.033 76.5841 348.38C77.2775 348.713 77.8108 349.2 78.1841 349.84C78.5708 350.48 78.7641 351.253 78.7641 352.16C78.7641 352.427 78.7508 352.687 78.7241 352.94C78.7108 353.18 78.6908 353.38 78.6641 353.54H70.4241V352.1H76.9041L76.6841 352.3C76.7375 351.687 76.6708 351.187 76.4841 350.8C76.3108 350.413 76.0241 350.127 75.6241 349.94C75.2375 349.753 74.7508 349.66 74.1641 349.66C73.1108 349.66 72.3908 349.927 72.0041 350.46C71.6175 350.98 71.4241 351.7 71.4241 352.62V353.22C71.4241 353.887 71.5041 354.453 71.6641 354.92C71.8375 355.373 72.1308 355.713 72.5441 355.94C72.9575 356.167 73.5241 356.28 74.2441 356.28C75.0841 356.28 75.6775 356.147 76.0241 355.88C76.3708 355.613 76.5441 355.26 76.5441 354.82V354.66H78.6841V354.84C78.6841 355.52 78.4975 356.113 78.1241 356.62C77.7508 357.113 77.2308 357.5 76.5641 357.78C75.9108 358.06 75.1308 358.2 74.2241 358.2ZM92.7749 358H90.7749V356.04L90.7149 355.5V351.68C90.7149 350.933 90.5349 350.427 90.1749 350.16C89.8283 349.893 89.2616 349.76 88.4749 349.76C87.6883 349.76 87.1216 349.9 86.7749 350.18C86.4416 350.46 86.2749 350.927 86.2749 351.58V351.88H84.1949V351.68C84.1949 350.933 84.3749 350.273 84.7349 349.7C85.1083 349.127 85.6216 348.68 86.2749 348.36C86.9416 348.027 87.7149 347.86 88.5949 347.86C89.5283 347.86 90.3016 348.033 90.9149 348.38C91.5283 348.727 91.9883 349.207 92.2949 349.82C92.6149 350.42 92.7749 351.133 92.7749 351.96V358ZM87.0749 358.2C86.1816 358.2 85.4283 357.973 84.8149 357.52C84.2149 357.053 83.9149 356.393 83.9149 355.54C83.9149 354.98 84.0416 354.513 84.2949 354.14C84.5616 353.767 84.9416 353.46 85.4349 353.22C85.9283 352.98 86.5283 352.813 87.2349 352.72L90.9149 352.2V353.72L87.5549 354.22C86.9816 354.3 86.5816 354.42 86.3549 354.58C86.1283 354.74 86.0149 355.007 86.0149 355.38C86.0149 355.767 86.1483 356.047 86.4149 356.22C86.6949 356.393 87.1483 356.48 87.7749 356.48C88.2549 356.48 88.7149 356.407 89.1549 356.26C89.6083 356.1 89.9816 355.84 90.2749 355.48C90.5683 355.107 90.7149 354.587 90.7149 353.92L90.9949 356.46L90.6749 356.44C90.4883 356.747 90.2283 357.033 89.8949 357.3C89.5749 357.567 89.1816 357.787 88.7149 357.96C88.2483 358.12 87.7016 358.2 87.0749 358.2ZM102.793 358.2C101.339 358.2 100.239 357.913 99.4927 357.34C98.7461 356.753 98.3727 355.853 98.3727 354.64V354.6H100.453V354.96C100.453 355.307 100.519 355.593 100.653 355.82C100.799 356.033 101.039 356.193 101.373 356.3C101.719 356.393 102.206 356.44 102.833 356.44C103.366 356.44 103.766 356.4 104.033 356.32C104.313 356.227 104.499 356.1 104.593 355.94C104.686 355.78 104.733 355.58 104.733 355.34C104.733 354.94 104.593 354.66 104.313 354.5C104.033 354.327 103.533 354.173 102.813 354.04L101.253 353.78C100.666 353.66 100.153 353.493 99.7127 353.28C99.2861 353.053 98.9527 352.747 98.7127 352.36C98.4861 351.96 98.3727 351.46 98.3727 350.86C98.3727 349.967 98.7261 349.247 99.4327 348.7C100.139 348.14 101.139 347.86 102.433 347.86C103.219 347.86 103.919 347.987 104.533 348.24C105.146 348.493 105.633 348.873 105.993 349.38C106.353 349.887 106.533 350.52 106.533 351.28V351.46H104.473V351.22C104.473 350.9 104.419 350.627 104.313 350.4C104.206 350.16 104.006 349.973 103.713 349.84C103.419 349.707 102.973 349.64 102.373 349.64C101.586 349.64 101.066 349.74 100.813 349.94C100.559 350.14 100.433 350.433 100.433 350.82C100.433 351.207 100.546 351.48 100.773 351.64C101.013 351.787 101.479 351.933 102.173 352.08L103.873 352.4C104.513 352.52 105.046 352.7 105.473 352.94C105.899 353.18 106.219 353.493 106.433 353.88C106.659 354.267 106.773 354.727 106.773 355.26C106.773 356.193 106.419 356.92 105.713 357.44C105.019 357.947 104.046 358.2 102.793 358.2ZM112.558 358C111.465 358 110.625 357.767 110.038 357.3C109.465 356.833 109.178 356.047 109.178 354.94V348.28L109.678 345.6H111.338V354.84C111.338 355.36 111.465 355.693 111.718 355.84C111.985 355.973 112.458 356.04 113.138 356.04H114.338V357.82C114.138 357.873 113.878 357.92 113.558 357.96C113.238 357.987 112.905 358 112.558 358ZM114.338 349.86H107.518V348.06H114.338V349.86ZM117.98 358H115.82V348H117.8V350.78L117.98 350.88V358ZM117.98 351.52H117.48V349.58H117.9C118.1 349.113 118.426 348.713 118.88 348.38C119.346 348.033 119.946 347.86 120.68 347.86C121.386 347.86 121.946 348.013 122.36 348.32C122.786 348.627 123.093 349.033 123.28 349.54C123.466 350.047 123.56 350.613 123.56 351.24V351.9H121.4V351.5C121.4 350.833 121.286 350.367 121.06 350.1C120.833 349.833 120.406 349.7 119.78 349.7C119.126 349.7 118.66 349.84 118.38 350.12C118.113 350.387 117.98 350.853 117.98 351.52ZM129.501 358.2C128.488 358.2 127.608 357.987 126.861 357.56C126.114 357.12 125.541 356.513 125.141 355.74C124.741 354.953 124.541 354.047 124.541 353.02C124.541 351.993 124.741 351.093 125.141 350.32C125.541 349.547 126.114 348.947 126.861 348.52C127.608 348.08 128.488 347.86 129.501 347.86C130.514 347.86 131.381 348.08 132.101 348.52C132.834 348.947 133.394 349.547 133.781 350.32C134.181 351.093 134.381 351.993 134.381 353.02C134.381 354.047 134.181 354.953 133.781 355.74C133.394 356.513 132.834 357.12 132.101 357.56C131.381 357.987 130.514 358.2 129.501 358.2ZM129.501 356.28C130.541 356.28 131.268 356.02 131.681 355.5C132.094 354.967 132.301 354.14 132.301 353.02C132.301 351.9 132.094 351.08 131.681 350.56C131.268 350.04 130.541 349.78 129.501 349.78C128.448 349.78 127.714 350.04 127.301 350.56C126.888 351.08 126.681 351.9 126.681 353.02C126.681 354.14 126.888 354.967 127.301 355.5C127.714 356.02 128.448 356.28 129.501 356.28ZM145.256 358H143.096V352.22C143.096 351.34 142.929 350.707 142.596 350.32C142.262 349.92 141.636 349.72 140.716 349.72C140.129 349.72 139.649 349.807 139.276 349.98C138.902 350.14 138.622 350.407 138.436 350.78C138.249 351.14 138.156 351.633 138.156 352.26H137.776L137.596 349.92H138.076C138.222 349.56 138.442 349.227 138.736 348.92C139.029 348.613 139.402 348.36 139.856 348.16C140.322 347.96 140.876 347.86 141.516 347.86C142.382 347.86 143.089 348.027 143.636 348.36C144.182 348.693 144.589 349.153 144.856 349.74C145.122 350.327 145.256 351 145.256 351.76V358ZM138.156 358H135.996V348.06H137.976V351.04L138.156 351.14V358ZM151.985 361.6C151.051 361.6 150.238 361.453 149.545 361.16C148.865 360.867 148.338 360.44 147.965 359.88C147.591 359.333 147.405 358.66 147.405 357.86H149.565C149.565 358.313 149.631 358.673 149.765 358.94C149.898 359.207 150.145 359.393 150.505 359.5C150.865 359.62 151.378 359.68 152.045 359.68C152.698 359.68 153.198 359.607 153.545 359.46C153.891 359.313 154.131 359.067 154.265 358.72C154.398 358.373 154.465 357.893 154.465 357.28V350.68L154.625 350.42V348.06H156.625V357.28C156.625 358.253 156.438 359.053 156.065 359.68C155.691 360.32 155.158 360.8 154.465 361.12C153.785 361.44 152.958 361.6 151.985 361.6ZM151.145 357.06C149.771 357.06 148.718 356.647 147.985 355.82C147.251 354.98 146.885 353.86 146.885 352.46C146.885 351.06 147.258 349.947 148.005 349.12C148.751 348.28 149.825 347.86 151.225 347.86C152.038 347.86 152.738 348.027 153.325 348.36C153.911 348.68 154.318 349.127 154.545 349.7H154.945L154.845 352.14H154.465C154.465 351.58 154.351 351.12 154.125 350.76C153.898 350.4 153.578 350.133 153.165 349.96C152.751 349.787 152.271 349.7 151.725 349.7C151.098 349.7 150.585 349.787 150.185 349.96C149.798 350.133 149.511 350.427 149.325 350.84C149.138 351.24 149.045 351.78 149.045 352.46C149.045 352.967 149.098 353.4 149.205 353.76C149.311 354.107 149.478 354.387 149.705 354.6C149.931 354.813 150.218 354.973 150.565 355.08C150.911 355.173 151.311 355.22 151.765 355.22C152.311 355.22 152.785 355.133 153.185 354.96C153.585 354.773 153.898 354.5 154.125 354.14C154.351 353.78 154.465 353.32 154.465 352.76H154.905V355.3H154.385C154.158 355.78 153.765 356.193 153.205 356.54C152.645 356.887 151.958 357.06 151.145 357.06ZM167.959 358.2C167.066 358.2 166.339 358.027 165.779 357.68C165.232 357.32 164.852 356.913 164.639 356.46H164.099L164.199 353.92H164.579C164.579 354.467 164.679 354.92 164.879 355.28C165.092 355.64 165.406 355.913 165.819 356.1C166.232 356.273 166.726 356.36 167.299 356.36C167.766 356.36 168.172 356.3 168.519 356.18C168.866 356.06 169.146 355.873 169.359 355.62C169.586 355.367 169.746 355.027 169.839 354.6C169.946 354.16 169.999 353.633 169.999 353.02C169.999 352.407 169.946 351.893 169.839 351.48C169.746 351.053 169.586 350.707 169.359 350.44C169.146 350.173 168.866 349.987 168.519 349.88C168.186 349.76 167.779 349.7 167.299 349.7C166.726 349.7 166.232 349.793 165.819 349.98C165.406 350.153 165.092 350.42 164.879 350.78C164.679 351.127 164.579 351.58 164.579 352.14H164.199L164.099 349.7H164.499C164.739 349.127 165.132 348.68 165.679 348.36C166.239 348.027 166.952 347.86 167.819 347.86C169.219 347.86 170.292 348.327 171.039 349.26C171.786 350.193 172.159 351.447 172.159 353.02C172.159 354.593 171.799 355.853 171.079 356.8C170.359 357.733 169.319 358.2 167.959 358.2ZM164.579 361.46H162.439V348.06H164.399V350.42L164.579 350.68V361.46ZM182.384 358H180.384V356.04L180.324 355.5V351.68C180.324 350.933 180.144 350.427 179.784 350.16C179.438 349.893 178.871 349.76 178.084 349.76C177.298 349.76 176.731 349.9 176.384 350.18C176.051 350.46 175.884 350.927 175.884 351.58V351.88H173.804V351.68C173.804 350.933 173.984 350.273 174.344 349.7C174.718 349.127 175.231 348.68 175.884 348.36C176.551 348.027 177.324 347.86 178.204 347.86C179.138 347.86 179.911 348.033 180.524 348.38C181.138 348.727 181.598 349.207 181.904 349.82C182.224 350.42 182.384 351.133 182.384 351.96V358ZM176.684 358.2C175.791 358.2 175.038 357.973 174.424 357.52C173.824 357.053 173.524 356.393 173.524 355.54C173.524 354.98 173.651 354.513 173.904 354.14C174.171 353.767 174.551 353.46 175.044 353.22C175.538 352.98 176.138 352.813 176.844 352.72L180.524 352.2V353.72L177.164 354.22C176.591 354.3 176.191 354.42 175.964 354.58C175.738 354.74 175.624 355.007 175.624 355.38C175.624 355.767 175.758 356.047 176.024 356.22C176.304 356.393 176.758 356.48 177.384 356.48C177.864 356.48 178.324 356.407 178.764 356.26C179.218 356.1 179.591 355.84 179.884 355.48C180.178 355.107 180.324 354.587 180.324 353.92L180.604 356.46L180.284 356.44C180.098 356.747 179.838 357.033 179.504 357.3C179.184 357.567 178.791 357.787 178.324 357.96C177.858 358.12 177.311 358.2 176.684 358.2ZM188.574 358.2C187.121 358.2 186.021 357.913 185.274 357.34C184.527 356.753 184.154 355.853 184.154 354.64V354.6H186.234V354.96C186.234 355.307 186.301 355.593 186.434 355.82C186.581 356.033 186.821 356.193 187.154 356.3C187.501 356.393 187.987 356.44 188.614 356.44C189.147 356.44 189.547 356.4 189.814 356.32C190.094 356.227 190.281 356.1 190.374 355.94C190.467 355.78 190.514 355.58 190.514 355.34C190.514 354.94 190.374 354.66 190.094 354.5C189.814 354.327 189.314 354.173 188.594 354.04L187.034 353.78C186.447 353.66 185.934 353.493 185.494 353.28C185.067 353.053 184.734 352.747 184.494 352.36C184.267 351.96 184.154 351.46 184.154 350.86C184.154 349.967 184.507 349.247 185.214 348.7C185.921 348.14 186.921 347.86 188.214 347.86C189.001 347.86 189.701 347.987 190.314 348.24C190.927 348.493 191.414 348.873 191.774 349.38C192.134 349.887 192.314 350.52 192.314 351.28V351.46H190.254V351.22C190.254 350.9 190.201 350.627 190.094 350.4C189.987 350.16 189.787 349.973 189.494 349.84C189.201 349.707 188.754 349.64 188.154 349.64C187.367 349.64 186.847 349.74 186.594 349.94C186.341 350.14 186.214 350.433 186.214 350.82C186.214 351.207 186.327 351.48 186.554 351.64C186.794 351.787 187.261 351.933 187.954 352.08L189.654 352.4C190.294 352.52 190.827 352.7 191.254 352.94C191.681 353.18 192.001 353.493 192.214 353.88C192.441 354.267 192.554 354.727 192.554 355.26C192.554 356.193 192.201 356.92 191.494 357.44C190.801 357.947 189.827 358.2 188.574 358.2ZM198.418 358.2C196.964 358.2 195.864 357.913 195.118 357.34C194.371 356.753 193.998 355.853 193.998 354.64V354.6H196.078V354.96C196.078 355.307 196.144 355.593 196.278 355.82C196.424 356.033 196.664 356.193 196.998 356.3C197.344 356.393 197.831 356.44 198.458 356.44C198.991 356.44 199.391 356.4 199.658 356.32C199.938 356.227 200.124 356.1 200.218 355.94C200.311 355.78 200.358 355.58 200.358 355.34C200.358 354.94 200.218 354.66 199.938 354.5C199.658 354.327 199.158 354.173 198.438 354.04L196.878 353.78C196.291 353.66 195.778 353.493 195.338 353.28C194.911 353.053 194.578 352.747 194.338 352.36C194.111 351.96 193.998 351.46 193.998 350.86C193.998 349.967 194.351 349.247 195.058 348.7C195.764 348.14 196.764 347.86 198.058 347.86C198.844 347.86 199.544 347.987 200.158 348.24C200.771 348.493 201.258 348.873 201.618 349.38C201.978 349.887 202.158 350.52 202.158 351.28V351.46H200.098V351.22C200.098 350.9 200.044 350.627 199.938 350.4C199.831 350.16 199.631 349.973 199.338 349.84C199.044 349.707 198.598 349.64 197.998 349.64C197.211 349.64 196.691 349.74 196.438 349.94C196.184 350.14 196.058 350.433 196.058 350.82C196.058 351.207 196.171 351.48 196.398 351.64C196.638 351.787 197.104 351.933 197.798 352.08L199.498 352.4C200.138 352.52 200.671 352.7 201.098 352.94C201.524 353.18 201.844 353.493 202.058 353.88C202.284 354.267 202.398 354.727 202.398 355.26C202.398 356.193 202.044 356.92 201.338 357.44C200.644 357.947 199.671 358.2 198.418 358.2ZM208.326 358H205.506L203.046 348.06H205.386L206.526 353.58L206.946 356.2H207.106L207.746 353.58L209.486 348.06H212.286L214.046 353.6L214.686 356.18H214.826L215.246 353.6L216.386 348.06H218.646L216.186 358H213.366L211.586 352.46L210.926 349.96H210.786L210.126 352.46L208.326 358ZM223.934 358.2C222.921 358.2 222.041 357.987 221.294 357.56C220.548 357.12 219.974 356.513 219.574 355.74C219.174 354.953 218.974 354.047 218.974 353.02C218.974 351.993 219.174 351.093 219.574 350.32C219.974 349.547 220.548 348.947 221.294 348.52C222.041 348.08 222.921 347.86 223.934 347.86C224.948 347.86 225.814 348.08 226.534 348.52C227.268 348.947 227.828 349.547 228.214 350.32C228.614 351.093 228.814 351.993 228.814 353.02C228.814 354.047 228.614 354.953 228.214 355.74C227.828 356.513 227.268 357.12 226.534 357.56C225.814 357.987 224.948 358.2 223.934 358.2ZM223.934 356.28C224.974 356.28 225.701 356.02 226.114 355.5C226.528 354.967 226.734 354.14 226.734 353.02C226.734 351.9 226.528 351.08 226.114 350.56C225.701 350.04 224.974 349.78 223.934 349.78C222.881 349.78 222.148 350.04 221.734 350.56C221.321 351.08 221.114 351.9 221.114 353.02C221.114 354.14 221.321 354.967 221.734 355.5C222.148 356.02 222.881 356.28 223.934 356.28ZM232.589 358H230.429V348H232.409V350.78L232.589 350.88V358ZM232.589 351.52H232.089V349.58H232.509C232.709 349.113 233.036 348.713 233.489 348.38C233.956 348.033 234.556 347.86 235.289 347.86C235.996 347.86 236.556 348.013 236.969 348.32C237.396 348.627 237.702 349.033 237.889 349.54C238.076 350.047 238.169 350.613 238.169 351.24V351.9H236.009V351.5C236.009 350.833 235.896 350.367 235.669 350.1C235.442 349.833 235.016 349.7 234.389 349.7C233.736 349.7 233.269 349.84 232.989 350.12C232.722 350.387 232.589 350.853 232.589 351.52ZM243.53 358.2C242.117 358.2 241.03 357.733 240.27 356.8C239.524 355.853 239.15 354.593 239.15 353.02C239.15 351.447 239.517 350.193 240.25 349.26C240.997 348.327 242.05 347.86 243.41 347.86C244.29 347.86 244.997 348.04 245.53 348.4C246.077 348.747 246.457 349.147 246.67 349.6H247.21L247.11 352.14H246.73C246.73 351.58 246.624 351.12 246.41 350.76C246.197 350.4 245.89 350.133 245.49 349.96C245.09 349.787 244.597 349.7 244.01 349.7C243.53 349.7 243.117 349.76 242.77 349.88C242.437 350 242.157 350.187 241.93 350.44C241.717 350.693 241.557 351.033 241.45 351.46C241.357 351.887 241.31 352.407 241.31 353.02C241.31 353.62 241.357 354.14 241.45 354.58C241.557 355.007 241.717 355.353 241.93 355.62C242.157 355.873 242.444 356.06 242.79 356.18C243.137 356.3 243.544 356.36 244.01 356.36C244.597 356.36 245.09 356.273 245.49 356.1C245.89 355.913 246.197 355.64 246.41 355.28C246.624 354.92 246.73 354.467 246.73 353.92H247.11L247.21 356.36H246.81C246.584 356.933 246.19 357.387 245.63 357.72C245.084 358.04 244.384 358.2 243.53 358.2ZM248.89 358H246.89V355.64L246.73 355.38V344.6H248.89V358ZM258.945 358C257.851 358 257.011 357.767 256.425 357.3C255.851 356.833 255.565 356.047 255.565 354.94V348.28L256.065 345.6H257.725V354.84C257.725 355.36 257.851 355.693 258.105 355.84C258.371 355.973 258.845 356.04 259.525 356.04H260.725V357.82C260.525 357.873 260.265 357.92 259.945 357.96C259.625 357.987 259.291 358 258.945 358ZM260.725 349.86H253.905V348.06H260.725V349.86ZM266.395 358.2C265.382 358.2 264.502 357.987 263.755 357.56C263.009 357.12 262.435 356.513 262.035 355.74C261.635 354.953 261.435 354.047 261.435 353.02C261.435 351.993 261.635 351.093 262.035 350.32C262.435 349.547 263.009 348.947 263.755 348.52C264.502 348.08 265.382 347.86 266.395 347.86C267.409 347.86 268.275 348.08 268.995 348.52C269.729 348.947 270.289 349.547 270.675 350.32C271.075 351.093 271.275 351.993 271.275 353.02C271.275 354.047 271.075 354.953 270.675 355.74C270.289 356.513 269.729 357.12 268.995 357.56C268.275 357.987 267.409 358.2 266.395 358.2ZM266.395 356.28C267.435 356.28 268.162 356.02 268.575 355.5C268.989 354.967 269.195 354.14 269.195 353.02C269.195 351.9 268.989 351.08 268.575 350.56C268.162 350.04 267.435 349.78 266.395 349.78C265.342 349.78 264.609 350.04 264.195 350.56C263.782 351.08 263.575 351.9 263.575 353.02C263.575 354.14 263.782 354.967 264.195 355.5C264.609 356.02 265.342 356.28 266.395 356.28ZM280.937 358.2C279.484 358.2 278.384 357.913 277.637 357.34C276.891 356.753 276.517 355.853 276.517 354.64V354.6H278.597V354.96C278.597 355.307 278.664 355.593 278.797 355.82C278.944 356.033 279.184 356.193 279.517 356.3C279.864 356.393 280.351 356.44 280.977 356.44C281.511 356.44 281.911 356.4 282.177 356.32C282.457 356.227 282.644 356.1 282.737 355.94C282.831 355.78 282.877 355.58 282.877 355.34C282.877 354.94 282.737 354.66 282.457 354.5C282.177 354.327 281.677 354.173 280.957 354.04L279.397 353.78C278.811 353.66 278.297 353.493 277.857 353.28C277.431 353.053 277.097 352.747 276.857 352.36C276.631 351.96 276.517 351.46 276.517 350.86C276.517 349.967 276.871 349.247 277.577 348.7C278.284 348.14 279.284 347.86 280.577 347.86C281.364 347.86 282.064 347.987 282.677 348.24C283.291 348.493 283.777 348.873 284.137 349.38C284.497 349.887 284.677 350.52 284.677 351.28V351.46H282.617V351.22C282.617 350.9 282.564 350.627 282.457 350.4C282.351 350.16 282.151 349.973 281.857 349.84C281.564 349.707 281.117 349.64 280.517 349.64C279.731 349.64 279.211 349.74 278.957 349.94C278.704 350.14 278.577 350.433 278.577 350.82C278.577 351.207 278.691 351.48 278.917 351.64C279.157 351.787 279.624 351.933 280.317 352.08L282.017 352.4C282.657 352.52 283.191 352.7 283.617 352.94C284.044 353.18 284.364 353.493 284.577 353.88C284.804 354.267 284.917 354.727 284.917 355.26C284.917 356.193 284.564 356.92 283.857 357.44C283.164 357.947 282.191 358.2 280.937 358.2ZM291.08 358.2C290 358.2 289.1 357.987 288.38 357.56C287.66 357.12 287.126 356.513 286.78 355.74C286.433 354.953 286.26 354.047 286.26 353.02C286.26 351.993 286.453 351.093 286.84 350.32C287.24 349.547 287.8 348.947 288.52 348.52C289.24 348.08 290.093 347.86 291.08 347.86C291.973 347.86 292.76 348.033 293.44 348.38C294.133 348.713 294.666 349.2 295.04 349.84C295.426 350.48 295.62 351.253 295.62 352.16C295.62 352.427 295.606 352.687 295.58 352.94C295.566 353.18 295.546 353.38 295.52 353.54H287.28V352.1H293.76L293.54 352.3C293.593 351.687 293.526 351.187 293.34 350.8C293.166 350.413 292.88 350.127 292.48 349.94C292.093 349.753 291.606 349.66 291.02 349.66C289.966 349.66 289.246 349.927 288.86 350.46C288.473 350.98 288.28 351.7 288.28 352.62V353.22C288.28 353.887 288.36 354.453 288.52 354.92C288.693 355.373 288.986 355.713 289.4 355.94C289.813 356.167 290.38 356.28 291.1 356.28C291.94 356.28 292.533 356.147 292.88 355.88C293.226 355.613 293.4 355.26 293.4 354.82V354.66H295.54V354.84C295.54 355.52 295.353 356.113 294.98 356.62C294.606 357.113 294.086 357.5 293.42 357.78C292.766 358.06 291.986 358.2 291.08 358.2ZM301.901 358.22C300.861 358.22 299.981 358 299.261 357.56C298.541 357.12 297.988 356.513 297.601 355.74C297.228 354.967 297.041 354.067 297.041 353.04C297.041 352.013 297.234 351.113 297.621 350.34C298.021 349.553 298.588 348.947 299.321 348.52C300.054 348.08 300.941 347.86 301.981 347.86C302.861 347.86 303.634 348.027 304.301 348.36C304.968 348.693 305.481 349.16 305.841 349.76C306.214 350.36 306.401 351.06 306.401 351.86V352.04H304.261V351.92C304.261 351.187 304.061 350.653 303.661 350.32C303.274 349.973 302.668 349.8 301.841 349.8C300.881 349.8 300.194 350.073 299.781 350.62C299.381 351.153 299.181 351.953 299.181 353.02C299.181 354.1 299.381 354.913 299.781 355.46C300.194 355.993 300.881 356.26 301.841 356.26C302.668 356.26 303.274 356.093 303.661 355.76C304.061 355.413 304.261 354.88 304.261 354.16V354.04H306.401V354.22C306.401 354.993 306.214 355.687 305.841 356.3C305.468 356.9 304.941 357.373 304.261 357.72C303.594 358.053 302.808 358.22 301.901 358.22ZM311.727 358.2C310.873 358.2 310.167 358.027 309.607 357.68C309.047 357.32 308.633 356.84 308.367 356.24C308.1 355.627 307.967 354.947 307.967 354.2V348.06H310.127V353.8C310.127 354.693 310.313 355.34 310.687 355.74C311.06 356.14 311.673 356.34 312.527 356.34C313.087 356.34 313.56 356.253 313.947 356.08C314.333 355.893 314.627 355.607 314.827 355.22C315.027 354.82 315.127 354.3 315.127 353.66H315.687V356.02H315.207C315.06 356.393 314.833 356.747 314.527 357.08C314.233 357.413 313.853 357.687 313.387 357.9C312.933 358.1 312.38 358.2 311.727 358.2ZM317.287 358H315.287V355.02L315.127 354.92V348.06H317.287V358ZM321.574 358H319.414V348H321.394V350.78L321.574 350.88V358ZM321.574 351.52H321.074V349.58H321.494C321.694 349.113 322.02 348.713 322.474 348.38C322.94 348.033 323.54 347.86 324.274 347.86C324.98 347.86 325.54 348.013 325.954 348.32C326.38 348.627 326.687 349.033 326.874 349.54C327.06 350.047 327.154 350.613 327.154 351.24V351.9H324.994V351.5C324.994 350.833 324.88 350.367 324.654 350.1C324.427 349.833 324 349.7 323.374 349.7C322.72 349.7 322.254 349.84 321.974 350.12C321.707 350.387 321.574 350.853 321.574 351.52ZM332.955 358.2C331.875 358.2 330.975 357.987 330.255 357.56C329.535 357.12 329.001 356.513 328.655 355.74C328.308 354.953 328.135 354.047 328.135 353.02C328.135 351.993 328.328 351.093 328.715 350.32C329.115 349.547 329.675 348.947 330.395 348.52C331.115 348.08 331.968 347.86 332.955 347.86C333.848 347.86 334.635 348.033 335.315 348.38C336.008 348.713 336.541 349.2 336.915 349.84C337.301 350.48 337.495 351.253 337.495 352.16C337.495 352.427 337.481 352.687 337.455 352.94C337.441 353.18 337.421 353.38 337.395 353.54H329.155V352.1H335.635L335.415 352.3C335.468 351.687 335.401 351.187 335.215 350.8C335.041 350.413 334.755 350.127 334.355 349.94C333.968 349.753 333.481 349.66 332.895 349.66C331.841 349.66 331.121 349.927 330.735 350.46C330.348 350.98 330.155 351.7 330.155 352.62V353.22C330.155 353.887 330.235 354.453 330.395 354.92C330.568 355.373 330.861 355.713 331.275 355.94C331.688 356.167 332.255 356.28 332.975 356.28C333.815 356.28 334.408 356.147 334.755 355.88C335.101 355.613 335.275 355.26 335.275 354.82V354.66H337.415V354.84C337.415 355.52 337.228 356.113 336.855 356.62C336.481 357.113 335.961 357.5 335.295 357.78C334.641 358.06 333.861 358.2 332.955 358.2ZM344.785 361.4C344.519 361.4 344.245 361.38 343.965 361.34C343.685 361.313 343.459 361.273 343.285 361.22V359.46H344.665C345.079 359.46 345.385 359.4 345.585 359.28C345.785 359.173 345.972 358.94 346.145 358.58L346.765 357.18L346.585 357.88L342.285 348.06H344.665L346.665 352.88L347.565 355.04H347.745L348.545 352.88L350.365 348.06H352.765L348.045 359.16C347.805 359.76 347.532 360.22 347.225 360.54C346.919 360.86 346.565 361.08 346.165 361.2C345.779 361.333 345.319 361.4 344.785 361.4ZM357.958 358.2C356.945 358.2 356.065 357.987 355.318 357.56C354.571 357.12 353.998 356.513 353.598 355.74C353.198 354.953 352.998 354.047 352.998 353.02C352.998 351.993 353.198 351.093 353.598 350.32C353.998 349.547 354.571 348.947 355.318 348.52C356.065 348.08 356.945 347.86 357.958 347.86C358.971 347.86 359.838 348.08 360.558 348.52C361.291 348.947 361.851 349.547 362.238 350.32C362.638 351.093 362.838 351.993 362.838 353.02C362.838 354.047 362.638 354.953 362.238 355.74C361.851 356.513 361.291 357.12 360.558 357.56C359.838 357.987 358.971 358.2 357.958 358.2ZM357.958 356.28C358.998 356.28 359.725 356.02 360.138 355.5C360.551 354.967 360.758 354.14 360.758 353.02C360.758 351.9 360.551 351.08 360.138 350.56C359.725 350.04 358.998 349.78 357.958 349.78C356.905 349.78 356.171 350.04 355.758 350.56C355.345 351.08 355.138 351.9 355.138 353.02C355.138 354.14 355.345 354.967 355.758 355.5C356.171 356.02 356.905 356.28 357.958 356.28ZM368.153 358.2C367.299 358.2 366.593 358.027 366.033 357.68C365.473 357.32 365.059 356.84 364.793 356.24C364.526 355.627 364.393 354.947 364.393 354.2V348.06H366.553V353.8C366.553 354.693 366.739 355.34 367.113 355.74C367.486 356.14 368.099 356.34 368.953 356.34C369.513 356.34 369.986 356.253 370.373 356.08C370.759 355.893 371.053 355.607 371.253 355.22C371.453 354.82 371.553 354.3 371.553 353.66H372.113V356.02H371.633C371.486 356.393 371.259 356.747 370.953 357.08C370.659 357.413 370.279 357.687 369.813 357.9C369.359 358.1 368.806 358.2 368.153 358.2ZM373.713 358H371.713V355.02L371.553 354.92V348.06H373.713V358ZM377.999 358H375.839V348H377.819V350.78L377.999 350.88V358ZM377.999 351.52H377.499V349.58H377.919C378.119 349.113 378.446 348.713 378.899 348.38C379.366 348.033 379.966 347.86 380.699 347.86C381.406 347.86 381.966 348.013 382.379 348.32C382.806 348.627 383.113 349.033 383.299 349.54C383.486 350.047 383.579 350.613 383.579 351.24V351.9H381.419V351.5C381.419 350.833 381.306 350.367 381.079 350.1C380.853 349.833 380.426 349.7 379.799 349.7C379.146 349.7 378.679 349.84 378.399 350.12C378.133 350.387 377.999 350.853 377.999 351.52ZM171.71 383H169.71V381.04L169.65 380.5V376.68C169.65 375.933 169.47 375.427 169.11 375.16C168.764 374.893 168.197 374.76 167.41 374.76C166.624 374.76 166.057 374.9 165.71 375.18C165.377 375.46 165.21 375.927 165.21 376.58V376.88H163.13V376.68C163.13 375.933 163.31 375.273 163.67 374.7C164.044 374.127 164.557 373.68 165.21 373.36C165.877 373.027 166.65 372.86 167.53 372.86C168.464 372.86 169.237 373.033 169.85 373.38C170.464 373.727 170.924 374.207 171.23 374.82C171.55 375.42 171.71 376.133 171.71 376.96V383ZM166.01 383.2C165.117 383.2 164.364 382.973 163.75 382.52C163.15 382.053 162.85 381.393 162.85 380.54C162.85 379.98 162.977 379.513 163.23 379.14C163.497 378.767 163.877 378.46 164.37 378.22C164.864 377.98 165.464 377.813 166.17 377.72L169.85 377.2V378.72L166.49 379.22C165.917 379.3 165.517 379.42 165.29 379.58C165.064 379.74 164.95 380.007 164.95 380.38C164.95 380.767 165.084 381.047 165.35 381.22C165.63 381.393 166.084 381.48 166.71 381.48C167.19 381.48 167.65 381.407 168.09 381.26C168.544 381.1 168.917 380.84 169.21 380.48C169.504 380.107 169.65 379.587 169.65 378.92L169.93 381.46L169.61 381.44C169.424 381.747 169.164 382.033 168.83 382.3C168.51 382.567 168.117 382.787 167.65 382.96C167.184 383.12 166.637 383.2 166.01 383.2ZM178.2 383.22C177.16 383.22 176.28 383 175.56 382.56C174.84 382.12 174.286 381.513 173.9 380.74C173.526 379.967 173.34 379.067 173.34 378.04C173.34 377.013 173.533 376.113 173.92 375.34C174.32 374.553 174.886 373.947 175.62 373.52C176.353 373.08 177.24 372.86 178.28 372.86C179.16 372.86 179.933 373.027 180.6 373.36C181.266 373.693 181.78 374.16 182.14 374.76C182.513 375.36 182.7 376.06 182.7 376.86V377.04H180.56V376.92C180.56 376.187 180.36 375.653 179.96 375.32C179.573 374.973 178.966 374.8 178.14 374.8C177.18 374.8 176.493 375.073 176.08 375.62C175.68 376.153 175.48 376.953 175.48 378.02C175.48 379.1 175.68 379.913 176.08 380.46C176.493 380.993 177.18 381.26 178.14 381.26C178.966 381.26 179.573 381.093 179.96 380.76C180.36 380.413 180.56 379.88 180.56 379.16V379.04H182.7V379.22C182.7 379.993 182.513 380.687 182.14 381.3C181.766 381.9 181.24 382.373 180.56 382.72C179.893 383.053 179.106 383.22 178.2 383.22ZM188.883 383.22C187.843 383.22 186.963 383 186.243 382.56C185.523 382.12 184.97 381.513 184.583 380.74C184.21 379.967 184.023 379.067 184.023 378.04C184.023 377.013 184.217 376.113 184.603 375.34C185.003 374.553 185.57 373.947 186.303 373.52C187.037 373.08 187.923 372.86 188.963 372.86C189.843 372.86 190.617 373.027 191.283 373.36C191.95 373.693 192.463 374.16 192.823 374.76C193.197 375.36 193.383 376.06 193.383 376.86V377.04H191.243V376.92C191.243 376.187 191.043 375.653 190.643 375.32C190.257 374.973 189.65 374.8 188.823 374.8C187.863 374.8 187.177 375.073 186.763 375.62C186.363 376.153 186.163 376.953 186.163 378.02C186.163 379.1 186.363 379.913 186.763 380.46C187.177 380.993 187.863 381.26 188.823 381.26C189.65 381.26 190.257 381.093 190.643 380.76C191.043 380.413 191.243 379.88 191.243 379.16V379.04H193.383V379.22C193.383 379.993 193.197 380.687 192.823 381.3C192.45 381.9 191.923 382.373 191.243 382.72C190.577 383.053 189.79 383.22 188.883 383.22ZM199.667 383.2C198.654 383.2 197.774 382.987 197.027 382.56C196.28 382.12 195.707 381.513 195.307 380.74C194.907 379.953 194.707 379.047 194.707 378.02C194.707 376.993 194.907 376.093 195.307 375.32C195.707 374.547 196.28 373.947 197.027 373.52C197.774 373.08 198.654 372.86 199.667 372.86C200.68 372.86 201.547 373.08 202.267 373.52C203 373.947 203.56 374.547 203.947 375.32C204.347 376.093 204.547 376.993 204.547 378.02C204.547 379.047 204.347 379.953 203.947 380.74C203.56 381.513 203 382.12 202.267 382.56C201.547 382.987 200.68 383.2 199.667 383.2ZM199.667 381.28C200.707 381.28 201.434 381.02 201.847 380.5C202.26 379.967 202.467 379.14 202.467 378.02C202.467 376.9 202.26 376.08 201.847 375.56C201.434 375.04 200.707 374.78 199.667 374.78C198.614 374.78 197.88 375.04 197.467 375.56C197.054 376.08 196.847 376.9 196.847 378.02C196.847 379.14 197.054 379.967 197.467 380.5C197.88 381.02 198.614 381.28 199.667 381.28ZM209.862 383.2C209.008 383.2 208.302 383.027 207.742 382.68C207.182 382.32 206.768 381.84 206.502 381.24C206.235 380.627 206.102 379.947 206.102 379.2V373.06H208.262V378.8C208.262 379.693 208.448 380.34 208.822 380.74C209.195 381.14 209.808 381.34 210.662 381.34C211.222 381.34 211.695 381.253 212.082 381.08C212.468 380.893 212.762 380.607 212.962 380.22C213.162 379.82 213.262 379.3 213.262 378.66H213.822V381.02H213.342C213.195 381.393 212.968 381.747 212.662 382.08C212.368 382.413 211.988 382.687 211.522 382.9C211.068 383.1 210.515 383.2 209.862 383.2ZM215.422 383H213.422V380.02L213.262 379.92V373.06H215.422V383ZM226.808 383H224.648V377.22C224.648 376.34 224.482 375.707 224.148 375.32C223.815 374.92 223.188 374.72 222.268 374.72C221.682 374.72 221.202 374.807 220.828 374.98C220.455 375.14 220.175 375.407 219.988 375.78C219.802 376.14 219.708 376.633 219.708 377.26H219.328L219.148 374.92H219.628C219.775 374.56 219.995 374.227 220.288 373.92C220.582 373.613 220.955 373.36 221.408 373.16C221.875 372.96 222.428 372.86 223.068 372.86C223.935 372.86 224.642 373.027 225.188 373.36C225.735 373.693 226.142 374.153 226.408 374.74C226.675 375.327 226.808 376 226.808 376.76V383ZM219.708 383H217.548V373.06H219.528V376.04L219.708 376.14V383ZM232.919 383C231.826 383 230.986 382.767 230.399 382.3C229.826 381.833 229.539 381.047 229.539 379.94V373.28L230.039 370.6H231.699V379.84C231.699 380.36 231.826 380.693 232.079 380.84C232.346 380.973 232.819 381.04 233.499 381.04H234.699V382.82C234.499 382.873 234.239 382.92 233.919 382.96C233.599 382.987 233.266 383 232.919 383ZM234.699 374.86H227.879V373.06H234.699V374.86ZM238.501 378.6H236.401C236.401 378.2 236.387 377.74 236.361 377.22C236.347 376.687 236.321 376.127 236.281 375.54C236.254 374.94 236.227 374.353 236.201 373.78C236.174 373.193 236.147 372.66 236.121 372.18C236.094 371.7 236.081 371.307 236.081 371V369.6H238.821V371C238.821 371.307 238.807 371.7 238.781 372.18C238.767 372.66 238.741 373.193 238.701 373.78C238.674 374.353 238.647 374.94 238.621 375.54C238.594 376.14 238.567 376.707 238.541 377.24C238.514 377.76 238.501 378.213 238.501 378.6ZM238.681 383H236.241V380.04H238.681V383Z" fill="white"/>
</svg>
