<svg width="402" height="319" viewBox="0 0 402 319" fill="none" xmlns="http://www.w3.org/2000/svg">
<path d="M328.137 218.83H307.071V218.989H328.137V218.83Z" fill="#EBEBEB" fill-opacity="0.3"/>
<path d="M252.656 220.559H247.127V220.718H252.656V220.559Z" fill="#EBEBEB" fill-opacity="0.3"/>
<path d="M306.435 212.914H294.229V213.073H306.435V212.914Z" fill="#EBEBEB" fill-opacity="0.3"/>
<path d="M102.835 213.984H75.3638V214.144H102.835V213.984Z" fill="#EBEBEB" fill-opacity="0.3"/>
<path d="M112.525 213.984H108.498V214.144H112.525V213.984Z" fill="#EBEBEB" fill-opacity="0.3"/>
<path d="M185.194 216.674H125.616V216.833H185.194V216.674Z" fill="#EBEBEB" fill-opacity="0.3"/>
<path d="M360 208.576H42V208.735H360V208.576Z" fill="#EBEBEB" fill-opacity="0.3"/>
<path d="M90.1167 59.2541H147.797C155.186 59.2541 156.97 48.8912 149.99 46.4595C149.901 46.4283 149.812 46.3984 149.721 46.3691C157.44 39.9266 140.503 26.3434 122.105 45.1504C123.538 38.8799 107.186 41.1453 102.183 49.7015C100.406 44.0833 84.8105 53.843 90.1167 59.2541Z" fill="#E6E6E6" fill-opacity="0.3"/>
<path d="M244.395 33.4211H278.978C278.978 33.4211 287.088 30.3613 286.04 22.2587C284.991 14.1554 272.747 20.9075 272.747 20.9075C272.747 20.9075 276.458 9.60175 264.601 12.8093C252.744 16.0168 251.588 27.2258 251.588 27.2258C251.588 27.2258 236.015 24.5017 244.395 33.4211Z" fill="#EBEBEB" fill-opacity="0.3"/>
<path d="M276.168 56.215H299.001C299.001 56.215 304.355 54.1949 303.663 48.8456C302.97 43.4957 294.886 47.9531 294.886 47.9531C294.886 47.9531 297.337 40.4888 289.508 42.607C281.681 44.7245 280.917 52.1245 280.917 52.1245C280.917 52.1245 270.636 50.3267 276.168 56.215Z" fill="#EBEBEB" fill-opacity="0.3"/>
<path d="M271.781 172.146L271.716 165.379L271.713 164.969L271.655 158.94L271.652 158.554L271.597 152.819L271.591 152.446L271.541 146.985L271.536 146.632L271.487 141.421L271.484 141.089L271.433 136.109L271.433 135.793L271.386 131.035L271.383 130.728L271.347 126.791C271.152 126.912 270.932 127.018 270.689 127.095L270.713 130.42L266.504 130.441L269.895 127.328C269.57 127.392 269.211 127.441 268.838 127.455L266.039 130.014L266.088 127.01C265.836 126.905 265.611 126.777 265.432 126.629L265.36 130.756L265.359 131.063L265.278 135.821L265.273 136.145L265.182 141.11L265.18 141.449L265.092 146.653L265.087 147.006L264.989 152.467L264.986 152.84L264.889 158.562L264.88 158.954L264.772 164.976L264.765 165.386L264.65 172.147L264.064 201.328L272.184 201.423L271.781 172.146ZM270.936 170.881L266.046 165.589H270.903L270.936 170.881ZM270.858 164.958L266.016 164.965L270.823 159.909L270.858 164.958ZM270.91 157.523L266.257 152.745L270.882 152.732L270.91 157.523ZM270.854 152.09L266.245 152.103L270.828 147.506L270.854 152.09ZM270.819 145.766L266.383 141.427L270.793 141.414L270.819 145.766ZM270.786 140.749L266.384 140.77L270.753 136.579L270.786 140.749ZM270.712 131.097L270.736 135.065L266.495 131.118L270.712 131.097ZM265.931 132.002L270.171 135.967L265.873 135.981L265.931 132.002ZM265.864 136.654L270.166 136.634L265.805 140.803L265.864 136.654ZM265.774 142.455L270.21 146.8L265.716 146.814L265.774 142.455ZM265.716 147.466L270.225 147.453L265.65 152.024L265.716 147.466ZM265.627 153.791L270.285 158.586L265.559 158.592L265.627 153.791ZM265.576 159.229L270.318 159.223L265.51 164.258L265.576 159.229ZM265.549 165.891L270.441 171.209H265.472L265.549 165.891Z" fill="#EBEBEB" fill-opacity="0.3"/>
<path d="M271.3 126.107L270.97 126.114L270.741 125.902L268.8 127.682C269.173 127.668 269.531 127.619 269.857 127.555L270.646 126.829L270.649 127.322C270.892 127.245 271.112 127.139 271.307 127.019L271.3 126.107ZM265.41 126.143L265.397 126.857C265.576 127.006 265.801 127.132 266.051 127.238L266.065 126.143H265.41Z" fill="#EBEBEB" fill-opacity="0.3"/>
<path d="M272.253 125.576C272.307 125.916 272.184 126.249 271.912 126.546L271.685 126.758C271.574 126.85 271.442 126.941 271.305 127.019C271.111 127.139 270.891 127.245 270.648 127.322C270.4 127.421 270.137 127.499 269.855 127.555C269.53 127.619 269.172 127.668 268.799 127.682C268.755 127.689 268.705 127.689 268.662 127.689L268.319 127.696C267.44 127.682 266.654 127.512 266.051 127.238C265.8 127.132 265.575 127.004 265.396 126.857C265.377 126.843 265.359 126.829 265.34 126.815L265.129 126.609C264.868 126.327 264.758 126.001 264.82 125.668L265.303 122.957L264.024 122.979L268.473 120.715L273.107 122.829L271.807 122.851L272.253 125.576Z" fill="#EBEBEB" fill-opacity="0.3"/>
<path d="M292.659 128.979L292.831 201.327H298.073H328.537H333.78L334.01 128.979H292.659Z" fill="#EBEBEB" fill-opacity="0.3"/>
<path d="M300.654 119.771L300.674 135.904H303.918H322.774H326.019L326.052 119.771H300.654Z" fill="#EBEBEB" fill-opacity="0.3"/>
<path d="M300.625 135.904H295.27L295.26 131.07H300.619L300.625 135.904Z" fill="#FAFAFA" fill-opacity="0.3"/>
<path d="M310.898 131.07H305.542V135.904H310.898V131.07Z" fill="#FAFAFA" fill-opacity="0.3"/>
<path d="M321.174 131.07H315.817V135.904H321.174V131.07Z" fill="#FAFAFA" fill-opacity="0.3"/>
<path d="M331.443 135.904H326.088L326.099 131.07H331.458L331.443 135.904Z" fill="#F0F0F0" fill-opacity="0.3"/>
<path d="M300.555 144.711H295.324L295.314 139.996H300.548L300.555 144.711Z" fill="#F0F0F0" fill-opacity="0.3"/>
<path d="M310.812 139.996H305.58V144.711H310.812V139.996Z" fill="#F0F0F0" fill-opacity="0.3"/>
<path d="M321.074 139.996H315.841V144.711H321.074V139.996Z" fill="#FAFAFA" fill-opacity="0.3"/>
<path d="M331.329 144.711H326.098L326.108 139.996H331.342L331.329 144.711Z" fill="#FAFAFA" fill-opacity="0.3"/>
<path d="M300.511 153.302H295.401L295.392 148.701H300.504L300.511 153.302Z" fill="#F0F0F0" fill-opacity="0.3"/>
<path d="M310.757 148.701H305.645V153.302H310.757V148.701Z" fill="#FAFAFA" fill-opacity="0.3"/>
<path d="M321.006 148.701H315.894V153.302H321.006V148.701Z" fill="#FAFAFA" fill-opacity="0.3"/>
<path d="M310.868 124.049H305.408V128.977H310.868V124.049Z" fill="#FAFAFA" fill-opacity="0.3"/>
<path d="M321.148 124.049H315.688V128.977H321.148V124.049Z" fill="#F0F0F0" fill-opacity="0.3"/>
<path d="M331.249 153.302H326.138L326.149 148.701H331.262L331.249 153.302Z" fill="#F0F0F0" fill-opacity="0.3"/>
<path d="M300.494 161.687H295.501L295.493 157.197H300.487L300.494 161.687Z" fill="#FAFAFA" fill-opacity="0.3"/>
<path d="M310.731 157.197H305.737V161.687H310.731V157.197Z" fill="#F0F0F0" fill-opacity="0.3"/>
<path d="M320.968 161.687H315.975L315.98 157.197H320.974L320.968 161.687Z" fill="#F0F0F0" fill-opacity="0.3"/>
<path d="M331.205 161.687H326.212L326.223 157.197H331.217L331.205 161.687Z" fill="#FAFAFA" fill-opacity="0.3"/>
<path d="M300.719 171.117H295.155L295.143 166.121H300.713L300.719 171.117Z" fill="#F0F0F0" fill-opacity="0.3"/>
<path d="M310.935 171.117H305.371L305.366 166.121H310.936L310.935 171.117Z" fill="#FAFAFA" fill-opacity="0.3"/>
<path d="M321.151 171.117H315.587L315.589 166.121H321.159L321.151 171.117Z" fill="#FAFAFA" fill-opacity="0.3"/>
<path d="M331.368 171.117H325.803L325.812 166.121H331.383L331.368 171.117Z" fill="#F0F0F0" fill-opacity="0.3"/>
<path d="M300.749 179.08H295.312L295.302 174.201H300.743L300.749 179.08Z" fill="#F0F0F0" fill-opacity="0.3"/>
<path d="M310.963 174.201H305.523V179.08H310.963V174.201Z" fill="#FAFAFA" fill-opacity="0.3"/>
<path d="M321.179 174.201H315.74V179.08H321.179V174.201Z" fill="#F0F0F0" fill-opacity="0.3"/>
<path d="M331.387 179.08H325.951L325.961 174.201H331.402L331.387 179.08Z" fill="#FAFAFA" fill-opacity="0.3"/>
<path d="M300.635 188.042H295.333L295.323 183.293H300.628L300.635 188.042Z" fill="#FAFAFA" fill-opacity="0.3"/>
<path d="M310.829 183.293H305.525V188.042H310.829V183.293Z" fill="#FAFAFA" fill-opacity="0.3"/>
<path d="M321.026 183.293H315.723V188.042H321.026V183.293Z" fill="#F0F0F0" fill-opacity="0.3"/>
<path d="M331.217 188.042H325.915L325.925 183.293H331.23L331.217 188.042Z" fill="#F0F0F0" fill-opacity="0.3"/>
<path d="M300.636 196.191H295.46L295.451 191.559H300.629L300.636 196.191Z" fill="#F0F0F0" fill-opacity="0.3"/>
<path d="M331.198 196.191H326.022L326.033 191.559H331.211L331.198 196.191Z" fill="#FAFAFA" fill-opacity="0.3"/>
<path d="M321.053 191.559H305.597L305.627 192.723H306.054L306.061 201.326H307.606L307.601 192.723H319.071L319.059 201.326H320.604L320.618 192.723H321.084L321.053 191.559Z" fill="#F5F5F5" fill-opacity="0.3"/>
<path d="M313.403 201.327H307.677L307.673 192.725H313.408L313.403 201.327Z" fill="#E6E6E6" fill-opacity="0.3"/>
<path d="M318.99 201.327H313.263L313.266 192.725H319.001L318.99 201.327Z" fill="#EBEBEB" fill-opacity="0.3"/>
<path d="M292.718 151.994L292.834 201.327H286.261H248.062H241.488L241.018 151.994H292.718Z" fill="#F5F5F5" fill-opacity="0.3"/>
<path d="M282.891 162.959H289.301L289.284 157.197H282.87L282.891 162.959Z" fill="#E6E6E6" fill-opacity="0.3"/>
<path d="M270.101 162.959H276.511L276.484 157.197H270.07L270.101 162.959Z" fill="#E6E6E6" fill-opacity="0.3"/>
<path d="M257.311 162.959H263.721L263.683 157.197H257.27L257.311 162.959Z" fill="#E6E6E6" fill-opacity="0.3"/>
<path d="M244.521 162.959H250.931L250.883 157.197H244.47L244.521 162.959Z" fill="#E6E6E6" fill-opacity="0.3"/>
<path d="M282.648 174.202H289.555L289.538 168.002H282.623L282.648 174.202Z" fill="#E6E6E6" fill-opacity="0.3"/>
<path d="M269.882 174.202H276.789L276.761 168.002H269.846L269.882 174.202Z" fill="#E6E6E6" fill-opacity="0.3"/>
<path d="M257.117 174.202H264.024L263.985 168.002H257.07L257.117 174.202Z" fill="#E6E6E6" fill-opacity="0.3"/>
<path d="M244.351 174.202H251.257L251.208 168.002H244.293L244.351 174.202Z" fill="#E6E6E6" fill-opacity="0.3"/>
<path d="M282.828 184.486H289.533L289.516 178.475H282.805L282.828 184.486Z" fill="#E6E6E6" fill-opacity="0.3"/>
<path d="M270.075 184.486H276.779L276.752 178.475H270.041L270.075 184.486Z" fill="#E6E6E6" fill-opacity="0.3"/>
<path d="M257.321 184.486H264.026L263.987 178.475H257.276L257.321 184.486Z" fill="#E6E6E6" fill-opacity="0.3"/>
<path d="M244.567 184.486H251.271L251.223 178.475H244.512L244.567 184.486Z" fill="#E6E6E6" fill-opacity="0.3"/>
<path d="M282.973 195.041H289.475L289.459 189.219H282.951L282.973 195.041Z" fill="#E6E6E6" fill-opacity="0.3"/>
<path d="M244.764 195.041H251.267L251.219 189.219H244.711L244.764 195.041Z" fill="#E6E6E6" fill-opacity="0.3"/>
<path d="M257.022 189.219H277.133L277.14 190.976H275.855L275.905 201.327H274.046L273.993 190.976H260.192L260.263 201.327H258.404L258.331 190.976H257.036L257.022 189.219Z" fill="#F5F5F5" fill-opacity="0.3"/>
<path d="M267.199 201.327H274.091L274.039 190.977H267.139L267.199 201.327Z" fill="#E6E6E6" fill-opacity="0.3"/>
<path d="M260.217 201.327H267.109L267.047 190.977H260.146L260.217 201.327Z" fill="#EBEBEB" fill-opacity="0.3"/>
<path d="M138.733 109.766C138.733 108.992 138.733 108.218 138.733 107.444C138.733 107.087 138.18 107.086 138.18 107.444C138.18 108.293 138.18 109.143 138.18 109.993C138.18 110.154 138.307 110.255 138.456 110.27C139.33 110.358 139.968 111.446 139.242 112.172C138.547 112.868 137.438 112.32 137.344 111.384C137.308 111.033 136.755 111.03 136.791 111.384C136.929 112.761 138.537 113.674 139.634 112.564C140.651 111.534 139.953 110.075 138.733 109.766Z" fill="#EBEBEB" fill-opacity="0.3"/>
<path d="M97.9688 93.0932V98.1272L92.6824 92.832L92.4216 93.0932H92.0527V99.0191V99.3886V104.945V105.314V110.871V111.24V116.797V117.166V122.722V123.092V128.648V129.018V134.574V134.944V140.869H98.7066V134.944V134.574V129.018V128.648V123.092V122.722V117.166V116.797V111.24V110.871V105.314V104.945V99.3886V99.0191V93.0932H97.9688ZM92.7899 129.54L97.4467 134.205H92.7899V129.54ZM92.7899 117.688L97.4467 122.353H92.7899V117.688ZM92.7899 105.837L97.4467 110.501H92.7899V105.837ZM92.7899 93.9851L97.4467 98.6496H92.7899V93.9851ZM97.4473 99.3886L92.7905 104.053V99.3886H97.4473ZM97.9688 99.9109V104.575H93.312L97.9688 99.9109ZM97.4473 111.24L92.7905 115.905V111.24H97.4473ZM97.9688 111.763V116.427H93.312L97.9688 111.763ZM97.4473 123.092L92.7905 127.756V123.092H97.4473ZM97.9688 123.614V128.279H93.312L97.9688 123.614ZM97.4473 134.944L92.7905 139.608V134.944H97.4473ZM93.3114 140.131L97.9682 135.467V140.131H93.3114ZM97.9688 133.682L93.312 129.018H97.9688V133.682ZM97.9688 121.831L93.312 117.166H97.9688V121.831ZM97.9688 109.979L93.312 105.314H97.9688V109.979Z" fill="#F0F0F0" fill-opacity="0.3"/>
<path d="M92.7925 77.3561V81.8008V82.1703V86.6144H93.5302V83.0615L97.338 86.8749L97.5987 86.6137H97.9676V82.1697V81.8002V77.3555H92.7925V77.3561ZM96.7077 78.0951L93.5296 81.2784V78.0951H96.7077ZM97.2292 85.7225L94.0511 82.5392H97.2292V85.7225ZM94.0511 81.8002L97.2292 78.6168V81.8002H94.0511Z" fill="#F0F0F0" fill-opacity="0.3"/>
<path d="M80.6471 93.0938H71.7729V101.983H80.6471V93.0938Z" fill="#E6E6E6" fill-opacity="0.3"/>
<path d="M138.574 105.913H138.083V88.8251L96.7612 75.0999H94.0277L71.9019 88.857L71.6431 88.4384L93.8878 74.6074H96.8407L96.8789 74.6202L138.574 88.4697V105.913Z" fill="#E6E6E6" fill-opacity="0.3"/>
<path d="M133.523 93.4776H134.03L139.219 88.2793H133.892H133.523H129.455H129.087H125.018H124.649H120.581H120.213H116.144H115.775H111.707H111.338H107.27H106.901H102.833H102.464H98.3958H98.0269H93.9584H93.5895H89.5211H89.1522H85.0837H84.7148H80.6463H80.2774H76.2089H75.8401H71.4033V93.4623H75.8401H76.2089H80.2774H80.6463H84.7148H85.0837H89.1522H89.5211H93.5895H93.9584H98.0269H98.3958H102.464H102.833H106.901H107.27H111.338H111.707H115.775H116.144H120.213H120.581H124.649H125.018H129.087H129.455H133.523L133.523 93.4776ZM134.26 89.0183H137.439L134.26 92.2016V89.0183ZM72.1417 92.724V89.5407L75.3198 92.724H72.1417ZM75.8407 92.2016L72.6626 89.0183H75.8407V92.2016ZM76.5785 89.0183H79.7565L76.5785 92.2016V89.0183ZM80.2781 92.724H77.1L80.2781 89.5407V92.724ZM81.0158 92.724V89.5407L84.1939 92.724H81.0158ZM84.7148 92.2016L81.5367 89.0183H84.7148V92.2016ZM85.4526 89.0183H88.6307L85.4526 92.2016V89.0183ZM89.1522 92.724H85.9741L89.1522 89.5407V92.724ZM89.8899 92.724V89.5407L93.068 92.724H89.8899ZM93.5889 92.2016L90.4108 89.0183H93.5889V92.2016ZM94.3267 89.0183H97.5048L94.3267 92.2016V89.0183ZM98.0263 92.724H94.8482L98.0263 89.5407V92.724ZM98.764 92.724V89.5407L101.942 92.724H98.764ZM102.463 92.2016L99.2849 89.0183H102.463V92.2016ZM103.201 89.0183H106.379L103.201 92.2016V89.0183ZM106.9 92.724H103.722L106.9 89.5407V92.724ZM107.638 92.724V89.5407L110.816 92.724H107.638ZM111.338 92.2016L108.16 89.0183H111.338V92.2016ZM112.075 89.0183H115.253L112.075 92.2016V89.0183ZM115.774 92.724H112.596L115.774 89.5407V92.724ZM116.512 92.724V89.5407L119.69 92.724H116.512ZM120.212 92.2016L117.034 89.0183H120.212V92.2016ZM120.949 89.0183H124.127L120.949 92.2016V89.0183ZM124.649 92.724H121.471L124.649 89.5407V92.724ZM125.386 89.0183H128.564L125.386 92.2016V89.0183ZM129.086 92.724H125.908L129.086 89.5407V92.724ZM129.824 92.724V89.5407L133.002 92.724H129.824ZM130.345 89.0183H133.523V92.2016L130.345 89.0183Z" fill="#F0F0F0" fill-opacity="0.3"/>
<path d="M101.987 95.1103H88.3408L88.8401 89.3583C88.9749 87.8052 90.273 86.6133 91.8293 86.6133H98.3305C99.8537 86.6133 101.135 87.7568 101.311 89.2723L101.987 95.1103Z" fill="#F0F0F0" fill-opacity="0.3"/>
<path d="M93.1618 89.002H90.5415V91.6266H93.1618V89.002Z" fill="#FAFAFA" fill-opacity="0.3"/>
<path d="M96.4748 89.002H93.8545V91.6266H96.4748V89.002Z" fill="#FAFAFA" fill-opacity="0.3"/>
<path d="M99.7868 89.002H97.1665V91.6266H99.7868V89.002Z" fill="#FAFAFA" fill-opacity="0.3"/>
<path d="M97.1666 75.936C97.1666 76.9247 96.3665 77.7261 95.3794 77.7261C94.3924 77.7261 93.5923 76.9247 93.5923 75.936C93.5923 74.9473 94.3924 74.1465 95.3794 74.1465C96.3665 74.1458 97.1666 74.9473 97.1666 75.936Z" fill="#E6E6E6" fill-opacity="0.3"/>
<path d="M138.456 108.972C137.612 108.972 136.929 108.288 136.929 107.443V105.914H139.982V107.443C139.983 108.288 139.299 108.972 138.456 108.972Z" fill="#E6E6E6" fill-opacity="0.3"/>
<path d="M66.1934 128.977L67.3782 201.325H72.6208H103.085H108.327L107.544 128.977H66.1934Z" fill="#F5F5F5" fill-opacity="0.3"/>
<path d="M68.7764 131.068L68.9188 139.873L68.9576 142.292L68.9964 144.709H74.3611L74.3242 142.292L74.2867 139.873L74.1518 131.068H68.7764Z" fill="#E6E6E6" fill-opacity="0.3"/>
<path d="M79.0552 131.068L79.1849 139.873L79.2205 142.292L79.2562 144.709H84.6202L84.5865 142.292L84.5534 139.873L84.4306 131.068H79.0552Z" fill="#E6E6E6" fill-opacity="0.3"/>
<path d="M89.3335 131.068L89.4512 139.873L89.483 142.292L89.5154 144.709H94.88L94.8495 142.292L94.819 139.873L94.709 131.068H89.3335Z" fill="#E6E6E6" fill-opacity="0.3"/>
<path d="M99.6128 131.068L99.7177 139.873L99.7623 143.61L99.775 144.709H105.14L105.128 143.61L105.086 139.873L104.988 131.068H99.6128Z" fill="#E6E6E6" fill-opacity="0.3"/>
<path d="M69.1016 148.699L69.2428 157.493L69.2816 159.909L69.321 162.323H74.6926L74.6564 159.909L74.6195 157.493L74.4853 148.699H69.1016Z" fill="#E6E6E6" fill-opacity="0.3"/>
<path d="M79.3516 148.699L79.4807 157.493L79.5309 160.899L79.5519 162.323H84.9236L84.9038 160.899L84.8568 157.493L84.7353 148.699H79.3516Z" fill="#E6E6E6" fill-opacity="0.3"/>
<path d="M89.6016 148.699L89.7186 157.493L89.7504 159.909L89.7822 162.323H95.1545L95.1246 159.909L95.0947 157.493L94.9853 148.699H89.6016Z" fill="#E6E6E6" fill-opacity="0.3"/>
<path d="M99.8511 148.699L99.9554 157.493L99.984 159.909L100.013 162.323H105.385L105.359 159.909L105.332 157.493L105.235 148.699H99.8511Z" fill="#E6E6E6" fill-opacity="0.3"/>
<path d="M69.4072 166.119L69.5478 174.875L69.5866 177.281L69.6254 179.685H74.9888L74.9525 177.281L74.9156 174.875L74.7827 166.119H69.4072Z" fill="#E6E6E6" fill-opacity="0.3"/>
<path d="M79.6304 166.119L79.7588 174.875L79.7945 177.281L79.8294 179.685H85.1928L85.1598 177.281L85.1267 174.875L85.0058 166.119H79.6304Z" fill="#E6E6E6" fill-opacity="0.3"/>
<path d="M89.853 166.119L89.9694 174.875L90.0012 177.281L90.033 179.685H95.3964L95.3672 177.281L95.3373 174.875L95.2285 166.119H89.853Z" fill="#E6E6E6" fill-opacity="0.3"/>
<path d="M100.077 166.119L100.18 174.875L100.22 178.198L100.237 179.685H105.601L105.584 178.198L105.548 174.875L105.452 166.119H100.077Z" fill="#E6E6E6" fill-opacity="0.3"/>
<path d="M103.059 183.291H100.406H95.4354H90.1293H85.1583H79.8528H69.5757L69.6526 188.04H79.9221H85.2245H90.1916H95.494H100.462H103.113H105.763L105.712 183.291H103.059Z" fill="#E6E6E6" fill-opacity="0.3"/>
<path d="M95.4323 191.559H79.9762L79.9609 192.723H80.4259L80.5543 201.326H82.0992L81.9732 192.723H93.4429L93.5523 201.326H95.0965L94.9903 192.723H95.4183L95.4323 191.559Z" fill="#FAFAFA" fill-opacity="0.3"/>
<path d="M87.8951 201.325H82.1686L82.0439 192.723H87.7788L87.8951 201.325Z" fill="#E6E6E6" fill-opacity="0.3"/>
<path d="M93.4816 201.325H87.755L87.6367 192.723H93.3715L93.4816 201.325Z" fill="#E6E6E6" fill-opacity="0.3"/>
<path d="M146.545 133.148L147.01 201.326H142.07H113.365H108.425L107.578 133.148H146.545Z" fill="#E6E6E6" fill-opacity="0.3"/>
<path d="M132.781 184.486H134.887H144.33L144.346 186.669L144.361 188.85L144.42 196.767H139.532L139.467 188.63H134.695H132.818H130.067L130.03 184.486H132.781Z" fill="#F0F0F0" fill-opacity="0.3"/>
<path d="M114.151 184.486H116.033H124.999L125.041 188.63H115.765L115.856 196.767H110.97L110.876 188.85L110.838 185.694L110.824 184.486H114.151Z" fill="#F0F0F0" fill-opacity="0.3"/>
<path d="M120.977 192.143H134.277L134.287 193.305H134.434L134.502 201.327H133.061L132.991 193.305H122.295L122.38 201.327H120.939L120.853 193.305H120.989L120.977 192.143Z" fill="#F5F5F5" fill-opacity="0.3"/>
<path d="M127.664 201.327H133.005L132.933 193.305H127.586L127.664 201.327Z" fill="#EBEBEB" fill-opacity="0.3"/>
<path d="M122.435 201.327H127.775L127.699 193.305H122.352L122.435 201.327Z" fill="#E0E0E0" fill-opacity="0.3"/>
<path d="M129.328 135.902H144.155L144.246 148.701H129.448L129.328 135.902Z" fill="#F0F0F0" fill-opacity="0.3"/>
<path d="M110.107 135.902H124.935L125.059 148.701H110.261L110.107 135.902Z" fill="#F0F0F0" fill-opacity="0.3"/>
<path d="M129.741 151.994H143.932L144.025 164.227H129.851L129.741 151.994Z" fill="#F0F0F0" fill-opacity="0.3"/>
<path d="M110.553 151.994H124.744L124.868 164.227H110.696L110.553 151.994Z" fill="#F0F0F0" fill-opacity="0.3"/>
<path d="M129.886 168.627H144.158L144.249 180.892H129.998L129.886 168.627Z" fill="#F0F0F0" fill-opacity="0.3"/>
<path d="M110.755 168.627H125.027L125.151 180.892H110.899L110.755 168.627Z" fill="#F0F0F0" fill-opacity="0.3"/>
<g opacity="0.3">
<path d="M201 237.001C269.105 237.001 324.314 233.771 324.314 229.788C324.314 225.804 269.105 222.574 201 222.574C132.896 222.574 77.687 225.804 77.687 229.788C77.687 233.771 132.896 237.001 201 237.001Z" fill="#F5F5F5"/>
</g>
<path d="M144.289 18.875L146.658 21.9449H255.326L257.716 18.875H144.289Z" fill="#66805D"/>
<g opacity="0.4">
<path d="M144.289 18.875L146.658 21.9449H255.326L257.716 18.875H144.289Z" fill="black"/>
</g>
<path d="M255.354 14.918H146.437V208.314H255.354V14.918Z" fill="#66805D"/>
<g opacity="0.4">
<path d="M255.354 14.918H146.437V208.314H255.354V14.918Z" fill="white"/>
</g>
<g opacity="0.8">
<path d="M150.853 19.6782C150.978 20.9351 150.105 21.9493 148.902 21.9493C147.699 21.9493 146.614 20.9351 146.477 19.6782C146.341 18.4149 147.213 17.3867 148.427 17.3867C149.641 17.3867 150.727 18.4149 150.853 19.6782Z" fill="#F0F0F0"/>
<path d="M154.862 19.6782C154.977 20.9351 154.096 21.9493 152.893 21.9493C151.691 21.9493 150.613 20.9351 150.487 19.6782C150.36 18.4149 151.241 17.3867 152.454 17.3867C153.668 17.3867 154.746 18.4149 154.862 19.6782Z" fill="#F0F0F0"/>
<path d="M158.871 19.6782C158.977 20.9351 158.087 21.9493 156.884 21.9493C155.681 21.9493 154.612 20.9351 154.496 19.6782C154.379 18.4149 155.268 17.3867 156.481 17.3867C157.695 17.3867 158.766 18.4149 158.871 19.6782Z" fill="#F0F0F0"/>
<path d="M162.881 19.6782C162.976 20.9351 162.078 21.9493 160.875 21.9493C159.673 21.9493 158.612 20.9351 158.506 19.6782C158.399 18.4149 159.296 17.3867 160.51 17.3867C161.723 17.3867 162.785 18.4149 162.881 19.6782Z" fill="#F0F0F0"/>
<path d="M166.89 19.6782C166.975 20.9351 166.069 21.9493 164.866 21.9493C163.664 21.9493 162.61 20.9351 162.514 19.6782C162.418 18.4149 163.323 17.3867 164.536 17.3867C165.75 17.3867 166.804 18.4149 166.89 19.6782Z" fill="#F0F0F0"/>
<path d="M170.899 19.6782C170.974 20.9351 170.06 21.9493 168.858 21.9493C167.655 21.9493 166.61 20.9351 166.524 19.6782C166.438 18.4149 167.35 17.3867 168.565 17.3867C169.777 17.3867 170.823 18.4149 170.899 19.6782Z" fill="#F0F0F0"/>
<path d="M174.908 19.6782C174.973 20.9351 174.051 21.9493 172.848 21.9493C171.646 21.9493 170.609 20.9351 170.533 19.6782C170.456 18.4149 171.377 17.3867 172.592 17.3867C173.805 17.3867 174.842 18.4149 174.908 19.6782Z" fill="#F0F0F0"/>
<path d="M178.917 19.6782C178.972 20.9351 178.042 21.9493 176.839 21.9493C175.637 21.9493 174.608 20.9351 174.541 19.6782C174.475 18.4149 175.405 17.3867 176.618 17.3867C177.832 17.3867 178.861 18.4149 178.917 19.6782Z" fill="#F0F0F0"/>
<path d="M182.927 19.6782C182.972 20.9351 182.034 21.9493 180.831 21.9493C179.628 21.9493 178.608 20.9351 178.552 19.6782C178.495 18.4149 179.433 17.3867 180.647 17.3867C181.86 17.3867 182.881 18.4149 182.927 19.6782Z" fill="#F0F0F0"/>
<path d="M186.935 19.6782C186.971 20.9351 186.024 21.9493 184.821 21.9493C183.619 21.9493 182.606 20.9351 182.56 19.6782C182.513 18.4149 183.459 17.3867 184.673 17.3867C185.887 17.3867 186.9 18.4149 186.935 19.6782Z" fill="#F0F0F0"/>
<path d="M190.945 19.6782C190.97 20.9351 190.016 21.9493 188.813 21.9493C187.61 21.9493 186.606 20.9351 186.57 19.6782C186.534 18.4149 187.488 17.3867 188.701 17.3867C189.915 17.3867 190.919 18.4149 190.945 19.6782Z" fill="#F0F0F0"/>
<path d="M194.954 19.6782C194.969 20.9351 194.007 21.9493 192.805 21.9493C191.602 21.9493 190.605 20.9351 190.579 19.6782C190.552 18.4149 191.515 17.3867 192.729 17.3867C193.942 17.3867 194.938 18.4149 194.954 19.6782Z" fill="#F0F0F0"/>
<path d="M198.963 19.6782C198.968 20.9351 197.997 21.9493 196.795 21.9493C195.592 21.9493 194.604 20.9351 194.587 19.6782C194.571 18.4149 195.541 17.3867 196.755 17.3867C197.969 17.3867 198.958 18.4149 198.963 19.6782Z" fill="#F0F0F0"/>
<path d="M202.972 19.6782C202.967 20.9351 201.989 21.9493 200.785 21.9493C199.583 21.9493 198.603 20.9351 198.596 19.6782C198.59 18.4149 199.569 17.3867 200.782 17.3867C201.996 17.3867 202.977 18.4149 202.972 19.6782Z" fill="#F0F0F0"/>
<path d="M206.982 19.6782C206.967 20.9351 205.98 21.9493 204.777 21.9493C203.575 21.9493 202.602 20.9351 202.606 19.6782C202.61 18.4149 203.597 17.3867 204.81 17.3867C206.024 17.3867 206.996 18.4149 206.982 19.6782Z" fill="#F0F0F0"/>
<path d="M210.99 19.6782C210.965 20.9351 209.97 21.9493 208.768 21.9493C207.565 21.9493 206.601 20.9351 206.615 19.6782C206.629 18.4149 207.624 17.3867 208.838 17.3867C210.051 17.3867 211.015 18.4149 210.99 19.6782Z" fill="#F0F0F0"/>
<path d="M215 19.6782C214.965 20.9351 213.962 21.9493 212.759 21.9493C211.556 21.9493 210.6 20.9351 210.624 19.6782C210.647 18.4149 211.651 17.3867 212.865 17.3867C214.079 17.3867 215.035 18.4149 215 19.6782Z" fill="#F0F0F0"/>
<path d="M219.009 19.6782C218.964 20.9351 217.953 21.9493 216.75 21.9493C215.548 21.9493 214.599 20.9351 214.633 19.6782C214.667 18.4149 215.679 17.3867 216.892 17.3867C218.106 17.3867 219.053 18.4149 219.009 19.6782Z" fill="#F0F0F0"/>
<path d="M223.018 19.6782C222.963 20.9351 221.945 21.9493 220.742 21.9493C219.539 21.9493 218.599 20.9351 218.643 19.6782C218.687 18.4149 219.706 17.3867 220.921 17.3867C222.133 17.3867 223.073 18.4149 223.018 19.6782Z" fill="#F0F0F0"/>
<path d="M227.027 19.6782C226.962 20.9351 225.935 21.9493 224.732 21.9493C223.529 21.9493 222.598 20.9351 222.651 19.6782C222.705 18.4149 223.733 17.3867 224.946 17.3867C226.161 17.3867 227.092 18.4149 227.027 19.6782Z" fill="#F0F0F0"/>
<path d="M231.036 19.6782C230.962 20.9351 229.927 21.9493 228.724 21.9493C227.521 21.9493 226.597 20.9351 226.661 19.6782C226.726 18.4149 227.761 17.3867 228.975 17.3867C230.189 17.3867 231.111 18.4149 231.036 19.6782Z" fill="#F0F0F0"/>
<path d="M235.045 19.6782C234.961 20.9351 233.918 21.9493 232.714 21.9493C231.511 21.9493 230.596 20.9351 230.67 19.6782C230.743 18.4149 231.788 17.3867 233.002 17.3867C234.215 17.3867 235.13 18.4149 235.045 19.6782Z" fill="#F0F0F0"/>
<path d="M239.054 19.6782C238.96 20.9351 237.908 21.9493 236.706 21.9493C235.503 21.9493 234.595 20.9351 234.679 19.6782C234.763 18.4149 235.815 17.3867 237.029 17.3867C238.243 17.3867 239.15 18.4149 239.054 19.6782Z" fill="#F0F0F0"/>
<path d="M243.064 19.6782C242.959 20.9351 241.9 21.9493 240.696 21.9493C239.494 21.9493 238.594 20.9351 238.688 19.6782C238.782 18.4149 239.843 17.3867 241.056 17.3867C242.27 17.3867 243.168 18.4149 243.064 19.6782Z" fill="#F0F0F0"/>
<path d="M247.073 19.6782C246.958 20.9351 245.891 21.9493 244.688 21.9493C243.485 21.9493 242.593 20.9351 242.697 19.6782C242.801 18.4149 243.87 17.3867 245.084 17.3867C246.298 17.3867 247.188 18.4149 247.073 19.6782Z" fill="#F0F0F0"/>
<path d="M251.082 19.6782C250.958 20.9351 249.882 21.9493 248.679 21.9493C247.477 21.9493 246.593 20.9351 246.707 19.6782C246.822 18.4149 247.898 17.3867 249.112 17.3867C250.325 17.3867 251.207 18.4149 251.082 19.6782Z" fill="#F0F0F0"/>
<path d="M255.091 19.6782C254.956 20.9351 253.873 21.9493 252.67 21.9493C251.467 21.9493 250.592 20.9351 250.715 19.6782C250.839 18.4149 251.925 17.3867 253.138 17.3867C254.352 17.3867 255.226 18.4149 255.091 19.6782Z" fill="#F0F0F0"/>
</g>
<path d="M144.281 15.7676H257.722L257.716 18.8751H144.289L144.281 15.7676Z" fill="#66805D"/>
<path d="M144.272 12.6582L146.642 15.7664H255.339L257.729 12.6582H144.272Z" fill="#66805D"/>
<g opacity="0.4">
<path d="M144.272 12.6582L146.642 15.7664H255.339L257.729 12.6582H144.272Z" fill="black"/>
</g>
<path d="M144.264 9.53906H257.735L257.729 12.6587H144.272L144.264 9.53906Z" fill="#66805D"/>
<path d="M146.634 12.6582H255.345L255.339 15.7664H146.642L146.634 12.6582Z" fill="#66805D"/>
<g opacity="0.8">
<path d="M146.634 12.6582H255.345L255.339 15.7664H146.642L146.634 12.6582Z" fill="white"/>
</g>
<g opacity="0.7">
<path d="M255.379 76.9707H146.467V78.3404H255.379V76.9707Z" fill="white"/>
</g>
<g opacity="0.8">
<path d="M255.375 144.945H146.694V146.309H255.375V144.945Z" fill="white"/>
</g>
<path d="M182.506 27.9004H169.043V42.4678H182.506V27.9004Z" fill="#66805D"/>
<path d="M208.364 27.9004H194.901V42.4678H208.364V27.9004Z" fill="#66805D"/>
<path d="M234.222 27.9004H220.759V42.4678H234.222V27.9004Z" fill="#66805D"/>
<path d="M182.506 49.7148H169.043V64.2823H182.506V49.7148Z" fill="#66805D"/>
<path d="M208.364 49.7148H194.901V64.2823H208.364V49.7148Z" fill="#66805D"/>
<path d="M234.222 49.7148H220.759V64.2823H234.222V49.7148Z" fill="#66805D"/>
<path d="M182.506 155.439H169.043V170.007H182.506V155.439Z" fill="#66805D"/>
<path d="M208.364 155.439H194.901V170.007H208.364V155.439Z" fill="#66805D"/>
<path d="M234.222 155.439H220.759V170.007H234.222V155.439Z" fill="#66805D"/>
<path d="M168.082 186.111H154.619V200.679H168.082V186.111Z" fill="#66805D"/>
<path d="M247.186 186.111H233.724V200.679H247.186V186.111Z" fill="#66805D"/>
<path d="M182.506 89.8164H169.043V104.384H182.506V89.8164Z" fill="#66805D"/>
<path d="M208.364 89.8164H194.901V104.384H208.364V89.8164Z" fill="#66805D"/>
<path d="M234.222 89.8164H220.759V104.384H234.222V89.8164Z" fill="#66805D"/>
<path d="M182.506 111.631H169.043V126.198H182.506V111.631Z" fill="#66805D"/>
<path d="M208.364 111.631H194.901V126.198H208.364V111.631Z" fill="#66805D"/>
<path d="M234.222 111.631H220.759V126.198H234.222V111.631Z" fill="#66805D"/>
<g opacity="0.8">
<path d="M185.32 187.82H199.255L199.201 202.312H185.225L185.32 187.82Z" fill="white"/>
</g>
<g opacity="0.8">
<path d="M201.945 187.82H216.458L215.769 202.312H201.794L201.945 187.82Z" fill="white"/>
</g>
<path d="M218.676 205.233H181.907L181.758 202.312H218.812L218.676 205.233Z" fill="#66805D"/>
<g opacity="0.1">
<path d="M218.676 205.233H181.907L181.758 202.312H218.812L218.676 205.233Z" fill="white"/>
</g>
<path d="M220.157 208.315H180.607L180.448 205.441H220.304L220.157 208.315Z" fill="#66805D"/>
<g opacity="0.4">
<path d="M221.466 182.688H179.195L179.014 179.404H221.633L221.466 182.688Z" fill="white"/>
</g>
<path d="M179.195 182.688L185.321 187.82H216.457L221.466 182.688H179.195Z" fill="#263238"/>
<path d="M182.062 185.092L184.222 202.314H185.94L185.249 185.092C184.259 184.571 183.006 184.571 182.062 185.092Z" fill="#66805D"/>
<path d="M219.2 185.091L217.083 202.314H215.365L216.013 185.091C216.958 184.451 218.309 184.451 219.2 185.091Z" fill="#66805D"/>
<path d="M165.031 4.81228C165.031 1.99652 167.182 0 170.112 0C171.815 0 173.187 0.621126 174.085 1.74488L172.422 3.25215C171.841 2.55139 171.128 2.16788 170.244 2.16788C168.727 2.16788 167.671 3.22539 167.671 4.81165C167.671 6.3979 168.727 7.45541 170.244 7.45541C171.129 7.45541 171.841 7.0719 172.422 6.37114L174.085 7.87841C173.187 9.00217 171.815 9.62329 170.112 9.62329C167.182 9.62457 165.031 7.62868 165.031 4.81228Z" fill="white"/>
<path d="M174.571 4.81228C174.571 2.03601 176.748 0 179.705 0C182.661 0 184.839 2.03601 184.839 4.81228C184.839 7.58855 182.661 9.62456 179.705 9.62456C176.748 9.62456 174.571 7.58855 174.571 4.81228ZM182.199 4.81228C182.199 3.21265 181.103 2.16852 179.705 2.16852C178.305 2.16852 177.21 3.21265 177.21 4.81228C177.21 6.41192 178.305 7.45604 179.705 7.45604C181.104 7.45668 182.199 6.41255 182.199 4.81228Z" fill="white"/>
<path d="M194.55 9.43998L194.523 4.53533L192.147 8.52837H190.986L188.624 4.66784V9.43998H186.208V0.185547H188.36L191.606 5.52658L194.774 0.185547H196.925L196.952 9.43935L194.55 9.43998Z" fill="white"/>
<path d="M207.124 3.60969C207.124 5.71133 205.541 7.01983 203.02 7.01983H201.409V9.43935H198.796V0.185547H203.02C205.541 0.185547 207.124 1.49469 207.124 3.60969ZM204.485 3.60969C204.485 2.75031 203.944 2.24768 202.862 2.24768H201.41V4.9577H202.862C203.944 4.9577 204.485 4.4557 204.485 3.60969Z" fill="white"/>
<path d="M214.117 7.64159H210.21L209.484 9.43935H206.818L210.896 0.185547H213.47L217.562 9.43935H214.843L214.117 7.64159ZM213.352 5.71196L212.164 2.75095L210.977 5.71196H213.352Z" fill="white"/>
<path d="M227.088 0.185547V9.43935H224.938L220.859 4.50858V9.43935H218.298V0.185547H220.45L224.528 5.11632V0.185547H227.088Z" fill="white"/>
<path d="M233.883 6.12095V9.43935H231.27V6.08146L227.746 0.185547H230.504L232.695 3.86069L234.886 0.185547H237.42L233.883 6.12095Z" fill="white"/>
<path d="M272.349 112.209C268.929 116.826 267.61 118.943 266.284 120.254C264.844 121.678 250.102 120.592 248.321 119.844C246.954 119.269 247.897 117.498 248.541 117.587C250.967 117.923 260.089 116.324 262.793 115.141C263.268 114.932 267.891 109.309 267.891 109.309L272.349 112.209Z" fill="#E5E5D4"/>
<path d="M266.735 109.161C269.627 103.854 275.319 99.9586 277.04 99.7394C279.52 99.4171 280.354 99.9082 279.627 101.907C278.394 105.297 276.123 108.869 272.924 113.189L266.735 109.161Z" fill="#66805D"/>
<g opacity="0.1">
<path d="M266.735 109.161C269.627 103.854 275.319 99.9586 277.04 99.7394C279.52 99.4171 280.354 99.9082 279.627 101.907C278.394 105.297 276.123 108.869 272.924 113.189L266.735 109.161Z" fill="black"/>
</g>
<path d="M277.04 99.7378C278.461 99.2262 279.055 99.0377 281.302 98.4548C283.941 97.8196 286.62 97.3775 289.319 97.131C291.027 96.938 292.71 96.8787 294.052 96.8692C294.213 96.8685 294.373 96.8864 294.53 96.9214C295.742 97.1941 296.526 98.4433 296.281 99.7136C293.627 113.758 293.501 119.989 293.883 127.223L277.742 127.8C277.329 127.815 276.968 127.506 276.884 127.075C276.171 123.428 273.934 115.329 273.934 115.329C271.919 113.392 271.585 110.993 271.384 109.604C271.274 108.846 272.966 108.027 274.799 104.01C274.799 104.01 276.211 100.042 277.04 99.7378Z" fill="#66805D"/>
<path d="M287.243 127.458L281.357 127.672C280.479 120.676 280.648 114.477 280.951 107.51C282.843 114.505 284.638 120.615 287.243 127.458Z" fill="#263238"/>
<path d="M288.947 181.347C288.8 181.024 288.653 180.688 288.511 180.345C282.164 165.152 277.309 134.446 277.309 134.446L288.631 128.662C288.631 128.662 291.854 155.655 296.264 173.219C296.941 175.896 297.634 178.344 298.352 180.437L290.626 183.993L288.947 181.347Z" fill="#E5E5D4"/>
<g opacity="0.8">
<path d="M288.947 181.347C288.8 181.024 288.653 180.688 288.511 180.345C282.164 165.152 277.309 134.446 277.309 134.446L288.631 128.662C288.631 128.662 291.854 155.655 296.264 173.219C296.941 175.896 297.634 178.344 298.352 180.437L290.626 183.993L288.947 181.347Z" fill="#263238"/>
</g>
<path d="M278.151 130.459C278.151 130.459 272.974 166.769 274.2 181.625C275.494 197.275 280.113 224.077 280.113 224.077L283.932 223.816C283.932 223.816 286.213 203.643 282.987 181.847C291.731 159.302 292.711 131.035 292.711 131.035L278.151 130.459Z" fill="#E5E5D4"/>
<path opacity="0.8" d="M278.151 130.459C278.151 130.459 272.974 166.769 274.2 181.625C275.494 197.275 280.113 224.077 280.113 224.077L283.932 223.816C283.932 223.816 286.213 203.643 282.987 181.847C291.731 159.302 292.711 131.035 292.711 131.035L278.151 130.459Z" fill="#263238"/>
<path d="M284.421 225.011C284.687 225.513 284.835 226.077 284.851 226.653C284.953 228.753 285.1 234.336 285.1 234.336L284.638 234.367C284.638 234.367 284.358 231.63 284.042 230.26C283.728 228.891 283.516 230.07 282.815 231.565C282.113 233.062 280.151 234.597 277.161 234.878C273.653 235.206 272.223 235.138 273.188 234.156C274.153 233.176 276.444 232.43 276.444 232.43C276.444 232.43 279.494 227.193 279.318 223.668C279.127 219.903 283.467 223.439 284.31 222.912C284.605 222.958 284.252 224.705 284.421 225.011Z" fill="#263238"/>
<path d="M296.521 174.543C294.298 175.026 292.332 176.659 286.495 177.247C286.38 177.255 286.265 177.268 286.145 177.277C285.9 177.304 285.645 177.321 285.379 177.334C283.81 177.42 274.855 176.999 273.191 176.025C274.637 161.084 277.479 129.342 277.479 129.342L284.323 128.509L293.143 128.24C293.143 128.24 302.872 138.307 300.636 147.438C297.29 161.103 298.965 163.225 296.521 174.543Z" fill="#263238"/>
<path d="M293.802 120.052C293.339 119.51 293.029 118.932 293.139 118.243C293.139 118.243 293.122 117.239 293.104 115.71C293.052 111.237 293.015 102.323 293.482 101.143C294.499 98.5865 296.239 97.2015 297.152 98.6954C298.218 100.44 298.296 113.682 298.296 113.682C298.046 122.439 294.845 121.274 293.802 120.052Z" fill="#E5E5D4"/>
<path d="M291.683 96.6133L291.15 97.5791C289.088 101.326 284.317 106.145 282.45 106.619C282.014 105.605 281.345 104.713 280.5 104.016C279.501 104.509 278.747 105.398 278.414 106.474C276.814 103.872 276.955 100.586 277.36 98.9583C278.299 98.6729 279.302 98.383 280.258 98.1454C282.899 97.5294 285.578 97.0981 288.277 96.8554C289.457 96.6967 290.629 96.6216 291.683 96.6133Z" fill="#66805D"/>
<path opacity="0.8" d="M291.683 96.6133L291.15 97.5791C289.088 101.326 284.317 106.145 282.45 106.619C282.014 105.605 281.567 103.855 281.567 103.855C280.569 104.348 279.835 105.759 279.503 106.835C277.902 104.233 276.955 100.587 277.36 98.9589C278.299 98.6735 279.302 98.3836 280.258 98.146C282.899 97.53 285.578 97.0987 288.277 96.856C289.457 96.6967 290.629 96.6216 291.683 96.6133Z" fill="white"/>
<path d="M279.404 114.84L277.194 111.836L275.216 115.76C275.216 115.76 277.237 116.891 278.914 116.511L279.404 114.84Z" fill="#E5E5D4"/>
<path d="M273.685 110.908L272.744 114.081L275.213 115.741L277.194 111.836L273.685 110.908Z" fill="#E5E5D4"/>
<path d="M293.87 129.082L285.694 129.302L285.01 129.319L283.243 129.363L282.565 129.384L277.767 129.51C277.618 129.495 277.486 129.438 277.48 129.342L277.291 127.801C277.275 127.696 277.407 127.601 277.574 127.595L282.319 127.407L282.889 127.383L285.233 127.294L285.788 127.271L293.659 126.961C293.766 126.949 293.873 126.992 293.944 127.083L294.138 128.831C294.201 128.949 294.062 129.075 293.87 129.082Z" fill="#66805D"/>
<path opacity="0.2" d="M293.87 129.082L285.694 129.302L285.01 129.319L283.243 129.363L282.565 129.384L277.767 129.51C277.618 129.495 277.486 129.438 277.48 129.342L277.291 127.801C277.275 127.696 277.407 127.601 277.574 127.595L282.319 127.407L282.889 127.383L285.233 127.294L285.788 127.271L293.659 126.961C293.766 126.949 293.873 126.992 293.944 127.083L294.138 128.831C294.201 128.949 294.062 129.075 293.87 129.082Z" fill="white"/>
<path d="M280.027 129.655L280.552 129.647C280.659 129.658 280.735 129.585 280.731 129.514L280.438 127.331C280.444 127.268 280.336 127.209 280.228 127.209L279.704 127.222C279.597 127.211 279.521 127.284 279.526 127.349L279.818 129.539C279.85 129.606 279.919 129.66 280.027 129.655Z" fill="#263238"/>
<path d="M289.136 129.522L289.633 129.509C289.735 129.52 289.806 129.45 289.801 129.389L289.508 127.194C289.514 127.134 289.406 127.078 289.308 127.084L288.812 127.097C288.71 127.086 288.639 127.15 288.644 127.217L288.937 129.401C288.946 129.473 289.033 129.522 289.136 129.522Z" fill="#263238"/>
<path d="M291.847 138.956L290.586 138.504L296.248 121.539C297.148 118.841 296.806 116.272 293.469 115.091C290.349 113.987 287.892 115.562 286.983 118.251L281.264 135.164L280.008 134.715L285.734 117.808C286.792 114.683 288.827 112.561 293.735 114.297C298.653 116.036 298.546 118.845 297.501 121.983L291.847 138.956Z" fill="#66805D"/>
<path d="M295.044 149.42L270.247 140.495L275.872 124.045C276.423 122.433 278.147 121.583 279.723 122.143L297.797 128.577C299.839 129.304 300.936 131.586 300.245 133.676L295.044 149.42Z" fill="#66805D"/>
<path opacity="0.4" d="M292.296 148.431L272.973 141.476C271.467 140.934 270.677 139.238 271.207 137.689L275.872 124.045C276.424 122.433 278.147 121.583 279.723 122.143L297.798 128.577C299.839 129.304 300.937 131.586 300.246 133.676L295.979 146.591C295.462 148.153 293.813 148.978 292.296 148.431Z" fill="white"/>
<g opacity="0.3">
<path d="M291.847 138.956L290.85 139.829L290.586 138.504L296.248 121.539C297.148 118.841 296.806 116.272 293.469 115.091C290.349 113.987 287.892 115.562 286.983 118.251L281.264 135.164L280.236 136.024L280.008 134.715L285.734 117.808C286.792 114.683 288.827 112.561 293.735 114.297C298.653 116.036 298.546 118.845 297.501 121.983L291.847 138.956Z" fill="white"/>
</g>
<path d="M283.832 128.745L281.763 128.006L282.029 127.223L284.097 127.96L283.832 128.745Z" fill="#66805D"/>
<path d="M282.113 133.83L280.04 133.088L280.307 132.301L282.379 133.042L282.113 133.83Z" fill="#66805D"/>
<path d="M294.46 132.54L292.384 131.798L292.646 131.012L294.722 131.753L294.46 132.54Z" fill="#66805D"/>
<path d="M292.762 137.643L290.681 136.898L290.945 136.107L293.025 136.851L292.762 137.643Z" fill="#66805D"/>
<path d="M290.357 131.576L285.916 129.99L286.481 128.312L290.919 129.896L290.357 131.576Z" fill="white"/>
<path d="M295.711 120.839C293.724 121.983 285.67 120.69 278.859 116.586C278.538 116.392 278.203 116.419 278.1 116.34C277.678 116.026 278.756 115.31 279.391 114.979C279.741 114.797 294.772 116.7 295.809 116.844C296.964 119.911 295.905 119.874 295.711 120.839Z" fill="#E5E5D4"/>
<path d="M289.294 182.578C290.393 185.704 294.062 187.08 296.626 185.14C296.732 185.06 296.833 184.976 296.929 184.888C308.056 174.567 322.212 159.526 322.212 159.526L319.828 156.498C319.828 156.498 308.596 162.676 296.264 173.218C293.701 175.408 291.084 177.793 288.511 180.343L288.512 180.35L289.294 182.578Z" fill="#E5E5D4"/>
<path opacity="0.8" d="M289.294 182.578C290.393 185.704 294.062 187.08 296.626 185.14C296.732 185.06 296.833 184.976 296.929 184.888C308.056 174.567 322.212 159.526 322.212 159.526L319.828 156.498C319.828 156.498 308.596 162.676 296.264 173.218C293.701 175.408 291.084 177.793 288.511 180.343L288.512 180.35L289.294 182.578Z" fill="#263238"/>
<path d="M318.387 156.865C318.546 156.35 318.825 155.885 319.199 155.511C320.534 154.118 324.145 150.525 324.145 150.525L324.472 150.848C324.472 150.848 322.844 152.762 322.143 153.853C321.441 154.945 322.367 154.364 323.826 153.951C325.285 153.538 327.607 154.04 329.785 156.091C332.345 158.504 333.258 159.617 331.964 159.512C330.671 159.408 328.646 158.164 328.646 158.164C328.646 158.164 323.13 159.18 320.89 161.544C318.488 164.083 317.967 158.57 317.051 158.271C316.887 158.022 318.294 157.184 318.387 156.865Z" fill="#263238"/>
<path d="M280.188 96.152C281.386 97.5784 282.314 99.3029 280.72 101.41C280.383 101.855 280.175 102.401 280.2 102.961C280.24 103.86 280.813 104.699 283.583 102.777C287.59 100.001 287.045 97.2172 287.045 97.2172C284.805 96.6954 283.177 92.1412 282.49 89.5273L280.188 96.152Z" fill="#E5E5D4"/>
<path opacity="0.2" d="M282.527 93.5198C282.926 94.6289 281.86 96.5146 281.007 97.2937C280.771 96.8872 280.498 96.5037 280.191 96.1489L281.554 92.2266C281.963 92.5859 282.294 93.0261 282.527 93.5198Z" fill="black"/>
<path d="M270.626 83.9907C269.559 88.1481 271.151 92.7125 274.085 95.8468C277.049 92.5921 282.649 93.277 285.766 90.1905C287.851 88.1264 288.235 84.657 286.945 82.0216C285.553 79.1778 281.46 76.4404 278.231 76.8882C274.607 77.3915 271.525 80.4863 270.626 83.9907Z" fill="#263238"/>
<path d="M282.973 82.5738C281.157 79.9052 277.534 79.2197 274.873 81.0392C271.112 83.5784 271.814 89.9458 273.489 93.554C275.336 97.5853 280.72 97.7471 283.236 93.7967C284.92 91.1676 284.562 89.3686 283.939 85.0997C283.817 84.1932 283.486 83.3281 282.973 82.5738Z" fill="#E5E5D4"/>
<path d="M275.617 91.4949C275.219 91.6892 274.757 91.6987 274.352 91.5203C274.719 90.7412 274.977 89.915 275.119 89.0664L275.617 91.4949Z" fill="#66805D"/>
<path d="M278.88 91.1247C278.901 91.0712 278.875 91.0107 278.822 90.9897C278.769 90.9687 278.709 90.9948 278.689 91.0483C278.309 91.851 277.57 92.4205 276.703 92.5798C276.65 92.5944 276.617 92.6467 276.626 92.7014C276.627 92.7034 276.627 92.7053 276.627 92.7065C276.639 92.7594 276.69 92.7925 276.742 92.7811C276.906 92.7505 277.067 92.7065 277.224 92.6498C277.956 92.3848 278.552 91.8357 278.88 91.1247Z" fill="#263238"/>
<path d="M275.858 79.1004C275.525 79.6399 275.302 80.2445 275.228 80.8803C280.195 82.0302 283.861 87.24 285.267 92.2013C286.612 90.4322 289.247 88.2663 290.266 86.1379C291.409 83.7508 289.886 81.0153 287.596 79.7017C286.027 78.8022 283.029 77.7702 281.301 77.2109C279.271 76.5541 276.982 77.2784 275.858 79.1004Z" fill="#263238"/>
<path d="M285.81 87.6737C285.655 86.908 284.913 86.413 284.152 86.5672C283.104 86.8004 282.72 88.27 282.783 89.2109C282.869 90.2513 283.678 90.9692 284.569 90.3213C285.236 89.8238 285.68 89.0816 285.807 88.256C285.848 88.0643 285.85 87.8661 285.81 87.6737Z" fill="#E5E5D4"/>
<path d="M277.627 87.2501C277.738 87.6661 277.607 88.0643 277.332 88.1407C277.057 88.2172 276.752 87.9368 276.644 87.5132C276.536 87.0896 276.664 86.6997 276.934 86.6252C277.203 86.5513 277.513 86.8297 277.627 87.2501Z" fill="#263238"/>
<path d="M273.836 88.6123C273.947 89.0283 273.815 89.4271 273.545 89.5017C273.275 89.5762 272.965 89.2972 272.852 88.8754C272.74 88.4537 272.875 88.0607 273.144 87.9868C273.413 87.9122 273.728 88.1881 273.836 88.6123Z" fill="#263238"/>
<path d="M273.269 87.9775L272.194 87.959C272.194 87.959 272.914 88.603 273.269 87.9775Z" fill="#263238"/>
<path d="M278.424 85.3641C278.457 85.3462 278.485 85.3214 278.506 85.2915C278.569 85.1933 278.541 85.0627 278.444 84.9997C278.443 84.999 278.441 84.9984 278.44 84.9978C277.78 84.5455 276.942 84.4454 276.193 84.7296C276.09 84.7799 276.044 84.9028 276.089 85.0092C276.136 85.1131 276.257 85.1609 276.362 85.1163C276.983 84.892 277.674 84.9812 278.218 85.3558C278.28 85.394 278.359 85.3972 278.424 85.3641Z" fill="#263238"/>
<path d="M272.032 87.6454C272.06 87.6212 272.082 87.5906 272.096 87.5562C272.327 86.9364 272.839 86.4643 273.473 86.2866C273.587 86.2656 273.662 86.1554 273.642 86.0407C273.642 86.0394 273.641 86.0382 273.641 86.0382C273.616 85.9235 273.505 85.8509 273.39 85.8732C272.617 86.0796 271.988 86.6478 271.702 87.4008C271.655 87.5072 271.702 87.6321 271.807 87.6798C271.883 87.713 271.971 87.6996 272.032 87.6454Z" fill="#263238"/>
<path d="M277.059 86.6161L275.984 86.5977C275.984 86.5977 276.706 87.2404 277.059 86.6161Z" fill="#263238"/>
<path d="M271.451 89.999C271.938 92.6128 274.058 96.2262 276.318 97.613C274.796 98.7686 272.071 97.4608 270.467 96.437C268.865 95.4146 267.878 93.5811 267.599 91.6904C267.321 89.8028 267.689 87.8649 268.35 86.0773C269.438 83.1341 271.506 80.7936 273.94 78.8379C274.427 78.4461 275.255 78.1314 275.573 78.6691C275.791 79.0385 275.541 79.501 275.298 79.8559C272.948 83.2845 271.104 85.6747 271.451 89.999Z" fill="#263238"/>
<path d="M283.256 94.7821C283.244 94.7821 283.231 94.7802 283.218 94.7776C283.133 94.7566 283.081 94.67 283.102 94.5846C284.799 87.7076 277.439 82.459 275.143 81.0148C275.068 80.9677 275.046 80.8695 275.093 80.795C275.14 80.7205 275.239 80.6988 275.312 80.7447C277.654 82.2182 285.159 87.5764 283.41 94.6611C283.392 94.7337 283.328 94.7821 283.256 94.7821Z" fill="#263238"/>
<path d="M284.546 89.7988L284.406 92.2298L285.053 92.7624L285.37 92.017L284.546 89.7988Z" fill="#66805D"/>
<path d="M295.26 97.0912C294.229 96.844 293.119 97.1249 292.387 97.8945C291.582 98.7424 291.077 99.928 290.925 101.115C290.691 102.951 291.15 104.807 291.65 106.597C292.15 108.391 292.702 110.213 292.652 112.08C294.6 111.011 297.43 108.881 300.152 108.614C299.776 104.271 299.275 101.382 298.434 99.9452C297.951 99.1202 297.452 98.2761 296.712 97.6785C296.383 97.4123 295.802 97.2218 295.26 97.0912Z" fill="#66805D"/>
<g opacity="0.1">
<path d="M295.26 97.0912C294.229 96.844 293.119 97.1249 292.387 97.8945C291.582 98.7424 291.077 99.928 290.925 101.115C290.691 102.951 291.15 104.807 291.65 106.597C292.15 108.391 292.702 110.213 292.652 112.08C294.6 111.011 297.43 108.881 300.152 108.614C299.776 104.271 299.275 101.382 298.434 99.9452C297.951 99.1202 297.452 98.2761 296.712 97.6785C296.383 97.4123 295.802 97.2218 295.26 97.0912Z" fill="white"/>
</g>
<path d="M248.91 117.543C248.91 117.543 244.109 118.338 244.047 118.555C243.986 118.772 244.007 121.479 244.007 121.479L248.321 119.843L248.91 117.543Z" fill="#E5E5D4"/>
<path d="M244.008 121.479L239.951 117.65L241.764 117.123L244.772 118.758L244.008 121.479Z" fill="#E5E5D4"/>
<path d="M12.6963 288.2C11.4163 288.2 10.3696 288.02 9.55625 287.66C8.74292 287.287 8.13625 286.773 7.73625 286.12C7.34958 285.453 7.15625 284.693 7.15625 283.84V283.5H9.27625V283.72C9.27625 284.267 9.36958 284.727 9.55625 285.1C9.75625 285.473 10.1096 285.753 10.6163 285.94C11.1229 286.127 11.8496 286.22 12.7963 286.22C13.7829 286.22 14.4763 286.08 14.8763 285.8C15.2763 285.507 15.4763 285.053 15.4763 284.44C15.4763 284.027 15.4163 283.693 15.2963 283.44C15.1763 283.187 14.9363 282.98 14.5763 282.82C14.2296 282.647 13.7096 282.493 13.0163 282.36L10.7363 281.9C9.96292 281.753 9.31625 281.527 8.79625 281.22C8.27625 280.9 7.87625 280.493 7.59625 280C7.32958 279.507 7.19625 278.913 7.19625 278.22C7.19625 277.553 7.36958 276.933 7.71625 276.36C8.07625 275.773 8.62292 275.3 9.35625 274.94C10.1029 274.58 11.0496 274.4 12.1963 274.4C13.4229 274.4 14.4163 274.607 15.1763 275.02C15.9496 275.433 16.5096 275.98 16.8563 276.66C17.2163 277.327 17.3963 278.06 17.3963 278.86V279.1H15.2563V278.88C15.2563 278.32 15.1629 277.86 14.9763 277.5C14.8029 277.127 14.4829 276.847 14.0163 276.66C13.5629 276.46 12.9429 276.36 12.1563 276.36C11.1696 276.36 10.4563 276.507 10.0163 276.8C9.57625 277.093 9.35625 277.533 9.35625 278.12C9.35625 278.52 9.42292 278.84 9.55625 279.08C9.70292 279.32 9.94958 279.513 10.2963 279.66C10.6563 279.793 11.1363 279.933 11.7363 280.08L14.0163 280.56C14.8696 280.72 15.5563 280.973 16.0763 281.32C16.6096 281.667 17.0029 282.093 17.2563 282.6C17.5096 283.093 17.6363 283.68 17.6363 284.36C17.6363 285.053 17.4629 285.693 17.1163 286.28C16.7696 286.867 16.2296 287.333 15.4963 287.68C14.7763 288.027 13.8429 288.2 12.6963 288.2ZM28.5466 288H26.3866V282.22C26.3866 281.34 26.2132 280.707 25.8666 280.32C25.5332 279.92 24.9132 279.72 24.0066 279.72C23.1399 279.72 22.4932 279.913 22.0666 280.3C21.6532 280.673 21.4466 281.333 21.4466 282.28H21.0666L21.0466 279.72H21.5266C21.6866 279.413 21.9066 279.12 22.1866 278.84C22.4799 278.547 22.8466 278.313 23.2866 278.14C23.7399 277.953 24.2599 277.86 24.8466 277.86C25.7266 277.86 26.4332 278.033 26.9666 278.38C27.5132 278.713 27.9132 279.173 28.1666 279.76C28.4199 280.347 28.5466 281.007 28.5466 281.74V288ZM21.4466 288H19.2866V274.6H21.4466V288ZM39.0542 288H37.0542V286.04L36.9942 285.5V281.68C36.9942 280.933 36.8142 280.427 36.4542 280.16C36.1076 279.893 35.5409 279.76 34.7542 279.76C33.9676 279.76 33.4009 279.9 33.0542 280.18C32.7209 280.46 32.5542 280.927 32.5542 281.58V281.88H30.4742V281.68C30.4742 280.933 30.6542 280.273 31.0142 279.7C31.3876 279.127 31.9009 278.68 32.5542 278.36C33.2209 278.027 33.9942 277.86 34.8742 277.86C35.8076 277.86 36.5809 278.033 37.1942 278.38C37.8076 278.727 38.2676 279.207 38.5742 279.82C38.8942 280.42 39.0542 281.133 39.0542 281.96V288ZM33.3542 288.2C32.4609 288.2 31.7076 287.973 31.0942 287.52C30.4942 287.053 30.1942 286.393 30.1942 285.54C30.1942 284.98 30.3209 284.513 30.5742 284.14C30.8409 283.767 31.2209 283.46 31.7142 283.22C32.2076 282.98 32.8076 282.813 33.5142 282.72L37.1942 282.2V283.72L33.8342 284.22C33.2609 284.3 32.8609 284.42 32.6342 284.58C32.4076 284.74 32.2942 285.007 32.2942 285.38C32.2942 285.767 32.4276 286.047 32.6942 286.22C32.9742 286.393 33.4276 286.48 34.0542 286.48C34.5342 286.48 34.9942 286.407 35.4342 286.26C35.8876 286.1 36.2609 285.84 36.5542 285.48C36.8476 285.107 36.9942 284.587 36.9942 283.92L37.2742 286.46L36.9542 286.44C36.7676 286.747 36.5076 287.033 36.1742 287.3C35.8542 287.567 35.4609 287.787 34.9942 287.96C34.5276 288.12 33.9809 288.2 33.3542 288.2ZM43.2825 288H41.1225V278H43.1025V280.78L43.2825 280.88V288ZM43.2825 281.52H42.7825V279.58H43.2025C43.4025 279.113 43.7292 278.713 44.1825 278.38C44.6492 278.033 45.2492 277.86 45.9825 277.86C46.6892 277.86 47.2492 278.013 47.6625 278.32C48.0892 278.627 48.3958 279.033 48.5825 279.54C48.7692 280.047 48.8625 280.613 48.8625 281.24V281.9H46.7025V281.5C46.7025 280.833 46.5892 280.367 46.3625 280.1C46.1358 279.833 45.7092 279.7 45.0825 279.7C44.4292 279.7 43.9625 279.84 43.6825 280.12C43.4158 280.387 43.2825 280.853 43.2825 281.52ZM54.6636 288.2C53.5836 288.2 52.6836 287.987 51.9636 287.56C51.2436 287.12 50.7103 286.513 50.3636 285.74C50.0169 284.953 49.8436 284.047 49.8436 283.02C49.8436 281.993 50.0369 281.093 50.4236 280.32C50.8236 279.547 51.3836 278.947 52.1036 278.52C52.8236 278.08 53.6769 277.86 54.6636 277.86C55.5569 277.86 56.3436 278.033 57.0236 278.38C57.7169 278.713 58.2503 279.2 58.6236 279.84C59.0103 280.48 59.2036 281.253 59.2036 282.16C59.2036 282.427 59.1903 282.687 59.1636 282.94C59.1503 283.18 59.1303 283.38 59.1036 283.54H50.8636V282.1H57.3436L57.1236 282.3C57.1769 281.687 57.1103 281.187 56.9236 280.8C56.7503 280.413 56.4636 280.127 56.0636 279.94C55.6769 279.753 55.1903 279.66 54.6036 279.66C53.5503 279.66 52.8303 279.927 52.4436 280.46C52.0569 280.98 51.8636 281.7 51.8636 282.62V283.22C51.8636 283.887 51.9436 284.453 52.1036 284.92C52.2769 285.373 52.5703 285.713 52.9836 285.94C53.3969 286.167 53.9636 286.28 54.6836 286.28C55.5236 286.28 56.1169 286.147 56.4636 285.88C56.8103 285.613 56.9836 285.26 56.9836 284.82V284.66H59.1236V284.84C59.1236 285.52 58.9369 286.113 58.5636 286.62C58.1903 287.113 57.6703 287.5 57.0036 287.78C56.3503 288.06 55.5703 288.2 54.6636 288.2ZM66.4944 291.4C66.2277 291.4 65.9544 291.38 65.6744 291.34C65.3944 291.313 65.1677 291.273 64.9944 291.22V289.46H66.3744C66.7877 289.46 67.0944 289.4 67.2944 289.28C67.4944 289.173 67.681 288.94 67.8544 288.58L68.4744 287.18L68.2944 287.88L63.9944 278.06H66.3744L68.3744 282.88L69.2744 285.04H69.4544L70.2544 282.88L72.0744 278.06H74.4744L69.7544 289.16C69.5144 289.76 69.241 290.22 68.9344 290.54C68.6277 290.86 68.2744 291.08 67.8744 291.2C67.4877 291.333 67.0277 291.4 66.4944 291.4ZM79.6669 288.2C78.6535 288.2 77.7735 287.987 77.0269 287.56C76.2802 287.12 75.7069 286.513 75.3069 285.74C74.9069 284.953 74.7069 284.047 74.7069 283.02C74.7069 281.993 74.9069 281.093 75.3069 280.32C75.7069 279.547 76.2802 278.947 77.0269 278.52C77.7735 278.08 78.6535 277.86 79.6669 277.86C80.6802 277.86 81.5469 278.08 82.2669 278.52C83.0002 278.947 83.5602 279.547 83.9469 280.32C84.3469 281.093 84.5469 281.993 84.5469 283.02C84.5469 284.047 84.3469 284.953 83.9469 285.74C83.5602 286.513 83.0002 287.12 82.2669 287.56C81.5469 287.987 80.6802 288.2 79.6669 288.2ZM79.6669 286.28C80.7069 286.28 81.4335 286.02 81.8469 285.5C82.2602 284.967 82.4669 284.14 82.4669 283.02C82.4669 281.9 82.2602 281.08 81.8469 280.56C81.4335 280.04 80.7069 279.78 79.6669 279.78C78.6135 279.78 77.8802 280.04 77.4669 280.56C77.0535 281.08 76.8469 281.9 76.8469 283.02C76.8469 284.14 77.0535 284.967 77.4669 285.5C77.8802 286.02 78.6135 286.28 79.6669 286.28ZM89.8616 288.2C89.0082 288.2 88.3016 288.027 87.7416 287.68C87.1816 287.32 86.7682 286.84 86.5016 286.24C86.2349 285.627 86.1016 284.947 86.1016 284.2V278.06H88.2616V283.8C88.2616 284.693 88.4482 285.34 88.8216 285.74C89.1949 286.14 89.8082 286.34 90.6616 286.34C91.2216 286.34 91.6949 286.253 92.0816 286.08C92.4682 285.893 92.7616 285.607 92.9616 285.22C93.1616 284.82 93.2616 284.3 93.2616 283.66H93.8216V286.02H93.3416C93.1949 286.393 92.9682 286.747 92.6616 287.08C92.3682 287.413 91.9882 287.687 91.5216 287.9C91.0682 288.1 90.5149 288.2 89.8616 288.2ZM95.4216 288H93.4216V285.02L93.2616 284.92V278.06H95.4216V288ZM99.7083 288H97.5483V278H99.5283V280.78L99.7083 280.88V288ZM99.7083 281.52H99.2083V279.58H99.6283C99.8283 279.113 100.155 278.713 100.608 278.38C101.075 278.033 101.675 277.86 102.408 277.86C103.115 277.86 103.675 278.013 104.088 278.32C104.515 278.627 104.822 279.033 105.008 279.54C105.195 280.047 105.288 280.613 105.288 281.24V281.9H103.128V281.5C103.128 280.833 103.015 280.367 102.788 280.1C102.562 279.833 102.135 279.7 101.508 279.7C100.855 279.7 100.388 279.84 100.108 280.12C99.8416 280.387 99.7083 280.853 99.7083 281.52ZM115.036 288.22C113.996 288.22 113.116 288 112.396 287.56C111.676 287.12 111.122 286.513 110.736 285.74C110.362 284.967 110.176 284.067 110.176 283.04C110.176 282.013 110.369 281.113 110.756 280.34C111.156 279.553 111.722 278.947 112.456 278.52C113.189 278.08 114.076 277.86 115.116 277.86C115.996 277.86 116.769 278.027 117.436 278.36C118.102 278.693 118.616 279.16 118.976 279.76C119.349 280.36 119.536 281.06 119.536 281.86V282.04H117.396V281.92C117.396 281.187 117.196 280.653 116.796 280.32C116.409 279.973 115.802 279.8 114.976 279.8C114.016 279.8 113.329 280.073 112.916 280.62C112.516 281.153 112.316 281.953 112.316 283.02C112.316 284.1 112.516 284.913 112.916 285.46C113.329 285.993 114.016 286.26 114.976 286.26C115.802 286.26 116.409 286.093 116.796 285.76C117.196 285.413 117.396 284.88 117.396 284.16V284.04H119.536V284.22C119.536 284.993 119.349 285.687 118.976 286.3C118.602 286.9 118.076 287.373 117.396 287.72C116.729 288.053 115.942 288.22 115.036 288.22ZM125.819 288.2C124.806 288.2 123.926 287.987 123.179 287.56C122.433 287.12 121.859 286.513 121.459 285.74C121.059 284.953 120.859 284.047 120.859 283.02C120.859 281.993 121.059 281.093 121.459 280.32C121.859 279.547 122.433 278.947 123.179 278.52C123.926 278.08 124.806 277.86 125.819 277.86C126.833 277.86 127.699 278.08 128.419 278.52C129.153 278.947 129.713 279.547 130.099 280.32C130.499 281.093 130.699 281.993 130.699 283.02C130.699 284.047 130.499 284.953 130.099 285.74C129.713 286.513 129.153 287.12 128.419 287.56C127.699 287.987 126.833 288.2 125.819 288.2ZM125.819 286.28C126.859 286.28 127.586 286.02 127.999 285.5C128.413 284.967 128.619 284.14 128.619 283.02C128.619 281.9 128.413 281.08 127.999 280.56C127.586 280.04 126.859 279.78 125.819 279.78C124.766 279.78 124.033 280.04 123.619 280.56C123.206 281.08 122.999 281.9 122.999 283.02C122.999 284.14 123.206 284.967 123.619 285.5C124.033 286.02 124.766 286.28 125.819 286.28ZM148.274 288H146.114V282.22C146.114 281.34 145.947 280.707 145.614 280.32C145.294 279.92 144.681 279.72 143.774 279.72C142.961 279.72 142.354 279.913 141.954 280.3C141.567 280.673 141.374 281.313 141.374 282.22L140.994 282.26L140.814 279.92H141.134C141.294 279.573 141.514 279.247 141.794 278.94C142.087 278.62 142.461 278.36 142.914 278.16C143.367 277.96 143.921 277.86 144.574 277.86C145.441 277.86 146.141 278.027 146.674 278.36C147.221 278.693 147.621 279.153 147.874 279.74C148.141 280.327 148.274 281 148.274 281.76V288ZM134.474 288H132.314V278.06H134.294V281.04L134.474 281.14V288ZM141.374 288H139.214V282.22C139.214 281.34 139.047 280.707 138.714 280.32C138.394 279.92 137.781 279.72 136.874 279.72C136.061 279.72 135.454 279.907 135.054 280.28C134.667 280.653 134.474 281.293 134.474 282.2L134.094 282.26L133.914 279.92H134.394C134.541 279.56 134.754 279.227 135.034 278.92C135.327 278.613 135.701 278.36 136.154 278.16C136.607 277.96 137.147 277.86 137.774 277.86C138.614 277.86 139.294 278.027 139.814 278.36C140.347 278.693 140.741 279.153 140.994 279.74C141.247 280.327 141.374 281 141.374 281.76V288ZM155.781 288.2C154.888 288.2 154.161 288.027 153.601 287.68C153.055 287.32 152.675 286.913 152.461 286.46H151.921L152.021 283.92H152.401C152.401 284.467 152.501 284.92 152.701 285.28C152.915 285.64 153.228 285.913 153.641 286.1C154.055 286.273 154.548 286.36 155.121 286.36C155.588 286.36 155.995 286.3 156.341 286.18C156.688 286.06 156.968 285.873 157.181 285.62C157.408 285.367 157.568 285.027 157.661 284.6C157.768 284.16 157.821 283.633 157.821 283.02C157.821 282.407 157.768 281.893 157.661 281.48C157.568 281.053 157.408 280.707 157.181 280.44C156.968 280.173 156.688 279.987 156.341 279.88C156.008 279.76 155.601 279.7 155.121 279.7C154.548 279.7 154.055 279.793 153.641 279.98C153.228 280.153 152.915 280.42 152.701 280.78C152.501 281.127 152.401 281.58 152.401 282.14H152.021L151.921 279.7H152.321C152.561 279.127 152.955 278.68 153.501 278.36C154.061 278.027 154.775 277.86 155.641 277.86C157.041 277.86 158.115 278.327 158.861 279.26C159.608 280.193 159.981 281.447 159.981 283.02C159.981 284.593 159.621 285.853 158.901 286.8C158.181 287.733 157.141 288.2 155.781 288.2ZM152.401 291.46H150.261V278.06H152.221V280.42L152.401 280.68V291.46ZM170.207 288H168.207V286.04L168.147 285.5V281.68C168.147 280.933 167.967 280.427 167.607 280.16C167.26 279.893 166.693 279.76 165.907 279.76C165.12 279.76 164.553 279.9 164.207 280.18C163.873 280.46 163.707 280.927 163.707 281.58V281.88H161.627V281.68C161.627 280.933 161.807 280.273 162.167 279.7C162.54 279.127 163.053 278.68 163.707 278.36C164.373 278.027 165.147 277.86 166.027 277.86C166.96 277.86 167.733 278.033 168.347 278.38C168.96 278.727 169.42 279.207 169.727 279.82C170.047 280.42 170.207 281.133 170.207 281.96V288ZM164.507 288.2C163.613 288.2 162.86 287.973 162.247 287.52C161.647 287.053 161.347 286.393 161.347 285.54C161.347 284.98 161.473 284.513 161.727 284.14C161.993 283.767 162.373 283.46 162.867 283.22C163.36 282.98 163.96 282.813 164.667 282.72L168.347 282.2V283.72L164.987 284.22C164.413 284.3 164.013 284.42 163.787 284.58C163.56 284.74 163.447 285.007 163.447 285.38C163.447 285.767 163.58 286.047 163.847 286.22C164.127 286.393 164.58 286.48 165.207 286.48C165.687 286.48 166.147 286.407 166.587 286.26C167.04 286.1 167.413 285.84 167.707 285.48C168 285.107 168.147 284.587 168.147 283.92L168.427 286.46L168.107 286.44C167.92 286.747 167.66 287.033 167.327 287.3C167.007 287.567 166.613 287.787 166.147 287.96C165.68 288.12 165.133 288.2 164.507 288.2ZM181.535 288H179.375V282.22C179.375 281.34 179.208 280.707 178.875 280.32C178.542 279.92 177.915 279.72 176.995 279.72C176.408 279.72 175.928 279.807 175.555 279.98C175.182 280.14 174.902 280.407 174.715 280.78C174.528 281.14 174.435 281.633 174.435 282.26H174.055L173.875 279.92H174.355C174.502 279.56 174.722 279.227 175.015 278.92C175.308 278.613 175.682 278.36 176.135 278.16C176.602 277.96 177.155 277.86 177.795 277.86C178.662 277.86 179.368 278.027 179.915 278.36C180.462 278.693 180.868 279.153 181.135 279.74C181.402 280.327 181.535 281 181.535 281.76V288ZM174.435 288H172.275V278.06H174.255V281.04L174.435 281.14V288ZM184.756 291.4C184.489 291.4 184.216 291.38 183.936 291.34C183.656 291.313 183.429 291.273 183.256 291.22V289.46H184.636C185.049 289.46 185.356 289.4 185.556 289.28C185.756 289.173 185.943 288.94 186.116 288.58L186.736 287.18L186.556 287.88L182.256 278.06H184.636L186.636 282.88L187.536 285.04H187.716L188.516 282.88L190.336 278.06H192.736L188.016 289.16C187.776 289.76 187.503 290.22 187.196 290.54C186.889 290.86 186.536 291.08 186.136 291.2C185.749 291.333 185.289 291.4 184.756 291.4ZM201.743 288.2C200.33 288.2 199.243 287.733 198.483 286.8C197.736 285.853 197.363 284.593 197.363 283.02C197.363 281.447 197.73 280.193 198.463 279.26C199.21 278.327 200.263 277.86 201.623 277.86C202.503 277.86 203.21 278.04 203.743 278.4C204.29 278.747 204.67 279.147 204.883 279.6H205.423L205.323 282.14H204.943C204.943 281.58 204.836 281.12 204.623 280.76C204.41 280.4 204.103 280.133 203.703 279.96C203.303 279.787 202.81 279.7 202.223 279.7C201.743 279.7 201.33 279.76 200.983 279.88C200.65 280 200.37 280.187 200.143 280.44C199.93 280.693 199.77 281.033 199.663 281.46C199.57 281.887 199.523 282.407 199.523 283.02C199.523 283.62 199.57 284.14 199.663 284.58C199.77 285.007 199.93 285.353 200.143 285.62C200.37 285.873 200.656 286.06 201.003 286.18C201.35 286.3 201.756 286.36 202.223 286.36C202.81 286.36 203.303 286.273 203.703 286.1C204.103 285.913 204.41 285.64 204.623 285.28C204.836 284.92 204.943 284.467 204.943 283.92H205.323L205.423 286.36H205.023C204.796 286.933 204.403 287.387 203.843 287.72C203.296 288.04 202.596 288.2 201.743 288.2ZM207.103 288H205.103V285.64L204.943 285.38V274.6H207.103V288ZM213.57 288.2C212.49 288.2 211.59 287.987 210.87 287.56C210.15 287.12 209.617 286.513 209.27 285.74C208.923 284.953 208.75 284.047 208.75 283.02C208.75 281.993 208.943 281.093 209.33 280.32C209.73 279.547 210.29 278.947 211.01 278.52C211.73 278.08 212.583 277.86 213.57 277.86C214.463 277.86 215.25 278.033 215.93 278.38C216.623 278.713 217.157 279.2 217.53 279.84C217.917 280.48 218.11 281.253 218.11 282.16C218.11 282.427 218.097 282.687 218.07 282.94C218.057 283.18 218.037 283.38 218.01 283.54H209.77V282.1H216.25L216.03 282.3C216.083 281.687 216.017 281.187 215.83 280.8C215.657 280.413 215.37 280.127 214.97 279.94C214.583 279.753 214.097 279.66 213.51 279.66C212.457 279.66 211.737 279.927 211.35 280.46C210.963 280.98 210.77 281.7 210.77 282.62V283.22C210.77 283.887 210.85 284.453 211.01 284.92C211.183 285.373 211.477 285.713 211.89 285.94C212.303 286.167 212.87 286.28 213.59 286.28C214.43 286.28 215.023 286.147 215.37 285.88C215.717 285.613 215.89 285.26 215.89 284.82V284.66H218.03V284.84C218.03 285.52 217.843 286.113 217.47 286.62C217.097 287.113 216.577 287.5 215.91 287.78C215.257 288.06 214.477 288.2 213.57 288.2ZM223.896 288C222.802 288 221.962 287.767 221.376 287.3C220.802 286.833 220.516 286.047 220.516 284.94V278.28L221.016 275.6H222.676V284.84C222.676 285.36 222.802 285.693 223.056 285.84C223.322 285.973 223.796 286.04 224.476 286.04H225.676V287.82C225.476 287.873 225.216 287.92 224.896 287.96C224.576 287.987 224.242 288 223.896 288ZM225.676 279.86H218.856V278.06H225.676V279.86ZM235.519 288H233.519V286.04L233.459 285.5V281.68C233.459 280.933 233.279 280.427 232.919 280.16C232.572 279.893 232.006 279.76 231.219 279.76C230.432 279.76 229.866 279.9 229.519 280.18C229.186 280.46 229.019 280.927 229.019 281.58V281.88H226.939V281.68C226.939 280.933 227.119 280.273 227.479 279.7C227.852 279.127 228.366 278.68 229.019 278.36C229.686 278.027 230.459 277.86 231.339 277.86C232.272 277.86 233.046 278.033 233.659 278.38C234.272 278.727 234.732 279.207 235.039 279.82C235.359 280.42 235.519 281.133 235.519 281.96V288ZM229.819 288.2C228.926 288.2 228.172 287.973 227.559 287.52C226.959 287.053 226.659 286.393 226.659 285.54C226.659 284.98 226.786 284.513 227.039 284.14C227.306 283.767 227.686 283.46 228.179 283.22C228.672 282.98 229.272 282.813 229.979 282.72L233.659 282.2V283.72L230.299 284.22C229.726 284.3 229.326 284.42 229.099 284.58C228.872 284.74 228.759 285.007 228.759 285.38C228.759 285.767 228.892 286.047 229.159 286.22C229.439 286.393 229.892 286.48 230.519 286.48C230.999 286.48 231.459 286.407 231.899 286.26C232.352 286.1 232.726 285.84 233.019 285.48C233.312 285.107 233.459 284.587 233.459 283.92L233.739 286.46L233.419 286.44C233.232 286.747 232.972 287.033 232.639 287.3C232.319 287.567 231.926 287.787 231.459 287.96C230.992 288.12 230.446 288.2 229.819 288.2ZM239.607 276.8H237.467L237.447 274.6H239.607V276.8ZM239.627 288H237.467V278H239.627V288ZM243.771 288H241.611V274.6H243.771V288ZM250.01 288.2C248.556 288.2 247.456 287.913 246.71 287.34C245.963 286.753 245.59 285.853 245.59 284.64V284.6H247.67V284.96C247.67 285.307 247.736 285.593 247.87 285.82C248.016 286.033 248.256 286.193 248.59 286.3C248.936 286.393 249.423 286.44 250.05 286.44C250.583 286.44 250.983 286.4 251.25 286.32C251.53 286.227 251.716 286.1 251.81 285.94C251.903 285.78 251.95 285.58 251.95 285.34C251.95 284.94 251.81 284.66 251.53 284.5C251.25 284.327 250.75 284.173 250.03 284.04L248.47 283.78C247.883 283.66 247.37 283.493 246.93 283.28C246.503 283.053 246.17 282.747 245.93 282.36C245.703 281.96 245.59 281.46 245.59 280.86C245.59 279.967 245.943 279.247 246.65 278.7C247.356 278.14 248.356 277.86 249.65 277.86C250.436 277.86 251.136 277.987 251.75 278.24C252.363 278.493 252.85 278.873 253.21 279.38C253.57 279.887 253.75 280.52 253.75 281.28V281.46H251.69V281.22C251.69 280.9 251.636 280.627 251.53 280.4C251.423 280.16 251.223 279.973 250.93 279.84C250.636 279.707 250.19 279.64 249.59 279.64C248.803 279.64 248.283 279.74 248.03 279.94C247.776 280.14 247.65 280.433 247.65 280.82C247.65 281.207 247.763 281.48 247.99 281.64C248.23 281.787 248.696 281.933 249.39 282.08L251.09 282.4C251.73 282.52 252.263 282.7 252.69 282.94C253.116 283.18 253.436 283.493 253.65 283.88C253.876 284.267 253.99 284.727 253.99 285.26C253.99 286.193 253.636 286.92 252.93 287.44C252.236 287.947 251.263 288.2 250.01 288.2ZM263.661 288C262.568 288 261.728 287.767 261.141 287.3C260.568 286.833 260.281 286.047 260.281 284.94V278.28L260.781 275.6H262.441V284.84C262.441 285.36 262.568 285.693 262.821 285.84C263.088 285.973 263.561 286.04 264.241 286.04H265.441V287.82C265.241 287.873 264.981 287.92 264.661 287.96C264.341 287.987 264.008 288 263.661 288ZM265.441 279.86H258.621V278.06H265.441V279.86ZM271.112 288.2C270.099 288.2 269.219 287.987 268.472 287.56C267.726 287.12 267.152 286.513 266.752 285.74C266.352 284.953 266.152 284.047 266.152 283.02C266.152 281.993 266.352 281.093 266.752 280.32C267.152 279.547 267.726 278.947 268.472 278.52C269.219 278.08 270.099 277.86 271.112 277.86C272.126 277.86 272.992 278.08 273.712 278.52C274.446 278.947 275.006 279.547 275.392 280.32C275.792 281.093 275.992 281.993 275.992 283.02C275.992 284.047 275.792 284.953 275.392 285.74C275.006 286.513 274.446 287.12 273.712 287.56C272.992 287.987 272.126 288.2 271.112 288.2ZM271.112 286.28C272.152 286.28 272.879 286.02 273.292 285.5C273.706 284.967 273.912 284.14 273.912 283.02C273.912 281.9 273.706 281.08 273.292 280.56C272.879 280.04 272.152 279.78 271.112 279.78C270.059 279.78 269.326 280.04 268.912 280.56C268.499 281.08 268.292 281.9 268.292 283.02C268.292 284.14 268.499 284.967 268.912 285.5C269.326 286.02 270.059 286.28 271.112 286.28ZM285.934 288.22C284.894 288.22 284.014 288 283.294 287.56C282.574 287.12 282.021 286.513 281.634 285.74C281.261 284.967 281.074 284.067 281.074 283.04C281.074 282.013 281.267 281.113 281.654 280.34C282.054 279.553 282.621 278.947 283.354 278.52C284.087 278.08 284.974 277.86 286.014 277.86C286.894 277.86 287.667 278.027 288.334 278.36C289.001 278.693 289.514 279.16 289.874 279.76C290.247 280.36 290.434 281.06 290.434 281.86V282.04H288.294V281.92C288.294 281.187 288.094 280.653 287.694 280.32C287.307 279.973 286.701 279.8 285.874 279.8C284.914 279.8 284.227 280.073 283.814 280.62C283.414 281.153 283.214 281.953 283.214 283.02C283.214 284.1 283.414 284.913 283.814 285.46C284.227 285.993 284.914 286.26 285.874 286.26C286.701 286.26 287.307 286.093 287.694 285.76C288.094 285.413 288.294 284.88 288.294 284.16V284.04H290.434V284.22C290.434 284.993 290.247 285.687 289.874 286.3C289.501 286.9 288.974 287.373 288.294 287.72C287.627 288.053 286.841 288.22 285.934 288.22ZM296.718 288.2C295.704 288.2 294.824 287.987 294.078 287.56C293.331 287.12 292.758 286.513 292.358 285.74C291.958 284.953 291.758 284.047 291.758 283.02C291.758 281.993 291.958 281.093 292.358 280.32C292.758 279.547 293.331 278.947 294.078 278.52C294.824 278.08 295.704 277.86 296.718 277.86C297.731 277.86 298.598 278.08 299.318 278.52C300.051 278.947 300.611 279.547 300.998 280.32C301.398 281.093 301.598 281.993 301.598 283.02C301.598 284.047 301.398 284.953 300.998 285.74C300.611 286.513 300.051 287.12 299.318 287.56C298.598 287.987 297.731 288.2 296.718 288.2ZM296.718 286.28C297.758 286.28 298.484 286.02 298.898 285.5C299.311 284.967 299.518 284.14 299.518 283.02C299.518 281.9 299.311 281.08 298.898 280.56C298.484 280.04 297.758 279.78 296.718 279.78C295.664 279.78 294.931 280.04 294.518 280.56C294.104 281.08 293.898 281.9 293.898 283.02C293.898 284.14 294.104 284.967 294.518 285.5C294.931 286.02 295.664 286.28 296.718 286.28ZM312.472 288H310.312V282.22C310.312 281.34 310.146 280.707 309.812 280.32C309.479 279.92 308.852 279.72 307.932 279.72C307.346 279.72 306.866 279.807 306.492 279.98C306.119 280.14 305.839 280.407 305.652 280.78C305.466 281.14 305.372 281.633 305.372 282.26H304.992L304.812 279.92H305.292C305.439 279.56 305.659 279.227 305.952 278.92C306.246 278.613 306.619 278.36 307.072 278.16C307.539 277.96 308.092 277.86 308.732 277.86C309.599 277.86 310.306 278.027 310.852 278.36C311.399 278.693 311.806 279.153 312.072 279.74C312.339 280.327 312.472 281 312.472 281.76V288ZM305.372 288H303.212V278.06H305.192V281.04L305.372 281.14V288ZM323.8 288H321.64V282.22C321.64 281.34 321.474 280.707 321.14 280.32C320.807 279.92 320.18 279.72 319.26 279.72C318.674 279.72 318.194 279.807 317.82 279.98C317.447 280.14 317.167 280.407 316.98 280.78C316.794 281.14 316.7 281.633 316.7 282.26H316.32L316.14 279.92H316.62C316.767 279.56 316.987 279.227 317.28 278.92C317.574 278.613 317.947 278.36 318.4 278.16C318.867 277.96 319.42 277.86 320.06 277.86C320.927 277.86 321.634 278.027 322.18 278.36C322.727 278.693 323.134 279.153 323.4 279.74C323.667 280.327 323.8 281 323.8 281.76V288ZM316.7 288H314.54V278.06H316.52V281.04L316.7 281.14V288ZM330.25 288.2C329.17 288.2 328.27 287.987 327.55 287.56C326.83 287.12 326.296 286.513 325.95 285.74C325.603 284.953 325.43 284.047 325.43 283.02C325.43 281.993 325.623 281.093 326.01 280.32C326.41 279.547 326.97 278.947 327.69 278.52C328.41 278.08 329.263 277.86 330.25 277.86C331.143 277.86 331.93 278.033 332.61 278.38C333.303 278.713 333.836 279.2 334.21 279.84C334.596 280.48 334.79 281.253 334.79 282.16C334.79 282.427 334.776 282.687 334.75 282.94C334.736 283.18 334.716 283.38 334.69 283.54H326.45V282.1H332.93L332.71 282.3C332.763 281.687 332.696 281.187 332.51 280.8C332.336 280.413 332.05 280.127 331.65 279.94C331.263 279.753 330.776 279.66 330.19 279.66C329.136 279.66 328.416 279.927 328.03 280.46C327.643 280.98 327.45 281.7 327.45 282.62V283.22C327.45 283.887 327.53 284.453 327.69 284.92C327.863 285.373 328.156 285.713 328.57 285.94C328.983 286.167 329.55 286.28 330.27 286.28C331.11 286.28 331.703 286.147 332.05 285.88C332.396 285.613 332.57 285.26 332.57 284.82V284.66H334.71V284.84C334.71 285.52 334.523 286.113 334.15 286.62C333.776 287.113 333.256 287.5 332.59 287.78C331.936 288.06 331.156 288.2 330.25 288.2ZM341.071 288.22C340.031 288.22 339.151 288 338.431 287.56C337.711 287.12 337.157 286.513 336.771 285.74C336.397 284.967 336.211 284.067 336.211 283.04C336.211 282.013 336.404 281.113 336.791 280.34C337.191 279.553 337.757 278.947 338.491 278.52C339.224 278.08 340.111 277.86 341.151 277.86C342.031 277.86 342.804 278.027 343.471 278.36C344.137 278.693 344.651 279.16 345.011 279.76C345.384 280.36 345.571 281.06 345.571 281.86V282.04H343.431V281.92C343.431 281.187 343.231 280.653 342.831 280.32C342.444 279.973 341.837 279.8 341.011 279.8C340.051 279.8 339.364 280.073 338.951 280.62C338.551 281.153 338.351 281.953 338.351 283.02C338.351 284.1 338.551 284.913 338.951 285.46C339.364 285.993 340.051 286.26 341.011 286.26C341.837 286.26 342.444 286.093 342.831 285.76C343.231 285.413 343.431 284.88 343.431 284.16V284.04H345.571V284.22C345.571 284.993 345.384 285.687 345.011 286.3C344.637 286.9 344.111 287.373 343.431 287.72C342.764 288.053 341.977 288.22 341.071 288.22ZM351.259 288C350.166 288 349.326 287.767 348.739 287.3C348.166 286.833 347.879 286.047 347.879 284.94V278.28L348.379 275.6H350.039V284.84C350.039 285.36 350.166 285.693 350.419 285.84C350.686 285.973 351.159 286.04 351.839 286.04H353.039V287.82C352.839 287.873 352.579 287.92 352.259 287.96C351.939 287.987 351.606 288 351.259 288ZM353.039 279.86H346.219V278.06H353.039V279.86ZM362.73 288H359.91L357.45 278.06H359.79L360.93 283.58L361.35 286.2H361.51L362.15 283.58L363.89 278.06H366.69L368.45 283.6L369.09 286.18H369.23L369.65 283.6L370.79 278.06H373.05L370.59 288H367.77L365.99 282.46L365.33 279.96H365.19L364.53 282.46L362.73 288ZM376.111 276.8H373.971L373.951 274.6H376.111V276.8ZM376.131 288H373.971V278H376.131V288ZM382.197 288C381.103 288 380.263 287.767 379.677 287.3C379.103 286.833 378.817 286.047 378.817 284.94V278.28L379.317 275.6H380.977V284.84C380.977 285.36 381.103 285.693 381.357 285.84C381.623 285.973 382.097 286.04 382.777 286.04H383.977V287.82C383.777 287.873 383.517 287.92 383.197 287.96C382.877 287.987 382.543 288 382.197 288ZM383.977 279.86H377.157V278.06H383.977V279.86ZM394.777 288H392.617V282.22C392.617 281.34 392.444 280.707 392.097 280.32C391.764 279.92 391.144 279.72 390.237 279.72C389.37 279.72 388.724 279.913 388.297 280.3C387.884 280.673 387.677 281.333 387.677 282.28H387.297L387.277 279.72H387.757C387.917 279.413 388.137 279.12 388.417 278.84C388.71 278.547 389.077 278.313 389.517 278.14C389.97 277.953 390.49 277.86 391.077 277.86C391.957 277.86 392.664 278.033 393.197 278.38C393.744 278.713 394.144 279.173 394.397 279.76C394.65 280.347 394.777 281.007 394.777 281.74V288ZM387.677 288H385.517V274.6H387.677V288ZM161.542 313C160.449 313 159.609 312.767 159.022 312.3C158.449 311.833 158.162 311.047 158.162 309.94V303.28L158.662 300.6H160.322V309.84C160.322 310.36 160.449 310.693 160.702 310.84C160.969 310.973 161.442 311.04 162.122 311.04H163.322V312.82C163.122 312.873 162.862 312.92 162.542 312.96C162.222 312.987 161.889 313 161.542 313ZM163.322 304.86H156.502V303.06H163.322V304.86ZM168.993 313.2C167.98 313.2 167.1 312.987 166.353 312.56C165.606 312.12 165.033 311.513 164.633 310.74C164.233 309.953 164.033 309.047 164.033 308.02C164.033 306.993 164.233 306.093 164.633 305.32C165.033 304.547 165.606 303.947 166.353 303.52C167.1 303.08 167.98 302.86 168.993 302.86C170.006 302.86 170.873 303.08 171.593 303.52C172.326 303.947 172.886 304.547 173.273 305.32C173.673 306.093 173.873 306.993 173.873 308.02C173.873 309.047 173.673 309.953 173.273 310.74C172.886 311.513 172.326 312.12 171.593 312.56C170.873 312.987 170.006 313.2 168.993 313.2ZM168.993 311.28C170.033 311.28 170.76 311.02 171.173 310.5C171.586 309.967 171.793 309.14 171.793 308.02C171.793 306.9 171.586 306.08 171.173 305.56C170.76 305.04 170.033 304.78 168.993 304.78C167.94 304.78 167.206 305.04 166.793 305.56C166.38 306.08 166.173 306.9 166.173 308.02C166.173 309.14 166.38 309.967 166.793 310.5C167.206 311.02 167.94 311.28 168.993 311.28ZM180.928 313.2C180.034 313.2 179.308 313.027 178.748 312.68C178.201 312.32 177.821 311.913 177.608 311.46H177.068L177.168 308.92H177.548C177.548 309.467 177.648 309.92 177.848 310.28C178.061 310.64 178.374 310.913 178.788 311.1C179.201 311.273 179.694 311.36 180.268 311.36C180.734 311.36 181.141 311.3 181.488 311.18C181.834 311.06 182.114 310.873 182.328 310.62C182.554 310.367 182.714 310.027 182.808 309.6C182.914 309.16 182.968 308.633 182.968 308.02C182.968 307.407 182.914 306.893 182.808 306.48C182.714 306.053 182.554 305.707 182.328 305.44C182.114 305.173 181.834 304.987 181.488 304.88C181.154 304.76 180.748 304.7 180.268 304.7C179.694 304.7 179.201 304.793 178.788 304.98C178.374 305.153 178.061 305.42 177.848 305.78C177.648 306.127 177.548 306.58 177.548 307.14H177.168L177.068 304.7H177.468C177.708 304.127 178.101 303.68 178.648 303.36C179.208 303.027 179.921 302.86 180.788 302.86C182.188 302.86 183.261 303.327 184.008 304.26C184.754 305.193 185.128 306.447 185.128 308.02C185.128 309.593 184.768 310.853 184.048 311.8C183.328 312.733 182.288 313.2 180.928 313.2ZM177.548 316.46H175.408V303.06H177.368V305.42L177.548 305.68V316.46ZM194.882 313C193.789 313 192.949 312.767 192.362 312.3C191.789 311.833 191.502 311.047 191.502 309.94V303.28L192.002 300.6H193.662V309.84C193.662 310.36 193.789 310.693 194.042 310.84C194.309 310.973 194.782 311.04 195.462 311.04H196.662V312.82C196.462 312.873 196.202 312.92 195.882 312.96C195.562 312.987 195.229 313 194.882 313ZM196.662 304.86H189.842V303.06H196.662V304.86ZM206.505 313H204.505V311.04L204.445 310.5V306.68C204.445 305.933 204.265 305.427 203.905 305.16C203.559 304.893 202.992 304.76 202.205 304.76C201.419 304.76 200.852 304.9 200.505 305.18C200.172 305.46 200.005 305.927 200.005 306.58V306.88H197.925V306.68C197.925 305.933 198.105 305.273 198.465 304.7C198.839 304.127 199.352 303.68 200.005 303.36C200.672 303.027 201.445 302.86 202.325 302.86C203.259 302.86 204.032 303.033 204.645 303.38C205.259 303.727 205.719 304.207 206.025 304.82C206.345 305.42 206.505 306.133 206.505 306.96V313ZM200.805 313.2C199.912 313.2 199.159 312.973 198.545 312.52C197.945 312.053 197.645 311.393 197.645 310.54C197.645 309.98 197.772 309.513 198.025 309.14C198.292 308.767 198.672 308.46 199.165 308.22C199.659 307.98 200.259 307.813 200.965 307.72L204.645 307.2V308.72L201.285 309.22C200.712 309.3 200.312 309.42 200.085 309.58C199.859 309.74 199.745 310.007 199.745 310.38C199.745 310.767 199.879 311.047 200.145 311.22C200.425 311.393 200.879 311.48 201.505 311.48C201.985 311.48 202.445 311.407 202.885 311.26C203.339 311.1 203.712 310.84 204.005 310.48C204.299 310.107 204.445 309.587 204.445 308.92L204.725 311.46L204.405 311.44C204.219 311.747 203.959 312.033 203.625 312.3C203.305 312.567 202.912 312.787 202.445 312.96C201.979 313.12 201.432 313.2 200.805 313.2ZM210.734 313H208.574V299.6H210.734V313ZM217.193 313.2C216.113 313.2 215.213 312.987 214.493 312.56C213.773 312.12 213.24 311.513 212.893 310.74C212.546 309.953 212.373 309.047 212.373 308.02C212.373 306.993 212.566 306.093 212.953 305.32C213.353 304.547 213.913 303.947 214.633 303.52C215.353 303.08 216.206 302.86 217.193 302.86C218.086 302.86 218.873 303.033 219.553 303.38C220.246 303.713 220.78 304.2 221.153 304.84C221.54 305.48 221.733 306.253 221.733 307.16C221.733 307.427 221.72 307.687 221.693 307.94C221.68 308.18 221.66 308.38 221.633 308.54H213.393V307.1H219.873L219.653 307.3C219.706 306.687 219.64 306.187 219.453 305.8C219.28 305.413 218.993 305.127 218.593 304.94C218.206 304.753 217.72 304.66 217.133 304.66C216.08 304.66 215.36 304.927 214.973 305.46C214.586 305.98 214.393 306.7 214.393 307.62V308.22C214.393 308.887 214.473 309.453 214.633 309.92C214.806 310.373 215.1 310.713 215.513 310.94C215.926 311.167 216.493 311.28 217.213 311.28C218.053 311.28 218.646 311.147 218.993 310.88C219.34 310.613 219.513 310.26 219.513 309.82V309.66H221.653V309.84C221.653 310.52 221.466 311.113 221.093 311.62C220.72 312.113 220.2 312.5 219.533 312.78C218.88 313.06 218.1 313.2 217.193 313.2ZM232.716 313H230.556V307.22C230.556 306.34 230.39 305.707 230.056 305.32C229.723 304.92 229.096 304.72 228.176 304.72C227.59 304.72 227.11 304.807 226.736 304.98C226.363 305.14 226.083 305.407 225.896 305.78C225.71 306.14 225.616 306.633 225.616 307.26H225.236L225.056 304.92H225.536C225.683 304.56 225.903 304.227 226.196 303.92C226.49 303.613 226.863 303.36 227.316 303.16C227.783 302.96 228.336 302.86 228.976 302.86C229.843 302.86 230.55 303.027 231.096 303.36C231.643 303.693 232.05 304.153 232.316 304.74C232.583 305.327 232.716 306 232.716 306.76V313ZM225.616 313H223.456V303.06H225.436V306.04L225.616 306.14V313ZM238.827 313C237.734 313 236.894 312.767 236.307 312.3C235.734 311.833 235.447 311.047 235.447 309.94V303.28L235.947 300.6H237.607V309.84C237.607 310.36 237.734 310.693 237.987 310.84C238.254 310.973 238.727 311.04 239.407 311.04H240.607V312.82C240.407 312.873 240.147 312.92 239.827 312.96C239.507 312.987 239.174 313 238.827 313ZM240.607 304.86H233.787V303.06H240.607V304.86ZM244.409 308.6H242.309C242.309 308.2 242.295 307.74 242.269 307.22C242.255 306.687 242.229 306.127 242.189 305.54C242.162 304.94 242.135 304.353 242.109 303.78C242.082 303.193 242.055 302.66 242.029 302.18C242.002 301.7 241.989 301.307 241.989 301V299.6H244.729V301C244.729 301.307 244.715 301.7 244.689 302.18C244.675 302.66 244.649 303.193 244.609 303.78C244.582 304.353 244.555 304.94 244.529 305.54C244.502 306.14 244.475 306.707 244.449 307.24C244.422 307.76 244.409 308.213 244.409 308.6ZM244.589 313H242.149V310.04H244.589V313Z" fill="white"/>
</svg>
