<svg width="309" height="316" viewBox="0 0 309 316" fill="none" xmlns="http://www.w3.org/2000/svg">
<path opacity="0.3" d="M181.212 112.009H120.787C116.013 112.009 112.143 108.138 112.143 103.363V42.9233C112.143 38.1484 116.013 34.2773 120.787 34.2773H181.212C185.986 34.2773 189.856 38.1484 189.856 42.9233V103.363C189.856 108.138 185.986 112.009 181.212 112.009Z" fill="white"/>
<path d="M168.989 94.3105H133.009V96.0884H168.989V94.3105Z" fill="#66805D"/>
<path d="M163.893 99.9121H138.105V101.69H163.893V99.9121Z" fill="#66805D"/>
<path opacity="0.3" d="M298.817 186.107H212.824C207.2 186.107 202.641 181.547 202.641 175.921V71.4217C202.641 65.7963 207.2 61.2363 212.824 61.2363H298.817C304.441 61.2363 309 65.7963 309 71.4217V175.921C309 181.547 304.441 186.107 298.817 186.107Z" fill="#F5F5F5"/>
<path d="M267.925 149.221H218.839V152.246H267.925V149.221Z" fill="#66805D"/>
<path d="M258.533 163.746H218.839V166.772H258.533V163.746Z" fill="#66805D"/>
<path d="M242.109 156.484H218.839V159.51H242.109V156.484Z" fill="#66805D"/>
<path d="M280.766 73.6875V75.2156H289.762V83.6594H291.289V73.6875H280.766ZM219.684 83.6594H221.211V75.2156H230.206V73.6875H219.684V83.6594ZM289.762 127.23V135.677H280.766V137.205H291.289V127.23H289.762V127.23ZM221.211 127.23H219.684V137.205H230.206V135.677H221.211V127.23Z" fill="#66805D"/>
<path d="M286.527 166.994C281.567 166.994 277.531 162.957 277.531 157.996C277.531 153.034 281.567 148.998 286.527 148.998C291.487 148.998 295.523 153.034 295.523 157.996C295.523 162.957 291.487 166.994 286.527 166.994ZM286.527 150.739C282.527 150.739 279.272 153.995 279.272 157.996C279.272 161.997 282.527 165.252 286.527 165.252C290.527 165.252 293.782 161.997 293.782 157.996C293.782 153.995 290.527 150.739 286.527 150.739Z" fill="#66805D"/>
<path d="M285.953 161.537L281.866 157.449L283.097 156.218L285.953 159.074L289.956 155.07L291.187 156.302L285.953 161.537Z" fill="#66805D"/>
<path d="M291.937 237.167C291.937 240.941 226.584 244 145.968 244C65.3522 244 0 240.941 0 237.167C0 233.393 65.3522 230.334 145.968 230.334C226.584 230.334 291.937 233.393 291.937 237.167Z" fill="#515457"/>
<path d="M171.007 64.5482C169.282 59.9834 165.137 57.8877 163.181 57.2344C162.484 57.0031 161.239 56.5968 159.928 56.1724C157.566 55.4087 154.984 54.5781 154.984 54.5781H146.831C146.831 54.5781 144.009 55.5245 141.008 56.5763C141.008 56.5789 141.006 56.5789 141.006 56.5789C138.242 57.5483 135.331 58.6054 134.349 59.0992C132.3 60.1225 128.852 67.4388 128.156 68.2771C127.796 68.7092 126.197 71.5586 124.623 74.7422H133.406C134.334 73.1478 135.048 71.9108 135.048 71.9108C135.048 71.9108 135.604 73.1298 136.277 74.7422H164.415C164.86 72.87 165.137 70.5118 165.137 70.5118C165.137 70.5118 166.644 72.5614 168.289 74.7422H176.398C174.426 71.4323 171.978 67.1247 171.007 64.5482Z" fill="#66805D"/>
<path d="M151.879 32.1714C151.879 32.1714 158.254 33.1758 157.283 43.1517C156.313 53.1276 150.686 52.31 150.31 52.2999C149.934 52.2899 144.662 52.4817 144.251 40.3018C144.251 40.3018 144.072 31.2951 151.879 32.1714Z" fill="#E5E5D4"/>
<path d="M157.382 40.3326C157.382 40.3326 158.08 39.5869 158.336 40.3419C158.592 41.0968 157.384 44.4642 157.341 44.6216C157.341 44.6216 157.213 44.9144 157.046 44.7533C156.878 44.5921 157.382 40.3326 157.382 40.3326Z" fill="#66805D"/>
<path d="M144.423 40.2073C144.423 40.2073 143.739 39.4482 143.468 40.198C143.198 40.948 144.33 44.3375 144.381 44.4963C144.381 44.4963 144.503 44.7915 144.674 44.6337C144.844 44.4757 144.423 40.2073 144.423 40.2073Z" fill="#66805D"/>
<path d="M157.379 41.8635L156.467 43.0839C156.467 43.0839 156.492 40.4084 156.346 39.9889C156.2 39.5695 155.976 38.2878 155.853 37.9856C155.731 37.6835 150.379 36.1832 145.652 38.4237C145.652 38.4237 145.86 40.3476 145.407 40.5188C144.954 40.6899 145.176 43.6521 145.176 43.6521L144.426 42.8052C144.426 42.8052 143.277 35.1302 143.561 34.3302C143.844 33.5302 144.748 28.7207 154.446 31.5758C154.446 31.5758 157.47 30.9353 158.076 33.0232C158.683 35.111 157.379 41.8635 157.379 41.8635Z" fill="#434343"/>
<path d="M155.775 54.3986C155.772 54.3896 154.957 53.9967 154.957 53.9967C154.56 53.1085 154.855 49.361 154.855 49.361C154.855 49.361 146.736 47.2941 146.968 48.8745C147.2 50.4549 146.269 54.1268 146.269 54.1268L142.104 56.1954C142.104 56.1954 146.541 68.1138 151.641 66.5762C156.742 65.0388 158.668 55.7657 158.668 55.7657L155.775 54.3986Z" fill="#E5E5D4"/>
<path d="M147.085 50.6299C147.085 50.6299 148.393 52.319 150.664 52.319C152.157 52.319 153.229 51.9002 154.717 50.4492C154.717 50.4492 154.072 53.2049 150.673 53.4613C150.673 53.4613 148.209 53.7746 147.085 50.6299Z" fill="#66805D"/>
<path d="M80.1608 222.986C84.5219 219.918 89.626 198.54 89.9304 185.806C90.0865 179.283 92.014 176.566 93.7147 174.169C95.3404 171.877 96.7445 169.898 95.9266 165.353C94.3637 156.668 98.4729 152.919 98.5147 152.882L98.039 152.34C97.8561 152.5 93.5767 156.367 95.2168 165.481C95.981 169.727 94.7213 171.503 93.1267 173.751C91.4533 176.11 89.3709 179.046 89.2095 185.789C88.8827 199.454 83.6646 219.639 79.7461 222.396L80.1608 222.986Z" fill="white"/>
<path d="M71.0199 216.749C70.6081 215.816 70.1823 214.85 69.7001 213.832C67.2087 208.572 65.0019 207.706 61.3455 206.271C60.4521 205.92 59.4394 205.522 58.328 205.023C53.0905 202.668 54.1045 199.199 54.9992 196.138C55.1243 195.71 55.2491 195.283 55.3574 194.86C55.818 193.06 54.9331 192.157 53.5934 190.79C52.5978 189.773 51.3586 188.509 50.4034 186.511C49.3581 184.325 49.8909 183.153 50.522 182.555C51.8507 181.295 54.9144 181.527 57.807 183.107C58.7056 183.598 59.4453 184.373 60.2284 185.193C62.0725 187.124 64.3672 189.528 70.1713 189.555C73.4807 189.57 75.2935 190.027 76.2323 191.083C77.2977 192.28 77.097 194.073 76.8188 196.554C76.7226 197.412 76.6136 198.385 76.5476 199.436C76.1527 205.706 79.8533 210.229 79.8899 210.274C82.1008 212.907 84.8247 218.37 83.649 221.733C83.1563 223.142 82.0542 224.029 80.3734 224.369C79.7038 224.505 79.0919 224.569 78.5294 224.569C74.4696 224.569 72.984 221.202 71.0199 216.749ZM57.461 183.74C54.878 182.33 52.1081 182.045 51.018 183.079C50.1895 183.864 50.5801 185.21 51.0539 186.2C51.9574 188.089 53.1002 189.256 54.1085 190.285C55.5102 191.715 56.6173 192.845 56.0559 195.039C55.9457 195.47 55.8189 195.904 55.6913 196.34C54.8003 199.389 53.9589 202.268 58.6235 204.365C59.7191 204.857 60.723 205.252 61.6089 205.599C65.2998 207.048 67.7382 208.005 70.3519 213.523C70.8383 214.55 71.266 215.52 71.6797 216.458C73.9358 221.572 75.2976 224.66 80.2302 223.662C81.644 223.377 82.5652 222.647 82.9681 221.495C84.004 218.531 81.5253 213.343 79.3368 210.737C79.1765 210.545 75.4142 205.957 75.8277 199.391C75.8951 198.323 76.0051 197.341 76.1021 196.474C76.3593 194.178 76.5451 192.52 75.6935 191.563C74.9148 190.687 73.2106 190.291 70.1677 190.277C64.057 190.248 61.6449 187.721 59.7066 185.691C58.9311 184.879 58.2614 184.177 57.461 183.74Z" fill="white"/>
<path d="M80.295 228.735L81.0154 228.697C80.9798 228.02 80.0712 212.065 73.6668 207.396C66.6405 202.273 64.4252 196.768 63.3703 193.073C62.1271 188.719 55.7995 187.555 55.5307 187.508L55.4053 188.218C55.4666 188.229 61.5577 189.352 62.6767 193.271C63.761 197.069 66.0359 202.725 73.2419 207.979C79.3717 212.448 80.2865 228.572 80.295 228.735Z" fill="white"/>
<path d="M79.0761 232.323C77.5692 231.572 77.6238 228.554 77.7065 223.986C77.8109 218.213 77.9542 210.307 74.9329 203.035C71.7234 195.31 74.5858 193.052 77.3541 190.869C80.4546 188.423 83.3828 186.113 77.7626 175.687C75.1813 170.899 74.3617 167.66 75.1835 165.495C75.9956 163.354 78.2743 162.52 80.6869 161.637C84.851 160.112 89.5709 158.385 88.9612 149.569C88.7744 146.867 89.0919 145.205 89.9609 144.339C90.905 143.399 92.2961 143.501 93.9066 143.618C96.3401 143.797 99.0968 143.998 101.498 140.864C101.748 140.081 104.044 133.092 106.79 131.895C107.366 131.644 107.932 131.647 108.47 131.904C110.366 132.811 111.466 133.887 111.833 135.193C112.473 137.464 110.809 140.026 108.883 142.993C105.856 147.655 102.425 152.939 105.984 159.226C110.688 167.54 108.203 170.449 104.764 174.476C102.794 176.783 100.561 179.398 99.0674 183.663C97.8667 187.093 99.9151 190.363 101.896 193.526C104.381 197.494 106.95 201.596 101.54 205.156C92.5961 211.042 83.7631 230.254 83.675 230.448L83.6385 230.528L83.5694 230.582C81.9216 231.874 80.722 232.49 79.8187 232.49C79.5455 232.49 79.2995 232.434 79.0761 232.323ZM101.144 204.554C105.964 201.382 103.796 197.919 101.285 193.91C99.3097 190.756 97.0712 187.182 98.3868 183.425C99.9245 179.032 102.204 176.363 104.216 174.008C107.586 170.063 109.812 167.456 105.356 159.582C101.582 152.913 105.295 147.195 108.278 142.6C110.109 139.781 111.69 137.346 111.139 135.389C110.831 134.294 109.856 133.368 108.159 132.555C107.813 132.39 107.46 132.39 107.078 132.557C104.53 133.667 102.19 141.066 102.167 141.141L102.148 141.201L102.11 141.251C99.4639 144.749 96.3535 144.521 93.8539 144.338C92.3603 144.229 91.1808 144.142 90.4699 144.851C89.7698 145.548 89.5116 147.075 89.6806 149.52C90.3279 158.876 85.1196 160.783 80.9347 162.314C78.5836 163.175 76.553 163.919 75.8579 165.751C75.1161 167.706 75.923 170.755 78.3975 175.345C84.3054 186.304 80.9987 188.913 77.8008 191.435C75.1259 193.545 72.5993 195.538 75.599 202.758C78.6782 210.169 78.5336 218.162 78.4278 223.999C78.3556 227.983 78.2988 231.13 79.3977 231.677C80.041 231.998 81.2714 231.456 83.0556 230.068C83.7708 228.513 92.2305 210.419 101.144 204.554Z" fill="white"/>
<path d="M64.959 148.583C69.5111 147.022 68.5653 155.797 70.4888 162.29C72.4122 168.784 91.8866 165.123 83.7122 181.382C75.5378 197.641 94.0505 186.819 88.5207 201.008C82.991 215.196 88.0398 230.371 82.0292 226.511C76.0185 222.651 78.6524 204.784 72.4013 202.661C66.1502 200.538 65.1302 198.062 71.3193 192.29C77.5085 186.519 55.1015 180.789 60.6312 169.135C66.1611 157.481 59.6999 150.387 64.959 148.583Z" fill="white"/>
<path d="M79.9338 225.578C80.5062 223.149 85.3951 201.774 80.8333 199.19C76.813 196.913 76.912 188.056 77.5392 179.692C78.0944 172.288 68.5876 168.827 68.1826 168.684L67.9414 169.363C68.0354 169.397 77.3338 172.785 76.8199 179.638C76.1759 188.227 76.1068 197.342 80.4779 199.818C83.9415 201.78 80.7526 218.959 79.2316 225.413L79.9338 225.578Z" fill="white"/>
<path d="M97.1083 217.967L90.6091 242.629H76.085L69.5859 217.967H97.1083Z" fill="#4F575D"/>
<path d="M97.1081 217.967C97.1081 217.967 82.8005 220.654 82.8005 242.629H76.085L69.5859 217.967H97.1081Z" fill="#4F575D"/>
<path opacity="0.3" d="M247.479 56.9262H204.596C200.671 56.9262 197.489 53.7438 197.489 49.8182V12.6002C197.489 8.67445 200.671 5.49219 204.596 5.49219H247.479C251.404 5.49219 254.586 8.6746 254.586 12.6002V49.8182C254.586 53.7439 251.404 56.9262 247.479 56.9262Z" fill="#ECECEC"/>
<path d="M229.916 0.986605C229.916 0.986605 233.565 2.99051 232.406 7.91805C231.248 12.8456 230.807 13.4962 231.749 15.4873C232.69 17.4785 233.517 25.8223 232.513 27.3488C231.509 28.8752 221.332 19.9032 220.201 12.7255C219.071 5.54779 221.616 2.49934 222.519 1.36166C223.422 0.223978 226.698 -0.843114 229.916 0.986605Z" fill="#344052"/>
<path d="M236.767 41.7125H232.861C232.672 39.7852 232.497 38.4437 232.533 38.2452C232.591 37.9176 228.646 27.5685 228.278 26.7125C227.907 25.8588 226.461 23.5634 226.272 21.4016C226.081 19.24 228.899 18.3672 228.899 18.3672C232.703 19.0488 233.991 24.3117 233.991 24.3117C233.991 24.3117 235.589 34.9836 236.397 37.987C236.605 38.7568 236.717 40.1175 236.767 41.7125Z" fill="#E5E5D4"/>
<path d="M234.8 26.8816L228.983 29.3347C228.983 29.3347 223.636 16.0634 228.118 17.5451C232.586 19.0224 234.596 21.7995 234.8 26.8816Z" fill="#1C2818"/>
<path d="M233.506 33.1316C233.337 34.4491 232.641 39.1167 232.796 40.3769C232.823 40.5849 232.909 41.0632 233.038 41.7136H219.012C219.385 40.3817 219.724 39.2027 219.93 38.5166C220.611 36.2568 219.959 35.6519 219.614 33.8443C219.48 33.1365 219.01 31.7925 218.495 30.274C218.323 29.767 218.146 29.2387 217.977 28.7079C217.36 26.7949 217.073 24.8389 216.896 23.7007C216.05 18.3038 220.2 17.7847 220.2 17.7847C221.742 17.5002 224.436 16.668 224.436 16.668L228.656 17.5457C228.656 17.5457 229.057 17.6963 229.643 18.1291C229.643 18.1291 229.645 18.1291 229.645 18.1316C229.927 18.3396 230.253 18.6122 230.594 18.9637C231.056 19.4372 231.974 20.7928 232.889 22.2825C233.169 22.7394 233.451 23.2079 233.717 23.6694C234.575 25.1543 235.185 26.3522 235.165 27.7033C235.149 29.0333 233.676 31.8141 233.506 33.1316Z" fill="#1C2818"/>
<path d="M228.656 17.547C228.656 17.547 231.299 22.066 230.316 22.4035C229.333 22.7408 224.152 21.5999 222.128 17.3304C222.128 17.3304 225.529 15.7842 228.656 17.547Z" fill="#E5E5D4"/>
<path d="M228.277 19.6104C228.277 19.6104 225.929 20.6042 223.803 17.3325C223.803 17.3325 224.374 13.6174 223.167 11.4683C221.959 9.31998 228.446 14.0443 228.446 14.0443C228.446 14.0443 228.341 14.4873 228.232 15.1413C228.177 15.476 228.119 15.8653 228.076 16.2785C228.039 16.6228 228.011 16.9844 227.999 17.3446C227.972 18.1803 228.031 19.0097 228.277 19.6104Z" fill="#E5E5D4"/>
<path d="M222.446 24.6719C221.963 27.1587 218.495 30.2742 218.495 30.2742C218.323 29.7659 218.146 29.2387 217.977 28.7086C220.369 27.1814 222.446 24.6719 222.446 24.6719Z" fill="#393D63"/>
<path d="M221.576 26.6517C221.356 27.558 220.345 36.7377 220.455 37.0508C220.52 37.2303 221.01 39.3537 221.5 41.7138H216.972C216.508 40.1931 216.233 38.9303 216.3 38.2155C216.589 35.119 215.54 25.2481 215.54 25.2481C215.54 25.2481 214.6 19.2772 219.554 18.5312C219.554 18.5312 222.48 18.9163 222.657 21.0779C222.834 23.2417 221.796 25.7479 221.576 26.6517Z" fill="#E5E5D4"/>
<path d="M215.175 27.9196L221.322 29.3559C221.322 29.3559 226.199 19.8854 221.807 18.1564C217.177 16.3337 214.065 22.7537 215.175 27.9196Z" fill="#1C2818"/>
<path d="M229.348 1.51256C229.348 1.51256 234.691 3.47373 231.304 12.6953C227.918 21.9168 221.005 11.1211 222.05 5.45435C223.094 -0.21209 229.348 1.51256 229.348 1.51256Z" fill="#E5E5D4"/>
<path d="M232.123 7.11816C232.123 7.11816 229.303 9.63579 224.778 9.75324C224.778 9.75324 223.721 12.3317 223.55 13.1231C223.55 13.1231 219.079 5.44524 224.219 1.56696C229.359 -2.31117 234.021 5.50964 232.123 7.11816Z" fill="#344052"/>
<path d="M225.39 10.3061C225.387 9.62324 225.041 8.05303 224.008 8.43914C222.975 8.82524 223.9 12.0333 224.581 11.8707C224.581 11.8707 225.396 11.922 225.39 10.3061Z" fill="#66805D"/>
<path d="M228.004 17.1876C225.494 16.4931 224.523 14.0996 224.493 14.0195C226.535 16.6583 228.075 16.2793 228.075 16.2793C228.038 16.6235 228.036 16.8385 228.004 17.1876Z" fill="#66805D"/>
<path d="M239.608 14.7988V15.6191H244.437V20.152H245.257V14.7988H239.608ZM206.818 20.152H207.638V15.6191H212.466V14.7988H206.817L206.818 20.152ZM244.437 43.5416V48.0761H239.608V48.8963H245.257V43.5416H244.437ZM207.638 43.5416H206.818V48.8963H212.466V48.0761H207.638L207.638 43.5416Z" fill="#66805D"/>
<path d="M169.126 42.3517V43.4474H175.575V49.502H176.671V42.3517H169.126ZM125.327 49.5019H126.423V43.4472H132.872V42.3516H125.327V49.5019ZM175.576 80.7431V86.8001H169.126V87.8957H176.671V80.7432L175.576 80.7431ZM126.423 80.7431H125.327V87.8956H132.872V86.7999H126.423V80.7431Z" fill="#66805D"/>
<path d="M286.111 126.531H280.995C280.902 126.326 280.826 126.148 280.764 126.005C279.245 122.42 271.422 114.198 271.422 114.198C271.422 114.198 271.422 114.203 271.422 114.216C271.422 114.216 271.417 114.221 271.417 114.225C271.417 114.225 271.417 114.23 271.417 114.234C271.413 114.247 271.408 114.256 271.404 114.27C271.4 114.287 271.395 114.31 271.386 114.337C271.382 114.35 271.377 114.368 271.377 114.381C271.373 114.394 271.368 114.403 271.364 114.417C271.043 115.615 269.467 121.583 268.679 126.531H234.059C233.979 126.072 233.885 125.636 233.778 125.231C233.462 124.001 233.248 122.785 233.11 121.65C233.106 121.592 233.097 121.538 233.092 121.48C233.066 121.271 233.043 121.062 233.026 120.857C232.727 117.748 232.95 115.365 232.968 115.125C232.87 115.334 232.171 117.9 231.253 121.066C230.75 122.803 230.18 124.723 229.615 126.531H221.439L231.699 96.9266C231.926 96.7484 234.588 95.4615 236.53 94.535C238.511 93.5908 240.903 92.2054 243.062 91.0209C244.166 90.4152 245.208 89.8673 246.112 89.453L246.25 89.3907V89.3864C247.742 88.7048 248.735 88.2549 248.735 88.2549C248.735 88.2549 248.735 88.2549 248.739 88.2549C248.775 88.2506 249.011 88.2281 249.385 88.1926C251.469 87.9921 257.934 87.3865 260.099 87.2619C260.277 87.2484 260.428 87.2441 260.544 87.2395C260.642 87.2353 260.717 87.2353 260.762 87.2395C261.033 87.2574 262.369 87.7207 264.119 88.3887C264.186 88.411 264.253 88.4376 264.319 88.4645C264.404 88.4957 264.484 88.5268 264.569 88.5579C264.72 88.6161 264.876 88.6739 265.032 88.7362C265.344 88.8609 265.669 88.9855 265.994 89.1146C266.105 89.1593 266.221 89.2037 266.336 89.2483C269.841 90.638 273.857 92.3615 274.81 93.0473C275.442 93.4972 277.406 97.1984 279.681 101.777C282.131 109.624 285.127 120.946 286.111 126.531Z" fill="#DECBC4"/>
<path d="M260.706 86.232C260.614 90.8869 251.603 93.4333 251.603 93.4333C251.603 93.4333 247.834 88.707 248.735 88.2545C249.088 88.0766 249.232 87.3711 249.276 86.5802C249.317 85.8273 249.269 84.9966 249.225 84.469C249.198 84.1398 249.172 83.928 249.172 83.928C249.172 83.928 250.46 82.5693 252.098 80.9508C254.96 78.1201 258.894 74.4941 258.9 75.9367C258.901 76.0131 258.89 76.1044 258.867 76.2101C258.176 79.4563 260.706 86.232 260.706 86.232Z" fill="#E5E5D4"/>
<path d="M257.235 79.4121C257.235 79.4121 257.235 79.4121 257.235 79.413C257.217 79.4401 256.835 80.012 256.182 80.8327C254.799 82.5732 252.199 85.4321 249.275 86.5805C249.316 85.8276 249.268 84.9969 249.224 84.4693C248.925 84.4618 248.626 84.427 248.329 84.3615C249.131 82.9609 250.288 81.4922 250.288 81.4922L252.097 80.9509L257.235 79.4121Z" fill="#66805D"/>
<path d="M258.966 76.0006C258.186 77.6967 257.446 78.926 257.236 79.4129C257.236 79.4129 257.236 79.4129 257.235 79.4138C257.099 79.731 256.727 80.2481 256.183 80.8336C254.698 82.4337 251.938 84.5441 249.225 84.4702C248.925 84.4626 248.626 84.4279 248.33 84.3623C247.234 84.1228 245.94 83.6137 245.228 82.2196C239.607 71.211 243.677 62.2092 243.677 62.2092C243.677 62.2092 259.048 57.8616 261.452 62.4897C263.14 65.736 260.797 72.0155 258.966 76.0006Z" fill="#E5E5D4"/>
<path d="M243.677 62.2086C243.677 62.2086 242.25 62.1295 241.897 59.4225C241.548 56.7481 242.253 56.0068 242.253 56.0068C242.253 56.0068 248.599 53.3499 250.877 53.0043C253.156 52.6588 258.759 52.327 260.073 53.8294C260.073 53.8294 263.264 53.0877 264.133 58.3865C265.513 66.7927 259.434 74.9552 259.434 74.9552C259.434 74.9552 259.485 69.4634 258.275 68.7358C257.064 68.0081 256.019 69.7387 256.019 69.7387L253.542 70.1824C253.542 70.1824 257.304 62.0576 252.791 61.7566C248.278 61.4556 246.261 62.6798 243.677 62.2086Z" fill="#51565C"/>
<path d="M256.086 67.5497C256.322 65.1303 260.696 64.2067 260.403 66.7423C260.11 69.2784 257.956 71.7146 256.961 71.6289C255.966 71.5433 255.907 69.3939 256.086 67.5497Z" fill="#66805D"/>
<path d="M281.69 102.004C280.265 97.4387 279.032 93.8267 278.484 93.4347C277.527 92.7488 269.939 90.6601 266.337 89.2483C266.221 89.2036 266.106 89.1593 265.994 89.1146C265.669 88.9855 265.344 88.8607 265.033 88.7362C264.877 88.6738 264.721 88.6161 264.569 88.5579C264.485 88.5268 264.405 88.4957 264.32 88.4644C264.254 88.4376 264.187 88.4111 264.12 88.3887C264.115 88.3931 264.111 88.4021 264.102 88.4064C263.781 88.7671 262.116 90.6601 260.126 93.4928C256.403 98.7837 251.554 107.357 252.298 115.272C252.538 117.81 252.832 121.458 253.326 125.551C253.362 125.876 253.402 126.201 253.447 126.531H270.242C270.447 122.246 270.812 116.603 271.364 114.416C271.369 114.403 271.373 114.394 271.378 114.381C271.378 114.368 271.382 114.35 271.387 114.336C271.391 114.314 271.4 114.292 271.405 114.269C271.409 114.256 271.414 114.247 271.418 114.234C271.418 114.229 271.418 114.225 271.418 114.225C271.418 114.22 271.422 114.216 271.422 114.216C271.422 114.216 275.488 120.572 275.697 126.531H286.268C285.751 120.995 284.135 109.838 281.69 102.004Z" fill="#66805D"/>
<path d="M246.184 89.5066C246.184 89.5066 244.915 93.7287 243.276 104.271C243.276 104.271 243.276 104.271 243.276 104.275C243.218 104.627 243.165 104.988 243.107 105.357C243.103 105.398 243.094 105.442 243.089 105.487C243.049 105.727 243.014 105.977 242.978 106.226C242.973 106.257 242.969 106.284 242.965 106.315C242.938 106.48 242.911 106.649 242.889 106.823C242.826 107.237 242.764 107.665 242.702 108.097C242.087 112.399 241.268 119.236 240.435 126.531H233.796C233.435 124.504 233.097 122.66 233.124 121.395C233.11 121.422 233.101 121.454 233.092 121.48C232.563 122.95 231.979 124.549 231.387 126.103C231.334 126.246 231.28 126.388 231.227 126.531H219.783L231.182 96.7038C231.409 96.5256 234.344 94.9445 236.285 94.0227C238.311 93.0561 240.871 91.8669 243.142 90.8204C244.229 90.3171 245.249 89.8495 246.112 89.4531L246.184 89.5066Z" fill="#66805D"/>
<path d="M261.622 99.9371L257.235 102.414L259.11 104.324L254.996 126.531H253.446C252.876 122.041 252.551 118.011 252.297 115.272C251.153 103.033 263.362 89.2304 264.119 88.3887C264.707 88.6113 265.339 88.8564 265.994 89.1146L261.622 99.9371Z" fill="#51565C"/>
<path d="M246.251 89.3906C246.251 89.3906 244.612 94.7396 242.706 108.097C242.092 112.394 241.268 119.236 240.436 126.531H239.79L238.939 105.549L241.028 103.286L239.171 100.966L243.143 90.8202C244.229 90.317 245.249 89.8494 246.113 89.453L246.251 89.3906Z" fill="#51565C"/>
<path d="M264.341 88.4403L260.706 86.2324C260.706 86.2324 260.605 88.226 251.604 93.4337L254.16 100.635L264.341 88.4403Z" fill="#F5E2D9"/>
<path d="M249.209 87.2363C249.209 87.2363 249.351 89.3882 251.603 93.4333L246.615 99.9383L246.251 89.3882L249.209 87.2363Z" fill="#F5E2D9"/>
<path d="M251.617 93.4336C251.617 93.4336 252.584 97.3017 252.236 98.3847C252.236 98.3847 250.11 99.1582 248.582 98.1912C248.582 98.1912 249.664 95.4836 251.617 93.4336Z" fill="#66805D"/>
<path d="M250.445 106.587C249.425 113.535 249.425 120.563 249.803 126.531H245.542C245.484 125.689 245.431 124.812 245.377 123.894C244.585 110.137 249.447 97.8441 249.447 97.8441L251.616 97.3008C251.616 97.3008 250.917 103.38 250.445 106.587Z" fill="#66805D"/>
<path d="M233.262 115.16C233.1 118.461 233.124 121.392 233.124 121.392C233.124 121.392 233.124 121.393 233.124 121.395C233.122 121.411 233.119 121.5 233.112 121.647C233.105 121.591 233.099 121.536 233.092 121.481C232.564 122.951 231.978 124.548 231.388 126.103C231.251 124.301 231.216 122.621 231.256 121.066C231.492 111.811 234.403 106.957 234.403 106.957C233.735 108.57 233.415 112.031 233.262 115.16Z" fill="#2D3133"/>
<path d="M169.124 125.599L155.509 133.085L141.836 111.564L158.373 105.818L169.124 125.599Z" fill="#2D332B"/>
<path d="M168.26 124.952L155.528 131.952L142.741 111.826L158.206 106.453L168.26 124.952Z" fill="white"/>
<path d="M172.923 121.19C172.923 121.19 170.554 120.056 169.513 119.463C168.473 118.871 165.797 118.057 165.581 117.864C165.365 117.671 157.65 117.195 157.182 116.791C156.714 116.387 156.259 117.738 158.259 118.176C160.258 118.614 163.041 119.685 163.193 120.467C163.345 121.249 161.139 121.434 160.916 122.078C160.692 122.722 160.978 122.577 161.295 122.715C161.611 122.854 163.919 121.575 164.934 121.938C165.948 122.301 167.5 121.798 168.278 122.065C169.055 122.331 172.838 123.604 172.838 123.604L172.923 121.19Z" fill="#E5E5D4"/>
<path d="M154.845 130.385C154.845 130.385 152.855 128.593 151.891 127.843C150.928 127.093 149.12 124.888 148.854 124.759C148.587 124.631 145.135 117.544 144.572 117.26C144.009 116.976 145.104 116.021 146.296 117.736C147.487 119.45 149.58 121.656 150.376 121.495C151.171 121.334 150.487 119.182 151.006 118.721C151.526 118.26 151.501 118.586 151.755 118.83C152.008 119.074 151.702 121.747 152.439 122.563C153.176 123.378 153.307 125.036 153.861 125.665C154.414 126.295 157.087 129.364 157.087 129.364L154.845 130.385Z" fill="#E5E5D4"/>
<path d="M197.72 226.177C197.72 226.177 198.15 229.167 198.204 229.616C198.258 230.065 202.995 229.351 202.995 229.351L203.378 225.792C203.378 225.792 198.312 225.755 197.72 226.177Z" fill="#66805D"/>
<path d="M198.154 229.236C198.154 229.236 196.653 231.037 195.201 231.823C193.749 232.608 191.469 232.919 190.61 233.732C189.991 234.319 188.354 236.845 194.382 236.794C200.411 236.743 203.318 237.15 203.963 236.182C204.609 235.214 203.029 229.033 203.029 229.033C203.029 229.033 201.601 229.547 198.154 229.236Z" fill="#2D332B"/>
<path d="M163.78 226.177C163.78 226.177 164.211 229.167 164.265 229.616C164.318 230.065 169.055 229.351 169.055 229.351L169.439 225.792C169.439 225.792 164.373 225.755 163.78 226.177Z" fill="#66805D"/>
<path d="M164.215 229.236C164.215 229.236 162.714 231.037 161.262 231.822C159.811 232.608 154.469 233.253 153.611 234.066C152.991 234.652 151.961 237.014 160.443 236.794C166.47 236.637 169.379 237.15 170.024 236.182C170.67 235.214 169.09 229.033 169.09 229.033C169.09 229.033 167.745 229.582 164.215 229.236Z" fill="#2D332B"/>
<path d="M193.798 149.352C193.798 149.352 198.249 156.425 197.916 162.818C197.584 169.212 199.53 176.192 200.199 182.871C200.944 190.317 203.995 207.944 204.105 211.927C204.216 215.91 203.632 228.628 203.632 228.628L197.526 228.767C197.526 228.767 192.397 197.951 191.069 194.807C189.741 191.662 183.154 169.245 182.933 166.73C182.712 164.214 193.798 149.352 193.798 149.352Z" fill="#2D332B"/>
<path d="M170.368 150.31C170.368 150.31 167.014 167.833 166.571 171.746C166.128 175.66 165.833 190.684 165.612 193.129C165.39 195.575 164.136 225.134 162.955 228.767H170.761C170.761 228.767 176.754 207.279 176.754 197.112C176.754 186.946 181.383 175.01 184.372 168.302C187.36 161.594 194.2 161.435 196.038 148.989C196.038 148.989 172.855 146.362 170.368 150.31Z" fill="#2D332B"/>
<path d="M186.37 89.8854C186.37 89.8854 180.396 87.6535 177.642 92.202C174.887 96.7505 175.152 105.857 178.164 106.977C181.175 108.097 185.699 107.511 187.24 104.665C188.782 101.819 190.174 97.704 190.107 94.954C190.04 92.2043 187.939 90.6794 186.37 89.8854Z" fill="#E5E5D4"/>
<path d="M178.812 107.185C178.812 107.185 179.061 108.798 178.65 109.593C178.239 110.388 186.389 110.409 186.389 110.409C186.389 110.409 187.051 106.086 188.305 102.433C189.56 98.7811 178.812 107.185 178.812 107.185Z" fill="#E5E5D4"/>
<path d="M188.306 102.434C188.306 102.434 187.744 103.362 185.447 103.002C183.151 102.642 180.35 99.5861 179.391 99.2507C178.432 98.9153 178.423 98.3519 178.423 98.3519L177.823 99.2289L176.805 99.2933C176.805 99.2933 177.733 96.5599 176.332 95.4451C174.931 94.3303 177.786 86.5976 185.151 89.1721C185.151 89.1721 190.807 90.7315 190.601 93.9492C190.395 97.1667 189.572 100.832 188.306 102.434Z" fill="#3A3F47"/>
<path d="M178.166 109.497C178.166 109.497 178.192 107.979 178.88 107.833C179.568 107.688 186.476 107.023 187.32 107.356V109.124C187.32 109.124 185.693 110.126 178.166 109.497Z" fill="#E2D2CA"/>
<path d="M178.575 97.1826C178.704 96.6429 180.076 95.1007 180.602 96.752C181.127 98.4033 179.808 100.624 179.072 100.434C178.336 100.244 178.249 98.5509 178.575 97.1826Z" fill="#E5E5D4"/>
<path d="M150.755 127.439C150.758 127.438 150.762 127.437 150.766 127.438C150.717 127.46 150.709 127.462 150.755 127.439Z" fill="#66805D"/>
<path d="M198.819 166.202C198.819 166.202 195.155 167.281 188.907 167.97C182.66 168.659 167.05 167.721 166.952 166.983C166.853 166.245 170.309 139.493 170.113 138.115C169.916 136.737 169.811 131.828 169.811 131.828C169.733 133.174 168.363 138.668 166.71 141.662C166.112 142.745 164.108 146.136 163.142 145.365C158.465 141.63 151.224 127.557 150.765 127.438C151.151 127.27 154.197 125.867 154.624 125.725C154.998 125.6 158.372 129.173 160.416 131.388C161.327 132.375 161.975 133.092 161.975 133.092C162.565 131.764 164.715 123.395 165.383 120.499C166.89 113.967 166.658 113.695 166.658 113.695C171.229 112.313 178.166 109.498 178.166 109.498L187.32 109.125C187.32 109.125 195.722 110.975 199.03 112.47C199.344 112.611 199.346 119.966 200.207 121.895L197.464 127.683C197.464 127.683 195.879 139.15 195.55 144.25C195.4 146.591 198.819 166.202 198.819 166.202Z" fill="#66805D"/>
<path d="M200.587 131.445C200.348 132.216 199.263 132.868 198.558 133.154C198.107 133.336 197.601 133.395 197.093 133.301L196.734 133.235V133.234L190.461 132.071C190.461 132.071 189.088 116.259 199.031 112.471C199.293 112.557 202.783 124.365 200.587 131.445Z" fill="#66805D"/>
<path d="M198.558 133.153V133.153C198.106 133.336 197.601 133.395 197.092 133.301L196.733 133.235V133.234L197.352 125.154L198.558 133.153Z" fill="#91A28B"/>
<path d="M161.975 133.093L161.208 136.341C161.208 136.341 160.376 133.082 160.416 131.389C161.328 132.376 161.975 133.093 161.975 133.093Z" fill="#91A28B"/>
<path d="M188.071 90.4229C188.071 90.4229 195.901 89.4422 188.204 102.523L188.071 90.4229Z" fill="#3A3F47"/>
<path d="M148.13 110.41L147.334 109.042L153.603 106.879L154.398 108.239L148.13 110.41Z" fill="#2D332B"/>
<path d="M9.1427 292V280.022H10.6368V290.655H16.4142V292H9.1427ZM21.5444 292.158C20.6977 292.158 19.9645 291.972 19.3447 291.602C18.7304 291.225 18.2545 290.691 17.917 290C17.5849 289.308 17.4189 288.486 17.4189 287.534V287.518C17.4189 286.56 17.5849 285.736 17.917 285.044C18.2545 284.352 18.7304 283.821 19.3447 283.45C19.9645 283.079 20.6977 282.894 21.5444 282.894C22.3966 282.894 23.1298 283.079 23.7441 283.45C24.3584 283.821 24.8315 284.352 25.1635 285.044C25.5011 285.736 25.6699 286.56 25.6699 287.518V287.534C25.6699 288.486 25.5011 289.308 25.1635 290C24.8315 290.691 24.3584 291.225 23.7441 291.602C23.1298 291.972 22.3966 292.158 21.5444 292.158ZM21.5444 290.879C22.1089 290.879 22.5875 290.747 22.9804 290.481C23.3733 290.215 23.6722 289.833 23.8769 289.335C24.0872 288.837 24.1923 288.237 24.1923 287.534V287.518C24.1923 286.809 24.0872 286.206 23.8769 285.708C23.6722 285.21 23.3733 284.831 22.9804 284.571C22.5875 284.305 22.1089 284.172 21.5444 284.172C20.9799 284.172 20.5013 284.305 20.1084 284.571C19.7155 284.831 19.4139 285.21 19.2036 285.708C18.9988 286.206 18.8965 286.809 18.8965 287.518V287.534C18.8965 288.237 18.9988 288.837 19.2036 289.335C19.4139 289.833 19.7155 290.215 20.1084 290.481C20.5013 290.747 20.9799 290.879 21.5444 290.879ZM31.2566 295.154C30.5372 295.154 29.9092 295.052 29.3724 294.847C28.8356 294.648 28.4067 294.363 28.0857 293.992C27.7703 293.627 27.5739 293.201 27.4964 292.714L27.513 292.706H29.0071L29.0154 292.714C29.0929 293.051 29.3253 293.328 29.7127 293.544C30.1001 293.765 30.6147 293.876 31.2566 293.876C32.0591 293.876 32.6844 293.693 33.1326 293.328C33.5864 292.968 33.8133 292.459 33.8133 291.801V289.991H33.6805C33.4923 290.318 33.2571 290.597 32.9749 290.83C32.6927 291.062 32.3745 291.239 32.0203 291.361C31.6662 291.477 31.2843 291.535 30.8748 291.535C30.1056 291.535 29.4388 291.353 28.8743 290.987C28.3154 290.617 27.8838 290.107 27.5794 289.46C27.275 288.812 27.1229 288.071 27.1229 287.235V287.219C27.1229 286.383 27.275 285.642 27.5794 284.994C27.8893 284.341 28.3265 283.829 28.8909 283.458C29.4554 283.082 30.1277 282.894 30.908 282.894C31.3286 282.894 31.716 282.96 32.0701 283.093C32.4243 283.226 32.737 283.414 33.0081 283.658C33.2848 283.901 33.5145 284.192 33.6971 284.529H33.7967V283.052H35.241V291.875C35.241 292.54 35.0778 293.118 34.7513 293.61C34.4303 294.103 33.971 294.482 33.3733 294.748C32.7757 295.019 32.0701 295.154 31.2566 295.154ZM31.1902 290.257C31.7436 290.257 32.2168 290.13 32.6097 289.875C33.0081 289.615 33.3125 289.258 33.5228 288.804C33.7386 288.35 33.8465 287.827 33.8465 287.235V287.219C33.8465 286.627 33.7386 286.101 33.5228 285.642C33.3125 285.182 33.0081 284.823 32.6097 284.562C32.2168 284.302 31.7436 284.172 31.1902 284.172C30.6369 284.172 30.1665 284.302 29.7791 284.562C29.3973 284.823 29.104 285.182 28.8992 285.642C28.7 286.101 28.6004 286.627 28.6004 287.219V287.235C28.6004 287.827 28.7 288.35 28.8992 288.804C29.104 289.258 29.3973 289.615 29.7791 289.875C30.1665 290.13 30.6369 290.257 31.1902 290.257ZM42.0649 292V283.052H43.5093V292H42.0649ZM42.7954 281.325C42.5242 281.325 42.289 281.228 42.0898 281.035C41.8961 280.835 41.7993 280.6 41.7993 280.329C41.7993 280.052 41.8961 279.817 42.0898 279.624C42.289 279.43 42.5242 279.333 42.7954 279.333C43.0721 279.333 43.3073 279.43 43.501 279.624C43.6946 279.817 43.7915 280.052 43.7915 280.329C43.7915 280.6 43.6946 280.835 43.501 281.035C43.3073 281.228 43.0721 281.325 42.7954 281.325ZM45.8919 292V283.052H47.3363V284.396H47.4691C47.696 283.921 48.0225 283.553 48.4486 283.292C48.8747 283.027 49.417 282.894 50.0755 282.894C51.0827 282.894 51.8546 283.182 52.3914 283.757C52.9337 284.327 53.2049 285.144 53.2049 286.206V292H51.7606V286.555C51.7606 285.747 51.589 285.149 51.2459 284.762C50.9084 284.369 50.3826 284.172 49.6688 284.172C49.1929 284.172 48.7806 284.275 48.432 284.479C48.0833 284.684 47.8122 284.975 47.6185 285.351C47.4303 285.727 47.3363 286.178 47.3363 286.704V292H45.8919ZM63.1001 292.066C62.1815 292.066 61.5147 291.881 61.0996 291.51C60.6901 291.139 60.4854 290.528 60.4854 289.676V284.247H59.0742V283.052H60.4854V280.736H61.9795V283.052H63.9385V284.247H61.9795V289.311C61.9795 289.836 62.0791 290.215 62.2783 290.448C62.4775 290.675 62.8096 290.788 63.2744 290.788C63.4017 290.788 63.5096 290.785 63.5981 290.78C63.6922 290.774 63.8057 290.766 63.9385 290.755V291.983C63.8001 292.006 63.6618 292.025 63.5234 292.042C63.3851 292.058 63.244 292.066 63.1001 292.066ZM69.3177 292.158C68.471 292.158 67.7378 291.972 67.118 291.602C66.5038 291.225 66.0278 290.691 65.6903 290C65.3582 289.308 65.1922 288.486 65.1922 287.534V287.518C65.1922 286.56 65.3582 285.736 65.6903 285.044C66.0278 284.352 66.5038 283.821 67.118 283.45C67.7378 283.079 68.471 282.894 69.3177 282.894C70.1699 282.894 70.9032 283.079 71.5174 283.45C72.1317 283.821 72.6048 284.352 72.9369 285.044C73.2744 285.736 73.4432 286.56 73.4432 287.518V287.534C73.4432 288.486 73.2744 289.308 72.9369 290C72.6048 290.691 72.1317 291.225 71.5174 291.602C70.9032 291.972 70.1699 292.158 69.3177 292.158ZM69.3177 290.879C69.8822 290.879 70.3609 290.747 70.7538 290.481C71.1467 290.215 71.4455 289.833 71.6502 289.335C71.8605 288.837 71.9657 288.237 71.9657 287.534V287.518C71.9657 286.809 71.8605 286.206 71.6502 285.708C71.4455 285.21 71.1467 284.831 70.7538 284.571C70.3609 284.305 69.8822 284.172 69.3177 284.172C68.7533 284.172 68.2746 284.305 67.8817 284.571C67.4888 284.831 67.1872 285.21 66.9769 285.708C66.7721 286.206 66.6698 286.809 66.6698 287.518V287.534C66.6698 288.237 66.7721 288.837 66.9769 289.335C67.1872 289.833 67.4888 290.215 67.8817 290.481C68.2746 290.747 68.7533 290.879 69.3177 290.879ZM79.7857 292V283.052H81.23V284.413H81.3628C81.562 283.932 81.8664 283.558 82.2759 283.292C82.6909 283.027 83.1918 282.894 83.7783 282.894C84.1823 282.894 84.5448 282.96 84.8657 283.093C85.1867 283.226 85.4634 283.411 85.6958 283.649C85.9282 283.882 86.1136 284.153 86.252 284.463H86.3848C86.5453 284.147 86.7611 283.874 87.0322 283.641C87.3034 283.403 87.6161 283.221 87.9702 283.093C88.3299 282.96 88.7145 282.894 89.124 282.894C89.7328 282.894 90.2474 283.007 90.668 283.234C91.0941 283.461 91.4178 283.793 91.6392 284.23C91.8605 284.662 91.9712 285.191 91.9712 285.816V292H90.5269V286.148C90.5269 285.705 90.4577 285.34 90.3194 285.052C90.1865 284.759 89.9818 284.54 89.7051 284.396C89.4284 284.247 89.0798 284.172 88.6592 284.172C88.2442 284.172 87.8817 284.266 87.5718 284.455C87.2619 284.643 87.0212 284.895 86.8496 285.21C86.6781 285.52 86.5923 285.866 86.5923 286.248V292H85.148V285.924C85.148 285.57 85.0705 285.263 84.9156 285.002C84.7661 284.737 84.5503 284.532 84.2681 284.388C83.9914 284.244 83.6649 284.172 83.2886 284.172C82.9012 284.172 82.5498 284.275 82.2344 284.479C81.9245 284.684 81.6782 284.961 81.4956 285.31C81.3185 285.653 81.23 286.035 81.23 286.455V292H79.7857ZM96.6947 292.158C96.1302 292.158 95.6211 292.05 95.1674 291.834C94.7191 291.618 94.3622 291.311 94.0965 290.913C93.8365 290.514 93.7064 290.044 93.7064 289.501V289.485C93.7064 288.954 93.8337 288.5 94.0882 288.124C94.3428 287.742 94.7136 287.443 95.2006 287.227C95.6875 287.011 96.2769 286.884 96.9686 286.845L100.256 286.646V287.8L97.1429 287.999C96.4623 288.038 95.9642 288.179 95.6488 288.422C95.3389 288.666 95.184 289.009 95.184 289.452V289.468C95.184 289.922 95.3555 290.276 95.6986 290.531C96.0417 290.78 96.4733 290.904 96.9935 290.904C97.486 290.904 97.9232 290.807 98.305 290.614C98.6869 290.415 98.9857 290.146 99.2015 289.809C99.4229 289.471 99.5336 289.089 99.5336 288.663V285.874C99.5336 285.321 99.3648 284.9 99.0272 284.612C98.6952 284.319 98.1944 284.172 97.5248 284.172C96.988 284.172 96.548 284.269 96.2049 284.463C95.8618 284.651 95.6322 284.919 95.516 285.268L95.5077 285.293H94.0633L94.0716 285.243C94.1491 284.773 94.3428 284.363 94.6527 284.015C94.9681 283.66 95.3749 283.387 95.8729 283.193C96.371 282.994 96.9382 282.894 97.5746 282.894C98.305 282.894 98.9221 283.013 99.4257 283.251C99.9348 283.489 100.319 283.832 100.579 284.28C100.845 284.723 100.978 285.254 100.978 285.874V292H99.5336V290.68H99.4007C99.2126 290.996 98.9829 291.264 98.7118 291.485C98.4462 291.707 98.1446 291.875 97.807 291.992C97.4694 292.102 97.0987 292.158 96.6947 292.158ZM103.278 292V283.052H104.722V284.396H104.855C105.082 283.921 105.408 283.553 105.834 283.292C106.26 283.027 106.803 282.894 107.461 282.894C108.468 282.894 109.24 283.182 109.777 283.757C110.319 284.327 110.591 285.144 110.591 286.206V292H109.146V286.555C109.146 285.747 108.975 285.149 108.632 284.762C108.294 284.369 107.768 284.172 107.054 284.172C106.578 284.172 106.166 284.275 105.818 284.479C105.469 284.684 105.198 284.975 105.004 285.351C104.816 285.727 104.722 286.178 104.722 286.704V292H103.278ZM115.322 292.158C114.758 292.158 114.249 292.05 113.795 291.834C113.347 291.618 112.99 291.311 112.724 290.913C112.464 290.514 112.334 290.044 112.334 289.501V289.485C112.334 288.954 112.461 288.5 112.716 288.124C112.97 287.742 113.341 287.443 113.828 287.227C114.315 287.011 114.905 286.884 115.596 286.845L118.883 286.646V287.8L115.771 287.999C115.09 288.038 114.592 288.179 114.276 288.422C113.967 288.666 113.812 289.009 113.812 289.452V289.468C113.812 289.922 113.983 290.276 114.326 290.531C114.669 290.78 115.101 290.904 115.621 290.904C116.114 290.904 116.551 290.807 116.933 290.614C117.314 290.415 117.613 290.146 117.829 289.809C118.051 289.471 118.161 289.089 118.161 288.663V285.874C118.161 285.321 117.992 284.9 117.655 284.612C117.323 284.319 116.822 284.172 116.152 284.172C115.616 284.172 115.176 284.269 114.833 284.463C114.489 284.651 114.26 284.919 114.144 285.268L114.135 285.293H112.691L112.699 285.243C112.777 284.773 112.97 284.363 113.28 284.015C113.596 283.66 114.002 283.387 114.501 283.193C114.999 282.994 115.566 282.894 116.202 282.894C116.933 282.894 117.55 283.013 118.053 283.251C118.562 283.489 118.947 283.832 119.207 284.28C119.473 284.723 119.606 285.254 119.606 285.874V292H118.161V290.68H118.028C117.84 290.996 117.611 291.264 117.339 291.485C117.074 291.707 116.772 291.875 116.435 291.992C116.097 292.102 115.726 292.158 115.322 292.158ZM125.591 295.154C124.871 295.154 124.243 295.052 123.706 294.847C123.17 294.648 122.741 294.363 122.42 293.992C122.104 293.627 121.908 293.201 121.83 292.714L121.847 292.706H123.341L123.349 292.714C123.427 293.051 123.659 293.328 124.047 293.544C124.434 293.765 124.949 293.876 125.591 293.876C126.393 293.876 127.018 293.693 127.467 293.328C127.92 292.968 128.147 292.459 128.147 291.801V289.991H128.015C127.826 290.318 127.591 290.597 127.309 290.83C127.027 291.062 126.709 291.239 126.354 291.361C126 291.477 125.618 291.535 125.209 291.535C124.44 291.535 123.773 291.353 123.208 290.987C122.649 290.617 122.218 290.107 121.913 289.46C121.609 288.812 121.457 288.071 121.457 287.235V287.219C121.457 286.383 121.609 285.642 121.913 284.994C122.223 284.341 122.661 283.829 123.225 283.458C123.789 283.082 124.462 282.894 125.242 282.894C125.663 282.894 126.05 282.96 126.404 283.093C126.758 283.226 127.071 283.414 127.342 283.658C127.619 283.901 127.849 284.192 128.031 284.529H128.131V283.052H129.575V291.875C129.575 292.54 129.412 293.118 129.085 293.61C128.764 294.103 128.305 294.482 127.707 294.748C127.11 295.019 126.404 295.154 125.591 295.154ZM125.524 290.257C126.078 290.257 126.551 290.13 126.944 289.875C127.342 289.615 127.647 289.258 127.857 288.804C128.073 288.35 128.181 287.827 128.181 287.235V287.219C128.181 286.627 128.073 286.101 127.857 285.642C127.647 285.182 127.342 284.823 126.944 284.562C126.551 284.302 126.078 284.172 125.524 284.172C124.971 284.172 124.501 284.302 124.113 284.562C123.731 284.823 123.438 285.182 123.233 285.642C123.034 286.101 122.934 286.627 122.934 287.219V287.235C122.934 287.827 123.034 288.35 123.233 288.804C123.438 289.258 123.731 289.615 124.113 289.875C124.501 290.13 124.971 290.257 125.524 290.257ZM135.577 292.158C134.725 292.158 133.991 291.97 133.377 291.593C132.768 291.217 132.298 290.686 131.966 290C131.64 289.308 131.476 288.494 131.476 287.559V287.551C131.476 286.627 131.64 285.816 131.966 285.119C132.298 284.421 132.766 283.876 133.369 283.483C133.972 283.09 134.678 282.894 135.486 282.894C136.299 282.894 136.996 283.082 137.577 283.458C138.164 283.835 138.612 284.361 138.922 285.036C139.238 285.705 139.395 286.486 139.395 287.376V287.941H132.223V286.787H138.656L137.943 287.841V287.269C137.943 286.566 137.837 285.987 137.627 285.534C137.417 285.08 137.126 284.742 136.756 284.521C136.385 284.294 135.959 284.181 135.477 284.181C134.996 284.181 134.564 284.3 134.182 284.538C133.806 284.77 133.507 285.116 133.286 285.575C133.065 286.035 132.954 286.599 132.954 287.269V287.841C132.954 288.478 133.062 289.023 133.278 289.477C133.493 289.925 133.801 290.271 134.199 290.514C134.597 290.752 135.068 290.871 135.61 290.871C136.014 290.871 136.365 290.816 136.664 290.705C136.963 290.594 137.209 290.453 137.403 290.282C137.597 290.11 137.732 289.936 137.81 289.759L137.843 289.684H139.287L139.271 289.75C139.193 290.055 139.055 290.351 138.856 290.639C138.662 290.921 138.41 291.178 138.1 291.411C137.79 291.638 137.422 291.82 136.996 291.958C136.576 292.091 136.103 292.158 135.577 292.158ZM149.041 292.158C148.289 292.158 147.63 291.967 147.066 291.585C146.501 291.203 146.064 290.666 145.754 289.975C145.444 289.277 145.289 288.464 145.289 287.534V287.518C145.289 286.582 145.444 285.769 145.754 285.077C146.064 284.385 146.499 283.849 147.058 283.467C147.622 283.085 148.283 282.894 149.041 282.894C149.451 282.894 149.836 282.96 150.195 283.093C150.56 283.221 150.884 283.4 151.166 283.633C151.449 283.865 151.67 284.142 151.83 284.463H151.963V279.499H153.408V292H151.963V290.572H151.83C151.648 290.904 151.418 291.189 151.142 291.427C150.865 291.66 150.549 291.84 150.195 291.967C149.841 292.094 149.456 292.158 149.041 292.158ZM149.373 290.879C149.916 290.879 150.383 290.744 150.776 290.473C151.169 290.201 151.471 289.817 151.681 289.319C151.891 288.815 151.996 288.22 151.996 287.534V287.518C151.996 286.826 151.891 286.231 151.681 285.733C151.471 285.235 151.169 284.85 150.776 284.579C150.383 284.308 149.916 284.172 149.373 284.172C148.831 284.172 148.364 284.308 147.971 284.579C147.583 284.845 147.284 285.227 147.074 285.725C146.869 286.223 146.767 286.82 146.767 287.518V287.534C146.767 288.226 146.869 288.824 147.074 289.327C147.284 289.825 147.583 290.21 147.971 290.481C148.364 290.747 148.831 290.879 149.373 290.879ZM155.84 292V283.052H157.284V284.38H157.417C157.589 283.91 157.879 283.544 158.289 283.284C158.698 283.024 159.205 282.894 159.808 282.894C159.946 282.894 160.082 282.902 160.215 282.919C160.353 282.93 160.458 282.941 160.53 282.952V284.355C160.381 284.327 160.234 284.308 160.09 284.297C159.952 284.28 159.802 284.272 159.642 284.272C159.183 284.272 158.776 284.363 158.422 284.546C158.067 284.729 157.788 284.983 157.583 285.31C157.384 285.636 157.284 286.018 157.284 286.455V292H155.84ZM162.008 292V283.052H163.452V292H162.008ZM162.738 281.325C162.467 281.325 162.232 281.228 162.033 281.035C161.839 280.835 161.742 280.6 161.742 280.329C161.742 280.052 161.839 279.817 162.033 279.624C162.232 279.43 162.467 279.333 162.738 279.333C163.015 279.333 163.25 279.43 163.444 279.624C163.638 279.817 163.734 280.052 163.734 280.329C163.734 280.6 163.638 280.835 163.444 281.035C163.25 281.228 163.015 281.325 162.738 281.325ZM168.367 292L165.055 283.052H166.582L169.031 290.423H169.163L171.612 283.052H173.14L169.828 292H168.367ZM178.029 292.158C177.177 292.158 176.444 291.97 175.829 291.593C175.221 291.217 174.75 290.686 174.418 290C174.092 289.308 173.928 288.494 173.928 287.559V287.551C173.928 286.627 174.092 285.816 174.418 285.119C174.75 284.421 175.218 283.876 175.821 283.483C176.424 283.09 177.13 282.894 177.938 282.894C178.751 282.894 179.449 283.082 180.03 283.458C180.616 283.835 181.064 284.361 181.374 285.036C181.69 285.705 181.847 286.486 181.847 287.376V287.941H174.676V286.787H181.109L180.395 287.841V287.269C180.395 286.566 180.29 285.987 180.079 285.534C179.869 285.08 179.579 284.742 179.208 284.521C178.837 284.294 178.411 284.181 177.929 284.181C177.448 284.181 177.016 284.3 176.635 284.538C176.258 284.77 175.959 285.116 175.738 285.575C175.517 286.035 175.406 286.599 175.406 287.269V287.841C175.406 288.478 175.514 289.023 175.73 289.477C175.946 289.925 176.253 290.271 176.651 290.514C177.05 290.752 177.52 290.871 178.062 290.871C178.466 290.871 178.818 290.816 179.116 290.705C179.415 290.594 179.662 290.453 179.855 290.282C180.049 290.11 180.185 289.936 180.262 289.759L180.295 289.684H181.74L181.723 289.75C181.645 290.055 181.507 290.351 181.308 290.639C181.114 290.921 180.862 291.178 180.553 291.411C180.243 291.638 179.875 291.82 179.449 291.958C179.028 292.091 178.555 292.158 178.029 292.158ZM186.82 292.158C186.156 292.158 185.569 292.058 185.06 291.859C184.551 291.654 184.142 291.369 183.832 291.004C183.527 290.639 183.347 290.21 183.292 289.717H184.77C184.891 290.088 185.129 290.387 185.484 290.614C185.838 290.841 186.3 290.954 186.87 290.954C187.274 290.954 187.628 290.896 187.932 290.78C188.242 290.658 188.486 290.495 188.663 290.29C188.84 290.08 188.928 289.839 188.928 289.568V289.551C188.928 289.247 188.807 288.99 188.563 288.779C188.32 288.563 187.921 288.389 187.368 288.256L185.982 287.924C185.423 287.792 184.963 287.62 184.604 287.41C184.244 287.194 183.978 286.931 183.807 286.621C183.635 286.306 183.549 285.935 183.549 285.509V285.5C183.549 285.002 183.693 284.557 183.981 284.164C184.274 283.771 184.673 283.461 185.176 283.234C185.68 283.007 186.247 282.894 186.878 282.894C187.503 282.894 188.057 282.994 188.538 283.193C189.025 283.387 189.415 283.663 189.709 284.023C190.007 284.383 190.19 284.806 190.256 285.293H188.837C188.743 284.939 188.527 284.651 188.19 284.43C187.852 284.208 187.412 284.098 186.87 284.098C186.516 284.098 186.2 284.156 185.923 284.272C185.647 284.383 185.428 284.538 185.268 284.737C185.107 284.936 185.027 285.168 185.027 285.434V285.451C185.027 285.65 185.08 285.827 185.185 285.982C185.29 286.137 185.453 286.272 185.674 286.389C185.896 286.505 186.181 286.607 186.529 286.696L187.907 287.028C188.748 287.233 189.374 287.526 189.783 287.908C190.198 288.29 190.406 288.801 190.406 289.443V289.46C190.406 289.991 190.248 290.462 189.933 290.871C189.617 291.275 189.188 291.59 188.646 291.817C188.109 292.044 187.501 292.158 186.82 292.158ZM191.942 295.046L192.664 290.323H194.316L193.013 295.046H191.942ZM203.987 292L200.675 283.052H202.202L204.651 290.423H204.784L207.233 283.052H208.76L205.448 292H203.987ZM210.362 292V283.052H211.807V292H210.362ZM211.093 281.325C210.822 281.325 210.586 281.228 210.387 281.035C210.193 280.835 210.097 280.6 210.097 280.329C210.097 280.052 210.193 279.817 210.387 279.624C210.586 279.43 210.822 279.333 211.093 279.333C211.369 279.333 211.605 279.43 211.798 279.624C211.992 279.817 212.089 280.052 212.089 280.329C212.089 280.6 211.992 280.835 211.798 281.035C211.605 281.228 211.369 281.325 211.093 281.325ZM217.842 292.158C216.989 292.158 216.256 291.97 215.642 291.593C215.033 291.217 214.563 290.686 214.231 290C213.904 289.308 213.741 288.494 213.741 287.559V287.551C213.741 286.627 213.904 285.816 214.231 285.119C214.563 284.421 215.03 283.876 215.634 283.483C216.237 283.09 216.942 282.894 217.75 282.894C218.564 282.894 219.261 283.082 219.842 283.458C220.429 283.835 220.877 284.361 221.187 285.036C221.502 285.705 221.66 286.486 221.66 287.376V287.941H214.488V286.787H220.921L220.207 287.841V287.269C220.207 286.566 220.102 285.987 219.892 285.534C219.682 285.08 219.391 284.742 219.02 284.521C218.65 284.294 218.223 284.181 217.742 284.181C217.261 284.181 216.829 284.3 216.447 284.538C216.071 284.77 215.772 285.116 215.551 285.575C215.329 286.035 215.219 286.599 215.219 287.269V287.841C215.219 288.478 215.326 289.023 215.542 289.477C215.758 289.925 216.065 290.271 216.464 290.514C216.862 290.752 217.332 290.871 217.875 290.871C218.279 290.871 218.63 290.816 218.929 290.705C219.228 290.594 219.474 290.453 219.668 290.282C219.861 290.11 219.997 289.936 220.075 289.759L220.108 289.684H221.552L221.535 289.75C221.458 290.055 221.32 290.351 221.12 290.639C220.927 290.921 220.675 291.178 220.365 291.411C220.055 291.638 219.687 291.82 219.261 291.958C218.84 292.091 218.367 292.158 217.842 292.158ZM225.288 292L222.781 283.052H224.225L225.985 290.207H226.118L228.118 283.052H229.488L231.488 290.207H231.621L233.381 283.052H234.817L232.31 292H230.858L228.857 285.077H228.724L226.732 292H225.288ZM240.827 294.988V283.052H242.272V284.479H242.405C242.587 284.147 242.817 283.865 243.094 283.633C243.37 283.395 243.686 283.212 244.04 283.085C244.394 282.958 244.779 282.894 245.194 282.894C245.952 282.894 246.61 283.088 247.169 283.475C247.734 283.857 248.171 284.394 248.481 285.085C248.791 285.777 248.946 286.588 248.946 287.518V287.534C248.946 288.469 248.791 289.283 248.481 289.975C248.171 290.666 247.734 291.203 247.169 291.585C246.61 291.967 245.952 292.158 245.194 292.158C244.784 292.158 244.397 292.094 244.032 291.967C243.672 291.834 243.351 291.651 243.069 291.419C242.792 291.187 242.571 290.91 242.405 290.589H242.272V294.988H240.827ZM244.862 290.879C245.41 290.879 245.877 290.747 246.264 290.481C246.652 290.21 246.948 289.825 247.153 289.327C247.363 288.824 247.468 288.226 247.468 287.534V287.518C247.468 286.82 247.363 286.223 247.153 285.725C246.948 285.227 246.652 284.845 246.264 284.579C245.877 284.308 245.41 284.172 244.862 284.172C244.319 284.172 243.852 284.308 243.459 284.579C243.066 284.85 242.764 285.235 242.554 285.733C242.344 286.231 242.239 286.826 242.239 287.518V287.534C242.239 288.22 242.344 288.815 242.554 289.319C242.764 289.817 243.066 290.201 243.459 290.473C243.852 290.744 244.319 290.879 244.862 290.879ZM250.863 292V283.052H252.308V284.38H252.441C252.612 283.91 252.903 283.544 253.312 283.284C253.722 283.024 254.228 282.894 254.831 282.894C254.97 282.894 255.105 282.902 255.238 282.919C255.376 282.93 255.481 282.941 255.553 282.952V284.355C255.404 284.327 255.257 284.308 255.113 284.297C254.975 284.28 254.826 284.272 254.665 284.272C254.206 284.272 253.799 284.363 253.445 284.546C253.091 284.729 252.811 284.983 252.607 285.31C252.407 285.636 252.308 286.018 252.308 286.455V292H250.863ZM260.426 292.158C259.58 292.158 258.846 291.972 258.227 291.602C257.612 291.225 257.136 290.691 256.799 290C256.467 289.308 256.301 288.486 256.301 287.534V287.518C256.301 286.56 256.467 285.736 256.799 285.044C257.136 284.352 257.612 283.821 258.227 283.45C258.846 283.079 259.58 282.894 260.426 282.894C261.278 282.894 262.012 283.079 262.626 283.45C263.24 283.821 263.713 284.352 264.045 285.044C264.383 285.736 264.552 286.56 264.552 287.518V287.534C264.552 288.486 264.383 289.308 264.045 290C263.713 290.691 263.24 291.225 262.626 291.602C262.012 291.972 261.278 292.158 260.426 292.158ZM260.426 290.879C260.991 290.879 261.469 290.747 261.862 290.481C262.255 290.215 262.554 289.833 262.759 289.335C262.969 288.837 263.074 288.237 263.074 287.534V287.518C263.074 286.809 262.969 286.206 262.759 285.708C262.554 285.21 262.255 284.831 261.862 284.571C261.469 284.305 260.991 284.172 260.426 284.172C259.862 284.172 259.383 284.305 258.99 284.571C258.597 284.831 258.296 285.21 258.085 285.708C257.881 286.206 257.778 286.809 257.778 287.518V287.534C257.778 288.237 257.881 288.837 258.085 289.335C258.296 289.833 258.597 290.215 258.99 290.481C259.383 290.747 259.862 290.879 260.426 290.879ZM267.051 292V284.247H265.565V283.052H267.051V282.056C267.051 281.458 267.147 280.965 267.341 280.578C267.54 280.185 267.834 279.895 268.221 279.707C268.608 279.513 269.084 279.416 269.649 279.416C269.826 279.416 269.992 279.424 270.147 279.441C270.307 279.452 270.462 279.471 270.612 279.499V280.653C270.523 280.636 270.421 280.625 270.305 280.62C270.188 280.614 270.067 280.611 269.939 280.611C269.425 280.611 269.054 280.736 268.827 280.985C268.606 281.234 268.495 281.605 268.495 282.097V283.052H270.529V284.247H268.495V292H267.051ZM272.305 292V283.052H273.75V292H272.305ZM273.036 281.325C272.765 281.325 272.529 281.228 272.33 281.035C272.137 280.835 272.04 280.6 272.04 280.329C272.04 280.052 272.137 279.817 272.33 279.624C272.529 279.43 272.765 279.333 273.036 279.333C273.313 279.333 273.548 279.43 273.741 279.624C273.935 279.817 274.032 280.052 274.032 280.329C274.032 280.6 273.935 280.835 273.741 281.035C273.548 281.228 273.313 281.325 273.036 281.325ZM276.215 292V279.499H277.66V292H276.215ZM283.745 292.158C282.892 292.158 282.159 291.97 281.545 291.593C280.936 291.217 280.466 290.686 280.134 290C279.807 289.308 279.644 288.494 279.644 287.559V287.551C279.644 286.627 279.807 285.816 280.134 285.119C280.466 284.421 280.933 283.876 281.536 283.483C282.14 283.09 282.845 282.894 283.653 282.894C284.467 282.894 285.164 283.082 285.745 283.458C286.332 283.835 286.78 284.361 287.09 285.036C287.405 285.705 287.563 286.486 287.563 287.376V287.941H280.391V286.787H286.824L286.11 287.841V287.269C286.11 286.566 286.005 285.987 285.795 285.534C285.585 285.08 285.294 284.742 284.923 284.521C284.552 284.294 284.126 284.181 283.645 284.181C283.163 284.181 282.732 284.3 282.35 284.538C281.974 284.77 281.675 285.116 281.453 285.575C281.232 286.035 281.121 286.599 281.121 287.269V287.841C281.121 288.478 281.229 289.023 281.445 289.477C281.661 289.925 281.968 290.271 282.367 290.514C282.765 290.752 283.235 290.871 283.778 290.871C284.182 290.871 284.533 290.816 284.832 290.705C285.131 290.594 285.377 290.453 285.571 290.282C285.764 290.11 285.9 289.936 285.977 289.759L286.011 289.684H287.455L287.438 289.75C287.361 290.055 287.223 290.351 287.023 290.639C286.83 290.921 286.578 291.178 286.268 291.411C285.958 291.638 285.59 291.82 285.164 291.958C284.743 292.091 284.27 292.158 283.745 292.158ZM292.535 292.158C291.871 292.158 291.285 292.058 290.776 291.859C290.266 291.654 289.857 291.369 289.547 291.004C289.243 290.639 289.063 290.21 289.008 289.717H290.485C290.607 290.088 290.845 290.387 291.199 290.614C291.553 290.841 292.015 290.954 292.585 290.954C292.989 290.954 293.343 290.896 293.648 290.78C293.958 290.658 294.201 290.495 294.378 290.29C294.555 290.08 294.644 289.839 294.644 289.568V289.551C294.644 289.247 294.522 288.99 294.279 288.779C294.035 288.563 293.637 288.389 293.083 288.256L291.697 287.924C291.138 287.792 290.679 287.62 290.319 287.41C289.959 287.194 289.694 286.931 289.522 286.621C289.351 286.306 289.265 285.935 289.265 285.509V285.5C289.265 285.002 289.409 284.557 289.697 284.164C289.99 283.771 290.388 283.461 290.892 283.234C291.395 283.007 291.963 282.894 292.593 282.894C293.219 282.894 293.772 282.994 294.254 283.193C294.741 283.387 295.131 283.663 295.424 284.023C295.723 284.383 295.905 284.806 295.972 285.293H294.552C294.458 284.939 294.243 284.651 293.905 284.43C293.567 284.208 293.127 284.098 292.585 284.098C292.231 284.098 291.916 284.156 291.639 284.272C291.362 284.383 291.144 284.538 290.983 284.737C290.823 284.936 290.742 285.168 290.742 285.434V285.451C290.742 285.65 290.795 285.827 290.9 285.982C291.005 286.137 291.169 286.272 291.39 286.389C291.611 286.505 291.896 286.607 292.245 286.696L293.623 287.028C294.464 287.233 295.089 287.526 295.499 287.908C295.914 288.29 296.121 288.801 296.121 289.443V289.46C296.121 289.991 295.964 290.462 295.648 290.871C295.333 291.275 294.904 291.59 294.362 291.817C293.825 292.044 293.216 292.158 292.535 292.158ZM297.657 295.046L298.379 290.323H300.031L298.728 295.046H297.657ZM63.0755 312.158C62.5111 312.158 62.002 312.05 61.5482 311.834C61.0999 311.618 60.743 311.311 60.4774 310.913C60.2173 310.514 60.0872 310.044 60.0872 309.501V309.485C60.0872 308.954 60.2145 308.5 60.4691 308.124C60.7236 307.742 61.0944 307.443 61.5814 307.227C62.0684 307.011 62.6577 306.884 63.3495 306.845L66.6366 306.646V307.8L63.5238 307.999C62.8431 308.038 62.3451 308.179 62.0296 308.422C61.7197 308.666 61.5648 309.009 61.5648 309.452V309.468C61.5648 309.922 61.7363 310.276 62.0794 310.531C62.4225 310.78 62.8542 310.904 63.3744 310.904C63.8669 310.904 64.304 310.807 64.6859 310.614C65.0677 310.415 65.3665 310.146 65.5824 309.809C65.8037 309.471 65.9144 309.089 65.9144 308.663V305.874C65.9144 305.321 65.7456 304.9 65.4081 304.612C65.076 304.319 64.5752 304.172 63.9056 304.172C63.3688 304.172 62.9289 304.269 62.5858 304.463C62.2427 304.651 62.013 304.919 61.8968 305.268L61.8885 305.293H60.4442L60.4525 305.243C60.53 304.773 60.7236 304.363 61.0335 304.015C61.349 303.66 61.7557 303.387 62.2538 303.193C62.7518 302.994 63.319 302.894 63.9554 302.894C64.6859 302.894 65.3029 303.013 65.8065 303.251C66.3156 303.489 66.7002 303.832 66.9603 304.28C67.2259 304.723 67.3587 305.254 67.3587 305.874V312H65.9144V310.68H65.7816C65.5934 310.996 65.3638 311.264 65.0926 311.485C64.827 311.707 64.5254 311.875 64.1878 311.992C63.8503 312.102 63.4795 312.158 63.0755 312.158ZM69.6584 312V303.052H71.1027V304.396H71.2355C71.4624 303.921 71.7889 303.553 72.215 303.292C72.6411 303.027 73.1835 302.894 73.842 302.894C74.8491 302.894 75.6211 303.182 76.1579 303.757C76.7002 304.327 76.9714 305.144 76.9714 306.206V312H75.527V306.555C75.527 305.747 75.3555 305.149 75.0124 304.762C74.6748 304.369 74.1491 304.172 73.4352 304.172C72.9593 304.172 72.5471 304.275 72.1984 304.479C71.8498 304.684 71.5786 304.975 71.3849 305.351C71.1968 305.727 71.1027 306.178 71.1027 306.704V312H69.6584ZM82.5498 312.158C81.7972 312.158 81.1387 311.967 80.5742 311.585C80.0098 311.203 79.5726 310.666 79.2627 309.975C78.9528 309.277 78.7979 308.464 78.7979 307.534V307.518C78.7979 306.582 78.9528 305.769 79.2627 305.077C79.5726 304.385 80.007 303.849 80.5659 303.467C81.1304 303.085 81.7917 302.894 82.5498 302.894C82.9593 302.894 83.3439 302.96 83.7036 303.093C84.0689 303.221 84.3926 303.4 84.6748 303.633C84.9571 303.865 85.1784 304.142 85.3389 304.463H85.4717V299.499H86.916V312H85.4717V310.572H85.3389C85.1563 310.904 84.9266 311.189 84.6499 311.427C84.3732 311.66 84.0578 311.84 83.7036 311.967C83.3495 312.094 82.9649 312.158 82.5498 312.158ZM82.8819 310.879C83.4242 310.879 83.8918 310.744 84.2847 310.473C84.6776 310.201 84.9792 309.817 85.1895 309.319C85.3998 308.815 85.5049 308.22 85.5049 307.534V307.518C85.5049 306.826 85.3998 306.231 85.1895 305.733C84.9792 305.235 84.6776 304.85 84.2847 304.579C83.8918 304.308 83.4242 304.172 82.8819 304.172C82.3395 304.172 81.8719 304.308 81.479 304.579C81.0917 304.845 80.7928 305.227 80.5825 305.725C80.3778 306.223 80.2754 306.82 80.2754 307.518V307.534C80.2754 308.226 80.3778 308.824 80.5825 309.327C80.7928 309.825 81.0917 310.21 81.479 310.481C81.8719 310.747 82.3395 310.879 82.8819 310.879ZM96.861 312.158C96.197 312.158 95.6104 312.058 95.1013 311.859C94.5922 311.654 94.1827 311.369 93.8728 311.004C93.5684 310.639 93.3885 310.21 93.3332 309.717H94.8107C94.9325 310.088 95.1704 310.387 95.5246 310.614C95.8788 310.841 96.3409 310.954 96.9108 310.954C97.3148 310.954 97.669 310.896 97.9733 310.78C98.2832 310.658 98.5267 310.495 98.7038 310.29C98.8809 310.08 98.9694 309.839 98.9694 309.568V309.551C98.9694 309.247 98.8477 308.99 98.6042 308.779C98.3607 308.563 97.9623 308.389 97.4089 308.256L96.0227 307.924C95.4637 307.792 95.0044 307.62 94.6447 307.41C94.285 307.194 94.0194 306.931 93.8479 306.621C93.6763 306.306 93.5905 305.935 93.5905 305.509V305.5C93.5905 305.002 93.7344 304.557 94.0222 304.164C94.3155 303.771 94.7139 303.461 95.2175 303.234C95.7211 303.007 96.2883 302.894 96.9191 302.894C97.5445 302.894 98.0979 302.994 98.5793 303.193C99.0663 303.387 99.4564 303.663 99.7497 304.023C100.049 304.383 100.231 304.806 100.298 305.293H98.8781C98.7841 304.939 98.5682 304.651 98.2307 304.43C97.8931 304.208 97.4532 304.098 96.9108 304.098C96.5567 304.098 96.2412 304.156 95.9646 304.272C95.6879 304.383 95.4693 304.538 95.3088 304.737C95.1483 304.936 95.0681 305.168 95.0681 305.434V305.451C95.0681 305.65 95.1206 305.827 95.2258 305.982C95.3309 306.137 95.4942 306.272 95.7155 306.389C95.9369 306.505 96.2219 306.607 96.5705 306.696L97.9484 307.028C98.7896 307.233 99.4149 307.526 99.8244 307.908C100.239 308.29 100.447 308.801 100.447 309.443V309.46C100.447 309.991 100.289 310.462 99.9738 310.871C99.6584 311.275 99.2295 311.59 98.6872 311.817C98.1504 312.044 97.5417 312.158 96.861 312.158ZM106.009 312.158C105.173 312.158 104.448 311.967 103.834 311.585C103.22 311.203 102.744 310.664 102.406 309.966C102.069 309.269 101.9 308.447 101.9 307.501V307.484C101.9 306.555 102.066 305.747 102.398 305.061C102.736 304.374 103.211 303.843 103.826 303.467C104.44 303.085 105.165 302.894 106.001 302.894C106.725 302.894 107.351 303.021 107.877 303.276C108.402 303.53 108.823 303.874 109.138 304.305C109.454 304.731 109.656 305.21 109.744 305.741L109.752 305.791H108.316L108.308 305.766C108.197 305.323 107.946 304.947 107.553 304.637C107.16 304.327 106.642 304.172 106.001 304.172C105.464 304.172 104.999 304.308 104.606 304.579C104.213 304.85 103.909 305.235 103.693 305.733C103.483 306.225 103.377 306.809 103.377 307.484V307.501C103.377 308.187 103.485 308.785 103.701 309.294C103.917 309.798 104.221 310.188 104.614 310.464C105.007 310.741 105.469 310.879 106.001 310.879C106.604 310.879 107.096 310.749 107.478 310.489C107.86 310.229 108.134 309.85 108.3 309.352L108.316 309.302L109.744 309.294L109.728 309.385C109.606 309.922 109.39 310.401 109.08 310.821C108.77 311.236 108.361 311.563 107.852 311.801C107.342 312.039 106.728 312.158 106.009 312.158ZM111.604 312V299.499H113.048V304.396H113.181C113.408 303.921 113.734 303.553 114.161 303.292C114.587 303.027 115.129 302.894 115.787 302.894C116.457 302.894 117.024 303.024 117.489 303.284C117.954 303.539 118.308 303.912 118.552 304.405C118.795 304.897 118.917 305.498 118.917 306.206V312H117.473V306.555C117.473 305.747 117.301 305.149 116.958 304.762C116.62 304.369 116.095 304.172 115.381 304.172C114.905 304.172 114.493 304.275 114.144 304.479C113.795 304.684 113.524 304.975 113.33 305.351C113.142 305.727 113.048 306.178 113.048 306.704V312H111.604ZM124.844 312.158C123.992 312.158 123.259 311.97 122.644 311.593C122.036 311.217 121.565 310.686 121.233 310C120.907 309.308 120.743 308.494 120.743 307.559V307.551C120.743 306.627 120.907 305.816 121.233 305.119C121.565 304.421 122.033 303.876 122.636 303.483C123.239 303.09 123.945 302.894 124.753 302.894C125.566 302.894 126.263 303.082 126.844 303.458C127.431 303.835 127.879 304.361 128.189 305.036C128.505 305.705 128.662 306.486 128.662 307.376V307.941H121.49V306.787H127.924L127.21 307.841V307.269C127.21 306.566 127.105 305.987 126.894 305.534C126.684 305.08 126.393 304.742 126.023 304.521C125.652 304.294 125.226 304.181 124.744 304.181C124.263 304.181 123.831 304.3 123.449 304.538C123.073 304.77 122.774 305.116 122.553 305.575C122.332 306.035 122.221 306.599 122.221 307.269V307.841C122.221 308.478 122.329 309.023 122.545 309.477C122.76 309.925 123.068 310.271 123.466 310.514C123.864 310.752 124.335 310.871 124.877 310.871C125.281 310.871 125.633 310.816 125.931 310.705C126.23 310.594 126.476 310.453 126.67 310.282C126.864 310.11 126.999 309.936 127.077 309.759L127.11 309.684H128.554L128.538 309.75C128.46 310.055 128.322 310.351 128.123 310.639C127.929 310.921 127.677 311.178 127.367 311.411C127.058 311.638 126.69 311.82 126.263 311.958C125.843 312.091 125.37 312.158 124.844 312.158ZM133.867 312.158C133.115 312.158 132.456 311.967 131.892 311.585C131.327 311.203 130.89 310.666 130.58 309.975C130.27 309.277 130.115 308.464 130.115 307.534V307.518C130.115 306.582 130.27 305.769 130.58 305.077C130.89 304.385 131.324 303.849 131.883 303.467C132.448 303.085 133.109 302.894 133.867 302.894C134.277 302.894 134.661 302.96 135.021 303.093C135.386 303.221 135.71 303.4 135.992 303.633C136.274 303.865 136.496 304.142 136.656 304.463H136.789V299.499H138.233V312H136.789V310.572H136.656C136.474 310.904 136.244 311.189 135.967 311.427C135.691 311.66 135.375 311.84 135.021 311.967C134.667 312.094 134.282 312.158 133.867 312.158ZM134.199 310.879C134.742 310.879 135.209 310.744 135.602 310.473C135.995 310.201 136.297 309.817 136.507 309.319C136.717 308.815 136.822 308.22 136.822 307.534V307.518C136.822 306.826 136.717 306.231 136.507 305.733C136.297 305.235 135.995 304.85 135.602 304.579C135.209 304.308 134.742 304.172 134.199 304.172C133.657 304.172 133.189 304.308 132.796 304.579C132.409 304.845 132.11 305.227 131.9 305.725C131.695 306.223 131.593 306.82 131.593 307.518V307.534C131.593 308.226 131.695 308.824 131.9 309.327C132.11 309.825 132.409 310.21 132.796 310.481C133.189 310.747 133.657 310.879 134.199 310.879ZM143.663 312.158C142.987 312.158 142.42 312.03 141.961 311.776C141.502 311.516 141.156 311.139 140.923 310.647C140.696 310.149 140.583 309.549 140.583 308.846V303.052H142.027V308.497C142.027 309.299 142.182 309.897 142.492 310.29C142.808 310.683 143.322 310.879 144.036 310.879C144.429 310.879 144.775 310.821 145.074 310.705C145.378 310.589 145.633 310.423 145.837 310.207C146.042 309.986 146.194 309.72 146.294 309.41C146.399 309.095 146.452 308.741 146.452 308.348V303.052H147.896V312H146.452V310.664H146.319C146.175 310.979 145.978 311.25 145.729 311.477C145.48 311.698 145.182 311.867 144.833 311.983C144.49 312.1 144.1 312.158 143.663 312.158ZM150.337 312V299.499H151.781V312H150.337ZM157.866 312.158C157.014 312.158 156.28 311.97 155.666 311.593C155.057 311.217 154.587 310.686 154.255 310C153.928 309.308 153.765 308.494 153.765 307.559V307.551C153.765 306.627 153.928 305.816 154.255 305.119C154.587 304.421 155.055 303.876 155.658 303.483C156.261 303.09 156.967 302.894 157.775 302.894C158.588 302.894 159.285 303.082 159.866 303.458C160.453 303.835 160.901 304.361 161.211 305.036C161.526 305.705 161.684 306.486 161.684 307.376V307.941H154.512V306.787H160.945L160.232 307.841V307.269C160.232 306.566 160.126 305.987 159.916 305.534C159.706 305.08 159.415 304.742 159.045 304.521C158.674 304.294 158.248 304.181 157.766 304.181C157.285 304.181 156.853 304.3 156.471 304.538C156.095 304.77 155.796 305.116 155.575 305.575C155.353 306.035 155.243 306.599 155.243 307.269V307.841C155.243 308.478 155.351 309.023 155.566 309.477C155.782 309.925 156.089 310.271 156.488 310.514C156.886 310.752 157.357 310.871 157.899 310.871C158.303 310.871 158.654 310.816 158.953 310.705C159.252 310.594 159.498 310.453 159.692 310.282C159.886 310.11 160.021 309.936 160.099 309.759L160.132 309.684H161.576L161.56 309.75C161.482 310.055 161.344 310.351 161.145 310.639C160.951 310.921 160.699 311.178 160.389 311.411C160.079 311.638 159.711 311.82 159.285 311.958C158.865 312.091 158.392 312.158 157.866 312.158ZM168.06 312V303.052H169.504V312H168.06ZM168.79 301.325C168.519 301.325 168.284 301.228 168.085 301.035C167.891 300.835 167.794 300.6 167.794 300.329C167.794 300.052 167.891 299.817 168.085 299.624C168.284 299.43 168.519 299.333 168.79 299.333C169.067 299.333 169.302 299.43 169.496 299.624C169.69 299.817 169.786 300.052 169.786 300.329C169.786 300.6 169.69 300.835 169.496 301.035C169.302 301.228 169.067 301.325 168.79 301.325ZM171.887 312V303.052H173.331V304.396H173.464C173.691 303.921 174.017 303.553 174.443 303.292C174.87 303.027 175.412 302.894 176.07 302.894C177.078 302.894 177.85 303.182 178.386 303.757C178.929 304.327 179.2 305.144 179.2 306.206V312H177.755V306.555C177.755 305.747 177.584 305.149 177.241 304.762C176.903 304.369 176.378 304.172 175.664 304.172C175.188 304.172 174.775 304.275 174.427 304.479C174.078 304.684 173.807 304.975 173.613 305.351C173.425 305.727 173.331 306.178 173.331 306.704V312H171.887ZM184.654 312.066C183.735 312.066 183.068 311.881 182.653 311.51C182.244 311.139 182.039 310.528 182.039 309.676V304.247H180.628V303.052H182.039V300.736H183.533V303.052H185.492V304.247H183.533V309.311C183.533 309.836 183.633 310.215 183.832 310.448C184.031 310.675 184.363 310.788 184.828 310.788C184.955 310.788 185.063 310.785 185.152 310.78C185.246 310.774 185.359 310.766 185.492 310.755V311.983C185.354 312.006 185.215 312.025 185.077 312.042C184.939 312.058 184.798 312.066 184.654 312.066ZM190.846 312.158C189.994 312.158 189.261 311.97 188.647 311.593C188.038 311.217 187.568 310.686 187.236 310C186.909 309.308 186.746 308.494 186.746 307.559V307.551C186.746 306.627 186.909 305.816 187.236 305.119C187.568 304.421 188.035 303.876 188.638 303.483C189.242 303.09 189.947 302.894 190.755 302.894C191.569 302.894 192.266 303.082 192.847 303.458C193.434 303.835 193.882 304.361 194.192 305.036C194.507 305.705 194.665 306.486 194.665 307.376V307.941H187.493V306.787H193.926L193.212 307.841V307.269C193.212 306.566 193.107 305.987 192.897 305.534C192.686 305.08 192.396 304.742 192.025 304.521C191.654 304.294 191.228 304.181 190.747 304.181C190.265 304.181 189.834 304.3 189.452 304.538C189.076 304.77 188.777 305.116 188.555 305.575C188.334 306.035 188.223 306.599 188.223 307.269V307.841C188.223 308.478 188.331 309.023 188.547 309.477C188.763 309.925 189.07 310.271 189.469 310.514C189.867 310.752 190.337 310.871 190.88 310.871C191.284 310.871 191.635 310.816 191.934 310.705C192.233 310.594 192.479 310.453 192.673 310.282C192.866 310.11 193.002 309.936 193.079 309.759L193.113 309.684H194.557L194.54 309.75C194.463 310.055 194.324 310.351 194.125 310.639C193.932 310.921 193.68 311.178 193.37 311.411C193.06 311.638 192.692 311.82 192.266 311.958C191.845 312.091 191.372 312.158 190.846 312.158ZM196.566 312V303.052H198.01V304.38H198.143C198.315 303.91 198.605 303.544 199.015 303.284C199.424 303.024 199.931 302.894 200.534 302.894C200.672 302.894 200.808 302.902 200.941 302.919C201.079 302.93 201.184 302.941 201.256 302.952V304.355C201.107 304.327 200.96 304.308 200.816 304.297C200.678 304.28 200.528 304.272 200.368 304.272C199.908 304.272 199.502 304.363 199.148 304.546C198.793 304.729 198.514 304.983 198.309 305.31C198.11 305.636 198.01 306.018 198.01 306.455V312H196.566ZM205.315 312L202.003 303.052H203.531L205.979 310.423H206.112L208.561 303.052H210.088L206.776 312H205.315ZM211.691 312V303.052H213.135V312H211.691ZM212.421 301.325C212.15 301.325 211.915 301.228 211.716 301.035C211.522 300.835 211.425 300.6 211.425 300.329C211.425 300.052 211.522 299.817 211.716 299.624C211.915 299.43 212.15 299.333 212.421 299.333C212.698 299.333 212.933 299.43 213.127 299.624C213.32 299.817 213.417 300.052 213.417 300.329C213.417 300.6 213.32 300.835 213.127 301.035C212.933 301.228 212.698 301.325 212.421 301.325ZM219.17 312.158C218.318 312.158 217.585 311.97 216.97 311.593C216.362 311.217 215.891 310.686 215.559 310C215.233 309.308 215.069 308.494 215.069 307.559V307.551C215.069 306.627 215.233 305.816 215.559 305.119C215.891 304.421 216.359 303.876 216.962 303.483C217.565 303.09 218.271 302.894 219.079 302.894C219.892 302.894 220.589 303.082 221.171 303.458C221.757 303.835 222.205 304.361 222.515 305.036C222.831 305.705 222.988 306.486 222.988 307.376V307.941H215.817V306.787H222.25L221.536 307.841V307.269C221.536 306.566 221.431 305.987 221.22 305.534C221.01 305.08 220.72 304.742 220.349 304.521C219.978 304.294 219.552 304.181 219.07 304.181C218.589 304.181 218.157 304.3 217.776 304.538C217.399 304.77 217.1 305.116 216.879 305.575C216.658 306.035 216.547 306.599 216.547 307.269V307.841C216.547 308.478 216.655 309.023 216.871 309.477C217.087 309.925 217.394 310.271 217.792 310.514C218.191 310.752 218.661 310.871 219.203 310.871C219.607 310.871 219.959 310.816 220.257 310.705C220.556 310.594 220.803 310.453 220.996 310.282C221.19 310.11 221.325 309.936 221.403 309.759L221.436 309.684H222.881L222.864 309.75C222.786 310.055 222.648 310.351 222.449 310.639C222.255 310.921 222.003 311.178 221.693 311.411C221.384 311.638 221.016 311.82 220.589 311.958C220.169 312.091 219.696 312.158 219.17 312.158ZM226.616 312L224.109 303.052H225.554L227.313 310.207H227.446L229.447 303.052H230.816L232.817 310.207H232.95L234.709 303.052H236.145L233.639 312H232.186L230.186 305.077H230.053L228.061 312H226.616ZM240.537 312.158C239.873 312.158 239.286 312.058 238.777 311.859C238.268 311.654 237.859 311.369 237.549 311.004C237.244 310.639 237.064 310.21 237.009 309.717H238.487C238.608 310.088 238.846 310.387 239.201 310.614C239.555 310.841 240.017 310.954 240.587 310.954C240.991 310.954 241.345 310.896 241.649 310.78C241.959 310.658 242.203 310.495 242.38 310.29C242.557 310.08 242.645 309.839 242.645 309.568V309.551C242.645 309.247 242.524 308.99 242.28 308.779C242.037 308.563 241.638 308.389 241.085 308.256L239.699 307.924C239.14 307.792 238.68 307.62 238.321 307.41C237.961 307.194 237.695 306.931 237.524 306.621C237.352 306.306 237.266 305.935 237.266 305.509V305.5C237.266 305.002 237.41 304.557 237.698 304.164C237.991 303.771 238.39 303.461 238.893 303.234C239.397 303.007 239.964 302.894 240.595 302.894C241.22 302.894 241.774 302.994 242.255 303.193C242.742 303.387 243.132 303.663 243.426 304.023C243.724 304.383 243.907 304.806 243.973 305.293H242.554C242.46 304.939 242.244 304.651 241.907 304.43C241.569 304.208 241.129 304.098 240.587 304.098C240.233 304.098 239.917 304.156 239.64 304.272C239.364 304.383 239.145 304.538 238.985 304.737C238.824 304.936 238.744 305.168 238.744 305.434V305.451C238.744 305.65 238.797 305.827 238.902 305.982C239.007 306.137 239.17 306.272 239.391 306.389C239.613 306.505 239.898 306.607 240.246 306.696L241.624 307.028C242.465 307.233 243.091 307.526 243.5 307.908C243.915 308.29 244.123 308.801 244.123 309.443V309.46C244.123 309.991 243.965 310.462 243.65 310.871C243.334 311.275 242.905 311.59 242.363 311.817C241.826 312.044 241.218 312.158 240.537 312.158ZM247.203 312.083C246.909 312.083 246.655 311.978 246.439 311.768C246.229 311.552 246.124 311.297 246.124 311.004C246.124 310.705 246.229 310.451 246.439 310.24C246.655 310.03 246.909 309.925 247.203 309.925C247.502 309.925 247.756 310.03 247.966 310.24C248.177 310.451 248.282 310.705 248.282 311.004C248.282 311.297 248.177 311.552 247.966 311.768C247.756 311.978 247.502 312.083 247.203 312.083Z" fill="white"/>
</svg>
