<svg width="236" height="236" viewBox="0 0 236 236" fill="none" xmlns="http://www.w3.org/2000/svg">
<path d="M233.308 180.492H0V180.61H233.308V180.492Z" fill="#EBEBEB"/>
<path d="M209.931 188.089H194.476V188.207H209.931V188.089Z" fill="#EBEBEB"/>
<path d="M127.49 186.611H121.476V186.729H127.49V186.611Z" fill="#EBEBEB"/>
<path d="M163.16 187.109H150.496V187.227H163.16V187.109Z" fill="#EBEBEB"/>
<path d="M194.009 183.707H167.826V183.825H194.009V183.707Z" fill="#EBEBEB"/>
<path d="M36.8561 189.167H24.4781V189.285H36.8561V189.167Z" fill="#EBEBEB"/>
<path d="M51.7427 189.167H41.0105V189.285H51.7427V189.167Z" fill="#EBEBEB"/>
<path d="M89.5036 186.551H61.1268V186.669H89.5036V186.551Z" fill="#EBEBEB"/>
<path d="M110.595 159.442H20.4914C19.023 159.442 17.828 158.233 17.828 156.748V28.6317C17.828 27.1463 19.023 25.9375 20.4914 25.9375H110.595C112.062 25.9375 113.257 27.1463 113.257 28.6317V156.748C113.257 158.233 112.062 159.442 110.595 159.442ZM20.4914 26.056C19.0869 26.056 17.9447 27.2114 17.9447 28.6321V156.748C17.9447 158.169 19.0869 159.324 20.4914 159.324H110.595C111.999 159.324 113.141 158.169 113.141 156.748V28.6317C113.141 27.2114 111.999 26.0555 110.595 26.0555L20.4914 26.056Z" fill="#EBEBEB"/>
<path d="M211.522 159.442H121.419C119.951 159.442 118.756 158.233 118.756 156.748V28.6317C118.756 27.1463 119.951 25.9375 121.419 25.9375H211.522C212.991 25.9375 214.185 27.1463 214.185 28.6317V156.748C214.186 158.233 212.991 159.442 211.522 159.442ZM121.419 26.056C120.015 26.056 118.873 27.2114 118.873 28.6321V156.748C118.873 158.169 120.015 159.324 121.419 159.324H211.522C212.926 159.324 214.068 158.169 214.068 156.748V28.6317C214.068 27.2114 212.926 26.0555 211.522 26.0555L121.419 26.056Z" fill="#EBEBEB"/>
<path d="M30.1748 152.456C28.9415 152.456 27.9323 151.435 27.9323 150.188V46.0594C27.9323 44.812 28.9415 43.791 30.1748 43.791C31.4081 43.791 32.4174 44.8115 32.4174 46.0594V150.188C32.4169 151.435 31.4081 152.456 30.1748 152.456Z" fill="#F0F0F0"/>
<path d="M39.507 152.456C38.2737 152.456 37.2644 151.435 37.2644 150.188V46.0594C37.2644 44.812 38.2732 43.791 39.507 43.791C40.7402 43.791 41.7495 44.8115 41.7495 46.0594V150.188C41.749 151.435 40.7402 152.456 39.507 152.456Z" fill="#F0F0F0"/>
<path d="M193.801 152.456C192.568 152.456 191.558 151.435 191.558 150.188V46.0594C191.558 44.812 192.567 43.791 193.801 43.791C195.034 43.791 196.043 44.8115 196.043 46.0594V150.188C196.043 151.435 195.034 152.456 193.801 152.456Z" fill="#F0F0F0"/>
<path d="M203.133 152.456C201.9 152.456 200.891 151.435 200.891 150.188V46.0594C200.891 44.812 201.899 43.791 203.133 43.791C204.366 43.791 205.376 44.8115 205.376 46.0594V150.188C205.376 151.435 204.366 152.456 203.133 152.456Z" fill="#F0F0F0"/>
<path d="M38.0735 177.028H37.7856C37.4991 177.028 37.2644 176.79 37.2644 176.5V168.586C37.2644 168.297 37.4991 168.059 37.7856 168.059H38.0735C38.36 168.059 38.5947 168.297 38.5947 168.586V176.5C38.5943 176.79 38.36 177.028 38.0735 177.028Z" fill="#F0F0F0"/>
<path d="M40.3534 177.028H40.0655C39.779 177.028 39.5443 176.79 39.5443 176.5V168.586C39.5443 168.297 39.779 168.059 40.0655 168.059H40.3534C40.6399 168.059 40.8746 168.297 40.8746 168.586V176.5C40.8742 176.79 40.6399 177.028 40.3534 177.028Z" fill="#F0F0F0"/>
<path d="M42.6333 177.028H42.3454C42.0589 177.028 41.8242 176.79 41.8242 176.5V168.586C41.8242 168.297 42.0585 168.059 42.3454 168.059H42.6333C42.9198 168.059 43.1545 168.297 43.1545 168.586V176.5C43.1541 176.79 42.9198 177.028 42.6333 177.028Z" fill="#F0F0F0"/>
<path d="M44.9132 177.028H44.6253C44.3388 177.028 44.1041 176.79 44.1041 176.5V168.586C44.1041 168.297 44.3384 168.059 44.6253 168.059H44.9132C45.1997 168.059 45.4345 168.297 45.4345 168.586V176.5C45.434 176.79 45.1997 177.028 44.9132 177.028Z" fill="#F0F0F0"/>
<path d="M47.1929 177.028H46.905C46.6185 177.028 46.3838 176.79 46.3838 176.5V168.586C46.3838 168.297 46.618 168.059 46.905 168.059H47.1929C47.4794 168.059 47.7141 168.297 47.7141 168.586V176.5C47.7141 176.79 47.4794 177.028 47.1929 177.028Z" fill="#F0F0F0"/>
<path d="M49.4729 177.028H49.185C48.8985 177.028 48.6638 176.79 48.6638 176.5V168.586C48.6638 168.297 48.8985 168.059 49.185 168.059H49.4729C49.7594 168.059 49.9941 168.297 49.9941 168.586V176.5C49.9941 176.79 49.7594 177.028 49.4729 177.028Z" fill="#F0F0F0"/>
<path d="M51.7528 177.028H51.4649C51.1784 177.028 50.9437 176.79 50.9437 176.5V168.586C50.9437 168.297 51.1784 168.059 51.4649 168.059H51.7528C52.0393 168.059 52.274 168.297 52.274 168.586V176.5C52.274 176.79 52.0393 177.028 51.7528 177.028Z" fill="#F0F0F0"/>
<path d="M100.448 177.028H100.16C99.8731 177.028 99.6384 176.79 99.6384 176.5V168.586C99.6384 168.297 99.8727 168.059 100.16 168.059H100.448C100.734 168.059 100.969 168.297 100.969 168.586V176.5C100.969 176.79 100.734 177.028 100.448 177.028Z" fill="#F0F0F0"/>
<path d="M102.727 177.028H102.44C102.153 177.028 101.918 176.79 101.918 176.5V168.586C101.918 168.297 102.153 168.059 102.44 168.059H102.727C103.014 168.059 103.249 168.297 103.249 168.586V176.5C103.249 176.79 103.014 177.028 102.727 177.028Z" fill="#F0F0F0"/>
<path d="M105.007 177.028H104.719C104.433 177.028 104.198 176.79 104.198 176.5V168.586C104.198 168.297 104.433 168.059 104.719 168.059H105.007C105.294 168.059 105.529 168.297 105.529 168.586V176.5C105.529 176.79 105.294 177.028 105.007 177.028Z" fill="#F0F0F0"/>
<path d="M107.287 177.028H106.999C106.713 177.028 106.478 176.79 106.478 176.5V168.586C106.478 168.297 106.713 168.059 106.999 168.059H107.287C107.574 168.059 107.808 168.297 107.808 168.586V176.5C107.808 176.79 107.574 177.028 107.287 177.028Z" fill="#F0F0F0"/>
<path d="M109.568 177.028H109.28C108.993 177.028 108.759 176.79 108.759 176.5V168.586C108.759 168.297 108.993 168.059 109.28 168.059H109.568C109.854 168.059 110.089 168.297 110.089 168.586V176.5C110.088 176.79 109.854 177.028 109.568 177.028Z" fill="#F0F0F0"/>
<path d="M111.848 177.028H111.56C111.273 177.028 111.038 176.79 111.038 176.5V168.586C111.038 168.297 111.273 168.059 111.56 168.059H111.848C112.134 168.059 112.369 168.297 112.369 168.586V176.5C112.368 176.79 112.134 177.028 111.848 177.028Z" fill="#F0F0F0"/>
<path d="M114.127 177.028H113.839C113.553 177.028 113.318 176.79 113.318 176.5V168.586C113.318 168.297 113.553 168.059 113.839 168.059H114.127C114.414 168.059 114.648 168.297 114.648 168.586V176.5C114.648 176.79 114.414 177.028 114.127 177.028Z" fill="#F0F0F0"/>
<path d="M136.896 173.633C136.896 169.845 135.821 166.773 134.495 166.773C133.169 166.773 132.094 169.845 132.094 173.633C132.094 177.421 133.169 180.493 134.495 180.493C135.822 180.492 136.896 177.421 136.896 173.633Z" fill="#EBEBEB"/>
<path d="M209.119 166.773H134.495C135.821 166.773 136.896 169.844 136.896 173.633C136.896 177.421 135.821 180.493 134.495 180.493H209.119C210.445 180.493 211.52 177.421 211.52 173.633C211.52 169.845 210.445 166.773 209.119 166.773Z" fill="#F5F5F5"/>
<path d="M118 201.809C168.543 201.809 209.516 199.416 209.516 196.465C209.516 193.513 168.543 191.12 118 191.12C67.4573 191.12 26.4844 193.513 26.4844 196.465C26.4844 199.416 67.4573 201.809 118 201.809Z" fill="#F5F5F5"/>
<path d="M49.7696 41.3784H49.2976V53.9128H49.7696V41.3784Z" fill="#F2935C"/>
<path d="M49.7696 57.2695H49.2976V61.3604H49.7696V57.2695Z" fill="#F2935C"/>
<path d="M180.803 106.369H56.6136C53.4984 106.369 50.9496 103.821 50.9496 100.705V36.2392C50.9496 33.124 53.4984 30.5752 56.6136 30.5752H180.802C183.917 30.5752 186.466 33.124 186.466 36.2392V100.705C186.467 103.821 183.917 106.369 180.803 106.369Z" fill="#E0E0E0"/>
<path d="M185.144 106.37H52.2721C51.5448 106.37 50.9496 106.965 50.9496 107.692V109.178C50.9496 109.905 51.5448 110.5 52.2721 110.5H185.144C185.871 110.5 186.466 109.905 186.466 109.178V107.692C186.466 106.965 185.871 106.37 185.144 106.37Z" fill="#263238"/>
<path d="M56.6141 104.953C54.272 104.953 52.3661 103.048 52.3661 100.705V36.2392C52.3661 33.8971 54.272 31.9912 56.6141 31.9912H180.802C183.144 31.9912 185.05 33.8971 185.05 36.2392V100.705C185.05 103.048 183.144 104.953 180.802 104.953H56.6141Z" fill="white"/>
<path opacity="0.1" d="M56.6141 104.953C54.272 104.953 52.3661 103.048 52.3661 100.705V36.2392C52.3661 33.8971 54.272 31.9912 56.6141 31.9912H180.802C183.144 31.9912 185.05 33.8971 185.05 36.2392V100.705C185.05 103.048 183.144 104.953 180.802 104.953H56.6141Z" fill="#E0E0E0"/>
<path d="M74.6907 53.684C75.4634 52.2015 77.4736 50.9063 79.7595 50.39C81.3148 48.4458 84.437 46.8967 87.6792 46.6442C88.6383 46.5696 89.5186 46.6192 90.3021 46.7659C92.5417 44.3847 96.5004 42.5425 100.6 42.2234C104.607 41.9114 107.649 43.1415 108.709 45.1866C109.384 45.02 110.078 44.9006 110.779 44.8463C113.865 44.6061 116.179 45.6077 116.846 47.2422C117.847 46.7914 118.979 46.4851 120.132 46.3949C123.27 46.1509 125.358 47.5962 124.797 49.6239C124.668 50.0879 124.407 50.541 124.051 50.9686C128.535 51.3797 132.181 52.4984 129.938 53.8757L67.5933 58.7283C65.92 55.8047 70.6395 54.4227 74.6907 53.684Z" fill="white"/>
<path opacity="0.3" d="M154.514 61.7299C155.014 58.6475 152.921 55.7433 149.838 55.243C146.756 54.7428 143.852 56.836 143.351 59.9184C142.851 63.0007 144.944 65.905 148.027 66.4053C151.109 66.9055 154.014 64.8123 154.514 61.7299Z" fill="#E0E0E0"/>
<path d="M144.773 67.4565C144.746 67.2611 144.756 67.0534 144.816 66.8349C145.192 65.4807 147.194 64.2512 149.29 64.0879C149.74 64.0529 150.155 64.0728 150.529 64.1341C151.669 62.9385 153.663 62.0153 155.728 61.8548C156.829 61.7689 157.785 61.9143 158.518 62.2287C159.869 61.1634 161.817 60.3831 163.822 60.2269C167.11 59.9711 169.298 61.4857 168.71 63.6102C168.698 63.6536 168.678 63.6961 168.664 63.7391C168.715 63.7334 168.766 63.7263 168.817 63.7225C170.408 63.5989 171.467 64.3319 171.183 65.3599C171.091 65.6903 170.871 66.0108 170.562 66.2978C172.233 66.5687 173.307 67.0534 172.375 67.626L140.76 70.087C139.853 68.5034 142.646 67.8115 144.773 67.4565Z" fill="white"/>
<path opacity="0.6" d="M133.209 104.953H112.845L134.027 31.9912H154.391L133.209 104.953Z" fill="white"/>
<path opacity="0.6" d="M109.75 104.953H101.749L122.931 31.9912H130.931L109.75 104.953Z" fill="white"/>
<path opacity="0.6" d="M71.8323 104.953H63.8309L85.0134 31.9912H93.0142L71.8323 104.953Z" fill="white"/>
<path d="M185.758 51.9722V48.9307L51.658 48.9307V51.9722L185.758 51.9722Z" fill="#E0E0E0"/>
<path opacity="0.2" d="M185.05 83.4947V100.705C185.05 103.047 183.144 104.953 180.802 104.953H56.6141C54.272 104.953 52.3661 103.047 52.3661 100.705V85.0971C61.8585 81.7922 66.7956 94.9298 102.87 89.1743C133.445 84.2961 141.843 70.2928 158.851 81.9815C168.53 88.6343 185.05 83.4947 185.05 83.4947Z" fill="#F2935C"/>
<path d="M180.773 163.207H55.2273C52.0961 163.207 49.5336 160.645 49.5336 157.514V136.805C49.5336 133.673 52.0956 131.111 55.2273 131.111H180.773C183.904 131.111 186.466 133.673 186.466 136.805V157.514C186.466 160.645 183.904 163.207 180.773 163.207Z" fill="white"/>
<path opacity="0.2" d="M180.773 163.207H55.2273C52.0961 163.207 49.5336 160.645 49.5336 157.514V136.805C49.5336 133.673 52.0956 131.111 55.2273 131.111H180.773C183.904 131.111 186.466 133.673 186.466 136.805V157.514C186.466 160.645 183.904 163.207 180.773 163.207Z" fill="#F2935C"/>
<path d="M161.398 194.991H158.409L152.796 153.243H155.785L161.398 194.991Z" fill="#F2935C"/>
<path d="M107.371 194.991H110.341L116.378 150.096H113.408L107.371 194.991Z" fill="#F2935C"/>
<path d="M112.296 153.272C113.154 153.935 114.195 154.321 115.278 154.378L152.19 156.311C157.768 156.603 162.512 152.287 162.745 146.706L164.592 102.548C164.827 96.9474 160.35 92.2788 154.744 92.2788H143.01C139.134 92.2788 135.956 95.3506 135.824 99.2243L134.425 140.335L114.636 143.804C110.075 144.603 108.632 150.439 112.296 153.272Z" fill="#F2935C"/>
<path opacity="0.4" d="M112.296 153.272C113.154 153.935 114.195 154.321 115.278 154.378L152.19 156.311C157.768 156.603 162.512 152.287 162.745 146.706L164.592 102.548C164.827 96.9474 160.35 92.2788 154.744 92.2788H143.01C139.134 92.2788 135.956 95.3506 135.824 99.2243L134.425 140.335L114.636 143.804C110.075 144.603 108.632 150.439 112.296 153.272Z" fill="white"/>
<path d="M110.382 70.5371C106.726 76.4399 105.199 82.7232 106.151 90.1544C107.104 97.5851 115.74 101.072 123.182 99.1195C130.623 97.1673 135.718 92.4837 135.189 85.8757C134.66 79.2677 129.018 76.1492 128.957 71.2191C128.896 66.2891 123.704 64.2963 121.71 65.5551C119.245 62.3031 113.183 66.0144 110.382 70.5371Z" fill="#263238"/>
<path d="M124.801 99.7165C124.703 99.7165 124.611 99.6551 124.577 99.557C124.535 99.4338 124.601 99.2997 124.724 99.2573C132.444 96.6093 136.497 91.4376 135.564 85.4229C135.043 82.0576 133.25 79.7655 131.516 77.549C129.952 75.5506 128.475 73.6626 128.266 71.2502C128.255 71.1204 128.351 71.0062 128.481 70.9948C128.612 70.9816 128.726 71.0798 128.737 71.2096C128.933 73.4823 130.368 75.3165 131.888 77.2583C133.576 79.4167 135.49 81.8636 136.031 85.3507C137.001 91.6099 132.832 96.9756 124.877 99.7042C124.852 99.7123 124.826 99.7165 124.801 99.7165Z" fill="#263238"/>
<path d="M124.962 104.044C124.158 104.326 123.453 104.552 122.696 104.774C121.952 105 121.201 105.195 120.448 105.39C118.94 105.767 117.415 106.104 115.856 106.357C114.297 106.618 112.71 106.813 111.061 106.889C109.411 106.971 107.705 106.94 105.833 106.592L105.612 106.551C104.284 106.303 103.316 105.229 103.134 103.961C102.953 102.675 103.067 101.669 103.231 100.747C103.401 99.8274 103.642 99.008 103.907 98.2197C104.435 96.6456 105.106 95.2268 105.804 93.8462C106.517 92.4741 107.282 91.1586 108.098 89.8814C108.923 88.6023 109.761 87.3769 110.722 86.1578C111.339 85.3738 112.475 85.2388 113.259 85.8562C113.9 86.3612 114.107 87.2127 113.824 87.9348L113.803 87.9868C113.289 89.2956 112.74 90.6498 112.239 91.9799C111.734 93.3147 111.244 94.6453 110.816 95.9692C110.376 97.2847 110.005 98.6082 109.742 99.8528C109.611 100.473 109.515 101.082 109.488 101.613C109.457 102.138 109.489 102.612 109.557 102.772L106.859 100.142C107.926 100.235 109.208 100.161 110.512 100.008C111.822 99.8467 113.173 99.6008 114.53 99.3152C115.887 99.0179 117.257 98.6931 118.621 98.3264L120.666 97.7657L122.654 97.1879L122.756 97.1582C124.675 96.6008 126.681 97.7043 127.239 99.622C127.775 101.473 126.757 103.41 124.962 104.044Z" fill="#FFB573"/>
<path d="M110.653 80.6376L109.799 81.9394C109.478 82.4289 109.414 83.0434 109.626 83.589L110.617 86.1388C111.014 87.1583 111.879 87.9225 112.94 88.1896L113.597 88.3548C115.16 86.2926 115.331 82.9122 115.331 82.9122L115.486 81.954C115.624 81.1006 115.097 80.3313 114.274 80.1869L112.379 79.8541C111.724 79.7394 111.038 80.0509 110.653 80.6376Z" fill="#FFB573"/>
<path opacity="0.2" d="M114.273 80.1893L112.38 79.8542C111.95 79.7787 111.507 79.8872 111.143 80.1374C111.705 82.6862 112.923 85.1972 114.301 87.1607C115.217 85.2019 115.33 82.9127 115.33 82.9127L115.486 81.9546C115.623 81.1003 115.099 80.3304 114.273 80.1893Z" fill="black"/>
<path d="M81.9586 194.691C86.3595 195.131 89.1278 195.34 91.6091 195.504C93.734 195.641 94.2145 195.956 95.9198 196.088C97.3448 196.2 97.4279 194.833 97.1461 193.224C97.0054 192.416 96.8336 190.719 96.6585 189.419L90.2577 188.306C89.1769 189.947 84.7028 191.994 82.1894 192.078C79.7897 192.16 80.2037 194.515 81.9586 194.691Z" fill="#263238"/>
<path d="M96.9149 135.582C105.877 128.534 129.995 126.653 129.995 126.653L139.609 125.095C139.609 125.095 144.827 135.621 141.523 143.33C138.708 149.898 121.6 147.859 107.372 147.09C109.503 154.973 96.4122 189.151 96.4122 189.151C94.3717 189.789 91.1725 188.767 90.136 188.165C90.7954 176.956 93.7789 161.861 93.786 143.202C93.7874 140.263 94.6049 137.398 96.9149 135.582Z" fill="#E3966A"/>
<path d="M111.505 147.335L108.192 138.976C106.837 139.773 103.344 148.982 106.606 156.761C107.498 152.546 107.895 149.024 107.371 147.089C108.73 147.165 110.113 147.25 111.505 147.335Z" fill="#A94911"/>
<path d="M89.4893 183.81C89.2274 184.865 89.4775 186.789 88.9801 188.158C88.8007 188.652 88.8498 189.372 89.1991 189.354C91.7257 189.219 95.4677 190.6 96.8115 190.453C97.0687 190.425 97.3052 190.154 97.4062 189.778L98.4909 185.761C98.6391 185.212 98.438 184.663 98.0703 184.614L90.2544 183.077C89.9425 183.016 89.6073 183.335 89.4893 183.81Z" fill="#F2935C"/>
<path d="M128.811 92.6562C132.002 104.687 135.917 109.52 115.727 109.062C113.201 107.016 112.505 99.2378 112.505 99.2378C119.259 96.8533 124.866 93.4898 128.811 92.6562Z" fill="#F2935C"/>
<path d="M121.983 109.143C123.159 111.176 123.852 112.849 127.084 117.438C129.374 120.216 127.739 125.643 128.665 128.914C134.123 130.499 152.666 127.99 153.597 125.095C154.803 124.228 153.432 109.638 148.667 94.6491C146.725 88.541 142.269 86.1532 137.917 87.6754C137.02 87.9892 136.168 88.5537 135.267 89.0545C131.763 91.0011 128.907 92.6228 126.055 94.7719C125.11 95.4841 124.151 96.2539 123.244 97.0077C119.973 99.7269 119.875 105.5 121.983 109.143Z" fill="#F2935C"/>
<path opacity="0.2" d="M132.926 109.11C138.058 110.844 143.044 110.895 144.673 110.539C140.239 112.456 136.717 111.552 132.926 109.11Z" fill="black"/>
<path d="M128.183 79.0835C129.22 82.5451 131.606 88.5867 134.76 89.3688C134.76 89.3688 131.691 90.69 128.019 98.0753C124.757 96.6712 125.549 95.0866 125.549 95.0866C128.423 92.2098 126.998 89.6969 125.165 87.6451L128.183 79.0835Z" fill="#FFB573"/>
<path d="M128.811 96.5554C130.948 95.6161 133.403 98.1998 133.403 98.1998C133.403 98.1998 136.048 91.9383 136.082 88.6588C135.155 88.7263 133.682 88.6343 133.682 88.6343C133.682 88.6343 129.254 94.7113 128.811 96.5554Z" fill="white"/>
<path d="M126.75 97.3979C126.75 97.3979 125.015 98.3207 125.165 101.179C122.222 96.6951 125.165 93.7022 125.165 93.7022C125.165 93.7022 125.972 92.6567 127.096 92.5278C126.404 94.7547 126.75 97.3979 126.75 97.3979Z" fill="white"/>
<path opacity="0.2" d="M126.954 82.5757L125.166 87.6402C125.602 88.125 126.011 88.6362 126.344 89.1747C127.507 88.2 128.484 85.6734 127.896 84.2074C127.603 83.4763 127.229 82.8306 126.954 82.5757Z" fill="black"/>
<path d="M125.248 72.1673C128.131 77.1204 129.452 79.151 128.788 83.2965C127.788 89.5326 121.357 92.2499 117.121 88.321C113.309 84.7843 109.234 77.2786 112.409 72.0757C115.537 66.9502 122.365 67.2141 125.248 72.1673Z" fill="#FFB573"/>
<path d="M120.764 67.3063C124.464 71.3169 114.769 74.434 111.638 78.1632C111.045 78.8703 109.895 78.4625 109.866 77.5397C109.707 72.6003 114.2 66.5115 120.764 67.3063Z" fill="#263238"/>
<path d="M120.545 67.7703C118.471 71.1134 121.088 75.5115 127.096 75.7905C128.736 69.6092 123.523 65.9611 120.545 67.7703Z" fill="#263238"/>
<path d="M124.779 75.7696C121.599 75.77 120.368 74.0543 119.961 73.2297C119.21 71.7089 119.473 69.8955 120.6 68.8198L120.925 69.1616C119.962 70.0815 119.734 71.7047 120.384 73.0211C120.808 73.8811 122.237 75.812 126.336 75.1692L126.409 75.6355C125.817 75.728 125.274 75.7696 124.779 75.7696Z" fill="#263238"/>
<path d="M119.606 78.5467C119.866 78.9521 119.878 79.4284 119.632 79.611C119.387 79.7937 118.977 79.6129 118.717 79.2079C118.457 78.8025 118.446 78.3262 118.691 78.1436C118.936 77.9609 119.346 78.1412 119.606 78.5467Z" fill="#263238"/>
<path d="M114.715 81.9541C114.975 82.3595 114.987 82.8358 114.741 83.0185C114.496 83.2011 114.086 83.0203 113.826 82.6154C113.566 82.2099 113.555 81.7337 113.8 81.551C114.046 81.3679 114.455 81.5487 114.715 81.9541Z" fill="#263238"/>
<path d="M113.923 81.4927L112.841 81.883C112.841 81.883 113.791 82.2989 113.923 81.4927Z" fill="#263238"/>
<path d="M116.746 81.7593C116.746 81.7593 117.228 83.9777 117.066 85.3413C117.882 85.472 118.579 84.6168 118.579 84.6168L116.746 81.7593Z" fill="#ED893E"/>
<path d="M121.144 82.407C121.345 82.2588 121.57 82.12 121.822 81.9954C121.89 81.9619 121.969 81.993 121.999 82.0657C122.028 82.1375 121.999 82.222 121.929 82.2574C120.088 83.1641 119.786 84.9558 119.784 84.9737C119.771 85.053 119.702 85.1078 119.629 85.0964C119.556 85.0851 119.506 85.0119 119.518 84.9336C119.529 84.8633 119.771 83.4208 121.144 82.407Z" fill="#263238"/>
<path d="M129.352 74.9566C129.481 76.3014 129.015 77.5352 128.343 78.3225C127.332 79.5072 125.945 78.6628 125.487 77.1307C125.076 75.7515 125.105 73.4731 126.476 72.8629C127.826 72.262 129.204 73.4193 129.352 74.9566Z" fill="#FFB573"/>
<path d="M117.36 76.1755C117.421 76.1349 117.497 76.1203 117.57 76.1406C118.724 76.4635 119.475 75.7569 119.483 75.7484C119.594 75.6431 119.764 75.6493 119.863 75.7673C119.961 75.8848 119.95 76.0674 119.838 76.1751C119.799 76.2123 118.858 77.1002 117.426 76.6994C117.283 76.6593 117.2 76.5017 117.24 76.3473C117.258 76.2737 117.303 76.2133 117.36 76.1755Z" fill="#263238"/>
<path d="M113.314 79.7514C113.374 79.716 113.445 79.7032 113.515 79.7221C113.658 79.7603 113.74 79.9166 113.697 80.07C113.274 81.611 112.083 82.0604 112.032 82.0788C111.888 82.1307 111.738 82.0514 111.695 81.9018C111.652 81.7522 111.733 81.5888 111.876 81.5365C111.922 81.5195 112.842 81.1574 113.178 79.9317C113.201 79.8524 113.251 79.7891 113.314 79.7514Z" fill="#263238"/>
<path d="M118.814 78.085L117.731 78.4753C117.731 78.4753 118.682 78.8916 118.814 78.085Z" fill="#263238"/>
<path d="M123.521 127.647L124.497 126.157C124.864 125.597 125.479 125.248 126.149 125.221L129.277 125.098C130.528 125.048 131.725 125.608 132.49 126.598L132.963 127.212C131.513 129.794 128.044 131.516 128.044 131.516L127.11 132.117C126.277 132.652 125.229 132.45 124.701 131.652L123.487 129.815C123.067 129.182 123.081 128.319 123.521 127.647Z" fill="#FFB573"/>
<path d="M149.288 96.751C149.382 97.2036 149.45 97.5595 149.521 97.9517C149.59 98.3359 149.646 98.7173 149.705 99.0987C149.823 99.86 149.907 100.622 149.992 101.383C150.146 102.907 150.247 104.435 150.274 105.971C150.296 106.738 150.289 107.508 150.285 108.278C150.256 109.05 150.238 109.82 150.18 110.594C150.104 112.139 149.892 113.693 149.653 115.241L149.622 115.438C149.597 115.6 149.551 115.767 149.496 115.915C149.159 116.791 148.751 117.393 148.364 117.899C147.972 118.406 147.58 118.825 147.185 119.206C146.399 119.965 145.616 120.59 144.831 121.175C143.263 122.339 141.662 123.301 140.057 124.222C138.443 125.127 136.815 125.963 135.165 126.741C133.507 127.517 131.861 128.246 130.128 128.902C129.197 129.254 128.156 128.785 127.804 127.854C127.504 127.062 127.799 126.19 128.468 125.731L128.496 125.711C129.932 124.725 131.409 123.727 132.843 122.721C134.283 121.715 135.709 120.702 137.087 119.66C138.469 118.632 139.804 117.556 141.009 116.474C141.608 115.934 142.168 115.378 142.615 114.847C142.836 114.583 143.031 114.327 143.167 114.114C143.308 113.903 143.358 113.73 143.328 113.767L143.171 114.441C143.247 113.097 143.299 111.751 143.281 110.387C143.264 109.025 143.212 107.657 143.117 106.285C143.015 104.915 142.902 103.541 142.738 102.173C142.662 101.489 142.569 100.807 142.482 100.129L142.338 99.1185L142.195 98.1703L142.173 98.0254C141.876 96.051 143.235 94.2088 145.209 93.9109C147.114 93.623 148.898 94.8884 149.288 96.751Z" fill="#FFB573"/>
<path d="M140.816 87.2388C146.76 87.53 148.629 91.5736 151.233 99.5938C145.743 105.308 141.862 105.99 141.862 105.99C141.862 105.99 137.232 92.1957 140.816 87.2388Z" fill="#F2935C"/>
<path d="M111.801 196.088C116.224 196.088 118.999 196.02 121.484 195.936C123.613 195.86 124.121 196.126 125.832 196.088C127.26 196.058 127.207 194.69 126.766 193.117C126.546 192.326 126.206 190.656 125.902 189.379L119.422 188.909C118.51 190.649 114.262 193.132 111.769 193.466C109.391 193.786 110.037 196.088 111.801 196.088Z" fill="#263238"/>
<path d="M109.539 135.582C115.326 131.216 133.836 127.692 140.263 127.307C146.69 126.921 152.796 126.182 153.596 125.096C153.596 125.096 157.451 135.621 154.147 143.33C151.332 149.898 136.171 148.433 121.923 148.239C125.77 168.094 126.063 189.025 126.063 189.025C124.022 189.663 120.268 190.083 119.232 189.481C119.891 178.272 108.719 161.719 106.411 143.203C106.047 140.286 107.193 137.351 109.539 135.582Z" fill="#E3966A"/>
<path d="M117.948 184.876C117.901 185.961 118.528 187.797 118.313 189.238C118.235 189.758 118.452 190.246 118.789 190.337C121.608 191.103 125.156 190.342 126.444 189.931C126.69 189.852 126.868 189.539 126.893 189.151L127.158 184.999C127.194 184.431 126.888 183.933 126.517 183.958L118.552 184.004C118.235 184.007 117.969 184.386 117.948 184.876Z" fill="#F2935C"/>
<path d="M148.994 197.768C159.404 197.768 176.37 198.292 182.978 197.348C189.586 196.404 178.783 184.237 178.888 180.776C178.993 177.315 149.353 177.624 149.729 180.881C150.358 186.335 143.331 197.768 148.994 197.768Z" fill="#263238"/>
<path d="M175.84 180.754C175.808 180.649 172.601 170.216 165.327 168.492C161.758 167.645 159.097 169.014 157.494 170.312C154.583 172.668 152.76 176.71 152.849 180.608L151.906 180.63C151.809 176.45 153.77 172.111 156.9 169.578C159.435 167.526 162.424 166.833 165.545 167.573C173.351 169.424 176.609 180.032 176.744 180.483L175.84 180.754Z" fill="#263238"/>
<path d="M168.942 183.457L164.091 183.531C163.395 183.541 162.752 182.987 162.663 182.301C162.573 181.613 163.069 181.043 163.765 181.032L168.616 180.958C169.313 180.948 169.955 181.501 170.045 182.188C170.135 182.875 169.639 183.447 168.942 183.457Z" fill="white"/>
</svg>
