<svg width="300" height="199" viewBox="0 0 300 199" fill="none" xmlns="http://www.w3.org/2000/svg">
<path d="M40.964 77.641C48.5068 73.4146 56.7229 70.069 64.1385 66.1734C76.8659 59.4874 89.4096 52.4026 101.504 44.628C117.681 34.2287 133.949 26.1187 153.099 22.8403C174.412 19.1919 196.777 20.9176 217.154 28.2129C217.341 28.279 217.526 28.3459 217.712 28.4139C233.875 34.2936 248.716 44.2659 259.171 58.02C271.335 74.0203 276.897 93.6207 276.194 113.572C276.015 118.668 275.569 123.754 274.984 128.819C268.824 182.119 199.349 187.244 170.6 185.536C141.852 183.827 84.3051 165.859 68.9544 167.769C52.328 169.837 34.0001 163.979 23.0308 151.008C9.93419 135.521 11.2817 111.759 21.4022 95.0813C26.1308 87.2885 33.1896 81.9971 40.964 77.641Z" fill="#FFF0E8"/>
<path d="M259.367 28.3188H216.013V81.1012H259.367V28.3188Z" fill="#EAE9E8" stroke="#C5C2C1" stroke-miterlimit="10" stroke-linecap="round" stroke-linejoin="round"/>
<path d="M256.534 31.7671H218.845V77.6533H256.534V31.7671Z" fill="#EAE9E8" stroke="#C5C2C1" stroke-miterlimit="10" stroke-linecap="round" stroke-linejoin="round"/>
<path d="M244.372 46.5757H231.008V62.8451H244.372V46.5757Z" fill="#EAE9E8" stroke="#C5C2C1" stroke-miterlimit="10" stroke-linecap="round" stroke-linejoin="round"/>
<path d="M109.826 89.4086V22.0547" stroke="#001E6C" stroke-miterlimit="10" stroke-linecap="round" stroke-linejoin="round"/>
<path d="M21.2554 126.578H109.826V92.4253" stroke="#001E6C" stroke-miterlimit="10" stroke-linecap="round" stroke-linejoin="round"/>
<path d="M202.145 71.4847V22.3755" stroke="#001E6C" stroke-miterlimit="10" stroke-linecap="round" stroke-linejoin="round"/>
<path d="M113.573 24.9893V126.578H202.144V73.792" stroke="#001E6C" stroke-miterlimit="10" stroke-linecap="round" stroke-linejoin="round"/>
<path d="M113.573 22.0547V23.2145" stroke="#001E6C" stroke-miterlimit="10" stroke-linecap="round" stroke-linejoin="round"/>
<path d="M58.9247 169.315H52.4663V176.595H58.9247V169.315Z" fill="white" stroke="#BDBCBB" stroke-miterlimit="10" stroke-linecap="round" stroke-linejoin="round"/>
<path d="M79.5259 137.969H31.8657V170.058H79.5259V137.969Z" fill="white" stroke="#BDBCBB" stroke-miterlimit="10" stroke-linecap="round" stroke-linejoin="round"/>
<path d="M78.0815 139.354H33.3101V168.673H78.0815V139.354Z" fill="#AAAAAA" stroke="#BDBCBB" stroke-miterlimit="10" stroke-linecap="round" stroke-linejoin="round"/>
<path d="M144.888 135.336H117.27C114.669 135.336 112.425 137.156 111.892 139.697L104.162 176.539H143.009L150.267 141.946C150.982 138.538 148.376 135.336 144.888 135.336Z" fill="#803307"/>
<path d="M229.141 97.5052C229.141 97.5052 227.362 102.388 223.584 103.053C219.805 103.719 213.135 96.3956 217.359 92.6225C221.583 88.8499 227.362 94.8418 229.141 97.5052Z" fill="#D3D3D3" stroke="#6B6C6E" stroke-miterlimit="10" stroke-linecap="round" stroke-linejoin="round"/>
<path d="M234.921 73.5365C234.921 73.5365 229.363 87.0745 231.587 93.7322C233.809 100.39 247.593 105.273 251.594 96.6173C255.595 87.962 246.703 75.7558 243.369 73.0924C240.034 70.4293 236.032 71.3173 234.921 73.5365Z" fill="#D3D3D3" stroke="#6B6C6E" stroke-miterlimit="10" stroke-linecap="round" stroke-linejoin="round"/>
<path d="M267.377 79.307C267.377 79.307 257.818 87.9623 256.707 96.6176C255.595 105.273 262.042 108.38 268.711 107.27C275.38 106.161 278.715 89.294 276.714 81.5262C274.714 73.7589 267.377 79.307 267.377 79.307Z" fill="#D3D3D3" stroke="#6B6C6E" stroke-miterlimit="10" stroke-linecap="round" stroke-linejoin="round"/>
<path d="M269.156 127.244C269.156 127.244 258.485 127.688 258.041 132.793C257.596 137.897 262.709 139.007 267.822 134.568C272.935 130.129 273.602 127.466 269.156 127.244Z" fill="#D3D3D3" stroke="#6B6C6E" stroke-miterlimit="10" stroke-linecap="round" stroke-linejoin="round"/>
<path d="M258.217 134.009C258.217 134.009 266.627 130.168 270.414 129.501L258.217 134.009Z" fill="#D3D3D3"/>
<path d="M258.217 134.009C258.217 134.009 266.627 130.168 270.414 129.501" stroke="#6B6C6E" stroke-miterlimit="10" stroke-linecap="round" stroke-linejoin="round"/>
<path d="M271.534 160.645C271.534 160.645 263.696 153.403 259.757 156.686C255.817 159.97 258.633 164.372 265.391 164.863C272.149 165.354 274.511 163.949 271.534 160.645Z" fill="#D3D3D3" stroke="#6B6C6E" stroke-miterlimit="10" stroke-linecap="round" stroke-linejoin="round"/>
<path d="M259.017 157.669C259.017 157.669 267.675 160.915 270.818 163.126L259.017 157.669Z" fill="#D3D3D3"/>
<path d="M259.017 157.669C259.017 157.669 267.675 160.915 270.818 163.126" stroke="#6B6C6E" stroke-miterlimit="10" stroke-linecap="round" stroke-linejoin="round"/>
<path d="M230.19 158.512C230.19 158.512 240.994 148.528 246.425 153.055C251.856 157.582 247.973 163.65 238.658 164.327C229.342 165.004 226.086 163.067 230.19 158.512Z" fill="#D3D3D3" stroke="#6B6C6E" stroke-miterlimit="10" stroke-linecap="round" stroke-linejoin="round"/>
<path d="M247.445 154.409C247.445 154.409 235.511 158.884 231.177 161.932L247.445 154.409Z" fill="#D3D3D3"/>
<path d="M247.445 154.409C247.445 154.409 235.511 158.884 231.177 161.932" stroke="#6B6C6E" stroke-miterlimit="10" stroke-linecap="round" stroke-linejoin="round"/>
<path d="M242.701 137.897C242.701 137.897 241.59 143.223 237.588 145.221C233.587 147.218 226.473 143.001 230.252 136.565C234.031 130.13 240.701 135.234 242.701 137.897Z" fill="#D3D3D3" stroke="#6B6C6E" stroke-miterlimit="10" stroke-linecap="round" stroke-linejoin="round"/>
<path d="M233.365 121.252C233.365 121.252 231.364 116.814 223.584 119.699C215.803 122.584 212.691 127.022 217.581 128.576C222.472 130.13 233.365 121.252 233.365 121.252Z" fill="#D3D3D3" stroke="#6B6C6E" stroke-miterlimit="10" stroke-linecap="round" stroke-linejoin="round"/>
<path d="M231.875 121.05C231.875 121.05 223.633 121.939 219.178 125.72L231.875 121.05Z" fill="#D3D3D3"/>
<path d="M231.875 121.05C231.875 121.05 223.633 121.939 219.178 125.72" stroke="#6B6C6E" stroke-miterlimit="10" stroke-linecap="round" stroke-linejoin="round"/>
<path d="M255.595 67.9885C255.595 67.9885 256.929 71.0957 259.597 70.4299C262.264 69.764 262.931 65.7693 267.155 66.8789C271.379 67.9885 274.935 72.8708 274.935 70.6516C274.935 68.4323 269.6 62.6621 263.598 62.6621C257.596 62.6621 255.818 65.1034 255.595 67.9885Z" fill="#D3D3D3" stroke="#6B6C6E" stroke-miterlimit="10" stroke-linecap="round" stroke-linejoin="round"/>
<path d="M233.365 121.252C233.365 121.252 242.938 119.418 246.923 130.029C247.315 131.071 247.645 132.16 247.923 133.277" fill="#D3D3D3"/>
<path d="M233.365 121.252C233.365 121.252 242.938 119.418 246.923 130.029C247.315 131.071 247.645 132.16 247.923 133.277" stroke="#6B6C6E" stroke-miterlimit="10" stroke-linecap="round" stroke-linejoin="round"/>
<path d="M273.314 110.972C273.314 110.972 275.315 106.533 283.096 109.419C290.876 112.304 293.988 116.743 289.098 118.296C284.207 119.849 273.314 110.972 273.314 110.972Z" fill="#D3D3D3" stroke="#6B6C6E" stroke-miterlimit="10" stroke-linecap="round" stroke-linejoin="round"/>
<path d="M275.092 111.265C275.092 111.265 283.111 110.82 286.898 115.49L275.092 111.265Z" fill="#D3D3D3"/>
<path d="M275.092 111.265C275.092 111.265 283.111 110.82 286.898 115.49" stroke="#6B6C6E" stroke-miterlimit="10" stroke-linecap="round" stroke-linejoin="round"/>
<path d="M273.314 110.972C273.314 110.972 270.141 110.364 266.688 111.873L273.314 110.972Z" fill="#D3D3D3"/>
<path d="M273.314 110.972C273.314 110.972 270.141 110.364 266.688 111.873" stroke="#6B6C6E" stroke-miterlimit="10" stroke-linecap="round" stroke-linejoin="round"/>
<path d="M238.468 103.01C233.776 98.2272 229.141 97.5049 229.141 97.5049C229.141 97.5049 222.296 95.6964 219.623 98.1429" fill="#D3D3D3"/>
<path d="M238.468 103.01C233.776 98.2272 229.141 97.5049 229.141 97.5049C229.141 97.5049 222.296 95.6964 219.623 98.1429" stroke="#6B6C6E" stroke-miterlimit="10" stroke-linecap="round" stroke-linejoin="round"/>
<path d="M239.42 78.4255L239.003 76.5708" stroke="#6B6C6E" stroke-miterlimit="10" stroke-linecap="round" stroke-linejoin="round"/>
<path d="M250.245 176.539C250.245 176.539 251.242 138.32 250.245 126.713C249.248 115.106 244.598 101.51 244.598 101.51L239.86 80.3906" fill="#D3D3D3"/>
<path d="M250.245 176.539C250.245 176.539 251.242 138.32 250.245 126.713C249.248 115.106 244.598 101.51 244.598 101.51L239.86 80.3906" stroke="#6B6C6E" stroke-miterlimit="10" stroke-linecap="round" stroke-linejoin="round"/>
<path d="M270.003 86.6312L270.859 84.7988" stroke="#6B6C6E" stroke-miterlimit="10" stroke-linecap="round" stroke-linejoin="round"/>
<path d="M252.57 176.497C252.57 176.497 252.902 141.636 254.231 131.687C255.559 121.739 260.874 106.153 260.874 106.153L269.03 88.7095" fill="#D3D3D3"/>
<path d="M252.57 176.497C252.57 176.497 252.902 141.636 254.231 131.687C255.559 121.739 260.874 106.153 260.874 106.153L269.03 88.7095" stroke="#6B6C6E" stroke-miterlimit="10" stroke-linecap="round" stroke-linejoin="round"/>
<path d="M258.217 134.009C258.217 134.009 255.891 153.995 254.563 176.545L258.217 134.009Z" fill="#D3D3D3"/>
<path d="M258.217 134.009C258.217 134.009 255.891 153.995 254.563 176.545" stroke="#6B6C6E" stroke-miterlimit="10" stroke-linecap="round" stroke-linejoin="round"/>
<path d="M246.923 176.497C246.923 176.497 247.588 144.62 246.259 140.309C244.93 135.998 242.702 137.897 242.702 137.897C242.702 137.897 236.553 138.619 234.326 142.177" fill="#D3D3D3"/>
<path d="M246.923 176.497C246.923 176.497 247.588 144.62 246.259 140.309C244.93 135.998 242.702 137.897 242.702 137.897C242.702 137.897 236.553 138.619 234.326 142.177" stroke="#6B6C6E" stroke-miterlimit="10" stroke-linecap="round" stroke-linejoin="round"/>
<path d="M248.449 135.76C250.187 145.482 248.584 176.531 248.584 176.531L248.449 135.76Z" fill="#D3D3D3"/>
<path d="M248.449 135.76C250.187 145.482 248.584 176.531 248.584 176.531" stroke="#6B6C6E" stroke-miterlimit="10" stroke-linecap="round" stroke-linejoin="round"/>
<path d="M264.805 112.916C262.881 114.23 261.032 116.352 259.756 119.749C255.77 130.361 256.224 176.545 256.224 176.545" fill="#D3D3D3"/>
<path d="M264.805 112.916C262.881 114.23 261.032 116.352 259.756 119.749C255.77 130.361 256.224 176.545 256.224 176.545" stroke="#6B6C6E" stroke-miterlimit="10" stroke-linecap="round" stroke-linejoin="round"/>
<path d="M239.625 104.275C241.701 106.71 243.714 110.001 245.262 114.443C250.577 129.698 252.57 169.202 251.574 176.497" fill="#D3D3D3"/>
<path d="M239.625 104.275C241.701 106.71 243.714 110.001 245.262 114.443C250.577 129.698 252.57 169.202 251.574 176.497" stroke="#6B6C6E" stroke-miterlimit="10" stroke-linecap="round" stroke-linejoin="round"/>
<path d="M253.122 118.551C252.799 137.804 252.57 176.497 252.57 176.497L253.122 118.551Z" fill="#D3D3D3"/>
<path d="M253.122 118.551C252.799 137.804 252.57 176.497 252.57 176.497" stroke="#6B6C6E" stroke-miterlimit="10" stroke-linecap="round" stroke-linejoin="round"/>
<path d="M253.164 116.156C253.383 103.426 253.641 90.9669 253.899 84.2662C254.563 67.022 255.595 67.9888 255.595 67.9888C255.595 67.9888 256.825 64.117 263.731 64.562" fill="#D3D3D3"/>
<path d="M253.164 116.156C253.383 103.426 253.641 90.9669 253.899 84.2662C254.563 67.022 255.595 67.9888 255.595 67.9888C255.595 67.9888 256.825 64.117 263.731 64.562" stroke="#6B6C6E" stroke-miterlimit="10" stroke-linecap="round" stroke-linejoin="round"/>
<path d="M244.656 130.694C244.656 130.694 239.099 125.746 241.322 123.313C243.545 120.879 257.328 119.095 261.329 122.258C265.331 125.422 256.439 129.883 253.104 130.856C249.77 131.83 245.768 131.505 244.656 130.694Z" fill="#D3D3D3" stroke="#6B6C6E" stroke-miterlimit="10" stroke-linecap="round" stroke-linejoin="round"/>
<path d="M249.789 126.643C249.711 127.144 249.665 127.642 249.665 128.12L249.789 126.643Z" fill="#D3D3D3"/>
<path d="M249.789 126.643C249.711 127.144 249.665 127.642 249.665 128.12" stroke="#6B6C6E" stroke-miterlimit="10" stroke-linecap="round" stroke-linejoin="round"/>
<path d="M251.7 120.867C251.7 120.867 250.873 122.518 250.273 124.542L251.7 120.867Z" fill="#D3D3D3"/>
<path d="M251.7 120.867C251.7 120.867 250.873 122.518 250.273 124.542" stroke="#6B6C6E" stroke-miterlimit="10" stroke-linecap="round" stroke-linejoin="round"/>
<path d="M244.656 163.044C244.656 163.044 239.099 158.096 241.322 155.663C243.545 153.229 257.328 151.445 261.329 154.609C265.331 157.772 256.439 162.233 253.104 163.206C249.77 164.18 245.768 163.855 244.656 163.044Z" fill="#D3D3D3" stroke="#6B6C6E" stroke-miterlimit="10" stroke-linecap="round" stroke-linejoin="round"/>
<path d="M251.7 153.217C251.7 153.217 249.666 157.279 249.666 160.47L251.7 153.217Z" fill="#D3D3D3"/>
<path d="M251.7 153.217C251.7 153.217 249.666 157.279 249.666 160.47" stroke="#6B6C6E" stroke-miterlimit="10" stroke-linecap="round" stroke-linejoin="round"/>
<path d="M248.794 149.362C248.794 149.362 245.02 146.003 246.53 144.351C248.039 142.699 257.397 141.488 260.114 143.635C262.831 145.783 256.793 148.812 254.529 149.473C252.265 150.133 249.548 149.913 248.794 149.362Z" fill="#D3D3D3" stroke="#6B6C6E" stroke-miterlimit="10" stroke-linecap="round" stroke-linejoin="round"/>
<path d="M253.576 142.69C253.576 142.69 252.195 145.448 252.195 147.615L253.576 142.69Z" fill="#D3D3D3"/>
<path d="M253.576 142.69C253.576 142.69 252.195 145.448 252.195 147.615" stroke="#6B6C6E" stroke-miterlimit="10" stroke-linecap="round" stroke-linejoin="round"/>
<path d="M91.6708 149.126C91.6708 149.126 87.022 156.387 87.1802 156.703C87.3385 157.018 90.3424 160.57 90.5793 160.728C90.8165 160.886 92.2393 160.807 92.2393 160.807L94.611 158.834C94.611 158.834 94.611 158.36 94.3738 157.966C94.1366 157.571 93.4253 157.492 93.4253 157.492C93.4253 157.492 94.6903 154.414 94.611 153.625C94.532 152.836 94.3817 150.461 94.3817 150.461L91.6708 149.126Z" fill="white" stroke="#F2935C" stroke-miterlimit="10" stroke-linecap="round" stroke-linejoin="round"/>
<path d="M93.4254 157.492L91.8442 159.149" stroke="#F2935C" stroke-miterlimit="10" stroke-linecap="round" stroke-linejoin="round"/>
<path d="M92.5236 107.663C92.5236 107.663 107.823 133.836 107.823 134.192C107.823 134.548 94.3814 150.46 94.3814 150.46L91.6705 149.126L97.5931 133.123L89.8613 127.779L92.5236 107.663Z" fill="white" stroke="#F2935C" stroke-miterlimit="10" stroke-linecap="round" stroke-linejoin="round"/>
<path d="M91.8349 120.097L95.4057 131.571L91.1655 128.786L91.8349 120.097Z" fill="#F2935C" stroke="#F2935C" stroke-miterlimit="10" stroke-linecap="round" stroke-linejoin="round"/>
<path d="M104.218 131.862L97.5933 133.123L101.166 130.761" stroke="#F2935C" stroke-miterlimit="10" stroke-linecap="round" stroke-linejoin="round"/>
<path d="M92.3491 147.265L95.9096 148.534" stroke="#F2935C" stroke-miterlimit="10" stroke-linecap="round" stroke-linejoin="round"/>
<path d="M92.1491 117.473L90.2774 134.477L90.6517 154.844H58.3031L57.7418 145.501C57.7418 145.501 47.2605 113.269 47.3541 112.148C47.4478 111.027 64.8233 102.525 64.8233 102.525L79.5158 102.058L92.5239 107.664L92.6176 112.241" fill="white"/>
<path d="M92.1491 117.473L90.2774 134.477L90.6517 154.844H58.3031L57.7418 145.501C57.7418 145.501 47.2605 113.269 47.3541 112.148C47.4478 111.027 64.8233 102.525 64.8233 102.525L79.5158 102.058L92.5239 107.664L92.6176 112.241" stroke="#F2935C" stroke-miterlimit="10" stroke-linecap="round" stroke-linejoin="round"/>
<path d="M72.3523 107.787L75.3738 111.438L73.3063 151.442L77.1227 155.887L81.8932 150.966L77.2818 111.597L78.3949 106.199L76.6455 101.754L68.854 102.389L72.3523 107.787Z" fill="#FFAA4C" stroke="#F2935C" stroke-miterlimit="10" stroke-linecap="round" stroke-linejoin="round"/>
<path d="M64.0747 89.0718L66.0397 98.695L73.5263 105.048L78.4861 100.937L78.2991 96.079H76.1467L66.7884 91.4076L64.0747 89.0718Z" fill="white" stroke="#F2935C" stroke-miterlimit="10" stroke-linecap="round" stroke-linejoin="round"/>
<path d="M75.2109 103.459L76.8016 110.56L81.2001 103.553L78.3927 98.9751L78.486 100.937L75.2109 103.459Z" fill="white" stroke="#F2935C" stroke-miterlimit="10" stroke-linecap="round" stroke-linejoin="round"/>
<path d="M66.0395 98.6948L63.6064 102.992L72.9647 111.027L73.8067 104.207L66.0395 98.6948Z" fill="white" stroke="#F2935C" stroke-miterlimit="10" stroke-linecap="round" stroke-linejoin="round"/>
<path d="M63.1013 86.4014C63.1013 86.4014 62.0919 84.1535 61.0829 85.2388C60.0735 86.3242 61.238 89.2694 62.558 90.0443C63.8779 90.8192 64.7319 90.4319 64.7319 90.4319C64.7319 90.4319 66.9836 94.1524 67.4492 94.4625C67.9148 94.7725 74.9027 97.9505 75.8344 98.2606C76.766 98.5706 79.8717 97.4857 80.4928 96.6328C81.1139 95.7802 80.6479 87.3315 80.4928 84.8512C80.3377 82.3708 78.6294 72.6047 78.3188 72.0622C78.0083 71.5198 78.6294 65.7838 77.1543 65.7838C75.6793 65.7838 74.2815 66.5587 74.2815 66.5587C74.2815 66.5587 75.2132 64.8536 74.1261 65.3961C73.0389 65.9386 71.331 67.1788 65.1198 69.5043C58.9086 71.8294 60.9274 75.6275 61.0825 76.0152C61.238 76.4028 63.1013 86.4014 63.1013 86.4014Z" fill="white" stroke="#F2935C" stroke-miterlimit="10" stroke-linecap="round" stroke-linejoin="round"/>
<path d="M63.1016 86.4012C63.1016 86.4012 63.0461 86.2798 62.9517 86.1099L63.1016 86.4012Z" stroke="#F2935C" stroke-miterlimit="10" stroke-linecap="round" stroke-linejoin="round"/>
<path d="M78.2678 71.8815C78.0832 70.7655 78.5293 65.7838 77.1543 65.7838C75.6793 65.7838 74.2815 66.5587 74.2815 66.5587C74.2815 66.5587 75.2132 64.8536 74.1261 65.3961C73.0389 65.9386 71.331 67.1788 65.1198 69.5043C58.9086 71.8294 60.9274 75.6275 61.0825 76.0152C61.2376 76.4028 63.1013 86.4014 63.1013 86.4014L64.4987 85.9361C64.4987 85.9361 63.4119 82.6809 63.9553 82.138C64.4987 81.5955 65.5081 80.9754 65.5081 80.6654C65.5081 80.3554 64.1881 77.4101 64.9647 76.5572C65.6357 75.8209 75.5784 72.7126 78.2678 71.8815Z" fill="#F2935C" stroke="#F2935C" stroke-miterlimit="10" stroke-linecap="round" stroke-linejoin="round"/>
<path d="M76.3001 80.4336L77.6201 89.2696L75.5239 88.7271" stroke="#F2935C" stroke-miterlimit="10" stroke-linecap="round" stroke-linejoin="round"/>
<path d="M73.3498 81.0533C73.3498 81.0533 70.5548 80.6656 69.002 81.5957" stroke="#F2935C" stroke-width="2" stroke-miterlimit="10" stroke-linecap="round" stroke-linejoin="round"/>
<path d="M76.8438 78.4956C76.8438 78.4956 77.1543 75.9377 79.0954 76.7902" stroke="#F2935C" stroke-width="2" stroke-miterlimit="10" stroke-linecap="round" stroke-linejoin="round"/>
<path d="M71.3315 90.6646C71.3315 90.6646 73.4277 91.5171 74.9805 91.5947" stroke="#F2935C" stroke-miterlimit="10" stroke-linecap="round" stroke-linejoin="round"/>
<path d="M72.7289 83.5336C72.7289 84.0475 72.4857 84.4638 72.1855 84.4638C71.8853 84.4638 71.6421 84.0475 71.6421 83.5336C71.6421 83.0198 71.8853 82.6035 72.1855 82.6035C72.4857 82.6035 72.7289 83.0198 72.7289 83.5336Z" fill="#F2935C" stroke="#F2935C" stroke-miterlimit="10" stroke-linecap="round" stroke-linejoin="round"/>
<path d="M79.4056 81.5961C79.4056 82.11 79.1624 82.5263 78.8622 82.5263C78.562 82.5263 78.3188 82.11 78.3188 81.5961C78.3188 81.0823 78.562 80.666 78.8622 80.666C79.1624 80.666 79.4056 81.0823 79.4056 81.5961Z" fill="#F2935C" stroke="#F2935C" stroke-miterlimit="10" stroke-linecap="round" stroke-linejoin="round"/>
<path d="M73.2189 99.1909C73.2189 99.1909 72.1317 97.3306 72.4427 97.253C72.7532 97.1754 76.6351 96.0128 76.5577 95.3928C76.48 94.7727 75.3155 94.2302 74.3838 94.4626C73.4521 94.6951 68.7159 95.6252 68.8714 96.3229C69.0269 97.0206 70.502 101.206 71.0453 102.214C71.5887 103.221 72.2099 111.747 72.2099 111.747H76.1694L76.3245 109.267C76.3245 109.267 78.3433 108.879 78.5762 108.337C78.809 107.794 78.6539 106.167 78.6539 106.167C78.6539 106.167 80.4395 105.857 80.4395 105.469C80.4395 105.081 80.9829 101.594 80.4395 101.128C79.8962 100.663 76.0917 98.2603 75.3928 98.2603C74.6943 98.2607 73.2189 99.1909 73.2189 99.1909Z" fill="white" stroke="#F2935C" stroke-miterlimit="10" stroke-linecap="round" stroke-linejoin="round"/>
<path d="M78.6538 106.166L78.7315 104.616L79.43 104.229" stroke="#F2935C" stroke-miterlimit="10" stroke-linecap="round" stroke-linejoin="round"/>
<path d="M73.219 99.1909L71.5889 100.276" stroke="#F2935C" stroke-miterlimit="10" stroke-linecap="round" stroke-linejoin="round"/>
<path d="M62.9438 112.802L71.4597 127.19L72.2096 111.748H76.1692C76.1692 111.748 78.6656 127.657 79.227 131.581C79.7887 135.505 79.695 139.522 79.1333 140.363C78.572 141.204 76.0767 143.985 75.141 143.985C74.2054 143.985 71.3661 142.418 70.898 141.671C70.658 141.287 64.8275 138.069 59.8569 132.934C55.1439 128.066 50.2754 121.008 50.2754 121.008" fill="white"/>
<path d="M62.9438 112.802L71.4597 127.19L72.2096 111.748H76.1692C76.1692 111.748 78.6656 127.657 79.227 131.581C79.7887 135.505 79.695 139.522 79.1333 140.363C78.572 141.204 76.0767 143.985 75.141 143.985C74.2054 143.985 71.3661 142.418 70.898 141.671C70.658 141.287 64.8275 138.069 59.8569 132.934C55.1439 128.066 50.2754 121.008 50.2754 121.008" stroke="#F2935C" stroke-miterlimit="10" stroke-linecap="round" stroke-linejoin="round"/>
<path d="M71.4595 127.189L70.4302 136.345" stroke="#F2935C" stroke-miterlimit="10" stroke-linecap="round" stroke-linejoin="round"/>
<path d="M72.0215 114.017H76.2326" stroke="#F2935C" stroke-miterlimit="10" stroke-linecap="round" stroke-linejoin="round"/>
<path d="M58.3032 154.778V176.474H91.2383L90.6518 154.778H58.3032Z" fill="#803307"/>
<path d="M154.98 73.535C154.98 73.535 150.111 74.8436 148.801 78.0216C147.49 81.1996 148.426 81.8539 148.707 81.7604C148.988 81.6669 149.643 80.4518 149.643 80.4518C149.643 80.4518 148.614 83.3496 149.924 84.5647C151.235 85.7798 153.389 87.4622 153.389 87.4622C153.389 87.4622 153.108 91.201 151.984 93.538C150.861 95.8747 149.269 98.4919 150.112 99.5204C150.955 100.548 151.984 99.0531 151.984 99.0531C151.984 99.0531 152.921 101.39 156.197 102.231C159.474 103.073 166.304 104.248 169.113 103.874C171.922 103.5 173.8 101.857 173.8 101.857C173.8 101.857 172.957 103.447 174.455 102.512C175.953 101.577 176.889 100.362 178.388 96.997C179.886 93.632 180.822 88.3043 180.073 84.1914C179.324 80.0785 175.672 76.6202 173.238 74.6573C170.804 72.6944 165.842 70.825 161.347 71.2922C156.852 71.7591 154.98 73.535 154.98 73.535Z" fill="#803307"/>
<path d="M178.524 110.415L179.753 125.833L173.259 137.829L170.547 132.315L178.524 110.415Z" fill="#FFAA4C" stroke="#F2935C" stroke-miterlimit="10" stroke-linecap="round" stroke-linejoin="round"/>
<path d="M173.988 123.344L172.108 135.384L170.487 132.73L173.988 123.344Z" fill="#F2935C" stroke="#F2935C" stroke-miterlimit="10" stroke-linecap="round" stroke-linejoin="round"/>
<path d="M136.635 176.539L137.965 161.669L177.066 163.262L177.731 176.274L136.635 176.539Z" fill="#F2935C" stroke="#F2935C" stroke-miterlimit="10" stroke-linecap="round" stroke-linejoin="round"/>
<path d="M157.212 78.8472C157.212 78.8472 156.606 82.8256 157.299 83.5173C157.992 84.209 161.457 85.8524 161.457 85.8524C161.457 85.8524 161.024 81.4413 161.024 81.1818C161.024 80.9223 163.45 87.1494 164.663 87.9279C165.876 88.7064 168.128 90.6093 168.128 90.6093C168.128 90.6093 168.475 91.6472 168.821 91.5605C169.168 91.4737 169.947 90.6956 169.947 90.6956C169.947 90.6956 172.46 90.0039 172.2 91.9931C171.94 93.9823 170.207 96.6632 169.168 96.8364C168.128 97.0095 167.348 96.9227 167.348 96.9227C167.348 96.9227 165.962 101.074 165.789 102.458C165.615 103.842 165.529 104.101 165.702 104.62C165.876 105.139 169.861 107.042 170.727 107.301C171.593 107.561 178.524 110.415 178.524 110.415L170.294 133.421L178.784 163.778C178.784 163.778 166.049 166.718 153.92 165.594C141.791 164.469 136.767 161.875 136.767 161.875L147.076 132.728L143.351 107.734L157.039 105.225L157.299 102.112C157.299 102.112 153.92 101.161 152.794 98.7388C151.626 96.2274 152.707 91.8196 152.794 90.5225C152.88 89.225 152.967 87.4089 152.794 85.9387C152.62 84.4685 153.314 79.8848 157.212 78.8472Z" fill="#FFAA4C" stroke="#F2935C" stroke-miterlimit="10" stroke-linecap="round" stroke-linejoin="round"/>
<path d="M151.104 129.393C151.104 129.393 160.495 135.018 160.871 135.143" stroke="#F2935C" stroke-miterlimit="10" stroke-linecap="round" stroke-linejoin="round"/>
<path d="M154.861 133.019L161.497 137.519" stroke="#F2935C" stroke-miterlimit="10" stroke-linecap="round" stroke-linejoin="round"/>
<path d="M169.169 106.649C167.704 105.968 165.82 104.973 165.702 104.62C165.529 104.101 165.616 103.842 165.789 102.458C165.962 101.074 167.348 96.9231 167.348 96.9231C167.348 96.9231 168.128 97.0095 169.167 96.8368C170.207 96.6636 171.94 93.9827 172.2 91.9935C172.46 90.0043 169.947 90.696 169.947 90.696C169.947 90.696 169.167 91.4745 168.821 91.5609C168.475 91.6472 168.128 90.6097 168.128 90.6097C168.128 90.6097 165.876 88.7068 164.663 87.9283C163.45 87.1498 161.024 80.9227 161.024 81.1822C161.024 81.4417 161.457 85.8524 161.457 85.8524C161.457 85.8524 157.992 84.209 157.299 83.5173C156.606 82.8256 157.212 78.8472 157.212 78.8472C153.314 79.8852 152.621 84.4689 152.794 85.9391C152.967 87.4093 152.88 89.2258 152.794 90.5229C152.707 91.82 151.626 96.2278 152.794 98.7392C153.92 101.161 157.299 102.112 157.299 102.112L157.039 105.226L153.212 105.927L151.429 116.137L165.575 117.138L169.169 106.649Z" fill="white" stroke="#F2935C" stroke-miterlimit="10" stroke-linecap="round" stroke-linejoin="round"/>
<path d="M157.039 105.226L156.922 107.91" stroke="#F2935C" stroke-miterlimit="10" stroke-linecap="round" stroke-linejoin="round"/>
<path d="M165.766 99.3882C165.766 99.3882 163.854 101.201 160.794 101.488" stroke="#F2935C" stroke-miterlimit="10" stroke-linecap="round" stroke-linejoin="round"/>
<path d="M156.433 95.6258C156.433 95.6258 159.118 96.6637 161.284 94.415" stroke="#F2935C" stroke-miterlimit="10" stroke-linecap="round" stroke-linejoin="round"/>
<path d="M157.473 86.4653C157.473 86.4653 157.579 86.7802 157.473 87.934C157.368 89.0882 155.288 92.1384 155.919 92.4532C156.549 92.7681 157.095 92.6347 158.356 92.7394" stroke="#F2935C" stroke-miterlimit="10" stroke-linecap="round" stroke-linejoin="round"/>
<path d="M156.01 88.1636C156.01 88.7057 155.737 89.1451 155.401 89.1451C155.064 89.1451 154.792 88.7057 154.792 88.1636C154.792 87.6215 155.064 87.1821 155.401 87.1821C155.737 87.1821 156.01 87.6215 156.01 88.1636Z" fill="#F2935C"/>
<path d="M161.814 88.771C161.814 89.3131 161.542 89.7525 161.205 89.7525C160.869 89.7525 160.597 89.3131 160.597 88.771C160.597 88.2289 160.869 87.7896 161.205 87.7896C161.542 87.7896 161.814 88.2289 161.814 88.771Z" fill="#F2935C"/>
<path d="M154.324 85.9672C154.324 85.9672 155.729 84.9391 156.852 85.4999" stroke="#F2935C" stroke-miterlimit="10" stroke-linecap="round" stroke-linejoin="round"/>
<path d="M160.503 85.7798C160.503 85.7798 162.563 85.4992 163.312 87.1819" stroke="#F2935C" stroke-miterlimit="10" stroke-linecap="round" stroke-linejoin="round"/>
<path d="M143.351 107.734L141.738 118.917L136.823 129.122L127.036 114.469C127.036 114.469 126.702 112.134 126.145 111.244C125.588 110.355 123.694 109.91 122.581 109.132C121.467 108.353 120.687 105.907 119.796 106.797C118.905 107.686 119.462 109.243 119.796 109.688C120.13 110.133 122.692 112.245 122.692 112.245L116.455 114.247C116.455 114.247 111.554 111.912 111.108 112.801C110.663 113.691 114.673 117.916 116.232 118.361C117.791 118.806 124.028 117.805 124.028 117.805C124.028 117.805 131.046 134.93 132.605 136.82C134.164 138.711 136.169 141.046 136.615 140.934C137.06 140.823 146.703 130.682 146.703 130.682L143.351 107.734Z" fill="white" stroke="#F2935C" stroke-miterlimit="10" stroke-linecap="round" stroke-linejoin="round"/>
<path d="M124.806 115.964C124.806 115.964 123.159 114.804 122.577 114.804C121.996 114.804 116.181 115.771 116.181 115.771C116.181 115.771 113.177 114.127 112.596 114.417" stroke="#F2935C" stroke-miterlimit="10" stroke-linecap="round" stroke-linejoin="round"/>
<path d="M141.371 136.319C144.051 133.605 146.703 130.681 146.703 130.681L143.351 107.733L141.738 118.916L136.823 129.122L141.371 136.319Z" fill="#FFAA4C" stroke="#F2935C" stroke-miterlimit="10" stroke-linecap="round" stroke-linejoin="round"/>
<path d="M180.527 121.576C180.527 121.576 180.818 116.642 181.884 115.868C182.95 115.094 186.439 114.03 186.826 113.353C187.214 112.676 187.795 112.966 187.698 113.836C187.602 114.707 186.536 115.965 186.245 116.061C185.954 116.158 184.5 117.029 184.5 117.029C184.5 117.029 185.663 117.996 185.954 118.093C186.245 118.19 190.024 118.964 190.024 118.964C190.024 118.964 193.803 115.868 193.803 116.642C193.803 117.416 191.284 122.156 190.993 122.737C190.702 123.317 188.57 123.511 187.698 123.608C186.826 123.705 182.659 124.091 182.659 124.091C182.659 124.091 181.593 135.024 181.496 137.539C181.399 140.054 179.752 142.376 178.88 142.957C178.007 143.537 173.162 139.377 173.259 137.829C173.356 136.281 179.364 123.995 179.364 123.995L180.527 121.576Z" fill="white" stroke="#F2935C" stroke-miterlimit="10" stroke-linecap="round" stroke-linejoin="round"/>
<path d="M181.745 122.407C181.745 122.407 182.659 120.512 184.015 120.802C185.372 121.092 189.442 121.576 189.442 121.576C189.442 121.576 191.284 119.158 192.059 119.061" stroke="#F2935C" stroke-miterlimit="10" stroke-linecap="round" stroke-linejoin="round"/>
<path d="M239.447 135.336H211.828C209.228 135.336 206.983 137.156 206.45 139.697L198.721 176.539H237.568L244.826 141.946C245.541 138.538 242.935 135.336 239.447 135.336Z" fill="#803307"/>
<path d="M206.478 133.936L188.796 142.297L183.721 164.932C183.721 164.932 181.521 165.016 181.436 165.607C181.352 166.199 181.521 167.381 181.521 167.381C181.521 167.381 179.998 167.465 179.829 168.816C179.66 170.168 179.829 171.604 180.083 172.279C180.337 172.955 182.875 176.079 183.636 176.164C184.397 176.248 185.328 176.417 185.582 176.502C185.836 176.586 228.981 176.502 228.981 176.502C228.981 176.502 230.673 176.333 231.096 175.995C231.519 175.657 231.604 174.897 231.604 174.897C231.604 174.897 232.788 173.968 232.873 173.377C232.957 172.786 232.45 169.154 232.45 168.394C232.45 167.634 235.495 145.59 235.664 144.07C235.834 142.55 235.326 141.959 234.903 141.536C234.48 141.114 229.827 138.411 227.797 137.567C225.766 136.722 218.797 133.639 218.797 133.639L206.478 133.936Z" fill="white" stroke="#F2935C" stroke-miterlimit="10" stroke-linecap="round" stroke-linejoin="round"/>
<path d="M208.339 149.006C208.775 148.789 218.288 137.646 220.99 134.476C219.72 133.917 218.403 133.547 218.403 133.547L206.478 133.804L202.982 135.601C203.89 138.481 206.607 145.866 207.155 147.233C207.832 148.922 207.832 149.26 208.339 149.006Z" fill="#FFAA4C" stroke="#F2935C" stroke-miterlimit="10" stroke-linecap="round" stroke-linejoin="round"/>
<path d="M204.609 108.803C204.609 108.803 201.354 112.675 201.354 114.127C201.354 115.579 201.977 117.169 201.284 117.999C200.592 118.829 196.713 120.626 197.475 121.594C198.237 122.562 199.415 123.323 199.415 123.323L199.276 125.535C199.276 125.535 200.661 130.929 201.423 131.205C202.185 131.482 204.609 131.413 204.609 131.413C204.609 131.413 207.657 143.513 208.419 143.651C209.18 143.79 218.404 133.547 218.404 133.547L218.046 129.476C218.046 129.476 221.647 123.599 222.617 120.902C223.587 118.206 221.647 112.605 218.877 110.046C216.107 107.488 210.497 107.073 208.419 107.281C206.341 107.489 204.609 108.803 204.609 108.803Z" fill="white" stroke="#F2935C" stroke-miterlimit="10" stroke-linecap="round" stroke-linejoin="round"/>
<path d="M202.615 114.69C202.615 114.69 204.401 114.127 205.648 115.233" stroke="#F2935C" stroke-width="2" stroke-miterlimit="10" stroke-linecap="round" stroke-linejoin="round"/>
<path d="M204.585 118.011C204.418 118.519 204.077 118.864 203.822 118.78C203.568 118.697 203.497 118.217 203.663 117.71C203.83 117.202 204.172 116.857 204.426 116.941C204.681 117.024 204.752 117.503 204.585 118.011Z" fill="#F2935C" stroke="#F2935C" stroke-miterlimit="10" stroke-linecap="round" stroke-linejoin="round"/>
<path d="M205.094 105.552C205.094 105.552 198.722 106.659 200.246 107.903C201.77 109.148 210.15 111.361 211.951 111.983C213.752 112.605 208.904 113.711 209.596 114.265C210.289 114.818 211.674 117.445 211.674 117.445C211.674 117.445 211.397 120.903 210.497 122.77C209.596 124.637 205.372 127.126 205.372 127.126C205.372 127.126 203.155 124.153 201.978 124.153C200.8 124.153 199.138 124.429 199.277 125.536C199.415 126.642 199.9 129.615 199.969 129.892C200.039 130.168 199.138 132.934 200.108 133.557C201.077 134.179 206.064 132.173 208.281 131.206C210.497 130.238 211.536 129.754 211.674 128.371C211.813 126.988 213.96 120.765 213.96 120.765C213.96 120.765 215.414 119.797 216.73 120.004C218.046 120.212 218.046 123.116 216.869 124.153C215.691 125.19 214.168 126.227 214.168 126.227L218.046 129.477C218.046 129.477 226.565 120.903 226.704 117.584C226.843 114.265 222.617 108.388 220.817 106.521C219.015 104.654 208.626 104.17 205.094 105.552Z" fill="#F2935C" stroke="#F2935C" stroke-miterlimit="10" stroke-linecap="round" stroke-linejoin="round"/>
<path d="M199.35 126.41C199.35 126.41 201.555 125.573 202.183 125.69C203.346 125.908 204.479 127.142 204.072 128.091C203.711 128.932 203.108 129.774 202.331 130.162C201.553 130.55 201.229 130.744 201.099 130.356C200.97 129.968 200.625 129.584 200.236 129.52C199.847 129.455 199.968 129.892 199.968 129.892C199.968 129.892 199.609 126.927 199.35 126.41Z" fill="white" stroke="#F2935C" stroke-miterlimit="10" stroke-linecap="round" stroke-linejoin="round"/>
<path d="M200.122 127.348C200.122 127.348 201.324 127.405 202.755 126.604" stroke="#F2935C" stroke-miterlimit="10" stroke-linecap="round" stroke-linejoin="round"/>
<path d="M182.706 167.502C182.706 167.502 186.174 168.009 187.612 171.219" stroke="#F2935C" stroke-miterlimit="10" stroke-linecap="round" stroke-linejoin="round"/>
<path d="M184.905 165.813C184.905 165.813 187.781 166.574 188.712 167.756" stroke="#F2935C" stroke-miterlimit="10" stroke-linecap="round" stroke-linejoin="round"/>
<path d="M222.993 151.725L220.521 166.32C220.521 166.32 216.63 166.996 216.63 168.178C216.63 169.361 218.745 172.401 218.745 172.401" stroke="#F2935C" stroke-miterlimit="10" stroke-linecap="round" stroke-linejoin="round"/>
<path d="M223.398 149.091L223.243 150.017" stroke="#F2935C" stroke-miterlimit="10" stroke-linecap="round" stroke-linejoin="round"/>
<path d="M227.738 164.589C228.162 164.602 228.579 164.641 228.981 164.715" stroke="#F2935C" stroke-miterlimit="10" stroke-linecap="round" stroke-linejoin="round"/>
<path d="M221.537 165.729C221.537 165.729 223.951 164.813 226.518 164.62" stroke="#F2935C" stroke-miterlimit="10" stroke-linecap="round" stroke-linejoin="round"/>
<path d="M227.966 166.827C227.966 166.827 230.758 168.009 231.857 171.81" stroke="#F2935C" stroke-miterlimit="10" stroke-linecap="round" stroke-linejoin="round"/>
<path d="M228.981 176.37C228.981 176.37 229.235 174.512 226.951 171.556C224.667 168.6 222.467 168.347 221.875 168.6C221.283 168.854 205.209 174.681 205.209 174.681C205.209 174.681 195.311 169.022 194.465 169.445C193.619 169.867 188.29 176.455 188.29 176.455L228.981 176.37Z" fill="white" stroke="#F2935C" stroke-miterlimit="10" stroke-linecap="round" stroke-linejoin="round"/>
<path d="M190.574 176.455L195.904 170.881" stroke="#F2935C" stroke-miterlimit="10" stroke-linecap="round" stroke-linejoin="round"/>
<path d="M193.45 176.201L198.272 171.894" stroke="#F2935C" stroke-miterlimit="10" stroke-linecap="round" stroke-linejoin="round"/>
<path d="M197.172 176.539L200.472 173.33" stroke="#F2935C" stroke-miterlimit="10" stroke-linecap="round" stroke-linejoin="round"/>
<path d="M200.895 176.286L202.248 175.188" stroke="#F2935C" stroke-miterlimit="10" stroke-linecap="round" stroke-linejoin="round"/>
<path d="M192.326 148.721L192.604 146.811" stroke="#F2935C" stroke-miterlimit="10" stroke-linecap="round" stroke-linejoin="round"/>
<path d="M188.289 176.455L191.966 151.19" stroke="#F2935C" stroke-miterlimit="10" stroke-linecap="round" stroke-linejoin="round"/>
<path d="M186.513 176.455C186.513 176.455 186.005 171.472 183.636 170.374C181.267 169.276 178.561 170.542 177.545 170.796C176.53 171.05 167.393 176.539 167.393 176.539L186.513 176.455Z" fill="white" stroke="#F2935C" stroke-miterlimit="10" stroke-linecap="round" stroke-linejoin="round"/>
<path d="M175.345 173.415C175.345 173.415 172.892 171.557 171.792 170.627C170.692 169.698 170.015 169.614 167.816 169.867C165.616 170.121 164.009 176.455 164.009 176.455H172.215L175.345 173.415Z" fill="white" stroke="#F2935C" stroke-miterlimit="10" stroke-linecap="round" stroke-linejoin="round"/>
<path d="M174.161 172.485C174.161 172.485 171.116 175.864 171.454 176.117C171.792 176.371 173.4 176.286 173.4 176.286C173.4 176.286 176.192 174.174 176.276 173.583C176.361 172.992 174.161 172.485 174.161 172.485Z" fill="white" stroke="#F2935C" stroke-miterlimit="10" stroke-linecap="round" stroke-linejoin="round"/>
<path d="M170.439 170.543L167.393 176.539L165.701 176.201C165.701 176.201 167.563 170.458 167.816 169.867C168.07 169.276 169.424 169.107 170.608 169.867" fill="white"/>
<path d="M170.439 170.543L167.393 176.539L165.701 176.201C165.701 176.201 167.563 170.458 167.816 169.867C168.07 169.276 169.424 169.107 170.608 169.867" stroke="#F2935C" stroke-miterlimit="10" stroke-linecap="round" stroke-linejoin="round"/>
<path d="M167.816 169.867C167.816 169.867 165.305 169.586 164.929 170.17C164.553 170.754 164.009 176.455 164.009 176.455L165.701 176.202L167.816 169.867Z" fill="white" stroke="#F2935C" stroke-miterlimit="10" stroke-linecap="round" stroke-linejoin="round"/>
<path d="M164.637 170.462C164.637 170.462 162.633 171.129 162.549 171.671C162.466 172.213 162.591 176.339 162.591 176.339L164.01 176.455L164.637 170.462Z" fill="white" stroke="#F2935C" stroke-miterlimit="10" stroke-linecap="round" stroke-linejoin="round"/>
<path d="M162.507 172.254C162.507 172.254 160.545 173.713 160.419 174.046C160.294 174.38 159.25 175.547 159.668 175.631C160.085 175.714 161.547 174.589 161.547 174.589L162.424 174.213L162.507 172.254Z" fill="white" stroke="#F2935C" stroke-miterlimit="10" stroke-linecap="round" stroke-linejoin="round"/>
<path d="M275.483 176.54H13.8804" stroke="#001E6C" stroke-miterlimit="10" stroke-linecap="round" stroke-linejoin="round"/>
<path d="M189.451 175.709H160.911V176.539H189.451V175.709Z" fill="#B3B3B3" stroke="#BDBCBB" stroke-miterlimit="10" stroke-linecap="round" stroke-linejoin="round"/>
<path d="M155.941 153.483H121.816L127.251 176.54H161.376L155.941 153.483Z" fill="#B3B3B3" stroke="#BDBCBB" stroke-miterlimit="10" stroke-linecap="round" stroke-linejoin="round"/>
<path d="M141.96 165.446C141.96 166.634 140.995 167.597 139.805 167.597C138.615 167.597 137.65 166.634 137.65 165.446C137.65 164.258 138.615 163.295 139.805 163.295C140.995 163.295 141.96 164.258 141.96 165.446Z" fill="#FFAA4C" stroke="#BDBCBB" stroke-miterlimit="10" stroke-linecap="round" stroke-linejoin="round"/>
<path d="M42.9386 164.871C42.9386 164.871 40.9186 163.496 39.3578 164.596C37.7966 165.696 37.6132 171.196 39.3578 173.121C40.3604 174.228 43.0307 173.305 43.0307 173.305L43.2145 170.646C43.2145 170.646 41.5317 172.328 40.6435 170.555C40.0925 169.455 40.368 166.888 41.3782 166.43C42.3885 165.971 43.3066 166.98 43.3066 166.98L42.9386 164.871Z" fill="#FFAA4C"/>
<path d="M54.8674 161.116H42.4282V176.539H54.8674V161.116Z" fill="#FFAA4C"/>
<path d="M63.0217 44.9365H62.4373V41.165H54.4245V44.9365H53.84C47.9716 44.9365 43.2144 49.6858 43.2144 55.5444V56.6011H73.647V55.5444C73.6474 49.6858 68.8901 44.9365 63.0217 44.9365Z" fill="#EAE9E8" stroke="#C5C2C1" stroke-miterlimit="10" stroke-linecap="round" stroke-linejoin="round"/>
<path d="M58.4312 41.6814V19.522" stroke="#C5C2C1" stroke-miterlimit="10" stroke-linecap="round" stroke-linejoin="round"/>
<path d="M185.171 44.9365H184.587V41.165H176.574V44.9365H175.989C170.121 44.9365 165.364 49.6858 165.364 55.5444V56.6011H195.796V55.5444C195.796 49.6858 191.039 44.9365 185.171 44.9365Z" fill="#EAE9E8" stroke="#C5C2C1" stroke-miterlimit="10" stroke-linecap="round" stroke-linejoin="round"/>
<path d="M180.58 41.6814V19.522" stroke="#C5C2C1" stroke-miterlimit="10" stroke-linecap="round" stroke-linejoin="round"/>
<path d="M142.271 59.6333H122.807C120.368 59.6333 118.392 61.6066 118.392 64.0408V72.2364C118.392 74.6705 120.369 76.6434 122.807 76.6434H138.121L141.614 80.9514V76.6434H142.271C144.709 76.6434 146.685 74.6701 146.685 72.2364V64.0408C146.685 61.6066 144.708 59.6333 142.271 59.6333Z" fill="white"/>
<path d="M128.102 68.0273C128.102 68.6896 127.564 69.2265 126.901 69.2265C126.238 69.2265 125.7 68.6896 125.7 68.0273C125.7 67.365 126.238 66.8281 126.901 66.8281C127.564 66.8281 128.102 67.365 128.102 68.0273Z" fill="#FFAA4C"/>
<path d="M132.539 69.2265C133.202 69.2265 133.74 68.6896 133.74 68.0273C133.74 67.365 133.202 66.8281 132.539 66.8281C131.875 66.8281 131.337 67.365 131.337 68.0273C131.337 68.6896 131.875 69.2265 132.539 69.2265Z" fill="#FFAA4C"/>
<path d="M138.176 69.2265C138.839 69.2265 139.377 68.6896 139.377 68.0273C139.377 67.365 138.839 66.8281 138.176 66.8281C137.512 66.8281 136.975 67.365 136.975 68.0273C136.975 68.6896 137.512 69.2265 138.176 69.2265Z" fill="#FFAA4C"/>
</svg>
