<svg width="190" height="149" viewBox="0 0 190 149" fill="none" xmlns="http://www.w3.org/2000/svg">
<path d="M41.7061 129.61V148.203H68.9246H98.9452V129.61H41.7061Z" fill="#F5F5F5"/>
<path d="M39.3037 124.43V129.628H100.946V124.43H68.9239H39.3037Z" fill="#E0E0E0"/>
<path d="M70.1247 148.22H98.9444V129.627H100.946V124.43H68.9238V129.146L70.1247 148.22Z" fill="#E0E0E0"/>
<path d="M61.3192 132.617H49.7114V135.416H61.3192V132.617Z" fill="#E0E0E0"/>
<path d="M63.1226 138.913H48.2173V144.822H63.1226V138.913Z" fill="white"/>
<path d="M48.2769 110.145V124.427H69.185H92.2459V110.145H48.2769Z" fill="#F5F5F5"/>
<path d="M46.4326 106.15V110.143H93.7837V106.15H69.1851H46.4326Z" fill="#E0E0E0"/>
<path d="M70.1094 124.425H92.2475V110.143H93.7851V106.15H69.1865V109.774L70.1094 124.425Z" fill="#EBEBEB"/>
<path d="M63.3436 112.45H54.4268V114.6H63.3436V112.45Z" fill="#E0E0E0"/>
<path d="M64.7285 117.269H53.2788V121.808H64.7285V117.269Z" fill="white"/>
<path d="M135.295 147.723C125.671 141.154 123.374 128.798 123.636 117.668C123.68 115.811 123.455 113.855 124.323 112.216C125.19 110.577 127.242 109.442 128.915 110.207C130.302 110.842 130.921 112.44 131.707 113.759C132.753 115.514 134.299 116.959 136.111 117.874C137.301 118.476 138.77 118.835 139.932 118.18C141.527 117.279 141.693 115.064 141.662 113.217C141.604 109.774 141.547 106.332 141.49 102.889C141.459 101.043 141.434 99.1562 141.991 97.3974C142.547 95.6382 143.801 93.9965 145.555 93.4859C147.31 92.9758 149.495 93.966 149.886 95.7705C150.048 96.5213 149.903 97.3038 149.962 98.0699C150.022 98.8363 150.388 99.6807 151.119 99.887C151.86 100.096 152.594 99.5645 153.141 99.0182C155.03 97.1332 156.3 94.7172 157.486 92.3156C158.671 89.9135 159.821 87.4553 161.532 85.4032C163.242 83.351 165.621 81.7141 168.268 81.5365C170.915 81.3594 173.753 82.9628 174.449 85.5529C175.148 88.1499 173.654 90.8079 172.021 92.9332C169.598 96.0865 166.723 98.882 163.512 101.206C162.934 101.625 162.307 102.078 162.091 102.765C161.702 104 162.883 105.211 164.104 105.603C165.487 106.048 166.982 105.889 168.425 106.044C169.869 106.198 171.438 106.817 171.997 108.173C172.774 110.053 171.214 112.048 169.672 113.361C166.585 115.989 163.05 118.076 159.27 119.504C157.915 120.015 156.488 120.466 155.401 121.432C154.314 122.399 153.669 124.065 154.345 125.359C155.022 126.655 156.727 127.054 158.15 126.775C159.571 126.496 160.839 125.71 162.191 125.184C164.722 124.2 168.006 124.341 169.657 126.517C170.741 127.948 170.857 129.955 170.333 131.68C169.81 133.405 168.729 134.897 167.577 136.275C163.554 141.09 158.38 144.987 152.506 147.09C146.632 149.193 141.176 149.802 135.295 147.723Z" fill="#F5F5F5"/>
<path d="M138.098 140.737C139.678 135.105 141.924 129.075 144.49 122.848C145.137 121.294 145.776 119.759 146.406 118.245C147.039 116.736 147.666 115.239 148.37 113.813C149.766 110.954 151.326 108.312 152.886 105.85C154.445 103.386 156.014 101.105 157.496 98.9829C158.984 96.8629 160.409 94.9135 161.783 93.1917C164.521 89.7363 167.055 87.2163 168.865 85.5572C169.768 84.7241 170.49 84.1009 170.985 83.6852C171.224 83.4876 171.411 83.3327 171.551 83.216C171.68 83.112 171.748 83.0611 171.752 83.0654C171.756 83.0698 171.695 83.1299 171.574 83.243C171.439 83.3662 171.258 83.5298 171.03 83.7379C170.55 84.1705 169.843 84.809 168.954 85.6555C167.175 87.3429 164.676 89.8804 161.97 93.344C160.612 95.0702 159.203 97.0235 157.727 99.1474C156.255 101.275 154.697 103.559 153.149 106.02C151.601 108.481 150.053 111.117 148.669 113.962C147.971 115.381 147.351 116.866 146.718 118.379C146.088 119.892 145.45 121.427 144.804 122.98C142.24 129.201 139.992 135.213 138.399 140.824" fill="#E0E0E0"/>
<path d="M148.468 113.785C148.445 113.789 148.379 113.509 148.279 112.999C148.177 112.489 148.053 111.748 147.913 110.829C147.633 108.993 147.332 106.443 147.011 103.631C146.69 100.818 146.354 98.2801 146.046 96.4535C145.894 95.5395 145.764 94.8009 145.668 94.2916C145.574 93.7815 145.534 93.4965 145.557 93.4908C145.579 93.4856 145.664 93.7598 145.797 94.2625C145.933 94.7639 146.1 95.4977 146.282 96.4091C146.652 98.2314 147.027 100.775 147.348 103.591C147.658 106.366 147.938 108.877 148.152 110.796C148.254 111.662 148.34 112.392 148.41 112.978C148.468 113.493 148.491 113.781 148.468 113.785Z" fill="#E0E0E0"/>
<path d="M172.194 109.116C172.195 109.14 171.857 109.182 171.247 109.239C170.637 109.3 169.755 109.383 168.668 109.52C166.493 109.777 163.501 110.238 160.222 110.891C156.943 111.549 154.002 112.271 151.889 112.855C150.83 113.139 149.98 113.392 149.39 113.564C148.802 113.738 148.473 113.823 148.465 113.801C148.458 113.778 148.773 113.65 149.35 113.436C149.928 113.226 150.77 112.937 151.823 112.621C153.924 111.976 156.868 111.214 160.156 110.552C163.444 109.899 166.454 109.474 168.642 109.278C169.736 109.171 170.624 109.125 171.238 109.106C171.853 109.091 172.193 109.092 172.194 109.116Z" fill="#E0E0E0"/>
<path d="M138.385 140.292C138.374 140.296 138.318 140.198 138.219 140.004C138.107 139.773 137.97 139.491 137.804 139.149C137.446 138.405 136.957 137.315 136.37 135.96C135.195 133.251 133.689 129.459 132.084 125.252C130.478 121.042 129.01 117.241 127.893 114.512C127.346 113.185 126.896 112.094 126.561 111.283C126.418 110.931 126.3 110.64 126.203 110.402C126.125 110.199 126.089 110.091 126.1 110.085C126.11 110.081 126.167 110.179 126.266 110.373C126.378 110.605 126.515 110.886 126.681 111.228C127.038 111.972 127.527 113.062 128.114 114.416C129.29 117.125 130.795 120.918 132.4 125.127C134.006 129.335 135.474 133.136 136.591 135.866C137.139 137.192 137.589 138.283 137.923 139.094C138.067 139.446 138.184 139.738 138.281 139.975C138.36 140.178 138.396 140.287 138.385 140.292Z" fill="#E0E0E0"/>
<path d="M169.872 129.794C169.875 129.805 169.767 129.85 169.56 129.926C169.313 130.011 169.011 130.116 168.645 130.243C167.801 130.526 166.66 130.908 165.274 131.373C162.427 132.328 158.51 133.692 154.184 135.205C149.857 136.72 145.924 138.049 143.056 138.945C141.623 139.394 140.459 139.745 139.65 139.971C139.276 140.073 138.968 140.157 138.717 140.226C138.502 140.281 138.388 140.304 138.385 140.292C138.382 140.281 138.489 140.236 138.697 140.16C138.943 140.075 139.244 139.97 139.611 139.844C140.456 139.56 141.595 139.179 142.982 138.713C145.829 137.759 149.746 136.394 154.073 134.88C158.399 133.366 162.332 132.037 165.199 131.141C166.633 130.692 167.796 130.341 168.606 130.115C168.98 130.013 169.288 129.928 169.539 129.86C169.754 129.805 169.868 129.782 169.872 129.794Z" fill="#E0E0E0"/>
<path d="M169.656 51.7878C171.204 51.1393 172.304 49.545 172.313 47.6666C172.323 45.2057 170.459 43.2023 168.149 43.1915C165.84 43.1806 163.959 45.167 163.949 47.6278C163.941 49.5237 165.05 51.1367 166.614 51.7878C160.178 52.7562 160.47 59.7435 160.47 59.7435L175.689 59.8136C175.689 59.8136 176.036 52.7506 169.656 51.7878Z" fill="#E0E0E0"/>
<path d="M152.148 12.3259C152.679 12.0051 153.245 11.7618 153.828 11.5964L154.175 9.93468L156.986 9.8855L157.39 11.5337C157.979 11.6787 158.553 11.9019 159.095 12.204L160.516 11.2739L162.538 13.2246L161.658 14.6753C161.979 15.2063 162.222 15.7716 162.388 16.3544L164.052 16.7L164.101 19.5077L162.45 19.9121C162.305 20.5005 162.082 21.0737 161.779 21.6156L162.71 23.0344L160.758 25.0548L159.306 24.1752C158.774 24.496 158.208 24.7393 157.625 24.9047L157.278 26.5664L154.468 26.6156L154.063 24.9669C153.474 24.822 152.9 24.5987 152.357 24.2966L150.937 25.2267L148.914 23.276L149.795 21.8254C149.474 21.2944 149.23 20.7294 149.064 20.1462L147.401 19.8006L147.352 16.9929L149.002 16.5886C149.147 16.0001 149.371 15.4269 149.673 14.8851L148.742 13.4662L150.694 11.4458L152.148 12.3259ZM153.646 16.0663C152.489 17.2632 152.523 19.1704 153.721 20.326C154.919 21.4815 156.829 21.448 157.985 20.2511C159.142 19.0542 159.108 17.147 157.91 15.9914C156.712 14.8359 154.803 14.8694 153.646 16.0663Z" fill="#E0E0E0"/>
<path d="M153.646 16.0745C153.646 16.0745 153.804 15.8526 154.208 15.5823C154.604 15.3185 155.296 15.0252 156.175 15.1174C156.608 15.1662 157.081 15.3068 157.512 15.5919C157.939 15.8769 158.342 16.2826 158.594 16.8088C158.726 17.0673 158.818 17.3546 158.868 17.6544C158.923 17.9534 158.93 18.2686 158.885 18.5819C158.809 19.2113 158.511 19.8315 158.048 20.3185C157.577 20.7982 156.967 21.1172 156.34 21.216C156.028 21.2721 155.713 21.2752 155.411 21.2317C155.11 21.1925 154.819 21.1107 154.556 20.9875C154.02 20.7546 153.6 20.3668 153.3 19.9508C153 19.5303 152.842 19.0624 152.778 18.6324C152.655 17.7589 152.924 17.0569 153.174 16.6521C153.429 16.2395 153.646 16.0745 153.646 16.0745C153.662 16.0885 153.464 16.2721 153.232 16.6856C153.005 17.0921 152.764 17.7776 152.898 18.6141C152.967 19.0259 153.124 19.4702 153.416 19.8681C153.707 20.2611 154.11 20.6262 154.62 20.8426C154.87 20.9575 155.146 21.0332 155.432 21.0684C155.717 21.1081 156.016 21.1037 156.311 21.0493C156.904 20.954 157.478 20.6515 157.923 20.1988C158.36 19.7379 158.643 19.1543 158.717 18.5593C158.761 18.2633 158.755 17.9652 158.705 17.6819C158.66 17.3977 158.575 17.1252 158.451 16.8793C158.216 16.3783 157.837 15.9888 157.434 15.712C157.026 15.4352 156.576 15.2937 156.161 15.2393C155.32 15.1349 154.642 15.3986 154.244 15.6397C153.837 15.8856 153.66 16.0902 153.646 16.0745Z" fill="#E0E0E0"/>
<path d="M152.147 12.3371C152.147 12.3397 152.116 12.3228 152.053 12.288C151.985 12.2484 151.893 12.1957 151.775 12.1269C151.521 11.9772 151.155 11.7613 150.68 11.481L150.714 11.4767C150.217 11.9968 149.564 12.681 148.774 13.5079L148.779 13.4535C149.063 13.8822 149.378 14.3588 149.716 14.8689L149.733 14.8946L149.718 14.9216C149.442 15.4208 149.21 15.9896 149.058 16.6138L149.049 16.6469L149.016 16.6551C148.502 16.7827 147.945 16.9206 147.367 17.0638L147.414 17.0033C147.431 17.8873 147.45 18.8257 147.47 19.8106L147.416 19.7453C147.931 19.8515 148.498 19.9681 149.08 20.0878L149.122 20.0965L149.134 20.1383C149.288 20.6802 149.529 21.2569 149.859 21.7983L149.883 21.8366L149.859 21.8754C149.587 22.3254 149.287 22.8216 148.981 23.3273L148.968 23.232C149.604 23.8439 150.29 24.5038 150.993 25.1801L150.893 25.1705C151.335 24.8802 151.821 24.5616 152.313 24.2391L152.354 24.2117L152.398 24.2361C152.894 24.512 153.473 24.7479 154.083 24.8968L154.133 24.9085L154.145 24.9577C154.272 25.4739 154.411 26.0371 154.55 26.6059L154.467 26.5415C155.357 26.5254 156.311 26.5085 157.277 26.491L157.195 26.5594C157.305 26.0345 157.422 25.4682 157.541 24.8976L157.552 24.8463L157.602 24.8319C158.155 24.6757 158.728 24.4337 159.26 24.112L159.261 24.1112L159.307 24.0842L159.351 24.1112C159.839 24.4067 160.323 24.7 160.803 24.9908L160.697 25.0047C161.357 24.3223 162.008 23.649 162.649 22.9848L162.639 23.091C162.326 22.6131 162.016 22.14 161.709 21.6717L161.681 21.6286L161.706 21.5838C162.004 21.0493 162.226 20.4813 162.369 19.9016L162.381 19.8524L162.431 19.8406C162.989 19.7044 163.538 19.5703 164.081 19.4376L164.018 19.519C164.003 18.5606 163.987 17.6244 163.972 16.7113L164.035 16.7874C163.471 16.6695 162.916 16.5533 162.372 16.4397L162.326 16.4301L162.313 16.3853C162.144 15.7899 161.899 15.231 161.593 14.7235L161.57 14.6848L161.593 14.6461C161.896 14.149 162.189 13.6677 162.476 13.1972L162.487 13.286C161.778 12.5983 161.107 11.9493 160.469 11.3313L160.551 11.3391C160.051 11.6651 159.582 11.9707 159.129 12.2658L159.097 12.2862L159.064 12.2679C158.498 11.9515 157.931 11.7378 157.376 11.5985L157.342 11.5903L157.334 11.5572C157.189 10.9574 157.058 10.4177 156.935 9.90764L156.986 9.94638C155.897 9.96074 154.969 9.97293 154.175 9.98338L154.212 9.95247C154.069 10.6153 153.953 11.159 153.855 11.612L153.851 11.6286L153.835 11.6329C153.241 11.7988 152.822 11.9929 152.55 12.1269C152.42 12.1948 152.32 12.2466 152.248 12.2849C152.179 12.3232 152.147 12.3397 152.147 12.3371C152.147 12.335 152.179 12.3128 152.241 12.2736C152.305 12.234 152.402 12.1748 152.537 12.103C152.806 11.9602 153.223 11.7565 153.82 11.5811L153.801 11.602C153.892 11.1481 154.002 10.6027 154.136 9.93811L154.142 9.90808L154.173 9.90721C154.968 9.8898 155.895 9.86934 156.984 9.84584L157.024 9.84497L157.034 9.88458C157.161 10.3938 157.295 10.9331 157.444 11.5315L157.403 11.4902C157.968 11.6277 158.547 11.8423 159.125 12.1613L159.061 12.1635C159.512 11.8662 159.98 11.5585 160.479 11.2299L160.523 11.2012L160.561 11.2382C161.202 11.8536 161.875 12.4999 162.588 13.1845L162.629 13.2242L162.599 13.2733C162.314 13.7447 162.022 14.2274 161.721 14.7253V14.6478C162.035 15.1653 162.288 15.7363 162.462 16.3444L162.403 16.2895C162.948 16.4023 163.503 16.5167 164.067 16.6334L164.13 16.646L164.131 16.7095C164.148 17.6222 164.165 18.5584 164.183 19.5168L164.184 19.5825L164.12 19.5982C163.578 19.7314 163.028 19.8667 162.47 20.0038L162.532 19.9425C162.386 20.5366 162.159 21.1193 161.854 21.6673L161.851 21.5798C162.158 22.0482 162.469 22.5208 162.782 22.9983L162.82 23.0553L162.772 23.1045C162.131 23.7686 161.48 24.4424 160.82 25.1253L160.772 25.1749L160.714 25.1392C160.233 24.8485 159.749 24.5551 159.261 24.26H159.351L159.349 24.2609C158.804 24.5908 158.216 24.8385 157.648 24.9986L157.709 24.9333C157.59 25.5039 157.472 26.0702 157.363 26.5951L157.349 26.6621L157.281 26.6634C156.314 26.6799 155.359 26.696 154.47 26.7113L154.402 26.7126L154.386 26.6469C154.247 26.078 154.109 25.5144 153.983 24.9982L154.044 25.0596C153.419 24.9059 152.826 24.6635 152.319 24.3801L152.404 24.3771C151.911 24.6987 151.425 25.0165 150.982 25.3059L150.928 25.3412L150.882 25.2968C150.18 24.6187 149.496 23.9571 148.862 23.3438L148.817 23.3012L148.85 23.2485C149.157 22.7441 149.459 22.2484 149.732 21.7992V21.8762C149.397 21.3217 149.152 20.732 148.997 20.1779L149.051 20.228C148.47 20.1061 147.903 19.9869 147.388 19.8789L147.335 19.8676L147.334 19.8136C147.319 18.8283 147.305 17.8903 147.291 17.0059L147.291 16.9567L147.338 16.945C147.918 16.8048 148.475 16.6699 148.99 16.5454L148.948 16.5868C149.107 15.9531 149.346 15.3773 149.63 14.8724L149.632 14.9246C149.299 14.4119 148.987 13.9332 148.707 13.5018L148.687 13.4722L148.712 13.4474C149.512 12.6292 150.173 11.9528 150.676 11.4384L150.692 11.4223L150.71 11.434C151.174 11.7226 151.532 11.9446 151.78 12.0991C151.897 12.1735 151.988 12.2309 152.055 12.2736C152.116 12.3132 152.147 12.335 152.147 12.3371Z" fill="#E0E0E0"/>
<path d="M54.5821 7.319C55.6718 7.6624 56.8191 7.37122 57.6839 6.65134C58.2229 7.42432 58.9061 8.34529 59.6786 9.32588C60.1039 9.866 60.5152 10.3696 60.9069 10.8379C60.1196 11.2305 59.4839 11.9247 59.1985 12.8295C58.9893 13.4915 58.9963 14.1701 59.1793 14.7894C58.4521 15.0157 57.6308 15.2925 56.7515 15.6151C55.9746 15.9001 55.2561 16.1835 54.613 16.4516C54.3028 15.4231 53.5063 14.56 52.4035 14.2123C50.6315 13.6534 48.7414 14.6362 48.1824 16.4063C47.6229 18.1769 48.6063 20.0645 50.3788 20.6233C52.1508 21.1822 54.0409 20.1998 54.6004 18.4293C54.7215 18.0459 54.7573 17.6585 54.7416 17.2781C55.4453 17.057 56.2313 16.7915 57.0713 16.4834C57.9711 16.153 58.7946 15.8248 59.5065 15.5215C59.9126 16.2213 60.5618 16.7837 61.3949 17.0461C63.1669 17.605 65.0571 16.6222 65.6165 14.8521C66.1755 13.082 65.1926 11.1939 63.4201 10.6355C62.868 10.4614 62.3086 10.4523 61.777 10.5545C61.3661 9.99396 60.9043 9.3855 60.4067 8.75354C59.6076 7.73944 58.8508 6.83588 58.212 6.11948C58.5057 5.75345 58.7405 5.32343 58.8926 4.8425C59.5009 2.91614 58.5575 0.901862 56.7851 0.343453C55.013 -0.215392 53.0828 0.893594 52.4746 2.81952C51.8663 4.74588 52.8096 6.76015 54.5821 7.319Z" fill="#E0E0E0"/>
<path d="M49.1528 52.2025L52.5518 56.3865C52.6803 56.5449 52.879 56.6298 53.0825 56.6137L58.4601 56.1889C58.9729 56.1484 59.3093 56.7129 59.03 57.1438L56.0963 61.6659C55.9852 61.8369 55.9656 62.0519 56.044 62.2404L58.1102 67.2178C58.3071 67.6922 57.874 68.1866 57.3769 68.0543L52.1649 66.6646C51.9675 66.6119 51.7571 66.6598 51.6015 66.7921L47.501 70.2932C47.1102 70.627 46.5054 70.368 46.4784 69.8549L46.1908 64.474C46.1799 64.2703 46.0693 64.0849 45.895 63.9783L41.2947 61.1645C40.856 60.8964 40.9157 60.2418 41.3958 60.0572L46.4296 58.1213C46.62 58.0482 46.7625 57.8858 46.81 57.6874L48.0674 52.4476C48.1873 51.9488 48.8291 51.8034 49.1528 52.2025Z" fill="#E0E0E0"/>
<path d="M136.611 71.29C136.611 67.5479 133.225 64.5957 129.346 65.3229C126.907 65.7804 124.963 67.7703 124.535 70.2128C124.268 71.7396 124.584 73.1755 125.281 74.3606H125.277L125.295 74.3837C125.528 74.7763 125.82 75.0574 126.116 75.4701L129.648 80.1449C130.088 80.7268 130.963 80.7264 131.402 80.1449L134.876 75.5471C134.876 75.5471 135.524 74.7745 135.76 74.3776L135.772 74.3611H135.77C136.301 73.4588 136.611 72.4116 136.611 71.29ZM130.526 73.9363C129.047 73.9363 127.848 72.7385 127.848 71.2613C127.848 69.7841 129.047 68.5863 130.526 68.5863C132.005 68.5863 133.204 69.7841 133.204 71.2613C133.204 72.7385 132.005 73.9363 130.526 73.9363Z" fill="#E0E0E0"/>
<path d="M98.445 43.5012C110.469 43.5012 120.217 33.7644 120.217 21.7533C120.217 9.74225 110.469 0.00537109 98.445 0.00537109C86.4208 0.00537109 76.6733 9.74225 76.6733 21.7533C76.6733 33.7644 86.4208 43.5012 98.445 43.5012Z" fill="#F2935C"/>
<g opacity="0.8">
<path d="M98.445 43.4995C110.469 43.4995 120.217 33.7626 120.217 21.7516C120.217 9.74054 110.469 0.00366211 98.445 0.00366211C86.4208 0.00366211 76.6733 9.74054 76.6733 21.7516C76.6733 33.7626 86.4208 43.4995 98.445 43.4995Z" fill="white"/>
</g>
<path d="M105.767 16.2043C104.347 11.6495 99.4989 9.10685 94.9387 10.5257C90.3785 11.9446 87.8335 16.787 89.254 21.3422C90.2822 24.64 93.1074 26.8815 96.3195 27.3298C96.624 28.3069 96.9683 29.4107 96.9683 29.4107L104.205 27.1592C104.205 27.1592 103.885 25.9779 103.576 24.9303C105.807 22.7328 106.763 19.3985 105.767 16.2043Z" fill="#F2935C"/>
<path d="M101.576 27.9468C101.576 27.9468 101.567 27.912 101.553 27.8423C101.539 27.7688 101.519 27.6665 101.494 27.5342C101.444 27.263 101.371 26.8631 101.289 26.346C101.209 25.8285 101.117 25.1935 101.059 24.451C101.004 23.7093 100.978 22.8558 101.092 21.9227C101.15 21.4561 101.233 20.9713 101.386 20.4773C101.468 20.2335 101.588 19.9837 101.793 19.7952C101.997 19.6059 102.298 19.5123 102.585 19.5768C102.727 19.609 102.866 19.6943 102.948 19.8218C103.035 19.9458 103.07 20.1069 103.046 20.2557C102.999 20.5565 102.813 20.8137 102.579 21.003C102.093 21.3634 101.45 21.511 100.824 21.4156C100.197 21.3216 99.6039 20.9491 99.2296 20.402C99.0466 20.1295 98.8955 19.8153 98.8841 19.4658C98.8623 19.1219 99.0845 18.7385 99.4558 18.6593C99.6388 18.6166 99.8392 18.6884 99.9669 18.8194C100.098 18.9487 100.176 19.125 100.192 19.3073C100.219 19.6764 100.051 20.0111 99.8666 20.3075C99.4802 20.899 98.8458 21.3582 98.116 21.4639C97.3909 21.5684 96.628 21.3055 96.1487 20.7719C95.9034 20.5125 95.7518 20.1521 95.7814 19.79C95.7971 19.6111 95.8768 19.424 96.0298 19.3126C96.1779 19.1955 96.3775 19.1668 96.5526 19.2011C96.7291 19.2338 96.8934 19.3274 97.014 19.4549C97.1374 19.5807 97.2236 19.7339 97.2881 19.891C97.4123 20.207 97.4663 20.5426 97.4567 20.8725C97.4419 21.5332 97.1718 22.1703 96.7243 22.6178C96.2799 23.0674 95.6847 23.335 95.0891 23.3842C94.795 23.409 94.4795 23.3868 94.2229 23.2214C93.9723 23.0604 93.8133 22.7314 93.9292 22.4415C93.988 22.3009 94.1105 22.1978 94.2438 22.1447C94.378 22.0924 94.5231 22.0776 94.6616 22.0985C94.9444 22.1434 95.1649 22.3235 95.3435 22.5072C95.6903 22.8898 95.9927 23.2728 96.2908 23.6353C97.4694 25.0921 98.3647 26.316 98.9747 27.1677C99.2793 27.5938 99.5107 27.9281 99.6671 28.1553C99.742 28.2667 99.8004 28.3533 99.8422 28.4151C99.8815 28.4743 99.8989 28.5056 99.8989 28.5056C99.8989 28.5056 99.8754 28.4782 99.8331 28.4212C99.7891 28.3607 99.7281 28.2763 99.6492 28.1675C99.4845 27.9407 99.2466 27.6125 98.9412 27.1917C98.3216 26.3482 97.4175 25.1317 96.2328 23.6828C95.9348 23.3237 95.6263 22.9372 95.2851 22.5642C95.1122 22.3862 94.9 22.22 94.6494 22.1825C94.4059 22.1442 94.1105 22.2374 94.0111 22.4746C93.9144 22.71 94.0503 23.0051 94.273 23.1448C94.5017 23.2924 94.798 23.3159 95.0817 23.2906C95.6546 23.2423 96.2289 22.9825 96.655 22.5486C97.0838 22.1185 97.3426 21.5053 97.3556 20.8694C97.3648 20.5526 97.3116 20.2287 97.1931 19.9293C97.0772 19.6346 96.8524 19.3587 96.5339 19.3034C96.3805 19.2743 96.2145 19.2995 96.0934 19.3957C95.9679 19.4871 95.9008 19.6407 95.8864 19.8C95.8611 20.1243 95.9962 20.4572 96.228 20.701C96.6812 21.2059 97.4118 21.4592 98.1016 21.3586C98.7961 21.2585 99.4074 20.8181 99.7786 20.2496C99.9577 19.9646 100.114 19.642 100.088 19.3165C100.074 19.1576 100.005 19.004 99.8937 18.8939C99.7843 18.7829 99.6261 18.7272 99.4767 18.7611C99.3272 18.7916 99.1939 18.893 99.1076 19.0214C99.0192 19.1489 98.9839 19.3069 98.9874 19.464C98.9961 19.7804 99.1386 20.0842 99.3137 20.345C99.6715 20.8694 100.24 21.228 100.84 21.319C101.437 21.413 102.063 21.2681 102.521 20.9299C102.741 20.7545 102.915 20.509 102.956 20.2435C103.004 19.9776 102.82 19.7134 102.565 19.6621C102.313 19.6033 102.034 19.6869 101.851 19.8575C101.661 20.0303 101.545 20.2662 101.464 20.5034C101.312 20.9852 101.226 21.4705 101.167 21.9318C101.049 22.8576 101.069 23.7072 101.118 24.4466C101.171 25.187 101.256 25.822 101.331 26.3399C101.41 26.8535 101.472 27.2539 101.515 27.5307C101.536 27.6635 101.552 27.7666 101.564 27.8406C101.574 27.9107 101.576 27.9468 101.576 27.9468Z" fill="#263238"/>
<path d="M104.064 28.6808L97.8507 30.6142C97.5932 30.6942 97.3196 30.5506 97.239 30.2934C97.1588 30.0362 97.3026 29.7628 97.5601 29.6823L103.773 27.749C104.031 27.6689 104.305 27.8125 104.385 28.0698C104.465 28.3274 104.322 28.6007 104.064 28.6808Z" fill="#263238"/>
<path d="M104.191 29.0888L97.9776 31.0222C97.7201 31.1022 97.5763 31.376 97.6565 31.6328C97.7367 31.89 98.0107 32.0336 98.2682 31.9536L98.9501 31.7412L100.391 33.1801C100.556 33.3446 100.799 33.4042 101.021 33.335L103.242 32.6443C103.467 32.5742 103.633 32.3844 103.673 32.1529L104.018 30.1647L104.481 30.0207C104.739 29.9406 104.883 29.6668 104.803 29.4096C104.722 29.1524 104.448 29.0087 104.191 29.0888Z" fill="#263238"/>
<g opacity="0.2">
<path d="M90.5659 15.1744C90.9616 14.4893 91.4313 13.9492 91.877 13.5623C92.3227 13.1736 92.7319 12.9255 93.0342 12.7971C93.3366 12.6674 93.524 12.6426 93.5593 12.7035C93.6416 12.8419 93.0852 13.2589 92.4173 14.0837C91.7489 14.8958 90.9969 16.1867 90.786 17.7458C90.5799 19.3056 90.9672 20.7489 91.399 21.7073C91.8273 22.6783 92.2548 23.2263 92.1389 23.3381C92.0888 23.3877 91.9145 23.3146 91.6565 23.1101C91.3986 22.9068 91.0687 22.5604 90.7407 22.0685C90.4121 21.5785 90.1006 20.9339 89.8984 20.1692C89.6954 19.4066 89.6152 18.5209 89.7329 17.6052" fill="white"/>
</g>
<g opacity="0.2">
<path d="M95.6568 12.4409C95.1318 12.5989 94.6255 12.5998 94.4857 12.3395C94.4199 12.2094 94.4708 12.0331 94.6242 11.8599C94.7767 11.6875 95.0325 11.5217 95.3457 11.4259C95.659 11.3306 95.964 11.3245 96.1867 11.3824C96.4106 11.4399 96.5522 11.5578 96.5701 11.7023" fill="white"/>
</g>
<path d="M103.603 32.323C103.6 32.3408 103.422 32.3177 103.135 32.3247C102.849 32.3304 102.453 32.3791 102.04 32.5201C101.627 32.6629 101.285 32.8674 101.055 33.0385C100.825 33.2095 100.699 33.3366 100.686 33.3244C100.677 33.317 100.785 33.1699 101.009 32.9797C101.231 32.7891 101.579 32.5671 102.005 32.42C102.432 32.2747 102.843 32.2363 103.136 32.2498C103.429 32.262 103.605 32.3116 103.603 32.323Z" fill="#455A64"/>
<path d="M104.038 30.1777C104.046 30.2056 102.93 30.5777 101.545 31.009C100.16 31.4404 99.0293 31.7672 99.0206 31.7389C99.0118 31.7111 100.128 31.3389 101.514 30.9076C102.898 30.4763 104.029 30.1494 104.038 30.1777Z" fill="#455A64"/>
<path d="M103.879 31.0427C103.884 31.0562 103.658 31.1537 103.287 31.2952C102.915 31.437 102.398 31.6216 101.822 31.8096C101.245 31.9981 100.718 32.1543 100.335 32.2592C99.9516 32.3641 99.7119 32.4189 99.7076 32.405C99.7036 32.3907 99.9359 32.3106 100.313 32.1874C100.721 32.0551 101.228 31.8906 101.789 31.7086C102.348 31.5245 102.854 31.3583 103.261 31.2242C103.639 31.101 103.874 31.0288 103.879 31.0427Z" fill="#455A64"/>
<path d="M87.3036 83.8255C87.3036 83.8255 87.084 83.8995 86.6945 84.0305C83.9743 84.9471 75.884 87.619 73.4375 88.6187C73.4375 88.6187 77.768 126.881 78.2765 130.437C78.785 133.994 78.9122 148.218 78.9122 148.218H124.984C124.984 148.218 124.861 109.873 124.994 103.925C125.167 96.2302 126.121 88.6183 126.121 88.6183L118.073 85.4759L108.664 80.5225L87.3036 83.8255Z" fill="#F2935C"/>
<g opacity="0.3">
<path d="M97.5522 92.105C93.7915 106.057 89.8287 119.955 85.6655 133.793C85.1749 135.424 84.6873 137.216 85.3505 138.785C85.9422 140.185 87.397 141.109 88.9054 141.31C90.4139 141.511 91.9537 141.066 93.2826 140.325C96.3967 138.588 98.4184 135.318 99.4127 131.897C100.407 128.476 100.495 124.867 100.577 121.305C100.794 111.807 101.012 102.309 101.229 92.8105L97.5522 92.105Z" fill="black"/>
</g>
<path d="M73.4377 88.6201C73.4377 88.6201 66.6807 91.6111 67.2075 103.607C67.5657 111.77 68.8044 119.234 68.8044 119.234L87.8054 113.768L82.9738 92.9385L73.4377 88.6201Z" fill="#F2935C"/>
<path d="M118.501 107.925L117.484 121.769L136.586 115.59C136.586 115.59 132.49 91.1532 126.003 88.6201L119.01 100.559L118.501 107.925Z" fill="#F2935C"/>
<path d="M120.673 103.927C120.681 103.926 120.693 104.023 120.709 104.208C120.724 104.417 120.743 104.686 120.767 105.018C120.807 105.75 120.863 106.761 120.931 107.999C121.055 110.516 121.19 113.996 121.314 117.839C121.437 121.671 121.548 125.138 121.63 127.682C121.668 128.92 121.699 129.932 121.722 130.665C121.728 130.998 121.733 131.267 121.737 131.477C121.738 131.662 121.735 131.76 121.727 131.76C121.719 131.761 121.707 131.664 121.691 131.479C121.677 131.27 121.657 131.002 121.633 130.669C121.593 129.937 121.538 128.926 121.469 127.689C121.345 125.171 121.21 121.691 121.086 117.847C120.963 114.016 120.852 110.549 120.77 108.006C120.732 106.767 120.701 105.755 120.678 105.022C120.672 104.689 120.667 104.42 120.663 104.211C120.662 104.025 120.665 103.927 120.673 103.927Z" fill="#263238"/>
<path d="M82.8907 98.0994C82.8763 98.106 82.7883 97.9488 82.641 97.659C82.4741 97.326 82.268 96.9156 82.0249 96.4307C81.4985 95.4018 80.7644 93.9669 79.645 92.6094C78.5253 91.2532 77.1758 90.3383 76.1092 89.9165C75.0413 89.4804 74.3062 89.46 74.3145 89.4117C74.3154 89.399 74.4967 89.3947 74.8221 89.4317C75.1476 89.4669 75.6156 89.5649 76.1676 89.7668C77.2748 90.1594 78.6769 91.0791 79.8198 92.464C80.9609 93.8485 81.6781 95.3109 82.1691 96.3607C82.4131 96.889 82.5979 97.3212 82.7207 97.622C82.844 97.9236 82.9046 98.0929 82.8907 98.0994Z" fill="#263238"/>
<path d="M122.907 88.0386C122.972 88.0725 122.187 89.4122 121.703 91.2415C121.203 93.0673 121.211 94.6193 121.137 94.6163C121.11 94.6167 121.072 94.2298 121.1 93.6026C121.127 92.9763 121.235 92.1102 121.483 91.1827C121.733 90.2561 122.075 89.4526 122.366 88.8973C122.656 88.3406 122.883 88.0242 122.907 88.0386Z" fill="#263238"/>
<path d="M80.4201 94.0036C80.4188 94.0149 80.3513 93.9988 80.2323 94.0236C80.1142 94.0471 79.9513 94.1399 79.8149 94.3279C79.672 94.5155 79.5783 94.7805 79.5234 95.1183C79.4894 95.285 79.4559 95.4673 79.3853 95.6567C79.3156 95.8438 79.1966 96.0436 78.9984 96.1768C78.5866 96.4496 78.0089 96.3287 77.5858 96.0249C77.1479 95.7015 76.89 95.1975 76.5749 94.7422C76.4168 94.512 76.2403 94.297 76.0098 94.1355C75.7837 93.974 75.5096 93.8574 75.2351 93.8713C74.9628 93.8852 74.707 94.0563 74.5702 94.3013C74.4304 94.5533 74.3925 94.8724 74.3694 95.1914C74.3471 95.513 74.3432 95.8386 74.3044 96.1633C74.2652 96.4849 74.1925 96.8196 73.9968 97.0986C73.955 97.1726 73.8918 97.23 73.8308 97.2884C73.7729 97.3497 73.7045 97.4002 73.6313 97.442C73.4853 97.5264 73.3228 97.5739 73.1624 97.5904C72.84 97.6226 72.5298 97.5465 72.2601 97.4194C71.7115 97.1508 71.3712 96.6916 71.0558 96.3047C70.7455 95.9082 70.4445 95.557 70.095 95.3281C69.7547 95.0956 69.3691 94.9942 69.0558 95.0556C68.7399 95.1209 68.5103 95.3207 68.3822 95.5069C68.2524 95.6989 68.2271 95.8847 68.238 96.0053C68.2459 96.1276 68.2785 96.1885 68.2659 96.1933C68.2659 96.1933 68.2167 96.1402 68.1927 96.0114C68.1652 95.8847 68.1774 95.6771 68.3073 95.4599C68.4363 95.2493 68.6729 95.0199 69.0284 94.932C69.3857 94.8497 69.8101 94.9542 70.1822 95.194C70.5608 95.429 70.8863 95.7964 71.2017 96.1868C71.5207 96.5693 71.8614 97.0011 72.3485 97.2305C72.5908 97.3428 72.8683 97.405 73.1385 97.3754C73.4121 97.3523 73.6557 97.2009 73.8147 96.9711C74.1336 96.4958 74.0953 95.8247 74.1432 95.1757C74.1689 94.8475 74.2025 94.5037 74.3728 94.193C74.5432 93.8848 74.8757 93.6641 75.2234 93.6502C75.9314 93.6437 76.4412 94.1547 76.7475 94.6247C77.0655 95.1004 77.3143 95.5853 77.6969 95.8738C78.0738 96.155 78.5792 96.2577 78.9108 96.0431C79.245 95.8251 79.3204 95.4125 79.3997 95.0922C79.4646 94.7596 79.5818 94.4615 79.7456 94.2743C79.9029 94.0798 80.0933 93.9888 80.2249 93.9793C80.3574 93.9671 80.4201 94.0036 80.4201 94.0036Z" fill="#FAFAFA"/>
<path d="M84.2826 100.42C84.2878 100.42 84.3005 100.505 84.2913 100.67C84.2774 100.833 84.2207 101.078 84.0543 101.347C83.8913 101.616 83.6081 101.902 83.1977 102.095C82.7955 102.281 82.2178 102.355 81.7019 102.073C81.1908 101.826 80.766 101.34 80.1738 101.176C79.5743 100.998 78.9229 101.412 78.5438 101.99C78.1482 102.573 77.9879 103.339 77.587 104.051C77.3835 104.408 77.0951 104.735 76.7191 104.954C76.3513 105.178 75.8468 105.258 75.4237 105.057C75.0041 104.855 74.7314 104.486 74.5174 104.136C74.3013 103.78 74.1222 103.42 73.9044 103.102C73.6926 102.782 73.4129 102.524 73.0761 102.432C72.7406 102.334 72.3829 102.428 72.101 102.624C71.5202 103.019 71.1916 103.643 70.9267 104.224C70.6557 104.808 70.413 105.369 70.1067 105.838C69.5194 106.813 68.5835 107.234 67.9621 107.247C67.6458 107.263 67.4035 107.192 67.255 107.123C67.1774 107.095 67.1269 107.056 67.0907 107.035C67.0554 107.012 67.0384 106.999 67.0402 106.996C67.0489 106.96 67.3447 107.209 67.956 107.159C68.549 107.117 69.4222 106.701 69.9712 105.752C70.2596 105.292 70.4901 104.738 70.7559 104.146C71.0156 103.562 71.3481 102.892 71.9846 102.45C72.2935 102.23 72.728 102.106 73.1319 102.224C73.5397 102.331 73.8639 102.641 74.0865 102.976C74.3183 103.311 74.4996 103.675 74.7096 104.018C74.9165 104.359 75.1701 104.684 75.5169 104.851C75.8686 105.016 76.276 104.956 76.6062 104.76C76.9395 104.566 77.2058 104.27 77.3944 103.941C77.7774 103.274 77.9417 102.503 78.3713 101.873C78.5861 101.564 78.8558 101.296 79.1796 101.124C79.4998 100.947 79.8885 100.897 80.2213 100.995C80.5573 101.087 80.8265 101.277 81.0701 101.454C81.3145 101.632 81.5389 101.808 81.7751 101.932C82.2417 102.198 82.7602 102.142 83.1463 101.98C83.5358 101.81 83.8147 101.549 83.9802 101.3C84.3192 100.789 84.2486 100.411 84.2826 100.42Z" fill="#FAFAFA"/>
<path d="M82.0637 109.718C82.0602 109.729 82.0075 109.704 81.9038 109.695C81.8014 109.685 81.6428 109.71 81.4837 109.829C81.3277 109.949 81.1744 110.152 81.0816 110.423C80.9748 110.692 81.0014 111.022 81.0397 111.398C81.0689 111.766 81.1417 112.21 80.9456 112.659C80.7526 113.116 80.2149 113.396 79.6799 113.384C79.137 113.4 78.574 113.124 78.1828 112.689C77.7784 112.26 77.5009 111.715 77.232 111.167L77.3113 111.227C76.8726 111.146 76.416 111.422 76.1271 111.813C75.8208 112.204 75.7088 112.72 75.6278 113.249C75.5676 113.641 75.5219 114.039 75.4156 114.426C75.3066 114.816 75.1206 115.181 74.8483 115.475C74.5812 115.768 74.1899 115.974 73.7886 115.961C73.386 115.954 73.0348 115.755 72.7629 115.524C72.2061 115.049 71.9303 114.419 71.5504 113.957C71.1891 113.473 70.6802 113.187 70.1713 113.17C69.6676 113.141 69.2114 113.321 68.9165 113.589C68.6167 113.858 68.4598 114.188 68.384 114.461C68.2389 115.022 68.3762 115.349 68.3453 115.35C68.3413 115.351 68.3331 115.333 68.3204 115.294C68.3065 115.256 68.2908 115.199 68.2773 115.122C68.2503 114.969 68.2324 114.733 68.2982 114.439C68.3644 114.15 68.5161 113.795 68.8306 113.495C69.1417 113.196 69.6315 112.988 70.1792 113.01C70.4515 113.021 70.7391 113.088 71.0031 113.234C71.2689 113.377 71.4981 113.595 71.6968 113.838C72.1002 114.323 72.3813 114.936 72.8976 115.364C73.1499 115.575 73.4596 115.741 73.7921 115.744C74.1241 115.752 74.447 115.585 74.6857 115.323C74.9263 115.063 75.0992 114.725 75.1981 114.366C75.2975 114.001 75.3428 113.612 75.4038 113.214C75.4848 112.682 75.6047 112.115 75.948 111.677C76.2652 111.247 76.7989 110.911 77.3493 111.011L77.405 111.021L77.429 111.071C77.6939 111.619 77.9601 112.145 78.334 112.548C78.6995 112.957 79.188 113.2 79.6812 113.195C80.167 113.21 80.6245 112.974 80.7966 112.588C80.9757 112.205 80.9251 111.779 80.9025 111.409C80.8733 111.039 80.855 110.673 80.9809 110.386C81.0912 110.1 81.2637 109.89 81.441 109.768C81.6219 109.647 81.8022 109.632 81.9094 109.657C82.0179 109.679 82.0637 109.718 82.0637 109.718Z" fill="#FAFAFA"/>
<path d="M134.957 107.873C134.959 107.887 134.876 107.884 134.738 107.936C134.599 107.983 134.408 108.1 134.247 108.33C134.085 108.558 133.949 108.88 133.859 109.271C133.773 109.658 133.723 110.141 133.489 110.618C133.374 110.854 133.207 111.103 132.935 111.254C132.67 111.407 132.312 111.425 132.013 111.281C131.713 111.137 131.491 110.879 131.31 110.604C131.129 110.328 130.985 110.019 130.85 109.711C130.715 109.414 130.526 109.127 130.287 108.889C130.05 108.657 129.729 108.472 129.417 108.552C129.092 108.622 128.885 108.927 128.824 109.282C128.752 109.638 128.771 110.021 128.766 110.417C128.753 111.212 128.524 112.029 127.971 112.59C127.432 113.141 126.581 113.388 125.902 113.085C125.237 112.784 124.838 112.235 124.393 111.851C123.968 111.444 123.429 111.216 122.951 111.351C122.476 111.472 122.128 111.809 121.912 112.133C121.694 112.466 121.585 112.802 121.505 113.073C121.356 113.623 121.305 113.939 121.285 113.935C121.278 113.934 121.284 113.854 121.303 113.704C121.323 113.554 121.354 113.333 121.42 113.051C121.488 112.772 121.586 112.424 121.805 112.066C122.025 111.716 122.382 111.344 122.911 111.196C123.172 111.121 123.474 111.134 123.753 111.232C124.035 111.329 124.287 111.509 124.517 111.71C124.98 112.106 125.388 112.635 125.982 112.893C126.571 113.152 127.326 112.934 127.813 112.435C128.307 111.931 128.527 111.171 128.539 110.413C128.545 110.03 128.523 109.632 128.603 109.238C128.644 109.042 128.713 108.843 128.842 108.673C128.972 108.503 129.162 108.387 129.365 108.337C129.797 108.235 130.183 108.483 130.439 108.735C130.701 109.001 130.898 109.306 131.041 109.626C131.175 109.94 131.309 110.233 131.478 110.497C131.645 110.758 131.847 110.991 132.095 111.113C132.338 111.234 132.631 111.223 132.852 111.101C133.077 110.983 133.234 110.766 133.346 110.548C133.575 110.101 133.635 109.645 133.736 109.242C133.841 108.842 133.994 108.511 134.177 108.278C134.358 108.042 134.575 107.928 134.724 107.892C134.875 107.852 134.957 107.873 134.957 107.873Z" fill="#FAFAFA"/>
<path d="M132.691 97.6454C132.697 97.6498 132.67 97.705 132.61 97.8051C132.551 97.9057 132.461 98.0519 132.334 98.2343C132.207 98.4162 132.042 98.6356 131.814 98.8593C131.586 99.0804 131.282 99.3098 130.885 99.4299C130.5 99.5504 130.001 99.5757 129.564 99.3132C129.127 99.046 128.919 98.5355 128.527 98.2635C128.335 98.1346 128.081 98.0928 127.868 98.196C127.651 98.2944 127.48 98.5072 127.361 98.7444C127.243 98.9846 127.168 99.2562 127.153 99.5317C127.139 99.8164 127.151 100.116 127.139 100.422C127.125 100.727 127.094 101.042 126.968 101.334C126.847 101.626 126.616 101.876 126.334 102.008C125.754 102.27 125.139 102.121 124.656 101.911C124.158 101.684 123.779 101.351 123.403 101.086C123.032 100.813 122.667 100.59 122.3 100.483C121.939 100.363 121.584 100.425 121.305 100.533C121.027 100.649 120.814 100.818 120.699 100.995C120.461 101.36 120.584 101.632 120.55 101.627C120.545 101.629 120.52 101.572 120.503 101.453C120.488 101.335 120.507 101.148 120.624 100.948C120.739 100.747 120.96 100.553 121.255 100.417C121.548 100.288 121.942 100.208 122.344 100.329C122.742 100.434 123.131 100.663 123.512 100.932C123.896 101.195 124.281 101.519 124.741 101.72C125.194 101.915 125.762 102.031 126.237 101.808C126.469 101.697 126.657 101.495 126.76 101.245C126.868 100.996 126.9 100.707 126.913 100.414C126.924 100.118 126.913 99.8216 126.927 99.5204C126.946 99.2101 127.029 98.9141 127.162 98.6451C127.298 98.381 127.492 98.129 127.779 97.9993C128.066 97.8635 128.41 97.9266 128.644 98.0911C129.106 98.4354 129.29 98.9289 129.665 99.1552C130.031 99.3864 130.481 99.3811 130.84 99.2775C131.207 99.1766 131.499 98.9733 131.727 98.7679C131.955 98.5612 132.127 98.3544 132.263 98.1825C132.534 97.8356 132.676 97.635 132.691 97.6454Z" fill="#FAFAFA"/>
<path d="M121.555 122.692C121.555 122.692 121.513 122.81 121.33 122.948C121.151 123.091 120.798 123.181 120.374 123.103C120.163 123.065 119.932 122.993 119.7 122.873C119.465 122.753 119.241 122.584 118.995 122.416C118.75 122.249 118.486 122.068 118.181 121.95C117.876 121.823 117.523 121.803 117.187 121.924C116.852 122.049 116.586 122.341 116.375 122.678C116.161 123.018 115.99 123.406 115.808 123.81C115.624 124.212 115.441 124.64 115.145 125.032C114.99 125.22 114.814 125.409 114.582 125.53C114.466 125.592 114.348 125.65 114.215 125.668C114.15 125.681 114.085 125.7 114.019 125.707L113.819 125.706C113.552 125.696 113.281 125.601 113.064 125.441C112.836 125.292 112.657 125.09 112.487 124.887C112.153 124.473 111.878 124.015 111.551 123.595C111.227 123.181 110.835 122.784 110.325 122.65C109.817 122.519 109.255 122.672 108.794 122.969C108.321 123.263 107.958 123.688 107.666 124.155C107.37 124.619 107.126 125.113 106.85 125.584C106.577 126.055 106.258 126.509 105.849 126.86C105.447 127.21 104.96 127.478 104.433 127.535C103.909 127.593 103.382 127.415 103.002 127.107C102.616 126.803 102.334 126.425 102.077 126.064C101.572 125.339 101.129 124.629 100.505 124.236C100.201 124.037 99.8614 123.943 99.5333 123.942C99.2052 123.944 98.9002 124.031 98.6349 124.148C98.1003 124.388 97.7356 124.77 97.5256 125.122C97.3125 125.477 97.2511 125.801 97.2362 126.018C97.2323 126.236 97.2441 126.353 97.2332 126.354C97.2293 126.355 97.2232 126.326 97.2149 126.27C97.2097 126.214 97.1892 126.129 97.1905 126.017C97.1905 125.795 97.2393 125.455 97.4489 125.078C97.6558 124.706 98.0249 124.297 98.5813 124.033C98.858 123.904 99.1791 123.807 99.532 123.798C99.8832 123.792 100.262 123.891 100.59 124.101C101.263 124.514 101.723 125.245 102.23 125.956C102.486 126.31 102.764 126.672 103.123 126.95C103.476 127.231 103.943 127.381 104.409 127.328C104.879 127.276 105.328 127.03 105.706 126.698C106.089 126.366 106.39 125.938 106.657 125.473C106.927 125.011 107.17 124.513 107.475 124.034C107.773 123.555 108.164 123.093 108.672 122.778C109.167 122.46 109.792 122.282 110.38 122.433C110.972 122.591 111.393 123.033 111.726 123.46C112.063 123.896 112.335 124.354 112.654 124.752C112.967 125.143 113.362 125.49 113.829 125.499C114.295 125.524 114.716 125.276 114.986 124.911C115.264 124.551 115.449 124.132 115.636 123.733C115.821 123.333 115.999 122.939 116.227 122.585C116.451 122.236 116.746 121.914 117.13 121.776C117.51 121.642 117.911 121.676 118.232 121.817C118.558 121.95 118.823 122.141 119.068 122.314C119.311 122.488 119.53 122.66 119.75 122.779C119.969 122.9 120.189 122.975 120.39 123.018C120.794 123.105 121.127 123.034 121.304 122.912C121.486 122.792 121.543 122.682 121.555 122.692Z" fill="#FAFAFA"/>
<path d="M120.726 108.208C120.73 108.21 120.718 108.233 120.691 108.278C120.661 108.32 120.608 108.382 120.514 108.428C120.329 108.528 119.995 108.524 119.648 108.35C119.287 108.183 119.004 107.773 118.525 107.581C118.293 107.487 117.996 107.521 117.792 107.708C117.588 107.9 117.482 108.207 117.389 108.526C117.293 108.846 117.213 109.198 117.034 109.541C116.941 109.708 116.825 109.879 116.656 110.003C116.489 110.129 116.283 110.206 116.072 110.23C115.207 110.316 114.39 109.741 113.832 109.06C113.532 108.729 113.236 108.382 112.872 108.115C112.512 107.85 112.069 107.684 111.605 107.709C110.671 107.75 109.784 108.36 109.171 109.14C108.55 109.942 108.132 110.866 107.583 111.682C107.057 112.509 106.297 113.195 105.415 113.482C104.977 113.628 104.508 113.672 104.073 113.565C103.636 113.463 103.268 113.199 102.989 112.91C102.426 112.329 102.058 111.662 101.497 111.318C101.224 111.147 100.914 111.074 100.626 111.095C100.337 111.114 100.077 111.231 99.8637 111.378C99.4354 111.679 99.1635 112.063 98.9609 112.374C98.564 113.011 98.4215 113.409 98.3993 113.398C98.3927 113.395 98.4241 113.295 98.4986 113.11C98.5736 112.925 98.6938 112.656 98.886 112.327C99.0807 112.004 99.3448 111.604 99.7909 111.274C100.013 111.113 100.293 110.979 100.614 110.951C100.932 110.921 101.278 110.998 101.58 111.181C102.195 111.551 102.576 112.23 103.122 112.777C103.394 113.051 103.726 113.282 104.119 113.371C104.511 113.465 104.941 113.423 105.348 113.284C106.176 113.005 106.886 112.369 107.398 111.559C107.933 110.762 108.349 109.833 108.992 109C109.639 108.182 110.563 107.534 111.598 107.487C112.111 107.46 112.615 107.651 113 107.941C113.391 108.231 113.691 108.59 113.988 108.92C114.285 109.253 114.575 109.564 114.935 109.76C115.287 109.96 115.682 110.082 116.05 110.044C116.425 110.014 116.72 109.769 116.88 109.457C117.048 109.146 117.134 108.802 117.235 108.479C117.336 108.159 117.447 107.829 117.694 107.601C117.948 107.376 118.308 107.349 118.57 107.462C119.093 107.691 119.36 108.111 119.688 108.271C120.012 108.447 120.321 108.463 120.495 108.385C120.674 108.311 120.713 108.196 120.726 108.208Z" fill="#FAFAFA"/>
<path d="M120.95 93.1859C120.941 93.1951 120.881 93.1176 120.727 93.0366C120.575 92.9557 120.309 92.8978 119.989 92.9836C119.668 93.0619 119.316 93.2987 119.09 93.7161C118.85 94.1234 118.732 94.6575 118.549 95.242C118.452 95.5327 118.33 95.8378 118.133 96.1216C117.939 96.4058 117.64 96.6526 117.275 96.764C116.908 96.8724 116.505 96.8437 116.13 96.7322C115.752 96.6213 115.391 96.4398 115.049 96.2165C114.376 95.7804 113.725 95.1963 112.894 95.0496C112.486 94.9835 112.054 95.0509 111.671 95.249C111.284 95.4405 110.942 95.7373 110.637 96.0716C110.017 96.7366 109.6 97.5518 109.016 98.2251C108.73 98.5629 108.411 98.8719 108.043 99.106C107.677 99.3415 107.252 99.4838 106.831 99.4964C105.968 99.5138 105.263 99.0512 104.706 98.6164C104.143 98.1642 103.675 97.6963 103.177 97.3629C102.686 97.0291 102.167 96.8176 101.701 96.8254C101.233 96.8311 100.836 96.9869 100.576 97.1862C100.305 97.3803 100.18 97.6197 100.121 97.7807C100.062 97.9457 100.063 98.0423 100.049 98.0406C100.049 98.0406 100.03 97.9435 100.078 97.7672C100.124 97.5949 100.244 97.3324 100.521 97.1166C100.789 96.895 101.201 96.717 101.699 96.6987C102.204 96.6787 102.752 96.8933 103.265 97.2297C103.784 97.5649 104.268 98.0345 104.822 98.4684C105.372 98.8902 106.049 99.3119 106.824 99.288C107.602 99.2662 108.307 98.7391 108.846 98.0815C109.408 97.4334 109.824 96.6147 110.469 95.9188C110.787 95.5719 111.147 95.2564 111.57 95.0474C111.988 94.8316 112.477 94.7545 112.93 94.8311C113.851 95.0026 114.508 95.6167 115.163 96.0428C115.809 96.4702 116.564 96.7675 117.221 96.5847C117.543 96.4898 117.807 96.28 117.99 96.0206C118.175 95.7621 118.298 95.4727 118.397 95.1911C118.586 94.6253 118.718 94.0756 118.981 93.6521C119.11 93.4414 119.263 93.2617 119.438 93.135C119.613 93.0105 119.798 92.937 119.968 92.8982C120.313 92.8199 120.596 92.8978 120.749 92.997C120.905 93.0958 120.95 93.1859 120.95 93.1859Z" fill="#FAFAFA"/>
<path d="M118.712 86.1235C118.719 86.1253 118.712 86.1818 118.686 86.2867C118.66 86.3912 118.615 86.5448 118.53 86.7333C118.441 86.9174 118.321 87.1542 118.069 87.3387C117.825 87.5311 117.378 87.5502 117.076 87.2743C116.781 87.0079 116.629 86.621 116.405 86.2719C116.295 86.0961 116.164 85.9303 115.99 85.8171C115.816 85.7031 115.602 85.6356 115.378 85.6239C114.925 85.5947 114.45 85.7684 114.082 86.1087C113.707 86.4434 113.426 86.9004 113.179 87.3896C113.051 87.6373 112.917 87.8884 112.722 88.1043C112.535 88.3193 112.238 88.4912 111.931 88.4581C111.623 88.432 111.379 88.2436 111.208 88.0403C111.033 87.8331 110.928 87.5863 110.85 87.3574C110.694 86.8987 110.589 86.4517 110.291 86.1801C110.149 86.0434 109.976 85.9468 109.803 85.9246C109.631 85.9011 109.462 85.9594 109.339 86.0669C109.089 86.2876 108.988 86.6171 108.885 86.8795C108.787 87.1559 108.655 87.3827 108.51 87.5359C108.365 87.6912 108.204 87.7613 108.094 87.7761C107.982 87.7896 107.926 87.7691 107.927 87.7648C107.917 87.7417 108.187 87.7926 108.444 87.4775C108.569 87.3261 108.682 87.1093 108.765 86.8377C108.861 86.5701 108.94 86.2258 109.234 85.9459C109.379 85.8097 109.6 85.7248 109.823 85.7509C110.046 85.7749 110.252 85.8889 110.42 86.043C110.774 86.3599 110.89 86.8517 111.047 87.2878C111.126 87.5102 111.221 87.7234 111.374 87.901C111.524 88.0769 111.725 88.2209 111.948 88.2366C112.173 88.2584 112.39 88.1387 112.555 87.9519C112.723 87.7657 112.852 87.5298 112.977 87.286C113.228 86.7894 113.524 86.3054 113.935 85.9425C114.337 85.5734 114.883 85.3736 115.392 85.4154C115.647 85.4319 115.897 85.5124 116.1 85.6513C116.308 85.7914 116.452 85.986 116.564 86.1723C116.79 86.5453 116.935 86.9222 117.183 87.1546C117.426 87.3874 117.781 87.3857 117.998 87.2334C118.223 87.0841 118.354 86.8656 118.45 86.6941C118.636 86.3385 118.691 86.1166 118.712 86.1235Z" fill="#FAFAFA"/>
<path d="M90.3006 86.1582C90.308 86.1573 90.3233 86.2283 90.3425 86.3641C90.3608 86.5003 90.3873 86.7014 90.3961 86.9643C90.4026 87.2254 90.3982 87.5549 90.2828 87.9196C90.176 88.2839 89.9015 88.6774 89.4549 88.8932C89.2353 88.999 88.9617 89.0599 88.6885 88.9907C88.4131 88.9276 88.177 88.7305 88.0101 88.5024C87.8371 88.2743 87.7103 88.0171 87.5552 87.7795C87.4036 87.5423 87.2114 87.322 86.9513 87.2267C86.4215 87.0326 85.7422 87.3316 85.4529 87.8891C85.2987 88.1646 85.2128 88.4859 85.1819 88.8175C85.1488 89.1487 85.181 89.4939 85.2002 89.8508C85.2185 90.2068 85.2255 90.5767 85.1226 90.9314C85.0246 91.2796 84.8281 91.6191 84.5087 91.8189C84.1898 92.0208 83.785 92.0239 83.4647 91.9029C83.1393 91.7854 82.8691 91.5843 82.6421 91.361C82.1977 90.8979 81.9241 90.3757 81.5411 90.0057C81.1729 89.6223 80.6853 89.4486 80.2378 89.4778C79.7904 89.4978 79.4056 89.6888 79.1564 89.9408C78.9028 90.1929 78.7717 90.4871 78.7081 90.7308C78.5843 91.2292 78.6937 91.5199 78.6658 91.5212C78.661 91.5225 78.6292 91.4555 78.6065 91.3184C78.5848 91.1821 78.5656 90.9724 78.6222 90.7108C78.6758 90.4518 78.8009 90.1341 79.0658 89.8529C79.3263 89.5713 79.7416 89.3502 80.2287 89.3185C80.7119 89.2728 81.2727 89.4638 81.6727 89.8721C82.0848 90.2621 82.3737 90.7926 82.7894 91.2135C83.0011 91.4189 83.253 91.6 83.5366 91.6992C83.8177 91.8015 84.1366 91.7923 84.3915 91.6313C84.6455 91.472 84.8194 91.1834 84.9056 90.8709C84.9963 90.558 84.9919 90.2138 84.9736 89.8634C84.9178 89.1709 84.8965 88.404 85.2594 87.7803C85.5936 87.1501 86.3753 86.7889 87.0249 87.0317C87.3504 87.1558 87.567 87.4221 87.723 87.672C87.8833 87.9248 88.0053 88.1795 88.1613 88.3905C88.3125 88.6025 88.5081 88.7657 88.7316 88.8219C88.9538 88.8832 89.1896 88.8384 89.3874 88.7487C89.7913 88.5633 90.0518 88.2173 90.1625 87.88C90.2828 87.541 90.3011 87.2219 90.3076 86.9656C90.3107 86.4481 90.2802 86.1591 90.3006 86.1582Z" fill="#FAFAFA"/>
<path d="M113.64 36.0399C110.689 35.4049 107.911 38.2292 104.911 37.901C103.089 37.7021 101.614 36.3864 99.9448 35.6312C97.4482 34.5027 94.0588 34.5732 91.7286 36.0138C89.3984 37.454 87.9409 38.906 87.8386 41.6414C85.5149 40.5586 82.0536 43.6579 81.0223 46.4525C79.9909 49.2476 80.5425 52.0005 81.5016 54.8213C83.1525 59.6781 85.7694 64.205 89.1553 68.0607C89.455 68.4024 89.9186 68.7689 90.3125 68.5417C90.5853 68.3846 90.648 68.0251 90.6716 67.7113C90.872 65.0402 90.3095 62.38 89.8559 59.7403C89.4023 57.1006 89.0581 54.3691 89.6838 51.7646C90.3095 49.1601 92.0976 46.6819 94.6749 45.9429C96.5785 45.3971 98.6429 45.8567 100.445 46.6758C102.248 47.4954 103.87 48.6583 105.602 49.6185C107.334 50.5781 109.252 51.3485 111.231 51.2676C113.21 51.1866 115.246 50.0789 115.935 48.2244C116.623 46.3694 115.466 43.9147 113.501 43.6692C115.26 43.3567 116.679 41.695 116.711 39.9109C116.744 38.1278 115.386 36.416 113.64 36.0399Z" fill="#263238"/>
<path d="M108.685 82.9592L107.924 77.2802C107.924 77.2802 115.325 75.2041 114.513 67.6606C114.121 64.0177 112.701 56.5834 111.339 49.8685C109.874 42.6471 103.104 37.7602 95.781 38.6385L95.0534 38.7256C87.2628 40.1244 84.1 47.5152 85.7156 55.2555L90.1063 85.5467C90.8452 90.6446 95.5653 94.1905 100.674 93.485C105.79 92.7781 109.372 88.0728 108.685 82.9592Z" fill="#FEE6D8"/>
<path d="M107.932 77.2953C107.932 77.2953 103.213 78.2541 97.7656 75.6836C97.7656 75.6836 100.741 80.8259 108.184 79.2451L107.932 77.2953Z" fill="#F2935C"/>
<path d="M109.021 54.4663C109.113 55.0547 108.71 55.6149 108.12 55.718C107.531 55.8207 106.979 55.4286 106.886 54.8397C106.794 54.2513 107.197 53.6903 107.786 53.5871C108.375 53.4844 108.928 53.8778 109.021 54.4663Z" fill="#263238"/>
<path d="M110.161 54.2475C110.044 54.4037 109.156 53.8984 107.997 54.0407C106.838 54.1661 106.059 54.8638 105.917 54.7367C105.847 54.6814 105.953 54.4115 106.291 54.0982C106.623 53.7865 107.213 53.451 107.935 53.3674C108.658 53.2847 109.296 53.4775 109.678 53.7073C110.068 53.9376 110.219 54.177 110.161 54.2475Z" fill="#263238"/>
<path d="M97.9915 55.3727C98.0857 55.9737 97.6839 56.5435 97.0944 56.6466C96.5062 56.7498 95.9515 56.348 95.8574 55.747C95.7633 55.1463 96.165 54.5757 96.7537 54.4722C97.3428 54.369 97.8974 54.772 97.9915 55.3727Z" fill="#263238"/>
<path d="M99.038 55.1437C98.9212 55.3 98.0319 54.7951 96.8742 54.937C95.7152 55.0624 94.9362 55.7596 94.7937 55.633C94.7244 55.5777 94.829 55.3083 95.168 54.9945C95.5 54.6824 96.0904 54.3473 96.8128 54.2633C97.5352 54.181 98.1739 54.3734 98.5561 54.6032C98.9439 54.8343 99.0955 55.0732 99.038 55.1437Z" fill="#263238"/>
<path d="M104.034 63.4082C104.02 63.343 104.726 63.1323 105.875 62.8433C106.168 62.7776 106.44 62.6849 106.466 62.4773C106.51 62.2553 106.348 61.9515 106.163 61.6246C105.799 60.9426 105.418 60.228 105.018 59.4789C103.417 56.4201 102.221 53.8905 102.345 53.8274C102.469 53.7643 103.867 56.192 105.467 59.2509C105.854 60.006 106.225 60.7259 106.578 61.4144C106.73 61.7369 106.969 62.0947 106.87 62.5561C106.817 62.7863 106.62 62.973 106.436 63.0466C106.254 63.1271 106.087 63.1506 105.942 63.1767C104.774 63.3808 104.046 63.4735 104.034 63.4082Z" fill="#263238"/>
<path d="M100.717 64.6235C100.904 64.5899 101.058 65.846 102.242 66.6086C103.424 67.3742 104.748 67.0725 104.779 67.2471C104.806 67.3237 104.509 67.5269 103.945 67.6101C103.392 67.6958 102.561 67.6148 101.836 67.1483C101.114 66.68 100.743 65.9844 100.638 65.4739C100.527 64.9547 100.63 64.6265 100.717 64.6235Z" fill="#263238"/>
<path d="M98.4541 49.8836C98.3774 50.2122 97.2027 50.2017 95.8629 50.5281C94.5161 50.828 93.4678 51.3573 93.2534 51.0966C93.1567 50.9708 93.3122 50.6522 93.7192 50.294C94.1218 49.9371 94.7884 49.5637 95.5936 49.3752C96.3992 49.1885 97.1618 49.2281 97.6811 49.37C98.2044 49.511 98.4854 49.7282 98.4541 49.8836Z" fill="#263238"/>
<path d="M109.332 50.4599C109.16 50.7472 108.329 50.57 107.368 50.6723C106.402 50.7411 105.616 51.0619 105.396 50.809C105.298 50.6854 105.394 50.4068 105.719 50.1152C106.039 49.8253 106.601 49.5524 107.263 49.4933C107.925 49.4349 108.525 49.6047 108.891 49.834C109.262 50.0634 109.407 50.3211 109.332 50.4599Z" fill="#263238"/>
<path d="M87.0019 60.8138C86.8668 60.7738 81.6365 59.9046 82.4203 65.0343C83.2042 70.164 88.1983 68.3199 88.1848 68.1715C88.1709 68.0231 87.0019 60.8138 87.0019 60.8138Z" fill="#FEE6D8"/>
<path d="M86.3179 66.4353C86.2927 66.4222 86.2377 66.5114 86.0974 66.6037C85.9606 66.6934 85.714 66.7787 85.4308 66.7195C84.8578 66.6033 84.2696 65.8124 84.1032 64.8915C84.0187 64.4266 84.0487 63.967 84.1581 63.574C84.2574 63.1749 84.4605 62.8755 84.7263 62.7854C84.9886 62.6813 85.2069 62.815 85.2918 62.9499C85.3824 63.0826 85.3655 63.1901 85.3942 63.1949C85.4108 63.2054 85.4914 63.0922 85.4173 62.8863C85.3807 62.7875 85.3018 62.6761 85.1663 62.5956C85.0278 62.5142 84.8387 62.4912 84.6518 62.5403C84.26 62.6283 83.959 63.0465 83.8387 63.4783C83.6967 63.9153 83.6522 64.4332 83.7468 64.9555C83.9376 65.9844 84.6152 66.8709 85.3903 66.9719C85.7659 67.0111 86.0508 66.8561 86.1876 66.7116C86.3275 66.5606 86.3371 66.4418 86.3179 66.4353Z" fill="#F2935C"/>
<path d="M112.745 48.1193C109.529 49.401 105.697 49.0089 102.808 47.1025C100.787 45.769 99.103 43.7051 96.7192 43.2742C95.1145 42.9839 93.4357 43.524 92.112 44.4759C90.7887 45.4277 89.7844 46.76 88.953 48.1619C90.8702 51.8153 90.4053 56.2055 89.8907 60.2985C89.8336 60.7507 89.7596 61.2399 89.4336 61.5585C88.8799 62.0999 87.923 61.8436 87.3248 61.3518C86.3667 60.5644 85.8856 59.3466 85.5227 58.1619C84.6957 55.4621 84.2822 52.6113 84.5685 49.8027C84.8543 46.9942 85.8656 44.2274 87.6612 42.0473C89.9051 39.3227 93.3071 37.6414 96.8198 37.2744C100.333 36.908 103.928 37.8107 106.98 39.5856C108.396 40.409 109.735 41.4492 110.584 42.849" fill="#263238"/>
<path d="M116.024 37.5963C116.024 37.5963 116.073 37.7508 116.031 38.0485C115.99 38.3414 115.839 38.7832 115.438 39.1967C115.042 39.6132 114.385 39.9388 113.589 40.0698C113.191 40.1359 112.76 40.1751 112.3 40.1442C111.844 40.1094 111.347 39.9953 110.914 39.6937C110.492 39.3986 110.122 38.9129 110.095 38.3171C110.063 37.7117 110.484 37.1476 111.032 36.8712C111.307 36.7285 111.62 36.6427 111.945 36.6418C112.269 36.6414 112.603 36.7476 112.878 36.933C113.443 37.3008 113.78 37.9597 113.862 38.6413C113.95 39.3334 113.718 40.0632 113.276 40.6282C112.836 41.1996 112.22 41.6327 111.536 41.9108C110.153 42.4753 108.548 42.3926 107.073 41.9609C105.582 41.5361 104.244 40.8219 102.985 40.1246C101.724 39.4295 100.503 38.7645 99.2617 38.334C98.0269 37.8953 96.765 37.7308 95.6161 37.8979C94.4658 38.0642 93.4506 38.5151 92.6266 39.0592C90.9675 40.169 90.0851 41.5988 89.5797 42.5746C89.3253 43.0707 89.1627 43.4733 89.0564 43.7471C88.9497 44.0213 88.8974 44.1671 88.8874 44.164C88.883 44.1627 88.8913 44.1249 88.9109 44.0518C88.9314 43.9791 88.9597 43.8698 89.0076 43.7301C89.0991 43.4494 89.2468 43.0381 89.49 42.5306C89.9732 41.533 90.8411 40.065 92.5256 38.9086C93.3617 38.3423 94.3987 37.8683 95.5851 37.6877C96.772 37.5049 98.0778 37.669 99.3397 38.1108C100.608 38.5443 101.844 39.2128 103.106 39.9044C104.366 40.5982 105.686 41.2989 107.144 41.7141C108.586 42.1363 110.126 42.2111 111.442 41.678C112.091 41.4164 112.672 41.0073 113.082 40.4793C113.493 39.9523 113.703 39.299 113.627 38.6683C113.555 38.0446 113.248 37.4466 112.753 37.1219C112.267 36.7746 111.621 36.8024 111.13 37.0618C110.634 37.3086 110.27 37.7996 110.293 38.311C110.31 38.8241 110.634 39.2711 111.019 39.5466C111.41 39.8265 111.877 39.9436 112.314 39.9823C112.755 40.0184 113.179 39.9866 113.567 39.9292C114.343 39.8147 114.979 39.5148 115.368 39.1275C115.763 38.7414 115.926 38.3227 115.981 38.0411C116.037 37.7534 116.008 37.5963 116.024 37.5963Z" fill="#455A64"/>
<path d="M80.6379 51.001C80.6518 50.9449 81.2505 51.2256 82.2613 51.2208C82.7624 51.2117 83.3593 51.1029 83.9671 50.8343C84.5763 50.5745 85.2015 50.1658 85.7884 49.6731C86.9592 48.6647 87.5243 47.3093 87.7164 46.3296C87.916 45.3355 87.8167 44.6953 87.8672 44.6931C87.8824 44.691 87.9191 44.8472 87.9474 45.1358C87.9731 45.4239 87.9753 45.847 87.8951 46.3623C87.7439 47.3799 87.184 48.8096 85.9562 49.8677C85.3453 50.3799 84.7031 50.7912 84.0582 51.0528C83.4181 51.3214 82.7829 51.4171 82.26 51.4028C81.735 51.3853 81.3206 51.2822 81.0474 51.1864C80.7742 51.0898 80.6322 51.015 80.6379 51.001Z" fill="#455A64"/>
<path d="M81.3115 54.6988C81.3128 54.6509 81.9307 54.7127 82.8967 54.5413C83.8548 54.3772 85.1715 53.9163 86.3096 52.9526C87.4472 51.9873 88.1169 50.7647 88.435 49.8472C88.7613 48.9232 88.8014 48.3047 88.8485 48.3108C88.8642 48.3121 88.8703 48.4666 88.845 48.7448C88.8206 49.0229 88.7526 49.4237 88.6075 49.9042C88.3265 50.8596 87.659 52.1453 86.476 53.1489C85.2922 54.1513 83.914 54.5996 82.9245 54.721C82.4265 54.7854 82.0196 54.7872 81.7407 54.7663C81.4619 54.7454 81.3102 54.7145 81.3115 54.6988Z" fill="#455A64"/>
<path d="M95.5368 60.7439C95.4693 60.7661 95.3948 60.7238 95.3708 60.6503C95.3469 60.5763 95.3817 60.4988 95.4493 60.4766C95.5168 60.4544 95.5913 60.4966 95.6153 60.5702C95.6392 60.6438 95.6044 60.7217 95.5368 60.7439Z" fill="#F2935C"/>
<path d="M97.6914 59.9703C97.6238 59.9925 97.5467 59.9416 97.5188 59.8571C97.4909 59.7723 97.5232 59.6861 97.5907 59.6639C97.6583 59.6417 97.7354 59.6926 97.7633 59.7771C97.7911 59.8615 97.7589 59.9481 97.6914 59.9703Z" fill="#F2935C"/>
<path d="M99.1774 59.7615C99.1085 59.7789 99.0297 59.7014 99.0013 59.5887C98.973 59.476 99.0061 59.3706 99.0754 59.3537C99.1442 59.3367 99.2231 59.4137 99.251 59.5265C99.2793 59.6392 99.2462 59.7445 99.1774 59.7615Z" fill="#F2935C"/>
<path d="M96.7928 62.0024C96.7222 62.0111 96.6608 61.981 96.6551 61.9362C96.6499 61.8909 96.7026 61.8479 96.7732 61.8391C96.8438 61.8304 96.9052 61.8605 96.9109 61.9053C96.9161 61.9506 96.8634 61.9941 96.7928 62.0024Z" fill="#F2935C"/>
<path d="M98.7665 61.2886C98.6967 61.3034 98.627 61.2507 98.6105 61.1719C98.5939 61.0932 98.6371 61.0174 98.7063 61.0026C98.776 60.9883 98.8458 61.0405 98.8623 61.1193C98.8789 61.1985 98.8362 61.2742 98.7665 61.2886Z" fill="#F2935C"/>
<path d="M109.183 58.7548C109.115 58.777 109.04 58.7331 109.015 58.6569C108.991 58.5807 109.025 58.5011 109.093 58.4789C109.16 58.4567 109.235 58.5007 109.26 58.5768C109.285 58.653 109.25 58.7326 109.183 58.7548Z" fill="#F2935C"/>
<path d="M110.674 58.4307C110.605 58.4459 110.533 58.3876 110.514 58.3001C110.494 58.2126 110.535 58.1295 110.604 58.1142C110.673 58.099 110.745 58.1573 110.765 58.2448C110.784 58.3323 110.744 58.4154 110.674 58.4307Z" fill="#F2935C"/>
<path d="M107.854 58.9542C107.786 58.9764 107.716 58.946 107.696 58.8868C107.677 58.8276 107.716 58.7614 107.783 58.7392C107.851 58.7171 107.922 58.7471 107.941 58.8063C107.961 58.8663 107.922 58.9321 107.854 58.9542Z" fill="#F2935C"/>
<path d="M109.154 60.332C109.093 60.3682 109.009 60.3403 108.967 60.2698C108.925 60.1993 108.941 60.1127 109.002 60.0761C109.063 60.04 109.147 60.0679 109.189 60.1384C109.23 60.2089 109.215 60.2955 109.154 60.332Z" fill="#F2935C"/>
<path d="M110.412 59.9131C110.342 59.9027 110.292 59.8465 110.3 59.7874C110.309 59.7282 110.373 59.689 110.444 59.6994C110.514 59.7099 110.564 59.766 110.555 59.8252C110.546 59.884 110.482 59.9232 110.412 59.9131Z" fill="#F2935C"/>
<path d="M82.1442 63.5037C82.1521 63.5294 81.8619 63.5281 81.6301 63.1916C81.5203 63.0319 81.4427 62.7851 81.4954 62.5205C81.546 62.2589 81.7133 62 81.9616 61.8272C82.2117 61.6513 82.5159 61.5969 82.7699 61.6274C83.0274 61.6535 83.2418 61.7558 83.3969 61.8668C83.7115 62.0996 83.7651 62.3547 83.7428 62.3577C83.7089 62.3786 83.606 62.1701 83.3093 62.0013C83.0291 61.8354 82.5054 61.7218 82.0915 62.013C81.8889 62.154 81.749 62.3608 81.6998 62.5645C81.6484 62.7686 81.6924 62.9649 81.7678 63.1098C81.9229 63.4084 82.1595 63.4697 82.1442 63.5037Z" fill="#263238"/>
<path d="M121.144 119.725L121.532 130.964C121.532 130.964 88.9147 137.419 84.7188 139.578C80.5228 141.737 78.8105 142.071 79.0645 148.295L131.188 148.206C131.188 148.206 137.612 145.802 137.485 138.816C137.358 131.831 135.61 115.046 135.61 115.046L121.144 119.725Z" fill="#FEE6D8"/>
<path d="M84.4592 148.467L88.7902 148.072L92.9243 138.204C92.2541 138.091 78.3044 136.031 77.4822 136.256L74.1372 148.129C74.1372 148.129 84.1608 148.466 84.4592 148.467Z" fill="#FEE6D8"/>
<path d="M74.9206 148.318C74.9311 148.338 75.0139 148.356 75.1533 148.371C76.3053 148.497 81.6254 148.173 81.6254 148.173C81.8689 147.486 81.4088 145.425 80.7465 145.304C80.0843 145.183 74.4222 145.565 74.4222 145.565C74.4222 145.565 73.5303 145.682 73.3085 147.179C73.1708 148.104 74.9206 148.318 74.9206 148.318Z" fill="#FEE6D8"/>
<path d="M73.1231 145.291C73.1335 145.312 73.2159 145.329 73.3553 145.344C74.5073 145.47 79.5368 145.415 79.7542 144.803C79.9977 144.116 79.6108 142.398 78.9485 142.277C78.2863 142.157 72.6242 142.538 72.6242 142.538C72.6242 142.538 71.7323 142.655 71.5101 144.152C71.3733 145.077 73.1231 145.291 73.1231 145.291Z" fill="#FEE6D8"/>
<path d="M72.2311 142.341C72.2415 142.361 72.3243 142.379 72.4633 142.395C73.6153 142.52 78.6448 142.465 78.8622 141.853C79.1058 141.167 78.7188 139.448 78.0566 139.328C77.3943 139.207 71.7322 139.589 71.7322 139.589C71.7322 139.589 70.8403 139.706 70.6185 141.203C70.4813 142.127 72.2311 142.341 72.2311 142.341Z" fill="#FEE6D8"/>
<path d="M71.3937 139.405C71.4042 139.425 71.487 139.443 71.626 139.458C72.778 139.584 77.8074 139.528 78.0248 138.916C78.2684 138.23 77.8815 136.512 77.2192 136.391C76.5569 136.27 70.8948 136.652 70.8948 136.652C70.8948 136.652 70.0029 136.769 69.7812 138.266C69.6435 139.191 71.3937 139.405 71.3937 139.405Z" fill="#FEE6D8"/>
<path d="M79.2747 145.265C79.2673 145.351 78.1706 145.453 76.826 145.491C75.481 145.529 74.3965 145.49 74.4043 145.404C74.4117 145.317 75.508 145.216 76.8535 145.178C78.1981 145.14 79.2821 145.179 79.2747 145.265Z" fill="#F2935C"/>
<path d="M79.3027 142.312C79.3054 142.399 77.7468 142.519 75.8214 142.58C73.8955 142.642 72.3326 142.62 72.3296 142.533C72.327 142.446 73.8855 142.325 75.8114 142.264C77.7363 142.203 79.2997 142.225 79.3027 142.312Z" fill="#F2935C"/>
<g opacity="0.78">
<path d="M79.0645 139.297C79.0671 139.384 77.5085 139.504 75.5831 139.565C73.6573 139.626 72.0944 139.605 72.0913 139.518C72.0887 139.43 73.6472 139.31 75.5731 139.249C77.4985 139.188 79.0618 139.209 79.0645 139.297Z" fill="#F2935C"/>
</g>
<path d="M87.1372 137.435C87.1372 137.435 77.6417 133.218 77.0492 133.827C76.4562 134.436 75.5425 136.395 75.5425 136.395L87.1372 137.435Z" fill="#FEE6D8"/>
<path d="M128.823 140.769C128.783 140.78 128.589 140.09 128.138 139.031C127.915 138.5 127.61 137.886 127.237 137.224C126.854 136.568 126.397 135.867 125.861 135.174C125.318 134.485 124.75 133.871 124.206 133.34C123.654 132.817 123.132 132.372 122.671 132.027C121.753 131.331 121.13 130.975 121.151 130.939C121.159 130.926 121.32 131.005 121.605 131.161C121.892 131.313 122.291 131.563 122.767 131.898C123.244 132.23 123.784 132.667 124.35 133.188C124.909 133.717 125.49 134.335 126.041 135.034C126.584 135.737 127.043 136.451 127.42 137.121C127.788 137.797 128.081 138.426 128.287 138.97C128.496 139.512 128.641 139.96 128.719 140.275C128.8 140.589 128.838 140.765 128.823 140.769Z" fill="#F2935C"/>
<path d="M90.637 87.8601L80.8147 115.783L69.7725 118.96C69.7725 118.96 73.7758 135.884 77.8645 138.924C79.2527 139.956 81.5262 141.075 83.8521 140.913C88.2663 140.606 93.2164 137.498 95.1035 133.157C96.7801 129.3 101.26 89.4187 101.26 89.4187L90.637 87.8601Z" fill="#FEE6D8"/>
<path d="M101.125 90.6119L101.697 83.8079L100.118 78.3474L99.5064 76.2578L100.701 77.4778L102.881 75.1584C102.881 75.1584 102.173 71.0371 101.584 71.0371C101.214 71.0371 100.133 71.408 99.3779 71.6839C98.9295 71.848 98.5962 71.979 98.5962 71.979L96.751 72.9208L98.5962 70.0948C98.5962 70.0948 100.496 71.6743 101.468 70.302C102.21 69.2527 99.4424 66.9015 98.3993 66.0724C98.1605 65.8826 97.8507 65.8095 97.5518 65.8696L96.476 66.0855C96.5096 65.4792 95.8508 64.6666 94.9014 64.6531C93.4944 64.6326 92.8383 65.8874 92.8383 65.8874L91.7032 66.0915C90.9115 66.0915 90.2039 66.5847 89.9308 67.3267L87.4385 74.0982L90.637 87.8638" fill="#FEE6D8"/>
<path d="M90.637 87.8663C90.637 87.8663 90.6087 87.7845 90.5664 87.6222C90.5229 87.4489 90.4627 87.2091 90.3856 86.9014C90.2301 86.2564 90.0057 85.3267 89.7194 84.1411C89.1517 81.7395 88.3399 78.3042 87.3513 74.1207L87.3452 74.095L87.3544 74.0698C87.8454 72.727 88.3657 71.3042 88.9116 69.8118C89.1848 69.0654 89.4645 68.302 89.7503 67.522C89.871 67.1308 90.0959 66.7064 90.4497 66.4326C90.7974 66.1515 91.2462 65.9883 91.7028 65.9878L91.684 65.9896C92.0357 65.926 92.4256 65.8555 92.8186 65.7841L92.7424 65.8403C92.9493 65.4812 93.2304 65.1831 93.5733 64.9446C93.9188 64.7135 94.3327 64.5646 94.7602 64.552C95.1885 64.5163 95.6386 64.6608 95.9806 64.9359C96.3183 65.2087 96.5945 65.6118 96.5862 66.0949L96.4529 65.9796C96.7226 65.9252 96.9941 65.8707 97.2664 65.8159C97.4036 65.792 97.5326 65.7528 97.6938 65.7423C97.8481 65.7341 98.0049 65.7567 98.1509 65.8102C98.2951 65.859 98.4367 65.9574 98.5409 66.0457L98.8702 66.3143C99.0885 66.4958 99.3051 66.6816 99.5181 66.8731C99.9438 67.2561 100.36 67.6587 100.745 68.0987C101.119 68.5435 101.506 69.0097 101.671 69.6221C101.711 69.7957 101.722 69.9903 101.657 70.1744C101.593 70.3663 101.456 70.4873 101.342 70.6196C101.082 70.8721 100.706 70.9952 100.356 70.9769C99.6476 70.9347 99.0506 70.5831 98.5234 70.1844L98.6899 70.1596C98.0646 71.1162 97.4485 72.0585 96.8433 72.9847L96.6995 72.825C97.3226 72.5077 97.9378 72.1939 98.5452 71.8844L98.5504 71.8818L98.5548 71.8801C99.1774 71.6442 99.7918 71.4113 100.412 71.2142C100.723 71.1162 101.03 71.0196 101.356 70.9587C101.444 70.9474 101.507 70.9252 101.633 70.9421C101.765 70.9791 101.825 71.0636 101.876 71.1319C101.978 71.2764 102.042 71.4253 102.104 71.5745C102.546 72.7767 102.759 73.9805 102.979 75.1443L102.988 75.1931L102.953 75.2301C102.195 76.0335 101.469 76.8035 100.769 77.5456L100.701 77.6174L100.632 77.5469C100.22 77.1242 99.8258 76.7199 99.4406 76.3243L99.5927 76.2355C100.431 79.1603 101.159 81.7003 101.759 83.7925L101.763 83.8043L101.762 83.816C101.569 85.9591 101.416 87.6565 101.31 88.8304C101.254 89.4023 101.211 89.8462 101.181 90.1587C101.165 90.3015 101.153 90.4138 101.143 90.5C101.134 90.5766 101.128 90.6153 101.125 90.6148C101.122 90.6148 101.122 90.5752 101.125 90.4982C101.13 90.412 101.136 90.2989 101.145 90.1557C101.167 89.8423 101.199 89.3975 101.24 88.8247C101.331 87.65 101.464 85.9508 101.631 83.8051L101.633 83.8286C101.02 81.7404 100.275 79.2055 99.4184 76.2864L99.3164 75.9391L99.5709 76.1976C99.9578 76.5915 100.354 76.9941 100.768 77.415L100.631 77.4163C101.329 76.6716 102.051 75.8995 102.806 75.093L102.781 75.1787C102.561 74.0284 102.339 72.8141 101.908 71.6546C101.85 71.514 101.786 71.3713 101.705 71.2572C101.667 71.1985 101.612 71.1554 101.59 71.151C101.559 71.1432 101.461 71.1567 101.393 71.1693C101.092 71.2263 100.784 71.3225 100.478 71.42C99.8654 71.6163 99.2537 71.8496 98.6354 72.0846L98.645 72.0803C98.038 72.391 97.4232 72.7053 96.8006 73.0234L96.4285 73.2136L96.6568 72.8637C97.2612 71.9371 97.8759 70.9944 98.5008 70.0368L98.567 69.935L98.6672 70.0116C99.1561 70.3846 99.7465 70.7202 100.363 70.7511C100.668 70.7646 100.967 70.6649 101.186 70.4538C101.285 70.3393 101.404 70.2279 101.443 70.1004C101.488 69.9707 101.484 69.8205 101.449 69.6725C101.311 69.145 100.938 68.6763 100.573 68.2476C100.198 67.8176 99.7874 67.4202 99.3665 67.0411C99.1561 66.8518 98.9417 66.6677 98.7256 66.4875C98.5025 66.3173 98.3016 66.1006 98.0733 66.0209C97.8311 65.9243 97.5919 65.9722 97.3104 66.0353C97.0381 66.0897 96.7666 66.1441 96.4965 66.198L96.3592 66.2255L96.3632 66.0827C96.3736 65.7141 96.1409 65.3454 95.8416 65.1086C95.5388 64.8671 95.1536 64.74 94.7693 64.7713C93.9868 64.7866 93.2988 65.3115 92.9324 65.9404L92.9049 65.9878L92.8561 65.9965C92.4631 66.0666 92.0727 66.1362 91.7211 66.1994L91.7115 66.2011H91.7019C91.2932 66.2011 90.8923 66.3456 90.5799 66.5963C90.2584 66.8509 90.0689 67.1965 89.9421 67.5943C89.6541 68.3729 89.3717 69.1359 89.0963 69.8815C88.5443 71.3717 88.0184 72.7923 87.5217 74.1329L87.5247 74.0819C88.482 78.2728 89.2676 81.7142 89.817 84.1198C90.0828 85.3097 90.2915 86.2433 90.4362 86.891C90.5024 87.2013 90.5542 87.4428 90.5917 87.6174C90.6266 87.7806 90.637 87.8663 90.637 87.8663Z" fill="#F2935C"/>
<path d="M98.5049 75.3742C98.4822 75.3264 99.2948 74.8916 100.415 74.3467L101.124 74.002L100.534 74.529C100.384 74.6639 100.246 74.8341 100.141 75.0304C99.9662 75.3573 99.8987 75.7177 99.924 76.0367C99.9488 76.3575 100.058 76.6364 100.183 76.8488C100.438 77.2775 100.725 77.4442 100.701 77.476C100.695 77.4978 100.364 77.3781 100.048 76.9354C99.8943 76.7165 99.7558 76.4158 99.7157 76.0563C99.6752 75.6981 99.7445 75.2907 99.9414 74.9238C100.059 74.7031 100.216 74.5125 100.39 74.3632L100.51 74.5456C99.3789 75.0683 98.5275 75.4221 98.5049 75.3742Z" fill="#F2935C"/>
<path d="M93.2831 71.6971C93.2565 71.681 93.4621 71.2897 93.8168 70.6704C94.1715 70.051 94.6743 69.2041 95.242 68.2757C95.5283 67.8113 95.7936 67.3708 96.0555 66.9713C96.3187 66.5731 96.6254 66.2384 96.9579 66.0595C97.2864 65.878 97.6018 65.844 97.8066 65.8719C98.0145 65.898 98.1116 65.9676 98.1068 65.9772C98.1007 65.9964 97.9948 65.9572 97.8014 65.9598C97.6105 65.9602 97.3291 66.0147 97.0393 66.1975C96.4394 66.5509 96.0185 67.4801 95.4359 68.3941C94.8682 69.3225 94.3436 70.1564 93.9541 70.754C93.5641 71.3515 93.3101 71.7132 93.2831 71.6971Z" fill="#F2935C"/>
<path d="M89.9078 71.6744C89.8799 71.6622 90.0006 71.3079 90.2302 70.749C90.4598 70.1902 90.8005 69.4281 91.2106 68.6024C91.6206 67.7764 92.0214 67.0439 92.3277 66.5233C92.634 66.0023 92.8432 65.692 92.8697 65.7068C92.8976 65.7225 92.7382 66.0607 92.4684 66.5995C92.1587 67.2171 91.8044 67.9235 91.4136 68.703C91.0293 69.4855 90.6812 70.1945 90.3766 70.8152C90.1099 71.3553 89.9374 71.687 89.9078 71.6744Z" fill="#F2935C"/>
<path d="M82.0175 113.053C82.0318 113.059 81.9743 113.239 81.858 113.559C81.7225 113.922 81.5539 114.374 81.3534 114.91C80.9238 116.048 80.3347 117.622 79.7125 119.37C79.0908 121.12 78.554 122.712 78.1684 123.866C77.9854 124.408 77.8311 124.865 77.707 125.232C77.595 125.554 77.5261 125.73 77.5113 125.725C77.4965 125.721 77.5366 125.536 77.6224 125.207C77.7078 124.877 77.8416 124.402 78.0154 123.819C78.3623 122.651 78.876 121.047 79.4986 119.295C80.1217 117.544 80.736 115.976 81.2044 114.851C81.4384 114.289 81.634 113.836 81.7761 113.526C81.9177 113.216 82.0027 113.047 82.0175 113.053Z" fill="#F2935C"/>
<path d="M96.5809 125.927C96.5848 125.928 96.5813 125.971 96.5713 126.056C96.5582 126.153 96.5416 126.276 96.5207 126.431C96.4706 126.775 96.4009 127.257 96.3125 127.869C96.2175 128.493 96.1016 129.257 95.926 130.138C95.7482 131.018 95.5099 132.018 95.1051 133.08C94.7003 134.137 94.0982 135.259 93.184 136.244C92.2834 137.232 91.1654 138.145 89.8726 138.912C88.5786 139.682 87.1072 140.278 85.5312 140.716C84.7399 140.925 83.9073 141.064 83.055 141.062C82.2023 141.069 81.3396 140.908 80.5157 140.617C78.8652 140.018 77.4927 138.907 76.471 137.632C75.4322 136.36 74.6985 134.944 74.1282 133.56C73.5582 132.169 73.221 130.783 72.8276 129.52C72.4354 128.254 72.0703 127.074 71.7361 125.995C71.062 123.841 70.5479 122.087 70.2272 120.866C70.0656 120.256 69.9475 119.779 69.8743 119.455C69.8407 119.303 69.8137 119.181 69.7924 119.086C69.775 119.002 69.7684 118.959 69.7719 118.959C69.7758 118.958 69.7902 118.999 69.8146 119.08C69.8412 119.174 69.8756 119.294 69.9183 119.444C70.0129 119.779 70.1444 120.247 70.3122 120.842C70.6586 122.055 71.1954 123.799 71.889 125.947C72.2315 127.024 72.6058 128.202 73.0075 129.466C73.4105 130.733 73.753 132.11 74.3216 133.482C74.8915 134.849 75.6209 136.245 76.6431 137.492C77.6491 138.743 78.989 139.822 80.592 140.404C81.3941 140.686 82.2267 140.842 83.055 140.837C83.8829 140.839 84.6964 140.706 85.4745 140.501C87.0279 140.073 88.491 139.486 89.7659 138.732C91.0443 137.981 92.1514 137.085 93.045 136.117C93.9474 135.157 94.5452 134.063 94.9552 133.022C95.3643 131.977 95.6123 130.986 95.8014 130.113C95.9879 129.238 96.1164 128.477 96.2244 127.855C96.3312 127.246 96.4149 126.767 96.475 126.423C96.505 126.27 96.5286 126.148 96.5477 126.052C96.5665 125.969 96.5774 125.926 96.5809 125.927Z" fill="#F2935C"/>
<path d="M14.7435 119.529C14.3504 118.169 13.5091 116.855 12.208 116.294C10.8547 115.712 9.28659 116.043 7.90103 116.546C6.51546 117.049 5.15517 117.721 3.6842 117.812C2.21324 117.903 0.552301 117.206 0.111795 115.801C-0.302131 114.48 0.494786 113.072 1.49344 112.112C3.59096 110.095 6.7429 109.24 9.57373 109.919C12.4046 110.598 14.8241 112.789 15.7765 115.537" fill="#F2935C"/>
<g opacity="0.5">
<path d="M14.7435 119.531C14.3504 118.171 13.5091 116.856 12.208 116.296C10.8547 115.713 9.28659 116.045 7.90103 116.547C6.51546 117.05 5.15517 117.723 3.6842 117.814C2.21324 117.904 0.552301 117.208 0.111795 115.803C-0.302131 114.482 0.494786 113.073 1.49344 112.113C3.59096 110.096 6.7429 109.241 9.57373 109.92C12.4046 110.599 14.8241 112.79 15.7765 115.538" fill="black"/>
</g>
<path d="M26.3991 125.425C28.5576 123.377 28.4495 119.812 27.3729 117.039C26.2962 114.266 23.9464 112.137 21.3213 110.734C16.233 108.014 9.87247 107.808 4.61865 110.193C7.20025 110.279 9.69601 111.742 11.0284 113.953C12.2114 115.915 12.4741 118.297 13.4514 120.369C14.5398 122.678 16.538 124.543 18.9174 125.472C21.2969 126.402 24.0314 126.384 26.3991 125.425Z" fill="#F2935C"/>
<path d="M27.4375 113.134C29.8269 110.316 30.1454 105.793 29.7934 102.117C29.4413 98.4408 28.5882 94.7409 29.169 91.0936C29.5128 88.9331 30.3519 86.87 30.6356 84.7004C30.9192 82.5312 30.5175 80.0777 28.8344 78.6771C26.9002 77.0676 23.8546 77.4472 21.8425 78.9587C19.8304 80.4699 18.6648 82.8441 17.813 85.21C15.9416 90.4085 15.2545 96.1732 16.7917 101.48C18.3293 106.787 21.937 111.532 27.2301 113.134" fill="#F2935C"/>
<path d="M28.5832 136.244C28.5902 136.244 28.5928 136.133 28.5924 135.92C28.5893 135.707 28.5924 135.393 28.5745 134.989C28.544 134.18 28.466 133.011 28.2848 131.576C28.1026 130.141 27.8181 128.439 27.3667 126.579C26.9219 124.714 26.1602 122.727 25.0836 120.793C24.0035 118.858 22.6854 117.187 21.3526 115.81C20.0163 114.433 18.649 113.361 17.4412 112.561C16.8443 112.149 16.2669 111.836 15.7698 111.546C15.26 111.279 14.8151 111.059 14.4509 110.884C14.0906 110.732 13.8039 110.612 13.5912 110.522C13.3939 110.442 13.2893 110.403 13.2867 110.409C13.2841 110.415 13.3838 110.467 13.5755 110.559C13.7843 110.656 14.0649 110.788 14.4178 110.953C14.7759 111.139 15.2138 111.367 15.7162 111.642C16.2055 111.94 16.775 112.259 17.3632 112.677C18.554 113.486 19.9021 114.562 21.2214 115.936C22.5373 117.309 23.8396 118.969 24.9106 120.888C27.1079 124.728 27.7096 128.764 28.1458 131.594C28.344 133.023 28.4434 134.187 28.4974 134.992C28.5205 135.381 28.5384 135.69 28.5523 135.92C28.5662 136.133 28.5763 136.244 28.5832 136.244Z" fill="#263238"/>
<path d="M49.1956 102.015C53.6173 104.68 53.6033 107.105 52.8648 109.395C52.1267 111.684 49.4126 113.274 47.163 112.417C45.8912 111.933 44.9701 110.829 44.1832 109.719C43.3963 108.609 42.6569 107.422 41.5541 106.625C40.4513 105.828 38.8527 105.523 37.7451 106.313" fill="#F2935C"/>
<g opacity="0.5">
<path d="M49.1956 102.015C53.6173 104.681 53.6033 107.106 52.8648 109.395C52.1267 111.685 49.4126 113.275 47.163 112.418C45.8912 111.934 44.9701 110.829 44.1832 109.72C43.3963 108.61 42.6569 107.422 41.5541 106.625C40.4513 105.828 38.8527 105.524 37.7451 106.314" fill="black"/>
</g>
<path d="M52.5058 104.936C51.3498 103.341 48.4937 102.879 46.6903 103.675C44.8869 104.471 43.5658 106.05 42.3833 107.626C41.2008 109.202 40.0501 110.867 38.4122 111.963C36.7744 113.06 34.4864 113.457 32.8538 112.352C31.7815 111.627 31.1602 110.366 30.9659 109.086C30.7716 107.807 30.9589 106.502 31.2256 105.235C31.6155 103.383 32.2525 101.449 33.7366 100.272C35.3906 98.9602 37.685 98.8984 39.7956 98.9671C42.2173 99.0463 44.6751 99.2278 46.9483 100.066C49.2214 100.905 51.5407 102.716 52.5058 104.936Z" fill="#F2935C"/>
<path d="M32.258 132.71C32.2615 132.71 32.2654 132.677 32.2698 132.613C32.2737 132.537 32.2785 132.443 32.2846 132.327C32.2938 132.061 32.3064 131.695 32.3225 131.231C32.3504 130.263 32.3901 128.89 32.4384 127.2C32.492 125.498 32.5613 123.472 32.6842 121.225C32.8101 118.98 32.977 116.509 33.3181 113.938C33.4915 112.654 33.6946 111.399 34.0506 110.237C34.4091 109.074 34.8862 107.99 35.4056 106.998C35.9298 106.008 36.5049 105.107 37.1149 104.318C37.728 103.532 38.3606 102.849 38.9815 102.271C40.2359 101.126 41.4363 100.426 42.2907 100.018C42.5069 99.9188 42.6951 99.8218 42.8641 99.7534C43.031 99.6886 43.1748 99.6333 43.2959 99.5859C43.4031 99.5423 43.4903 99.5075 43.5604 99.4788C43.6197 99.4535 43.6497 99.4392 43.6484 99.4357C43.6476 99.4327 43.6153 99.4405 43.5539 99.4596C43.4815 99.4831 43.3922 99.5123 43.282 99.548C43.1582 99.5902 43.0118 99.6403 42.8415 99.6986C42.6689 99.7617 42.4772 99.854 42.2572 99.9475C41.3875 100.337 40.1649 101.024 38.8861 102.168C38.253 102.744 37.6081 103.428 36.9842 104.218C36.3629 105.009 35.7768 105.916 35.2435 106.913C34.715 107.913 34.2305 109.001 33.8645 110.179C33.4998 111.362 33.2955 112.622 33.1212 113.911C32.7787 116.492 32.6175 118.967 32.5012 121.216C32.3883 123.466 32.333 125.493 32.2977 127.196C32.2628 128.9 32.2493 130.277 32.2445 131.23C32.2441 131.694 32.2437 132.061 32.2437 132.327C32.2454 132.443 32.2471 132.536 32.2484 132.613C32.2519 132.677 32.2545 132.71 32.258 132.71Z" fill="#263238"/>
<path d="M30.6673 134.689C30.6673 134.689 30.9147 134.033 31.1513 132.792C31.3818 131.553 31.5548 129.716 31.3539 127.463C31.1649 125.212 30.588 122.569 29.669 119.732C28.7619 116.891 27.5297 113.852 26.4775 110.586C25.9555 108.952 25.5119 107.335 25.2078 105.747C24.8997 104.16 24.7045 102.611 24.5808 101.13C24.3329 98.1668 24.3682 95.4818 24.4401 93.2338C24.5163 90.9845 24.6361 89.1661 24.7106 87.9087C24.7472 87.2898 24.7756 86.8045 24.796 86.4611C24.8034 86.3039 24.8091 86.1795 24.8139 86.0842C24.817 85.9993 24.8165 85.9558 24.813 85.9553C24.8095 85.9549 24.803 85.9984 24.7934 86.0828C24.7838 86.1777 24.7716 86.3018 24.7564 86.458C24.7272 86.801 24.6862 87.2854 24.634 87.9035C24.5355 89.1591 24.3947 90.9767 24.3002 93.2286C24.21 95.4787 24.1603 98.1694 24.3991 101.145C24.5185 102.631 24.7106 104.188 25.0178 105.784C25.3211 107.381 25.7655 109.007 26.2892 110.646C27.345 113.923 28.5815 116.958 29.4956 119.788C30.4215 122.613 31.0089 125.239 31.2145 127.477C31.4319 129.714 31.2812 131.542 31.0755 132.779C30.967 133.397 30.8677 133.876 30.7806 134.196C30.7435 134.348 30.7139 134.469 30.6912 134.562C30.6721 134.645 30.6638 134.688 30.6673 134.689Z" fill="#263238"/>
<path d="M19.7065 136.694H40.4669L40.941 132.702H19.7065V136.694Z" fill="#455A64"/>
<path d="M38.2384 136.249L35.6428 148.223H24.3623L21.9336 136.249H38.2384Z" fill="#455A64"/>
<path d="M19.7061 136.702C19.7061 136.757 24.2706 136.788 29.8995 136.772C35.5307 136.757 40.0935 136.7 40.0935 136.645C40.0935 136.59 35.5298 136.559 29.8991 136.575C24.2701 136.591 19.7061 136.648 19.7061 136.702Z" fill="#455A64"/>
<path d="M23.2689 142.617C23.2955 142.657 23.8815 142.053 25.0972 141.57C25.7002 141.33 26.4636 141.144 27.3206 141.124C28.1794 141.097 29.1114 141.301 30.0538 141.625C31.0002 141.945 31.8838 142.317 32.7444 142.522C33.6088 142.708 34.414 142.694 35.0698 142.592C35.7277 142.489 36.2375 142.294 36.5643 142.119C36.7255 142.027 36.8488 141.953 36.9246 141.891C37.0026 141.832 37.0409 141.799 37.037 141.793C37.0261 141.778 36.8597 141.896 36.5298 142.051C36.1991 142.201 35.695 142.371 35.0497 142.454C34.407 142.537 33.6197 142.535 32.7845 142.345C31.9535 142.137 31.0699 141.761 30.1166 141.439C29.1659 141.111 28.2003 140.904 27.3154 140.943C26.4331 140.973 25.6536 141.18 25.044 141.441C24.4292 141.696 23.9831 142.005 23.6911 142.23C23.5447 142.343 23.4375 142.438 23.3687 142.507C23.299 142.574 23.2646 142.612 23.2689 142.617Z" fill="#263238"/>
<path d="M23.4267 143.398C23.4537 143.439 24.0176 142.853 25.1826 142.365C25.7621 142.125 26.4981 141.94 27.3264 141.924C28.1559 141.901 29.0583 142.089 29.9703 142.399C30.8848 142.705 31.7432 143.059 32.5627 143.279C33.3814 143.503 34.1544 143.581 34.7975 143.53C35.4424 143.485 35.9447 143.303 36.2624 143.139C36.4192 143.05 36.5386 142.979 36.6114 142.918C36.6868 142.861 36.7238 142.829 36.7199 142.824C36.709 142.808 36.5482 142.923 36.2288 143.07C35.9081 143.21 35.4162 143.365 34.7888 143.391C34.1631 143.423 33.4115 143.333 32.6115 143.105C31.8094 142.879 30.9576 142.522 30.0326 142.213C29.1115 141.899 28.1769 141.709 27.3216 141.743C26.4676 141.769 25.7133 141.976 25.1277 142.238C24.5374 142.495 24.1112 142.8 23.8315 143.021C23.6912 143.132 23.5888 143.226 23.5221 143.292C23.455 143.356 23.4219 143.393 23.4267 143.398Z" fill="white"/>
<path d="M23.0629 141.819C23.0886 141.857 23.6973 141.245 24.9403 140.714C25.5573 140.452 26.3355 140.219 27.2191 140.167C28.1036 140.105 29.067 140.33 30.0395 140.663C31.0177 140.991 31.9257 141.388 32.8254 141.572C33.7252 141.735 34.5517 141.685 35.2266 141.576C35.9024 141.459 36.4296 141.266 36.7691 141.088C36.9368 140.995 37.0649 140.92 37.1438 140.856C37.2244 140.796 37.2645 140.762 37.2606 140.756C37.2497 140.74 37.078 140.863 36.736 141.019C36.393 141.172 35.8706 141.34 35.2053 141.438C34.5417 141.528 33.7287 141.561 32.8603 141.393C31.9989 141.208 31.0874 140.806 30.1035 140.476C29.1232 140.14 28.125 139.911 27.2087 139.985C26.2976 140.049 25.5063 140.302 24.8846 140.586C24.258 140.866 23.8005 141.185 23.4999 141.419C23.3496 141.537 23.2385 141.634 23.1674 141.706C23.0942 141.775 23.0585 141.814 23.0629 141.819Z" fill="white"/>
<path d="M19.5225 136.722C19.5225 136.776 24.1924 136.821 29.9517 136.821C35.7131 136.821 40.3822 136.776 40.3822 136.722C40.3822 136.667 35.7131 136.623 29.9517 136.623C24.1924 136.623 19.5225 136.667 19.5225 136.722Z" fill="#263238"/>
<path d="M190 148.221C190 148.284 147.533 148.334 95.1589 148.334C42.7666 148.334 0.308594 148.283 0.308594 148.221C0.308594 148.159 42.7666 148.108 95.1589 148.108C147.533 148.108 190 148.158 190 148.221Z" fill="#263238"/>
</svg>
