<svg width="186" height="189" viewBox="0 0 186 189" fill="none" xmlns="http://www.w3.org/2000/svg">
<g opacity="0.3">
<path d="M15.3837 115.545C12.1823 110.487 9.52014 105.071 7.39649 99.4496C5.28615 93.8225 3.67514 88.0053 2.54893 82.1001C2.00116 79.1446 1.53574 76.1734 1.19949 73.188C0.876969 70.201 0.631544 67.2039 0.547986 64.1999C0.449089 61.1968 0.505198 58.1896 0.696533 55.1941C0.805521 53.6969 0.945995 52.2026 1.13249 50.7148C1.2996 49.2249 1.54987 47.7456 1.82073 46.2739C1.18658 52.2297 1.1446 58.2098 1.49215 64.1567C1.68711 67.1295 1.95151 70.0975 2.33822 73.0514C2.70555 76.0076 3.17622 78.9493 3.73771 81.8725C4.27619 84.8004 4.94506 87.7029 5.70676 90.5799C6.45434 93.461 7.32988 96.3077 8.28212 99.1297C10.2383 104.754 12.5876 110.251 15.3837 115.545Z" fill="#FFEBDF"/>
<path d="M172.728 84.6011C175.562 86.9731 177.822 89.9832 179.623 93.2115C181.427 96.4476 182.791 99.9242 183.778 103.502C184.738 107.09 185.268 110.789 185.439 114.501C185.561 116.358 185.474 118.219 185.404 120.077L185.141 122.857C185.111 123.322 185.019 123.779 184.945 124.239L184.716 125.617C183.487 132.962 180.392 140.031 175.692 145.85C171.006 151.69 164.78 156.183 157.984 159.215C151.161 162.235 143.799 163.83 136.459 164.636C129.12 165.5 121.728 165.993 114.335 165.897C106.946 165.829 99.5587 165.263 92.2593 164.135C84.9688 162.965 77.7554 161.271 70.7842 158.863C77.8373 161.008 85.0524 162.58 92.3453 163.547C99.6318 164.551 106.988 165.009 114.338 164.964C118.013 164.944 121.686 164.805 125.353 164.578C129.02 164.341 132.679 163.993 136.326 163.54C138.151 163.317 139.968 163.055 141.771 162.757C143.571 162.431 145.369 162.085 147.139 161.63C150.69 160.763 154.159 159.581 157.494 158.107C164.157 155.173 170.244 150.823 174.837 145.155C177.149 142.341 179.047 139.197 180.552 135.878C181.31 134.219 181.933 132.501 182.482 130.761L182.689 130.108L182.863 129.446L183.205 128.119L183.548 126.793C183.652 126.348 183.717 125.895 183.804 125.447L184.05 124.097C184.129 123.647 184.227 123.2 184.262 122.743L184.562 120.015C184.657 118.189 184.771 116.358 184.678 114.527C184.567 110.868 184.091 107.212 183.207 103.649C182.318 100.09 181.052 96.6162 179.342 93.3631C178.95 92.5299 178.441 91.7633 177.972 90.9729C177.523 90.1675 176.945 89.4499 176.42 88.695L176.02 88.1327L175.574 87.6067L174.68 86.5543C174.396 86.1888 174.042 85.892 173.718 85.5645L172.728 84.6011Z" fill="#FFEBDF"/>
<path d="M29.0405 6.09758C30.5308 5.32577 32.0684 4.63926 33.6414 4.04251C35.2125 3.43969 36.815 2.91167 38.4422 2.46936C40.0709 2.03271 41.7199 1.66925 43.383 1.37734C45.0469 1.09069 46.7241 0.887726 48.4061 0.734091C50.089 0.590968 51.7775 0.512938 53.4664 0.5L55.9998 0.535175L56.6331 0.544474L57.2645 0.579647L58.5271 0.649996C59.3687 0.70013 60.2112 0.736922 61.0512 0.812122L63.5688 1.07371C63.9882 1.1198 64.4088 1.15538 64.8274 1.21036L66.0804 1.39836C66.9152 1.52693 67.7519 1.64216 68.5851 1.78164C71.9056 2.41721 75.1962 3.23269 78.4001 4.33724C81.5821 5.49719 84.6835 6.89446 87.5963 8.62448C90.5269 10.3254 93.2245 12.4015 95.7151 14.6737C98.1839 16.9733 100.465 19.4634 102.497 22.1387C100.253 19.6397 97.9001 17.2471 95.3244 15.1212C92.7676 12.9796 90.0404 11.043 87.1252 9.44481C84.2128 7.84498 81.1688 6.49784 78.0267 5.4228C74.8749 4.37282 71.642 3.58079 68.372 2.97434C65.0914 2.42651 61.7871 1.97813 58.4561 1.79256L57.2087 1.70159L56.5851 1.6559L55.9614 1.6365L53.466 1.55927C51.8021 1.55119 50.1374 1.58232 48.4752 1.6741C41.8333 2.07072 35.2153 3.4498 29.0405 6.09758Z" fill="#FFEBDF"/>
<path d="M4.89273 75.2623C-1.99129 25.746 22.2699 2.40679 56.4773 3.92819C90.6842 5.44918 102.156 22.4093 116.489 50.5953C130.822 78.7814 152.089 70.8012 170.901 86.7615C187.668 100.987 192.303 153.508 139.037 160.891C73.9796 169.907 14.4005 143.653 4.89273 75.2623Z" fill="#FFEBDF"/>
<path d="M172.026 80.1798C172.026 81.3923 171.044 82.3748 169.834 82.3748C168.623 82.3748 167.643 81.3919 167.643 80.1798C167.643 78.9673 168.624 77.9849 169.834 77.9849C171.044 77.9845 172.026 78.9673 172.026 80.1798Z" fill="#FFEBDF"/>
<path d="M164.824 78.2389C167.118 78.2389 168.977 76.3766 168.977 74.0794C168.977 71.7822 167.118 69.9199 164.824 69.9199C162.531 69.9199 160.671 71.7822 160.671 74.0794C160.671 76.3766 162.531 78.2389 164.824 78.2389Z" fill="#FFEBDF"/>
<path d="M109.559 30.7752C111.506 30.7752 113.085 29.1937 113.085 27.2428C113.085 25.292 111.506 23.7104 109.559 23.7104C107.611 23.7104 106.032 25.292 106.032 27.2428C106.032 29.1937 107.611 30.7752 109.559 30.7752Z" fill="#FFEBDF"/>
<path d="M110.041 20.7658C110.041 21.9456 109.087 22.9017 107.909 22.9017C106.731 22.9017 105.776 21.9456 105.776 20.7658C105.776 19.5861 106.731 18.6299 107.909 18.6299C109.087 18.6299 110.041 19.5865 110.041 20.7658Z" fill="#FFEBDF"/>
<path d="M116.579 21.4999C116.579 22.9105 115.438 24.0539 114.029 24.0539C112.621 24.0539 111.479 22.9105 111.479 21.4999C111.479 20.0897 112.621 18.9463 114.029 18.9463C115.438 18.9463 116.579 20.0897 116.579 21.4999Z" fill="#FFEBDF"/>
</g>
<path opacity="0.7" d="M155.107 31.5671H136.531V29.3389C136.531 28.289 135.681 27.4375 134.632 27.4375H134.586C133.537 27.4375 132.687 28.2886 132.687 29.3389V31.5671H65.8334V29.3389C65.8334 28.289 64.9837 27.4375 63.935 27.4375H63.8882C62.8398 27.4375 61.9897 28.2886 61.9897 29.3389V31.5671H43.3281C41.2121 31.5671 39.4966 33.2853 39.4966 35.4047V132.283C39.4966 134.402 41.2121 136.121 43.3281 136.121H155.107C157.223 136.121 158.939 134.402 158.939 132.283V35.4047C158.939 33.2853 157.224 31.5671 155.107 31.5671Z" fill="#D7F6F9"/>
<path d="M40.5029 134.655C38.3066 134.655 36.52 132.865 36.52 130.666V37.4262C36.52 35.2264 38.3066 33.4365 40.5029 33.4365H152.282C154.478 33.4365 156.265 35.2264 156.265 37.4262V130.665C156.265 132.865 154.478 134.655 152.282 134.655H40.5029V134.655Z" fill="#F2935C"/>
<path d="M152.282 33.5889C154.398 33.5889 156.113 35.3072 156.113 37.4265V130.666C156.113 132.785 154.398 134.504 152.282 134.504H40.5029C38.3865 134.504 36.6714 132.785 36.6714 130.666V37.4265C36.6714 35.3072 38.387 33.5889 40.5029 33.5889H152.282ZM152.282 33.2856H40.5029C38.2231 33.2856 36.3687 35.1434 36.3687 37.4265V130.666C36.3687 132.95 38.2235 134.807 40.5029 134.807H152.282C154.562 134.807 156.416 132.949 156.416 130.666V37.4265C156.416 35.1434 154.562 33.2856 152.282 33.2856Z" fill="#FF7F6A"/>
<path d="M118.739 38.7168H74.0454V40.2434H118.739V38.7168Z" fill="white"/>
<path d="M124.532 42.9526H68.2529V44.4793H124.532V42.9526Z" fill="white"/>
<path d="M53.734 49.0498H36.6709V66.1401H53.734V49.0498Z" fill="white"/>
<path d="M40.6335 55.0704C41.7482 55.0704 42.6518 54.1653 42.6518 53.0489C42.6518 51.9324 41.7482 51.0273 40.6335 51.0273C39.5189 51.0273 38.6152 51.9324 38.6152 53.0489C38.6152 54.1653 39.5189 55.0704 40.6335 55.0704Z" fill="#CEB2C7"/>
<path d="M42.3247 57.7637H50.3335" stroke="#5E334F" stroke-width="0.363282" stroke-miterlimit="10" stroke-linecap="round" stroke-linejoin="round"/>
<path d="M40.0708 57.7637H41.3185" stroke="#5E334F" stroke-width="0.363282" stroke-miterlimit="10" stroke-linecap="round" stroke-linejoin="round"/>
<path d="M42.3247 60.5073H50.3335" stroke="#5E334F" stroke-width="0.363282" stroke-miterlimit="10" stroke-linecap="round" stroke-linejoin="round"/>
<path d="M40.0708 60.5073H41.3185" stroke="#5E334F" stroke-width="0.363282" stroke-miterlimit="10" stroke-linecap="round" stroke-linejoin="round"/>
<path d="M87.861 49.0498H70.7979V66.1401H87.861V49.0498Z" fill="white"/>
<path d="M74.76 55.0704C75.8747 55.0704 76.7783 54.1653 76.7783 53.0489C76.7783 51.9324 75.8747 51.0273 74.76 51.0273C73.6453 51.0273 72.7417 51.9324 72.7417 53.0489C72.7417 54.1653 73.6453 55.0704 74.76 55.0704Z" fill="#CEB2C7"/>
<path d="M104.924 49.0498H87.8608V66.1401H104.924V49.0498Z" fill="white"/>
<path d="M91.8235 55.0704C92.9382 55.0704 93.8418 54.1653 93.8418 53.0489C93.8418 51.9324 92.9382 51.0273 91.8235 51.0273C90.7088 51.0273 89.8052 51.9324 89.8052 53.0489C89.8052 54.1653 90.7088 55.0704 91.8235 55.0704Z" fill="#CEB2C7"/>
<path d="M121.987 49.0498H104.924V66.1401H121.987V49.0498Z" fill="white"/>
<path d="M108.886 55.0704C110.001 55.0704 110.905 54.1653 110.905 53.0489C110.905 51.9324 110.001 51.0273 108.886 51.0273C107.772 51.0273 106.868 51.9324 106.868 53.0489C106.868 54.1653 107.772 55.0704 108.886 55.0704Z" fill="#CEB2C7"/>
<path d="M110.578 57.7637H118.586" stroke="#5E334F" stroke-width="0.363282" stroke-miterlimit="10" stroke-linecap="round" stroke-linejoin="round"/>
<path d="M108.324 57.7637H109.571" stroke="#5E334F" stroke-width="0.363282" stroke-miterlimit="10" stroke-linecap="round" stroke-linejoin="round"/>
<path d="M110.578 60.5073H118.587" stroke="#5E334F" stroke-width="0.363282" stroke-miterlimit="10" stroke-linecap="round" stroke-linejoin="round"/>
<path d="M108.324 60.5073H109.571" stroke="#5E334F" stroke-width="0.363282" stroke-miterlimit="10" stroke-linecap="round" stroke-linejoin="round"/>
<path d="M110.578 63.2461H118.586" stroke="#5E334F" stroke-width="0.363282" stroke-miterlimit="10" stroke-linecap="round" stroke-linejoin="round"/>
<path d="M108.324 63.2461H109.571" stroke="#5E334F" stroke-width="0.363282" stroke-miterlimit="10" stroke-linecap="round" stroke-linejoin="round"/>
<path d="M139.05 49.0498H121.987V66.1401H139.05V49.0498Z" fill="white"/>
<path d="M125.949 55.0704C127.064 55.0704 127.968 54.1653 127.968 53.0489C127.968 51.9324 127.064 51.0273 125.949 51.0273C124.835 51.0273 123.931 51.9324 123.931 53.0489C123.931 54.1653 124.835 55.0704 125.949 55.0704Z" fill="#CEB2C7"/>
<path d="M156.114 49.0498H139.051V66.1401H156.114V49.0498Z" fill="white"/>
<path d="M143.013 55.0704C144.128 55.0704 145.031 54.1653 145.031 53.0489C145.031 51.9324 144.128 51.0273 143.013 51.0273C141.898 51.0273 140.995 51.9324 140.995 53.0489C140.995 54.1653 141.898 55.0704 143.013 55.0704Z" fill="#CEB2C7"/>
<path d="M53.734 66.1396H36.6709V83.2299H53.734V66.1396Z" fill="white"/>
<path d="M40.6335 72.1602C41.7482 72.1602 42.6518 71.2552 42.6518 70.1387C42.6518 69.0223 41.7482 68.1172 40.6335 68.1172C39.5189 68.1172 38.6152 69.0223 38.6152 70.1387C38.6152 71.2552 39.5189 72.1602 40.6335 72.1602Z" fill="#CEB2C7"/>
<path d="M139.05 66.1396H121.987V83.2299H139.05V66.1396Z" fill="white"/>
<path d="M125.949 72.1602C127.064 72.1602 127.968 71.2552 127.968 70.1387C127.968 69.0223 127.064 68.1172 125.949 68.1172C124.835 68.1172 123.931 69.0223 123.931 70.1387C123.931 71.2552 124.835 72.1602 125.949 72.1602Z" fill="#CEB2C7"/>
<path d="M156.113 66.1396H139.05V83.2299H156.113V66.1396Z" fill="white"/>
<path d="M143.013 72.1602C144.128 72.1602 145.031 71.2552 145.031 70.1387C145.031 69.0223 144.128 68.1172 143.013 68.1172C141.898 68.1172 140.995 69.0223 140.995 70.1387C140.995 71.2552 141.898 72.1602 143.013 72.1602Z" fill="#CEB2C7"/>
<path d="M53.734 83.229H36.6709V100.319H53.734V83.229Z" fill="white"/>
<path d="M40.6335 89.2535C41.7482 89.2535 42.6518 88.3484 42.6518 87.232C42.6518 86.1155 41.7482 85.2104 40.6335 85.2104C39.5189 85.2104 38.6152 86.1155 38.6152 87.232C38.6152 88.3484 39.5189 89.2535 40.6335 89.2535Z" fill="#CEB2C7"/>
<path d="M87.861 83.229H70.7979V100.319H87.861V83.229Z" fill="white"/>
<path d="M74.76 89.2535C75.8747 89.2535 76.7783 88.3484 76.7783 87.232C76.7783 86.1155 75.8747 85.2104 74.76 85.2104C73.6453 85.2104 72.7417 86.1155 72.7417 87.232C72.7417 88.3484 73.6453 89.2535 74.76 89.2535Z" fill="#CEB2C7"/>
<path d="M104.924 83.229H87.8608V100.319H104.924V83.229Z" fill="white"/>
<path d="M91.8235 89.2535C92.9382 89.2535 93.8418 88.3484 93.8418 87.232C93.8418 86.1155 92.9382 85.2104 91.8235 85.2104C90.7088 85.2104 89.8052 86.1155 89.8052 87.232C89.8052 88.3484 90.7088 89.2535 91.8235 89.2535Z" fill="#CEB2C7"/>
<path d="M121.987 83.229H104.924V100.319H121.987V83.229Z" fill="white"/>
<path d="M108.886 89.2535C110.001 89.2535 110.905 88.3484 110.905 87.232C110.905 86.1155 110.001 85.2104 108.886 85.2104C107.772 85.2104 106.868 86.1155 106.868 87.232C106.868 88.3484 107.772 89.2535 108.886 89.2535Z" fill="#CEB2C7"/>
<path d="M139.05 83.229H121.987V100.319H139.05V83.229Z" fill="white"/>
<path d="M125.949 89.2535C127.064 89.2535 127.968 88.3484 127.968 87.232C127.968 86.1155 127.064 85.2104 125.949 85.2104C124.835 85.2104 123.931 86.1155 123.931 87.232C123.931 88.3484 124.835 89.2535 125.949 89.2535Z" fill="#CEB2C7"/>
<path d="M127.641 91.9448H135.649" stroke="#5E334F" stroke-width="0.363282" stroke-miterlimit="10" stroke-linecap="round" stroke-linejoin="round"/>
<path d="M125.387 91.9448H126.635" stroke="#5E334F" stroke-width="0.363282" stroke-miterlimit="10" stroke-linecap="round" stroke-linejoin="round"/>
<path d="M127.641 94.6851H135.649" stroke="#5E334F" stroke-width="0.363282" stroke-miterlimit="10" stroke-linecap="round" stroke-linejoin="round"/>
<path d="M125.387 94.6851H126.635" stroke="#5E334F" stroke-width="0.363282" stroke-miterlimit="10" stroke-linecap="round" stroke-linejoin="round"/>
<path d="M156.114 83.229H139.051V100.319H156.114V83.229Z" fill="white"/>
<path d="M143.013 89.2535C144.128 89.2535 145.031 88.3484 145.031 87.232C145.031 86.1155 144.128 85.2104 143.013 85.2104C141.898 85.2104 140.995 86.1155 140.995 87.232C140.995 88.3484 141.898 89.2535 143.013 89.2535Z" fill="#CEB2C7"/>
<path d="M53.734 100.322H36.6709V117.413H53.734V100.322Z" fill="white"/>
<path d="M40.6335 106.343C41.7482 106.343 42.6518 105.438 42.6518 104.321C42.6518 103.205 41.7482 102.3 40.6335 102.3C39.5189 102.3 38.6152 103.205 38.6152 104.321C38.6152 105.438 39.5189 106.343 40.6335 106.343Z" fill="#CEB2C7"/>
<path d="M87.861 100.322H70.7979V117.413H87.861V100.322Z" fill="white"/>
<path d="M74.76 106.343C75.8747 106.343 76.7783 105.438 76.7783 104.321C76.7783 103.205 75.8747 102.3 74.76 102.3C73.6453 102.3 72.7417 103.205 72.7417 104.321C72.7417 105.438 73.6453 106.343 74.76 106.343Z" fill="#CEB2C7"/>
<path d="M76.4512 109.033H84.4603" stroke="#5E334F" stroke-width="0.363282" stroke-miterlimit="10" stroke-linecap="round" stroke-linejoin="round"/>
<path d="M74.1978 109.033H75.4454" stroke="#5E334F" stroke-width="0.363282" stroke-miterlimit="10" stroke-linecap="round" stroke-linejoin="round"/>
<path d="M76.4512 111.777H84.4603" stroke="#5E334F" stroke-width="0.363282" stroke-miterlimit="10" stroke-linecap="round" stroke-linejoin="round"/>
<path d="M74.1978 111.777H75.4454" stroke="#5E334F" stroke-width="0.363282" stroke-miterlimit="10" stroke-linecap="round" stroke-linejoin="round"/>
<path d="M121.987 100.322H104.924V117.413H121.987V100.322Z" fill="white"/>
<path d="M108.886 106.343C110.001 106.343 110.905 105.438 110.905 104.321C110.905 103.205 110.001 102.3 108.886 102.3C107.772 102.3 106.868 103.205 106.868 104.321C106.868 105.438 107.772 106.343 108.886 106.343Z" fill="#CEB2C7"/>
<path d="M139.05 100.322H121.987V117.413H139.05V100.322Z" fill="white"/>
<path d="M125.949 106.343C127.064 106.343 127.968 105.438 127.968 104.321C127.968 103.205 127.064 102.3 125.949 102.3C124.835 102.3 123.931 103.205 123.931 104.321C123.931 105.438 124.835 106.343 125.949 106.343Z" fill="#CEB2C7"/>
<path d="M156.114 100.322H139.051V117.413H156.114V100.322Z" fill="white"/>
<path d="M143.013 106.343C144.128 106.343 145.031 105.438 145.031 104.321C145.031 103.205 144.128 102.3 143.013 102.3C141.898 102.3 140.995 103.205 140.995 104.321C140.995 105.438 141.898 106.343 143.013 106.343Z" fill="#CEB2C7"/>
<path d="M53.734 134.506H40.3656C38.3251 134.506 36.6709 132.849 36.6709 130.806V117.416H53.734V134.506Z" fill="white"/>
<path d="M40.6335 123.433C41.7482 123.433 42.6518 122.528 42.6518 121.412C42.6518 120.295 41.7482 119.39 40.6335 119.39C39.5189 119.39 38.6152 120.295 38.6152 121.412C38.6152 122.528 39.5189 123.433 40.6335 123.433Z" fill="#CEB2C7"/>
<path d="M70.797 66.1396H53.7339V83.2299H70.797V66.1396Z" fill="white"/>
<path d="M57.6965 72.1602C58.8112 72.1602 59.7148 71.2552 59.7148 70.1387C59.7148 69.0223 58.8112 68.1172 57.6965 68.1172C56.5818 68.1172 55.6782 69.0223 55.6782 70.1387C55.6782 71.2552 56.5818 72.1602 57.6965 72.1602Z" fill="#CEB2C7"/>
<path d="M70.797 49.0498H53.7339V66.1401H70.797V49.0498Z" fill="white"/>
<path d="M57.6965 55.0704C58.8112 55.0704 59.7148 54.1653 59.7148 53.0489C59.7148 51.9324 58.8112 51.0273 57.6965 51.0273C56.5818 51.0273 55.6782 51.9324 55.6782 53.0489C55.6782 54.1653 56.5818 55.0704 57.6965 55.0704Z" fill="#CEB2C7"/>
<path d="M70.797 83.229H53.7339V100.319H70.797V83.229Z" fill="white"/>
<path d="M57.6965 89.2535C58.8112 89.2535 59.7148 88.3484 59.7148 87.232C59.7148 86.1155 58.8112 85.2104 57.6965 85.2104C56.5818 85.2104 55.6782 86.1155 55.6782 87.232C55.6782 88.3484 56.5818 89.2535 57.6965 89.2535Z" fill="#CEB2C7"/>
<path d="M70.797 100.322H53.7339V117.413H70.797V100.322Z" fill="white"/>
<path d="M57.6965 106.343C58.8112 106.343 59.7148 105.438 59.7148 104.321C59.7148 103.205 58.8112 102.3 57.6965 102.3C56.5818 102.3 55.6782 103.205 55.6782 104.321C55.6782 105.438 56.5818 106.343 57.6965 106.343Z" fill="#CEB2C7"/>
<path d="M70.797 117.416H53.7339V134.506H70.797V117.416Z" fill="white"/>
<path d="M57.6965 123.433C58.8112 123.433 59.7148 122.528 59.7148 121.412C59.7148 120.295 58.8112 119.39 57.6965 119.39C56.5818 119.39 55.6782 120.295 55.6782 121.412C55.6782 122.528 56.5818 123.433 57.6965 123.433Z" fill="#CEB2C7"/>
<path d="M87.861 117.416H70.7979V134.506H87.861V117.416Z" fill="white"/>
<path d="M74.76 123.433C75.8747 123.433 76.7783 122.528 76.7783 121.412C76.7783 120.295 75.8747 119.39 74.76 119.39C73.6453 119.39 72.7417 120.295 72.7417 121.412C72.7417 122.528 73.6453 123.433 74.76 123.433Z" fill="#CEB2C7"/>
<path d="M104.924 117.416H87.8608V134.506H104.924V117.416Z" fill="white"/>
<path d="M91.8235 123.433C92.9382 123.433 93.8418 122.528 93.8418 121.412C93.8418 120.295 92.9382 119.39 91.8235 119.39C90.7088 119.39 89.8052 120.295 89.8052 121.412C89.8052 122.528 90.7088 123.433 91.8235 123.433Z" fill="#CEB2C7"/>
<path d="M121.987 117.416H104.924V134.506H121.987V117.416Z" fill="white"/>
<path d="M108.886 123.433C110.001 123.433 110.905 122.528 110.905 121.412C110.905 120.295 110.001 119.39 108.886 119.39C107.772 119.39 106.868 120.295 106.868 121.412C106.868 122.528 107.772 123.433 108.886 123.433Z" fill="#CEB2C7"/>
<path d="M139.05 117.416H121.987V134.506H139.05V117.416Z" fill="white"/>
<path opacity="0.3" d="M136.367 133.207H124.67C123.902 133.207 123.279 132.584 123.279 131.814V122.804C123.279 122.034 123.902 121.411 124.67 121.411H136.367C137.135 121.411 137.758 122.034 137.758 122.804V131.814C137.758 132.584 137.135 133.207 136.367 133.207Z" fill="#FF7F6A"/>
<path d="M125.949 123.433C127.064 123.433 127.968 122.528 127.968 121.412C127.968 120.295 127.064 119.39 125.949 119.39C124.835 119.39 123.931 120.295 123.931 121.412C123.931 122.528 124.835 123.433 125.949 123.433Z" fill="#CEB2C7"/>
<path d="M127.641 126.125H135.649" stroke="#5E334F" stroke-width="0.363282" stroke-miterlimit="10" stroke-linecap="round" stroke-linejoin="round"/>
<path d="M125.387 126.125H126.635" stroke="#5E334F" stroke-width="0.363282" stroke-miterlimit="10" stroke-linecap="round" stroke-linejoin="round"/>
<path d="M152.404 134.506H139.051V117.416H156.114V130.791C156.114 132.843 154.453 134.506 152.404 134.506Z" fill="white"/>
<path d="M143.013 123.433C144.128 123.433 145.031 122.528 145.031 121.412C145.031 120.295 144.128 119.39 143.013 119.39C141.898 119.39 140.995 120.295 140.995 121.412C140.995 122.528 141.898 123.433 143.013 123.433Z" fill="#CEB2C7"/>
<path d="M104.924 66.1396H87.8608V83.2299H104.924V66.1396Z" fill="white"/>
<path opacity="0.3" d="M102.241 81.9384H90.5438C89.7757 81.9384 89.1528 81.3145 89.1528 80.5451V71.5348C89.1528 70.7654 89.7757 70.1416 90.5438 70.1416H102.241C103.009 70.1416 103.632 70.7654 103.632 71.5348V80.5451C103.632 81.3145 103.009 81.9384 102.241 81.9384Z" fill="#FF7F6A"/>
<path d="M91.8235 72.1602C92.9382 72.1602 93.8418 71.2552 93.8418 70.1387C93.8418 69.0223 92.9382 68.1172 91.8235 68.1172C90.7088 68.1172 89.8052 69.0223 89.8052 70.1387C89.8052 71.2552 90.7088 72.1602 91.8235 72.1602Z" fill="#CEB2C7"/>
<path d="M93.5151 74.8525H101.524" stroke="#5E334F" stroke-width="0.363282" stroke-miterlimit="10" stroke-linecap="round" stroke-linejoin="round"/>
<path d="M91.2612 74.8525H92.5089" stroke="#5E334F" stroke-width="0.363282" stroke-miterlimit="10" stroke-linecap="round" stroke-linejoin="round"/>
<path d="M121.987 66.1396H104.924V83.2299H121.987V66.1396Z" fill="white"/>
<path opacity="0.3" d="M119.304 81.9384H107.607C106.839 81.9384 106.216 81.3145 106.216 80.5451V71.5348C106.216 70.7654 106.839 70.1416 107.607 70.1416H119.304C120.072 70.1416 120.695 70.7654 120.695 71.5348V80.5451C120.695 81.3145 120.072 81.9384 119.304 81.9384Z" fill="#FF7F6A"/>
<path d="M108.886 72.1602C110.001 72.1602 110.905 71.2552 110.905 70.1387C110.905 69.0223 110.001 68.1172 108.886 68.1172C107.772 68.1172 106.868 69.0223 106.868 70.1387C106.868 71.2552 107.772 72.1602 108.886 72.1602Z" fill="#CEB2C7"/>
<path d="M110.578 74.8525H118.586" stroke="#5E334F" stroke-width="0.363282" stroke-miterlimit="10" stroke-linecap="round" stroke-linejoin="round"/>
<path d="M108.324 74.8525H109.571" stroke="#5E334F" stroke-width="0.363282" stroke-miterlimit="10" stroke-linecap="round" stroke-linejoin="round"/>
<path d="M104.924 100.322H87.8608V117.413H104.924V100.322Z" fill="white"/>
<path opacity="0.7" d="M102.241 116.118H90.5438C89.7757 116.118 89.1528 115.494 89.1528 114.724V105.714C89.1528 104.945 89.7757 104.321 90.5438 104.321H102.241C103.009 104.321 103.632 104.945 103.632 105.714V114.724C103.632 115.494 103.009 116.118 102.241 116.118Z" fill="#FDE1D1"/>
<path d="M91.8235 106.343C92.9382 106.343 93.8418 105.438 93.8418 104.321C93.8418 103.205 92.9382 102.3 91.8235 102.3C90.7088 102.3 89.8052 103.205 89.8052 104.321C89.8052 105.438 90.7088 106.343 91.8235 106.343Z" fill="#CEB2C7"/>
<path d="M87.861 66.1396H70.7979V83.2299H87.861V66.1396Z" fill="white"/>
<path opacity="0.3" d="M85.1777 81.9384H73.4809C72.7127 81.9384 72.0898 81.3145 72.0898 80.5451V71.5348C72.0898 70.7654 72.7127 70.1416 73.4809 70.1416H85.1777C85.9459 70.1416 86.5687 70.7654 86.5687 71.5348V80.5451C86.5687 81.3145 85.9459 81.9384 85.1777 81.9384Z" fill="#FF7F6A"/>
<path d="M74.76 72.1602C75.8747 72.1602 76.7783 71.2552 76.7783 70.1387C76.7783 69.0223 75.8747 68.1172 74.76 68.1172C73.6453 68.1172 72.7417 69.0223 72.7417 70.1387C72.7417 71.2552 73.6453 72.1602 74.76 72.1602Z" fill="#CEB2C7"/>
<path d="M76.4517 74.8525H84.4608" stroke="#5E334F" stroke-width="0.363282" stroke-miterlimit="10" stroke-linecap="round" stroke-linejoin="round"/>
<path d="M74.1978 74.8525H75.4454" stroke="#5E334F" stroke-width="0.363282" stroke-miterlimit="10" stroke-linecap="round" stroke-linejoin="round"/>
<path d="M76.4517 74.8525H84.4608" stroke="#5E334F" stroke-width="0.363282" stroke-miterlimit="10" stroke-linecap="round" stroke-linejoin="round"/>
<path d="M74.1978 74.8525H75.4454" stroke="#5E334F" stroke-width="0.363282" stroke-miterlimit="10" stroke-linecap="round" stroke-linejoin="round"/>
<path d="M76.4517 77.5923H84.4608" stroke="#5E334F" stroke-width="0.363282" stroke-miterlimit="10" stroke-linecap="round" stroke-linejoin="round"/>
<path d="M74.1982 77.5923H75.4459" stroke="#5E334F" stroke-width="0.363282" stroke-miterlimit="10" stroke-linecap="round" stroke-linejoin="round"/>
<path d="M76.4512 80.335H84.4603" stroke="#5E334F" stroke-width="0.363282" stroke-miterlimit="10" stroke-linecap="round" stroke-linejoin="round"/>
<path d="M74.1978 80.335H75.4454" stroke="#5E334F" stroke-width="0.363282" stroke-miterlimit="10" stroke-linecap="round" stroke-linejoin="round"/>
<path d="M36.6709 66.1357H156.114" stroke="#FF7F6A" stroke-width="0.363282" stroke-miterlimit="10"/>
<path d="M36.6709 83.2261H156.114" stroke="#FF7F6A" stroke-width="0.363282" stroke-miterlimit="10"/>
<path d="M53.7339 49.0449V134.515" stroke="#FF7F6A" stroke-width="0.363282" stroke-miterlimit="10"/>
<path d="M70.7979 49.0449V134.515" stroke="#FF7F6A" stroke-width="0.363282" stroke-miterlimit="10"/>
<path d="M87.8608 49.0449V134.515" stroke="#FF7F6A" stroke-width="0.363282" stroke-miterlimit="10"/>
<path d="M104.924 49.0449V134.515" stroke="#FF7F6A" stroke-width="0.363282" stroke-miterlimit="10"/>
<path d="M121.987 49.0449V134.515" stroke="#FF7F6A" stroke-width="0.363282" stroke-miterlimit="10"/>
<path d="M139.051 49.0449V134.515" stroke="#FF7F6A" stroke-width="0.363282" stroke-miterlimit="10"/>
<path d="M36.6709 100.317H156.114" stroke="#FF7F6A" stroke-width="0.363282" stroke-miterlimit="10"/>
<path d="M36.6709 117.404H156.114" stroke="#FF7F6A" stroke-width="0.363282" stroke-miterlimit="10"/>
<path opacity="0.6" d="M58.2832 33.5825V40.9388C58.2832 42.4707 59.5228 43.7123 61.0523 43.7123H61.1205C62.65 43.7123 63.8896 42.4707 63.8896 40.9388V33.5825H58.2832Z" fill="#FFE1D0"/>
<path d="M61.1098 42.0238H61.063C60.0147 42.0238 59.1646 41.1728 59.1646 40.1224V31.3551C59.1646 30.3051 60.0143 29.4536 61.063 29.4536H61.1098C62.1581 29.4536 63.0082 30.3047 63.0082 31.3551V40.1224C63.0082 41.1723 62.1581 42.0238 61.1098 42.0238Z" fill="#F1BA68"/>
<path opacity="0.5" d="M61.1098 40.4527H61.063C60.0147 40.4527 59.1646 39.6016 59.1646 38.5513V40.1228C59.1646 41.1728 60.0143 42.0242 61.063 42.0242H61.1098C62.1581 42.0242 63.0082 41.1732 63.0082 40.1228V38.5513C63.0082 39.6012 62.1581 40.4527 61.1098 40.4527Z" fill="#F1BA68"/>
<path opacity="0.6" d="M128.981 33.5825V40.9388C128.981 42.4707 130.221 43.7123 131.75 43.7123H131.818C133.348 43.7123 134.587 42.4707 134.587 40.9388V33.5825H128.981Z" fill="#FFE1D0"/>
<path d="M131.808 42.0238H131.761C130.712 42.0238 129.862 41.1728 129.862 40.1224V31.3551C129.862 30.3051 130.712 29.4536 131.761 29.4536H131.808C132.856 29.4536 133.706 30.3047 133.706 31.3551V40.1224C133.706 41.1723 132.856 42.0238 131.808 42.0238Z" fill="#F1BA68"/>
<path opacity="0.5" d="M131.808 40.4527H131.761C130.712 40.4527 129.862 39.6016 129.862 38.5513V40.1228C129.862 41.1728 130.712 42.0242 131.761 42.0242H131.808C132.856 42.0242 133.706 41.1732 133.706 40.1228V38.5513C133.706 39.6012 132.856 40.4527 131.808 40.4527Z" fill="#F1BA68"/>
<g opacity="0.3">
<path opacity="0.7" d="M100.375 119.778C100.377 119.762 100.38 119.747 100.382 119.732C100.382 119.727 100.38 119.721 100.376 119.719C100.369 119.715 100.361 119.716 100.357 119.723L100.353 119.728C100.342 119.746 100.334 119.763 100.323 119.78C100.317 119.781 100.31 119.782 100.31 119.782C100.391 117.748 98.5 117.853 98.5 117.853C98.4967 117.843 98.4931 117.836 98.4899 117.826C98.4882 117.807 98.4882 117.787 98.4866 117.768C98.4862 117.763 98.4826 117.758 98.4773 117.756C98.4725 117.755 98.4693 117.759 98.4661 117.762C97.9857 116.365 97.0302 116.606 96.7057 116.621C96.8127 116.307 96.9011 115.986 96.9527 115.657C96.9535 115.652 96.9511 115.646 96.9455 115.643C96.943 115.642 96.941 115.645 96.9386 115.645C97.1687 115.024 97.4739 114.186 97.7124 113.482C98.2868 111.786 96.5321 110.446 95.3575 113.328C95.1104 113.934 91.5562 121.251 91.2849 121.378C91.0137 121.505 90.3981 120.78 89.6239 118.518C88.9094 116.43 87.4921 117.882 87.7388 119.198C87.9672 120.417 88.6991 124.284 88.8056 124.848C88.8032 124.847 88.8008 124.846 88.7984 124.846C88.8073 124.892 88.8125 124.919 88.8125 124.919C88.7124 125.148 88.6091 125.37 88.5049 125.592C88.4734 125.659 88.4428 125.728 88.4109 125.794C88.3564 125.908 88.2995 126.019 88.2438 126.131C87.2483 125.743 86.6323 125.553 86.6323 125.553C84.2479 128.329 84.5555 130.289 84.5555 130.289C84.7351 130.52 84.9406 130.751 85.163 130.981C85.0912 131.071 85.0197 131.166 84.9475 131.254C84.9402 131.263 84.9325 131.272 84.9253 131.281C84.7331 131.514 84.5402 131.74 84.3464 131.959C83.4632 132.959 82.5711 133.806 81.7178 134.504H97.2066C97.9623 133.13 98.0281 131.846 98.0281 131.846C97.6159 131.488 97.1933 131.147 96.765 130.82C98.8879 127.524 100.579 124.539 101.12 122.769C101.996 119.903 100.684 119.771 100.375 119.778Z" fill="#FFE1D0"/>
<path opacity="0.7" d="M71.8781 132.95C71.7716 132.859 71.6634 132.763 71.556 132.669C70.3612 131.628 69.0957 130.455 67.8185 129.23C67.4322 128.859 67.0447 128.484 66.6584 128.106C66.6435 128.092 66.6289 128.077 66.614 128.063C64.6187 126.114 62.6484 124.113 60.9337 122.373C60.7973 122.234 60.6641 122.099 60.5308 121.965C58.4794 118.362 56.9899 115.664 56.0922 113.198C56.0098 112.972 55.9328 112.748 55.8605 112.526C55.8242 112.413 55.7927 112.302 55.7584 112.191C67.8932 113.732 65.2198 101.505 65.2198 101.505C65.2198 101.505 67.146 100.721 66.1308 99.1885C65.0962 97.6263 64.3301 96.8282 63.9349 95.0715C63.8542 94.7133 63.8001 94.292 63.7634 93.8505C63.6887 92.957 63.6895 91.9774 63.7072 91.2383C63.8752 91.1166 64.0435 90.9905 64.211 90.855C64.536 90.5926 64.8569 90.3048 65.1628 89.9898C65.7744 89.3599 66.325 88.6233 66.7222 87.7714C67.1198 86.92 67.364 85.9537 67.364 84.8653C67.364 84.7844 67.3559 84.6987 67.3434 84.611C67.3394 84.5843 67.3337 84.5564 67.3285 84.5289C67.3168 84.4646 67.3027 84.3991 67.2849 84.3316C67.2768 84.3005 67.2683 84.2693 67.2587 84.2378C67.2369 84.1646 67.211 84.0894 67.1824 84.013C67.1731 83.9884 67.165 83.9641 67.1553 83.939C67.1137 83.8351 67.0673 83.7288 67.014 83.6192C67.0092 83.6087 67.0027 83.5978 66.9975 83.5877C66.9482 83.4886 66.8941 83.3872 66.8356 83.2837C66.8195 83.2549 66.8017 83.2258 66.7848 83.1967C66.7319 83.1066 66.6758 83.0148 66.616 82.9218C66.5979 82.8939 66.5805 82.866 66.5615 82.8377C66.4856 82.7221 66.4053 82.6052 66.3193 82.4864C66.3173 82.4835 66.3153 82.4807 66.3133 82.4779C66.2176 82.3461 66.1159 82.2122 66.0085 82.0764C66.0061 82.0732 66.0033 82.0699 66.0004 82.0667C65.8999 81.9401 65.7934 81.812 65.6828 81.6826C65.6674 81.6648 65.6517 81.6466 65.6363 81.6288C65.5294 81.5051 65.4184 81.3806 65.3025 81.2549C65.2932 81.2447 65.2843 81.2346 65.2751 81.2245C64.8859 80.8041 64.448 80.3747 63.9676 79.9441C63.9595 79.9368 63.9515 79.93 63.9434 79.9227C63.4574 79.4885 62.9286 79.0542 62.3606 78.6273L62.3602 78.6269C56.0365 73.8723 44.9766 70.1017 36.6709 79.1363V130.664C36.6709 132.784 38.3865 134.502 40.5024 134.502H73.7677C73.169 134.038 72.5357 133.516 71.8781 132.95Z" fill="#FFE1D0"/>
</g>
<path opacity="0.2" d="M152.282 33.5825H150.085V124.838C150.085 126.957 148.369 128.676 146.253 128.676H36.6709V130.66C36.6709 132.779 38.3865 134.497 40.5024 134.497H152.282C154.398 134.497 156.113 132.779 156.113 130.66V37.4202C156.114 35.3008 154.398 33.5825 152.282 33.5825Z" fill="#FFE1D0"/>
<path d="M163.433 139.93C170.867 132.484 170.867 120.412 163.433 112.967C155.999 105.521 143.946 105.521 136.512 112.967C129.079 120.412 129.079 132.484 136.512 139.93C143.946 147.376 155.999 147.376 163.433 139.93Z" fill="#F1BA68"/>
<path opacity="0.7" d="M164.806 141.764C172.24 134.318 172.24 122.246 164.806 114.801C157.373 107.355 145.32 107.355 137.886 114.801C130.452 122.246 130.452 134.318 137.886 141.764C145.32 149.21 157.373 149.21 164.806 141.764Z" fill="#D7F6F9"/>
<path d="M163.433 139.93C170.867 132.484 170.867 120.412 163.433 112.967C155.999 105.521 143.946 105.521 136.512 112.967C129.079 120.412 129.079 132.484 136.512 139.93C143.946 147.376 155.999 147.376 163.433 139.93Z" fill="#495659"/>
<path opacity="0.5" d="M149.975 108.122C160.364 108.122 168.803 116.459 169.001 126.817C169.004 126.693 169.011 126.57 169.011 126.446C169.011 115.916 160.488 107.38 149.975 107.38C139.462 107.38 130.939 115.916 130.939 126.446C130.939 126.571 130.946 126.693 130.948 126.817C131.146 116.459 139.586 108.122 149.975 108.122Z" fill="white"/>
<path opacity="0.5" d="M149.975 143.871C159.581 143.871 167.368 136.071 167.368 126.45C167.368 116.83 159.581 109.03 149.975 109.03C140.369 109.03 132.583 116.83 132.583 126.45C132.583 136.071 140.369 143.871 149.975 143.871Z" fill="#F1BA68"/>
<path d="M149.975 143.072C159.139 143.072 166.569 135.631 166.569 126.452C166.569 117.273 159.139 109.832 149.975 109.832C140.811 109.832 133.381 117.273 133.381 126.452C133.381 135.631 140.811 143.072 149.975 143.072Z" fill="white"/>
<path opacity="0.2" d="M149.975 141.129C141.135 141.129 133.913 134.205 133.412 125.478C133.393 125.798 133.381 126.121 133.381 126.446C133.381 135.625 140.811 143.066 149.975 143.066C159.139 143.066 166.569 135.625 166.569 126.446C166.569 126.121 166.557 125.799 166.538 125.478C166.037 134.205 158.814 141.129 149.975 141.129Z" fill="#FFE1D0"/>
<path d="M149.975 110.841V111.768" stroke="#5E334F" stroke-width="0.363282" stroke-miterlimit="10" stroke-linecap="round" stroke-linejoin="round"/>
<path d="M149.975 141.135V142.063" stroke="#5E334F" stroke-width="0.363282" stroke-miterlimit="10" stroke-linecap="round" stroke-linejoin="round"/>
<path d="M165.56 126.454H164.635" stroke="#5E334F" stroke-width="0.363282" stroke-miterlimit="10" stroke-linecap="round" stroke-linejoin="round"/>
<path d="M135.315 126.454H134.39" stroke="#5E334F" stroke-width="0.363282" stroke-miterlimit="10" stroke-linecap="round" stroke-linejoin="round"/>
<path d="M155.898 123.45L149.987 126.022L144.428 116.557L149.832 127.016L155.898 123.45Z" fill="#FF7F6A"/>
<path d="M150.716 126.454C150.716 126.863 150.384 127.196 149.975 127.196C149.566 127.196 149.234 126.863 149.234 126.454C149.234 126.044 149.566 125.712 149.975 125.712C150.384 125.712 150.716 126.044 150.716 126.454Z" fill="#5E334F"/>
<path d="M64.8251 188.5C65.5017 178.858 64.5587 171.302 59.0257 166.064L21.7045 164.743C21.7045 164.743 13.2834 172.564 15.9584 188.5H64.8251Z" fill="#F2935C" fill-opacity="0.71"/>
<path d="M64.1579 170.677C64.1579 170.677 56.5723 163.376 60.2521 147.329C60.7647 145.092 64.8478 140.513 65.3249 135.722C65.802 130.93 54.4216 115.57 52.2838 112.53C48.5229 107.182 31.2689 110.359 31.2689 110.359C31.2689 110.359 24.7712 115.641 26.6756 134.506C27.42 141.882 27.443 149.472 26.9824 152.703C26.5214 155.934 20.5444 165.7 20.5444 165.7C20.5444 165.7 35.6373 183.429 64.1579 170.677Z" fill="#F2935C"/>
<g opacity="0.5">
<path d="M27.1634 150.849C27.1541 150.985 27.1449 151.118 27.1348 151.248H59.5491C59.5661 151.116 59.5858 150.982 59.6044 150.849H27.1634Z" fill="white"/>
<path d="M25.2922 157.134C25.2276 157.266 25.1614 157.4 25.0952 157.534H59.2994C59.2917 157.402 59.2869 157.267 59.2808 157.134H25.2922Z" fill="white"/>
<path d="M25.3369 169.708C25.5367 169.841 25.7438 169.975 25.9557 170.108H63.6503C63.5563 169.994 63.4505 169.859 63.3375 169.708H25.3369Z" fill="white"/>
<path d="M27.271 144.56C27.2734 144.694 27.2754 144.826 27.2771 144.959H61.3589C61.4348 144.828 61.5094 144.697 61.5898 144.56H27.271Z" fill="white"/>
<path d="M21.8951 163.423C21.8152 163.561 21.7373 163.694 21.6626 163.823H60.4168C60.3752 163.69 60.3332 163.56 60.2933 163.423H21.8951Z" fill="white"/>
<path d="M26.4688 131.985C26.4776 132.119 26.4853 132.25 26.495 132.385H64.6046C64.5533 132.253 64.5037 132.122 64.448 131.985H26.4688Z" fill="white"/>
<path d="M26.9932 138.274C27.0024 138.408 27.0117 138.541 27.0206 138.674H64.6147C64.6627 138.541 64.7116 138.409 64.756 138.274H26.9932Z" fill="white"/>
<path d="M29.2627 113.125C29.1936 113.254 29.1246 113.385 29.0552 113.525H52.9898C52.8881 113.383 52.7924 113.25 52.704 113.125H29.2627Z" fill="white"/>
<path d="M27.1101 119.411C27.0835 119.542 27.0581 119.677 27.0322 119.811H57.385C57.2942 119.676 57.2042 119.544 57.1142 119.411H27.1101Z" fill="white"/>
<path d="M26.3758 125.7C26.3701 125.832 26.3653 125.965 26.3608 126.1H61.3969C61.3182 125.967 61.2375 125.833 61.1576 125.7H26.3758Z" fill="white"/>
</g>
<path opacity="0.4" d="M64.1578 170.681C64.1578 170.681 56.5722 163.38 60.252 147.332C60.7646 145.096 64.8477 140.516 65.3248 135.725C65.4846 134.118 64.3076 131.319 62.5948 128.197C55.5925 128.496 48.9661 129.625 54.0942 133.166C63.4175 139.605 60.8801 144.068 59.2998 144.562C57.7198 145.055 54.214 144.562 56.0777 146.055C57.9414 147.548 58.6579 152.136 55.9837 151.249C53.3094 150.362 50.2327 151.249 54.3569 155.474C58.4811 159.698 58.0097 166.045 43.9615 166.622C32.9565 167.074 25.5364 163.391 22.8371 161.774C21.5882 163.995 20.5439 165.703 20.5439 165.703C20.5439 165.703 35.6372 183.433 64.1578 170.681Z" fill="#F2935C"/>
<path d="M98.6956 117.349C98.7763 115.315 96.886 115.421 96.886 115.421C96.291 113.506 94.8415 114.445 94.9892 114.108C94.9892 114.108 95.6585 112.349 96.0985 111.05C96.6729 109.353 94.9186 108.014 93.7435 110.896C93.4965 111.502 89.9422 118.818 89.671 118.945C89.3997 119.072 88.7841 118.348 88.0099 116.085C87.2954 113.998 85.8782 115.45 86.1248 116.765C86.3715 118.081 87.2054 122.487 87.2054 122.487C84.2212 129.305 79.2533 133.292 76.5855 134.222C73.9177 135.152 63.1905 123.821 57.5093 118.112C51.8282 112.403 43.6957 122.323 48.8553 127.81C54.0149 133.298 62.7775 141.957 70.4838 146.564C77.5595 150.793 84.4355 143.322 88.1895 138.33C92.7279 132.295 98.4231 123.879 99.5057 120.336C100.494 117.104 98.6956 117.349 98.6956 117.349Z" fill="#FFEBDF"/>
<path opacity="0.4" d="M87.1986 122.49C85.2449 126.954 82.4434 130.195 79.9912 132.168C82.2142 133.694 85.3224 135.622 88.9505 137.304C91.3353 134.084 93.9389 130.345 95.9846 127.063C92.5394 124.481 89.2532 123.103 87.184 122.416C87.1933 122.462 87.1986 122.49 87.1986 122.49Z" fill="#FFEBDF"/>
<path d="M93.9782 116.383C94.1162 115.794 94.3387 115.278 94.5635 114.761C94.7976 114.246 95.0261 113.753 95.3103 113.222L95.3127 113.218C95.3163 113.211 95.3248 113.208 95.3317 113.212C95.3369 113.215 95.3397 113.221 95.3389 113.227C95.2489 113.799 95.0552 114.348 94.8275 114.878C94.5865 115.403 94.312 115.912 94.0028 116.399C93.9988 116.405 93.9899 116.407 93.9834 116.403C93.9782 116.4 93.9762 116.394 93.9774 116.388L93.9782 116.383Z" fill="#9B717B"/>
<path d="M95.946 117.65C96.0825 117.461 96.1737 117.272 96.2645 117.097C96.3485 116.916 96.4231 116.739 96.4837 116.553C96.5519 116.369 96.5967 116.175 96.6561 115.975C96.7065 115.773 96.765 115.564 96.8438 115.338L96.8458 115.332C96.8482 115.324 96.8563 115.321 96.8631 115.323C96.8684 115.325 96.872 115.329 96.8724 115.335C96.8906 115.554 96.8991 115.775 96.8817 115.995C96.8623 116.214 96.8264 116.434 96.7566 116.645C96.6088 117.061 96.3465 117.451 95.9585 117.676C95.9521 117.68 95.944 117.678 95.9404 117.671C95.9375 117.666 95.9379 117.661 95.9412 117.657L95.946 117.65Z" fill="#9B717B"/>
<path d="M97.9007 119.389C97.9899 119.202 98.0335 119.022 98.0961 118.854L98.264 118.345C98.39 118.006 98.5022 117.658 98.7383 117.299L98.742 117.293C98.746 117.286 98.7545 117.285 98.7609 117.289C98.7654 117.292 98.7674 117.297 98.767 117.302C98.727 117.686 98.6596 118.07 98.5361 118.439C98.4719 118.623 98.3916 118.801 98.2923 118.969C98.1918 119.135 98.0771 119.296 97.9157 119.413C97.91 119.417 97.9019 119.416 97.8975 119.411C97.8947 119.407 97.8943 119.402 97.8963 119.397L97.9007 119.389Z" fill="#9B717B"/>
<path d="M85.1573 126.313C82.2808 130.806 78.7068 133.486 76.5855 134.225C73.9177 135.156 63.1905 123.824 57.5093 118.116C51.8282 112.407 43.6957 122.326 48.8553 127.814C54.0149 133.302 62.7775 141.961 70.4838 146.568C77.5596 150.797 84.4355 143.326 88.1895 138.334C89.7505 136.258 91.4483 133.9 93.048 131.557L85.1573 126.313Z" fill="#F2935C"/>
<g opacity="0.5">
<path d="M65.2571 125.888C65.1522 125.787 65.0476 125.684 64.9431 125.582L60.1855 138.828C60.2929 138.922 60.4011 139.015 60.5089 139.109L65.2571 125.888Z" fill="white"/>
<path d="M60.3464 120.989C60.2419 120.883 60.1385 120.778 60.0356 120.673L55.1719 134.216C55.2764 134.317 55.3818 134.418 55.4875 134.519L60.3464 120.989Z" fill="white"/>
<path d="M55.2336 116.649C55.1057 116.606 54.9773 116.57 54.8494 116.538L50.2666 129.298C50.3687 129.404 50.4717 129.511 50.5758 129.619L55.2336 116.649Z" fill="white"/>
<path d="M70.2642 130.523C70.1576 130.431 70.049 130.336 69.9408 130.242L65.3403 143.051C65.4517 143.136 65.5631 143.218 65.6746 143.302L70.2642 130.523Z" fill="white"/>
<path d="M90.5112 129.872L90.1689 129.645L86.125 140.903C86.3801 140.608 86.6263 140.314 86.8653 140.023L90.5112 129.872Z" fill="white"/>
<path d="M85.0709 126.441C84.7822 126.886 84.4868 127.312 84.1873 127.721L77.082 147.504C77.2407 147.461 77.3985 147.417 77.5555 147.366L85.0709 126.441Z" fill="white"/>
<path d="M75.6232 134.174C75.5037 134.138 75.3782 134.092 75.2474 134.039L70.7046 146.687C70.8229 146.754 70.9411 146.821 71.059 146.881L75.6232 134.174Z" fill="white"/>
</g>
<path opacity="0.4" d="M82.6966 129.573C85.3309 132.689 89.0135 134.041 89.0135 134.041C89.0135 134.041 82.3592 142.959 76.3414 144.565C71.1689 145.946 63.4077 141.539 63.4077 141.539C65.778 143.45 68.1782 145.191 70.4839 146.569C77.5596 150.799 84.4356 143.327 88.1896 138.335C89.7506 136.26 91.4484 133.902 93.0481 131.558L85.1573 126.314C84.3746 127.537 83.5395 128.621 82.6966 129.573Z" fill="#F2935C"/>
<path d="M85.018 123.125C85.018 123.125 91.4527 125.101 96.4137 129.418C96.4137 129.418 96.247 132.95 93.0145 134.567C93.0145 134.567 85.5375 131.192 82.9412 127.861C82.9412 127.861 82.6336 125.901 85.018 123.125Z" fill="#F2935C"/>
<path d="M84.0742 128.039C84.4311 125.493 85.9101 124.441 85.9101 124.441" stroke="#F2935C" stroke-width="0.346232" stroke-miterlimit="10" stroke-linecap="round" stroke-linejoin="round"/>
<path d="M85.4087 129.255C85.4087 129.255 85.7934 126.369 87.7544 124.862" stroke="#F2935C" stroke-width="0.346232" stroke-miterlimit="10" stroke-linecap="round" stroke-linejoin="round"/>
<path d="M87.0732 130.457C87.0732 130.457 87.6182 127.265 89.6773 125.765" stroke="#F2935C" stroke-width="0.346232" stroke-miterlimit="10" stroke-linecap="round" stroke-linejoin="round"/>
<path d="M88.5991 131.602C88.5991 131.602 90.506 129.092 91.2415 126.664" stroke="#F2935C" stroke-width="0.346232" stroke-miterlimit="10" stroke-linecap="round" stroke-linejoin="round"/>
<path d="M90.3149 132.803C90.3149 132.803 92.567 131.047 93.0481 128.037" stroke="#F2935C" stroke-width="0.346232" stroke-miterlimit="10" stroke-linecap="round" stroke-linejoin="round"/>
<path d="M92.3584 133.597C92.3584 133.597 94.5103 132.288 94.9188 129.45" stroke="#F2935C" stroke-width="0.346232" stroke-miterlimit="10" stroke-linecap="round" stroke-linejoin="round"/>
<path d="M95.2271 107.002L97.8246 102.037" stroke="#5E334F" stroke-width="0.346232" stroke-miterlimit="10" stroke-linecap="round" stroke-linejoin="round"/>
<path d="M96.7222 108.276L100.125 105.173" stroke="#5E334F" stroke-width="0.346232" stroke-miterlimit="10" stroke-linecap="round" stroke-linejoin="round"/>
<path d="M97.5552 109.918L100.735 108.93" stroke="#5E334F" stroke-width="0.346232" stroke-miterlimit="10" stroke-linecap="round" stroke-linejoin="round"/>
<path opacity="0.5" d="M57.5093 118.115C56.7693 117.372 55.9875 116.896 55.1991 116.638C53.8816 114.759 52.8058 113.278 52.2835 112.535C48.5226 107.187 31.2685 110.364 31.2685 110.364C31.2685 110.364 24.7708 115.646 26.6753 134.511C27.0329 138.054 27.2234 141.644 27.2747 144.779C31.2205 145.788 40.2382 146.748 48.9896 144.963C60.1242 142.691 69.131 137.441 66.2049 126.803C63.0608 123.787 59.8549 120.472 57.5093 118.115Z" fill="#F2935C"/>
<path d="M64.5165 96.7617C63.482 95.1995 62.7158 94.4014 62.3206 92.6447C61.9254 90.888 62.1406 87.6451 62.1406 87.6451C47.5983 86.9513 33.7928 104.003 50.0171 108.856C66.8453 113.89 63.6051 99.0784 63.6051 99.0784C63.6051 99.0784 65.5313 98.2944 64.5165 96.7617Z" fill="#FFEBDF"/>
<path opacity="0.7" d="M62.1403 87.644C59.0019 87.4945 55.8981 88.1725 53.1226 89.3749C55.2769 91.0515 57.386 92.1832 57.386 92.1832C57.386 92.1832 59.6086 92.3028 62.1488 91.4251C62.0047 89.6999 62.1403 87.644 62.1403 87.644Z" fill="#FFEBDF"/>
<path d="M54.814 98.4154C54.814 98.4154 59.0993 98.9381 58.9225 90.6184C58.9225 90.6184 65.882 88.29 65.8808 82.485C65.8796 78.0102 46.5297 62.5743 34.2342 77.8578C34.2342 77.8578 26.664 78.706 26.8226 90.2161C26.8949 95.462 25.6791 106.08 19.0675 117.953C13.0388 128.778 19.0675 140.194 28.3735 142.406C43.4308 145.987 70.6964 140.194 61.5826 124.04C54.3466 111.216 51.8588 108.354 54.814 98.4154Z" fill="#263238"/>
<g opacity="0.4">
<path d="M49.8963 103.332C49.8325 104.819 49.8599 106.309 49.9261 107.794C49.9851 109.28 50.0977 110.764 50.2612 112.241C50.595 115.193 51.1028 118.13 51.9129 120.987C52.3146 122.415 52.7695 123.829 53.3258 125.204C53.8848 126.578 54.525 127.917 55.252 129.21C55.9948 130.493 56.8319 131.721 57.7713 132.87C58.7243 134.007 59.7815 135.056 60.9343 135.998C59.7532 135.094 58.6589 134.075 57.6639 132.961C56.6963 131.824 55.8329 130.601 55.0607 129.322C53.547 126.742 52.4462 123.937 51.6356 121.065C50.8436 118.184 50.3298 115.233 50.042 112.264C49.7651 109.294 49.6872 106.304 49.8963 103.332Z" fill="white"/>
<path d="M45.7249 110.566C45.5323 111.885 45.3939 113.21 45.3014 114.539C45.2574 115.203 45.2167 115.867 45.186 116.532C45.1707 117.197 45.1396 117.862 45.1372 118.527C45.1053 121.188 45.232 123.851 45.5493 126.491C45.6655 127.816 45.9098 129.125 46.1059 130.439C46.3857 131.739 46.6081 133.052 46.9661 134.334C47.1365 134.976 47.2826 135.626 47.4735 136.263L48.0794 138.164C48.1824 138.481 48.2671 138.804 48.3854 139.115L48.741 140.048L49.4527 141.916C48.3915 139.474 47.4009 136.984 46.7518 134.39L46.4842 133.424C46.3929 133.103 46.3393 132.772 46.265 132.447L45.848 130.487C45.6421 129.168 45.3874 127.854 45.2631 126.523C44.9684 123.868 44.8368 121.193 44.9164 118.523C44.9317 117.855 44.9761 117.189 45.0048 116.522C45.0496 115.856 45.1012 115.191 45.1618 114.526C45.3006 113.199 45.4863 111.877 45.7249 110.566Z" fill="white"/>
<path d="M35.1499 143.376C35.6056 142.356 35.9875 141.304 36.3472 140.248C36.5248 139.719 36.708 139.192 36.8675 138.657C37.0374 138.125 37.1957 137.59 37.3418 137.052C37.9432 134.903 38.4619 132.731 38.8583 130.535C39.2523 128.339 39.5942 126.131 39.7916 123.907C40.0261 121.686 40.1303 119.455 40.209 117.219C40.2045 118.337 40.2316 119.456 40.2009 120.575C40.1436 121.692 40.1238 122.813 40.0128 123.927L39.8675 125.601L39.6572 127.267C39.5938 127.824 39.5102 128.378 39.4166 128.93C39.3242 129.482 39.2458 130.037 39.1421 130.588C38.7203 132.788 38.2036 134.971 37.5541 137.114C36.9002 139.255 36.1389 141.369 35.1499 143.376Z" fill="white"/>
<path d="M24.4067 140.821C25.6952 139.781 26.7855 138.521 27.7712 137.2C28.2908 136.558 28.7227 135.851 29.1933 135.174C29.637 134.478 30.0406 133.757 30.4657 133.051C32.0686 130.163 33.2966 127.079 34.2779 123.929C35.3237 120.793 35.951 117.538 36.5416 114.288C36.7894 112.654 36.9836 111.011 37.2016 109.371L37.6101 104.422L37.3424 109.384C37.1531 111.03 36.9828 112.679 36.7612 114.322L36.3321 116.772L36.1137 117.997C36.0386 118.404 35.9268 118.805 35.8352 119.209L35.2567 121.629C35.0517 122.432 34.7857 123.22 34.5523 124.016C33.5436 127.173 32.312 130.278 30.6578 133.16C30.2186 133.864 29.8017 134.582 29.3447 135.274C28.8599 135.948 28.4171 136.651 27.8814 137.286C26.8549 138.584 25.7247 139.818 24.4067 140.821Z" fill="white"/>
<path d="M18.1636 134.072C19.138 133.447 20.0051 132.672 20.8164 131.854C21.6427 131.049 22.3842 130.162 23.0955 129.256C24.5031 127.428 25.6955 125.443 26.7192 123.377L27.4716 121.819L28.1332 120.219C28.6047 119.163 28.9151 118.047 29.3167 116.964C29.6804 115.868 29.9638 114.746 30.2932 113.637L31.0884 110.257L30.4304 113.671L29.9916 115.354C29.8346 115.912 29.7216 116.484 29.5282 117.031L28.9841 118.685C28.8892 118.959 28.8077 119.238 28.7011 119.508L28.3766 120.316L27.7231 121.931L26.9767 123.506C25.9248 125.575 24.7255 127.58 23.2687 129.393C21.8058 131.187 20.1532 132.876 18.1636 134.072Z" fill="white"/>
<path d="M16.6792 126.214C17.5777 125.457 18.3774 124.593 19.1383 123.703C19.5133 123.253 19.8944 122.808 20.2391 122.334L20.7687 121.633L21.2632 120.907C22.5795 118.97 23.711 116.911 24.66 114.77L25.324 113.144C25.4301 112.871 25.5533 112.604 25.6461 112.327L25.9258 111.494C26.1075 110.937 26.3097 110.386 26.4748 109.824L26.935 108.128L27.1671 107.279L27.3451 106.418L27.7019 104.694C27.9167 103.541 28.0592 102.374 28.242 101.212C28.1064 102.378 28.0103 103.553 27.8412 104.718L27.5235 106.455L27.3641 107.325L27.1505 108.182L26.7146 109.895C26.5527 110.462 26.3537 111.017 26.1749 111.579L25.8996 112.419C25.8084 112.699 25.6865 112.969 25.5815 113.244L24.9244 114.886C23.9471 117.033 22.8096 119.11 21.4452 121.034C20.0784 122.949 18.5259 124.755 16.6792 126.214Z" fill="white"/>
</g>
<path opacity="0.2" d="M60.746 76.1968C62.7562 78.8611 63.8788 81.8364 63.1752 83.7665C61.7644 87.6374 56.5725 90.195 56.5725 90.195C57.3564 96.1924 53.7631 98.3126 53.7631 98.3126C48.2596 101.695 51.5587 112.725 54.4674 121.32C57.3762 129.915 53.1568 137.11 34.5444 135.509C22.4931 134.473 18.559 126.957 17.2827 121.787C14.3981 131.322 20.0469 140.408 28.242 142.357C43.2994 145.937 70.565 140.144 61.4512 123.99C54.2156 111.166 51.7282 108.305 54.683 98.3651C54.683 98.3651 58.9683 98.8879 58.7915 90.5682C58.7915 90.5682 65.751 88.2394 65.7497 82.4348C65.7493 81.0153 63.7989 78.492 60.746 76.1968Z" fill="#5E334F"/>
<path d="M56.252 101.276C55.1492 101.779 53.1108 102.037 52.2481 100.425C50.7643 97.6507 52.9812 94.7676 55.2566 95.1642C56.2052 95.3296 57.1522 96.5429 57.3863 97.5852" fill="#FFEBDF"/>
<path d="M53.1738 96.5479C53.3623 96.3159 53.6315 96.1533 53.9218 96.0535C54.2164 95.9629 54.5369 95.956 54.8417 96.0134C55.144 96.0765 55.444 96.1845 55.6991 96.3919C55.9489 96.6005 56.1463 96.9069 56.1241 97.285C56.1197 97.361 56.0547 97.4188 55.9792 97.4144C55.9574 97.4131 55.9372 97.4067 55.9195 97.3966L55.9078 97.3897C55.6438 97.2377 55.3313 97.1277 55.0246 97.0687C54.7149 97.0096 54.3965 97.0153 54.0953 97.0974C53.795 97.1827 53.5193 97.3582 53.2969 97.5914C53.066 97.8191 52.8876 98.1013 52.731 98.3956C52.8299 98.0762 52.9857 97.7726 53.1944 97.5005C53.4059 97.2312 53.6969 97.0145 54.0279 96.8912C54.3601 96.7663 54.7246 96.7513 55.069 96.803C55.4169 96.8568 55.741 96.9704 56.0563 97.1439L55.8399 97.2486C55.8513 97.0286 55.7229 96.7663 55.5211 96.6037C55.3253 96.4246 55.0556 96.3187 54.79 96.2366C54.256 96.0773 53.6416 96.1804 53.1738 96.5479Z" fill="#9B717B"/>
<path d="M55.6365 100.874C55.6365 101.071 55.4775 101.23 55.2809 101.23C55.0843 101.23 54.9253 101.07 54.9253 100.874C54.9253 100.677 55.0847 100.518 55.2809 100.518C55.4771 100.518 55.6365 100.677 55.6365 100.874Z" fill="white"/>
<path d="M54.4763 100.663C54.4763 100.976 54.2232 101.23 53.9107 101.23C53.5983 101.23 53.3452 100.976 53.3452 100.663C53.3452 100.35 53.5983 100.097 53.9107 100.097C54.2228 100.097 54.4763 100.35 54.4763 100.663Z" fill="white"/>
<path opacity="0.4" d="M62.983 171.707C60.3645 172.786 50.3573 176.521 39.8763 175.307C27.6724 173.894 20.1837 166.768 20.1837 166.768C20.1066 166.795 20.0384 166.827 19.9662 166.857C19.3728 167.704 18.6978 168.809 18.0508 170.173C18.7229 172.047 22.4087 179.318 39.5235 181.171C54.3237 182.774 62.0849 178.541 64.5 176.875C64.1758 175.026 63.6842 173.302 62.983 171.707Z" fill="#F2935C" fill-opacity="0.71"/>
<path d="M20.1834 164.743C20.1834 164.743 27.6721 171.869 39.876 173.282C52.0798 174.695 63.6508 169.396 63.6508 169.396C63.6508 169.396 65.9137 170.682 65.3397 174.21C65.3397 174.21 57.7936 181.125 39.5232 179.146C19.8278 177.014 17.9157 167.705 17.9157 167.705C17.9157 167.705 17.8587 165.557 20.1834 164.743Z" fill="#F2935C"/>
<path d="M18.6284 168.107C18.6284 168.107 18.8565 166.908 20.1676 166.109" stroke="#F2935C" stroke-width="0.346232" stroke-miterlimit="10" stroke-linecap="round" stroke-linejoin="round"/>
<path d="M20.168 170.334C20.168 170.334 20.5704 168.239 22.6057 167.389" stroke="#F2935C" stroke-width="0.346232" stroke-miterlimit="10" stroke-linecap="round" stroke-linejoin="round"/>
<path d="M23.1992 173.137C23.1992 173.137 23.4818 170.929 25.6301 169.259" stroke="#F2935C" stroke-width="0.346232" stroke-miterlimit="10" stroke-linecap="round" stroke-linejoin="round"/>
<path d="M27.6937 175.8C27.6937 175.8 27.2977 173.139 29.2482 171.384" stroke="#F2935C" stroke-width="0.346232" stroke-miterlimit="10" stroke-linecap="round" stroke-linejoin="round"/>
<path d="M34.421 173.333C34.421 173.333 32.4927 174.699 33.5273 177.64" stroke="#F2935C" stroke-width="0.346232" stroke-miterlimit="10" stroke-linecap="round" stroke-linejoin="round"/>
<path d="M39.3587 174.038C39.3587 174.038 38.3398 176.228 39.045 178.418" stroke="#F2935C" stroke-width="0.346232" stroke-miterlimit="10" stroke-linecap="round" stroke-linejoin="round"/>
<path d="M44.4941 174.462C44.4941 174.462 45.3782 176.623 44.4941 178.984" stroke="#F2935C" stroke-width="0.346232" stroke-miterlimit="10" stroke-linecap="round" stroke-linejoin="round"/>
<path d="M48.9995 174.038C48.9995 174.038 50.6925 176.623 49.6107 178.983" stroke="#F2935C" stroke-width="0.346232" stroke-miterlimit="10" stroke-linecap="round" stroke-linejoin="round"/>
<path d="M53.7495 173.333C53.7495 173.333 55.1135 176.229 53.9376 178.419" stroke="#F2935C" stroke-width="0.346232" stroke-miterlimit="10" stroke-linecap="round" stroke-linejoin="round"/>
<path d="M57.7466 172.34C57.7466 172.34 59.2999 174.177 58.6871 177.051" stroke="#F2935C" stroke-width="0.346232" stroke-miterlimit="10" stroke-linecap="round" stroke-linejoin="round"/>
<path d="M61.4155 170.978C61.4155 170.978 63.3906 172.344 63.3906 174.981" stroke="#F2935C" stroke-width="0.346232" stroke-miterlimit="10" stroke-linecap="round" stroke-linejoin="round"/>
</svg>
