<svg width="220" height="222" viewBox="0 0 220 222" fill="none" xmlns="http://www.w3.org/2000/svg">
<path d="M220 169.785H0V169.894H220V169.785Z" fill="#EBEBEB"/>
<path d="M197.956 176.931H183.383V177.041H197.956V176.931Z" fill="#EBEBEB"/>
<path d="M145.737 178.136H141.912V178.246H145.737V178.136Z" fill="#EBEBEB"/>
<path d="M182.942 172.808H174.498V172.918H182.942V172.808Z" fill="#EBEBEB"/>
<path d="M42.0868 173.554H23.0819V173.664H42.0868V173.554Z" fill="#EBEBEB"/>
<path d="M48.7912 173.554H46.0046V173.664H48.7912V173.554Z" fill="#EBEBEB"/>
<path d="M99.0646 175.429H57.8472V175.539H99.0646V175.429Z" fill="#EBEBEB"/>
<path d="M104.286 149.983H19.3226C17.9379 149.983 16.811 148.846 16.811 147.449V26.933C16.811 25.5358 17.9379 24.3987 19.3226 24.3987H104.286C105.67 24.3987 106.797 25.5358 106.797 26.933V147.449C106.797 148.846 105.67 149.983 104.286 149.983ZM19.3226 24.5101C17.9982 24.5101 16.921 25.597 16.921 26.9335V147.449C16.921 148.786 17.9982 149.873 19.3226 149.873H104.286C105.61 149.873 106.687 148.786 106.687 147.449V26.933C106.687 25.597 105.61 24.5097 104.286 24.5097L19.3226 24.5101Z" fill="#EBEBEB"/>
<path d="M199.456 149.983H114.493C113.109 149.983 111.982 148.846 111.982 147.449V26.933C111.982 25.5358 113.109 24.3987 114.493 24.3987H199.456C200.841 24.3987 201.968 25.5358 201.968 26.933V147.449C201.968 148.846 200.841 149.983 199.456 149.983ZM114.493 24.5101C113.169 24.5101 112.092 25.597 112.092 26.9335V147.449C112.092 148.786 113.169 149.873 114.493 149.873H199.456C200.781 149.873 201.858 148.786 201.858 147.449V26.933C201.858 25.597 200.781 24.5097 199.456 24.5097L114.493 24.5101Z" fill="#EBEBEB"/>
<path d="M127.464 77.2817L188.087 77.2817V37.221L127.464 37.221V77.2817Z" fill="#E6E6E6"/>
<path d="M125.614 77.2817L187.223 77.2817V37.221L125.614 37.221V77.2817Z" fill="#F0F0F0"/>
<path d="M127.464 85.1438L188.087 85.1438V77.2814H127.464V85.1438Z" fill="#E6E6E6"/>
<path d="M122.533 85.1438L184.142 85.1438V77.2814L122.533 77.2814V85.1438Z" fill="#F0F0F0"/>
<path d="M184.634 74.6686V39.8342L128.204 39.8342V74.6686H184.634Z" fill="#FAFAFA"/>
<path d="M171.909 74.6692L164.702 39.8347H153.455L160.662 74.6692H171.909Z" fill="white"/>
<path d="M183.435 72.0679C183.537 72.0679 183.62 71.9844 183.62 71.8814V41.5349C183.62 41.4319 183.537 41.3484 183.435 41.3484C183.333 41.3484 183.249 41.4319 183.249 41.5349V71.8814C183.249 71.9844 183.333 72.0679 183.435 72.0679Z" fill="#F0F0F0"/>
<path d="M158.246 74.6692L151.039 39.8347H146.654L153.861 74.6692H158.246Z" fill="white"/>
<path d="M128.533 74.6686V39.8342H128.204V74.6686H128.533Z" fill="#E6E6E6"/>
<path opacity="0.6" d="M125.002 43.7743H185.625L185.863 40.8501H125.24L125.002 43.7743Z" fill="#EBEBEB"/>
<path opacity="0.6" d="M125.002 48.5704H185.625L185.863 45.6462H125.24L125.002 48.5704Z" fill="#EBEBEB"/>
<path opacity="0.6" d="M125.002 53.3666H185.625L185.863 50.4424H125.24L125.002 53.3666Z" fill="#EBEBEB"/>
<path opacity="0.6" d="M125.002 58.1625H185.625L185.863 55.2383H125.24L125.002 58.1625Z" fill="#EBEBEB"/>
<path opacity="0.6" d="M125.002 62.9586H185.625L185.863 60.0344H125.24L125.002 62.9586Z" fill="#EBEBEB"/>
<path opacity="0.6" d="M125.002 67.7548H185.625L185.863 64.8306H125.24L125.002 67.7548Z" fill="#EBEBEB"/>
<path d="M179.383 140.651H166.672V143.18H179.383V140.651Z" fill="#E6E6E6"/>
<path d="M142.696 169.785H145.042V111.592H142.696V169.785Z" fill="#E6E6E6"/>
<path d="M134.568 143.18H166.671V140.651H134.568V143.18Z" fill="#F5F5F5"/>
<path d="M179.383 154.489H166.672V157.018H179.383V154.489Z" fill="#E6E6E6"/>
<path d="M134.568 157.018H166.671V154.489H134.568V157.018Z" fill="#F5F5F5"/>
<path d="M179.383 112.975H166.672V115.504H179.383V112.975Z" fill="#E6E6E6"/>
<path d="M134.568 115.504H166.671V112.975H134.568V115.504Z" fill="#F5F5F5"/>
<path d="M179.383 126.813H166.672V129.342H179.383V126.813Z" fill="#E6E6E6"/>
<path d="M134.568 129.342H166.671V126.813H134.568V129.342Z" fill="#F5F5F5"/>
<path d="M174.799 169.785H177.146V111.592H174.799V169.785Z" fill="#E6E6E6"/>
<path d="M164.325 169.785H166.671V111.592H164.325V169.785Z" fill="#F5F5F5"/>
<path d="M134.568 169.785H136.914V111.592H134.568V169.785Z" fill="#F5F5F5"/>
<path d="M28.7642 169.785H52.7786L52.7786 122.769H28.7642L28.7642 169.785Z" fill="#E6E6E6"/>
<path d="M35.1771 169.785H28.7645V163.295H41.9003L35.1771 169.785Z" fill="#FAFAFA"/>
<path d="M94.2403 169.785H118.255V122.769H94.2403V169.785Z" fill="#E6E6E6"/>
<path d="M28.7643 167.551H99.837V122.769H28.7643V167.551Z" fill="#FAFAFA"/>
<path d="M93.4248 169.785H99.8374V163.295H86.7012L93.4248 169.785Z" fill="#FAFAFA"/>
<path d="M33.739 150.663H94.8624V139.456H33.739V150.663Z" fill="#F0F0F0"/>
<path d="M33.739 164.265H94.8624V153.058H33.739V164.265Z" fill="#F0F0F0"/>
<path d="M45.3569 140.655H83.2445C84.3563 140.655 85.2579 139.745 85.2579 138.623V138.486H43.3435V138.623C43.3435 139.745 44.2451 140.655 45.3569 140.655Z" fill="#FAFAFA"/>
<path d="M33.739 137.061H94.8624V125.854H33.739V137.061Z" fill="#F0F0F0"/>
<path d="M45.3569 127.052H83.2445C84.3563 127.052 85.2579 126.143 85.2579 125.02V124.884H43.3435V125.02C43.3435 126.143 44.2451 127.052 45.3569 127.052Z" fill="#FAFAFA"/>
<path d="M45.3569 154.257H83.2445C84.3563 154.257 85.2579 153.347 85.2579 152.225V152.088H43.3435V152.225C43.3435 153.347 44.2451 154.257 45.3569 154.257Z" fill="#FAFAFA"/>
<path d="M32.59 77.2817L93.2136 77.2817V37.221L32.59 37.221L32.59 77.2817Z" fill="#E6E6E6"/>
<path d="M30.7404 77.2817L92.3492 77.2817V37.221L30.7404 37.221L30.7404 77.2817Z" fill="#F0F0F0"/>
<path d="M32.59 85.1438L93.2136 85.1438V77.2814H32.59V85.1438Z" fill="#E6E6E6"/>
<path d="M27.6585 85.1438L89.2673 85.1438V77.2814L27.6585 77.2814V85.1438Z" fill="#F0F0F0"/>
<path d="M89.7598 74.6689V39.8345L33.3302 39.8345L33.3302 74.6689H89.7598Z" fill="#FAFAFA"/>
<path d="M77.0352 74.6692L69.8275 39.8347H58.5807L65.7883 74.6692H77.0352Z" fill="white"/>
<path d="M88.5605 72.0679C88.6626 72.0679 88.7453 71.9844 88.7453 71.8814V41.5349C88.7453 41.4319 88.6626 41.3484 88.5605 41.3484C88.4584 41.3484 88.3752 41.4319 88.3752 41.5349V71.8814C88.3757 71.9844 88.4584 72.0679 88.5605 72.0679Z" fill="#F0F0F0"/>
<path d="M63.3723 74.6692L56.1646 39.8347H51.78L58.9877 74.6692H63.3723Z" fill="white"/>
<path d="M33.6588 74.6689L33.6588 39.8345H33.3301L33.3301 74.6689H33.6588Z" fill="#E6E6E6"/>
<path opacity="0.6" d="M30.1277 43.7743H90.7513L90.9898 40.8501H30.3662L30.1277 43.7743Z" fill="#EBEBEB"/>
<path opacity="0.6" d="M30.1277 45.4241H90.7513L90.9898 42.4995H30.3662L30.1277 45.4241Z" fill="#EBEBEB"/>
<path opacity="0.6" d="M30.1277 47.0736H90.7513L90.9898 44.1494H30.3662L30.1277 47.0736Z" fill="#EBEBEB"/>
<path opacity="0.6" d="M30.1277 48.7235H90.7513L90.9898 45.7988H30.3662L30.1277 48.7235Z" fill="#EBEBEB"/>
<path opacity="0.6" d="M30.1277 50.3729H90.7513L90.9898 47.4487H30.3662L30.1277 50.3729Z" fill="#EBEBEB"/>
<path opacity="0.6" d="M30.1277 52.0226H90.7513L90.9898 49.0984H30.3662L30.1277 52.0226Z" fill="#EBEBEB"/>
<path d="M42.2461 121.332H44.3418V97.7594H42.2461V121.332Z" fill="#F5F5F5"/>
<path d="M42.5159 121.316H43.1077V97.7431H42.5159V121.316Z" fill="#FAFAFA"/>
<path d="M43.3558 121.316H43.5876V97.7431H43.3558V121.316Z" fill="#FAFAFA"/>
<path d="M35.5358 122.769H51.0519C51.0519 121.679 50.1768 120.796 49.097 120.796H37.4907C36.4109 120.796 35.5358 121.679 35.5358 122.769Z" fill="#F0F0F0"/>
<path d="M39.5275 112.393C39.8592 112.393 40.1303 112.119 40.1303 111.785V96.3292C40.1303 95.9949 39.8588 95.7209 39.5275 95.7209C39.1957 95.7209 38.9247 95.9949 38.9247 96.3292V111.785C38.9247 112.12 39.1957 112.393 39.5275 112.393Z" fill="#F0F0F0"/>
<path d="M33.9126 103.363H52.6751L50.5169 90.1318H36.0708L33.9126 103.363Z" fill="#E0E0E0"/>
<path d="M110 189.837C157.116 189.837 195.311 187.586 195.311 184.81C195.311 182.033 157.116 179.782 110 179.782C62.8839 179.782 24.6888 182.033 24.6888 184.81C24.6888 187.586 62.8839 189.837 110 189.837Z" fill="#F5F5F5"/>
<path d="M45.8074 89.848L45.3685 89.8799L45.9526 98.0677L46.3915 98.0358L45.8074 89.848Z" fill="#F2935C"/>
<path d="M46.7012 102.26L46.2623 102.292L46.4824 105.372L46.9212 105.34L46.7012 102.26Z" fill="#F2935C"/>
<path d="M148.593 139.932H54.3633C52.232 139.932 50.3629 138.172 50.2093 136.021L45.5792 71.1396C45.4256 68.9888 47.0439 67.2292 49.1753 67.2292H143.405C145.536 67.2292 147.405 68.9888 147.559 71.1396L152.189 136.021C152.342 138.172 150.724 139.932 148.593 139.932Z" fill="#F2935C"/>
<path d="M148.954 139.932H54.7245C52.5932 139.932 50.7241 138.172 50.5705 136.021L45.9404 71.1396C45.7868 68.9888 47.4051 67.2292 49.5365 67.2292H143.766C145.897 67.2292 147.767 68.9888 147.92 71.1396L152.55 136.021C152.703 138.172 151.085 139.932 148.954 139.932Z" fill="#F2935C"/>
<path opacity="0.5" d="M148.954 139.932H54.7245C52.5932 139.932 50.7241 138.172 50.5705 136.021L45.9404 71.1396C45.7868 68.9888 47.4051 67.2292 49.5365 67.2292H143.766C145.897 67.2292 147.767 68.9888 147.92 71.1396L152.55 136.021C152.703 138.172 151.085 139.932 148.954 139.932Z" fill="white"/>
<path d="M143.905 69.1846H49.6759C49.5695 69.1846 49.4643 69.189 49.3605 69.1974C46.9519 69.3977 47.4438 73.0949 49.8748 73.0949H144.265C146.696 73.0949 146.66 69.3977 144.223 69.1974C144.118 69.189 144.012 69.1846 143.905 69.1846Z" fill="#F2935C"/>
<path d="M52.1304 71.1401C52.1656 71.6352 51.7968 72.0365 51.3058 72.0365C50.8152 72.0365 50.3888 71.6352 50.3536 71.1401C50.3184 70.645 50.6872 70.2437 51.1782 70.2437C51.6692 70.2437 52.0952 70.6446 52.1304 71.1401Z" fill="#FAFAFA"/>
<path d="M55.1522 71.1401C55.1874 71.6352 54.8187 72.0365 54.3277 72.0365C53.8371 72.0365 53.4107 71.6352 53.3755 71.1401C53.3403 70.645 53.709 70.2437 54.2001 70.2437C54.6907 70.2437 55.117 70.6446 55.1522 71.1401Z" fill="#FAFAFA"/>
<path d="M58.1741 71.1401C58.2093 71.6352 57.8402 72.0365 57.3496 72.0365C56.859 72.0365 56.4326 71.6352 56.397 71.1401C56.3618 70.645 56.7309 70.2437 57.2215 70.2437C57.7121 70.2437 58.1385 70.6446 58.1741 71.1401Z" fill="#FAFAFA"/>
<path d="M146.456 133.456H56.2984C55.5227 133.456 54.8482 132.821 54.7923 132.039L50.9845 78.6818C50.9287 77.8991 51.5125 77.2642 52.2883 77.2642H142.446C143.221 77.2642 143.896 77.8986 143.952 78.6818L147.759 132.039C147.815 132.821 147.231 133.456 146.456 133.456Z" fill="white"/>
<path d="M108.473 113.13L107.006 92.5648L102.558 89.8635H90.3245L91.985 113.13H108.473Z" fill="white"/>
<path d="M108.473 113.346H91.985C91.8732 113.346 91.7804 113.259 91.7725 113.146L90.1119 89.8791C90.1075 89.8196 90.1282 89.7606 90.1687 89.7171C90.2091 89.6731 90.2655 89.6487 90.3249 89.6487H102.559C102.597 89.6487 102.636 89.6593 102.669 89.6798L107.116 92.3806C107.175 92.4166 107.213 92.4796 107.218 92.5493L108.686 113.115C108.69 113.174 108.669 113.234 108.629 113.277C108.589 113.321 108.532 113.346 108.473 113.346ZM92.1834 112.916H108.244L106.801 92.6919L102.499 90.0789H90.5537L92.1834 112.916Z" fill="#F2935C"/>
<path d="M107.006 92.5648L102.558 89.8635L104.191 93.4422L107.006 92.5648Z" fill="#EBEBEB"/>
<path d="M104.191 93.657C104.11 93.657 104.033 93.6095 103.997 93.5318L102.365 89.9536C102.325 89.8679 102.346 89.7662 102.416 89.7031C102.486 89.6401 102.588 89.6308 102.668 89.6792L107.115 92.3805C107.187 92.424 107.227 92.5066 107.217 92.5909C107.207 92.6753 107.149 92.7454 107.068 92.7703L104.254 93.6476C104.233 93.6539 104.212 93.657 104.191 93.657ZM103.042 90.4082L104.307 93.1806L106.487 92.5008L103.042 90.4082Z" fill="#F2935C"/>
<path d="M97.2264 100.346C97.2633 100.865 96.8766 101.286 96.3618 101.286C95.847 101.286 95.4004 100.865 95.3634 100.346C95.3264 99.8272 95.7132 99.4062 96.2276 99.4062C96.7419 99.4062 97.1894 99.8272 97.2264 100.346Z" fill="#F2935C"/>
<path d="M103.27 100.346C103.307 100.865 102.92 101.286 102.406 101.286C101.891 101.286 101.444 100.865 101.407 100.346C101.37 99.8272 101.757 99.4062 102.271 99.4062C102.786 99.4067 103.233 99.8272 103.27 100.346Z" fill="#F2935C"/>
<path d="M104.975 106.442C104.864 106.442 104.771 106.356 104.763 106.243C104.655 104.731 102.306 103.502 99.5266 103.502C97.6852 103.502 96.0322 104.054 95.212 104.943C94.8472 105.339 94.6787 105.765 94.7104 106.211C94.7188 106.33 94.6303 106.433 94.5128 106.441C94.3949 106.449 94.2933 106.361 94.2849 106.242C94.2449 105.68 94.4574 105.129 94.8996 104.65C95.7976 103.676 97.5704 103.071 99.5266 103.071C102.575 103.071 105.062 104.451 105.188 106.211C105.196 106.33 105.108 106.433 104.991 106.441C104.985 106.442 104.98 106.442 104.975 106.442Z" fill="#F2935C"/>
<path d="M93.7934 98.4425C93.7415 98.4425 93.6896 98.4234 93.6482 98.3852C93.562 98.3044 93.5567 98.1681 93.6368 98.0811L94.5713 97.0652C94.6514 96.9777 94.7865 96.9733 94.8727 97.0536C94.959 97.1345 94.9638 97.2708 94.8842 97.3578L93.95 98.3737C93.9078 98.4194 93.8506 98.4425 93.7934 98.4425Z" fill="#F2935C"/>
<path d="M104.537 98.4425C104.485 98.4425 104.433 98.4234 104.391 98.3847L103.312 97.3689C103.226 97.2881 103.221 97.1518 103.301 97.0647C103.381 96.9777 103.517 96.9733 103.603 97.0541L104.682 98.0699C104.768 98.1508 104.773 98.2871 104.693 98.3741C104.651 98.4194 104.594 98.4425 104.537 98.4425Z" fill="#F2935C"/>
<path d="M88.993 117.728H89.9874L91.4223 119.652L91.285 117.728H92.2886L92.5368 121.206H91.5327L90.1058 119.296L90.2422 121.206H89.2408L88.993 117.728Z" fill="#F2935C"/>
<path d="M92.9869 119.469C92.9464 118.901 93.0714 118.459 93.3627 118.143C93.6535 117.826 94.079 117.668 94.6382 117.668C95.212 117.668 95.6648 117.823 95.9974 118.134C96.33 118.445 96.5162 118.88 96.5562 119.44C96.5852 119.846 96.5412 120.18 96.4242 120.44C96.3072 120.7 96.1259 120.903 95.8799 121.047C95.634 121.192 95.3198 121.264 94.9374 121.264C94.5489 121.264 94.2224 121.202 93.9589 121.077C93.6953 120.952 93.4749 120.754 93.2971 120.484C93.1194 120.214 93.016 119.876 92.9869 119.469ZM94.0522 119.474C94.0772 119.825 94.16 120.077 94.2999 120.23C94.4402 120.384 94.6215 120.46 94.8442 120.46C95.073 120.46 95.2446 120.385 95.3594 120.235C95.4742 120.085 95.5174 119.815 95.4896 119.426C95.4663 119.099 95.3836 118.859 95.2419 118.708C95.1002 118.557 94.9172 118.482 94.6932 118.482C94.4785 118.482 94.3118 118.559 94.1925 118.712C94.0737 118.866 94.0271 119.119 94.0522 119.474Z" fill="#F2935C"/>
<path d="M98.6268 117.728H100.209C100.521 117.728 100.776 117.771 100.974 117.856C101.172 117.941 101.34 118.064 101.477 118.224C101.614 118.383 101.718 118.569 101.789 118.781C101.861 118.993 101.905 119.218 101.922 119.455C101.948 119.826 101.927 120.115 101.858 120.32C101.789 120.524 101.684 120.696 101.545 120.834C101.406 120.973 101.253 121.065 101.086 121.11C100.857 121.174 100.647 121.205 100.458 121.205H98.8754L98.6268 117.728ZM99.748 118.516L99.8835 120.416H100.144C100.367 120.416 100.523 120.391 100.614 120.341C100.705 120.292 100.772 120.205 100.816 120.08C100.861 119.956 100.873 119.755 100.853 119.476C100.827 119.108 100.749 118.856 100.62 118.72C100.492 118.584 100.289 118.516 100.013 118.516H99.748V118.516Z" fill="#F2935C"/>
<path d="M104.477 120.631H103.268L103.141 121.205H102.054L103.101 117.728H104.262L105.805 121.205H104.69L104.477 120.631ZM104.203 119.88L103.733 118.629L103.445 119.88H104.203Z" fill="#F2935C"/>
<path d="M105.322 117.728H108.559L108.621 118.587H107.535L107.722 121.206H106.657L106.47 118.587H105.384L105.322 117.728Z" fill="#F2935C"/>
<path d="M111.041 120.631H109.831L109.704 121.205H108.617L109.664 117.728H110.826L112.369 121.205H111.254L111.041 120.631ZM110.766 119.88L110.297 118.629L110.009 119.88H110.766Z" fill="#F2935C"/>
<path d="M155.623 76.8477C156.016 76.6488 156.485 76.3917 156.918 76.1515C157.359 75.9069 157.798 75.6516 158.231 75.3861C159.093 74.8506 159.962 74.3213 160.786 73.7335C162.45 72.5769 164.009 71.2933 165.412 69.8916C165.596 69.7219 165.752 69.5337 165.922 69.3543L166.173 69.0826L166.298 68.9467L166.361 68.8788C166.378 68.861 166.374 68.8646 166.366 68.8752L166.352 68.897C166.29 69.0155 166.342 68.9796 166.366 68.865C166.395 68.7549 166.42 68.5751 166.428 68.3806C166.456 67.5743 166.298 66.558 166.107 65.5754C165.715 63.5841 165.122 61.5359 164.536 59.529L166.246 58.7725C167.317 60.7021 168.209 62.673 168.935 64.81C169.281 65.8925 169.599 66.9794 169.692 68.3145C169.709 68.6546 169.716 69.012 169.655 69.4289C169.59 69.8392 169.488 70.3302 169.117 70.887L169.044 70.9896L168.987 71.0642L168.919 71.1476L168.784 71.3137L168.512 71.6467C168.329 71.866 168.154 72.0973 167.959 72.3029C166.442 74.003 164.754 75.5046 162.953 76.8104C162.056 77.4715 161.14 78.0993 160.188 78.6708C159.714 78.9603 159.234 79.2382 158.746 79.5077C158.252 79.7848 157.782 80.0259 157.221 80.2918L155.623 76.8477Z" fill="#FFB573"/>
<path d="M151.709 181.231C152.05 181.231 152.422 181.16 152.682 181.098C152.716 181.09 152.742 181.062 152.748 181.027C152.754 180.993 152.739 180.958 152.71 180.939C152.584 180.855 151.465 180.126 151.036 180.322C150.968 180.353 150.883 180.421 150.862 180.57C150.835 180.767 150.883 180.924 151.007 181.038C151.164 181.182 151.426 181.231 151.709 181.231ZM152.435 180.972C151.794 181.102 151.311 181.079 151.125 180.907C151.045 180.835 151.016 180.732 151.035 180.594C151.045 180.52 151.08 180.495 151.108 180.483C151.334 180.38 151.979 180.694 152.435 180.972Z" fill="#F2935C"/>
<path d="M152.662 181.1C152.677 181.1 152.693 181.096 152.706 181.088C152.733 181.072 152.75 181.044 152.75 181.012C152.75 180.967 152.745 179.896 152.344 179.538C152.238 179.443 152.114 179.403 151.975 179.42C151.756 179.447 151.697 179.586 151.681 179.666C151.598 180.085 152.268 180.887 152.619 181.088C152.633 181.096 152.647 181.1 152.662 181.1ZM152.035 179.593C152.107 179.593 152.171 179.618 152.229 179.67C152.468 179.883 152.55 180.485 152.57 180.841C152.219 180.559 151.802 179.956 151.852 179.7C151.861 179.659 151.885 179.609 151.996 179.595C152.009 179.593 152.022 179.593 152.035 179.593Z" fill="#F2935C"/>
<path d="M152.338 65.7419C151.91 67.9486 151.006 72.4184 152.536 73.8911C152.536 73.8911 151.938 76.1298 147.875 76.1298C143.407 76.1298 145.739 73.8916 145.739 73.8916C148.178 73.3037 148.115 71.478 147.69 69.7632L152.338 65.7419Z" fill="#FFB573"/>
<path d="M144.885 74.7804C144.184 74.8763 144.78 73.043 145.065 72.853C145.724 72.4139 154.24 71.7923 154.184 72.8352C154.149 73.2841 153.94 74.1601 153.568 74.4576C153.195 74.7551 151.008 73.856 144.885 74.7804Z" fill="#263238"/>
<path d="M146.272 74.1632C145.715 74.3532 145.768 72.5057 145.958 72.2833C146.397 71.7691 153.29 69.982 153.494 70.993C153.573 71.4295 153.611 72.3015 153.375 72.6402C153.138 72.9786 151.113 72.4187 146.272 74.1632Z" fill="#263238"/>
<path d="M143.708 61.7641C143.654 61.7673 143.6 61.7455 143.563 61.6998C143.07 61.0915 142.429 61.1536 142.423 61.1545C142.326 61.1647 142.241 61.095 142.231 60.9982C142.22 60.9015 142.29 60.8144 142.386 60.8042C142.42 60.8007 143.222 60.7221 143.833 61.4764C143.894 61.5519 143.883 61.6629 143.809 61.7242C143.779 61.7491 143.744 61.7619 143.708 61.7641Z" fill="#263238"/>
<path d="M142.856 63.9365C142.856 63.9365 142.479 65.2716 141.987 65.9465C142.413 66.2755 143.061 66.0415 143.061 66.0415L142.856 63.9365Z" fill="#FF5652"/>
<path d="M143.07 63.397C143.099 63.6953 142.966 63.9529 142.773 63.9724C142.579 63.9915 142.399 63.765 142.37 63.4667C142.341 63.1683 142.474 62.9108 142.667 62.8913C142.861 62.8722 143.041 63.0986 143.07 63.397Z" fill="#263238"/>
<path d="M142.755 62.8995L142.024 62.7632C142.024 62.7632 142.443 63.2875 142.755 62.8995Z" fill="#263238"/>
<path d="M156.948 181.012H153.263L153.552 172.4H157.237L156.948 181.012Z" fill="#FFB573"/>
<path d="M152.971 180.582H157.111C157.262 180.582 157.384 180.688 157.405 180.836L157.877 184.142C157.926 184.484 157.633 184.809 157.286 184.803C155.842 184.778 155.147 184.693 153.326 184.693C152.206 184.693 150.569 184.81 149.022 184.81C147.509 184.81 147.393 183.266 148.037 183.127C150.925 182.5 151.381 181.635 152.355 180.811C152.53 180.662 152.75 180.582 152.971 180.582Z" fill="#263238"/>
<g opacity="0.2">
<path d="M157.238 172.402H153.551L153.404 176.842H157.091L157.238 172.402Z" fill="black"/>
</g>
<path d="M142.285 79.0515C140.004 78.1506 137.829 77.1707 135.663 76.0527C133.5 74.9361 131.371 73.7466 129.325 72.1575C128.815 71.753 128.311 71.3108 127.819 70.7945C127.696 70.6613 127.574 70.5378 127.453 70.3851C127.326 70.2244 127.231 70.1298 127.066 69.8829C126.769 69.4514 126.539 68.8719 126.478 68.2805C126.42 67.6887 126.525 67.1235 126.694 66.6728C126.862 66.2141 127.082 65.8399 127.313 65.5153C127.775 64.8653 128.288 64.3849 128.804 63.9524C129.835 63.0915 130.925 62.4655 132.017 61.8803C132.563 61.5881 133.119 61.3248 133.682 61.0824C134.248 60.836 134.8 60.6069 135.401 60.3982L136.182 62.1089C134.262 63.3295 132.275 64.6713 130.813 66.1755C130.458 66.548 130.147 66.9379 129.952 67.2811C129.742 67.6305 129.745 67.892 129.781 67.872C129.799 67.872 129.792 67.8641 129.843 67.9156L130.018 68.1051C130.084 68.1846 130.177 68.2659 130.26 68.3476C130.605 68.673 131.01 68.9998 131.447 69.3106C132.321 69.938 133.283 70.5249 134.278 71.0733C135.27 71.6292 136.29 72.1611 137.33 72.6659C139.403 73.668 141.553 74.6324 143.662 75.5133L142.285 79.0515Z" fill="#FFB573"/>
<path d="M137.266 60.8964L137.876 59.5626L135.106 58.592C135.106 58.592 134.243 61.213 135.271 62.4224C136.147 62.2808 136.895 61.7089 137.266 60.8964Z" fill="#FFB573"/>
<path d="M137.876 56.6794L135.661 56.0352L135.105 58.5917L137.876 59.5627V56.6794Z" fill="#FFB573"/>
<path d="M166.474 59.6918L166.797 56.575L163.942 57.2521C163.942 57.2521 163.9 60.1736 165.411 60.6393L166.474 59.6918Z" fill="#FFB573"/>
<path d="M165.422 54.3933L163.562 55.2698L163.942 57.2522L166.797 56.5751L165.422 54.3933Z" fill="#FFB573"/>
<path d="M152.918 61.3854C153.052 65.0737 153.187 66.6322 151.535 68.6963C149.051 71.8008 144.532 71.1605 143.308 67.5868C142.207 64.37 142.172 58.8786 145.586 57.0662C148.95 55.2813 152.783 57.6967 152.918 61.3854Z" fill="#FFB573"/>
<path d="M151.325 68.6892C154.913 67.1245 157.274 63.8252 156.277 58.6663C155.324 53.7308 152.022 53.2433 150.658 54.2672C149.294 55.291 145.894 53.765 143.854 55.4975C140.319 58.4994 143.661 61.7357 145.402 63.6533C146.442 65.8103 147.804 70.2245 151.325 68.6892Z" fill="#263238"/>
<path d="M149.835 57.7808C151.046 59.5502 153.369 60.0497 155.023 58.8966C156.677 57.744 157.037 55.3752 155.826 53.6059C154.615 51.8365 152.293 51.337 150.638 52.4901C148.984 53.6427 148.624 56.0115 149.835 57.7808Z" fill="#F2935C"/>
<path d="M150.767 54.613C150.249 51.6391 153.038 49.3458 156.767 50.4541C160.496 51.5623 158.523 54.898 157.758 57.562C156.994 60.226 159.001 62.7635 159.839 60.7344C160.678 58.7058 159.268 58.0793 159.268 58.0793C159.268 58.0793 163.228 59.1152 159.549 63.6191C155.871 68.1235 152.541 63.1498 153.442 60.2145C154.169 57.8427 151.257 57.424 150.767 54.613Z" fill="#263238"/>
<path d="M147.04 55.7368C145.338 54.8408 142.455 54.1162 140.814 56.9014C140.038 58.2183 140.339 60.0045 140.339 60.0045L145.35 60.341L147.04 55.7368Z" fill="#263238"/>
<path d="M139.749 59.1311C139.747 59.1311 139.745 59.1311 139.742 59.1306C139.681 59.1271 139.636 59.0743 139.639 59.013C139.644 58.9375 139.765 57.1513 140.833 56.0306C143.416 53.3231 146.443 55.5689 147.31 56.3219C147.356 56.3619 147.361 56.432 147.321 56.4786C147.281 56.5252 147.212 56.5301 147.166 56.4902C146.336 55.7696 143.44 53.6175 140.992 56.1847C139.98 57.2454 139.86 59.009 139.858 59.0267C139.855 59.0853 139.807 59.1311 139.749 59.1311Z" fill="#263238"/>
<path d="M146.015 63.5068C146.01 64.2252 145.691 64.9285 145.287 65.4058C144.679 66.1233 143.982 65.7699 143.822 64.9742C143.678 64.2581 143.821 63.022 144.59 62.5886C145.347 62.1619 146.021 62.6854 146.015 63.5068Z" fill="#FFB573"/>
<path d="M145.223 97.2903C145.223 97.2903 145.458 123.106 147.678 137.492C149.47 149.112 152.787 175.982 152.787 175.982H157.813C157.813 175.982 158.304 150.042 157.394 138.549C155.092 109.468 161.033 104.032 156.239 97.2903H145.223Z" fill="#AA6741"/>
<path opacity="0.1" d="M145.223 97.2903C145.223 97.2903 145.458 123.106 147.678 137.492C149.47 149.112 152.787 175.982 152.787 175.982H157.813C157.813 175.982 158.304 150.042 157.394 138.549C155.092 109.468 161.033 104.032 156.239 97.2903H145.223Z" fill="white"/>
<path opacity="0.3" d="M147.865 109.002C149.629 116.794 148.221 129.066 147.258 134.47C146.237 126.265 145.722 115.631 145.467 107.839C146.378 106.347 147.24 106.249 147.865 109.002Z" fill="black"/>
<path d="M152.1 176.082H158.501L158.837 173.816L152.063 173.585L152.1 176.082Z" fill="#F2935C"/>
<path d="M153.926 75.4988C154.528 74.2907 157.765 73.5305 159.535 73.5332L160.859 79.4673C160.859 79.4673 157.334 84.7464 155.868 84.1865C154.136 83.5263 152.636 78.0873 153.926 75.4988Z" fill="#F2935C"/>
<path opacity="0.4" d="M153.926 75.4988C154.528 74.2907 157.765 73.5305 159.535 73.5332L160.859 79.4673C160.859 79.4673 157.334 84.7464 155.868 84.1865C154.136 83.5263 152.636 78.0873 153.926 75.4988Z" fill="black"/>
<path d="M150.195 174.631C150.211 174.605 150.213 174.572 150.198 174.544C150.181 174.511 150.145 174.493 150.108 174.498C149.923 174.526 148.294 174.787 148.074 175.257C148.031 175.348 148.038 175.444 148.091 175.534C148.181 175.686 148.308 175.771 148.469 175.787C149.002 175.843 149.773 175.096 150.185 174.645C150.189 174.64 150.192 174.636 150.195 174.631ZM148.241 175.314C148.392 175.064 149.234 174.835 149.877 174.715C149.296 175.311 148.785 175.643 148.486 175.611C148.381 175.6 148.301 175.545 148.24 175.443C148.217 175.403 148.214 175.369 148.232 175.332C148.235 175.326 148.238 175.319 148.241 175.314Z" fill="#F2935C"/>
<path d="M150.195 174.631C150.199 174.626 150.201 174.62 150.203 174.613C150.213 174.584 150.207 174.551 150.187 174.528C150.159 174.495 149.507 173.736 148.905 173.697C148.721 173.685 148.56 173.74 148.426 173.861C148.245 174.025 148.26 174.167 148.305 174.257C148.496 174.638 149.666 174.771 150.139 174.671C150.162 174.666 150.183 174.652 150.195 174.631ZM148.473 174.072C148.486 174.049 148.508 174.023 148.542 173.992C148.641 173.902 148.756 173.863 148.894 173.873C149.289 173.899 149.738 174.311 149.942 174.521C149.421 174.566 148.576 174.406 148.461 174.177C148.455 174.164 148.437 174.13 148.473 174.072Z" fill="#F2935C"/>
<path d="M154.036 173.056L150.666 174.567L149.163 171.412L147.201 167.281L146.97 166.801L150.337 165.288L150.598 165.828L152.501 169.829L154.036 173.056Z" fill="#FFB573"/>
<path opacity="0.2" d="M152.501 169.829L149.164 171.412L147.201 167.281L150.598 165.828L152.501 169.829Z" fill="black"/>
<path d="M141.27 97.2903C141.27 97.2903 130.502 124.301 133.421 137.02C136.059 148.515 147.723 170.285 147.723 170.285L152.233 168.001C152.233 168.001 145.022 141.721 144.239 136.012C142.717 124.904 152.501 109.225 152.501 97.2903H141.27Z" fill="#B27654"/>
<path opacity="0.1" d="M187.611 134.176C187.611 134.176 176.842 161.187 179.761 173.906C182.399 185.401 194.063 207.171 194.063 207.171L198.573 204.886C198.573 204.886 191.362 178.607 190.58 172.898C189.058 161.79 198.841 146.11 198.841 134.176H187.611Z" fill="#B27654"/>
<path d="M150.064 174.094L153.412 171.635C153.534 171.545 153.694 171.558 153.798 171.666L156.107 174.058C156.346 174.306 156.299 174.743 156.015 174.944C154.833 175.781 154.22 176.125 152.749 177.206C151.843 177.871 150.038 179.342 148.787 180.261C147.564 181.159 146.57 179.98 147.009 179.485C148.979 177.263 149.394 175.889 149.7 174.644C149.755 174.42 149.886 174.225 150.064 174.094Z" fill="#263238"/>
<path d="M147.432 171.248L153.254 168.561L152.507 166.167L146.273 169.037L147.432 171.248Z" fill="#F2935C"/>
<path d="M144.128 75.1958C143.645 73.9344 139.439 72.5509 137.329 72.0679L136.402 79.0689C136.402 79.0689 139.848 84.0661 141.361 83.6527C143.147 83.1648 145.163 77.8985 144.128 75.1958Z" fill="#F2935C"/>
<path opacity="0.4" d="M144.128 75.1958C143.645 73.9344 139.439 72.5509 137.329 72.0679L136.402 79.0689C136.402 79.0689 139.848 84.0661 141.361 83.6527C143.147 83.1648 145.163 77.8985 144.128 75.1958Z" fill="black"/>
<path d="M139.509 74.8438C139.509 74.8438 137.753 75.4676 141.27 97.2902C147.21 97.2902 153.349 97.2902 156.239 97.2902C155.987 91.1426 155.98 87.3522 158.892 74.7359C158.892 74.7359 155.756 74.0473 152.536 73.891C150.017 73.7684 147.953 73.6872 145.739 73.8914C142.82 74.16 139.509 74.8438 139.509 74.8438Z" fill="#F2935C"/>
<path opacity="0.4" d="M139.509 74.8438C139.509 74.8438 137.753 75.4676 141.27 97.2902C147.21 97.2902 153.349 97.2902 156.239 97.2902C155.987 91.1426 155.98 87.3522 158.892 74.7359C158.892 74.7359 155.756 74.0473 152.536 73.891C150.017 73.7684 147.953 73.6872 145.739 73.8914C142.82 74.16 139.509 74.8438 139.509 74.8438Z" fill="black"/>
<path d="M156.463 96.4037L157.138 97.7557C157.19 97.8605 157.067 97.9675 156.894 97.9675H141.196C141.061 97.9675 140.95 97.9009 140.941 97.8152L140.806 96.4632C140.797 96.3695 140.914 96.29 141.061 96.29H156.219C156.331 96.2905 156.429 96.3362 156.463 96.4037Z" fill="#F2935C"/>
<path opacity="0.3" d="M156.463 96.4037L157.138 97.7557C157.19 97.8605 157.067 97.9675 156.894 97.9675H141.196C141.061 97.9675 140.95 97.9009 140.941 97.8152L140.806 96.4632C140.797 96.3695 140.914 96.29 141.061 96.29H156.219C156.331 96.2905 156.429 96.3362 156.463 96.4037Z" fill="white"/>
<path d="M154.427 98.1138H154.833C154.914 98.1138 154.976 98.0717 154.97 98.0206L154.78 96.2641C154.774 96.2126 154.704 96.1709 154.623 96.1709H154.216C154.135 96.1709 154.074 96.2131 154.08 96.2641L154.27 98.0206C154.276 98.0721 154.347 98.1138 154.427 98.1138Z" fill="#263238"/>
<path d="M144.587 98.1138H144.994C145.075 98.1138 145.136 98.0717 145.13 98.0206L144.94 96.2641C144.934 96.2126 144.864 96.1709 144.783 96.1709H144.377C144.296 96.1709 144.234 96.2131 144.24 96.2641L144.43 98.0206C144.436 98.0721 144.507 98.1138 144.587 98.1138Z" fill="#263238"/>
</svg>
