<svg width="250" height="155" viewBox="0 0 250 155" fill="none" xmlns="http://www.w3.org/2000/svg">
<path d="M150.956 24.9724C150.806 26.2768 150.746 27.576 150.786 28.8484C150.937 33.6768 153.065 39.439 157.383 41.7827C162.764 44.7033 169.525 41.6709 175.175 43.603C183.927 46.5959 191.202 58.7483 201.145 52.0662C208.476 47.1392 211.134 35.3357 209.581 26.8417C206.851 11.9204 193.972 0.585496 179.565 0.0247562C170.323 -0.334898 161.214 3.21473 155.892 11.293C153.329 15.1832 151.517 20.1135 150.956 24.9724Z" fill="#F0F0F0" fill-opacity="0.5"/>
<path d="M13.1003 149.649H233.752H234.107C240.852 133.511 243.533 115.525 241.334 98.0544C240.201 89.0484 237.659 79.8325 231.72 73.2241C227.956 69.0352 223.041 66.1486 217.922 64.0783C205.365 58.9995 191.134 58.6257 178.351 63.0393C169.948 65.9406 161.487 70.9083 152.815 69.0775C149.037 68.2799 145.608 66.2267 142.425 63.946C125.41 51.7547 112.385 31.8008 92.2542 27.208C79.2353 24.2379 65.3606 28.6314 54.5238 36.7664C43.6869 44.9013 35.578 56.4645 29.0577 68.6601C15.8898 93.2896 9.19561 121.705 13.1003 149.649Z" fill="#F0F0F0" fill-opacity="0.5"/>
<path opacity="0.1" d="M198.891 84.856C187.736 92.0995 178.542 102.154 169.284 111.907C163.569 117.927 157.526 124.047 149.897 126.893C144.236 129.005 138.087 129.154 132.088 128.82C121.696 128.241 111.375 126.275 101.452 122.985C89.343 118.97 77.8588 113.006 65.6206 109.45C47.5762 104.208 28.1243 104.423 10.1893 110.064C9.6326 124.863 8.99371 139.697 8.43701 154.497C24.1328 155.765 39.8857 154.03 55.5995 153.038C111.48 149.511 167.408 155.376 223.311 153.339C230.6 153.073 238.069 153.025 245.312 152.079C245.57 150.812 245.446 149.336 245.48 148.036C245.518 146.569 245.546 145.102 245.564 143.635C245.6 140.7 245.596 137.765 245.552 134.831C245.463 128.963 245.215 123.097 244.807 117.243C244.129 107.526 243.012 97.8426 241.457 88.2372C241.032 85.6071 240.553 82.9608 239.651 80.4575C239.076 78.8593 238.34 76.7397 236.633 76.1613C235.113 75.6467 233.181 75.8059 231.6 75.6431C229.151 75.3907 226.681 75.3823 224.228 75.5876C215.22 76.3413 206.532 79.8933 198.891 84.856Z" fill="#EBEBEB"/>
<path d="M158.633 87.7652H56.6173C55.5117 87.7652 54.6156 86.8245 54.6156 85.664V14.754C54.6156 13.5935 55.5117 12.6528 56.6173 12.6528H158.633C159.738 12.6528 160.634 13.5935 160.634 14.754V85.664C160.634 86.8245 159.738 87.7652 158.633 87.7652Z" fill="#C7C7C7"/>
<mask id="mask0_21191_48307" style="mask-type:luminance" maskUnits="userSpaceOnUse" x="54" y="12" width="107" height="76">
<path d="M158.633 87.7652H56.6173C55.5117 87.7652 54.6156 86.8245 54.6156 85.664V14.754C54.6156 13.5935 55.5117 12.6528 56.6173 12.6528H158.633C159.738 12.6528 160.634 13.5935 160.634 14.754V85.664C160.634 86.8245 159.738 87.7652 158.633 87.7652Z" fill="white"/>
</mask>
<g mask="url(#mask0_21191_48307)">
<path d="M165.439 8.38281H49.3989V20.8518H165.439V8.38281Z" fill="#F0F0F0"/>
</g>
<path d="M60.227 18.6226C61.0279 18.6226 61.6772 17.9411 61.6772 17.1004C61.6772 16.2597 61.0279 15.5781 60.227 15.5781C59.4261 15.5781 58.7769 16.2597 58.7769 17.1004C58.7769 17.9411 59.4261 18.6226 60.227 18.6226Z" fill="#F2935C"/>
<path d="M65.4942 18.6226C66.2951 18.6226 66.9444 17.9411 66.9444 17.1004C66.9444 16.2597 66.2951 15.5781 65.4942 15.5781C64.6933 15.5781 64.0441 16.2597 64.0441 17.1004C64.0441 17.9411 64.6933 18.6226 65.4942 18.6226Z" fill="white"/>
<path d="M70.7614 18.6226C71.5624 18.6226 72.2116 17.9411 72.2116 17.1004C72.2116 16.2597 71.5624 15.5781 70.7614 15.5781C69.9605 15.5781 69.3113 16.2597 69.3113 17.1004C69.3113 17.9411 69.9605 18.6226 70.7614 18.6226Z" fill="white"/>
<path d="M157.26 87.0468H56.2956C54.8331 87.0468 53.6432 85.7978 53.6432 84.2626V14.4551C53.6432 12.9199 54.833 11.6709 56.2956 11.6709H157.26C158.723 11.6709 159.913 12.9199 159.913 14.4551V84.2625C159.913 85.7978 158.723 87.0468 157.26 87.0468ZM56.2956 11.9344C54.9715 11.9344 53.8943 13.0652 53.8943 14.4551V84.2625C53.8943 85.6524 54.9715 86.7832 56.2956 86.7832H157.26C158.584 86.7832 159.662 85.6524 159.662 84.2625V14.4551C159.662 13.0652 158.584 11.9344 157.26 11.9344H56.2956Z" fill="#F0F0F0"/>
<path d="M86.8391 80.4945H60.3588C59.7892 80.4945 59.3275 80.0098 59.3275 79.4119V28.6558C59.3275 28.0579 59.7892 27.5732 60.3588 27.5732H86.8391C87.4087 27.5732 87.8704 28.0579 87.8704 28.6558V79.4118C87.8705 80.0097 87.4087 80.4945 86.8391 80.4945Z" fill="#FFF4EE"/>
<path d="M71.6755 44.8665H61.5253C61.2639 44.8665 61.052 44.6441 61.052 44.3697V30.5066C61.052 30.2322 61.2639 30.0098 61.5253 30.0098H71.6755C71.937 30.0098 72.1489 30.2322 72.1489 30.5066V44.3698C72.1489 44.6441 71.9369 44.8665 71.6755 44.8665Z" fill="#E0E0E0"/>
<path d="M74.9841 31.8706C75.4736 31.8706 75.8705 31.454 75.8705 30.9402C75.8705 30.4263 75.4736 30.0098 74.9841 30.0098C74.4946 30.0098 74.0978 30.4263 74.0978 30.9402C74.0978 31.454 74.4946 31.8706 74.9841 31.8706Z" fill="#E0E0E0"/>
<path d="M86.1677 30.6061H77.6602C77.5556 30.6061 77.4708 30.5171 77.4708 30.4073C77.4708 30.2975 77.5556 30.2085 77.6602 30.2085H86.1677C86.2724 30.2085 86.3571 30.2975 86.3571 30.4073C86.357 30.5171 86.2723 30.6061 86.1677 30.6061Z" fill="#E0E0E0"/>
<path d="M86.1677 31.672H77.6602C77.5556 31.672 77.4708 31.583 77.4708 31.4732C77.4708 31.3634 77.5556 31.2744 77.6602 31.2744H86.1677C86.2724 31.2744 86.3571 31.3634 86.3571 31.4732C86.357 31.583 86.2723 31.672 86.1677 31.672Z" fill="#E0E0E0"/>
<path d="M86.1677 32.7374H77.6602C77.5556 32.7374 77.4708 32.6485 77.4708 32.5386C77.4708 32.4288 77.5556 32.3398 77.6602 32.3398H86.1677C86.2724 32.3398 86.3571 32.4288 86.3571 32.5386C86.357 32.6485 86.2723 32.7374 86.1677 32.7374Z" fill="#E0E0E0"/>
<path d="M75.8554 34.9866C75.9463 34.4817 75.63 33.9952 75.149 33.8998C74.668 33.8045 74.2044 34.1366 74.1135 34.6415C74.0225 35.1464 74.3388 35.6329 74.8198 35.7282C75.3008 35.8236 75.7644 35.4915 75.8554 34.9866Z" fill="#E0E0E0"/>
<path d="M86.1677 34.4762H77.6602C77.5556 34.4762 77.4708 34.3872 77.4708 34.2774C77.4708 34.1676 77.5556 34.0786 77.6602 34.0786H86.1677C86.2724 34.0786 86.3571 34.1676 86.3571 34.2774C86.357 34.3871 86.2723 34.4762 86.1677 34.4762Z" fill="#E0E0E0"/>
<path d="M86.1677 35.5421H77.6602C77.5556 35.5421 77.4708 35.4531 77.4708 35.3433C77.4708 35.2335 77.5556 35.1445 77.6602 35.1445H86.1677C86.2724 35.1445 86.3571 35.2335 86.3571 35.3433C86.357 35.4531 86.2723 35.5421 86.1677 35.5421Z" fill="#E0E0E0"/>
<path d="M86.1677 36.6076H77.6602C77.5556 36.6076 77.4708 36.5186 77.4708 36.4088C77.4708 36.299 77.5556 36.21 77.6602 36.21H86.1677C86.2724 36.21 86.3571 36.299 86.3571 36.4088C86.357 36.5185 86.2723 36.6076 86.1677 36.6076Z" fill="#E0E0E0"/>
<path d="M75.8554 38.8572C75.9463 38.3523 75.63 37.8658 75.149 37.7705C74.668 37.6751 74.2044 38.0072 74.1135 38.5121C74.0225 39.017 74.3388 39.5035 74.8198 39.5989C75.3008 39.6942 75.7644 39.3621 75.8554 38.8572Z" fill="#E0E0E0"/>
<path d="M86.1677 38.3468H77.6602C77.5556 38.3468 77.4708 38.2578 77.4708 38.148C77.4708 38.0382 77.5556 37.9492 77.6602 37.9492H86.1677C86.2724 37.9492 86.3571 38.0382 86.3571 38.148C86.357 38.2578 86.2723 38.3468 86.1677 38.3468Z" fill="#E0E0E0"/>
<path d="M86.1677 39.4127H77.6602C77.5556 39.4127 77.4708 39.3238 77.4708 39.2139C77.4708 39.1041 77.5556 39.0151 77.6602 39.0151H86.1677C86.2724 39.0151 86.3571 39.1041 86.3571 39.2139C86.357 39.3238 86.2723 39.4127 86.1677 39.4127Z" fill="#E0E0E0"/>
<path d="M86.1677 40.4782H77.6602C77.5556 40.4782 77.4708 40.3892 77.4708 40.2794C77.4708 40.1696 77.5556 40.0806 77.6602 40.0806H86.1677C86.2724 40.0806 86.3571 40.1696 86.3571 40.2794C86.357 40.3892 86.2723 40.4782 86.1677 40.4782Z" fill="#E0E0E0"/>
<path d="M75.4391 43.3534C75.8608 43.0925 76.001 42.5222 75.7522 42.0796C75.5035 41.637 74.9599 41.4898 74.5382 41.7507C74.1164 42.0116 73.9762 42.5819 74.225 43.0245C74.4738 43.467 75.0173 43.6143 75.4391 43.3534Z" fill="#E0E0E0"/>
<path d="M86.1677 42.2169H77.6602C77.5556 42.2169 77.4708 42.1279 77.4708 42.0181C77.4708 41.9083 77.5556 41.8193 77.6602 41.8193H86.1677C86.2724 41.8193 86.3571 41.9083 86.3571 42.0181C86.357 42.1279 86.2723 42.2169 86.1677 42.2169Z" fill="#E0E0E0"/>
<path d="M86.1677 43.2829H77.6602C77.5556 43.2829 77.4708 43.1939 77.4708 43.0841C77.4708 42.9742 77.5556 42.8853 77.6602 42.8853H86.1677C86.2724 42.8853 86.3571 42.9742 86.3571 43.0841C86.357 43.1939 86.2723 43.2829 86.1677 43.2829Z" fill="#E0E0E0"/>
<path d="M86.1677 44.3483H77.6602C77.5556 44.3483 77.4708 44.2593 77.4708 44.1495C77.4708 44.0397 77.5556 43.9507 77.6602 43.9507H86.1677C86.2724 43.9507 86.3571 44.0397 86.3571 44.1495C86.357 44.2593 86.2723 44.3483 86.1677 44.3483Z" fill="#E0E0E0"/>
<path d="M71.5699 61.2835H61.4198C61.1583 61.2835 60.9464 61.0611 60.9464 60.7867V46.9236C60.9464 46.6492 61.1583 46.4268 61.4198 46.4268H71.5699C71.8314 46.4268 72.0433 46.6492 72.0433 46.9236V60.7867C72.0433 61.0611 71.8314 61.2835 71.5699 61.2835Z" fill="#E0E0E0"/>
<path d="M74.8785 48.2876C75.3681 48.2876 75.7649 47.871 75.7649 47.3572C75.7649 46.8433 75.3681 46.4268 74.8785 46.4268C74.389 46.4268 73.9922 46.8433 73.9922 47.3572C73.9922 47.871 74.389 48.2876 74.8785 48.2876Z" fill="#E0E0E0"/>
<path d="M86.0622 47.0231H77.5546C77.45 47.0231 77.3652 46.9341 77.3652 46.8243C77.3652 46.7145 77.45 46.6255 77.5546 46.6255H86.0622C86.1668 46.6255 86.2515 46.7145 86.2515 46.8243C86.2515 46.9341 86.1668 47.0231 86.0622 47.0231Z" fill="#E0E0E0"/>
<path d="M86.0622 48.089H77.5546C77.45 48.089 77.3652 48 77.3652 47.8902C77.3652 47.7804 77.45 47.6914 77.5546 47.6914H86.0622C86.1668 47.6914 86.2515 47.7804 86.2515 47.8902C86.2515 48 86.1668 48.089 86.0622 48.089Z" fill="#E0E0E0"/>
<path d="M86.0622 49.1544H77.5546C77.45 49.1544 77.3652 49.0654 77.3652 48.9556C77.3652 48.8458 77.45 48.7568 77.5546 48.7568H86.0622C86.1668 48.7568 86.2515 48.8458 86.2515 48.9556C86.2515 49.0654 86.1668 49.1544 86.0622 49.1544Z" fill="#E0E0E0"/>
<path d="M75.7406 51.4386C75.8526 50.9383 75.5571 50.4376 75.0805 50.3202C74.604 50.2027 74.1268 50.513 74.0148 51.0132C73.9028 51.5134 74.1983 52.0142 74.6749 52.1316C75.1515 52.2491 75.6286 51.9388 75.7406 51.4386Z" fill="#E0E0E0"/>
<path d="M86.0622 50.8932H77.5546C77.45 50.8932 77.3652 50.8042 77.3652 50.6944C77.3652 50.5846 77.45 50.4956 77.5546 50.4956H86.0622C86.1668 50.4956 86.2515 50.5846 86.2515 50.6944C86.2515 50.8042 86.1668 50.8932 86.0622 50.8932Z" fill="#E0E0E0"/>
<path d="M86.0622 51.9591H77.5546C77.45 51.9591 77.3652 51.8701 77.3652 51.7603C77.3652 51.6505 77.45 51.5615 77.5546 51.5615H86.0622C86.1668 51.5615 86.2515 51.6505 86.2515 51.7603C86.2515 51.8701 86.1668 51.9591 86.0622 51.9591Z" fill="#E0E0E0"/>
<path d="M86.0622 53.0246H77.5546C77.45 53.0246 77.3652 52.9356 77.3652 52.8258C77.3652 52.7159 77.45 52.627 77.5546 52.627H86.0622C86.1668 52.627 86.2515 52.7159 86.2515 52.8258C86.2515 52.9356 86.1668 53.0246 86.0622 53.0246Z" fill="#E0E0E0"/>
<path d="M75.7406 55.3087C75.8526 54.8085 75.5571 54.3077 75.0805 54.1903C74.604 54.0728 74.1268 54.3831 74.0148 54.8833C73.9028 55.3836 74.1983 55.8843 74.6749 56.0017C75.1515 56.1192 75.6286 55.8089 75.7406 55.3087Z" fill="#E0E0E0"/>
<path d="M86.0622 54.7633H77.5546C77.45 54.7633 77.3652 54.6743 77.3652 54.5645C77.3652 54.4547 77.45 54.3657 77.5546 54.3657H86.0622C86.1668 54.3657 86.2515 54.4547 86.2515 54.5645C86.2515 54.6743 86.1668 54.7633 86.0622 54.7633Z" fill="#E0E0E0"/>
<path d="M86.0622 55.8292H77.5546C77.45 55.8292 77.3652 55.7403 77.3652 55.6304C77.3652 55.5206 77.45 55.4316 77.5546 55.4316H86.0622C86.1668 55.4316 86.2515 55.5206 86.2515 55.6304C86.2515 55.7403 86.1668 55.8292 86.0622 55.8292Z" fill="#E0E0E0"/>
<path d="M86.0622 56.8952H77.5546C77.45 56.8952 77.3652 56.8062 77.3652 56.6964C77.3652 56.5865 77.45 56.4976 77.5546 56.4976H86.0622C86.1668 56.4976 86.2515 56.5865 86.2515 56.6964C86.2515 56.8061 86.1668 56.8952 86.0622 56.8952Z" fill="#E0E0E0"/>
<path d="M75.5048 59.626C75.851 59.2627 75.851 58.6738 75.5048 58.3106C75.1586 57.9473 74.5972 57.9473 74.2509 58.3106C73.9047 58.6738 73.9047 59.2627 74.2509 59.626C74.5972 59.9892 75.1586 59.9892 75.5048 59.626Z" fill="#E0E0E0"/>
<path d="M86.0622 58.6339H77.5546C77.45 58.6339 77.3652 58.5449 77.3652 58.4351C77.3652 58.3253 77.45 58.2363 77.5546 58.2363H86.0622C86.1668 58.2363 86.2515 58.3253 86.2515 58.4351C86.2515 58.5449 86.1668 58.6339 86.0622 58.6339Z" fill="#E0E0E0"/>
<path d="M86.0622 59.6999H77.5546C77.45 59.6999 77.3652 59.6109 77.3652 59.501C77.3652 59.3912 77.45 59.3022 77.5546 59.3022H86.0622C86.1668 59.3022 86.2515 59.3912 86.2515 59.501C86.2515 59.6109 86.1668 59.6999 86.0622 59.6999Z" fill="#E0E0E0"/>
<path d="M86.0622 60.7653H77.5546C77.45 60.7653 77.3652 60.6763 77.3652 60.5665C77.3652 60.4567 77.45 60.3677 77.5546 60.3677H86.0622C86.1668 60.3677 86.2515 60.4567 86.2515 60.5665C86.2515 60.6763 86.1668 60.7653 86.0622 60.7653Z" fill="#E0E0E0"/>
<path d="M71.4645 77.7005H61.3143C61.0528 77.7005 60.8409 77.4781 60.8409 77.2036V63.3406C60.8409 63.0662 61.0528 62.8438 61.3143 62.8438H71.4645C71.7259 62.8438 71.9378 63.0662 71.9378 63.3406V77.2036C71.9378 77.4781 71.7258 77.7005 71.4645 77.7005Z" fill="#E0E0E0"/>
<path d="M74.7731 64.7046C75.2626 64.7046 75.6594 64.288 75.6594 63.7742C75.6594 63.2603 75.2626 62.8438 74.7731 62.8438C74.2835 62.8438 73.8867 63.2603 73.8867 63.7742C73.8867 64.288 74.2835 64.7046 74.7731 64.7046Z" fill="#E0E0E0"/>
<path d="M85.9566 63.4401H77.449C77.3444 63.4401 77.2596 63.3511 77.2596 63.2413C77.2596 63.1315 77.3444 63.0425 77.449 63.0425H85.9566C86.0612 63.0425 86.1459 63.1315 86.1459 63.2413C86.1459 63.3511 86.0612 63.4401 85.9566 63.4401Z" fill="#E0E0E0"/>
<path d="M85.9566 64.506H77.449C77.3444 64.506 77.2596 64.417 77.2596 64.3072C77.2596 64.1974 77.3444 64.1084 77.449 64.1084H85.9566C86.0612 64.1084 86.1459 64.1974 86.1459 64.3072C86.1459 64.417 86.0612 64.506 85.9566 64.506Z" fill="#E0E0E0"/>
<path d="M85.9566 65.5714H77.449C77.3444 65.5714 77.2596 65.4824 77.2596 65.3726C77.2596 65.2628 77.3444 65.1738 77.449 65.1738H85.9566C86.0612 65.1738 86.1459 65.2628 86.1459 65.3726C86.1459 65.4824 86.0612 65.5714 85.9566 65.5714Z" fill="#E0E0E0"/>
<path d="M75.6353 67.8551C75.7473 67.3548 75.4518 66.8541 74.9752 66.7367C74.4986 66.6192 74.0215 66.9295 73.9095 67.4297C73.7975 67.9299 74.093 68.4307 74.5696 68.5481C75.0461 68.6656 75.5233 68.3553 75.6353 67.8551Z" fill="#E0E0E0"/>
<path d="M85.9567 67.3102H77.4492C77.3445 67.3102 77.2598 67.2212 77.2598 67.1114C77.2598 67.0016 77.3445 66.9126 77.4492 66.9126H85.9567C86.0613 66.9126 86.1461 67.0016 86.1461 67.1114C86.1461 67.2212 86.0613 67.3102 85.9567 67.3102Z" fill="#E0E0E0"/>
<path d="M85.9567 68.3761H77.4492C77.3445 68.3761 77.2598 68.2871 77.2598 68.1773C77.2598 68.0675 77.3445 67.9785 77.4492 67.9785H85.9567C86.0613 67.9785 86.1461 68.0675 86.1461 68.1773C86.1461 68.2871 86.0613 68.3761 85.9567 68.3761Z" fill="#E0E0E0"/>
<path d="M85.9567 69.4415H77.4492C77.3445 69.4415 77.2598 69.3526 77.2598 69.2427C77.2598 69.1329 77.3445 69.0439 77.4492 69.0439H85.9567C86.0613 69.0439 86.1461 69.1329 86.1461 69.2427C86.1461 69.3526 86.0613 69.4415 85.9567 69.4415Z" fill="#E0E0E0"/>
<path d="M75.6351 71.7257C75.7472 71.2254 75.4516 70.7247 74.9751 70.6073C74.4985 70.4898 74.0214 70.8001 73.9094 71.3003C73.7973 71.8006 74.0929 72.3013 74.5694 72.4187C75.046 72.5362 75.5231 72.2259 75.6351 71.7257Z" fill="#E0E0E0"/>
<path d="M85.9566 71.1808H77.449C77.3444 71.1808 77.2596 71.0918 77.2596 70.982C77.2596 70.8722 77.3444 70.7832 77.449 70.7832H85.9566C86.0612 70.7832 86.1459 70.8722 86.1459 70.982C86.1459 71.0918 86.0612 71.1808 85.9566 71.1808Z" fill="#E0E0E0"/>
<path d="M85.9566 72.2467H77.449C77.3444 72.2467 77.2596 72.1577 77.2596 72.0479C77.2596 71.9381 77.3444 71.8491 77.449 71.8491H85.9566C86.0612 71.8491 86.1459 71.9381 86.1459 72.0479C86.1459 72.1576 86.0612 72.2467 85.9566 72.2467Z" fill="#E0E0E0"/>
<path d="M85.9566 73.3122H77.449C77.3444 73.3122 77.2596 73.2232 77.2596 73.1134C77.2596 73.0035 77.3444 72.9146 77.449 72.9146H85.9566C86.0612 72.9146 86.1459 73.0035 86.1459 73.1134C86.1459 73.2232 86.0612 73.3122 85.9566 73.3122Z" fill="#E0E0E0"/>
<path d="M75.3992 76.043C75.7454 75.6797 75.7455 75.0908 75.3992 74.7276C75.053 74.3643 74.4916 74.3643 74.1454 74.7276C73.7991 75.0908 73.7991 75.6797 74.1454 76.043C74.4916 76.4062 75.053 76.4062 75.3992 76.043Z" fill="#E0E0E0"/>
<path d="M85.9567 75.0509H77.4492C77.3445 75.0509 77.2598 74.9619 77.2598 74.8521C77.2598 74.7423 77.3445 74.6533 77.4492 74.6533H85.9567C86.0613 74.6533 86.1461 74.7423 86.1461 74.8521C86.1461 74.9619 86.0613 75.0509 85.9567 75.0509Z" fill="#E0E0E0"/>
<path d="M85.9567 76.1168H77.4492C77.3445 76.1168 77.2598 76.0279 77.2598 75.918C77.2598 75.8082 77.3445 75.7192 77.4492 75.7192H85.9567C86.0613 75.7192 86.1461 75.8082 86.1461 75.918C86.1461 76.0279 86.0613 76.1168 85.9567 76.1168Z" fill="#E0E0E0"/>
<path d="M85.9567 77.1823H77.4492C77.3445 77.1823 77.2598 77.0933 77.2598 76.9835C77.2598 76.8737 77.3445 76.7847 77.4492 76.7847H85.9567C86.0613 76.7847 86.1461 76.8737 86.1461 76.9835C86.1461 77.0933 86.0613 77.1823 85.9567 77.1823Z" fill="#E0E0E0"/>
<path d="M69.9481 37.7146H63.0862C62.868 37.7146 62.6912 37.529 62.6912 37.3V31.6529C62.6912 31.4239 62.868 31.2383 63.0862 31.2383H69.9481C70.1663 31.2383 70.3431 31.4239 70.3431 31.6529V37.3C70.343 37.529 70.1662 37.7146 69.9481 37.7146Z" fill="#FFF4EE"/>
<path d="M70.1074 39.2136H62.926C62.796 39.2136 62.6907 39.103 62.6907 38.9665V38.9277C62.6907 38.7913 62.796 38.6807 62.926 38.6807H70.1074C70.2374 38.6807 70.3427 38.7913 70.3427 38.9277V38.9665C70.3426 39.103 70.2373 39.2136 70.1074 39.2136Z" fill="#FFF4EE"/>
<path d="M70.1074 40.3469H62.926C62.796 40.3469 62.6907 40.2363 62.6907 40.0998V40.061C62.6907 39.9246 62.796 39.814 62.926 39.814H70.1074C70.2374 39.814 70.3427 39.9246 70.3427 40.061V40.0998C70.3426 40.2363 70.2373 40.3469 70.1074 40.3469Z" fill="#FFF4EE"/>
<path d="M70.1074 41.4802H62.926C62.796 41.4802 62.6907 41.3696 62.6907 41.2331V41.1943C62.6907 41.0579 62.796 40.9473 62.926 40.9473H70.1074C70.2374 40.9473 70.3427 41.0579 70.3427 41.1943V41.2331C70.3426 41.3696 70.2373 41.4802 70.1074 41.4802Z" fill="#FFF4EE"/>
<path d="M70.1074 42.6135H62.926C62.796 42.6135 62.6907 42.5029 62.6907 42.3664V42.3276C62.6907 42.1912 62.796 42.0806 62.926 42.0806H70.1074C70.2374 42.0806 70.3427 42.1912 70.3427 42.3276V42.3664C70.3426 42.5029 70.2373 42.6135 70.1074 42.6135Z" fill="#FFF4EE"/>
<path d="M70.1074 43.7468H62.926C62.796 43.7468 62.6907 43.6362 62.6907 43.4997V43.4609C62.6907 43.3245 62.796 43.2139 62.926 43.2139H70.1074C70.2374 43.2139 70.3427 43.3245 70.3427 43.4609V43.4997C70.3426 43.6362 70.2373 43.7468 70.1074 43.7468Z" fill="#FFF4EE"/>
<path d="M69.9481 54.0769H63.0862C62.868 54.0769 62.6912 53.8913 62.6912 53.6623V48.0152C62.6912 47.7862 62.868 47.6006 63.0862 47.6006H69.9481C70.1663 47.6006 70.3431 47.7862 70.3431 48.0152V53.6623C70.343 53.8913 70.1662 54.0769 69.9481 54.0769Z" fill="#FFF4EE"/>
<path d="M70.1074 55.5759H62.926C62.796 55.5759 62.6907 55.4653 62.6907 55.3288V55.29C62.6907 55.1536 62.796 55.043 62.926 55.043H70.1074C70.2374 55.043 70.3427 55.1536 70.3427 55.29V55.3288C70.3426 55.4653 70.2373 55.5759 70.1074 55.5759Z" fill="#FFF4EE"/>
<path d="M70.1074 56.7092H62.926C62.796 56.7092 62.6907 56.5986 62.6907 56.4621V56.4233C62.6907 56.2869 62.796 56.1763 62.926 56.1763H70.1074C70.2374 56.1763 70.3427 56.2869 70.3427 56.4233V56.4621C70.3426 56.5986 70.2373 56.7092 70.1074 56.7092Z" fill="#FFF4EE"/>
<path d="M70.1074 57.8425H62.926C62.796 57.8425 62.6907 57.7319 62.6907 57.5954V57.5566C62.6907 57.4202 62.796 57.3096 62.926 57.3096H70.1074C70.2374 57.3096 70.3427 57.4202 70.3427 57.5566V57.5954C70.3426 57.7319 70.2373 57.8425 70.1074 57.8425Z" fill="#FFF4EE"/>
<path d="M70.1074 58.9758H62.926C62.796 58.9758 62.6907 58.8652 62.6907 58.7287V58.6899C62.6907 58.5535 62.796 58.4429 62.926 58.4429H70.1074C70.2374 58.4429 70.3427 58.5535 70.3427 58.6899V58.7287C70.3426 58.8652 70.2373 58.9758 70.1074 58.9758Z" fill="#FFF4EE"/>
<path d="M70.1074 60.1091H62.926C62.796 60.1091 62.6907 59.9985 62.6907 59.862V59.8232C62.6907 59.6868 62.796 59.5762 62.926 59.5762H70.1074C70.2374 59.5762 70.3427 59.6868 70.3427 59.8232V59.862C70.3426 59.9985 70.2373 60.1091 70.1074 60.1091Z" fill="#FFF4EE"/>
<path d="M69.9481 70.4397H63.0862C62.868 70.4397 62.6912 70.2541 62.6912 70.0251V64.378C62.6912 64.149 62.868 63.9634 63.0862 63.9634H69.9481C70.1663 63.9634 70.3431 64.149 70.3431 64.378V70.0251C70.343 70.2541 70.1662 70.4397 69.9481 70.4397Z" fill="#FFF4EE"/>
<path d="M70.1074 71.9387H62.926C62.796 71.9387 62.6907 71.828 62.6907 71.6916V71.6528C62.6907 71.5164 62.796 71.4058 62.926 71.4058H70.1074C70.2374 71.4058 70.3427 71.5164 70.3427 71.6528V71.6916C70.3426 71.828 70.2373 71.9387 70.1074 71.9387Z" fill="#FFF4EE"/>
<path d="M70.1074 73.072H62.926C62.796 73.072 62.6907 72.9614 62.6907 72.8249V72.7861C62.6907 72.6497 62.796 72.5391 62.926 72.5391H70.1074C70.2374 72.5391 70.3427 72.6497 70.3427 72.7861V72.8249C70.3426 72.9614 70.2373 73.072 70.1074 73.072Z" fill="#FFF4EE"/>
<path d="M70.1074 74.2053H62.926C62.796 74.2053 62.6907 74.0947 62.6907 73.9582V73.9194C62.6907 73.783 62.796 73.6724 62.926 73.6724H70.1074C70.2374 73.6724 70.3427 73.783 70.3427 73.9194V73.9582C70.3426 74.0947 70.2373 74.2053 70.1074 74.2053Z" fill="#FFF4EE"/>
<path d="M70.1074 75.3386H62.926C62.796 75.3386 62.6907 75.228 62.6907 75.0915V75.0527C62.6907 74.9163 62.796 74.8057 62.926 74.8057H70.1074C70.2374 74.8057 70.3427 74.9163 70.3427 75.0527V75.0915C70.3426 75.228 70.2373 75.3386 70.1074 75.3386Z" fill="#FFF4EE"/>
<path d="M70.1074 76.4719H62.926C62.796 76.4719 62.6907 76.3613 62.6907 76.2248V76.186C62.6907 76.0496 62.796 75.939 62.926 75.939H70.1074C70.2374 75.939 70.3427 76.0496 70.3427 76.186V76.2248C70.3426 76.3613 70.2373 76.4719 70.1074 76.4719Z" fill="#FFF4EE"/>
<path d="M153.197 80.4945H126.717C126.147 80.4945 125.685 80.0098 125.685 79.4119V28.6558C125.685 28.0579 126.147 27.5732 126.717 27.5732H153.197C153.767 27.5732 154.228 28.0579 154.228 28.6558V79.4118C154.228 80.0097 153.767 80.4945 153.197 80.4945Z" fill="#FFF4EE"/>
<path d="M151.707 30.0117H143.422C143.271 30.0117 143.148 29.8831 143.148 29.7244C143.148 29.5657 143.271 29.437 143.422 29.437H151.707C151.858 29.437 151.98 29.5656 151.98 29.7244C151.98 29.883 151.858 30.0117 151.707 30.0117Z" fill="#E0E0E0"/>
<path d="M151.707 31.3257H143.422C143.271 31.3257 143.148 31.1971 143.148 31.0383C143.148 30.8797 143.271 30.751 143.422 30.751H151.707C151.858 30.751 151.98 30.8796 151.98 31.0383C151.98 31.1971 151.858 31.3257 151.707 31.3257Z" fill="#E0E0E0"/>
<path d="M151.707 32.6401H143.422C143.271 32.6401 143.148 32.5115 143.148 32.3528C143.148 32.1941 143.271 32.0654 143.422 32.0654H151.707C151.858 32.0654 151.98 32.194 151.98 32.3528C151.98 32.5115 151.858 32.6401 151.707 32.6401Z" fill="#E0E0E0"/>
<path d="M151.707 33.9541H143.422C143.271 33.9541 143.148 33.8255 143.148 33.6667C143.148 33.5081 143.271 33.3794 143.422 33.3794H151.707C151.858 33.3794 151.98 33.508 151.98 33.6667C151.98 33.8255 151.858 33.9541 151.707 33.9541Z" fill="#E0E0E0"/>
<path d="M151.707 35.2686H143.422C143.271 35.2686 143.148 35.1399 143.148 34.9812C143.148 34.8225 143.271 34.6938 143.422 34.6938H151.707C151.858 34.6938 151.98 34.8225 151.98 34.9812C151.98 35.1399 151.858 35.2686 151.707 35.2686Z" fill="#E0E0E0"/>
<path d="M151.707 36.5825H143.422C143.271 36.5825 143.148 36.4539 143.148 36.2952C143.148 36.1365 143.271 36.0078 143.422 36.0078H151.707C151.858 36.0078 151.98 36.1364 151.98 36.2952C151.98 36.4538 151.858 36.5825 151.707 36.5825Z" fill="#E0E0E0"/>
<path d="M151.707 37.8965H143.422C143.271 37.8965 143.148 37.7679 143.148 37.6091C143.148 37.4505 143.271 37.3218 143.422 37.3218H151.707C151.858 37.3218 151.98 37.4504 151.98 37.6091C151.98 37.7679 151.858 37.8965 151.707 37.8965Z" fill="#E0E0E0"/>
<path d="M151.707 62.8838H143.422C143.271 62.8838 143.148 62.7552 143.148 62.5964C143.148 62.4378 143.271 62.3091 143.422 62.3091H151.707C151.858 62.3091 151.98 62.4377 151.98 62.5964C151.98 62.7551 151.858 62.8838 151.707 62.8838Z" fill="#E0E0E0"/>
<path d="M151.707 64.1978H143.422C143.271 64.1978 143.148 64.0691 143.148 63.9104C143.148 63.7517 143.271 63.623 143.422 63.623H151.707C151.858 63.623 151.98 63.7517 151.98 63.9104C151.98 64.0691 151.858 64.1978 151.707 64.1978Z" fill="#E0E0E0"/>
<path d="M151.707 65.5117H143.422C143.271 65.5117 143.148 65.3831 143.148 65.2244C143.148 65.0657 143.271 64.937 143.422 64.937H151.707C151.858 64.937 151.98 65.0656 151.98 65.2244C151.98 65.3831 151.858 65.5117 151.707 65.5117Z" fill="#E0E0E0"/>
<path d="M151.707 66.8262H143.422C143.271 66.8262 143.148 66.6976 143.148 66.5388C143.148 66.3802 143.271 66.2515 143.422 66.2515H151.707C151.858 66.2515 151.98 66.3801 151.98 66.5388C151.98 66.6976 151.858 66.8262 151.707 66.8262Z" fill="#E0E0E0"/>
<path d="M151.707 68.1401H143.422C143.271 68.1401 143.148 68.0115 143.148 67.8528C143.148 67.6941 143.271 67.5654 143.422 67.5654H151.707C151.858 67.5654 151.98 67.694 151.98 67.8528C151.98 68.0115 151.858 68.1401 151.707 68.1401Z" fill="#E0E0E0"/>
<path d="M151.707 69.4546H143.422C143.271 69.4546 143.148 69.326 143.148 69.1672C143.148 69.0086 143.271 68.8799 143.422 68.8799H151.707C151.858 68.8799 151.98 69.0085 151.98 69.1672C151.98 69.3259 151.858 69.4546 151.707 69.4546Z" fill="#E0E0E0"/>
<path d="M151.707 70.7686H143.422C143.271 70.7686 143.148 70.6399 143.148 70.4812C143.148 70.3225 143.271 70.1938 143.422 70.1938H151.707C151.858 70.1938 151.98 70.3225 151.98 70.4812C151.98 70.6399 151.858 70.7686 151.707 70.7686Z" fill="#E0E0E0"/>
<path d="M151.707 72.2437H143.422C143.271 72.2437 143.148 72.115 143.148 71.9563C143.148 71.7976 143.271 71.6689 143.422 71.6689H151.707C151.858 71.6689 151.98 71.7976 151.98 71.9563C151.98 72.115 151.858 72.2437 151.707 72.2437Z" fill="#E0E0E0"/>
<path d="M151.707 73.5581H143.422C143.271 73.5581 143.148 73.4295 143.148 73.2708C143.148 73.1121 143.271 72.9834 143.422 72.9834H151.707C151.858 72.9834 151.98 73.112 151.98 73.2708C151.98 73.4294 151.858 73.5581 151.707 73.5581Z" fill="#E0E0E0"/>
<path d="M151.707 74.8721H143.422C143.271 74.8721 143.148 74.7435 143.148 74.5847C143.148 74.4261 143.271 74.2974 143.422 74.2974H151.707C151.858 74.2974 151.98 74.426 151.98 74.5847C151.98 74.7435 151.858 74.8721 151.707 74.8721Z" fill="#E0E0E0"/>
<path d="M151.707 76.1865H143.422C143.271 76.1865 143.148 76.0579 143.148 75.8992C143.148 75.7405 143.271 75.6118 143.422 75.6118H151.707C151.858 75.6118 151.98 75.7404 151.98 75.8992C151.98 76.0578 151.858 76.1865 151.707 76.1865Z" fill="#E0E0E0"/>
<path d="M151.707 77.5005H143.422C143.271 77.5005 143.148 77.3719 143.148 77.2131C143.148 77.0545 143.271 76.9258 143.422 76.9258H151.707C151.858 76.9258 151.98 77.0544 151.98 77.2131C151.98 77.3719 151.858 77.5005 151.707 77.5005Z" fill="#E0E0E0"/>
<path d="M151.707 78.8149H143.422C143.271 78.8149 143.148 78.6863 143.148 78.5276C143.148 78.3689 143.271 78.2402 143.422 78.2402H151.707C151.858 78.2402 151.98 78.3688 151.98 78.5276C151.98 78.6862 151.858 78.8149 151.707 78.8149Z" fill="#E0E0E0"/>
<path d="M151.707 39.2109H143.422C143.271 39.2109 143.148 39.0823 143.148 38.9236C143.148 38.7649 143.271 38.6362 143.422 38.6362H151.707C151.858 38.6362 151.98 38.7648 151.98 38.9236C151.98 39.0822 151.858 39.2109 151.707 39.2109Z" fill="#E0E0E0"/>
<path d="M151.707 40.5249H143.422C143.271 40.5249 143.148 40.3963 143.148 40.2375C143.148 40.0789 143.271 39.9502 143.422 39.9502H151.707C151.858 39.9502 151.98 40.0788 151.98 40.2375C151.98 40.3963 151.858 40.5249 151.707 40.5249Z" fill="#E0E0E0"/>
<path d="M151.707 41.8394H143.422C143.271 41.8394 143.148 41.7107 143.148 41.552C143.148 41.3933 143.271 41.2646 143.422 41.2646H151.707C151.858 41.2646 151.98 41.3933 151.98 41.552C151.98 41.7107 151.858 41.8394 151.707 41.8394Z" fill="#E0E0E0"/>
<path d="M151.707 43.1533H143.422C143.271 43.1533 143.148 43.0247 143.148 42.866C143.148 42.7073 143.271 42.5786 143.422 42.5786H151.707C151.858 42.5786 151.98 42.7072 151.98 42.866C151.98 43.0247 151.858 43.1533 151.707 43.1533Z" fill="#E0E0E0"/>
<path d="M151.707 44.4678H143.422C143.271 44.4678 143.148 44.3392 143.148 44.1804C143.148 44.0218 143.271 43.8931 143.422 43.8931H151.707C151.858 43.8931 151.98 44.0217 151.98 44.1804C151.98 44.3392 151.858 44.4678 151.707 44.4678Z" fill="#E0E0E0"/>
<path d="M151.707 45.7817H143.422C143.271 45.7817 143.148 45.6531 143.148 45.4944C143.148 45.3357 143.271 45.207 143.422 45.207H151.707C151.858 45.207 151.98 45.3356 151.98 45.4944C151.98 45.6531 151.858 45.7817 151.707 45.7817Z" fill="#E0E0E0"/>
<path d="M151.707 47.0957H143.422C143.271 47.0957 143.148 46.9671 143.148 46.8083C143.148 46.6497 143.271 46.521 143.422 46.521H151.707C151.858 46.521 151.98 46.6496 151.98 46.8083C151.98 46.9671 151.858 47.0957 151.707 47.0957Z" fill="#E0E0E0"/>
<path d="M151.707 48.4102H143.422C143.271 48.4102 143.148 48.2815 143.148 48.1228C143.148 47.9641 143.271 47.8354 143.422 47.8354H151.707C151.858 47.8354 151.98 47.9641 151.98 48.1228C151.98 48.2815 151.858 48.4102 151.707 48.4102Z" fill="#E0E0E0"/>
<path d="M151.707 49.7241H143.422C143.271 49.7241 143.148 49.5955 143.148 49.4368C143.148 49.2781 143.271 49.1494 143.422 49.1494H151.707C151.858 49.1494 151.98 49.278 151.98 49.4368C151.98 49.5955 151.858 49.7241 151.707 49.7241Z" fill="#E0E0E0"/>
<path d="M140.509 52.7007H128.207C128.056 52.7007 127.933 52.5721 127.933 52.4133C127.933 52.2547 128.056 52.126 128.207 52.126H140.509C140.66 52.126 140.783 52.2546 140.783 52.4133C140.783 52.5721 140.66 52.7007 140.509 52.7007Z" fill="#E0E0E0"/>
<path d="M140.509 54.0151H128.207C128.056 54.0151 127.933 53.8865 127.933 53.7278C127.933 53.5691 128.056 53.4404 128.207 53.4404H140.509C140.66 53.4404 140.783 53.569 140.783 53.7278C140.783 53.8865 140.66 54.0151 140.509 54.0151Z" fill="#E0E0E0"/>
<path d="M140.509 55.3291H128.207C128.056 55.3291 127.933 55.2005 127.933 55.0417C127.933 54.8831 128.056 54.7544 128.207 54.7544H140.509C140.66 54.7544 140.783 54.883 140.783 55.0417C140.783 55.2005 140.66 55.3291 140.509 55.3291Z" fill="#E0E0E0"/>
<path d="M140.509 56.6436H128.207C128.056 56.6436 127.933 56.5149 127.933 56.3562C127.933 56.1975 128.056 56.0688 128.207 56.0688H140.509C140.66 56.0688 140.783 56.1975 140.783 56.3562C140.783 56.5149 140.66 56.6436 140.509 56.6436Z" fill="#E0E0E0"/>
<path d="M140.509 57.9575H128.207C128.056 57.9575 127.933 57.8289 127.933 57.6702C127.933 57.5115 128.056 57.3828 128.207 57.3828H140.509C140.66 57.3828 140.783 57.5114 140.783 57.6702C140.783 57.8289 140.66 57.9575 140.509 57.9575Z" fill="#E0E0E0"/>
<path d="M140.509 59.272H128.207C128.056 59.272 127.933 59.1434 127.933 58.9846C127.933 58.826 128.056 58.6973 128.207 58.6973H140.509C140.66 58.6973 140.783 58.8259 140.783 58.9846C140.783 59.1433 140.66 59.272 140.509 59.272Z" fill="#E0E0E0"/>
<path d="M140.509 60.5859H128.207C128.056 60.5859 127.933 60.4573 127.933 60.2986C127.933 60.1399 128.056 60.0112 128.207 60.0112H140.509C140.66 60.0112 140.783 60.1398 140.783 60.2986C140.783 60.4573 140.66 60.5859 140.509 60.5859Z" fill="#E0E0E0"/>
<path d="M140.509 61.8999H128.207C128.056 61.8999 127.933 61.7713 127.933 61.6125C127.933 61.4539 128.056 61.3252 128.207 61.3252H140.509C140.66 61.3252 140.783 61.4538 140.783 61.6125C140.783 61.7712 140.66 61.8999 140.509 61.8999Z" fill="#E0E0E0"/>
<path d="M140.509 63.2144H128.207C128.056 63.2144 127.933 63.0857 127.933 62.927C127.933 62.7683 128.056 62.6396 128.207 62.6396H140.509C140.66 62.6396 140.783 62.7683 140.783 62.927C140.783 63.0857 140.66 63.2144 140.509 63.2144Z" fill="#E0E0E0"/>
<path d="M140.509 64.5283H128.207C128.056 64.5283 127.933 64.3997 127.933 64.241C127.933 64.0823 128.056 63.9536 128.207 63.9536H140.509C140.66 63.9536 140.783 64.0822 140.783 64.241C140.783 64.3996 140.66 64.5283 140.509 64.5283Z" fill="#E0E0E0"/>
<path d="M140.509 65.8428H128.207C128.056 65.8428 127.933 65.7142 127.933 65.5554C127.933 65.3968 128.056 65.2681 128.207 65.2681H140.509C140.66 65.2681 140.783 65.3967 140.783 65.5554C140.783 65.7142 140.66 65.8428 140.509 65.8428Z" fill="#E0E0E0"/>
<path d="M140.509 67.1567H128.207C128.056 67.1567 127.933 67.0281 127.933 66.8694C127.933 66.7107 128.056 66.582 128.207 66.582H140.509C140.66 66.582 140.783 66.7106 140.783 66.8694C140.783 67.0281 140.66 67.1567 140.509 67.1567Z" fill="#E0E0E0"/>
<path d="M140.509 68.4712H128.207C128.056 68.4712 127.933 68.3426 127.933 68.1838C127.933 68.0252 128.056 67.8965 128.207 67.8965H140.509C140.66 67.8965 140.783 68.0251 140.783 68.1838C140.783 68.3426 140.66 68.4712 140.509 68.4712Z" fill="#E0E0E0"/>
<path d="M140.509 69.7852H128.207C128.056 69.7852 127.933 69.6565 127.933 69.4978C127.933 69.3391 128.056 69.2104 128.207 69.2104H140.509C140.66 69.2104 140.783 69.3391 140.783 69.4978C140.783 69.6565 140.66 69.7852 140.509 69.7852Z" fill="#E0E0E0"/>
<path d="M140.509 71.0991H128.207C128.056 71.0991 127.933 70.9705 127.933 70.8118C127.933 70.6531 128.056 70.5244 128.207 70.5244H140.509C140.66 70.5244 140.783 70.653 140.783 70.8118C140.783 70.9704 140.66 71.0991 140.509 71.0991Z" fill="#E0E0E0"/>
<path d="M140.509 72.4136H128.207C128.056 72.4136 127.933 72.285 127.933 72.1262C127.933 71.9676 128.056 71.8389 128.207 71.8389H140.509C140.66 71.8389 140.783 71.9675 140.783 72.1262C140.783 72.285 140.66 72.4136 140.509 72.4136Z" fill="#E0E0E0"/>
<path d="M140.509 73.6411H128.207C128.056 73.6411 127.933 73.5125 127.933 73.3538C127.933 73.1951 128.056 73.0664 128.207 73.0664H140.509C140.66 73.0664 140.783 73.195 140.783 73.3538C140.783 73.5125 140.66 73.6411 140.509 73.6411Z" fill="#E0E0E0"/>
<path d="M140.509 74.9551H128.207C128.056 74.9551 127.933 74.8265 127.933 74.6677C127.933 74.5091 128.056 74.3804 128.207 74.3804H140.509C140.66 74.3804 140.783 74.509 140.783 74.6677C140.783 74.8265 140.66 74.9551 140.509 74.9551Z" fill="#E0E0E0"/>
<path d="M140.509 76.269H128.207C128.056 76.269 127.933 76.1404 127.933 75.9817C127.933 75.823 128.056 75.6943 128.207 75.6943H140.509C140.66 75.6943 140.783 75.8229 140.783 75.9817C140.783 76.1404 140.66 76.269 140.509 76.269Z" fill="#E0E0E0"/>
<path d="M140.509 77.5835H128.207C128.056 77.5835 127.933 77.4549 127.933 77.2961C127.933 77.1375 128.056 77.0088 128.207 77.0088H140.509C140.66 77.0088 140.783 77.1374 140.783 77.2961C140.783 77.4549 140.66 77.5835 140.509 77.5835Z" fill="#E0E0E0"/>
<path d="M140.509 78.8975H128.207C128.056 78.8975 127.933 78.7689 127.933 78.6101C127.933 78.4515 128.056 78.3228 128.207 78.3228H140.509C140.66 78.3228 140.783 78.4514 140.783 78.6101C140.783 78.7689 140.66 78.8975 140.509 78.8975Z" fill="#E0E0E0"/>
<path d="M151.746 60.6568H143.383C143.253 60.6568 143.148 60.5465 143.148 60.4105V52.3005C143.148 52.1644 143.253 52.0542 143.383 52.0542H151.746C151.875 52.0542 151.98 52.1644 151.98 52.3005V60.4105C151.98 60.5465 151.875 60.6568 151.746 60.6568Z" fill="#E0E0E0"/>
<path d="M140.466 49.7242H128.25C128.075 49.7242 127.934 49.5754 127.934 49.3918V29.7694C127.934 29.5858 128.075 29.437 128.25 29.437H140.466C140.641 29.437 140.783 29.5858 140.783 29.7694V49.3918C140.783 49.5754 140.641 49.7242 140.466 49.7242Z" fill="#E0E0E0"/>
<path d="M139.383 36.5827H129.333C129.227 36.5827 129.142 36.4928 129.142 36.3821V30.9023C129.142 30.7915 129.227 30.7017 129.333 30.7017H139.383C139.489 30.7017 139.574 30.7915 139.574 30.9023V36.3821C139.574 36.4928 139.489 36.5827 139.383 36.5827Z" fill="#FFF4EE"/>
<path d="M139.383 43.1784H129.333C129.227 43.1784 129.142 43.0885 129.142 42.9778V37.498C129.142 37.3872 129.227 37.2974 129.333 37.2974H139.383C139.489 37.2974 139.574 37.3872 139.574 37.498V42.9778C139.574 43.0885 139.489 43.1784 139.383 43.1784Z" fill="#FFF4EE"/>
<path d="M133.887 48.7753H129.307C129.216 48.7753 129.142 48.6974 129.142 48.6012V44.0671C129.142 43.971 129.216 43.8931 129.307 43.8931H133.887C133.978 43.8931 134.052 43.971 134.052 44.0671V48.6012C134.052 48.6974 133.978 48.7753 133.887 48.7753Z" fill="#FFF4EE"/>
<path d="M139.407 48.7753H134.712C134.619 48.7753 134.544 48.6964 134.544 48.5991V44.0692C134.544 43.9719 134.619 43.8931 134.712 43.8931H139.407C139.499 43.8931 139.574 43.972 139.574 44.0692V48.5991C139.574 48.6964 139.499 48.7753 139.407 48.7753Z" fill="#FFF4EE"/>
<path d="M120.018 80.4945H93.5378C92.9682 80.4945 92.5065 80.0098 92.5065 79.4119V28.6558C92.5065 28.0579 92.9682 27.5732 93.5378 27.5732H120.018C120.588 27.5732 121.049 28.0579 121.049 28.6558V79.4118C121.049 80.0097 120.588 80.4945 120.018 80.4945Z" fill="#FFF4EE"/>
<path d="M105.542 41.8196H95.2441C94.9817 41.8196 94.7689 41.5963 94.7689 41.3208V30.5105C94.7689 30.235 94.9817 30.0117 95.2441 30.0117H105.542C105.805 30.0117 106.018 30.235 106.018 30.5105V41.3208C106.018 41.5963 105.805 41.8196 105.542 41.8196Z" fill="#E0E0E0"/>
<path d="M118.842 30.7291H110.859C110.722 30.7291 110.611 30.6124 110.611 30.4685V30.2723C110.611 30.1284 110.722 30.0117 110.859 30.0117H118.842C118.979 30.0117 119.09 30.1284 119.09 30.2723V30.4685C119.09 30.6124 118.979 30.7291 118.842 30.7291Z" fill="#E0E0E0"/>
<path d="M118.842 31.9806H110.859C110.722 31.9806 110.611 31.8639 110.611 31.72V31.5237C110.611 31.3798 110.722 31.2632 110.859 31.2632H118.842C118.979 31.2632 119.09 31.3798 119.09 31.5237V31.72C119.09 31.8639 118.979 31.9806 118.842 31.9806Z" fill="#E0E0E0"/>
<path d="M118.842 33.2315H110.859C110.722 33.2315 110.611 33.1149 110.611 32.971V32.7747C110.611 32.6308 110.722 32.5142 110.859 32.5142H118.842C118.979 32.5142 119.09 32.6308 119.09 32.7747V32.971C119.09 33.1149 118.979 33.2315 118.842 33.2315Z" fill="#E0E0E0"/>
<path d="M118.842 34.483H110.859C110.722 34.483 110.611 34.3663 110.611 34.2224V34.0262C110.611 33.8823 110.722 33.7656 110.859 33.7656H118.842C118.979 33.7656 119.09 33.8823 119.09 34.0262V34.2224C119.09 34.3663 118.979 34.483 118.842 34.483Z" fill="#E0E0E0"/>
<path d="M118.842 35.7345H110.859C110.722 35.7345 110.611 35.6178 110.611 35.4739V35.2777C110.611 35.1338 110.722 35.0171 110.859 35.0171H118.842C118.979 35.0171 119.09 35.1338 119.09 35.2777V35.4739C119.09 35.6179 118.979 35.7345 118.842 35.7345Z" fill="#E0E0E0"/>
<path d="M118.842 36.9859H110.859C110.722 36.9859 110.611 36.8693 110.611 36.7254V36.5291C110.611 36.3852 110.722 36.2686 110.859 36.2686H118.842C118.979 36.2686 119.09 36.3852 119.09 36.5291V36.7254C119.09 36.8694 118.979 36.9859 118.842 36.9859Z" fill="#E0E0E0"/>
<path d="M118.842 38.2374H110.859C110.722 38.2374 110.611 38.1207 110.611 37.9768V37.7806C110.611 37.6367 110.722 37.52 110.859 37.52H118.842C118.979 37.52 119.09 37.6367 119.09 37.7806V37.9768C119.09 38.1207 118.979 38.2374 118.842 38.2374Z" fill="#E0E0E0"/>
<path d="M118.842 39.4884H110.859C110.722 39.4884 110.611 39.3717 110.611 39.2278V39.0316C110.611 38.8877 110.722 38.771 110.859 38.771H118.842C118.979 38.771 119.09 38.8877 119.09 39.0316V39.2278C119.09 39.3717 118.979 39.4884 118.842 39.4884Z" fill="#E0E0E0"/>
<path d="M118.842 40.7398H110.859C110.722 40.7398 110.611 40.6232 110.611 40.4793V40.283C110.611 40.1391 110.722 40.0225 110.859 40.0225H118.842C118.979 40.0225 119.09 40.1391 119.09 40.283V40.4793C119.09 40.6232 118.979 40.7398 118.842 40.7398Z" fill="#E0E0E0"/>
<path d="M118.842 41.9913H110.859C110.722 41.9913 110.611 41.8746 110.611 41.7307V41.5345C110.611 41.3906 110.722 41.2739 110.859 41.2739H118.842C118.979 41.2739 119.09 41.3906 119.09 41.5345V41.7307C119.09 41.8746 118.979 41.9913 118.842 41.9913Z" fill="#E0E0E0"/>
<path d="M108.165 31.7933C108.495 31.7933 108.761 31.5132 108.761 31.1677C108.761 30.8221 108.495 30.542 108.165 30.542C107.836 30.542 107.569 30.8221 107.569 31.1677C107.569 31.5132 107.836 31.7933 108.165 31.7933Z" fill="#E0E0E0"/>
<path d="M108.165 36.7127C108.495 36.7127 108.761 36.4326 108.761 36.0871C108.761 35.7415 108.495 35.4614 108.165 35.4614C107.836 35.4614 107.569 35.7415 107.569 36.0871C107.569 36.4326 107.836 36.7127 108.165 36.7127Z" fill="#E0E0E0"/>
<path d="M108.761 41.0065C108.761 41.352 108.495 41.6322 108.165 41.6322C107.836 41.6322 107.569 41.352 107.569 41.0065C107.569 40.6609 107.836 40.3809 108.165 40.3809C108.495 40.3809 108.761 40.661 108.761 41.0065Z" fill="#E0E0E0"/>
<path d="M119.09 43.7466H94.7689V45.2069H119.09V43.7466Z" fill="#E0E0E0"/>
<path d="M119.09 46.2793H94.7689V47.7396H119.09V46.2793Z" fill="#E0E0E0"/>
<path d="M107.569 48.8115H94.7689V50.2718H107.569V48.8115Z" fill="#E0E0E0"/>
<path d="M118.905 53.0245H94.954C94.8518 53.0245 94.7689 52.9376 94.7689 52.8303V52.3519C94.7689 52.2447 94.8518 52.1577 94.954 52.1577H118.905C119.007 52.1577 119.09 52.2447 119.09 52.3519V52.8303C119.09 52.9376 119.007 53.0245 118.905 53.0245Z" fill="#E0E0E0"/>
<path d="M118.905 54.7994H94.954C94.8518 54.7994 94.7689 54.7125 94.7689 54.6052V54.1269C94.7689 54.0196 94.8518 53.9326 94.954 53.9326H118.905C119.007 53.9326 119.09 54.0196 119.09 54.1269V54.6052C119.09 54.7125 119.007 54.7994 118.905 54.7994Z" fill="#E0E0E0"/>
<path d="M118.905 56.5743H94.954C94.8518 56.5743 94.7689 56.4874 94.7689 56.3801V55.9018C94.7689 55.7945 94.8518 55.7075 94.954 55.7075H118.905C119.007 55.7075 119.09 55.7945 119.09 55.9018V56.3801C119.09 56.4874 119.007 56.5743 118.905 56.5743Z" fill="#E0E0E0"/>
<path d="M118.905 58.3492H94.954C94.8518 58.3492 94.7689 58.2623 94.7689 58.155V57.6767C94.7689 57.5694 94.8518 57.4824 94.954 57.4824H118.905C119.007 57.4824 119.09 57.5694 119.09 57.6767V58.155C119.09 58.2623 119.007 58.3492 118.905 58.3492Z" fill="#E0E0E0"/>
<path d="M118.905 60.1241H94.954C94.8518 60.1241 94.7689 60.0372 94.7689 59.9299V59.4516C94.7689 59.3443 94.8518 59.2573 94.954 59.2573H118.905C119.007 59.2573 119.09 59.3443 119.09 59.4516V59.9299C119.09 60.0372 119.007 60.1241 118.905 60.1241Z" fill="#E0E0E0"/>
<path d="M118.905 61.899H94.954C94.8518 61.899 94.7689 61.8121 94.7689 61.7048V61.2265C94.7689 61.1192 94.8518 61.0322 94.954 61.0322H118.905C119.007 61.0322 119.09 61.1192 119.09 61.2265V61.7048C119.09 61.8121 119.007 61.899 118.905 61.899Z" fill="#E0E0E0"/>
<path d="M106.943 63.674H94.9006C94.8278 63.674 94.7689 63.6122 94.7689 63.5358V62.9453C94.7689 62.869 94.8278 62.8071 94.9006 62.8071H106.943C107.016 62.8071 107.075 62.869 107.075 62.9453V63.5358C107.075 63.6122 107.016 63.674 106.943 63.674Z" fill="#E0E0E0"/>
<path d="M101.304 74.2051H95.4323C95.066 74.2051 94.769 73.8935 94.769 73.5089V66.9477C94.769 66.5632 95.066 66.2515 95.4323 66.2515H101.304C101.67 66.2515 101.967 66.5632 101.967 66.9477V73.5089C101.967 73.8935 101.67 74.2051 101.304 74.2051Z" fill="#E0E0E0"/>
<path d="M109.865 74.1707H103.994C103.627 74.1707 103.33 73.859 103.33 73.4744V66.9131C103.33 66.5286 103.627 66.2168 103.994 66.2168H109.865C110.232 66.2168 110.529 66.5285 110.529 66.9131V73.4744C110.529 73.859 110.232 74.1707 109.865 74.1707Z" fill="#E0E0E0"/>
<path d="M118.427 74.1364H112.555C112.189 74.1364 111.892 73.8247 111.892 73.4401V66.8788C111.892 66.4943 112.189 66.1826 112.555 66.1826H118.427C118.793 66.1826 119.09 66.4943 119.09 66.8788V73.4401C119.09 73.8247 118.793 74.1364 118.427 74.1364Z" fill="#E0E0E0"/>
<path d="M118.981 76.4715H94.8785C94.8182 76.4715 94.7694 76.4203 94.7694 76.3571V75.8332C94.7694 75.77 94.8182 75.7188 94.8785 75.7188H118.981C119.042 75.7188 119.091 75.77 119.091 75.8332V76.3571C119.091 76.4203 119.042 76.4715 118.981 76.4715Z" fill="#E0E0E0"/>
<path d="M118.981 77.8768H94.8781C94.8178 77.8768 94.769 77.8256 94.769 77.7623V77.2385C94.769 77.1752 94.8178 77.124 94.8781 77.124H118.981C119.041 77.124 119.09 77.1752 119.09 77.2385V77.7623C119.09 77.8256 119.041 77.8768 118.981 77.8768Z" fill="#E0E0E0"/>
<path d="M109.232 79.2821H94.8533C94.8067 79.2821 94.7689 79.2425 94.7689 79.1935V78.6179C94.7689 78.5689 94.8067 78.5293 94.8533 78.5293H109.232C109.278 78.5293 109.316 78.5689 109.316 78.6179V79.1935C109.316 79.2425 109.278 79.2821 109.232 79.2821Z" fill="#E0E0E0"/>
<path d="M108.116 23.0935H89.172C88.6456 23.0935 88.2189 22.6455 88.2189 22.093V9.06301C88.2189 8.51044 88.6456 8.0625 89.172 8.0625H108.116C108.643 8.0625 109.069 8.51044 109.069 9.06301V22.093C109.069 22.6455 108.642 23.0935 108.116 23.0935Z" fill="#F2935C"/>
<path d="M93.5885 16.8931C93.5885 17.4195 93.5143 17.8286 93.3658 18.12C93.0904 18.6522 92.5667 18.9182 91.7946 18.9182C91.3491 18.9182 90.9685 18.7916 90.6527 18.5382C90.3368 18.2849 90.1788 17.8342 90.1788 17.1859V16.7401H90.9352V17.1859C90.9352 17.5256 91.0074 17.7811 91.1521 17.9523C91.2967 18.1236 91.5217 18.2092 91.827 18.2092C92.2566 18.2092 92.5377 18.0549 92.6702 17.7464C92.7512 17.5568 92.7918 17.1987 92.7918 16.6722V12.5156H93.5886V16.8931H93.5885Z" fill="#102A54"/>
<path d="M99.7041 13.4072C100.098 13.9591 100.295 14.6654 100.295 15.5258C100.295 16.4571 100.07 17.2312 99.6192 17.8482C99.0907 18.5729 98.337 18.9351 97.3582 18.9351C96.4441 18.9351 95.7256 18.6181 95.2024 17.984C94.7358 17.3726 94.5027 16.5999 94.5027 15.6659C94.5027 14.8224 94.7022 14.1007 95.1013 13.5006C95.6136 12.7307 96.3713 12.3457 97.3744 12.3457C98.4233 12.3457 99.1998 12.6996 99.7041 13.4072ZM98.9943 17.3826C99.3111 16.8487 99.4696 16.2346 99.4696 15.5406C99.4696 14.8069 99.2869 14.2163 98.9215 13.7687C98.5561 13.3211 98.0565 13.0973 97.4229 13.0973C96.8081 13.0973 96.3066 13.319 95.9183 13.7623C95.53 14.2056 95.3359 14.8592 95.3359 15.7232C95.3359 16.4145 95.5023 16.9973 95.8354 17.4718C96.1684 17.9463 96.7084 18.1835 97.4553 18.1835C98.1644 18.1836 98.6774 17.9166 98.9943 17.3826Z" fill="#102A54"/>
<path d="M101.233 12.5156H103.802C104.502 12.5156 105 12.7337 105.296 13.1695C105.47 13.4271 105.557 13.7243 105.557 14.0611C105.557 14.4545 105.45 14.7772 105.237 15.0291C105.127 15.1622 104.968 15.2838 104.76 15.3942C105.065 15.5159 105.292 15.6532 105.443 15.806C105.71 16.0777 105.844 16.4528 105.844 16.9311C105.844 17.3331 105.723 17.6968 105.482 18.0223C105.121 18.5091 104.547 18.7526 103.76 18.7526H101.233V12.5156H101.233ZM103.501 15.1522C103.845 15.1522 104.112 15.1028 104.302 15.0037C104.602 14.848 104.752 14.5679 104.752 14.1631C104.752 13.7554 104.593 13.481 104.274 13.3394C104.094 13.2601 103.827 13.2205 103.473 13.2205H102.022V15.1523H103.501V15.1522ZM103.773 18.0309C104.271 18.0309 104.627 17.8809 104.839 17.5808C104.972 17.3912 105.039 17.162 105.039 16.8931C105.039 16.4402 104.844 16.1317 104.455 15.9675C104.248 15.8798 103.975 15.8359 103.634 15.8359H102.022V18.031H103.773V18.0309Z" fill="#102A54"/>
<path d="M106.45 26.8087C106.331 26.8087 106.218 26.7514 106.141 26.6466L103.252 22.6871H88.6202C88.0254 22.6871 87.5415 22.1792 87.5415 21.5548V8.52486C87.5415 7.90052 88.0254 7.39258 88.6202 7.39258H107.564C108.159 7.39258 108.643 7.90052 108.643 8.52486V21.5548C108.643 22.1792 108.159 22.6871 107.564 22.6871H106.845V26.3963C106.845 26.5756 106.74 26.7287 106.578 26.7862C106.536 26.8013 106.492 26.8087 106.45 26.8087ZM88.6202 7.65621C88.1638 7.65621 87.7926 8.04591 87.7926 8.52495V21.5548C87.7926 22.0339 88.1638 22.4236 88.6202 22.4236H103.376L106.34 26.4864C106.397 26.5647 106.475 26.5445 106.498 26.5366C106.52 26.5286 106.594 26.4948 106.594 26.3963V22.4236H107.564C108.021 22.4236 108.392 22.0339 108.392 21.5548V8.52486C108.392 8.04582 108.021 7.65613 107.564 7.65613L88.6202 7.65621Z" fill="#102A54"/>
<path d="M149.146 31.4045H168.09C168.616 31.4045 169.043 30.9566 169.043 30.404V17.374C169.043 16.8215 168.616 16.3735 168.09 16.3735H149.146C148.619 16.3735 148.192 16.8215 148.192 17.374V30.404C148.192 30.9566 148.619 31.4045 149.146 31.4045Z" fill="#F2935C"/>
<path d="M154.827 25.204C154.827 25.7305 154.753 26.1395 154.605 26.431C154.329 26.9632 153.806 27.2292 153.034 27.2292C152.588 27.2292 152.207 27.1025 151.892 26.8492C151.576 26.5959 151.418 26.1451 151.418 25.4969V25.0511H152.174V25.4969C152.174 25.8365 152.246 26.0921 152.391 26.2633C152.536 26.4346 152.761 26.5202 153.066 26.5202C153.495 26.5202 153.777 26.3659 153.909 26.0574C153.99 25.8678 154.031 25.5097 154.031 24.9832V20.8267H154.827L154.827 25.204Z" fill="#102A54"/>
<path d="M160.943 21.7182C161.337 22.2702 161.534 22.9764 161.534 23.8369C161.534 24.7682 161.308 25.5423 160.858 26.1593C160.33 26.8839 159.576 27.2461 158.597 27.2461C157.683 27.2461 156.964 26.9292 156.441 26.2951C155.975 25.6836 155.742 24.9109 155.742 23.9769C155.742 23.1335 155.941 22.4117 156.34 21.8116C156.852 21.0417 157.61 20.6567 158.613 20.6567C159.662 20.6567 160.439 21.0106 160.943 21.7182ZM160.233 25.6937C160.55 25.1597 160.708 24.5456 160.708 23.8516C160.708 23.1179 160.526 22.5273 160.16 22.0797C159.795 21.6321 159.295 21.4083 158.662 21.4083C158.047 21.4083 157.546 21.63 157.157 22.0733C156.769 22.5167 156.575 23.1703 156.575 24.0343C156.575 24.7256 156.741 25.3084 157.074 25.7828C157.407 26.2574 157.947 26.4946 158.694 26.4946C159.403 26.4947 159.916 26.2277 160.233 25.6937Z" fill="#102A54"/>
<path d="M162.472 20.8267H165.041C165.741 20.8267 166.239 21.0446 166.535 21.4805C166.709 21.7381 166.796 22.0353 166.796 22.3721C166.796 22.7656 166.689 23.0882 166.476 23.3401C166.365 23.4732 166.206 23.5949 165.999 23.7052C166.304 23.827 166.531 23.9642 166.682 24.117C166.949 24.3888 167.083 24.7639 167.083 25.2421C167.083 25.6441 166.962 26.0078 166.721 26.3333C166.36 26.8202 165.786 27.0636 164.999 27.0636H162.472L162.472 20.8267ZM164.74 23.4633C165.083 23.4633 165.351 23.4138 165.541 23.3146C165.841 23.159 165.991 22.8788 165.991 22.474C165.991 22.0664 165.832 21.7919 165.513 21.6503C165.333 21.5711 165.066 21.5315 164.712 21.5315H163.261V23.4633H164.74ZM165.012 26.3419C165.51 26.3419 165.866 26.1919 166.078 25.8919C166.211 25.7023 166.278 25.473 166.278 25.2041C166.278 24.7512 166.083 24.4427 165.694 24.2785C165.487 24.1908 165.214 24.1469 164.873 24.1469H163.261V26.342H165.012V26.3419Z" fill="#102A54"/>
<path d="M150.812 35.1197C150.769 35.1197 150.726 35.1124 150.683 35.0972C150.522 35.0396 150.417 34.8866 150.417 34.7073V30.998H149.697C149.103 30.998 148.619 30.4901 148.619 29.8658V16.8359C148.619 16.2116 149.103 15.7036 149.697 15.7036H168.641C169.236 15.7036 169.72 16.2116 169.72 16.8359V29.8658C169.72 30.4902 169.236 30.9981 168.641 30.9981H154.01L151.12 34.9578C151.044 35.0625 150.931 35.1197 150.812 35.1197ZM149.697 15.9672C149.241 15.9672 148.87 16.3569 148.87 16.8359V29.8658C148.87 30.3449 149.241 30.7346 149.697 30.7346H150.668V34.7074C150.668 34.8059 150.741 34.8397 150.764 34.8477C150.786 34.8558 150.864 34.8758 150.921 34.7975L153.886 30.7347H168.642C169.098 30.7347 169.469 30.345 169.469 29.8659V16.8359C169.469 16.3569 169.098 15.9672 168.642 15.9672H149.697Z" fill="#102A54"/>
<path d="M115.833 93.8904C118.894 88.3374 119.712 81.8656 118.136 75.6671C116.559 69.4686 112.778 64.2855 107.488 61.0725C102.198 57.8595 96.0322 57.0012 90.1272 58.6559C84.2223 60.3105 79.2845 64.28 76.2236 69.833C73.1628 75.386 72.3452 81.8579 73.9214 88.0564C75.2143 93.1405 77.9917 97.5405 81.8672 100.732C81.4802 100.755 81.1114 100.975 80.9027 101.353L64.4003 131.292C64.071 131.889 64.2654 132.653 64.8344 132.999L69.3394 135.735C69.9085 136.081 70.6369 135.877 70.9661 135.28L87.4686 105.341C87.6772 104.963 87.675 104.517 87.5011 104.154C92.0681 106.09 97.0863 106.425 101.93 105.068C107.835 103.413 112.773 99.4435 115.833 93.8904ZM86.1201 99.8376C81.5459 97.0593 78.2762 92.5777 76.9132 87.218C75.5503 81.8584 76.2572 76.2623 78.9039 71.4607C81.5505 66.6593 85.82 63.227 90.9258 61.7963C96.0317 60.3656 101.363 61.1076 105.937 63.8859C110.511 66.6641 113.781 71.1457 115.144 76.5055C116.507 81.8651 115.8 87.4611 113.153 92.2626C110.507 97.0642 106.237 100.496 101.131 101.927C96.0253 103.358 90.6943 102.616 86.1201 99.8376Z" fill="#FD823A"/>
<path d="M109.399 96.9199C116.981 88.9611 116.981 76.0574 109.399 68.0986C101.817 60.1399 89.524 60.1399 81.942 68.0986C74.3601 76.0574 74.3601 88.9611 81.942 96.9199C89.524 104.879 101.817 104.879 109.399 96.9199Z" fill="white"/>
<path opacity="0.61" d="M109.411 96.9157C116.995 88.9592 116.995 76.0593 109.411 68.1029C101.827 60.1465 89.5303 60.1465 81.9461 68.1029C74.3619 76.0593 74.3619 88.9592 81.9461 96.9157C89.5303 104.872 101.827 104.872 109.411 96.9157Z" fill="#E4B295"/>
<mask id="mask1_21191_48307" style="mask-type:luminance" maskUnits="userSpaceOnUse" x="76" y="62" width="40" height="41">
<path d="M109.411 96.9157C116.995 88.9592 116.995 76.0593 109.411 68.1029C101.827 60.1465 89.5303 60.1465 81.9461 68.1029C74.3619 76.0593 74.3619 88.9592 81.9461 96.9157C89.5303 104.872 101.827 104.872 109.411 96.9157Z" fill="white"/>
</mask>
<g mask="url(#mask1_21191_48307)">
<path opacity="0.26" d="M105.023 62.2983L72.4895 76.6073L73.0077 86.4688L113.358 69.8635L105.023 62.2983Z" fill="#F2935C"/>
</g>
<mask id="mask2_21191_48307" style="mask-type:luminance" maskUnits="userSpaceOnUse" x="76" y="62" width="40" height="41">
<path d="M109.411 96.9157C116.995 88.9592 116.995 76.0593 109.411 68.1029C101.827 60.1465 89.5303 60.1465 81.9461 68.1029C74.3619 76.0593 74.3619 88.9592 81.9461 96.9157C89.5303 104.872 101.827 104.872 109.411 96.9157Z" fill="white"/>
</mask>
<g mask="url(#mask2_21191_48307)">
<path opacity="0.18" d="M118.794 71.1782L75.17 89.5142L79.0901 97.8121L121.819 80.228L118.794 71.1782Z" fill="#F2935C"/>
</g>
<mask id="mask3_21191_48307" style="mask-type:luminance" maskUnits="userSpaceOnUse" x="76" y="62" width="40" height="41">
<path d="M109.411 96.9157C116.995 88.9592 116.995 76.0593 109.411 68.1029C101.827 60.1465 89.5303 60.1465 81.9461 68.1029C74.3619 76.0593 74.3619 88.9592 81.9461 96.9157C89.5303 104.872 101.827 104.872 109.411 96.9157Z" fill="white"/>
</mask>
<g mask="url(#mask3_21191_48307)">
<path opacity="0.1" d="M122.289 82.9116L78.6653 101.247L82.272 105.603L124.119 88.3858L122.289 82.9116Z" fill="#F2935C"/>
</g>
<path opacity="0.14" d="M117.687 95.9983C120.748 90.4453 121.565 83.9735 119.989 77.775C118.413 71.5765 114.631 66.3934 109.341 63.1804C104.051 59.9674 97.8855 59.1091 91.9805 60.7638C86.0755 62.4185 81.1378 66.3879 78.0769 71.941C75.0161 77.494 74.1985 83.9658 75.7747 90.1644C77.0676 95.2485 79.8449 99.6485 83.7204 102.84C83.3334 102.863 82.9646 103.082 82.756 103.461L66.2535 133.4C65.9242 133.997 66.1186 134.761 66.6877 135.107L71.1927 137.843C71.7618 138.189 72.4901 137.985 72.8194 137.388L89.3218 107.449C89.5305 107.07 89.5283 106.625 89.3544 106.262C93.9214 108.198 98.9396 108.533 103.783 107.176C109.688 105.521 114.626 101.551 117.687 95.9983ZM87.9733 101.945C83.3991 99.1672 80.1295 94.6856 78.7665 89.3258C77.4036 83.9663 78.1105 78.3702 80.7571 73.5686C83.4038 68.7672 87.6733 65.3349 92.7791 63.9042C97.885 62.4735 103.216 63.2155 107.79 65.9938C112.364 68.772 115.634 73.2536 116.997 78.6134C118.36 83.9729 117.653 89.569 115.006 94.3705C112.36 99.1721 108.09 102.604 102.984 104.035C97.8786 105.466 92.5475 104.724 87.9733 101.945Z" fill="#F2935C"/>
<path d="M194.511 64.1136H129.7C125.172 64.1136 121.501 60.26 121.501 55.5065C121.501 50.7529 125.172 46.8994 129.7 46.8994H194.511C199.04 46.8994 202.711 50.7529 202.711 55.5065C202.711 60.26 199.04 64.1136 194.511 64.1136Z" fill="#FFF4EE"/>
<path d="M193.367 63.9832H128.556C123.896 63.9832 120.105 60.0038 120.105 55.1124C120.105 50.2211 123.896 46.2417 128.556 46.2417H193.367C198.026 46.2417 201.817 50.2211 201.817 55.1124C201.817 60.0038 198.026 63.9832 193.367 63.9832ZM128.556 46.7689C124.173 46.7689 120.607 50.5118 120.607 55.1125C120.607 59.7132 124.173 63.4562 128.556 63.4562H193.367C197.75 63.4562 201.315 59.7132 201.315 55.1125C201.315 50.5119 197.75 46.7689 193.367 46.7689H128.556Z" fill="#F2935C"/>
<path d="M129.921 55.6344H129.137C128.891 55.6344 128.691 55.4246 128.691 55.1657V54.3428C128.691 54.0839 128.891 53.874 129.137 53.874H129.921C130.168 53.874 130.368 54.0839 130.368 54.3428V55.1657C130.368 55.4246 130.168 55.6344 129.921 55.6344Z" fill="#F2935C"/>
<path d="M132.862 55.6344H132.078C131.831 55.6344 131.631 55.4246 131.631 55.1657V54.3428C131.631 54.0839 131.831 53.874 132.078 53.874H132.862C133.108 53.874 133.308 54.0839 133.308 54.3428V55.1657C133.308 55.4246 133.108 55.6344 132.862 55.6344Z" fill="#F2935C"/>
<path d="M135.802 55.6344H135.018C134.771 55.6344 134.572 55.4246 134.572 55.1657V54.3428C134.572 54.0839 134.771 53.874 135.018 53.874H135.802C136.049 53.874 136.249 54.0839 136.249 54.3428V55.1657C136.249 55.4246 136.049 55.6344 135.802 55.6344Z" fill="#F2935C"/>
<path d="M138.742 55.6344H137.959C137.712 55.6344 137.512 55.4246 137.512 55.1657V54.3428C137.512 54.0839 137.712 53.874 137.959 53.874H138.742C138.989 53.874 139.189 54.0839 139.189 54.3428V55.1657C139.189 55.4246 138.989 55.6344 138.742 55.6344Z" fill="#F2935C"/>
<path d="M141.683 55.6344H140.899C140.652 55.6344 140.452 55.4246 140.452 55.1657V54.3428C140.452 54.0839 140.652 53.874 140.899 53.874H141.683C141.93 53.874 142.129 54.0839 142.129 54.3428V55.1657C142.129 55.4246 141.93 55.6344 141.683 55.6344Z" fill="#F2935C"/>
<path d="M144.623 55.6344H143.839C143.593 55.6344 143.393 55.4246 143.393 55.1657V54.3428C143.393 54.0839 143.593 53.874 143.839 53.874H144.623C144.87 53.874 145.07 54.0839 145.07 54.3428V55.1657C145.07 55.4246 144.87 55.6344 144.623 55.6344Z" fill="#F2935C"/>
<path d="M147.564 55.6344H146.78C146.533 55.6344 146.333 55.4246 146.333 55.1657V54.3428C146.333 54.0839 146.533 53.874 146.78 53.874H147.564C147.81 53.874 148.01 54.0839 148.01 54.3428V55.1657C148.01 55.4246 147.81 55.6344 147.564 55.6344Z" fill="#F2935C"/>
<path d="M150.504 55.6344H149.72C149.473 55.6344 149.274 55.4246 149.274 55.1657V54.3428C149.274 54.0839 149.473 53.874 149.72 53.874H150.504C150.751 53.874 150.951 54.0839 150.951 54.3428V55.1657C150.951 55.4246 150.751 55.6344 150.504 55.6344Z" fill="#F2935C"/>
<path d="M153.444 55.6344H152.661C152.414 55.6344 152.214 55.4246 152.214 55.1657V54.3428C152.214 54.0839 152.414 53.874 152.661 53.874H153.444C153.691 53.874 153.891 54.0839 153.891 54.3428V55.1657C153.891 55.4246 153.691 55.6344 153.444 55.6344Z" fill="#F2935C"/>
<path d="M156.385 55.6344H155.601C155.354 55.6344 155.154 55.4246 155.154 55.1657V54.3428C155.154 54.0839 155.354 53.874 155.601 53.874H156.385C156.632 53.874 156.831 54.0839 156.831 54.3428V55.1657C156.831 55.4246 156.632 55.6344 156.385 55.6344Z" fill="#F2935C"/>
<path d="M159.325 55.6344H158.541C158.295 55.6344 158.095 55.4246 158.095 55.1657V54.3428C158.095 54.0839 158.295 53.874 158.541 53.874H159.325C159.572 53.874 159.772 54.0839 159.772 54.3428V55.1657C159.772 55.4246 159.572 55.6344 159.325 55.6344Z" fill="#F2935C"/>
<path d="M162.266 55.6344H161.482C161.235 55.6344 161.035 55.4246 161.035 55.1657V54.3428C161.035 54.0839 161.235 53.874 161.482 53.874H162.266C162.512 53.874 162.712 54.0839 162.712 54.3428V55.1657C162.712 55.4246 162.512 55.6344 162.266 55.6344Z" fill="#F2935C"/>
<path d="M165.206 55.6344H164.422C164.176 55.6344 163.976 55.4246 163.976 55.1657V54.3428C163.976 54.0839 164.176 53.874 164.422 53.874H165.206C165.453 53.874 165.653 54.0839 165.653 54.3428V55.1657C165.653 55.4246 165.453 55.6344 165.206 55.6344Z" fill="#F2935C"/>
<path d="M168.147 55.6344H167.363C167.116 55.6344 166.916 55.4246 166.916 55.1657V54.3428C166.916 54.0839 167.116 53.874 167.363 53.874H168.147C168.393 53.874 168.593 54.0839 168.593 54.3428V55.1657C168.593 55.4246 168.393 55.6344 168.147 55.6344Z" fill="#F2935C"/>
<path d="M171.087 55.6344H170.303C170.056 55.6344 169.856 55.4246 169.856 55.1657V54.3428C169.856 54.0839 170.056 53.874 170.303 53.874H171.087C171.334 53.874 171.534 54.0839 171.534 54.3428V55.1657C171.534 55.4246 171.334 55.6344 171.087 55.6344Z" fill="#F2935C"/>
<path d="M174.027 55.6344H173.243C172.997 55.6344 172.797 55.4246 172.797 55.1657V54.3428C172.797 54.0839 172.997 53.874 173.243 53.874H174.027C174.274 53.874 174.474 54.0839 174.474 54.3428V55.1657C174.474 55.4246 174.274 55.6344 174.027 55.6344Z" fill="#F2935C"/>
<path d="M176.968 55.6344H176.184C175.937 55.6344 175.737 55.4246 175.737 55.1657V54.3428C175.737 54.0839 175.937 53.874 176.184 53.874H176.968C177.214 53.874 177.414 54.0839 177.414 54.3428V55.1657C177.414 55.4246 177.214 55.6344 176.968 55.6344Z" fill="#F2935C"/>
<path d="M179.908 55.6344H179.124C178.878 55.6344 178.678 55.4246 178.678 55.1657V54.3428C178.678 54.0839 178.878 53.874 179.124 53.874H179.908C180.155 53.874 180.355 54.0839 180.355 54.3428V55.1657C180.355 55.4246 180.155 55.6344 179.908 55.6344Z" fill="#F2935C"/>
<path d="M182.849 55.6344H182.065C181.818 55.6344 181.618 55.4246 181.618 55.1657V54.3428C181.618 54.0839 181.818 53.874 182.065 53.874H182.849C183.095 53.874 183.295 54.0839 183.295 54.3428V55.1657C183.295 55.4246 183.095 55.6344 182.849 55.6344Z" fill="#F2935C"/>
<path d="M185.789 55.6344H185.005C184.758 55.6344 184.558 55.4246 184.558 55.1657V54.3428C184.558 54.0839 184.758 53.874 185.005 53.874H185.789C186.036 53.874 186.236 54.0839 186.236 54.3428V55.1657C186.236 55.4246 186.036 55.6344 185.789 55.6344Z" fill="#F2935C"/>
<path d="M188.729 55.6344H187.945C187.699 55.6344 187.499 55.4246 187.499 55.1657V54.3428C187.499 54.0839 187.699 53.874 187.945 53.874H188.729C188.976 53.874 189.176 54.0839 189.176 54.3428V55.1657C189.176 55.4246 188.976 55.6344 188.729 55.6344Z" fill="#F2935C"/>
<path d="M191.67 55.6344H190.886C190.639 55.6344 190.439 55.4246 190.439 55.1657V54.3428C190.439 54.0839 190.639 53.874 190.886 53.874H191.67C191.916 53.874 192.116 54.0839 192.116 54.3428V55.1657C192.116 55.4246 191.916 55.6344 191.67 55.6344Z" fill="#F2935C"/>
<path d="M194.61 55.6344H193.826C193.58 55.6344 193.38 55.4246 193.38 55.1657V54.3428C193.38 54.0839 193.58 53.874 193.826 53.874H194.61C194.857 53.874 195.057 54.0839 195.057 54.3428V55.1657C195.057 55.4246 194.857 55.6344 194.61 55.6344Z" fill="#F2935C"/>
<path d="M42.0767 138.439H40.2665H35.5888C35.2989 138.439 35.0909 138.733 35.1741 139.024L38.0124 148.974C38.0673 149.167 38.2358 149.299 38.427 149.299H40.2665H42.0767H43.9162C44.1074 149.299 44.276 149.167 44.3308 148.974L47.1691 139.024C47.2523 138.733 47.0442 138.439 46.7544 138.439H42.0767Z" fill="#5B321A"/>
<path d="M45.7438 133.591C45.9225 133.096 46.1534 132.602 46.5395 132.261C46.9255 131.921 47.4995 131.77 47.9456 132.017C48.2734 132.198 48.6131 132.581 48.9367 132.392C49.1381 132.274 49.1827 131.995 49.1964 131.753C49.2413 130.966 49.2318 130.078 49.7668 129.523C50.2937 128.977 51.1465 128.988 51.8641 129.18C52.2026 129.271 52.5772 129.39 52.8856 129.217C53.0506 129.125 53.168 128.962 53.2655 128.794C53.6093 128.205 53.8277 127.449 54.4293 127.167C55.3972 126.714 56.5261 127.861 57.5216 127.479C57.9112 127.329 58.2443 126.953 58.6572 126.994C58.8612 127.015 59.0447 127.14 59.1861 127.295C59.6664 127.823 59.6712 128.75 59.1932 129.281C58.5578 129.985 57.3919 129.887 56.7493 130.584C56.132 131.254 56.1829 132.47 55.4297 132.963C54.7951 133.379 53.9389 133.038 53.2339 133.3C52.6682 133.51 52.2989 134.065 51.9326 134.564C51.5663 135.063 51.1005 135.572 50.5016 135.611C50.1871 135.631 49.8741 135.516 49.5603 135.546C48.6576 135.632 48.1545 136.83 47.2582 136.972C46.6566 137.067 46.1415 136.647 45.7251 136.246C45.5598 136.087 45.4053 135.907 45.3456 135.674C45.274 135.394 45.3337 135.091 45.3927 134.816C45.482 134.4 45.5998 133.99 45.7438 133.591Z" fill="#F2935C"/>
<path d="M39.2697 131.627C38.778 131.243 38.4799 130.503 38.7706 129.937C38.9122 129.661 39.1648 129.471 39.3642 129.238C39.5638 129.005 39.7162 128.672 39.5982 128.384C39.5397 128.241 39.4241 128.135 39.3124 128.033C38.9094 127.667 38.501 127.286 38.2473 126.794C37.9937 126.302 37.9221 125.669 38.2026 125.193C38.4144 124.834 38.7846 124.62 39.106 124.366C39.4273 124.112 39.7323 123.749 39.7055 123.328C39.6722 122.802 39.1325 122.324 39.333 121.842C39.5408 121.342 40.3707 121.369 40.5064 120.843C40.5739 120.581 40.4236 120.319 40.3616 120.056C40.2238 119.47 40.6019 118.804 41.159 118.653C41.716 118.502 42.3542 118.891 42.5047 119.474C42.6089 119.877 42.5032 120.326 42.6554 120.712C42.8529 121.214 43.4186 121.453 43.6665 121.93C44.1224 122.806 43.294 123.843 43.3636 124.838C43.4371 125.891 44.5084 126.787 44.2323 127.801C44.1242 128.199 43.8199 128.513 43.7146 128.912C43.589 129.387 43.7654 129.884 43.8917 130.358C44.018 130.833 44.0782 131.396 43.7748 131.772C43.5503 132.051 43.1852 132.148 42.8417 132.205C41.8895 132.36 40.9432 132.315 40.022 132.012C39.7545 131.924 39.4954 131.803 39.2697 131.627Z" fill="#F2935C"/>
<path d="M41.1498 140.942C41.1279 140.942 41.1058 140.936 41.0858 140.923C41.0289 140.885 41.0115 140.807 41.0469 140.747C41.9214 139.273 43.0065 137.958 44.2721 136.839C45.6665 135.606 47.2615 134.632 48.804 133.691L59.2795 127.297C59.3375 127.262 59.4118 127.282 59.4455 127.343C59.4792 127.404 59.4595 127.482 59.4016 127.517L48.926 133.911C47.3925 134.847 45.8068 135.815 44.4285 137.034C43.1824 138.136 42.1139 139.43 41.253 140.882C41.2301 140.921 41.1904 140.942 41.1498 140.942Z" fill="#102A54"/>
<path d="M41.4862 140.399C41.4208 140.399 41.3668 140.345 41.3649 140.276C41.1856 133.881 41.3195 125.102 41.4633 118.864C41.465 118.794 41.5194 118.739 41.5876 118.74C41.6546 118.742 41.7076 118.8 41.706 118.87C41.5622 125.105 41.4283 133.879 41.6075 140.268C41.6095 140.338 41.5568 140.397 41.4898 140.399C41.4887 140.399 41.4874 140.399 41.4862 140.399Z" fill="#102A54"/>
<path d="M35.4458 136.951C34.7385 136.871 34.0208 136.379 33.8937 135.644C33.7922 135.057 34.0209 134.303 33.5573 133.959C33.3946 133.838 33.1861 133.813 32.9871 133.803C32.2676 133.767 31.4787 133.866 30.891 133.429C30.0357 132.793 30.1212 131.474 30.0516 130.377C30.0337 130.095 29.9888 129.79 29.7946 129.595C29.5873 129.386 29.2744 129.363 28.9942 129.297C27.9731 129.054 27.1757 128.018 27.1648 126.919C27.1614 126.583 27.2322 126.23 27.4451 125.98C27.59 125.809 27.7902 125.699 27.9982 125.632C28.6617 125.418 29.4356 125.651 29.8906 126.201C30.1748 126.544 30.3385 126.991 30.6588 127.298C31.5642 128.165 33.0518 127.453 34.2163 127.853C34.8676 128.076 35.3883 128.678 35.5383 129.38C35.6685 129.989 35.5423 130.666 35.826 131.214C36.3134 132.156 37.5916 132.103 38.5335 132.517C38.76 132.617 38.9821 132.758 39.1103 132.978C39.2096 133.148 39.2443 133.351 39.2599 133.55C39.3233 134.353 39.0811 135.169 38.6275 135.816C38.4242 136.105 38.1527 136.441 37.8313 136.589C37.5874 136.7 37.3004 136.66 37.0436 136.725C36.5114 136.86 36.0007 137.014 35.4458 136.951Z" fill="#F2935C"/>
<path d="M40.8454 141.125C40.802 141.125 40.7601 141.101 40.7382 141.058C39.0624 137.768 35.4347 133.422 33.6913 131.334C33.1688 130.708 32.6284 130.061 31.999 129.539C31.4814 129.109 30.8848 128.748 30.3078 128.399C29.2491 127.758 28.1543 127.095 27.5035 125.985C27.4684 125.925 27.4861 125.847 27.5433 125.81C27.6004 125.773 27.6751 125.792 27.7102 125.852C28.3289 126.906 29.349 127.524 30.4291 128.178C31.0136 128.532 31.6181 128.898 32.1495 129.339C32.7964 129.875 33.3442 130.531 33.874 131.166C35.6232 133.261 39.2633 137.621 40.9523 140.937C40.9839 140.999 40.9616 141.077 40.9025 141.11C40.8843 141.12 40.8646 141.125 40.8454 141.125Z" fill="#102A54"/>
<path d="M188.38 78.4678C188.38 78.4678 182.866 89.3172 181.981 90.1922C181.096 91.0672 168.602 94.6769 168.602 94.6769L169.095 96.5772C169.095 96.5772 184.572 96.954 185.36 96.5772C186.148 96.2003 190.691 91.9669 190.691 91.9669L188.38 78.4678Z" fill="#F2935C"/>
<path d="M180.766 143.548L181.144 145.932H184.017L183.851 143.202L180.766 143.548Z" fill="#FFC0B1"/>
<path d="M170.432 143.067L170.59 146.314L173.154 146.106L173.535 143.092L170.432 143.067Z" fill="#FFC0B1"/>
<path d="M192.649 103.828C192.649 103.828 174.401 110.24 171.681 113.095C168.961 115.951 170.042 143.181 170.042 143.181H173.945L179.439 120.774C179.439 120.774 201.557 120.258 203.947 115.849C207.101 110.034 204.693 102.462 204.693 102.462L192.649 103.828Z" fill="#5B321A"/>
<path d="M193.769 105.338C193.769 105.338 178.594 114.615 176.667 117.695C174.74 120.776 180.487 143.58 180.487 143.58L184.041 143.181L184.954 123.048C184.954 123.048 204.627 118.288 205.986 113.883C207.778 108.074 204.29 101.776 204.29 101.776L193.769 105.338Z" fill="#5B321A"/>
<path d="M173.583 145.475C173.583 145.475 171.26 146.153 170.184 145.475L165.531 148.027C164.9 148.372 164.505 149.057 164.505 149.803V149.856H173.662C173.938 149.856 174.15 149.599 174.111 149.312L173.583 145.475Z" fill="#5B321A"/>
<path d="M184.144 145.475C184.144 145.475 181.821 146.153 180.745 145.475L176.091 148.027C175.461 148.372 175.066 149.057 175.066 149.803V149.856H184.223C184.499 149.856 184.711 149.599 184.671 149.312L184.144 145.475Z" fill="#5B321A"/>
<path d="M192.853 75.567L191.101 68.0736L191.101 68.0741C191.099 66.6613 190.835 64.9726 190.166 62.9929C189.722 61.6813 188.297 61.0558 187.091 61.6353L183.694 63.2685C182.77 63.7131 182.274 64.7841 182.516 65.8214C182.802 67.0509 183.143 68.6523 183.253 69.7236C183.348 70.6595 183.594 71.7502 184.182 72.5609C185.211 73.9793 187.024 74.4612 188.515 73.7433L188.939 78.6057L192.853 75.567Z" fill="#FFC0B1"/>
<path d="M184.457 69.2537C184.35 69.2537 184.246 69.2117 184.166 69.133C184.066 69.0362 184.017 68.8994 184.03 68.7577L184.3 65.847C184.306 65.7907 184.354 65.7494 184.407 65.7549C184.461 65.7604 184.5 65.8106 184.495 65.8669L184.224 68.7776C184.217 68.855 184.244 68.9297 184.298 68.9826C184.353 69.0354 184.426 69.058 184.499 69.0447L185.343 68.8898C185.397 68.8803 185.447 68.9175 185.456 68.9732C185.466 69.029 185.43 69.0822 185.377 69.0919L184.532 69.2468C184.507 69.2515 184.482 69.2537 184.457 69.2537Z" fill="#102A54"/>
<path d="M186.519 69.2476C186.519 69.2476 185.487 70.2339 184.167 70.5841C184.167 70.5841 186.084 71.8126 186.519 69.2476Z" fill="white"/>
<path d="M184.902 70.4206C184.864 70.4206 184.827 70.3967 184.812 70.3571C184.791 70.3046 184.815 70.2447 184.865 70.2231C185.895 69.7776 186.516 69.0409 186.522 69.0336C186.557 68.991 186.619 68.9866 186.66 69.0238C186.7 69.0611 186.705 69.1258 186.669 69.1685C186.643 69.2001 186.014 69.9481 184.939 70.4128C184.927 70.4181 184.915 70.4206 184.902 70.4206Z" fill="#102A54"/>
<path d="M183.75 66.4057C183.75 66.6498 183.598 66.8476 183.411 66.8476C183.223 66.8476 183.071 66.6498 183.071 66.4057C183.071 66.1617 183.223 65.9639 183.411 65.9639C183.598 65.9639 183.75 66.1617 183.75 66.4057Z" fill="#102A54"/>
<path d="M185.682 66.1225C185.869 66.1225 186.021 65.9247 186.021 65.6806C186.021 65.4366 185.869 65.2388 185.682 65.2388C185.495 65.2388 185.343 65.4366 185.343 65.6806C185.343 65.9247 185.495 66.1225 185.682 66.1225Z" fill="#102A54"/>
<path d="M182.455 64.8035C182.455 64.8035 186.209 65.1337 187.852 63.8129C187.852 63.8129 187.887 66.4333 188.481 66.8475C189.075 67.2616 190.897 66.8405 191.465 69.4882C191.465 69.4882 192.465 66.6013 192.011 63.2259C191.557 59.8506 189.529 58.2364 187.572 58.4198C185.615 58.6032 178.397 61.4184 182.455 64.8035Z" fill="#102A54"/>
<path d="M190.564 66.2055C190.788 65.2216 190.525 64.3122 189.975 64.1742C189.425 64.0362 188.798 64.7219 188.573 65.7058C188.349 66.6897 188.613 67.5992 189.162 67.7372C189.712 67.8751 190.34 67.1894 190.564 66.2055Z" fill="#FFC0B1"/>
<path d="M189.102 66.7189C189.05 66.7189 189.007 66.6761 189.005 66.6212C188.952 65.4605 189.836 64.5106 189.874 64.4707C189.912 64.4306 189.973 64.4303 190.012 64.4701C190.05 64.51 190.05 64.5749 190.012 64.6152C190.004 64.6243 189.151 65.5421 189.2 66.6114C189.202 66.668 189.161 66.7161 189.107 66.7188C189.105 66.7189 189.104 66.7189 189.102 66.7189Z" fill="#102A54"/>
<path d="M192.856 74.4551C192.856 74.4551 203.729 79.2706 205.716 104.137C205.716 104.137 201.029 107.121 189.56 105.388C189.56 105.388 189.867 102.702 189.76 101.599C189.652 100.495 186.244 83.6331 188.38 78.4676L192.856 74.4551Z" fill="#F2935C"/>
<path d="M188.516 73.8458C188.477 73.8458 188.441 73.8223 188.425 73.7831C188.404 73.7309 188.428 73.6708 188.477 73.6488C188.493 73.6417 189.575 73.1367 190.197 71.3612C190.215 71.308 190.271 71.2807 190.322 71.3003C190.373 71.3198 190.399 71.3788 190.38 71.432C189.726 73.3008 188.601 73.8167 188.553 73.8378C188.541 73.8433 188.528 73.8458 188.516 73.8458Z" fill="#102A54"/>
<path d="M192.576 80.2535C192.576 80.2535 189.16 89.4295 188.148 90.8287C187.136 92.2278 171.698 94.8622 171.698 94.8622L172.61 97.4965C172.61 97.4965 188.444 98.4544 190.375 97.4965C192.307 96.5385 196.642 93.2656 197.858 88.6355C199.075 84.0054 196.42 78.178 192.576 80.2535Z" fill="#F2935C"/>
<path d="M184.87 98.0263C179.761 98.0263 173.03 97.6245 172.605 97.5987C172.551 97.5955 172.51 97.547 172.513 97.4904C172.516 97.4338 172.56 97.3911 172.616 97.3939C172.774 97.4034 188.446 98.3394 190.333 97.4035C191.971 96.5916 196.497 93.4287 197.764 88.608C197.779 88.5534 197.833 88.5215 197.884 88.5364C197.937 88.5515 197.967 88.6079 197.953 88.6626C196.666 93.5578 192.077 96.766 190.417 97.5891C189.755 97.9173 187.533 98.0263 184.87 98.0263Z" fill="#102A54"/>
<path d="M171.697 94.9643C171.65 94.9643 171.609 94.9286 171.601 94.8782C171.592 94.8223 171.629 94.7697 171.682 94.7605C177.008 93.8515 187.288 91.8471 188.07 90.7661C189.063 89.3943 192.451 80.3073 192.485 80.2157C192.505 80.1629 192.562 80.1368 192.612 80.1575C192.662 80.1781 192.687 80.2376 192.668 80.2904C192.528 80.6656 189.235 89.4956 188.226 90.8902C187.202 92.3058 172.345 94.8551 171.713 94.9629C171.708 94.964 171.703 94.9643 171.697 94.9643Z" fill="#102A54"/>
<path d="M188.515 90.2997C188.464 90.2997 188.42 90.2569 188.418 90.202C188.415 90.1302 188.095 82.9826 188.418 80.2408C188.425 80.1846 188.474 80.1451 188.527 80.1516C188.581 80.1585 188.619 80.2097 188.612 80.266C188.291 82.9905 188.61 90.1205 188.613 90.1922C188.616 90.2489 188.574 90.2968 188.52 90.2996C188.518 90.2996 188.517 90.2997 188.515 90.2997Z" fill="#102A54"/>
<path d="M171.983 95.304C171.983 95.304 170.119 94.8505 169.308 95.1852C169.015 95.3059 165.726 98.0919 165.726 98.0919H166.484H170.585L172.465 97.0762L171.983 95.304Z" fill="#FFC0B1"/>
<path d="M168.702 95.0619C168.702 95.0619 167.15 94.9391 166.645 95.0619C166.141 95.1847 163.559 96.4233 163.559 96.5769C163.559 96.7303 163.822 96.9421 164.164 96.8574C164.507 96.7727 167.412 95.942 167.412 95.942C167.412 95.942 165.758 96.7939 165.516 97.1538C165.274 97.5137 165.052 98.0917 165.052 98.0917H168.098L169.095 96.5768L168.702 95.0619Z" fill="#FFC0B1"/>
<path d="M165.854 98.1798C165.846 98.1798 165.837 98.1785 165.829 98.1758C165.785 98.1613 165.76 98.112 165.774 98.0657C165.778 98.0527 165.873 97.7429 166.166 97.4351C166.45 97.1368 168.682 95.5286 168.777 95.4603C168.815 95.4328 168.867 95.4429 168.893 95.4831C168.919 95.523 168.91 95.5777 168.872 95.6052C168.849 95.6218 166.558 97.2724 166.284 97.5594C166.02 97.837 165.935 98.1154 165.934 98.1183C165.923 98.1559 165.89 98.1798 165.854 98.1798Z" fill="#102A54"/>
<path d="M196.763 122.007L190.375 149.856H190.906L199.044 121.858L196.763 122.007Z" fill="#102A54"/>
<path d="M205.738 122.007L212.126 149.856H211.596L203.458 121.858L205.738 122.007Z" fill="#102A54"/>
<path d="M191.178 120.877C191.178 120.877 200.558 115.921 205.027 108.507C207.37 104.617 207.644 94.4467 209.579 94.2905C211.514 94.1343 213.3 97.4149 213.895 101.008C214.49 104.601 214.49 118.407 210.174 120.877C205.859 123.347 190.934 124.441 189.914 123.972C188.893 123.504 188.552 122.469 191.178 120.877Z" fill="#BD6736"/>
<path d="M195.29 100.873H128.926C128.508 100.873 128.169 100.517 128.169 100.078C128.169 99.6392 128.508 99.2832 128.926 99.2832H195.29C195.708 99.2832 196.047 99.6391 196.047 100.078C196.047 100.517 195.708 100.873 195.29 100.873Z" fill="#BD6736"/>
<path d="M132.812 149.856H131.64L140.664 100.873H141.837L132.812 149.856Z" fill="#BD6736"/>
<path d="M191.404 149.856H192.576L183.552 100.873H182.38L191.404 149.856Z" fill="#BD6736"/>
<path d="M153.063 98.0922L145.394 79.3061C145.314 79.1124 145.133 78.9868 144.932 78.9868C144.572 78.9868 144.329 79.3735 144.471 79.7211L152.457 99.2833H153.063H153.549H171.416C171.729 99.2833 171.983 99.0167 171.983 98.6877C171.983 98.3588 171.729 98.0922 171.416 98.0922H153.063Z" fill="#5B321A"/>
<path d="M104.56 81.8616C104.56 76.9155 100.74 72.9058 96.0285 72.9058C91.3166 72.9058 87.4968 76.9155 87.4968 81.8616C87.4968 84.547 88.6231 86.956 90.4065 88.5975C90.5621 86.0184 92.2914 83.8882 94.5985 83.2546C93.5357 82.7014 92.8047 81.5513 92.8047 80.2217C92.8047 78.3527 94.248 76.8374 96.0285 76.8374C97.809 76.8374 99.2525 78.3526 99.2525 80.2217C99.2525 81.5514 98.5216 82.7014 97.4587 83.2546C99.7658 83.8882 101.495 86.0183 101.651 88.5975C103.434 86.956 104.56 84.547 104.56 81.8616Z" fill="#F2935C" fill-opacity="0.41"/>
<path d="M97.4586 83.2546C98.5215 82.7013 99.2524 81.5513 99.2524 80.2216C99.2524 78.3526 97.809 76.8374 96.0285 76.8374C94.2479 76.8374 92.8046 78.3525 92.8046 80.2216C92.8046 81.5514 93.5355 82.7013 94.5984 83.2546C92.2913 83.8882 90.562 86.0183 90.4064 88.5974C91.9078 89.9794 93.8748 90.8174 96.0285 90.8174C98.1823 90.8174 100.149 89.9794 101.651 88.5974C101.495 86.0182 99.7657 83.8882 97.4586 83.2546Z" fill="#F2935C"/>
</svg>
