<svg width="294" height="174" viewBox="0 0 294 174" fill="none" xmlns="http://www.w3.org/2000/svg">
<path d="M177.524 27.9691C177.347 29.43 177.277 30.8851 177.324 32.3103C177.502 37.718 180.004 44.1717 185.082 46.7966C191.41 50.0677 199.361 46.6714 206.005 48.8354C216.297 52.1874 224.853 65.7981 236.546 58.3142C245.167 52.7959 248.294 39.576 246.467 30.0627C243.257 13.3508 228.111 0.655756 211.168 0.0277269C200.299 -0.375085 189.587 3.60049 183.329 12.6481C180.315 17.0052 178.183 22.5272 177.524 27.9691Z" fill="#F5F5F5"/>
<path d="M15.4058 167.606H274.892H275.31C283.242 149.533 286.394 129.388 283.809 109.821C282.476 99.734 279.486 89.4122 272.503 82.0107C268.077 77.3193 262.296 74.0862 256.276 71.7675C241.51 66.0792 224.773 65.6606 209.74 70.6038C199.859 73.8533 189.909 79.4171 179.71 77.3666C175.267 76.4733 171.235 74.1737 167.491 71.6193C147.482 57.9651 132.165 35.6167 108.491 30.4728C93.1806 27.1462 76.864 32.0669 64.1198 41.1781C51.3757 50.2892 41.8396 63.24 34.1717 76.8991C18.6862 104.484 10.8139 136.309 15.4058 167.606Z" fill="#F5F5F5"/>
<path opacity="0.1" d="M233.895 95.0383C220.778 103.151 209.965 114.412 199.078 125.335C192.358 132.078 185.25 138.932 176.279 142.12C169.622 144.486 162.391 144.652 155.336 144.278C143.114 143.63 130.977 141.428 119.307 137.743C105.067 133.246 91.5619 126.566 77.1698 122.584C55.9495 116.712 33.0742 116.954 11.9826 123.271C11.3279 139.847 10.5766 156.461 9.92188 173.036C28.3801 174.456 46.9055 172.513 65.385 171.402C131.1 167.452 196.871 174.02 262.613 171.739C271.185 171.442 279.969 171.387 288.486 170.328C288.79 168.909 288.645 167.256 288.684 165.8C288.729 164.157 288.762 162.514 288.783 160.871C288.826 157.584 288.821 154.297 288.769 151.011C288.665 144.438 288.372 137.868 287.892 131.312C287.096 120.429 285.782 109.583 283.954 98.8252C283.453 95.8795 282.89 92.9157 281.83 90.1119C281.153 88.322 280.288 85.948 278.28 85.3002C276.493 84.7238 274.221 84.9022 272.362 84.7198C269.481 84.4371 266.577 84.4278 263.692 84.6577C253.099 85.5018 242.882 89.4801 233.895 95.0383Z" fill="#EBEBEB"/>
<path d="M186.552 98.297H66.582C65.2819 98.297 64.228 97.2434 64.228 95.9436V16.5245C64.228 15.2247 65.2819 14.1711 66.582 14.1711H186.552C187.852 14.1711 188.906 15.2247 188.906 16.5245V95.9436C188.906 97.2434 187.852 98.297 186.552 98.297Z" fill="#C7C7C7"/>
<mask id="mask0_21121_54219" style="mask-type:luminance" maskUnits="userSpaceOnUse" x="64" y="14" width="125" height="85">
<path d="M186.552 98.297H66.582C65.2819 98.297 64.228 97.2434 64.228 95.9436V16.5245C64.228 15.2247 65.2819 14.1711 66.582 14.1711H186.552C187.852 14.1711 188.906 15.2247 188.906 16.5245V95.9436C188.906 97.2434 187.852 98.297 186.552 98.297Z" fill="white"/>
</mask>
<g mask="url(#mask0_21121_54219)">
<path d="M194.557 9.38892H58.0933V23.3542H194.557V9.38892Z" fill="#F0F0F0"/>
</g>
<path d="M70.827 20.8573C71.7688 20.8573 72.5324 20.094 72.5324 19.1524C72.5324 18.2108 71.7688 17.4475 70.827 17.4475C69.8851 17.4475 69.1216 18.2108 69.1216 19.1524C69.1216 20.094 69.8851 20.8573 70.827 20.8573Z" fill="#F2935C"/>
<path d="M77.0213 20.8573C77.9632 20.8573 78.7267 20.094 78.7267 19.1524C78.7267 18.2108 77.9632 17.4475 77.0213 17.4475C76.0795 17.4475 75.3159 18.2108 75.3159 19.1524C75.3159 20.094 76.0795 20.8573 77.0213 20.8573Z" fill="white"/>
<path d="M83.2157 20.8573C84.1575 20.8573 84.9211 20.094 84.9211 19.1524C84.9211 18.2108 84.1575 17.4475 83.2157 17.4475C82.2738 17.4475 81.5103 18.2108 81.5103 19.1524C81.5103 20.094 82.2738 20.8573 83.2157 20.8573Z" fill="white"/>
<path d="M184.938 97.4923H66.2037C64.4838 97.4923 63.0845 96.0934 63.0845 94.374V16.1896C63.0845 14.4701 64.4837 13.0713 66.2037 13.0713H184.938C186.658 13.0713 188.057 14.4701 188.057 16.1896V94.3739C188.057 96.0934 186.658 97.4923 184.938 97.4923ZM66.2037 13.3665C64.6466 13.3665 63.3797 14.633 63.3797 16.1896V94.3739C63.3797 95.9305 64.6466 97.197 66.2037 97.197H184.938C186.495 97.197 187.762 95.9305 187.762 94.3739V16.1896C187.762 14.633 186.495 13.3665 184.938 13.3665H66.2037Z" fill="#F0F0F0"/>
<path d="M102.123 90.1536H70.9819C70.312 90.1536 69.769 89.6108 69.769 88.9411V32.0943C69.769 31.4247 70.312 30.8818 70.9819 30.8818H102.123C102.793 30.8818 103.336 31.4247 103.336 32.0943V88.9411C103.336 89.6107 102.793 90.1536 102.123 90.1536Z" fill="#FFF4EE"/>
<path d="M84.2901 50.2502H72.3535C72.0461 50.2502 71.7969 50.0011 71.7969 49.6937V34.1671C71.7969 33.8597 72.0461 33.6106 72.3535 33.6106H84.2901C84.5976 33.6106 84.8468 33.8597 84.8468 34.1671V49.6938C84.8468 50.0011 84.5975 50.2502 84.2901 50.2502Z" fill="#E0E0E0"/>
<path d="M88.181 35.6947C88.7567 35.6947 89.2234 35.2282 89.2234 34.6527C89.2234 34.0771 88.7567 33.6106 88.181 33.6106C87.6053 33.6106 87.1387 34.0771 87.1387 34.6527C87.1387 35.2282 87.6053 35.6947 88.181 35.6947Z" fill="#E0E0E0"/>
<path d="M101.333 34.2786H91.3282C91.2052 34.2786 91.1055 34.1789 91.1055 34.0559C91.1055 33.9329 91.2052 33.8333 91.3282 33.8333H101.333C101.456 33.8333 101.556 33.9329 101.556 34.0559C101.556 34.1789 101.456 34.2786 101.333 34.2786Z" fill="#E0E0E0"/>
<path d="M101.333 35.4722H91.3282C91.2052 35.4722 91.1055 35.3725 91.1055 35.2495C91.1055 35.1265 91.2052 35.0269 91.3282 35.0269H101.333C101.456 35.0269 101.556 35.1265 101.556 35.2495C101.556 35.3725 101.456 35.4722 101.333 35.4722Z" fill="#E0E0E0"/>
<path d="M101.333 36.6655H91.3282C91.2052 36.6655 91.1055 36.5659 91.1055 36.4429C91.1055 36.3199 91.2052 36.2202 91.3282 36.2202H101.333C101.456 36.2202 101.556 36.3199 101.556 36.4429C101.556 36.5659 101.456 36.6655 101.333 36.6655Z" fill="#E0E0E0"/>
<path d="M89.2059 39.1847C89.3128 38.6192 88.9409 38.0743 88.3752 37.9675C87.8096 37.8608 87.2643 38.2326 87.1574 38.7981C87.0505 39.3636 87.4224 39.9086 87.9881 40.0153C88.5538 40.1221 89.099 39.7502 89.2059 39.1847Z" fill="#E0E0E0"/>
<path d="M101.333 38.6133H91.3282C91.2052 38.6133 91.1055 38.5136 91.1055 38.3906C91.1055 38.2676 91.2052 38.168 91.3282 38.168H101.333C101.456 38.168 101.556 38.2676 101.556 38.3906C101.556 38.5135 101.456 38.6133 101.333 38.6133Z" fill="#E0E0E0"/>
<path d="M101.333 39.8069H91.3282C91.2052 39.8069 91.1055 39.7072 91.1055 39.5842C91.1055 39.4612 91.2052 39.3616 91.3282 39.3616H101.333C101.456 39.3616 101.556 39.4612 101.556 39.5842C101.556 39.7072 101.456 39.8069 101.333 39.8069Z" fill="#E0E0E0"/>
<path d="M101.333 41.0005H91.3282C91.2052 41.0005 91.1055 40.9008 91.1055 40.7778C91.1055 40.6548 91.2052 40.5552 91.3282 40.5552H101.333C101.456 40.5552 101.556 40.6548 101.556 40.7778C101.556 40.9007 101.456 41.0005 101.333 41.0005Z" fill="#E0E0E0"/>
<path d="M89.2054 43.5197C89.3123 42.9542 88.9404 42.4092 88.3748 42.3025C87.8091 42.1957 87.2639 42.5676 87.1569 43.1331C87.05 43.6986 87.4219 44.2435 87.9876 44.3503C88.5533 44.457 89.0985 44.0852 89.2054 43.5197Z" fill="#E0E0E0"/>
<path d="M101.333 42.9482H91.3282C91.2052 42.9482 91.1055 42.8486 91.1055 42.7256C91.1055 42.6026 91.2052 42.5029 91.3282 42.5029H101.333C101.456 42.5029 101.556 42.6026 101.556 42.7256C101.556 42.8486 101.456 42.9482 101.333 42.9482Z" fill="#E0E0E0"/>
<path d="M101.333 44.1419H91.3282C91.2052 44.1419 91.1055 44.0422 91.1055 43.9192C91.1055 43.7962 91.2052 43.6965 91.3282 43.6965H101.333C101.456 43.6965 101.556 43.7962 101.556 43.9192C101.556 44.0422 101.456 44.1419 101.333 44.1419Z" fill="#E0E0E0"/>
<path d="M101.333 45.3352H91.3282C91.2052 45.3352 91.1055 45.2355 91.1055 45.1126C91.1055 44.9896 91.2052 44.8899 91.3282 44.8899H101.333C101.456 44.8899 101.556 44.9896 101.556 45.1126C101.556 45.2355 101.456 45.3352 101.333 45.3352Z" fill="#E0E0E0"/>
<path d="M88.7163 48.5556C89.2123 48.2634 89.3771 47.6247 89.0846 47.129C88.792 46.6333 88.1528 46.4684 87.6568 46.7607C87.1608 47.0529 86.996 47.6916 87.2885 48.1873C87.5811 48.683 88.2203 48.8479 88.7163 48.5556Z" fill="#E0E0E0"/>
<path d="M101.333 47.2827H91.3282C91.2052 47.2827 91.1055 47.183 91.1055 47.0601C91.1055 46.9371 91.2052 46.8374 91.3282 46.8374H101.333C101.456 46.8374 101.556 46.9371 101.556 47.0601C101.556 47.183 101.456 47.2827 101.333 47.2827Z" fill="#E0E0E0"/>
<path d="M101.333 48.4763H91.3282C91.2052 48.4763 91.1055 48.3767 91.1055 48.2537C91.1055 48.1307 91.2052 48.031 91.3282 48.031H101.333C101.456 48.031 101.556 48.1307 101.556 48.2537C101.556 48.3767 101.456 48.4763 101.333 48.4763Z" fill="#E0E0E0"/>
<path d="M101.333 49.6699H91.3282C91.2052 49.6699 91.1055 49.5703 91.1055 49.4473C91.1055 49.3243 91.2052 49.2246 91.3282 49.2246H101.333C101.456 49.2246 101.556 49.3243 101.556 49.4473C101.556 49.5703 101.456 49.6699 101.333 49.6699Z" fill="#E0E0E0"/>
<path d="M84.1661 68.6374H72.2295C71.922 68.6374 71.6729 68.3883 71.6729 68.0809V52.5543C71.6729 52.2469 71.922 51.9978 72.2295 51.9978H84.1661C84.4736 51.9978 84.7228 52.2469 84.7228 52.5543V68.081C84.7228 68.3883 84.4736 68.6374 84.1661 68.6374Z" fill="#E0E0E0"/>
<path d="M88.057 54.0819C88.6327 54.0819 89.0994 53.6154 89.0994 53.0399C89.0994 52.4643 88.6327 51.9978 88.057 51.9978C87.4813 51.9978 87.0146 52.4643 87.0146 53.0399C87.0146 53.6154 87.4813 54.0819 88.057 54.0819Z" fill="#E0E0E0"/>
<path d="M101.209 52.6658H91.2042C91.0811 52.6658 90.9814 52.5661 90.9814 52.4431C90.9814 52.3201 91.0811 52.2205 91.2042 52.2205H101.209C101.332 52.2205 101.432 52.3201 101.432 52.4431C101.432 52.5661 101.332 52.6658 101.209 52.6658Z" fill="#E0E0E0"/>
<path d="M101.209 53.8594H91.2042C91.0811 53.8594 90.9814 53.7597 90.9814 53.6367C90.9814 53.5137 91.0811 53.4141 91.2042 53.4141H101.209C101.332 53.4141 101.432 53.5137 101.432 53.6367C101.432 53.7597 101.332 53.8594 101.209 53.8594Z" fill="#E0E0E0"/>
<path d="M101.209 55.0527H91.2042C91.0811 55.0527 90.9814 54.9531 90.9814 54.8301C90.9814 54.7071 91.0811 54.6074 91.2042 54.6074H101.209C101.332 54.6074 101.432 54.7071 101.432 54.8301C101.432 54.9531 101.332 55.0527 101.209 55.0527Z" fill="#E0E0E0"/>
<path d="M89.0708 57.6109C89.2025 57.0506 88.855 56.4898 88.2945 56.3583C87.7341 56.2267 87.173 56.5743 87.0413 57.1345C86.9095 57.6948 87.2571 58.2556 87.8175 58.3871C88.3779 58.5187 88.939 58.1711 89.0708 57.6109Z" fill="#E0E0E0"/>
<path d="M101.209 57.0005H91.2042C91.0811 57.0005 90.9814 56.9008 90.9814 56.7778C90.9814 56.6548 91.0811 56.5552 91.2042 56.5552H101.209C101.332 56.5552 101.432 56.6548 101.432 56.7778C101.432 56.9008 101.332 57.0005 101.209 57.0005Z" fill="#E0E0E0"/>
<path d="M101.209 58.1939H91.2042C91.0811 58.1939 90.9814 58.0942 90.9814 57.9712C90.9814 57.8482 91.0811 57.7485 91.2042 57.7485H101.209C101.332 57.7485 101.432 57.8482 101.432 57.9712C101.432 58.0942 101.332 58.1939 101.209 58.1939Z" fill="#E0E0E0"/>
<path d="M101.209 59.3875H91.2042C91.0811 59.3875 90.9814 59.2878 90.9814 59.1648C90.9814 59.0418 91.0811 58.9421 91.2042 58.9421H101.209C101.332 58.9421 101.432 59.0418 101.432 59.1648C101.432 59.2878 101.332 59.3875 101.209 59.3875Z" fill="#E0E0E0"/>
<path d="M89.0708 61.9456C89.2025 61.3854 88.855 60.8245 88.2945 60.693C87.7341 60.5615 87.173 60.909 87.0413 61.4692C86.9095 62.0295 87.2571 62.5903 87.8175 62.7218C88.3779 62.8534 88.939 62.5059 89.0708 61.9456Z" fill="#E0E0E0"/>
<path d="M101.209 61.3352H91.2042C91.0811 61.3352 90.9814 61.2355 90.9814 61.1126C90.9814 60.9896 91.0811 60.8899 91.2042 60.8899H101.209C101.332 60.8899 101.432 60.9896 101.432 61.1126C101.432 61.2355 101.332 61.3352 101.209 61.3352Z" fill="#E0E0E0"/>
<path d="M101.209 62.5288H91.2042C91.0811 62.5288 90.9814 62.4291 90.9814 62.3062C90.9814 62.1832 91.0811 62.0835 91.2042 62.0835H101.209C101.332 62.0835 101.432 62.1832 101.432 62.3062C101.432 62.4291 101.332 62.5288 101.209 62.5288Z" fill="#E0E0E0"/>
<path d="M101.209 63.7224H91.2042C91.0811 63.7224 90.9814 63.6227 90.9814 63.4998C90.9814 63.3768 91.0811 63.2771 91.2042 63.2771H101.209C101.332 63.2771 101.432 63.3768 101.432 63.4998C101.432 63.6226 101.332 63.7224 101.209 63.7224Z" fill="#E0E0E0"/>
<path d="M88.7933 66.7811C89.2005 66.3742 89.2005 65.7146 88.7933 65.3078C88.3862 64.901 87.726 64.901 87.3188 65.3078C86.9116 65.7146 86.9116 66.3742 87.3188 66.7811C87.726 67.1879 88.3862 67.1879 88.7933 66.7811Z" fill="#E0E0E0"/>
<path d="M101.209 65.6702H91.2042C91.0811 65.6702 90.9814 65.5705 90.9814 65.4475C90.9814 65.3245 91.0811 65.2249 91.2042 65.2249H101.209C101.332 65.2249 101.432 65.3245 101.432 65.4475C101.432 65.5705 101.332 65.6702 101.209 65.6702Z" fill="#E0E0E0"/>
<path d="M101.209 66.8638H91.2042C91.0811 66.8638 90.9814 66.7641 90.9814 66.6411C90.9814 66.5181 91.0811 66.4185 91.2042 66.4185H101.209C101.332 66.4185 101.432 66.5181 101.432 66.6411C101.432 66.7641 101.332 66.8638 101.209 66.8638Z" fill="#E0E0E0"/>
<path d="M101.209 68.0571H91.2042C91.0811 68.0571 90.9814 67.9575 90.9814 67.8345C90.9814 67.7115 91.0811 67.6118 91.2042 67.6118H101.209C101.332 67.6118 101.432 67.7115 101.432 67.8345C101.432 67.9575 101.332 68.0571 101.209 68.0571Z" fill="#E0E0E0"/>
<path d="M84.0421 87.0241H72.1055C71.798 87.0241 71.5488 86.775 71.5488 86.4676V70.941C71.5488 70.6336 71.798 70.3845 72.1055 70.3845H84.0421C84.3495 70.3845 84.5987 70.6336 84.5987 70.941V86.4676C84.5987 86.775 84.3494 87.0241 84.0421 87.0241Z" fill="#E0E0E0"/>
<path d="M87.933 72.4686C88.5086 72.4686 88.9753 72.0021 88.9753 71.4266C88.9753 70.8511 88.5086 70.3845 87.933 70.3845C87.3573 70.3845 86.8906 70.8511 86.8906 71.4266C86.8906 72.0021 87.3573 72.4686 87.933 72.4686Z" fill="#E0E0E0"/>
<path d="M101.085 71.0525H91.0801C90.9571 71.0525 90.8574 70.9528 90.8574 70.8298C90.8574 70.7068 90.9571 70.6072 91.0801 70.6072H101.085C101.208 70.6072 101.308 70.7068 101.308 70.8298C101.308 70.9528 101.208 71.0525 101.085 71.0525Z" fill="#E0E0E0"/>
<path d="M101.085 72.2461H91.0801C90.9571 72.2461 90.8574 72.1464 90.8574 72.0234C90.8574 71.9005 90.9571 71.8008 91.0801 71.8008H101.085C101.208 71.8008 101.308 71.9005 101.308 72.0234C101.308 72.1464 101.208 72.2461 101.085 72.2461Z" fill="#E0E0E0"/>
<path d="M101.085 73.4395H91.0801C90.9571 73.4395 90.8574 73.3398 90.8574 73.2168C90.8574 73.0938 90.9571 72.9941 91.0801 72.9941H101.085C101.208 72.9941 101.308 73.0938 101.308 73.2168C101.308 73.3398 101.208 73.4395 101.085 73.4395Z" fill="#E0E0E0"/>
<path d="M88.9468 75.9974C89.0785 75.4371 88.7309 74.8763 88.1705 74.7448C87.6101 74.6132 87.049 74.9607 86.9172 75.521C86.7855 76.0812 87.133 76.642 87.6935 76.7736C88.2539 76.9051 88.815 76.5576 88.9468 75.9974Z" fill="#E0E0E0"/>
<path d="M101.085 75.3872H91.0797C90.9566 75.3872 90.8569 75.2875 90.8569 75.1646C90.8569 75.0416 90.9566 74.9419 91.0797 74.9419H101.085C101.208 74.9419 101.307 75.0416 101.307 75.1646C101.307 75.2875 101.208 75.3872 101.085 75.3872Z" fill="#E0E0E0"/>
<path d="M101.085 76.5808H91.0797C90.9566 76.5808 90.8569 76.4811 90.8569 76.3582C90.8569 76.2352 90.9566 76.1355 91.0797 76.1355H101.085C101.208 76.1355 101.307 76.2352 101.307 76.3582C101.307 76.4811 101.208 76.5808 101.085 76.5808Z" fill="#E0E0E0"/>
<path d="M101.085 77.7742H91.0797C90.9566 77.7742 90.8569 77.6745 90.8569 77.5515C90.8569 77.4285 90.9566 77.3289 91.0797 77.3289H101.085C101.208 77.3289 101.307 77.4285 101.307 77.5515C101.307 77.6745 101.208 77.7742 101.085 77.7742Z" fill="#E0E0E0"/>
<path d="M88.9468 80.3321C89.0785 79.7718 88.7309 79.211 88.1705 79.0795C87.6101 78.9479 87.049 79.2955 86.9172 79.8557C86.7855 80.416 87.133 80.9768 87.6935 81.1083C88.2539 81.2398 88.815 80.8923 88.9468 80.3321Z" fill="#E0E0E0"/>
<path d="M101.085 79.7219H91.0797C90.9566 79.7219 90.8569 79.6223 90.8569 79.4993C90.8569 79.3763 90.9566 79.2766 91.0797 79.2766H101.085C101.208 79.2766 101.307 79.3763 101.307 79.4993C101.307 79.6223 101.208 79.7219 101.085 79.7219Z" fill="#E0E0E0"/>
<path d="M101.085 80.9155H91.0797C90.9566 80.9155 90.8569 80.8159 90.8569 80.6929C90.8569 80.5699 90.9566 80.4702 91.0797 80.4702H101.085C101.208 80.4702 101.307 80.5699 101.307 80.6929C101.307 80.8158 101.208 80.9155 101.085 80.9155Z" fill="#E0E0E0"/>
<path d="M101.085 82.1091H91.0797C90.9566 82.1091 90.8569 82.0095 90.8569 81.8865C90.8569 81.7635 90.9566 81.6638 91.0797 81.6638H101.085C101.208 81.6638 101.307 81.7635 101.307 81.8865C101.307 82.0095 101.208 82.1091 101.085 82.1091Z" fill="#E0E0E0"/>
<path d="M88.6693 85.1675C89.0765 84.7607 89.0765 84.1011 88.6693 83.6943C88.2621 83.2875 87.602 83.2875 87.1948 83.6943C86.7876 84.1011 86.7876 84.7607 87.1948 85.1675C87.602 85.5744 88.2621 85.5744 88.6693 85.1675Z" fill="#E0E0E0"/>
<path d="M101.085 84.0566H91.0801C90.9571 84.0566 90.8574 83.957 90.8574 83.834C90.8574 83.711 90.9571 83.6113 91.0801 83.6113H101.085C101.208 83.6113 101.308 83.711 101.308 83.834C101.308 83.957 101.208 84.0566 101.085 84.0566Z" fill="#E0E0E0"/>
<path d="M101.085 85.2502H91.0801C90.9571 85.2502 90.8574 85.1506 90.8574 85.0276C90.8574 84.9046 90.9571 84.8049 91.0801 84.8049H101.085C101.208 84.8049 101.308 84.9046 101.308 85.0276C101.308 85.1506 101.208 85.2502 101.085 85.2502Z" fill="#E0E0E0"/>
<path d="M101.085 86.4439H91.0801C90.9571 86.4439 90.8574 86.3442 90.8574 86.2212C90.8574 86.0982 90.9571 85.9985 91.0801 85.9985H101.085C101.208 85.9985 101.308 86.0982 101.308 86.2212C101.308 86.3442 101.208 86.4439 101.085 86.4439Z" fill="#E0E0E0"/>
<path d="M82.2588 42.24H74.1891C73.9326 42.24 73.7246 42.0321 73.7246 41.7756V35.451C73.7246 35.1945 73.9326 34.9866 74.1891 34.9866H82.2588C82.5154 34.9866 82.7233 35.1945 82.7233 35.451V41.7757C82.7232 42.0321 82.5153 42.24 82.2588 42.24Z" fill="#FFF4EE"/>
<path d="M82.4462 43.9191H74.0009C73.848 43.9191 73.7241 43.7952 73.7241 43.6424V43.5989C73.7241 43.4461 73.848 43.3223 74.0009 43.3223H82.4462C82.599 43.3223 82.7229 43.4461 82.7229 43.5989V43.6424C82.7228 43.7952 82.5989 43.9191 82.4462 43.9191Z" fill="#FFF4EE"/>
<path d="M82.4462 45.1884H74.0009C73.848 45.1884 73.7241 45.0645 73.7241 44.9117V44.8682C73.7241 44.7154 73.848 44.5916 74.0009 44.5916H82.4462C82.599 44.5916 82.7229 44.7154 82.7229 44.8682V44.9117C82.7228 45.0645 82.5989 45.1884 82.4462 45.1884Z" fill="#FFF4EE"/>
<path d="M82.4462 46.4577H74.0009C73.848 46.4577 73.7241 46.3338 73.7241 46.181V46.1375C73.7241 45.9847 73.848 45.8608 74.0009 45.8608H82.4462C82.599 45.8608 82.7229 45.9847 82.7229 46.1375V46.181C82.7228 46.3339 82.5989 46.4577 82.4462 46.4577Z" fill="#FFF4EE"/>
<path d="M82.4462 47.727H74.0009C73.848 47.727 73.7241 47.6031 73.7241 47.4503V47.4068C73.7241 47.254 73.848 47.1301 74.0009 47.1301H82.4462C82.599 47.1301 82.7229 47.254 82.7229 47.4068V47.4503C82.7228 47.6031 82.5989 47.727 82.4462 47.727Z" fill="#FFF4EE"/>
<path d="M82.4462 48.9963H74.0009C73.848 48.9963 73.7241 48.8724 73.7241 48.7196V48.6761C73.7241 48.5233 73.848 48.3994 74.0009 48.3994H82.4462C82.599 48.3994 82.7229 48.5233 82.7229 48.6761V48.7196C82.7228 48.8724 82.5989 48.9963 82.4462 48.9963Z" fill="#FFF4EE"/>
<path d="M82.2588 60.566H74.1891C73.9326 60.566 73.7246 60.3581 73.7246 60.1016V53.7769C73.7246 53.5204 73.9326 53.3125 74.1891 53.3125H82.2588C82.5154 53.3125 82.7233 53.5204 82.7233 53.7769V60.1016C82.7232 60.3581 82.5153 60.566 82.2588 60.566Z" fill="#FFF4EE"/>
<path d="M82.4462 62.245H74.0009C73.848 62.245 73.7241 62.1212 73.7241 61.9684V61.9249C73.7241 61.7721 73.848 61.6482 74.0009 61.6482H82.4462C82.599 61.6482 82.7229 61.7721 82.7229 61.9249V61.9684C82.7228 62.1212 82.5989 62.245 82.4462 62.245Z" fill="#FFF4EE"/>
<path d="M82.4462 63.5143H74.0009C73.848 63.5143 73.7241 63.3904 73.7241 63.2376V63.1942C73.7241 63.0414 73.848 62.9175 74.0009 62.9175H82.4462C82.599 62.9175 82.7229 63.0414 82.7229 63.1942V63.2376C82.7228 63.3904 82.5989 63.5143 82.4462 63.5143Z" fill="#FFF4EE"/>
<path d="M82.4462 64.7836H74.0009C73.848 64.7836 73.7241 64.6597 73.7241 64.5069V64.4634C73.7241 64.3106 73.848 64.1868 74.0009 64.1868H82.4462C82.599 64.1868 82.7229 64.3106 82.7229 64.4634V64.5069C82.7228 64.6597 82.5989 64.7836 82.4462 64.7836Z" fill="#FFF4EE"/>
<path d="M82.4462 66.0529H74.0009C73.848 66.0529 73.7241 65.929 73.7241 65.7762V65.7327C73.7241 65.5799 73.848 65.4561 74.0009 65.4561H82.4462C82.599 65.4561 82.7229 65.5799 82.7229 65.7327V65.7762C82.7228 65.929 82.5989 66.0529 82.4462 66.0529Z" fill="#FFF4EE"/>
<path d="M82.4462 67.3222H74.0009C73.848 67.3222 73.7241 67.1983 73.7241 67.0455V67.002C73.7241 66.8492 73.848 66.7253 74.0009 66.7253H82.4462C82.599 66.7253 82.7229 66.8492 82.7229 67.002V67.0455C82.7228 67.1983 82.5989 67.3222 82.4462 67.3222Z" fill="#FFF4EE"/>
<path d="M82.2588 78.8921H74.1891C73.9326 78.8921 73.7246 78.6843 73.7246 78.4277V72.1031C73.7246 71.8466 73.9326 71.6387 74.1891 71.6387H82.2588C82.5154 71.6387 82.7233 71.8466 82.7233 72.1031V78.4277C82.7232 78.6843 82.5153 78.8921 82.2588 78.8921Z" fill="#FFF4EE"/>
<path d="M82.4462 80.5712H74.0009C73.848 80.5712 73.7241 80.4473 73.7241 80.2945V80.251C73.7241 80.0982 73.848 79.9744 74.0009 79.9744H82.4462C82.599 79.9744 82.7229 80.0982 82.7229 80.251V80.2945C82.7228 80.4473 82.5989 80.5712 82.4462 80.5712Z" fill="#FFF4EE"/>
<path d="M82.4462 81.8405H74.0009C73.848 81.8405 73.7241 81.7166 73.7241 81.5638V81.5203C73.7241 81.3675 73.848 81.2437 74.0009 81.2437H82.4462C82.599 81.2437 82.7229 81.3675 82.7229 81.5203V81.5638C82.7228 81.7166 82.5989 81.8405 82.4462 81.8405Z" fill="#FFF4EE"/>
<path d="M82.4462 83.1098H74.0009C73.848 83.1098 73.7241 82.9859 73.7241 82.8331V82.7896C73.7241 82.6368 73.848 82.5129 74.0009 82.5129H82.4462C82.599 82.5129 82.7229 82.6368 82.7229 82.7896V82.8331C82.7228 82.986 82.5989 83.1098 82.4462 83.1098Z" fill="#FFF4EE"/>
<path d="M82.4462 84.3791H74.0009C73.848 84.3791 73.7241 84.2552 73.7241 84.1024V84.0589C73.7241 83.9061 73.848 83.7822 74.0009 83.7822H82.4462C82.599 83.7822 82.7229 83.9061 82.7229 84.0589V84.1024C82.7228 84.2552 82.5989 84.3791 82.4462 84.3791Z" fill="#FFF4EE"/>
<path d="M82.4462 85.6484H74.0009C73.848 85.6484 73.7241 85.5245 73.7241 85.3717V85.3282C73.7241 85.1754 73.848 85.0515 74.0009 85.0515H82.4462C82.599 85.0515 82.7229 85.1754 82.7229 85.3282V85.3717C82.7228 85.5245 82.5989 85.6484 82.4462 85.6484Z" fill="#FFF4EE"/>
<path d="M180.159 90.1536H149.018C148.349 90.1536 147.806 89.6108 147.806 88.9411V32.0943C147.806 31.4247 148.349 30.8818 149.018 30.8818H180.159C180.829 30.8818 181.372 31.4247 181.372 32.0943V88.9411C181.372 89.6107 180.829 90.1536 180.159 90.1536Z" fill="#FFF4EE"/>
<path d="M178.407 33.6129H168.664C168.486 33.6129 168.342 33.4689 168.342 33.2911C168.342 33.1134 168.486 32.9692 168.664 32.9692H178.407C178.584 32.9692 178.728 33.1133 178.728 33.2911C178.728 33.4688 178.584 33.6129 178.407 33.6129Z" fill="#E0E0E0"/>
<path d="M178.407 35.0848H168.664C168.486 35.0848 168.342 34.9408 168.342 34.763C168.342 34.5853 168.486 34.4412 168.664 34.4412H178.407C178.584 34.4412 178.728 34.5852 178.728 34.763C178.728 34.9408 178.584 35.0848 178.407 35.0848Z" fill="#E0E0E0"/>
<path d="M178.407 36.5565H168.664C168.486 36.5565 168.342 36.4125 168.342 36.2347C168.342 36.057 168.486 35.9128 168.664 35.9128H178.407C178.584 35.9128 178.728 36.0569 178.728 36.2347C178.728 36.4125 178.584 36.5565 178.407 36.5565Z" fill="#E0E0E0"/>
<path d="M178.407 38.0284H168.664C168.486 38.0284 168.342 37.8844 168.342 37.7066C168.342 37.5289 168.486 37.3848 168.664 37.3848H178.407C178.584 37.3848 178.728 37.5288 178.728 37.7066C178.728 37.8844 178.584 38.0284 178.407 38.0284Z" fill="#E0E0E0"/>
<path d="M178.407 39.5004H168.664C168.486 39.5004 168.342 39.3563 168.342 39.1785C168.342 39.0008 168.486 38.8567 168.664 38.8567H178.407C178.584 38.8567 178.728 39.0007 178.728 39.1785C178.728 39.3563 178.584 39.5004 178.407 39.5004Z" fill="#E0E0E0"/>
<path d="M178.407 40.9723H168.664C168.486 40.9723 168.342 40.8282 168.342 40.6504C168.342 40.4728 168.486 40.3286 168.664 40.3286H178.407C178.584 40.3286 178.728 40.4727 178.728 40.6504C178.728 40.8281 178.584 40.9723 178.407 40.9723Z" fill="#E0E0E0"/>
<path d="M178.407 42.444H168.664C168.486 42.444 168.342 42.2999 168.342 42.1221C168.342 41.9444 168.486 41.8003 168.664 41.8003H178.407C178.584 41.8003 178.728 41.9443 178.728 42.1221C178.728 42.2999 178.584 42.444 178.407 42.444Z" fill="#E0E0E0"/>
<path d="M178.407 70.4293H168.664C168.486 70.4293 168.342 70.2853 168.342 70.1075C168.342 69.9298 168.486 69.7856 168.664 69.7856H178.407C178.584 69.7856 178.728 69.9297 178.728 70.1075C178.728 70.2852 178.584 70.4293 178.407 70.4293Z" fill="#E0E0E0"/>
<path d="M178.407 71.9012H168.664C168.486 71.9012 168.342 71.7572 168.342 71.5794C168.342 71.4017 168.486 71.2576 168.664 71.2576H178.407C178.584 71.2576 178.728 71.4016 178.728 71.5794C178.728 71.7572 178.584 71.9012 178.407 71.9012Z" fill="#E0E0E0"/>
<path d="M178.407 73.3732H168.664C168.486 73.3732 168.342 73.2291 168.342 73.0513C168.342 72.8736 168.486 72.7295 168.664 72.7295H178.407C178.584 72.7295 178.728 72.8735 178.728 73.0513C178.728 73.2291 178.584 73.3732 178.407 73.3732Z" fill="#E0E0E0"/>
<path d="M178.407 74.8451H168.664C168.486 74.8451 168.342 74.7011 168.342 74.5233C168.342 74.3456 168.486 74.2014 168.664 74.2014H178.407C178.584 74.2014 178.728 74.3455 178.728 74.5233C178.728 74.7011 178.584 74.8451 178.407 74.8451Z" fill="#E0E0E0"/>
<path d="M178.407 76.3168H168.664C168.486 76.3168 168.342 76.1727 168.342 75.9949C168.342 75.8172 168.486 75.6731 168.664 75.6731H178.407C178.584 75.6731 178.728 75.8171 178.728 75.9949C178.728 76.1727 178.584 76.3168 178.407 76.3168Z" fill="#E0E0E0"/>
<path d="M178.407 77.7887H168.664C168.486 77.7887 168.342 77.6446 168.342 77.4669C168.342 77.2892 168.486 77.145 168.664 77.145H178.407C178.584 77.145 178.728 77.2891 178.728 77.4669C178.728 77.6445 178.584 77.7887 178.407 77.7887Z" fill="#E0E0E0"/>
<path d="M178.407 79.2606H168.664C168.486 79.2606 168.342 79.1166 168.342 78.9388C168.342 78.7611 168.486 78.6169 168.664 78.6169H178.407C178.584 78.6169 178.728 78.761 178.728 78.9388C178.728 79.1166 178.584 79.2606 178.407 79.2606Z" fill="#E0E0E0"/>
<path d="M178.407 80.913H168.664C168.486 80.913 168.342 80.7689 168.342 80.5911C168.342 80.4134 168.486 80.2693 168.664 80.2693H178.407C178.584 80.2693 178.728 80.4133 178.728 80.5911C178.728 80.7689 178.584 80.913 178.407 80.913Z" fill="#E0E0E0"/>
<path d="M178.407 82.3849H168.664C168.486 82.3849 168.342 82.2408 168.342 82.063C168.342 81.8854 168.486 81.7412 168.664 81.7412H178.407C178.584 81.7412 178.728 81.8853 178.728 82.063C178.728 82.2407 178.584 82.3849 178.407 82.3849Z" fill="#E0E0E0"/>
<path d="M178.407 83.8566H168.664C168.486 83.8566 168.342 83.7125 168.342 83.5347C168.342 83.357 168.486 83.2129 168.664 83.2129H178.407C178.584 83.2129 178.728 83.3569 178.728 83.5347C178.728 83.7125 178.584 83.8566 178.407 83.8566Z" fill="#E0E0E0"/>
<path d="M178.407 85.3285H168.664C168.486 85.3285 168.342 85.1844 168.342 85.0067C168.342 84.829 168.486 84.6848 168.664 84.6848H178.407C178.584 84.6848 178.728 84.8289 178.728 85.0067C178.728 85.1843 178.584 85.3285 178.407 85.3285Z" fill="#E0E0E0"/>
<path d="M178.407 86.8004H168.664C168.486 86.8004 168.342 86.6564 168.342 86.4786C168.342 86.3009 168.486 86.1567 168.664 86.1567H178.407C178.584 86.1567 178.728 86.3008 178.728 86.4786C178.728 86.6564 178.584 86.8004 178.407 86.8004Z" fill="#E0E0E0"/>
<path d="M178.407 88.2723H168.664C168.486 88.2723 168.342 88.1283 168.342 87.9505C168.342 87.7728 168.486 87.6287 168.664 87.6287H178.407C178.584 87.6287 178.728 87.7727 178.728 87.9505C178.728 88.1282 178.584 88.2723 178.407 88.2723Z" fill="#E0E0E0"/>
<path d="M178.407 43.9161H168.664C168.486 43.9161 168.342 43.7721 168.342 43.5943C168.342 43.4166 168.486 43.2725 168.664 43.2725H178.407C178.584 43.2725 178.728 43.4165 178.728 43.5943C178.728 43.772 178.584 43.9161 178.407 43.9161Z" fill="#E0E0E0"/>
<path d="M178.407 45.3878H168.664C168.486 45.3878 168.342 45.2438 168.342 45.066C168.342 44.8883 168.486 44.7441 168.664 44.7441H178.407C178.584 44.7441 178.728 44.8882 178.728 45.066C178.728 45.2438 178.584 45.3878 178.407 45.3878Z" fill="#E0E0E0"/>
<path d="M178.407 46.8597H168.664C168.486 46.8597 168.342 46.7157 168.342 46.5379C168.342 46.3602 168.486 46.2161 168.664 46.2161H178.407C178.584 46.2161 178.728 46.3601 178.728 46.5379C178.728 46.7156 178.584 46.8597 178.407 46.8597Z" fill="#E0E0E0"/>
<path d="M178.407 48.3317H168.664C168.486 48.3317 168.342 48.1876 168.342 48.0098C168.342 47.8321 168.486 47.688 168.664 47.688H178.407C178.584 47.688 178.728 47.832 178.728 48.0098C178.728 48.1876 178.584 48.3317 178.407 48.3317Z" fill="#E0E0E0"/>
<path d="M178.407 49.8033H168.664C168.486 49.8033 168.342 49.6593 168.342 49.4815C168.342 49.3038 168.486 49.1597 168.664 49.1597H178.407C178.584 49.1597 178.728 49.3037 178.728 49.4815C178.728 49.6593 178.584 49.8033 178.407 49.8033Z" fill="#E0E0E0"/>
<path d="M178.407 51.2753H168.664C168.486 51.2753 168.342 51.1312 168.342 50.9534C168.342 50.7757 168.486 50.6316 168.664 50.6316H178.407C178.584 50.6316 178.728 50.7756 178.728 50.9534C178.728 51.1312 178.584 51.2753 178.407 51.2753Z" fill="#E0E0E0"/>
<path d="M178.407 52.7472H168.664C168.486 52.7472 168.342 52.6031 168.342 52.4254C168.342 52.2477 168.486 52.1035 168.664 52.1035H178.407C178.584 52.1035 178.728 52.2476 178.728 52.4254C178.728 52.6031 178.584 52.7472 178.407 52.7472Z" fill="#E0E0E0"/>
<path d="M178.407 54.2191H168.664C168.486 54.2191 168.342 54.0751 168.342 53.8973C168.342 53.7196 168.486 53.5754 168.664 53.5754H178.407C178.584 53.5754 178.728 53.7195 178.728 53.8973C178.728 54.0751 178.584 54.2191 178.407 54.2191Z" fill="#E0E0E0"/>
<path d="M178.407 55.691H168.664C168.486 55.691 168.342 55.547 168.342 55.3692C168.342 55.1915 168.486 55.0474 168.664 55.0474H178.407C178.584 55.0474 178.728 55.1914 178.728 55.3692C178.728 55.547 178.584 55.691 178.407 55.691Z" fill="#E0E0E0"/>
<path d="M165.238 59.0248H150.771C150.593 59.0248 150.449 58.8807 150.449 58.7029C150.449 58.5252 150.593 58.3811 150.771 58.3811H165.238C165.416 58.3811 165.56 58.5251 165.56 58.7029C165.56 58.8807 165.416 59.0248 165.238 59.0248Z" fill="#E0E0E0"/>
<path d="M165.238 60.4967H150.771C150.593 60.4967 150.449 60.3527 150.449 60.1749C150.449 59.9972 150.593 59.853 150.771 59.853H165.238C165.416 59.853 165.56 59.9971 165.56 60.1749C165.56 60.3527 165.416 60.4967 165.238 60.4967Z" fill="#E0E0E0"/>
<path d="M165.238 61.9684H150.771C150.593 61.9684 150.449 61.8243 150.449 61.6465C150.449 61.4688 150.593 61.3247 150.771 61.3247H165.238C165.416 61.3247 165.56 61.4688 165.56 61.6465C165.56 61.8243 165.416 61.9684 165.238 61.9684Z" fill="#E0E0E0"/>
<path d="M165.238 63.4403H150.771C150.593 63.4403 150.449 63.2963 150.449 63.1185C150.449 62.9408 150.593 62.7966 150.771 62.7966H165.238C165.416 62.7966 165.56 62.9407 165.56 63.1185C165.56 63.2963 165.416 63.4403 165.238 63.4403Z" fill="#E0E0E0"/>
<path d="M165.238 64.9122H150.771C150.593 64.9122 150.449 64.7682 150.449 64.5904C150.449 64.4127 150.593 64.2686 150.771 64.2686H165.238C165.416 64.2686 165.56 64.4126 165.56 64.5904C165.56 64.7682 165.416 64.9122 165.238 64.9122Z" fill="#E0E0E0"/>
<path d="M165.238 66.3842H150.771C150.593 66.3842 150.449 66.2401 150.449 66.0623C150.449 65.8846 150.593 65.7405 150.771 65.7405H165.238C165.416 65.7405 165.56 65.8845 165.56 66.0623C165.56 66.24 165.416 66.3842 165.238 66.3842Z" fill="#E0E0E0"/>
<path d="M165.238 67.8561H150.771C150.593 67.8561 150.449 67.712 150.449 67.5342C150.449 67.3565 150.593 67.2124 150.771 67.2124H165.238C165.416 67.2124 165.56 67.3564 165.56 67.5342C165.56 67.712 165.416 67.8561 165.238 67.8561Z" fill="#E0E0E0"/>
<path d="M165.238 69.328H150.771C150.593 69.328 150.449 69.184 150.449 69.0062C150.449 68.8285 150.593 68.6843 150.771 68.6843H165.238C165.416 68.6843 165.56 68.8284 165.56 69.0062C165.56 69.1839 165.416 69.328 165.238 69.328Z" fill="#E0E0E0"/>
<path d="M165.238 70.7997H150.771C150.593 70.7997 150.449 70.6556 150.449 70.4778C150.449 70.3001 150.593 70.156 150.771 70.156H165.238C165.416 70.156 165.56 70.3 165.56 70.4778C165.56 70.6556 165.416 70.7997 165.238 70.7997Z" fill="#E0E0E0"/>
<path d="M165.238 72.2716H150.771C150.593 72.2716 150.449 72.1276 150.449 71.9498C150.449 71.7721 150.593 71.6279 150.771 71.6279H165.238C165.416 71.6279 165.56 71.772 165.56 71.9498C165.56 72.1275 165.416 72.2716 165.238 72.2716Z" fill="#E0E0E0"/>
<path d="M165.238 73.7435H150.771C150.593 73.7435 150.449 73.5995 150.449 73.4217C150.449 73.244 150.593 73.0999 150.771 73.0999H165.238C165.416 73.0999 165.56 73.2439 165.56 73.4217C165.56 73.5995 165.416 73.7435 165.238 73.7435Z" fill="#E0E0E0"/>
<path d="M165.238 75.2154H150.771C150.593 75.2154 150.449 75.0714 150.449 74.8936C150.449 74.7159 150.593 74.5718 150.771 74.5718H165.238C165.416 74.5718 165.56 74.7158 165.56 74.8936C165.56 75.0714 165.416 75.2154 165.238 75.2154Z" fill="#E0E0E0"/>
<path d="M165.238 76.6874H150.771C150.593 76.6874 150.449 76.5433 150.449 76.3655C150.449 76.1878 150.593 76.0437 150.771 76.0437H165.238C165.416 76.0437 165.56 76.1878 165.56 76.3655C165.56 76.5433 165.416 76.6874 165.238 76.6874Z" fill="#E0E0E0"/>
<path d="M165.238 78.1591H150.771C150.593 78.1591 150.449 78.015 150.449 77.8372C150.449 77.6595 150.593 77.5154 150.771 77.5154H165.238C165.416 77.5154 165.56 77.6594 165.56 77.8372C165.56 78.015 165.416 78.1591 165.238 78.1591Z" fill="#E0E0E0"/>
<path d="M165.238 79.631H150.771C150.593 79.631 150.449 79.4869 150.449 79.3091C150.449 79.1314 150.593 78.9873 150.771 78.9873H165.238C165.416 78.9873 165.56 79.1313 165.56 79.3091C165.56 79.4868 165.416 79.631 165.238 79.631Z" fill="#E0E0E0"/>
<path d="M165.238 81.1029H150.771C150.593 81.1029 150.449 80.9589 150.449 80.7811C150.449 80.6034 150.593 80.4592 150.771 80.4592H165.238C165.416 80.4592 165.56 80.6033 165.56 80.7811C165.56 80.9589 165.416 81.1029 165.238 81.1029Z" fill="#E0E0E0"/>
<path d="M165.238 82.4777H150.771C150.593 82.4777 150.449 82.3336 150.449 82.1558C150.449 81.9781 150.593 81.834 150.771 81.834H165.238C165.416 81.834 165.56 81.978 165.56 82.1558C165.56 82.3336 165.416 82.4777 165.238 82.4777Z" fill="#E0E0E0"/>
<path d="M165.238 83.9493H150.771C150.593 83.9493 150.449 83.8053 150.449 83.6275C150.449 83.4498 150.593 83.3057 150.771 83.3057H165.238C165.416 83.3057 165.56 83.4497 165.56 83.6275C165.56 83.8053 165.416 83.9493 165.238 83.9493Z" fill="#E0E0E0"/>
<path d="M165.238 85.4213H150.771C150.593 85.4213 150.449 85.2772 150.449 85.0994C150.449 84.9217 150.593 84.7776 150.771 84.7776H165.238C165.416 84.7776 165.56 84.9216 165.56 85.0994C165.56 85.2772 165.416 85.4213 165.238 85.4213Z" fill="#E0E0E0"/>
<path d="M165.238 86.8932H150.771C150.593 86.8932 150.449 86.7491 150.449 86.5714C150.449 86.3937 150.593 86.2495 150.771 86.2495H165.238C165.416 86.2495 165.56 86.3936 165.56 86.5714C165.56 86.7491 165.416 86.8932 165.238 86.8932Z" fill="#E0E0E0"/>
<path d="M165.238 88.3651H150.771C150.593 88.3651 150.449 88.2211 150.449 88.0433C150.449 87.8656 150.593 87.7214 150.771 87.7214H165.238C165.416 87.7214 165.56 87.8655 165.56 88.0433C165.56 88.2211 165.416 88.3651 165.238 88.3651Z" fill="#E0E0E0"/>
<path d="M178.452 67.9357H168.618C168.466 67.9357 168.342 67.8121 168.342 67.6598V58.5767C168.342 58.4243 168.466 58.3008 168.618 58.3008H178.452C178.605 58.3008 178.728 58.4243 178.728 58.5767V67.6598C178.728 67.8121 178.605 67.9357 178.452 67.9357Z" fill="#E0E0E0"/>
<path d="M165.188 55.6909H150.822C150.616 55.6909 150.45 55.5243 150.45 55.3186V33.3415C150.45 33.1359 150.616 32.9692 150.822 32.9692H165.188C165.394 32.9692 165.56 33.1359 165.56 33.3415V55.3186C165.56 55.5243 165.394 55.6909 165.188 55.6909Z" fill="#E0E0E0"/>
<path d="M163.914 40.9723H152.095C151.971 40.9723 151.87 40.8716 151.87 40.7476V34.6102C151.87 34.4862 151.971 34.3855 152.095 34.3855H163.914C164.039 34.3855 164.139 34.4862 164.139 34.6102V40.7476C164.139 40.8716 164.039 40.9723 163.914 40.9723Z" fill="#FFF4EE"/>
<path d="M163.914 48.3595H152.095C151.971 48.3595 151.87 48.2588 151.87 48.1348V41.9974C151.87 41.8734 151.971 41.7727 152.095 41.7727H163.914C164.039 41.7727 164.139 41.8734 164.139 41.9974V48.1348C164.139 48.2588 164.039 48.3595 163.914 48.3595Z" fill="#FFF4EE"/>
<path d="M157.45 54.628H152.065C151.957 54.628 151.87 54.5407 151.87 54.4331V49.3548C151.87 49.2472 151.957 49.1599 152.065 49.1599H157.45C157.558 49.1599 157.645 49.2472 157.645 49.3548V54.4331C157.645 54.5407 157.558 54.628 157.45 54.628Z" fill="#FFF4EE"/>
<path d="M163.942 54.628H158.421C158.312 54.628 158.224 54.5396 158.224 54.4307V49.3572C158.224 49.2482 158.312 49.1599 158.421 49.1599H163.942C164.051 49.1599 164.139 49.2483 164.139 49.3572V54.4307C164.139 54.5396 164.051 54.628 163.942 54.628Z" fill="#FFF4EE"/>
<path d="M141.141 90.1536H110C109.331 90.1536 108.788 89.6108 108.788 88.9411V32.0943C108.788 31.4247 109.331 30.8818 110 30.8818H141.141C141.811 30.8818 142.354 31.4247 142.354 32.0943V88.9411C142.354 89.6107 141.811 90.1536 141.141 90.1536Z" fill="#FFF4EE"/>
<path d="M124.118 46.8376H112.007C111.698 46.8376 111.448 46.5875 111.448 46.2789V34.1715C111.448 33.8629 111.698 33.6128 112.007 33.6128H124.118C124.427 33.6128 124.677 33.8629 124.677 34.1715V46.2789C124.677 46.5875 124.427 46.8376 124.118 46.8376Z" fill="#E0E0E0"/>
<path d="M139.758 34.4165H130.371C130.209 34.4165 130.079 34.2858 130.079 34.1247V33.9049C130.079 33.7437 130.209 33.613 130.371 33.613H139.758C139.919 33.613 140.05 33.7437 140.05 33.9049V34.1247C140.05 34.2858 139.919 34.4165 139.758 34.4165Z" fill="#E0E0E0"/>
<path d="M139.758 35.8179H130.371C130.209 35.8179 130.079 35.6872 130.079 35.526V35.3062C130.079 35.1451 130.209 35.0144 130.371 35.0144H139.758C139.919 35.0144 140.05 35.1451 140.05 35.3062V35.526C140.05 35.6872 139.919 35.8179 139.758 35.8179Z" fill="#E0E0E0"/>
<path d="M139.758 37.2195H130.371C130.209 37.2195 130.079 37.0888 130.079 36.9276V36.7078C130.079 36.5467 130.209 36.416 130.371 36.416H139.758C139.919 36.416 140.05 36.5467 140.05 36.7078V36.9276C140.05 37.0888 139.919 37.2195 139.758 37.2195Z" fill="#E0E0E0"/>
<path d="M139.758 38.6208H130.371C130.209 38.6208 130.079 38.4902 130.079 38.329V38.1092C130.079 37.948 130.209 37.8174 130.371 37.8174H139.758C139.919 37.8174 140.05 37.948 140.05 38.1092V38.329C140.05 38.4902 139.919 38.6208 139.758 38.6208Z" fill="#E0E0E0"/>
<path d="M139.758 40.0225H130.371C130.209 40.0225 130.079 39.8918 130.079 39.7306V39.5108C130.079 39.3497 130.209 39.219 130.371 39.219H139.758C139.919 39.219 140.05 39.3497 140.05 39.5108V39.7306C140.05 39.8919 139.919 40.0225 139.758 40.0225Z" fill="#E0E0E0"/>
<path d="M139.758 41.4238H130.371C130.209 41.4238 130.079 41.2932 130.079 41.132V40.9122C130.079 40.751 130.209 40.6204 130.371 40.6204H139.758C139.919 40.6204 140.05 40.751 140.05 40.9122V41.132C140.05 41.2933 139.919 41.4238 139.758 41.4238Z" fill="#E0E0E0"/>
<path d="M139.758 42.8254H130.371C130.209 42.8254 130.079 42.6948 130.079 42.5336V42.3138C130.079 42.1526 130.209 42.022 130.371 42.022H139.758C139.919 42.022 140.05 42.1526 140.05 42.3138V42.5336C140.05 42.6948 139.919 42.8254 139.758 42.8254Z" fill="#E0E0E0"/>
<path d="M139.758 44.2268H130.371C130.209 44.2268 130.079 44.0961 130.079 43.935V43.7152C130.079 43.554 130.209 43.4233 130.371 43.4233H139.758C139.919 43.4233 140.05 43.554 140.05 43.7152V43.935C140.05 44.0961 139.919 44.2268 139.758 44.2268Z" fill="#E0E0E0"/>
<path d="M139.758 45.6284H130.371C130.209 45.6284 130.079 45.4977 130.079 45.3366V45.1168C130.079 44.9556 130.209 44.825 130.371 44.825H139.758C139.919 44.825 140.05 44.9556 140.05 45.1168V45.3366C140.05 45.4977 139.919 45.6284 139.758 45.6284Z" fill="#E0E0E0"/>
<path d="M139.758 47.0298H130.371C130.209 47.0298 130.079 46.8991 130.079 46.7379V46.5181C130.079 46.357 130.209 46.2263 130.371 46.2263H139.758C139.919 46.2263 140.05 46.357 140.05 46.5181V46.7379C140.05 46.8991 139.919 47.0298 139.758 47.0298Z" fill="#E0E0E0"/>
<path d="M127.202 35.6083C127.59 35.6083 127.903 35.2945 127.903 34.9075C127.903 34.5205 127.59 34.2068 127.202 34.2068C126.815 34.2068 126.501 34.5205 126.501 34.9075C126.501 35.2945 126.815 35.6083 127.202 35.6083Z" fill="#E0E0E0"/>
<path d="M127.202 41.1183C127.59 41.1183 127.903 40.8045 127.903 40.4175C127.903 40.0305 127.59 39.7168 127.202 39.7168C126.815 39.7168 126.501 40.0305 126.501 40.4175C126.501 40.8045 126.815 41.1183 127.202 41.1183Z" fill="#E0E0E0"/>
<path d="M127.903 45.9273C127.903 46.3143 127.589 46.628 127.202 46.628C126.815 46.628 126.501 46.3143 126.501 45.9273C126.501 45.5402 126.815 45.2266 127.202 45.2266C127.589 45.2266 127.903 45.5403 127.903 45.9273Z" fill="#E0E0E0"/>
<path d="M140.05 48.9961H111.448V50.6316H140.05V48.9961Z" fill="#E0E0E0"/>
<path d="M140.05 51.8325H111.448V53.4681H140.05V51.8325Z" fill="#E0E0E0"/>
<path d="M126.501 54.6687H111.448V56.3043H126.501V54.6687Z" fill="#E0E0E0"/>
<path d="M139.832 59.3876H111.666C111.546 59.3876 111.448 59.2902 111.448 59.17V58.6343C111.448 58.5142 111.546 58.4167 111.666 58.4167H139.832C139.952 58.4167 140.05 58.5142 140.05 58.6343V59.17C140.05 59.2902 139.953 59.3876 139.832 59.3876Z" fill="#E0E0E0"/>
<path d="M139.832 61.3754H111.666C111.546 61.3754 111.448 61.278 111.448 61.1578V60.6221C111.448 60.5019 111.546 60.4045 111.666 60.4045H139.832C139.952 60.4045 140.05 60.5019 140.05 60.6221V61.1578C140.05 61.278 139.953 61.3754 139.832 61.3754Z" fill="#E0E0E0"/>
<path d="M139.832 63.3632H111.666C111.546 63.3632 111.448 63.2658 111.448 63.1456V62.6099C111.448 62.4897 111.546 62.3923 111.666 62.3923H139.832C139.952 62.3923 140.05 62.4897 140.05 62.6099V63.1456C140.05 63.2658 139.953 63.3632 139.832 63.3632Z" fill="#E0E0E0"/>
<path d="M139.832 65.351H111.666C111.546 65.351 111.448 65.2535 111.448 65.1334V64.5977C111.448 64.4775 111.546 64.3801 111.666 64.3801H139.832C139.952 64.3801 140.05 64.4775 140.05 64.5977V65.1334C140.05 65.2535 139.953 65.351 139.832 65.351Z" fill="#E0E0E0"/>
<path d="M139.832 67.339H111.666C111.546 67.339 111.448 67.2416 111.448 67.1214V66.5857C111.448 66.4656 111.546 66.3682 111.666 66.3682H139.832C139.952 66.3682 140.05 66.4656 140.05 66.5857V67.1214C140.05 67.2416 139.953 67.339 139.832 67.339Z" fill="#E0E0E0"/>
<path d="M139.832 69.3268H111.666C111.546 69.3268 111.448 69.2294 111.448 69.1092V68.5735C111.448 68.4534 111.546 68.356 111.666 68.356H139.832C139.952 68.356 140.05 68.4534 140.05 68.5735V69.1092C140.05 69.2294 139.953 69.3268 139.832 69.3268Z" fill="#E0E0E0"/>
<path d="M125.765 71.3147H111.603C111.518 71.3147 111.448 71.2454 111.448 71.1599V70.4985C111.448 70.413 111.518 70.3438 111.603 70.3438H125.765C125.851 70.3438 125.92 70.413 125.92 70.4985V71.1599C125.92 71.2454 125.851 71.3147 125.765 71.3147Z" fill="#E0E0E0"/>
<path d="M119.133 83.1098H112.228C111.797 83.1098 111.448 82.7607 111.448 82.33V74.9814C111.448 74.5508 111.797 74.2017 112.228 74.2017H119.133C119.564 74.2017 119.913 74.5508 119.913 74.9814V82.33C119.913 82.7607 119.564 83.1098 119.133 83.1098Z" fill="#E0E0E0"/>
<path d="M129.202 83.0712H122.297C121.866 83.0712 121.517 82.7221 121.517 82.2913V74.9427C121.517 74.512 121.866 74.1628 122.297 74.1628H129.202C129.633 74.1628 129.982 74.5119 129.982 74.9427V82.2913C129.982 82.7221 129.633 83.0712 129.202 83.0712Z" fill="#E0E0E0"/>
<path d="M139.27 83.0327H132.365C131.934 83.0327 131.584 82.6836 131.584 82.2529V74.9043C131.584 74.4736 131.934 74.1245 132.365 74.1245H139.27C139.701 74.1245 140.05 74.4736 140.05 74.9043V82.2529C140.05 82.6836 139.701 83.0327 139.27 83.0327Z" fill="#E0E0E0"/>
<path d="M139.922 85.6483H111.577C111.506 85.6483 111.449 85.5909 111.449 85.5201V84.9334C111.449 84.8625 111.506 84.8052 111.577 84.8052H139.922C139.993 84.8052 140.05 84.8625 140.05 84.9334V85.5201C140.05 85.5909 139.993 85.6483 139.922 85.6483Z" fill="#E0E0E0"/>
<path d="M139.922 87.222H111.576C111.506 87.222 111.448 87.1647 111.448 87.0938V86.5071C111.448 86.4363 111.506 86.3789 111.576 86.3789H139.922C139.993 86.3789 140.05 86.4363 140.05 86.5071V87.0938C140.05 87.1647 139.992 87.222 139.922 87.222Z" fill="#E0E0E0"/>
<path d="M128.457 88.796H111.547C111.493 88.796 111.448 88.7516 111.448 88.6968V88.0521C111.448 87.9973 111.493 87.9529 111.547 87.9529H128.457C128.511 87.9529 128.556 87.9973 128.556 88.0521V88.6968C128.556 88.7516 128.511 88.796 128.457 88.796Z" fill="#E0E0E0"/>
<path d="M127.144 25.8645H104.866C104.247 25.8645 103.745 25.3628 103.745 24.7439V10.1504C103.745 9.53148 104.247 9.02979 104.866 9.02979H127.144C127.763 9.02979 128.265 9.53148 128.265 10.1504V24.7439C128.265 25.3628 127.763 25.8645 127.144 25.8645Z" fill="#F2935C"/>
<path d="M110.06 18.9198C110.06 19.5095 109.973 19.9676 109.798 20.294C109.474 20.8901 108.858 21.188 107.95 21.188C107.427 21.188 106.979 21.0461 106.608 20.7624C106.236 20.4787 106.05 19.9739 106.05 19.2478V18.7485H106.94V19.2478C106.94 19.6282 107.025 19.9144 107.195 20.1062C107.365 20.2981 107.63 20.3939 107.989 20.3939C108.494 20.3939 108.824 20.2211 108.98 19.8756C109.075 19.6633 109.123 19.2621 109.123 18.6725V14.0171H110.06V18.9198H110.06Z" fill="#102A54"/>
<path d="M117.252 15.0158C117.715 15.6339 117.947 16.4249 117.947 17.3887C117.947 18.4317 117.682 19.2987 117.152 19.9897C116.531 20.8013 115.644 21.207 114.493 21.207C113.418 21.207 112.573 20.852 111.958 20.1418C111.409 19.457 111.135 18.5916 111.135 17.5455C111.135 16.6008 111.37 15.7925 111.839 15.1204C112.442 14.2581 113.333 13.8269 114.512 13.8269C115.746 13.8269 116.659 14.2232 117.252 15.0158ZM116.417 19.4682C116.79 18.8702 116.976 18.1825 116.976 17.4052C116.976 16.5834 116.761 15.9219 116.332 15.4206C115.902 14.9193 115.315 14.6686 114.569 14.6686C113.846 14.6686 113.257 14.917 112.8 15.4135C112.343 15.91 112.115 16.6421 112.115 17.6097C112.115 18.384 112.311 19.0367 112.703 19.5681C113.094 20.0996 113.729 20.3653 114.608 20.3653C115.441 20.3654 116.045 20.0664 116.417 19.4682Z" fill="#102A54"/>
<path d="M119.05 14.0171H122.071C122.895 14.0171 123.48 14.2613 123.828 14.7494C124.033 15.0379 124.135 15.3708 124.135 15.748C124.135 16.1887 124.009 16.5501 123.759 16.8322C123.629 16.9812 123.442 17.1175 123.198 17.2411C123.556 17.3774 123.824 17.5311 124.002 17.7023C124.315 18.0066 124.472 18.4268 124.472 18.9624C124.472 19.4126 124.33 19.82 124.046 20.1845C123.622 20.7298 122.947 21.0024 122.022 21.0024H119.05V14.0171H119.05ZM121.718 16.9701C122.121 16.9701 122.435 16.9147 122.66 16.8037C123.012 16.6294 123.188 16.3156 123.188 15.8622C123.188 15.4057 123.001 15.0983 122.626 14.9397C122.415 14.851 122.1 14.8066 121.684 14.8066H119.978V16.9702H121.718V16.9701ZM122.037 20.1942C122.623 20.1942 123.041 20.0262 123.291 19.6901C123.447 19.4778 123.526 19.221 123.526 18.9198C123.526 18.4126 123.297 18.0671 122.839 17.8832C122.596 17.785 122.274 17.7358 121.874 17.7358H119.978V20.1943H122.037V20.1942Z" fill="#102A54"/>
<path d="M125.185 30.0256C125.045 30.0256 124.912 29.9615 124.822 29.8441L121.424 25.4094H104.217C103.518 25.4094 102.949 24.8405 102.949 24.1412V9.5477C102.949 8.84844 103.518 8.27954 104.217 8.27954H126.495C127.195 8.27954 127.764 8.84844 127.764 9.5477V24.1412C127.764 24.8405 127.195 25.4094 126.495 25.4094H125.649V29.5638C125.649 29.7646 125.526 29.936 125.336 30.0004C125.286 30.0173 125.235 30.0256 125.185 30.0256ZM104.217 8.57481C103.681 8.57481 103.244 9.01127 103.244 9.5478V24.1412C103.244 24.6778 103.681 25.1142 104.217 25.1142H121.57L125.056 29.6646C125.123 29.7523 125.215 29.7297 125.241 29.7209C125.268 29.7119 125.354 29.6741 125.354 29.5638V25.1142H126.495C127.032 25.1142 127.469 24.6778 127.469 24.1412V9.5477C127.469 9.01118 127.032 8.57471 126.495 8.57471L104.217 8.57481Z" fill="#102A54"/>
<path d="M175.395 35.1731H197.673C198.292 35.1731 198.794 34.6714 198.794 34.0525V19.459C198.794 18.8401 198.292 18.3384 197.673 18.3384H175.395C174.776 18.3384 174.274 18.8401 174.274 19.459V34.0525C174.274 34.6714 174.776 35.1731 175.395 35.1731Z" fill="#F2935C"/>
<path d="M182.077 28.2283C182.077 28.818 181.989 29.2761 181.815 29.6025C181.491 30.1986 180.875 30.4965 179.967 30.4965C179.443 30.4965 178.996 30.3546 178.624 30.0709C178.253 29.7872 178.067 29.2824 178.067 28.5563V28.057H178.956V28.5563C178.956 28.9367 179.041 29.2229 179.211 29.4147C179.381 29.6066 179.646 29.7024 180.005 29.7024C180.51 29.7024 180.841 29.5296 180.997 29.1841C181.092 28.9717 181.14 28.5707 181.14 27.9811V23.3257H182.077L182.077 28.2283Z" fill="#102A54"/>
<path d="M189.269 24.3244C189.732 24.9425 189.963 25.7335 189.963 26.6972C189.963 27.7403 189.698 28.6073 189.169 29.2983C188.547 30.1099 187.661 30.5156 186.51 30.5156C185.435 30.5156 184.59 30.1606 183.975 29.4504C183.426 28.7656 183.152 27.9002 183.152 26.8541C183.152 25.9094 183.386 25.1011 183.856 24.4289C184.458 23.5666 185.349 23.1355 186.529 23.1355C187.762 23.1355 188.676 23.5318 189.269 24.3244ZM188.434 28.7768C188.807 28.1788 188.993 27.4911 188.993 26.7138C188.993 25.892 188.778 25.2305 188.348 24.7292C187.919 24.2279 187.331 23.9772 186.586 23.9772C185.863 23.9772 185.273 24.2256 184.817 24.7221C184.36 25.2186 184.132 25.9507 184.132 26.9183C184.132 27.6926 184.327 28.3454 184.719 28.8767C185.111 29.4082 185.746 29.6739 186.624 29.6739C187.458 29.674 188.061 29.375 188.434 28.7768Z" fill="#102A54"/>
<path d="M191.067 23.3257H194.088C194.911 23.3257 195.497 23.5698 195.845 24.058C196.049 24.3465 196.151 24.6793 196.151 25.0566C196.151 25.4973 196.026 25.8587 195.775 26.1407C195.645 26.2898 195.458 26.4261 195.214 26.5497C195.573 26.686 195.84 26.8397 196.018 27.0109C196.332 27.3152 196.489 27.7354 196.489 28.271C196.489 28.7212 196.347 29.1286 196.063 29.4931C195.639 30.0384 194.964 30.311 194.039 30.311H191.066L191.067 23.3257ZM193.734 26.2787C194.138 26.2787 194.452 26.2233 194.676 26.1122C195.029 25.9379 195.205 25.6241 195.205 25.1707C195.205 24.7142 195.017 24.4068 194.643 24.2482C194.431 24.1594 194.117 24.1151 193.7 24.1151H191.994V26.2787H193.734ZM194.054 29.5028C194.64 29.5028 195.058 29.3348 195.307 28.9987C195.464 28.7864 195.542 28.5296 195.542 28.2284C195.542 27.7212 195.314 27.3756 194.856 27.1918C194.613 27.0936 194.291 27.0444 193.891 27.0444H191.994V29.5029H194.054V29.5028Z" fill="#102A54"/>
<path d="M177.355 39.3342C177.305 39.3342 177.254 39.3259 177.203 39.3089C177.013 39.2445 176.89 39.0731 176.89 38.8723V34.7179H176.044C175.345 34.7179 174.775 34.149 174.775 33.4497V18.8563C174.775 18.157 175.344 17.5881 176.044 17.5881H198.322C199.022 17.5881 199.591 18.157 199.591 18.8563V33.4498C199.591 34.1491 199.022 34.718 198.322 34.718H181.115L177.718 39.1528C177.628 39.2701 177.495 39.3342 177.355 39.3342ZM176.044 17.8833C175.507 17.8833 175.071 18.3198 175.071 18.8563V33.4498C175.071 33.9864 175.507 34.4228 176.044 34.4228H177.186V38.8724C177.186 38.9827 177.272 39.0205 177.298 39.0295C177.325 39.0385 177.416 39.061 177.483 38.9733L180.97 34.4229H198.322C198.859 34.4229 199.296 33.9865 199.296 33.4499V18.8563C199.296 18.3198 198.859 17.8833 198.322 17.8833H176.044Z" fill="#102A54"/>
<path d="M136.22 105.157C139.82 98.9379 140.781 91.6894 138.928 84.7472C137.074 77.8048 132.627 71.9997 126.406 68.4012C120.185 64.8026 112.934 63.8414 105.99 65.6946C99.0455 67.5477 93.2387 71.9935 89.6392 78.2129C86.0396 84.4323 85.0781 91.6808 86.9318 98.6231C88.4522 104.317 91.7184 109.245 96.2759 112.819C95.8208 112.845 95.3871 113.091 95.1418 113.515L75.7349 147.047C75.3476 147.716 75.5762 148.572 76.2455 148.959L81.5433 152.024C82.2126 152.411 83.0691 152.182 83.4563 151.513L102.863 117.982C103.109 117.558 103.106 117.059 102.901 116.652C108.272 118.821 114.174 119.196 119.869 117.676C126.814 115.822 132.621 111.377 136.22 105.157ZM101.277 111.818C95.8981 108.706 92.053 103.687 90.4501 97.6841C88.8473 91.6814 89.6786 85.4138 92.7911 80.036C95.9035 74.6584 100.925 70.8142 106.929 69.2118C112.933 67.6094 119.203 68.4405 124.582 71.5522C129.961 74.6638 133.806 79.6832 135.409 85.6861C137.012 91.6888 136.181 97.9564 133.068 103.334C129.956 108.712 124.935 112.556 118.931 114.158C112.926 115.761 106.657 114.93 101.277 111.818Z" fill="#FD823A"/>
<path d="M128.653 108.55C137.569 99.6362 137.569 85.1841 128.653 76.2702C119.737 67.3564 105.281 67.3564 96.3642 76.2702C87.4479 85.1841 87.4479 99.6362 96.3642 108.55C105.281 117.464 119.737 117.464 128.653 108.55Z" fill="white"/>
<path opacity="0.61" d="M128.667 108.545C137.586 99.6341 137.586 85.1862 128.667 76.275C119.749 67.3638 105.288 67.3638 96.369 76.275C87.45 85.1862 87.45 99.6341 96.369 108.545C105.288 117.456 119.748 117.456 128.667 108.545Z" fill="#E4B295"/>
<mask id="mask1_21121_54219" style="mask-type:luminance" maskUnits="userSpaceOnUse" x="89" y="69" width="47" height="47">
<path d="M128.667 108.545C137.586 99.6341 137.586 85.1862 128.667 76.275C119.749 67.3638 105.288 67.3638 96.369 76.275C87.45 85.1862 87.45 99.6341 96.369 108.545C105.288 117.456 119.748 117.456 128.667 108.545Z" fill="white"/>
</mask>
<g mask="url(#mask1_21121_54219)">
<path opacity="0.26" d="M123.508 69.7744L85.248 85.8004L85.8575 96.8453L133.309 78.2473L123.508 69.7744Z" fill="#F2935C"/>
</g>
<mask id="mask2_21121_54219" style="mask-type:luminance" maskUnits="userSpaceOnUse" x="89" y="69" width="47" height="47">
<path d="M128.667 108.545C137.586 99.6341 137.586 85.1862 128.667 76.275C119.749 67.3638 105.288 67.3638 96.369 76.275C87.45 85.1862 87.45 99.6341 96.369 108.545C105.288 117.456 119.748 117.456 128.667 108.545Z" fill="white"/>
</mask>
<g mask="url(#mask2_21121_54219)">
<path opacity="0.18" d="M139.702 79.7195L88.4004 100.256L93.0104 109.549L143.259 89.8552L139.702 79.7195Z" fill="#F2935C"/>
</g>
<mask id="mask3_21121_54219" style="mask-type:luminance" maskUnits="userSpaceOnUse" x="89" y="69" width="47" height="47">
<path d="M128.667 108.545C137.586 99.6341 137.586 85.1862 128.667 76.275C119.749 67.3638 105.288 67.3638 96.369 76.275C87.45 85.1862 87.45 99.6341 96.369 108.545C105.288 117.456 119.748 117.456 128.667 108.545Z" fill="white"/>
</mask>
<g mask="url(#mask3_21121_54219)">
<path opacity="0.1" d="M143.812 92.8611L92.5107 113.397L96.7523 118.275L145.964 98.9922L143.812 92.8611Z" fill="#F2935C"/>
</g>
<path opacity="0.14" d="M138.399 107.518C141.999 101.299 142.96 94.0502 141.107 87.108C139.253 80.1656 134.806 74.3605 128.585 70.762C122.364 67.1634 115.113 66.2022 108.169 68.0555C101.225 69.9087 95.4179 74.3544 91.8184 80.5738C88.2188 86.7932 87.2573 94.0417 89.111 100.984C90.6314 106.678 93.8976 111.606 98.4551 115.18C98 115.206 97.5663 115.452 97.321 115.876L77.9141 149.408C77.5268 150.077 77.7554 150.933 78.4247 151.32L83.7225 154.385C84.3918 154.772 85.2483 154.543 85.6355 153.874L105.042 120.343C105.288 119.919 105.285 119.42 105.081 119.013C110.451 121.182 116.353 121.557 122.049 120.037C128.993 118.183 134.8 113.737 138.399 107.518ZM103.457 114.179C98.0773 111.067 94.2322 106.048 92.6293 100.045C91.0265 94.0422 91.8578 87.7746 94.9703 82.3968C98.0828 77.0192 103.104 73.175 109.108 71.5726C115.113 69.9702 121.382 70.8014 126.761 73.913C132.14 77.0246 135.986 82.044 137.588 88.0469C139.191 94.0496 138.36 100.317 135.247 105.695C132.135 111.073 127.114 114.917 121.11 116.519C115.105 118.122 108.836 117.29 103.457 114.179Z" fill="#F2935C"/>
<path d="M228.745 71.8072H152.527C147.202 71.8072 142.885 67.4912 142.885 62.1673C142.885 56.8433 147.202 52.5273 152.527 52.5273H228.745C234.071 52.5273 238.388 56.8433 238.388 62.1673C238.388 67.4912 234.071 71.8072 228.745 71.8072Z" fill="#FFF4EE"/>
<path d="M227.399 71.6612H151.182C145.702 71.6612 141.244 67.2043 141.244 61.726C141.244 56.2477 145.702 51.7908 151.182 51.7908H227.399C232.879 51.7908 237.337 56.2477 237.337 61.726C237.337 67.2043 232.879 71.6612 227.399 71.6612ZM151.182 52.3812C146.027 52.3812 141.834 56.5733 141.834 61.7261C141.834 66.8788 146.027 71.071 151.182 71.071H227.399C232.554 71.071 236.747 66.8788 236.747 61.7261C236.747 56.5734 232.554 52.3812 227.399 52.3812H151.182Z" fill="#F2935C"/>
<path d="M152.787 62.3108H151.866C151.575 62.3108 151.34 62.0757 151.34 61.7858V60.8641C151.34 60.5742 151.575 60.3391 151.866 60.3391H152.787C153.077 60.3391 153.313 60.5742 153.313 60.8641V61.7858C153.313 62.0757 153.077 62.3108 152.787 62.3108Z" fill="#F2935C"/>
<path d="M156.245 62.3108H155.323C155.033 62.3108 154.798 62.0757 154.798 61.7858V60.8641C154.798 60.5742 155.033 60.3391 155.323 60.3391H156.245C156.535 60.3391 156.771 60.5742 156.771 60.8641V61.7858C156.771 62.0757 156.535 62.3108 156.245 62.3108Z" fill="#F2935C"/>
<path d="M159.703 62.3108H158.782C158.491 62.3108 158.256 62.0757 158.256 61.7858V60.8641C158.256 60.5742 158.491 60.3391 158.782 60.3391H159.703C159.993 60.3391 160.229 60.5742 160.229 60.8641V61.7858C160.229 62.0757 159.993 62.3108 159.703 62.3108Z" fill="#F2935C"/>
<path d="M163.161 62.3108H162.24C161.949 62.3108 161.714 62.0757 161.714 61.7858V60.8641C161.714 60.5742 161.949 60.3391 162.24 60.3391H163.161C163.451 60.3391 163.687 60.5742 163.687 60.8641V61.7858C163.687 62.0757 163.451 62.3108 163.161 62.3108Z" fill="#F2935C"/>
<path d="M166.619 62.3108H165.697C165.407 62.3108 165.172 62.0757 165.172 61.7858V60.8641C165.172 60.5742 165.407 60.3391 165.697 60.3391H166.619C166.909 60.3391 167.144 60.5742 167.144 60.8641V61.7858C167.144 62.0757 166.909 62.3108 166.619 62.3108Z" fill="#F2935C"/>
<path d="M170.077 62.3108H169.155C168.865 62.3108 168.63 62.0757 168.63 61.7858V60.8641C168.63 60.5742 168.865 60.3391 169.155 60.3391H170.077C170.367 60.3391 170.602 60.5742 170.602 60.8641V61.7858C170.602 62.0757 170.367 62.3108 170.077 62.3108Z" fill="#F2935C"/>
<path d="M173.535 62.3108H172.613C172.323 62.3108 172.088 62.0757 172.088 61.7858V60.8641C172.088 60.5742 172.323 60.3391 172.613 60.3391H173.535C173.825 60.3391 174.06 60.5742 174.06 60.8641V61.7858C174.06 62.0757 173.825 62.3108 173.535 62.3108Z" fill="#F2935C"/>
<path d="M176.993 62.3108H176.071C175.781 62.3108 175.546 62.0757 175.546 61.7858V60.8641C175.546 60.5742 175.781 60.3391 176.071 60.3391H176.993C177.283 60.3391 177.518 60.5742 177.518 60.8641V61.7858C177.518 62.0757 177.283 62.3108 176.993 62.3108Z" fill="#F2935C"/>
<path d="M180.451 62.3108H179.529C179.239 62.3108 179.004 62.0757 179.004 61.7858V60.8641C179.004 60.5742 179.239 60.3391 179.529 60.3391H180.451C180.741 60.3391 180.976 60.5742 180.976 60.8641V61.7858C180.976 62.0757 180.741 62.3108 180.451 62.3108Z" fill="#F2935C"/>
<path d="M183.909 62.3108H182.987C182.697 62.3108 182.462 62.0757 182.462 61.7858V60.8641C182.462 60.5742 182.697 60.3391 182.987 60.3391H183.909C184.199 60.3391 184.434 60.5742 184.434 60.8641V61.7858C184.434 62.0757 184.199 62.3108 183.909 62.3108Z" fill="#F2935C"/>
<path d="M187.366 62.3108H186.445C186.155 62.3108 185.919 62.0757 185.919 61.7858V60.8641C185.919 60.5742 186.155 60.3391 186.445 60.3391H187.366C187.657 60.3391 187.892 60.5742 187.892 60.8641V61.7858C187.892 62.0757 187.657 62.3108 187.366 62.3108Z" fill="#F2935C"/>
<path d="M190.825 62.3108H189.903C189.613 62.3108 189.377 62.0757 189.377 61.7858V60.8641C189.377 60.5742 189.613 60.3391 189.903 60.3391H190.825C191.115 60.3391 191.35 60.5742 191.35 60.8641V61.7858C191.35 62.0757 191.114 62.3108 190.825 62.3108Z" fill="#F2935C"/>
<path d="M194.283 62.3108H193.361C193.071 62.3108 192.835 62.0757 192.835 61.7858V60.8641C192.835 60.5742 193.071 60.3391 193.361 60.3391H194.283C194.573 60.3391 194.808 60.5742 194.808 60.8641V61.7858C194.808 62.0757 194.573 62.3108 194.283 62.3108Z" fill="#F2935C"/>
<path d="M197.741 62.3108H196.819C196.529 62.3108 196.293 62.0757 196.293 61.7858V60.8641C196.293 60.5742 196.529 60.3391 196.819 60.3391H197.741C198.031 60.3391 198.266 60.5742 198.266 60.8641V61.7858C198.266 62.0757 198.031 62.3108 197.741 62.3108Z" fill="#F2935C"/>
<path d="M201.199 62.3108H200.277C199.987 62.3108 199.751 62.0757 199.751 61.7858V60.8641C199.751 60.5742 199.987 60.3391 200.277 60.3391H201.199C201.489 60.3391 201.724 60.5742 201.724 60.8641V61.7858C201.724 62.0757 201.489 62.3108 201.199 62.3108Z" fill="#F2935C"/>
<path d="M204.656 62.3108H203.734C203.444 62.3108 203.209 62.0757 203.209 61.7858V60.8641C203.209 60.5742 203.444 60.3391 203.734 60.3391H204.656C204.946 60.3391 205.181 60.5742 205.181 60.8641V61.7858C205.181 62.0757 204.946 62.3108 204.656 62.3108Z" fill="#F2935C"/>
<path d="M208.114 62.3108H207.192C206.902 62.3108 206.667 62.0757 206.667 61.7858V60.8641C206.667 60.5742 206.902 60.3391 207.192 60.3391H208.114C208.404 60.3391 208.639 60.5742 208.639 60.8641V61.7858C208.639 62.0757 208.404 62.3108 208.114 62.3108Z" fill="#F2935C"/>
<path d="M211.572 62.3108H210.65C210.36 62.3108 210.125 62.0757 210.125 61.7858V60.8641C210.125 60.5742 210.36 60.3391 210.65 60.3391H211.572C211.862 60.3391 212.097 60.5742 212.097 60.8641V61.7858C212.097 62.0757 211.862 62.3108 211.572 62.3108Z" fill="#F2935C"/>
<path d="M215.03 62.3108H214.108C213.818 62.3108 213.583 62.0757 213.583 61.7858V60.8641C213.583 60.5742 213.818 60.3391 214.108 60.3391H215.03C215.32 60.3391 215.555 60.5742 215.555 60.8641V61.7858C215.555 62.0757 215.32 62.3108 215.03 62.3108Z" fill="#F2935C"/>
<path d="M218.488 62.3108H217.566C217.276 62.3108 217.041 62.0757 217.041 61.7858V60.8641C217.041 60.5742 217.276 60.3391 217.566 60.3391H218.488C218.778 60.3391 219.013 60.5742 219.013 60.8641V61.7858C219.013 62.0757 218.778 62.3108 218.488 62.3108Z" fill="#F2935C"/>
<path d="M221.946 62.3108H221.024C220.734 62.3108 220.499 62.0757 220.499 61.7858V60.8641C220.499 60.5742 220.734 60.3391 221.024 60.3391H221.946C222.236 60.3391 222.471 60.5742 222.471 60.8641V61.7858C222.471 62.0757 222.236 62.3108 221.946 62.3108Z" fill="#F2935C"/>
<path d="M225.404 62.3108H224.482C224.192 62.3108 223.957 62.0757 223.957 61.7858V60.8641C223.957 60.5742 224.192 60.3391 224.482 60.3391H225.404C225.694 60.3391 225.929 60.5742 225.929 60.8641V61.7858C225.929 62.0757 225.694 62.3108 225.404 62.3108Z" fill="#F2935C"/>
<path d="M228.862 62.3108H227.94C227.65 62.3108 227.415 62.0757 227.415 61.7858V60.8641C227.415 60.5742 227.65 60.3391 227.94 60.3391H228.862C229.152 60.3391 229.387 60.5742 229.387 60.8641V61.7858C229.387 62.0757 229.152 62.3108 228.862 62.3108Z" fill="#F2935C"/>
<path d="M49.4824 155.052H47.3537H41.8527C41.5117 155.052 41.2672 155.381 41.365 155.707L44.7028 166.851C44.7673 167.067 44.9655 167.214 45.1904 167.214H47.3537H49.4824H51.6456C51.8705 167.214 52.0688 167.067 52.1333 166.851L55.4711 155.707C55.5689 155.381 55.3242 155.052 54.9834 155.052H49.4824Z" fill="#5B321A"/>
<path d="M53.7949 149.621C54.005 149.067 54.2766 148.514 54.7306 148.132C55.1846 147.751 55.8596 147.582 56.3842 147.858C56.7697 148.062 57.1692 148.491 57.5498 148.279C57.7866 148.147 57.839 147.834 57.8552 147.564C57.9079 146.681 57.8968 145.687 58.5259 145.066C59.1455 144.454 60.1484 144.466 60.9924 144.682C61.3905 144.783 61.831 144.916 62.1936 144.723C62.3876 144.62 62.5257 144.437 62.6404 144.25C63.0447 143.589 63.3015 142.743 64.009 142.427C65.1473 141.92 66.4749 143.204 67.6456 142.776C68.1037 142.609 68.4955 142.187 68.981 142.233C69.2209 142.256 69.4367 142.396 69.603 142.571C70.1678 143.162 70.1735 144.2 69.6114 144.794C68.8642 145.583 67.493 145.473 66.7373 146.254C66.0114 147.004 66.0712 148.366 65.1855 148.918C64.4392 149.384 63.4323 149.002 62.6032 149.296C61.938 149.531 61.5036 150.153 61.0729 150.712C60.6421 151.271 60.0944 151.84 59.39 151.884C59.0201 151.907 58.6521 151.778 58.2831 151.811C57.2214 151.908 56.6298 153.25 55.5758 153.409C54.8683 153.515 54.2626 153.044 53.7729 152.595C53.5785 152.417 53.3968 152.215 53.3266 151.955C53.2424 151.642 53.3125 151.302 53.382 150.994C53.4869 150.527 53.6255 150.068 53.7949 149.621Z" fill="#F2935C"/>
<path d="M46.1812 147.422C45.603 146.992 45.2524 146.164 45.5943 145.53C45.7609 145.221 46.0579 145.008 46.2924 144.747C46.5271 144.486 46.7064 144.112 46.5675 143.79C46.4987 143.63 46.3628 143.511 46.2314 143.397C45.7575 142.987 45.2772 142.561 44.9789 142.009C44.6807 141.458 44.5965 140.749 44.9264 140.216C45.1754 139.814 45.6108 139.574 45.9887 139.29C46.3666 139.005 46.7253 138.599 46.6938 138.127C46.6546 137.539 46.0199 137.003 46.2557 136.463C46.5001 135.903 47.476 135.934 47.6357 135.344C47.715 135.051 47.5382 134.758 47.4654 134.463C47.3033 133.806 47.7479 133.061 48.403 132.891C49.0581 132.722 49.8086 133.158 49.9856 133.811C50.1081 134.263 49.9838 134.765 50.1628 135.198C50.3951 135.759 51.0603 136.028 51.3518 136.561C51.888 137.542 50.9139 138.704 50.9957 139.819C51.0821 140.998 52.3419 142.001 52.0172 143.138C51.8901 143.583 51.5323 143.935 51.4084 144.381C51.2607 144.913 51.4682 145.47 51.6167 146.001C51.7652 146.533 51.8361 147.163 51.4793 147.585C51.2152 147.897 50.7859 148.006 50.3819 148.069C49.2621 148.244 48.1493 148.193 47.0659 147.854C46.7514 147.755 46.4467 147.619 46.1812 147.422Z" fill="#F2935C"/>
<path d="M48.3926 157.855C48.3668 157.855 48.3408 157.848 48.3173 157.833C48.2504 157.792 48.2299 157.704 48.2716 157.637C49.2999 155.986 50.576 154.513 52.0644 153.259C53.7043 151.879 55.5799 150.788 57.3939 149.734L69.7131 142.573C69.7812 142.533 69.8686 142.556 69.9083 142.624C69.948 142.692 69.9247 142.78 69.8566 142.819L57.5374 149.981C55.734 151.029 53.8692 152.113 52.2484 153.478C50.7829 154.712 49.5264 156.162 48.514 157.788C48.487 157.831 48.4403 157.855 48.3926 157.855Z" fill="#102A54"/>
<path d="M48.788 157.247C48.7111 157.247 48.6476 157.186 48.6453 157.109C48.4344 149.947 48.5919 140.115 48.7611 133.128C48.7631 133.049 48.827 132.987 48.9072 132.989C48.9861 132.991 49.0484 133.056 49.0465 133.135C48.8773 140.118 48.7199 149.944 48.9307 157.1C48.933 157.179 48.871 157.245 48.7922 157.247C48.7909 157.247 48.7894 157.247 48.788 157.247Z" fill="#102A54"/>
<path d="M41.6845 153.385C40.8526 153.295 40.0086 152.744 39.8591 151.921C39.7398 151.264 40.0087 150.419 39.4635 150.034C39.2722 149.899 39.027 149.87 38.7929 149.859C37.9468 149.819 37.0191 149.929 36.3279 149.44C35.3221 148.728 35.4227 147.251 35.3408 146.022C35.3198 145.706 35.267 145.365 35.0386 145.146C34.7949 144.912 34.4269 144.887 34.0974 144.812C32.8966 144.541 31.9587 143.38 31.9459 142.149C31.942 141.773 32.0252 141.378 32.2756 141.097C32.446 140.906 32.6814 140.783 32.9261 140.708C33.7062 140.468 34.6164 140.729 35.1515 141.345C35.4858 141.729 35.6782 142.23 36.0549 142.574C37.1196 143.544 38.8691 142.747 40.2385 143.195C41.0045 143.445 41.6167 144.119 41.7932 144.905C41.9464 145.587 41.7979 146.345 42.1316 146.96C42.7048 148.015 44.2079 147.955 45.3155 148.419C45.5819 148.531 45.843 148.689 45.9939 148.935C46.1106 149.125 46.1514 149.352 46.1698 149.575C46.2443 150.475 45.9595 151.389 45.426 152.113C45.187 152.438 44.8677 152.814 44.4898 152.979C44.2029 153.104 43.8654 153.059 43.5635 153.132C42.9375 153.283 42.337 153.455 41.6845 153.385Z" fill="#F2935C"/>
<path d="M48.0345 158.06C47.9835 158.06 47.9342 158.033 47.9084 157.984C45.9377 154.299 41.6715 149.433 39.6213 147.094C39.0068 146.393 38.3713 145.668 37.6311 145.083C37.0225 144.602 36.3209 144.198 35.6423 143.806C34.3973 143.088 33.1098 142.346 32.3445 141.103C32.3031 141.036 32.324 140.948 32.3912 140.907C32.4583 140.866 32.5462 140.887 32.5876 140.954C33.3151 142.135 34.5148 142.827 35.7849 143.559C36.4723 143.956 37.1832 144.365 37.8082 144.859C38.5689 145.46 39.2131 146.195 39.8361 146.906C41.8932 149.253 46.174 154.136 48.1603 157.85C48.1974 157.919 48.1712 158.006 48.1017 158.043C48.0802 158.054 48.0571 158.06 48.0345 158.06Z" fill="#102A54"/>
<path d="M221.534 87.8835C221.534 87.8835 215.05 100.035 214.01 101.015C212.969 101.995 198.276 106.038 198.276 106.038L198.856 108.166C198.856 108.166 217.056 108.588 217.983 108.166C218.91 107.744 224.253 103.003 224.253 103.003L221.534 87.8835Z" fill="#F2935C"/>
<path d="M212.58 160.774L213.024 163.444H216.403L216.209 160.386L212.58 160.774Z" fill="#FFC0B1"/>
<path d="M200.428 160.236L200.613 163.871L203.629 163.638L204.077 160.263L200.428 160.236Z" fill="#FFC0B1"/>
<path d="M226.555 116.288C226.555 116.288 205.096 123.469 201.897 126.667C198.698 129.865 199.969 160.362 199.969 160.362H204.559L211.021 135.267C211.021 135.267 237.031 134.689 239.842 129.752C243.551 123.238 240.719 114.758 240.719 114.758L226.555 116.288Z" fill="#5B321A"/>
<path d="M227.872 117.978C227.872 117.978 210.026 128.369 207.76 131.819C205.494 135.269 212.252 160.809 212.252 160.809L216.432 160.362L217.506 137.814C217.506 137.814 240.642 132.482 242.239 127.55C244.346 121.042 240.245 113.989 240.245 113.989L227.872 117.978Z" fill="#5B321A"/>
<path d="M204.133 162.932C204.133 162.932 201.401 163.691 200.136 162.932L194.664 165.79C193.923 166.177 193.458 166.944 193.458 167.78V167.839H204.226C204.551 167.839 204.8 167.551 204.754 167.23L204.133 162.932Z" fill="#5B321A"/>
<path d="M216.553 162.932C216.553 162.932 213.821 163.691 212.556 162.932L207.083 165.79C206.342 166.177 205.877 166.944 205.877 167.78V167.839H216.646C216.97 167.839 217.22 167.551 217.173 167.23L216.553 162.932Z" fill="#5B321A"/>
<path d="M226.795 84.6349L224.735 76.2424L224.735 76.2429C224.732 74.6605 224.422 72.7693 223.635 70.5519C223.113 69.0829 221.437 68.3824 220.019 69.0315L216.025 70.8606C214.937 71.3586 214.354 72.5581 214.638 73.7199C214.975 75.0969 215.376 76.8905 215.505 78.0903C215.617 79.1386 215.907 80.3601 216.598 81.2681C217.808 82.8567 219.94 83.3965 221.694 82.5924L222.192 88.0382L226.795 84.6349Z" fill="#FFC0B1"/>
<path d="M216.921 77.5643C216.795 77.5643 216.673 77.5172 216.579 77.4291C216.462 77.3207 216.403 77.1675 216.419 77.0088L216.737 73.7488C216.743 73.6857 216.8 73.6394 216.863 73.6456C216.926 73.6518 216.972 73.708 216.966 73.771L216.648 77.031C216.639 77.1177 216.671 77.2013 216.735 77.2606C216.799 77.3198 216.885 77.3451 216.971 77.3301L217.964 77.1567C218.027 77.146 218.086 77.1877 218.097 77.25C218.108 77.3126 218.066 77.3721 218.003 77.3831L217.01 77.5565C216.98 77.5617 216.951 77.5643 216.921 77.5643Z" fill="#102A54"/>
<path d="M219.346 77.5571C219.346 77.5571 218.133 78.6619 216.581 79.054C216.581 79.054 218.835 80.4299 219.346 77.5571Z" fill="white"/>
<path d="M217.445 78.871C217.4 78.871 217.357 78.8443 217.339 78.7999C217.315 78.7412 217.343 78.6741 217.401 78.6499C218.612 78.1509 219.343 77.3258 219.35 77.3176C219.392 77.2699 219.464 77.2649 219.512 77.3066C219.56 77.3483 219.565 77.4209 219.523 77.4687C219.492 77.5041 218.752 78.3418 217.489 78.8623C217.475 78.8682 217.46 78.871 217.445 78.871Z" fill="#102A54"/>
<path d="M216.09 74.3741C216.09 74.6474 215.911 74.869 215.691 74.869C215.471 74.869 215.292 74.6474 215.292 74.3741C215.292 74.1007 215.471 73.8792 215.691 73.8792C215.911 73.8792 216.09 74.1007 216.09 74.3741Z" fill="#102A54"/>
<path d="M218.362 74.0572C218.582 74.0572 218.761 73.8356 218.761 73.5623C218.761 73.289 218.582 73.0674 218.362 73.0674C218.142 73.0674 217.963 73.289 217.963 73.5623C217.963 73.8356 218.142 74.0572 218.362 74.0572Z" fill="#102A54"/>
<path d="M214.567 72.5798C214.567 72.5798 218.982 72.9497 220.914 71.4703C220.914 71.4703 220.955 74.4051 221.654 74.8691C222.352 75.3329 224.495 74.8612 225.163 77.8266C225.163 77.8266 226.339 74.5933 225.805 70.8129C225.271 67.0325 222.887 65.2246 220.585 65.43C218.283 65.6355 209.794 68.7885 214.567 72.5798Z" fill="#102A54"/>
<path d="M224.103 74.1498C224.367 73.0479 224.057 72.0293 223.41 71.8747C222.764 71.7202 222.026 72.4882 221.762 73.5902C221.498 74.6921 221.808 75.7107 222.455 75.8653C223.101 76.0198 223.839 75.2518 224.103 74.1498Z" fill="#FFC0B1"/>
<path d="M222.384 74.725C222.323 74.725 222.272 74.6771 222.269 74.6156C222.207 73.3155 223.247 72.2517 223.291 72.2071C223.336 72.1621 223.409 72.1617 223.454 72.2064C223.499 72.251 223.499 72.3237 223.455 72.3688C223.444 72.379 222.441 73.4069 222.499 74.6045C222.502 74.668 222.453 74.7218 222.39 74.7249C222.388 74.725 222.386 74.725 222.384 74.725Z" fill="#102A54"/>
<path d="M226.799 83.3896C226.799 83.3896 239.586 88.783 241.922 116.633C241.922 116.633 236.41 119.975 222.922 118.035C222.922 118.035 223.284 115.026 223.157 113.79C223.031 112.554 219.023 93.669 221.534 87.8837L226.799 83.3896Z" fill="#F2935C"/>
<path d="M221.694 82.7072C221.649 82.7072 221.607 82.6808 221.588 82.637C221.564 82.5785 221.591 82.5112 221.649 82.4865C221.667 82.4786 222.94 81.913 223.671 79.9244C223.693 79.8649 223.759 79.8343 223.819 79.8562C223.878 79.8781 223.909 79.9442 223.887 80.0037C223.118 82.0968 221.795 82.6746 221.739 82.6982C221.724 82.7043 221.709 82.7072 221.694 82.7072Z" fill="#102A54"/>
<path d="M226.47 89.8835C226.47 89.8835 222.452 100.161 221.262 101.728C220.071 103.295 201.917 106.245 201.917 106.245L202.99 109.196C202.99 109.196 221.61 110.268 223.881 109.196C226.153 108.123 231.251 104.457 232.682 99.2713C234.112 94.0856 230.99 87.5589 226.47 89.8835Z" fill="#F2935C"/>
<path d="M217.408 109.789C211.398 109.789 203.483 109.339 202.983 109.31C202.919 109.307 202.871 109.252 202.875 109.189C202.878 109.126 202.93 109.078 202.996 109.081C203.182 109.092 221.612 110.14 223.832 109.092C225.757 108.182 231.081 104.64 232.571 99.2408C232.587 99.1796 232.651 99.1439 232.712 99.1606C232.773 99.1775 232.809 99.2407 232.792 99.302C231.279 104.785 225.882 108.378 223.93 109.3C223.152 109.667 220.538 109.789 217.408 109.789Z" fill="#102A54"/>
<path d="M201.916 106.36C201.861 106.36 201.812 106.32 201.803 106.264C201.793 106.201 201.835 106.142 201.898 106.132C208.162 105.114 220.25 102.869 221.17 101.658C222.337 100.122 226.323 89.9443 226.363 89.8417C226.386 89.7826 226.453 89.7534 226.512 89.7765C226.571 89.7996 226.6 89.8662 226.577 89.9253C226.413 90.3456 222.54 100.235 221.353 101.797C220.149 103.383 202.678 106.238 201.935 106.359C201.928 106.36 201.922 106.36 201.916 106.36Z" fill="#102A54"/>
<path d="M221.694 101.135C221.633 101.135 221.582 101.088 221.579 101.026C221.575 100.946 221.199 92.9403 221.58 89.8695C221.588 89.8066 221.645 89.7624 221.708 89.7696C221.771 89.7773 221.816 89.8347 221.808 89.8978C221.43 92.9492 221.805 100.935 221.809 101.015C221.812 101.079 221.763 101.132 221.699 101.135C221.697 101.135 221.695 101.135 221.694 101.135Z" fill="#102A54"/>
<path d="M202.252 106.74C202.252 106.74 200.06 106.232 199.106 106.607C198.761 106.742 194.894 109.863 194.894 109.863H195.786H200.608L202.818 108.725L202.252 106.74Z" fill="#FFC0B1"/>
<path d="M198.394 106.469C198.394 106.469 196.568 106.332 195.975 106.469C195.382 106.607 192.346 107.994 192.346 108.166C192.346 108.338 192.654 108.575 193.057 108.48C193.46 108.385 196.876 107.455 196.876 107.455C196.876 107.455 194.931 108.409 194.647 108.812C194.362 109.215 194.101 109.863 194.101 109.863H197.683L198.856 108.166L198.394 106.469Z" fill="#FFC0B1"/>
<path d="M195.044 109.961C195.034 109.961 195.025 109.96 195.015 109.957C194.963 109.94 194.934 109.885 194.95 109.833C194.955 109.819 195.066 109.472 195.411 109.127C195.745 108.793 198.37 106.992 198.482 106.915C198.526 106.884 198.588 106.896 198.618 106.941C198.649 106.986 198.638 107.047 198.593 107.078C198.566 107.096 195.872 108.945 195.55 109.266C195.239 109.577 195.139 109.889 195.138 109.892C195.125 109.934 195.086 109.961 195.044 109.961Z" fill="#102A54"/>
<path d="M231.394 136.648L223.881 167.839H224.505L234.075 136.48L231.394 136.648Z" fill="#102A54"/>
<path d="M241.947 136.648L249.46 167.839H248.836L239.266 136.48L241.947 136.648Z" fill="#102A54"/>
<path d="M224.825 135.382C224.825 135.382 235.856 129.831 241.111 121.527C243.868 117.171 244.19 105.78 246.465 105.605C248.74 105.43 250.84 109.104 251.541 113.128C252.241 117.153 252.241 132.616 247.165 135.382C242.09 138.149 224.539 139.373 223.338 138.849C222.138 138.324 221.738 137.165 224.825 135.382Z" fill="#BD6736"/>
<path d="M229.661 112.977H151.617C151.125 112.977 150.727 112.579 150.727 112.087C150.727 111.595 151.125 111.197 151.617 111.197H229.661C230.153 111.197 230.552 111.595 230.552 112.087C230.552 112.579 230.153 112.977 229.661 112.977Z" fill="#BD6736"/>
<path d="M156.187 167.839H154.809L165.421 112.978H166.8L156.187 167.839Z" fill="#BD6736"/>
<path d="M225.091 167.839H226.47L215.857 112.978H214.479L225.091 167.839Z" fill="#BD6736"/>
<path d="M180.002 109.863L170.983 88.8225C170.89 88.6055 170.677 88.4648 170.44 88.4648C170.017 88.4648 169.731 88.898 169.898 89.2873L179.289 111.197H180.002H180.574H201.586C201.954 111.197 202.253 110.898 202.253 110.53C202.253 110.162 201.954 109.863 201.586 109.863H180.002Z" fill="#5B321A"/>
<path d="M122.963 91.6851C122.963 86.1454 118.471 81.6545 112.93 81.6545C107.389 81.6545 102.896 86.1454 102.896 91.6851C102.896 94.6927 104.221 97.3908 106.318 99.2292C106.501 96.3407 108.535 93.9549 111.248 93.2453C109.998 92.6256 109.138 91.3376 109.138 89.8483C109.138 87.7551 110.836 86.058 112.93 86.058C115.024 86.058 116.721 87.755 116.721 89.8483C116.721 91.3377 115.862 92.6256 114.612 93.2453C117.325 93.9549 119.358 96.3406 119.542 99.2292C121.639 97.3908 122.963 94.6927 122.963 91.6851Z" fill="#F2935C" fill-opacity="0.41"/>
<path d="M114.611 93.2454C115.861 92.6257 116.721 91.3377 116.721 89.8484C116.721 87.7552 115.023 86.0581 112.929 86.0581C110.835 86.0581 109.138 87.7551 109.138 89.8484C109.138 91.3378 109.998 92.6257 111.248 93.2454C108.535 93.955 106.501 96.3407 106.318 99.2293C108.084 100.777 110.397 101.716 112.93 101.716C115.462 101.716 117.776 100.777 119.541 99.2293C119.358 96.3406 117.324 93.955 114.611 93.2454Z" fill="#F2935C"/>
</svg>
