<svg width="158" height="134" viewBox="0 0 158 134" fill="none" xmlns="http://www.w3.org/2000/svg">
<path opacity="0.1" d="M138.869 53.951C135.564 41.1145 123.501 41.9129 112.071 44.2947C105.923 45.5761 97.313 47.3488 88.3286 44.7308C68.9905 39.0953 46.7552 37.6881 35.7973 44.7308C24.8398 51.7735 18.2523 60.2595 21.4123 72.115C24.5719 83.9705 32.5989 94.6296 25.7724 100.975C18.9459 107.32 19.0607 131.35 47.1315 133.221C75.2024 135.093 72.4184 108.155 90.9566 109.405C109.495 110.656 147.55 128.892 149.157 115.671C150.765 102.45 130.118 93.0195 137.519 71.0657C138.988 66.7082 140.38 59.8179 138.869 53.951Z" fill="#2C2A40"/>
<path opacity="0.1" d="M74.3223 32.9411C74.3223 32.9411 75.0391 28.3375 77.0576 28.5168C77.6162 28.5666 77.9962 29.1326 78.2452 29.7406C78.3987 30.1151 78.9351 30.0889 79.0462 29.6996C79.5804 27.8291 80.6725 24.9739 82.3652 24.9739C84.1158 24.9739 84.1737 28.2405 84.0468 30.2302C84.0276 30.5297 84.4161 30.6629 84.5847 30.4146C85.0466 29.735 85.7203 29.0824 86.5401 29.2717C88.1365 29.6399 87.7067 32.9411 87.7067 32.9411H74.3223Z" fill="#2C2A40"/>
<path opacity="0.1" d="M0.5 76.2375C0.5 76.2375 1.21685 71.6339 3.23533 71.8132C3.7939 71.863 4.17391 72.429 4.42295 73.037C4.57643 73.4114 5.11287 73.3852 5.22392 72.996C5.75778 71.1255 6.85021 68.2703 8.54291 68.2703C10.2935 68.2703 10.3515 71.5372 10.2245 73.5266C10.2054 73.8261 10.5939 73.9593 10.7625 73.711C11.2244 73.0314 11.8981 72.3788 12.7179 72.568C14.3143 72.9366 13.8844 76.2375 13.8844 76.2375H0.5Z" fill="#2C2A40"/>
<path opacity="0.1" d="M142.529 57.844C142.529 57.844 143.246 53.2403 145.264 53.4196C145.823 53.4694 146.203 54.0354 146.452 54.6434C146.605 55.0179 147.142 54.9917 147.253 54.6025C147.787 52.7319 148.879 49.8767 150.572 49.8767C152.323 49.8767 152.381 53.1433 152.254 55.133C152.234 55.4326 152.623 55.5658 152.792 55.3175C153.253 54.6379 153.927 53.9852 154.747 54.1745C156.343 54.5427 155.913 57.844 155.913 57.844H142.529Z" fill="#2C2A40"/>
<path d="M137.241 132.99C137.241 132.99 139.494 132.592 139.362 129.609C139.229 126.626 138.235 122.517 136.246 121.323C134.258 120.13 132.806 121.854 132.806 121.854L137.241 132.99Z" fill="#7B7B9A"/>
<path d="M128.358 121.325C128.425 122.319 129.353 123.776 131.341 124.837C133.33 125.898 134.391 129.676 135.284 131.333C135.695 132.094 136.142 132.506 136.505 132.73C136.931 132.99 137.241 132.99 137.241 132.99C137.241 132.99 137.252 132.728 137.254 132.276C137.26 131.2 137.213 129.046 136.83 126.759C136.286 123.512 134.361 122.384 134.361 122.384C134.01 121.786 133.253 121.359 132.391 121.089C130.982 120.649 129.291 120.629 128.636 120.961C128.451 121.054 128.348 121.176 128.358 121.325Z" fill="#B0B1CA"/>
<path d="M136.063 126.229C136.533 128.219 136.746 131.502 136.504 132.73C136.931 132.99 137.241 132.99 137.241 132.99C137.241 132.99 137.373 130.007 136.829 126.759C136.286 123.512 134.361 122.384 134.361 122.384C134.01 121.786 133.253 121.359 132.391 121.09C133.53 122.231 135.664 124.545 136.063 126.229Z" fill="#2C2A40"/>
<path opacity="0.2" d="M128.358 121.325C128.425 122.319 129.353 123.777 131.341 124.838C133.33 125.898 134.391 129.677 135.284 131.333C135.695 132.095 136.142 132.506 136.505 132.73C136.931 132.99 137.241 132.99 137.241 132.99C137.241 132.99 137.252 132.729 137.254 132.277C137.21 132.236 137.161 132.208 137.108 132.195C136.446 132.029 135.551 131.773 135.02 129.312C134.491 126.85 133.595 125.069 132.071 124.307C130.68 123.612 128.934 121.354 128.636 120.962C128.451 121.055 128.348 121.177 128.358 121.325Z" fill="#2C2A40"/>
<path d="M112.343 59.03C112.343 59.03 127.693 56.7245 131.86 63.2426C136.027 69.7607 130.429 91.5473 125.912 94.8464C121.395 98.1454 113.89 96.4354 111.081 94.3616C108.273 92.2881 106.97 62.1775 112.343 59.03Z" fill="#F2935C"/>
<path d="M130.125 86.1604C130.125 86.1604 132.07 85.6963 132.766 83.4096L130.447 82.3821C130.447 82.3821 129.538 84.7352 130.125 86.1604Z" fill="#00497B"/>
<path d="M130.125 82.1507C133.307 86.9897 140.488 88.2486 140.488 88.2486C141.975 87.814 143.956 85.746 145.916 83.2236H145.917C149.64 78.4292 153.282 71.9923 153.282 71.9923L150.299 70.998C150.299 70.998 145.062 76.7815 142.809 78.0404C140.555 79.3003 139.892 80.4931 139.892 80.4931C139.657 80.2374 139.385 79.988 139.093 79.7475C137.491 78.4263 135.284 77.3929 135.284 77.3929C132.732 76.6793 130.125 82.1507 130.125 82.1507Z" fill="#F9B587"/>
<path d="M130.125 82.1503C133.307 86.9894 140.488 88.2482 140.488 88.2482C141.975 87.8136 143.956 85.7457 145.916 83.2232C145.916 83.2232 142.416 86.9418 140.19 87.2539C137.965 87.566 133.749 84.5366 133.324 83.3763C132.899 82.216 133.527 79.2641 135.284 77.3929C132.732 76.679 130.125 82.1503 130.125 82.1503Z" fill="#F39568"/>
<path d="M99.5975 94.8472C99.5975 94.8472 99.43 104.629 100.803 110.806C102.176 116.982 108.043 100.693 108.043 100.693C108.043 100.693 102.785 96.0772 99.5975 94.8472Z" fill="#F2935C"/>
<path d="M120.101 100.577C120.101 100.577 119.974 106.344 116.196 110.42C112.417 114.497 110.795 119.269 110.795 119.269C110.795 119.269 116.45 116.684 120.101 117.38C120.101 117.38 122.012 117.48 122.708 116.685C123.404 115.889 123.603 114.945 124.697 115.243C125.79 115.541 127.332 115.193 127.729 115.143C128.127 115.093 130.663 119.12 130.165 121.755C130.165 121.755 128.177 122.302 127.928 122.65C127.68 122.998 126.238 124.49 125.343 124.44C124.448 124.39 122.062 125.782 122.062 125.782C122.062 125.782 109.765 130.461 108.64 131.25C106.744 132.58 97.8021 134.034 97.007 129.013C96.2116 123.992 104.016 100.13 105.11 97.5447C106.203 94.9596 118.787 97.4451 120.101 100.577Z" fill="#F2935C"/>
<path d="M108.92 117.127L109.266 117.253C109.392 116.909 109.546 116.542 109.725 116.163L109.391 116.006C109.208 116.395 109.049 116.772 108.92 117.127Z" fill="#5B5B6C"/>
<path d="M127.1 116.627L127.179 116.987C127.544 116.907 127.938 116.83 128.35 116.758L128.287 116.395C127.869 116.467 127.47 116.546 127.1 116.627Z" fill="#5B5B6C"/>
<path d="M108.822 119.967L108.455 120.007L108.46 120.048C108.523 120.558 108.676 120.938 108.929 121.211L109.2 120.96C109.004 120.749 108.879 120.427 108.826 120.002L108.822 119.967Z" fill="#5B5B6C"/>
<path d="M111.736 121.051L111.835 121.407C112.214 121.301 112.613 121.173 112.989 121.051L112.875 120.7C112.502 120.821 112.107 120.947 111.736 121.051Z" fill="#5B5B6C"/>
<path d="M111.444 112.476C111.211 112.826 110.991 113.166 110.79 113.487L111.103 113.683C111.302 113.365 111.52 113.028 111.752 112.68L111.444 112.476Z" fill="#5B5B6C"/>
<path d="M110.674 114.388L110.356 114.201C110.141 114.565 109.942 114.92 109.766 115.255L110.092 115.427C110.266 115.097 110.461 114.747 110.674 114.388Z" fill="#5B5B6C"/>
<path d="M118.321 100.185L117.957 100.122C117.89 100.511 117.81 100.904 117.722 101.289L118.082 101.372C118.171 100.98 118.252 100.581 118.321 100.185Z" fill="#5B5B6C"/>
<path d="M112.903 111.014L112.602 110.8C112.351 111.153 112.125 111.475 111.912 111.785L112.216 111.995C112.428 111.686 112.653 111.365 112.903 111.014Z" fill="#5B5B6C"/>
<path d="M113.793 109.154C113.559 109.474 113.323 109.798 113.087 110.124L113.386 110.34C113.622 110.014 113.857 109.691 114.091 109.371L113.793 109.154Z" fill="#5B5B6C"/>
<path d="M109.018 118.029L108.662 117.933C108.547 118.359 108.474 118.766 108.445 119.144L108.812 119.173C108.84 118.818 108.909 118.433 109.018 118.029Z" fill="#5B5B6C"/>
<path d="M109.821 121.284L109.751 121.647C109.891 121.674 110.044 121.687 110.208 121.687C110.446 121.687 110.709 121.66 111.011 121.603L110.944 121.24C110.481 121.327 110.115 121.341 109.821 121.284Z" fill="#5B5B6C"/>
<path d="M119.698 119.684L119.76 120.048C120.161 119.98 120.561 119.893 120.948 119.789L120.852 119.433C120.477 119.533 120.088 119.618 119.698 119.684Z" fill="#5B5B6C"/>
<path d="M121.634 119.193L121.755 119.541C122.16 119.4 122.54 119.242 122.883 119.07L122.717 118.74C122.389 118.905 122.025 119.057 121.634 119.193Z" fill="#5B5B6C"/>
<path d="M113.666 120.444L113.777 120.796C114.238 120.651 114.59 120.548 114.919 120.464L114.828 120.107C114.492 120.192 114.133 120.296 113.666 120.444Z" fill="#5B5B6C"/>
<path d="M117.708 119.861L117.711 120.23C118.112 120.227 118.52 120.204 118.926 120.161L118.888 119.794C118.493 119.836 118.097 119.858 117.708 119.861Z" fill="#5B5B6C"/>
<path d="M125.119 117.192L125.253 117.536C125.568 117.413 125.947 117.293 126.378 117.179L126.283 116.823C125.839 116.941 125.447 117.065 125.119 117.192Z" fill="#5B5B6C"/>
<path d="M123.965 117.872C123.824 118.026 123.639 118.182 123.414 118.336L123.622 118.64C123.87 118.471 124.077 118.296 124.238 118.121C124.31 118.042 124.411 117.961 124.538 117.881L124.341 117.569C124.186 117.667 124.06 117.769 123.965 117.872Z" fill="#5B5B6C"/>
<path d="M117.521 102.087C117.415 102.473 117.3 102.856 117.175 103.224L117.525 103.342C117.652 102.966 117.77 102.577 117.877 102.184L117.521 102.087Z" fill="#5B5B6C"/>
<path d="M114.284 108.484L114.581 108.701C114.822 108.372 115.059 108.048 115.288 107.731L114.989 107.514C114.76 107.831 114.524 108.155 114.284 108.484Z" fill="#5B5B6C"/>
<path d="M116.386 105.996L116.061 105.822C115.871 106.175 115.669 106.517 115.458 106.84L115.767 107.041C115.983 106.71 116.192 106.359 116.386 105.996Z" fill="#5B5B6C"/>
<path d="M116.43 105.088L116.764 105.245C116.932 104.887 117.092 104.512 117.24 104.13L116.896 103.997C116.751 104.371 116.594 104.738 116.43 105.088Z" fill="#5B5B6C"/>
<path d="M115.655 119.928L115.717 120.292C116.149 120.218 116.52 120.191 116.87 120.209L116.889 119.84C116.511 119.821 116.115 119.85 115.655 119.928Z" fill="#5B5B6C"/>
<path d="M99.1436 29.3888L100.643 35.7789L100.652 35.8187C100.652 35.8187 100.75 37.0019 101.073 38.5647C101.433 40.3058 102.073 42.519 103.165 44.0918C103.333 44.3335 103.51 44.56 103.7 44.767C103.7 44.767 104.65 48.4151 105.673 51.5658H105.674C106.277 53.4219 106.904 55.1065 107.379 55.7695C107.379 55.7695 113.439 54.6309 111.987 51.008C111.987 51.008 109.925 46.2844 108.302 42.8024C108.301 42.8005 108.301 42.7994 108.301 42.7994C107.987 42.1254 107.689 41.4978 107.425 40.9599L105.568 36.7215L104.678 34.6901L101.978 28.5266L99.1436 29.3888Z" fill="#F9B587"/>
<path d="M105.674 51.5652C106.277 53.4213 106.904 55.1059 107.379 55.7689C107.379 55.7689 113.438 54.6303 111.987 51.0073C111.987 51.0073 109.925 46.2838 108.302 42.8018C108.341 42.9372 109.76 47.9142 109.335 49.3132C108.904 50.7318 107.645 52.068 105.674 51.5652Z" fill="#F39568"/>
<path d="M105.711 56.0034C105.8 58.6373 106.885 61.7751 108.142 63.6452C108.899 64.4436 109.847 64.4407 110.815 64.0241C113.278 62.9671 115.883 59.2427 115.883 59.2427L112.335 51.741L111.987 51.0061C109.982 51.5529 107.952 52.9796 106.774 53.9134C106.137 54.4184 105.749 54.7793 105.749 54.7793C105.708 55.1692 105.697 55.5798 105.711 56.0034Z" fill="#915837"/>
<path opacity="0.2" d="M105.711 56.0051C105.8 58.6389 106.885 61.7768 108.142 63.6469C108.899 64.4453 109.847 64.4424 110.815 64.0258C108.689 61.914 107.234 56.0032 106.774 53.915C106.136 54.4201 105.748 54.7809 105.748 54.7809C105.708 55.1709 105.697 55.5815 105.711 56.0051Z" fill="#2C2A40"/>
<path d="M105.711 56.0034C107.37 54.3561 111.167 52.3406 112.334 51.741L111.986 51.0061C108.898 51.8491 105.748 54.7793 105.748 54.7793C105.708 55.1692 105.697 55.5798 105.711 56.0034Z" fill="#2C2A40"/>
<path d="M97.6521 96.1035C102.269 102.082 121.553 102.467 121.553 102.467C121.553 102.467 120.87 94.5532 121.553 90.6351C122.305 86.3269 122.956 79.9963 122.956 79.9963C124.72 81.2857 127.415 83.6861 128.949 85.0799C129.663 85.7293 130.125 86.1605 130.125 86.1605C130.609 83.9392 131.279 82.2572 131.977 80.9913C133.56 78.1199 135.284 77.3931 135.284 77.3931L134.477 76.3383L128.624 68.6946L122.334 63.4837L121.251 62.5868L116.302 59.4161L114.275 58.1174C114.275 58.1174 109.037 60.3097 107.545 62.5868C106.054 64.8628 102.628 75.4137 101.58 80.5929C100.221 87.3102 98.5892 92.9963 97.9399 95.1638L97.938 95.1678C97.7565 95.7733 97.6521 96.1035 97.6521 96.1035Z" fill="#915837"/>
<path opacity="0.2" d="M97.6521 96.1033C102.269 102.082 121.553 102.466 121.553 102.466C121.553 102.466 120.87 94.553 121.553 90.6349C122.305 86.3268 122.956 79.9962 122.956 79.9962C124.72 81.2856 127.415 83.6859 128.949 85.0798C129.663 85.7291 130.125 86.1604 130.125 86.1604C130.609 83.939 131.279 82.257 131.977 80.9912C131.977 80.9912 125.218 77.3287 122.329 74.1296C122.329 74.1296 118.728 84.0906 117.488 89.1097C115.883 95.6056 110.44 98.2572 105.446 97.9251C100.453 97.5942 97.9395 95.1633 97.9395 95.1633L97.9377 95.1673C97.7565 95.7731 97.6521 96.1033 97.6521 96.1033Z" fill="#2C2A40"/>
<path d="M119.255 64.6484C120.399 64.4237 120.98 63.7873 121.848 63.0812L121.251 62.5868L115.971 58.396C115.272 58.8406 114.397 59.277 114.275 61.0557C114.091 63.7401 116.922 65.107 119.255 64.6484Z" fill="#2C2A40"/>
<path d="M128.949 85.08C129.663 85.7294 130.125 86.1607 130.125 86.1607C131.706 78.9025 135.284 77.3932 135.284 77.3932L134.477 76.3384C133.002 77.3935 129.933 80.1219 128.949 85.08Z" fill="#2C2A40"/>
<path d="M125.218 56.447C125.218 56.447 125.321 59.3277 122.001 59.9187C122.001 59.9187 122.831 56.1489 125.218 56.447Z" fill="#2C2A40"/>
<path d="M119.775 50.2725C121.781 53.4959 125.022 56.2084 125.022 56.2084C125.022 56.2084 131.94 52.8676 129.666 47.3793C129.056 45.9057 128.307 44.8299 127.495 44.0555V44.0544H127.494C124.034 40.7505 119.422 42.8852 119.422 42.8852C117.409 44.9712 118.22 47.7751 119.775 50.2725Z" fill="#915837"/>
<path d="M127.494 44.054L127.495 44.0559V44.054H127.494Z" fill="#3E86AA"/>
<path opacity="0.2" d="M119.775 50.2719C121.781 53.4954 125.022 56.2078 125.022 56.2078C125.022 56.2078 131.94 52.8671 129.666 47.3787C129.055 45.9052 128.307 44.8293 127.494 44.0549C127.534 44.1188 129.442 47.174 127.493 49.2072C125.524 51.2625 122.113 51.999 119.775 50.2719Z" fill="#2C2A40"/>
<path d="M124.984 48.8075C124.984 48.8075 123.176 39.4534 117.389 39.878C111.97 40.2758 116.192 47.4468 116.192 47.4468C116.192 47.4468 124.014 49.6804 124.984 48.8075Z" fill="#2C2A40"/>
<path d="M117.831 45.4985C117.831 45.4985 115.349 45.9929 115.581 48.2796C115.581 48.2796 117.683 47.0333 117.831 45.4985Z" fill="#2C2A40"/>
<path d="M122.161 59.3481L121.251 62.5856C121.157 63.0265 120.815 63.3751 120.375 63.4721C116.576 64.3078 114.766 61.5219 115.149 60.5453C115.64 60.3708 124.097 57.665 125.635 54.415C125.635 54.415 125.096 57.3197 122.161 59.3481Z" fill="#F9B587"/>
<path d="M115.582 59.2077C116.799 59.6759 118.512 60.1006 120.295 59.7844C123.66 59.1867 125.412 55.2047 125.412 55.2047C125.412 55.2047 125.974 52.4993 125.218 49.9997C125.014 49.3216 124.712 48.6575 124.275 48.068C122.693 45.9285 120.062 45.5466 118.614 45.4083C117.894 45.3397 117.198 45.6846 116.82 46.3011L116.186 47.3393L115.763 48.0314C115.671 48.1805 115.589 48.3329 115.516 48.4889C115.269 49.015 115.118 49.5817 115.074 50.1643L115.025 50.8424C114.697 51.2619 114.445 51.7304 114.276 52.2274C114.128 52.6568 114.041 53.1084 114.021 53.5678L113.89 56.6222C113.841 57.7571 114.521 58.7993 115.582 59.2077Z" fill="#F9B587"/>
<path d="M119.062 49.0498C119.062 49.0498 121.755 48.0323 122.329 50.2599L121.909 50.5816C121.909 50.5816 121.095 48.8646 118.954 49.6305L119.062 49.0498Z" fill="#2C2A40"/>
<path d="M115.025 50.8432C114.698 51.2627 114.445 51.7305 114.276 52.2278C114.806 52.1175 115.725 52.2334 117.268 53.172C117.268 53.172 116.7 52.0733 115.829 51.6741C115.595 51.5667 115.531 51.2642 115.703 51.072L116.849 49.7847C116.849 49.7847 116.803 49.408 116.479 49.1321C116.281 48.9638 115.866 48.6842 115.516 48.4897C115.268 49.0147 115.118 49.5822 115.075 50.1651L115.025 50.8432Z" fill="#F39568"/>
<path d="M115.796 48.0741C116.414 48.394 116.846 48.7991 116.846 48.7991L116.691 49.3141C116.304 48.9625 115.927 48.736 115.572 48.5958C115.397 48.5265 115.312 48.335 115.388 48.1852C115.389 48.1833 115.389 48.1815 115.39 48.1796C115.46 48.0417 115.642 47.9944 115.796 48.0741Z" fill="#2C2A40"/>
<path d="M114.753 53.5105L119.422 55.0445C119.422 55.0445 117.85 57.2397 115.493 56.1366C113.644 55.2711 114.753 53.5105 114.753 53.5105Z" fill="white"/>
<path d="M115.883 59.2442C115.883 59.2442 118.814 60.1123 122.001 56.894C122.001 56.894 122.07 58.6233 120.361 60.3189C119.117 61.5534 116.767 61.349 115.58 61.1461C115.223 61.0852 115.036 60.6867 115.219 60.3743L115.883 59.2442Z" fill="#F39568"/>
<path d="M124.544 54.0441C124.544 54.0441 126.093 52.8026 127.009 54.0652C127.925 55.3277 125.633 58.7024 124.145 57.2325C122.657 55.7623 124.544 54.0441 124.544 54.0441Z" fill="#F9B587"/>
<path d="M118.999 50.7134C118.999 50.7134 119.61 50.0283 120.328 50.3375C121.375 50.7883 121.19 51.7597 121.19 51.7597C121.19 51.7597 120.785 49.9213 118.999 50.7134Z" fill="#2C2A40"/>
<path d="M116.403 50.2432C116.403 50.2432 116.058 49.0722 115.177 49.9252C115.177 49.9252 115.949 49.471 116.403 50.2432Z" fill="#2C2A40"/>
<path d="M116.152 47.3221C116.154 47.3568 116.072 47.487 116.074 47.5228C116.074 47.5228 117.585 46.2581 120.246 47.2848C122.905 48.312 124.21 50.8303 124.21 50.8303L125.218 50.0002C125.014 49.3221 124.712 48.658 124.275 48.0685C122.692 45.929 120.062 45.5471 118.614 45.4088C117.894 45.3401 117.198 45.6851 116.82 46.3016L116.152 47.3221Z" fill="#F39568"/>
<path d="M123.734 54.2452L124.608 54.6429L125.883 53.4996C126.084 52.4009 125.193 49.4678 124.984 48.8078C124.872 48.7004 124.687 48.5949 124.557 48.4897C124.557 48.4897 123.68 51.5243 124.629 52.6477L123.734 54.2452Z" fill="#2C2A40"/>
<path d="M100.643 35.7787L100.652 35.8185C100.652 35.8185 100.75 37.0017 101.074 38.5645L105.568 36.7213L104.678 34.6899L100.643 35.7787Z" fill="#F39568"/>
<path opacity="0.2" d="M107.237 66.5789L110.794 69.7551C110.794 69.7551 109.522 74.7464 106.799 73.6326C103.518 72.2908 107.237 66.5789 107.237 66.5789Z" fill="#2C2A40"/>
<path d="M95.8871 39.1394L111.72 33.2273L107.806 22.7432L91.9723 28.6553L95.8871 39.1394Z" fill="#2C2A40"/>
<path d="M91.9695 28.6495L95.884 39.1341L111.718 33.2225L111.122 33.0536L92.4192 27.7419L92.116 28.3533L92.1163 28.354L91.9695 28.6495Z" fill="#2C2A40"/>
<path d="M92.116 28.3532L95.8541 38.406C96.0714 38.3249 95.9755 38.3606 96.3337 38.2271L102.018 30.1761L92.4192 27.7422L92.116 28.3532Z" fill="white"/>
<path d="M96.3371 38.2331L111.479 32.5793L107.564 22.0952L92.4223 27.749L96.3371 38.2331Z" fill="#2C2A40"/>
<path d="M97.5393 24.9627C97.5404 24.9612 97.5415 24.9605 97.5415 24.9605C97.7238 24.7461 98.0562 24.5993 98.2625 24.6122C98.3078 24.4037 98.551 24.2503 98.8247 24.1942C98.9841 24.1613 99.149 24.1916 99.2936 24.2654C99.4183 24.0252 99.7323 23.8824 99.9031 23.9776C99.9031 23.9776 99.9452 23.9953 100.016 24.0282C100.074 23.8492 100.208 23.7566 100.208 23.7566L100.209 23.757C100.385 23.5083 100.889 23.377 101.081 23.4836C101.081 23.4836 102.757 24.1602 102.917 25.4523C103.077 26.7443 103.314 28.2488 102.715 28.0341C102.543 27.9729 102.374 27.7585 102.225 27.4682C102.289 28.244 102.252 28.8236 101.864 28.6849C101.649 28.6078 101.438 28.2898 101.264 27.8817C101.301 28.5396 101.236 28.9967 100.888 28.872C100.574 28.7594 100.268 28.1341 100.075 27.4634C100.134 28.2119 100.089 28.7613 99.7106 28.6259C99.2472 28.4599 99.1147 27.4195 98.7908 26.5779C98.4104 25.5921 98.323 26.1079 97.7648 25.7471L97.2634 25.9341C97.1597 25.3593 97.5076 24.9944 97.5393 24.9627Z" fill="#F9B587"/>
<path d="M149.439 72.6685C148.734 72.2306 148.224 71.5429 148.003 70.7434C147.94 70.5135 147.865 70.2697 147.78 70.0302C147.449 69.1024 147.713 67.1138 147.78 66.3183C147.846 65.5229 148.41 63.9984 148.575 63.8328C148.741 63.6671 149.735 64.3737 149.338 65.3956C148.94 66.4176 149.226 67.5535 149.431 67.8804C149.636 68.2073 150.564 67.6107 150.796 67.0142C151.028 66.4176 153.049 61.9102 153.447 61.7778C153.845 61.6453 154.176 61.7446 153.911 62.9045C153.646 64.0645 152.387 66.0863 152.552 66.6496C152.718 67.213 153.017 66.7493 153.116 66.4508C153.215 66.1523 154.839 61.8863 155.104 61.7328C155.37 61.5789 156.132 61.3133 155.734 63.12C155.336 64.9267 154.102 67.1304 154.177 67.5281C154.251 67.9258 155.942 63.5262 156.414 63.2775C156.886 63.0289 157.234 63.4764 156.861 64.5699C156.489 65.6635 155.493 67.7841 155.409 68.0236C155.339 68.2258 155.378 68.3955 155.552 68.2962C155.726 68.1966 156.778 65.614 157.018 65.465C157.259 65.3159 157.855 65.5893 157.209 67.354C156.562 69.1186 156.132 70.6825 154.375 72.3062C153.291 73.3086 152.759 73.9159 151.74 73.7669C151.129 73.6776 150.201 73.1422 149.439 72.6685Z" fill="#F9B587"/>
<path d="M127.494 67.7068C127.494 67.7068 127.927 62.9283 124.175 61.934C121.485 61.2212 116.925 66.1779 115.771 71.7441C113.731 81.5874 118.46 90.1712 121.553 91.2979C121.553 91.2979 124.376 89.1105 122.224 86.1608C122.224 86.1608 116.403 80.2921 118.998 71.8434C121.16 64.8062 124.613 62.9943 125.912 66.4483L127.494 67.7068Z" fill="#F2935C"/>
<path d="M103.509 73.3015L105.117 68.3547C105.117 68.3547 104.894 59.713 114.011 57.5344C113.918 57.2452 113.875 56.9368 113.889 56.6217L113.946 55.3042C112.805 55.3787 101.183 58.7383 103.509 73.3015Z" fill="#F2935C"/>
<path d="M139.892 83.3769C139.717 81.823 139.892 80.4937 139.892 80.4937C139.657 80.238 139.385 79.9886 139.093 79.748C138.699 82.797 139.892 83.3769 139.892 83.3769Z" fill="#F39568"/>
<path d="M103.165 44.0915C103.332 44.3331 103.51 44.5597 103.7 44.7666C103.7 44.7666 105.234 43.872 105.677 43.6392C105.677 43.6392 104.261 43.6639 103.165 44.0915Z" fill="#F39568"/>
<path d="M127.729 115.374C128.552 116.151 129.218 117.97 129.651 119.443C129.652 119.445 129.652 119.448 129.652 119.449C130.003 120.644 130.199 121.612 130.199 121.612C130.931 122.407 132.6 122.178 135.284 122.47C137.699 122.732 139.391 124.412 141.192 125.134C141.193 125.134 141.193 125.134 141.194 125.134C141.394 125.216 141.594 125.283 141.797 125.337C142.868 125.619 143.623 125.443 144.033 124.925C144.405 124.457 144.496 123.707 144.283 122.761C143.835 120.769 138.814 116.394 137.373 115.812C135.931 115.228 135.036 114.888 133.323 113.478C131.611 112.068 129.866 111.972 129.518 112.5C129.459 112.588 129.371 112.728 129.262 112.899C128.728 113.749 127.729 115.374 127.729 115.374Z" fill="#B0B1CA"/>
<path d="M129.263 112.899C129.831 112.836 130.791 112.808 131.474 113.204C132.501 113.801 133.96 115.193 135.517 115.921C137.075 116.651 140.058 118.705 141.615 120.164C143.172 121.622 144.089 123.917 143.637 124.671C143.185 125.425 142.36 125.399 141.194 125.134C141.394 125.216 141.595 125.283 141.798 125.337C143.836 125.872 144.731 124.754 144.283 122.761C143.836 120.768 138.815 116.394 137.373 115.811C135.931 115.227 135.037 114.887 133.324 113.478C131.611 112.068 129.867 111.971 129.518 112.499C129.46 112.588 129.371 112.728 129.263 112.899Z" fill="#2C2A40"/>
<path opacity="0.2" d="M129.653 119.449C130.003 120.644 130.199 121.612 130.199 121.612C130.931 122.407 132.6 122.179 135.284 122.47C137.699 122.732 139.392 124.412 141.192 125.134C141.193 125.134 141.193 125.134 141.194 125.134C141.394 125.216 141.594 125.284 141.797 125.337C142.868 125.619 143.623 125.443 144.034 124.925L144.167 124.141C144.167 124.141 142.377 125.036 140.323 123.843C138.75 122.93 138.04 122.04 136.778 121.688C137.012 120.733 136.478 119.7 136.478 119.7C136.378 120.761 136.086 121.524 136.086 121.524C135.836 121.488 135.572 121.475 135.284 121.489C133.234 121.589 130.032 120.602 129.653 119.449Z" fill="#2C2A40"/>
<path d="M9.74619 100.491C10.3727 100.455 10.8895 100.136 11.3334 99.6712C11.347 99.6572 11.3618 99.6421 11.3754 99.6273C11.3762 99.6273 11.3762 99.6262 11.3773 99.6262C12.1502 98.7942 12.7066 97.5273 13.2548 96.574C13.4149 96.2936 13.5762 96.0401 13.7407 95.8324C14.2583 95.1809 15.1622 93.4623 15.9488 91.8792C15.989 91.7995 16.0281 91.7187 16.0676 91.6398C16.8328 90.0917 17.4582 88.7362 17.4582 88.7362C17.4582 88.7362 17.1682 87.8869 16.704 87.0147C16.5616 86.7473 16.4026 86.4772 16.23 86.2282C15.885 85.729 15.4865 85.318 15.0615 85.1874C13.7355 84.779 12.5073 85.6585 11.4872 86.8458C10.4885 88.0083 7.74026 92.9119 7.29236 94.9477C7.28277 94.9908 7.27392 95.0333 7.26691 95.0746C6.80093 97.6336 7.67385 100.61 9.74619 100.491Z" fill="#B0B1CA"/>
<path d="M9.74619 100.491C10.3926 100.454 10.922 100.116 11.3754 99.6273C9.93287 100.318 9.05406 99.9003 8.54824 99.3281C7.91587 98.6127 7.67791 96.6496 7.84319 95.8202C8.24534 93.801 9.73955 90.6351 10.4996 89.3752C11.2596 88.1153 12.7671 86.0352 14.2318 85.8319C15.0704 85.7157 15.7784 85.9802 16.2303 86.2282C15.8854 85.729 15.4869 85.318 15.0619 85.1874C13.7359 84.779 12.5077 85.6585 11.4876 86.8458C10.4675 88.033 7.6222 93.1233 7.26691 95.0742C6.80093 97.6336 7.67385 100.61 9.74619 100.491Z" fill="#2C2A40"/>
<path opacity="0.2" d="M9.74619 100.491C10.3727 100.455 10.8895 100.136 11.3334 99.6713C11.347 99.6573 11.3618 99.6421 11.3754 99.6274C11.3762 99.6274 11.3762 99.6263 11.3773 99.6263C12.1502 98.7943 12.7066 97.5274 13.2548 96.574C13.4149 96.2936 13.5762 96.0402 13.7407 95.8325C14.2583 95.1809 15.1622 93.4624 15.9488 91.8793C15.989 91.7996 16.0281 91.7188 16.0676 91.6398C15.8197 91.3488 15.4928 91.2218 15.0656 91.3414C15.0656 91.3414 14.0373 92.2895 13.0652 94.2401C11.9971 96.3837 11.4356 98.4187 9.43628 98.4365C7.43699 98.4549 7.79707 97.1418 7.52996 95.251C7.49233 94.9876 7.40895 94.9013 7.29236 94.9481C7.28277 94.9913 7.27392 95.0337 7.26691 95.075C6.80093 97.6336 7.67385 100.61 9.74619 100.491Z" fill="#2C2A40"/>
<path d="M42.8377 118.43C42.8598 119.539 43.7309 126.873 46.1216 128.356C47.3292 129.106 48.0224 129.076 48.3696 128.516C48.5692 128.197 48.6559 127.704 48.6607 127.086C48.6651 126.644 48.6275 126.136 48.5596 125.582C48.232 122.892 48.1921 116.668 50.5567 115.316C50.5567 115.316 50.1235 112.104 49.0171 110.125C48.685 109.529 48.2906 109.044 47.8284 108.794C47.8284 108.794 46.1781 108.803 45.1395 108.944C44.6909 109.005 44.0862 108.985 43.5199 109.139C42.7757 109.342 42.0972 109.844 41.9212 111.223C41.6117 113.652 42.8148 117.322 42.8377 118.43Z" fill="#B0B1CA"/>
<path d="M42.8374 118.43C42.8596 119.539 43.7306 126.873 46.1214 128.356C47.3289 129.106 48.0222 129.076 48.3693 128.516C47.7591 128.542 46.9157 128.339 46.1597 127.69C45.1208 126.798 43.8144 121.763 43.8911 120.138C43.9686 118.513 43.2979 115.558 42.7098 113.29C42.2641 111.574 43.0924 109.867 43.52 109.139C42.7758 109.342 42.0973 109.844 41.9214 111.223C41.6114 113.652 42.8146 117.322 42.8374 118.43Z" fill="#2C2A40"/>
<path opacity="0.2" d="M42.8375 118.43C42.8596 119.539 43.7307 126.873 46.1214 128.356C47.3289 129.106 48.0222 129.076 48.3694 128.516C48.569 128.197 48.6557 127.704 48.6605 127.086C48.2037 127.188 47.5182 127.016 46.722 126.568C45.3212 125.781 45.0419 121.485 45.243 118.648C45.444 115.812 43.7491 113.582 44.7235 111.797C45.6982 110.011 48.9198 110.415 48.9198 110.415C48.9586 110.316 48.991 110.22 49.0165 110.125C48.6844 109.529 48.29 109.044 47.8278 108.794C47.8278 108.794 46.1775 108.803 45.1389 108.944C44.6903 109.005 44.0856 108.985 43.5193 109.139C42.7751 109.342 42.0966 109.844 41.9206 111.223C41.6115 113.652 42.8146 117.322 42.8375 118.43Z" fill="#2C2A40"/>
<path d="M43.0448 40.7104C43.0448 40.7104 28.651 41.1004 25.9046 47.731C23.1586 54.3616 31.8132 73.3495 36.4747 75.6284C41.1367 77.907 47.7134 75.1248 49.9415 72.7743C52.1695 70.4238 48.4639 42.7112 43.0448 40.7104Z" fill="#915837"/>
<path d="M34.0588 58.3773C34.0588 58.3773 34.037 61.0543 32.9409 63.9671C32.9409 63.9671 32.6184 65.9096 32.1167 68.318V68.3191C31.526 71.1552 30.9515 73.2411 30.1011 74.9656C29.3846 76.417 28.8659 77.809 28.5125 78.8955C28.4693 79.0276 28.4291 79.1549 28.3915 79.2766L28.3907 79.2774C28.0535 80.3639 27.9037 81.0597 27.9037 81.0597L24.7463 80.0075C24.7463 80.0075 24.5497 76.6811 24.6072 74.8693C24.6777 72.6239 24.4431 68.235 25.8786 64.5998C25.8786 64.5998 25.8786 64.5998 25.8779 64.5991C25.9926 64.3095 26.1166 64.0438 26.2509 63.8073C26.2509 63.8073 26.6552 60.2235 27.2393 57.8564C27.4333 57.072 27.6466 56.4215 27.872 56.0792C27.8727 56.0792 32.5483 55.59 34.0588 58.3773Z" fill="#F9B587"/>
<path d="M28.2928 64.1325C28.2928 64.1325 26.4551 64.1516 25.8799 64.5988C25.8799 64.5988 25.8799 64.5988 25.8792 64.5981C25.9939 64.3084 26.1179 64.0428 26.2522 63.8063C26.2522 63.8063 27.6641 63.7233 28.2928 64.1325Z" fill="#F39568"/>
<path d="M34.0589 58.3772C34.0589 58.3772 34.0371 61.0542 32.941 63.967C32.941 63.967 32.6185 65.9095 32.1168 68.3179C32.3105 66.5053 32.1747 63.2524 32.2123 60.879C32.2378 59.2586 30.7794 58.8786 29.5047 58.4211C28.9741 58.2307 27.933 58.0334 27.3183 57.8308C27.2918 57.8219 27.2659 57.8481 27.2405 57.8559C27.4345 57.0715 27.6478 56.4211 27.8732 56.0787C27.8732 56.0787 32.5484 55.5899 34.0589 58.3772Z" fill="#F39568"/>
<path d="M27.4373 78.6003L30.4622 80.7454C30.7824 80.9726 30.9754 81.3382 30.9824 81.7308L31.0318 84.6451C31.0378 84.9922 30.7607 85.2782 30.4135 85.2833C30.1228 85.2877 29.8671 85.0918 29.7955 84.81L29.0982 82.0636L28.3843 81.8027L28.8322 83.4423L29.3834 84.9291L30.7625 86.6543C30.9632 86.9052 30.9131 87.2726 30.6529 87.4612C30.4257 87.6254 30.1124 87.5977 29.918 87.3955L28.101 85.5076L26.8853 84.0156L27.8427 85.8891L29.6882 88.6447C29.8103 88.827 29.8095 89.0653 29.6867 89.2472C29.4971 89.5269 29.1001 89.5652 28.8603 89.3273L26.8606 87.339L25.7235 85.5667L26.7226 88.6931L27.6077 90.6931C27.7055 90.9141 27.6258 91.1731 27.4207 91.3011C27.1926 91.4431 26.8931 91.3727 26.7518 91.1447L25.4671 89.0672L24.5396 86.6572L25.1373 88.7325L25.466 89.4402C25.5346 89.5877 25.4704 89.763 25.3229 89.8312C25.1948 89.8906 25.0428 89.8512 24.9602 89.7368L24.4702 89.0598L23.7419 87.3416L24.7613 79.9776C24.761 79.9765 25.1849 78.9667 27.4373 78.6003Z" fill="#F9B587"/>
<path d="M28.3914 79.2767C28.3914 79.2767 27.4598 78.7207 26.3618 78.8605C26.3618 78.8605 27.5417 78.4152 28.5127 78.8948L28.3914 79.2767Z" fill="#F39568"/>
<path d="M57.2167 35.1087C60.4361 28.76 59.1263 20.4216 58.898 18.3131C58.878 18.1283 58.7969 17.8715 58.6633 17.5568C58.6633 17.5557 58.6633 17.5557 58.6633 17.5557C57.4429 14.6558 51.9158 6.83614 50.6573 5.07002C50.5721 4.95012 50.506 4.85862 50.4621 4.79848C50.4226 4.74204 50.4012 4.71289 50.4012 4.71289L46.5237 6.51885C46.5237 6.51885 49.1306 9.24458 50.1552 12.6665C51.1797 16.0884 53.6324 20.5729 53.6324 20.5729C52.5529 24.5416 52.4714 29.7348 52.4714 29.7348C54.3463 34.1355 57.2167 35.1087 57.2167 35.1087Z" fill="#F9B587"/>
<path d="M57.2164 35.1093C60.4358 28.7606 59.126 20.4222 58.8976 18.3137C58.8777 18.1289 58.7966 17.8721 58.663 17.5574C58.6612 17.6622 58.5678 24.3758 58.131 26.5447C57.6901 28.7307 56.9873 31.0259 55.7126 31.3332C54.4368 31.6405 53.1617 30.9163 52.4714 29.735C54.346 34.1361 57.2164 35.1093 57.2164 35.1093Z" fill="#F39568"/>
<path d="M50.3901 5.02411C49.8713 5.5742 47.6182 7.10161 47.2899 7.24808C47.1751 7.299 47.0202 7.22631 46.8682 7.10973C46.7173 7.11342 45.7266 7.12928 45.1895 6.86992C44.8943 6.72714 44.9091 6.30507 44.9976 5.85939C44.2845 5.66828 42.9142 4.53822 42.9596 3.4967C43.009 2.36184 44.2306 2.30834 44.2306 2.30834C44.2841 1.00525 45.5193 1.24654 45.5193 1.24654C45.5968 0.680583 46.6331 0.454053 46.6331 0.454053C46.7505 -0.0270451 47.4253 -0.0941919 47.82 0.105036C48.2148 0.304263 50.5218 3.1178 50.6144 3.62509C50.7066 4.13275 50.3901 5.02411 50.3901 5.02411Z" fill="#F9B587"/>
<path d="M46.8537 5.2785C47.0098 5.93448 46.4593 6.00495 46.4593 6.00495C46.5726 5.92267 46.5711 5.64412 46.546 5.40394C46.546 5.40394 46.546 5.2405 46.4903 5.04386C46.4895 5.04312 46.4895 5.04312 46.4895 5.04201C46.4283 4.82766 46.2992 4.57346 46.0291 4.44396C45.5425 4.21227 45.3159 4.35616 45.3159 4.35616L44.3718 3.00731C44.8688 3.32423 45.5237 4.06691 45.5237 4.06691C46.3933 4.05326 46.7021 4.70148 46.8057 5.05493C46.9769 5.0457 47.1677 4.97634 47.2418 4.74096C47.3898 4.27093 47.0869 3.80643 47.0869 3.80643L45.7753 1.96948C45.7753 1.96948 47.5823 3.73966 47.6078 4.41371C47.6406 5.30802 46.8537 5.2785 46.8537 5.2785Z" fill="#F39568"/>
<path d="M47.1448 1.43579C47.1448 1.43579 48.3187 2.91081 48.4693 3.30964C48.6335 3.74499 48.3494 4.16927 48.0317 4.24527C47.714 4.32164 47.5384 4.15599 47.5384 4.15599L47.5281 4.61126C47.5281 4.61126 48.7463 4.83114 48.763 3.67009C48.7714 3.09012 47.1448 1.43579 47.1448 1.43579Z" fill="#F39568"/>
<path d="M48.6932 3.39861C48.6932 3.39861 48.9824 3.68896 49.3425 3.58234C49.703 3.47571 49.7827 3.23553 49.7037 3.0127C49.7037 3.0127 49.9155 3.23148 49.7222 3.53917C49.4702 3.93947 48.871 3.8513 48.6829 3.79706L48.6932 3.39861Z" fill="#F39568"/>
<path d="M49.9248 5.55269C49.9248 5.55269 50.3672 5.47263 50.6564 5.07086C50.5712 4.95095 50.5052 4.85945 50.4612 4.79932C50.4612 4.79932 50.2853 5.18412 49.9248 5.55269Z" fill="#F39568"/>
<path d="M47.1636 7.26052C47.1636 7.26052 47.7306 7.21256 48.0524 7.01001C48.0524 7.01001 47.7531 7.40109 47.3503 7.4948L47.1636 7.26052Z" fill="#F39568"/>
<path d="M53.6322 20.573C53.6322 20.573 55.3293 20.3151 55.9071 19.8333C55.9071 19.8333 55.2884 21.2924 53.4377 21.3466L53.6322 20.573Z" fill="#F39568"/>
<path d="M14.7436 93.9446C15.4277 94.4534 15.113 94.5696 15.7881 94.9349C16.4423 95.2887 18.1589 96.6951 18.2656 96.7822C18.2685 96.7847 18.2704 96.7866 18.2704 96.7866C22.7589 101.553 30.3251 108.969 34.4248 109.532C38.2898 110.064 44.0497 99.2227 47.7292 91.2647C47.7292 91.2647 47.7292 91.2647 47.7299 91.2635C47.769 91.2053 49.2691 88.9935 51.5097 89.645C53.7798 90.3054 62.1448 98.1576 65.9955 100.144C65.9955 100.144 60.8354 100.408 59.1494 102.571C57.4633 104.734 52.7638 106.801 51.9108 107.143C51.0581 107.485 50.6128 107.103 49.82 107.626C49.0271 108.148 47.8273 108.794 47.8273 108.794C47.7952 111.203 48.6936 113.289 50.4523 115.38C50.4523 115.38 51.1851 114.984 51.8883 114.776C52.8652 114.488 54.9239 113.945 55.2892 113.27C55.6544 112.595 68.3711 109.92 68.3711 109.92C68.3711 109.92 78.1403 107.983 78.8988 103.347C79.6573 98.711 59.8216 77.8766 59.8216 77.8766L58.2868 71.1951L51.1264 72.3797L51.126 72.3768L38.057 73.3674C38.057 73.3674 35.8224 79.3752 35.1922 84.7931C34.7705 88.4198 32.3713 97.0356 32.3713 97.0356C32.3713 97.0356 30.1602 94.7626 25.8584 92.9223C24.7589 92.4515 23.6259 91.938 22.5479 91.4351L22.5486 91.434C22.5486 91.434 20.9179 90.615 20.349 89.8258C19.7804 89.0363 19.4336 89.3403 18.8182 89.1554C18.2028 88.971 17.6837 88.2239 17.2735 88.3013C16.8632 88.3788 16.7415 88.5803 16.7415 88.5803C15.6948 89.5664 15.2214 90.2143 14.5256 92.6257C14.5263 92.6253 14.0596 93.4359 14.7436 93.9446Z" fill="#F3B38E"/>
<path d="M26.4352 95.303L26.2861 95.5361C26.5909 95.7313 26.9189 95.9604 27.2612 96.2176L27.4273 95.9962C27.0794 95.7346 26.7455 95.5015 26.4352 95.303Z" fill="#5B5B6C"/>
<path d="M24.6393 94.3323L24.5098 94.5769C24.8049 94.7329 25.0894 94.8779 25.3554 95.0078C25.4292 95.044 25.5037 95.082 25.5786 95.1214L25.7081 94.8768C25.6306 94.8355 25.5531 94.7964 25.4764 94.7588C25.2137 94.6304 24.9318 94.4869 24.6393 94.3323Z" fill="#5B5B6C"/>
<path d="M22.7332 93.5807C23.0881 93.7896 23.4397 93.9906 23.7776 94.1784L23.9119 93.9364C23.5758 93.7497 23.2264 93.5498 22.8734 93.342L22.7332 93.5807Z" fill="#5B5B6C"/>
<path d="M27.9119 96.7252C28.2 96.9577 28.4996 97.2085 28.8283 97.4926L29.0095 97.2834C28.6782 96.9971 28.3764 96.744 28.0856 96.5098L27.9119 96.7252Z" fill="#5B5B6C"/>
<path d="M31.146 99.1895L30.9634 99.3975C31.36 99.7458 31.6216 99.9561 31.8116 100.079C31.8551 100.107 31.8994 100.132 31.9433 100.152L32.0606 99.9019C32.0278 99.8864 31.9946 99.8679 31.9617 99.8465C31.7835 99.7311 31.5323 99.5285 31.146 99.1895Z" fill="#5B5B6C"/>
<path d="M32.7278 99.8538L32.8621 100.095C33.1539 99.9332 33.4502 99.6343 33.7427 99.2067L33.5144 99.0503C33.2465 99.4425 32.982 99.7125 32.7278 99.8538Z" fill="#5B5B6C"/>
<path d="M29.6348 97.833L29.4507 98.0396C29.7123 98.2724 29.9628 98.4989 30.1982 98.7118L30.342 98.8417L30.5276 98.6366L30.3837 98.5063C30.1476 98.2931 29.8967 98.0665 29.6348 97.833Z" fill="#5B5B6C"/>
<path d="M20.9976 92.5173C21.3263 92.7276 21.6698 92.942 22.0184 93.1541L22.1623 92.9177C21.8155 92.7066 21.4739 92.4934 21.1466 92.2842L20.9976 92.5173Z" fill="#5B5B6C"/>
<path d="M16.2062 89.6379C16.1361 89.7198 16.0671 89.8029 16 89.8877C16.2162 89.9176 16.5331 89.9689 16.8785 90.0497L16.9415 89.7803C16.6656 89.7154 16.4103 89.6697 16.2062 89.6379Z" fill="#5B5B6C"/>
<path d="M17.7555 90.019L17.6599 90.2788C18.0661 90.4282 18.3764 90.602 18.5826 90.7946C18.6022 90.8126 18.6228 90.8318 18.645 90.8514L18.8291 90.6448C18.8088 90.6267 18.7896 90.6093 18.7715 90.5924C18.5384 90.3743 18.1967 90.1814 17.7555 90.019Z" fill="#5B5B6C"/>
<path d="M19.4717 91.1509L19.3086 91.3745C19.5894 91.5796 19.9229 91.8109 20.2996 92.0622L20.453 91.8319C20.0797 91.5829 19.7495 91.3538 19.4717 91.1509Z" fill="#5B5B6C"/>
<path d="M37.636 82.612L37.9035 82.6825C38.0053 82.2958 38.109 81.9088 38.2141 81.5229L37.947 81.4502C37.8419 81.8368 37.7378 82.2246 37.636 82.612Z" fill="#5B5B6C"/>
<path d="M38.1687 80.6474L38.4351 80.7215C38.5435 80.333 38.6528 79.9475 38.7623 79.5671L38.4963 79.4907C38.3867 79.8715 38.2772 80.2578 38.1687 80.6474Z" fill="#5B5B6C"/>
<path d="M36.6707 86.5638L36.9407 86.624C37.0245 86.2466 37.1149 85.8533 37.2093 85.4552L36.94 85.3914C36.8455 85.7909 36.7548 86.1853 36.6707 86.5638Z" fill="#5B5B6C"/>
<path d="M37.1353 84.5825L37.4042 84.6485C37.4968 84.2711 37.595 83.8796 37.696 83.4849L37.4278 83.4163C37.3264 83.8114 37.2279 84.204 37.1353 84.5825Z" fill="#5B5B6C"/>
<path d="M38.7285 78.6919L38.9938 78.7701C39.1093 78.3786 39.224 77.9946 39.338 77.6205L39.0735 77.54C38.9595 77.9145 38.8444 78.2997 38.7285 78.6919Z" fill="#5B5B6C"/>
<path d="M33.9297 98.351L34.175 98.479C34.3459 98.1514 34.5145 97.7795 34.6757 97.3737L34.4185 97.2715C34.2606 97.6681 34.0961 98.0315 33.9297 98.351Z" fill="#5B5B6C"/>
<path d="M39.9475 74.8069L40.2098 74.8954C40.3493 74.4826 40.4825 74.1018 40.6057 73.7643L40.3456 73.6694C40.2216 74.0096 40.0877 74.3922 39.9475 74.8069Z" fill="#5B5B6C"/>
<path d="M39.3196 76.7441L39.5837 76.8267C39.707 76.4316 39.8298 76.0471 39.9483 75.6837L39.6852 75.5981C39.5664 75.9623 39.4432 76.3482 39.3196 76.7441Z" fill="#5B5B6C"/>
<path d="M34.7036 96.4981L34.9652 96.5877C35.0906 96.2221 35.2109 95.8339 35.3231 95.4344L35.0567 95.3599C34.946 95.7543 34.8272 96.1372 34.7036 96.4981Z" fill="#5B5B6C"/>
<path d="M36.2576 88.5598L36.5295 88.611C36.5985 88.2436 36.6774 87.8481 36.7641 87.436L36.4933 87.3792C36.4066 87.7931 36.3269 88.1905 36.2576 88.5598Z" fill="#5B5B6C"/>
<path d="M35.2666 94.5616L35.5352 94.6276C35.6293 94.2432 35.7171 93.847 35.7957 93.4503L35.5241 93.3965C35.4463 93.7894 35.3596 94.1812 35.2666 94.5616Z" fill="#5B5B6C"/>
<path d="M35.6729 92.5832L35.9459 92.6289C36.0123 92.2323 36.0709 91.8306 36.1193 91.4358L35.8448 91.4019C35.7964 91.7929 35.7385 92.1903 35.6729 92.5832Z" fill="#5B5B6C"/>
<path d="M35.9373 90.5759L36.2121 90.6087C36.2545 90.2552 36.3125 89.8575 36.3844 89.4262L36.1114 89.3809C36.0391 89.8166 35.9804 90.2184 35.9373 90.5759Z" fill="#5B5B6C"/>
<path d="M52.8344 88.2819C52.423 88.2716 52.0091 88.3295 51.6077 88.4531L51.6892 88.7177C52.0615 88.6026 52.4455 88.5487 52.827 88.5586L52.8344 88.2819Z" fill="#5B5B6C"/>
<path d="M54.692 89.1019L54.8285 88.8613C54.7186 88.799 54.6134 88.744 54.5168 88.6983C54.2419 88.5688 53.9623 88.4677 53.6856 88.3987L53.6184 88.6673C53.8778 88.7322 54.1405 88.8267 54.3987 88.9488C54.4891 88.9912 54.588 89.0429 54.692 89.1019Z" fill="#5B5B6C"/>
<path d="M55.4099 106.796L55.5331 107.044C55.894 106.865 56.2548 106.68 56.6056 106.496L56.4773 106.251C56.1279 106.434 55.7689 106.617 55.4099 106.796Z" fill="#5B5B6C"/>
<path d="M57.208 105.859L57.3405 106.102C57.7135 105.899 58.0665 105.699 58.3897 105.51L58.2495 105.271C57.9289 105.459 57.5784 105.657 57.208 105.859Z" fill="#5B5B6C"/>
<path d="M58.9568 104.842L59.1047 105.076C59.5194 104.814 59.8552 104.58 60.1027 104.38L59.9293 104.165C59.6899 104.358 59.3626 104.586 58.9568 104.842Z" fill="#5B5B6C"/>
<path d="M48.4887 110.289C48.7377 110.117 48.9805 109.957 49.2133 109.813L49.0676 109.577C48.8624 109.705 48.6488 109.845 48.4312 109.994C48.4496 110.092 48.4692 110.191 48.4887 110.289Z" fill="#5B5B6C"/>
<path d="M49.7961 109.157L49.9256 109.401C50.3256 109.19 50.6879 109.035 51.0026 108.94L50.9229 108.675C50.5908 108.775 50.2119 108.937 49.7961 109.157Z" fill="#5B5B6C"/>
<path d="M56.9756 90.7845C57.2552 91.0177 57.5622 91.2793 57.8872 91.5619L58.0688 91.3531C57.7422 91.069 57.4342 90.8063 57.1527 90.572L56.9756 90.7845Z" fill="#5B5B6C"/>
<path d="M51.7112 108.436L51.8042 108.696C52.1229 108.583 52.5011 108.433 52.9287 108.252L52.8206 107.997C52.3978 108.177 52.0244 108.324 51.7112 108.436Z" fill="#5B5B6C"/>
<path d="M53.5793 107.665L53.693 107.917C54.0438 107.759 54.4113 107.588 54.7847 107.409L54.6651 107.16C54.2936 107.338 53.9284 107.508 53.5793 107.665Z" fill="#5B5B6C"/>
<path d="M50.6555 89.2119C50.7459 89.1517 50.8455 89.0909 50.9536 89.0315L50.8204 88.7891C50.6256 88.8964 50.4566 89.0078 50.3164 89.1115C50.4289 89.1455 50.5418 89.1794 50.6555 89.2119Z" fill="#5B5B6C"/>
<path d="M55.5395 89.3169L55.3809 89.5434C55.6631 89.7412 55.9837 89.9825 56.3338 90.2606L56.5061 90.0441C56.1516 89.7626 55.8265 89.5176 55.5395 89.3169Z" fill="#5B5B6C"/>
<path d="M67.4702 101.602C67.3377 101.701 67.0219 101.817 66.5054 101.958L66.5781 102.225C67.144 102.071 67.4698 101.947 67.6354 101.824C67.6694 101.799 67.7026 101.772 67.7351 101.744L67.5528 101.536C67.5255 101.559 67.4982 101.581 67.4702 101.602Z" fill="#5B5B6C"/>
<path d="M64.7724 97.2898L64.5994 97.5056C64.9698 97.803 65.2863 98.0413 65.5671 98.2343L65.7239 98.0063C65.4483 97.817 65.1373 97.5827 64.7724 97.2898Z" fill="#5B5B6C"/>
<path d="M66.4258 98.4262L66.4169 98.4221L66.2981 98.6719L66.3073 98.6763C66.6969 98.8589 67.026 99.0622 67.2858 99.2803L67.4636 99.0681C67.1858 98.835 66.8364 98.6188 66.4258 98.4262Z" fill="#5B5B6C"/>
<path d="M68.0378 99.7263L67.7991 99.8665C67.8913 100.024 67.9529 100.186 67.9817 100.349C68.0153 100.538 68.0053 100.727 67.9522 100.911L68.2178 100.988C68.2831 100.763 68.2953 100.532 68.254 100.3C68.2197 100.105 68.147 99.9119 68.0378 99.7263Z" fill="#5B5B6C"/>
<path d="M65.1101 102.302C64.923 102.347 64.7305 102.392 64.5349 102.439L64.5995 102.708C64.7946 102.661 64.9869 102.616 65.1735 102.571C65.3787 102.523 65.5775 102.475 65.7675 102.43L65.7026 102.161C65.5133 102.207 65.3148 102.254 65.1101 102.302Z" fill="#5B5B6C"/>
<path d="M62.563 102.959L62.6423 103.224C62.9847 103.122 63.3614 103.018 63.7945 102.907L63.7259 102.639C63.2894 102.751 62.9091 102.855 62.563 102.959Z" fill="#5B5B6C"/>
<path d="M60.6443 103.694L60.7727 103.94C61.0693 103.785 61.4349 103.63 61.8592 103.479L61.7666 103.218C61.3235 103.375 60.9568 103.531 60.6443 103.694Z" fill="#5B5B6C"/>
<path d="M60.8384 93.8352C60.6282 93.6441 60.4171 93.4526 60.2065 93.2615L60.0205 93.4666C60.2312 93.6573 60.4418 93.8492 60.6521 94.0399L60.9093 94.2735L61.0952 94.0687L60.8384 93.8352Z" fill="#5B5B6C"/>
<path d="M61.5266 94.8316C61.8288 95.1053 62.1272 95.3743 62.4198 95.6355L62.6043 95.4293C62.3121 95.1684 62.014 94.8995 61.7122 94.6265L61.5266 94.8316Z" fill="#5B5B6C"/>
<path d="M64.1326 96.7635C63.8551 96.5292 63.5581 96.2732 63.2253 95.981L63.0427 96.189C63.377 96.4827 63.6751 96.7399 63.9544 96.9753L64.1326 96.7635Z" fill="#5B5B6C"/>
<path d="M59.5904 92.7036C59.289 92.432 58.9894 92.1638 58.6946 91.9026L58.5112 92.1096C58.8056 92.3704 59.1045 92.6379 59.4055 92.9091L59.5904 92.7036Z" fill="#5B5B6C"/>
<path d="M60.94 77.407C60.94 77.407 47.8426 81.672 40.77 79.7609C40.2425 79.617 35.9406 78.7463 35.9406 78.7463C35.9406 78.7463 38.3682 69.5302 37.6894 63.4095C37.5123 61.7861 37.1286 58.5837 35.9812 55.6765C35.5717 54.6361 35.1511 53.5772 34.7378 52.5479C33.5093 49.5004 32.3656 46.7223 31.8601 45.5048C32.9116 44.778 33.7712 44.5898 33.9705 44.5529C34 44.5493 34.011 44.5492 34.011 44.5492C35.1732 44.3537 36.6563 44.0475 38.2391 43.5716H38.2428C40.2793 42.9517 42.4819 42.0515 44.3893 40.7381L46.1603 39.753L48.0197 38.7163C48.0197 38.7163 50.3072 39.5427 52.6831 42.937C52.0707 43.6638 51.414 44.3353 50.7093 44.9145C51.7571 45.5712 52.6315 45.8811 52.6315 45.8811C53.0853 45.6266 53.5133 45.313 53.9191 44.9477C55.4244 47.7369 56.8042 51.7141 57.4794 57.3404C58.0881 62.4502 59.1617 68.4123 59.955 72.5038C60.5194 75.4369 60.94 77.407 60.94 77.407Z" fill="#F2935C"/>
<path d="M41.7476 45.7248C39.32 45.5182 38.7629 44.3597 38.2427 43.5702C40.2792 42.9504 42.4818 42.0502 44.3892 40.7368L45.5503 40.0845C45.8827 40.0845 46.7029 40.6958 46.7029 41.9233C46.7029 43.5728 44.9758 46.0015 41.7476 45.7248Z" fill="#915837"/>
<path opacity="0.2" d="M49.5151 49.2351L53.7753 47.3276C53.7753 47.3276 57.0869 52.3032 54.387 53.2768C51.4857 54.3235 49.5151 49.2351 49.5151 49.2351Z" fill="#2C2A40"/>
<path d="M44.9638 28.6536C44.9638 28.6536 46.7528 27.2992 46.0197 24.5797C46.0197 24.5797 45.4195 25.612 44.8738 25.715C44.8738 25.715 46.2566 21.9717 42.0285 19.8872C42.0285 19.8872 42.5237 21.9462 42.0208 22.6321C42.0208 22.6321 40.9047 20.2502 39.2501 19.7588C39.2501 19.7588 39.4987 23.9333 36.911 24.7767C35.0652 25.3785 32.6792 27.5224 32.021 31.0465C32.021 31.0465 30.9492 30.737 30.5493 31.1579C30.5493 31.1579 31.9236 31.3896 32.1133 32.2658C32.1133 32.2658 31.5362 31.9736 31.1016 32.3426C31.1016 32.3426 32.0727 32.5433 32.2228 33.3026C32.373 34.0619 36.0491 39.8682 38.2661 40.8356C40.4827 41.8029 44.9638 28.6536 44.9638 28.6536Z" fill="#2C2A40"/>
<path d="M39.2286 41.7165L39.5241 43.4196C39.5993 43.8523 39.9192 44.2047 40.3442 44.3153C44.0119 45.2709 45.6286 42.992 45.8108 42.1094C45.339 41.9213 36.9378 38.5222 35.5613 35.3003C35.5613 35.3003 36.4467 39.632 39.2286 41.7165Z" fill="#F9B587"/>
<path d="M46.0251 32.217C46.3276 32.6376 46.556 33.1028 46.7025 33.5935C46.8305 34.017 46.898 34.4601 46.8999 34.908L46.9135 37.8865C46.9187 38.9944 46.2173 39.9828 45.1692 40.3414C43.9679 40.7524 42.2844 41.1014 40.56 40.7266C37.3056 40.0189 35.7486 36.0764 35.7486 36.0764C35.7486 36.0764 34.3928 31.9893 37.1222 29.1706C39.013 27.2178 41.5502 26.8345 42.9308 26.7836C43.5226 26.7614 44.0775 27.0702 44.3671 27.5871L45.4127 29.4536C45.4957 29.6015 45.5698 29.7532 45.6355 29.9081C45.8569 30.4287 45.9816 30.9869 46.0022 31.5558L46.0251 32.217Z" fill="#F9B587"/>
<path d="M42.1613 30.3205C42.1613 30.3205 39.578 29.2292 38.9353 31.3764L39.3327 31.7055C39.3327 31.7055 40.1893 30.0641 42.2458 30.8902L42.1613 30.3205Z" fill="#2C2A40"/>
<path d="M46.0251 32.2186C46.3276 32.6392 46.556 33.1044 46.7025 33.5951C46.1904 33.4679 45.2909 33.5464 43.7539 34.4027C43.7539 34.4027 44.3479 33.3542 45.2109 32.9982C45.4426 32.9026 45.516 32.6101 45.3566 32.4167L44.2889 31.1203C44.2889 31.1203 44.3472 30.755 44.6733 30.4986C44.8722 30.3422 45.2865 30.0854 45.6351 29.9094C45.8565 30.43 45.9812 30.9882 46.0019 31.5571L46.0251 32.2186Z" fill="#F39568"/>
<path d="M45.3774 29.4923C44.7635 29.7808 44.3274 30.159 44.3274 30.159L44.4595 30.6663C44.8491 30.3383 45.2254 30.1317 45.5755 30.0085C45.7486 29.9476 45.8389 29.7642 45.7707 29.6155C45.77 29.6137 45.7688 29.6119 45.7681 29.61C45.7058 29.4735 45.5305 29.4204 45.3774 29.4923Z" fill="#2C2A40"/>
<path d="M46.1899 34.8257L41.5867 36.1446C41.5867 36.1446 43.0348 38.3409 45.3716 37.3548C47.2038 36.5818 46.1899 34.8257 46.1899 34.8257Z" fill="white"/>
<path d="M44.8754 40.366C44.8754 40.366 41.9888 41.1017 39.007 37.8491C39.007 37.8491 38.875 39.53 40.4754 41.2452C42.0759 42.9604 45.8103 42.1093 45.8103 42.1093L44.8754 40.366Z" fill="#F39568"/>
<path d="M36.6369 34.9811C36.6369 34.9811 35.1762 33.7145 34.2366 34.9092C33.2969 36.1038 35.4028 39.4759 36.9066 38.1001C38.4104 36.7243 36.6369 34.9811 36.6369 34.9811Z" fill="#F9B587"/>
<path d="M42.1609 31.9421C42.1609 31.9421 41.5909 31.2522 40.8803 31.5263C39.8444 31.9262 39.9882 32.8788 39.9882 32.8788C39.9882 32.8788 40.4509 31.1039 42.1609 31.9421Z" fill="#2C2A40"/>
<path d="M44.7056 31.5826C44.7056 31.5826 45.0856 30.4551 45.912 31.3188C45.912 31.3188 45.1767 30.8473 44.7056 31.5826Z" fill="#2C2A40"/>
<path d="M36.0722 30.3915C36.0722 30.3915 37.1923 31.7459 36.2821 33.1601L37.2248 35.328L36.2496 35.5781L35.4391 34.3757L34.813 31.2678C34.813 31.2678 35.5686 29.8459 36.0722 30.3915Z" fill="#2C2A40"/>
<path d="M59.7596 32.5371C59.7596 32.5371 59.6415 33.1274 59.398 34.0645C58.6048 37.0898 56.476 43.727 52.6317 45.8816C52.6317 45.8816 51.7573 45.5717 50.7095 44.915C49.0898 43.9004 47.0607 42.0668 47.2451 39.2923C47.2451 39.2923 50.5435 33.8136 51.9417 29.9582C52.0709 29.6077 52.1816 29.2682 52.2738 28.9473L58.4056 31.8877L59.7596 32.5371Z" fill="#F2935C"/>
<path d="M59.7595 32.5371C59.7595 32.5371 59.6414 33.1274 59.3979 34.0645C57.9591 32.9503 53.3879 30.6702 51.9417 29.9582C52.0708 29.6077 52.1815 29.2682 52.2737 28.9473L58.4055 31.8877L59.7595 32.5371Z" fill="#2C2A40"/>
<path opacity="0.2" d="M59.7601 32.5354C59.7601 32.5354 58.0268 41.2539 53.9183 44.9462C53.5117 44.1921 53.0963 43.5251 52.6824 42.9355C55.808 39.211 57.7228 33.9714 58.4035 31.8857L59.7601 32.5354Z" fill="#2C2A40"/>
<path d="M36.6011 50.3045C36.4867 51.0277 36.3465 51.522 36.3465 51.522L35.9813 55.6763L35.568 59.6756L35.45 60.8341C34.7527 61.8118 32.3915 61.9003 30.1594 61.738V61.7343C27.8166 61.5646 25.614 61.1145 25.614 61.1145C25.614 61.1145 25.673 60.6644 25.8059 59.8933C26.1232 58.0338 26.8721 54.3002 28.2815 50.4706C29.2702 47.7921 30.6833 46.3126 31.8602 45.5046C32.9117 44.7778 33.7713 44.5897 33.9705 44.5528C34 44.5491 34.0111 44.5491 34.0111 44.5491C37.0438 44.8332 36.9036 48.3824 36.6011 50.3045Z" fill="#F2935C"/>
<path d="M35.568 59.6748L35.45 60.8333C34.7527 61.811 32.3915 61.8995 30.1594 61.7372V61.7335C27.8166 61.5638 25.614 61.1137 25.614 61.1137C25.614 61.1137 25.673 60.6636 25.8059 59.8925C26.7836 60.1507 29.1119 60.4861 31.1828 60.5134C33.5082 60.5444 34.8597 59.9921 35.568 59.6748Z" fill="#915837"/>
<path d="M44.9099 40.446C44.9099 40.446 49.6988 39.7141 52.7399 42.4214C55.7819 45.1275 58.8024 50.8059 56.9636 54.213L57.7085 59.148C57.7085 59.148 62.7168 51.2807 57.3429 43.6588C53.7269 38.5309 49.1055 38.4058 46.7701 38.75C46.5155 39.4805 45.9426 40.031 45.1826 40.2937L44.9099 40.446Z" fill="#915837"/>
<path d="M33.3604 44.7233C33.3604 44.7233 34.7321 41.5907 37.2877 41.9518C39.8434 42.313 47.4952 52.7098 45.8763 60.3557C44.257 68.0016 37.6426 68.8147 37.6426 68.8147C37.6426 68.8147 36.3621 66.8734 37.8013 65.0681C37.8013 65.0681 42.1478 64.0023 43.321 59.0245C44.4943 54.0468 38.5801 43.9504 36.4071 43.6405C35.6249 43.5291 35.0364 44.3607 35.0364 44.3607C35.0364 44.3607 34.1167 44.6112 33.3604 44.7233Z" fill="#915837"/>
<path opacity="0.2" d="M60.9408 77.4076C60.9408 77.4076 47.8408 81.6736 40.7697 79.7599C40.2421 79.6175 35.9388 78.7476 35.9388 78.7476C35.9388 78.7476 38.369 69.5285 37.6909 63.4082C37.5112 61.7867 37.1275 58.5835 35.9823 55.6748L35.4499 60.8355C34.7519 61.8103 32.3921 61.9007 30.1597 61.7372C30.1597 61.7372 33.7225 59.8398 34.1066 55.5793C34.218 54.3396 34.4567 53.342 34.7382 52.5499C35.423 50.6203 36.3664 49.9138 36.3664 49.9138C36.3664 49.9138 36.4538 50.0536 36.5995 50.3042C37.2939 51.4903 39.3057 55.1535 39.5415 58.1028C39.8274 61.6738 40.9578 69.2798 46.4702 73.7839C49.5368 76.2897 59.7823 75.896 59.9458 72.6044C59.9469 72.5697 59.9494 72.5361 59.9531 72.5047C60.5195 75.4382 60.9408 77.4076 60.9408 77.4076Z" fill="#2C2A40"/>
</svg>
