<svg width="252" height="251" viewBox="0 0 252 251" fill="none" xmlns="http://www.w3.org/2000/svg">
<g clip-path="url(#clip0_21264_31473)">
<path d="M226.35 200.044H209.723V200.169H226.35V200.044Z" fill="#EBEBEB"/>
<path d="M166.773 201.407H162.409V201.532H166.773V201.407Z" fill="#EBEBEB"/>
<path d="M209.221 195.382H199.586V195.508H209.221V195.382Z" fill="#EBEBEB"/>
<path d="M48.5174 196.226H26.8345V196.351H48.5174V196.226Z" fill="#EBEBEB"/>
<path d="M56.1662 196.226H52.9871V196.351H56.1662V196.226Z" fill="#EBEBEB"/>
<path d="M113.524 198.346H66.4985V198.471H113.524V198.346Z" fill="#EBEBEB"/>
<path d="M120.177 169.576H23.2416C21.6618 169.576 20.3762 168.29 20.3762 166.71V30.4514C20.3762 28.8716 21.6618 27.5859 23.2416 27.5859H120.177C121.757 27.5859 123.042 28.8716 123.042 30.4514V166.71C123.042 168.29 121.757 169.576 120.177 169.576ZM23.2416 27.7119C21.7306 27.7119 20.5017 28.9408 20.5017 30.4519V166.711C20.5017 168.222 21.7306 169.451 23.2416 169.451H120.177C121.688 169.451 122.917 168.222 122.917 166.711V30.4514C122.917 28.9408 121.688 27.7114 120.177 27.7114L23.2416 27.7119Z" fill="#EBEBEB"/>
<path d="M228.758 169.576H131.823C130.243 169.576 128.958 168.29 128.958 166.71V30.4514C128.958 28.8716 130.243 27.5859 131.823 27.5859H228.758C230.339 27.5859 231.624 28.8716 231.624 30.4514V166.71C231.624 168.29 230.338 169.576 228.758 169.576ZM131.823 27.7119C130.312 27.7119 129.083 28.9408 129.083 30.4519V166.711C129.083 168.222 130.312 169.451 131.823 169.451H228.758C230.269 169.451 231.498 168.222 231.498 166.711V30.4514C231.498 28.9408 230.269 27.7114 228.758 27.7114L131.823 27.7119Z" fill="#EBEBEB"/>
<path d="M251.5 191.964H0.5V192.089H251.5V191.964Z" fill="#EBEBEB"/>
<path d="M142.552 192.012H222.613V126.239L142.552 126.239V192.012Z" fill="#F5F5F5"/>
<path d="M142.552 127.586H225.848L211.022 108.177H142.552V127.586Z" fill="#EBEBEB"/>
<path d="M202.531 172.376C202.531 168.706 205.506 165.73 209.177 165.73C212.847 165.73 215.823 168.706 215.823 172.376V188.777H202.531V172.376H202.531Z" fill="#E6E6E6"/>
<path d="M179.141 172.376C179.141 168.706 182.116 165.73 185.787 165.73C189.457 165.73 192.433 168.706 192.433 172.376V188.777H179.141V172.376Z" fill="#E6E6E6"/>
<path d="M155.752 172.376C155.752 168.706 158.727 165.73 162.397 165.73C166.068 165.73 169.043 168.706 169.043 172.376V188.777H155.752V172.376Z" fill="#E6E6E6"/>
<path d="M202.531 136.732C202.531 133.062 205.506 130.086 209.177 130.086C212.847 130.086 215.823 133.062 215.823 136.732V153.133H202.531V136.732H202.531Z" fill="#E6E6E6"/>
<path d="M179.141 136.732C179.141 133.062 182.116 130.086 185.787 130.086C189.457 130.086 192.433 133.062 192.433 136.732V153.133H179.141V136.732Z" fill="#E6E6E6"/>
<path d="M155.752 136.732C155.752 133.062 158.727 130.086 162.397 130.086C166.068 130.086 169.043 133.062 169.043 136.732V153.133H155.752V136.732Z" fill="#E6E6E6"/>
<path d="M145.726 159.403H225.848V155.634H145.726V159.403Z" fill="#E6E6E6"/>
<path d="M110.18 126.238H30.1194V192.012H110.18V126.238Z" fill="#F5F5F5"/>
<path d="M110.18 127.586H26.8845L41.7106 108.177H110.18V127.586Z" fill="#EBEBEB"/>
<path d="M50.2019 172.376C50.2019 168.706 47.2265 165.73 43.5559 165.73C39.8858 165.73 36.9099 168.706 36.9099 172.376V188.777H50.2014L50.2019 172.376Z" fill="#E6E6E6"/>
<path d="M73.5915 172.376C73.5915 168.706 70.6162 165.73 66.9455 165.73C63.2754 165.73 60.2996 168.706 60.2996 172.376V188.777H73.591L73.5915 172.376Z" fill="#E6E6E6"/>
<path d="M96.9814 172.376C96.9814 168.706 94.006 165.73 90.3354 165.73C86.6653 165.73 83.6899 168.706 83.6899 172.376V188.777H96.9814V172.376Z" fill="#E6E6E6"/>
<path d="M50.2019 136.732C50.2019 133.062 47.2265 130.086 43.5559 130.086C39.8858 130.086 36.9099 133.062 36.9099 136.732V153.133H50.2014L50.2019 136.732Z" fill="#E6E6E6"/>
<path d="M73.5915 136.732C73.5915 133.062 70.6162 130.086 66.9455 130.086C63.2754 130.086 60.2996 133.062 60.2996 136.732V153.133H73.591L73.5915 136.732Z" fill="#E6E6E6"/>
<path d="M96.9814 136.732C96.9814 133.062 94.006 130.086 90.3354 130.086C86.6653 130.086 83.6899 133.062 83.6899 136.732V153.133H96.9814V136.732Z" fill="#E6E6E6"/>
<path d="M107.007 155.634H26.8845V159.404H107.007V155.634Z" fill="#E6E6E6"/>
<path d="M151.424 133.727H101.554V192.012H151.424V133.727Z" fill="#F5F5F5"/>
<path d="M145.223 131.965H107.754V88.1724L126.489 71.7861L145.223 88.1724V131.965Z" fill="#F5F5F5"/>
<path d="M138.298 162.87C138.298 156.348 133.011 151.061 126.489 151.061C119.967 151.061 114.68 156.348 114.68 162.87V192.012H138.297L138.298 162.87Z" fill="#E6E6E6"/>
<path d="M153.58 130.295H99.3975V134.064H153.58V130.295Z" fill="#E6E6E6"/>
<path d="M126.489 104.942C132.742 104.942 137.81 99.8732 137.81 93.6204C137.81 87.3677 132.742 82.2988 126.489 82.2988C120.236 82.2988 115.167 87.3677 115.167 93.6204C115.167 99.8732 120.236 104.942 126.489 104.942Z" fill="#E6E6E6"/>
<path d="M126.912 96.0666H125.006L125.294 85.2013C125.304 84.8409 125.599 84.5532 125.959 84.5532C126.32 84.5532 126.615 84.8404 126.624 85.2013L126.912 96.0666Z" fill="#FAFAFA"/>
<path d="M125.006 96.0667V94.1606L132.682 94.4483C132.936 94.4578 133.14 94.753 133.14 95.1134C133.14 95.4744 132.937 95.769 132.682 95.7786L125.006 96.0667Z" fill="#FAFAFA"/>
<path d="M35.1576 55.2199C47.4476 59.9954 87.2185 54.5507 86.9982 45.5147C86.589 28.7158 72.78 43.1719 72.78 43.1719C72.78 43.1719 67.89 34.4707 60.5503 33.8011C53.2101 33.1319 51.936 43.5067 51.936 43.5067C51.936 43.5067 44.5089 39.825 41.1621 40.829C37.8152 41.833 37.6762 47.857 37.6762 47.857C37.6762 47.857 24.4384 51.0548 35.1576 55.2199Z" fill="#F5F5F5"/>
<path d="M97.9753 65.4635C109.55 71.7792 149.69 71.49 150.634 62.5007C152.387 45.7886 136.834 58.3502 136.834 58.3502C136.834 58.3502 133.103 49.0928 125.91 47.4854C118.716 45.8785 116.12 56.0033 116.12 56.0033C116.12 56.0033 109.227 51.398 105.779 51.9637C102.332 52.5295 101.419 58.4857 101.419 58.4857C101.419 58.4857 87.8805 59.9555 97.9753 65.4635Z" fill="#F5F5F5"/>
<path d="M169.079 54.5597C174.375 58.3584 193.248 57.2555 193.896 51.4499C195.102 40.6569 187.506 49.095 187.506 49.095C187.506 49.095 185.963 43.2236 182.619 42.3541C179.275 41.4847 177.823 48.0584 177.823 48.0584C177.823 48.0584 174.688 45.2527 173.055 45.6954C171.421 46.1382 170.857 49.991 170.857 49.991C170.857 49.991 164.459 51.2465 169.079 54.5597Z" fill="#F5F5F5"/>
<path d="M190.378 67.1475C196.674 71.6635 219.111 70.3522 219.882 63.4502C221.315 50.6196 212.284 60.6506 212.284 60.6506C212.284 60.6506 210.451 53.6708 206.475 52.6371C202.5 51.6035 200.773 59.4187 200.773 59.4187C200.773 59.4187 197.047 56.0834 195.105 56.6095C193.164 57.1356 192.492 61.7163 192.492 61.7163C192.492 61.7163 184.887 63.2083 190.378 67.1475Z" fill="#F0F0F0"/>
<path d="M126 214.362C179.755 214.362 223.332 211.817 223.332 208.678C223.332 205.539 179.755 202.994 126 202.994C72.2449 202.994 28.6677 205.539 28.6677 208.678C28.6677 211.817 72.2449 214.362 126 214.362Z" fill="#F5F5F5"/>
<path d="M140.544 104.616H152.116C156.914 104.616 160.956 108.249 161.416 113.024C161.418 113.046 161.42 113.068 161.422 113.09C162.002 119.578 161.91 132.65 161.422 139.146C161.402 139.406 161.369 139.725 161.326 140.085C160.772 144.743 156.806 148.244 152.115 148.244H135.929C131.982 148.244 128.406 145.768 127.167 142.02C127.115 141.863 127.074 141.719 127.044 141.59C126.295 138.313 126.038 131.352 127.044 128.145C127.604 126.358 130.762 123.785 131.322 121.998C132.189 119.236 130.215 113.096 131.322 110.421C131.69 109.534 132.984 108.207 134.257 107.044C135.975 105.478 138.219 104.616 140.544 104.616Z" fill="#F2935C"/>
<path opacity="0.5" d="M140.544 104.616H152.116C156.914 104.616 160.956 108.249 161.416 113.024C161.418 113.046 161.42 113.068 161.422 113.09C162.002 119.578 161.91 132.65 161.422 139.146C161.402 139.406 161.369 139.725 161.326 140.085C160.772 144.743 156.806 148.244 152.115 148.244H135.929C131.982 148.244 128.406 145.768 127.167 142.02C127.115 141.863 127.074 141.719 127.044 141.59C126.295 138.313 126.038 131.352 127.044 128.145C127.604 126.358 130.762 123.785 131.322 121.998C132.189 119.236 130.215 113.096 131.322 110.421C131.69 109.534 132.984 108.207 134.257 107.044C135.975 105.478 138.219 104.616 140.544 104.616Z" fill="black"/>
<path d="M135.946 106.602C135.842 106.45 135.652 106.301 135.416 106.156C135.01 106.422 134.62 106.714 134.257 107.045C132.984 108.207 131.69 109.535 131.322 110.422C130.215 113.096 132.189 119.237 131.322 121.999C130.761 123.785 127.604 126.359 127.044 128.146C126.038 131.353 126.295 138.314 127.044 141.591C127.073 141.719 127.115 141.864 127.167 142.021C128.244 145.281 131.092 147.577 134.412 148.12C134.773 147.942 135.07 147.752 135.268 147.55C136.628 146.164 137.722 109.18 135.946 106.602Z" fill="#F2935C"/>
<path opacity="0.2" d="M135.946 106.602C135.842 106.45 135.652 106.301 135.416 106.156C135.01 106.422 134.62 106.714 134.257 107.045C132.984 108.207 131.69 109.535 131.322 110.422C130.215 113.096 132.189 119.237 131.322 121.999C130.761 123.785 127.604 126.359 127.044 128.146C126.038 131.353 126.295 138.314 127.044 141.591C127.073 141.719 127.115 141.864 127.167 142.021C128.244 145.281 131.092 147.577 134.412 148.12C134.773 147.942 135.07 147.752 135.268 147.55C136.628 146.164 137.722 109.18 135.946 106.602Z" fill="white"/>
<path opacity="0.3" d="M131.895 143.122L128.695 141.577C128.083 141.281 127.694 140.661 127.694 139.982V133.114C127.694 132.135 128.487 131.342 129.465 131.342H132.963C133.966 131.342 134.769 132.174 134.734 133.177L134.436 141.59C134.391 142.868 133.047 143.678 131.895 143.122Z" fill="black"/>
<path d="M169.031 195.709L162.74 196.232L163.807 203.624L169.064 203.196L169.031 195.709Z" fill="#CE7A63"/>
<path d="M157.009 173.947C154.554 164.488 147.155 153.361 152.066 144.685L169.609 146.323C169.609 146.323 170.252 162.798 170.373 171.644C170.501 180.843 169.708 198.227 169.708 198.227L162.501 198.774C162.501 198.774 157.584 184.563 157.009 173.947Z" fill="#F2935C"/>
<path opacity="0.3" d="M157.009 173.947C154.554 164.488 147.155 153.361 152.066 144.685L169.609 146.323C169.609 146.323 170.252 162.798 170.373 171.644C170.501 180.843 169.708 198.227 169.708 198.227L162.501 198.774C162.501 198.774 157.584 184.563 157.009 173.947Z" fill="black"/>
<path d="M162.163 199.057L169.952 198.485C170.089 198.475 170.197 198.366 170.205 198.229L170.373 195.34C170.383 195.169 170.234 195.032 170.065 195.054L161.423 196.202C161.256 196.224 161.15 196.39 161.197 196.55L161.881 198.863C161.918 198.986 162.035 199.067 162.163 199.057Z" fill="#F2935C"/>
<path opacity="0.2" d="M152.136 153.064C152.053 155.25 152.169 157.498 152.407 159.761C153.268 162.736 154.366 165.716 155.354 168.606C156.647 160.424 156.651 150.887 152.136 153.064Z" fill="black"/>
<path d="M141.526 194.822L135.522 192.86L133.133 199.917L138.147 201.565L141.526 194.822Z" fill="#CE7A63"/>
<path d="M138.546 170.886C137.692 161.323 134.54 147.354 137.995 143.27L158.518 145.252C158.518 145.252 154.472 163.116 152.748 171.938C150.957 181.112 140.761 197.266 140.761 197.266L134.284 195.1C134.284 195.101 136.373 181.8 138.546 170.886Z" fill="#F2935C"/>
<path opacity="0.3" d="M138.546 170.886C137.692 161.323 134.54 147.354 137.995 143.27L158.518 145.252C158.518 145.252 154.472 163.116 152.748 171.938C150.957 181.112 140.761 197.266 140.761 197.266L134.284 195.1C134.284 195.101 136.373 181.8 138.546 170.886Z" fill="black"/>
<path d="M133.753 195.193L141.084 197.665C141.205 197.706 141.335 197.656 141.397 197.545L142.758 195.106C142.845 194.95 142.761 194.748 142.589 194.699L134.491 192.36C134.347 192.319 134.201 192.402 134.163 192.548L133.57 194.853C133.533 194.996 133.614 195.146 133.753 195.193Z" fill="#F2935C"/>
<path d="M173.413 123.898L172.027 124.002C171.981 124.006 171.885 124.065 171.811 124.101L171.568 124.227C171.407 124.313 171.243 124.397 171.079 124.475C170.757 124.64 170.431 124.785 170.121 124.913C169.777 125.053 169.443 125.164 169.143 125.236L168.842 119.697C168.789 118.599 168.711 117.502 168.645 116.404C168.57 115.314 168.496 114.194 168.393 113.144L168.386 113.077C168.166 110.884 166.296 109.191 164.053 109.231C161.69 109.272 159.808 111.222 159.85 113.585C159.871 114.777 159.948 115.899 160.041 117.049C160.142 118.191 160.252 119.332 160.405 120.471L160.632 122.18L160.906 123.888C161.083 125.027 161.315 126.165 161.547 127.303L161.651 127.819C161.719 128.141 161.85 128.456 162.048 128.744C162.437 129.311 162.897 129.906 163.543 130.458C164.175 131.008 165 131.519 165.926 131.803C166.849 132.096 167.818 132.138 168.637 132.016C169.464 131.897 170.156 131.649 170.75 131.356C171.928 130.756 172.756 130.024 173.464 129.264C173.816 128.883 174.126 128.485 174.418 128.083C174.56 127.878 174.697 127.671 174.83 127.461L175.023 127.136L175.23 126.774C175.414 126.451 175.508 126.073 175.478 125.675C175.399 124.614 174.475 123.818 173.413 123.898Z" fill="#263238"/>
<path d="M166.891 108.602C170.169 111.348 170.467 120.768 170.467 120.768C168.992 123.801 165.477 124.305 162.481 124.768C162.481 124.768 158.665 122.213 157.838 115.507C157.231 110.576 160.259 103.046 166.891 108.602Z" fill="#F2935C"/>
<g opacity="0.2">
<path d="M166.891 108.602C170.169 111.348 170.467 120.768 170.467 120.768C168.992 123.801 165.477 124.305 162.481 124.768C162.481 124.768 158.665 122.213 157.838 115.507C157.231 110.576 160.259 103.046 166.891 108.602Z" fill="black"/>
</g>
<path d="M162.623 106.413C157.493 105.373 150.566 104.769 145.123 105.004C141.726 105.15 139.158 107.008 138.901 113.912C138.38 127.917 136.057 138.654 137.347 143.832C137.347 143.832 162.408 153.708 170.441 147.34C173.847 130.753 169.178 116.257 166.993 110.2C166.294 108.262 164.642 106.822 162.623 106.413Z" fill="#F2935C"/>
<path d="M168.852 200.555H163.538C163.345 200.555 163.188 200.689 163.161 200.878L162.555 205.082C162.492 205.518 162.867 205.931 163.314 205.924C165.167 205.891 166.059 205.783 168.396 205.783C169.834 205.783 172.019 205.933 174.004 205.933C175.946 205.933 176.096 203.969 175.269 203.792C171.562 202.994 170.891 201.895 169.643 200.846C169.418 200.657 169.135 200.555 168.852 200.555Z" fill="#263238"/>
<path d="M170.628 201.382C171.099 201.382 171.533 201.309 171.776 201.091C171.93 200.952 171.998 200.769 171.978 200.545C171.966 200.412 171.9 200.309 171.788 200.247C171.208 199.93 169.322 200.893 169.109 201.004C169.067 201.026 169.044 201.072 169.05 201.119C169.057 201.166 169.092 201.204 169.14 201.213C169.541 201.293 170.107 201.382 170.628 201.382ZM171.471 200.403C171.558 200.403 171.629 200.416 171.68 200.444C171.726 200.469 171.749 200.506 171.754 200.565C171.768 200.716 171.726 200.834 171.626 200.924C171.339 201.182 170.561 201.227 169.512 201.053C170.161 200.741 171.023 200.403 171.471 200.403Z" fill="#F2935C"/>
<path d="M169.161 201.215C169.177 201.215 169.192 201.211 169.207 201.205C169.771 200.95 170.886 199.93 170.799 199.394C170.779 199.267 170.689 199.109 170.378 199.078C170.149 199.055 169.94 199.119 169.757 199.271C169.163 199.767 169.054 201.04 169.049 201.093C169.046 201.133 169.064 201.171 169.096 201.194C169.116 201.208 169.139 201.215 169.161 201.215ZM170.288 199.297C170.31 199.297 170.333 199.298 170.355 199.301C170.56 199.321 170.573 199.403 170.578 199.43C170.63 199.752 169.873 200.554 169.299 200.903C169.354 200.532 169.512 199.768 169.902 199.443C170.019 199.345 170.146 199.297 170.288 199.297Z" fill="#F2935C"/>
<path d="M139.088 198.811L133.971 197.377C133.785 197.325 133.597 197.412 133.52 197.586L131.802 201.471C131.624 201.874 131.874 202.373 132.305 202.486C134.098 202.955 140.613 204.979 142.525 205.515C144.395 206.039 145.068 204.19 144.32 203.795C140.966 202.027 140.689 200.651 139.77 199.305C139.604 199.062 139.36 198.887 139.088 198.811Z" fill="#263238"/>
<path d="M140.574 200.086C141.028 200.213 141.464 200.26 141.757 200.115C141.944 200.023 142.059 199.865 142.099 199.644C142.123 199.513 142.088 199.396 141.996 199.306C141.524 198.845 139.448 199.263 139.214 199.312C139.167 199.321 139.132 199.36 139.125 199.407C139.119 199.454 139.143 199.5 139.186 199.521C139.552 199.707 140.073 199.945 140.574 200.086ZM141.65 199.371C141.734 199.395 141.799 199.426 141.84 199.467C141.878 199.503 141.89 199.545 141.879 199.604C141.851 199.753 141.779 199.855 141.658 199.914C141.312 200.085 140.551 199.919 139.588 199.468C140.297 199.344 141.219 199.25 141.65 199.371Z" fill="#F2935C"/>
<path d="M139.207 199.529C139.222 199.533 139.238 199.534 139.254 199.532C139.866 199.439 141.215 198.758 141.275 198.219C141.29 198.091 141.246 197.914 140.956 197.8C140.741 197.716 140.522 197.723 140.306 197.82C139.6 198.136 139.151 199.333 139.132 199.383C139.118 199.42 139.125 199.462 139.15 199.493C139.165 199.51 139.185 199.523 139.207 199.529ZM140.81 197.987C140.831 197.993 140.852 198 140.873 198.009C141.065 198.084 141.056 198.166 141.053 198.194C141.016 198.517 140.071 199.086 139.424 199.266C139.577 198.923 139.935 198.231 140.398 198.023C140.538 197.961 140.673 197.949 140.81 197.987Z" fill="#F2935C"/>
<path opacity="0.2" d="M137.699 129.596C137.462 131.973 137.249 134.148 137.113 136.097C139.529 136.459 143.689 135.326 150.321 128.624L148.461 127.568L137.699 129.596Z" fill="black"/>
<path d="M160.541 107.749C159.935 107.029 159.201 107.343 158.971 106.326C158.896 105.602 159.071 104.869 159.559 104.092L152.021 99.0337C151.895 101.974 151.79 104.296 150.382 105.333C149.794 107.478 153.628 110.044 159.054 110.599C162.5 110.952 161.412 108.785 160.541 107.749Z" fill="#CE7A63"/>
<path opacity="0.2" d="M159.418 104.33L153.291 102.152C154.635 104.801 157.361 106.443 158.955 105.988C158.959 105.447 159.103 104.9 159.418 104.33Z" fill="black"/>
<path d="M158.201 89.7623C154.135 88.4421 150.215 91.5439 150.655 95.3832C151.096 99.2225 151.484 101.821 153.962 103.353C158.886 106.398 161.647 104.187 162.449 100.295C163.17 96.7928 162.328 91.1027 158.201 89.7623Z" fill="#CE7A63"/>
<path d="M158.485 100.524C158.651 100.529 158.826 100.521 159.01 100.497C159.067 100.49 159.107 100.438 159.1 100.381C159.093 100.323 159.041 100.28 158.983 100.29C157.435 100.484 156.577 99.4978 156.568 99.4877C156.53 99.4436 156.465 99.438 156.421 99.4757C156.377 99.5128 156.372 99.5791 156.409 99.6228C156.442 99.6624 157.161 100.489 158.485 100.524Z" fill="#263238"/>
<path d="M157.415 96.4693C157.429 96.8061 157.62 97.0697 157.84 97.0582C158.061 97.0466 158.227 96.764 158.213 96.4271C158.198 96.0903 158.008 95.8262 157.787 95.8383C157.567 95.8498 157.4 96.1325 157.415 96.4693Z" fill="#263238"/>
<path d="M161.369 96.3238C161.384 96.6606 161.575 96.9241 161.795 96.9126C162.015 96.9011 162.182 96.6184 162.168 96.2816C162.153 95.9448 161.962 95.6812 161.742 95.6927C161.521 95.7043 161.354 95.9864 161.369 96.3238Z" fill="#263238"/>
<path d="M160.046 96.5566L159.962 99.3879C159.962 99.3879 160.868 99.6344 161.42 99.152C161.148 97.6952 160.046 96.5566 160.046 96.5566Z" fill="#BA4D3C"/>
<path d="M156.202 95.5825C156.169 95.5875 156.135 95.5845 156.102 95.5719C156 95.5333 155.95 95.4183 155.99 95.3159C156.387 94.2893 157.279 94.0835 157.316 94.0755C157.423 94.0519 157.528 94.1201 157.55 94.2271C157.572 94.334 157.504 94.4394 157.398 94.463C157.368 94.4695 156.675 94.6372 156.358 95.4565C156.332 95.5257 156.271 95.5719 156.202 95.5825Z" fill="#263238"/>
<path d="M162.793 94.9565C162.729 94.954 162.668 94.9199 162.633 94.8611C162.187 94.1127 161.475 94.0725 161.444 94.071C161.335 94.066 161.251 93.9741 161.256 93.8652C161.261 93.7562 161.353 93.6714 161.463 93.6749C161.502 93.6774 162.416 93.7181 162.975 94.6558C163.03 94.7492 162.999 94.8712 162.905 94.9279C162.87 94.949 162.831 94.958 162.793 94.9565Z" fill="#263238"/>
<path d="M152.608 98.7638C152.608 98.7638 154.09 99.2743 153.867 97.0585C153.645 94.8431 153.891 91.9823 153.891 91.9823C153.891 91.9823 163.754 93.0284 162.814 90.0154C162.294 88.3473 160.215 90.1063 160.215 90.1063C160.215 90.1063 161.136 88.1686 159.801 87.7795C158.648 87.4437 158.213 89.2699 158.213 89.2699C158.213 89.2699 150.858 87.2936 149.789 92.6072C148.72 97.9214 152.608 98.7638 152.608 98.7638Z" fill="#263238"/>
<path d="M149.136 87.7391C144.549 91.8042 147.126 95.5597 148.821 97.271C147.968 98.3925 145.914 101.286 146.744 102.152C147.589 103.035 149.209 99.4743 149.779 98.1274C149.877 98.2037 149.935 98.2449 149.935 98.2449C149.935 98.2449 151.052 93.2766 158.213 89.2707C158.213 89.2707 154.444 83.0338 149.136 87.7391Z" fill="#F2935C"/>
<path d="M157.826 88.7207C157.609 88.4391 157.304 88.0796 156.921 87.7137C156.469 87.5355 155.946 87.5375 155.362 87.8773C154.04 88.6469 154.557 89.6444 155.163 90.307C155.698 89.9019 156.674 89.2322 157.826 88.7207Z" fill="#263238"/>
<path opacity="0.5" d="M147.256 89.9854C145.492 93.1334 147.433 95.8643 148.809 97.2583L149.984 95.6921C148.155 93.6695 147.475 91.0817 147.256 89.9854Z" fill="white"/>
<path d="M161.848 94.9854C161.238 94.9854 160.73 95.5381 160.62 96.266C160.364 96.1068 160.038 96.1058 159.781 96.2634C159.642 95.537 159.005 94.9854 158.239 94.9854C157.406 94.9854 156.729 95.639 156.678 96.4592H151.052V96.6535H156.678C156.729 97.4738 157.406 98.1274 158.239 98.1274C159.105 98.1274 159.81 97.4226 159.81 96.5561C159.81 96.5325 159.804 96.5104 159.803 96.4868C160.033 96.288 160.375 96.2905 160.602 96.4944C160.601 96.5154 160.597 96.535 160.597 96.5561C160.597 97.4226 161.158 98.1274 161.848 98.1274C162.538 98.1274 163.099 97.4226 163.099 96.5561C163.099 95.6897 162.538 94.9854 161.848 94.9854ZM158.239 97.9336C157.48 97.9336 156.863 97.3156 156.863 96.5566C156.863 95.7976 157.48 95.1801 158.239 95.1801C158.998 95.1801 159.616 95.7981 159.616 96.5566C159.616 97.3156 158.998 97.9336 158.239 97.9336ZM161.848 97.9336C161.265 97.9336 160.792 97.3156 160.792 96.5566C160.792 95.7976 161.265 95.1801 161.848 95.1801C162.431 95.1801 162.905 95.7981 162.905 96.5566C162.904 97.3156 162.431 97.9336 161.848 97.9336Z" fill="#F2935C"/>
<path opacity="0.5" d="M161.848 94.9854C161.238 94.9854 160.73 95.5381 160.62 96.266C160.364 96.1068 160.038 96.1058 159.781 96.2634C159.642 95.537 159.005 94.9854 158.239 94.9854C157.406 94.9854 156.729 95.639 156.678 96.4592H151.052V96.6535H156.678C156.729 97.4738 157.406 98.1274 158.239 98.1274C159.105 98.1274 159.81 97.4226 159.81 96.5561C159.81 96.5325 159.804 96.5104 159.803 96.4868C160.033 96.288 160.375 96.2905 160.602 96.4944C160.601 96.5154 160.597 96.535 160.597 96.5561C160.597 97.4226 161.158 98.1274 161.848 98.1274C162.538 98.1274 163.099 97.4226 163.099 96.5561C163.099 95.6897 162.538 94.9854 161.848 94.9854ZM158.239 97.9336C157.48 97.9336 156.863 97.3156 156.863 96.5566C156.863 95.7976 157.48 95.1801 158.239 95.1801C158.998 95.1801 159.616 95.7981 159.616 96.5566C159.616 97.3156 158.998 97.9336 158.239 97.9336ZM161.848 97.9336C161.265 97.9336 160.792 97.3156 160.792 96.5566C160.792 95.7976 161.265 95.1801 161.848 95.1801C162.431 95.1801 162.905 95.7981 162.905 96.5566C162.904 97.3156 162.431 97.9336 161.848 97.9336Z" fill="white"/>
<path d="M149.384 98.6531C149.875 99.4935 150.711 100.026 151.491 100.213C152.665 100.494 153.217 99.4327 152.862 98.3484C152.542 97.3725 151.546 96.0503 150.382 96.2521C149.236 96.4514 148.823 97.6923 149.384 98.6531Z" fill="#CE7A63"/>
<path d="M150.277 105.798C148.985 104.446 146.791 104.249 145.012 104.665V105.007C146.654 105.158 149.35 106.361 149.916 113.753C150.664 123.526 140.113 135.329 136.836 138.631C136.245 139.226 135.887 140.012 135.824 140.848L135.696 142.54C135.634 143.372 136.599 143.87 137.24 143.337C141.686 139.639 153.291 128.737 153.291 115.706C153.29 110.391 151.844 107.438 150.277 105.798Z" fill="#F2935C"/>
<path opacity="0.5" d="M150.277 105.798C148.985 104.446 146.791 104.249 145.012 104.665V105.007C146.654 105.158 149.35 106.361 149.916 113.753C150.664 123.526 140.113 135.329 136.836 138.631C136.245 139.226 135.887 140.012 135.824 140.848L135.696 142.54C135.634 143.372 136.599 143.87 137.24 143.337C141.686 139.639 153.291 128.737 153.291 115.706C153.29 110.391 151.844 107.438 150.277 105.798Z" fill="black"/>
<path d="M151.402 125.852C151.046 124.722 149.841 124.095 148.711 124.451L148.611 124.482C147.4 124.864 146.122 125.293 144.888 125.655C143.647 126.025 142.416 126.368 141.222 126.624C140.626 126.752 140.044 126.87 139.484 126.944C139.118 126.993 138.765 127.025 138.436 127.042C138.481 126.727 138.537 126.405 138.614 126.071C138.727 125.563 138.895 125.035 139.082 124.505C139.259 123.972 139.477 123.43 139.716 122.889C140.197 121.808 140.761 120.71 141.387 119.635C141.694 119.094 142.03 118.565 142.36 118.036L142.866 117.257L143.116 116.881L143.331 116.568L143.488 116.339C144.753 114.482 144.365 111.938 142.561 110.549C140.691 109.11 138.009 109.459 136.569 111.329L136.153 111.869L135.792 112.359C135.559 112.684 135.337 113.013 135.119 113.343C134.68 114.001 134.28 114.68 133.888 115.368C133.496 116.056 133.142 116.769 132.797 117.494C132.45 118.218 132.134 118.965 131.852 119.738C131.274 121.275 130.811 122.912 130.572 124.681C130.458 125.568 130.369 126.477 130.407 127.429C130.437 128.379 130.55 129.356 130.776 130.338L130.827 130.56C130.943 131.052 131.168 131.527 131.504 131.948C132.07 132.655 132.811 133.224 133.532 133.586C134.257 133.957 134.951 134.142 135.568 134.236C136.808 134.419 137.799 134.321 138.695 134.181C139.591 134.039 140.388 133.812 141.144 133.558C141.899 133.302 142.613 133.024 143.299 132.715C144.669 132.095 145.945 131.402 147.169 130.647C148.398 129.881 149.545 129.1 150.703 128.166C151.367 127.628 151.674 126.717 151.402 125.852Z" fill="#263238"/>
<path d="M141.34 106.046C134.497 109.651 131.515 117.779 131.515 117.779C132.85 120.359 139.417 122.418 142.483 121.672C142.483 121.672 147.005 117.125 147.639 112.338C148.225 107.906 145.351 103.933 141.34 106.046Z" fill="#F2935C"/>
<g opacity="0.2">
<path d="M141.34 106.046C134.497 109.651 131.515 117.779 131.515 117.779C132.85 120.359 139.417 122.418 142.483 121.672C142.483 121.672 147.005 117.125 147.639 112.338C148.225 107.906 145.351 103.933 141.34 106.046Z" fill="black"/>
</g>
<path d="M148.886 125.624L149.878 127.034C152.192 128.603 153.694 125.28 153.694 125.28L155.062 123.974C155.526 123.531 155.557 122.759 155.136 122.15L154.078 120.621C153.596 119.924 152.701 119.691 152.094 120.104L150.73 121.034C150.333 121.305 150.009 121.669 149.787 122.095L148.78 124.028C148.515 124.538 148.556 125.154 148.886 125.624Z" fill="#CE7A63"/>
<path d="M171.149 126.404L171.286 123.874C171.34 122.865 171.266 121.854 171.054 120.865C170.434 117.969 168.624 111.982 163.675 106.823C163.456 106.594 163.168 106.439 162.858 106.374L160.29 105.835C160.088 105.792 159.966 106.049 160.128 106.177C162.415 107.978 169.524 114.461 170.971 126.404H171.149Z" fill="#F2935C"/>
<path opacity="0.5" d="M171.149 126.404L171.286 123.874C171.34 122.865 171.266 121.854 171.054 120.865C170.434 117.969 168.624 111.982 163.675 106.823C163.456 106.594 163.168 106.439 162.858 106.374L160.29 105.835C160.088 105.792 159.966 106.049 160.128 106.177C162.415 107.978 169.524 114.461 170.971 126.404H171.149Z" fill="black"/>
<path d="M175.421 125.624L174.429 127.034C172.115 128.603 170.613 125.28 170.613 125.28L169.245 123.974C168.781 123.531 168.75 122.759 169.171 122.15L170.229 120.621C170.711 119.924 171.606 119.691 172.214 120.104L173.578 121.034C173.974 121.305 174.298 121.669 174.52 122.095L175.527 124.028C175.793 124.538 175.752 125.154 175.421 125.624Z" fill="#CE7A63"/>
<path d="M186.141 95.2682C186.141 95.2682 178.83 94.474 181.261 99.4177C181.261 99.4177 175.635 100.418 179.663 105.208C179.663 105.208 174.456 108.679 178.498 110.888C178.498 110.888 174.97 117.992 182.038 115.36C182.038 115.36 185.175 120.633 189.432 115.87C189.432 115.87 196.31 120.138 196.561 115.36C196.561 115.36 202.141 114.762 196.95 110.096C196.95 110.096 199.12 108.582 196.606 105.208C196.606 105.208 199.534 103.238 195.616 100.676C195.616 100.676 198.469 97.6708 194.045 96.1557C194.045 96.1557 194.885 92.5022 190.309 94.4464C190.309 94.4464 189.758 90.9384 186.141 95.2682Z" fill="#263238"/>
<path d="M177.504 124.022C174.961 125.72 174.201 128.617 174.436 131.526C174.48 132.069 175.336 132.086 175.291 131.537C175.083 128.964 175.643 126.291 177.926 124.767C178.381 124.462 177.963 123.715 177.504 124.022Z" fill="#F2935C"/>
<g opacity="0.2">
<path d="M177.504 124.022C174.961 125.72 174.201 128.617 174.436 131.526C174.48 132.069 175.336 132.086 175.291 131.537C175.083 128.964 175.643 126.291 177.926 124.767C178.381 124.462 177.963 123.715 177.504 124.022Z" fill="black"/>
</g>
<path d="M183.353 114.056L189.881 114.142C192.588 114.179 194.841 116.259 195.064 118.956C195.065 118.969 195.066 118.981 195.067 118.993C195.346 122.658 195.195 130.032 194.871 133.693C194.858 133.839 194.837 134.019 194.81 134.222C194.462 136.845 192.198 138.791 189.552 138.756L180.42 138.634C178.193 138.604 176.194 137.18 175.524 135.056C175.496 134.967 175.473 134.886 175.457 134.813C175.06 132.958 174.967 129.029 175.558 127.228C175.888 126.224 177.688 124.795 178.018 123.792C178.528 122.241 177.46 118.761 178.105 117.261C178.319 116.763 179.06 116.024 179.787 115.378C180.769 114.508 182.041 114.038 183.353 114.056Z" fill="#F2935C"/>
<path opacity="0.5" d="M183.353 114.056L189.881 114.142C192.588 114.179 194.841 116.259 195.064 118.956C195.065 118.969 195.066 118.981 195.067 118.993C195.346 122.658 195.195 130.032 194.871 133.693C194.858 133.839 194.837 134.019 194.81 134.222C194.462 136.845 192.198 138.791 189.552 138.756L180.42 138.634C178.193 138.604 176.194 137.18 175.524 135.056C175.496 134.967 175.473 134.886 175.457 134.813C175.06 132.958 174.967 129.029 175.558 127.228C175.888 126.224 177.688 124.795 178.018 123.792C178.528 122.241 177.46 118.761 178.105 117.261C178.319 116.763 179.06 116.024 179.787 115.378C180.769 114.508 182.041 114.038 183.353 114.056Z" fill="black"/>
<path d="M180.743 115.142C180.686 115.055 180.58 114.97 180.448 114.886C180.217 115.033 179.994 115.195 179.788 115.379C179.06 116.025 178.32 116.764 178.106 117.262C177.461 118.762 178.529 122.242 178.019 123.793C177.689 124.796 175.889 126.225 175.559 127.228C174.967 129.03 175.06 132.959 175.458 134.814C175.473 134.886 175.496 134.968 175.524 135.057C176.107 136.904 177.696 138.221 179.566 138.553C179.77 138.455 179.94 138.35 180.053 138.237C180.83 137.466 181.726 116.61 180.743 115.142Z" fill="#F2935C"/>
<path opacity="0.2" d="M180.743 115.142C180.686 115.055 180.58 114.97 180.448 114.886C180.217 115.033 179.994 115.195 179.788 115.379C179.06 116.025 178.32 116.764 178.106 117.262C177.461 118.762 178.529 122.242 178.019 123.793C177.689 124.796 175.889 126.225 175.559 127.228C174.967 129.03 175.06 132.959 175.458 134.814C175.473 134.886 175.496 134.968 175.524 135.057C176.107 136.904 177.696 138.221 179.566 138.553C179.77 138.455 179.94 138.35 180.053 138.237C180.83 137.466 181.726 116.61 180.743 115.142Z" fill="white"/>
<path opacity="0.2" d="M175.157 130.1C175.09 131.81 175.218 133.692 175.459 134.814C175.474 134.887 175.497 134.969 175.525 135.057C176.108 136.905 177.697 138.221 179.566 138.553C179.771 138.455 179.94 138.35 180.053 138.238C180.363 137.931 180.69 134.446 180.911 130.268C178.499 131.18 176.035 130.431 175.157 130.1Z" fill="black"/>
<path d="M187.806 202.682H190.989L192.293 195.31H189.109L187.806 202.682Z" fill="#FFB573"/>
<path d="M191.236 202.313H187.66C187.53 202.313 187.424 202.404 187.406 202.531L186.998 205.36C186.956 205.654 187.208 205.931 187.509 205.926C188.756 205.905 189.356 205.831 190.929 205.831C191.897 205.831 194.676 205.932 196.012 205.932C197.319 205.932 197.419 204.611 196.863 204.491C194.368 203.955 192.609 203.215 191.769 202.509C191.616 202.382 191.426 202.313 191.236 202.313Z" fill="#263238"/>
<g opacity="0.2">
<path d="M192.292 195.312L191.621 199.112H188.436L189.107 195.312H192.292Z" fill="black"/>
</g>
<path d="M196.509 131.022C196.509 131.022 199.02 155.543 198.812 165.25C198.595 175.348 192.314 198.376 192.314 198.376H188.01C188.01 198.376 191.272 175.937 190.892 166.021C190.477 155.21 187.043 131.021 187.043 131.021H196.509V131.022Z" fill="#E3966A"/>
<path d="M187.637 198.531H192.687L193.058 196.92L187.402 196.723L187.637 198.531Z" fill="#F2935C"/>
<path opacity="0.6" d="M190.933 137.123C194.108 143.511 191.57 155.164 190.447 159.499C189.871 152.988 188.901 145.029 188.144 139.184C188.625 135.877 189.468 134.178 190.933 137.123Z" fill="#A9521F"/>
<path d="M160.067 174.211L161.14 177.208L168.475 175.824L167.402 172.827L160.067 174.211Z" fill="#FFB573"/>
<path d="M162.006 177.304L161.756 173.736C161.747 173.606 161.649 173.496 161.52 173.47L158.643 172.895C158.344 172.835 158.083 173.07 158.109 173.37C158.218 174.615 158.333 175.219 158.443 176.788C158.511 177.753 158.604 180.519 158.697 181.852C158.789 183.155 160.126 183.334 160.207 182.786C160.573 180.33 161.195 178.619 161.847 177.823C161.964 177.68 162.02 177.494 162.006 177.304Z" fill="#263238"/>
<g opacity="0.2">
<path d="M168.473 175.824L164.692 176.537L163.619 173.54L167.399 172.825L168.473 175.824Z" fill="black"/>
</g>
<path d="M192.933 131.022C192.933 131.022 189.405 156.327 187.009 165.848C184.517 175.751 165.953 176.596 165.953 176.596L164.063 172.728C164.063 172.728 174.901 169.845 179.582 163.327C180.794 156.938 180.781 146.611 181.511 139.358C181.756 136.93 182.244 134.846 182.672 133.369C183.1 131.892 183.855 130.634 183.855 130.634L192.933 131.022Z" fill="#E3966A"/>
<path d="M163.844 172.368L165.502 177.138L167.215 177.156L165.552 171.774L163.844 172.368Z" fill="#F2935C"/>
<path d="M161.53 178.463C161.552 178.779 161.621 179.073 161.781 179.245C161.882 179.354 162.01 179.407 162.16 179.403C162.249 179.4 162.316 179.36 162.352 179.287C162.54 178.911 161.799 177.607 161.714 177.459C161.697 177.43 161.665 177.412 161.634 177.414C161.602 177.417 161.578 177.439 161.574 177.471C161.539 177.737 161.505 178.113 161.53 178.463ZM162.232 179.068C162.236 179.126 162.231 179.173 162.215 179.206C162.2 179.237 162.176 179.25 162.136 179.252C162.034 179.255 161.953 179.221 161.887 179.151C161.699 178.948 161.632 178.423 161.7 177.727C161.941 178.175 162.211 178.767 162.232 179.068Z" fill="#F2935C"/>
<path d="M161.574 177.485C161.574 177.496 161.577 177.506 161.583 177.516C161.782 177.905 162.525 178.695 162.884 178.657C162.969 178.649 163.072 178.594 163.079 178.387C163.084 178.234 163.03 178.091 162.919 177.963C162.555 177.544 161.688 177.42 161.65 177.414C161.623 177.411 161.598 177.421 161.585 177.442C161.576 177.454 161.573 177.469 161.574 177.485ZM162.926 178.318C162.927 178.333 162.927 178.348 162.927 178.364C162.922 178.5 162.867 178.506 162.849 178.508C162.634 178.53 162.055 177.99 161.792 177.589C162.046 177.642 162.57 177.778 162.809 178.053C162.88 178.136 162.919 178.223 162.926 178.318Z" fill="#F2935C"/>
<path d="M192.431 202.87C192.747 202.87 193.039 202.821 193.203 202.674C193.307 202.581 193.352 202.457 193.339 202.307C193.331 202.217 193.287 202.148 193.211 202.107C192.821 201.893 191.552 202.541 191.409 202.616C191.38 202.631 191.364 202.662 191.369 202.694C191.373 202.726 191.398 202.751 191.429 202.757C191.699 202.81 192.08 202.87 192.431 202.87ZM192.998 202.211C193.056 202.211 193.104 202.22 193.138 202.239C193.17 202.256 193.185 202.281 193.188 202.32C193.197 202.422 193.169 202.501 193.101 202.562C192.908 202.736 192.384 202.766 191.679 202.649C192.116 202.439 192.697 202.211 192.998 202.211Z" fill="#F2935C"/>
<path d="M191.444 202.757C191.454 202.757 191.465 202.755 191.475 202.751C191.854 202.579 192.605 201.893 192.546 201.532C192.532 201.447 192.472 201.341 192.263 201.319C192.109 201.304 191.968 201.348 191.845 201.449C191.445 201.783 191.371 202.64 191.368 202.676C191.366 202.702 191.378 202.728 191.4 202.744C191.413 202.753 191.428 202.757 191.444 202.757ZM192.202 201.467C192.217 201.467 192.232 201.468 192.247 201.469C192.385 201.483 192.394 201.538 192.397 201.556C192.432 201.773 191.923 202.313 191.536 202.547C191.573 202.298 191.679 201.784 191.942 201.565C192.021 201.499 192.106 201.467 192.202 201.467Z" fill="#F2935C"/>
<path d="M199.426 116.023C199.409 116.386 199.398 116.834 199.388 117.247C199.379 117.669 199.377 118.093 199.382 118.517C199.397 119.366 199.413 120.216 199.465 121.063C199.561 122.755 199.748 124.436 200.061 126.073L200.19 126.682L200.254 126.988C200.268 127.055 200.257 127.029 200.257 127.049C200.25 127.066 200.224 127.109 200.372 127.224C200.671 127.449 201.424 127.629 202.18 127.68C203.729 127.791 205.499 127.626 207.168 127.402L207.724 129.246C205.97 129.976 204.215 130.512 202.201 130.682C201.191 130.732 200.108 130.771 198.807 130.18C198.485 130.025 198.152 129.812 197.845 129.526C197.541 129.24 197.271 128.877 197.084 128.487C197.04 128.389 196.994 128.29 196.958 128.192L196.906 128.043L196.866 127.919L196.766 127.578L196.567 126.893C196.076 125.061 195.775 123.205 195.603 121.348C195.524 120.42 195.47 119.49 195.463 118.559C195.458 118.093 195.461 117.627 195.472 117.159C195.48 116.683 195.505 116.241 195.548 115.716L199.426 116.023Z" fill="#FFB573"/>
<path d="M206.493 127.595L208.981 126.729L207.958 129.801C207.958 129.801 205.947 130.17 205.122 129.136L205.229 128.84C205.442 128.257 205.906 127.8 206.493 127.595Z" fill="#FFB573"/>
<path d="M211.316 127.117L210.857 129.792L207.958 129.801L208.981 126.729L211.316 127.117Z" fill="#FFB573"/>
<path d="M198.643 112.225C199.889 112.753 199.982 118.228 199.982 118.228L196.038 120.113C196.038 120.113 193.432 114.206 194.648 112.932C195.913 111.606 196.824 111.454 198.643 112.225Z" fill="#F2935C"/>
<path opacity="0.7" d="M198.643 112.225C199.889 112.753 199.982 118.228 199.982 118.228L196.038 120.113C196.038 120.113 193.432 114.206 194.648 112.932C195.913 111.606 196.824 111.454 198.643 112.225Z" fill="white"/>
<path opacity="0.2" d="M198.276 113.279L198.76 118.792L196.606 119.97L198.276 113.279Z" fill="black"/>
<path d="M198.373 113.234C198.512 115.206 198.319 119.893 196.509 131.022H183.581C183.789 125.976 183.483 123.496 181.238 113.774C181.064 113.02 181.481 112.254 182.21 111.997C183.358 111.592 185.118 111.074 186.779 110.994C188.955 110.889 190.737 110.82 192.649 110.994C194.182 111.134 195.839 111.405 196.903 111.596C197.712 111.741 198.315 112.415 198.373 113.234Z" fill="#F2935C"/>
<path opacity="0.9" d="M186.779 110.994C186.386 111.013 185.989 111.057 185.595 111.118C185.428 111.674 185.271 113.171 187.547 114.859C187.547 114.859 188.338 113.044 192.478 114.47C192.478 114.47 194.156 112.87 195.128 114.124C195.128 114.124 195.174 112.291 193.688 111.106C193.341 111.064 192.992 111.026 192.649 110.994C190.737 110.819 188.955 110.889 186.779 110.994Z" fill="white"/>
<path d="M186.781 110.996C188.957 110.889 190.738 110.819 192.651 110.996C192.778 111.008 192.906 111.02 193.033 111.033C193.502 111.921 193.621 112.121 192.498 114.124C192.498 114.124 187.348 113.217 186.008 111.045C186.263 111.024 186.522 111.008 186.781 110.996Z" fill="#FFB573"/>
<path d="M187.361 104.384C187.731 106.273 188.101 109.734 186.779 110.994C186.779 110.994 187.296 112.91 190.805 112.91C194.664 112.91 192.649 110.995 192.649 110.995C190.543 110.492 190.597 108.929 190.964 107.461L187.361 104.384Z" fill="#FFB573"/>
<path opacity="0.2" d="M188.83 105.64L190.963 107.459C190.875 107.807 190.806 108.159 190.782 108.502C189.977 108.385 188.872 107.502 188.786 106.659C188.744 106.239 188.762 105.835 188.83 105.64Z" fill="black"/>
<path d="M185.323 101.111C186.044 104.187 186.282 105.504 188.124 106.832C190.894 108.83 194.515 107.273 194.729 104.044C194.921 101.137 193.711 96.5951 190.458 95.8757C187.252 95.1679 184.603 98.0348 185.323 101.111Z" fill="#FFB573"/>
<path d="M190.486 95.2681C191.736 95.4839 193.321 97.3403 193.656 98.0978C191.78 97.752 186.618 99.3503 186.618 99.3503C186.618 99.3503 184.306 99.0913 185.602 97.3092C186.898 95.5276 190.486 95.2681 190.486 95.2681Z" fill="#263238"/>
<path d="M190.731 101.092C190.774 101.345 190.944 101.527 191.109 101.499C191.274 101.471 191.373 101.243 191.33 100.99C191.287 100.737 191.118 100.554 190.953 100.582C190.788 100.611 190.688 100.839 190.731 101.092Z" fill="#263238"/>
<path d="M193.467 100.605C193.51 100.858 193.679 101.04 193.844 101.012C194.01 100.984 194.109 100.756 194.066 100.503C194.022 100.25 193.853 100.068 193.688 100.096C193.523 100.124 193.423 100.352 193.467 100.605Z" fill="#263238"/>
<path d="M193.618 100.122L194.196 99.8433C194.196 99.8433 193.965 100.371 193.618 100.122Z" fill="#263238"/>
<path d="M192.729 101.211C192.729 101.211 193.344 102.228 193.906 102.673C193.625 103.042 193.033 102.996 193.033 102.996L192.729 101.211Z" fill="#ED893E"/>
<path d="M192.323 104.473C192.443 104.471 192.569 104.46 192.701 104.438C192.742 104.431 192.769 104.392 192.762 104.351C192.755 104.31 192.713 104.283 192.676 104.289C191.561 104.478 190.914 103.791 190.908 103.784C190.879 103.753 190.832 103.751 190.801 103.78C190.771 103.808 190.769 103.855 190.797 103.886C190.822 103.914 191.366 104.488 192.323 104.473Z" fill="#263238"/>
<path d="M189.174 100.705C189.238 100.704 189.296 100.663 189.316 100.598C189.521 99.9317 190.373 99.6471 190.382 99.6446C190.461 99.619 190.504 99.5336 190.479 99.4543C190.453 99.3755 190.368 99.3318 190.289 99.3574C190.247 99.371 189.279 99.6948 189.028 100.509C189.003 100.589 189.048 100.673 189.127 100.698C189.143 100.703 189.159 100.705 189.174 100.705Z" fill="#263238"/>
<path d="M193.874 99.4764C193.926 99.4834 193.979 99.4638 194.013 99.4202C194.065 99.3549 194.054 99.26 193.988 99.2083C193.334 98.6918 192.671 98.9056 192.643 98.9152C192.564 98.9418 192.522 99.0271 192.548 99.1064C192.574 99.1847 192.66 99.2279 192.738 99.2013C192.76 99.1943 193.278 99.0321 193.801 99.4453C193.823 99.4623 193.848 99.4729 193.874 99.4764Z" fill="#263238"/>
<path d="M190.882 100.61L191.46 100.331C191.46 100.331 191.229 100.859 190.882 100.61Z" fill="#263238"/>
<path d="M195.055 120.084L193.067 115.535C193.067 115.535 194.613 117.664 195.159 116.842C195.619 116.151 193.481 115.145 192.789 114.842C192.657 114.784 192.508 114.801 192.392 114.886C191.639 115.437 188.929 117.56 190.163 118.756C191.588 120.138 192.314 115.301 192.314 115.301L191.963 120.635L192.604 120.885L192.682 115.562L194.595 120.625L195.055 120.084ZM194.851 116.638C194.617 116.924 193.508 115.521 193.508 115.521C193.508 115.521 195.085 116.351 194.851 116.638ZM190.416 118.276C189.874 117.369 191.903 115.652 191.903 115.652C191.903 115.652 190.957 119.182 190.416 118.276Z" fill="#263238"/>
<path d="M195.636 100.552C195.479 99.7004 194.798 99.1096 194.12 99.2351C193.52 99.346 193.121 99.982 193.146 100.717C192.865 100.608 192.544 100.666 192.32 100.868C192.052 100.178 191.324 99.7521 190.571 99.8917C189.752 100.043 189.205 100.809 189.304 101.625L185.905 102.254L185.916 102.45L189.34 101.816C189.54 102.614 190.324 103.133 191.143 102.981C191.995 102.824 192.56 102.003 192.402 101.151C192.397 101.128 192.388 101.107 192.382 101.084C192.573 100.847 192.909 100.787 193.169 100.946C193.172 100.966 193.171 100.987 193.176 101.008C193.333 101.86 194.013 102.45 194.692 102.325C195.37 102.199 195.794 101.404 195.636 100.552ZM191.108 102.79C190.362 102.928 189.642 102.433 189.504 101.687C189.366 100.94 189.861 100.22 190.607 100.082C191.354 99.9444 192.074 100.439 192.212 101.186C192.349 101.932 191.855 102.652 191.108 102.79ZM194.657 102.134C194.084 102.24 193.505 101.718 193.367 100.972C193.229 100.226 193.583 99.5318 194.156 99.4258C194.729 99.3199 195.307 99.841 195.446 100.587C195.583 101.334 195.23 102.028 194.657 102.134Z" fill="#F2935C"/>
<path d="M186.596 98.3353C187.71 99.1892 187.222 102.288 185.84 103.238C183.68 102.72 183.269 95.7867 186.596 98.3353Z" fill="#263238"/>
<path d="M184.966 104.104C185.291 104.673 185.847 105.04 186.369 105.173C187.153 105.374 187.528 104.669 187.296 103.938C187.086 103.28 186.427 102.382 185.647 102.504C184.878 102.626 184.595 103.454 184.966 104.104Z" fill="#FFB573"/>
<path d="M210.499 127.063L206.196 122.76C204.835 121.399 204.071 119.554 204.071 117.63H199.794C199.794 119.554 199.029 121.399 197.669 122.76L193.366 127.063H210.499Z" fill="#263238"/>
<path opacity="0.2" d="M209.01 127.063C207.237 126.823 205.589 122.802 204.783 122.899C203.976 122.995 206.727 126.424 205.609 126.423C204.491 126.422 203.837 125.109 203.375 125.157C202.913 125.206 202.231 126.614 201.454 126.516C200.676 126.418 201.189 124.523 200.776 124.474C200.363 124.425 199.631 126.83 198.732 126.562C197.833 126.294 200.243 122.481 199.757 122.337C199.271 122.193 198.176 123.718 197.275 125.467C196.821 126.347 196.171 126.808 195.638 127.049L209.01 127.063Z" fill="white"/>
<path opacity="0.2" d="M201.933 121.801C201.327 121.716 200.897 123.349 201.504 123.56C202.112 123.771 202.538 121.887 201.933 121.801Z" fill="white"/>
<path d="M199.556 117.752C199.556 117.752 199.364 117.089 200.882 117.089C202.399 117.089 204.323 116.939 204.323 117.752C204.323 118.564 204.173 118.649 204.43 119.205C204.686 119.761 203.596 119.162 203.468 118.457C203.34 117.752 202.677 118.799 202.784 119.868C202.891 120.936 202.041 121.043 201.964 119.461C201.886 117.88 201.095 117.88 201.073 118.521C201.052 119.162 200.496 119.354 200.219 118.67C199.941 117.986 200.224 120.107 199.697 119.934C199.172 119.761 199.535 118.692 199.556 117.752Z" fill="#F2935C"/>
<path opacity="0.2" d="M203.864 117.399C203.848 117.307 203.752 117.237 203.626 117.184C202.929 117.032 201.827 117.089 200.882 117.089C200.61 117.089 200.395 117.111 200.223 117.146C200.07 117.213 199.875 117.326 199.888 117.463C199.909 117.687 203.917 117.709 203.864 117.399Z" fill="black"/>
<path d="M213.055 126.803H189.48V128.233H213.055V126.803Z" fill="#F2935C"/>
<path opacity="0.5" d="M213.055 126.803H189.48V128.233H213.055V126.803Z" fill="white"/>
<path opacity="0.3" d="M201.267 126.803H189.48V128.233H201.267V126.803Z" fill="black"/>
<path d="M183.095 111.862C184.824 113.072 189.887 118.11 180.778 131.601C180.628 131.823 180.532 132.081 180.503 132.348L180.368 133.621C180.337 133.915 180.715 134.062 180.888 133.821C182.708 131.268 187.831 123.66 187.831 118.87C187.83 114.05 186.129 112.09 185.053 111.332C184.601 111.013 184.012 110.962 183.501 111.175L183.151 111.32C182.922 111.415 182.893 111.721 183.095 111.862Z" fill="#F2935C"/>
<path opacity="0.5" d="M183.095 111.862C184.824 113.072 189.887 118.11 180.778 131.601C180.628 131.823 180.532 132.081 180.503 132.348L180.368 133.621C180.337 133.915 180.715 134.062 180.888 133.821C182.708 131.268 187.831 123.66 187.831 118.87C187.83 114.05 186.129 112.09 185.053 111.332C184.601 111.013 184.012 110.962 183.501 111.175L183.151 111.32C182.922 111.415 182.893 111.721 183.095 111.862Z" fill="black"/>
<path d="M188.515 127.17C187.662 126.989 186.82 126.76 186.104 126.486C185.788 126.364 185.497 126.216 185.326 126.09L185.313 126.008C185.034 124.369 184.956 122.609 184.945 120.847C184.943 119.964 184.963 119.075 184.992 118.186C185.017 117.305 185.077 116.388 185.131 115.551L181.262 115.169C181.15 116.17 181.112 117.096 181.075 118.059C181.049 119.014 181.048 119.971 181.089 120.932C181.175 122.856 181.362 124.793 181.864 126.764L181.909 126.948L181.932 127.041C181.953 127.121 181.977 127.2 182.004 127.278C182.112 127.583 182.269 127.857 182.433 128.063C182.766 128.489 183.104 128.727 183.413 128.92C184.033 129.284 184.574 129.455 185.099 129.604C186.143 129.891 187.122 129.997 188.093 130.085C190.034 130.23 191.908 130.183 193.815 129.997L193.826 128.071C192.044 127.821 190.227 127.542 188.515 127.17Z" fill="#FFB573"/>
<path d="M179.948 112.862C179.301 114.051 179.955 119.301 179.955 119.301L186.083 120.082C186.083 120.082 186.478 114.844 185.205 113.628C183.879 112.361 180.687 111.504 179.948 112.862Z" fill="#F2935C"/>
<g opacity="0.7">
<path d="M179.948 112.862C179.301 114.051 179.955 119.301 179.955 119.301L186.083 120.082C186.083 120.082 186.478 114.844 185.205 113.628C183.879 112.361 180.687 111.504 179.948 112.862Z" fill="white"/>
</g>
<path d="M192.551 128.282L195.616 126.721L194.88 129.874C194.88 129.874 192.912 130.426 191.995 129.473L192.551 128.282Z" fill="#FFB573"/>
<path d="M198.242 127.235L197.483 129.841L194.88 129.874L195.616 126.721L198.242 127.235Z" fill="#FFB573"/>
<path d="M194.304 111.375C195.121 112.451 197.572 116.116 197.757 121.547C197.761 121.66 197.922 121.676 197.946 121.565L198.397 119.449C198.406 119.409 198.41 119.371 198.412 119.33C198.426 118.849 198.408 115.736 195.893 111.338C195.866 111.289 195.816 111.256 195.76 111.249L194.465 111.097C194.311 111.078 194.21 111.252 194.304 111.375Z" fill="#F2935C"/>
<path opacity="0.5" d="M194.304 111.375C195.121 112.451 197.572 116.116 197.757 121.547C197.761 121.66 197.922 121.676 197.946 121.565L198.397 119.449C198.406 119.409 198.41 119.371 198.412 119.33C198.426 118.849 198.408 115.736 195.893 111.338C195.866 111.289 195.816 111.256 195.76 111.249L194.465 111.097C194.311 111.078 194.21 111.252 194.304 111.375Z" fill="black"/>
<path d="M112.964 120.471C113.51 115.533 113.758 112.915 111.933 110.093C110.108 107.271 109.645 91.0733 97.8514 93.7445C95.2721 94.3288 91.5945 94.8549 93.0659 103.179C94.5372 111.503 89.8074 110.214 92.5518 114.507C95.2962 118.8 88.0223 123.735 91.6778 128.431C95.3334 133.126 88.6267 136.431 91.0569 138.764C91.0569 138.764 92.1683 138.228 93.9393 137.648C93.7009 137.23 93.5503 136.496 94.0217 135.264C94.8967 132.98 96.3545 130.212 94.605 127.611C94.605 127.611 96.984 128.412 95.8916 133.66C95.5342 135.378 95.5603 136.448 95.7556 137.113C96.6135 136.888 97.5562 136.683 98.5542 136.525C98.2791 136.039 98.0708 135.421 98.1205 134.69C98.25 132.785 99.0758 132.004 98.9789 130.475C98.9789 130.475 99.8539 132.689 99.4162 134.049C99.1988 134.725 99.2289 135.629 99.7053 136.368C102.184 136.09 104.919 136.161 107.518 137.019C115.163 139.541 117.312 132.943 117.312 132.943C117.312 132.943 112.417 125.41 112.964 120.471Z" fill="#263238"/>
<path d="M112.769 115.681L112.727 115.964L112.684 116.342C112.659 116.6 112.649 116.864 112.644 117.129C112.633 117.66 112.672 118.192 112.741 118.715C112.895 119.76 113.205 120.765 113.695 121.692C113.938 122.157 114.232 122.598 114.559 123.022C114.719 123.237 114.899 123.439 115.079 123.643L115.363 123.939L115.614 124.222C115.936 124.597 116.26 124.888 116.515 125.089C116.644 125.184 116.755 125.269 116.872 125.329C116.932 125.364 116.994 125.386 117.063 125.409L117.166 125.436C117.183 125.441 117.2 125.446 117.214 125.452C117.221 125.455 117.229 125.458 117.232 125.464C117.232 125.474 117.251 125.463 117.214 125.511C117.622 125.082 118.3 125.066 118.728 125.473C119.157 125.882 119.173 126.559 118.766 126.988L118.58 127.207C118.53 127.264 118.48 127.315 118.428 127.366C118.325 127.463 118.216 127.549 118.102 127.63C117.874 127.79 117.622 127.912 117.36 128.005C116.832 128.184 116.276 128.22 115.77 128.163C114.749 128.045 113.931 127.632 113.236 127.191C113.061 127.077 112.895 126.959 112.741 126.837L112.31 126.46C112.031 126.198 111.752 125.932 111.493 125.644C110.97 125.074 110.499 124.445 110.086 123.777C109.26 122.439 108.709 120.926 108.452 119.387C108.322 118.616 108.266 117.838 108.277 117.06C108.282 116.67 108.308 116.281 108.351 115.888C108.373 115.691 108.401 115.494 108.436 115.292L108.493 114.984L108.528 114.82L108.578 114.611C108.854 113.454 110.016 112.739 111.174 113.015C112.267 113.276 112.966 114.328 112.807 115.419L112.769 115.681Z" fill="#B55B52"/>
<path d="M120.537 124.635L120.391 125.554C120.336 125.9 120.117 126.198 119.804 126.353L118.34 127.082C117.755 127.373 117.065 127.363 116.488 127.055L116.131 126.864C116.269 125.323 117.553 123.76 117.553 123.76L117.87 123.274C118.152 122.841 118.695 122.713 119.117 122.98L120.088 123.595C120.424 123.807 120.602 124.221 120.537 124.635Z" fill="#B55B52"/>
<path d="M109.51 111.574C112.447 111.797 113.851 113.92 115.239 118.765C114.196 120.404 110.007 121.629 110.007 121.629C110.007 121.629 107.265 114.461 109.51 111.574Z" fill="#F2935C"/>
<path opacity="0.7" d="M109.51 111.574C112.447 111.797 113.851 113.92 115.239 118.765C114.196 120.404 110.007 121.629 110.007 121.629C110.007 121.629 107.265 114.461 109.51 111.574Z" fill="white"/>
<path d="M132.048 204.056C129.496 204.745 129.148 204.796 127.7 205.135C126.46 205.422 126.208 205.655 125.215 205.899C124.386 206.104 124.203 205.306 124.213 204.33C124.217 203.84 124.153 202.823 124.13 202.039L127.796 200.758C128.593 201.621 130.167 202.733 131.658 202.538C133.081 202.352 133.066 203.781 132.048 204.056Z" fill="#263238"/>
<path d="M106.285 137.75C104.308 145.472 103.044 145.112 113.073 168.902C110.721 180.875 123.982 201.859 123.982 201.859C125.259 201.91 127.491 201.567 127.995 201.059C125.701 194.19 121.29 177.006 120.053 165.889C118.875 155.303 116.971 141.554 115.907 133.447C115.802 132.639 115.498 130.211 115.498 130.211L106.738 132.524C106.739 132.524 106.61 136.479 106.285 137.75Z" fill="#F2935C"/>
<g opacity="0.3">
<path d="M106.285 137.75C104.308 145.472 103.044 145.112 113.073 168.902C110.721 180.875 123.982 201.859 123.982 201.859C125.259 201.91 127.491 201.567 127.995 201.059C125.701 194.19 121.29 177.006 120.053 165.889C118.875 155.303 116.971 141.554 115.907 133.447C115.802 132.639 115.498 130.211 115.498 130.211L106.738 132.524C106.739 132.524 106.61 136.479 106.285 137.75Z" fill="black"/>
</g>
<path opacity="0.2" d="M105.587 149.155C106.474 152.61 108.348 157.582 111.796 165.855C113.4 152.257 110.46 143.625 110.46 143.625H106.415L105.587 149.155Z" fill="black"/>
<path d="M127.357 198.061C127.599 198.664 128.035 199.709 128.442 200.479C128.589 200.756 128.564 201.074 128.392 201.193C126.955 202.184 124.446 202.484 123.641 202.557C123.487 202.571 123.316 202.44 123.213 202.232L122.102 200.007C121.949 199.702 122.003 199.357 122.212 199.285L126.842 197.69C127.022 197.628 127.247 197.789 127.357 198.061Z" fill="#F2935C"/>
<path d="M82.318 197.983C81.0615 195.708 80.541 193.653 80.1173 192.252C79.7568 191.05 79.5435 191.249 79.1349 190.047C78.8643 189.251 79.6087 188.499 80.3688 188.53C80.9611 188.555 81.7071 188.694 82.432 188.596L84.3205 191.275C83.4706 192.303 82.9671 195.829 83.803 197.626C84.3978 198.912 82.823 198.893 82.318 197.983Z" fill="#263238"/>
<path d="M110.963 139.993C110.963 139.993 111.312 163.001 109.733 170.856C108.19 178.536 83.938 191.771 83.938 191.771C83.3958 191.955 82.3482 189.134 82.4405 188.516C89.7346 181.414 96.727 169.627 102.224 167.999C96.8058 148.591 97.8951 144.919 101.414 138.347C102.215 136.851 101.836 133.448 101.836 133.448L110.996 132.524L110.963 139.993Z" fill="#F2935C"/>
<g opacity="0.3">
<path d="M110.963 139.993C110.963 139.993 111.312 163.001 109.733 170.856C108.19 178.536 83.938 191.771 83.938 191.771C83.3958 191.955 82.3482 189.134 82.4405 188.516C89.7346 181.414 96.727 169.627 102.224 167.999C96.8058 148.591 97.8951 144.919 101.414 138.347C102.215 136.851 101.836 133.448 101.836 133.448L110.996 132.524L110.963 139.993Z" fill="black"/>
</g>
<path d="M86.8716 190.3C86.3079 190.698 85.3049 191.411 84.5745 191.954C84.3325 192.134 84.0459 192.177 83.9199 192.059C82.9751 191.169 82.1117 189.311 81.8406 188.693C81.7869 188.57 81.8702 188.388 82.0464 188.237L83.944 186.618C84.203 186.397 84.5529 186.337 84.6699 186.492L87.1221 189.758C87.222 189.891 87.1131 190.13 86.8716 190.3Z" fill="#F2935C"/>
<path d="M113.964 116.456C114.226 117.835 114.566 118.863 114.898 122.201C115.233 125.018 115.477 127.804 115.799 132.459L101.703 134.69C101.358 130.675 100.179 126.222 96.2333 117.689C95.3187 115.711 96.3122 113.514 98.3684 112.971C98.9175 112.826 99.5029 112.685 100.106 112.56C102.451 112.071 104.377 111.689 106.506 111.546C107.212 111.499 107.947 111.473 108.651 111.46C111.193 111.411 113.494 113.985 113.964 116.456Z" fill="#F2935C"/>
<path d="M99.4136 105.282C100.297 107.253 101.578 110.918 100.457 112.504C100.457 112.504 102.361 111.902 106.908 113.808C107.836 111.898 106.858 111.491 106.858 111.491C104.434 111.313 104.096 109.62 104.123 107.975L99.4136 105.282Z" fill="#B55B52"/>
<path d="M105.957 113.43C104.623 113.84 104.522 115.968 104.522 115.968C104.522 115.968 100.879 114.17 99.5823 112.7C100.028 112.368 100.659 111.75 100.659 111.75C100.659 111.75 105.036 112.769 105.957 113.43Z" fill="white"/>
<path d="M107.218 113.006C107.218 113.006 108.447 113.137 109.136 114.727C108.972 111.674 107.489 111.385 107.489 111.385C107.489 111.385 107.012 111.147 106.227 111.402C107.399 111.801 107.218 113.006 107.218 113.006Z" fill="white"/>
<path opacity="0.2" d="M101.334 106.381L104.122 107.974C104.114 108.363 104.129 108.754 104.189 109.128C103.282 109.141 101.853 108.38 101.546 107.487C101.392 107.042 101.309 106.604 101.334 106.381Z" fill="black"/>
<path d="M97.1817 101.449C98.3132 104.621 98.7244 105.983 100.837 107.255C104.016 109.169 107.673 107.311 107.513 103.921C107.37 100.87 105.544 96.197 102.005 95.6509C98.5191 95.1132 96.0502 98.2788 97.1817 101.449Z" fill="#B55B52"/>
<path d="M104.091 101.144C104.091 101.144 104.905 102.2 105.578 102.645C105.328 103.061 104.68 103.05 104.68 103.05L104.091 101.144Z" fill="#A02724"/>
<path d="M103.722 104.641C103.868 104.626 104.021 104.598 104.179 104.553C104.222 104.541 104.244 104.497 104.229 104.453C104.213 104.41 104.167 104.385 104.123 104.397C102.963 104.726 102.127 104.063 102.118 104.056C102.082 104.027 102.03 104.03 102.003 104.064C101.975 104.097 101.982 104.149 102.019 104.178C102.051 104.205 102.724 104.739 103.722 104.641Z" fill="#263238"/>
<path d="M101.695 101.53C101.791 101.796 102.008 101.972 102.182 101.923C102.354 101.874 102.417 101.619 102.322 101.352C102.226 101.086 102.008 100.91 101.835 100.959C101.663 101.008 101.6 101.263 101.695 101.53Z" fill="#263238"/>
<path d="M105.034 100.473C105.129 100.739 105.347 100.915 105.52 100.866C105.693 100.817 105.755 100.562 105.66 100.295C105.565 100.029 105.347 99.8529 105.174 99.9016C105.001 99.9513 104.938 100.207 105.034 100.473Z" fill="#263238"/>
<path d="M105.103 99.9392L105.672 99.5747C105.672 99.5747 105.525 100.167 105.103 99.9392Z" fill="#263238"/>
<path d="M100.738 100.11C100.778 100.092 100.808 100.059 100.821 100.016C101.016 99.3399 101.601 99.1833 101.607 99.1813C101.694 99.1582 101.744 99.0714 101.715 98.986C101.687 98.9007 101.592 98.85 101.504 98.8726C101.473 98.8806 100.739 99.0764 100.497 99.9157C100.473 99.9996 100.526 100.09 100.616 100.118C100.658 100.131 100.702 100.127 100.738 100.11Z" fill="#263238"/>
<path d="M105.802 98.6995C105.842 98.697 105.881 98.6799 105.909 98.6483C105.966 98.5825 105.955 98.4796 105.884 98.4189C105.172 97.8069 104.444 97.9786 104.413 97.9866C104.326 98.0082 104.279 98.0961 104.307 98.1834C104.335 98.2703 104.429 98.3235 104.515 98.3024C104.544 98.2954 105.11 98.1699 105.676 98.6568C105.713 98.6879 105.759 98.702 105.802 98.6995Z" fill="#263238"/>
<path d="M101.764 100.996L102.333 100.631C102.333 100.631 102.187 101.224 101.764 100.996Z" fill="#263238"/>
<path d="M100.825 96.0926C100.825 96.0926 101.759 96.6413 102.186 97.5851C102.499 97.4465 102.845 97.3571 103.224 97.3285C102.984 96.8873 102.477 96.2698 101.431 95.9305C101.431 95.9305 103.017 95.949 103.932 97.3491C104.474 97.4179 105.073 97.6061 105.737 97.9626C105.737 97.9626 102.541 92.7568 98.1531 95.0871C93.7651 97.4174 97.1812 103.686 97.1812 103.686H98.0562C98.0562 103.686 100.078 103.596 97.8524 99.5042C97.8524 99.5042 99.39 100.054 99.4763 101.233C99.4763 101.233 100.044 99.0398 101.582 97.936C101.538 97.5072 101.369 96.8541 100.825 96.0926Z" fill="#263238"/>
<path d="M97.1069 103.179C97.1069 103.179 91.8806 98.7216 98.0527 94.4863C98.0527 94.4863 93.3384 94.3914 93.4358 90.1635L99.0246 93.536L102.646 88.4141C102.646 88.4141 104.662 91.1841 100.088 94.0515C100.088 94.0515 102.378 93.0797 104.138 95.4652C104.138 95.4652 101.38 93.7453 98.7861 95.3306C94.0191 98.2442 97.1069 103.179 97.1069 103.179Z" fill="#F2935C"/>
<path d="M96.6928 104.502C97.2571 105.079 98.0006 105.342 98.6195 105.339C99.5507 105.333 99.6998 104.374 99.1762 103.575C98.7049 102.855 97.6527 101.99 96.8455 102.381C96.0503 102.766 96.0473 103.842 96.6928 104.502Z" fill="#B55B52"/>
<path d="M110.454 118.71L107.676 114.595C107.676 114.595 109.582 116.41 109.971 115.503C110.297 114.74 108.013 114.137 107.277 113.965C107.137 113.932 106.994 113.976 106.895 114.08C106.254 114.758 103.973 117.336 105.402 118.289C107.055 119.391 106.893 114.502 106.893 114.502L107.513 119.812L108.189 119.941L107.303 114.692L110.101 119.326L110.454 118.71ZM109.631 115.357C109.453 115.681 108.108 114.502 108.108 114.502C108.108 114.502 109.809 115.033 109.631 115.357ZM105.565 117.771C104.868 116.977 106.552 114.922 106.552 114.922C106.552 114.922 106.261 118.565 105.565 117.771Z" fill="#263238"/>
<path d="M127.114 118.803H110.709V122.224H127.12C126.972 121.089 126.97 119.939 127.114 118.803Z" fill="#F2935C"/>
<path opacity="0.7" d="M127.114 118.803H110.709V122.224H127.12C126.972 121.089 126.97 119.939 127.114 118.803Z" fill="white"/>
<path d="M113.698 122.405H108.542L108.489 122.352C107.993 121.856 107.719 121.195 107.719 120.493C107.719 119.79 107.993 119.13 108.489 118.633L108.542 118.581H113.698L113.391 118.888C112.962 119.316 112.726 119.886 112.726 120.493C112.726 121.099 112.962 121.669 113.391 122.098L113.698 122.405Z" fill="#F2935C"/>
<g opacity="0.3">
<path d="M113.698 122.405H108.542L108.489 122.352C107.993 121.856 107.719 121.195 107.719 120.493C107.719 119.79 107.993 119.13 108.489 118.633L108.542 118.581H113.698L113.391 118.888C112.962 119.316 112.726 119.886 112.726 120.493C112.726 121.099 112.962 121.669 113.391 122.098L113.698 122.405Z" fill="black"/>
</g>
<path d="M127.282 122.405H113.356L113.342 122.39C112.861 121.909 112.559 121.267 112.535 120.587C112.509 119.85 112.784 119.152 113.303 118.634L113.356 118.581H127.282C127.381 118.581 127.462 118.662 127.462 118.761C127.462 118.861 127.381 118.941 127.282 118.941H113.507C113.11 119.364 112.893 119.912 112.893 120.494C112.893 121.075 113.111 121.624 113.507 122.045H127.282C127.381 122.045 127.462 122.126 127.462 122.226C127.462 122.324 127.381 122.405 127.282 122.405Z" fill="#F2935C"/>
<path d="M126 111.898H111.235V114.977H126.005C125.872 113.955 125.87 112.92 126 111.898Z" fill="#F2935C"/>
<path opacity="0.8" d="M126 111.898H111.235V114.977H126.005C125.872 113.955 125.87 112.92 126 111.898Z" fill="white"/>
<path d="M113.926 115.139H109.286L109.238 115.091C108.791 114.645 108.545 114.05 108.545 113.418C108.545 112.786 108.791 112.192 109.238 111.745L109.286 111.697H113.926L113.65 111.974C113.264 112.359 113.051 112.872 113.051 113.418C113.051 113.964 113.263 114.477 113.65 114.862L113.926 115.139Z" fill="#263238"/>
<path d="M126.152 115.139H113.618L113.605 115.126C113.172 114.693 112.9 114.115 112.879 113.503C112.856 112.839 113.104 112.212 113.571 111.745L113.618 111.697H126.152C126.241 111.697 126.314 111.77 126.314 111.859C126.314 111.949 126.241 112.022 126.152 112.022H113.754C113.397 112.402 113.202 112.895 113.202 113.418C113.202 113.942 113.397 114.435 113.754 114.815H126.152C126.241 114.815 126.314 114.887 126.314 114.977C126.314 115.066 126.241 115.139 126.152 115.139Z" fill="#F2935C"/>
<g opacity="0.4">
<path d="M126.152 115.139H113.618L113.605 115.126C113.172 114.693 112.9 114.115 112.879 113.503C112.856 112.839 113.104 112.212 113.571 111.745L113.618 111.697H126.152C126.241 111.697 126.314 111.77 126.314 111.859C126.314 111.949 126.241 112.022 126.152 112.022H113.754C113.397 112.402 113.202 112.895 113.202 113.418C113.202 113.942 113.397 114.435 113.754 114.815H126.152C126.241 114.815 126.314 114.887 126.314 114.977C126.314 115.066 126.241 115.139 126.152 115.139Z" fill="white"/>
</g>
<path d="M126 108.456H111.235V111.535H126.005C125.872 110.513 125.87 109.478 126 108.456Z" fill="#F2935C"/>
<path opacity="0.8" d="M126 108.456H111.235V111.535H126.005C125.872 110.513 125.87 109.478 126 108.456Z" fill="white"/>
<path d="M113.926 111.697H109.286L109.238 111.649C108.791 111.203 108.545 110.608 108.545 109.976C108.545 109.344 108.791 108.75 109.238 108.303L109.286 108.255H113.926L113.65 108.532C113.264 108.918 113.051 109.431 113.051 109.976C113.051 110.522 113.263 111.034 113.65 111.42L113.926 111.697Z" fill="#F2935C"/>
<g opacity="0.4">
<path d="M113.926 111.697H109.286L109.238 111.649C108.791 111.203 108.545 110.608 108.545 109.976C108.545 109.344 108.791 108.75 109.238 108.303L109.286 108.255H113.926L113.65 108.532C113.264 108.918 113.051 109.431 113.051 109.976C113.051 110.522 113.263 111.034 113.65 111.42L113.926 111.697Z" fill="white"/>
</g>
<path d="M126.152 111.697H113.618L113.605 111.684C113.172 111.25 112.9 110.673 112.879 110.061C112.856 109.397 113.104 108.769 113.571 108.303L113.618 108.255H126.152C126.241 108.255 126.314 108.328 126.314 108.417C126.314 108.506 126.241 108.579 126.152 108.579H113.754C113.397 108.959 113.202 109.453 113.202 109.976C113.202 110.499 113.397 110.993 113.754 111.372H126.152C126.241 111.372 126.314 111.445 126.314 111.534C126.314 111.624 126.241 111.697 126.152 111.697Z" fill="#F2935C"/>
<g opacity="0.5">
<path d="M126.152 111.697H113.618L113.605 111.684C113.172 111.25 112.9 110.673 112.879 110.061C112.856 109.397 113.104 108.769 113.571 108.303L113.618 108.255H126.152C126.241 108.255 126.314 108.328 126.314 108.417C126.314 108.506 126.241 108.579 126.152 108.579H113.754C113.397 108.959 113.202 109.453 113.202 109.976C113.202 110.499 113.397 110.993 113.754 111.372H126.152C126.241 111.372 126.314 111.445 126.314 111.534C126.314 111.624 126.241 111.697 126.152 111.697Z" fill="white"/>
</g>
<path d="M126 122.626H111.235V125.705H126.005C125.872 124.683 125.87 123.648 126 122.626Z" fill="#F2935C"/>
<path opacity="0.8" d="M126 122.626H111.235V125.705H126.005C125.872 124.683 125.87 123.648 126 122.626Z" fill="white"/>
<path d="M113.926 125.867H109.286L109.238 125.819C108.791 125.373 108.545 124.778 108.545 124.146C108.545 123.514 108.791 122.92 109.238 122.473L109.286 122.425H113.926L113.65 122.702C113.264 123.087 113.051 123.6 113.051 124.146C113.051 124.692 113.263 125.204 113.65 125.59L113.926 125.867Z" fill="#263238"/>
<path d="M126.152 125.867H113.618L113.605 125.853C113.172 125.42 112.9 124.843 112.879 124.23C112.856 123.567 113.104 122.939 113.571 122.472L113.618 122.425H126.152C126.241 122.425 126.314 122.498 126.314 122.587C126.314 122.676 126.241 122.749 126.152 122.749H113.754C113.397 123.129 113.202 123.623 113.202 124.146C113.202 124.669 113.397 125.163 113.754 125.542H126.152C126.241 125.542 126.314 125.615 126.314 125.704C126.314 125.794 126.241 125.867 126.152 125.867Z" fill="#F2935C"/>
<path d="M126 115.339H111.235V118.418H126.005C125.872 117.397 125.87 116.361 126 115.339Z" fill="#F2935C"/>
<path opacity="0.7" d="M126 115.339H111.235V118.418H126.005C125.872 117.397 125.87 116.361 126 115.339Z" fill="white"/>
<path d="M113.926 118.58H109.286L109.238 118.533C108.791 118.086 108.545 117.492 108.545 116.86C108.545 116.228 108.791 115.633 109.238 115.186L109.286 115.139H113.926L113.65 115.415C113.264 115.801 113.051 116.314 113.051 116.86C113.051 117.405 113.263 117.918 113.65 118.304L113.926 118.58Z" fill="#F2935C"/>
<g opacity="0.6">
<path d="M113.926 118.58H109.286L109.238 118.533C108.791 118.086 108.545 117.492 108.545 116.86C108.545 116.228 108.791 115.633 109.238 115.186L109.286 115.139H113.926L113.65 115.415C113.264 115.801 113.051 116.314 113.051 116.86C113.051 117.405 113.263 117.918 113.65 118.304L113.926 118.58Z" fill="white"/>
</g>
<path d="M126.152 118.58H113.618L113.605 118.567C113.172 118.134 112.9 117.557 112.879 116.944C112.856 116.281 113.104 115.653 113.571 115.186L113.618 115.139H126.152C126.241 115.139 126.314 115.211 126.314 115.301C126.314 115.39 126.241 115.463 126.152 115.463H113.754C113.397 115.843 113.202 116.336 113.202 116.86C113.202 117.383 113.397 117.877 113.754 118.257H126.152C126.241 118.257 126.314 118.329 126.314 118.419C126.314 118.508 126.241 118.58 126.152 118.58Z" fill="#F2935C"/>
<g opacity="0.3">
<path d="M126.152 118.58H113.618L113.605 118.567C113.172 118.134 112.9 117.557 112.879 116.944C112.856 116.281 113.104 115.653 113.571 115.186L113.618 115.139H126.152C126.241 115.139 126.314 115.211 126.314 115.301C126.314 115.39 126.241 115.463 126.152 115.463H113.754C113.397 115.843 113.202 116.336 113.202 116.86C113.202 117.383 113.397 117.877 113.754 118.257H126.152C126.241 118.257 126.314 118.329 126.314 118.419C126.314 118.508 126.241 118.58 126.152 118.58Z" fill="white"/>
</g>
<path d="M115.845 122.766L114.805 122.535C114.414 122.449 114.005 122.556 113.708 122.824L112.317 124.075C111.76 124.575 111.481 125.314 111.567 126.057L111.62 126.518C113.318 127.019 115.521 126.309 115.521 126.309L116.172 126.177C116.751 126.058 117.116 125.535 117.009 124.974L116.763 123.681C116.679 123.234 116.313 122.87 115.845 122.766Z" fill="#B55B52"/>
<path d="M114.042 124.54C113.725 124.036 113.059 123.885 112.555 124.202L112.532 124.216C111.708 124.736 110.861 125.281 110.012 125.778C109.167 126.285 108.319 126.776 107.47 127.219C106.627 127.666 105.764 128.066 104.97 128.338C104.635 128.453 104.31 128.532 104.059 128.56C103.695 127.979 103.347 127.379 103.025 126.748C102.639 125.958 102.27 125.151 101.936 124.317C101.607 123.483 101.293 122.637 101.005 121.779C100.859 121.351 100.719 120.92 100.589 120.489C100.462 120.065 100.327 119.606 100.223 119.232L100.204 119.162C99.8935 118.056 98.765 117.379 97.6345 117.641C96.4713 117.911 95.7469 119.072 96.0165 120.235C96.1445 120.788 96.2665 121.251 96.4181 121.742C96.5627 122.227 96.7173 122.706 96.8789 123.184C97.2093 124.136 97.5792 125.077 97.9984 126.003C98.4116 126.931 98.8874 127.842 99.409 128.735C99.9316 129.631 100.537 130.497 101.203 131.334L101.259 131.405C101.326 131.488 101.401 131.565 101.486 131.636C102.016 132.08 102.659 132.296 103.161 132.353C103.677 132.419 104.101 132.376 104.473 132.309C105.214 132.17 105.792 131.937 106.334 131.692C107.409 131.196 108.311 130.597 109.186 129.982C110.051 129.358 110.868 128.702 111.652 128.016C112.431 127.317 113.183 126.626 113.912 125.854C114.243 125.505 114.309 124.964 114.042 124.54Z" fill="#B55B52"/>
<path d="M97.2786 113.475C94.873 115.175 94.759 117.718 96.0582 122.587C97.7951 123.458 102.018 122.356 102.018 122.356C102.018 122.356 100.687 114.797 97.2786 113.475Z" fill="#F2935C"/>
<path opacity="0.7" d="M97.2786 113.475C94.873 115.175 94.759 117.718 96.0582 122.587C97.7951 123.458 102.018 122.356 102.018 122.356C102.018 122.356 100.687 114.797 97.2786 113.475Z" fill="white"/>
</g>
<defs>
<clipPath id="clip0_21264_31473">
<rect width="251" height="251" fill="white" transform="translate(0.5)"/>
</clipPath>
</defs>
</svg>
