<svg width="226" height="151" viewBox="0 0 226 151" fill="none" xmlns="http://www.w3.org/2000/svg">
<path d="M74.9447 62.668C74.5283 63.3034 74.2483 64.0013 74.0992 64.721L72.9553 64.8291V67.0494L74.0995 67.1575C74.2486 67.8772 74.5286 68.5751 74.9447 69.2105L74.214 70.095L75.7806 71.6651L76.6632 70.9328C77.2972 71.3499 77.9936 71.6307 78.7117 71.7799L78.8196 72.9266H81.035L81.1428 71.7802C81.8609 71.6307 82.5573 71.3502 83.1913 70.9331L84.0736 71.6654L85.6403 70.0953L84.9098 69.2108C85.326 68.5754 85.6059 67.8775 85.7551 67.1578L86.8989 67.0497V64.8294L85.7551 64.7213C85.6059 64.0016 85.326 63.3037 84.9095 62.6683L85.6403 61.7837L84.0736 60.2139L83.1913 60.946C82.5573 60.5289 81.8609 60.248 81.1428 60.0985L81.035 58.9521H78.8196L78.7117 60.0985C77.9936 60.248 77.2972 60.5286 76.6632 60.9456L75.7806 60.2133L74.214 61.7834L74.9447 62.668ZM82.0478 63.8137C83.2187 64.9876 83.2187 66.8908 82.0478 68.0644C80.8765 69.2383 78.9775 69.2383 77.8065 68.0644C76.6352 66.8905 76.6355 64.9876 77.8065 63.8137C78.9775 62.6402 80.8765 62.6402 82.0478 63.8137Z" fill="#F5F5F5"/>
<path d="M130.488 67.2783C130.217 67.692 130.035 68.1468 129.937 68.6158L129.192 68.6862V70.1328L129.938 70.2031C130.035 70.6721 130.217 71.1266 130.488 71.5407L130.012 72.1169L131.033 73.1398L131.608 72.6626C132.021 72.9344 132.475 73.1171 132.943 73.2144L133.013 73.9615H134.456L134.526 73.2147C134.994 73.1171 135.448 72.9344 135.861 72.6626L136.436 73.1398L137.457 72.1169L136.98 71.5407C137.252 71.1266 137.434 70.6721 137.531 70.2031L138.276 70.1328V68.6862L137.531 68.6158C137.434 68.1468 137.252 67.6923 136.98 67.2783L137.457 66.702L136.436 65.6792L135.861 66.1563C135.448 65.8845 134.994 65.7015 134.526 65.6043L134.456 64.8574H133.013L132.943 65.6043C132.475 65.7015 132.021 65.8845 131.608 66.1563L131.033 65.6792L130.012 66.702L130.488 67.2783ZM135.116 68.0245C135.879 68.7892 135.879 70.0292 135.116 70.7938C134.353 71.5585 133.116 71.5585 132.353 70.7938C131.59 70.0292 131.59 68.7892 132.353 68.0245C133.116 67.2598 134.353 67.2598 135.116 68.0245Z" fill="#F5F5F5"/>
<path d="M139.45 78.1306C139.17 78.5571 138.982 79.0255 138.882 79.5087L138.115 79.5811V81.0712L138.882 81.1437C138.982 81.6266 139.17 82.095 139.45 82.5217L138.959 83.1151L140.011 84.1688L140.603 83.6775C141.029 83.9574 141.496 84.1459 141.978 84.2461L142.05 85.0156H143.537L143.609 84.2461C144.091 84.1459 144.559 83.9574 144.984 83.6775L145.576 84.1688L146.628 83.1151L146.138 82.5214C146.417 82.095 146.605 81.6266 146.705 81.1437L147.473 81.0712V79.5811L146.705 79.5087C146.605 79.0258 146.417 78.5574 146.138 78.1309L146.628 77.5372L145.576 76.4835L144.984 76.9749C144.559 76.6949 144.091 76.5065 143.609 76.4062L143.537 75.6367H142.05L141.978 76.4062C141.496 76.5065 141.029 76.6949 140.603 76.9749L140.011 76.4835L138.959 77.5372L139.45 78.1306ZM144.217 78.8998C145.003 79.6874 145.003 80.9649 144.217 81.7525C143.431 82.5404 142.156 82.5404 141.37 81.7525C140.584 80.9646 140.585 79.6874 141.37 78.8998C142.157 78.1119 143.431 78.1119 144.217 78.8998Z" fill="#E0E0E0"/>
<path d="M30.249 84.4753C29.5912 85.4791 29.1489 86.5821 28.9132 87.7194L27.1055 87.89L27.1052 91.3983L28.9129 91.569C29.1483 92.7063 29.5909 93.8089 30.2487 94.8131L29.0943 96.2104L31.5698 98.691L32.964 97.5341C33.966 98.1933 35.0661 98.6367 36.201 98.8725L36.3712 100.684L39.8718 100.684L40.0421 98.8725C41.1769 98.6364 42.2771 98.193 43.279 97.5338L44.6733 98.6907L47.1487 96.2101L45.9943 94.8125C46.6518 93.8083 47.0945 92.7057 47.3298 91.5687L49.1372 91.398L49.1375 87.8897L47.3301 87.7191C47.0945 86.582 46.6518 85.4791 45.9943 84.4753L47.1487 83.0776L44.6736 80.597L43.2793 81.754C42.2774 81.0947 41.1772 80.6511 40.0424 80.4152L39.8721 78.6035L36.3715 78.6038L36.2013 80.4155C35.0664 80.6517 33.9663 81.095 32.9647 81.7543L31.5701 80.5973L29.0946 83.0782L30.249 84.4753ZM41.4725 86.2858C43.323 88.1404 43.323 91.1477 41.4725 93.0023C39.6217 94.8571 36.6213 94.8568 34.7708 93.0023C32.9204 91.1477 32.9204 88.1407 34.7708 86.2858C36.6216 84.4312 39.6217 84.4312 41.4725 86.2858Z" fill="#F5F5F5"/>
<path d="M176.244 86.3577C175.821 87.0034 175.536 87.7128 175.384 88.4445L174.222 88.5541V90.8107L175.385 90.9203C175.536 91.6517 175.821 92.3611 176.244 93.0071L175.501 93.9062L177.093 95.5019L177.99 94.7578C178.635 95.1818 179.343 95.4669 180.072 95.6188L180.182 96.7842H182.433L182.543 95.6191C183.273 95.4672 183.98 95.1818 184.625 94.7578L185.522 95.5019L187.114 93.9062L186.372 93.0071C186.795 92.3611 187.079 91.652 187.231 90.9206L188.393 90.811L188.394 88.5544L187.231 88.4445C187.08 87.7131 186.795 87.0037 186.372 86.358L187.114 85.4589L185.522 83.8632L184.625 84.6073C183.98 84.1833 183.273 83.8979 182.543 83.746L182.433 82.5806H180.182L180.072 83.746C179.343 83.8979 178.635 84.183 177.99 84.607L177.093 83.8629L175.501 85.4586L176.244 86.3577ZM183.463 87.5222C184.653 88.7151 184.653 90.6494 183.463 91.8426C182.272 93.0358 180.342 93.0355 179.152 91.8426C177.962 90.6494 177.962 88.7154 179.152 87.5222C180.343 86.3293 182.273 86.3293 183.463 87.5222Z" fill="#F5F5F5"/>
<path d="M27.1399 104.554C26.8057 105.063 26.5812 105.623 26.4616 106.201L25.5437 106.288V108.069L26.4616 108.156C26.5812 108.733 26.806 109.293 27.1399 109.803L26.5535 110.513L27.8103 111.773L28.5185 111.185C29.0271 111.52 29.5858 111.745 30.1622 111.865L30.2487 112.785H32.0263L32.1128 111.865C32.6889 111.745 33.2479 111.52 33.7565 111.185L34.4647 111.773L35.7215 110.513L35.1354 109.803C35.4693 109.294 35.6941 108.734 35.8137 108.156L36.7316 108.069V106.288L35.8137 106.201C35.6941 105.624 35.4693 105.064 35.1354 104.554L35.7215 103.844L34.4647 102.585L33.7565 103.172C33.2479 102.837 32.6889 102.612 32.1128 102.492L32.0263 101.572H30.2487L30.1622 102.492C29.5861 102.612 29.0274 102.837 28.5185 103.172L27.8103 102.584L26.5535 103.844L27.1399 104.554ZM32.8393 105.473C33.7788 106.415 33.7788 107.942 32.8393 108.883C31.8994 109.825 30.3759 109.825 29.436 108.883C28.4962 107.941 28.4965 106.415 29.436 105.473C30.3759 104.531 31.8994 104.531 32.8393 105.473Z" fill="#E0E0E0"/>
<path d="M141.814 64.0599C141.409 64.6784 141.136 65.3579 140.991 66.0586L139.877 66.1637V68.3251L140.991 68.4302C141.136 69.1308 141.409 69.8103 141.814 70.4288L141.102 71.2898L142.627 72.8182L143.487 72.1055C144.104 72.5117 144.782 72.7847 145.481 72.9303L145.586 74.0465H147.742L147.847 72.9306C148.546 72.785 149.224 72.512 149.841 72.1058L150.7 72.8185L152.226 71.2901L151.514 70.4291C151.92 69.8106 152.192 69.1311 152.337 68.4305L153.451 68.3254L153.451 66.164L152.337 66.0589C152.192 65.3582 151.919 64.679 151.514 64.0605L152.226 63.1995L150.7 61.6711L149.841 62.3838C149.224 61.9776 148.546 61.7043 147.847 61.5591L147.742 60.4429H145.586L145.481 61.5591C144.782 61.7046 144.104 61.9776 143.487 62.3838L142.627 61.6711L141.102 63.1995L141.814 64.0599ZM148.729 65.1755C149.869 66.3183 149.869 68.1708 148.729 69.3135C147.588 70.4563 145.74 70.4563 144.6 69.3135C143.459 68.1708 143.46 66.3183 144.6 65.1755C145.74 64.033 147.588 64.033 148.729 65.1755Z" fill="#E0E0E0"/>
<path d="M49.9005 39.7246L21.5076 46.4868L26.338 66.8585L54.731 60.0963L49.9005 39.7246Z" fill="#E0E0E0"/>
<path d="M48.9802 40.7847L22.8057 47.0186L27.2587 65.7987L53.4333 59.5648L48.9802 40.7847Z" fill="#FAFAFA"/>
<path d="M27.2613 65.7971L26.5896 62.9653C27.5415 59.7731 30.6516 54.936 31.9958 54.5519C34.2272 53.9143 38.7071 57.1512 38.7071 57.1512C38.7071 57.1512 43.1325 49.4079 44.5599 48.7287C46.8347 47.6466 51.857 52.9069 51.857 52.9069L53.4354 59.562L27.2613 65.7971Z" fill="#EBEBEB"/>
<path d="M39.0622 49.4925C39.2586 50.7884 38.37 51.9985 37.077 52.1957C35.784 52.3926 34.5765 51.502 34.3797 50.2061C34.1833 48.9102 35.0719 47.7001 36.3649 47.5029C37.658 47.3057 38.8657 48.1966 39.0622 49.4925Z" fill="#EBEBEB"/>
<path d="M185.809 26.8459L150.03 25.3745L148.978 51.046L184.758 52.5174L185.809 26.8459Z" fill="#E0E0E0"/>
<path d="M184.37 27.791L151.386 26.4346L150.417 50.1006L183.401 51.457L184.37 27.791Z" fill="#FAFAFA"/>
<path d="M150.409 50.1038L150.555 46.5354C152.738 43.0823 158.016 38.4056 159.732 38.3998C162.579 38.3901 166.796 43.706 166.796 43.706C166.796 43.706 174.592 36.0348 176.503 35.7087C179.548 35.1889 183.736 43.0751 183.736 43.0751L183.392 51.4613L150.409 50.1038Z" fill="#EBEBEB"/>
<path d="M169.756 34.7794C169.558 36.3755 168.107 37.5086 166.514 37.3105C164.922 37.1123 163.791 35.6579 163.989 34.0618C164.187 32.4658 165.638 31.3327 167.23 31.5308C168.823 31.7289 169.954 33.1833 169.756 34.7794Z" fill="#EBEBEB"/>
<path d="M205.362 69.4028L185.866 65.7637L183.266 79.7516L202.762 83.3907L205.362 69.4028Z" fill="#E0E0E0"/>
<path d="M204.499 69.8074L186.526 66.4526L184.13 79.3477L202.102 82.7025L204.499 69.8074Z" fill="#FAFAFA"/>
<path d="M184.123 79.3548L184.485 77.4105C185.954 75.6906 189.216 73.5449 190.156 73.6775C191.717 73.8976 193.61 77.1453 193.61 77.1453C193.61 77.1453 198.488 73.5576 199.562 73.5301C201.272 73.4863 202.945 78.1404 202.945 78.1404L202.096 82.7103L184.123 79.3548Z" fill="#EBEBEB"/>
<path d="M195.937 72.4864C195.702 73.3456 194.817 73.8518 193.96 73.6171C193.103 73.3825 192.598 72.4955 192.832 71.6363C193.066 70.7771 193.951 70.271 194.808 70.5056C195.665 70.7403 196.171 71.6273 195.937 72.4864Z" fill="#EBEBEB"/>
<path d="M108.518 27.2891C108.562 27.2894 108.597 27.3259 108.597 27.3703C108.597 27.3987 108.582 27.4247 108.557 27.4392L101.583 31.1193L101.251 31.2969L97.6814 33.1781L85.3969 33.5927C85.3526 33.5924 85.3171 33.5562 85.3174 33.5115C85.3177 33.4831 85.3327 33.4571 85.3572 33.4426L96.0822 27.7825C96.1814 27.7294 96.2913 27.7004 96.4034 27.6971L100.26 27.5636L100.637 27.5527L108.518 27.2891Z" fill="#E6E6E6"/>
<path d="M103.441 28.7183C103.196 28.3199 100.255 28.7328 96.7514 29.6638C93.2478 30.5949 90.4885 31.6963 90.4731 32.1638L91.9138 37.61C91.9406 37.7112 92.044 37.7716 92.1449 37.7447C92.1458 37.7444 92.1468 37.7441 92.1477 37.7441L104.755 34.3943C104.857 34.369 104.918 34.2663 104.893 34.1645C104.893 34.1636 104.893 34.1627 104.893 34.1618L103.452 28.7155L103.441 28.7183Z" fill="#EBEBEB"/>
<path d="M102.381 33.0137L102.685 34.1628L102.593 34.1869L102.34 33.4969L102.458 34.2232L102.308 34.263L102.052 33.5736L102.17 34.2999L102.021 34.3397L101.764 33.6503L101.885 34.3757L101.794 34.3998L101.49 33.2507C101.444 33.0707 101.511 32.8811 101.659 32.769L100.281 27.5617L100.658 27.5508L102.013 32.6751C102.191 32.7053 102.335 32.8379 102.381 33.0137Z" fill="#E0E0E0"/>
<path d="M203.019 97.8526H148.554C147.58 97.8526 146.787 97.0584 146.787 96.0823V16.5735C146.787 15.5975 147.58 14.8032 148.554 14.8032H203.019C203.992 14.8032 204.785 15.5972 204.785 16.5735V96.082C204.785 97.0584 203.992 97.8526 203.019 97.8526ZM148.554 14.879C147.621 14.879 146.863 15.6392 146.863 16.5738V96.0823C146.863 97.017 147.621 97.7771 148.554 97.7771H203.019C203.951 97.7771 204.71 97.017 204.71 96.0823V16.5735C204.71 15.6392 203.951 14.8787 203.019 14.8787L148.554 14.879Z" fill="#E0E0E0"/>
<path d="M140.212 97.8526H85.7474C84.7735 97.8526 83.981 97.0584 83.981 96.0823V16.5735C83.981 15.5975 84.7732 14.8032 85.7474 14.8032H140.212C141.186 14.8032 141.979 15.5972 141.979 16.5735V96.082C141.979 97.0584 141.186 97.8526 140.212 97.8526ZM85.7474 14.879C84.815 14.879 84.0563 15.6392 84.0563 16.5738V96.0823C84.0563 97.017 84.815 97.7771 85.7474 97.7771H140.212C141.145 97.7771 141.904 97.017 141.904 96.0823V16.5735C141.904 15.6392 141.145 14.8787 140.212 14.8787L85.7474 14.879Z" fill="#E0E0E0"/>
<path d="M77.4463 97.8526H22.9815C22.0076 97.8526 21.2151 97.0584 21.2151 96.0823V16.5735C21.2151 15.5975 22.0073 14.8032 22.9815 14.8032H77.4463C78.4202 14.8032 79.2127 15.5972 79.2127 16.5735V96.082C79.213 97.0584 78.4205 97.8526 77.4463 97.8526ZM22.9815 14.879C22.0492 14.879 21.2904 15.6392 21.2904 16.5738V96.0823C21.2904 97.017 22.0492 97.7771 22.9815 97.7771H77.4463C78.3789 97.7771 79.1374 97.017 79.1374 96.0823V16.5735C79.1374 15.6392 78.3786 14.8787 77.4463 14.8787L22.9815 14.879Z" fill="#E0E0E0"/>
<path d="M226 116.295H0V116.332H226V116.295Z" fill="#E0E0E0"/>
<path d="M213.752 125.167H196.959V125.294H213.752V125.167Z" fill="#EBEBEB"/>
<path d="M153.581 126.546H149.173V126.673H153.581V126.546Z" fill="#EBEBEB"/>
<path d="M34.1469 121.302H12.2478V121.429H34.1469V121.302Z" fill="#EBEBEB"/>
<path d="M41.8719 121.302H38.6609V121.429H41.8719V121.302Z" fill="#EBEBEB"/>
<path d="M99.8014 123.448H52.3074V123.575H99.8014V123.448Z" fill="#EBEBEB"/>
<path d="M216.951 135.176C216.951 136.291 169.871 137.194 111.795 137.194C53.7185 137.194 6.63818 136.291 6.63818 135.176C6.63818 134.061 53.7185 133.158 111.795 133.158C169.871 133.158 216.951 134.061 216.951 135.176Z" fill="#F5F5F5"/>
<path d="M31.7298 120.519L30.4006 120.332C30.6354 118.671 32.0224 115.527 35.5673 115.527C39.7634 115.527 41.8549 117.956 42.0631 120.368L40.734 120.483C40.5788 118.68 38.9172 116.859 35.5631 116.859C32.3102 116.86 31.7606 120.372 31.7298 120.519Z" fill="#263238"/>
<path d="M25.6901 119.347H47.2825C48.4646 119.347 49.4225 120.307 49.4225 121.491V132.682C49.4225 133.867 48.4643 134.827 47.2825 134.827H25.6901C24.5083 134.827 23.55 133.867 23.55 132.682V121.492C23.55 120.307 24.5083 119.347 25.6901 119.347Z" fill="#263238"/>
<path opacity="0.2" d="M25.6901 119.347H47.2825C48.4646 119.347 49.4225 120.307 49.4225 121.491V132.682C49.4225 133.867 48.4643 134.827 47.2825 134.827H25.6901C24.5083 134.827 23.55 133.867 23.55 132.682V121.492C23.55 120.307 24.5083 119.347 25.6901 119.347Z" fill="white"/>
<path d="M42.0761 135.067C23.7849 135.067 22.8987 122.495 22.8987 122.362L23.643 120.905C23.674 121.372 25.1141 133.726 42.0891 133.726C49.0767 133.726 55.1073 133.726 55.7187 132.394C56.2548 131.217 53.6362 128.193 49.4356 123.348V121.474C54.7882 127.651 57.819 130.973 56.9283 132.931C55.9893 134.987 51.9484 135.067 42.0761 135.067Z" fill="#263238"/>
<path d="M76.6796 44.9096C74.3581 41.9573 70.0066 41.3874 66.9598 43.637C64.6076 45.3735 63.7283 48.2812 64.5145 50.876L63.4143 52.5901L65.5812 52.9637C65.6041 52.9939 65.6228 53.0259 65.6463 53.0558C67.9678 56.0081 72.3193 56.578 75.3661 54.3284C78.4129 52.0788 79.0011 47.862 76.6796 44.9096Z" fill="#F2935C"/>
<path opacity="0.7" d="M76.6796 44.9096C74.3581 41.9573 70.0066 41.3874 66.9598 43.637C64.6076 45.3735 63.7283 48.2812 64.5145 50.876L63.4143 52.5901L65.5812 52.9637C65.6041 52.9939 65.6228 53.0259 65.6463 53.0558C67.9678 56.0081 72.3193 56.578 75.3661 54.3284C78.4129 52.0788 79.0011 47.862 76.6796 44.9096Z" fill="white"/>
<path d="M78.7307 50.9437C78.7229 50.9437 78.7147 50.9425 78.7066 50.9398C78.6671 50.9268 78.646 50.8836 78.6593 50.8443C79.3436 48.7986 78.8741 46.404 77.463 44.7436C77.4362 44.7119 77.4398 44.6642 77.4714 44.6373C77.5028 44.6102 77.5504 44.6138 77.5778 44.6458C79.0224 46.3455 79.503 48.7974 78.8021 50.8924C78.7919 50.9238 78.7624 50.9437 78.7307 50.9437ZM77.9946 52.7527C78.2088 52.4809 78.3661 52.1611 78.4499 51.8286C78.4601 51.7881 78.4357 51.747 78.3953 51.7371C78.354 51.7265 78.314 51.7513 78.304 51.7917C78.2254 52.1037 78.0774 52.4036 77.8764 52.6591C77.8508 52.6917 77.8562 52.7394 77.8888 52.7651C77.9026 52.7759 77.9192 52.7814 77.9355 52.7814C77.9578 52.7814 77.9798 52.7717 77.9946 52.7527Z" fill="#F2935C"/>
<path opacity="0.7" d="M78.7307 50.9437C78.7229 50.9437 78.7147 50.9425 78.7066 50.9398C78.6671 50.9268 78.646 50.8836 78.6593 50.8443C79.3436 48.7986 78.8741 46.404 77.463 44.7436C77.4362 44.7119 77.4398 44.6642 77.4714 44.6373C77.5028 44.6102 77.5504 44.6138 77.5778 44.6458C79.0224 46.3455 79.503 48.7974 78.8021 50.8924C78.7919 50.9238 78.7624 50.9437 78.7307 50.9437ZM77.9946 52.7527C78.2088 52.4809 78.3661 52.1611 78.4499 51.8286C78.4601 51.7881 78.4357 51.747 78.3953 51.7371C78.354 51.7265 78.314 51.7513 78.304 51.7917C78.2254 52.1037 78.0774 52.4036 77.8764 52.6591C77.8508 52.6917 77.8562 52.7394 77.8888 52.7651C77.9026 52.7759 77.9192 52.7814 77.9355 52.7814C77.9578 52.7814 77.9798 52.7717 77.9946 52.7527Z" fill="white"/>
<path d="M72.8171 48.8342C72.8171 49.3325 73.2339 49.7363 73.7483 49.7363C74.2623 49.7363 74.6794 49.3322 74.6794 48.8342C74.6794 48.3359 74.2626 47.9321 73.7483 47.9321C73.2342 47.9318 72.8171 48.3359 72.8171 48.8342Z" fill="#F2935C"/>
<path d="M69.9666 48.8342C69.9666 49.3325 70.3833 49.7363 70.8977 49.7363C71.412 49.7363 71.8288 49.3322 71.8288 48.8342C71.8288 48.3359 71.412 47.9321 70.8977 47.9321C70.3836 47.9318 69.9666 48.3359 69.9666 48.8342Z" fill="#F2935C"/>
<path d="M67.116 48.8342C67.116 49.3325 67.5327 49.7363 68.0471 49.7363C68.5612 49.7363 68.9782 49.3322 68.9782 48.8342C68.9782 48.3359 68.5615 47.9321 68.0471 47.9321C67.5327 47.9318 67.116 48.3359 67.116 48.8342Z" fill="#F2935C"/>
<path d="M128.346 16.5031C123.129 16.4418 118.85 20.6302 118.789 25.8582C118.756 28.6952 119.994 31.3978 122.163 33.2215C122.562 33.5513 123.171 33.9503 123.158 34.7771C123.157 34.8025 123.2 36.8461 123.2 36.8461H133.135C133.135 36.8461 133.177 34.7228 133.177 34.6986C133.177 33.9705 133.74 33.6564 134.154 33.3284C136.352 31.5626 137.645 28.9035 137.68 26.0807C137.742 20.8525 133.562 16.5644 128.346 16.5031Z" fill="#F2935C"/>
<path opacity="0.4" d="M128.346 16.5031C123.129 16.4418 118.85 20.6302 118.789 25.8582C118.756 28.6952 119.994 31.3978 122.163 33.2215C122.562 33.5513 123.171 33.9503 123.158 34.7771C123.157 34.8025 123.2 36.8461 123.2 36.8461H133.135C133.135 36.8461 133.177 34.7228 133.177 34.6986C133.177 33.9705 133.74 33.6564 134.154 33.3284C136.352 31.5626 137.645 28.9035 137.68 26.0807C137.742 20.8525 133.562 16.5644 128.346 16.5031Z" fill="white"/>
<path opacity="0.2" d="M133.041 20.5826C133.041 22.4257 130.889 23.9237 128.22 23.9237C125.551 23.9237 123.399 22.4257 123.399 20.5826C123.399 18.7395 125.551 17.2383 128.22 17.2383C130.889 17.2383 133.041 18.7362 133.041 20.5826Z" fill="white"/>
<path d="M120.972 29.6062C120.137 28.1708 119.81 26.4748 120.052 24.8307C120.294 23.1869 121.096 21.6579 122.309 20.5254L122.412 20.6359C121.223 21.7452 120.438 23.2425 120.201 24.8527C119.964 26.4627 120.284 28.124 121.102 29.5298L120.972 29.6062Z" fill="white"/>
<path d="M130.981 34.8233C130.498 33.5503 130.097 32.2403 129.779 30.9036C129.293 31.3316 128.758 31.5517 128.242 31.5251C127.826 31.5046 127.409 31.33 126.98 30.9948C126.916 32.2913 126.7 33.5781 126.336 34.8203L126.047 34.7351C126.427 33.441 126.641 32.0971 126.689 30.7451C126.62 30.6801 126.549 30.611 126.48 30.5376C125.423 29.4344 124.929 28.0684 125.158 26.8831C125.245 26.4334 125.516 25.9949 125.927 25.9949C126.301 26.0043 126.577 26.3733 126.704 27.0341C126.93 28.2146 127.026 29.4175 126.994 30.6152C127.436 31.0042 127.851 31.2038 128.257 31.224C128.867 31.2551 129.386 30.8716 129.7 30.5657C129.47 29.547 129.287 28.5136 129.154 27.4705C129.106 27.0933 129.07 26.7248 129.152 26.3667C129.253 25.9276 129.535 25.5972 129.871 25.5253C130.454 25.3985 130.926 26.0224 131.087 26.7028C131.409 28.0558 131.004 29.5984 130.056 30.6327C130.048 30.6418 130.039 30.6505 130.031 30.6593C130.352 32.0437 130.764 33.4006 131.263 34.717L130.981 34.8233ZM125.914 26.2963C125.693 26.2963 125.516 26.6188 125.454 26.9402C125.243 28.0292 125.708 29.2958 126.696 30.328C126.697 30.3286 126.698 30.3289 126.698 30.3295C126.709 29.2453 126.613 28.1584 126.408 27.0906C126.373 26.9064 126.233 26.3042 125.919 26.2966C125.918 26.2963 125.915 26.2963 125.914 26.2963ZM130.015 25.8113C129.988 25.8113 129.961 25.814 129.934 25.8198C129.681 25.8738 129.507 26.1671 129.446 26.4334C129.375 26.7433 129.409 27.0824 129.453 27.4315C129.576 28.3958 129.742 29.3519 129.949 30.2954C130.737 29.3471 131.076 27.9546 130.795 26.772C130.677 26.2788 130.362 25.8113 130.015 25.8113Z" fill="#263238"/>
<path d="M133.789 37.4473H122.598C122.331 37.4473 122.114 37.2304 122.114 36.9629V36.73C122.114 36.4624 122.331 36.2456 122.598 36.2456H133.789C134.056 36.2456 134.272 36.4624 134.272 36.73V36.9629C134.272 37.2304 134.056 37.4473 133.789 37.4473Z" fill="#263238"/>
<path opacity="0.3" d="M133.789 37.4473H122.598C122.331 37.4473 122.114 37.2304 122.114 36.9629V36.73C122.114 36.4624 122.331 36.2456 122.598 36.2456H133.789C134.056 36.2456 134.272 36.4624 134.272 36.73V36.9629C134.272 37.2304 134.056 37.4473 133.789 37.4473Z" fill="white"/>
<path d="M133.592 38.5019H122.795C122.528 38.5019 122.311 38.285 122.311 38.0175V37.8233C122.311 37.5557 122.528 37.3389 122.795 37.3389H133.592C133.859 37.3389 134.075 37.5557 134.075 37.8233V38.0172C134.075 38.285 133.859 38.5019 133.592 38.5019Z" fill="#263238"/>
<path opacity="0.3" d="M133.592 38.5019H122.795C122.528 38.5019 122.311 38.285 122.311 38.0175V37.8233C122.311 37.5557 122.528 37.3389 122.795 37.3389H133.592C133.859 37.3389 134.075 37.5557 134.075 37.8233V38.0172C134.075 38.285 133.859 38.5019 133.592 38.5019Z" fill="white"/>
<path d="M124.462 40.1597C125.208 41.526 126.775 42.9653 128.326 42.8735C129.877 42.7817 131.332 41.4611 131.912 40.0166L124.462 40.1597Z" fill="#263238"/>
<path d="M132.874 40.5986H123.513C123.246 40.5986 123.03 40.3817 123.03 40.1141V39.92C123.03 39.6524 123.246 39.4355 123.513 39.4355H132.874C133.141 39.4355 133.357 39.6524 133.357 39.92V40.1141C133.357 40.3817 133.141 40.5986 132.874 40.5986Z" fill="#263238"/>
<path opacity="0.3" d="M132.874 40.5986H123.513C123.246 40.5986 123.03 40.3817 123.03 40.1141V39.92C123.03 39.6524 123.246 39.4355 123.513 39.4355H132.874C133.141 39.4355 133.357 39.6524 133.357 39.92V40.1141C133.357 40.3817 133.141 40.5986 132.874 40.5986Z" fill="white"/>
<path d="M133.433 39.5317H122.954C122.687 39.5317 122.47 39.3148 122.47 39.0472V38.8531C122.47 38.5855 122.687 38.3687 122.954 38.3687H133.433C133.7 38.3687 133.916 38.5855 133.916 38.8531V39.0472C133.916 39.3148 133.7 39.5317 133.433 39.5317Z" fill="#263238"/>
<path opacity="0.3" d="M133.433 39.5317H122.954C122.687 39.5317 122.47 39.3148 122.47 39.0472V38.8531C122.47 38.5855 122.687 38.3687 122.954 38.3687H133.433C133.7 38.3687 133.916 38.5855 133.916 38.8531V39.0472C133.916 39.3148 133.7 39.5317 133.433 39.5317Z" fill="white"/>
<path d="M122.993 13.0699C123.712 13.7896 124.429 14.5089 125.147 15.2286C125.25 15.3319 125.41 15.1715 125.307 15.0685C124.589 14.3489 123.871 13.6295 123.153 12.9098C123.05 12.8066 122.89 12.9666 122.993 13.0699Z" fill="#263238"/>
<path d="M128.609 14.3799C128.609 13.0185 128.609 11.6573 128.609 10.2959C128.609 10.1501 128.383 10.1501 128.383 10.2959C128.383 11.6573 128.383 13.0185 128.383 14.3799C128.383 14.5254 128.609 14.5257 128.609 14.3799Z" fill="#263238"/>
<path d="M131.596 15.4038C132.372 14.6258 133.149 13.8478 133.925 13.0699C134.028 12.9666 133.868 12.8066 133.765 12.9098C132.989 13.6878 132.213 14.4657 131.436 15.2437C131.333 15.3467 131.493 15.5067 131.596 15.4038Z" fill="#263238"/>
<path d="M178.513 120.293H47.4375V134.356H178.513V120.293Z" fill="#F2935C"/>
<path d="M92.4721 121.764H47.4375V132.886H92.4721V121.764Z" fill="white"/>
<path d="M47.4375 124.505C61.1349 124.358 76.5017 124.356 90.1991 124.505C76.5017 124.654 61.1349 124.652 47.4375 124.505Z" fill="#263238"/>
<path d="M47.4375 125.824C61.1349 125.677 76.5017 125.675 90.1991 125.824C76.5017 125.972 61.1349 125.971 47.4375 125.824Z" fill="#263238"/>
<path d="M47.4375 127.143C61.1349 126.995 76.5017 126.994 90.1991 127.143C76.5017 127.291 61.1349 127.29 47.4375 127.143Z" fill="#263238"/>
<path d="M47.4375 128.462C61.1349 128.315 76.5017 128.313 90.1991 128.462C76.5017 128.611 61.1349 128.609 47.4375 128.462Z" fill="#263238"/>
<path d="M47.4375 129.781C61.1349 129.634 76.5017 129.632 90.1991 129.781C76.5017 129.929 61.1349 129.928 47.4375 129.781Z" fill="#263238"/>
<path d="M47.4375 131.1C61.1349 130.952 76.5017 130.951 90.1991 131.1C76.5017 131.248 61.1349 131.247 47.4375 131.1Z" fill="#263238"/>
<path d="M47.4375 123.186C61.1349 123.038 76.5017 123.037 90.1991 123.186C76.5017 123.334 61.1349 123.333 47.4375 123.186Z" fill="#263238"/>
<path opacity="0.3" d="M108.001 120.293H103.98V134.356H108.001V120.293Z" fill="white"/>
<path opacity="0.3" d="M169.314 120.293H165.293V134.356H169.314V120.293Z" fill="white"/>
<path opacity="0.2" d="M95.0241 120.293H47.4375V134.356H95.0241V120.293Z" fill="black"/>
<path d="M143.387 90.6113H67.2231V100.63H143.387V90.6113Z" fill="#F2935C"/>
<path d="M99.307 91.6592H67.2231V99.5824H99.307V91.6592Z" fill="white"/>
<path d="M67.2231 93.612C76.9809 93.4646 87.9299 93.4634 97.6876 93.612C87.9296 93.7605 76.9809 93.7593 67.2231 93.612Z" fill="#263238"/>
<path d="M67.2231 94.5519C76.9809 94.4045 87.9299 94.4033 97.6876 94.5519C87.9296 94.7005 76.9809 94.6993 67.2231 94.5519Z" fill="#263238"/>
<path d="M67.2231 95.4914C76.9809 95.344 87.9299 95.3428 97.6876 95.4914C87.9296 95.6402 76.9809 95.6387 67.2231 95.4914Z" fill="#263238"/>
<path d="M67.2231 96.4308C76.9809 96.2834 87.9299 96.2822 97.6876 96.4308C87.9296 96.5794 76.9809 96.5782 67.2231 96.4308Z" fill="#263238"/>
<path d="M67.2231 97.3708C76.9809 97.2234 87.9299 97.2222 97.6876 97.3708C87.9296 97.5193 76.9809 97.5178 67.2231 97.3708Z" fill="#263238"/>
<path d="M67.2231 98.3102C76.9809 98.1628 87.9299 98.1616 97.6876 98.3102C87.9296 98.4588 76.9809 98.4576 67.2231 98.3102Z" fill="#263238"/>
<path d="M67.2231 92.672C76.9809 92.5246 87.9299 92.5234 97.6876 92.672C87.9296 92.8209 76.9809 92.8194 67.2231 92.672Z" fill="#263238"/>
<path opacity="0.3" d="M140.293 90.6113H137.428V100.63H140.293V90.6113Z" fill="black"/>
<path opacity="0.3" d="M109.833 90.6113H106.969V100.63H109.833V90.6113Z" fill="black"/>
<path opacity="0.2" d="M101.125 90.6113H67.2231V100.63H101.125V90.6113Z" fill="black"/>
<path opacity="0.3" d="M134.536 94.1484H112.378V97.0815H134.536V94.1484Z" fill="black"/>
<path d="M146.347 114.4H39.4387V120.294H146.347V114.4Z" fill="#E0E0E0"/>
<path d="M84.3568 115.161H39.4382V119.533H84.3568V115.161Z" fill="white"/>
<path d="M39.7463 116.028C53.4437 115.881 68.8105 115.879 82.508 116.028C68.8105 116.177 53.4437 116.175 39.7463 116.028Z" fill="#E0E0E0"/>
<path d="M39.7463 117.347C53.4437 117.199 68.8105 117.198 82.508 117.347C68.8105 117.495 53.4437 117.494 39.7463 117.347Z" fill="#E0E0E0"/>
<path d="M39.7463 118.666C53.4437 118.519 68.8105 118.518 82.508 118.666C68.8105 118.815 53.4437 118.814 39.7463 118.666Z" fill="#E0E0E0"/>
<path opacity="0.3" d="M97.1205 114.4H95.9917V120.294H97.1205V114.4Z" fill="white"/>
<path opacity="0.3" d="M99.2238 114.4H98.095V120.294H99.2238V114.4Z" fill="white"/>
<path opacity="0.3" d="M139.15 114.4H138.021V120.294H139.15V114.4Z" fill="white"/>
<path opacity="0.3" d="M141.253 114.4H140.125V120.294H141.253V114.4Z" fill="white"/>
<path opacity="0.2" d="M85.4508 114.397H39.4336V120.291H85.4508V114.397Z" fill="black"/>
<path d="M167.1 100.578H60.1919V106.472H167.1V100.578Z" fill="#E0E0E0"/>
<path d="M105.11 101.339H60.1914V105.71H105.11V101.339Z" fill="white"/>
<path d="M60.4995 102.206C74.1969 102.058 89.5637 102.057 103.261 102.206C89.5637 102.354 74.1969 102.353 60.4995 102.206Z" fill="#E0E0E0"/>
<path d="M60.4995 103.525C74.1969 103.378 89.5637 103.376 103.261 103.525C89.5637 103.674 74.1969 103.672 60.4995 103.525Z" fill="#E0E0E0"/>
<path d="M60.4995 104.844C74.1969 104.697 89.5637 104.695 103.261 104.844C89.5637 104.993 74.1969 104.991 60.4995 104.844Z" fill="#E0E0E0"/>
<path opacity="0.3" d="M117.874 100.578H116.745V106.472H117.874V100.578Z" fill="white"/>
<path opacity="0.3" d="M119.977 100.578H118.848V106.472H119.977V100.578Z" fill="white"/>
<path opacity="0.3" d="M159.903 100.578H158.774V106.472H159.903V100.578Z" fill="white"/>
<path opacity="0.3" d="M162.006 100.578H160.877V106.472H162.006V100.578Z" fill="white"/>
<path opacity="0.2" d="M106.204 100.575H60.1868V106.469H106.204V100.575Z" fill="black"/>
<path d="M43.8544 114.457L150.763 114.457V106.414L43.8544 106.414V114.457Z" fill="#F2935C"/>
<path opacity="0.4" d="M43.8544 114.457L150.763 114.457V106.414L43.8544 106.414V114.457Z" fill="white"/>
<path d="M105.844 113.696H150.762V107.34H105.844V113.696Z" fill="white"/>
<path d="M150.454 110.191C136.757 110.338 121.39 110.34 107.693 110.191C121.39 110.042 136.757 110.044 150.454 110.191Z" fill="#263238"/>
<path d="M150.454 111.51C136.757 111.658 121.39 111.659 107.693 111.51C121.39 111.362 136.757 111.363 150.454 111.51Z" fill="#263238"/>
<path d="M150.454 112.829C136.757 112.977 121.39 112.978 107.693 112.829C121.39 112.681 136.757 112.682 150.454 112.829Z" fill="#263238"/>
<path d="M150.454 108.824C136.757 108.971 121.39 108.972 107.693 108.824C121.39 108.675 136.757 108.677 150.454 108.824Z" fill="#263238"/>
<path opacity="0.2" d="M104.75 114.454H150.767V106.411H104.75V114.454Z" fill="black"/>
<path opacity="0.4" d="M95.5892 108.824H53.4119V111.51H95.5892V108.824Z" fill="white"/>
<path d="M168.093 106.679C168.093 106.679 136.718 100.284 135.428 106.832C133.585 116.179 156.25 121.76 168.214 121.024C180.177 120.288 168.093 106.679 168.093 106.679Z" fill="#5B321A"/>
<path opacity="0.2" d="M168.093 106.679C168.093 106.679 136.718 100.284 135.428 106.832C133.585 116.179 156.25 121.76 168.214 121.024C180.177 120.288 168.093 106.679 168.093 106.679Z" fill="black"/>
<path opacity="0.2" d="M145.711 108.537L160.618 117.425L158.747 120.264C158.747 120.264 159.82 121.761 161.641 117.01L152.411 111.28C152.411 111.28 155.236 110.911 155.152 110.469C155.01 109.744 148.744 108.54 145.887 107.999C145.739 107.951 145.579 108.032 145.53 108.18C145.482 108.328 145.563 108.488 145.711 108.537Z" fill="black"/>
<path opacity="0.2" d="M161.117 116.359L158.7 120.556C161.847 121.011 165.033 121.168 168.214 121.024C169.259 120.987 170.29 120.768 171.255 120.379L172.099 118.718L170.065 114.904L161.117 116.359Z" fill="black"/>
<path d="M156.225 114.862L162.855 118.807L161.782 122.007L154.039 118.791L156.225 114.862Z" fill="#EBB373"/>
<path d="M166.468 119.761L165.897 122.057C165.897 122.057 165.42 122.173 165.285 122.656C165.209 122.928 165.428 123.664 165.428 123.664L163.902 129.989C163.893 129.987 163.469 129.885 163.299 129.769C163.091 129.628 162.922 129.483 162.786 129.334C162.308 128.812 162.234 128.038 162.2 127.464C162.143 126.502 161.508 123.706 161.508 123.706C161.508 123.706 161.276 122.98 160.485 122.357C160.044 122.01 159.831 121.561 159.863 121.279C159.927 120.703 160.332 120.475 160.87 120.524L161.494 120.582C161.929 120.237 162.048 119.672 161.751 119.139C161.751 119.139 161.343 117.783 161.922 117.996C162.252 118.118 163.708 118.718 164.872 119.158C165.143 119.26 165.4 119.357 165.625 119.442V119.442C166.125 119.631 166.468 119.761 166.468 119.761Z" fill="#5B321A"/>
<path d="M161.792 125.199C161.773 125.165 161.781 125.12 161.81 125.092C161.941 124.965 162.104 124.871 162.29 124.826C162.389 124.803 162.438 124.96 162.339 124.984C162.174 125.024 162.03 125.106 161.915 125.217C161.877 125.254 161.818 125.247 161.793 125.201C161.793 125.2 161.792 125.199 161.792 125.199Z" fill="#F2935C"/>
<path d="M161.648 124.648C161.629 124.613 161.637 124.569 161.666 124.541C161.797 124.413 161.96 124.319 162.146 124.274C162.245 124.251 162.294 124.408 162.195 124.432C162.029 124.472 161.886 124.554 161.771 124.665C161.733 124.703 161.674 124.696 161.649 124.649C161.649 124.649 161.648 124.648 161.648 124.648Z" fill="#F2935C"/>
<path d="M161.525 124.085C161.507 124.05 161.515 124.006 161.543 123.978C161.674 123.85 161.837 123.757 162.024 123.712C162.122 123.688 162.172 123.846 162.072 123.87C161.907 123.91 161.763 123.992 161.648 124.103C161.61 124.14 161.551 124.133 161.526 124.087C161.526 124.086 161.525 124.086 161.525 124.085Z" fill="#F2935C"/>
<path opacity="0.2" d="M165.625 119.442V119.443C166.125 119.631 166.469 119.761 166.469 119.761L165.897 122.057C165.897 122.057 165.42 122.173 165.285 122.656C165.209 122.928 165.428 123.664 165.428 123.664L163.902 129.989C163.893 129.986 163.469 129.885 163.299 129.769C163.204 129.705 163.119 129.639 163.039 129.572L165.5 119.395C165.541 119.41 165.586 119.427 165.625 119.442Z" fill="white"/>
<path d="M160.641 124.564C160.48 124.564 160.329 124.521 160.207 124.439C160.11 124.374 160.014 124.258 160.038 124.128C160.06 124 160.181 123.928 160.278 123.889C160.474 123.81 160.706 123.791 160.965 123.829C161.191 123.863 161.411 123.937 161.623 124.009L161.691 124.031L161.636 124.075C161.509 124.171 161.079 124.491 160.849 124.541C160.779 124.556 160.709 124.564 160.641 124.564ZM160.717 123.885C160.566 123.885 160.428 123.91 160.305 123.959C160.24 123.985 160.129 124.043 160.112 124.141C160.095 124.236 160.171 124.325 160.248 124.377C160.405 124.482 160.619 124.515 160.832 124.467C161.022 124.425 161.379 124.171 161.532 124.057C161.343 123.995 161.149 123.933 160.953 123.904C160.871 123.891 160.792 123.885 160.717 123.885Z" fill="#F2935C"/>
<path d="M161.653 124.091L161.596 124.048L161.618 124.018L161.595 124.048C161.415 123.913 161.23 123.774 161.073 123.607C160.893 123.415 160.778 123.213 160.73 123.007C160.707 122.904 160.699 122.764 160.79 122.673C160.884 122.58 161.033 122.592 161.142 122.635C161.336 122.711 161.5 122.883 161.591 123.106C161.68 123.325 161.663 123.861 161.656 124.02L161.653 124.091ZM160.979 122.678C160.928 122.678 160.879 122.691 160.843 122.727C160.773 122.797 160.789 122.921 160.804 122.989C160.849 123.183 160.958 123.373 161.128 123.555C161.264 123.7 161.425 123.825 161.584 123.945C161.594 123.639 161.583 123.285 161.521 123.134C161.438 122.93 161.29 122.774 161.115 122.705C161.073 122.689 161.025 122.678 160.979 122.678Z" fill="#F2935C"/>
<path d="M154.635 87.1904C154.635 87.1904 153.795 97.3771 153.507 97.9307C152.533 99.8031 145.813 103.163 145.813 103.163L142.318 102.536L139.89 104.693L141.569 105.933L143.474 105.147C144.53 105.304 145.598 105.366 146.666 105.332C148.46 105.279 157.401 103.038 158.774 100.578C160.147 98.1173 160.128 86.6899 160.128 86.6899L154.635 87.1904Z" fill="#EBB373"/>
<path d="M160.403 91.0144C160.403 91.0144 162.81 82.0191 159.411 79.642C156.012 77.265 153.728 89.6023 153.728 89.6023L160.403 91.0144Z" fill="#F2935C"/>
<path opacity="0.5" d="M160.403 91.0144C160.403 91.0144 162.81 82.0191 159.411 79.642C156.012 77.265 153.728 89.6023 153.728 89.6023L160.403 91.0144Z" fill="white"/>
<path d="M158.776 107.386L158.454 95.567L158.231 79.3777L165.154 77.6572L170.002 77.6113L178.202 80.1705L178.48 84.1363C178.48 84.1363 178.227 102.392 178.288 102.94C178.362 103.613 180.443 107.784 180.443 107.784C171.785 110.032 158.656 107.993 158.776 107.386Z" fill="#F2935C"/>
<path opacity="0.2" d="M158.406 90.5917L158.289 83.5415L157.052 90.3051L158.406 90.5917Z" fill="black"/>
<path opacity="0.2" d="M173.189 91.2661C172.973 91.2305 172.092 90.9699 172.092 90.9699L174.093 84.1006L170.996 91.6479L173.013 92.3841L173.189 91.2661Z" fill="black"/>
<path d="M173.958 85.6538C173.958 85.6538 172.599 96.9758 171.654 98.0582C170.056 99.8874 162.023 104.853 162.023 104.853L157.902 103.541C157.613 103.455 157.299 103.516 157.07 103.701L154.344 105.917L154.617 106.134C154.735 106.228 154.902 106.243 155.036 106.171L155.463 105.942L154.992 106.433L155.149 106.558C155.306 106.682 155.519 106.722 155.713 106.664L156.951 106.292L155.822 107.094C156.085 107.303 156.445 107.368 156.771 107.265L158.58 106.69C159.833 106.938 161.106 107.083 162.384 107.121C164.536 107.191 174.576 103.338 176.391 100.682C178.205 98.0249 179.837 87.1674 179.837 87.1674L173.958 85.6538Z" fill="#EBB373"/>
<path d="M179.576 92.9932C179.576 92.9932 181.804 82.7029 178.405 80.3256C175.006 77.9485 172.092 90.9699 172.092 90.9699L179.576 92.9932Z" fill="#F2935C"/>
<path opacity="0.5" d="M179.576 92.9932C179.576 92.9932 181.804 82.7029 178.405 80.3256C175.006 77.9485 172.092 90.9699 172.092 90.9699L179.576 92.9932Z" fill="white"/>
<path d="M152.735 106.782L159.009 106.597L165.666 106.4C165.666 106.402 165.666 106.403 165.666 106.405C165.677 106.9 165.138 107.315 164.461 107.333L157.809 107.529L154.004 107.642C153.999 107.642 153.993 107.642 153.987 107.642H153.986L143.397 107.955C142.725 107.97 142.174 107.586 142.163 107.095L152.735 106.782Z" fill="#263238"/>
<path d="M143.202 107.911L155.015 107.562C155.219 107.554 155.379 107.415 155.372 107.252C155.371 107.221 155.364 107.19 155.351 107.162L149.741 95.2422C149.598 94.9012 149.195 94.6771 148.746 94.6889L136.926 95.038C136.726 95.0441 136.568 95.1791 136.573 95.34C136.574 95.3739 136.582 95.4068 136.597 95.4382L142.207 107.358C142.352 107.697 142.754 107.92 143.202 107.911Z" fill="#263238"/>
<path opacity="0.7" d="M136.926 95.038L148.746 94.6889C149.195 94.6771 149.598 94.9012 149.741 95.2422L155.14 106.712L159.009 106.598L165.666 106.401C165.666 106.402 165.666 106.404 165.666 106.405C165.678 106.9 165.138 107.316 164.461 107.333L157.81 107.53L154.005 107.642C153.999 107.643 153.993 107.643 153.987 107.643H153.986L143.397 107.956C143.184 107.961 142.986 107.922 142.811 107.855C142.534 107.771 142.308 107.593 142.208 107.358L136.597 95.4382C136.582 95.4068 136.574 95.3736 136.573 95.34C136.568 95.1791 136.726 95.0441 136.926 95.038Z" fill="white"/>
<path d="M144.214 101.256C144.487 101.828 145.016 102.211 145.399 102.119C145.782 102.026 145.87 101.495 145.605 100.921C145.34 100.348 144.805 99.9743 144.422 100.067C144.038 100.159 143.938 100.669 144.214 101.256Z" fill="white"/>
<g opacity="0.3">
<path d="M149.741 95.2417L155.139 106.712L154.592 106.728L148.746 94.6884C149.195 94.6769 149.598 94.9007 149.741 95.2417Z" fill="black"/>
</g>
<path d="M170.209 78.4686C170.209 78.4686 168.955 75.9816 169.768 71.8623C169.27 71.6295 169.928 70.5985 169.907 70.1865L164.72 74.0627C164.961 75.3362 164.717 77.8588 164.534 78.9312L166.534 80.7529L170.209 78.4686Z" fill="#EBB373"/>
<path opacity="0.2" d="M164.855 74.8251L167.863 74.585C167.356 75.4792 167 76.2644 164.798 76.3547C164.798 76.3547 164.779 75.2515 164.855 74.8251Z" fill="black"/>
<path d="M162.783 62.5553C161.859 63.6474 161.457 66.8 163.565 66.6997C165.673 66.5994 164.372 60.6784 162.783 62.5553Z" fill="#263238"/>
<path d="M171.459 68.4214C170.292 71.7383 169.701 73.6327 167.509 74.8634C158.329 78.5964 159.328 62.8414 166.426 61.939C170.048 61.5754 172.625 65.1043 171.459 68.4214Z" fill="#EBB373"/>
<path d="M174.177 64.2152C173.701 60.9802 168.459 61.1433 166.889 61.7228C166.655 61.8095 169.016 63.9833 168.866 63.8746L170.036 64.6945C171.684 65.5311 168.711 68.1941 170.128 71.083C173.264 70.6765 174.419 66.5748 174.177 64.2152Z" fill="#263238"/>
<path d="M171.989 71.6151C171.082 73.3099 167.792 73.7578 168.646 71.1416C169.319 68.5679 173.305 68.5851 171.989 71.6151Z" fill="#EBB373"/>
<path d="M166.436 68.0329C166.211 68.8508 165.383 68.5974 165.621 67.7916C165.847 66.9738 166.675 67.2272 166.436 68.0329Z" fill="#263238"/>
<path d="M162.938 67.1183C162.713 67.9361 161.884 67.6827 162.123 66.877C162.349 66.0592 163.177 66.3129 162.938 67.1183Z" fill="#263238"/>
<path d="M164.114 67.2446C164.114 67.2446 162.535 68.6498 161.987 69.249C162.344 69.8204 163.227 69.856 163.227 69.856L164.114 67.2446Z" fill="#E4873E"/>
<path d="M167.665 66.6318C167.607 66.6381 167.547 66.6139 167.51 66.5626C167.067 65.9547 166.449 65.9758 166.443 65.9761C165.773 65.5319 167.166 65.4364 167.78 66.3666C167.857 66.4666 167.789 66.6212 167.665 66.6318Z" fill="#263238"/>
<path opacity="0.2" d="M169.66 71.1098C169.652 71.1098 169.644 71.1086 169.637 71.1062C169.597 71.0935 169.575 71.0509 169.588 71.0114C169.747 70.5104 170.338 70.0214 170.828 69.9852C171.056 69.9689 171.359 70.0326 171.553 70.4288C171.571 70.4663 171.556 70.5116 171.518 70.53C171.48 70.5481 171.436 70.533 171.417 70.4953C171.292 70.2377 171.096 70.1169 170.839 70.1359C170.41 70.1676 169.872 70.6152 169.731 71.0573C169.721 71.0893 169.692 71.1098 169.66 71.1098Z" fill="black"/>
<path d="M161.882 65.2379C161.767 65.1802 161.764 64.9993 161.88 64.9404C162.692 64.4953 163.37 64.8637 163.402 64.8761C163.593 64.9764 163.436 65.279 163.245 65.1736C163.157 65.0298 162.503 65.0425 161.882 65.2379Z" fill="#263238"/>
<path d="M172.824 69.3904C172.824 69.3904 170.497 66.0603 167.657 64.508C164.512 62.7893 162.208 63.3006 162.208 63.3006C162.208 63.3006 161.669 62.7718 162.015 62.4719C162.362 62.1723 162.685 62.4348 162.685 62.4348C162.685 62.4348 166.058 58.8322 170.086 59.984C174.115 61.1359 175.455 63.6289 175.292 63.8101C174.464 64.7309 173.988 63.3021 173.988 63.3021C173.988 63.3021 174.968 64.611 173.839 67.2852L173.505 68.3322C173.505 68.3316 173.781 69.5532 172.824 69.3904Z" fill="#263238"/>
<path opacity="0.7" d="M172.824 69.3904C172.824 69.3904 170.497 66.0603 167.657 64.508C164.512 62.7893 162.208 63.3006 162.208 63.3006C162.208 63.3006 161.669 62.7718 162.015 62.4719C162.362 62.1723 162.685 62.4348 162.685 62.4348C162.685 62.4348 166.058 58.8322 170.086 59.984C174.115 61.1359 175.455 63.6289 175.292 63.8101C174.464 64.7309 173.988 63.3021 173.988 63.3021C173.988 63.3021 174.968 64.611 173.839 67.2852L173.505 68.3322C173.505 68.3316 173.781 69.5532 172.824 69.3904Z" fill="white"/>
<path d="M167.589 64.3584C167.159 64.2122 166.84 63.7813 166.827 63.3256C166.818 63.0263 166.928 62.7382 167.004 62.4486C167.08 62.159 167.121 61.8373 166.985 61.571C166.868 61.3432 166.623 61.1871 166.368 61.1784C166.112 61.1693 165.857 61.3079 165.725 61.5269C165.82 61.3469 165.754 61.1149 165.621 60.9609C165.488 60.8072 165.299 60.7139 165.116 60.6245C164.787 60.4638 164.417 60.2989 164.066 60.4043C163.715 60.5097 163.492 60.8579 163.37 61.2043C163.212 61.6513 163.17 62.152 163.33 62.5981C163.545 63.1945 164.096 63.6197 164.691 63.8366C165.285 64.0534 165.928 64.0917 166.559 64.128" fill="#263238"/>
<path opacity="0.2" d="M174.117 63.5352C174.117 63.5352 173.658 62.0037 171.77 61.2363L174.117 63.5352Z" fill="black"/>
<path opacity="0.3" d="M173.281 68.2671C172.145 66.032 169.769 63.7761 167.369 62.6535L167.401 62.585C169.815 63.7138 172.205 65.9837 173.348 68.2327L173.281 68.2671Z" fill="black"/>
<path d="M163.494 71.1142C163.741 71.5506 163.956 72.0042 164.138 72.4714C164.223 72.4532 164.312 72.4369 164.396 72.4146C165.565 72.1521 166.023 71.6454 166.17 71.1595C166.237 70.9206 166.248 70.669 166.201 70.425C166.178 70.287 166.135 70.1529 166.075 70.0264C165.538 70.537 164.47 70.8653 163.891 71.0163C163.638 71.0701 163.494 71.1142 163.494 71.1142Z" fill="#263238"/>
<path d="M163.879 71.0075L164.08 71.4032C165.177 71.154 165.917 70.8342 166.189 70.4162C166.166 70.2782 166.123 70.1441 166.063 70.0176C165.523 70.5331 164.458 70.8565 163.879 71.0075Z" fill="white"/>
<path d="M164.384 72.4058C165.553 72.1434 166.01 71.6366 166.157 71.1504C165.715 71.2582 165.295 71.4433 164.917 71.6979C164.67 71.8725 164.484 72.1198 164.384 72.4058Z" fill="#C15854"/>
<path d="M149.866 120.271L142.293 121.724L140.98 118.615L148.904 115.878L149.866 120.271Z" fill="#EBB373"/>
<path d="M138.957 123.411L137.866 121.312C137.866 121.312 138.147 120.909 137.928 120.457C137.805 120.203 137.154 119.798 137.154 119.798L134.112 114.049C134.121 114.044 134.505 113.838 134.709 113.812C134.957 113.78 135.18 113.777 135.381 113.797C136.084 113.87 136.651 114.4 137.056 114.808C137.736 115.49 140.06 117.161 140.06 117.161C140.06 117.161 140.715 117.551 141.719 117.491C142.278 117.458 142.734 117.653 142.897 117.886C143.23 118.36 143.078 118.799 142.643 119.12L142.138 119.491C142.041 120.038 142.325 120.541 142.899 120.742C142.899 120.742 144.102 121.486 143.527 121.711C143.2 121.839 141.713 122.357 140.551 122.801C140.28 122.905 140.024 123.003 139.799 123.089L139.798 123.089C139.3 123.28 138.957 123.411 138.957 123.411Z" fill="#5B321A"/>
<path d="M138.86 116.232C138.897 116.245 138.921 116.284 138.918 116.324C138.904 116.506 138.844 116.685 138.734 116.843C138.676 116.926 138.535 116.84 138.593 116.757C138.691 116.617 138.745 116.46 138.757 116.3C138.761 116.247 138.809 116.213 138.859 116.232C138.859 116.232 138.86 116.232 138.86 116.232Z" fill="#F2935C"/>
<path d="M139.333 116.549C139.37 116.563 139.393 116.601 139.39 116.641C139.377 116.823 139.317 117.002 139.207 117.159C139.149 117.243 139.008 117.157 139.066 117.074C139.164 116.934 139.217 116.777 139.229 116.617C139.233 116.564 139.282 116.53 139.332 116.549C139.332 116.549 139.332 116.549 139.333 116.549Z" fill="#F2935C"/>
<path d="M139.797 116.888C139.834 116.902 139.858 116.941 139.855 116.98C139.841 117.163 139.781 117.341 139.671 117.499C139.613 117.582 139.472 117.497 139.53 117.413C139.628 117.273 139.682 117.116 139.694 116.957C139.698 116.903 139.746 116.869 139.796 116.888C139.796 116.888 139.797 116.888 139.797 116.888Z" fill="#F2935C"/>
<path opacity="0.2" d="M137.928 120.457C137.805 120.203 137.154 119.798 137.154 119.798L134.112 114.049C134.121 114.044 134.505 113.838 134.709 113.812C134.823 113.797 134.93 113.79 135.034 113.787L139.924 123.042C139.883 123.057 139.839 123.075 139.799 123.09L139.799 123.089C139.3 123.28 138.957 123.411 138.957 123.411L137.866 121.312C137.866 121.312 138.147 120.909 137.928 120.457Z" fill="white"/>
<path d="M139.709 117.039L139.722 116.97C139.753 116.814 139.864 116.289 140.003 116.098C140.144 115.903 140.343 115.776 140.55 115.748C140.665 115.732 140.814 115.756 140.883 115.869C140.936 115.954 140.928 116.075 140.862 116.207C140.766 116.397 140.606 116.566 140.387 116.708C140.195 116.833 139.981 116.924 139.775 117.011L139.709 117.039ZM140.616 115.819C140.597 115.819 140.578 115.82 140.56 115.823C140.374 115.848 140.192 115.964 140.064 116.143C139.968 116.274 139.872 116.616 139.81 116.915C139.992 116.837 140.179 116.754 140.345 116.645C140.553 116.51 140.704 116.351 140.794 116.173C140.826 116.11 140.871 115.993 140.818 115.908C140.778 115.842 140.695 115.819 140.616 115.819Z" fill="#F2935C"/>
<path d="M140.796 117.763C140.664 117.763 140.526 117.73 140.396 117.666C140.185 117.562 139.842 117.149 139.742 117.025L139.698 116.97L139.768 116.963L139.772 117.001L139.772 116.963C139.994 116.944 140.224 116.925 140.452 116.947C140.713 116.97 140.933 117.045 141.105 117.169C141.225 117.254 141.288 117.357 141.282 117.458C141.273 117.59 141.153 117.68 141.043 117.72C140.966 117.749 140.882 117.763 140.796 117.763ZM139.846 117.033C140.041 117.269 140.284 117.526 140.429 117.598C140.626 117.696 140.841 117.714 141.018 117.649C141.105 117.617 141.201 117.549 141.207 117.453C141.213 117.354 141.119 117.271 141.062 117.23C140.9 117.115 140.693 117.045 140.446 117.022C140.247 117.004 140.045 117.017 139.846 117.033Z" fill="#F2935C"/>
<path d="M178.357 115.95C179.921 113.282 183.422 106.074 175.854 104.914C168.286 103.753 143.49 116.474 143.49 116.474L145.225 121.237L168.523 116.848C168.523 116.848 165.446 121.227 169.325 120.917C174.96 120.19 176.276 118.795 178.357 115.95Z" fill="#5B321A"/>
<path opacity="0.2" d="M167.972 116.993L174.334 114.778C174.334 114.778 169.043 118.241 167.079 118.692L167.972 116.993Z" fill="black"/>
<path d="M121.586 53.1567L123.864 50.5151L126.185 51.3378L124.602 54.4284L121.586 53.1567Z" fill="#EEC1BB"/>
<path d="M123.518 50.2963C123.518 50.2963 123.32 49.1 123.912 48.2913C124.503 47.4825 124.76 46.6789 125.242 46.1081C125.723 45.5373 125.734 46.5457 125.631 47.0836C125.529 47.6212 125.418 48.2318 125.833 48.2436C126.249 48.2553 129.398 46.5623 129.973 46.6445C130.547 46.7263 130.123 47.16 130.123 47.16C130.123 47.16 130.899 46.7695 131.137 47.0356C131.199 47.1047 131.231 47.3657 130.905 47.5994C130.172 48.1249 128.577 49.1478 128.577 49.1478C128.667 49.0871 130.726 47.9651 131.056 47.8374C131.488 47.6704 131.776 47.8123 131.865 48.0663C131.99 48.4278 129.485 49.9061 129.423 50.0423C129.423 50.0423 130.837 49.1429 131.269 49.3815C131.7 49.6201 130.841 50.235 129.98 50.633C129.192 50.9978 127.74 51.9201 126.902 52.2131C125.87 52.574 125.096 52.5839 124.389 51.8407C123.681 51.0978 123.518 50.2963 123.518 50.2963Z" fill="#EEC1BB"/>
<path opacity="0.3" d="M128.235 48.3147C128.222 48.3147 128.211 48.3087 128.203 48.2978C128.192 48.2803 128.197 48.257 128.214 48.2455C128.795 47.8629 129.4 47.5029 130.012 47.1753C130.031 47.1656 130.054 47.1725 130.063 47.1907C130.073 47.2091 130.066 47.232 130.048 47.2417C129.438 47.5682 128.835 47.9269 128.256 48.3084C128.249 48.3129 128.242 48.3147 128.235 48.3147Z" fill="black"/>
<path opacity="0.3" d="M128.905 50.4653C128.887 50.4653 128.872 50.4535 128.868 50.436C128.67 49.5684 128.206 48.753 127.562 48.1399C127.546 48.1254 127.546 48.1016 127.56 48.0865C127.574 48.0714 127.598 48.0708 127.613 48.085C128.268 48.7083 128.74 49.5373 128.941 50.4191C128.946 50.4393 128.933 50.4596 128.913 50.4644C128.91 50.465 128.907 50.4653 128.905 50.4653Z" fill="black"/>
<path opacity="0.3" d="M125.093 50.6517C125.08 50.6517 125.067 50.6451 125.06 50.633C125.05 50.6149 125.056 50.592 125.074 50.5814C125.381 50.402 125.627 50.1072 125.749 49.7726C125.871 49.4383 125.873 49.0542 125.754 48.7183C125.747 48.6987 125.757 48.677 125.777 48.67C125.796 48.6634 125.818 48.6733 125.825 48.693C125.95 49.0448 125.948 49.4477 125.82 49.7986C125.692 50.1495 125.434 50.4585 125.112 50.6466C125.106 50.6499 125.099 50.6517 125.093 50.6517Z" fill="black"/>
<path d="M131.517 96.0986L132.696 92.564L124.171 87.7979L122.319 93.1617L131.517 96.0986Z" fill="#EEC1BB"/>
<path d="M131.645 91.33L131.019 92.4963C130.877 92.7603 130.88 93.0762 131.008 93.3464C131.564 94.5128 130.947 94.8317 129.693 95.0993C129.389 95.5353 129.854 95.9473 129.977 96.0623L132.675 98.6393C132.898 98.8573 133.256 98.8525 133.474 98.6284C133.512 98.5886 133.545 98.5433 133.57 98.4937C134.33 97.0771 134.69 96.4069 135.635 94.6438L138.526 89.2519C139.315 87.7821 138 86.6813 137.539 87.2131C135.478 89.6125 133.645 91.1098 132.403 91.5257C132.182 91.6072 132.164 91.391 131.645 91.33Z" fill="#263238"/>
<path d="M133.902 89.2836C133.88 89.1132 133.778 88.964 133.628 88.881C133.553 88.8269 133.453 88.8212 133.372 88.8656C132.918 89.0921 132.816 90.9168 132.808 91.1233C132.804 91.1451 132.811 91.1671 132.826 91.1834C132.853 91.2136 132.899 91.216 132.929 91.1889C133.206 90.876 133.45 90.535 133.656 90.1717C133.83 89.9096 133.916 89.5982 133.902 89.2836ZM133.433 89.0163C133.467 88.9963 133.51 89 133.541 89.0253C133.646 89.09 133.719 89.1972 133.741 89.3195C133.81 89.7837 133.275 90.5263 132.964 90.9134C133.023 90.1648 133.184 89.1425 133.433 89.0163Z" fill="#F2935C"/>
<path d="M132.971 91.1477C133.023 90.6116 132.797 89.307 132.391 89.1517C132.307 89.1164 132.181 89.1224 132.048 89.3061C131.528 90.0565 132.777 91.1709 132.838 91.2035C132.858 91.2247 132.889 91.2316 132.916 91.2214C132.929 91.2087 132.938 91.193 132.941 91.1757L132.971 91.1477ZM132.152 89.3961C132.247 89.2556 132.3 89.2843 132.319 89.2946C132.573 89.3776 132.812 90.3652 132.808 90.9764C132.527 90.6974 131.848 89.9539 132.119 89.4474L132.152 89.3961Z" fill="#F2935C"/>
<path d="M133.082 92.413C133.056 92.413 133.03 92.3991 133.017 92.3747C132.778 91.9534 132.737 91.4312 132.906 90.9773C132.921 90.9384 132.964 90.9181 133.003 90.9332C133.042 90.948 133.061 90.9912 133.047 91.0305C132.894 91.4427 132.931 91.9172 133.148 92.3004C133.168 92.3366 133.156 92.3825 133.119 92.4034C133.108 92.4097 133.095 92.413 133.082 92.413Z" fill="#F2935C"/>
<path d="M134.016 91.9811C133.989 91.9811 133.964 91.9672 133.95 91.9428C133.712 91.5218 133.671 90.9996 133.84 90.5454C133.854 90.5068 133.897 90.4868 133.937 90.5013C133.976 90.5161 133.995 90.5593 133.981 90.5986C133.827 91.0111 133.865 91.4858 134.081 91.8685C134.101 91.9047 134.089 91.9506 134.053 91.9714C134.041 91.9781 134.028 91.9811 134.016 91.9811Z" fill="#F2935C"/>
<path d="M134.957 91.3256C134.931 91.3256 134.905 91.3117 134.891 91.2873C134.653 90.866 134.612 90.3438 134.781 89.8899C134.796 89.8512 134.838 89.831 134.878 89.8455C134.917 89.8603 134.936 89.9035 134.922 89.9428C134.769 90.355 134.806 90.83 135.023 91.2127C135.043 91.2489 135.03 91.2948 134.994 91.3157C134.983 91.3226 134.97 91.3256 134.957 91.3256Z" fill="#F2935C"/>
<path opacity="0.3" d="M128.677 90.3169L129.722 90.9013L128.099 95.0072L126.876 94.6168L128.677 90.3169Z" fill="black"/>
<path d="M104.986 72.3828L109.239 74.9882C114.7 75.2588 133.153 75.4119 133.207 81.991C135.018 89.7457 118.308 89.0073 107.199 89.1157C107.124 89.1166 107.059 89.1622 107.015 89.232C106.917 89.3866 105.839 89.9402 104.462 90.1591C102.766 90.4291 98.887 90.6653 96.395 90.2703C92.0962 89.589 90.8565 85.4969 91.6792 79.7407C92.0172 77.3752 93.3211 75.4548 93.7174 72.5075L104.986 72.3828Z" fill="#F2935C"/>
<path opacity="0.2" d="M93.3315 81.1359L93.3581 81.4044C93.3581 81.4044 107.411 79.0727 115.973 84.7119C115.973 84.7119 125.25 82.4303 127.137 80.695C116.861 86.1135 107.658 79.8397 107.658 79.8397L103.124 77.8097C99.4206 76.1511 95.6907 77.418 93.3315 81.1359Z" fill="#F2935C"/>
<path d="M109.243 90.258L110.866 93.6111L120.286 91.0475L117.87 85.9141L109.243 90.258Z" fill="#EEC1BB"/>
<path d="M112.944 93.54L112.167 92.4691C111.991 92.2269 111.706 92.0919 111.407 92.091C110.117 92.0871 110.098 91.3912 110.402 90.1428C110.141 89.6795 109.569 89.9211 109.413 89.9824L105.926 91.301C105.633 91.4085 105.482 91.7334 105.59 92.0273C105.608 92.0795 105.635 92.1287 105.668 92.1731C106.613 93.4735 107.059 94.0887 108.235 95.7068L111.829 100.656C112.808 102.006 114.368 101.296 114.09 100.648C112.826 97.7471 112.275 95.4423 112.439 94.1407C112.462 93.9048 112.664 93.9824 112.944 93.54Z" fill="#263238"/>
<path d="M113.806 96.4656C113.968 96.5193 114.147 96.4921 114.286 96.3928C114.367 96.3481 114.416 96.2608 114.411 96.1681C114.405 95.6595 112.808 94.7762 112.626 94.6792C112.608 94.6668 112.585 94.6632 112.564 94.6696C112.525 94.681 112.503 94.7218 112.514 94.7608C112.676 95.1464 112.877 95.5143 113.114 95.8579C113.274 96.1294 113.516 96.3423 113.806 96.4656ZM114.249 96.1581C114.252 96.1977 114.23 96.2348 114.194 96.2514C114.09 96.3188 113.962 96.3381 113.843 96.3043C113.396 96.1654 112.96 95.3602 112.747 94.9118C113.394 95.2899 114.244 95.8788 114.249 96.1581Z" fill="#F2935C"/>
<path d="M112.534 94.8166C112.993 95.0966 114.264 95.4581 114.58 95.1582C114.648 95.0978 114.697 94.9818 114.589 94.7822C114.14 93.987 112.596 94.6315 112.541 94.6723C112.513 94.6813 112.493 94.7064 112.491 94.7354C112.496 94.752 112.507 94.7665 112.521 94.7774L112.534 94.8166ZM114.463 94.8365C114.548 94.983 114.499 95.0187 114.482 95.0313C114.297 95.2249 113.306 95.0126 112.758 94.7435C113.131 94.6107 114.094 94.3201 114.431 94.7849L114.463 94.8365Z" fill="#F2935C"/>
<path d="M112.66 94.9603C112.64 94.9603 112.62 94.9527 112.605 94.937C112.301 94.6193 111.857 94.4484 111.42 94.4771C111.378 94.4831 111.342 94.4481 111.34 94.407C111.337 94.3653 111.368 94.3294 111.41 94.3267C111.892 94.2901 112.38 94.4831 112.714 94.8328C112.743 94.863 112.742 94.9107 112.712 94.9397C112.697 94.953 112.678 94.9603 112.66 94.9603Z" fill="#F2935C"/>
<path d="M112.643 95.9899C112.623 95.9899 112.604 95.9823 112.589 95.9666C112.285 95.6492 111.84 95.4786 111.403 95.5067C111.366 95.5133 111.326 95.478 111.323 95.4363C111.32 95.3946 111.352 95.3587 111.393 95.356C111.876 95.3243 112.363 95.513 112.698 95.8621C112.726 95.8923 112.726 95.9401 112.695 95.9687C112.681 95.9826 112.662 95.9899 112.643 95.9899Z" fill="#F2935C"/>
<path d="M112.824 97.1246C112.804 97.1246 112.785 97.117 112.77 97.1013C112.466 96.7836 112.022 96.613 111.584 96.6414C111.547 96.6483 111.507 96.6127 111.504 96.5713C111.502 96.5296 111.533 96.4937 111.575 96.491C112.057 96.4556 112.544 96.6477 112.879 96.9971C112.907 97.0273 112.906 97.075 112.876 97.104C112.862 97.1176 112.843 97.1246 112.824 97.1246Z" fill="#F2935C"/>
<path d="M128.974 90.0143C128.974 90.0143 107.34 77.8769 99.9099 77.6465C92.4796 77.4161 91.6377 83.0357 94.3708 87.3612C97.1042 91.6868 103.962 89.59 103.962 89.59C103.962 89.59 98.5367 88.2141 99.2084 86.74C99.88 85.2657 101.884 87.5536 101.884 87.5536C101.884 87.5536 115.027 92.9624 126.756 94.8795L128.974 90.0143Z" fill="#F2935C"/>
<path opacity="0.2" d="M117.826 84.0058L124.79 88.0336L125.525 87.9557L118.934 83.7944L117.826 84.0058Z" fill="black"/>
<path opacity="0.2" d="M106.776 89.4071C106.776 89.4071 99.7588 86.6172 99.8366 86.6172C99.9143 86.6172 104.259 89.8806 105.681 89.8652L106.776 89.4071Z" fill="black"/>
<path d="M108.268 51.4149C108.268 51.4149 109.115 51.2201 112.219 54.8453C114.326 57.3066 117.525 59.118 117.525 59.118C117.801 58.5249 122.637 51.4149 122.637 51.4149L125.714 53.1656C125.714 53.1656 121.197 64.8723 118.26 65.3323C115.323 65.7922 108.476 59.8739 108.476 59.8739L108.268 51.4149Z" fill="#915837"/>
<path d="M91.3786 55.7203C92.7168 59.7481 92.7798 68.85 92.3058 73.8783H108.857C111.466 63.8471 109.207 56.7123 108.985 54.3622C108.708 51.5031 108.268 51.3941 108.268 51.3941C108.268 51.3941 105.172 51.0915 102.479 51.1124C100.393 51.1906 98.3156 51.4168 96.2617 51.7891C94.7336 52.0449 93.2212 52.3859 91.7311 52.8108C91.0917 52.9932 90.7205 53.6606 90.9025 54.3015C90.9082 54.3217 90.9145 54.3419 90.9215 54.3622C91.0809 54.8122 91.236 55.2745 91.3786 55.7203Z" fill="#915837"/>
<path opacity="0.2" d="M92.3057 73.8786C92.701 69.1946 95.733 63.7927 95.2569 59.1162C96.6651 61.1206 97.1315 65.0566 97.7025 69.4519C97.8885 70.883 103.072 72.3305 103.316 73.8085L92.3057 73.8786Z" fill="black"/>
<path d="M94.9233 52.3234C94.1516 53.429 103.641 55.2075 103.641 55.2075C103.641 55.2075 109.195 51.5962 102.709 51.0326C101.388 50.9152 96.144 50.5872 94.9233 52.3234Z" fill="#CD877B"/>
<path d="M103.951 57.2548C103.951 57.2548 109.065 53.0253 106.418 50.4943C103.771 47.9632 91.3158 46.8322 92.3687 52.5965C92.3687 52.5965 93.9712 52.1214 95.5905 53.6686C99.001 56.9396 103.951 57.2548 103.951 57.2548Z" fill="#915837"/>
<path opacity="0.2" d="M103.523 56.04C103.523 56.04 106.418 53.7865 105.398 51.7558C104.379 49.7252 98.3549 47.5013 94.0383 50.3011C95.0734 50.8326 96.035 51.497 96.8992 52.2771C98.6108 53.7445 103.523 56.04 103.523 56.04Z" fill="black"/>
<path opacity="0.2" d="M102.424 56.326C102.426 56.4861 102.299 56.6181 102.139 56.6202C101.979 56.6226 101.847 56.4945 101.845 56.3342C101.843 56.1741 101.97 56.0422 102.13 56.04C102.133 56.04 102.136 56.04 102.139 56.04C102.295 56.0422 102.422 56.169 102.424 56.326Z" fill="black"/>
<path opacity="0.2" d="M105.31 55.4931C105.312 55.6511 105.187 55.7809 105.029 55.783C105.027 55.783 105.026 55.783 105.025 55.783C104.866 55.8024 104.722 55.6891 104.703 55.53C104.683 55.3708 104.796 55.2264 104.955 55.2071C104.978 55.2044 105.002 55.2044 105.025 55.2071C105.182 55.2071 105.31 55.3352 105.31 55.4931Z" fill="black"/>
<path d="M107.999 58.3944C108.001 58.5544 107.874 58.6864 107.714 58.6885C107.554 58.691 107.422 58.5629 107.42 58.4025C107.418 58.2425 107.546 58.1105 107.706 58.1084C107.707 58.1084 107.708 58.1084 107.71 58.1084C107.868 58.1084 107.997 58.2358 107.999 58.3944Z" fill="#263238"/>
<path d="M101.77 59.8744C101.77 60.0323 101.642 60.1604 101.484 60.1604C101.327 60.1604 101.199 60.0323 101.199 59.8744C101.199 59.7164 101.327 59.5884 101.484 59.5884C101.642 59.5887 101.77 59.7164 101.77 59.8744Z" fill="#263238"/>
<path d="M107.643 58.5159C107.643 58.5159 106.522 58.3646 106.33 56.931C106.307 56.2376 105.738 55.6882 105.046 55.6907C104.987 55.6907 104.937 55.6487 104.937 55.5898C104.932 55.5342 104.973 55.4856 105.029 55.4808C105.032 55.4805 105.034 55.4805 105.038 55.4805C105.835 55.4814 106.493 56.1041 106.539 56.9017C106.707 58.1628 107.659 58.306 107.668 58.3102C107.724 58.3169 107.765 58.367 107.76 58.4238C107.751 58.4805 107.7 58.521 107.643 58.5159Z" fill="#263238"/>
<path d="M101.484 59.874C101.428 59.874 101.382 59.8296 101.38 59.7731C101.357 59.0353 101.627 58.3187 102.13 57.7802C102.328 57.6063 102.445 57.3583 102.453 57.095C102.432 56.831 102.319 56.5825 102.135 56.3928C102.087 56.3593 102.076 56.2935 102.11 56.2463C102.143 56.1989 102.209 56.1881 102.256 56.2216C102.264 56.2273 102.271 56.234 102.277 56.2415C102.504 56.4647 102.642 56.764 102.663 57.0823C102.657 57.4033 102.519 57.7071 102.281 57.923C101.822 58.4192 101.574 59.0752 101.589 59.752C101.592 59.8093 101.55 59.8589 101.493 59.8655L101.484 59.874Z" fill="#263238"/>
<path d="M112.609 81.6096L113.441 81.7606C113.441 81.7606 113.21 81.0102 116.158 80.0302C119.105 79.0499 122.044 78.5187 122.044 78.5187C122.044 78.5187 116.713 78.2505 116.574 78.2505C116.435 78.2505 111.502 80.0057 111.502 80.0057L112.609 81.6096Z" fill="#F2935C"/>
<path d="M110.498 76.1568C110.645 76.1589 122.044 78.5191 122.044 78.5191C122.044 78.5191 114.118 78.2276 112.609 81.6103L103.383 77.8133C103.383 77.8133 105.97 76.0877 110.498 76.1568Z" fill="#EBEBEB"/>
<path d="M129.722 76.1553V76.6536C129.722 76.6536 124.602 76.0586 122.044 78.5187L121.907 77.337L125.3 75.7769L129.722 76.1553Z" fill="#F2935C"/>
<path d="M119.365 73.8481C119.365 73.8481 113.182 72.2083 110.908 76.2336L122.044 78.5189C122.044 78.5189 122.559 75.4514 129.722 76.1551L119.365 73.8481Z" fill="#EBEBEB"/>
<path d="M91.2417 53.0684C90.9804 53.1624 89.2815 54.5851 89.3635 57.9186C89.4834 62.8052 90.6842 72.9295 91.2417 73.8787C91.7991 74.8281 106.557 78.9746 106.776 79.2147C106.995 79.4548 107.76 76.6341 107.76 76.6341L96.3984 69.4112C96.3984 69.4112 95.7264 59.2338 95.4585 57.7072C95.1906 56.1808 94.4162 51.9275 91.2417 53.0684Z" fill="#915837"/>
<path d="M107.631 77.0928L108.268 77.3797C108.268 77.3797 111.275 77.1417 112.038 77.9036C112.8 78.6656 113.228 82.1419 113.228 82.1419L106.776 79.2143L107.631 77.0928Z" fill="#EEC1BB"/>
<path d="M97.2205 52.65C97.2205 52.65 98.5931 53.5581 100.527 54.7368C100.93 54.9823 102.987 55.8895 103.435 56.0399L104.267 55.3242C104.308 55.1964 104.333 55.0608 104.346 54.9213C104.429 53.9857 104.125 52.7406 103.305 52.2843C102.382 51.7696 101.896 51.2786 101.897 50.3735C101.891 49.8613 101.986 49.3159 102.114 48.7801L101.078 48.3706L97.1572 45.5352C97.8868 47.5528 98.7844 51.1243 97.2205 52.65Z" fill="#EEC1BB"/>
<path opacity="0.2" d="M101.902 50.5711C100.887 50.1758 99.7162 49.3921 99.6568 48.2835C99.6348 47.816 99.6613 47.3654 99.7246 47.0688L102.013 49.2442C101.926 49.6709 101.913 49.9454 101.902 50.5711Z" fill="black"/>
<path d="M95.8715 41.8156C96.7614 45.2194 97.0657 46.6753 99.1464 48.1908C102.276 50.4706 106.243 48.8667 106.383 45.3221C106.509 42.1318 105.032 37.1013 101.405 36.2132C97.832 35.3386 94.9817 38.4114 95.8715 41.8156Z" fill="#EEC1BB"/>
<path d="M100.708 42.1733C100.786 42.5364 101.033 42.8036 101.261 42.7704C101.488 42.7372 101.61 42.4162 101.532 42.0535C101.455 41.6905 101.207 41.4232 100.98 41.4564C100.752 41.4893 100.63 41.8103 100.708 42.1733Z" fill="#263238"/>
<path d="M104.209 41.5708C104.284 41.9224 104.53 42.1806 104.757 42.1476C104.984 42.1147 105.106 41.8028 105.03 41.4512C104.954 41.0997 104.709 40.8415 104.482 40.8744C104.255 40.9076 104.133 41.2193 104.209 41.5708Z" fill="#263238"/>
<path d="M99.5946 41.042C99.6392 41.0396 99.6817 41.0194 99.7107 40.9822C100.16 40.4006 100.787 40.474 100.794 40.4749C100.887 40.486 100.968 40.4208 100.974 40.3266C100.979 40.2327 100.907 40.1469 100.812 40.1348C100.779 40.1309 99.9924 40.0379 99.4346 40.7599C99.3792 40.8318 99.3958 40.9402 99.4717 41.0015C99.5088 41.0311 99.5528 41.0444 99.5946 41.042Z" fill="#263238"/>
<path d="M104.781 39.6929C104.814 39.6754 104.839 39.6446 104.847 39.6041C104.866 39.5205 104.811 39.4275 104.725 39.3964C103.863 39.0838 103.335 39.5187 103.312 39.5377C103.25 39.5906 103.249 39.6914 103.311 39.7633C103.373 39.8349 103.474 39.8503 103.536 39.7977C103.557 39.7805 103.972 39.4498 104.658 39.6987C104.702 39.715 104.746 39.7114 104.781 39.6929Z" fill="#263238"/>
<path d="M102.972 41.604C102.972 41.604 103.726 42.8078 104.469 43.5129C104.599 43.6362 104.567 43.853 104.412 43.9415C104.012 44.1695 103.49 44.1106 103.49 44.1106L102.972 41.604Z" fill="#D4827D"/>
<path d="M100.852 41.4933L101.613 41.1738C101.613 41.1738 101.278 41.8379 100.852 41.4933Z" fill="#263238"/>
<path d="M104.365 40.9074L105.126 40.5879C105.126 40.5879 104.791 41.2517 104.365 40.9074Z" fill="#263238"/>
<path d="M97.3506 46.3427C85.789 39.1675 98.7117 34.2917 98.7117 34.2917C103.905 30.6475 104.085 36.1898 104.085 36.1898C106.686 38.9111 103.004 41.2921 103.004 41.2921C104.555 39.0552 102.155 37.7197 102.155 37.7197C102.524 40.6932 99.629 41.8598 99.629 41.8598C100.762 39.1766 100.039 37.7898 100.039 37.7898C99.2089 42.5711 96.8245 43.5296 96.8245 43.5296L97.3506 46.3427Z" fill="#263238"/>
<path d="M95.2959 44.8066C95.8208 45.4477 96.5567 45.7823 97.1892 45.8337C98.1402 45.911 98.3674 44.3611 97.9036 43.4965C97.486 42.7179 96.4982 42.3214 95.6397 42.6494C94.7939 42.9728 94.6957 44.0736 95.2959 44.8066Z" fill="#EEC1BB"/>
<path opacity="0.2" d="M97.5768 44.3347C97.5431 44.3347 97.5127 44.3121 97.5039 44.278C97.4346 44.005 97.2924 43.7531 97.0926 43.5498C96.9624 43.4176 96.7524 43.2542 96.4918 43.2261C96.2564 43.2016 96.0214 43.3113 95.9304 43.4885C95.9114 43.5254 95.8659 43.5402 95.8288 43.5208C95.7921 43.5015 95.7773 43.4562 95.7966 43.4191C95.9171 43.1853 96.2094 43.0431 96.508 43.076C96.813 43.1086 97.0528 43.294 97.1999 43.4438C97.4187 43.6661 97.5741 43.9415 97.6501 44.2408C97.6603 44.2813 97.6359 44.3224 97.5955 44.3326C97.5892 44.3338 97.5829 44.3347 97.5768 44.3347Z" fill="black"/>
<path d="M103.431 45.3653C103.17 45.7017 102.935 46.0568 102.726 46.4274C102.656 46.4017 102.584 46.3773 102.515 46.3483C101.565 45.9853 101.242 45.5039 101.177 45.0774C101.149 44.8685 101.171 44.6559 101.24 44.4565C101.276 44.3433 101.328 44.2358 101.394 44.1367C101.784 44.6314 102.641 45.0373 103.11 45.2348C103.315 45.3106 103.431 45.3653 103.431 45.3653Z" fill="#263238"/>
<path d="M103.121 45.2289L102.904 45.5367C102.012 45.1936 101.429 44.8348 101.251 44.4504C101.287 44.3371 101.339 44.2296 101.405 44.1309C101.797 44.6298 102.652 45.0314 103.121 45.2289Z" fill="white"/>
<path d="M102.527 46.3421C101.576 45.9791 101.253 45.4977 101.189 45.0713C101.548 45.2156 101.878 45.4225 102.164 45.6822C102.351 45.8592 102.477 46.0896 102.527 46.3421Z" fill="#C15854"/>
<path d="M78.114 117.61L81.9874 124.708L85.368 123.7L82.2962 115.463L78.114 117.61Z" fill="#895555"/>
<path d="M82.8508 128.532L85.2684 128.017C85.2684 128.017 85.4064 127.521 85.9163 127.397C86.2025 127.327 86.9631 127.585 86.9631 127.585L93.6222 126.218C93.6201 126.208 93.53 125.76 93.4158 125.577C93.2763 125.355 93.1305 125.172 92.9801 125.023C92.4531 124.503 91.6479 124.397 91.0501 124.34C90.0478 124.244 87.1523 123.476 87.1523 123.476C87.1523 123.476 86.4023 123.205 85.7816 122.353C85.4353 121.878 84.9749 121.639 84.679 121.662C84.0748 121.708 83.8226 122.124 83.8536 122.689L83.8907 123.346C83.5143 123.789 82.9204 123.894 82.3756 123.562C82.3756 123.562 80.975 123.085 81.1763 123.699C81.2911 124.05 81.8639 125.598 82.2798 126.835C82.3771 127.123 82.4684 127.396 82.5486 127.636H82.5492C82.7275 128.167 82.8508 128.532 82.8508 128.532Z" fill="#F2935C"/>
<path d="M88.7004 123.829C88.6648 123.808 88.6184 123.815 88.5883 123.844C88.4503 123.976 88.3463 124.144 88.2924 124.338C88.264 124.44 88.427 124.498 88.4557 124.395C88.5033 124.222 88.594 124.074 88.7145 123.959C88.7546 123.92 88.7495 123.858 88.7019 123.83C88.7013 123.83 88.701 123.829 88.7004 123.829Z" fill="#F2935C"/>
<path d="M88.1296 123.658C88.094 123.637 88.0476 123.644 88.0175 123.672C87.8794 123.805 87.7752 123.972 87.7216 124.166C87.6932 124.268 87.8563 124.327 87.8849 124.223C87.9325 124.051 88.0232 123.903 88.1437 123.787C88.1841 123.748 88.179 123.686 88.1311 123.658C88.1311 123.658 88.1302 123.658 88.1296 123.658Z" fill="#F2935C"/>
<path d="M87.547 123.508C87.5115 123.487 87.4648 123.494 87.4349 123.523C87.2969 123.655 87.193 123.823 87.139 124.017C87.1107 124.119 87.2737 124.177 87.3024 124.074C87.35 123.902 87.4407 123.754 87.5612 123.638C87.6016 123.599 87.5961 123.537 87.5485 123.509C87.5482 123.508 87.5476 123.508 87.547 123.508Z" fill="#F2935C"/>
<path opacity="0.2" d="M85.9163 127.398C86.2025 127.328 86.9631 127.585 86.9631 127.585L93.6223 126.218C93.6201 126.209 93.53 125.761 93.4158 125.578C93.3517 125.475 93.286 125.384 93.2194 125.298L82.5037 127.503C82.5184 127.547 82.5344 127.594 82.5483 127.636H82.5489C82.7272 128.167 82.8505 128.532 82.8505 128.532L85.2681 128.017C85.2681 128.017 85.4067 127.521 85.9163 127.398Z" fill="white"/>
<path d="M87.4853 123.677L87.4651 123.609C87.3979 123.383 87.3289 123.15 87.3017 122.91C87.2707 122.638 87.3002 122.396 87.3891 122.193C87.4509 122.051 87.5422 121.966 87.6462 121.951C87.7815 121.932 87.8993 122.035 87.9635 122.139C88.0786 122.324 88.1084 122.571 88.0457 122.814C87.9843 123.053 87.6356 123.493 87.5302 123.622L87.4853 123.677ZM87.679 122.025C87.6718 122.025 87.6643 122.025 87.6567 122.026C87.5528 122.041 87.4877 122.156 87.4581 122.223C87.3747 122.414 87.3469 122.643 87.3765 122.902C87.4003 123.111 87.4578 123.318 87.5169 123.519C87.7173 123.268 87.9303 122.961 87.9728 122.796C88.0304 122.572 88.0035 122.347 87.8993 122.179C87.8517 122.102 87.7703 122.025 87.679 122.025Z" fill="#F2935C"/>
<path d="M87.4114 123.642C87.1971 123.642 86.7243 123.631 86.5224 123.54C86.2934 123.436 86.1208 123.258 86.0484 123.053C86.0078 122.938 86.0002 122.781 86.1006 122.687C86.1768 122.615 86.301 122.597 86.4492 122.637C86.6629 122.694 86.8696 122.822 87.0627 123.018C87.2324 123.189 87.3704 123.389 87.5039 123.582L87.5443 123.64L87.4735 123.641C87.4563 123.642 87.4355 123.642 87.4114 123.642ZM86.3022 122.692C86.2482 122.692 86.1928 122.704 86.1521 122.742C86.0783 122.811 86.0867 122.935 86.1193 123.027C86.185 123.214 86.3432 123.376 86.5532 123.471C86.7087 123.541 87.0805 123.566 87.4008 123.566C87.2815 123.395 87.1568 123.22 87.0088 123.071C86.8253 122.885 86.6303 122.763 86.4296 122.71C86.3965 122.701 86.3501 122.692 86.3022 122.692Z" fill="#F2935C"/>
<path d="M62.1065 122.815L60.3386 130.708L63.5412 132.189L66.6621 123.97L62.1065 122.815Z" fill="#895555"/>
<path d="M58.4668 134.152L60.6219 135.365C60.6219 135.365 61.0522 135.084 61.5166 135.328C61.7775 135.466 62.1792 136.162 62.1792 136.162L68.0805 139.543C68.0854 139.534 68.3129 139.138 68.3472 138.926C68.3891 138.666 68.4003 138.432 68.3852 138.221C68.3325 137.481 67.7973 136.869 67.386 136.43C66.6962 135.695 65.0283 133.202 65.0283 133.202C65.0283 133.202 64.6432 132.503 64.7388 131.452C64.7921 130.865 64.6038 130.381 64.3663 130.203C63.8824 129.837 63.4186 129.983 63.0694 130.428L62.6647 130.946C62.09 131.029 61.5751 130.715 61.384 130.106C61.384 130.106 60.6472 128.82 60.3932 129.414C60.2486 129.754 59.658 131.296 59.1553 132.5C59.0384 132.78 58.9272 133.046 58.8299 133.279L58.8305 133.279C58.6148 133.796 58.4668 134.152 58.4668 134.152Z" fill="#F2935C"/>
<path d="M65.9585 134.491C65.9455 134.452 65.906 134.427 65.8644 134.428C65.6734 134.436 65.4851 134.494 65.3169 134.603C65.2283 134.661 65.3124 134.813 65.4019 134.754C65.5511 134.657 65.7168 134.606 65.8837 134.598C65.9395 134.596 65.9765 134.546 65.9591 134.493C65.9588 134.493 65.9585 134.492 65.9585 134.491Z" fill="#F2935C"/>
<path d="M65.643 133.985C65.6301 133.945 65.5906 133.92 65.549 133.921C65.358 133.93 65.1696 133.986 65.0015 134.097C64.9129 134.155 64.997 134.306 65.0865 134.248C65.2359 134.15 65.4014 134.099 65.5683 134.091C65.6241 134.089 65.6611 134.039 65.6436 133.986C65.6436 133.986 65.6433 133.985 65.643 133.985Z" fill="#F2935C"/>
<path d="M65.3042 133.487C65.2912 133.448 65.2517 133.422 65.2102 133.424C65.0191 133.432 64.8308 133.489 64.6626 133.599C64.574 133.657 64.6581 133.808 64.7476 133.75C64.8968 133.652 65.0625 133.601 65.2294 133.594C65.2852 133.591 65.3222 133.541 65.3048 133.489C65.3048 133.489 65.3045 133.488 65.3042 133.487Z" fill="#F2935C"/>
<path opacity="0.2" d="M61.5168 135.328C61.7778 135.465 62.1795 136.162 62.1795 136.162L68.0808 139.543C68.0856 139.534 68.3131 139.138 68.3475 138.925C68.3667 138.806 68.3779 138.694 68.3845 138.585L58.8847 133.149C58.8669 133.192 58.8473 133.238 58.8304 133.279L58.831 133.279C58.615 133.796 58.467 134.152 58.467 134.152L60.6222 135.365C60.6222 135.365 61.0522 135.084 61.5168 135.328Z" fill="white"/>
<path d="M65.1465 133.573L65.1763 133.508C65.2746 133.295 65.3761 133.074 65.5138 132.875C65.6705 132.65 65.8516 132.488 66.0523 132.395C66.1918 132.33 66.3169 132.326 66.4042 132.383C66.5194 132.459 66.5389 132.615 66.5188 132.734C66.4829 132.95 66.3434 133.155 66.1358 133.296C65.9324 133.435 65.3809 133.534 65.2167 133.561L65.1465 133.573ZM66.2593 132.418C66.1936 132.418 66.1267 132.443 66.0839 132.463C65.8953 132.551 65.7244 132.704 65.5753 132.919C65.4551 133.092 65.3622 133.285 65.2742 133.475C65.59 133.419 65.952 133.33 66.093 133.234C66.2837 133.104 66.4115 132.917 66.444 132.722C66.4603 132.626 66.4473 132.502 66.3627 132.447C66.3316 132.426 66.2958 132.418 66.2593 132.418Z" fill="#F2935C"/>
<path d="M65.2146 133.585L65.1606 133.538C65.0347 133.43 64.6155 133.057 64.514 132.833C64.4103 132.603 64.3974 132.356 64.4787 132.153C64.5242 132.04 64.6218 131.918 64.7593 131.913C64.7617 131.913 64.7647 131.913 64.7671 131.913C64.8692 131.913 64.9708 131.982 65.0537 132.107C65.1766 132.291 65.2471 132.524 65.2634 132.798C65.2778 133.039 65.2498 133.281 65.2227 133.514L65.2146 133.585ZM64.7671 131.989C64.7653 131.989 64.7635 131.989 64.7617 131.989C64.6604 131.992 64.5851 132.09 64.5486 132.182C64.4751 132.365 64.4875 132.591 64.5827 132.802C64.6532 132.957 64.9159 133.222 65.1564 133.435C65.1802 133.227 65.201 133.013 65.1884 132.803C65.173 132.542 65.1067 132.322 64.9913 132.149C64.9509 132.088 64.8692 131.989 64.7671 131.989Z" fill="#F2935C"/>
<path d="M65.2004 71.2466C65.2004 71.2466 66.318 81.2181 66.6166 81.7529C67.6267 83.5619 74.3172 86.6637 74.3172 86.6637L77.7286 85.9477L80.173 87.9937L78.5612 89.2591L76.67 88.5431C75.638 88.7276 74.5917 88.8194 73.5434 88.8176C71.7812 88.8176 63.2836 86.6592 61.8655 84.2846C60.4471 81.9103 59.7957 70.915 59.7957 70.915L65.2004 71.2466Z" fill="#895555"/>
<path d="M59.651 75.1659C59.651 75.1659 57.0294 66.4091 60.2959 63.978C63.5623 61.5469 66.1598 73.5867 66.1598 73.5867L59.651 75.1659Z" fill="#F2935C"/>
<path d="M61.7198 91.1833L61.6944 79.5768L61.4455 63.6847L54.9304 62.7518L49.3814 62.7017L41.8718 65.041L41.7136 68.9404C41.7136 68.9404 42.4887 86.8463 42.445 87.3862C42.3916 88.0479 42.2253 92.96 42.2253 92.96C50.7865 94.9157 61.8548 91.7752 61.7198 91.1833Z" fill="#F2935C"/>
<path opacity="0.2" d="M61.5982 74.6939L61.248 67.2085L62.9186 74.3734L61.5982 74.6939Z" fill="black"/>
<path opacity="0.2" d="M47.1122 75.7842C47.3231 75.7428 48.3902 75.3925 48.3902 75.3925L46.0181 68.7793L49.2746 76.0952L47.3171 76.8762L47.1122 75.7842Z" fill="black"/>
<path d="M46.1955 70.2993C46.1955 70.2993 47.8555 81.3694 48.8144 82.4044C50.4347 84.153 58.4607 88.7932 58.4607 88.7932L62.4666 87.3856C62.7474 87.2932 63.0578 87.3436 63.2871 87.5194L66.0259 89.6146L65.7644 89.8357C65.6514 89.9311 65.4878 89.9504 65.3546 89.884L64.9291 89.6717L65.4052 90.1392L65.2545 90.2666C65.1045 90.3935 64.8965 90.4388 64.704 90.3871L63.4794 90.058L64.6097 90.8118C64.3575 91.025 64.0061 91.099 63.684 91.0068L61.8922 90.495C60.6703 90.7752 59.4255 90.954 58.172 91.0289C56.0624 91.1591 46.0994 87.6704 44.2422 85.116C42.3851 82.5617 40.4705 71.9552 40.4705 71.9552L46.1955 70.2993Z" fill="#895555"/>
<path d="M40.894 77.6637C40.894 77.6637 38.4113 67.6307 41.6778 65.1996C44.9442 62.7685 48.1794 75.4612 48.1794 75.4612L40.894 77.6637Z" fill="#F2935C"/>
<path d="M67.6301 90.4165H61.4687H54.9307C54.9307 90.418 54.9307 90.4192 54.9307 90.4207C54.934 90.9067 55.4755 91.2989 56.1402 91.2965H62.6725H66.4094C66.4151 91.2965 66.4208 91.2965 66.4265 91.2965H66.4274H76.8267C77.4861 91.292 78.0164 90.8985 78.0134 90.4165H67.6301Z" fill="#263238"/>
<path d="M77.017 91.2473H65.4154C65.215 91.2461 65.0541 91.1145 65.0559 90.9532C65.0562 90.923 65.0622 90.8928 65.0743 90.8641L70.2352 79.0058C70.3654 78.6672 70.7541 78.4356 71.195 78.4341H82.8038C83 78.4341 83.1591 78.5621 83.1591 78.7201C83.1591 78.753 83.1519 78.7859 83.138 78.817L77.9771 90.6753C77.8442 91.013 77.457 91.2437 77.017 91.2473Z" fill="#263238"/>
<path opacity="0.7" d="M82.8035 78.4336H71.1946C70.7537 78.4351 70.3653 78.6667 70.2348 79.0053L65.2686 90.4166H61.4685H54.9304C54.9304 90.4179 54.9304 90.4194 54.9304 90.4209C54.9337 90.9068 55.4752 91.2988 56.14 91.2967H62.6723H66.4091C66.4148 91.2967 66.4206 91.2967 66.4263 91.2967H66.4272H76.8265C77.0356 91.2952 77.2288 91.2511 77.399 91.181C77.6687 91.0898 77.8848 90.9092 77.9767 90.6752L83.1376 78.8168C83.1515 78.7857 83.1587 78.7528 83.1587 78.7196C83.1587 78.5619 82.9999 78.4339 82.8035 78.4336Z" fill="white"/>
<path d="M75.8314 84.7469C75.5807 85.3159 75.0727 85.7067 74.6936 85.6272C74.3148 85.5478 74.2136 85.029 74.457 84.4585C74.7002 83.8877 75.2143 83.506 75.5934 83.5857C75.9722 83.6651 76.0855 84.1628 75.8314 84.7469Z" fill="white"/>
<g opacity="0.3">
<path d="M70.2353 79.0058L65.269 90.4171H65.8069L71.1954 78.4341C70.7542 78.4356 70.3655 78.6669 70.2353 79.0058Z" fill="black"/>
</g>
<path d="M58.3234 48.9307L58.6898 49.1463C59.1186 49.155 59.5218 49.4797 59.6224 49.898C59.7231 50.3159 59.5122 50.7892 59.1343 50.993C59.0773 51.0238 59.0116 51.0552 58.9914 51.1165C58.9592 51.215 59.0623 51.2989 59.1406 51.3669C59.526 51.7009 59.4781 52.3644 59.1316 52.7386C58.785 53.1128 58.2345 53.2336 57.7264 53.1931C57.5939 51.7571 58.4466 50.3676 58.3234 48.9307Z" fill="#263238"/>
<path d="M47.4118 52.9731C46.8664 52.9994 46.321 52.662 46.1004 52.1613C46.0396 52.023 46.0013 51.8693 46.0263 51.7201C46.0941 51.316 46.557 51.1309 46.9505 51.0192C46.5109 50.9116 46.2159 50.4734 46.1315 50.028C46.0929 49.8241 46.0896 49.6097 46.1556 49.4131C46.2665 49.0821 46.5624 48.8396 46.8854 48.7092C47.2084 48.5787 47.561 48.544 47.9078 48.5107L49.9066 54.8654C49.4603 54.9657 48.9969 55.027 48.5461 54.95C48.0953 54.873 47.6553 54.6429 47.4037 54.2602C47.1521 53.877 47.1283 53.3328 47.4118 52.9731Z" fill="#263238"/>
<path d="M48.5308 62.9667C50.3752 61.3903 50.2872 57.0176 49.9567 54.6396L55.2137 59.2065C55.0869 59.4753 54.9787 59.7525 54.8898 60.0364C54.7117 60.5431 54.6668 61.0874 54.7593 61.6168C54.8539 62.0535 55.3403 63.2705 55.3403 63.2705C55.3403 63.2705 55.604 64.6313 52.0277 64.5667C50.4554 64.708 48.5308 62.9667 48.5308 62.9667Z" fill="#895555"/>
<path opacity="0.2" d="M50.8982 57.0591C50.5833 59.8342 53.3586 61.1787 54.7613 61.6217C54.6688 61.0923 54.7137 60.5481 54.8918 60.0413L50.8982 57.0591Z" fill="black"/>
<path d="M49.0553 52.567C49.7044 55.8458 50.0024 57.7079 51.9445 59.1681C54.8656 61.3645 58.7679 59.3602 59.1391 55.9463C59.473 52.8735 58.3557 48.0276 54.8548 47.1717C51.4057 46.3286 48.4062 49.2882 49.0553 52.567Z" fill="#895555"/>
<path d="M48.0952 48.6474C48.3185 46.7657 53.0045 46.1424 54.4379 46.9046C54.6522 47.0185 52.0562 48.7344 52.2165 48.6529L50.9678 49.2614C50.7605 49.2439 50.3956 49.5238 50.2717 50.1596C50.2717 50.1596 51.0959 55.2087 49.8164 56.8655C48.5562 56.4551 48.2193 54.4552 47.686 53.3073C46.8919 51.5974 45.8734 49.0733 48.0952 48.6474Z" fill="#263238"/>
<path d="M48.082 55.495C48.4668 56.3113 49.2042 56.8733 49.9214 57.1122C50.9998 57.4718 51.2337 56.3445 50.9989 55.3156C50.7877 54.3893 50.3544 53.2834 49.2409 53.3695C48.1435 53.4543 47.6421 54.5618 48.082 55.495Z" fill="#895555"/>
<path d="M53.6223 52.7321C53.6675 53.0703 53.8881 53.3189 54.1153 53.2875C54.3425 53.2561 54.4898 52.9562 54.4449 52.6179C54.4001 52.2797 54.1792 52.0308 53.9523 52.0622C53.7248 52.094 53.5774 52.3938 53.6223 52.7321Z" fill="#263238"/>
<path d="M57.0382 52.535C57.0831 52.8732 57.3039 53.1221 57.5308 53.0907C57.7581 53.0593 57.9057 52.7594 57.8605 52.4211C57.8156 52.0829 57.5947 51.8341 57.3678 51.8655C57.1406 51.8972 56.993 52.1968 57.0382 52.535Z" fill="#263238"/>
<path d="M56.324 52.4785C56.324 52.4785 57.6477 54.0178 58.0913 54.6568C57.6643 55.1443 56.8052 55.0555 56.8052 55.0555L56.324 52.4785Z" fill="#6D3939"/>
<path d="M52.9797 51.4108C53.0349 51.425 53.0967 51.4105 53.1401 51.3676C53.6562 50.8575 54.2502 50.9632 54.2559 50.9641C54.3448 50.9811 54.4316 50.9246 54.4499 50.8382C54.4683 50.7518 54.4108 50.6682 54.3225 50.6513C54.2911 50.6452 53.5469 50.5127 52.9068 51.1456C52.8429 51.2088 52.8432 51.3096 52.9077 51.3709C52.9285 51.3909 52.9535 51.4039 52.9797 51.4108Z" fill="#263238"/>
<path opacity="0.2" d="M50.4172 55.3474C50.3834 55.3474 50.353 55.3247 50.3443 55.2906C50.2762 55.0227 50.137 54.7757 49.9408 54.5767C49.8133 54.4471 49.6075 54.287 49.352 54.2596C49.1215 54.2345 48.8912 54.3429 48.8021 54.5163C48.7828 54.5537 48.7373 54.5679 48.7008 54.5489C48.6637 54.5298 48.6493 54.4842 48.6683 54.4471C48.7867 54.2167 49.0757 54.0778 49.368 54.1095C49.6681 54.1415 49.9034 54.3236 50.0484 54.4707C50.2629 54.689 50.416 54.9596 50.4904 55.2534C50.5007 55.2939 50.4763 55.335 50.4359 55.3452C50.4296 55.3468 50.4235 55.3474 50.4172 55.3474Z" fill="black"/>
<path d="M58.7705 50.9019C58.8 50.8916 58.8265 50.8732 58.8467 50.8469C58.9013 50.7759 58.8874 50.6754 58.8157 50.6225C58.0952 50.0919 57.3865 50.3441 57.3533 50.3513C57.2683 50.3821 57.224 50.4742 57.2545 50.557C57.2846 50.6397 57.3774 50.682 57.4621 50.6524C57.4913 50.6406 58.0398 50.4534 58.618 50.8792C58.6632 50.913 58.7208 50.9194 58.7705 50.9019Z" fill="#263238"/>
<path d="M46.9954 47.1469C47.1683 46.3511 48.1688 46.067 48.961 46.1367C48.816 45.2044 50.0051 44.5231 50.7967 44.4597C51.6211 44.3936 51.9526 44.6805 51.9526 44.6805C51.8908 44.7007 52.1476 44.1885 52.319 43.9777C52.9521 43.1995 54.0547 42.8624 55.0015 43.1578C55.9483 43.4531 56.6835 44.3637 56.7899 45.373C57.2413 44.81 58.1564 44.7279 58.6982 45.2017C59.2397 45.6753 59.3063 46.616 58.8365 47.1629C59.4434 47.1318 60.0181 47.6944 60.0169 48.3181C60.0154 48.942 59.438 49.4992 58.8314 49.4626C58.8745 50.1597 58.8977 51.033 58.9408 51.7301L57.6996 49.2884C57.1907 49.1733 57.0728 48.9662 56.9146 48.4567C56.6299 49.1507 56.0598 49.1603 55.3275 49.2141C54.5953 49.2679 53.8477 48.8701 53.4671 48.225C53.1673 48.9501 52.5107 49.5481 51.7453 49.6155C50.9802 49.6825 50.1687 49.1108 50.0825 48.3274C49.7083 49.0462 48.785 49.4038 48.0395 49.119C47.2946 48.8339 46.8227 47.9427 46.9954 47.1469Z" fill="#263238"/>
<path d="M56.6801 56.1785C56.3983 56.5427 56.1431 56.9269 55.9168 57.3282C55.8412 57.3005 55.7634 57.2739 55.689 57.2425C54.6605 56.8496 54.3107 56.3286 54.2411 55.8672C54.2109 55.641 54.2342 55.4108 54.3089 55.1952C54.3481 55.0726 54.4041 54.9563 54.4755 54.8491C54.8971 55.3843 55.8249 55.824 56.3323 56.0375C56.555 56.1193 56.6801 56.1785 56.6801 56.1785Z" fill="#263238"/>
<path d="M56.3447 56.0307L56.11 56.3638C55.1445 55.9923 54.5138 55.6042 54.3213 55.1881C54.3605 55.0655 54.4165 54.9492 54.4879 54.8423C54.9119 55.3823 55.8373 55.8168 56.3447 56.0307Z" fill="white"/>
<path d="M55.7016 57.2357C54.6731 56.8428 54.3233 56.3215 54.2537 55.8604C54.6418 56.0168 54.9992 56.2406 55.3095 56.5217C55.5111 56.7129 55.6482 56.9624 55.7016 57.2357Z" fill="#C15854"/>
<path d="M74.5967 102.474C74.4696 103.74 74.196 105.469 73.8666 106.697C72.9716 110.164 71.9492 113.499 70.6646 116.944C68.1789 123.748 66.1706 130.061 66.1706 130.061L59.8576 128.163C59.8576 128.163 64.0314 108.475 66.8464 106.462H49.5852C49.2624 106.462 48.9403 106.441 48.6206 106.397C51.5933 106.012 56.2263 104.176 60.5254 102.34C64.3237 100.713 67.8761 99.0863 69.8007 98.4727C72.1565 99.4813 74.7775 100.49 74.5967 102.474Z" fill="#5B321A"/>
<path opacity="0.6" d="M69.8053 98.491C67.8761 99.1186 64.3237 100.731 60.5299 102.358C56.2308 104.194 51.5978 106.03 48.6252 106.416C43.6164 105.747 41.7337 99.7646 46.9696 92.8672C50.369 92.8672 53.787 96.1206 53.787 96.1206C53.787 96.1206 64.064 96.0696 69.8053 98.491Z" fill="#5B321A"/>
<path d="M83.8619 119.676L79.6882 122.209C79.6882 122.209 76.2054 114.88 72.8756 106.611C73.2053 105.383 73.4346 104.13 73.5621 102.865C73.7429 100.88 72.1708 99.4812 69.815 98.4958C67.8858 99.1234 64.3334 100.736 60.5396 102.363C56.2405 104.199 51.6075 106.035 48.6349 106.421C48.2935 106.467 47.9496 106.491 47.6052 106.495C41.8916 106.495 39.9206 101.475 42.2255 92.9602C45.6248 92.9602 51.4451 92.5929 51.4451 92.5929C51.4451 92.5929 62.6776 89.8879 70.7609 90.8081C74.6966 91.2729 77.8823 94.2313 78.6449 98.1286C80.7272 108.465 83.8619 119.676 83.8619 119.676Z" fill="#5B321A"/>
<path d="M84.5209 119.984L79.6882 122.209C79.6882 122.209 76.2054 114.88 72.8756 106.611C73.2053 105.383 73.4346 104.13 73.5621 102.865C73.7429 100.88 72.1708 99.4812 69.815 98.4958C67.8858 99.1234 64.3334 100.736 60.5396 102.363C56.2405 104.199 51.6075 106.035 48.6349 106.421C48.2935 106.467 47.9496 106.491 47.6052 106.495C41.8916 106.495 39.9206 101.475 42.2255 92.9602C45.6248 92.9602 51.4451 92.5929 51.4451 92.5929C51.4451 92.5929 62.6776 89.8879 70.7609 90.8081C74.6966 91.2729 77.8823 94.2313 78.6449 98.1286C80.7272 108.465 84.5209 119.984 84.5209 119.984Z" fill="#5B321A"/>
<path opacity="0.2" d="M74.5967 102.474C74.4696 103.74 74.196 105.469 73.8666 106.697C72.9716 110.164 71.9492 113.499 70.6646 116.944C68.1789 123.748 66.1706 130.061 66.1706 130.061L59.8576 128.163C59.8576 128.163 64.0314 108.475 66.8464 106.462H49.5852C49.2624 106.462 48.9403 106.441 48.6206 106.397C51.5933 106.012 56.2263 104.176 60.5254 102.34C64.3237 100.713 67.8761 99.0863 69.8007 98.4727C72.1565 99.4813 74.7775 100.49 74.5967 102.474Z" fill="#5B321A"/>
<path d="M55.3441 81.6602C56.1905 81.6602 56.8767 79.4665 56.8767 76.7603C56.8767 74.0541 56.1905 71.8604 55.3441 71.8604C54.4977 71.8604 53.8115 74.0541 53.8115 76.7603C53.8115 79.4665 54.4977 81.6602 55.3441 81.6602Z" fill="white"/>
</svg>
