<svg xmlns="http://www.w3.org/2000/svg" width="147" height="147" viewBox="0 0 147 147" fill="none">
  <circle cx="73.5" cy="73.5" r="73.5" fill="#51E098" fill-opacity="0.2"/>
  <circle cx="73.5" cy="73.5" r="47.5" fill="#51E098"/>
  <mask id="path-3-inside-1_18409_15315" fill="white">
    <path d="M91.5663 61.8419L67.8873 87.4202C67.7499 87.5689 67.5867 87.6868 67.407 87.7672C67.2274 87.8477 67.0348 87.8891 66.8403 87.8891C66.6458 87.8891 66.4532 87.8477 66.2736 87.7672C66.0939 87.6868 65.9307 87.5689 65.7932 87.4202L55.4337 76.2297C55.156 75.9298 55 75.5229 55 75.0987C55 74.6745 55.156 74.2676 55.4337 73.9676C55.7114 73.6677 56.088 73.4991 56.4808 73.4991C56.8735 73.4991 57.2501 73.6677 57.5278 73.9676L66.8403 84.0291L89.4722 59.5798C89.7499 59.2798 90.1265 59.1113 90.5192 59.1113C90.912 59.1113 91.2886 59.2798 91.5663 59.5798C91.844 59.8798 92 60.2866 92 60.7109C92 61.1351 91.844 61.5419 91.5663 61.8419Z"/>
  </mask>
  <path d="M91.5663 61.8419L67.8873 87.4202C67.7499 87.5689 67.5867 87.6868 67.407 87.7672C67.2274 87.8477 67.0348 87.8891 66.8403 87.8891C66.6458 87.8891 66.4532 87.8477 66.2736 87.7672C66.0939 87.6868 65.9307 87.5689 65.7932 87.4202L55.4337 76.2297C55.156 75.9298 55 75.5229 55 75.0987C55 74.6745 55.156 74.2676 55.4337 73.9676C55.7114 73.6677 56.088 73.4991 56.4808 73.4991C56.8735 73.4991 57.2501 73.6677 57.5278 73.9676L66.8403 84.0291L89.4722 59.5798C89.7499 59.2798 90.1265 59.1113 90.5192 59.1113C90.912 59.1113 91.2886 59.2798 91.5663 59.5798C91.844 59.8798 92 60.2866 92 60.7109C92 61.1351 91.844 61.5419 91.5663 61.8419Z" fill="white"/>
  <path d="M91.5663 61.8419L62.2132 34.6685L62.2132 34.6685L91.5663 61.8419ZM67.8873 87.4202L38.5342 60.2468L38.5267 60.255L38.5192 60.2631L67.8873 87.4202ZM65.7932 87.4202L95.1614 60.2631L95.1539 60.255L95.1464 60.2468L65.7932 87.4202ZM55.4337 76.2297L84.7868 49.0563L84.7868 49.0563L55.4337 76.2297ZM55 75.0987H95H55ZM57.5278 73.9676L86.8836 46.7971L86.8809 46.7942L57.5278 73.9676ZM66.8403 84.0291L37.4845 111.2L66.8386 142.915L96.1945 111.201L66.8403 84.0291ZM89.4722 59.5798L60.1191 32.4064L60.118 32.4076L89.4722 59.5798ZM90.5192 59.1113V19.1113V59.1113ZM62.2132 34.6685L38.5342 60.2468L97.2405 114.594L120.919 89.0153L62.2132 34.6685ZM38.5192 60.2631C41.9401 56.5637 46.1713 53.4492 51.0595 51.2603L83.7545 124.274C89.0021 121.924 93.5597 118.574 97.2555 114.577L38.5192 60.2631ZM51.0595 51.2603C55.9579 49.0668 61.3304 47.8891 66.8403 47.8891V127.889C72.7392 127.889 78.4968 126.629 83.7545 124.274L51.0595 51.2603ZM66.8403 47.8891C72.3502 47.8891 77.7227 49.0668 82.6211 51.2603L49.9261 124.274C55.1838 126.629 60.9414 127.889 66.8403 127.889V47.8891ZM82.6211 51.2603C87.5092 53.4491 91.7405 56.5636 95.1614 60.2631L36.4251 114.577C40.1209 118.574 44.6786 121.924 49.9261 124.274L82.6211 51.2603ZM95.1464 60.2468L84.7868 49.0563L26.0806 103.403L36.4401 114.594L95.1464 60.2468ZM84.7868 49.0563C91.6338 56.4525 95 65.8675 95 75.0987H15C15 85.1783 18.6782 95.407 26.0806 103.403L84.7868 49.0563ZM95 75.0987C95 84.3298 91.6339 93.7448 84.7868 101.141L26.0806 46.7942C18.6782 54.7904 15 65.0191 15 75.0987H95ZM84.7868 101.141C77.8437 108.641 67.7364 113.499 56.4808 113.499V33.4991C44.4397 33.4991 33.5791 38.6942 26.0806 46.7942L84.7868 101.141ZM56.4808 113.499C45.2251 113.499 35.1179 108.641 28.1747 101.141L86.8809 46.7942C79.3824 38.6942 68.5218 33.4991 56.4808 33.4991V113.499ZM28.172 101.138L37.4845 111.2L96.1961 56.8586L86.8836 46.7971L28.172 101.138ZM96.1945 111.201L118.826 86.752L60.118 32.4076L37.4861 56.8569L96.1945 111.201ZM118.825 86.7532C111.882 94.2534 101.775 99.1113 90.5192 99.1113V19.1113C78.4782 19.1113 67.6177 24.3063 60.1191 32.4064L118.825 86.7532ZM90.5192 99.1113C79.2638 99.1113 69.1565 94.2535 62.2132 86.7532L120.919 32.4064C113.421 24.3062 102.56 19.1113 90.5192 19.1113V99.1113ZM62.2132 86.7532C55.3662 79.357 52 69.9421 52 60.7109L132 60.7109C132 50.6312 128.322 40.4026 120.919 32.4064L62.2132 86.7532ZM52 60.7109C52 51.4797 55.3662 42.0647 62.2132 34.6685L120.919 89.0153C128.322 81.0191 132 70.7905 132 60.7109L52 60.7109Z" fill="white" mask="url(#path-3-inside-1_18409_15315)"/>
</svg>