<svg width="120" height="120" viewBox="0 0 120 120" fill="none" xmlns="http://www.w3.org/2000/svg">
<rect width="120" height="120" rx="24" fill="#E1E5E9"/>
<path d="M101.011 96.6563C100.731 97.141 100.329 97.5435 99.8441 97.8232C99.3594 98.103 98.8096 98.2502 98.2499 98.2501H21.7499C21.1907 98.2495 20.6414 98.1018 20.1573 97.8218C19.6732 97.5418 19.2713 97.1394 18.9919 96.6549C18.7125 96.1705 18.5655 95.621 18.5657 95.0618C18.5658 94.5025 18.7131 93.9532 18.9927 93.4688C25.0609 82.978 34.4122 75.4555 45.3255 71.8895C39.9273 68.6759 35.7333 63.7792 33.3874 57.9513C31.0416 52.1234 30.6737 45.6866 32.3401 39.6294C34.0066 33.5722 37.6154 28.2295 42.6122 24.4217C47.609 20.614 53.7176 18.5518 59.9999 18.5518C66.2822 18.5518 72.3908 20.614 77.3876 24.4217C82.3844 28.2295 85.9932 33.5722 87.6597 39.6294C89.3262 45.6866 88.9582 52.1234 86.6124 57.9513C84.2666 63.7792 80.0725 68.6759 74.6744 71.8895C85.5876 75.4555 94.9389 82.978 101.007 93.4688C101.287 93.9531 101.435 94.5025 101.436 95.0621C101.437 95.6216 101.29 96.1714 101.011 96.6563Z" fill="#CDD2D6"/>
</svg>
